<svg xmlns="http://www.w3.org/2000/svg" width="1056" height="792" viewBox="0 0 1056 792">
    <defs>
        <style>.cls-1,.cls-8{fill:#f2f4f8;}.cls-1,.cls-10,.cls-11,.cls-12,.cls-2,.cls-3,.cls-4,.cls-5,.cls-7,.cls-8,.cls-9{stroke:#000;}.cls-1,.cls-10,.cls-11,.cls-12,.cls-15,.cls-17,.cls-2,.cls-5,.cls-7{stroke-linejoin:round;}.cls-15,.cls-17,.cls-2,.cls-9{fill:none;}.cls-10,.cls-11,.cls-15,.cls-2,.cls-7{stroke-linecap:round;}.cls-3,.cls-5{fill:#b3e6ff;}.cls-3,.cls-4,.cls-8,.cls-9{stroke-miterlimit:10;}.cls-4{fill:#e3f6ff;}.cls-6,.cls-7{fill:#e6d6ff;}.cls-10{fill:#fff;}.cls-11,.cls-12{fill:#87eded;}.cls-13{font-size:20px;}.cls-13,.cls-14{font-family:IBMPlexSans-SemiBold, IBM Plex Sans;font-weight:600;}.cls-14{font-size:24px;}.cls-15,.cls-17{stroke:#50565b;stroke-width:2px;}.cls-16{fill:#50565b;}</style>
    </defs>
    <g id="Figure">
        <rect class="cls-1" x="246.9355" y="494.1367" width="611.4716" height="184.2791" />
        <g id="HP_icon" data-name="HP icon">
            <line class="cls-2" x1="322.442" y1="606.0204" x2="360.7338" y2="606.0204" />
            <polyline class="cls-2" points="360.734 606.02 360.734 580.891 322.442 580.891 322.442 596.747" />
            <path class="cls-2" d="M353.5524,580.8914v-9.5746a11.9645,11.9645,0,0,0-23.929,0v9.5746" />
            <path class="cls-2" d="M341.5814,623.97s-34.0971-19.99-34.0971-59.2326" />
            <path class="cls-2" d="M375.6915,564.7371c0,39.2431-34.11,59.2326-34.11,59.2326" />
            <polyline class="cls-2" points="307.484 564.737 341.588 544.993 375.692 564.737" />
            <circle class="cls-3" cx="375.6915" cy="564.7371" r="3.5899" />
            <circle class="cls-3" cx="307.4843" cy="564.7371" r="3.5899" />
            <circle class="cls-3" cx="341.5879" cy="623.9697" r="3.5899" />
        </g>
        <path id="Cloud" class="cls-4" d="M556.8951,567.4981a41.9223,41.9223,0,0,0-41.21,34.0409,31.4417,31.4417,0,0,0,5.5338,62.38h71.2679a31.4417,31.4417,0,0,0,5.5337-62.38,41.9223,41.9223,0,0,0-33.2863-33.2863A43.0552,43.0552,0,0,0,556.8951,567.4981Z" />
        <g id="Hardware">
            <rect class="cls-5" x="523.3452" y="628.5192" width="67.0106" height="17.7381" />
            <polygon class="cls-5" points="590.356 627.862 523.345 627.862 535.171 602.24 578.53 602.24 590.356 627.862" />
            <rect x="565.7196" y="633.4464" width="7.8836" height="7.8836" />
            <rect x="576.5595" y="633.4464" width="7.8836" height="7.8836" />
        </g>
        <g id="lock">
            <g id="lock-2" data-name="lock">
                <rect class="cls-6" x="515.6479" y="626.1475" width="12.0619" height="4.0206" />
                <path class="cls-7" d="M521.6789,645.5806V640.89m-6.7011-10.9361v-8.4969a6.7011,6.7011,0,1,1,13.4021,0v8.4969m2.68,2.0371a13.7331,13.7331,0,0,0-2.68-2.0371,13.4,13.4,0,0,0-13.4021,0,13.7354,13.7354,0,0,0-2.68,2.0371,13.4021,13.4021,0,1,0,18.763,0Z" />
                <circle cx="521.6789" cy="640.8898" r="2.5129" />
            </g>
        </g>
        <rect class="cls-8" x="246.9355" y="146.2625" width="611.4716" height="242.9134" />
        <g id="Database">
            <path class="cls-3" d="M765.9682,249.2469H686.1541c-5.51,0-9.9767,3.8287-9.9767,8.5515v94.0667c0,4.7228,4.4667,8.5515,9.9767,8.5515h79.8141c5.51,0,9.9768-3.8287,9.9768-8.5515V257.7984C775.945,253.0756,771.4782,249.2469,765.9682,249.2469Z" />
            <line class="cls-9" x1="675.8032" y1="285.8403" x2="776.3191" y2="285.8403" />
            <line class="cls-9" x1="677.4244" y1="323.8232" x2="776.3191" y2="323.8232" />
            <circle cx="693.6367" cy="266.0845" r="5.0258" />
            <circle cx="693.6367" cy="304.8317" r="5.0258" />
            <circle cx="693.6367" cy="341.9578" r="5.0258" />
        </g>
        <g id="application">
            <g id="application-2" data-name="application">
                <path class="cls-10" d="M472.2586,359.0212H371.7427V265.2063H472.2586ZM371.7427,275.2579H472.2586m-73.7117,0v83.7633" />
                <path d="M465.5575,270.2321a1.6753,1.6753,0,1,1-1.6753-1.6752A1.6759,1.6759,0,0,1,465.5575,270.2321Zm-8.3763-1.6752a1.6753,1.6753,0,1,0,1.6752,1.6752A1.6758,1.6758,0,0,0,457.1812,268.5569Zm-6.7011,0a1.6753,1.6753,0,1,0,1.6753,1.6752A1.6758,1.6758,0,0,0,450.48,268.5569Z" />
            </g>
        </g>
        <g id="application-3" data-name="application">
            <g id="application-4" data-name="application">
                <path class="cls-10" d="M453.8307,342.2685H353.3148V248.4537H453.8307ZM353.3148,258.5053H453.8307m-73.7117,0v83.7632" />
                <path d="M447.13,253.48a1.6753,1.6753,0,1,1-1.6753-1.6753A1.6758,1.6758,0,0,1,447.13,253.48Zm-8.3763-1.6753a1.6753,1.6753,0,1,0,1.6752,1.6753A1.6759,1.6759,0,0,0,438.7533,251.8042Zm-6.7011,0a1.6753,1.6753,0,1,0,1.6753,1.6753A1.6759,1.6759,0,0,0,432.0522,251.8042Z" />
            </g>
        </g>
        <g id="key">
            <path class="cls-11" d="M733.301,622.696a19.5672,19.5672,0,1,1-.9294-13.2938" />
            <circle cx="708.141" cy="617.3085" r="4.1882" />
            <polyline class="cls-12" points="732.372 609.402 771.445 609.402 778.759 616.716 772.455 623.019 747.888 623.019 743.483 618.655 739.443 622.696 733.301 622.696" />
        </g>
    </g>
    <g id="Text">
        <text class="cls-13" transform="translate(437.9155 537.6932)">Hyper Protect Crypto Services</text>
        <text class="cls-13" transform="translate(445.3638 449.8368)">PKCS #11</text>
        <text class="cls-13" transform="translate(310.3154 188.076)">Encryption/Decryption</text>
        <text class="cls-14" transform="translate(43.5522 75.995)">Encrypting application using the standard PKCS #11 API</text>
        <text class="cls-13" transform="translate(296.68 212.5768)">Digital signing/validation</text>
    </g>
    <g id="Line">
        <line class="cls-15" x1="122.9659" y1="271.0698" x2="285.4666" y2="271.0698" />
        <line class="cls-15" x1="285.4666" y1="271.0698" x2="285.4666" y2="294.5235" />
        <line class="cls-15" x1="285.4666" y1="294.5235" x2="340.0351" y2="294.5235" />
        <polygon class="cls-16" points="338.868 298.513 345.776 294.523 338.868 290.534 338.868 298.513" />
        <line class="cls-15" x1="478.122" y1="294.5235" x2="610.4679" y2="294.5235" />
        <line class="cls-15" x1="610.4679" y1="294.5235" x2="610.4679" y2="317.9772" />
        <line class="cls-15" x1="610.4679" y1="317.9772" x2="665.0364" y2="317.9772" />
        <polygon class="cls-16" points="663.869 321.966 670.777 317.977 663.869 313.988 663.869 321.966" />
        <line class="cls-17" x1="412.7867" y1="399.1051" x2="412.7867" y2="485.0451" />
        <polygon class="cls-16" points="408.798 400.272 412.787 393.364 416.776 400.272 408.798 400.272" />
        <polygon class="cls-16" points="408.798 483.878 412.787 490.786 416.776 483.878 408.798 483.878" />
    </g>
</svg>