<svg xmlns="http://www.w3.org/2000/svg" width="1056" height="580" viewBox="0 0 1056 580">
    <defs>
        <style>.cls-1,.cls-8{fill:#f2f4f8;}.cls-1,.cls-10,.cls-11,.cls-12,.cls-2,.cls-3,.cls-4,.cls-5,.cls-7,.cls-8,.cls-9{stroke:#000;}.cls-1,.cls-10,.cls-11,.cls-12,.cls-15,.cls-17,.cls-2,.cls-5,.cls-7{stroke-linejoin:round;}.cls-15,.cls-17,.cls-2,.cls-9{fill:none;}.cls-10,.cls-11,.cls-15,.cls-2,.cls-7{stroke-linecap:round;}.cls-3,.cls-5{fill:#b3e6ff;}.cls-3,.cls-4,.cls-8,.cls-9{stroke-miterlimit:10;}.cls-4{fill:#e3f6ff;}.cls-6,.cls-7{fill:#e6d6ff;}.cls-10{fill:#fff;}.cls-11,.cls-12{fill:#87eded;}.cls-13{font-size:16px;}.cls-13,.cls-14{font-family:IBMPlexSans-SemiBold, IBM Plex Sans;font-weight:600;}.cls-14{font-size:18px;}.cls-15,.cls-17{stroke:#50565b;stroke-width:2px;}.cls-16{fill:#50565b;}</style>
    </defs>
    <g id="Figure">
        <rect class="cls-1" x="296.7403" y="388.9358" width="487.1979" height="146.8268" />
        <g id="HP_icon" data-name="HP icon">
            <line class="cls-2" x1="356.9011" y1="478.0806" x2="387.4106" y2="478.0806" />
            <polyline class="cls-2" points="387.411 478.081 387.411 458.059 356.901 458.059 356.901 470.692" />
            <path class="cls-2" d="M381.6887,458.0588V450.43a9.5329,9.5329,0,0,0-19.0657,0v7.6288" />
            <path class="cls-2" d="M372.1507,492.3819s-27.1674-15.9269-27.1674-47.1943" />
            <path class="cls-2" d="M399.3283,445.1876c0,31.2674-27.1776,47.1943-27.1776,47.1943" />
            <polyline class="cls-2" points="344.983 445.188 372.156 429.456 399.328 445.188" />
            <circle class="cls-3" cx="399.3283" cy="445.1876" r="2.8603" />
            <circle class="cls-3" cx="344.9833" cy="445.1876" r="2.8603" />
            <circle class="cls-3" cx="372.1558" cy="492.3819" r="2.8603" />
        </g>
        <path id="Cloud" class="cls-4" d="M543.7047,447.3874A33.4021,33.4021,0,0,0,510.87,474.51a25.0516,25.0516,0,0,0,4.4091,49.7023h56.7836a25.0516,25.0516,0,0,0,4.409-49.7023,33.402,33.402,0,0,0-26.5212-26.5213A34.3019,34.3019,0,0,0,543.7047,447.3874Z" />
        <g id="Hardware">
            <rect class="cls-5" x="516.9733" y="496.0068" width="53.3916" height="14.1331" />
            <polygon class="cls-5" points="570.365 495.483 516.973 495.483 526.395 475.069 560.943 475.069 570.365 495.483" />
            <rect x="550.7356" y="499.9326" width="6.2814" height="6.2814" />
            <rect x="559.3725" y="499.9326" width="6.2814" height="6.2814" />
        </g>
        <g id="lock">
            <g id="lock-2" data-name="lock">
                <rect class="cls-6" x="510.8404" y="494.1171" width="9.6105" height="3.2035" />
                <path class="cls-7" d="M515.6456,509.6007v-3.7374m-5.3391-8.7135v-6.77a5.3392,5.3392,0,0,1,10.6783,0v6.77m2.1357,1.6231a10.9457,10.9457,0,0,0-2.1357-1.6232,10.6771,10.6771,0,0,0-10.6783,0,10.9457,10.9457,0,0,0-2.1357,1.6232,10.6784,10.6784,0,1,0,14.95,0Z" />
                <circle cx="515.6456" cy="505.8633" r="2.0022" />
            </g>
        </g>
        <rect class="cls-8" x="296.7403" y="111.7625" width="487.1979" height="193.5444" />
        <g id="Database">
            <path class="cls-3" d="M710.2863,193.8167H646.6934c-4.39,0-7.9491,3.05-7.9491,6.8135V275.579c0,3.763,3.559,6.8135,7.9491,6.8135h63.5929c4.39,0,7.9492-3.05,7.9492-6.8135V200.63C718.2355,196.8672,714.6765,193.8167,710.2863,193.8167Z" />
            <line class="cls-9" x1="638.4462" y1="222.9729" x2="718.5336" y2="222.9729" />
            <line class="cls-9" x1="639.738" y1="253.2363" x2="718.5336" y2="253.2363" />
            <circle cx="652.6553" cy="207.2322" r="4.0044" />
            <circle cx="652.6553" cy="238.1046" r="4.0044" />
            <circle cx="652.6553" cy="267.6853" r="4.0044" />
        </g>
        <g id="application">
            <g id="application-2" data-name="application">
                <path class="cls-10" d="M476.2694,281.2807H396.182V206.5326h80.0874ZM396.182,214.5413h80.0874m-58.7307,0v66.7394" />
                <path d="M470.93,210.5369a1.3348,1.3348,0,1,1-1.3348-1.3348A1.3353,1.3353,0,0,1,470.93,210.5369Zm-6.6739-1.3348a1.3348,1.3348,0,1,0,1.3348,1.3348A1.3353,1.3353,0,0,0,464.2563,209.2021Zm-5.3392,0a1.3348,1.3348,0,1,0,1.3348,1.3348A1.3353,1.3353,0,0,0,458.9171,209.2021Z" />
            </g>
        </g>
        <g id="application-3" data-name="application">
            <g id="application-4" data-name="application">
                <path class="cls-10" d="M461.5867,267.9328H381.4994V193.1847h80.0873Zm-80.0873-66.7394h80.0873m-58.7307,0v66.7394" />
                <path d="M456.2475,197.189a1.3348,1.3348,0,1,1-1.3348-1.3348A1.3352,1.3352,0,0,1,456.2475,197.189Zm-6.6739-1.3348a1.3348,1.3348,0,1,0,1.3348,1.3348A1.3353,1.3353,0,0,0,449.5736,195.8542Zm-5.3392,0a1.3348,1.3348,0,1,0,1.3348,1.3348A1.3353,1.3353,0,0,0,444.2344,195.8542Z" />
            </g>
        </g>
        <g id="key">
            <path class="cls-11" d="M684.2583,491.3671a15.59,15.59,0,1,1-.74-10.592" />
            <circle cx="664.2118" cy="487.0745" r="3.337" />
            <polyline class="cls-12" points="683.518 480.775 714.65 480.775 720.477 486.602 715.455 491.625 695.881 491.625 692.371 488.148 689.152 491.367 684.258 491.367" />
        </g>
    </g>
    <g id="Text">
        <text class="cls-13" transform="translate(448.9063 423.6405)">Hyper Protect Crypto Services</text>
        <text class="cls-13" transform="translate(454.8403 353.6395)">PKCS #11</text>
        <text class="cls-13" transform="translate(346.8984 145.078)">Encryption/Decryption</text>
        <text class="cls-14" transform="translate(36.5522 56.495)">Encrypting application using the standard PKCS #11 API</text>
        <text class="cls-13" transform="translate(335.9985 164.5995)">Digital signing/validation</text>
    </g>
    <g id="Line">
        <line class="cls-15" x1="197.9659" y1="211.2043" x2="327.4404" y2="211.2043" />
        <line class="cls-15" x1="327.4404" y1="211.2043" x2="327.4404" y2="229.8914" />
        <line class="cls-15" x1="327.4404" y1="229.8914" x2="369.7518" y2="229.8914" />
        <polygon class="cls-16" points="368.585 233.88 375.493 229.891 368.585 225.902 368.585 233.88" />
        <line class="cls-15" x1="480.9411" y1="229.8914" x2="586.3895" y2="229.8914" />
        <line class="cls-15" x1="586.3895" y1="229.8914" x2="586.3895" y2="248.5784" />
        <line class="cls-15" x1="586.3895" y1="248.5784" x2="628.7009" y2="248.5784" />
        <polygon class="cls-16" points="627.534 252.567 634.442 248.578 627.534 244.589 627.534 252.567" />
        <line class="cls-17" x1="428.8844" y1="314.3849" x2="428.8844" y2="380.5252" />
        <polygon class="cls-16" points="424.895 315.552 428.884 308.644 432.873 315.552 424.895 315.552" />
        <polygon class="cls-16" points="424.895 379.358 428.884 386.266 432.873 379.358 424.895 379.358" />
    </g>
</svg>