<svg xmlns="http://www.w3.org/2000/svg" width="1056" height="390" viewBox="0 0 1056 390">
    <defs>
        <style>.cls-1{fill:#e3f6ff;}.cls-1,.cls-11,.cls-12,.cls-13,.cls-2,.cls-4,.cls-5,.cls-6,.cls-7,.cls-8,.cls-9{stroke:#000;}.cls-1,.cls-2,.cls-8{stroke-miterlimit:10;}.cls-14,.cls-16,.cls-2,.cls-7{fill:none;}.cls-3,.cls-4,.cls-8,.cls-9{fill:#b3e6ff;}.cls-11,.cls-12,.cls-16,.cls-4,.cls-7{stroke-linecap:round;}.cls-11,.cls-12,.cls-13,.cls-14,.cls-16,.cls-4,.cls-5,.cls-6,.cls-7,.cls-9{stroke-linejoin:round;}.cls-5{fill:#fff;}.cls-6{fill:#f2f4f8;}.cls-10,.cls-11{fill:#e6d6ff;}.cls-12,.cls-13{fill:#87eded;}.cls-14,.cls-16{stroke:#50565b;stroke-width:2px;}.cls-15{fill:#50565b;}.cls-17{font-size:16px;}.cls-17,.cls-18{font-family:IBMPlexSans-SemiBold, IBM Plex Sans;font-weight:600;}.cls-18{font-size:18px;}</style>
    </defs>
    <g id="Figure">
        <g id="Database">
            <path class="cls-1" d="M711.7284,70.2053H643.3207c-4.7226,0-8.551,3.2815-8.551,7.3294v80.6234c0,4.0479,3.8284,7.3294,8.551,7.3294h68.4077c4.7226,0,8.551-3.2815,8.551-7.3294V77.5347C720.2794,73.4868,716.451,70.2053,711.7284,70.2053Z" />
            <line class="cls-2" x1="634.4491" y1="101.569" x2="720.6" y2="101.569" />
            <line class="cls-2" x1="635.8386" y1="134.1237" x2="720.6" y2="134.1237" />
            <circle cx="653.704" cy="85.6886" r="4.3075" />
            <circle cx="653.704" cy="117.8464" r="4.3075" />
            <circle cx="653.704" cy="148.8131" r="4.3075" />
        </g>
        <g id="lock">
            <g id="lock-2" data-name="lock">
                <rect class="cls-3" x="630.1415" y="149.2299" width="11.0766" height="3.6922" />
                <path class="cls-4" d="M635.68,167.0755v-4.3076m-6.1536-10.0427v-7.8028a6.1536,6.1536,0,1,1,12.3072,0v7.8028m2.4615,1.8707a12.6084,12.6084,0,0,0-2.4615-1.8707,12.305,12.305,0,0,0-12.3072,0,12.6084,12.6084,0,0,0-2.4615,1.8707,12.3073,12.3073,0,1,0,17.23,0Z" />
                <circle cx="635.6798" cy="162.7679" r="1.8461" />
            </g>
        </g>
        <rect class="cls-5" x="284.307" y="211.3817" width="449.2157" height="135.3801" />
        <rect class="cls-6" x="264" y="190.4593" width="449.2157" height="135.3801" />
        <g id="HP_icon" data-name="HP icon">
            <line class="cls-7" x1="319.4707" y1="272.6544" x2="347.6016" y2="272.6544" />
            <polyline class="cls-7" points="347.602 272.654 347.602 254.193 319.471 254.193 319.471 265.841" />
            <path class="cls-7" d="M342.3258,254.1934V247.16a8.79,8.79,0,1,0-17.5793,0v7.0339" />
            <path class="cls-7" d="M333.5313,285.8407s-25.0493-14.6852-25.0493-43.515" />
            <path class="cls-7" d="M358.59,242.3257c0,28.83-25.0589,43.515-25.0589,43.515" />
            <polyline class="cls-7" points="308.482 242.326 333.536 227.821 358.59 242.326" />
            <circle class="cls-8" cx="358.5902" cy="242.3257" r="2.6373" />
            <circle class="cls-8" cx="308.482" cy="242.3257" r="2.6373" />
            <circle class="cls-8" cx="333.5361" cy="285.8407" r="2.6373" />
        </g>
        <path id="Cloud" class="cls-1" d="M491.7109,244.3541a30.798,30.798,0,0,0-30.2745,25.008,23.0985,23.0985,0,0,0,4.0653,45.8275h52.3567a23.0985,23.0985,0,0,0,4.0654-45.8275A30.798,30.798,0,0,0,497.47,244.9084,31.63,31.63,0,0,0,491.7109,244.3541Z" />
        <g id="Hardware">
            <rect class="cls-9" x="467.0635" y="289.183" width="49.2291" height="13.0312" />
            <polygon class="cls-9" points="516.293 288.7 467.064 288.7 475.751 269.877 507.605 269.877 516.293 288.7" />
            <rect x="498.1937" y="292.8028" width="5.7917" height="5.7917" />
            <rect x="506.1572" y="292.8028" width="5.7917" height="5.7917" />
        </g>
        <g id="lock-3" data-name="lock">
            <g id="lock-4" data-name="lock">
                <rect class="cls-10" x="461.4087" y="287.4407" width="8.8612" height="2.9537" />
                <path class="cls-11" d="M465.8394,301.7171v-3.446m-4.9229-8.0342v-6.2423a4.9229,4.9229,0,1,1,9.8458,0v6.2423m1.9691,1.4965a10.0941,10.0941,0,0,0-1.9691-1.4966,9.8444,9.8444,0,0,0-9.8458,0,10.0918,10.0918,0,0,0-1.9692,1.4966,9.8459,9.8459,0,1,0,13.7841,0Z" />
                <circle cx="465.8394" cy="298.2711" r="1.8461" />
            </g>
        </g>
        <g id="key">
            <path class="cls-12" d="M615.4577,287.7637a14.3751,14.3751,0,1,1-.6828-9.7663" />
            <circle cx="596.974" cy="283.8057" r="3.0768" />
            <polyline class="cls-13" points="614.775 277.997 643.48 277.997 648.853 283.37 644.222 288.001 626.174 288.001 622.938 284.795 619.97 287.764 615.458 287.764" />
        </g>
    </g>
    <g id="Line">
        <line class="cls-14" x1="484.3003" y1="118.8885" x2="484.3003" y2="178.5647" />
        <polygon class="cls-15" points="480.311 177.398 484.3 184.306 488.289 177.398 480.311 177.398" />
        <line class="cls-16" x1="484.3003" y1="118.8885" x2="629.5262" y2="118.8885" />
    </g>
    <g id="Text">
        <text class="cls-17" transform="translate(411.6875 223.6895)">Hyper Protect Crypto Services</text>
        <text class="cls-18" transform="translate(45 44.915)">Data at rest encryption with KYOK</text>
        <text class="cls-17" transform="translate(335.9307 152.9912)">Key Protect API</text>
    </g>
</svg>