<svg xmlns="http://www.w3.org/2000/svg" width="1056" height="470" viewBox="0 0 1056 470">
    <defs>
        <style>.cls-1,.cls-6,.cls-7,.cls-8{fill:#b3e6ff;}.cls-1,.cls-10,.cls-11,.cls-12,.cls-13,.cls-2,.cls-3,.cls-4,.cls-5,.cls-6,.cls-8{stroke:#000;}.cls-1,.cls-2{stroke-miterlimit:10;}.cls-2{fill:#e3f6ff;}.cls-3{fill:#fff;}.cls-10,.cls-11,.cls-12,.cls-13,.cls-14,.cls-16,.cls-3,.cls-4,.cls-5,.cls-6,.cls-8{stroke-linejoin:round;}.cls-11,.cls-4{fill:#f2f4f8;}.cls-14,.cls-16,.cls-5{fill:none;}.cls-10,.cls-11,.cls-12,.cls-16,.cls-5,.cls-8{stroke-linecap:round;}.cls-10,.cls-9{fill:#e6d6ff;}.cls-12,.cls-13{fill:#87eded;}.cls-14,.cls-16{stroke:#50565b;stroke-width:2px;}.cls-15{fill:#50565b;}.cls-17{font-size:16px;}.cls-17,.cls-18{font-family:IBMPlexSans-SemiBold, IBM Plex Sans;font-weight:600;}.cls-18{font-size:18px;}</style>
    </defs>
    <g id="Figure">
        <rect class="cls-1" x="747.3281" y="109.4847" width="150.2007" height="84.2247" />
        <rect class="cls-2" x="738.9056" y="119.0769" width="150.2007" height="84.2247" />
        <rect class="cls-3" x="230.7498" y="252.1799" width="512.367" height="154.412" />
        <rect class="cls-4" x="207.588" y="228.3163" width="512.367" height="154.412" />
        <g id="HP_icon" data-name="HP icon">
            <line class="cls-5" x1="270.8568" y1="322.0664" x2="302.9424" y2="322.0664" />
            <polyline class="cls-5" points="302.942 322.066 302.942 301.01 270.857 301.01 270.857 314.296" />
            <path class="cls-5" d="M296.925,301.01v-8.0228a10.0254,10.0254,0,1,0-20.0507,0V301.01" />
            <path class="cls-5" d="M286.8942,337.1065s-28.5708-16.75-28.5708-49.6324" />
            <path class="cls-5" d="M315.4759,287.4741c0,32.8828-28.5817,49.6324-28.5817,49.6324" />
            <polyline class="cls-5" points="258.323 287.474 286.9 270.93 315.476 287.474" />
            <circle class="cls-1" cx="315.4759" cy="287.4741" r="3.008" />
            <circle class="cls-1" cx="258.3234" cy="287.4741" r="3.008" />
            <circle class="cls-1" cx="286.8996" cy="337.1065" r="3.008" />
        </g>
        <path id="Cloud" class="cls-2" d="M467.3108,289.7876a35.1277,35.1277,0,0,0-34.53,28.5237,26.3458,26.3458,0,0,0,4.6368,52.27h59.7171a26.3458,26.3458,0,0,0,4.6369-52.27A35.1278,35.1278,0,0,0,473.88,290.42,36.074,36.074,0,0,0,467.3108,289.7876Z" />
        <g id="Hardware">
            <rect class="cls-6" x="439.1985" y="340.9186" width="56.1498" height="14.8632" />
            <polygon class="cls-6" points="495.348 340.368 439.199 340.368 449.107 318.899 485.44 318.899 495.348 340.368" />
            <rect x="474.705" y="345.0473" width="6.6059" height="6.6059" />
            <rect x="483.7881" y="345.0473" width="6.6059" height="6.6059" />
        </g>
        <g id="lock">
            <g id="lock-2" data-name="lock">
                <rect class="cls-7" x="733.2906" y="184.0983" width="12.6337" height="4.2112" />
                <path class="cls-8" d="M739.6075,204.4526V199.54m-7.0187-11.4546v-8.9a7.0187,7.0187,0,1,1,14.0374,0v8.9m2.8075,2.1337a14.3842,14.3842,0,0,0-2.8075-2.1337,14.0352,14.0352,0,0,0-14.0374,0,14.3813,14.3813,0,0,0-2.8075,2.1337,14.0374,14.0374,0,1,0,19.6524,0Z" />
                <circle cx="739.6075" cy="199.5395" r="2.1056" />
            </g>
        </g>
        <g id="lock-3" data-name="lock">
            <g id="lock-4" data-name="lock">
                <rect class="cls-9" x="432.7488" y="338.9314" width="10.107" height="3.369" />
                <path class="cls-10" d="M437.8022,355.2148v-3.9305m-5.6149-9.1636v-7.12a5.615,5.615,0,1,1,11.23,0v7.12m2.246,1.7069a11.51,11.51,0,0,0-2.246-1.7069,11.2281,11.2281,0,0,0-11.23,0,11.5073,11.5073,0,0,0-2.246,1.7069,11.23,11.23,0,1,0,15.7219,0Z" />
                <circle cx="437.8022" cy="351.2843" r="2.1056" />
            </g>
        </g>
        <rect class="cls-11" x="403.4105" y="119.3109" width="284.9603" height="84.2247" />
        <g id="key">
            <path class="cls-12" d="M625.5473,341.089a16.3958,16.3958,0,1,1-.7787-11.1393" />
            <circle cx="604.4652" cy="336.5746" r="3.5094" />
            <polyline class="cls-13" points="624.769 329.95 657.509 329.95 663.637 336.078 658.356 341.36 637.77 341.36 634.079 337.703 630.694 341.089 625.547 341.089" />
        </g>
    </g>
    <g id="Line">
        <line class="cls-14" x1="318.4839" y1="160.7214" x2="318.4839" y2="215.5565" />
        <polygon class="cls-15" points="314.495 214.389 318.484 221.298 322.473 214.389 314.495 214.389" />
        <line class="cls-16" x1="689.0727" y1="160.7214" x2="735.3962" y2="161.1893" />
        <line class="cls-16" x1="318.4839" y1="160.7214" x2="404.1124" y2="160.7214" />
    </g>
    <g id="Text">
        <text class="cls-17" transform="translate(178.3389 191.1966)">Key Protect API</text>
        <text class="cls-18" transform="translate(47.4453 53.6732)">VMware image protection and vSAN encryption with KYOK</text>
        <text class="cls-17" transform="translate(782.998 167.7991)">VMware</text>
        <text class="cls-17" transform="translate(383.0566 266.2181)">Hyper Protect Crypto Services</text>
        <text class="cls-17" transform="translate(451.7461 154.9593)">
            VMware Key Management
            <tspan x="4.4414" y="19.2002">Interoperability Protocol</tspan>
        </text>
    </g>
</svg>