<?xml version="1.0" encoding="UTF-8"?>
<svg xmlns="http://www.w3.org/2000/svg" viewBox="0 0 1056 470">
  <defs>
    <style>
      .cls-1 {
        font-size: 18px;
      }

      .cls-1, .cls-2 {
        font-family: IBMPlexSans-SmBld, 'IBM Plex Sans';
      }

      .cls-3, .cls-4, .cls-5, .cls-6, .cls-7, .cls-8, .cls-9, .cls-10, .cls-11, .cls-12, .cls-13 {
        stroke: #000;
      }

      .cls-3, .cls-4, .cls-5, .cls-6, .cls-7, .cls-14 {
        stroke-linecap: round;
      }

      .cls-3, .cls-4, .cls-5, .cls-6, .cls-7, .cls-14, .cls-15, .cls-10, .cls-11, .cls-12, .cls-13 {
        stroke-linejoin: round;
      }

      .cls-3, .cls-12 {
        fill: #87eded;
      }

      .cls-4, .cls-16, .cls-9, .cls-10 {
        fill: #b3e6ff;
      }

      .cls-5, .cls-17 {
        fill: #e6d6ff;
      }

      .cls-6, .cls-14, .cls-15 {
        fill: none;
      }

      .cls-7, .cls-13 {
        fill: #f2f4f8;
      }

      .cls-18 {
        fill: #50565b;
      }

      .cls-2 {
        font-size: 16px;
      }

      .cls-8 {
        fill: #e3f6ff;
      }

      .cls-8, .cls-9 {
        stroke-miterlimit: 10;
      }

      .cls-14, .cls-15 {
        stroke: #50565b;
        stroke-width: 2px;
      }

      .cls-11 {
        fill: #fff;
      }
    </style>
  </defs>
  <g id="Figure">
    <rect class="cls-9" x="747.33" y="109.48" width="150.2" height="84.22"/>
    <rect class="cls-8" x="738.91" y="119.08" width="150.2" height="84.22"/>
    <rect class="cls-11" x="230.75" y="268.18" width="512.37" height="154.41"/>
    <rect class="cls-13" x="207.59" y="244.32" width="512.37" height="154.41"/>
    <g id="HP_icon" data-name="HP icon">
      <line class="cls-6" x1="270.86" y1="338.07" x2="302.94" y2="338.07"/>
      <polyline class="cls-6" points="302.94 338.07 302.94 317.01 270.86 317.01 270.86 330.3"/>
      <path class="cls-6" d="M296.92,317.01v-8.02c0-5.54-4.49-10.03-10.03-10.03s-10.03,4.49-10.03,10.03v8.02"/>
      <g>
        <g>
          <path class="cls-6" d="M286.89,353.11s-28.57-16.75-28.57-49.63"/>
          <path class="cls-6" d="M315.48,303.47c0,32.88-28.58,49.63-28.58,49.63"/>
          <polyline class="cls-6" points="258.32 303.47 286.9 286.93 315.48 303.47"/>
        </g>
        <circle class="cls-9" cx="315.48" cy="303.47" r="3.01"/>
        <circle class="cls-9" cx="258.32" cy="303.47" r="3.01"/>
        <circle class="cls-9" cx="286.9" cy="353.11" r="3.01"/>
      </g>
    </g>
    <path id="Cloud" class="cls-8" d="M467.31,305.79c-16.86-.01-31.36,11.96-34.53,28.52-14.32,2.59-23.82,16.3-21.23,30.62,2.27,12.52,13.15,21.62,25.87,21.65h59.72c14.55-.03,26.32-11.85,26.29-26.4-.03-12.72-9.14-23.6-21.65-25.87-2.71-14.13-13.76-25.18-27.89-27.89-2.17-.41-4.36-.62-6.57-.63Z"/>
    <g id="Hardware">
      <rect class="cls-10" x="439.2" y="356.92" width="56.15" height="14.86"/>
      <polygon class="cls-10" points="495.35 356.37 439.2 356.37 449.11 334.9 485.44 334.9 495.35 356.37"/>
      <rect x="474.71" y="361.05" width="6.61" height="6.61"/>
      <rect x="483.79" y="361.05" width="6.61" height="6.61"/>
    </g>
    <g id="lock">
      <g id="lock-2" data-name="lock">
        <rect class="cls-16" x="733.29" y="184.1" width="12.63" height="4.21"/>
        <path class="cls-4" d="M739.61,204.45v-4.91m-7.02-11.45v-8.9c0-3.87,3.14-7.02,7.02-7.02s7.02,3.14,7.02,7.02v8.9m2.81,2.13c-.84-.81-1.78-1.54-2.81-2.13-2.06-1.19-4.46-1.88-7.02-1.88s-4.96,.69-7.02,1.88c-1.02,.59-1.97,1.32-2.81,2.13-2.6,2.55-4.21,6.11-4.21,10.02,0,7.75,6.29,14.04,14.04,14.04s14.04-6.29,14.04-14.04c0-3.92-1.61-7.47-4.21-10.02Z"/>
        <circle cx="739.61" cy="199.54" r="2.11"/>
      </g>
    </g>
    <g id="lock-3" data-name="lock">
      <g id="lock-4" data-name="lock">
        <rect class="cls-17" x="432.75" y="354.93" width="10.11" height="3.37"/>
        <path class="cls-5" d="M437.8,371.21v-3.93m-5.61-9.16v-7.12c0-3.1,2.52-5.61,5.61-5.61s5.61,2.52,5.61,5.61v7.12m2.25,1.71c-.67-.65-1.43-1.24-2.25-1.71-1.65-.95-3.57-1.5-5.61-1.5s-3.96,.55-5.61,1.5c-.82,.47-1.57,1.06-2.25,1.71-2.08,2.04-3.37,4.89-3.37,8.02,0,6.2,5.03,11.23,11.23,11.23s11.23-5.03,11.23-11.23c0-3.13-1.29-5.97-3.37-8.02Z"/>
        <circle cx="437.8" cy="367.28" r="2.11"/>
      </g>
    </g>
    <rect class="cls-7" x="403.41" y="119.31" width="284.96" height="84.22"/>
    <g id="key">
      <path class="cls-3" d="M625.55,357.09c-1.93,6.84-8.23,11.85-15.71,11.85-9.04,0-16.39-7.31-16.39-16.35s7.35-16.39,16.39-16.39c6.67,0,12.39,4,14.93,9.75"/>
      <circle cx="604.47" cy="352.57" r="3.51"/>
      <polyline class="cls-12" points="624.77 345.95 657.51 345.95 663.64 352.08 658.36 357.36 637.77 357.36 634.08 353.7 630.69 357.09 625.55 357.09"/>
    </g>
  </g>
  <g id="Line">
    <g>
      <line class="cls-15" x1="318.48" y1="160.72" x2="318.48" y2="215.56"/>
      <polygon class="cls-18" points="314.49 214.39 318.48 221.3 322.47 214.39 314.49 214.39"/>
    </g>
    <line class="cls-14" x1="689.07" y1="160.72" x2="735.4" y2="161.19"/>
    <line class="cls-14" x1="318.48" y1="160.72" x2="404.11" y2="160.72"/>
  </g>
  <g id="Text">
    <text class="cls-2" transform="translate(178.34 191.2)"><tspan x="0" y="0">Key Protect API</tspan></text>
    <text class="cls-1" transform="translate(47.45 53.67)"><tspan x="0" y="0">VMware image protection and vSAN encryption with KYOK</tspan></text>
    <text class="cls-2" transform="translate(783 167.8)"><tspan x="0" y="0">VMware</tspan></text>
    <text class="cls-2" transform="translate(383.06 282.22)"><tspan x="0" y="0">Hyper Protect Crypto Services</tspan></text>
    <text class="cls-2" transform="translate(451.75 154.96)"><tspan x="0" y="0">VMware Key Management </tspan><tspan x="4.44" y="19.2">Interoperability Protocol</tspan></text>
    <rect class="cls-11" x="254.5" y="217.98" width="127" height="26"/>
    <text class="cls-2" transform="translate(264.5 237.76)"><tspan x="0" y="0">KMIP endpoint</tspan></text>
  </g>
</svg>