<svg xmlns="http://www.w3.org/2000/svg" width="750" height="270" viewBox="0 0 750 270"><defs><style>.cls-1,.cls-6,.cls-7,.cls-8{fill:#b3e6ff;}.cls-1,.cls-10,.cls-11,.cls-12,.cls-13,.cls-2,.cls-3,.cls-4,.cls-5,.cls-6,.cls-8{stroke:#000;}.cls-1,.cls-2{stroke-miterlimit:10;}.cls-2{fill:#e3f6ff;}.cls-3{fill:#fff;}.cls-10,.cls-11,.cls-12,.cls-13,.cls-14,.cls-16,.cls-3,.cls-4,.cls-5,.cls-6,.cls-8{stroke-linejoin:round;}.cls-11,.cls-4{fill:#f2f4f8;}.cls-14,.cls-16,.cls-5{fill:none;}.cls-10,.cls-11,.cls-12,.cls-16,.cls-5,.cls-8{stroke-linecap:round;}.cls-10,.cls-9{fill:#e6d6ff;}.cls-12,.cls-13{fill:#87eded;}.cls-14,.cls-16{stroke:#50565b;stroke-width:2px;}.cls-15{fill:#50565b;}</style></defs><title>byok_vm</title><g id="Figure"><rect class="cls-1" x="542.5" y="45.9847" width="107" height="60"/><rect class="cls-2" x="536.5" y="52.818" width="107" height="60"/><rect class="cls-3" x="174.5" y="147.6379" width="365" height="110"/><rect class="cls-4" x="158" y="130.6379" width="365" height="110"/><g id="HP_icon" data-name="HP icon"><line class="cls-5" x1="203.0714" y1="197.4236" x2="225.9286" y2="197.4236"/><polyline class="cls-5" points="225.929 197.424 225.929 182.424 203.071 182.424 203.071 191.888"/><path class="cls-5" d="M221.6418,182.4236v-5.7153a7.1418,7.1418,0,1,0-14.2837,0v5.7153"/><path class="cls-5" d="M214.4961,208.1379s-20.3533-11.9321-20.3533-35.3571"/><path class="cls-5" d="M234.8571,172.7808c0,23.425-20.361,35.3571-20.361,35.3571"/><polyline class="cls-5" points="194.143 172.781 214.5 160.995 234.857 172.781"/><circle class="cls-1" cx="234.8571" cy="172.7808" r="2.1429"/><circle class="cls-1" cx="194.1429" cy="172.7808" r="2.1429"/><circle class="cls-1" cx="214.5" cy="208.1379" r="2.1429"/></g><path id="Cloud" class="cls-2" d="M343.0213,174.4289a25.0243,25.0243,0,0,0-24.5989,20.32,18.7682,18.7682,0,0,0,3.3032,37.2361h42.5413a18.7682,18.7682,0,0,0,3.3032-37.2361,25.0243,25.0243,0,0,0-19.8693-19.8693A25.7,25.7,0,0,0,343.0213,174.4289Z"/><g id="Hardware"><rect class="cls-6" x="322.9947" y="210.8536" width="40" height="10.5882"/><polygon class="cls-6" points="362.995 210.461 322.995 210.461 330.054 195.167 355.936 195.167 362.995 210.461"/><rect x="348.2888" y="213.7948" width="4.7059" height="4.7059"/><rect x="354.7594" y="213.7948" width="4.7059" height="4.7059"/></g><g id="lock"><g id="lock-2" data-name="lock"><rect class="cls-7" x="532.5" y="99.1379" width="9" height="3"/><path class="cls-8" d="M537,113.6379v-3.5m-5-8.16v-6.34a5,5,0,0,1,10,0v6.34m2,1.52a10.2483,10.2483,0,0,0-2-1.52,9.9986,9.9986,0,0,0-10,0,10.2483,10.2483,0,0,0-2,1.52,10,10,0,1,0,14,0Z"/><circle cx="537" cy="110.1379" r="1.5"/></g></g><g id="lock-3" data-name="lock"><g id="lock-4" data-name="lock"><rect class="cls-9" x="318.4" y="209.4379" width="7.2" height="2.4"/><path class="cls-10" d="M322,221.0379v-2.8m-4-6.528v-5.072a4,4,0,0,1,8,0v5.072m1.6,1.216a8.1986,8.1986,0,0,0-1.6-1.216,7.9989,7.9989,0,0,0-8,0,8.1986,8.1986,0,0,0-1.6,1.216,8,8,0,1,0,11.2,0Z"/><circle cx="322" cy="218.2379" r="1.5"/></g></g><rect class="cls-11" x="328.5" y="52.818" width="153" height="60"/><g id="key"><path class="cls-12" d="M455.7458,210.9749a11.68,11.68,0,1,1-.5548-7.9354"/><circle cx="440.7273" cy="207.759" r="2.5"/><polyline class="cls-13" points="455.191 203.04 478.515 203.04 482.88 207.405 479.118 211.168 464.453 211.168 461.824 208.563 459.412 210.975 455.746 210.975"/></g></g><g id="Line"><line class="cls-14" x1="237" y1="82.4847" x2="237" y2="119.8969"/><polygon class="cls-15" points="233.011 118.73 237 125.638 240.989 118.73 233.011 118.73"/><line class="cls-16" x1="483" y1="82.818" x2="534" y2="82.818"/><line class="cls-16" x1="237" y1="82.4847" x2="328" y2="82.4847"/></g><g id="Text"><path d="M119.7437,99.77l-1.3018,1.54v2.8838h-1.8481v-9.772h1.8481v4.8159h.07l1.3862-1.834,2.4219-2.9819h2.1279l-3.4019,4.0737,3.6821,5.6982H122.53Z"/><path d="M128.5781,104.3621a3.6457,3.6457,0,0,1-1.4492-.2729,2.9971,2.9971,0,0,1-1.0781-.77,3.4321,3.4321,0,0,1-.6787-1.2041,5.4268,5.4268,0,0,1-.0073-3.1567,3.4391,3.4391,0,0,1,.665-1.1973,2.95,2.95,0,0,1,1.064-.77,3.5649,3.5649,0,0,1,1.4282-.2729,3.4816,3.4816,0,0,1,1.4839.2939,2.8616,2.8616,0,0,1,1.0361.7983,3.4453,3.4453,0,0,1,.6089,1.1689,4.8451,4.8451,0,0,1,.2031,1.4209v.5879h-4.8579v.1807a1.7875,1.7875,0,0,0,.4478,1.272,1.7338,1.7338,0,0,0,1.33.4795,1.9847,1.9847,0,0,0,1.0991-.2778,3.1288,3.1288,0,0,0,.7627-.709l.9663,1.0811a3.0052,3.0052,0,0,1-1.2251.99A4.2638,4.2638,0,0,1,128.5781,104.3621Zm-.0283-6.3a1.4349,1.4349,0,0,0-1.1338.4761,1.7911,1.7911,0,0,0-.42,1.2319v.1118h2.9956v-.126a1.9188,1.9188,0,0,0-.3706-1.2251A1.2857,1.2857,0,0,0,128.55,98.0623Z"/><path d="M137.832,96.886h1.68l-2.94,8.61a3.6887,3.6887,0,0,1-.3149.6792,1.6907,1.6907,0,0,1-.4131.4692,1.548,1.548,0,0,1-.5737.2656,3.2486,3.2486,0,0,1-.7842.084h-1.0781v-1.4419h1.3164l.3359-1.02-2.6182-7.646H134.22l1.2744,3.856.4756,1.8438h.084l.5044-1.8437Z"/><path d="M144.1035,104.1942v-9.772H148.5a3.2193,3.2193,0,0,1,1.2109.2168,2.5657,2.5657,0,0,1,.917.6162,2.6509,2.6509,0,0,1,.5742.959,3.9965,3.9965,0,0,1,0,2.4712,2.6573,2.6573,0,0,1-.5742.9517,2.5594,2.5594,0,0,1-.917.6162,3.2193,3.2193,0,0,1-1.2109.2168h-2.5479v3.7241Zm1.8481-5.32h2.38a1.1827,1.1827,0,0,0,.84-.2871,1.0637,1.0637,0,0,0,.3081-.8188v-.644a1.04,1.04,0,0,0-.3081-.812,1.202,1.202,0,0,0-.84-.28h-2.38Z"/><path d="M152.8257,104.1942V96.886h1.792v1.5122h.07a2.3229,2.3229,0,0,1,.2173-.5669,1.7354,1.7354,0,0,1,.3848-.4834,1.8513,1.8513,0,0,1,.5669-.3359,2.1262,2.1262,0,0,1,.7632-.126h.3921V98.58h-.56a2.8109,2.8109,0,0,0-1.3721.2656.9245.9245,0,0,0-.4619.8682v4.48Z"/><path d="M161.1558,104.3621a3.5535,3.5535,0,0,1-1.4072-.2661,2.9188,2.9188,0,0,1-1.064-.77,3.5082,3.5082,0,0,1-.6787-1.2109,4.9482,4.9482,0,0,1-.2383-1.5889,4.8864,4.8864,0,0,1,.2383-1.582,3.4421,3.4421,0,0,1,.6787-1.1968,2.9531,2.9531,0,0,1,1.064-.7632,3.5535,3.5535,0,0,1,1.4072-.2661,3.6048,3.6048,0,0,1,1.4141.2661,2.9368,2.9368,0,0,1,1.0708.7632,3.4585,3.4585,0,0,1,.6792,1.1968,4.9,4.9,0,0,1,.2378,1.582,4.9621,4.9621,0,0,1-.2378,1.5889,3.525,3.525,0,0,1-.6792,1.2109,2.9029,2.9029,0,0,1-1.0708.77A3.6048,3.6048,0,0,1,161.1558,104.3621Zm0-1.4419a1.4588,1.4588,0,0,0,1.12-.4341,1.8,1.8,0,0,0,.4058-1.2739V99.8543a1.78,1.78,0,0,0-.4058-1.26,1.4605,1.4605,0,0,0-1.12-.4341,1.4416,1.4416,0,0,0-1.106.4341,1.778,1.778,0,0,0-.4062,1.26v1.3579a1.7982,1.7982,0,0,0,.4063,1.2739A1.44,1.44,0,0,0,161.1558,102.92Z"/><path d="M168.3652,104.1942a1.91,1.91,0,0,1-1.4067-.4814,1.8587,1.8587,0,0,1-.4829-1.376V98.3279h-1.0781V96.886h.56a.6678.6678,0,0,0,.5527-.189.9133.9133,0,0,0,.147-.5669V94.8841h1.61v2.002h1.4976v1.4419h-1.4976v4.4243h1.3857v1.4419Z"/><path d="M174.2178,104.3621a3.6457,3.6457,0,0,1-1.4492-.2729,2.9971,2.9971,0,0,1-1.0781-.77,3.4321,3.4321,0,0,1-.6787-1.2041,5.4268,5.4268,0,0,1-.0073-3.1567,3.4391,3.4391,0,0,1,.665-1.1973,2.95,2.95,0,0,1,1.064-.77,3.5649,3.5649,0,0,1,1.4282-.2729,3.4816,3.4816,0,0,1,1.4839.2939,2.8616,2.8616,0,0,1,1.0361.7983,3.4453,3.4453,0,0,1,.6089,1.1689,4.8451,4.8451,0,0,1,.2031,1.4209v.5879h-4.8579v.1807a1.7875,1.7875,0,0,0,.4478,1.272,1.7338,1.7338,0,0,0,1.33.4795,1.9847,1.9847,0,0,0,1.0991-.2778,3.1288,3.1288,0,0,0,.7627-.709l.9663,1.0811a3.0052,3.0052,0,0,1-1.2251.99A4.2638,4.2638,0,0,1,174.2178,104.3621Zm-.0283-6.3a1.4349,1.4349,0,0,0-1.1338.4761,1.7911,1.7911,0,0,0-.42,1.2319v.1118h2.9956v-.126a1.9188,1.9188,0,0,0-.3706-1.2251A1.2857,1.2857,0,0,0,174.1895,98.0623Z"/><path d="M181.959,104.3621a3.6791,3.6791,0,0,1-1.4419-.2661,2.7811,2.7811,0,0,1-1.0571-.77,3.4585,3.4585,0,0,1-.6509-1.2109,5.2459,5.2459,0,0,1-.2241-1.5889,5.18,5.18,0,0,1,.2241-1.582,3.3919,3.3919,0,0,1,.6509-1.1968,2.812,2.812,0,0,1,1.0571-.7632,3.6791,3.6791,0,0,1,1.4419-.2661,3.1826,3.1826,0,0,1,1.8271.49,2.7513,2.7513,0,0,1,1.043,1.3579l-1.47.6577a1.5247,1.5247,0,0,0-.4687-.7627,1.3629,1.3629,0,0,0-.9312-.3013,1.3411,1.3411,0,0,0-1.127.4761,1.9689,1.9689,0,0,0-.3711,1.2461v1.33a1.9377,1.9377,0,0,0,.3711,1.2388,1.3481,1.3481,0,0,0,1.127.4692,1.3973,1.3973,0,0,0,.9941-.3291,2.26,2.26,0,0,0,.5459-.8188l1.3721.6577a2.87,2.87,0,0,1-1.106,1.4492A3.2426,3.2426,0,0,1,181.959,104.3621Z"/><path d="M188.5391,104.1942a1.91,1.91,0,0,1-1.4067-.4814,1.8587,1.8587,0,0,1-.4829-1.376V98.3279h-1.0781V96.886h.56a.6678.6678,0,0,0,.5527-.189.9133.9133,0,0,0,.147-.5669V94.8841h1.61v2.002h1.4976v1.4419h-1.4976v4.4243h1.3857v1.4419Z"/><path d="M200.9565,104.1942l-.7837-2.4922h-3.4722l-.77,2.4922h-1.876l3.2759-9.772h2.2964l3.2476,9.772Zm-2.4917-8.0918h-.07l-1.2456,4.0176h2.5757Z"/><path d="M204.3169,104.1942v-9.772h4.396a3.2193,3.2193,0,0,1,1.2109.2168,2.5657,2.5657,0,0,1,.917.6162,2.6509,2.6509,0,0,1,.5742.959,3.9965,3.9965,0,0,1,0,2.4712,2.6573,2.6573,0,0,1-.5742.9517,2.5594,2.5594,0,0,1-.917.6162,3.2193,3.2193,0,0,1-1.2109.2168H206.165v3.7241Zm1.8481-5.32h2.38a1.1827,1.1827,0,0,0,.84-.2871,1.0637,1.0637,0,0,0,.3081-.8188v-.644a1.04,1.04,0,0,0-.3081-.812,1.202,1.202,0,0,0-.84-.28h-2.38Z"/><path d="M212.8848,104.1942V102.71h1.2876V95.9061h-1.2876V94.4222h4.438v1.4839h-1.3022V102.71h1.3022v1.4839Z"/><path d="M21.8618,27.1942,18.67,17.4222h1.89l1.498,4.76.8682,3.248h.042l.854-3.248,1.498-4.76h1.834l-3.1919,9.772Z"/><path d="M35.9033,20.18h-.0557l-.7563,1.5542L33.0894,25.43l-2.002-3.6958L30.3315,20.18h-.0562v7.0142h-1.75v-9.772h2.0859l2.5063,4.7739h.0557l2.478-4.7739h2.002v9.772h-1.75Z"/><path d="M39.1235,19.886h1.7222l.7422,3.01.5737,2.5059h.0562l.6719-2.5059.854-3.01h1.624l.8823,3.01.6855,2.5059h.0562l.5742-2.5059.728-3.01H49.96l-2.0024,7.3081H46.0259l-.938-3.22-.5459-1.9878H44.5l-.5322,1.9878-.9238,3.22H41.14Z"/><path d="M56.4976,27.1942a1.2585,1.2585,0,0,1-.9312-.3428,1.5738,1.5738,0,0,1-.4268-.917h-.084a1.7166,1.7166,0,0,1-.7422,1.0708,2.5316,2.5316,0,0,1-1.3862.3569,2.3669,2.3669,0,0,1-1.7217-.5859,2.0816,2.0816,0,0,1-.6021-1.5635,1.8926,1.8926,0,0,1,.812-1.6812,4.0892,4.0892,0,0,1,2.31-.5513h1.2461v-.5322a1.3209,1.3209,0,0,0-.3223-.9521,1.3844,1.3844,0,0,0-1.0361-.3359,1.72,1.72,0,0,0-1.0146.2729,2.6969,2.6969,0,0,0-.6514.6514l-1.064-.958a3.0888,3.0888,0,0,1,1.0781-1.0205,3.5443,3.5443,0,0,1,1.7778-.3877,3.3426,3.3426,0,0,1,2.2544.67,2.42,2.42,0,0,1,.77,1.9277v3.436h.7275v1.4419ZM53.5293,26.06a1.8841,1.8841,0,0,0,1.022-.2642.8626.8626,0,0,0,.42-.7788v-.9595H53.8232q-1.4,0-1.4.89v.2363a.772.772,0,0,0,.2871.66A1.3412,1.3412,0,0,0,53.5293,26.06Z"/><path d="M58.9473,27.1942V19.886h1.792v1.5122h.07a2.3229,2.3229,0,0,1,.2173-.5669,1.7354,1.7354,0,0,1,.3848-.4834,1.8513,1.8513,0,0,1,.5669-.3359,2.1262,2.1262,0,0,1,.7632-.126h.3921V21.58h-.56a2.8108,2.8108,0,0,0-1.3721.2656.9245.9245,0,0,0-.4619.8682v4.48Z"/><path d="M67.3335,27.3621a3.6457,3.6457,0,0,1-1.4492-.2729,2.9971,2.9971,0,0,1-1.0781-.77,3.4321,3.4321,0,0,1-.6787-1.2041,5.4268,5.4268,0,0,1-.0073-3.1567,3.4391,3.4391,0,0,1,.665-1.1973,2.95,2.95,0,0,1,1.064-.77,3.5649,3.5649,0,0,1,1.4282-.2729,3.4816,3.4816,0,0,1,1.4839.2939,2.8616,2.8616,0,0,1,1.0361.7983,3.4453,3.4453,0,0,1,.6089,1.1689A4.8451,4.8451,0,0,1,70.6094,23.4v.5879H65.7515v.1807a1.7875,1.7875,0,0,0,.4478,1.272,1.7338,1.7338,0,0,0,1.33.4795,1.9847,1.9847,0,0,0,1.0991-.2778,3.1288,3.1288,0,0,0,.7627-.709l.9663,1.0811a3.0052,3.0052,0,0,1-1.2251.99A4.2638,4.2638,0,0,1,67.3335,27.3621Zm-.0283-6.3a1.4349,1.4349,0,0,0-1.1338.4761,1.7911,1.7911,0,0,0-.42,1.2319v.1118h2.9956v-.126a1.9188,1.9188,0,0,0-.3706-1.2251A1.2857,1.2857,0,0,0,67.3052,21.0623Z"/><path d="M76.3916,18.8221a1.0875,1.0875,0,0,1-.8052-.252.8849.8849,0,0,1-.2451-.644v-.28a.8849.8849,0,0,1,.2451-.644,1.4008,1.4008,0,0,1,1.603,0,.8724.8724,0,0,1,.252.644v.28a.8724.8724,0,0,1-.252.644A1.0913,1.0913,0,0,1,76.3916,18.8221Zm-.896,1.064h1.792v7.3081h-1.792Z"/><path d="M79.3594,27.1942V19.886h1.792v1.2183h.07a2.3717,2.3717,0,0,1,.6719-.98,1.8849,1.8849,0,0,1,1.2881-.4062,2.2942,2.2942,0,0,1,1.3022.3643,2.1491,2.1491,0,0,1,.812,1.106h.0278a2.0556,2.0556,0,0,1,.7769-1.043,2.4049,2.4049,0,0,1,1.4634-.4272,1.9832,1.9832,0,0,1,1.6587.7422,3.3626,3.3626,0,0,1,.5811,2.1138v4.62h-1.792v-4.438q0-1.5681-1.1758-1.5679a1.71,1.71,0,0,0-.5112.0767,1.3712,1.3712,0,0,0-.4341.2241,1.06,1.06,0,0,0-.4131.875v4.83h-1.792v-4.438q0-1.5681-1.1758-1.5679a1.665,1.665,0,0,0-.4971.0767,1.3712,1.3712,0,0,0-.4341.2241,1.1728,1.1728,0,0,0-.3081.3643,1.0483,1.0483,0,0,0-.1187.5107v4.83Z"/><path d="M97.167,27.1942a1.2585,1.2585,0,0,1-.9312-.3428,1.5738,1.5738,0,0,1-.4268-.917h-.084a1.7166,1.7166,0,0,1-.7422,1.0708,2.5316,2.5316,0,0,1-1.3862.3569,2.3669,2.3669,0,0,1-1.7217-.5859,2.0816,2.0816,0,0,1-.6021-1.5635,1.8926,1.8926,0,0,1,.812-1.6812,4.0892,4.0892,0,0,1,2.31-.5513h1.2461v-.5322a1.3209,1.3209,0,0,0-.3223-.9521,1.3844,1.3844,0,0,0-1.0361-.3359,1.72,1.72,0,0,0-1.0146.2729,2.6969,2.6969,0,0,0-.6514.6514l-1.064-.958a3.0888,3.0888,0,0,1,1.0781-1.0205,3.5443,3.5443,0,0,1,1.7778-.3877,3.3426,3.3426,0,0,1,2.2544.67,2.42,2.42,0,0,1,.77,1.9277v3.436h.7275v1.4419ZM94.1987,26.06a1.8841,1.8841,0,0,0,1.022-.2642.8626.8626,0,0,0,.42-.7788v-.9595H94.4927q-1.4,0-1.4.89v.2363a.772.772,0,0,0,.2871.66A1.3412,1.3412,0,0,0,94.1987,26.06Z"/><path d="M106.21,27.81a2.4037,2.4037,0,0,1-.2031,1.0146,1.7281,1.7281,0,0,1-.6646.7354,3.6083,3.6083,0,0,1-1.19.4478,10.3827,10.3827,0,0,1-3.3457.0352,3.7684,3.7684,0,0,1-1.0571-.3359,1.4093,1.4093,0,0,1-.5947-.5391,1.4519,1.4519,0,0,1-.1821-.728,1.2959,1.2959,0,0,1,.3428-.959,1.6873,1.6873,0,0,1,.959-.4409V26.886a1.19,1.19,0,0,1-.6929-.4414,1.2666,1.2666,0,0,1-.2451-.7783,1.0656,1.0656,0,0,1,.1123-.4976,1.15,1.15,0,0,1,.3008-.3716,1.8334,1.8334,0,0,1,.4272-.2593,2.5534,2.5534,0,0,1,.5039-.1616v-.0557a2.1916,2.1916,0,0,1-1.001-.8535,2.4136,2.4136,0,0,1-.3291-1.2729,2.2767,2.2767,0,0,1,.77-1.7974,3.3108,3.3108,0,0,1,2.2539-.6787,5.2755,5.2755,0,0,1,.665.042,2.9971,2.9971,0,0,1,.6089.14v-.2383a.9284.9284,0,0,1,1.0361-1.064h1.1338V19.97h-1.5537v.1963a2.1214,2.1214,0,0,1,.854.84,2.4647,2.4647,0,0,1,.28,1.19,2.2538,2.2538,0,0,1-.7627,1.7778,3.33,3.33,0,0,1-2.2612.6724,4.4116,4.4116,0,0,1-1.12-.126,1.2109,1.2109,0,0,0-.3638.2588.5535.5535,0,0,0-.1543.3989q0,.5464.9521.5459h1.96a2.855,2.855,0,0,1,1.9531.5532A1.9671,1.9671,0,0,1,106.21,27.81Zm-1.68.21a.6307.6307,0,0,0-.28-.5464,1.7606,1.7606,0,0,0-.9658-.1958h-2.4922a.8918.8918,0,0,0-.3779.7559.7534.7534,0,0,0,.35.6582,2.2061,2.2061,0,0,0,1.19.2378h.896a2.7485,2.7485,0,0,0,1.2808-.2236A.7366.7366,0,0,0,104.5308,28.02Zm-2.1562-4.606q1.3162,0,1.3159-1.1138v-.2368q0-1.1133-1.3159-1.1138t-1.3159,1.1138v.2368Q101.0586,23.4139,102.3745,23.4144Z"/><path d="M110.1172,27.3621a3.6457,3.6457,0,0,1-1.4492-.2729,2.9971,2.9971,0,0,1-1.0781-.77,3.4321,3.4321,0,0,1-.6787-1.2041,5.4268,5.4268,0,0,1-.0073-3.1567,3.4391,3.4391,0,0,1,.665-1.1973,2.95,2.95,0,0,1,1.064-.77,3.5649,3.5649,0,0,1,1.4282-.2729,3.4816,3.4816,0,0,1,1.4839.2939,2.8616,2.8616,0,0,1,1.0361.7983,3.4453,3.4453,0,0,1,.6089,1.1689,4.8451,4.8451,0,0,1,.2031,1.4209v.5879h-4.8579v.1807a1.7875,1.7875,0,0,0,.4478,1.272,1.7338,1.7338,0,0,0,1.33.4795,1.9847,1.9847,0,0,0,1.0991-.2778,3.1288,3.1288,0,0,0,.7627-.709l.9663,1.0811a3.0052,3.0052,0,0,1-1.2251.99A4.2638,4.2638,0,0,1,110.1172,27.3621Zm-.0283-6.3a1.4349,1.4349,0,0,0-1.1338.4761,1.7911,1.7911,0,0,0-.42,1.2319v.1118h2.9956v-.126a1.9188,1.9188,0,0,0-.3706-1.2251A1.2857,1.2857,0,0,0,110.0889,21.0623Z"/><path d="M118.2788,19.886h1.792V21.09h.0557a1.8407,1.8407,0,0,1,.7422-1.001,2.2143,2.2143,0,0,1,1.2739-.3711,2.4986,2.4986,0,0,1,2.1353.9873,4.6591,4.6591,0,0,1,.7349,2.8208,4.72,4.72,0,0,1-.7349,2.8418,2.4912,2.4912,0,0,1-2.1353.9941,2.151,2.151,0,0,1-1.2671-.3779,1.9549,1.9549,0,0,1-.749-1.0078h-.0557V29.994h-1.792Zm3.29,5.9922a1.4859,1.4859,0,0,0,1.1338-.4619,1.7475,1.7475,0,0,0,.4341-1.2461V22.91a1.7738,1.7738,0,0,0-.4341-1.2529,1.474,1.474,0,0,0-1.1338-.4687,1.73,1.73,0,0,0-1.0713.3218,1.0176,1.0176,0,0,0-.4268.854v2.3242a1.0207,1.0207,0,0,0,.4268.8818A1.7824,1.7824,0,0,0,121.5688,25.8782Z"/><path d="M126.6787,27.1942V19.886h1.792v1.5122h.07a2.3229,2.3229,0,0,1,.2173-.5669,1.7354,1.7354,0,0,1,.3848-.4834,1.8513,1.8513,0,0,1,.5669-.3359,2.1262,2.1262,0,0,1,.7632-.126h.3921V21.58h-.56a2.8108,2.8108,0,0,0-1.3721.2656.9245.9245,0,0,0-.4619.8682v4.48Z"/><path d="M135.0088,27.3621a3.5535,3.5535,0,0,1-1.4072-.2661,2.9188,2.9188,0,0,1-1.064-.77,3.5082,3.5082,0,0,1-.6787-1.2109,4.9482,4.9482,0,0,1-.2383-1.5889,4.8864,4.8864,0,0,1,.2383-1.582,3.4421,3.4421,0,0,1,.6787-1.1968,2.9531,2.9531,0,0,1,1.064-.7632,3.5535,3.5535,0,0,1,1.4072-.2661,3.6048,3.6048,0,0,1,1.4141.2661,2.9368,2.9368,0,0,1,1.0708.7632,3.4585,3.4585,0,0,1,.6792,1.1968,4.9,4.9,0,0,1,.2378,1.582,4.9621,4.9621,0,0,1-.2378,1.5889,3.525,3.525,0,0,1-.6792,1.2109,2.9029,2.9029,0,0,1-1.0708.77A3.6048,3.6048,0,0,1,135.0088,27.3621Zm0-1.4419a1.4588,1.4588,0,0,0,1.12-.4341,1.8,1.8,0,0,0,.4058-1.2739V22.8543a1.78,1.78,0,0,0-.4058-1.26,1.4605,1.4605,0,0,0-1.12-.4341,1.4416,1.4416,0,0,0-1.106.4341,1.778,1.778,0,0,0-.4062,1.26v1.3579a1.7982,1.7982,0,0,0,.4063,1.2739A1.44,1.44,0,0,0,135.0088,25.92Z"/><path d="M142.2183,27.1942a1.91,1.91,0,0,1-1.4067-.4814,1.8587,1.8587,0,0,1-.4829-1.376V21.3279H139.25V19.886h.56a.6678.6678,0,0,0,.5527-.189.9133.9133,0,0,0,.147-.5669V17.8841h1.61v2.002h1.4976v1.4419h-1.4976v4.4243h1.3857v1.4419Z"/><path d="M148.07,27.3621a3.6457,3.6457,0,0,1-1.4492-.2729,2.9971,2.9971,0,0,1-1.0781-.77,3.4321,3.4321,0,0,1-.6787-1.2041,5.4268,5.4268,0,0,1-.0073-3.1567,3.4391,3.4391,0,0,1,.665-1.1973,2.95,2.95,0,0,1,1.064-.77,3.5649,3.5649,0,0,1,1.4282-.2729,3.4816,3.4816,0,0,1,1.4839.2939,2.8616,2.8616,0,0,1,1.0361.7983,3.4453,3.4453,0,0,1,.6089,1.1689,4.8451,4.8451,0,0,1,.2031,1.4209v.5879h-4.8579v.1807a1.7875,1.7875,0,0,0,.4478,1.272,1.7338,1.7338,0,0,0,1.33.4795,1.9847,1.9847,0,0,0,1.0991-.2778,3.1288,3.1288,0,0,0,.7627-.709l.9663,1.0811a3.0052,3.0052,0,0,1-1.2251.99A4.2638,4.2638,0,0,1,148.07,27.3621Zm-.0283-6.3a1.4349,1.4349,0,0,0-1.1338.4761,1.7911,1.7911,0,0,0-.42,1.2319v.1118h2.9956v-.126a1.9188,1.9188,0,0,0-.3706-1.2251A1.2857,1.2857,0,0,0,148.042,21.0623Z"/><path d="M155.812,27.3621a3.6791,3.6791,0,0,1-1.4419-.2661,2.7811,2.7811,0,0,1-1.0571-.77,3.4585,3.4585,0,0,1-.6509-1.2109,5.2459,5.2459,0,0,1-.2241-1.5889,5.18,5.18,0,0,1,.2241-1.582,3.3919,3.3919,0,0,1,.6509-1.1968,2.812,2.812,0,0,1,1.0571-.7632,3.6791,3.6791,0,0,1,1.4419-.2661,3.1826,3.1826,0,0,1,1.8271.49,2.7513,2.7513,0,0,1,1.043,1.3579l-1.47.6577a1.5247,1.5247,0,0,0-.4687-.7627,1.3629,1.3629,0,0,0-.9312-.3013,1.3411,1.3411,0,0,0-1.127.4761,1.9689,1.9689,0,0,0-.3711,1.2461v1.33a1.9377,1.9377,0,0,0,.3711,1.2388,1.3481,1.3481,0,0,0,1.127.4692,1.3973,1.3973,0,0,0,.9941-.3291,2.26,2.26,0,0,0,.5459-.8188l1.3721.6577a2.87,2.87,0,0,1-1.106,1.4492A3.2426,3.2426,0,0,1,155.812,27.3621Z"/><path d="M162.3921,27.1942a1.91,1.91,0,0,1-1.4067-.4814,1.8587,1.8587,0,0,1-.4829-1.376V21.3279h-1.0781V19.886h.56a.6678.6678,0,0,0,.5527-.189.9133.9133,0,0,0,.147-.5669V17.8841h1.61v2.002h1.4976v1.4419h-1.4976v4.4243H163.68v1.4419Z"/><path d="M166.2422,18.8221a1.0875,1.0875,0,0,1-.8052-.252.8849.8849,0,0,1-.2451-.644v-.28a.8849.8849,0,0,1,.2451-.644,1.4008,1.4008,0,0,1,1.603,0,.8724.8724,0,0,1,.252.644v.28a.8724.8724,0,0,1-.252.644A1.0913,1.0913,0,0,1,166.2422,18.8221Zm-.896,1.064h1.792v7.3081h-1.792Z"/><path d="M172.1079,27.3621a3.5535,3.5535,0,0,1-1.4072-.2661,2.9188,2.9188,0,0,1-1.064-.77,3.5082,3.5082,0,0,1-.6787-1.2109,4.9482,4.9482,0,0,1-.2383-1.5889,4.8864,4.8864,0,0,1,.2383-1.582,3.4421,3.4421,0,0,1,.6787-1.1968,2.9531,2.9531,0,0,1,1.064-.7632,3.5535,3.5535,0,0,1,1.4072-.2661,3.6048,3.6048,0,0,1,1.4141.2661,2.9368,2.9368,0,0,1,1.0708.7632,3.4585,3.4585,0,0,1,.6792,1.1968,4.9,4.9,0,0,1,.2378,1.582,4.9621,4.9621,0,0,1-.2378,1.5889,3.525,3.525,0,0,1-.6792,1.2109,2.9029,2.9029,0,0,1-1.0708.77A3.6048,3.6048,0,0,1,172.1079,27.3621Zm0-1.4419a1.4588,1.4588,0,0,0,1.12-.4341,1.8,1.8,0,0,0,.4058-1.2739V22.8543a1.78,1.78,0,0,0-.4058-1.26,1.4605,1.4605,0,0,0-1.12-.4341,1.4416,1.4416,0,0,0-1.106.4341,1.778,1.778,0,0,0-.4062,1.26v1.3579a1.7982,1.7982,0,0,0,.4063,1.2739A1.44,1.44,0,0,0,172.1079,25.92Z"/><path d="M177.0918,27.1942V19.886h1.792v1.2183h.07a2.3426,2.3426,0,0,1,.707-.9873,2.0413,2.0413,0,0,1,1.3369-.3989,2.1069,2.1069,0,0,1,1.7363.7422,3.28,3.28,0,0,1,.6016,2.1138v4.62h-1.792v-4.438a2.025,2.025,0,0,0-.28-1.1758,1.0575,1.0575,0,0,0-.9238-.3921,1.8978,1.8978,0,0,0-.5391.0767,1.5159,1.5159,0,0,0-.4619.2241,1.1688,1.1688,0,0,0-.3291.3643.9991.9991,0,0,0-.126.5107v4.83Z"/><path d="M194.0039,27.1942a1.2565,1.2565,0,0,1-.9307-.3428,1.5776,1.5776,0,0,1-.4277-.917h-.084a1.711,1.711,0,0,1-.7422,1.0708,2.5287,2.5287,0,0,1-1.3857.3569,2.3669,2.3669,0,0,1-1.7217-.5859,2.0819,2.0819,0,0,1-.6025-1.5635,1.8941,1.8941,0,0,1,.8125-1.6812,4.09,4.09,0,0,1,2.31-.5513h1.2461v-.5322a1.3248,1.3248,0,0,0-.3213-.9521A1.3851,1.3851,0,0,0,191.12,21.16a1.724,1.724,0,0,0-1.0156.2729,2.6842,2.6842,0,0,0-.65.6514l-1.0645-.958a3.0846,3.0846,0,0,1,1.0781-1.0205,3.5463,3.5463,0,0,1,1.7783-.3877,3.3412,3.3412,0,0,1,2.2539.67,2.421,2.421,0,0,1,.77,1.9277v3.436h.7285v1.4419ZM191.0361,26.06a1.8858,1.8858,0,0,0,1.0215-.2642.8622.8622,0,0,0,.42-.7788v-.9595H191.33q-1.4,0-1.4.89v.2363a.772.772,0,0,0,.2871.66A1.3408,1.3408,0,0,0,191.0361,26.06Z"/><path d="M196.4531,27.1942V19.886h1.792v1.2183h.07a2.33,2.33,0,0,1,.707-.9873,2.04,2.04,0,0,1,1.3369-.3989,2.105,2.105,0,0,1,1.7354.7422,3.2771,3.2771,0,0,1,.6025,2.1138v4.62h-1.792v-4.438a2.0248,2.0248,0,0,0-.28-1.1758,1.0575,1.0575,0,0,0-.9238-.3921,1.9028,1.9028,0,0,0-.5391.0767,1.5159,1.5159,0,0,0-.4619.2241,1.1688,1.1688,0,0,0-.3291.3643.9991.9991,0,0,0-.126.5107v4.83Z"/><path d="M209.2217,25.9764h-.07a1.87,1.87,0,0,1-.7422,1.0078,2.1815,2.1815,0,0,1-1.2734.3779,2.4751,2.4751,0,0,1-2.1211-.9941,4.7161,4.7161,0,0,1-.7354-2.8418,4.6556,4.6556,0,0,1,.7354-2.8208,2.4823,2.4823,0,0,1,2.1211-.9873,2.2127,2.2127,0,0,1,1.2734.3711,1.8383,1.8383,0,0,1,.7422,1.001h.07V16.8343h1.792v10.36h-1.792Zm-1.5127-.0981a1.8132,1.8132,0,0,0,1.0781-.3081,1.0164,1.0164,0,0,0,.4346-.8818V22.3641a1.0137,1.0137,0,0,0-.4346-.854,1.76,1.76,0,0,0-1.0781-.3218,1.4521,1.4521,0,0,0-1.127.4688,1.7925,1.7925,0,0,0-.4268,1.2529v1.26a1.7657,1.7657,0,0,0,.4268,1.2461A1.4637,1.4637,0,0,0,207.709,25.8782Z"/><path d="M217.957,27.1942l-2.4355-7.3081h1.7637l1.0225,3.15.7139,2.604h.0977l.7148-2.604.9932-3.15h1.708l-2.4492,7.3081Z"/><path d="M226.874,27.3621a4.6336,4.6336,0,0,1-2.1348-.4487,4.96,4.96,0,0,1-1.5049-1.1782l1.2461-1.2061a3.5711,3.5711,0,0,0,1.127.89,3.089,3.089,0,0,0,1.3789.3052,1.946,1.946,0,0,0,1.2881-.3682,1.2348,1.2348,0,0,0,.4336-.9932,1.1275,1.1275,0,0,0-.2793-.792,1.8846,1.8846,0,0,0-1.05-.4443l-.9248-.1387q-2.9253-.4629-2.9258-2.8457a2.8206,2.8206,0,0,1,.2451-1.1914,2.5373,2.5373,0,0,1,.707-.9111,3.269,3.269,0,0,1,1.1133-.582,4.9542,4.9542,0,0,1,1.4766-.2031,4.7521,4.7521,0,0,1,1.9326.3647,3.7933,3.7933,0,0,1,1.4131,1.08l-1.26,1.1924a2.8882,2.8882,0,0,0-.8818-.7217,2.7366,2.7366,0,0,0-1.3018-.2773,1.9864,1.9864,0,0,0-1.1973.2983,1.1383,1.1383,0,0,0-.0771,1.6582,2.27,2.27,0,0,0,1.0361.3887l.91.168a4.18,4.18,0,0,1,2.1914.9463,2.5118,2.5118,0,0,1,.7061,1.8989,3.1737,3.1737,0,0,1-.2441,1.2686,2.745,2.745,0,0,1-.7148.981,3.2576,3.2576,0,0,1-1.1475.6377A4.979,4.979,0,0,1,226.874,27.3621Z"/><path d="M238.4395,27.1942l-.7842-2.4922h-3.4717l-.7705,2.4922h-1.876l3.2764-9.772h2.2959l3.248,9.772Zm-2.4922-8.0918h-.07L234.6309,23.12h2.5762Z"/><path d="M244.5986,22.1819l-1.0078-2.03h-.042v7.042h-1.75v-9.772h2.0293l2.94,5.0122,1.0078,2.03h.042v-7.042h1.75v9.772h-2.03Z"/><path d="M258.0107,27.3621a3.644,3.644,0,0,1-1.4492-.2729,2.9971,2.9971,0,0,1-1.0781-.77,3.4321,3.4321,0,0,1-.6787-1.2041,5.4213,5.4213,0,0,1-.0068-3.1567,3.4082,3.4082,0,0,1,.665-1.1973,2.9481,2.9481,0,0,1,1.0635-.77,3.5658,3.5658,0,0,1,1.4277-.2729,3.4839,3.4839,0,0,1,1.4844.2939,2.8574,2.8574,0,0,1,1.0361.7983,3.4549,3.4549,0,0,1,.6094,1.1689,4.8614,4.8614,0,0,1,.2021,1.4209v.5879h-4.8574v.1807a1.7878,1.7878,0,0,0,.4482,1.272,1.73,1.73,0,0,0,1.3291.4795,1.9853,1.9853,0,0,0,1.1-.2778,3.1376,3.1376,0,0,0,.7627-.709l.9658,1.0811a3.0069,3.0069,0,0,1-1.2246.99A4.2638,4.2638,0,0,1,258.0107,27.3621Zm-.0283-6.3a1.4363,1.4363,0,0,0-1.1338.4761,1.7911,1.7911,0,0,0-.42,1.2319v.1118h2.9961v-.126a1.919,1.919,0,0,0-.3711-1.2251A1.2864,1.2864,0,0,0,257.9824,21.0623Z"/><path d="M262.8682,27.1942V19.886h1.792v1.2183h.07a2.33,2.33,0,0,1,.707-.9873,2.04,2.04,0,0,1,1.3369-.3989,2.105,2.105,0,0,1,1.7354.7422,3.2771,3.2771,0,0,1,.6025,2.1138v4.62H267.32v-4.438a2.0248,2.0248,0,0,0-.28-1.1758,1.0575,1.0575,0,0,0-.9238-.3921,1.9028,1.9028,0,0,0-.5391.0767,1.5159,1.5159,0,0,0-.4619.2241,1.1688,1.1688,0,0,0-.3291.3643.9991.9991,0,0,0-.126.5107v4.83Z"/><path d="M273.9844,27.3621a3.6867,3.6867,0,0,1-1.4424-.2661,2.7832,2.7832,0,0,1-1.0566-.77,3.4593,3.4593,0,0,1-.6514-1.2109,5.2464,5.2464,0,0,1-.2236-1.5889,5.1805,5.1805,0,0,1,.2236-1.582,3.3927,3.3927,0,0,1,.6514-1.1968,2.8141,2.8141,0,0,1,1.0566-.7632,3.6867,3.6867,0,0,1,1.4424-.2661,3.1815,3.1815,0,0,1,1.8271.49,2.7513,2.7513,0,0,1,1.043,1.3579l-1.47.6577a1.52,1.52,0,0,0-.47-.7627,1.3615,1.3615,0,0,0-.9307-.3013,1.3411,1.3411,0,0,0-1.127.4761,1.9719,1.9719,0,0,0-.3711,1.2461v1.33a1.9406,1.9406,0,0,0,.3711,1.2388,1.3481,1.3481,0,0,0,1.127.4692,1.3965,1.3965,0,0,0,.9941-.3291,2.2538,2.2538,0,0,0,.5459-.8188l1.3721.6577a2.8711,2.8711,0,0,1-1.1064,1.4492A3.24,3.24,0,0,1,273.9844,27.3621Z"/><path d="M278.2822,27.1942V19.886h1.792v1.5122h.07a2.2637,2.2637,0,0,1,.2168-.5669,1.7266,1.7266,0,0,1,.3848-.4834,1.8423,1.8423,0,0,1,.5674-.3359,2.1235,2.1235,0,0,1,.7627-.126h.3916V21.58h-.56a2.8108,2.8108,0,0,0-1.3721.2656.9254.9254,0,0,0-.4619.8682v4.48Z"/><path d="M288.376,19.886h1.6807l-2.94,8.61a3.7542,3.7542,0,0,1-.3145.6792,1.7065,1.7065,0,0,1-.4131.4692,1.5577,1.5577,0,0,1-.5742.2656,3.2458,3.2458,0,0,1-.7842.084h-1.0781V28.5521h1.3164l.3359-1.02-2.6182-7.646h1.7783l1.2734,3.856.4766,1.8438h.084l.5039-1.8437Z"/><path d="M291.2324,19.886h1.792V21.09h.0557a1.8383,1.8383,0,0,1,.7422-1.001,2.2159,2.2159,0,0,1,1.2744-.3711,2.4982,2.4982,0,0,1,2.1348.9873,4.6558,4.6558,0,0,1,.7344,2.8208,4.7163,4.7163,0,0,1-.7344,2.8418,2.4909,2.4909,0,0,1-2.1348.9941,2.1525,2.1525,0,0,1-1.2676-.3779,1.9576,1.9576,0,0,1-.749-1.0078h-.0557V29.994h-1.792Zm3.29,5.9922a1.4844,1.4844,0,0,0,1.1338-.4619A1.7472,1.7472,0,0,0,296.09,24.17V22.91a1.7736,1.7736,0,0,0-.4336-1.2529,1.4725,1.4725,0,0,0-1.1338-.4687,1.7315,1.7315,0,0,0-1.0713.3218,1.0164,1.0164,0,0,0-.4268.854v2.3242a1.02,1.02,0,0,0,.4268.8818A1.7834,1.7834,0,0,0,294.5225,25.8782Z"/><path d="M301.83,27.1942a1.9111,1.9111,0,0,1-1.4072-.4814,1.8589,1.8589,0,0,1-.4834-1.376V21.3279h-1.0781V19.886h.5605a.6678.6678,0,0,0,.5527-.189.9164.9164,0,0,0,.1475-.5669V17.8841h1.6094v2.002h1.498v1.4419h-1.498v4.4243h1.3867v1.4419Z"/><path d="M305.68,18.8221a1.0869,1.0869,0,0,1-.8047-.252.8869.8869,0,0,1-.2451-.644v-.28a.8869.8869,0,0,1,.2451-.644,1.4016,1.4016,0,0,1,1.6035,0,.8724.8724,0,0,1,.252.644v.28a.8724.8724,0,0,1-.252.644A1.0946,1.0946,0,0,1,305.68,18.8221Zm-.8955,1.064h1.792v7.3081h-1.792Z"/><path d="M311.5449,27.3621a3.5486,3.5486,0,0,1-1.4062-.2661,2.9124,2.9124,0,0,1-1.0645-.77,3.5082,3.5082,0,0,1-.6787-1.2109,4.9482,4.9482,0,0,1-.2383-1.5889,4.8864,4.8864,0,0,1,.2383-1.582,3.4421,3.4421,0,0,1,.6787-1.1968,2.9465,2.9465,0,0,1,1.0645-.7632,3.5486,3.5486,0,0,1,1.4063-.2661,3.6014,3.6014,0,0,1,1.4141.2661,2.9386,2.9386,0,0,1,1.0713.7632,3.4421,3.4421,0,0,1,.6787,1.1968,4.8864,4.8864,0,0,1,.2383,1.582,4.9482,4.9482,0,0,1-.2383,1.5889,3.5082,3.5082,0,0,1-.6787,1.2109,2.9047,2.9047,0,0,1-1.0713.77A3.6014,3.6014,0,0,1,311.5449,27.3621Zm0-1.4419a1.4573,1.4573,0,0,0,1.12-.4341,1.8,1.8,0,0,0,.4063-1.2739V22.8543a1.78,1.78,0,0,0-.4062-1.26,1.4591,1.4591,0,0,0-1.12-.4341,1.44,1.44,0,0,0-1.1055.4341,1.78,1.78,0,0,0-.4062,1.26v1.3579a1.8,1.8,0,0,0,.4063,1.2739A1.4388,1.4388,0,0,0,311.5449,25.92Z"/><path d="M316.5293,27.1942V19.886h1.792v1.2183h.07a2.33,2.33,0,0,1,.707-.9873,2.04,2.04,0,0,1,1.3369-.3989,2.105,2.105,0,0,1,1.7354.7422,3.2771,3.2771,0,0,1,.6025,2.1138v4.62h-1.792v-4.438a2.0248,2.0248,0,0,0-.28-1.1758,1.0575,1.0575,0,0,0-.9238-.3921,1.9028,1.9028,0,0,0-.5391.0767,1.5159,1.5159,0,0,0-.4619.2241,1.1688,1.1688,0,0,0-.3291.3643.9991.9991,0,0,0-.126.5107v4.83Z"/><path d="M327.3516,19.886h1.7217l.7422,3.01.5742,2.5059h.0557l.6719-2.5059.8545-3.01h1.624l.8818,3.01.6855,2.5059h.0566l.5732-2.5059.7285-3.01h1.666l-2.002,7.3081h-1.9326l-.9375-3.22-.5459-1.9878h-.042l-.5322,1.9878-.9238,3.22h-1.9043Z"/><path d="M340.4268,18.8221a1.0869,1.0869,0,0,1-.8047-.252.8869.8869,0,0,1-.2451-.644v-.28a.8869.8869,0,0,1,.2451-.644,1.4016,1.4016,0,0,1,1.6035,0,.8724.8724,0,0,1,.252.644v.28a.8724.8724,0,0,1-.252.644A1.0946,1.0946,0,0,1,340.4268,18.8221Zm-.8955,1.064h1.792v7.3081h-1.792Z"/><path d="M345.6768,27.1942a1.9111,1.9111,0,0,1-1.4072-.4814,1.8589,1.8589,0,0,1-.4834-1.376V21.3279H342.708V19.886h.5605a.6678.6678,0,0,0,.5527-.189.9164.9164,0,0,0,.1475-.5669V17.8841h1.6094v2.002h1.498v1.4419h-1.498v4.4243h1.3867v1.4419Z"/><path d="M348.6309,16.8343h1.792v4.27h.07a2.33,2.33,0,0,1,.707-.9873,2.04,2.04,0,0,1,1.3369-.3989,2.105,2.105,0,0,1,1.7354.7422,3.2771,3.2771,0,0,1,.6025,2.1138v4.62h-1.792v-4.438a2.0248,2.0248,0,0,0-.28-1.1758,1.0575,1.0575,0,0,0-.9238-.3921,1.9028,1.9028,0,0,0-.5391.0767,1.5159,1.5159,0,0,0-.4619.2241,1.1688,1.1688,0,0,0-.3291.3643.9991.9991,0,0,0-.126.5107v4.83h-1.792Z"/><path d="M363.4287,22.77l-1.3018,1.54v2.8838h-1.8477v-9.772h1.8477v4.8159h.07l1.3857-1.834,2.4219-2.9819h2.1279L364.73,21.4959l3.6826,5.6982h-2.1982Z"/><path d="M371.8428,27.1942V23.3582l-3.3467-5.936h2.0723l2.2539,4.13h.0283l2.1982-4.13h2.0156l-3.36,5.9219v3.85Z"/><path d="M381.5732,27.3621a4.57,4.57,0,0,1-1.75-.3218,3.4714,3.4714,0,0,1-1.3369-.9663,4.5832,4.5832,0,0,1-.8613-1.582,7.0129,7.0129,0,0,1-.3086-2.1841,7.0322,7.0322,0,0,1,.3086-2.1768,4.5766,4.5766,0,0,1,.8613-1.5889,3.4765,3.4765,0,0,1,1.3369-.9663,4.92,4.92,0,0,1,3.5,0,3.5441,3.5441,0,0,1,1.3438.9663,4.4523,4.4523,0,0,1,.8613,1.5889,7.1919,7.1919,0,0,1,.3008,2.1768,7.1723,7.1723,0,0,1-.3008,2.1841,4.4578,4.4578,0,0,1-.8613,1.582,3.5389,3.5389,0,0,1-1.3437.9663A4.5769,4.5769,0,0,1,381.5732,27.3621Zm0-1.6382a2.1291,2.1291,0,0,0,1.6729-.7,2.85,2.85,0,0,0,.623-1.96V21.5521a2.85,2.85,0,0,0-.623-1.96,2.3507,2.3507,0,0,0-3.3467,0,2.8493,2.8493,0,0,0-.6221,1.96v1.5122a2.8493,2.8493,0,0,0,.6221,1.96A2.13,2.13,0,0,0,381.5732,25.7239Z"/><path d="M390.8545,22.77l-1.3018,1.54v2.8838h-1.8477v-9.772h1.8477v4.8159h.07l1.3857-1.834,2.4219-2.9819h2.1279l-3.4023,4.0737,3.6826,5.6982h-2.1982Z"/><path d="M569.19,87.5272l-3.1924-9.772h1.8906l1.498,4.76.8682,3.248h.042l.8535-3.248,1.498-4.76h1.834l-3.1924,9.772Z"/><path d="M583.2324,80.513h-.0566l-.7559,1.5542-2.002,3.6958-2.002-3.6958L577.66,80.513h-.0557v7.0142h-1.75v-9.772H577.94l2.5059,4.7739h.0557l2.4785-4.7739h2.002v9.772h-1.75Z"/><path d="M586.4521,80.2191h1.7217l.7422,3.01.5742,2.5059h.0557l.6719-2.5059.8545-3.01h1.624l.8818,3.01.6855,2.5059h.0566l.5732-2.5059.7285-3.01h1.666l-2.002,7.3081h-1.9326l-.9375-3.22-.5459-1.9878h-.042l-.5322,1.9878-.9238,3.22h-1.9043Z"/><path d="M603.8262,87.5272a1.2565,1.2565,0,0,1-.9307-.3428,1.5776,1.5776,0,0,1-.4277-.917h-.084a1.711,1.711,0,0,1-.7422,1.0708,2.5287,2.5287,0,0,1-1.3857.3569,2.3669,2.3669,0,0,1-1.7217-.5859,2.0819,2.0819,0,0,1-.6025-1.5635,1.8941,1.8941,0,0,1,.8125-1.6812,4.09,4.09,0,0,1,2.31-.5513H602.3v-.5322a1.3248,1.3248,0,0,0-.3213-.9521,1.3851,1.3851,0,0,0-1.0361-.3359,1.724,1.724,0,0,0-1.0156.2729,2.6842,2.6842,0,0,0-.65.6514l-1.0645-.958a3.0846,3.0846,0,0,1,1.0781-1.0205,3.5463,3.5463,0,0,1,1.7783-.3877,3.3412,3.3412,0,0,1,2.2539.67,2.421,2.421,0,0,1,.77,1.9277v3.436h.7285v1.4419Zm-2.9678-1.1338a1.8858,1.8858,0,0,0,1.0215-.2642.8622.8622,0,0,0,.42-.7788v-.9595h-1.1475q-1.4,0-1.4.89v.2363a.772.772,0,0,0,.2871.66A1.3408,1.3408,0,0,0,600.8584,86.3934Z"/><path d="M606.2764,87.5272V80.2191h1.792v1.5122h.07a2.2637,2.2637,0,0,1,.2168-.5669,1.7266,1.7266,0,0,1,.3848-.4834,1.8423,1.8423,0,0,1,.5674-.3359,2.1235,2.1235,0,0,1,.7627-.126h.3916v1.6943h-.56a2.8108,2.8108,0,0,0-1.3721.2656.9254.9254,0,0,0-.4619.8682v4.48Z"/><path d="M614.6621,87.6951a3.644,3.644,0,0,1-1.4492-.2729,2.9971,2.9971,0,0,1-1.0781-.77,3.4321,3.4321,0,0,1-.6787-1.2041,5.4213,5.4213,0,0,1-.0068-3.1567,3.4082,3.4082,0,0,1,.665-1.1973,2.9481,2.9481,0,0,1,1.0635-.77,3.5658,3.5658,0,0,1,1.4277-.2729,3.4839,3.4839,0,0,1,1.4844.2939,2.8574,2.8574,0,0,1,1.0361.7983,3.4549,3.4549,0,0,1,.6094,1.1689,4.8614,4.8614,0,0,1,.2021,1.4209v.5879H613.08v.1807a1.7878,1.7878,0,0,0,.4482,1.272,1.73,1.73,0,0,0,1.3291.4795,1.9853,1.9853,0,0,0,1.1-.2778,3.1376,3.1376,0,0,0,.7627-.709l.9658,1.0811a3.0069,3.0069,0,0,1-1.2246.99A4.2638,4.2638,0,0,1,614.6621,87.6951Zm-.0283-6.3a1.4363,1.4363,0,0,0-1.1338.4761,1.7911,1.7911,0,0,0-.42,1.2319v.1118h2.9961v-.126a1.919,1.919,0,0,0-.3711-1.2251A1.2864,1.2864,0,0,0,614.6338,81.3953Z"/><path d="M385.8379,71.9847l-2.7354-8.376h1.6191l1.2842,4.08.7441,2.7837h.0361l.7324-2.7837,1.2832-4.08h1.5723l-2.7363,8.376Z"/><path d="M397.874,65.9725h-.0479l-.6475,1.332-1.7158,3.168-1.7168-3.168-.6475-1.332h-.0479v6.0122h-1.5v-8.376h1.7881l2.1475,4.0918h.0479l2.124-4.0918h1.7158v8.376h-1.5Z"/><path d="M400.6338,65.7205h1.4756l.6357,2.58.4922,2.1479h.0479l.5762-2.1479.7324-2.58h1.3916l.7559,2.58.5879,2.1479h.0479l.4922-2.1479.624-2.58h1.4287l-1.7168,6.2642H406.55l-.8047-2.76-.4678-1.7041h-.0361l-.4561,1.7041-.792,2.76h-1.6318Z"/><path d="M415.5264,71.9847a1.0758,1.0758,0,0,1-.7979-.2939,1.3492,1.3492,0,0,1-.3662-.7861H414.29a1.4656,1.4656,0,0,1-.6357.918,2.1676,2.1676,0,0,1-1.1885.3062,2.0286,2.0286,0,0,1-1.4756-.5024,1.7848,1.7848,0,0,1-.5156-1.34,1.6232,1.6232,0,0,1,.6953-1.4414,3.5084,3.5084,0,0,1,1.98-.4722h1.0684v-.4561a1.1337,1.1337,0,0,0-.2764-.8159,1.1847,1.1847,0,0,0-.8877-.2881,1.47,1.47,0,0,0-.87.2339,2.2972,2.2972,0,0,0-.5586.5581l-.9121-.8208a2.6519,2.6519,0,0,1,.9248-.8755,3.0379,3.0379,0,0,1,1.5234-.332,2.8674,2.8674,0,0,1,1.9326.5747,2.0747,2.0747,0,0,1,.6592,1.6523v2.9453h.624v1.2358Zm-2.5439-.9722a1.6147,1.6147,0,0,0,.876-.2261.7388.7388,0,0,0,.36-.6675v-.8223h-.9844q-1.2,0-1.2.7627v.2026a.6614.6614,0,0,0,.2461.5659A1.1517,1.1517,0,0,0,412.9824,71.0125Z"/><path d="M417.626,71.9847V65.7205h1.5361v1.2964h.0605a1.9973,1.9973,0,0,1,.1855-.4863,1.5026,1.5026,0,0,1,.33-.4141,1.5757,1.5757,0,0,1,.4863-.2876,1.81,1.81,0,0,1,.6533-.1084h.3359v1.4521h-.4795a2.4066,2.4066,0,0,0-1.1758.228.7911.7911,0,0,0-.3965.7441v3.84Z"/><path d="M424.8135,72.1287a3.1324,3.1324,0,0,1-1.2422-.2339,2.5687,2.5687,0,0,1-.9238-.66,2.9445,2.9445,0,0,1-.582-1.0322,4.6492,4.6492,0,0,1-.0059-2.7056,2.94,2.94,0,0,1,.57-1.0264,2.5154,2.5154,0,0,1,.9121-.66,3.0419,3.0419,0,0,1,1.2236-.2344,2.97,2.97,0,0,1,1.2715.2524,2.4561,2.4561,0,0,1,.8887.6836,2.9672,2.9672,0,0,1,.5215,1.002,4.1467,4.1467,0,0,1,.1738,1.2183v.5039H423.458v.1548a1.5284,1.5284,0,0,0,.3838,1.09,1.4855,1.4855,0,0,0,1.14.4111,1.7009,1.7009,0,0,0,.9424-.2383,2.6655,2.6655,0,0,0,.6533-.6079l.8281.9268a2.57,2.57,0,0,1-1.05.8486A3.658,3.658,0,0,1,424.8135,72.1287Zm-.0234-5.4a1.2321,1.2321,0,0,0-.9727.4077,1.5357,1.5357,0,0,0-.3594,1.0562v.0962h2.5674V68.18a1.6489,1.6489,0,0,0-.3174-1.05A1.1028,1.1028,0,0,0,424.79,66.7288Z"/><path d="M361.2324,82.5926l-1.1152,1.32v2.4722h-1.584v-8.376h1.584v4.1279h.06l1.1885-1.5718,2.0752-2.5562h1.8242l-2.916,3.4922,3.1563,4.8838h-1.8838Z"/><path d="M368.8047,86.5286a3.1324,3.1324,0,0,1-1.2422-.2339,2.5687,2.5687,0,0,1-.9238-.66,2.9445,2.9445,0,0,1-.582-1.0322,4.6492,4.6492,0,0,1-.0059-2.7056,2.94,2.94,0,0,1,.57-1.0264,2.5154,2.5154,0,0,1,.9121-.66,3.0419,3.0419,0,0,1,1.2236-.2344,2.97,2.97,0,0,1,1.2715.2524,2.4561,2.4561,0,0,1,.8887.6836,2.9672,2.9672,0,0,1,.5215,1.002,4.1467,4.1467,0,0,1,.1738,1.2183v.5039h-4.1631v.1548a1.5284,1.5284,0,0,0,.3838,1.09,1.4855,1.4855,0,0,0,1.14.4111,1.7009,1.7009,0,0,0,.9424-.2383,2.6655,2.6655,0,0,0,.6533-.6079l.8281.9268a2.57,2.57,0,0,1-1.05.8486A3.658,3.658,0,0,1,368.8047,86.5286Zm-.0234-5.4a1.2321,1.2321,0,0,0-.9727.4077,1.5357,1.5357,0,0,0-.3594,1.0562v.0962h2.5674V82.58a1.6489,1.6489,0,0,0-.3174-1.05A1.1028,1.1028,0,0,0,368.7813,81.1287Z"/><path d="M376.7363,80.12h1.44l-2.52,7.38a3.2057,3.2057,0,0,1-.2705.582,1.4477,1.4477,0,0,1-.3535.4019,1.3466,1.3466,0,0,1-.4922.228,2.8,2.8,0,0,1-.6719.0718h-.9248V87.5486h1.1289l.2871-.8745L372.1172,80.12h1.5234l1.0918,3.3052.4082,1.5806h.0723l.4316-1.5806Z"/><path d="M388.4365,80.3724h-.0479l-.6475,1.332-1.7158,3.168-1.7168-3.168-.6475-1.332h-.0479v6.0122h-1.5v-8.376h1.7881L386.0488,82.1h.0479l2.124-4.0918h1.7158v8.376h-1.5Z"/><path d="M396.417,86.3846a1.0758,1.0758,0,0,1-.7979-.2939,1.3492,1.3492,0,0,1-.3662-.7861h-.0723a1.4656,1.4656,0,0,1-.6357.918,2.1676,2.1676,0,0,1-1.1885.3062,2.0286,2.0286,0,0,1-1.4756-.5024,1.7848,1.7848,0,0,1-.5156-1.34,1.6232,1.6232,0,0,1,.6953-1.4414,3.5084,3.5084,0,0,1,1.98-.4722h1.0684v-.4561a1.1337,1.1337,0,0,0-.2764-.8159,1.1847,1.1847,0,0,0-.8877-.2881,1.47,1.47,0,0,0-.87.2339,2.2972,2.2972,0,0,0-.5586.5581l-.9121-.8208a2.6519,2.6519,0,0,1,.9248-.8755,3.0379,3.0379,0,0,1,1.5234-.332,2.8674,2.8674,0,0,1,1.9326.5747,2.0747,2.0747,0,0,1,.6592,1.6523v2.9453h.624v1.2358Zm-2.5439-.9722a1.6147,1.6147,0,0,0,.876-.2261.7388.7388,0,0,0,.36-.6675v-.8223h-.9844q-1.2,0-1.2.7627v.2026a.6614.6614,0,0,0,.2461.5659A1.1517,1.1517,0,0,0,393.873,85.4124Z"/><path d="M398.5166,86.3846V80.12h1.5361v1.0439h.0605a2.0078,2.0078,0,0,1,.6055-.8457,1.75,1.75,0,0,1,1.1465-.3423,1.8046,1.8046,0,0,1,1.4873.6362,2.8056,2.8056,0,0,1,.5166,1.812v3.96H402.333V82.58a1.734,1.734,0,0,0-.24-1.0078.9069.9069,0,0,0-.792-.3359,1.6153,1.6153,0,0,0-.4619.0659,1.2841,1.2841,0,0,0-.3955.1919.9918.9918,0,0,0-.2822.312.8545.8545,0,0,0-.1084.438v4.14Z"/><path d="M410.1807,86.3846a1.0758,1.0758,0,0,1-.7979-.2939,1.3492,1.3492,0,0,1-.3662-.7861h-.0723a1.4656,1.4656,0,0,1-.6357.918,2.1676,2.1676,0,0,1-1.1885.3062,2.0286,2.0286,0,0,1-1.4756-.5024,1.7848,1.7848,0,0,1-.5156-1.34,1.6232,1.6232,0,0,1,.6953-1.4414,3.5084,3.5084,0,0,1,1.98-.4722h1.0684v-.4561a1.1337,1.1337,0,0,0-.2764-.8159,1.1847,1.1847,0,0,0-.8877-.2881,1.47,1.47,0,0,0-.87.2339,2.2972,2.2972,0,0,0-.5586.5581l-.9121-.8208a2.6519,2.6519,0,0,1,.9248-.8755,3.0379,3.0379,0,0,1,1.5234-.332,2.8674,2.8674,0,0,1,1.9326.5747,2.0747,2.0747,0,0,1,.6592,1.6523v2.9453h.624v1.2358Zm-2.5439-.9722a1.6147,1.6147,0,0,0,.876-.2261.7388.7388,0,0,0,.36-.6675v-.8223h-.9844q-1.2,0-1.2.7627v.2026a.6614.6614,0,0,0,.2461.5659A1.1517,1.1517,0,0,0,407.6367,85.4124Z"/><path d="M417.9326,86.9124a2.0716,2.0716,0,0,1-.1738.87,1.4822,1.4822,0,0,1-.57.63,3.1,3.1,0,0,1-1.02.3843,8.888,8.888,0,0,1-2.8682.03,3.22,3.22,0,0,1-.9062-.2881,1.2,1.2,0,0,1-.51-.4619,1.2413,1.2413,0,0,1-.1562-.624,1.1091,1.1091,0,0,1,.2939-.8218,1.444,1.444,0,0,1,.8223-.3779V86.12a1.0172,1.0172,0,0,1-.5937-.3784,1.0832,1.0832,0,0,1-.21-.667.9107.9107,0,0,1,.0957-.4263.9829.9829,0,0,1,.2578-.3188,1.5959,1.5959,0,0,1,.3662-.2222,2.1745,2.1745,0,0,1,.4316-.1382v-.0483a1.8731,1.8731,0,0,1-.8574-.7314,2.0661,2.0661,0,0,1-.2822-1.0908,1.951,1.951,0,0,1,.66-1.5405,2.8358,2.8358,0,0,1,1.9316-.582,4.5166,4.5166,0,0,1,.57.0361,2.5479,2.5479,0,0,1,.5215.12v-.2041a.7959.7959,0,0,1,.8887-.9121h.9717v1.1763h-1.332v.168a1.8066,1.8066,0,0,1,.7314.72,2.1113,2.1113,0,0,1,.24,1.02,1.9333,1.9333,0,0,1-.6533,1.5244,2.8567,2.8567,0,0,1-1.9385.5757,3.7853,3.7853,0,0,1-.96-.1079,1.0229,1.0229,0,0,0-.3115.2222.4723.4723,0,0,0-.1328.3418q0,.468.8164.4683h1.68a2.4456,2.4456,0,0,1,1.6738.4736A1.6843,1.6843,0,0,1,417.9326,86.9124Zm-1.44.18a.54.54,0,0,0-.2393-.4678,1.5053,1.5053,0,0,0-.8281-.1685h-2.1357a.7634.7634,0,0,0-.3242.6484.6456.6456,0,0,0,.3.564,1.8948,1.8948,0,0,0,1.02.2036h.7686A2.3508,2.3508,0,0,0,416.15,87.68.6293.6293,0,0,0,416.4922,87.0926Zm-1.8477-3.9482q1.1279,0,1.1279-.9541v-.2031q0-.9543-1.1279-.9546t-1.1279.9546V82.19Q413.5166,83.1446,414.6445,83.1444Z"/><path d="M421.28,86.5286a3.1324,3.1324,0,0,1-1.2422-.2339,2.5687,2.5687,0,0,1-.9238-.66,2.9445,2.9445,0,0,1-.582-1.0322,4.6492,4.6492,0,0,1-.0059-2.7056,2.94,2.94,0,0,1,.57-1.0264,2.5154,2.5154,0,0,1,.9121-.66,3.0419,3.0419,0,0,1,1.2236-.2344,2.97,2.97,0,0,1,1.2715.2524,2.4561,2.4561,0,0,1,.8887.6836,2.9672,2.9672,0,0,1,.5215,1.002,4.1467,4.1467,0,0,1,.1738,1.2183v.5039h-4.1631v.1548a1.5284,1.5284,0,0,0,.3838,1.09,1.4855,1.4855,0,0,0,1.14.4111,1.7009,1.7009,0,0,0,.9424-.2383,2.6655,2.6655,0,0,0,.6533-.6079l.8281.9268a2.57,2.57,0,0,1-1.05.8486A3.658,3.658,0,0,1,421.28,86.5286Zm-.0234-5.4a1.2321,1.2321,0,0,0-.9727.4077,1.5357,1.5357,0,0,0-.3594,1.0562v.0962h2.5674V82.58a1.6489,1.6489,0,0,0-.3174-1.05A1.1028,1.1028,0,0,0,421.2568,81.1287Z"/><path d="M425.4443,86.3846V80.12H426.98v1.0439h.0605a2.0284,2.0284,0,0,1,.5752-.84,1.6185,1.6185,0,0,1,1.1045-.3481,1.9714,1.9714,0,0,1,1.1162.312,1.8406,1.8406,0,0,1,.6953.9482h.0244a1.7651,1.7651,0,0,1,.666-.894,2.06,2.06,0,0,1,1.2539-.3662,1.7,1.7,0,0,1,1.4219.6362,2.8821,2.8821,0,0,1,.498,1.812v3.96H432.86V82.58q0-1.3433-1.0078-1.3437a1.4473,1.4473,0,0,0-.4375.0659,1.159,1.159,0,0,0-.3721.1919.9335.9335,0,0,0-.2588.312.95.95,0,0,0-.0957.438v4.14h-1.5361V82.58q0-1.3433-1.0078-1.3437a1.4137,1.4137,0,0,0-.4258.0659,1.1692,1.1692,0,0,0-.3721.1919.9836.9836,0,0,0-.2637.312.8934.8934,0,0,0-.1025.438v4.14Z"/><path d="M438.6318,86.5286a3.1324,3.1324,0,0,1-1.2422-.2339,2.5687,2.5687,0,0,1-.9238-.66,2.9445,2.9445,0,0,1-.582-1.0322,4.6492,4.6492,0,0,1-.0059-2.7056,2.94,2.94,0,0,1,.57-1.0264,2.5154,2.5154,0,0,1,.9121-.66,3.0419,3.0419,0,0,1,1.2236-.2344,2.97,2.97,0,0,1,1.2715.2524,2.4561,2.4561,0,0,1,.8887.6836,2.9672,2.9672,0,0,1,.5215,1.002,4.1467,4.1467,0,0,1,.1738,1.2183v.5039h-4.1631v.1548a1.5284,1.5284,0,0,0,.3838,1.09,1.4855,1.4855,0,0,0,1.14.4111,1.7009,1.7009,0,0,0,.9424-.2383,2.6655,2.6655,0,0,0,.6533-.6079l.8281.9268a2.57,2.57,0,0,1-1.05.8486A3.658,3.658,0,0,1,438.6318,86.5286Zm-.0234-5.4a1.2321,1.2321,0,0,0-.9727.4077,1.5357,1.5357,0,0,0-.3594,1.0562v.0962h2.5674V82.58a1.6489,1.6489,0,0,0-.3174-1.05A1.1028,1.1028,0,0,0,438.6084,81.1287Z"/><path d="M442.7959,86.3846V80.12h1.5361v1.0439h.0605a2.0078,2.0078,0,0,1,.6055-.8457,1.75,1.75,0,0,1,1.1465-.3423,1.8046,1.8046,0,0,1,1.4873.6362,2.8056,2.8056,0,0,1,.5166,1.812v3.96h-1.5361V82.58a1.734,1.734,0,0,0-.24-1.0078.9069.9069,0,0,0-.792-.3359,1.6153,1.6153,0,0,0-.4619.0659,1.2841,1.2841,0,0,0-.3955.1919.9918.9918,0,0,0-.2822.312.8545.8545,0,0,0-.1084.438v4.14Z"/><path d="M451.8076,86.3846a1.6377,1.6377,0,0,1-1.2061-.4131,1.5951,1.5951,0,0,1-.4141-1.1792V81.3568h-.9238V80.12h.48a.5732.5732,0,0,0,.4736-.1616.7853.7853,0,0,0,.126-.4863V78.4046h1.38V80.12h1.2842v1.2363h-1.2842v3.792h1.1885v1.2358Z"/><path d="M337.4668,100.7845v-1.272h1.1045V93.68h-1.1045v-1.272h3.8047V93.68h-1.1162v5.832h1.1162v1.272Z"/><path d="M342.7949,100.7845V94.52h1.5361v1.0439h.0605a2.0078,2.0078,0,0,1,.6055-.8457,1.75,1.75,0,0,1,1.1465-.3423,1.8046,1.8046,0,0,1,1.4873.6362,2.8056,2.8056,0,0,1,.5166,1.812v3.96h-1.5361V96.98a1.734,1.734,0,0,0-.24-1.0078.9069.9069,0,0,0-.792-.3359,1.6153,1.6153,0,0,0-.4619.0659,1.2841,1.2841,0,0,0-.3955.1919.9918.9918,0,0,0-.2822.312.8545.8545,0,0,0-.1084.438v4.14Z"/><path d="M351.8066,100.7845a1.6377,1.6377,0,0,1-1.2061-.4131,1.5951,1.5951,0,0,1-.4141-1.1792V95.7567h-.9238V94.52h.48a.5732.5732,0,0,0,.4736-.1616.7853.7853,0,0,0,.126-.4863V92.8045h1.38V94.52h1.2842v1.2363h-1.2842v3.792h1.1885v1.2358Z"/><path d="M356.8223,100.9285a3.1324,3.1324,0,0,1-1.2422-.2339,2.5687,2.5687,0,0,1-.9238-.66,2.9445,2.9445,0,0,1-.582-1.0322,4.6492,4.6492,0,0,1-.0059-2.7056,2.94,2.94,0,0,1,.57-1.0264,2.5154,2.5154,0,0,1,.9121-.66,3.0419,3.0419,0,0,1,1.2236-.2344,2.97,2.97,0,0,1,1.2715.2524,2.4561,2.4561,0,0,1,.8887.6836,2.9672,2.9672,0,0,1,.5215,1.002,4.1467,4.1467,0,0,1,.1738,1.2183v.5039h-4.1631v.1548a1.5284,1.5284,0,0,0,.3838,1.09,1.4855,1.4855,0,0,0,1.14.4111,1.7009,1.7009,0,0,0,.9424-.2383,2.6655,2.6655,0,0,0,.6533-.6079l.8281.9268a2.57,2.57,0,0,1-1.05.8486A3.658,3.658,0,0,1,356.8223,100.9285Zm-.0234-5.4a1.2321,1.2321,0,0,0-.9727.4077,1.5357,1.5357,0,0,0-.3594,1.0562v.0962h2.5674V96.98a1.6489,1.6489,0,0,0-.3174-1.05A1.1028,1.1028,0,0,0,356.7988,95.5286Z"/><path d="M360.9863,100.7845V94.52h1.5361v1.2964h.0605a1.9973,1.9973,0,0,1,.1855-.4863,1.5026,1.5026,0,0,1,.33-.4141,1.5757,1.5757,0,0,1,.4863-.2876,1.81,1.81,0,0,1,.6533-.1084h.3359v1.4521h-.4795a2.4066,2.4066,0,0,0-1.1758.228.7911.7911,0,0,0-.3965.7441v3.84Z"/><path d="M368.127,100.9285a3.0439,3.0439,0,0,1-1.2061-.228,2.4944,2.4944,0,0,1-.9121-.66,3.0118,3.0118,0,0,1-.582-1.0381,4.26,4.26,0,0,1-.2041-1.3618,4.2061,4.2061,0,0,1,.2041-1.356,2.9591,2.9591,0,0,1,.582-1.0259,2.5311,2.5311,0,0,1,.9121-.6543,3.0439,3.0439,0,0,1,1.2061-.228,3.09,3.09,0,0,1,1.2119.228,2.52,2.52,0,0,1,.918.6543,2.9591,2.9591,0,0,1,.582,1.0259,4.2061,4.2061,0,0,1,.2041,1.356,4.26,4.26,0,0,1-.2041,1.3618,3.0118,3.0118,0,0,1-.582,1.0381,2.4833,2.4833,0,0,1-.918.66A3.09,3.09,0,0,1,368.127,100.9285Zm0-1.2358a1.2506,1.2506,0,0,0,.96-.3721,1.5466,1.5466,0,0,0,.3477-1.0923V97.0643a1.5265,1.5265,0,0,0-.3477-1.08,1.2506,1.2506,0,0,0-.96-.3721,1.2357,1.2357,0,0,0-.9482.3721,1.522,1.522,0,0,0-.3477,1.08v1.1641a1.5421,1.5421,0,0,0,.3477,1.0923A1.2357,1.2357,0,0,0,368.127,99.6927Z"/><path d="M372.3984,94.52h1.5361v1.0322h.0479a1.5751,1.5751,0,0,1,.6367-.8579,1.8951,1.8951,0,0,1,1.0918-.3184,2.1415,2.1415,0,0,1,1.83.8462,3.9937,3.9937,0,0,1,.63,2.418,4.0445,4.0445,0,0,1-.63,2.436,2.1347,2.1347,0,0,1-1.83.8521,1.84,1.84,0,0,1-1.0859-.3242,1.6732,1.6732,0,0,1-.6426-.8638h-.0479v3.4438h-1.5361Zm2.82,5.1362a1.27,1.27,0,0,0,.9717-.396,1.497,1.497,0,0,0,.3721-1.0679v-1.08a1.5188,1.5188,0,0,0-.3721-1.0742,1.2612,1.2612,0,0,0-.9717-.4019,1.4808,1.4808,0,0,0-.918.2759.8723.8723,0,0,0-.3662.7319v1.9922a.8749.8749,0,0,0,.3662.7559A1.527,1.527,0,0,0,375.2188,99.6566Z"/><path d="M382.1309,100.9285a3.1324,3.1324,0,0,1-1.2422-.2339,2.5687,2.5687,0,0,1-.9238-.66,2.9445,2.9445,0,0,1-.582-1.0322,4.6492,4.6492,0,0,1-.0059-2.7056,2.94,2.94,0,0,1,.57-1.0264,2.5154,2.5154,0,0,1,.9121-.66,3.0419,3.0419,0,0,1,1.2236-.2344,2.97,2.97,0,0,1,1.2715.2524,2.4561,2.4561,0,0,1,.8887.6836,2.9672,2.9672,0,0,1,.5215,1.002,4.1467,4.1467,0,0,1,.1738,1.2183v.5039h-4.1631v.1548a1.5284,1.5284,0,0,0,.3838,1.09,1.4855,1.4855,0,0,0,1.14.4111,1.7009,1.7009,0,0,0,.9424-.2383,2.6655,2.6655,0,0,0,.6533-.6079l.8281.9268a2.57,2.57,0,0,1-1.05.8486A3.658,3.658,0,0,1,382.1309,100.9285Zm-.0234-5.4a1.2321,1.2321,0,0,0-.9727.4077,1.5357,1.5357,0,0,0-.3594,1.0562v.0962h2.5674V96.98a1.6489,1.6489,0,0,0-.3174-1.05A1.1028,1.1028,0,0,0,382.1074,95.5286Z"/><path d="M386.2939,100.7845V94.52H387.83v1.2964h.0605a1.9973,1.9973,0,0,1,.1855-.4863,1.5026,1.5026,0,0,1,.33-.4141,1.5757,1.5757,0,0,1,.4863-.2876,1.81,1.81,0,0,1,.6533-.1084h.3359v1.4521h-.4795a2.4066,2.4066,0,0,0-1.1758.228.7911.7911,0,0,0-.3965.7441v3.84Z"/><path d="M395.4863,100.7845a1.0758,1.0758,0,0,1-.7979-.2939,1.3492,1.3492,0,0,1-.3662-.7861H394.25a1.4656,1.4656,0,0,1-.6357.918,2.1676,2.1676,0,0,1-1.1885.3062,2.0286,2.0286,0,0,1-1.4756-.5024,1.7848,1.7848,0,0,1-.5156-1.34,1.6232,1.6232,0,0,1,.6953-1.4414,3.5084,3.5084,0,0,1,1.98-.4722h1.0684v-.4561a1.1337,1.1337,0,0,0-.2764-.8159,1.1847,1.1847,0,0,0-.8877-.2881,1.47,1.47,0,0,0-.87.2339,2.2972,2.2972,0,0,0-.5586.5581l-.9121-.8208a2.6519,2.6519,0,0,1,.9248-.8755,3.0379,3.0379,0,0,1,1.5234-.332,2.8674,2.8674,0,0,1,1.9326.5747,2.0747,2.0747,0,0,1,.6592,1.6523v2.9453h.624v1.2358Zm-2.5439-.9722a1.6147,1.6147,0,0,0,.876-.2261.7388.7388,0,0,0,.36-.6675v-.8223h-.9844q-1.2,0-1.2.7627v.2026a.6614.6614,0,0,0,.2461.5659A1.1517,1.1517,0,0,0,392.9424,99.8123Z"/><path d="M397.5859,91.9046h1.5361v3.6479h.0479a1.5751,1.5751,0,0,1,.6367-.8579,1.8951,1.8951,0,0,1,1.0918-.3184,2.1415,2.1415,0,0,1,1.83.8462,3.9937,3.9937,0,0,1,.63,2.418,4.0445,4.0445,0,0,1-.63,2.436,2.1347,2.1347,0,0,1-1.83.8521,1.84,1.84,0,0,1-1.0859-.3242,1.6732,1.6732,0,0,1-.6426-.8638h-.0479v1.0439h-1.5361Zm2.82,7.752a1.27,1.27,0,0,0,.9717-.396,1.497,1.497,0,0,0,.3721-1.0679v-1.08a1.5188,1.5188,0,0,0-.3721-1.0742,1.2612,1.2612,0,0,0-.9717-.4019,1.4808,1.4808,0,0,0-.918.2759.8723.8723,0,0,0-.3662.7319v1.9922a.8749.8749,0,0,0,.3662.7559A1.527,1.527,0,0,0,400.4063,99.6566Z"/><path d="M405.5547,93.6087a.9321.9321,0,0,1-.69-.2163.76.76,0,0,1-.21-.5518V92.6a.7606.7606,0,0,1,.21-.5518,1.1991,1.1991,0,0,1,1.374,0,.7454.7454,0,0,1,.2158.5518v.24a.7446.7446,0,0,1-.2158.5518A.9342.9342,0,0,1,405.5547,93.6087Zm-.7686.9116h1.5361v6.2642h-1.5361Z"/><path d="M409.6338,100.7845a1.53,1.53,0,0,1-1.1641-.396,1.5679,1.5679,0,0,1-.3721-1.1162V91.9046h1.5361v7.644h.8281v1.2358Z"/><path d="M412.3945,93.6087a.9321.9321,0,0,1-.69-.2163.76.76,0,0,1-.21-.5518V92.6a.7606.7606,0,0,1,.21-.5518,1.1991,1.1991,0,0,1,1.374,0,.7454.7454,0,0,1,.2158.5518v.24a.7446.7446,0,0,1-.2158.5518A.9342.9342,0,0,1,412.3945,93.6087Zm-.7686.9116h1.5361v6.2642H411.626Z"/><path d="M416.8936,100.7845a1.6377,1.6377,0,0,1-1.2061-.4131,1.5951,1.5951,0,0,1-.4141-1.1792V95.7567H414.35V94.52h.48a.5732.5732,0,0,0,.4736-.1616.7853.7853,0,0,0,.126-.4863V92.8045h1.38V94.52h1.2842v1.2363H416.81v3.792h1.1885v1.2358Z"/><path d="M423.2656,94.52h1.44l-2.52,7.38a3.2057,3.2057,0,0,1-.2705.582,1.4477,1.4477,0,0,1-.3535.4019,1.3466,1.3466,0,0,1-.4922.228,2.8,2.8,0,0,1-.6719.0718h-.9248v-1.2358h1.1289l.2871-.8745L418.6465,94.52H420.17l1.0918,3.3052.4082,1.5806h.0723l.4316-1.5806Z"/><path d="M428.6416,100.7845v-8.376h3.7676a2.7574,2.7574,0,0,1,1.0381.186,2.1987,2.1987,0,0,1,.7861.5278,2.2761,2.2761,0,0,1,.4922.8223,3.4213,3.4213,0,0,1,0,2.1177,2.28,2.28,0,0,1-.4922.8164,2.205,2.205,0,0,1-.7861.5278,2.7574,2.7574,0,0,1-1.0381.186h-2.1836v3.1919Zm1.584-4.56h2.04a1.0136,1.0136,0,0,0,.72-.2461.9121.9121,0,0,0,.2637-.7017v-.5522a.8937.8937,0,0,0-.2637-.6958,1.0289,1.0289,0,0,0-.72-.24h-2.04Z"/><path d="M436.1172,100.7845V94.52h1.5361v1.2964h.0605a1.9973,1.9973,0,0,1,.1855-.4863,1.5026,1.5026,0,0,1,.33-.4141,1.5757,1.5757,0,0,1,.4863-.2876,1.81,1.81,0,0,1,.6533-.1084h.3359v1.4521h-.4795a2.4066,2.4066,0,0,0-1.1758.228.7911.7911,0,0,0-.3965.7441v3.84Z"/><path d="M443.2578,100.9285a3.0439,3.0439,0,0,1-1.2061-.228,2.4944,2.4944,0,0,1-.9121-.66,3.0118,3.0118,0,0,1-.582-1.0381,4.26,4.26,0,0,1-.2041-1.3618,4.2061,4.2061,0,0,1,.2041-1.356,2.9591,2.9591,0,0,1,.582-1.0259,2.5311,2.5311,0,0,1,.9121-.6543,3.0439,3.0439,0,0,1,1.2061-.228,3.09,3.09,0,0,1,1.2119.228,2.52,2.52,0,0,1,.918.6543,2.9591,2.9591,0,0,1,.582,1.0259,4.2061,4.2061,0,0,1,.2041,1.356,4.26,4.26,0,0,1-.2041,1.3618,3.0118,3.0118,0,0,1-.582,1.0381,2.4833,2.4833,0,0,1-.918.66A3.09,3.09,0,0,1,443.2578,100.9285Zm0-1.2358a1.2506,1.2506,0,0,0,.96-.3721,1.5466,1.5466,0,0,0,.3477-1.0923V97.0643a1.5265,1.5265,0,0,0-.3477-1.08,1.2506,1.2506,0,0,0-.96-.3721,1.2357,1.2357,0,0,0-.9482.3721,1.522,1.522,0,0,0-.3477,1.08v1.1641a1.5421,1.5421,0,0,0,.3477,1.0923A1.2357,1.2357,0,0,0,443.2578,99.6927Z"/><path d="M449.4375,100.7845a1.6377,1.6377,0,0,1-1.2061-.4131,1.5951,1.5951,0,0,1-.4141-1.1792V95.7567h-.9238V94.52h.48a.5732.5732,0,0,0,.4736-.1616.7853.7853,0,0,0,.126-.4863V92.8045h1.38V94.52h1.2842v1.2363h-1.2842v3.792h1.1885v1.2358Z"/><path d="M454.4053,100.9285a3.0439,3.0439,0,0,1-1.2061-.228,2.4944,2.4944,0,0,1-.9121-.66,3.0118,3.0118,0,0,1-.582-1.0381,4.26,4.26,0,0,1-.2041-1.3618,4.2061,4.2061,0,0,1,.2041-1.356,2.9591,2.9591,0,0,1,.582-1.0259,2.5311,2.5311,0,0,1,.9121-.6543,3.0439,3.0439,0,0,1,1.2061-.228,3.09,3.09,0,0,1,1.2119.228,2.52,2.52,0,0,1,.918.6543,2.9591,2.9591,0,0,1,.582,1.0259,4.2061,4.2061,0,0,1,.2041,1.356,4.26,4.26,0,0,1-.2041,1.3618,3.0118,3.0118,0,0,1-.582,1.0381,2.4833,2.4833,0,0,1-.918.66A3.09,3.09,0,0,1,454.4053,100.9285Zm0-1.2358a1.2506,1.2506,0,0,0,.96-.3721,1.5466,1.5466,0,0,0,.3477-1.0923V97.0643a1.5265,1.5265,0,0,0-.3477-1.08,1.2506,1.2506,0,0,0-.96-.3721,1.2357,1.2357,0,0,0-.9482.3721,1.522,1.522,0,0,0-.3477,1.08v1.1641a1.5421,1.5421,0,0,0,.3477,1.0923A1.2357,1.2357,0,0,0,454.4053,99.6927Z"/><path d="M461.1494,100.9285a3.1559,3.1559,0,0,1-1.2363-.228,2.38,2.38,0,0,1-.9062-.66,2.9681,2.9681,0,0,1-.5576-1.0381,4.5,4.5,0,0,1-.1924-1.3618,4.4426,4.4426,0,0,1,.1924-1.356,2.9149,2.9149,0,0,1,.5576-1.0259,2.4135,2.4135,0,0,1,.9063-.6543,3.1559,3.1559,0,0,1,1.2363-.228,2.7235,2.7235,0,0,1,1.5654.42,2.36,2.36,0,0,1,.8945,1.1636l-1.2607.5645a1.3063,1.3063,0,0,0-.4014-.6543,1.1682,1.1682,0,0,0-.7979-.2578,1.1507,1.1507,0,0,0-.9668.4077,1.6906,1.6906,0,0,0-.3174,1.0684v1.14a1.6613,1.6613,0,0,0,.3174,1.062,1.1572,1.1572,0,0,0,.9668.4023,1.1973,1.1973,0,0,0,.8516-.2822,1.9187,1.9187,0,0,0,.4678-.7021l1.1768.564a2.4644,2.4644,0,0,1-.9482,1.2422A2.78,2.78,0,0,1,461.1494,100.9285Z"/><path d="M467.2568,100.9285a3.0439,3.0439,0,0,1-1.2061-.228,2.4944,2.4944,0,0,1-.9121-.66,3.0118,3.0118,0,0,1-.582-1.0381,4.26,4.26,0,0,1-.2041-1.3618,4.2061,4.2061,0,0,1,.2041-1.356,2.9591,2.9591,0,0,1,.582-1.0259,2.5311,2.5311,0,0,1,.9121-.6543,3.0439,3.0439,0,0,1,1.2061-.228,3.09,3.09,0,0,1,1.2119.228,2.52,2.52,0,0,1,.918.6543,2.9591,2.9591,0,0,1,.582,1.0259,4.2061,4.2061,0,0,1,.2041,1.356,4.26,4.26,0,0,1-.2041,1.3618,3.0118,3.0118,0,0,1-.582,1.0381,2.4833,2.4833,0,0,1-.918.66A3.09,3.09,0,0,1,467.2568,100.9285Zm0-1.2358a1.2506,1.2506,0,0,0,.96-.3721,1.5466,1.5466,0,0,0,.3477-1.0923V97.0643a1.5265,1.5265,0,0,0-.3477-1.08,1.2506,1.2506,0,0,0-.96-.3721,1.2357,1.2357,0,0,0-.9482.3721,1.522,1.522,0,0,0-.3477,1.08v1.1641a1.5421,1.5421,0,0,0,.3477,1.0923A1.2357,1.2357,0,0,0,467.2568,99.6927Z"/><path d="M473.0645,100.7845a1.53,1.53,0,0,1-1.1641-.396,1.5679,1.5679,0,0,1-.3721-1.1162V91.9046h1.5361v7.644h.8281v1.2358Z"/><path d="M290.07,153.5081h-4.0737v4.13h-1.8481v-9.7725h1.8481v4.0039H290.07v-4.0039h1.8481v9.7725H290.07Z"/><path d="M298.582,150.3294h1.68l-2.94,8.61a3.6984,3.6984,0,0,1-.3149.6787,1.7,1.7,0,0,1-.4131.47,1.548,1.548,0,0,1-.5737.2656,3.2733,3.2733,0,0,1-.7842.084h-1.0781v-1.4424h1.3164l.3359-1.02-2.6182-7.6465H294.97l1.2744,3.8564.4756,1.8438h.084l.5044-1.8437Z"/><path d="M301.438,150.3294h1.792v1.2041h.0557a1.8424,1.8424,0,0,1,.7422-1.001,2.2143,2.2143,0,0,1,1.2739-.3711,2.4986,2.4986,0,0,1,2.1353.9873,4.6617,4.6617,0,0,1,.7349,2.8213,4.7216,4.7216,0,0,1-.7349,2.8418,2.4912,2.4912,0,0,1-2.1353.9941,2.151,2.151,0,0,1-1.2671-.3779,1.9549,1.9549,0,0,1-.749-1.0078H303.23v4.0176h-1.792Zm3.29,5.9922a1.4859,1.4859,0,0,0,1.1338-.4619,1.7459,1.7459,0,0,0,.4341-1.2461v-1.26a1.773,1.773,0,0,0-.4341-1.2529,1.474,1.474,0,0,0-1.1338-.4687,1.7333,1.7333,0,0,0-1.0713.3213,1.0185,1.0185,0,0,0-.4268.8545v2.3242a1.0207,1.0207,0,0,0,.4268.8818A1.7855,1.7855,0,0,0,304.728,156.3216Z"/><path d="M312.792,157.806a3.6371,3.6371,0,0,1-1.4492-.2734,2.9959,2.9959,0,0,1-1.0781-.77,3.4321,3.4321,0,0,1-.6787-1.2041,5.4284,5.4284,0,0,1-.0073-3.1572,3.4436,3.4436,0,0,1,.665-1.1973,2.943,2.943,0,0,1,1.064-.77,3.5649,3.5649,0,0,1,1.4282-.2734,3.4889,3.4889,0,0,1,1.4839.2939,2.8574,2.8574,0,0,1,1.0361.7988,3.4453,3.4453,0,0,1,.6089,1.1689,4.8451,4.8451,0,0,1,.2031,1.4209v.5879H311.21v.1807a1.7855,1.7855,0,0,0,.4478,1.2715,1.732,1.732,0,0,0,1.33.4795,1.9888,1.9888,0,0,0,1.0991-.2773,3.1383,3.1383,0,0,0,.7627-.709l.9663,1.0811a3.0042,3.0042,0,0,1-1.2251.9893A4.2638,4.2638,0,0,1,312.792,157.806Zm-.0283-6.3a1.4346,1.4346,0,0,0-1.1338.4756,1.7916,1.7916,0,0,0-.42,1.2324v.1113h2.9956V153.2a1.9164,1.9164,0,0,0-.3706-1.2246A1.2857,1.2857,0,0,0,312.7637,151.5062Z"/><path d="M317.65,157.638v-7.3086h1.792v1.5127h.07a2.3264,2.3264,0,0,1,.2173-.5674,1.75,1.75,0,0,1,.3848-.4834,1.8513,1.8513,0,0,1,.5669-.3359,2.1262,2.1262,0,0,1,.7632-.126h.3921v1.6943h-.56a2.8165,2.8165,0,0,0-1.3721.2656.9245.9245,0,0,0-.4619.8682v4.48Z"/><path d="M326.5674,157.638v-9.7725h4.396a3.2193,3.2193,0,0,1,1.2109.2168,2.5784,2.5784,0,0,1,.917.6162,2.655,2.655,0,0,1,.5742.959,3.998,3.998,0,0,1,0,2.4717,2.6552,2.6552,0,0,1-.5742.9512,2.5532,2.5532,0,0,1-.917.6162,3.2193,3.2193,0,0,1-1.2109.2168h-2.5479v3.7246Zm1.8481-5.32h2.38a1.1827,1.1827,0,0,0,.84-.2871,1.0626,1.0626,0,0,0,.3081-.8184v-.6445a1.04,1.04,0,0,0-.3081-.8115,1.202,1.202,0,0,0-.84-.28h-2.38Z"/><path d="M335.29,157.638v-7.3086h1.792v1.5127h.07a2.3264,2.3264,0,0,1,.2173-.5674,1.75,1.75,0,0,1,.3848-.4834,1.8513,1.8513,0,0,1,.5669-.3359,2.1262,2.1262,0,0,1,.7632-.126h.3921v1.6943h-.56a2.8165,2.8165,0,0,0-1.3721.2656.9245.9245,0,0,0-.4619.8682v4.48Z"/><path d="M343.62,157.806a3.5449,3.5449,0,0,1-1.4072-.2666,2.9119,2.9119,0,0,1-1.064-.77,3.5082,3.5082,0,0,1-.6787-1.2109,4.95,4.95,0,0,1-.2383-1.5889,4.8864,4.8864,0,0,1,.2383-1.582,3.4443,3.4443,0,0,1,.6787-1.1973,2.9518,2.9518,0,0,1,1.064-.7627,3.5449,3.5449,0,0,1,1.4072-.2666,3.5961,3.5961,0,0,1,1.4141.2666,2.9356,2.9356,0,0,1,1.0708.7627,3.4608,3.4608,0,0,1,.6792,1.1973,4.9,4.9,0,0,1,.2378,1.582,4.9642,4.9642,0,0,1-.2378,1.5889,3.525,3.525,0,0,1-.6792,1.2109,2.8962,2.8962,0,0,1-1.0708.77A3.5961,3.5961,0,0,1,343.62,157.806Zm0-1.4424a1.46,1.46,0,0,0,1.12-.4336,1.8009,1.8009,0,0,0,.4058-1.2744v-1.3574a1.7822,1.7822,0,0,0-.4058-1.2607,1.46,1.46,0,0,0-1.12-.4336,1.4413,1.4413,0,0,0-1.106.4336,1.78,1.78,0,0,0-.4062,1.2607v1.3574a1.7987,1.7987,0,0,0,.4063,1.2744A1.4413,1.4413,0,0,0,343.62,156.3636Z"/><path d="M350.8291,157.638a1.9119,1.9119,0,0,1-1.4067-.4814,1.8587,1.8587,0,0,1-.4829-1.376v-4.0088h-1.0781v-1.4424h.56a.6677.6677,0,0,0,.5527-.1885.9149.9149,0,0,0,.147-.5674v-1.2461h1.61v2.002h1.4976v1.4424h-1.4976v4.4238h1.3857v1.4424Z"/><path d="M356.6812,157.806a3.6371,3.6371,0,0,1-1.4492-.2734,2.9959,2.9959,0,0,1-1.0781-.77,3.4321,3.4321,0,0,1-.6787-1.2041,5.4284,5.4284,0,0,1-.0073-3.1572,3.4436,3.4436,0,0,1,.665-1.1973,2.943,2.943,0,0,1,1.064-.77,3.5649,3.5649,0,0,1,1.4282-.2734,3.4889,3.4889,0,0,1,1.4839.2939,2.8574,2.8574,0,0,1,1.0361.7988,3.4453,3.4453,0,0,1,.6089,1.1689,4.8451,4.8451,0,0,1,.2031,1.4209v.5879h-4.8579v.1807a1.7855,1.7855,0,0,0,.4478,1.2715,1.732,1.732,0,0,0,1.33.4795,1.9888,1.9888,0,0,0,1.0991-.2773,3.1383,3.1383,0,0,0,.7627-.709l.9663,1.0811a3.0042,3.0042,0,0,1-1.2251.9893A4.2638,4.2638,0,0,1,356.6812,157.806Zm-.0283-6.3a1.4346,1.4346,0,0,0-1.1338.4756,1.7916,1.7916,0,0,0-.42,1.2324v.1113h2.9956V153.2a1.9164,1.9164,0,0,0-.3706-1.2246A1.2857,1.2857,0,0,0,356.6528,151.5062Z"/><path d="M364.4229,157.806a3.67,3.67,0,0,1-1.4419-.2666,2.7749,2.7749,0,0,1-1.0571-.77,3.4585,3.4585,0,0,1-.6509-1.2109,5.2482,5.2482,0,0,1-.2241-1.5889,5.18,5.18,0,0,1,.2241-1.582,3.3942,3.3942,0,0,1,.6509-1.1973,2.8109,2.8109,0,0,1,1.0571-.7627,3.67,3.67,0,0,1,1.4419-.2666,3.1863,3.1863,0,0,1,1.8271.49,2.7526,2.7526,0,0,1,1.043,1.3584l-1.47.6572a1.5268,1.5268,0,0,0-.4687-.7627,1.3651,1.3651,0,0,0-.9312-.3008,1.3422,1.3422,0,0,0-1.127.4756,1.97,1.97,0,0,0-.3711,1.2461v1.33a1.9382,1.9382,0,0,0,.3711,1.2393,1.3493,1.3493,0,0,0,1.127.4688,1.3951,1.3951,0,0,0,.9941-.3291,2.258,2.258,0,0,0,.5459-.8184l1.3721.6572a2.8683,2.8683,0,0,1-1.106,1.4492A3.2388,3.2388,0,0,1,364.4229,157.806Z"/><path d="M371.0029,157.638a1.9119,1.9119,0,0,1-1.4067-.4814,1.8587,1.8587,0,0,1-.4829-1.376v-4.0088h-1.0781v-1.4424h.56a.6677.6677,0,0,0,.5527-.1885.9149.9149,0,0,0,.147-.5674v-1.2461h1.61v2.002h1.4976v1.4424h-1.4976v4.4238h1.3857v1.4424Z"/><path d="M381.167,157.806a4.6,4.6,0,0,1-1.7432-.3154,3.4828,3.4828,0,0,1-1.33-.9443,4.2929,4.2929,0,0,1-.8477-1.5615,7.2177,7.2177,0,0,1-.293-2.1631,7.4949,7.4949,0,0,1,.293-2.19,4.4736,4.4736,0,0,1,.8477-1.61,3.601,3.601,0,0,1,1.33-.9873,4.3526,4.3526,0,0,1,1.7432-.3359,3.9486,3.9486,0,0,1,2.1836.5605,3.8357,3.8357,0,0,1,1.3857,1.6934l-1.582.84a2.2185,2.2185,0,0,0-.6855-1.0566,1.9674,1.9674,0,0,0-1.3018-.3984,2.0716,2.0716,0,0,0-1.6455.6992,2.89,2.89,0,0,0-.6084,1.96v1.54a2.8282,2.8282,0,0,0,.6084,1.9531,2.0979,2.0979,0,0,0,1.6455.6787,2.0069,2.0069,0,0,0,1.3506-.4473,2.58,2.58,0,0,0,.7627-1.1064l1.498.8818a4.2992,4.2992,0,0,1-1.4141,1.7012A3.7744,3.7744,0,0,1,381.167,157.806Z"/><path d="M386.249,157.638v-7.3086h1.792v1.5127h.07a2.267,2.267,0,0,1,.2168-.5674,1.7407,1.7407,0,0,1,.3848-.4834,1.8423,1.8423,0,0,1,.5674-.3359,2.1235,2.1235,0,0,1,.7627-.126h.3916v1.6943h-.56a2.8165,2.8165,0,0,0-1.3721.2656.9254.9254,0,0,0-.4619.8682v4.48Z"/><path d="M396.3418,150.3294h1.6807l-2.94,8.61a3.7643,3.7643,0,0,1-.3145.6787,1.7158,1.7158,0,0,1-.4131.47,1.5577,1.5577,0,0,1-.5742.2656,3.27,3.27,0,0,1-.7842.084H391.918v-1.4424h1.3164l.3359-1.02-2.6182-7.6465H392.73l1.2734,3.8564.4766,1.8438h.084l.5039-1.8437Z"/><path d="M399.1982,150.3294h1.792v1.2041h.0557a1.84,1.84,0,0,1,.7422-1.001,2.2159,2.2159,0,0,1,1.2744-.3711,2.4982,2.4982,0,0,1,2.1348.9873,4.6584,4.6584,0,0,1,.7344,2.8213,4.7183,4.7183,0,0,1-.7344,2.8418,2.4909,2.4909,0,0,1-2.1348.9941,2.1525,2.1525,0,0,1-1.2676-.3779,1.9576,1.9576,0,0,1-.749-1.0078H400.99v4.0176h-1.792Zm3.29,5.9922a1.4844,1.4844,0,0,0,1.1338-.4619,1.7456,1.7456,0,0,0,.4336-1.2461v-1.26a1.7727,1.7727,0,0,0-.4336-1.2529,1.4725,1.4725,0,0,0-1.1338-.4687,1.7343,1.7343,0,0,0-1.0713.3213,1.0173,1.0173,0,0,0-.4268.8545v2.3242a1.02,1.02,0,0,0,.4268.8818A1.7866,1.7866,0,0,0,402.4883,156.3216Z"/><path d="M409.7969,157.638a1.9131,1.9131,0,0,1-1.4072-.4814,1.8589,1.8589,0,0,1-.4834-1.376v-4.0088h-1.0781v-1.4424h.5605a.6677.6677,0,0,0,.5527-.1885.918.918,0,0,0,.1475-.5674v-1.2461h1.6094v2.002h1.498v1.4424h-1.498v4.4238h1.3867v1.4424Z"/><path d="M415.5918,157.806a3.54,3.54,0,0,1-1.4062-.2666,2.9055,2.9055,0,0,1-1.0645-.77,3.5082,3.5082,0,0,1-.6787-1.2109,4.95,4.95,0,0,1-.2383-1.5889,4.8864,4.8864,0,0,1,.2383-1.582,3.4443,3.4443,0,0,1,.6787-1.1973,2.9453,2.9453,0,0,1,1.0645-.7627,3.54,3.54,0,0,1,1.4063-.2666,3.5927,3.5927,0,0,1,1.4141.2666,2.9374,2.9374,0,0,1,1.0713.7627,3.4443,3.4443,0,0,1,.6787,1.1973,4.8864,4.8864,0,0,1,.2383,1.582,4.95,4.95,0,0,1-.2383,1.5889,3.5082,3.5082,0,0,1-.6787,1.2109,2.8979,2.8979,0,0,1-1.0713.77A3.5927,3.5927,0,0,1,415.5918,157.806Zm0-1.4424a1.4588,1.4588,0,0,0,1.12-.4336,1.801,1.801,0,0,0,.4063-1.2744v-1.3574a1.7823,1.7823,0,0,0-.4062-1.2607,1.4588,1.4588,0,0,0-1.12-.4336,1.44,1.44,0,0,0-1.1055.4336,1.7823,1.7823,0,0,0-.4062,1.2607v1.3574a1.801,1.801,0,0,0,.4063,1.2744A1.44,1.44,0,0,0,415.5918,156.3636Z"/><path d="M427.0293,157.806a4.6273,4.6273,0,0,1-2.1348-.4492,4.9513,4.9513,0,0,1-1.5049-1.1777l1.2461-1.2061a3.578,3.578,0,0,0,1.127.89,3.0953,3.0953,0,0,0,1.3789.3047,1.9433,1.9433,0,0,0,1.2881-.3682,1.2348,1.2348,0,0,0,.4336-.9932,1.1275,1.1275,0,0,0-.2793-.792,1.888,1.888,0,0,0-1.05-.4443l-.9248-.1387q-2.9253-.4629-2.9258-2.8457a2.8222,2.8222,0,0,1,.2451-1.1914,2.5457,2.5457,0,0,1,.707-.9111,3.2776,3.2776,0,0,1,1.1133-.582,4.97,4.97,0,0,1,1.4766-.2031,4.752,4.752,0,0,1,1.9326.3652,3.7882,3.7882,0,0,1,1.4131,1.08l-1.26,1.1924a2.8812,2.8812,0,0,0-.8818-.7217,2.7308,2.7308,0,0,0-1.3018-.2773,1.9866,1.9866,0,0,0-1.1973.2979,1.1383,1.1383,0,0,0-.0771,1.6582,2.2644,2.2644,0,0,0,1.0361.3887l.91.168a4.18,4.18,0,0,1,2.1914.9463,2.5122,2.5122,0,0,1,.7061,1.8994,3.1771,3.1771,0,0,1-.2441,1.2686,2.7433,2.7433,0,0,1-.7148.98,3.2576,3.2576,0,0,1-1.1475.6377A4.9784,4.9784,0,0,1,427.0293,157.806Z"/><path d="M435.3877,157.806a3.6355,3.6355,0,0,1-1.4492-.2734,2.9959,2.9959,0,0,1-1.0781-.77,3.4321,3.4321,0,0,1-.6787-1.2041,5.423,5.423,0,0,1-.0068-3.1572,3.4125,3.4125,0,0,1,.665-1.1973,2.9412,2.9412,0,0,1,1.0635-.77,3.5658,3.5658,0,0,1,1.4277-.2734,3.4912,3.4912,0,0,1,1.4844.2939,2.8533,2.8533,0,0,1,1.0361.7988,3.4549,3.4549,0,0,1,.6094,1.1689,4.8614,4.8614,0,0,1,.2021,1.4209v.5879h-4.8574v.1807a1.7857,1.7857,0,0,0,.4482,1.2715,1.7282,1.7282,0,0,0,1.3291.4795,1.9894,1.9894,0,0,0,1.1-.2773,3.1472,3.1472,0,0,0,.7627-.709l.9658,1.0811a3.0059,3.0059,0,0,1-1.2246.9893A4.2638,4.2638,0,0,1,435.3877,157.806Zm-.0283-6.3a1.4359,1.4359,0,0,0-1.1338.4756,1.7916,1.7916,0,0,0-.42,1.2324v.1113h2.9961V153.2a1.9166,1.9166,0,0,0-.3711-1.2246A1.2864,1.2864,0,0,0,435.3594,151.5062Z"/><path d="M440.2461,157.638v-7.3086h1.792v1.5127h.07a2.267,2.267,0,0,1,.2168-.5674,1.7407,1.7407,0,0,1,.3848-.4834,1.8423,1.8423,0,0,1,.5674-.3359,2.1235,2.1235,0,0,1,.7627-.126h.3916v1.6943h-.56a2.8165,2.8165,0,0,0-1.3721.2656.9254.9254,0,0,0-.4619.8682v4.48Z"/><path d="M447.4268,157.638l-2.4355-7.3086h1.7637l1.0225,3.15.7139,2.6035h.0977l.7148-2.6035.9932-3.15h1.708l-2.4492,7.3086Z"/><path d="M454.0908,149.2659a1.0869,1.0869,0,0,1-.8047-.252.8873.8873,0,0,1-.2451-.6445V148.09a.8873.8873,0,0,1,.2451-.6445,1.4016,1.4016,0,0,1,1.6035,0,.8728.8728,0,0,1,.252.6445v.2793a.8728.8728,0,0,1-.252.6445A1.0946,1.0946,0,0,1,454.0908,149.2659Zm-.8955,1.0635h1.792v7.3086h-1.792Z"/><path d="M459.9434,157.806a3.6778,3.6778,0,0,1-1.4424-.2666,2.7769,2.7769,0,0,1-1.0566-.77,3.4593,3.4593,0,0,1-.6514-1.2109,5.2486,5.2486,0,0,1-.2236-1.5889,5.1805,5.1805,0,0,1,.2236-1.582,3.395,3.395,0,0,1,.6514-1.1973,2.813,2.813,0,0,1,1.0566-.7627,3.6778,3.6778,0,0,1,1.4424-.2666,3.1852,3.1852,0,0,1,1.8271.49,2.7526,2.7526,0,0,1,1.043,1.3584l-1.47.6572a1.5217,1.5217,0,0,0-.47-.7627,1.3638,1.3638,0,0,0-.9307-.3008,1.3422,1.3422,0,0,0-1.127.4756,1.9728,1.9728,0,0,0-.3711,1.2461v1.33a1.9411,1.9411,0,0,0,.3711,1.2393,1.3493,1.3493,0,0,0,1.127.4688,1.3943,1.3943,0,0,0,.9941-.3291,2.2518,2.2518,0,0,0,.5459-.8184l1.3721.6572a2.8691,2.8691,0,0,1-1.1064,1.4492A3.236,3.236,0,0,1,459.9434,157.806Z"/><path d="M467.125,157.806a3.6355,3.6355,0,0,1-1.4492-.2734,2.9959,2.9959,0,0,1-1.0781-.77,3.4321,3.4321,0,0,1-.6787-1.2041,5.423,5.423,0,0,1-.0068-3.1572,3.4125,3.4125,0,0,1,.665-1.1973,2.9412,2.9412,0,0,1,1.0635-.77,3.5658,3.5658,0,0,1,1.4277-.2734,3.4912,3.4912,0,0,1,1.4844.2939,2.8533,2.8533,0,0,1,1.0361.7988,3.4549,3.4549,0,0,1,.6094,1.1689,4.8614,4.8614,0,0,1,.2021,1.4209v.5879H465.543v.1807a1.7857,1.7857,0,0,0,.4482,1.2715,1.7282,1.7282,0,0,0,1.3291.4795,1.9894,1.9894,0,0,0,1.1-.2773,3.1472,3.1472,0,0,0,.7627-.709l.9658,1.0811a3.0059,3.0059,0,0,1-1.2246.9893A4.2638,4.2638,0,0,1,467.125,157.806Zm-.0283-6.3a1.4359,1.4359,0,0,0-1.1338.4756,1.7916,1.7916,0,0,0-.42,1.2324v.1113h2.9961V153.2a1.9166,1.9166,0,0,0-.3711-1.2246A1.2864,1.2864,0,0,0,467.0967,151.5062Z"/><path d="M474.377,157.806a3.9162,3.9162,0,0,1-1.7637-.3574,4.0451,4.0451,0,0,1-1.26-.9863l1.0918-1.0645a3.3178,3.3178,0,0,0,.8887.7275,2.2674,2.2674,0,0,0,1.1133.2666,1.5244,1.5244,0,0,0,.9307-.2246.7365.7365,0,0,0,.2871-.6152.6643.6643,0,0,0-.2031-.5117,1.2878,1.2878,0,0,0-.6924-.2588l-.7285-.0977a3.4639,3.4639,0,0,1-1.8125-.6787,1.8913,1.8913,0,0,1-.623-1.5332,2.2836,2.2836,0,0,1,.1953-.959,2.0349,2.0349,0,0,1,.5605-.7285,2.5689,2.5689,0,0,1,.875-.4619,3.7824,3.7824,0,0,1,1.1406-.1611,5.2487,5.2487,0,0,1,.9453.0771,3.4176,3.4176,0,0,1,.749.2246,2.915,2.915,0,0,1,.6162.3633,5.921,5.921,0,0,1,.5459.4834l-1.05,1.05a2.7824,2.7824,0,0,0-.7705-.56,2.1586,2.1586,0,0,0-.9795-.2246,1.3543,1.3543,0,0,0-.8477.21.67.67,0,0,0-.2588.5459.695.695,0,0,0,.2168.5537,1.4987,1.4987,0,0,0,.7354.2725l.7422.0986q2.3657.3354,2.3662,2.1553a2.1759,2.1759,0,0,1-.2178.9736,2.2185,2.2185,0,0,1-.6084.7559,2.8983,2.8983,0,0,1-.9453.49A4.1164,4.1164,0,0,1,474.377,157.806Z"/></g></svg>