<svg xmlns="http://www.w3.org/2000/svg" width="1056" height="792" viewBox="0 0 1056 792">
    <defs>
        <style>.cls-1{fill:#e5f6ff;}.cls-1,.cls-2,.cls-4,.cls-5,.cls-6{stroke:#000;}.cls-1,.cls-4,.cls-5,.cls-6{stroke-linejoin:round;}.cls-2{fill:#f6f2ff;}.cls-14,.cls-16,.cls-2{stroke-miterlimit:10;}.cls-3{fill:#f2f4f8;}.cls-14,.cls-16,.cls-4,.cls-5,.cls-6{fill:none;}.cls-5{stroke-dasharray:2.0052 2.0052;}.cls-6{stroke-dasharray:1.9733 1.9733;}.cls-7{font-size:16px;}.cls-10,.cls-12,.cls-13,.cls-7{font-family:IBMPlexSans-SemiBold, IBM Plex Sans;font-weight:600;}.cls-12,.cls-8{font-size:14px;}.cls-8{font-family:IBMPlexSans, IBM Plex Sans;}.cls-11,.cls-9{font-family:AdobeSongStd-Light-GBpc-EUC-H, Adobe Song Std;}.cls-9{letter-spacing:0em;}.cls-13{font-size:18px;}.cls-14{stroke:#4d5358;}.cls-14,.cls-16{stroke-width:2px;}.cls-15{fill:#4d5358;}.cls-16{stroke:#50565b;}.cls-17{fill:#50565b;}</style>
    </defs>
    <g id="Square">
        <rect class="cls-1" x="36.5" y="95.5" width="112" height="70" />
        <rect class="cls-1" x="413" y="404" width="185" height="70" />
        <rect class="cls-1" x="207.5" y="95.5" width="185" height="70" />
        <rect class="cls-2" x="255.9982" y="241.0706" width="88.0036" height="87.3589" transform="translate(-113.4807 295.5334) rotate(-45)" />
        <rect class="cls-1" x="655" y="404" width="185" height="70" />
        <rect class="cls-1" x="897" y="531" width="112" height="70" />
        <rect class="cls-1" x="655" y="531" width="185" height="70" />
        <rect class="cls-1" x="244" y="404" width="112" height="70" />
        <rect class="cls-1" x="897" y="658" width="112" height="70" />
        <rect class="cls-3" x="36.5" y="578.5" width="385" height="150" />
        <polyline class="cls-4" points="421.5 727.5 421.5 728.5 420.5 728.5" />
        <line class="cls-5" x1="418.4948" y1="728.5" x2="38.5026" y2="728.5" />
        <polyline class="cls-4" points="37.5 728.5 36.5 728.5 36.5 727.5" />
        <line class="cls-6" x1="36.5" y1="725.5267" x2="36.5" y2="580.4867" />
        <polyline class="cls-4" points="36.5 579.5 36.5 578.5 37.5 578.5" />
        <line class="cls-5" x1="39.5052" y1="578.5" x2="419.4974" y2="578.5" />
        <polyline class="cls-4" points="420.5 578.5 421.5 578.5 421.5 579.5" />
        <line class="cls-6" x1="421.5" y1="581.4733" x2="421.5" y2="726.5133" />
        <circle cx="53.8333" cy="630.5" r="2.5" />
        <circle cx="53.8333" cy="668.5" r="2.5" />
        <circle cx="53.8333" cy="709.5" r="2.5" />
    </g>
    <g id="Text">
        <text class="cls-7" transform="translate(422.4492 273.5498)">Yes</text>
        <text class="cls-7" transform="translate(264.4844 374.9922)">No</text>
        <text class="cls-8" transform="translate(55.3262 126.5454) scale(0.9919 1)">
            1
            <tspan class="cls-9" x="8.3997" y="0">. </tspan>
            <tspan x="14.6294" y="0">Create an</tspan>
            <tspan x="-2.9261" y="16.7998">import token</tspan>
        </text>
        <text class="cls-8" transform="translate(427.7051 434.8281)">
            4. Set the encryption key
            <tspan x="-6.783" y="16.7998">as an environment variable</tspan>
        </text>
        <text class="cls-8" transform="translate(214.9948 117.928)">
            2. Retrieve
            <tspan class="cls-10" x="71.2728" y="0">HPCS_PUBKEY</tspan>
            <tspan x="47.9984" y="16.7998">and </tspan>
            <tspan class="cls-10" x="74.85" y="16.7998">NONCE</tspan>
            <tspan x="16.3168" y="33.6001">from the import token</tspan>
        </text>
        <text class="cls-8" transform="translate(265.4724 280.192)">
            Import key
            <tspan x="4.0668" y="16.7998">available</tspan>
            <tspan class="cls-11" x="60.3041" y="16.7998">?</tspan>
        </text>
        <text class="cls-8" transform="translate(690.3023 434.8281)">
            5. Encrypt
            <tspan class="cls-10" x="67.1282" y="0">NONCE</tspan>
            <tspan x="-16.0727" y="16.7998">with the encryption key</tspan>
        </text>
        <text class="cls-8" transform="translate(911.48 561.8281)">
            7. Import the
            <tspan x="-2.8981" y="16.7998">encrypted key</tspan>
        </text>
        <text class="cls-8" transform="translate(668.5952 561.6811)">
            6. Encrypt the encryption
            <tspan x="1.6369" y="16.7998">key with</tspan>
            <tspan class="cls-10" x="54.1082" y="16.7998" xml:space="preserve"> HPCS_PUBKEY</tspan>
        </text>
        <text class="cls-8" transform="translate(262.6213 434.8281) scale(0.9858 1)">
            3. Create an
            <tspan x="-8.3231" y="16.7998">encryption key</tspan>
        </text>
        <text class="cls-8" transform="translate(918.2505 697.228) scale(0.9858 1)">8. Clean up</text>
        <text class="cls-12" transform="translate(185.8719 603.6528)">Prerequisites</text>
        <text class="cls-8" transform="translate(62.4903 673.832)">
            IBM Cloud CLI is available with the Key Protect plugin
            <tspan x="0" y="16.7998">on a supported platform</tspan>
        </text>
        <text class="cls-8" transform="translate(63.1487 714.2319)">JSON query (jq) is available</text>
        <text class="cls-8" transform="translate(63.1905 634.7783)">
            A Hyper Protect Crypto Services instance is created
            <tspan x="0" y="16.9072">and initialized with a master key</tspan>
        </text>
        <text class="cls-13" transform="translate(25.999 58.7061)">Creating and importing encryption keys</text>
    </g>
    <g id="Line">
        <line class="cls-14" x1="157.8308" y1="130.5" x2="192.8702" y2="130.5" />
        <polygon class="cls-15" points="191.703 134.489 198.611 130.5 191.703 126.511 191.703 134.489" />
        <line class="cls-14" x1="300" y1="353.9327" x2="300" y2="389.0503" />
        <polygon class="cls-15" points="296.011 387.883 300 394.791 303.989 387.883 296.011 387.883" />
        <line class="cls-14" x1="606.6025" y1="439" x2="641.6419" y2="439" />
        <polygon class="cls-15" points="640.475 442.989 647.383 439 640.475 435.011 640.475 442.989" />
        <line class="cls-14" x1="747.5" y1="485.553" x2="747.5" y2="520.6706" />
        <polygon class="cls-15" points="743.511 519.503 747.5 526.412 751.489 519.503 743.511 519.503" />
        <polyline class="cls-14" points="369 284.078 506 284.078 505.834 389.641" />
        <polygon class="cls-15" points="501.846 388.468 505.825 395.382 509.825 388.48 501.846 388.468" />
        <line class="cls-14" x1="953" y1="611.3555" x2="953" y2="646.4731" />
        <polygon class="cls-15" points="949.011 645.306 953 652.214 956.989 645.306 949.011 645.306" />
        <line class="cls-14" x1="848.8785" y1="566" x2="883.9179" y2="566" />
        <polygon class="cls-15" points="882.751 569.989 889.659 566 882.751 562.011 882.751 569.989" />
        <line class="cls-16" x1="300" y1="172.7736" x2="300" y2="207.8912" />
        <polygon class="cls-17" points="296.011 206.724 300 213.632 303.989 206.724 296.011 206.724" />
        <line class="cls-14" x1="364.1389" y1="439" x2="399.1783" y2="439" />
        <polygon class="cls-15" points="398.011 442.989 404.919 439 398.011 435.011 398.011 442.989" />
    </g>
</svg>