<svg xmlns="http://www.w3.org/2000/svg" width="1056" height="615" viewBox="0 0 1056 615">
    <defs>
        <style>.cls-1,.cls-18,.cls-27{fill:#0072c3;}.cls-2,.cls-25{fill:#fff;}.cls-13,.cls-26,.cls-3{fill:#007d79;}.cls-10,.cls-17,.cls-4{fill:#f2f4f8;}.cls-15,.cls-22,.cls-23,.cls-5{fill:#50565b;}.cls-11,.cls-12,.cls-14,.cls-16,.cls-19,.cls-6{fill:none;}.cls-12,.cls-16,.cls-17,.cls-6{stroke:#50565b;}.cls-12,.cls-14,.cls-16,.cls-19,.cls-6{stroke-linecap:round;stroke-linejoin:round;}.cls-6{stroke-dasharray:2 2;}.cls-7{fill:#e3f6ff;}.cls-10,.cls-11,.cls-7,.cls-8,.cls-9{stroke:#000;}.cls-10,.cls-11,.cls-13,.cls-15,.cls-17,.cls-18,.cls-7,.cls-8,.cls-9{stroke-miterlimit:10;}.cls-8{fill:#dbfbfb;}.cls-9{fill:#f7f1ff;}.cls-12{stroke-dasharray:2;}.cls-13,.cls-15,.cls-18{stroke:#fff;}.cls-14{stroke:#007d79;}.cls-19{stroke:#0072c3;}.cls-20{font-size:16px;}.cls-20,.cls-21,.cls-22,.cls-23,.cls-25,.cls-26,.cls-27{font-family:IBMPlexSans, IBM Plex Sans;}.cls-21,.cls-23,.cls-26,.cls-27{font-size:14px;}.cls-22,.cls-25{font-size:12px;}.cls-24{font-size:18px;font-family:IBMPlexSans-SemiBold, IBM Plex Sans;font-weight:600;}</style>
    </defs>
    <g id="Layer_1" data-name="Layer 1">
        <circle class="cls-1" cx="78.4557" cy="109.9046" r="8.1776" />
        <path class="cls-1" d="M92.6258,131.8033l-.0264,4.0887-28.621-.1844.0264-4.0887A12.3023,12.3023,0,0,1,76.35,119.4318l4.0887.0263A12.3026,12.3026,0,0,1,92.6258,131.8033Z" />
        <path class="cls-1" d="M70.2222,118.582a8.705,8.705,0,1,1,.0576,0Z" />
        <path class="cls-2" d="M70.277,101.727l.0538,0a8.1776,8.1776,0,0,1-.0516,16.355l-.0538,0a8.1776,8.1776,0,0,1,.0516-16.355m0-1h0a9.1776,9.1776,0,0,0-.0579,18.355l.06,0a9.1776,9.1776,0,0,0,.058-18.355l-.06,0Z" />
        <path class="cls-1" d="M55.2974,136.2041l.03-4.5884a12.7979,12.7979,0,0,1,12.7657-12.6846l4.1718.0269a12.7807,12.7807,0,0,1,12.6836,12.8486l-.03,4.5889Z" />
        <path class="cls-2" d="M68.0927,119.4315c.0267,0,.0529,0,.08,0l4.0887.0263a12.3026,12.3026,0,0,1,12.1872,12.3452l-.0264,4.0887-28.621-.1844.0264-4.0887a12.3035,12.3035,0,0,1,12.2655-12.1874m0-1h0a13.2994,13.2994,0,0,0-13.2655,13.181l-.0263,4.0887-.0065,1,1,.0064,28.621.1843,1,.0065.0064-1,.0263-4.0887a13.2813,13.2813,0,0,0-13.1806-13.3516l-4.0887-.0263-.0861,0Z" />
        <circle class="cls-3" cx="78.4557" cy="227.1168" r="8.1776" />
        <path class="cls-3" d="M92.6258,249.0154l-.0264,4.0888-28.621-.1844.0264-4.0887A12.3023,12.3023,0,0,1,76.35,236.644l4.0887.0263A12.3026,12.3026,0,0,1,92.6258,249.0154Z" />
        <path class="cls-3" d="M70.2222,235.7944a8.7055,8.7055,0,1,1,.0566,0Z" />
        <path class="cls-2" d="M70.277,218.9392l.0538,0a8.1776,8.1776,0,0,1-.0516,16.355l-.0538,0a8.1776,8.1776,0,0,1,.0516-16.355m0-1h0a9.1776,9.1776,0,0,0-.0579,18.355l.06,0a9.1776,9.1776,0,0,0,.058-18.355l-.06,0Z" />
        <path class="cls-3" d="M55.2974,253.4165l.03-4.5889a12.7978,12.7978,0,0,1,12.7657-12.6841l4.1718.0269A12.7807,12.7807,0,0,1,84.9482,249.019l-.03,4.5884Z" />
        <path class="cls-2" d="M68.0927,236.6437l.08,0,4.0887.0263a12.3026,12.3026,0,0,1,12.1872,12.3451l-.0264,4.0888-28.621-.1844.0264-4.0887a12.3035,12.3035,0,0,1,12.2655-12.1874m0-1h0a13.2994,13.2994,0,0,0-13.2655,13.181l-.0263,4.0887-.0065,1,1,.0065,28.621.1843,1,.0065.0064-1,.0263-4.0887A13.2813,13.2813,0,0,0,72.2675,235.67l-4.0887-.0263-.0861,0Z" />
        <path class="cls-4" d="M979.2988,520.6474a8.7049,8.7049,0,1,1,.0557,0Z" />
        <path class="cls-5" d="M979.353,503.7921l.0537,0a8.1776,8.1776,0,0,1-.0515,16.3551l-.0538,0a8.1776,8.1776,0,0,1,.0516-16.355m0-1h0a9.1776,9.1776,0,0,0-.0578,18.355l.06,0a9.1776,9.1776,0,0,0,.0579-18.355l-.06,0Z" />
        <path class="cls-4" d="M964.374,538.27l.0293-4.5889a12.7961,12.7961,0,0,1,12.7647-12.6835l4.1718.0263a12.7811,12.7811,0,0,1,12.6846,12.8477l-.0293,4.5888Z" />
        <path class="cls-5" d="M977.1686,521.4966l.08,0,4.0888.0264a12.3023,12.3023,0,0,1,12.187,12.3451l-.0263,4.0887-28.6209-.1843.0263-4.0887a12.3033,12.3033,0,0,1,12.2655-12.1874m0-1h0a13.2993,13.2993,0,0,0-13.2654,13.1809l-.0263,4.0887-.0064,1,1,.0065,28.621.1843,1,.0065.0064-1,.0263-4.0887a13.2813,13.2813,0,0,0-13.1806-13.3516l-4.0888-.0263-.086,0Z" />
        <path class="cls-4" d="M971.1211,520.6474a8.7049,8.7049,0,1,1,.0557,0Z" />
        <path class="cls-5" d="M971.1754,503.7921l.0537,0a8.1776,8.1776,0,0,1-.0515,16.3551l-.0538,0a8.1776,8.1776,0,0,1,.0516-16.355m0-1h0a9.1776,9.1776,0,0,0-.0578,18.355l.06,0a9.1776,9.1776,0,0,0,.0579-18.355l-.06,0Z" />
        <path class="cls-4" d="M956.1963,538.27l.0293-4.5889A12.796,12.796,0,0,1,968.99,520.9971l4.1719.0263a12.7811,12.7811,0,0,1,12.6846,12.8477l-.0293,4.5888Z" />
        <path class="cls-5" d="M968.991,521.4966l.08,0,4.0888.0264a12.3023,12.3023,0,0,1,12.1871,12.3451l-.0264,4.0887-28.6209-.1843.0263-4.0887a12.3032,12.3032,0,0,1,12.2655-12.1874m0-1h0a13.2992,13.2992,0,0,0-13.2654,13.1809l-.0263,4.0887-.0065,1,1,.0065,28.621.1843,1,.0065.0064-1,.0264-4.0887a13.3024,13.3024,0,0,0-13.1807-13.3516l-4.0888-.0263-.086,0Z" />
        <circle class="cls-3" cx="977.9911" cy="227.1168" r="8.1776" />
        <path class="cls-3" d="M992.1611,249.0154l-.0263,4.0888-28.621-.1844.0264-4.0887a12.3023,12.3023,0,0,1,12.3451-12.1871l4.0887.0263A12.3024,12.3024,0,0,1,992.1611,249.0154Z" />
        <path class="cls-3" d="M969.7578,235.7944a8.7055,8.7055,0,1,1,.0567,0Z" />
        <path class="cls-2" d="M969.8124,218.9392l.0538,0a8.1776,8.1776,0,0,1-.0516,16.355l-.0537,0a8.1776,8.1776,0,0,1,.0515-16.355m0-1h0a9.1776,9.1776,0,0,0-.0578,18.355l.06,0a9.1776,9.1776,0,0,0,.058-18.355l-.06,0Z" />
        <path class="cls-3" d="M954.833,253.4165l.0293-4.5889a12.7991,12.7991,0,0,1,12.7656-12.6841l4.1719.0269a12.802,12.802,0,0,1,12.6836,12.8486l-.0293,4.5884Z" />
        <path class="cls-2" d="M967.6281,236.6437l.08,0,4.0887.0263a12.3026,12.3026,0,0,1,12.1872,12.3451l-.0264,4.0888-28.621-.1844.0263-4.0887a12.3035,12.3035,0,0,1,12.2656-12.1874m0-1h0a13.3,13.3,0,0,0-13.2656,13.181l-.0263,4.0887-.0064,1,1,.0065,28.6209.1843,1,.0065.0065-1,.0264-4.0887A13.2816,13.2816,0,0,0,971.8029,235.67l-4.0888-.0263-.086,0Z" />
        <circle class="cls-5" cx="979.354" cy="385.217" r="8.1776" />
        <path class="cls-5" d="M993.5241,407.1156l-.0264,4.0887-28.6209-.1843.0263-4.0887a12.3024,12.3024,0,0,1,12.3451-12.1872l4.0887.0264A12.3024,12.3024,0,0,1,993.5241,407.1156Z" />
        <path class="cls-5" d="M971.1211,393.8945a8.7045,8.7045,0,1,1,.0566,0Z" />
        <path class="cls-2" d="M971.1754,377.0394c.0181,0,.0355,0,.0537,0a8.1776,8.1776,0,0,1-.0515,16.3551l-.0538,0a8.1776,8.1776,0,0,1,.0516-16.355m0-1h0a9.1776,9.1776,0,0,0-.0578,18.355l.06,0a9.1776,9.1776,0,0,0,.0579-18.3551l-.06,0Z" />
        <path class="cls-5" d="M956.1963,411.5166l.0293-4.5889A12.7969,12.7969,0,0,1,968.99,394.2436l4.1719.0269a12.7819,12.7819,0,0,1,12.6846,12.8486l-.0293,4.5884Z" />
        <path class="cls-2" d="M968.991,394.7439l.08,0,4.0888.0264a12.3023,12.3023,0,0,1,12.1871,12.3451l-.0264,4.0887-28.6209-.1843.0263-4.0887a12.3032,12.3032,0,0,1,12.2655-12.1874m0-1h0a13.2992,13.2992,0,0,0-13.2654,13.1809l-.0263,4.0887-.0065,1,1,.0064,28.621.1844,1,.0064.0064-1,.0264-4.0887a13.3024,13.3024,0,0,0-13.1807-13.3516l-4.0888-.0263-.086,0Z" />
        <line class="cls-6" x1="397.812" y1="138.2527" x2="126.8053" y2="138.2527" />
        <polygon class="cls-5" points="396.937 135.261 402.118 138.253 396.937 141.244 396.937 135.261" />
        <rect class="cls-7" x="406.888" y="108.9496" width="245.3278" height="54.5173" rx="4" />
        <rect class="cls-8" x="250.8322" y="223.1751" width="245.3278" height="54.5173" rx="4" />
        <line class="cls-6" x1="239.7118" y1="250.0131" x2="126.8053" y2="250.0131" />
        <polygon class="cls-5" points="238.836 247.021 244.018 250.013 238.836 253.005 238.836 247.021" />
        <line class="cls-6" x1="239.7118" y1="429.2388" x2="126.8053" y2="429.2388" />
        <polygon class="cls-5" points="238.836 426.247 244.018 429.239 238.836 432.231 238.836 426.247" />
        <line class="cls-6" x1="239.7118" y1="545.088" x2="126.8053" y2="545.088" />
        <polygon class="cls-5" points="238.836 542.096 244.018 545.088 238.836 548.08 238.836 542.096" />
        <line class="cls-6" x1="812.5773" y1="546.4509" x2="925.4838" y2="546.4509" />
        <polygon class="cls-5" points="813.453 549.443 808.272 546.451 813.453 543.459 813.453 549.443" />
        <rect class="cls-8" x="557.492" y="223.1751" width="245.3278" height="54.5173" rx="4" />
        <rect class="cls-9" x="250.8322" y="306.5748" width="245.3278" height="54.5173" rx="4" />
        <rect class="cls-9" x="557.492" y="306.5748" width="245.3278" height="54.5173" rx="4" />
        <polygon class="cls-10" points="496.16 578.48 250.832 579.843 250.832 391.758 496.16 390.395 496.16 578.48" />
        <line class="cls-11" x1="373.4961" y1="194.8144" x2="680.1559" y2="194.8144" />
        <line class="cls-11" x1="373.4961" y1="194.1329" x2="373.4961" y2="220.7101" />
        <line class="cls-11" x1="680.1559" y1="194.1329" x2="680.1559" y2="220.7101" />
        <line class="cls-11" x1="373.4961" y1="279.9977" x2="373.4961" y2="302.486" />
        <polygon class="cls-10" points="802.82 579.843 557.492 578.48 557.492 390.395 802.82 391.758 802.82 579.843" />
        <line class="cls-11" x1="680.1559" y1="279.9977" x2="680.1559" y2="303.849" />
        <line class="cls-11" x1="373.4961" y1="364.4995" x2="373.4961" y2="386.9878" />
        <line class="cls-11" x1="680.1559" y1="364.4995" x2="680.1559" y2="388.3508" />
        <line class="cls-6" x1="239.7118" y1="334.515" x2="208.5813" y2="334.515" />
        <polygon class="cls-5" points="238.836 331.523 244.018 334.515 238.836 337.507 238.836 331.523" />
        <line class="cls-12" x1="208.5813" y1="334.515" x2="208.5813" y2="250.0131" />
        <line class="cls-6" x1="925.4838" y1="250.0131" x2="812.5773" y2="250.0131" />
        <polygon class="cls-5" points="813.453 247.021 808.272 250.013 813.453 253.005 813.453 247.021" />
        <line class="cls-6" x1="925.4838" y1="430.6017" x2="812.5773" y2="430.6017" />
        <polygon class="cls-5" points="813.453 427.61 808.272 430.602 813.453 433.593 813.453 427.61" />
        <line class="cls-6" x1="843.7078" y1="334.515" x2="813.9402" y2="334.515" />
        <polygon class="cls-5" points="814.816 331.523 809.634 334.515 814.816 337.507 814.816 331.523" />
        <line class="cls-12" x1="843.7078" y1="334.515" x2="843.7078" y2="250.0131" />
        <rect class="cls-13" x="98.1838" y="195.4958" width="77.6871" height="23.1699" rx="7" />
        <line class="cls-14" x1="98.8652" y1="208.4437" x2="88.6432" y2="218.6657" />
        <rect class="cls-15" x="98.1838" y="353.596" width="77.6871" height="23.1699" rx="7" />
        <line class="cls-16" x1="99.5467" y1="365.8624" x2="88.6432" y2="376.7659" />
        <rect class="cls-17" x="98.1838" y="478.9858" width="77.6871" height="23.1699" rx="7" />
        <line class="cls-16" x1="98.1838" y1="492.6151" x2="88.6432" y2="502.1556" />
        <rect class="cls-13" x="873.6923" y="195.4958" width="77.6871" height="23.1699" rx="7" />
        <line class="cls-14" x1="950.698" y1="208.4437" x2="960.92" y2="218.6657" />
        <rect class="cls-15" x="873.6923" y="353.596" width="77.6871" height="23.1699" rx="7" />
        <line class="cls-16" x1="950.0165" y1="365.8624" x2="960.92" y2="376.7659" />
        <rect class="cls-17" x="873.6923" y="478.9858" width="77.6871" height="23.1699" rx="7" />
        <line class="cls-16" x1="951.3795" y1="492.6151" x2="960.92" y2="502.1556" />
        <rect class="cls-18" x="98.1838" y="78.2837" width="77.6871" height="23.1699" rx="7" />
        <line class="cls-19" x1="98.8652" y1="91.2315" x2="88.6432" y2="101.4535" />
        <line class="cls-11" x1="529.8604" y1="166.4401" x2="529.8604" y2="193.0173" />
        <path class="cls-4" d="M77.0244,521.3066a8.705,8.705,0,1,1,.0576,0Z" />
        <path class="cls-5" d="M77.0794,504.4515l.0538,0a8.1776,8.1776,0,0,1-.0515,16.3551l-.0538,0a8.1776,8.1776,0,0,1,.0515-16.355m.0039-1h-.0044a9.1775,9.1775,0,0,0-.0574,18.3549l.06,0a9.1776,9.1776,0,0,0,.058-18.355l-.0032,0-.0532,0Z" />
        <path class="cls-4" d="M62.1006,538.9287l.0288-4.5879A12.7976,12.7976,0,0,1,74.894,521.6562l4.1729.0264A12.802,12.802,0,0,1,91.7505,534.53l-.03,4.5888Z" />
        <path class="cls-5" d="M74.8952,522.156l.08,0,4.0887.0263a12.3024,12.3024,0,0,1,12.1871,12.3452l-.0263,4.0887-28.621-.1844.0263-4.0887A12.3033,12.3033,0,0,1,74.8952,522.156m0-1h0A13.2992,13.2992,0,0,0,61.63,534.3369l-.0264,4.0887-.0064,1,1,.0064,28.6209.1844,1,.0064.0065-1,.0263-4.0887A13.2814,13.2814,0,0,0,79.07,521.1826l-4.0887-.0264-.086,0Z" />
        <path class="cls-4" d="M68.8467,521.3066a8.7055,8.7055,0,1,1,.0576,0Z" />
        <path class="cls-5" d="M68.9018,504.4515l.0539,0a8.1776,8.1776,0,0,1-.0516,16.3551l-.0538,0a8.1776,8.1776,0,0,1,.0515-16.355m.0039-1h-.0044a9.1775,9.1775,0,0,0-.0574,18.3549l.06,0a9.1776,9.1776,0,0,0,.058-18.355l-.0032,0-.0532,0Z" />
        <path class="cls-4" d="M53.9224,538.9287l.03-4.5879a12.7977,12.7977,0,0,1,12.7647-12.6846l4.1724.0264A12.8029,12.8029,0,0,1,83.5732,534.53l-.03,4.5888Z" />
        <path class="cls-5" d="M66.7176,522.156l.08,0,4.0887.0263A12.3024,12.3024,0,0,1,83.073,534.5277l-.0263,4.0887-28.621-.1844.0263-4.0887A12.3033,12.3033,0,0,1,66.7176,522.156m0-1h0a13.2992,13.2992,0,0,0-13.2654,13.1809l-.0264,4.0887-.0064,1,1,.0064,28.6209.1844,1,.0064.0065-1,.0263-4.0887a13.2814,13.2814,0,0,0-13.1807-13.3515l-4.0887-.0264-.086,0Z" />
        <circle class="cls-5" cx="78.9654" cy="385.6366" r="8.1776" />
        <path class="cls-5" d="M93.1355,407.5353l-.0264,4.0887-28.621-.1844.0264-4.0887A12.3023,12.3023,0,0,1,76.86,395.1638l4.0887.0263A12.3026,12.3026,0,0,1,93.1355,407.5353Z" />
        <path class="cls-5" d="M70.7319,394.3139a8.705,8.705,0,1,1,.0577,0Z" />
        <path class="cls-2" d="M70.7867,377.459l.0538,0a8.1776,8.1776,0,0,1-.0516,16.355l-.0537,0a8.1776,8.1776,0,0,1,.0515-16.355m0-1h0a9.1776,9.1776,0,0,0-.0579,18.355l.06,0a9.1776,9.1776,0,0,0,.058-18.355l-.06,0Z" />
        <path class="cls-5" d="M55.8071,411.936l.03-4.5884a12.7978,12.7978,0,0,1,12.7656-12.6845l4.1714.0268A12.7812,12.7812,0,0,1,85.458,407.5386l-.03,4.5888Z" />
        <path class="cls-2" d="M68.6024,395.1635l.08,0,4.0887.0263a12.3026,12.3026,0,0,1,12.1872,12.3451l-.0264,4.0888-28.621-.1844.0264-4.0887a12.3034,12.3034,0,0,1,12.2655-12.1874m0-1h0a13.2994,13.2994,0,0,0-13.2654,13.181l-.0263,4.0887-.0065,1,1,.0065,28.621.1843,1,.0065.0064-1,.0263-4.0887A13.3024,13.3024,0,0,0,72.7772,394.19l-4.0887-.0263-.0861,0Z" />
    </g>
    <g id="Text">
        <text class="cls-20" transform="translate(460.042 140.9785)">Enterprise account</text>
        <text class="cls-21" transform="translate(137.709 131.4385)">Administrator</text>
        <text class="cls-21" transform="translate(137.709 243.1987)">Administrator</text>
        <text class="cls-21" transform="translate(129.5313 423.1055)">Editor/Manager</text>
        <text class="cls-21" transform="translate(129.5313 537.5918)">Viewer/Reader</text>
        <text class="cls-21" transform="translate(820.5381 537.5918)">Viewer/Reader</text>
        <text class="cls-20" transform="translate(610.6465 256.4648)">Production account</text>
        <text class="cls-20" transform="translate(267.1875 338.6035)">Development resource group</text>
        <text class="cls-20" transform="translate(584.751 338.6035)">Production resource group</text>
        <text class="cls-20" transform="translate(265.8552 482.8974)">
            Hyper Protect Crypto Services
            <tspan x="27.8711" y="19.2002">development instance</tspan>
        </text>
        <text class="cls-21" transform="translate(828.7158 243.1987)">Administrator</text>
        <text class="cls-21" transform="translate(820.5381 423.1055)">Editor/Manager</text>
        <text class="cls-22" transform="translate(113.4873 495.4883)">API keys</text>
        <text class="cls-22" transform="translate(889.9961 494.4883)">API keys</text>
        <text class="cls-23" transform="matrix(1, 0.0064, -0.0064, 1, 954.006, 560.7306)">Others</text>
        <text class="cls-23" transform="matrix(1, 0.0064, -0.0064, 1, 49.0178, 560.7306)">Others</text>
        <text class="cls-23" transform="translate(43.2427 430.7842)">
            Developer
            <tspan x="-15.624" y="16.7998">team members</tspan>
        </text>
        <text class="cls-24" transform="translate(16.9779 30.0318)">An example of the enterprise hierarchy and user access management</text>
        <text class="cls-20" transform="translate(293.7202 255.1025)">Development account</text>
        <text class="cls-25" transform="translate(113.9873 210.9985)">API keys</text>
        <text class="cls-25" transform="translate(114.4873 369.0986)">API keys</text>
        <text class="cls-25" transform="translate(888.9961 210.9985)">API keys</text>
        <text class="cls-25" transform="translate(888.9961 369.0986)">API keys</text>
        <text class="cls-25" transform="translate(113.9873 93.7861)">API keys</text>
        <text class="cls-20" transform="translate(572.8355 484.1104)">
            Hyper Protect Crypto Services
            <tspan x="36.1592" y="19.2002">production instance</tspan>
        </text>
        <text class="cls-23" transform="translate(942.9747 431.3518)">
            Production
            <tspan x="-13.356" y="16.7998">team members</tspan>
        </text>
        <text class="cls-26" transform="translate(940.9746 271.3516)">
            Production
            <tspan x="-13.356" y="16.7998">team members</tspan>
        </text>
        <text class="cls-26" transform="translate(43.2428 272.3518)">
            Developer
            <tspan x="-15.624" y="16.7998">team members</tspan>
        </text>
        <text class="cls-27" transform="translate(41.8088 153.3516)">
            Enterprise
            <tspan x="1.9038" y="16.7998">Managers</tspan>
        </text>
    </g>
</svg>