<svg xmlns="http://www.w3.org/2000/svg" width="1056" height="620" viewBox="0 0 1056 620">
    <defs>
        <style>.cls-1,.cls-12{fill:#fff;}.cls-10,.cls-11,.cls-13,.cls-14,.cls-2,.cls-21,.cls-23,.cls-24,.cls-29,.cls-3,.cls-30,.cls-4,.cls-6,.cls-7,.cls-8,.cls-9{fill:none;}.cls-2,.cls-3,.cls-4{stroke:#9fa5ad;}.cls-10,.cls-11,.cls-12,.cls-13,.cls-2,.cls-21,.cls-3,.cls-4,.cls-6,.cls-7,.cls-8,.cls-9{stroke-miterlimit:10;}.cls-3{stroke-dasharray:2.0009 2.0009;}.cls-4{stroke-dasharray:1.9912 1.9912;}.cls-5{fill:#f4f4f4;}.cls-10,.cls-11,.cls-12,.cls-13,.cls-14,.cls-15,.cls-16,.cls-17,.cls-18,.cls-19,.cls-20,.cls-23,.cls-25,.cls-26,.cls-27,.cls-28,.cls-6,.cls-7,.cls-8,.cls-9{stroke:#000;}.cls-7{stroke-dasharray:1.9973 1.9973;}.cls-8{stroke-dasharray:2.0241 2.0241;}.cls-9{stroke-dasharray:1.9937 1.9937;}.cls-10{stroke-dasharray:1.9918 1.9918;}.cls-11{stroke-dasharray:1.9923 1.9923;}.cls-12,.cls-13,.cls-15,.cls-16,.cls-17,.cls-18,.cls-19,.cls-20,.cls-23,.cls-24,.cls-26,.cls-29,.cls-30{stroke-linecap:round;}.cls-14,.cls-15,.cls-16,.cls-17,.cls-18,.cls-19,.cls-20,.cls-23,.cls-24,.cls-25,.cls-26,.cls-27,.cls-28,.cls-29,.cls-30{stroke-linejoin:round;}.cls-15,.cls-28,.cls-37{fill:#b3e6ff;}.cls-16{fill:#30b0ff;}.cls-17{fill:#6ccaff;}.cls-18{fill:#bb8eff;}.cls-19,.cls-25,.cls-39{fill:#e6d6ff;}.cls-20{fill:#d0b0ff;}.cls-21,.cls-24{stroke:#50565b;stroke-width:2px;}.cls-22{fill:#50565b;}.cls-26,.cls-27,.cls-38{fill:#87eded;}.cls-29,.cls-30{stroke:#6e32c9;}.cls-29{stroke-dasharray:2;}.cls-30{stroke-dasharray:2 2;}.cls-31{fill:#6e32c9;}.cls-32{fill:#f7f1ff;}.cls-33,.cls-34{font-size:16px;}.cls-33,.cls-35{font-family:IBMPlexSans-SemiBold, IBM Plex Sans;font-weight:600;}.cls-34,.cls-36{font-family:IBMPlexSans, IBM Plex Sans;}.cls-35{font-size:18px;}.cls-36{font-size:12px;}</style>
    </defs>
    <g id="Layer_1" data-name="Layer 1">
        <rect class="cls-1" x="69.5702" y="74.4969" width="916.4298" height="223.0193" />
        <polyline class="cls-2" points="986 296.516 986 297.516 985 297.516" />
        <line class="cls-3" x1="982.9991" y1="297.5161" x2="71.5706" y2="297.5161" />
        <polyline class="cls-2" points="70.57 297.516 69.57 297.516 69.57 296.516" />
        <line class="cls-4" x1="69.5702" y1="294.525" x2="69.5702" y2="76.4924" />
        <polyline class="cls-2" points="69.57 75.497 69.57 74.497 70.57 74.497" />
        <line class="cls-3" x1="72.5711" y1="74.4969" x2="983.9995" y2="74.4969" />
        <polyline class="cls-2" points="985 74.497 986 74.497 986 75.497" />
        <line class="cls-4" x1="986" y1="77.488" x2="986" y2="295.5206" />
        <rect class="cls-1" x="69.5702" y="320.5871" width="916.4298" height="223.0193" />
        <polyline class="cls-2" points="986 542.606 986 543.606 985 543.606" />
        <line class="cls-3" x1="982.9991" y1="543.6064" x2="71.5706" y2="543.6064" />
        <polyline class="cls-2" points="70.57 543.606 69.57 543.606 69.57 542.606" />
        <line class="cls-4" x1="69.5702" y1="540.6153" x2="69.5702" y2="322.5827" />
        <polyline class="cls-2" points="69.57 321.587 69.57 320.587 70.57 320.587" />
        <line class="cls-3" x1="72.5711" y1="320.5871" x2="983.9995" y2="320.5871" />
        <polyline class="cls-2" points="985 320.587 986 320.587 986 321.587" />
        <line class="cls-4" x1="986" y1="323.5783" x2="986" y2="541.6108" />
        <rect class="cls-5" x="95.8458" y="116.1528" width="359.5221" height="153.8064" />
        <polyline class="cls-6" points="455.368 268.959 455.368 269.959 454.368 269.959" />
        <line class="cls-7" x1="452.3706" y1="269.9592" x2="97.8445" y2="269.9592" />
        <polyline class="cls-6" points="96.846 269.959 95.846 269.959 95.846 268.959" />
        <line class="cls-8" x1="95.8458" y1="266.9351" x2="95.8458" y2="118.1648" />
        <polyline class="cls-6" points="95.846 117.153 95.846 116.153 96.846 116.153" />
        <line class="cls-7" x1="98.8432" y1="116.1528" x2="453.3692" y2="116.1528" />
        <polyline class="cls-6" points="454.368 116.153 455.368 116.153 455.368 117.153" />
        <line class="cls-8" x1="455.3679" y1="119.1769" x2="455.3679" y2="267.9471" />
        <rect class="cls-5" x="96.4867" y="364.1656" width="358.8812" height="153.8064" />
        <polyline class="cls-6" points="455.368 516.972 455.368 517.972 454.368 517.972" />
        <line class="cls-9" x1="452.3741" y1="517.972" x2="98.4836" y2="517.972" />
        <polyline class="cls-6" points="97.487 517.972 96.487 517.972 96.487 516.972" />
        <line class="cls-8" x1="96.4867" y1="514.9479" x2="96.4867" y2="366.1776" />
        <polyline class="cls-6" points="96.487 365.166 96.487 364.166 97.487 364.166" />
        <line class="cls-9" x1="99.4805" y1="364.1656" x2="453.371" y2="364.1656" />
        <polyline class="cls-6" points="454.368 364.166 455.368 364.166 455.368 365.166" />
        <line class="cls-8" x1="455.3679" y1="367.1897" x2="455.3679" y2="515.96" />
        <rect class="cls-5" x="639.9356" y="115.5119" width="147.3978" height="402.4601" />
        <polyline class="cls-6" points="787.333 516.972 787.333 517.972 786.333 517.972" />
        <line class="cls-10" x1="784.3416" y1="517.972" x2="641.9315" y2="517.972" />
        <polyline class="cls-6" points="640.936 517.972 639.936 517.972 639.936 516.972" />
        <line class="cls-11" x1="639.9356" y1="514.9797" x2="639.9356" y2="117.5081" />
        <polyline class="cls-6" points="639.936 116.512 639.936 115.512 640.936 115.512" />
        <line class="cls-10" x1="642.9273" y1="115.5119" x2="785.3375" y2="115.5119" />
        <polyline class="cls-6" points="786.333 115.512 787.333 115.512 787.333 116.512" />
        <line class="cls-11" x1="787.3334" y1="118.5042" x2="787.3334" y2="515.9758" />
        <g id="Doc">
            <polygon class="cls-12" points="157.932 142.874 157.932 190.939 196.384 190.939 196.384 152.487 186.771 142.874 157.932 142.874" />
            <polyline class="cls-13" points="186.771 142.874 186.771 152.487 196.384 152.487" />
            <line class="cls-13" x1="165.6224" y1="172.6744" x2="182.4449" y2="172.6744" />
            <line class="cls-13" x1="165.6224" y1="158.0949" x2="188.6933" y2="158.0949" />
            <line class="cls-13" x1="165.6224" y1="165.3045" x2="188.6933" y2="165.3045" />
        </g>
        <g id="unlock">
            <g id="unlock-2" data-name="unlock">
                <path class="cls-14" d="M200.9465,176.52a5.1269,5.1269,0,1,0-10.2538,0v6.4988" />
                <path class="cls-15" d="M206.0733,191.9A10.2538,10.2538,0,1,1,195.82,181.6465,10.2535,10.2535,0,0,1,206.0733,191.9Zm-10.2537-.5127v3.5889" />
                <circle cx="195.8196" cy="191.3875" r="1.5381" />
            </g>
        </g>
        <g id="gear">
            <path id="gear-2" data-name="gear" class="cls-16" d="M559.083,188.0183l-1.0049,2.4028,2.3464,2.3464L556.85,196.341l-2.3395-2.34-2.41.9886v3.3188h-5.0542V195l-2.4028-1.0049-2.3464,2.3464-3.5735-3.5734,2.34-2.34-.9886-2.41h-3.318v-5.0543h3.3086l1.0048-2.4028-2.3464-2.3464,3.5735-3.5734,2.34,2.34,2.41-.9887v-3.3188h5.0542v3.3086l2.4028,1.0048,2.3464-2.3464,3.5743,3.5735-2.34,2.3395.9887,2.41h3.3179v5.0542Zm-9.5087-8.508a5.9814,5.9814,0,1,0,5.9814,5.9813A5.9813,5.9813,0,0,0,549.5743,179.51Z" />
        </g>
        <g id="gear-3" data-name="gear">
            <path id="gear-4" data-name="gear" class="cls-15" d="M544.9841,164.9474l-1.0049,2.4028,2.3464,2.3464-3.5743,3.5734-2.34-2.34-2.41.9887v3.3188h-5.0543v-3.3086l-2.4028-1.0048-2.3464,2.3464-3.5734-3.5735,2.34-2.3395-.9887-2.41h-3.3179V159.894h3.3085l1.0049-2.4028-2.3464-2.3464,3.5734-3.5735,2.34,2.34,2.41-.9886v-3.3188h5.0543v3.3085l2.4028,1.0049,2.3464-2.3464,3.5743,3.5734-2.34,2.34.9887,2.41h3.3179v5.0543Zm-9.5087-8.5081a5.9814,5.9814,0,1,0,5.9814,5.9814A5.9814,5.9814,0,0,0,535.4754,156.4393Z" />
        </g>
        <g id="gear-5" data-name="gear">
            <path id="gear-6" data-name="gear" class="cls-17" d="M573.1819,164.9474,572.177,167.35l2.3464,2.3464-3.5743,3.5734-2.34-2.34-2.41.9887v3.3188h-5.0542v-3.3086l-2.4028-1.0048-2.3464,2.3464-3.5734-3.5735,2.34-2.3395-.9886-2.41h-3.318V159.894h3.3086l1.0049-2.4028-2.3464-2.3464,3.5734-3.5735,2.34,2.34,2.41-.9886v-3.3188H566.2v3.3085l2.4028,1.0049,2.3464-2.3464,3.5743,3.5734-2.34,2.34.9886,2.41H576.49v5.0543Zm-9.5087-8.5081a5.9814,5.9814,0,1,0,5.9814,5.9814A5.9813,5.9813,0,0,0,563.6732,156.4393Z" />
        </g>
        <g id="gear-7" data-name="gear">
            <path id="gear-8" data-name="gear" class="cls-18" d="M559.083,443.8548l-1.0049,2.4028,2.3464,2.3464-3.5743,3.5735-2.3395-2.34-2.41.9886v3.3188h-5.0542v-3.3085l-2.4028-1.0049-2.3464,2.3464-3.5735-3.5734,2.34-2.34-.9886-2.41h-3.318v-5.0543h3.3086l1.0048-2.4028-2.3464-2.3464,3.5735-3.5734,2.34,2.34,2.41-.9887v-3.3188h5.0542V431.82l2.4028,1.0048,2.3464-2.3464,3.5743,3.5735-2.34,2.3395.9887,2.41h3.3179v5.0542Zm-9.5087-8.508a5.9814,5.9814,0,1,0,5.9814,5.9813A5.9813,5.9813,0,0,0,549.5743,435.3468Z" />
        </g>
        <g id="gear-9" data-name="gear">
            <path id="gear-10" data-name="gear" class="cls-19" d="M544.9841,420.7839l-1.0049,2.4028,2.3464,2.3464-3.5743,3.5734-2.34-2.34-2.41.9887v3.3188h-5.0543v-3.3086l-2.4028-1.0049-2.3464,2.3464-3.5734-3.5734,2.34-2.34-.9887-2.41h-3.3179v-5.0542h3.3085l1.0049-2.4028-2.3464-2.3464,3.5734-3.5735,2.34,2.34,2.41-.9886V405.44h5.0543v3.3085l2.4028,1.0049,2.3464-2.3464,3.5743,3.5734-2.34,2.34.9887,2.41h3.3179v5.0543Zm-9.5087-8.5081a5.9814,5.9814,0,1,0,5.9814,5.9814A5.9814,5.9814,0,0,0,535.4754,412.2758Z" />
        </g>
        <g id="gear-11" data-name="gear">
            <path id="gear-12" data-name="gear" class="cls-20" d="M573.1819,420.7839l-1.0049,2.4028,2.3464,2.3464-3.5743,3.5734-2.34-2.34-2.41.9887v3.3188h-5.0542v-3.3086l-2.4028-1.0049-2.3464,2.3464-3.5734-3.5734,2.34-2.34-.9886-2.41h-3.318v-5.0542h3.3086l1.0049-2.4028-2.3464-2.3464,3.5734-3.5735,2.34,2.34,2.41-.9886V405.44H566.2v3.3085l2.4028,1.0049,2.3464-2.3464,3.5743,3.5734-2.34,2.34.9886,2.41H576.49v5.0543Zm-9.5087-8.5081a5.9814,5.9814,0,1,0,5.9814,5.9814A5.9813,5.9813,0,0,0,563.6732,412.2758Z" />
        </g>
        <line class="cls-21" x1="441.9098" y1="185.3656" x2="505.3817" y2="185.3656" />
        <polygon class="cls-22" points="504.215 189.355 511.123 185.366 504.215 181.377 504.215 189.355" />
        <line class="cls-21" x1="444.4733" y1="441.7097" x2="507.9452" y2="441.7097" />
        <polygon class="cls-22" points="506.778 445.699 513.686 441.71 506.778 437.721 506.778 445.699" />
        <line class="cls-21" x1="595.7162" y1="185.3656" x2="659.1881" y2="185.3656" />
        <polygon class="cls-22" points="658.021 189.355 664.929 185.366 658.021 181.377 658.021 189.355" />
        <line class="cls-21" x1="595.7162" y1="441.7097" x2="659.1881" y2="441.7097" />
        <polygon class="cls-22" points="658.021 445.699 664.929 441.71 658.021 437.721 658.021 445.699" />
        <g id="add">
            <line class="cls-23" x1="261.8282" y1="171.9076" x2="274.6454" y2="171.9076" />
            <line class="cls-23" x1="268.2368" y1="165.499" x2="268.2368" y2="178.3162" />
        </g>
        <g id="add-2" data-name="add">
            <line class="cls-23" x1="709.1485" y1="237.2753" x2="721.9657" y2="237.2753" />
            <line class="cls-23" x1="715.5571" y1="230.8667" x2="715.5571" y2="243.6839" />
        </g>
        <g id="add-3" data-name="add">
            <line class="cls-23" x1="709.1485" y1="376.9828" x2="721.9657" y2="376.9828" />
            <line class="cls-23" x1="715.5571" y1="370.5742" x2="715.5571" y2="383.3914" />
        </g>
        <g id="add-4" data-name="add">
            <line class="cls-23" x1="205.4325" y1="415.4344" x2="218.2497" y2="415.4344" />
            <line class="cls-23" x1="211.8411" y1="409.0258" x2="211.8411" y2="421.843" />
        </g>
        <g id="add-5" data-name="add">
            <line class="cls-23" x1="332.3228" y1="415.4344" x2="345.14" y2="415.4344" />
            <line class="cls-23" x1="338.7314" y1="409.0258" x2="338.7314" y2="421.843" />
        </g>
        <line class="cls-24" x1="787.9743" y1="309.6925" x2="894.357" y2="309.6925" />
        <line class="cls-24" x1="894.357" y1="309.6925" x2="894.357" y2="275.7002" />
        <polygon class="cls-22" points="898.346 276.867 894.357 269.959 890.368 276.867 898.346 276.867" />
    </g>
    <g id="key">
        <g id="key-2" data-name="key">
            <path class="cls-19" d="M145.2435,419.9669a14.9707,14.9707,0,1,1-.7111-10.171" />
            <circle cx="125.994" cy="415.8449" r="3.2043" />
            <polyline class="cls-25" points="144.532 409.796 174.427 409.796 180.022 415.391 175.2 420.214 156.404 420.214 153.034 416.875 149.943 419.967 145.243 419.967" />
        </g>
        <g id="key-3" data-name="key">
            <path class="cls-19" d="M719.3286,430.9464a14.9706,14.9706,0,1,1-7.6947-6.6891" />
            <circle cx="702.8024" cy="441.6432" r="3.2043" />
            <polyline class="cls-25" points="711.634 424.257 732.772 403.119 740.686 403.119 740.686 409.939 727.395 423.23 722.651 423.252 722.651 427.624 719.329 430.946" />
        </g>
        <g id="key-4" data-name="key">
            <path class="cls-26" d="M272.7746,419.9669a14.9706,14.9706,0,1,1-.711-10.171" />
            <circle cx="253.5251" cy="415.8449" r="3.2043" />
            <polyline class="cls-27" points="272.064 409.796 301.958 409.796 307.554 415.391 302.731 420.214 283.935 420.214 280.565 416.875 277.474 419.967 272.775 419.967" />
        </g>
        <g id="key-5" data-name="key">
            <path class="cls-26" d="M718.2962,295.2007a14.9707,14.9707,0,1,1-7.6947-6.6891" />
            <circle cx="701.7701" cy="305.8975" r="3.2043" />
            <polyline class="cls-27" points="710.601 288.512 731.74 267.373 739.653 267.373 739.653 274.193 726.362 287.484 721.619 287.506 721.619 291.878 718.296 295.201" />
        </g>
        <g id="key-6" data-name="key">
            <path class="cls-26" d="M714.86,427.0977a14.97,14.97,0,1,1-7.7189-6.6613" />
            <circle cx="698.3728" cy="437.8542" r="3.2043" />
            <polyline class="cls-27" points="707.141 420.436 728.203 399.221 736.116 399.193 736.141 406.013 722.898 419.352 718.155 419.391 718.171 423.763 714.86 427.098" />
        </g>
        <g id="key-7" data-name="key">
            <path class="cls-15" d="M400.3058,419.9669a14.9707,14.9707,0,1,1-.7111-10.171" />
            <circle cx="381.0563" cy="415.8449" r="3.2043" />
            <polyline class="cls-28" points="399.595 409.796 429.489 409.796 435.085 415.391 430.262 420.214 411.466 420.214 408.096 416.875 405.005 419.967 400.306 419.967" />
        </g>
        <g id="key-8" data-name="key">
            <path class="cls-15" d="M713.3115,291.1223a14.9707,14.9707,0,1,1-7.6947-6.6891" />
            <circle cx="696.7854" cy="301.8191" r="3.2043" />
            <polyline class="cls-28" points="705.617 284.433 726.755 263.295 734.669 263.295 734.669 270.115 721.378 283.406 716.634 283.428 716.634 287.8 713.311 291.122" />
        </g>
        <g id="key-9" data-name="key">
            <path class="cls-15" d="M892.7523,180.8944a14.9705,14.9705,0,1,1-7.6947-6.6892" />
            <circle cx="876.2262" cy="191.5912" r="3.2043" />
            <polyline class="cls-28" points="885.058 174.205 906.196 153.067 914.109 153.067 914.109 159.887 900.819 173.178 896.075 173.2 896.075 177.572 892.752 180.894" />
        </g>
        <g id="key-10" data-name="key">
            <path class="cls-15" d="M714.5932,161.6686a14.9705,14.9705,0,1,1-7.6947-6.6892" />
            <circle cx="698.0671" cy="172.3654" r="3.2043" />
            <polyline class="cls-28" points="706.898 154.979 728.037 133.841 735.95 133.841 735.95 140.661 722.659 153.952 717.916 153.974 717.916 158.346 714.593 161.669" />
        </g>
        <g id="key-11" data-name="key">
            <path class="cls-15" d="M361.8542,176.44a14.9707,14.9707,0,1,1-.7111-10.1709" />
            <circle cx="342.6047" cy="172.3181" r="3.2043" />
            <polyline class="cls-28" points="361.143 166.269 391.038 166.269 396.633 171.865 391.81 176.687 373.014 176.687 369.645 173.349 366.553 176.44 361.854 176.44" />
        </g>
        <line class="cls-29" x1="932.1678" y1="179.5979" x2="960.3656" y2="179.5979" />
        <line class="cls-29" x1="961.0065" y1="180.2388" x2="961.0065" y2="568.5999" />
        <line class="cls-29" x1="959.7247" y1="568.5999" x2="144.5508" y2="568.5999" />
        <line class="cls-30" x1="144.5508" y1="568.5999" x2="144.5508" y2="506.2562" />
        <polygon class="cls-31" points="147.543 507.132 144.551 501.951 141.559 507.132 147.543 507.132" />
        <path class="cls-32" d="M821.4538,370.5742H960.3656a0,0,0,0,1,0,0V484.6473a0,0,0,0,1,0,0H821.4538a4,4,0,0,1-4-4V374.5742A4,4,0,0,1,821.4538,370.5742Z" />
    </g>
    <g id="text">
        <text class="cls-33" transform="translate(95.374 99.8739)">IBM Cloud data service</text>
        <text class="cls-33" transform="translate(95.374 347.2455)">Hyper Protect Crypto Services</text>
        <text class="cls-34" transform="translate(119.9424 230.5775)">Unencrypted data</text>
        <text class="cls-34" transform="translate(127.4692 464.0648)">
            HSM
            <tspan x="-22.9756" y="19.2002">master key</tspan>
        </text>
        <text class="cls-34" transform="translate(205.8501 464.0648)">
            Root key managed
            <tspan x="0.2163" y="19.2002">in service instance</tspan>
        </text>
        <text class="cls-34" transform="translate(366.6299 464.0648)">
            DEK from
            <tspan x="-9.5918" y="19.2002">date service</tspan>
        </text>
        <text class="cls-34" transform="translate(286.4248 231.5775)">
            Data encryption key
            <tspan x="50.9912" y="19.2002">(DEK)</tspan>
        </text>
        <text class="cls-34" transform="translate(842.2666 232.3944)">
            Wrapped data
            <tspan x="27.5273" y="19.2002">at rest</tspan>
        </text>
        <text class="cls-34" transform="translate(500.542 222.5775)">AES algorithm</text>
        <text class="cls-34" transform="translate(500.542 483.0648)">AES algorithm</text>
        <text class="cls-34" transform="translate(662.6787 215.1683)">Encrypted data</text>
        <text class="cls-34" transform="translate(667.5586 349.0306)">Wrapped DEK</text>
        <text class="cls-34" transform="translate(684.5508 484.8929)">
            Wrapped
            <tspan x="3.4561" y="19.2002">root key</tspan>
        </text>
        <text class="cls-35" transform="translate(30.2505 38.8402)">Envelope encryption</text>
        <text class="cls-36" transform="translate(835.3301 401.2064)">
            Root keys protect
            <tspan x="0" y="14.4004">the data stored in </tspan>
            <tspan x="0" y="28.7998">cloud services.</tspan>
            <tspan x="0" y="43.2002">Master key protects</tspan>
            <tspan x="0" y="57.5996">the root keys.</tspan>
        </text>
    </g>
    <g id="Layer_4" data-name="Layer 4">
        <g id="Doc-2" data-name="Doc">
            <polygon class="cls-12" points="873.132 155.692 873.132 203.756 911.583 203.756 911.583 165.305 901.971 155.692 873.132 155.692" />
            <polyline class="cls-13" points="901.971 155.692 901.971 165.305 911.583 165.305" />
            <line class="cls-13" x1="880.8222" y1="185.4916" x2="897.6447" y2="185.4916" />
            <line class="cls-13" x1="880.8222" y1="170.9121" x2="903.8931" y2="170.9121" />
            <line class="cls-13" x1="880.8222" y1="178.1217" x2="903.8931" y2="178.1217" />
        </g>
        <g id="lock">
            <g id="lock-2" data-name="lock">
                <rect class="cls-37" x="907.8151" y="192.4151" width="8.972" height="5.1269" />
                <path class="cls-15" d="M922.5549,204.7174a10.2538,10.2538,0,1,1-10.2538-10.2537A10.2536,10.2536,0,0,1,922.5549,204.7174Zm-5.1269-8.8818v-6.4988a5.1269,5.1269,0,1,0-10.2538,0v6.4988m5.1269,8.3691v3.5889" />
                <circle cx="912.3011" cy="204.2047" r="1.5381" />
            </g>
        </g>
        <g id="lock-3" data-name="lock">
            <g id="lock-4" data-name="lock">
                <rect class="cls-38" x="728.3743" y="306.4882" width="8.972" height="5.1269" />
                <path class="cls-26" d="M732.86,321.8688V318.28m-5.1269-8.37v-6.4983a3.9369,3.9369,0,0,1,.0513-.6793,5.1236,5.1236,0,0,1,10.2025.6793V309.91m0,0c-.2051-.1154-.423-.2307-.6409-.3333a10.1255,10.1255,0,0,0-4.486-1.0382,10.6166,10.6166,0,0,0-2.23.2435,10.2372,10.2372,0,0,0-2.2558.7947c-.2179.1026-.4359.2179-.6409.3333a10.2537,10.2537,0,1,0,10.2538,0Z" />
                <circle cx="732.8603" cy="318.2778" r="1.5381" />
            </g>
        </g>
        <g id="lock-5" data-name="lock">
            <g id="lock-6" data-name="lock">
                <rect class="cls-39" x="728.3743" y="442.3505" width="8.972" height="5.1269" />
                <path class="cls-19" d="M743.114,454.6528A10.2538,10.2538,0,1,1,732.86,444.3991,10.2535,10.2535,0,0,1,743.114,454.6528Zm-5.1268-8.8818v-6.4988a5.1269,5.1269,0,1,0-10.2538,0v6.4988M732.86,454.14v3.5888" />
                <circle cx="732.8603" cy="454.1402" r="1.5381" />
            </g>
        </g>
        <path class="cls-23" d="M691.4992,286.2242c-4.0631-6.37-5.5883-11.6124-3.4991-13.7016,2.8326-2.8326,11.4329.9613,20.8023,8.7157q2.3839,1.9611,4.8065,4.2553c.628.59,1.256,1.2048,1.8841,1.8329l.8075.8075c1.538,1.5765,2.9864,3.1658,4.3194,4.7423a68.8764,68.8764,0,0,1,7.1648,9.8565" />
        <path class="cls-23" d="M723.4012,314.845a36.0763,36.0763,0,0,1-6.37-3.2427" />
        <path class="cls-23" d="M723.4012,450.7073a34.4912,34.4912,0,0,1-5.7421-2.8582" />
        <path class="cls-23" d="M692.1016,423.0222c-4.5117-6.7931-6.2933-12.4455-4.1015-14.6373,2.9223-2.9223,11.9841,1.2177,21.7,9.472,1.4483,1.2176,2.9223,2.5378,4.3835,3.9476.4742.4487.9356.91,1.41,1.3843q.8266.8266,1.6149,1.6534c1.3971,1.4612,2.7173,2.9352,3.9349,4.3835a67.8084,67.8084,0,0,1,6.7419,9.3694" />
        <path class="cls-23" d="M902.1627,206.3218c-1.4612-.7562-2.948-1.6022-4.4732-2.5635-1.7047-1.0638-3.435-2.2686-5.1782-3.576-.9484-.7177-1.8969-1.4611-2.8454-2.243a94.4,94.4,0,0,1-7.1648-6.4855,95.9633,95.9633,0,0,1-6.8059-7.5493c-.91-1.1151-1.756-2.23-2.5635-3.3325-.4358-.59-.8459-1.1792-1.2432-1.7559-.6922-1.0126-1.3587-2.0123-1.9611-3.0121-6.0241-9.7154-7.921-18.3286-4.0887-22.1609,3.3582-3.3581,10.4076-2.32,18.6363,2.0507" />
        <g id="Doc-3" data-name="Doc">
            <polygon class="cls-12" points="694.973 136.466 694.973 183.825 732.86 183.825 732.86 145.938 723.388 136.466 694.973 136.466" />
            <polyline class="cls-13" points="723.388 136.466 723.388 145.938 732.86 145.938" />
            <line class="cls-13" x1="702.5503" y1="165.8287" x2="719.1261" y2="165.8287" />
            <line class="cls-13" x1="702.5503" y1="151.463" x2="725.2828" y2="151.463" />
            <line class="cls-13" x1="702.5503" y1="158.5669" x2="725.2828" y2="158.5669" />
        </g>
        <g id="lock-7" data-name="lock">
            <g id="lock-8" data-name="lock">
                <rect class="cls-37" x="728.3743" y="173.1893" width="8.972" height="5.1269" />
                <path class="cls-15" d="M743.114,185.4916A10.2538,10.2538,0,1,1,732.86,175.2379,10.2535,10.2535,0,0,1,743.114,185.4916Zm-5.1268-8.8818V170.111a5.1269,5.1269,0,1,0-10.2538,0V176.61m5.1269,8.3691v3.5889" />
                <circle cx="732.8603" cy="184.9789" r="1.5381" />
            </g>
        </g>
    </g>
</svg>