<svg xmlns="http://www.w3.org/2000/svg" width="1056" height="792" viewBox="0 0 1056 792">
    <defs>
        <style>.cls-1,.cls-2,.cls-3,.cls-4{fill:none;}.cls-1,.cls-5,.cls-6{stroke:#000;stroke-linejoin:round;}.cls-1{stroke-linecap:round;}.cls-2,.cls-3,.cls-4{stroke:#9fa5ad;stroke-miterlimit:10;}.cls-3{stroke-dasharray:2.0025 2.0025;}.cls-4{stroke-dasharray:1.9955 1.9955;}.cls-5{fill:#e3f6ff;}.cls-6{fill:#f2f4f8;}.cls-7{font-size:18px;font-family:IBMPlexSans-SemiBold, IBM Plex Sans;font-weight:600;}.cls-8{font-size:16px;}.cls-8,.cls-9{font-family:IBMPlexSans, IBM Plex Sans;}.cls-9{font-size:14px;}</style>
    </defs>
    <g id="Layer_1" data-name="Layer 1">
        <line class="cls-1" x1="230.9123" y1="267.8782" x2="230.9123" y2="626.9901" />
        <polygon points="227.921 626.115 230.912 631.296 233.904 626.115 227.921 626.115" />
        <line class="cls-2" x1="376.5679" y1="117.8963" x2="376.5679" y2="118.8963" />
        <line class="cls-3" x1="376.5679" y1="120.8987" x2="376.5679" y2="744.6653" />
        <line class="cls-2" x1="376.5679" y1="745.6665" x2="376.5679" y2="746.6665" />
        <line class="cls-2" x1="668.5999" y1="117.8963" x2="668.5999" y2="118.8963" />
        <line class="cls-4" x1="668.5999" y1="120.8918" x2="668.5999" y2="742.5056" />
        <line class="cls-2" x1="668.5999" y1="743.5033" x2="668.5999" y2="744.5033" />
        <line class="cls-1" x1="526.5497" y1="267.8782" x2="526.5497" y2="334.237" />
        <polygon points="523.558 333.362 526.55 338.543 529.542 333.362 523.558 333.362" />
        <line class="cls-1" x1="810.6501" y1="267.8782" x2="810.6501" y2="334.237" />
        <polygon points="807.658 333.362 810.65 338.543 813.642 333.362 807.658 333.362" />
        <line class="cls-1" x1="810.6501" y1="413.5337" x2="810.6501" y2="479.8925" />
        <polygon points="807.658 479.017 810.65 484.198 813.642 479.017 807.658 479.017" />
        <line class="cls-1" x1="939" y1="303.9315" x2="939" y2="448.1449" />
        <line class="cls-1" x1="810.6501" y1="560.6313" x2="810.6501" y2="626.9901" />
        <polygon points="807.658 626.115 810.65 631.296 813.642 626.115 807.658 626.115" />
        <line class="cls-1" x1="526.5497" y1="412.0915" x2="526.5497" y2="626.9901" />
        <polygon points="523.558 626.115 526.55 631.296 529.542 626.115 523.558 626.115" />
        <line class="cls-1" x1="816.4186" y1="448.1449" x2="939" y2="448.1449" />
        <rect class="cls-5" x="202.0697" y="141.6915" width="57.6853" height="180.2667" transform="translate(462.7371 0.9124) rotate(90)" />
        <rect class="cls-5" x="496.986" y="285.9048" width="57.6853" height="180.2667" transform="translate(901.8667 -149.7906) rotate(90)" />
        <rect class="cls-5" x="781.0872" y="286.3861" width="57.6853" height="180.2667" transform="translate(1186.4492 -433.4105) rotate(90)" />
        <rect class="cls-5" x="781.0872" y="431.0805" width="57.6853" height="180.2667" transform="translate(1331.1435 -288.7162) rotate(90)" />
        <rect class="cls-6" x="494.1022" y="288.7898" width="57.6853" height="754.2368" transform="translate(1188.8524 142.9625) rotate(89.9999)" />
        <rect class="cls-5" x="639.0366" y="-0.3588" width="57.6853" height="464.3679" transform="matrix(0, 1, -1, 0, 899.704, -436.0543)" />
        <line class="cls-1" x1="939" y1="303.9315" x2="820.7244" y2="303.9315" />
        <polygon points="821.6 300.94 816.419 303.932 821.6 306.923 821.6 300.94" />
        <path d="M169.8257,236.8018v-11.168h6.9277v1.312h-5.376v3.5362h5.2v1.312h-5.2V235.49h5.376v1.312Z" />
        <path d="M179.49,236.8018v-8.2559h1.4878v1.376h.064a3.2463,3.2463,0,0,1,.3281-.5923,2.26,2.26,0,0,1,.48-.5039,2.2335,2.2335,0,0,1,.6641-.3437,2.8282,2.8282,0,0,1,.896-.1284,2.7067,2.7067,0,0,1,2.0561.8164,3.2359,3.2359,0,0,1,.7759,2.32v5.312h-1.4883v-5.0561q0-2.1277-1.84-2.128a2.884,2.884,0,0,0-.7119.0879,1.8643,1.8643,0,0,0-.6163.28,1.5215,1.5215,0,0,0-.44.48,1.3109,1.3109,0,0,0-.168.6718v5.6641Z" />
        <path d="M192.7212,236.9937a4.1118,4.1118,0,0,1-1.624-.3037,3.2374,3.2374,0,0,1-1.2-.8721,4.0051,4.0051,0,0,1-.752-1.36,6.1381,6.1381,0,0,1,0-3.56,4.0018,4.0018,0,0,1,.752-1.3682,3.236,3.236,0,0,1,1.2-.872,4.0576,4.0576,0,0,1,1.6079-.3042,3.3926,3.3926,0,0,1,1.9922.5351,3.2216,3.2216,0,0,1,1.1279,1.4009l-1.168.64a2.0062,2.0062,0,0,0-.7119-.96,2.07,2.07,0,0,0-1.24-.3521,2.0926,2.0926,0,0,0-1.6558.6607,2.4631,2.4631,0,0,0-.584,1.6953v1.4a2.4633,2.4633,0,0,0,.584,1.6953,2.1333,2.1333,0,0,0,1.688.6606,2.16,2.16,0,0,0,1.312-.3764,2.7685,2.7685,0,0,0,.832-1.0157l1.0718.7041a3.247,3.247,0,0,1-1.1679,1.4009A3.5665,3.5665,0,0,1,192.7212,236.9937Z" />
        <path d="M198.4326,235.57h2.32v-5.792h-2.32v-1.232h3.8081v2.128h.0962a2.9616,2.9616,0,0,1,.9517-1.5679,2.7426,2.7426,0,0,1,1.8-.56h1.0879v1.4561h-1.6a2.3365,2.3365,0,0,0-1.7041.6157,2.1252,2.1252,0,0,0-.6319,1.5923v3.36h3.12v1.2319h-6.9282Z" />
        <path d="M214.1768,228.5459h1.5039l-4.064,9.9678a3.4966,3.4966,0,0,1-.3276.648,1.7625,1.7625,0,0,1-.44.4643,1.8919,1.8919,0,0,1-.6084.28,3.1822,3.1822,0,0,1-.832.0962h-1.2959V238.77h1.92l.8482-2.1118-3.3282-8.1119h1.5523l1.36,3.4561,1.1363,2.9917h.08l1.1362-2.9917Z" />
        <path d="M217.8252,228.5459h1.4878v1.376h.08a2.7559,2.7559,0,0,1,.9917-1.1679,3.06,3.06,0,0,1,3.88.72,6.4091,6.4091,0,0,1,0,6.4,3.0615,3.0615,0,0,1-3.88.72,2.7562,2.7562,0,0,1-.9917-1.168h-.08v4.5762h-1.4878Zm3.4878,7.1841a2.0947,2.0947,0,0,0,1.64-.6484,2.4709,2.4709,0,0,0,.584-1.72v-1.376a2.4735,2.4735,0,0,0-.584-1.72,2.0959,2.0959,0,0,0-1.64-.648,2.7245,2.7245,0,0,0-.76.104,1.9869,1.9869,0,0,0-.64.312,1.5235,1.5235,0,0,0-.44.5039,1.4423,1.4423,0,0,0-.16.6963v2.88a1.4874,1.4874,0,0,0,.16.7041,1.4235,1.4235,0,0,0,.44.5039,2.0848,2.0848,0,0,0,.64.3042A2.7208,2.7208,0,0,0,221.313,235.73Z" />
        <path d="M231.2646,236.8018a1.871,1.871,0,0,1-1.4882-.5518,2.1051,2.1051,0,0,1-.48-1.4321v-5.04h-2.64v-1.232h1.92a.8742.8742,0,0,0,.6157-.1762.8471.8471,0,0,0,.1841-.624v-2.1119h1.4082v2.9121h3.664v1.232h-3.664v5.792h3.664v1.2319Z" />
        <path d="M240.3521,236.9937a4.7532,4.7532,0,0,1-4.064-1.92l1.0561-.9439a4.4855,4.4855,0,0,0,1.3838,1.1758,3.6255,3.6255,0,0,0,1.688.376,2.6033,2.6033,0,0,0,1.752-.52,1.8508,1.8508,0,0,0,.6-1.48,1.6035,1.6035,0,0,0-.44-1.2,2.83,2.83,0,0,0-1.5278-.6084l-1.2319-.208a4.2893,4.2893,0,0,1-1.3682-.4239,2.9131,2.9131,0,0,1-.8882-.7041,2.5188,2.5188,0,0,1-.48-.9038,3.7211,3.7211,0,0,1-.144-1.04,2.8138,2.8138,0,0,1,1.0161-2.3521,4.3737,4.3737,0,0,1,2.7759-.8,5.2354,5.2354,0,0,1,2.2563.44,3.7838,3.7838,0,0,1,1.4878,1.2241l-1.0239.96a3.6938,3.6938,0,0,0-1.104-.9522,3.2991,3.2991,0,0,0-1.6318-.36,2.6021,2.6021,0,0,0-1.64.4477,1.6074,1.6074,0,0,0-.5679,1.3442,1.5846,1.5846,0,0,0,.4317,1.16,2.8588,2.8588,0,0,0,1.5522.6323l1.2.208a4.9175,4.9175,0,0,1,1.336.4239,2.9966,2.9966,0,0,1,.9038.68,2.4114,2.4114,0,0,1,.5039.9039,3.66,3.66,0,0,1,.1523,1.0639,3.1168,3.1168,0,0,1-1.0322,2.4722A4.3443,4.3443,0,0,1,240.3521,236.9937Z" />
        <path d="M246.88,235.57h2.896v-5.792H246.88v-1.232h4.3838v7.024h2.72v1.2319H246.88Zm3.6479-8.7041a1.1586,1.1586,0,0,1-.8481-.2481.8512.8512,0,0,1-.24-.6157v-.3042a.8807.8807,0,0,1,.24-.624,1.5335,1.5335,0,0,1,1.6963,0,.881.881,0,0,1,.24.624v.3042a.8515.8515,0,0,1-.24.6157A1.159,1.159,0,0,1,250.5283,226.8658Z" />
        <path d="M256.2886,236.8018v-8.2559h1.4878v1.376h.0639a3.2468,3.2468,0,0,1,.3282-.5923,2.26,2.26,0,0,1,.48-.5039,2.2347,2.2347,0,0,1,.6641-.3437,2.8287,2.8287,0,0,1,.896-.1284,2.7065,2.7065,0,0,1,2.0561.8164,3.2359,3.2359,0,0,1,.7759,2.32v5.312h-1.4883v-5.0561q0-2.1277-1.84-2.128a2.884,2.884,0,0,0-.7119.0879,1.8628,1.8628,0,0,0-.6162.28,1.5206,1.5206,0,0,0-.44.48,1.3109,1.3109,0,0,0-.1679.6718v5.6641Z" />
        <path d="M273.4561,237.73a2.0007,2.0007,0,0,1-1.0479,1.8638,6.6165,6.6165,0,0,1-3.1924.6,9.6508,9.6508,0,0,1-1.76-.1362,3.639,3.639,0,0,1-1.168-.4,1.7439,1.7439,0,0,1-.6563-.6319,1.6958,1.6958,0,0,1-.208-.8481,1.4523,1.4523,0,0,1,.36-1.0479,2.1454,2.1454,0,0,1,1.0317-.5522v-.1758a1.4346,1.4346,0,0,1-.6-.44A1.1323,1.1323,0,0,1,266,235.25a1.1134,1.1134,0,0,1,.416-.9521,2.9292,2.9292,0,0,1,1.0718-.4722v-.08a2.6013,2.6013,0,0,1-1.1836-.9839,2.792,2.792,0,0,1-.416-1.544,2.9263,2.9263,0,0,1,.2319-1.1758,2.4437,2.4437,0,0,1,.6641-.9043,3.1847,3.1847,0,0,1,1.0317-.5761,4.07,4.07,0,0,1,1.336-.208,3.79,3.79,0,0,1,1.6.3042v-.208a1.2979,1.2979,0,0,1,.248-.8111.9526.9526,0,0,1,.8081-.3247h1.5039v1.2637h-1.8882v.48a2.45,2.45,0,0,1,.76.92,3.0414,3.0414,0,0,1,.0239,2.4243,2.5407,2.5407,0,0,1-.6719.896,3.15,3.15,0,0,1-1.04.5757,4.1226,4.1226,0,0,1-1.3442.208c-.1495,0-.2989-.0049-.4478-.0156a2.8613,2.8613,0,0,1-.4321-.064c-.1177.0317-.2349.0693-.3521.1118a1.4734,1.4734,0,0,0-.3359.1758.9764.9764,0,0,0-.2559.2563.592.592,0,0,0-.0962.336.4742.4742,0,0,0,.3682.4961,3.31,3.31,0,0,0,.9438.1118h1.8243a3.6724,3.6724,0,0,1,2.36.6079A2.0177,2.0177,0,0,1,273.4561,237.73Zm-1.3921.08a.8683.8683,0,0,0-.376-.728,2.2986,2.2986,0,0,0-1.32-.28H267.52a1.0684,1.0684,0,0,0-.7358,1.0239,1.1448,1.1448,0,0,0,.4077.88,2.0577,2.0577,0,0,0,1.3843.3682h1.28a3.4087,3.4087,0,0,0,1.6318-.32A1.0225,1.0225,0,0,0,272.064,237.81Zm-2.9121-4.8159a1.8551,1.8551,0,0,0,1.3442-.4238,1.5088,1.5088,0,0,0,.4321-1.128v-.4482a1.5087,1.5087,0,0,0-.4321-1.1279,1.8569,1.8569,0,0,0-1.3442-.4239,1.7964,1.7964,0,0,0-1.3277.4239,1.5391,1.5391,0,0,0-.416,1.1279v.4482a1.5392,1.5392,0,0,0,.416,1.128A1.7947,1.7947,0,0,0,269.1519,232.9937Z" />
        <path d="M275.2637,235.57h2.8v-9.376h-2.8V224.962h4.2881V235.57h2.8159v1.2319h-7.104Z" />
        <path d="M288.5757,236.9937a4.2913,4.2913,0,0,1-1.648-.3037,3.3766,3.3766,0,0,1-1.24-.8643,3.8669,3.8669,0,0,1-.7759-1.352,5.464,5.464,0,0,1-.272-1.7837,5.39,5.39,0,0,1,.28-1.792,4.052,4.052,0,0,1,.7837-1.3682,3.3967,3.3967,0,0,1,1.208-.872A4.12,4.12,0,0,1,290,228.65a3.3328,3.3328,0,0,1,1.1763.84,3.8126,3.8126,0,0,1,.7519,1.2881,4.88,4.88,0,0,1,.2642,1.64v.624h-6.0161v.334a2.3325,2.3325,0,0,0,.64,1.6939,2.3577,2.3577,0,0,0,1.7759.66A2.6715,2.6715,0,0,0,290,235.3721a2.502,2.502,0,0,0,.9282-.9941l1.0078.7861a3.1931,3.1931,0,0,1-1.2558,1.3164A4.0286,4.0286,0,0,1,288.5757,236.9937Zm-.0962-7.4561a2.36,2.36,0,0,0-.9277.1763,2.2659,2.2659,0,0,0-.7281.4878,2.127,2.127,0,0,0-.48.7441,2.5849,2.5849,0,0,0-.168.9439v.1279H290.64v-.1758a2.347,2.347,0,0,0-.5917-1.6718A2.0485,2.0485,0,0,0,288.48,229.5376Z" />
        <path d="M493.54,381.0157v-11.168h6.9278v1.312h-5.376v3.5361h5.2v1.3121h-5.2v3.6958h5.376v1.312Z" />
        <path d="M503.2031,381.0157V372.76h1.4883v1.376h.0645a3.2645,3.2645,0,0,1,.3271-.5923,2.2831,2.2831,0,0,1,.48-.5039,2.2366,2.2366,0,0,1,.664-.3438,2.8327,2.8327,0,0,1,.8955-.1284,2.7075,2.7075,0,0,1,2.0567.8164,3.2383,3.2383,0,0,1,.7754,2.32v5.312h-1.4873V375.96q0-2.1276-1.84-2.1279a2.892,2.892,0,0,0-.7129.0879,1.852,1.852,0,0,0-.6152.28,1.5169,1.5169,0,0,0-.44.48,1.3061,1.3061,0,0,0-.168.6719v5.6641Z" />
        <path d="M516.4355,381.2076a4.105,4.105,0,0,1-1.623-.3037,3.2253,3.2253,0,0,1-1.2-.8721,3.9776,3.9776,0,0,1-.7519-1.36,6.1155,6.1155,0,0,1,0-3.56,3.975,3.975,0,0,1,.7519-1.3682,3.2253,3.2253,0,0,1,1.2-.8721,4.052,4.052,0,0,1,1.6074-.3042,3.3917,3.3917,0,0,1,1.9922.5352,3.214,3.214,0,0,1,1.1279,1.4009l-1.1679.64a2.0065,2.0065,0,0,0-.7119-.96,2.0707,2.0707,0,0,0-1.24-.352,2.0945,2.0945,0,0,0-1.6562.6606,2.4678,2.4678,0,0,0-.584,1.6953v1.4a2.4674,2.4674,0,0,0,.584,1.6953,2.4814,2.4814,0,0,0,3,.2842,2.7545,2.7545,0,0,0,.832-1.0156l1.0723.7041a3.2437,3.2437,0,0,1-1.168,1.4009A3.566,3.566,0,0,1,516.4355,381.2076Z" />
        <path d="M522.1475,379.7837h2.32v-5.792h-2.32V372.76h3.8086v2.1279h.0957a2.9529,2.9529,0,0,1,.9521-1.5678,2.7387,2.7387,0,0,1,1.8-.56h1.0879v1.4561h-1.6a2.3355,2.3355,0,0,0-1.7041.6157,2.1231,2.1231,0,0,0-.6318,1.5923v3.36h3.1191v1.232h-6.9277Z" />
        <path d="M537.8916,372.76h1.5039l-4.0644,9.9678a3.4565,3.4565,0,0,1-.3282.6479,1.7513,1.7513,0,0,1-.4394.4644,1.8968,1.8968,0,0,1-.6084.28,3.1867,3.1867,0,0,1-.8321.0962h-1.2959v-1.2325h1.92l.8486-2.1118-3.3281-8.1118h1.5517l1.36,3.4561,1.1357,2.9917h.08l1.1357-2.9917Z" />
        <path d="M541.5391,372.76h1.4882v1.376h.0791a2.7641,2.7641,0,0,1,.9922-1.168,3.06,3.06,0,0,1,3.88.72,6.4059,6.4059,0,0,1,0,6.4,2.82,2.82,0,0,1-4.8721-.4477h-.0791v4.5762h-1.4882Zm3.4882,7.1841a2.0953,2.0953,0,0,0,1.64-.6484,2.4733,2.4733,0,0,0,.584-1.72V376.2a2.4763,2.4763,0,0,0-.584-1.72,2.0967,2.0967,0,0,0-1.64-.6479,2.7283,2.7283,0,0,0-.7607.104,1.9893,1.9893,0,0,0-.64.312,1.5286,1.5286,0,0,0-.44.5039,1.4478,1.4478,0,0,0-.1592.6963v2.88a1.4934,1.4934,0,0,0,.1592.7041,1.43,1.43,0,0,0,.44.5039,2.0919,2.0919,0,0,0,.64.3042A2.7283,2.7283,0,0,0,545.0273,379.9439Z" />
        <path d="M554.9785,381.0157a1.8711,1.8711,0,0,1-1.4883-.5518,2.108,2.108,0,0,1-.4795-1.4321v-5.04H550.37V372.76h1.92a.874.874,0,0,0,.6162-.1763.8443.8443,0,0,0,.1846-.624v-2.1118h1.4072V372.76h3.6641v1.2319H554.498v5.792h3.6641v1.232Z" />
        <path d="M750.2842,381.0157v-11.168h6.9277v1.312h-5.376v3.5361h5.2v1.3121h-5.2v3.6958h5.376v1.312Z" />
        <path d="M759.9473,381.0157V372.76h1.4882v1.376H761.5a3.2705,3.2705,0,0,1,.3271-.5923,2.2831,2.2831,0,0,1,.4805-.5039,2.236,2.236,0,0,1,.6641-.3438,2.8322,2.8322,0,0,1,.8955-.1284,2.7074,2.7074,0,0,1,2.0566.8164,3.2383,3.2383,0,0,1,.7754,2.32v5.312h-1.4873V375.96q0-2.1276-1.84-2.1279a2.892,2.892,0,0,0-.7129.0879,1.8525,1.8525,0,0,0-.6153.28,1.5169,1.5169,0,0,0-.44.48,1.3061,1.3061,0,0,0-.168.6719v5.6641Z" />
        <path d="M773.18,381.2076a4.1059,4.1059,0,0,1-1.6231-.3037,3.2261,3.2261,0,0,1-1.2-.8721,3.9809,3.9809,0,0,1-.7519-1.36,6.1155,6.1155,0,0,1,0-3.56,3.9784,3.9784,0,0,1,.7519-1.3682,3.2261,3.2261,0,0,1,1.2-.8721,4.0525,4.0525,0,0,1,1.6075-.3042,3.3913,3.3913,0,0,1,1.9921.5352,3.2135,3.2135,0,0,1,1.128,1.4009l-1.168.64a2.0065,2.0065,0,0,0-.7119-.96,2.0706,2.0706,0,0,0-1.24-.352,2.0947,2.0947,0,0,0-1.6563.6606,2.4678,2.4678,0,0,0-.584,1.6953v1.4a2.4674,2.4674,0,0,0,.584,1.6953,2.4814,2.4814,0,0,0,3,.2842,2.7535,2.7535,0,0,0,.832-1.0156l1.0723.7041a3.2437,3.2437,0,0,1-1.168,1.4009A3.5657,3.5657,0,0,1,773.18,381.2076Z" />
        <path d="M778.8916,379.7837h2.32v-5.792h-2.32V372.76H782.7v2.1279h.0957a2.9536,2.9536,0,0,1,.9521-1.5678,2.7392,2.7392,0,0,1,1.8-.56h1.0878v1.4561h-1.6a2.3356,2.3356,0,0,0-1.7041.6157,2.1235,2.1235,0,0,0-.6318,1.5923v3.36h3.1191v1.232h-6.9277Z" />
        <path d="M794.6357,372.76H796.14l-4.0644,9.9678a3.4625,3.4625,0,0,1-.3281.6479,1.7533,1.7533,0,0,1-.44.4644,1.8968,1.8968,0,0,1-.6084.28,3.1864,3.1864,0,0,1-.832.0962h-1.2959v-1.2325h1.92l.8486-2.1118-3.3281-8.1118h1.5518l1.36,3.4561,1.1358,2.9917h.08l1.1358-2.9917Z" />
        <path d="M798.2832,372.76h1.4883v1.376h.0791a2.7641,2.7641,0,0,1,.9922-1.168,3.06,3.06,0,0,1,3.88.72,6.4065,6.4065,0,0,1,0,6.4,2.82,2.82,0,0,1-4.8721-.4477h-.0791v4.5762h-1.4883Zm3.4883,7.1841a2.0951,2.0951,0,0,0,1.64-.6484,2.4733,2.4733,0,0,0,.584-1.72V376.2a2.4763,2.4763,0,0,0-.584-1.72,2.0965,2.0965,0,0,0-1.64-.6479,2.729,2.729,0,0,0-.7608.104,1.99,1.99,0,0,0-.64.312,1.5283,1.5283,0,0,0-.44.5039,1.4467,1.4467,0,0,0-.1592.6963v2.88a1.4922,1.4922,0,0,0,.1592.7041,1.4294,1.4294,0,0,0,.44.5039,2.0931,2.0931,0,0,0,.64.3042A2.729,2.729,0,0,0,801.7715,379.9439Z" />
        <path d="M811.7227,381.0157a1.8711,1.8711,0,0,1-1.4883-.5518,2.1075,2.1075,0,0,1-.48-1.4321v-5.04h-2.6406V372.76h1.92a.8741.8741,0,0,0,.6162-.1763.8447.8447,0,0,0,.1846-.624v-2.1118h1.4072V372.76h3.664v1.2319h-3.664v5.792h3.664v1.232Z" />
        <path d="M818.8271,369.8477v6.7681q0,.7676.04,1.3759a2.8353,2.8353,0,0,0,.24,1.0318,1.3854,1.3854,0,0,0,.6162.6479,3.071,3.071,0,0,0,2.3037,0,1.3948,1.3948,0,0,0,.6163-.6479,2.8565,2.8565,0,0,0,.2392-1.0318q.0411-.6078.04-1.3759v-6.7681h1.5527v6.4478a15.8954,15.8954,0,0,1-.1279,2.1523,3.747,3.747,0,0,1-.5206,1.5278,2.45,2.45,0,0,1-1.0957.92,5.6761,5.6761,0,0,1-3.7119,0,2.448,2.448,0,0,1-1.0966-.92,3.7468,3.7468,0,0,1-.52-1.5278,15.7341,15.7341,0,0,1-.1279-2.1523v-6.4478Z" />
        <path d="M827.083,372.76h1.4883v1.376h.0791a2.7641,2.7641,0,0,1,.9922-1.168,3.06,3.06,0,0,1,3.88.72,6.4065,6.4065,0,0,1,0,6.4,2.82,2.82,0,0,1-4.8721-.4477h-.0791v4.5762H827.083Zm3.4883,7.1841a2.0951,2.0951,0,0,0,1.64-.6484,2.4733,2.4733,0,0,0,.584-1.72V376.2a2.4763,2.4763,0,0,0-.584-1.72,2.0965,2.0965,0,0,0-1.64-.6479,2.729,2.729,0,0,0-.7608.104,1.99,1.99,0,0,0-.64.312,1.5283,1.5283,0,0,0-.44.5039,1.4467,1.4467,0,0,0-.1592.6963v2.88a1.4922,1.4922,0,0,0,.1592.7041,1.4294,1.4294,0,0,0,.44.5039,2.0931,2.0931,0,0,0,.64.3042A2.729,2.729,0,0,0,830.5713,379.9439Z" />
        <path d="M841.9785,379.64h-.08a2.7565,2.7565,0,0,1-.9922,1.168,3.0607,3.0607,0,0,1-3.88-.72,6.4124,6.4124,0,0,1,0-6.4,3.06,3.06,0,0,1,3.88-.72,2.7565,2.7565,0,0,1,.9922,1.168h.08v-4.96h1.4883v11.84h-1.4883Zm-2,.3042a2.727,2.727,0,0,0,.76-.104,2.082,2.082,0,0,0,.64-.3042,1.43,1.43,0,0,0,.4405-.5039,1.4936,1.4936,0,0,0,.16-.7041v-2.88a1.448,1.448,0,0,0-.16-.6963,1.5286,1.5286,0,0,0-.4405-.5039,1.98,1.98,0,0,0-.64-.312,2.727,2.727,0,0,0-.76-.104,2.0936,2.0936,0,0,0-1.64.6479,2.4716,2.4716,0,0,0-.584,1.72v1.3759a2.4686,2.4686,0,0,0,.584,1.72A2.0922,2.0922,0,0,0,839.9785,379.9439Z" />
        <path d="M852.7627,381.0157a1.399,1.399,0,0,1-1.08-.376,1.7554,1.7554,0,0,1-.4238-.9839h-.08a2.342,2.342,0,0,1-.88,1.1357,2.8118,2.8118,0,0,1-1.6162.4161,2.99,2.99,0,0,1-2.04-.6641,2.3072,2.3072,0,0,1-.76-1.832,2.0914,2.0914,0,0,1,.8643-1.8076,4.6949,4.6949,0,0,1,2.72-.6241h1.6807v-.7363a1.7025,1.7025,0,0,0-.4805-1.32,1.99,1.99,0,0,0-1.3916-.44,2.564,2.564,0,0,0-1.3359.312,2.3562,2.3562,0,0,0-.8409.8721l-.9433-.7519a2.4882,2.4882,0,0,1,.4472-.6162,3.1932,3.1932,0,0,1,.6885-.5279,3.6669,3.6669,0,0,1,.9278-.3681,4.6948,4.6948,0,0,1,1.1679-.1363,3.54,3.54,0,0,1,2.376.7442,2.6133,2.6133,0,0,1,.8721,2.104v4.3681h1.1045v1.232Zm-3.7275-.9761a2.58,2.58,0,0,0,1.5195-.416,1.2361,1.2361,0,0,0,.5928-1.04v-1.28h-1.6641a3.1141,3.1141,0,0,0-1.56.3037.97.97,0,0,0-.504.88v.336a1.0438,1.0438,0,0,0,.4317.9121A2.0281,2.0281,0,0,0,849.0352,380.04Z" />
        <path d="M859.7227,381.0157a1.8711,1.8711,0,0,1-1.4883-.5518,2.1075,2.1075,0,0,1-.48-1.4321v-5.04h-2.6406V372.76h1.92a.8741.8741,0,0,0,.6162-.1763.8447.8447,0,0,0,.1846-.624v-2.1118h1.4072V372.76h3.664v1.2319h-3.664v5.792h3.664v1.232Z" />
        <path d="M869.0342,381.2076a4.2939,4.2939,0,0,1-1.6485-.3037,3.3741,3.3741,0,0,1-1.2392-.8643,3.8745,3.8745,0,0,1-.7764-1.3521,5.4633,5.4633,0,0,1-.2715-1.7836,5.4025,5.4025,0,0,1,.2793-1.792,4.0546,4.0546,0,0,1,.7842-1.3682,3.3929,3.3929,0,0,1,1.208-.8721,4.1193,4.1193,0,0,1,3.0879-.0078,3.322,3.322,0,0,1,1.1758.84,3.8131,3.8131,0,0,1,.7519,1.288,4.8549,4.8549,0,0,1,.2647,1.64v.624h-6.0166v.334a2.3325,2.3325,0,0,0,.6406,1.6938,2.3585,2.3585,0,0,0,1.7754.66,2.6731,2.6731,0,0,0,1.4082-.3579,2.4969,2.4969,0,0,0,.9277-.9942l1.0088.7862a3.1937,3.1937,0,0,1-1.2558,1.3164A4.0317,4.0317,0,0,1,869.0342,381.2076Zm-.0957-7.4561a2.3635,2.3635,0,0,0-.9287.1763,2.2637,2.2637,0,0,0-.7276.4878,2.1343,2.1343,0,0,0-.48.7441,2.5954,2.5954,0,0,0-.168.9439v.1279h4.4648v-.1758a2.3477,2.3477,0,0,0-.5927-1.6719A2.0462,2.0462,0,0,0,868.9385,373.7515Z" />
        <path d="M755.084,526.6709V515.503h6.9277v1.312h-5.376v3.5361h5.2v1.312h-5.2v3.6958h5.376v1.312Z" />
        <path d="M764.7471,526.6709v-8.2558h1.4883v1.376H766.3a3.2617,3.2617,0,0,1,.3272-.5923,2.28,2.28,0,0,1,.48-.5039,2.2337,2.2337,0,0,1,.6641-.3438,2.8322,2.8322,0,0,1,.8955-.1284,2.7073,2.7073,0,0,1,2.0566.8164,3.2382,3.2382,0,0,1,.7754,2.32v5.312h-1.4873v-5.0561q0-2.1277-1.84-2.1279a2.8872,2.8872,0,0,0-.7129.0879,1.8509,1.8509,0,0,0-.6152.28,1.5174,1.5174,0,0,0-.4405.48,1.3061,1.3061,0,0,0-.1679.6719v5.664Z" />
        <path d="M777.9785,526.8628a4.1033,4.1033,0,0,1-1.623-.3037,3.2239,3.2239,0,0,1-1.2-.872,3.9813,3.9813,0,0,1-.752-1.36,6.1181,6.1181,0,0,1,0-3.56,3.9764,3.9764,0,0,1,.752-1.3681,3.2242,3.2242,0,0,1,1.2-.8721,4.0516,4.0516,0,0,1,1.6074-.3042,3.3919,3.3919,0,0,1,1.9922.5352,3.2143,3.2143,0,0,1,1.1279,1.4008l-1.168.64a2.0065,2.0065,0,0,0-.7119-.96,2.07,2.07,0,0,0-1.24-.352,2.0947,2.0947,0,0,0-1.6563.6606,2.468,2.468,0,0,0-.5839,1.6953v1.4a2.4678,2.4678,0,0,0,.5839,1.6953,2.4814,2.4814,0,0,0,3,.2842,2.7555,2.7555,0,0,0,.8321-1.0156l1.0722.7041a3.2435,3.2435,0,0,1-1.1679,1.4009A3.5667,3.5667,0,0,1,777.9785,526.8628Z" />
        <path d="M783.6914,525.439h2.32v-5.792h-2.32v-1.2319H787.5v2.1279h.0957a2.954,2.954,0,0,1,.9522-1.5679,2.7393,2.7393,0,0,1,1.8-.56h1.0878v1.456h-1.6a2.3357,2.3357,0,0,0-1.7041.6158,2.1234,2.1234,0,0,0-.6318,1.5922v3.36h3.1191v1.2319h-6.9277Z" />
        <path d="M799.4355,518.4151h1.504l-4.0645,9.9678a3.4625,3.4625,0,0,1-.3281.6479,1.7548,1.7548,0,0,1-.44.4644,1.8967,1.8967,0,0,1-.6084.28,3.1822,3.1822,0,0,1-.832.0962h-1.2959v-1.2324h1.92l.8486-2.1118-3.3281-8.1118h1.5518l1.36,3.456,1.1358,2.9917h.08l1.1357-2.9917Z" />
        <path d="M803.083,518.4151h1.4883v1.376h.0791a2.7641,2.7641,0,0,1,.9922-1.168,3.06,3.06,0,0,1,3.88.72,6.4065,6.4065,0,0,1,0,6.4,2.82,2.82,0,0,1-4.8721-.4477h-.0791v4.5761H803.083Zm3.4883,7.1841a2.0948,2.0948,0,0,0,1.64-.6485,2.473,2.473,0,0,0,.584-1.72v-1.376a2.4761,2.4761,0,0,0-.584-1.72,2.0965,2.0965,0,0,0-1.64-.6479,2.7253,2.7253,0,0,0-.7608.104,1.99,1.99,0,0,0-.64.312,1.5273,1.5273,0,0,0-.44.5039,1.4464,1.4464,0,0,0-.1592.6963v2.88a1.4922,1.4922,0,0,0,.1592.7041,1.4294,1.4294,0,0,0,.44.5039,2.0954,2.0954,0,0,0,.64.3042A2.729,2.729,0,0,0,806.5713,525.5992Z" />
        <path d="M816.5234,526.6709a1.871,1.871,0,0,1-1.4882-.5517,2.1075,2.1075,0,0,1-.48-1.4321v-5.04H811.915v-1.2319h1.92a.8743.8743,0,0,0,.6162-.1763.8449.8449,0,0,0,.1845-.624V515.503h1.4073v2.9121h3.664v1.2319h-3.664v5.792h3.664v1.2319Z" />
        <path d="M822.2832,526.6709V515.503h7.1035v1.312H823.835v3.5361h5.0722v1.312H823.835v5.0078Z" />
        <path d="M832.1387,525.439h2.8955v-5.792h-2.8955v-1.2319h4.3838v7.0239h2.72v1.2319h-7.1035Zm3.6474-8.7041a1.1574,1.1574,0,0,1-.8476-.248.85.85,0,0,1-.24-.6158v-.3042a.8789.8789,0,0,1,.24-.624,1.534,1.534,0,0,1,1.6963,0,.8793.8793,0,0,1,.24.624v.3042a.85.85,0,0,1-.24.6158A1.16,1.16,0,0,1,835.7861,516.7349Z" />
        <path d="M841.5459,526.6709v-8.2558h1.4883v1.376h.0644a3.2678,3.2678,0,0,1,.3272-.5923,2.2827,2.2827,0,0,1,.48-.5039,2.2361,2.2361,0,0,1,.6641-.3438,2.8327,2.8327,0,0,1,.8955-.1284,2.7076,2.7076,0,0,1,2.0567.8164,3.2382,3.2382,0,0,1,.7754,2.32v5.312h-1.4874v-5.0561q0-2.1277-1.84-2.1279a2.8872,2.8872,0,0,0-.7129.0879,1.8509,1.8509,0,0,0-.6152.28,1.5186,1.5186,0,0,0-.4405.48,1.3061,1.3061,0,0,0-.1679.6719v5.664Z" />
        <path d="M857.5615,526.6709a1.399,1.399,0,0,1-1.08-.3759,1.756,1.756,0,0,1-.4238-.9839h-.08a2.3424,2.3424,0,0,1-.88,1.1357,2.8124,2.8124,0,0,1-1.6163.416,2.99,2.99,0,0,1-2.04-.664,2.3073,2.3073,0,0,1-.76-1.8321,2.0915,2.0915,0,0,1,.8643-1.8076,4.696,4.696,0,0,1,2.72-.624h1.6807v-.7363a1.7024,1.7024,0,0,0-.4805-1.32,1.99,1.99,0,0,0-1.3916-.44,2.5643,2.5643,0,0,0-1.3359.312,2.3545,2.3545,0,0,0-.8408.8721l-.9434-.752a2.4924,2.4924,0,0,1,.4473-.6162,3.1954,3.1954,0,0,1,.6884-.5278,3.6706,3.6706,0,0,1,.9278-.3682,4.7,4.7,0,0,1,1.1679-.1362,3.54,3.54,0,0,1,2.376.7441,2.6131,2.6131,0,0,1,.8721,2.104v4.3682h1.1045v1.2319Zm-3.7275-.976a2.58,2.58,0,0,0,1.52-.416,1.2362,1.2362,0,0,0,.5928-1.04v-1.28h-1.6641a3.1152,3.1152,0,0,0-1.56.3037.97.97,0,0,0-.5039.88v.3359a1.0438,1.0438,0,0,0,.4316.9122A2.0281,2.0281,0,0,0,853.834,525.6949Z" />
        <path d="M860.5225,525.439h2.8v-9.376h-2.8v-1.2319h4.288V525.439h2.8155v1.2319h-7.1035Z" />
        <path d="M615.8906,236.8018v-11.168h6.9278v1.312h-5.376v3.5362h5.2v1.312h-5.2V235.49h5.376v1.312Z" />
        <path d="M625.5537,236.8018v-8.2559h1.4883v1.376h.0644a3.2711,3.2711,0,0,1,.3272-.5923,2.283,2.283,0,0,1,.4805-.5039,2.2341,2.2341,0,0,1,.664-.3437,2.83,2.83,0,0,1,.8955-.1284,2.7073,2.7073,0,0,1,2.0567.8164,3.2379,3.2379,0,0,1,.7754,2.32v5.312h-1.4873v-5.0561q0-2.1277-1.84-2.128a2.892,2.892,0,0,0-.7129.0879,1.854,1.854,0,0,0-.6152.28,1.5172,1.5172,0,0,0-.44.48,1.306,1.306,0,0,0-.168.6718v5.6641Z" />
        <path d="M638.7852,236.9937a4.1052,4.1052,0,0,1-1.6231-.3037,3.2253,3.2253,0,0,1-1.2-.8721,3.978,3.978,0,0,1-.7519-1.36,6.1159,6.1159,0,0,1,0-3.56,3.975,3.975,0,0,1,.7519-1.3682,3.2239,3.2239,0,0,1,1.2-.872,4.05,4.05,0,0,1,1.6074-.3042,3.3924,3.3924,0,0,1,1.9922.5351A3.2138,3.2138,0,0,1,641.89,230.29l-1.1679.64a2.0062,2.0062,0,0,0-.7119-.96,2.07,2.07,0,0,0-1.24-.3521,2.0942,2.0942,0,0,0-1.6562.6607,2.4674,2.4674,0,0,0-.584,1.6953v1.4a2.4676,2.4676,0,0,0,.584,1.6953,2.4818,2.4818,0,0,0,3,.2842,2.7548,2.7548,0,0,0,.832-1.0157l1.0723.7041a3.2437,3.2437,0,0,1-1.168,1.4009A3.5659,3.5659,0,0,1,638.7852,236.9937Z" />
        <path d="M644.498,235.57h2.32v-5.792h-2.32v-1.232h3.8086v2.128h.0957a2.9536,2.9536,0,0,1,.9522-1.5679,2.7393,2.7393,0,0,1,1.8-.56h1.0879v1.4561h-1.6a2.3359,2.3359,0,0,0-1.7041.6157,2.1233,2.1233,0,0,0-.6319,1.5923v3.36h3.1192v1.2319H644.498Z" />
        <path d="M660.2422,228.5459h1.5039l-4.0645,9.9678a3.4605,3.4605,0,0,1-.3281.648,1.7525,1.7525,0,0,1-.4394.4643,1.8978,1.8978,0,0,1-.6084.28,3.183,3.183,0,0,1-.8321.0962h-1.2959V238.77h1.92l.8486-2.1118-3.3281-8.1119H655.17l1.36,3.4561,1.1357,2.9917h.08l1.1357-2.9917Z" />
        <path d="M663.89,228.5459h1.4883v1.376h.0791a2.9053,2.9053,0,0,1,4.8721-.4482,6.4065,6.4065,0,0,1,0,6.4,2.82,2.82,0,0,1-4.8721-.4478h-.0791v4.5762H663.89Zm3.4883,7.1841a2.0953,2.0953,0,0,0,1.64-.6484,2.4737,2.4737,0,0,0,.584-1.72v-1.376a2.4764,2.4764,0,0,0-.584-1.72,2.0964,2.0964,0,0,0-1.64-.648,2.7283,2.7283,0,0,0-.7607.104,1.9949,1.9949,0,0,0-.64.312,1.53,1.53,0,0,0-.44.5039,1.4478,1.4478,0,0,0-.1592.6963v2.88a1.4931,1.4931,0,0,0,.1592.7041,1.43,1.43,0,0,0,.44.5039,2.0936,2.0936,0,0,0,.64.3042A2.7246,2.7246,0,0,0,667.3779,235.73Z" />
        <path d="M677.33,236.8018a1.8711,1.8711,0,0,1-1.4883-.5518,2.1078,2.1078,0,0,1-.48-1.4321v-5.04h-2.6406v-1.232h1.92a.8746.8746,0,0,0,.6162-.1762.8444.8444,0,0,0,.1846-.624v-2.1119H676.85v2.9121h3.6641v1.232H676.85v5.792h3.6641v1.2319Z" />
        <path d="M682.9932,236.8018v-1.2h2.7207V226.834h-2.7207v-1.2H689.97v1.2h-2.72v8.7676h2.72v1.2Z" />
        <path d="M692.7529,236.8018v-8.2559h1.4883v1.376h.0645a3.2645,3.2645,0,0,1,.3271-.5923,2.2853,2.2853,0,0,1,.4805-.5039,2.2341,2.2341,0,0,1,.664-.3437,2.83,2.83,0,0,1,.8956-.1284,2.707,2.707,0,0,1,2.0566.8164,3.2379,3.2379,0,0,1,.7754,2.32v5.312h-1.4873v-5.0561q0-2.1277-1.84-2.128a2.892,2.892,0,0,0-.7129.0879,1.8549,1.8549,0,0,0-.6152.28,1.5172,1.5172,0,0,0-.44.48,1.306,1.306,0,0,0-.168.6718v5.6641Z" />
        <path d="M702.5449,235.57H705.44v-5.792h-2.8955v-1.232h4.3838v7.024h2.72v1.2319h-7.1035Zm3.6475-8.7041a1.1577,1.1577,0,0,1-.8477-.2481.85.85,0,0,1-.24-.6157v-.3042a.8793.8793,0,0,1,.24-.624,1.5335,1.5335,0,0,1,1.6963,0,.8788.8788,0,0,1,.24.624v.3042a.85.85,0,0,1-.24.6157A1.16,1.16,0,0,1,706.1924,226.8658Z" />
        <path d="M715.7285,236.8018a1.8711,1.8711,0,0,1-1.4883-.5518,2.1078,2.1078,0,0,1-.4795-1.4321v-5.04H711.12v-1.232h1.92a.8745.8745,0,0,0,.6162-.1762.8444.8444,0,0,0,.1846-.624v-2.1119h1.4072v2.9121h3.6641v1.232H715.248v5.792h3.6641v1.2319Z" />
    </g>
    <g id="Text">
        <text class="cls-7" transform="translate(156.4395 130.2256)">Encryption flow 1</text>
        <text class="cls-7" transform="translate(454.1152 130.2256)">Encryption flow 2</text>
        <text class="cls-7" transform="translate(731.0518 130.2256)">Encryption flow 3</text>
        <text class="cls-7" transform="translate(33.8623 55.1582)">Three calling flows of GREP11 functions for encryption</text>
        <text class="cls-8" transform="translate(423.5073 670.8833)">Encryption operation output</text>
        <text class="cls-9" transform="translate(135.4922 154.0909)">(EP11 single-part encryption) </text>
        <text class="cls-9" transform="translate(410.9395 154.0909)">(PKCS #11 single-part encryption) </text>
        <text class="cls-9" transform="translate(702.25 154.0909)">(PKCS #11 multi-part encryption) </text>
    </g>
</svg>