<svg xmlns="http://www.w3.org/2000/svg" width="1056" height="605" viewBox="0 0 1056 605">
    <defs>
        <style>.cls-1{fill:#f4f4f4;}.cls-1,.cls-10,.cls-12,.cls-13,.cls-14,.cls-22,.cls-4,.cls-5,.cls-6,.cls-7,.cls-8,.cls-9{stroke:#000;}.cls-1,.cls-10,.cls-2,.cls-22,.cls-4,.cls-9{stroke-miterlimit:10;}.cls-10,.cls-12,.cls-2,.cls-22,.cls-6,.cls-7{fill:none;}.cls-2{stroke:#50565b;}.cls-2,.cls-22{stroke-width:2px;}.cls-3{fill:#50565b;}.cls-4{fill:#e3f6ff;}.cls-11,.cls-5,.cls-8{fill:#b3e6ff;}.cls-12,.cls-13,.cls-14,.cls-5,.cls-6,.cls-7,.cls-8{stroke-linejoin:round;}.cls-10,.cls-12,.cls-13,.cls-6,.cls-7,.cls-8,.cls-9{stroke-linecap:round;}.cls-6{stroke-dasharray:2;}.cls-7{stroke-dasharray:2 2;}.cls-9{fill:#fff;}.cls-13,.cls-14,.cls-20{fill:#87eded;}.cls-15{fill:#f2f4f8;}.cls-16,.cls-17{font-size:16px;}.cls-16,.cls-18{font-family:IBMPlexSans-SemiBold, IBM Plex Sans;font-weight:600;}.cls-17,.cls-19{font-family:IBMPlexSans, IBM Plex Sans;}.cls-18{font-size:18px;}.cls-19{font-size:14px;}.cls-21{fill:#333;}</style>
    </defs>
    <g id="Layer_1" data-name="Layer 1">
        <rect class="cls-1" x="270.1288" y="131.0832" width="363.7262" height="290.9809" />
        <rect class="cls-1" x="698.6644" y="131.0832" width="288.3356" height="197.0734" />
        <line class="cls-2" x1="102.8148" y1="205.8124" x2="282.2435" y2="205.8124" />
        <polygon class="cls-3" points="281.076 209.802 287.984 205.812 281.076 201.823 281.076 209.802" />
        <rect class="cls-1" x="698.6644" y="355.9321" width="288.3356" height="197.0734" />
        <rect class="cls-4" x="292.6137" y="297.736" width="318.7564" height="96.5528" />
        <g id="Hardware">
            <rect class="cls-5" x="317.0755" y="348.7059" width="52.9056" height="14.0044" />
            <polygon class="cls-5" points="369.981 348.187 317.076 348.187 326.412 327.959 360.645 327.959 369.981 348.187" />
            <rect x="350.5305" y="352.596" width="6.2242" height="6.2242" />
            <rect x="359.0888" y="352.596" width="6.2242" height="6.2242" />
        </g>
        <line class="cls-6" x1="318.4052" y1="394.2887" x2="318.4052" y2="461.0821" />
        <line class="cls-7" x1="318.4052" y1="461.0821" x2="714.8596" y2="461.0821" />
        <polygon points="713.984 464.074 719.165 461.082 713.984 458.09 713.984 464.074" />
        <line class="cls-6" x1="666.2597" y1="461.0821" x2="666.2597" y2="225.6521" />
        <line class="cls-7" x1="666.2596" y1="225.652" x2="714.8596" y2="225.652" />
        <polygon points="713.984 228.644 719.165 225.652 713.984 222.66 713.984 228.644" />
        <line class="cls-7" x1="822.3312" y1="225.652" x2="872.2538" y2="225.652" />
        <polygon points="871.378 228.644 876.56 225.652 871.378 222.66 871.378 228.644" />
        <line class="cls-7" x1="822.3312" y1="461.0821" x2="872.2538" y2="461.0821" />
        <polygon points="871.378 464.074 876.56 461.082 871.378 458.09 871.378 464.074" />
        <g id="key">
            <path class="cls-8" d="M915.9054,222.1061a15.4486,15.4486,0,1,1-7.94-6.9027" />
            <circle cx="898.8517" cy="233.1444" r="3.3066" />
            <polyline class="cls-5" points="907.965 215.203 929.778 193.39 937.944 193.39 937.944 200.428 924.229 214.143 919.334 214.166 919.334 218.677 915.905 222.106" />
        </g>
        <g id="Doc">
            <polygon class="cls-9" points="895.659 196.099 895.659 245.698 935.338 245.698 935.338 206.019 925.418 196.099 895.659 196.099" />
            <polyline class="cls-10" points="925.418 196.099 925.418 206.019 935.338 206.019" />
            <line class="cls-10" x1="903.5944" y1="226.8501" x2="920.954" y2="226.8501" />
            <line class="cls-10" x1="903.5944" y1="211.8051" x2="927.4019" y2="211.8051" />
            <line class="cls-10" x1="903.5944" y1="219.2449" x2="927.4019" y2="219.2449" />
        </g>
        <g id="lock">
            <g id="lock-2" data-name="lock">
                <rect class="cls-11" x="931.4491" y="233.9946" width="9.2585" height="5.2906" />
                <path class="cls-8" d="M946.66,246.69a10.5812,10.5812,0,1,1-10.5812-10.5811A10.5809,10.5809,0,0,1,946.66,246.69Zm-5.2906-9.1654V230.818a5.2906,5.2906,0,0,0-10.5811,0v6.7063m5.2905,8.6364v3.7033" />
                <circle cx="936.0783" cy="246.1607" r="1.5872" />
            </g>
        </g>
        <path class="cls-12" d="M925.6163,248.3453c-1.5079-.78-3.0421-1.6533-4.6161-2.6453-1.7591-1.0978-3.5446-2.3411-5.3434-3.69-.9788-.7407-1.9575-1.5078-2.9363-2.3146a97.42,97.42,0,0,1-7.3936-6.6926,99.0367,99.0367,0,0,1-7.0232-7.79c-.9391-1.1507-1.812-2.3014-2.6453-3.4389-.45-.6084-.8729-1.2168-1.2829-1.812-.7142-1.0449-1.402-2.0765-2.0237-3.1082-6.2164-10.0256-8.1739-18.9138-4.2192-22.8685,3.4653-3.4653,10.74-2.3939,19.2312,2.1163" />
        <g id="key-2" data-name="key">
            <path class="cls-8" d="M915.9054,446.955a15.4486,15.4486,0,1,1-7.94-6.9027" />
            <circle cx="898.8517" cy="457.9933" r="3.3066" />
            <polyline class="cls-5" points="907.965 440.052 929.778 418.239 937.944 418.239 937.944 425.277 924.229 438.992 919.334 439.015 919.334 443.526 915.905 446.955" />
        </g>
        <g id="Doc-2" data-name="Doc">
            <polygon class="cls-9" points="895.659 420.948 895.659 470.547 935.338 470.547 935.338 430.867 925.418 420.948 895.659 420.948" />
            <polyline class="cls-10" points="925.418 420.948 925.418 430.867 935.338 430.867" />
            <line class="cls-10" x1="903.5944" y1="451.699" x2="920.954" y2="451.699" />
            <line class="cls-10" x1="903.5944" y1="436.654" x2="927.4019" y2="436.654" />
            <line class="cls-10" x1="903.5944" y1="444.0938" x2="927.4019" y2="444.0938" />
        </g>
        <g id="lock-3" data-name="lock">
            <g id="lock-4" data-name="lock">
                <rect class="cls-11" x="931.4491" y="458.8435" width="9.2585" height="5.2906" />
                <path class="cls-8" d="M946.66,471.5386a10.5812,10.5812,0,1,1-10.5812-10.5811A10.5809,10.5809,0,0,1,946.66,471.5386Zm-5.2906-9.1654v-6.7063a5.2906,5.2906,0,0,0-10.5811,0v6.7063m5.2905,8.6364v3.7033" />
                <circle cx="936.0783" cy="471.0096" r="1.5872" />
            </g>
        </g>
        <path class="cls-12" d="M925.6163,473.1942c-1.5079-.78-3.0421-1.6533-4.6161-2.6453-1.7591-1.0978-3.5446-2.3411-5.3434-3.69-.9788-.7407-1.9575-1.5078-2.9363-2.3146a97.42,97.42,0,0,1-7.3936-6.6926,99.0367,99.0367,0,0,1-7.0232-7.79c-.9391-1.1507-1.812-2.3014-2.6453-3.4389-.45-.6084-.8729-1.2168-1.2829-1.812-.7142-1.0449-1.402-2.0765-2.0237-3.1082-6.2164-10.0256-8.1739-18.9138-4.2192-22.8685,3.4653-3.4653,10.74-2.3939,19.2312,2.1163" />
    </g>
    <g id="key-3" data-name="key">
        <g id="key-4" data-name="key">
            <path class="cls-13" d="M350.2021,212.4736a15.4486,15.4486,0,1,1-.7338-10.4957" />
            <circle cx="330.338" cy="208.22" r="3.3066" />
            <polyline class="cls-14" points="349.468 201.978 380.317 201.978 386.091 207.752 381.115 212.729 361.719 212.729 358.241 209.283 355.051 212.474 350.202 212.474" />
        </g>
        <g id="key-5" data-name="key">
            <path class="cls-13" d="M446.7548,212.4736a15.4485,15.4485,0,1,1-.7337-10.4957" />
            <circle cx="426.8908" cy="208.22" r="3.3066" />
            <polyline class="cls-14" points="446.021 201.978 476.87 201.978 482.644 207.752 477.667 212.729 458.271 212.729 454.794 209.283 451.604 212.474 446.755 212.474" />
        </g>
        <g id="key-6" data-name="key">
            <path class="cls-13" d="M545.9529,212.4736a15.4486,15.4486,0,1,1-.7338-10.4957" />
            <circle cx="526.0888" cy="208.22" r="3.3066" />
            <polyline class="cls-14" points="545.219 201.978 576.068 201.978 581.842 207.752 576.866 212.729 557.469 212.729 553.992 209.283 550.802 212.474 545.953 212.474" />
        </g>
        <g id="key-7" data-name="key">
            <path class="cls-13" d="M782.172,222.6014a15.4486,15.4486,0,1,1-7.94-6.9027" />
            <circle cx="765.1183" cy="233.6397" r="3.3066" />
            <polyline class="cls-14" points="774.232 215.699 796.045 193.885 804.211 193.885 804.211 200.923 790.496 214.638 785.601 214.661 785.601 219.173 782.172 222.601" />
        </g>
        <g id="key-8" data-name="key">
            <path class="cls-8" d="M777.0281,218.3928a15.4485,15.4485,0,1,1-7.94-6.9027" />
            <circle cx="759.9744" cy="229.4311" r="3.3066" />
            <polyline class="cls-5" points="769.088 211.49 790.901 189.677 799.067 189.677 799.067 196.715 785.352 210.43 780.457 210.452 780.457 214.964 777.028 218.393" />
        </g>
        <g id="key-9" data-name="key">
            <path class="cls-13" d="M782.172,447.45a15.4486,15.4486,0,1,1-7.94-6.9027" />
            <circle cx="765.1183" cy="458.4886" r="3.3066" />
            <polyline class="cls-14" points="774.232 440.548 796.045 418.734 804.211 418.734 804.211 425.772 790.496 439.487 785.601 439.51 785.601 444.021 782.172 447.45" />
        </g>
        <g id="key-10" data-name="key">
            <path class="cls-8" d="M777.0281,443.2417a15.4485,15.4485,0,1,1-7.94-6.9027" />
            <circle cx="759.9744" cy="454.28" r="3.3066" />
            <polyline class="cls-5" points="769.088 436.339 790.901 414.526 799.067 414.526 799.067 421.564 785.352 435.279 780.457 435.301 780.457 439.813 777.028 443.242" />
        </g>
        <path class="cls-15" d="M349,462.4047H612.0314a0,0,0,0,1,0,0v47.583a4,4,0,0,1-4,4H353a4,4,0,0,1-4-4v-47.583A0,0,0,0,1,349,462.4047Z" />
        <path class="cls-15" d="M134.5581,207.6718h115.07a0,0,0,0,1,0,0v34.3566a4,4,0,0,1-4,4h-107.07a4,4,0,0,1-4-4V207.6718A0,0,0,0,1,134.5581,207.6718Z" />
    </g>
    <g id="text">
        <text class="cls-16" transform="translate(292.7886 161.8996)">Hyper Protect Crypto Services</text>
        <text class="cls-16" transform="translate(718.6787 161.8996)">Service A</text>
        <text class="cls-17" transform="translate(315.4351 259.634)">Root key A</text>
        <text class="cls-17" transform="translate(411.8906 259.634)">Root key B</text>
        <text class="cls-17" transform="translate(511.3467 259.634)">Root key C</text>
        <text class="cls-17" transform="translate(731.4004 284.1506)">Wrapped DEK</text>
        <text class="cls-16" transform="translate(718.6787 386.7492)">Service B</text>
        <text class="cls-17" transform="translate(731.4004 508.9992)">Wrapped DEK</text>
        <text class="cls-16" transform="translate(134.7993 94.7693)">IBM Cloud</text>
        <text class="cls-18" transform="translate(46.1826 43.1858)">Integrating with Hyper Protect Crypto Services</text>
        <text class="cls-19" transform="translate(149.3872 228.4153)">Add root keys</text>
        <text class="cls-19" transform="translate(380.3979 482.6848)">
            Wrap your data encryption keys
            <tspan x="0" y="16.7998">with an added layer of security</tspan>
        </text>
        <text class="cls-16" transform="translate(391.2671 341.0012)">FIPS 140-2 Level 4</text>
        <text class="cls-17" transform="translate(866.6758 284.1506)">Wrapped data</text>
        <text class="cls-17" transform="translate(866.6758 508.9992)">Wrapped data</text>
        <text class="cls-17" transform="translate(392.344 363.2102)">Hardware security module</text>
    </g>
    <g id="Layer_4" data-name="Layer 4">
        <g id="lock-5" data-name="lock">
            <g id="lock-6" data-name="lock">
                <rect class="cls-20" x="792.5718" y="234.2492" width="9.2585" height="5.2906" />
                <path class="cls-13" d="M797.2011,250.1209v-3.7034m-5.2906-8.6368v-6.7058a4.0658,4.0658,0,0,1,.0529-.701,5.2872,5.2872,0,0,1,10.5282.701v6.7058m0,0c-.2115-.119-.4365-.238-.6613-.3439a10.4486,10.4486,0,0,0-4.6292-1.0713,10.9557,10.9557,0,0,0-2.3014.2513,10.5684,10.5684,0,0,0-2.3279.82c-.2248.1059-.45.2249-.6613.3439a10.5812,10.5812,0,1,0,10.5811,0Z" />
                <circle cx="797.2011" cy="246.4152" r="1.5872" />
            </g>
        </g>
        <path class="cls-12" d="M754.52,213.3383c-4.1928-6.5736-5.7667-11.9832-3.6108-14.1391,2.923-2.923,11.7979.992,21.4664,8.994q2.46,2.0237,4.96,4.3912c.6481.6084,1.2962,1.2432,1.9443,1.8913l.8333.8333c1.5871,1.6268,3.0817,3.2669,4.4573,4.8938a71.0729,71.0729,0,0,1,7.3935,10.1711" />
        <path class="cls-12" d="M787.44,242.8728a37.22,37.22,0,0,1-6.5735-3.3463" />
        <g id="lock-7" data-name="lock">
            <g id="lock-8" data-name="lock">
                <rect class="cls-20" x="792.5718" y="459.0981" width="9.2585" height="5.2906" />
                <path class="cls-13" d="M797.2011,474.97v-3.7034m-5.2906-8.6368v-6.7058a4.0658,4.0658,0,0,1,.0529-.701,5.2872,5.2872,0,0,1,10.5282.701V462.63m0,0c-.2115-.119-.4365-.238-.6613-.3439a10.4486,10.4486,0,0,0-4.6292-1.0713,10.9557,10.9557,0,0,0-2.3014.2513,10.5684,10.5684,0,0,0-2.3279.82c-.2248.1059-.45.2249-.6613.3439a10.5812,10.5812,0,1,0,10.5811,0Z" />
                <circle cx="797.2011" cy="471.2641" r="1.5872" />
            </g>
        </g>
        <path class="cls-12" d="M754.52,438.1872c-4.1928-6.5736-5.7667-11.9832-3.6108-14.1391,2.923-2.923,11.7979.992,21.4664,8.994q2.46,2.0237,4.96,4.3912c.6481.6084,1.2962,1.2432,1.9443,1.8913l.8333.8333c1.5871,1.6268,3.0817,3.2669,4.4573,4.8938a71.0729,71.0729,0,0,1,7.3935,10.1711" />
        <path class="cls-12" d="M787.44,467.7217a37.22,37.22,0,0,1-6.5735-3.3463" />
        <circle class="cls-21" cx="67.8341" cy="195.2973" r="7.9358" />
        <path class="cls-21" d="M81.7219,216.46v3.968H53.9464V216.46A11.9387,11.9387,0,0,1,65.85,204.5558h3.9679A11.9387,11.9387,0,0,1,81.7219,216.46Z" />
        <line class="cls-22" x1="114.7185" y1="78.8389" x2="114.7185" y2="561.6028" />
    </g>
</svg>