<svg xmlns="http://www.w3.org/2000/svg" width="1056" height="792" viewBox="0 0 1056 792">
    <defs>
        <style>.cls-1,.cls-20,.cls-22{fill:#fff;}.cls-1,.cls-13,.cls-14,.cls-15,.cls-16,.cls-17,.cls-19,.cls-20,.cls-21,.cls-23,.cls-24,.cls-25,.cls-26,.cls-27,.cls-3,.cls-36,.cls-4,.cls-5,.cls-6,.cls-7,.cls-8{stroke:#000;}.cls-1,.cls-23,.cls-24,.cls-25,.cls-26,.cls-27,.cls-28,.cls-30,.cls-32,.cls-34,.cls-36,.cls-9{stroke-miterlimit:10;}.cls-19,.cls-2{fill:#f2f4f8;}.cls-10,.cls-11,.cls-12,.cls-15,.cls-16,.cls-17,.cls-23,.cls-24,.cls-25,.cls-26,.cls-27,.cls-28,.cls-3,.cls-30,.cls-32,.cls-34,.cls-36,.cls-4,.cls-5,.cls-9{fill:none;}.cls-10,.cls-11,.cls-12,.cls-13,.cls-3,.cls-4,.cls-5,.cls-7,.cls-8,.cls-9{stroke-linecap:round;}.cls-10,.cls-11,.cls-12,.cls-13,.cls-14,.cls-15,.cls-16,.cls-17,.cls-19,.cls-20,.cls-21,.cls-3,.cls-4,.cls-5,.cls-6,.cls-7,.cls-8{stroke-linejoin:round;}.cls-4{stroke-dasharray:1.9911 2.9866;}.cls-5{stroke-dasharray:2.0041 3.0061;}.cls-6{fill:#e3f6ff;}.cls-7{fill:#d0b0ff;}.cls-13,.cls-7,.cls-8{stroke-width:0.5px;}.cls-8{fill:#87eded;}.cls-34,.cls-9{stroke:#6e32c9;}.cls-9{stroke-width:1.5px;}.cls-10,.cls-11,.cls-12{stroke:#9fa5ad;}.cls-11{stroke-dasharray:1.9913 1.9913;}.cls-12{stroke-dasharray:1.9694 1.9694;}.cls-13{fill:#dde1e6;}.cls-14{fill:#b3e6ff;}.cls-16{stroke-dasharray:1.9623 1.9623;}.cls-17{stroke-dasharray:1.9718 1.9718;}.cls-18{fill:#333;}.cls-21{fill:#dbfbfb;}.cls-23{stroke-width:2px;}.cls-25{stroke-dasharray:2 2;}.cls-26{stroke-dasharray:1.9663 1.9663;}.cls-27{stroke-dasharray:1.8859 1.8859;}.cls-28{stroke:#0072c3;}.cls-29{fill:#0072c3;}.cls-30{stroke:#d02670;}.cls-31{fill:#d02670;}.cls-32{stroke:#007d79;}.cls-33{fill:#007d79;}.cls-35{fill:#6e32c9;}.cls-36{stroke-dasharray:2.0105 2.0105;}.cls-37{font-size:14px;}.cls-37,.cls-39,.cls-40,.cls-41{font-family:IBMPlexSans-SemiBold, IBM Plex Sans;font-weight:600;}.cls-38,.cls-39,.cls-42{font-size:12px;}.cls-38{font-family:IBMPlexSans, IBM Plex Sans;}.cls-40{font-size:16px;}.cls-41{font-size:18px;}.cls-42{font-family:IBMPlexSans-Medium, IBM Plex Sans;font-weight:500;}</style>
    </defs>
    <g id="Figure">
        <rect class="cls-1" x="423.5" y="164.5476" width="504" height="544.5" />
        <rect class="cls-2" x="452" y="200" width="448" height="496" />
        <polyline class="cls-3" points="900 695 900 696 899 696" />
        <line class="cls-4" x1="896.0134" y1="696" x2="454.4933" y2="696" />
        <polyline class="cls-3" points="453 696 452 696 452 695" />
        <line class="cls-5" x1="452" y1="691.9939" x2="452" y2="202.503" />
        <polyline class="cls-3" points="452 201 452 200 453 200" />
        <line class="cls-4" x1="455.9866" y1="200" x2="897.5067" y2="200" />
        <polyline class="cls-3" points="899 200 900 200 900 201" />
        <line class="cls-5" x1="900" y1="204.0061" x2="900" y2="693.4969" />
        <rect class="cls-6" x="508.5" y="233.1665" width="101" height="401.1901" />
        <rect class="cls-6" x="501.5" y="241.6152" width="101" height="401.1901" />
        <rect class="cls-6" x="494.5" y="250.2033" width="101" height="399.9632" />
        <path class="cls-7" d="M584.14,46.3654a4.6721,4.6721,0,1,1-2.4979-1.971" />
        <circle cx="579.1466" cy="49.945" r="1.0452" />
        <polyline class="cls-7" points="581.642 44.394 587.918 37.491 590.385 37.374 590.486 39.5 586.54 43.84 585.061 43.918 585.126 45.28 584.14 46.365" />
        <path class="cls-8" d="M689.14,46.3654a4.6721,4.6721,0,1,1-2.4979-1.971" />
        <circle cx="684.1466" cy="49.945" r="1.0452" />
        <polyline class="cls-8" points="686.642 44.394 692.918 37.491 695.385 37.374 695.486 39.5 691.54 43.84 690.061 43.918 690.126 45.28 689.14 46.365" />
        <path class="cls-8" d="M590.14,90.7864a4.672,4.672,0,1,1-2.4979-1.9711" />
        <circle cx="585.1466" cy="94.366" r="1.0452" />
        <polyline class="cls-8" points="587.642 88.815 593.918 81.912 596.385 81.795 596.486 83.921 592.54 88.261 591.061 88.338 591.126 89.701 590.14 90.786" />
        <rect class="cls-9" x="575.9983" y="76.8478" width="26" height="26" rx="3" transform="translate(0.3009 -1.9511) rotate(0.1898)" />
        <polyline class="cls-10" points="1019.5 119.667 1019.5 120.667 1018.5 120.667" />
        <line class="cls-11" x1="1016.5087" y1="120.6665" x2="559.4957" y2="120.6665" />
        <polyline class="cls-10" points="558.5 120.667 557.5 120.667 557.5 119.667" />
        <line class="cls-12" x1="557.5" y1="117.6972" x2="557.5" y2="24.1512" />
        <polyline class="cls-10" points="557.5 23.167 557.5 22.167 558.5 22.167" />
        <line class="cls-11" x1="560.4913" y1="22.1665" x2="1017.5043" y2="22.1665" />
        <polyline class="cls-10" points="1018.5 22.167 1019.5 22.167 1019.5 23.167" />
        <line class="cls-12" x1="1019.5" y1="25.1359" x2="1019.5" y2="118.6819" />
        <path class="cls-13" d="M834.14,46.3654a4.6721,4.6721,0,1,1-2.4979-1.971" />
        <circle cx="829.1466" cy="49.945" r="1.0452" />
        <polyline class="cls-13" points="831.642 44.394 837.918 37.491 840.385 37.374 840.486 39.5 836.54 43.84 835.061 43.918 835.126 45.28 834.14 46.365" />
        <rect class="cls-9" x="782.9983" y="76.8478" width="26" height="26" rx="3" />
        <path class="cls-13" d="M797.147,90.79a4.6721,4.6721,0,1,1-2.5044-1.9628" />
        <circle cx="792.1659" cy="94.3862" r="1.0452" />
        <polyline class="cls-13" points="794.643 88.827 800.896 81.904 803.362 81.778 803.47 83.904 799.539 88.257 798.061 88.339 798.13 89.702 797.147 90.79" />
        <rect class="cls-6" x="756.5" y="250.1665" width="101" height="400" />
        <rect class="cls-14" x="506.3024" y="408.1665" width="77.1976" height="168" />
        <rect class="cls-14" x="766.3024" y="407.1665" width="77.1976" height="169" />
        <rect class="cls-2" x="628.5" y="249.6665" width="106" height="142" />
        <polyline class="cls-15" points="734.5 390.667 734.5 391.667 733.5 391.667" />
        <line class="cls-16" x1="731.5377" y1="391.6665" x2="630.4811" y2="391.6665" />
        <polyline class="cls-15" points="629.5 391.667 628.5 391.667 628.5 390.667" />
        <line class="cls-17" x1="628.5" y1="388.6947" x2="628.5" y2="251.6525" />
        <polyline class="cls-15" points="628.5 250.667 628.5 249.667 629.5 249.667" />
        <line class="cls-16" x1="631.4622" y1="249.6665" x2="732.5189" y2="249.6665" />
        <polyline class="cls-15" points="733.5 249.667 734.5 249.667 734.5 250.667" />
        <line class="cls-17" x1="734.5" y1="252.6384" x2="734.5" y2="389.6806" />
        <path class="cls-8" d="M639.0134,601.1961a6.2526,6.2526,0,1,1-3.3516-2.6269" />
        <circle cx="632.347" cy="606.0088" r="1.3988" />
        <polyline class="cls-8" points="635.662 598.569 644.03 589.303 647.331 589.135 647.476 591.98 642.214 597.806 640.236 597.916 640.329 599.74 639.013 601.196" />
        <circle class="cls-18" cx="36.5524" cy="398.2002" r="6" />
        <path class="cls-18" d="M47.0524,414.2v3h-21v-3a9.0265,9.0265,0,0,1,9-9h3A9.0265,9.0265,0,0,1,47.0524,414.2Z" />
        <rect class="cls-19" x="185.9057" y="435.1216" width="34.9999" height="85" transform="translate(681.0273 274.2158) rotate(90)" />
        <rect class="cls-19" x="185.9057" y="384.7115" width="34.9999" height="85" transform="translate(630.6171 223.8057) rotate(90)" />
        <rect class="cls-20" x="40.5" y="534.1666" width="35" height="80" transform="translate(632.1665 516.1664) rotate(90)" />
        <rect class="cls-21" x="515.5" y="484.6665" width="58" height="63.5" />
        <rect class="cls-21" x="506.3024" y="600.6665" width="77.1976" height="31" />
        <path class="cls-7" d="M547.34,458.3375a6.2527,6.2527,0,1,1-3.3516-2.6268" />
        <circle cx="540.674" cy="463.1502" r="1.3988" />
        <polyline class="cls-7" points="543.989 455.711 552.357 446.445 555.658 446.277 555.803 449.121 550.541 454.948 548.563 455.057 548.656 456.881 547.34 458.338" />
        <path class="cls-7" d="M807.34,458.3375a6.2527,6.2527,0,1,1-3.3516-2.6268" />
        <circle cx="800.674" cy="463.1502" r="1.3988" />
        <polyline class="cls-7" points="803.989 455.711 812.357 446.445 815.658 446.277 815.803 449.121 810.541 454.948 808.563 455.057 808.656 456.881 807.34 458.338" />
        <rect class="cls-19" x="190.5" y="536.6666" width="34.9999" height="75" transform="translate(782.1665 366.1665) rotate(90)" />
        <line class="cls-3" x1="659.174" y1="635.9741" x2="659.174" y2="596.6879" />
        <line class="cls-3" x1="704.1653" y1="635.9741" x2="704.1653" y2="596.2752" />
        <path class="cls-1" d="M704.1566,635.75c0,3.2877-10.2156,6.4337-22.59,6.4337s-22.4017-3.1419-22.4017-6.43" />
        <rect class="cls-22" x="659.5028" y="596.4715" width="44.3164" height="39.5027" />
        <ellipse class="cls-1" cx="681.661" cy="596.1897" rx="22.4956" ry="4.0063" />
        <rect class="cls-9" x="668.9645" y="606.4281" width="26" height="26" rx="3" />
        <rect class="cls-19" x="81" y="160.6665" width="106.9999" height="153" transform="translate(371.6665 102.6665) rotate(90)" />
        <path class="cls-13" d="M639.4871,501.614a6.2528,6.2528,0,1,1-3.3517-2.6268" />
        <circle cx="632.8207" cy="506.4268" r="1.3988" />
        <polyline class="cls-13" points="636.135 498.987 644.504 489.721 647.805 489.553 647.95 492.398 642.688 498.224 640.71 498.334 640.803 500.158 639.487 501.614" />
        <rect class="cls-21" x="506.587" y="305.6665" width="77.1976" height="77.5" />
        <line class="cls-3" x1="659.5693" y1="534.9741" x2="659.5693" y2="495.6879" />
        <line class="cls-3" x1="149.2807" y1="273.0239" x2="149.2807" y2="233.7377" />
        <line class="cls-3" x1="194.272" y1="273.0239" x2="194.272" y2="233.325" />
        <path class="cls-1" d="M194.2633,272.8c0,3.2877-10.2156,6.4337-22.59,6.4337s-22.4017-3.1419-22.4017-6.43" />
        <rect class="cls-22" x="149.6094" y="233.5213" width="44.3164" height="39.5027" />
        <ellipse class="cls-1" cx="171.7676" cy="233.2395" rx="22.4956" ry="4.0063" />
        <line class="cls-3" x1="704.5606" y1="534.9741" x2="704.5606" y2="495.2752" />
        <path class="cls-1" d="M704.5519,534.75c0,3.2877-10.2157,6.4337-22.59,6.4337s-22.4017-3.1419-22.4017-6.43" />
        <rect class="cls-22" x="659.898" y="495.4715" width="44.3164" height="39.5027" />
        <ellipse class="cls-1" cx="682.0562" cy="495.1897" rx="22.4956" ry="4.0063" />
        <path class="cls-8" d="M173.233,257.7788a4.672,4.672,0,1,1-2.4978-1.9711" />
        <circle cx="168.24" cy="261.3583" r="1.0452" />
        <polyline class="cls-8" points="170.735 255.808 177.011 248.905 179.478 248.787 179.579 250.913 175.633 255.254 174.155 255.331 174.22 256.694 173.233 257.779" />
        <path class="cls-13" d="M683.4361,519.0984a4.6721,4.6721,0,1,1-2.5044-1.9628" />
        <circle cx="678.4549" cy="522.6945" r="1.0452" />
        <polyline class="cls-13" points="680.932 517.136 687.185 510.212 689.651 510.086 689.759 512.212 685.828 516.565 684.35 516.647 684.419 518.01 683.436 519.098" />
        <path class="cls-8" d="M683.1263,620.729a4.672,4.672,0,1,1-2.4978-1.9711" />
        <circle cx="678.1333" cy="624.3085" r="1.0452" />
        <polyline class="cls-8" points="680.628 618.758 686.905 611.855 689.371 611.738 689.472 613.864 685.526 618.204 684.048 618.281 684.113 619.644 683.126 620.729" />
        <rect class="cls-9" x="669.1976" y="505.1665" width="26" height="26" rx="3" />
        <line class="cls-23" x1="269" y1="133.1665" x2="269" y2="767.1665" />
        <rect class="cls-19" x="333.9293" y="737.6665" width="685.0707" height="30" />
        <line class="cls-24" x1="676.4647" y1="738.1665" x2="676.4647" y2="713.4723" />
        <polygon points="679.456 714.348 676.465 709.167 673.473 714.348 679.456 714.348" />
        <line class="cls-25" x1="544.9012" y1="402.8608" x2="544.9012" y2="388.4723" />
        <polygon points="547.893 401.985 544.901 407.167 541.909 401.985 547.893 401.985" />
        <polygon points="547.893 389.348 544.901 384.167 541.909 389.348 547.893 389.348" />
        <line class="cls-24" x1="587.8057" y1="615.6665" x2="588.8057" y2="615.6665" />
        <line class="cls-26" x1="590.7721" y1="615.6665" x2="652.7111" y2="615.6665" />
        <line class="cls-24" x1="653.6943" y1="615.6665" x2="654.6943" y2="615.6665" />
        <polygon points="588.681 618.658 583.5 615.667 588.681 612.675 588.681 618.658" />
        <polygon points="653.819 618.658 659 615.667 653.819 612.675 653.819 618.658" />
        <line class="cls-25" x1="544.9012" y1="596.1108" x2="544.9012" y2="581.7223" />
        <polygon points="547.893 595.235 544.901 600.417 541.909 595.235 547.893 595.235" />
        <polygon points="547.893 582.598 544.901 577.417 541.909 582.598 547.893 582.598" />
        <line class="cls-24" x1="588.1345" y1="342.2762" x2="589.1345" y2="342.2762" />
        <line class="cls-27" x1="591.0204" y1="342.2762" x2="620.2513" y2="342.2762" />
        <line class="cls-24" x1="621.1943" y1="342.2762" x2="622.1943" y2="342.2762" />
        <polygon points="589.01 345.268 583.829 342.276 589.01 339.284 589.01 345.268" />
        <polygon points="621.319 345.268 626.5 342.276 621.319 339.284 621.319 345.268" />
        <line class="cls-25" x1="680.5" y1="300.9723" x2="680.5" y2="322.8608" />
        <polygon points="677.508 301.848 680.5 296.667 683.492 301.848 677.508 301.848" />
        <polygon points="677.508 321.985 680.5 327.167 683.492 321.985 677.508 321.985" />
        <line class="cls-28" x1="100" y1="573.9814" x2="165.1943" y2="573.6857" />
        <polygon class="cls-29" points="164.332 576.682 169.5 573.666 164.305 570.698 164.332 576.682" />
        <polyline class="cls-30" points="217.306 236.667 334.524 236.667 334.524 308.167 502.194 308.167" />
        <polygon class="cls-31" points="218.181 239.658 213 236.667 218.181 233.675 218.181 239.658" />
        <polygon class="cls-31" points="501.319 311.158 506.5 308.167 501.319 305.175 501.319 311.158" />
        <polyline class="cls-32" points="501.694 618.762 58 618.762 58 593.762" />
        <polygon class="cls-33" points="500.819 615.77 506 618.762 500.819 621.754 500.819 615.77" />
        <line class="cls-34" x1="247" y1="427.6665" x2="501.6943" y2="427.6665" />
        <polygon class="cls-35" points="500.819 430.658 506 427.667 500.819 424.675 500.819 430.658" />
        <line class="cls-34" x1="247" y1="477.6665" x2="501.6943" y2="477.6665" />
        <polygon class="cls-35" points="500.819 480.658 506 477.667 500.819 474.675 500.819 480.658" />
        <polyline class="cls-34" points="155.29 427.487 58 427.487 58 452.487" />
        <polygon class="cls-35" points="154.414 424.495 159.595 427.487 154.414 430.479 154.414 424.495" />
        <polyline class="cls-30" points="501.694 382.064 58 382.064 58 357.064" />
        <polygon class="cls-31" points="500.819 379.072 506 382.064 500.819 385.055 500.819 379.072" />
        <polyline class="cls-30" points="290.694 333.872 58 333.872 58 358.872" />
        <polygon class="cls-31" points="289.819 330.88 295 333.872 289.819 336.864 289.819 330.88" />
        <polyline class="cls-30" points="58 357.658 36.812 357.658 36.812 391.167" />
        <polyline class="cls-34" points="58 452.667 36.812 452.667 36.812 419.167" />
        <line class="cls-24" x1="577.8057" y1="516.6665" x2="578.8057" y2="516.6665" />
        <line class="cls-36" x1="580.8163" y1="516.6665" x2="652.189" y2="516.6665" />
        <line class="cls-24" x1="653.1943" y1="516.6665" x2="654.1943" y2="516.6665" />
        <polygon points="578.681 519.658 573.5 516.667 578.681 513.675 578.681 519.658" />
        <polygon points="653.319 519.658 658.5 516.667 653.319 513.675 653.319 519.658" />
        <polyline class="cls-28" points="501.694 529.56 58 529.56 58 554.56" />
        <polygon class="cls-29" points="500.819 526.568 506 529.56 500.819 532.552 500.819 526.568" />
        <line class="cls-30" x1="371.4999" y1="333.8678" x2="501.6942" y2="333.8678" />
        <polygon class="cls-31" points="500.819 336.86 506 333.868 500.819 330.876 500.819 336.86" />
        <polyline class="cls-34" points="155.694 477.667 58 477.667 58 452.667" />
        <polygon class="cls-35" points="154.819 474.675 160 477.667 154.819 480.658 154.819 474.675" />
        <line class="cls-28" x1="247.5" y1="572.6665" x2="501.6943" y2="572.6665" />
        <polygon class="cls-29" points="500.819 575.658 506 572.667 500.819 569.675 500.819 575.658" />
        <rect class="cls-19" x="328.0001" y="271.1666" width="34.9999" height="125.9999" transform="translate(679.6666 -11.3335) rotate(90)" />
        <path class="cls-8" d="M682.7071,268.4961a4.672,4.672,0,1,1-2.4978-1.9711" />
        <circle cx="677.7141" cy="272.0756" r="1.0452" />
        <polyline class="cls-8" points="680.209 266.525 686.485 259.622 688.952 259.505 689.053 261.631 685.107 265.971 683.629 266.048 683.694 267.411 682.707 268.496" />
        <line class="cls-3" x1="659.1475" y1="376.184" x2="659.1475" y2="336.8977" />
        <line class="cls-3" x1="704.1388" y1="376.184" x2="704.1388" y2="336.4851" />
        <path class="cls-1" d="M704.13,375.96c0,3.2878-10.2156,6.4337-22.59,6.4337s-22.4017-3.1419-22.4017-6.43" />
        <rect class="cls-22" x="659.4762" y="336.6813" width="44.3164" height="39.5027" />
        <ellipse class="cls-1" cx="681.6345" cy="336.3995" rx="22.4956" ry="4.0063" />
        <rect class="cls-9" x="668.938" y="346.638" width="26" height="26" rx="3" />
        <path class="cls-8" d="M683.1,360.9388a4.672,4.672,0,1,1-2.4978-1.9711" />
        <circle cx="678.1068" cy="364.5183" r="1.0452" />
        <polyline class="cls-8" points="680.602 358.968 686.878 352.065 689.345 351.947 689.446 354.073 685.5 358.414 684.021 358.491 684.086 359.854 683.1 360.939" />
    </g>
    <g id="Text">
        <text class="cls-37" transform="translate(592.69 756.7935)">IBM Z/LinuxONE platform</text>
        <text class="cls-37" transform="translate(549.5074 187.8232)">Hyper Protect Crypto Services instance</text>
        <text class="cls-38" transform="translate(596.8899 48.9517) rotate(0.1897)">Master Key</text>
        <text class="cls-38" transform="translate(701.6554 48.882) rotate(0.1897)">Root/Standard Key</text>
        <text class="cls-38" transform="translate(617.8692 86.0451) rotate(0.1897)">Master key-protected key</text>
        <text class="cls-38" transform="translate(824.8692 86.0086) rotate(0.1897)">Master key-protected key</text>
        <text class="cls-38" transform="translate(72.9398 473.7002)">Cloud CLI</text>
        <text class="cls-38" transform="translate(72.94 421.7002)">GUI</text>
        <text class="cls-39" transform="translate(167.209 424.9392)">
            Management
            <tspan x="14.4961" y="14.4004">Utilities</tspan>
        </text>
        <text class="cls-39" transform="translate(181.3262 474.9392)">
            TKE CLI
            <tspan x="2.3223" y="14.4004">plug-in</tspan>
        </text>
        <text class="cls-39" transform="translate(511.53 270.4243)">
            Operational
            <tspan x="2.6821" y="14.3999">crypto unit</tspan>
        </text>
        <text class="cls-39" transform="translate(633.9994 659.2002)">
            Key management
            <tspan x="24.4199" y="14.3999">keystore</tspan>
        </text>
        <text class="cls-40" transform="translate(293.9331 154.216)">IBM Cloud</text>
        <text class="cls-41" transform="translate(23.8115 37.1631)">Interaction with Hyper Protect Crypto Services components</text>
        <text class="cls-38" transform="translate(847.6231 48.7878) rotate(0.1897)">PKCS #11 API-generated key</text>
        <text class="cls-38" transform="translate(72.748 612.7002)">Key management service API</text>
        <text class="cls-38" transform="translate(72.9402 524.2002)">GREP11 API</text>
        <text class="cls-39" transform="translate(23.2617 577.8721)">Applications</text>
        <text class="cls-38" transform="translate(105.8312 557.003)">
            PKCS #11
            <tspan x="17.6636" y="14.3999">API</tspan>
        </text>
        <text class="cls-39" transform="translate(180.8228 571.8632)">
            PKCS #11
            <tspan x="9.75" y="14.4004">library</tspan>
        </text>
        <text class="cls-39" transform="translate(781.6038 270.4243)">
            Recovery
            <tspan x="-4.3916" y="14.3999">crypto unit</tspan>
        </text>
        <text class="cls-42" transform="translate(532.4778 620.9331)">KMS</text>
        <text class="cls-39" transform="translate(514.9958 429.4331)">Cloud HSM</text>
        <text class="cls-42" transform="translate(775.3079 429.4331)">Cloud HSM</text>
        <text class="cls-42" transform="translate(529.3894 520.9331)">EP11</text>
        <text class="cls-39" transform="translate(642.3573 556.7298)">EP11 keystore</text>
        <text class="cls-42" transform="translate(532.8463 349.3064)">UKO</text>
        <text class="cls-39" transform="translate(293.1665 337.4638)">IBM Cloud UI</text>
        <text class="cls-38" transform="translate(72.9399 325.5528)">GUI</text>
        <text class="cls-38" transform="translate(70.0845 376.4285)">Unified Key Orchestrator (UKO) API</text>
        <text class="cls-37" transform="translate(66.7891 207.3157)">Third-party cloud</text>
        <text class="cls-38" transform="translate(89.3257 248.25)">
            External
            <tspan x="-0.9482" y="14.3999">keystore</tspan>
        </text>
        <text class="cls-39" transform="translate(666.7822 408.6157)">Vault</text>
        <text class="cls-38" transform="translate(648.0048 289.8273)">Managed key</text>
        <text class="cls-38" transform="translate(615.9735 102.758)">(root/standard key)</text>
        <text class="cls-38" transform="translate(824.5721 102.758)">(generated by PKCS #11 API)</text>
    </g>
</svg>