<svg width="1120" height="450" viewBox="0 0 1120 450" fill="none" xmlns="http://www.w3.org/2000/svg">
<rect width="1120" height="450" fill="white"/>
<rect x="369" y="151" width="71" height="36" fill="#D9D9D9"/>
<rect x="830" y="167" width="173" height="41" fill="#D9D9D9"/>
<rect x="41.5" y="90.5" width="414" height="285" stroke="#0F62FE"/>
<rect x="42" y="91" width="413" height="284" fill="white"/>
<rect x="42" y="91" width="413" height="284" fill="#EDF5FF"/>
<g clip-path="url(#clip0_2_3891)">
<path d="M112.07 119V114.87H107.996V119H106.148V109.228H107.996V113.232H112.07V109.228H113.918V119H112.07ZM119.464 115.556L120.739 111.692H122.418L119.479 120.302C119.115 121.352 118.597 121.8 117.392 121.8H116.314V120.372H117.63L117.966 119.35L115.348 111.692H117.126L118.401 115.556L118.876 117.404H118.961L119.464 115.556ZM123.76 121.8V111.692H125.552V112.896H125.608C125.874 112.056 126.658 111.524 127.624 111.524C129.472 111.524 130.494 112.896 130.494 115.332C130.494 117.782 129.472 119.168 127.624 119.168C126.658 119.168 125.888 118.608 125.608 117.782H125.552V121.8H123.76ZM127.05 117.684C127.974 117.684 128.618 117.012 128.618 115.976V114.716C128.618 113.68 127.974 112.994 127.05 112.994C126.196 112.994 125.552 113.456 125.552 114.17V116.494C125.552 117.25 126.196 117.684 127.05 117.684ZM135.269 119.168C133.113 119.168 131.825 117.67 131.825 115.332C131.825 113.022 133.071 111.524 135.213 111.524C137.495 111.524 138.545 113.204 138.545 115.206V115.794H133.687V115.976C133.687 117.026 134.289 117.74 135.465 117.74C136.347 117.74 136.879 117.32 137.327 116.746L138.293 117.824C137.691 118.65 136.627 119.168 135.269 119.168ZM135.241 112.868C134.303 112.868 133.687 113.568 133.687 114.576V114.688H136.683V114.562C136.683 113.554 136.165 112.868 135.241 112.868ZM142.073 119H140.281V111.692H142.073V113.204H142.143C142.325 112.434 142.913 111.692 144.075 111.692H144.467V113.386H143.907C142.703 113.386 142.073 113.722 142.073 114.52V119ZM151.366 119H149.518V109.228H153.914C155.72 109.228 156.812 110.446 156.812 112.252C156.812 114.072 155.72 115.276 153.914 115.276H151.366V119ZM151.366 110.838V113.68H153.746C154.46 113.68 154.894 113.288 154.894 112.574V111.93C154.894 111.216 154.46 110.838 153.746 110.838H151.366ZM160.19 119H158.398V111.692H160.19V113.204H160.26C160.442 112.434 161.03 111.692 162.192 111.692H162.584V113.386H162.024C160.82 113.386 160.19 113.722 160.19 114.52V119ZM166.884 119.168C164.798 119.168 163.496 117.684 163.496 115.332C163.496 112.994 164.798 111.524 166.884 111.524C168.984 111.524 170.286 112.994 170.286 115.332C170.286 117.684 168.984 119.168 166.884 119.168ZM166.884 117.726C167.822 117.726 168.41 117.124 168.41 116.018V114.66C168.41 113.568 167.822 112.966 166.884 112.966C165.96 112.966 165.372 113.568 165.372 114.66V116.018C165.372 117.124 165.96 117.726 166.884 117.726ZM174.262 119C173.03 119 172.372 118.328 172.372 117.138V113.12H171.294V111.692H171.854C172.386 111.692 172.554 111.44 172.554 110.936V109.69H174.164V111.692H175.662V113.12H174.164V117.572H175.55V119H174.262ZM180.276 119.168C178.12 119.168 176.832 117.67 176.832 115.332C176.832 113.022 178.078 111.524 180.22 111.524C182.502 111.524 183.552 113.204 183.552 115.206V115.794H178.694V115.976C178.694 117.026 179.296 117.74 180.472 117.74C181.354 117.74 181.886 117.32 182.334 116.746L183.3 117.824C182.698 118.65 181.634 119.168 180.276 119.168ZM180.248 112.868C179.31 112.868 178.694 113.568 178.694 114.576V114.688H181.69V114.562C181.69 113.554 181.172 112.868 180.248 112.868ZM188.172 119.168C186.016 119.168 184.798 117.684 184.798 115.332C184.798 112.994 186.016 111.524 188.172 111.524C189.642 111.524 190.608 112.224 191.042 113.372L189.572 114.03C189.404 113.414 188.942 112.966 188.172 112.966C187.178 112.966 186.674 113.666 186.674 114.688V116.018C186.674 117.04 187.178 117.726 188.172 117.726C189.026 117.726 189.446 117.236 189.712 116.578L191.084 117.236C190.608 118.524 189.586 119.168 188.172 119.168ZM194.908 119C193.676 119 193.018 118.328 193.018 117.138V113.12H191.94V111.692H192.5C193.032 111.692 193.2 111.44 193.2 110.936V109.69H194.81V111.692H196.308V113.12H194.81V117.572H196.196V119H194.908ZM205.397 119.168C202.821 119.168 201.183 117.474 201.183 114.184C201.183 110.894 202.821 109.06 205.397 109.06C207.147 109.06 208.281 109.802 208.967 111.314L207.385 112.154C207.105 111.286 206.489 110.698 205.397 110.698C204.025 110.698 203.143 111.692 203.143 113.358V114.898C203.143 116.578 204.025 117.53 205.397 117.53C206.503 117.53 207.189 116.858 207.511 115.976L209.009 116.858C208.309 118.314 207.147 119.168 205.397 119.168ZM212.425 119H210.633V111.692H212.425V113.204H212.495C212.677 112.434 213.265 111.692 214.427 111.692H214.819V113.386H214.259C213.055 113.386 212.425 113.722 212.425 114.52V119ZM219.605 115.556L220.879 111.692H222.559L219.619 120.302C219.255 121.352 218.737 121.8 217.533 121.8H216.455V120.372H217.771L218.107 119.35L215.489 111.692H217.267L218.541 115.556L219.017 117.404H219.101L219.605 115.556ZM223.901 121.8V111.692H225.693V112.896H225.749C226.015 112.056 226.799 111.524 227.765 111.524C229.613 111.524 230.635 112.896 230.635 115.332C230.635 117.782 229.613 119.168 227.765 119.168C226.799 119.168 226.029 118.608 225.749 117.782H225.693V121.8H223.901ZM227.191 117.684C228.115 117.684 228.759 117.012 228.759 115.976V114.716C228.759 113.68 228.115 112.994 227.191 112.994C226.337 112.994 225.693 113.456 225.693 114.17V116.494C225.693 117.25 226.337 117.684 227.191 117.684ZM234.655 119C233.423 119 232.765 118.328 232.765 117.138V113.12H231.687V111.692H232.247C232.779 111.692 232.947 111.44 232.947 110.936V109.69H234.557V111.692H236.055V113.12H234.557V117.572H235.943V119H234.655ZM240.613 119.168C238.527 119.168 237.225 117.684 237.225 115.332C237.225 112.994 238.527 111.524 240.613 111.524C242.713 111.524 244.015 112.994 244.015 115.332C244.015 117.684 242.713 119.168 240.613 119.168ZM240.613 117.726C241.551 117.726 242.139 117.124 242.139 116.018V114.66C242.139 113.568 241.551 112.966 240.613 112.966C239.689 112.966 239.101 113.568 239.101 114.66V116.018C239.101 117.124 239.689 117.726 240.613 117.726ZM252.382 119.168C250.716 119.168 249.568 118.51 248.742 117.544L249.988 116.34C250.66 117.124 251.486 117.544 252.494 117.544C253.628 117.544 254.216 116.998 254.216 116.172C254.216 115.514 253.908 115.108 252.886 114.926L251.962 114.786C249.988 114.478 249.036 113.54 249.036 111.944C249.036 110.194 250.394 109.06 252.578 109.06C254.048 109.06 255.14 109.564 255.924 110.502L254.664 111.692C254.188 111.09 253.516 110.684 252.48 110.684C251.43 110.684 250.884 111.104 250.884 111.832C250.884 112.574 251.304 112.882 252.242 113.05L253.152 113.218C255.126 113.568 256.05 114.45 256.05 116.06C256.05 117.908 254.72 119.168 252.382 119.168ZM260.905 119.168C258.749 119.168 257.461 117.67 257.461 115.332C257.461 113.022 258.707 111.524 260.849 111.524C263.131 111.524 264.181 113.204 264.181 115.206V115.794H259.323V115.976C259.323 117.026 259.925 117.74 261.101 117.74C261.983 117.74 262.515 117.32 262.963 116.746L263.929 117.824C263.327 118.65 262.263 119.168 260.905 119.168ZM260.877 112.868C259.939 112.868 259.323 113.568 259.323 114.576V114.688H262.319V114.562C262.319 113.554 261.801 112.868 260.877 112.868ZM267.709 119H265.917V111.692H267.709V113.204H267.779C267.961 112.434 268.549 111.692 269.711 111.692H270.103V113.386H269.543C268.339 113.386 267.709 113.722 267.709 114.52V119ZM275.379 119H273.251L270.815 111.692H272.579L273.601 114.842L274.315 117.446H274.413L275.127 114.842L276.121 111.692H277.829L275.379 119ZM280.08 110.628C279.338 110.628 279.03 110.25 279.03 109.732V109.452C279.03 108.934 279.338 108.556 280.08 108.556C280.808 108.556 281.13 108.934 281.13 109.452V109.732C281.13 110.25 280.808 110.628 280.08 110.628ZM279.184 119V111.692H280.976V119H279.184ZM286.098 119.168C283.942 119.168 282.724 117.684 282.724 115.332C282.724 112.994 283.942 111.524 286.098 111.524C287.568 111.524 288.534 112.224 288.968 113.372L287.498 114.03C287.33 113.414 286.868 112.966 286.098 112.966C285.104 112.966 284.6 113.666 284.6 114.688V116.018C284.6 117.04 285.104 117.726 286.098 117.726C286.952 117.726 287.372 117.236 287.638 116.578L289.01 117.236C288.534 118.524 287.512 119.168 286.098 119.168ZM293.437 119.168C291.281 119.168 289.993 117.67 289.993 115.332C289.993 113.022 291.239 111.524 293.381 111.524C295.663 111.524 296.713 113.204 296.713 115.206V115.794H291.855V115.976C291.855 117.026 292.457 117.74 293.633 117.74C294.515 117.74 295.047 117.32 295.495 116.746L296.461 117.824C295.859 118.65 294.795 119.168 293.437 119.168ZM293.409 112.868C292.471 112.868 291.855 113.568 291.855 114.576V114.688H294.851V114.562C294.851 113.554 294.333 112.868 293.409 112.868ZM300.844 119.168C299.458 119.168 298.548 118.664 297.82 117.824L298.912 116.76C299.444 117.376 300.088 117.754 300.914 117.754C301.768 117.754 302.132 117.432 302.132 116.914C302.132 116.494 301.88 116.228 301.236 116.144L300.508 116.046C298.94 115.85 298.072 115.164 298.072 113.834C298.072 112.42 299.178 111.524 300.844 111.524C302.272 111.524 303 111.944 303.7 112.672L302.65 113.722C302.23 113.274 301.614 112.938 300.9 112.938C300.13 112.938 299.794 113.246 299.794 113.694C299.794 114.184 300.06 114.408 300.746 114.52L301.488 114.618C303.084 114.842 303.854 115.556 303.854 116.774C303.854 118.188 302.664 119.168 300.844 119.168Z" fill="black"/>
<rect width="48" height="48" transform="translate(41 90)" fill="#0F62FE"/>
<rect width="24" height="24" transform="translate(53 102)" fill="white" fill-opacity="0.01" style="mix-blend-mode:multiply"/>
<path d="M71.75 124.5L70.175 123.75C68.9 123.15 68 121.8 68 120.375V115.5H75.5V120.375C75.5 121.8 74.675 123.15 73.325 123.75L71.75 124.5ZM69.5 117V120.375C69.5 121.275 70.025 122.025 70.775 122.4L71.75 122.85L72.725 122.4C73.475 122.025 74 121.2 74 120.375V117H69.5Z" fill="white"/>
<path d="M69.5 111C70.3284 111 71 110.328 71 109.5C71 108.672 70.3284 108 69.5 108C68.6716 108 68 108.672 68 109.5C68 110.328 68.6716 111 69.5 111Z" fill="white"/>
<path d="M68.75 103.5C65 103.5 62 106.5 62 110.25C62 110.925 62.075 111.6 62.3 112.2L54.5 120V124.5H59L66.5 117L65.45 115.95L63.35 118.05L62.3 117L61.25 118.05L62.3 119.1L61.1 120.3L60.05 119.25L59 120.3L60.05 121.35L58.4 123H56V120.6L63.95 112.65L63.725 111.75C63.575 111.225 63.5 110.775 63.5 110.25C63.5 107.325 65.825 105 68.75 105C71.675 105 74 107.325 74 110.25C74 111.375 73.625 112.425 73.025 113.25H74.75C75.2 112.35 75.425 111.3 75.425 110.25C75.5 106.5 72.5 103.5 68.75 103.5Z" fill="white"/>
</g>
<rect x="105.5" y="138.5" width="226" height="166" stroke="#0F62FE"/>
<rect x="106" y="139" width="225" height="165" fill="white"/>
<g clip-path="url(#clip1_2_3891)">
<path d="M158.654 167H156.806V157.228H163.092V158.866H158.654V161.232H162.518V162.87H158.654V167ZM169.078 167H164.64V165.516H165.928V158.712H164.64V157.228H169.078V158.712H167.776V165.516H169.078V167ZM172.974 167H171.126V157.228H175.522C177.328 157.228 178.42 158.446 178.42 160.252C178.42 162.072 177.328 163.276 175.522 163.276H172.974V167ZM172.974 158.838V161.68H175.354C176.068 161.68 176.502 161.288 176.502 160.574V159.93C176.502 159.216 176.068 158.838 175.354 158.838H172.974ZM183.197 167.168C181.531 167.168 180.383 166.51 179.557 165.544L180.803 164.34C181.475 165.124 182.301 165.544 183.309 165.544C184.443 165.544 185.031 164.998 185.031 164.172C185.031 163.514 184.723 163.108 183.701 162.926L182.777 162.786C180.803 162.478 179.851 161.54 179.851 159.944C179.851 158.194 181.209 157.06 183.393 157.06C184.863 157.06 185.955 157.564 186.739 158.502L185.479 159.692C185.003 159.09 184.331 158.684 183.295 158.684C182.245 158.684 181.699 159.104 181.699 159.832C181.699 160.574 182.119 160.882 183.057 161.05L183.967 161.218C185.941 161.568 186.865 162.45 186.865 164.06C186.865 165.908 185.535 167.168 183.197 167.168ZM199.206 167H192.472V165.502H195.16V158.558H195.034L192.906 161.078L191.758 160.112L194.18 157.228H196.966V165.502H199.206V167ZM206.374 167H204.624V165.11H200.2V163.542L204.092 157.228H206.374V163.682H207.648V165.11H206.374V167ZM204.512 159.02L201.712 163.682H204.624V159.02H204.512ZM212.507 167.168C210.015 167.168 208.867 165.306 208.867 162.114C208.867 158.922 210.015 157.06 212.507 157.06C214.999 157.06 216.147 158.922 216.147 162.114C216.147 165.306 214.999 167.168 212.507 167.168ZM212.507 165.614C213.753 165.614 214.187 164.606 214.187 162.996V161.232C214.187 159.622 213.753 158.614 212.507 158.614C211.261 158.614 210.827 159.622 210.827 161.232V162.996C210.827 164.606 211.261 165.614 212.507 165.614ZM221.677 163.626H217.673V161.848H221.677V163.626ZM230.298 165.446V167H223.522V165.292L226.588 162.604C227.624 161.694 228.1 161.022 228.1 160.168V159.986C228.1 159.132 227.456 158.656 226.658 158.656C225.65 158.656 225.174 159.314 224.95 160.112L223.354 159.496C223.774 158.194 224.824 157.06 226.812 157.06C228.87 157.06 230.046 158.292 230.046 159.972C230.046 161.596 228.94 162.632 227.582 163.752L225.524 165.446H230.298ZM241.523 167H235.825V157.228H237.673V165.362H241.523V167ZM245.991 167.168C243.835 167.168 242.547 165.67 242.547 163.332C242.547 161.022 243.793 159.524 245.935 159.524C248.217 159.524 249.267 161.204 249.267 163.206V163.794H244.409V163.976C244.409 165.026 245.011 165.74 246.187 165.74C247.069 165.74 247.601 165.32 248.049 164.746L249.015 165.824C248.413 166.65 247.349 167.168 245.991 167.168ZM245.963 160.868C245.025 160.868 244.409 161.568 244.409 162.576V162.688H247.405V162.562C247.405 161.554 246.887 160.868 245.963 160.868ZM254.577 167H252.449L250.013 159.692H251.777L252.799 162.842L253.513 165.446H253.611L254.325 162.842L255.319 159.692H257.027L254.577 167ZM261.227 167.168C259.071 167.168 257.783 165.67 257.783 163.332C257.783 161.022 259.029 159.524 261.171 159.524C263.453 159.524 264.503 161.204 264.503 163.206V163.794H259.645V163.976C259.645 165.026 260.247 165.74 261.423 165.74C262.305 165.74 262.837 165.32 263.285 164.746L264.251 165.824C263.649 166.65 262.585 167.168 261.227 167.168ZM261.199 160.868C260.261 160.868 259.645 161.568 259.645 162.576V162.688H262.641V162.562C262.641 161.554 262.123 160.868 261.199 160.868ZM268.998 167H268.032C266.814 167 266.24 166.356 266.24 165.236V156.64H268.032V165.572H268.998V167ZM279.57 167H277.82V165.11H273.396V163.542L277.288 157.228H279.57V163.682H280.844V165.11H279.57V167ZM277.708 159.02L274.908 163.682H277.82V159.02H277.708ZM212.119 185V180.87H208.045V185H206.197V175.228H208.045V179.232H212.119V175.228H213.967V185H212.119ZM219.457 185.168C217.791 185.168 216.643 184.51 215.817 183.544L217.063 182.34C217.735 183.124 218.561 183.544 219.569 183.544C220.703 183.544 221.291 182.998 221.291 182.172C221.291 181.514 220.983 181.108 219.961 180.926L219.037 180.786C217.063 180.478 216.111 179.54 216.111 177.944C216.111 176.194 217.469 175.06 219.653 175.06C221.123 175.06 222.215 175.564 222.999 176.502L221.739 177.692C221.263 177.09 220.591 176.684 219.555 176.684C218.505 176.684 217.959 177.104 217.959 177.832C217.959 178.574 218.379 178.882 219.317 179.05L220.227 179.218C222.201 179.568 223.125 180.45 223.125 182.06C223.125 183.908 221.795 185.168 219.457 185.168ZM225.138 185V175.228H227.224L229.73 180.002H229.786L232.264 175.228H234.266V185H232.516V177.986H232.46L231.704 179.54L229.702 183.236L227.7 179.54L226.944 177.986H226.888V185H225.138Z" fill="black"/>
</g>
<rect x="814.5" y="90.5" width="263" height="271" stroke="#0F62FE"/>
<rect x="815" y="91" width="262" height="270" fill="white"/>
<rect x="815" y="91" width="262" height="270" fill="#EDF5FF"/>
<g clip-path="url(#clip2_2_3891)">
<path d="M882.186 119.168C880.52 119.168 879.372 118.51 878.546 117.544L879.792 116.34C880.464 117.124 881.29 117.544 882.298 117.544C883.432 117.544 884.02 116.998 884.02 116.172C884.02 115.514 883.712 115.108 882.69 114.926L881.766 114.786C879.792 114.478 878.84 113.54 878.84 111.944C878.84 110.194 880.198 109.06 882.382 109.06C883.852 109.06 884.944 109.564 885.728 110.502L884.468 111.692C883.992 111.09 883.32 110.684 882.284 110.684C881.234 110.684 880.688 111.104 880.688 111.832C880.688 112.574 881.108 112.882 882.046 113.05L882.956 113.218C884.93 113.568 885.854 114.45 885.854 116.06C885.854 117.908 884.524 119.168 882.186 119.168ZM889.982 119C888.75 119 888.092 118.328 888.092 117.138V113.12H887.014V111.692H887.574C888.106 111.692 888.274 111.44 888.274 110.936V109.69H889.884V111.692H891.382V113.12H889.884V117.572H891.27V119H889.982ZM895.94 119.168C893.854 119.168 892.552 117.684 892.552 115.332C892.552 112.994 893.854 111.524 895.94 111.524C898.04 111.524 899.342 112.994 899.342 115.332C899.342 117.684 898.04 119.168 895.94 119.168ZM895.94 117.726C896.878 117.726 897.466 117.124 897.466 116.018V114.66C897.466 113.568 896.878 112.966 895.94 112.966C895.016 112.966 894.428 113.568 894.428 114.66V116.018C894.428 117.124 895.016 117.726 895.94 117.726ZM902.882 119H901.09V111.692H902.882V113.204H902.952C903.134 112.434 903.722 111.692 904.884 111.692H905.276V113.386H904.716C903.512 113.386 902.882 113.722 902.882 114.52V119ZM908.402 119.168C906.918 119.168 906.078 118.314 906.078 117.012C906.078 115.514 907.212 114.772 909.2 114.772H910.446V114.24C910.446 113.428 910.04 112.952 909.088 112.952C908.248 112.952 907.772 113.372 907.422 113.876L906.358 112.924C906.89 112.084 907.744 111.524 909.214 111.524C911.188 111.524 912.238 112.462 912.238 114.128V117.572H912.966V119H911.972C911.202 119 910.726 118.496 910.614 117.74H910.53C910.292 118.678 909.494 119.168 908.402 119.168ZM909.004 117.866C909.802 117.866 910.446 117.502 910.446 116.816V115.85H909.298C908.36 115.85 907.898 116.172 907.898 116.746V116.984C907.898 117.572 908.304 117.866 909.004 117.866ZM921.17 119.616C921.17 121.142 920.134 121.968 917.334 121.968C914.87 121.968 913.932 121.324 913.932 120.246C913.932 119.434 914.422 118.972 915.234 118.846V118.692C914.632 118.538 914.296 118.062 914.296 117.474C914.296 116.718 914.94 116.34 915.64 116.186V116.13C914.758 115.724 914.31 114.968 914.31 114.002C914.31 112.518 915.36 111.524 917.334 111.524C917.782 111.524 918.244 111.58 918.608 111.706V111.468C918.608 110.754 918.972 110.404 919.644 110.404H920.778V111.776H919.224V111.972C919.98 112.392 920.358 113.106 920.358 114.002C920.358 115.472 919.322 116.452 917.334 116.452C916.914 116.452 916.536 116.41 916.214 116.326C915.934 116.452 915.696 116.662 915.696 116.984C915.696 117.348 916.004 117.53 916.648 117.53H918.608C920.4 117.53 921.17 118.3 921.17 119.616ZM919.49 119.826C919.49 119.364 919.154 119.084 918.244 119.084H915.752C915.486 119.28 915.374 119.546 915.374 119.84C915.374 120.4 915.794 120.736 916.914 120.736H917.81C918.972 120.736 919.49 120.442 919.49 119.826ZM917.334 115.234C918.188 115.234 918.65 114.842 918.65 114.114V113.876C918.65 113.134 918.188 112.756 917.334 112.756C916.48 112.756 916.018 113.134 916.018 113.876V114.114C916.018 114.842 916.48 115.234 917.334 115.234ZM925.237 119.168C923.081 119.168 921.793 117.67 921.793 115.332C921.793 113.022 923.039 111.524 925.181 111.524C927.463 111.524 928.513 113.204 928.513 115.206V115.794H923.655V115.976C923.655 117.026 924.257 117.74 925.433 117.74C926.315 117.74 926.847 117.32 927.295 116.746L928.261 117.824C927.659 118.65 926.595 119.168 925.237 119.168ZM925.209 112.868C924.271 112.868 923.655 113.568 923.655 114.576V114.688H926.651V114.562C926.651 113.554 926.133 112.868 925.209 112.868ZM936.112 119.168C934.726 119.168 933.816 118.664 933.088 117.824L934.18 116.76C934.712 117.376 935.356 117.754 936.182 117.754C937.036 117.754 937.4 117.432 937.4 116.914C937.4 116.494 937.148 116.228 936.504 116.144L935.776 116.046C934.208 115.85 933.34 115.164 933.34 113.834C933.34 112.42 934.446 111.524 936.112 111.524C937.54 111.524 938.268 111.944 938.968 112.672L937.918 113.722C937.498 113.274 936.882 112.938 936.168 112.938C935.398 112.938 935.062 113.246 935.062 113.694C935.062 114.184 935.328 114.408 936.014 114.52L936.756 114.618C938.352 114.842 939.122 115.556 939.122 116.774C939.122 118.188 937.932 119.168 936.112 119.168ZM945.233 119V117.782H945.163C944.911 118.51 944.323 119.168 943.119 119.168C941.621 119.168 940.781 118.132 940.781 116.312V111.692H942.573V116.13C942.573 117.138 942.951 117.684 943.805 117.684C944.519 117.684 945.233 117.306 945.233 116.522V111.692H947.025V119H945.233ZM949.255 119V108.64H951.047V112.896H951.103C951.369 112.056 952.153 111.524 953.119 111.524C954.967 111.524 955.989 112.896 955.989 115.332C955.989 117.782 954.967 119.168 953.119 119.168C952.153 119.168 951.383 118.608 951.103 117.782H951.047V119H949.255ZM952.545 117.684C953.469 117.684 954.113 117.012 954.113 115.976V114.716C954.113 113.68 953.469 112.994 952.545 112.994C951.691 112.994 951.047 113.456 951.047 114.17V116.494C951.047 117.25 951.691 117.684 952.545 117.684ZM960.204 119.168C958.818 119.168 957.908 118.664 957.18 117.824L958.272 116.76C958.804 117.376 959.448 117.754 960.274 117.754C961.128 117.754 961.492 117.432 961.492 116.914C961.492 116.494 961.24 116.228 960.596 116.144L959.868 116.046C958.3 115.85 957.432 115.164 957.432 113.834C957.432 112.42 958.538 111.524 960.204 111.524C961.632 111.524 962.36 111.944 963.06 112.672L962.01 113.722C961.59 113.274 960.974 112.938 960.26 112.938C959.49 112.938 959.154 113.246 959.154 113.694C959.154 114.184 959.42 114.408 960.106 114.52L960.848 114.618C962.444 114.842 963.214 115.556 963.214 116.774C963.214 118.188 962.024 119.168 960.204 119.168ZM967.998 115.556L969.272 111.692H970.952L968.012 120.302C967.648 121.352 967.13 121.8 965.926 121.8H964.848V120.372H966.164L966.5 119.35L963.882 111.692H965.66L966.934 115.556L967.41 117.404H967.494L967.998 115.556ZM974.578 119.168C973.192 119.168 972.282 118.664 971.554 117.824L972.646 116.76C973.178 117.376 973.822 117.754 974.648 117.754C975.502 117.754 975.866 117.432 975.866 116.914C975.866 116.494 975.614 116.228 974.97 116.144L974.242 116.046C972.674 115.85 971.806 115.164 971.806 113.834C971.806 112.42 972.912 111.524 974.578 111.524C976.006 111.524 976.734 111.944 977.434 112.672L976.384 113.722C975.964 113.274 975.348 112.938 974.634 112.938C973.864 112.938 973.528 113.246 973.528 113.694C973.528 114.184 973.794 114.408 974.48 114.52L975.222 114.618C976.818 114.842 977.588 115.556 977.588 116.774C977.588 118.188 976.398 119.168 974.578 119.168ZM981.503 119C980.271 119 979.613 118.328 979.613 117.138V113.12H978.535V111.692H979.095C979.627 111.692 979.795 111.44 979.795 110.936V109.69H981.405V111.692H982.903V113.12H981.405V117.572H982.791V119H981.503ZM987.517 119.168C985.361 119.168 984.073 117.67 984.073 115.332C984.073 113.022 985.319 111.524 987.461 111.524C989.743 111.524 990.793 113.204 990.793 115.206V115.794H985.935V115.976C985.935 117.026 986.537 117.74 987.713 117.74C988.595 117.74 989.127 117.32 989.575 116.746L990.541 117.824C989.939 118.65 988.875 119.168 987.517 119.168ZM987.489 112.868C986.551 112.868 985.935 113.568 985.935 114.576V114.688H988.931V114.562C988.931 113.554 988.413 112.868 987.489 112.868ZM994.322 119H992.53V111.692H994.322V112.91H994.392C994.672 112.14 995.26 111.524 996.352 111.524C997.346 111.524 998.116 112.014 998.466 112.994H998.494C998.76 112.182 999.572 111.524 1000.73 111.524C1002.16 111.524 1002.97 112.56 1002.97 114.38V119H1001.18V114.562C1001.18 113.512 1000.8 112.994 1000.01 112.994C999.306 112.994 998.648 113.386 998.648 114.17V119H996.856V114.562C996.856 113.512 996.478 112.994 995.68 112.994C994.994 112.994 994.322 113.386 994.322 114.17V119ZM1007.51 119.168C1006.13 119.168 1005.22 118.664 1004.49 117.824L1005.58 116.76C1006.11 117.376 1006.76 117.754 1007.58 117.754C1008.44 117.754 1008.8 117.432 1008.8 116.914C1008.8 116.494 1008.55 116.228 1007.9 116.144L1007.18 116.046C1005.61 115.85 1004.74 115.164 1004.74 113.834C1004.74 112.42 1005.85 111.524 1007.51 111.524C1008.94 111.524 1009.67 111.944 1010.37 112.672L1009.32 113.722C1008.9 113.274 1008.28 112.938 1007.57 112.938C1006.8 112.938 1006.46 113.246 1006.46 113.694C1006.46 114.184 1006.73 114.408 1007.41 114.52L1008.16 114.618C1009.75 114.842 1010.52 115.556 1010.52 116.774C1010.52 118.188 1009.33 119.168 1007.51 119.168Z" fill="black"/>
<rect width="48" height="48" transform="translate(814 90)" fill="#0F62FE"/>
<rect width="24" height="24" transform="translate(826 102)" fill="white" fill-opacity="0.01" style="mix-blend-mode:multiply"/>
<path d="M846.25 104.25H840.25C839.423 104.25 838.75 104.923 838.75 105.75V122.25C838.75 123.077 839.423 123.75 840.25 123.75H846.25C847.077 123.75 847.75 123.077 847.75 122.25V105.75C847.75 104.923 847.077 104.25 846.25 104.25ZM846.25 109.44L841.638 105.75H846.25L846.25 109.44ZM845.799 111L840.25 115.44V106.56L845.799 111ZM846.25 112.56L846.251 121.44L840.701 117L846.25 112.56ZM840.25 118.56L844.862 122.25H840.25V118.56Z" fill="white"/>
<path d="M835.75 104.25H829.75C828.923 104.25 828.25 104.923 828.25 105.75V122.25C828.25 123.077 828.923 123.75 829.75 123.75H835.75C836.577 123.75 837.25 123.077 837.25 122.25V105.75C837.25 104.923 836.577 104.25 835.75 104.25ZM835.75 109.44L831.138 105.75H835.75L835.75 109.44ZM835.299 111L829.75 115.44V106.56L835.299 111ZM835.75 112.56L835.751 121.44L830.201 117L835.75 112.56ZM829.75 118.56L834.362 122.25H829.75V118.56Z" fill="white"/>
</g>
<rect x="840.5" y="169.5" width="213" height="53" rx="7.5" fill="#EDF5FF" stroke="#0F62FE" stroke-linejoin="round"/>
<path d="M922.18 303H917.742V301.516H919.03V294.712H917.742V293.228H922.18V294.712H920.878V301.516H922.18V303ZM924.228 303V293.228H928.75C930.36 293.228 931.34 294.222 931.34 295.734C931.34 297.218 930.486 297.778 929.59 297.834V297.918C930.444 297.932 931.704 298.534 931.704 300.2C931.704 301.768 930.626 303 929.184 303H924.228ZM926.076 298.814V301.432H928.652C929.352 301.432 929.772 301.054 929.772 300.368V299.892C929.772 299.206 929.352 298.814 928.652 298.814H926.076ZM926.076 294.796V297.302H928.358C929.03 297.302 929.422 296.91 929.422 296.266V295.832C929.422 295.174 929.03 294.796 928.358 294.796H926.076ZM933.671 303V293.228H935.757L938.263 298.002H938.319L940.797 293.228H942.799V303H941.049V295.986H940.993L940.237 297.54L938.235 301.236L936.233 297.54L935.477 295.986H935.421V303H933.671Z" fill="black"/>
<rect x="840.5" y="271.5" width="213" height="53" rx="7.5" fill="#EDF5FF" stroke="#C9A9FB" stroke-linejoin="round"/>
<path d="M164.802 266.168C162.31 266.168 160.784 264.376 160.784 261.114C160.784 257.852 162.31 256.06 164.802 256.06C166.454 256.06 167.588 256.83 168.218 258.23L167.098 258.874C166.734 257.908 165.978 257.278 164.802 257.278C163.206 257.278 162.24 258.468 162.24 260.372V261.856C162.24 263.76 163.206 264.95 164.802 264.95C166.006 264.95 166.818 264.264 167.182 263.256L168.274 263.914C167.644 265.314 166.454 266.168 164.802 266.168ZM174.523 266V264.81H174.453C174.187 265.51 173.627 266.168 172.423 266.168C170.939 266.168 170.015 265.146 170.015 263.382V258.748H171.317V263.186C171.317 264.404 171.835 265.034 172.857 265.034C173.683 265.034 174.523 264.614 174.523 263.704V258.748H175.825V266H174.523ZM180.51 266.168C179.166 266.168 178.284 265.622 177.612 264.768L178.494 264.012C179.04 264.698 179.712 265.09 180.594 265.09C181.518 265.09 182.022 264.684 182.022 264.012C182.022 263.48 181.742 263.102 180.86 262.976L180.244 262.878C178.858 262.682 177.892 262.108 177.892 260.764C177.892 259.336 178.998 258.58 180.524 258.58C181.756 258.58 182.526 259.014 183.142 259.742L182.316 260.526C181.966 260.064 181.35 259.658 180.482 259.658C179.6 259.658 179.152 260.064 179.152 260.68C179.152 261.324 179.572 261.59 180.412 261.716L181.028 261.814C182.624 262.052 183.282 262.752 183.282 263.872C183.282 265.286 182.218 266.168 180.51 266.168ZM188.362 266H186.99C186.094 266 185.618 265.468 185.618 264.628V259.854H184.456V258.748H185.1C185.59 258.748 185.744 258.566 185.744 258.076V256.746H186.92V258.748H188.474V259.854H186.92V264.894H188.362V266ZM193.107 266.168C191.133 266.168 189.803 264.684 189.803 262.374C189.803 260.064 191.133 258.58 193.107 258.58C195.081 258.58 196.411 260.064 196.411 262.374C196.411 264.684 195.081 266.168 193.107 266.168ZM193.107 265.048C194.241 265.048 195.025 264.334 195.025 262.92V261.828C195.025 260.414 194.241 259.7 193.107 259.7C191.973 259.7 191.189 260.414 191.189 261.828V262.92C191.189 264.334 191.973 265.048 193.107 265.048ZM199.645 266H198.343V258.748H199.645V259.938H199.715C200.023 259.196 200.681 258.58 201.647 258.58C202.613 258.58 203.467 259.028 203.845 260.05H203.873C204.139 259.266 204.867 258.58 206.085 258.58C207.541 258.58 208.409 259.602 208.409 261.366V266H207.107V261.562C207.107 260.344 206.645 259.714 205.637 259.714C204.797 259.714 204.027 260.148 204.027 261.03V266H202.725V261.562C202.725 260.344 202.263 259.714 201.269 259.714C200.443 259.714 199.645 260.148 199.645 261.03V266ZM213.552 266.168C211.536 266.168 210.262 264.67 210.262 262.374C210.262 260.078 211.536 258.58 213.552 258.58C215.582 258.58 216.73 260.12 216.73 262.15V262.696H211.62V262.99C211.62 264.194 212.362 265.062 213.664 265.062C214.574 265.062 215.232 264.628 215.624 263.886L216.464 264.6C215.96 265.538 214.91 266.168 213.552 266.168ZM213.552 259.63C212.418 259.63 211.62 260.498 211.62 261.688V261.786H215.344V261.646C215.344 260.442 214.644 259.63 213.552 259.63ZM219.966 266H218.664V258.748H219.966V260.134H220.036C220.274 259.42 220.918 258.748 222.08 258.748H222.514V260.05H221.87C220.666 260.05 219.966 260.526 219.966 261.24V266ZM228.845 266H227.543V258.748H228.845V259.938H228.915C229.223 259.196 229.881 258.58 230.847 258.58C231.813 258.58 232.667 259.028 233.045 260.05H233.073C233.339 259.266 234.067 258.58 235.285 258.58C236.741 258.58 237.609 259.602 237.609 261.366V266H236.307V261.562C236.307 260.344 235.845 259.714 234.837 259.714C233.997 259.714 233.227 260.148 233.227 261.03V266H231.925V261.562C231.925 260.344 231.463 259.714 230.469 259.714C229.643 259.714 228.845 260.148 228.845 261.03V266ZM246 266H245.258C244.46 266 244.082 265.496 243.984 264.796H243.914C243.62 265.692 242.85 266.168 241.814 266.168C240.302 266.168 239.42 265.328 239.42 263.998C239.42 262.598 240.442 261.842 242.514 261.842H243.886V261.184C243.886 260.218 243.368 259.672 242.276 259.672C241.422 259.672 240.876 260.092 240.498 260.708L239.714 259.994C240.148 259.21 241.002 258.58 242.346 258.58C244.152 258.58 245.188 259.504 245.188 261.072V264.894H246V266ZM242.108 265.118C243.13 265.118 243.886 264.6 243.886 263.872V262.752H242.5C241.31 262.752 240.778 263.116 240.778 263.788V264.068C240.778 264.74 241.296 265.118 242.108 265.118ZM249.941 266.168C248.597 266.168 247.715 265.622 247.043 264.768L247.925 264.012C248.471 264.698 249.143 265.09 250.025 265.09C250.949 265.09 251.453 264.684 251.453 264.012C251.453 263.48 251.173 263.102 250.291 262.976L249.675 262.878C248.289 262.682 247.323 262.108 247.323 260.764C247.323 259.336 248.429 258.58 249.955 258.58C251.187 258.58 251.957 259.014 252.573 259.742L251.747 260.526C251.397 260.064 250.781 259.658 249.913 259.658C249.031 259.658 248.583 260.064 248.583 260.68C248.583 261.324 249.003 261.59 249.843 261.716L250.459 261.814C252.055 262.052 252.713 262.752 252.713 263.872C252.713 265.286 251.649 266.168 249.941 266.168ZM257.792 266H256.42C255.524 266 255.048 265.468 255.048 264.628V259.854H253.886V258.748H254.53C255.02 258.748 255.174 258.566 255.174 258.076V256.746H256.35V258.748H257.904V259.854H256.35V264.894H257.792V266ZM262.523 266.168C260.507 266.168 259.233 264.67 259.233 262.374C259.233 260.078 260.507 258.58 262.523 258.58C264.553 258.58 265.701 260.12 265.701 262.15V262.696H260.591V262.99C260.591 264.194 261.333 265.062 262.635 265.062C263.545 265.062 264.203 264.628 264.595 263.886L265.435 264.6C264.931 265.538 263.881 266.168 262.523 266.168ZM262.523 259.63C261.389 259.63 260.591 260.498 260.591 261.688V261.786H264.315V261.646C264.315 260.442 263.615 259.63 262.523 259.63ZM268.938 266H267.636V258.748H268.938V260.134H269.008C269.246 259.42 269.89 258.748 271.052 258.748H271.486V260.05H270.842C269.638 260.05 268.938 260.526 268.938 261.24V266ZM276.515 266V255.64H277.817V262.094H277.887L278.923 260.82L280.813 258.748H282.353L279.777 261.548L282.689 266H281.121L278.853 262.388L277.817 263.494V266H276.515ZM286.706 266.168C284.69 266.168 283.416 264.67 283.416 262.374C283.416 260.078 284.69 258.58 286.706 258.58C288.736 258.58 289.884 260.12 289.884 262.15V262.696H284.774V262.99C284.774 264.194 285.516 265.062 286.818 265.062C287.728 265.062 288.386 264.628 288.778 263.886L289.618 264.6C289.114 265.538 288.064 266.168 286.706 266.168ZM286.706 259.63C285.572 259.63 284.774 260.498 284.774 261.688V261.786H288.498V261.646C288.498 260.442 287.798 259.63 286.706 259.63ZM294.593 263.382L296.217 258.748H297.477L294.327 267.582C293.991 268.492 293.641 268.8 292.535 268.8H291.821V267.694H293.011L293.501 266.294L290.813 258.748H292.115L293.725 263.382L294.103 264.74H294.173L294.593 263.382Z" fill="black"/>
<path d="M376.618 198.94V203H375.26V193.228H379.292C381.014 193.228 382.064 194.306 382.064 196.098C382.064 197.512 381.406 198.478 380.146 198.8L382.316 203H380.79L378.76 198.94H376.618ZM376.618 197.764H379.236C380.104 197.764 380.622 197.288 380.622 196.448V195.748C380.622 194.908 380.104 194.432 379.236 194.432H376.618V197.764ZM386.953 203.168C384.979 203.168 383.649 201.684 383.649 199.374C383.649 197.064 384.979 195.58 386.953 195.58C388.927 195.58 390.257 197.064 390.257 199.374C390.257 201.684 388.927 203.168 386.953 203.168ZM386.953 202.048C388.087 202.048 388.871 201.334 388.871 199.92V198.828C388.871 197.414 388.087 196.7 386.953 196.7C385.819 196.7 385.035 197.414 385.035 198.828V199.92C385.035 201.334 385.819 202.048 386.953 202.048ZM394.975 203.168C393.001 203.168 391.671 201.684 391.671 199.374C391.671 197.064 393.001 195.58 394.975 195.58C396.949 195.58 398.279 197.064 398.279 199.374C398.279 201.684 396.949 203.168 394.975 203.168ZM394.975 202.048C396.109 202.048 396.893 201.334 396.893 199.92V198.828C396.893 197.414 396.109 196.7 394.975 196.7C393.841 196.7 393.057 197.414 393.057 198.828V199.92C393.057 201.334 393.841 202.048 394.975 202.048ZM403.346 203H401.974C401.078 203 400.602 202.468 400.602 201.628V196.854H399.44V195.748H400.084C400.574 195.748 400.728 195.566 400.728 195.076V193.746H401.904V195.748H403.458V196.854H401.904V201.894H403.346V203ZM408.829 203V192.64H410.131V199.094H410.201L411.237 197.82L413.127 195.748H414.667L412.091 198.548L415.003 203H413.435L411.167 199.388L410.131 200.494V203H408.829ZM419.021 203.168C417.005 203.168 415.731 201.67 415.731 199.374C415.731 197.078 417.005 195.58 419.021 195.58C421.051 195.58 422.199 197.12 422.199 199.15V199.696H417.089V199.99C417.089 201.194 417.831 202.062 419.133 202.062C420.043 202.062 420.701 201.628 421.093 200.886L421.933 201.6C421.429 202.538 420.379 203.168 419.021 203.168ZM419.021 196.63C417.887 196.63 417.089 197.498 417.089 198.688V198.786H420.813V198.646C420.813 197.442 420.113 196.63 419.021 196.63ZM426.907 200.382L428.531 195.748H429.791L426.641 204.582C426.305 205.492 425.955 205.8 424.849 205.8H424.135V204.694H425.325L425.815 203.294L423.127 195.748H424.429L426.039 200.382L426.417 201.74H426.487L426.907 200.382ZM433.465 203.168C432.121 203.168 431.239 202.622 430.567 201.768L431.449 201.012C431.995 201.698 432.667 202.09 433.549 202.09C434.473 202.09 434.977 201.684 434.977 201.012C434.977 200.48 434.697 200.102 433.815 199.976L433.199 199.878C431.813 199.682 430.847 199.108 430.847 197.764C430.847 196.336 431.953 195.58 433.479 195.58C434.711 195.58 435.481 196.014 436.097 196.742L435.271 197.526C434.921 197.064 434.305 196.658 433.437 196.658C432.555 196.658 432.107 197.064 432.107 197.68C432.107 198.324 432.527 198.59 433.367 198.716L433.983 198.814C435.579 199.052 436.237 199.752 436.237 200.872C436.237 202.286 435.173 203.168 433.465 203.168Z" fill="black"/>
<rect width="335" height="58" transform="translate(479 145)" fill="white" fill-opacity="0.01" style="mix-blend-mode:multiply"/>
<rect width="328" height="0" transform="translate(479 174)" fill="white" fill-opacity="0.01" style="mix-blend-mode:multiply"/>
<path d="M479 174H807" stroke="black"/>
<rect width="8" height="8" transform="translate(806 170)" fill="white" fill-opacity="0.01" style="mix-blend-mode:multiply"/>
<path d="M806 170L814 174L806 178V170Z" fill="black"/>
<path d="M30.996 36H29.148V26.228H33.544C35.35 26.228 36.442 27.446 36.442 29.252C36.442 31.072 35.35 32.276 33.544 32.276H30.996V36ZM30.996 27.838V30.68H33.376C34.09 30.68 34.524 30.288 34.524 29.574V28.93C34.524 28.216 34.09 27.838 33.376 27.838H30.996ZM39.82 36H38.028V28.692H39.82V30.204H39.89C40.072 29.434 40.66 28.692 41.822 28.692H42.214V30.386H41.654C40.45 30.386 39.82 30.722 39.82 31.52V36ZM46.5138 36.168C44.4278 36.168 43.1258 34.684 43.1258 32.332C43.1258 29.994 44.4278 28.524 46.5138 28.524C48.6138 28.524 49.9158 29.994 49.9158 32.332C49.9158 34.684 48.6138 36.168 46.5138 36.168ZM46.5138 34.726C47.4518 34.726 48.0398 34.124 48.0398 33.018V31.66C48.0398 30.568 47.4518 29.966 46.5138 29.966C45.5898 29.966 45.0018 30.568 45.0018 31.66V33.018C45.0018 34.124 45.5898 34.726 46.5138 34.726ZM53.8917 36C52.6597 36 52.0017 35.328 52.0017 34.138V30.12H50.9237V28.692H51.4837C52.0157 28.692 52.1837 28.44 52.1837 27.936V26.69H53.7937V28.692H55.2917V30.12H53.7937V34.572H55.1797V36H53.8917ZM59.9054 36.168C57.7494 36.168 56.4614 34.67 56.4614 32.332C56.4614 30.022 57.7074 28.524 59.8494 28.524C62.1314 28.524 63.1814 30.204 63.1814 32.206V32.794H58.3234V32.976C58.3234 34.026 58.9254 34.74 60.1014 34.74C60.9834 34.74 61.5154 34.32 61.9634 33.746L62.9294 34.824C62.3274 35.65 61.2634 36.168 59.9054 36.168ZM59.8774 29.868C58.9394 29.868 58.3234 30.568 58.3234 31.576V31.688H61.3194V31.562C61.3194 30.554 60.8014 29.868 59.8774 29.868ZM67.802 36.168C65.646 36.168 64.428 34.684 64.428 32.332C64.428 29.994 65.646 28.524 67.802 28.524C69.272 28.524 70.238 29.224 70.672 30.372L69.202 31.03C69.034 30.414 68.572 29.966 67.802 29.966C66.808 29.966 66.304 30.666 66.304 31.688V33.018C66.304 34.04 66.808 34.726 67.802 34.726C68.656 34.726 69.076 34.236 69.342 33.578L70.714 34.236C70.238 35.524 69.216 36.168 67.802 36.168ZM74.5378 36C73.3058 36 72.6478 35.328 72.6478 34.138V30.12H71.5698V28.692H72.1298C72.6618 28.692 72.8298 28.44 72.8298 27.936V26.69H74.4398V28.692H75.9378V30.12H74.4398V34.572H75.8258V36H74.5378ZM78.5481 27.628C77.8061 27.628 77.4981 27.25 77.4981 26.732V26.452C77.4981 25.934 77.8061 25.556 78.5481 25.556C79.2761 25.556 79.5981 25.934 79.5981 26.452V26.732C79.5981 27.25 79.2761 27.628 78.5481 27.628ZM77.6521 36V28.692H79.4441V36H77.6521ZM83.4732 36H81.6812V28.692H83.4732V29.91H83.5432C83.8372 29.126 84.4532 28.524 85.5872 28.524C87.0852 28.524 87.9252 29.56 87.9252 31.38V36H86.1332V31.562C86.1332 30.526 85.7832 29.994 84.9292 29.994C84.1872 29.994 83.4732 30.386 83.4732 31.17V36ZM96.6657 36.616C96.6657 38.142 95.6297 38.968 92.8297 38.968C90.3657 38.968 89.4277 38.324 89.4277 37.246C89.4277 36.434 89.9177 35.972 90.7297 35.846V35.692C90.1277 35.538 89.7917 35.062 89.7917 34.474C89.7917 33.718 90.4357 33.34 91.1357 33.186V33.13C90.2537 32.724 89.8057 31.968 89.8057 31.002C89.8057 29.518 90.8557 28.524 92.8297 28.524C93.2777 28.524 93.7397 28.58 94.1037 28.706V28.468C94.1037 27.754 94.4677 27.404 95.1397 27.404H96.2737V28.776H94.7197V28.972C95.4757 29.392 95.8537 30.106 95.8537 31.002C95.8537 32.472 94.8177 33.452 92.8297 33.452C92.4097 33.452 92.0317 33.41 91.7097 33.326C91.4297 33.452 91.1917 33.662 91.1917 33.984C91.1917 34.348 91.4997 34.53 92.1437 34.53H94.1037C95.8957 34.53 96.6657 35.3 96.6657 36.616ZM94.9857 36.826C94.9857 36.364 94.6497 36.084 93.7397 36.084H91.2477C90.9817 36.28 90.8697 36.546 90.8697 36.84C90.8697 37.4 91.2897 37.736 92.4097 37.736H93.3057C94.4677 37.736 94.9857 37.442 94.9857 36.826ZM92.8297 32.234C93.6837 32.234 94.1457 31.842 94.1457 31.114V30.876C94.1457 30.134 93.6837 29.756 92.8297 29.756C91.9757 29.756 91.5137 30.134 91.5137 30.876V31.114C91.5137 31.842 91.9757 32.234 92.8297 32.234ZM103.723 36.168C102.337 36.168 101.427 35.664 100.699 34.824L101.791 33.76C102.323 34.376 102.967 34.754 103.793 34.754C104.647 34.754 105.011 34.432 105.011 33.914C105.011 33.494 104.759 33.228 104.115 33.144L103.387 33.046C101.819 32.85 100.951 32.164 100.951 30.834C100.951 29.42 102.057 28.524 103.723 28.524C105.151 28.524 105.879 28.944 106.579 29.672L105.529 30.722C105.109 30.274 104.493 29.938 103.779 29.938C103.009 29.938 102.673 30.246 102.673 30.694C102.673 31.184 102.939 31.408 103.625 31.52L104.367 31.618C105.963 31.842 106.733 32.556 106.733 33.774C106.733 35.188 105.543 36.168 103.723 36.168ZM110.648 36C109.416 36 108.758 35.328 108.758 34.138V30.12H107.68V28.692H108.24C108.772 28.692 108.94 28.44 108.94 27.936V26.69H110.55V28.692H112.048V30.12H110.55V34.572H111.936V36H110.648ZM116.606 36.168C114.52 36.168 113.218 34.684 113.218 32.332C113.218 29.994 114.52 28.524 116.606 28.524C118.706 28.524 120.008 29.994 120.008 32.332C120.008 34.684 118.706 36.168 116.606 36.168ZM116.606 34.726C117.544 34.726 118.132 34.124 118.132 33.018V31.66C118.132 30.568 117.544 29.966 116.606 29.966C115.682 29.966 115.094 30.568 115.094 31.66V33.018C115.094 34.124 115.682 34.726 116.606 34.726ZM123.548 36H121.756V28.692H123.548V30.204H123.618C123.8 29.434 124.388 28.692 125.55 28.692H125.942V30.386H125.382C124.178 30.386 123.548 30.722 123.548 31.52V36ZM129.068 36.168C127.584 36.168 126.744 35.314 126.744 34.012C126.744 32.514 127.878 31.772 129.866 31.772H131.112V31.24C131.112 30.428 130.706 29.952 129.754 29.952C128.914 29.952 128.438 30.372 128.088 30.876L127.024 29.924C127.556 29.084 128.41 28.524 129.88 28.524C131.854 28.524 132.904 29.462 132.904 31.128V34.572H133.632V36H132.638C131.868 36 131.392 35.496 131.28 34.74H131.196C130.958 35.678 130.16 36.168 129.068 36.168ZM129.67 34.866C130.468 34.866 131.112 34.502 131.112 33.816V32.85H129.964C129.026 32.85 128.564 33.172 128.564 33.746V33.984C128.564 34.572 128.97 34.866 129.67 34.866ZM141.836 36.616C141.836 38.142 140.8 38.968 138 38.968C135.536 38.968 134.598 38.324 134.598 37.246C134.598 36.434 135.088 35.972 135.9 35.846V35.692C135.298 35.538 134.962 35.062 134.962 34.474C134.962 33.718 135.606 33.34 136.306 33.186V33.13C135.424 32.724 134.976 31.968 134.976 31.002C134.976 29.518 136.026 28.524 138 28.524C138.448 28.524 138.91 28.58 139.274 28.706V28.468C139.274 27.754 139.638 27.404 140.31 27.404H141.444V28.776H139.89V28.972C140.646 29.392 141.024 30.106 141.024 31.002C141.024 32.472 139.988 33.452 138 33.452C137.58 33.452 137.202 33.41 136.88 33.326C136.6 33.452 136.362 33.662 136.362 33.984C136.362 34.348 136.67 34.53 137.314 34.53H139.274C141.066 34.53 141.836 35.3 141.836 36.616ZM140.156 36.826C140.156 36.364 139.82 36.084 138.91 36.084H136.418C136.152 36.28 136.04 36.546 136.04 36.84C136.04 37.4 136.46 37.736 137.58 37.736H138.476C139.638 37.736 140.156 37.442 140.156 36.826ZM138 32.234C138.854 32.234 139.316 31.842 139.316 31.114V30.876C139.316 30.134 138.854 29.756 138 29.756C137.146 29.756 136.684 30.134 136.684 30.876V31.114C136.684 31.842 137.146 32.234 138 32.234ZM145.903 36.168C143.747 36.168 142.459 34.67 142.459 32.332C142.459 30.022 143.705 28.524 145.847 28.524C148.129 28.524 149.179 30.204 149.179 32.206V32.794H144.321V32.976C144.321 34.026 144.923 34.74 146.099 34.74C146.981 34.74 147.513 34.32 147.961 33.746L148.927 34.824C148.325 35.65 147.261 36.168 145.903 36.168ZM145.875 29.868C144.937 29.868 144.321 30.568 144.321 31.576V31.688H147.317V31.562C147.317 30.554 146.799 29.868 145.875 29.868ZM156.779 36.168C155.393 36.168 154.483 35.664 153.755 34.824L154.847 33.76C155.379 34.376 156.023 34.754 156.849 34.754C157.703 34.754 158.067 34.432 158.067 33.914C158.067 33.494 157.815 33.228 157.171 33.144L156.443 33.046C154.875 32.85 154.007 32.164 154.007 30.834C154.007 29.42 155.113 28.524 156.779 28.524C158.207 28.524 158.935 28.944 159.635 29.672L158.585 30.722C158.165 30.274 157.549 29.938 156.835 29.938C156.065 29.938 155.729 30.246 155.729 30.694C155.729 31.184 155.995 31.408 156.681 31.52L157.423 31.618C159.019 31.842 159.789 32.556 159.789 33.774C159.789 35.188 158.599 36.168 156.779 36.168ZM164.573 32.556L165.847 28.692H167.527L164.587 37.302C164.223 38.352 163.705 38.8 162.501 38.8H161.423V37.372H162.739L163.075 36.35L160.457 28.692H162.235L163.509 32.556L163.985 34.404H164.069L164.573 32.556ZM171.153 36.168C169.767 36.168 168.857 35.664 168.129 34.824L169.221 33.76C169.753 34.376 170.397 34.754 171.223 34.754C172.077 34.754 172.441 34.432 172.441 33.914C172.441 33.494 172.189 33.228 171.545 33.144L170.817 33.046C169.249 32.85 168.381 32.164 168.381 30.834C168.381 29.42 169.487 28.524 171.153 28.524C172.581 28.524 173.309 28.944 174.009 29.672L172.959 30.722C172.539 30.274 171.923 29.938 171.209 29.938C170.439 29.938 170.103 30.246 170.103 30.694C170.103 31.184 170.369 31.408 171.055 31.52L171.797 31.618C173.393 31.842 174.163 32.556 174.163 33.774C174.163 35.188 172.973 36.168 171.153 36.168ZM178.078 36C176.846 36 176.188 35.328 176.188 34.138V30.12H175.11V28.692H175.67C176.202 28.692 176.37 28.44 176.37 27.936V26.69H177.98V28.692H179.478V30.12H177.98V34.572H179.366V36H178.078ZM184.092 36.168C181.936 36.168 180.648 34.67 180.648 32.332C180.648 30.022 181.894 28.524 184.036 28.524C186.318 28.524 187.368 30.204 187.368 32.206V32.794H182.51V32.976C182.51 34.026 183.112 34.74 184.288 34.74C185.17 34.74 185.702 34.32 186.15 33.746L187.116 34.824C186.514 35.65 185.45 36.168 184.092 36.168ZM184.064 29.868C183.126 29.868 182.51 30.568 182.51 31.576V31.688H185.506V31.562C185.506 30.554 184.988 29.868 184.064 29.868ZM190.897 36H189.105V28.692H190.897V29.91H190.967C191.247 29.14 191.835 28.524 192.927 28.524C193.921 28.524 194.691 29.014 195.041 29.994H195.069C195.335 29.182 196.147 28.524 197.309 28.524C198.737 28.524 199.549 29.56 199.549 31.38V36H197.757V31.562C197.757 30.512 197.379 29.994 196.581 29.994C195.881 29.994 195.223 30.386 195.223 31.17V36H193.431V31.562C193.431 30.512 193.053 29.994 192.255 29.994C191.569 29.994 190.897 30.386 190.897 31.17V36ZM204.086 36.168C202.7 36.168 201.79 35.664 201.062 34.824L202.154 33.76C202.686 34.376 203.33 34.754 204.156 34.754C205.01 34.754 205.374 34.432 205.374 33.914C205.374 33.494 205.122 33.228 204.478 33.144L203.75 33.046C202.182 32.85 201.314 32.164 201.314 30.834C201.314 29.42 202.42 28.524 204.086 28.524C205.514 28.524 206.242 28.944 206.942 29.672L205.892 30.722C205.472 30.274 204.856 29.938 204.142 29.938C203.372 29.938 203.036 30.246 203.036 30.694C203.036 31.184 203.302 31.408 203.988 31.52L204.73 31.618C206.326 31.842 207.096 32.556 207.096 33.774C207.096 35.188 205.906 36.168 204.086 36.168ZM213.609 36L211.593 28.692H213.315L214.057 31.702L214.631 34.208H214.687L215.359 31.702L216.213 28.692H217.837L218.719 31.702L219.405 34.208H219.461L220.035 31.702L220.763 28.692H222.429L220.427 36H218.495L217.557 32.78L217.011 30.792H216.969L216.437 32.78L215.513 36H213.609ZM224.834 27.628C224.092 27.628 223.784 27.25 223.784 26.732V26.452C223.784 25.934 224.092 25.556 224.834 25.556C225.562 25.556 225.884 25.934 225.884 26.452V26.732C225.884 27.25 225.562 27.628 224.834 27.628ZM223.938 36V28.692H225.73V36H223.938ZM230.249 36C229.017 36 228.359 35.328 228.359 34.138V30.12H227.281V28.692H227.841C228.373 28.692 228.541 28.44 228.541 27.936V26.69H230.151V28.692H231.649V30.12H230.151V34.572H231.537V36H230.249ZM233.363 36V25.64H235.155V29.91H235.225C235.519 29.126 236.135 28.524 237.269 28.524C238.767 28.524 239.607 29.56 239.607 31.38V36H237.815V31.562C237.815 30.526 237.465 29.994 236.611 29.994C235.869 29.994 235.155 30.386 235.155 31.17V36H233.363ZM251.256 36V31.87H247.182V36H245.334V26.228H247.182V30.232H251.256V26.228H253.104V36H251.256ZM258.651 32.556L259.925 28.692H261.605L258.665 37.302C258.301 38.352 257.783 38.8 256.579 38.8H255.501V37.372H256.817L257.153 36.35L254.535 28.692H256.313L257.587 32.556L258.063 34.404H258.147L258.651 32.556ZM262.947 38.8V28.692H264.739V29.896H264.795C265.061 29.056 265.845 28.524 266.811 28.524C268.659 28.524 269.681 29.896 269.681 32.332C269.681 34.782 268.659 36.168 266.811 36.168C265.845 36.168 265.075 35.608 264.795 34.782H264.739V38.8H262.947ZM266.237 34.684C267.161 34.684 267.805 34.012 267.805 32.976V31.716C267.805 30.68 267.161 29.994 266.237 29.994C265.383 29.994 264.739 30.456 264.739 31.17V33.494C264.739 34.25 265.383 34.684 266.237 34.684ZM274.455 36.168C272.299 36.168 271.011 34.67 271.011 32.332C271.011 30.022 272.257 28.524 274.399 28.524C276.681 28.524 277.731 30.204 277.731 32.206V32.794H272.873V32.976C272.873 34.026 273.475 34.74 274.651 34.74C275.533 34.74 276.065 34.32 276.513 33.746L277.479 34.824C276.877 35.65 275.813 36.168 274.455 36.168ZM274.427 29.868C273.489 29.868 272.873 30.568 272.873 31.576V31.688H275.869V31.562C275.869 30.554 275.351 29.868 274.427 29.868ZM281.26 36H279.468V28.692H281.26V30.204H281.33C281.512 29.434 282.1 28.692 283.262 28.692H283.654V30.386H283.094C281.89 30.386 281.26 30.722 281.26 31.52V36ZM290.553 36H288.705V26.228H293.101C294.907 26.228 295.999 27.446 295.999 29.252C295.999 31.072 294.907 32.276 293.101 32.276H290.553V36ZM290.553 27.838V30.68H292.933C293.647 30.68 294.081 30.288 294.081 29.574V28.93C294.081 28.216 293.647 27.838 292.933 27.838H290.553ZM299.377 36H297.585V28.692H299.377V30.204H299.447C299.629 29.434 300.217 28.692 301.379 28.692H301.771V30.386H301.211C300.007 30.386 299.377 30.722 299.377 31.52V36ZM306.07 36.168C303.984 36.168 302.682 34.684 302.682 32.332C302.682 29.994 303.984 28.524 306.07 28.524C308.17 28.524 309.472 29.994 309.472 32.332C309.472 34.684 308.17 36.168 306.07 36.168ZM306.07 34.726C307.008 34.726 307.596 34.124 307.596 33.018V31.66C307.596 30.568 307.008 29.966 306.07 29.966C305.146 29.966 304.558 30.568 304.558 31.66V33.018C304.558 34.124 305.146 34.726 306.07 34.726ZM313.448 36C312.216 36 311.558 35.328 311.558 34.138V30.12H310.48V28.692H311.04C311.572 28.692 311.74 28.44 311.74 27.936V26.69H313.35V28.692H314.848V30.12H313.35V34.572H314.736V36H313.448ZM319.462 36.168C317.306 36.168 316.018 34.67 316.018 32.332C316.018 30.022 317.264 28.524 319.406 28.524C321.688 28.524 322.738 30.204 322.738 32.206V32.794H317.88V32.976C317.88 34.026 318.482 34.74 319.658 34.74C320.54 34.74 321.072 34.32 321.52 33.746L322.486 34.824C321.884 35.65 320.82 36.168 319.462 36.168ZM319.434 29.868C318.496 29.868 317.88 30.568 317.88 31.576V31.688H320.876V31.562C320.876 30.554 320.358 29.868 319.434 29.868ZM327.359 36.168C325.203 36.168 323.985 34.684 323.985 32.332C323.985 29.994 325.203 28.524 327.359 28.524C328.829 28.524 329.795 29.224 330.229 30.372L328.759 31.03C328.591 30.414 328.129 29.966 327.359 29.966C326.365 29.966 325.861 30.666 325.861 31.688V33.018C325.861 34.04 326.365 34.726 327.359 34.726C328.213 34.726 328.633 34.236 328.899 33.578L330.271 34.236C329.795 35.524 328.773 36.168 327.359 36.168ZM334.094 36C332.862 36 332.204 35.328 332.204 34.138V30.12H331.126V28.692H331.686C332.218 28.692 332.386 28.44 332.386 27.936V26.69H333.996V28.692H335.494V30.12H333.996V34.572H335.382V36H334.094ZM344.583 36.168C342.007 36.168 340.369 34.474 340.369 31.184C340.369 27.894 342.007 26.06 344.583 26.06C346.333 26.06 347.467 26.802 348.153 28.314L346.571 29.154C346.291 28.286 345.675 27.698 344.583 27.698C343.211 27.698 342.329 28.692 342.329 30.358V31.898C342.329 33.578 343.211 34.53 344.583 34.53C345.689 34.53 346.375 33.858 346.697 32.976L348.195 33.858C347.495 35.314 346.333 36.168 344.583 36.168ZM351.612 36H349.82V28.692H351.612V30.204H351.682C351.864 29.434 352.452 28.692 353.614 28.692H354.006V30.386H353.446C352.242 30.386 351.612 30.722 351.612 31.52V36ZM358.791 32.556L360.065 28.692H361.745L358.805 37.302C358.441 38.352 357.923 38.8 356.719 38.8H355.641V37.372H356.957L357.293 36.35L354.675 28.692H356.453L357.727 32.556L358.203 34.404H358.287L358.791 32.556ZM363.087 38.8V28.692H364.879V29.896H364.935C365.201 29.056 365.985 28.524 366.951 28.524C368.799 28.524 369.821 29.896 369.821 32.332C369.821 34.782 368.799 36.168 366.951 36.168C365.985 36.168 365.215 35.608 364.935 34.782H364.879V38.8H363.087ZM366.377 34.684C367.301 34.684 367.945 34.012 367.945 32.976V31.716C367.945 30.68 367.301 29.994 366.377 29.994C365.523 29.994 364.879 30.456 364.879 31.17V33.494C364.879 34.25 365.523 34.684 366.377 34.684ZM373.841 36C372.609 36 371.951 35.328 371.951 34.138V30.12H370.873V28.692H371.433C371.965 28.692 372.133 28.44 372.133 27.936V26.69H373.743V28.692H375.241V30.12H373.743V34.572H375.129V36H373.841ZM379.799 36.168C377.713 36.168 376.411 34.684 376.411 32.332C376.411 29.994 377.713 28.524 379.799 28.524C381.899 28.524 383.201 29.994 383.201 32.332C383.201 34.684 381.899 36.168 379.799 36.168ZM379.799 34.726C380.737 34.726 381.325 34.124 381.325 33.018V31.66C381.325 30.568 380.737 29.966 379.799 29.966C378.875 29.966 378.287 30.568 378.287 31.66V33.018C378.287 34.124 378.875 34.726 379.799 34.726ZM391.568 36.168C389.902 36.168 388.754 35.51 387.928 34.544L389.174 33.34C389.846 34.124 390.672 34.544 391.68 34.544C392.814 34.544 393.402 33.998 393.402 33.172C393.402 32.514 393.094 32.108 392.072 31.926L391.148 31.786C389.174 31.478 388.222 30.54 388.222 28.944C388.222 27.194 389.58 26.06 391.764 26.06C393.234 26.06 394.326 26.564 395.11 27.502L393.85 28.692C393.374 28.09 392.702 27.684 391.666 27.684C390.616 27.684 390.07 28.104 390.07 28.832C390.07 29.574 390.49 29.882 391.428 30.05L392.338 30.218C394.312 30.568 395.236 31.45 395.236 33.06C395.236 34.908 393.906 36.168 391.568 36.168ZM400.091 36.168C397.935 36.168 396.647 34.67 396.647 32.332C396.647 30.022 397.893 28.524 400.035 28.524C402.317 28.524 403.367 30.204 403.367 32.206V32.794H398.509V32.976C398.509 34.026 399.111 34.74 400.287 34.74C401.169 34.74 401.701 34.32 402.149 33.746L403.115 34.824C402.513 35.65 401.449 36.168 400.091 36.168ZM400.063 29.868C399.125 29.868 398.509 30.568 398.509 31.576V31.688H401.505V31.562C401.505 30.554 400.987 29.868 400.063 29.868ZM406.896 36H405.104V28.692H406.896V30.204H406.966C407.148 29.434 407.736 28.692 408.898 28.692H409.29V30.386H408.73C407.526 30.386 406.896 30.722 406.896 31.52V36ZM414.565 36H412.437L410.001 28.692H411.765L412.787 31.842L413.501 34.446H413.599L414.313 31.842L415.307 28.692H417.015L414.565 36ZM419.267 27.628C418.525 27.628 418.217 27.25 418.217 26.732V26.452C418.217 25.934 418.525 25.556 419.267 25.556C419.995 25.556 420.317 25.934 420.317 26.452V26.732C420.317 27.25 419.995 27.628 419.267 27.628ZM418.371 36V28.692H420.163V36H418.371ZM425.284 36.168C423.128 36.168 421.91 34.684 421.91 32.332C421.91 29.994 423.128 28.524 425.284 28.524C426.754 28.524 427.72 29.224 428.154 30.372L426.684 31.03C426.516 30.414 426.054 29.966 425.284 29.966C424.29 29.966 423.786 30.666 423.786 31.688V33.018C423.786 34.04 424.29 34.726 425.284 34.726C426.138 34.726 426.558 34.236 426.824 33.578L428.196 34.236C427.72 35.524 426.698 36.168 425.284 36.168ZM432.623 36.168C430.467 36.168 429.179 34.67 429.179 32.332C429.179 30.022 430.425 28.524 432.567 28.524C434.849 28.524 435.899 30.204 435.899 32.206V32.794H431.041V32.976C431.041 34.026 431.643 34.74 432.819 34.74C433.701 34.74 434.233 34.32 434.681 33.746L435.647 34.824C435.045 35.65 433.981 36.168 432.623 36.168ZM432.595 29.868C431.657 29.868 431.041 30.568 431.041 31.576V31.688H434.037V31.562C434.037 30.554 433.519 29.868 432.595 29.868ZM440.03 36.168C438.644 36.168 437.734 35.664 437.006 34.824L438.098 33.76C438.63 34.376 439.274 34.754 440.1 34.754C440.954 34.754 441.318 34.432 441.318 33.914C441.318 33.494 441.066 33.228 440.422 33.144L439.694 33.046C438.126 32.85 437.258 32.164 437.258 30.834C437.258 29.42 438.364 28.524 440.03 28.524C441.458 28.524 442.186 28.944 442.886 29.672L441.836 30.722C441.416 30.274 440.8 29.938 440.086 29.938C439.316 29.938 438.98 30.246 438.98 30.694C438.98 31.184 439.246 31.408 439.932 31.52L440.674 31.618C442.27 31.842 443.04 32.556 443.04 33.774C443.04 35.188 441.85 36.168 440.03 36.168Z" fill="black"/>
<rect x="370" y="150" width="61" height="39" rx="14" stroke="#56BAB9" stroke-width="2"/>
<g clip-path="url(#clip3_2_3891)">
<path d="M1058 264H1057V262C1057 259.24 1054.76 257 1052 257C1049.24 257 1047 259.24 1047 262V264H1046C1044.9 264 1044 264.9 1044 266V276C1044 277.1 1044.9 278 1046 278H1058C1059.1 278 1060 277.1 1060 276V266C1060 264.9 1059.1 264 1058 264ZM1052 273C1050.9 273 1050 272.1 1050 271C1050 269.9 1050.9 269 1052 269C1053.1 269 1054 269.9 1054 271C1054 272.1 1053.1 273 1052 273ZM1055.1 264H1048.9V262C1048.9 260.29 1050.29 258.9 1052 258.9C1053.71 258.9 1055.1 260.29 1055.1 262V264Z" fill="#C9A9FB"/>
</g>
<rect x="456" y="145" width="23" height="58" fill="#C9A9FB"/>
<rect x="456" y="271" width="23" height="58" fill="#D9D9D9"/>
<path d="M472.5 183.912L472.5 190.352L462.728 190.352L462.728 183.912L464.366 183.912L464.366 188.504L466.732 188.504L466.732 184.444L468.37 184.444L468.37 188.504L470.862 188.504L470.862 183.912L472.5 183.912ZM472.5 179.949L472.5 181.797L462.728 181.797L462.728 177.401C462.728 175.595 463.946 174.503 465.752 174.503C467.572 174.503 468.776 175.595 468.776 177.401L468.776 179.949L472.5 179.949ZM464.338 179.949L467.18 179.949L467.18 177.569C467.18 176.855 466.788 176.421 466.074 176.421L465.43 176.421C464.716 176.421 464.338 176.855 464.338 177.569L464.338 179.949ZM472.5 165.809L472.5 172.543L471.002 172.543L471.002 169.855L464.058 169.855L464.058 169.981L466.578 172.109L465.612 173.257L462.728 170.835L462.728 168.049L471.002 168.049L471.002 165.809L472.5 165.809ZM472.5 157.254L472.5 163.988L471.002 163.988L471.002 161.3L464.058 161.3L464.058 161.426L466.578 163.554L465.612 164.702L462.728 162.28L462.728 159.494L471.002 159.494L471.002 157.254L472.5 157.254Z" fill="black"/>
<path d="M462.228 315.922L462.228 314.102L468.234 314.102C469.76 314.102 470.53 313.57 470.53 312.17C470.53 310.77 469.76 310.238 468.234 310.238L462.228 310.238L462.228 308.418L467.996 308.418C470.866 308.418 472.168 309.44 472.168 312.184C472.168 314.928 470.866 315.922 467.996 315.922L462.228 315.922ZM472 300.09L467.576 302.876L469.116 304.178L472 304.178L472 306.026L462.228 306.026L462.228 304.178L467.044 304.178L467.044 304.108L465.21 302.722L462.228 300.3L462.228 298.172L466.302 301.574L472 297.892L472 300.09ZM472.168 293.048C472.168 295.61 470.418 297.304 467.114 297.304C463.81 297.304 462.06 295.61 462.06 293.048C462.06 290.472 463.81 288.792 467.114 288.792C470.418 288.792 472.168 290.472 472.168 293.048ZM470.53 293.048C470.53 291.648 469.536 290.752 467.87 290.752L466.358 290.752C464.692 290.752 463.698 291.648 463.698 293.048C463.698 294.448 464.692 295.344 466.358 295.344L467.87 295.344C469.536 295.344 470.53 294.448 470.53 293.048Z" fill="black"/>
<line x1="523.5" y1="50" x2="523.5" y2="441" stroke="#0F62FE"/>
<path d="M444.18 432H439.742V430.516H441.03V423.712H439.742V422.228H444.18V423.712H442.878V430.516H444.18V432ZM446.228 432V422.228H450.75C452.36 422.228 453.34 423.222 453.34 424.734C453.34 426.218 452.486 426.778 451.59 426.834V426.918C452.444 426.932 453.704 427.534 453.704 429.2C453.704 430.768 452.626 432 451.184 432H446.228ZM448.076 427.814V430.432H450.652C451.352 430.432 451.772 430.054 451.772 429.368V428.892C451.772 428.206 451.352 427.814 450.652 427.814H448.076ZM448.076 423.796V426.302H450.358C451.03 426.302 451.422 425.91 451.422 425.266V424.832C451.422 424.174 451.03 423.796 450.358 423.796H448.076ZM455.671 432V422.228H457.757L460.263 427.002H460.319L462.797 422.228H464.799V432H463.049V424.986H462.993L462.237 426.54L460.235 430.236L458.233 426.54L457.477 424.986H457.421V432H455.671ZM474.523 432.168C471.947 432.168 470.309 430.474 470.309 427.184C470.309 423.894 471.947 422.06 474.523 422.06C476.273 422.06 477.407 422.802 478.093 424.314L476.511 425.154C476.231 424.286 475.615 423.698 474.523 423.698C473.151 423.698 472.269 424.692 472.269 426.358V427.898C472.269 429.578 473.151 430.53 474.523 430.53C475.629 430.53 476.315 429.858 476.637 428.976L478.135 429.858C477.435 431.314 476.273 432.168 474.523 432.168ZM482.518 432H481.552C480.334 432 479.76 431.356 479.76 430.236V421.64H481.552V430.572H482.518V432ZM486.933 432.168C484.847 432.168 483.545 430.684 483.545 428.332C483.545 425.994 484.847 424.524 486.933 424.524C489.033 424.524 490.335 425.994 490.335 428.332C490.335 430.684 489.033 432.168 486.933 432.168ZM486.933 430.726C487.871 430.726 488.459 430.124 488.459 429.018V427.66C488.459 426.568 487.871 425.966 486.933 425.966C486.009 425.966 485.421 426.568 485.421 427.66V429.018C485.421 430.124 486.009 430.726 486.933 430.726ZM496.452 432V430.782H496.382C496.13 431.51 495.542 432.168 494.338 432.168C492.84 432.168 492 431.132 492 429.312V424.692H493.792V429.13C493.792 430.138 494.17 430.684 495.024 430.684C495.738 430.684 496.452 430.306 496.452 429.522V424.692H498.244V432H496.452ZM505.01 432V430.782H504.94C504.674 431.608 503.89 432.168 502.924 432.168C501.09 432.168 500.068 430.782 500.068 428.332C500.068 425.896 501.09 424.524 502.924 424.524C503.89 424.524 504.688 425.056 504.94 425.896H505.01V421.64H506.802V432H505.01ZM503.498 430.684C504.352 430.684 505.01 430.25 505.01 429.494V427.17C505.01 426.456 504.352 425.994 503.498 425.994C502.574 425.994 501.944 426.68 501.944 427.716V428.976C501.944 430.012 502.574 430.684 503.498 430.684Z" fill="black"/>
<path d="M542.942 414.168C540.366 414.168 538.728 412.474 538.728 409.184C538.728 405.894 540.366 404.06 542.942 404.06C544.692 404.06 545.826 404.802 546.512 406.314L544.93 407.154C544.65 406.286 544.034 405.698 542.942 405.698C541.57 405.698 540.688 406.692 540.688 408.358V409.898C540.688 411.578 541.57 412.53 542.942 412.53C544.048 412.53 544.734 411.858 545.056 410.976L546.554 411.858C545.854 413.314 544.692 414.168 542.942 414.168ZM552.546 414V412.782H552.476C552.224 413.51 551.636 414.168 550.432 414.168C548.934 414.168 548.094 413.132 548.094 411.312V406.692H549.886V411.13C549.886 412.138 550.264 412.684 551.118 412.684C551.832 412.684 552.546 412.306 552.546 411.522V406.692H554.338V414H552.546ZM558.963 414.168C557.577 414.168 556.667 413.664 555.939 412.824L557.031 411.76C557.563 412.376 558.207 412.754 559.033 412.754C559.887 412.754 560.251 412.432 560.251 411.914C560.251 411.494 559.999 411.228 559.355 411.144L558.627 411.046C557.059 410.85 556.191 410.164 556.191 408.834C556.191 407.42 557.297 406.524 558.963 406.524C560.391 406.524 561.119 406.944 561.819 407.672L560.769 408.722C560.349 408.274 559.733 407.938 559.019 407.938C558.249 407.938 557.913 408.246 557.913 408.694C557.913 409.184 558.179 409.408 558.865 409.52L559.607 409.618C561.203 409.842 561.973 410.556 561.973 411.774C561.973 413.188 560.783 414.168 558.963 414.168ZM565.888 414C564.656 414 563.998 413.328 563.998 412.138V408.12H562.92V406.692H563.48C564.012 406.692 564.18 406.44 564.18 405.936V404.69H565.79V406.692H567.288V408.12H565.79V412.572H567.176V414H565.888ZM571.845 414.168C569.759 414.168 568.457 412.684 568.457 410.332C568.457 407.994 569.759 406.524 571.845 406.524C573.945 406.524 575.247 407.994 575.247 410.332C575.247 412.684 573.945 414.168 571.845 414.168ZM571.845 412.726C572.783 412.726 573.371 412.124 573.371 411.018V409.66C573.371 408.568 572.783 407.966 571.845 407.966C570.921 407.966 570.333 408.568 570.333 409.66V411.018C570.333 412.124 570.921 412.726 571.845 412.726ZM578.788 414H576.996V406.692H578.788V407.91H578.858C579.138 407.14 579.726 406.524 580.818 406.524C581.812 406.524 582.582 407.014 582.932 407.994H582.96C583.226 407.182 584.038 406.524 585.2 406.524C586.628 406.524 587.44 407.56 587.44 409.38V414H585.648V409.562C585.648 408.512 585.27 407.994 584.472 407.994C583.772 407.994 583.114 408.386 583.114 409.17V414H581.322V409.562C581.322 408.512 580.944 407.994 580.146 407.994C579.46 407.994 578.788 408.386 578.788 409.17V414ZM592.538 414.168C590.382 414.168 589.094 412.67 589.094 410.332C589.094 408.022 590.34 406.524 592.482 406.524C594.764 406.524 595.814 408.204 595.814 410.206V410.794H590.956V410.976C590.956 412.026 591.558 412.74 592.734 412.74C593.616 412.74 594.148 412.32 594.596 411.746L595.562 412.824C594.96 413.65 593.896 414.168 592.538 414.168ZM592.51 407.868C591.572 407.868 590.956 408.568 590.956 409.576V409.688H593.952V409.562C593.952 408.554 593.434 407.868 592.51 407.868ZM599.343 414H597.551V406.692H599.343V408.204H599.413C599.595 407.434 600.183 406.692 601.345 406.692H601.737V408.386H601.177C599.973 408.386 599.343 408.722 599.343 409.52V414ZM607.571 405.628C606.829 405.628 606.521 405.25 606.521 404.732V404.452C606.521 403.934 606.829 403.556 607.571 403.556C608.299 403.556 608.621 403.934 608.621 404.452V404.732C608.621 405.25 608.299 405.628 607.571 405.628ZM606.675 414V406.692H608.467V414H606.675ZM612.496 414H610.704V406.692H612.496V407.91H612.566C612.86 407.126 613.476 406.524 614.61 406.524C616.108 406.524 616.948 407.56 616.948 409.38V414H615.156V409.562C615.156 408.526 614.806 407.994 613.952 407.994C613.21 407.994 612.496 408.386 612.496 409.17V414ZM619.459 414V408.106H618.381V406.692H619.459V405.642C619.459 404.354 620.159 403.64 621.475 403.64H622.749V405.068H621.251V406.692H622.749V408.106H621.251V414H619.459ZM625.941 414H624.149V406.692H625.941V408.204H626.011C626.193 407.434 626.781 406.692 627.943 406.692H628.335V408.386H627.775C626.571 408.386 625.941 408.722 625.941 409.52V414ZM631.461 414.168C629.977 414.168 629.137 413.314 629.137 412.012C629.137 410.514 630.271 409.772 632.259 409.772H633.505V409.24C633.505 408.428 633.099 407.952 632.147 407.952C631.307 407.952 630.831 408.372 630.481 408.876L629.417 407.924C629.949 407.084 630.803 406.524 632.273 406.524C634.247 406.524 635.297 407.462 635.297 409.128V412.572H636.025V414H635.031C634.261 414 633.785 413.496 633.673 412.74H633.589C633.351 413.678 632.553 414.168 631.461 414.168ZM632.063 412.866C632.861 412.866 633.505 412.502 633.505 411.816V410.85H632.357C631.419 410.85 630.957 411.172 630.957 411.746V411.984C630.957 412.572 631.363 412.866 632.063 412.866ZM640.029 414.168C638.643 414.168 637.733 413.664 637.005 412.824L638.097 411.76C638.629 412.376 639.273 412.754 640.099 412.754C640.953 412.754 641.317 412.432 641.317 411.914C641.317 411.494 641.065 411.228 640.421 411.144L639.693 411.046C638.125 410.85 637.257 410.164 637.257 408.834C637.257 407.42 638.363 406.524 640.029 406.524C641.457 406.524 642.185 406.944 642.885 407.672L641.835 408.722C641.415 408.274 640.799 407.938 640.085 407.938C639.315 407.938 638.979 408.246 638.979 408.694C638.979 409.184 639.245 409.408 639.931 409.52L640.673 409.618C642.269 409.842 643.039 410.556 643.039 411.774C643.039 413.188 641.849 414.168 640.029 414.168ZM646.954 414C645.722 414 645.064 413.328 645.064 412.138V408.12H643.986V406.692H644.546C645.078 406.692 645.246 406.44 645.246 405.936V404.69H646.856V406.692H648.354V408.12H646.856V412.572H648.242V414H646.954ZM651.861 414H650.069V406.692H651.861V408.204H651.931C652.113 407.434 652.701 406.692 653.863 406.692H654.255V408.386H653.695C652.491 408.386 651.861 408.722 651.861 409.52V414ZM660.093 414V412.782H660.023C659.771 413.51 659.183 414.168 657.979 414.168C656.481 414.168 655.641 413.132 655.641 411.312V406.692H657.433V411.13C657.433 412.138 657.811 412.684 658.665 412.684C659.379 412.684 660.093 412.306 660.093 411.522V406.692H661.885V414H660.093ZM666.999 414.168C664.843 414.168 663.625 412.684 663.625 410.332C663.625 407.994 664.843 406.524 666.999 406.524C668.469 406.524 669.435 407.224 669.869 408.372L668.399 409.03C668.231 408.414 667.769 407.966 666.999 407.966C666.005 407.966 665.501 408.666 665.501 409.688V411.018C665.501 412.04 666.005 412.726 666.999 412.726C667.853 412.726 668.273 412.236 668.539 411.578L669.911 412.236C669.435 413.524 668.413 414.168 666.999 414.168ZM673.735 414C672.503 414 671.845 413.328 671.845 412.138V408.12H670.767V406.692H671.327C671.859 406.692 672.027 406.44 672.027 405.936V404.69H673.637V406.692H675.135V408.12H673.637V412.572H675.023V414H673.735ZM681.217 414V412.782H681.147C680.895 413.51 680.307 414.168 679.103 414.168C677.605 414.168 676.765 413.132 676.765 411.312V406.692H678.557V411.13C678.557 412.138 678.935 412.684 679.789 412.684C680.503 412.684 681.217 412.306 681.217 411.522V406.692H683.009V414H681.217ZM687.032 414H685.24V406.692H687.032V408.204H687.102C687.284 407.434 687.872 406.692 689.034 406.692H689.426V408.386H688.866C687.662 408.386 687.032 408.722 687.032 409.52V414ZM693.781 414.168C691.625 414.168 690.337 412.67 690.337 410.332C690.337 408.022 691.583 406.524 693.725 406.524C696.007 406.524 697.057 408.204 697.057 410.206V410.794H692.199V410.976C692.199 412.026 692.801 412.74 693.977 412.74C694.859 412.74 695.391 412.32 695.839 411.746L696.805 412.824C696.203 413.65 695.139 414.168 693.781 414.168ZM693.753 407.868C692.815 407.868 692.199 408.568 692.199 409.576V409.688H695.195V409.562C695.195 408.554 694.677 407.868 693.753 407.868Z" fill="black"/>
<path d="M542.984 432.168C540.422 432.168 538.728 430.418 538.728 427.114C538.728 423.81 540.422 422.06 542.984 422.06C545.56 422.06 547.24 423.81 547.24 427.114C547.24 430.418 545.56 432.168 542.984 432.168ZM542.984 430.53C544.384 430.53 545.28 429.536 545.28 427.87V426.358C545.28 424.692 544.384 423.698 542.984 423.698C541.584 423.698 540.688 424.692 540.688 426.358V427.87C540.688 429.536 541.584 430.53 542.984 430.53ZM550.955 432H549.163V424.692H550.955V425.91H551.025C551.319 425.126 551.935 424.524 553.069 424.524C554.567 424.524 555.407 425.56 555.407 427.38V432H553.615V427.562C553.615 426.526 553.265 425.994 552.411 425.994C551.669 425.994 550.955 426.386 550.955 427.17V432ZM561.333 428.626H557.329V426.848H561.333V428.626ZM563.346 434.8V424.692H565.138V425.896H565.194C565.46 425.056 566.244 424.524 567.21 424.524C569.058 424.524 570.08 425.896 570.08 428.332C570.08 430.782 569.058 432.168 567.21 432.168C566.244 432.168 565.474 431.608 565.194 430.782H565.138V434.8H563.346ZM566.636 430.684C567.56 430.684 568.204 430.012 568.204 428.976V427.716C568.204 426.68 567.56 425.994 566.636 425.994C565.782 425.994 565.138 426.456 565.138 427.17V429.494C565.138 430.25 565.782 430.684 566.636 430.684ZM573.693 432H571.901V424.692H573.693V426.204H573.763C573.945 425.434 574.533 424.692 575.695 424.692H576.087V426.386H575.527C574.323 426.386 573.693 426.722 573.693 427.52V432ZM580.442 432.168C578.286 432.168 576.998 430.67 576.998 428.332C576.998 426.022 578.244 424.524 580.386 424.524C582.668 424.524 583.718 426.204 583.718 428.206V428.794H578.86V428.976C578.86 430.026 579.462 430.74 580.638 430.74C581.52 430.74 582.052 430.32 582.5 429.746L583.466 430.824C582.864 431.65 581.8 432.168 580.442 432.168ZM580.414 425.868C579.476 425.868 578.86 426.568 578.86 427.576V427.688H581.856V427.562C581.856 426.554 581.338 425.868 580.414 425.868ZM587.247 432H585.455V424.692H587.247V425.91H587.317C587.597 425.14 588.185 424.524 589.277 424.524C590.271 424.524 591.041 425.014 591.391 425.994H591.419C591.685 425.182 592.497 424.524 593.659 424.524C595.087 424.524 595.899 425.56 595.899 427.38V432H594.107V427.562C594.107 426.512 593.729 425.994 592.931 425.994C592.231 425.994 591.573 426.386 591.573 427.17V432H589.781V427.562C589.781 426.512 589.403 425.994 588.605 425.994C587.919 425.994 587.247 426.386 587.247 427.17V432ZM603.863 433.932H602.351V421.36H603.863V433.932ZM612.364 432H610.516V422.228H614.912C616.718 422.228 617.81 423.446 617.81 425.252C617.81 427.072 616.718 428.276 614.912 428.276H612.364V432ZM612.364 423.838V426.68H614.744C615.458 426.68 615.892 426.288 615.892 425.574V424.93C615.892 424.216 615.458 423.838 614.744 423.838H612.364ZM623.9 432V430.782H623.83C623.578 431.51 622.99 432.168 621.786 432.168C620.288 432.168 619.448 431.132 619.448 429.312V424.692H621.24V429.13C621.24 430.138 621.618 430.684 622.472 430.684C623.186 430.684 623.9 430.306 623.9 429.522V424.692H625.692V432H623.9ZM627.923 432V421.64H629.715V425.896H629.771C630.037 425.056 630.821 424.524 631.787 424.524C633.635 424.524 634.657 425.896 634.657 428.332C634.657 430.782 633.635 432.168 631.787 432.168C630.821 432.168 630.051 431.608 629.771 430.782H629.715V432H627.923ZM631.213 430.684C632.137 430.684 632.781 430.012 632.781 428.976V427.716C632.781 426.68 632.137 425.994 631.213 425.994C630.359 425.994 629.715 426.456 629.715 427.17V429.494C629.715 430.25 630.359 430.684 631.213 430.684ZM639.235 432H638.269C637.051 432 636.477 431.356 636.477 430.236V421.64H638.269V430.572H639.235V432ZM641.649 423.628C640.907 423.628 640.599 423.25 640.599 422.732V422.452C640.599 421.934 640.907 421.556 641.649 421.556C642.377 421.556 642.699 421.934 642.699 422.452V422.732C642.699 423.25 642.377 423.628 641.649 423.628ZM640.753 432V424.692H642.545V432H640.753ZM647.666 432.168C645.51 432.168 644.292 430.684 644.292 428.332C644.292 425.994 645.51 424.524 647.666 424.524C649.136 424.524 650.102 425.224 650.536 426.372L649.066 427.03C648.898 426.414 648.436 425.966 647.666 425.966C646.672 425.966 646.168 426.666 646.168 427.688V429.018C646.168 430.04 646.672 430.726 647.666 430.726C648.52 430.726 648.94 430.236 649.206 429.578L650.578 430.236C650.102 431.524 649.08 432.168 647.666 432.168ZM658.472 432.168C656.316 432.168 655.098 430.684 655.098 428.332C655.098 425.994 656.316 424.524 658.472 424.524C659.942 424.524 660.908 425.224 661.342 426.372L659.872 427.03C659.704 426.414 659.242 425.966 658.472 425.966C657.478 425.966 656.974 426.666 656.974 427.688V429.018C656.974 430.04 657.478 430.726 658.472 430.726C659.326 430.726 659.746 430.236 660.012 429.578L661.384 430.236C660.908 431.524 659.886 432.168 658.472 432.168ZM665.684 432H664.718C663.5 432 662.926 431.356 662.926 430.236V421.64H664.718V430.572H665.684V432ZM670.099 432.168C668.013 432.168 666.711 430.684 666.711 428.332C666.711 425.994 668.013 424.524 670.099 424.524C672.199 424.524 673.501 425.994 673.501 428.332C673.501 430.684 672.199 432.168 670.099 432.168ZM670.099 430.726C671.037 430.726 671.625 430.124 671.625 429.018V427.66C671.625 426.568 671.037 425.966 670.099 425.966C669.175 425.966 668.587 426.568 668.587 427.66V429.018C668.587 430.124 669.175 430.726 670.099 430.726ZM679.618 432V430.782H679.548C679.296 431.51 678.708 432.168 677.504 432.168C676.006 432.168 675.166 431.132 675.166 429.312V424.692H676.958V429.13C676.958 430.138 677.336 430.684 678.19 430.684C678.904 430.684 679.618 430.306 679.618 429.522V424.692H681.41V432H679.618ZM688.176 432V430.782H688.106C687.84 431.608 687.056 432.168 686.09 432.168C684.256 432.168 683.234 430.782 683.234 428.332C683.234 425.896 684.256 424.524 686.09 424.524C687.056 424.524 687.854 425.056 688.106 425.896H688.176V421.64H689.968V432H688.176ZM686.664 430.684C687.518 430.684 688.176 430.25 688.176 429.494V427.17C688.176 426.456 687.518 425.994 686.664 425.994C685.74 425.994 685.11 426.68 685.11 427.716V428.976C685.11 430.012 685.74 430.684 686.664 430.684ZM698.015 433.932H696.503V421.36H698.015V433.932ZM706.516 432H704.668V422.228H709.064C710.87 422.228 711.962 423.446 711.962 425.252C711.962 427.072 710.87 428.276 709.064 428.276H706.516V432ZM706.516 423.838V426.68H708.896C709.61 426.68 710.044 426.288 710.044 425.574V424.93C710.044 424.216 709.61 423.838 708.896 423.838H706.516ZM715.34 432H713.548V424.692H715.34V426.204H715.41C715.592 425.434 716.18 424.692 717.342 424.692H717.734V426.386H717.174C715.97 426.386 715.34 426.722 715.34 427.52V432ZM720.1 423.628C719.358 423.628 719.05 423.25 719.05 422.732V422.452C719.05 421.934 719.358 421.556 720.1 421.556C720.828 421.556 721.15 421.934 721.15 422.452V422.732C721.15 423.25 720.828 423.628 720.1 423.628ZM719.204 432V424.692H720.996V432H719.204ZM726.929 432H724.801L722.365 424.692H724.129L725.151 427.842L725.865 430.446H725.963L726.677 427.842L727.671 424.692H729.379L726.929 432ZM732.418 432.168C730.934 432.168 730.094 431.314 730.094 430.012C730.094 428.514 731.228 427.772 733.216 427.772H734.462V427.24C734.462 426.428 734.056 425.952 733.104 425.952C732.264 425.952 731.788 426.372 731.438 426.876L730.374 425.924C730.906 425.084 731.76 424.524 733.23 424.524C735.204 424.524 736.254 425.462 736.254 427.128V430.572H736.982V432H735.988C735.218 432 734.742 431.496 734.63 430.74H734.546C734.308 431.678 733.51 432.168 732.418 432.168ZM733.02 430.866C733.818 430.866 734.462 430.502 734.462 429.816V428.85H733.314C732.376 428.85 731.914 429.172 731.914 429.746V429.984C731.914 430.572 732.32 430.866 733.02 430.866ZM740.819 432C739.587 432 738.929 431.328 738.929 430.138V426.12H737.851V424.692H738.411C738.943 424.692 739.111 424.44 739.111 423.936V422.69H740.721V424.692H742.219V426.12H740.721V430.572H742.107V432H740.819ZM746.833 432.168C744.677 432.168 743.389 430.67 743.389 428.332C743.389 426.022 744.635 424.524 746.777 424.524C749.059 424.524 750.109 426.204 750.109 428.206V428.794H745.251V428.976C745.251 430.026 745.853 430.74 747.029 430.74C747.911 430.74 748.443 430.32 748.891 429.746L749.857 430.824C749.255 431.65 748.191 432.168 746.833 432.168ZM746.805 425.868C745.867 425.868 745.251 426.568 745.251 427.576V427.688H748.247V427.562C748.247 426.554 747.729 425.868 746.805 425.868ZM758.198 432.168C756.042 432.168 754.824 430.684 754.824 428.332C754.824 425.994 756.042 424.524 758.198 424.524C759.668 424.524 760.634 425.224 761.068 426.372L759.598 427.03C759.43 426.414 758.968 425.966 758.198 425.966C757.204 425.966 756.7 426.666 756.7 427.688V429.018C756.7 430.04 757.204 430.726 758.198 430.726C759.052 430.726 759.472 430.236 759.738 429.578L761.11 430.236C760.634 431.524 759.612 432.168 758.198 432.168ZM765.41 432H764.444C763.226 432 762.652 431.356 762.652 430.236V421.64H764.444V430.572H765.41V432ZM769.825 432.168C767.739 432.168 766.437 430.684 766.437 428.332C766.437 425.994 767.739 424.524 769.825 424.524C771.925 424.524 773.227 425.994 773.227 428.332C773.227 430.684 771.925 432.168 769.825 432.168ZM769.825 430.726C770.763 430.726 771.351 430.124 771.351 429.018V427.66C771.351 426.568 770.763 425.966 769.825 425.966C768.901 425.966 768.313 426.568 768.313 427.66V429.018C768.313 430.124 768.901 430.726 769.825 430.726ZM779.344 432V430.782H779.274C779.022 431.51 778.434 432.168 777.23 432.168C775.732 432.168 774.892 431.132 774.892 429.312V424.692H776.684V429.13C776.684 430.138 777.062 430.684 777.916 430.684C778.63 430.684 779.344 430.306 779.344 429.522V424.692H781.136V432H779.344ZM787.902 432V430.782H787.832C787.566 431.608 786.782 432.168 785.816 432.168C783.982 432.168 782.96 430.782 782.96 428.332C782.96 425.896 783.982 424.524 785.816 424.524C786.782 424.524 787.58 425.056 787.832 425.896H787.902V421.64H789.694V432H787.902ZM786.39 430.684C787.244 430.684 787.902 430.25 787.902 429.494V427.17C787.902 426.456 787.244 425.994 786.39 425.994C785.466 425.994 784.836 426.68 784.836 427.716V428.976C784.836 430.012 785.466 430.684 786.39 430.684Z" fill="black"/>
<path d="M907.18 201H902.742V199.516H904.03V192.712H902.742V191.228H907.18V192.712H905.878V199.516H907.18V201ZM909.228 201V191.228H913.75C915.36 191.228 916.34 192.222 916.34 193.734C916.34 195.218 915.486 195.778 914.59 195.834V195.918C915.444 195.932 916.704 196.534 916.704 198.2C916.704 199.768 915.626 201 914.184 201H909.228ZM911.076 196.814V199.432H913.652C914.352 199.432 914.772 199.054 914.772 198.368V197.892C914.772 197.206 914.352 196.814 913.652 196.814H911.076ZM911.076 192.796V195.302H913.358C914.03 195.302 914.422 194.91 914.422 194.266V193.832C914.422 193.174 914.03 192.796 913.358 192.796H911.076ZM918.671 201V191.228H920.757L923.263 196.002H923.319L925.797 191.228H927.799V201H926.049V193.986H925.993L925.237 195.54L923.235 199.236L921.233 195.54L920.477 193.986H920.421V201H918.671ZM936.011 201.168C934.625 201.168 933.715 200.664 932.987 199.824L934.079 198.76C934.611 199.376 935.255 199.754 936.081 199.754C936.935 199.754 937.299 199.432 937.299 198.914C937.299 198.494 937.047 198.228 936.403 198.144L935.675 198.046C934.107 197.85 933.239 197.164 933.239 195.834C933.239 194.42 934.345 193.524 936.011 193.524C937.439 193.524 938.167 193.944 938.867 194.672L937.817 195.722C937.397 195.274 936.781 194.938 936.067 194.938C935.297 194.938 934.961 195.246 934.961 195.694C934.961 196.184 935.227 196.408 935.913 196.52L936.655 196.618C938.251 196.842 939.021 197.556 939.021 198.774C939.021 200.188 937.831 201.168 936.011 201.168ZM943.806 197.556L945.08 193.692H946.76L943.82 202.302C943.456 203.352 942.938 203.8 941.734 203.8H940.656V202.372H941.972L942.308 201.35L939.69 193.692H941.468L942.742 197.556L943.218 199.404H943.302L943.806 197.556ZM950.386 201.168C949 201.168 948.09 200.664 947.362 199.824L948.454 198.76C948.986 199.376 949.63 199.754 950.456 199.754C951.31 199.754 951.674 199.432 951.674 198.914C951.674 198.494 951.422 198.228 950.778 198.144L950.05 198.046C948.482 197.85 947.614 197.164 947.614 195.834C947.614 194.42 948.72 193.524 950.386 193.524C951.814 193.524 952.542 193.944 953.242 194.672L952.192 195.722C951.772 195.274 951.156 194.938 950.442 194.938C949.672 194.938 949.336 195.246 949.336 195.694C949.336 196.184 949.602 196.408 950.288 196.52L951.03 196.618C952.626 196.842 953.396 197.556 953.396 198.774C953.396 200.188 952.206 201.168 950.386 201.168ZM957.311 201C956.079 201 955.421 200.328 955.421 199.138V195.12H954.343V193.692H954.903C955.435 193.692 955.603 193.44 955.603 192.936V191.69H957.213V193.692H958.711V195.12H957.213V199.572H958.599V201H957.311ZM963.325 201.168C961.169 201.168 959.881 199.67 959.881 197.332C959.881 195.022 961.127 193.524 963.269 193.524C965.551 193.524 966.601 195.204 966.601 197.206V197.794H961.743V197.976C961.743 199.026 962.345 199.74 963.521 199.74C964.403 199.74 964.935 199.32 965.383 198.746L966.349 199.824C965.747 200.65 964.683 201.168 963.325 201.168ZM963.297 194.868C962.359 194.868 961.743 195.568 961.743 196.576V196.688H964.739V196.562C964.739 195.554 964.221 194.868 963.297 194.868ZM970.129 201H968.337V193.692H970.129V194.91H970.199C970.479 194.14 971.067 193.524 972.159 193.524C973.153 193.524 973.923 194.014 974.273 194.994H974.301C974.567 194.182 975.379 193.524 976.541 193.524C977.969 193.524 978.781 194.56 978.781 196.38V201H976.989V196.562C976.989 195.512 976.611 194.994 975.813 194.994C975.113 194.994 974.455 195.386 974.455 196.17V201H972.663V196.562C972.663 195.512 972.285 194.994 971.487 194.994C970.801 194.994 970.129 195.386 970.129 196.17V201ZM983.319 201.168C981.933 201.168 981.023 200.664 980.295 199.824L981.387 198.76C981.919 199.376 982.563 199.754 983.389 199.754C984.243 199.754 984.607 199.432 984.607 198.914C984.607 198.494 984.355 198.228 983.711 198.144L982.983 198.046C981.415 197.85 980.547 197.164 980.547 195.834C980.547 194.42 981.653 193.524 983.319 193.524C984.747 193.524 985.475 193.944 986.175 194.672L985.125 195.722C984.705 195.274 984.089 194.938 983.375 194.938C982.605 194.938 982.269 195.246 982.269 195.694C982.269 196.184 982.535 196.408 983.221 196.52L983.963 196.618C985.559 196.842 986.329 197.556 986.329 198.774C986.329 200.188 985.139 201.168 983.319 201.168Z" fill="black"/>
<path d="M897.888 300L894.948 294.988L893.94 292.958H893.898V300H892.148V290.228H894.178L897.118 295.24L898.126 297.27H898.168V290.228H899.918V300H897.888ZM905.157 300.168C903.07 300.168 901.768 298.684 901.768 296.332C901.768 293.994 903.07 292.524 905.157 292.524C907.257 292.524 908.559 293.994 908.559 296.332C908.559 298.684 907.257 300.168 905.157 300.168ZM905.157 298.726C906.095 298.726 906.683 298.124 906.683 297.018V295.66C906.683 294.568 906.095 293.966 905.157 293.966C904.232 293.966 903.644 294.568 903.644 295.66V297.018C903.644 298.124 904.232 298.726 905.157 298.726ZM912.099 300H910.307V292.692H912.099V293.91H912.169C912.463 293.126 913.079 292.524 914.213 292.524C915.711 292.524 916.551 293.56 916.551 295.38V300H914.759V295.562C914.759 294.526 914.409 293.994 913.555 293.994C912.813 293.994 912.099 294.386 912.099 295.17V300ZM922.478 296.626H918.474V294.848H922.478V296.626ZM928.211 300H923.773V298.516H925.061V291.712H923.773V290.228H928.211V291.712H926.909V298.516H928.211V300ZM930.259 300V290.228H934.781C936.391 290.228 937.371 291.222 937.371 292.734C937.371 294.218 936.517 294.778 935.621 294.834V294.918C936.475 294.932 937.735 295.534 937.735 297.2C937.735 298.768 936.657 300 935.215 300H930.259ZM932.107 295.814V298.432H934.683C935.383 298.432 935.803 298.054 935.803 297.368V296.892C935.803 296.206 935.383 295.814 934.683 295.814H932.107ZM932.107 291.796V294.302H934.389C935.061 294.302 935.453 293.91 935.453 293.266V292.832C935.453 292.174 935.061 291.796 934.389 291.796H932.107ZM939.702 300V290.228H941.788L944.294 295.002H944.35L946.828 290.228H948.83V300H947.08V292.986H947.024L946.268 294.54L944.266 298.236L942.264 294.54L941.508 292.986H941.452V300H939.702ZM957.042 300.168C955.656 300.168 954.746 299.664 954.018 298.824L955.11 297.76C955.642 298.376 956.286 298.754 957.112 298.754C957.966 298.754 958.33 298.432 958.33 297.914C958.33 297.494 958.078 297.228 957.434 297.144L956.706 297.046C955.138 296.85 954.27 296.164 954.27 294.834C954.27 293.42 955.376 292.524 957.042 292.524C958.47 292.524 959.198 292.944 959.898 293.672L958.848 294.722C958.428 294.274 957.812 293.938 957.098 293.938C956.328 293.938 955.992 294.246 955.992 294.694C955.992 295.184 956.258 295.408 956.944 295.52L957.686 295.618C959.282 295.842 960.052 296.556 960.052 297.774C960.052 299.188 958.862 300.168 957.042 300.168ZM964.836 296.556L966.11 292.692H967.79L964.85 301.302C964.486 302.352 963.968 302.8 962.764 302.8H961.686V301.372H963.002L963.338 300.35L960.72 292.692H962.498L963.772 296.556L964.248 298.404H964.332L964.836 296.556ZM971.417 300.168C970.031 300.168 969.121 299.664 968.393 298.824L969.485 297.76C970.017 298.376 970.661 298.754 971.487 298.754C972.341 298.754 972.705 298.432 972.705 297.914C972.705 297.494 972.453 297.228 971.809 297.144L971.081 297.046C969.513 296.85 968.645 296.164 968.645 294.834C968.645 293.42 969.751 292.524 971.417 292.524C972.845 292.524 973.573 292.944 974.273 293.672L973.223 294.722C972.803 294.274 972.187 293.938 971.473 293.938C970.703 293.938 970.367 294.246 970.367 294.694C970.367 295.184 970.633 295.408 971.319 295.52L972.061 295.618C973.657 295.842 974.427 296.556 974.427 297.774C974.427 299.188 973.237 300.168 971.417 300.168ZM978.342 300C977.11 300 976.452 299.328 976.452 298.138V294.12H975.374V292.692H975.934C976.466 292.692 976.634 292.44 976.634 291.936V290.69H978.244V292.692H979.742V294.12H978.244V298.572H979.63V300H978.342ZM984.355 300.168C982.199 300.168 980.911 298.67 980.911 296.332C980.911 294.022 982.157 292.524 984.299 292.524C986.581 292.524 987.631 294.204 987.631 296.206V296.794H982.773V296.976C982.773 298.026 983.375 298.74 984.551 298.74C985.433 298.74 985.965 298.32 986.413 297.746L987.379 298.824C986.777 299.65 985.713 300.168 984.355 300.168ZM984.327 293.868C983.389 293.868 982.773 294.568 982.773 295.576V295.688H985.769V295.562C985.769 294.554 985.251 293.868 984.327 293.868ZM991.16 300H989.368V292.692H991.16V293.91H991.23C991.51 293.14 992.098 292.524 993.19 292.524C994.184 292.524 994.954 293.014 995.304 293.994H995.332C995.598 293.182 996.41 292.524 997.572 292.524C999 292.524 999.812 293.56 999.812 295.38V300H998.02V295.562C998.02 294.512 997.642 293.994 996.844 293.994C996.144 293.994 995.486 294.386 995.486 295.17V300H993.694V295.562C993.694 294.512 993.316 293.994 992.518 293.994C991.832 293.994 991.16 294.386 991.16 295.17V300ZM1004.35 300.168C1002.96 300.168 1002.05 299.664 1001.33 298.824L1002.42 297.76C1002.95 298.376 1003.59 298.754 1004.42 298.754C1005.27 298.754 1005.64 298.432 1005.64 297.914C1005.64 297.494 1005.39 297.228 1004.74 297.144L1004.01 297.046C1002.45 296.85 1001.58 296.164 1001.58 294.834C1001.58 293.42 1002.68 292.524 1004.35 292.524C1005.78 292.524 1006.51 292.944 1007.21 293.672L1006.16 294.722C1005.74 294.274 1005.12 293.938 1004.41 293.938C1003.64 293.938 1003.3 294.246 1003.3 294.694C1003.3 295.184 1003.57 295.408 1004.25 295.52L1004.99 295.618C1006.59 295.842 1007.36 296.556 1007.36 297.774C1007.36 299.188 1006.17 300.168 1004.35 300.168Z" fill="black"/>
<rect x="538" y="155" width="133" height="36" fill="#C9A9FB"/>
<path d="M558.56 177V175.544H558.504C558.294 176.468 557.314 177.168 555.83 177.168C553.464 177.168 551.784 175.404 551.784 172.128C551.784 168.866 553.464 167.06 555.998 167.06C557.734 167.06 558.938 167.914 559.596 169.23L558.476 169.888C558.056 168.908 557.202 168.278 555.998 168.278C554.346 168.278 553.24 169.44 553.24 171.316V172.898C553.24 174.774 554.332 175.95 556.082 175.95C557.384 175.95 558.462 175.292 558.462 173.948V173.066H556.376V171.89H559.778V177H558.56ZM568.047 177L564.925 172.296L563.567 173.836V177H562.209V167.228H563.567V172.324H563.623L565.009 170.588L567.823 167.228H569.447L565.877 171.386L569.713 177H568.047ZM576.852 177H571.42V167.228H572.778V175.796H576.852V177ZM578.676 177V167.228H580.384L583.1 172.366H583.156L585.872 167.228H587.524V177H586.208V169.104H586.138L585.34 170.714L583.1 174.816L580.86 170.714L580.062 169.104H579.992V177H578.676ZM590.211 179.114H589.063L592.829 166.64H593.977L590.211 179.114ZM602.011 177V172.66H597.307V177H595.949V167.228H597.307V171.456H602.011V167.228H603.369V177H602.011ZM611.956 177H611.214C610.416 177 610.038 176.496 609.94 175.796H609.87C609.576 176.692 608.806 177.168 607.77 177.168C606.258 177.168 605.376 176.328 605.376 174.998C605.376 173.598 606.398 172.842 608.47 172.842H609.842V172.184C609.842 171.218 609.324 170.672 608.232 170.672C607.378 170.672 606.832 171.092 606.454 171.708L605.67 170.994C606.104 170.21 606.958 169.58 608.302 169.58C610.108 169.58 611.144 170.504 611.144 172.072V175.894H611.956V177ZM608.064 176.118C609.086 176.118 609.842 175.6 609.842 174.872V173.752H608.456C607.266 173.752 606.734 174.116 606.734 174.788V175.068C606.734 175.74 607.252 176.118 608.064 176.118ZM615.896 177.168C614.552 177.168 613.67 176.622 612.998 175.768L613.88 175.012C614.426 175.698 615.098 176.09 615.98 176.09C616.904 176.09 617.408 175.684 617.408 175.012C617.408 174.48 617.128 174.102 616.246 173.976L615.63 173.878C614.244 173.682 613.278 173.108 613.278 171.764C613.278 170.336 614.384 169.58 615.91 169.58C617.142 169.58 617.912 170.014 618.528 170.742L617.702 171.526C617.352 171.064 616.736 170.658 615.868 170.658C614.986 170.658 614.538 171.064 614.538 171.68C614.538 172.324 614.958 172.59 615.798 172.716L616.414 172.814C618.01 173.052 618.668 173.752 618.668 174.872C618.668 176.286 617.604 177.168 615.896 177.168ZM620.694 177V166.64H621.996V170.938H622.066C622.402 170.14 623.018 169.58 624.11 169.58C625.594 169.58 626.504 170.602 626.504 172.366V177H625.202V172.562C625.202 171.344 624.698 170.714 623.676 170.714C622.822 170.714 621.996 171.148 621.996 172.03V177H620.694ZM629.537 168.236C628.991 168.236 628.753 167.942 628.753 167.522V167.326C628.753 166.906 628.991 166.612 629.537 166.612C630.083 166.612 630.321 166.906 630.321 167.326V167.522C630.321 167.942 630.083 168.236 629.537 168.236ZM628.879 177V169.748H630.181V177H628.879ZM636.289 177.168C633.797 177.168 632.271 175.376 632.271 172.114C632.271 168.852 633.797 167.06 636.289 167.06C637.941 167.06 639.075 167.83 639.705 169.23L638.585 169.874C638.221 168.908 637.465 168.278 636.289 168.278C634.693 168.278 633.727 169.468 633.727 171.372V172.856C633.727 174.76 634.693 175.95 636.289 175.95C637.493 175.95 638.305 175.264 638.669 174.256L639.761 174.914C639.131 176.314 637.941 177.168 636.289 177.168ZM644.358 177.168C642.384 177.168 641.054 175.684 641.054 173.374C641.054 171.064 642.384 169.58 644.358 169.58C646.332 169.58 647.662 171.064 647.662 173.374C647.662 175.684 646.332 177.168 644.358 177.168ZM644.358 176.048C645.492 176.048 646.276 175.334 646.276 173.92V172.828C646.276 171.414 645.492 170.7 644.358 170.7C643.224 170.7 642.44 171.414 642.44 172.828V173.92C642.44 175.334 643.224 176.048 644.358 176.048ZM650.895 177H649.593V169.748H650.895V171.134H650.965C651.203 170.42 651.847 169.748 653.009 169.748H653.443V171.05H652.799C651.595 171.05 650.895 171.526 650.895 172.24V177ZM655.003 179.8V169.748H656.305V170.938H656.361C656.697 170.042 657.453 169.58 658.447 169.58C660.267 169.58 661.359 171.022 661.359 173.374C661.359 175.726 660.267 177.168 658.447 177.168C657.453 177.168 656.697 176.706 656.361 175.81H656.305V179.8H655.003ZM658.069 176.034C659.231 176.034 659.973 175.208 659.973 173.99V172.758C659.973 171.54 659.231 170.714 658.069 170.714C657.089 170.714 656.305 171.274 656.305 172.044V174.704C656.305 175.474 657.089 176.034 658.069 176.034Z" fill="black"/>
<g clip-path="url(#clip4_2_3891)">
<path d="M1058 162H1057V160C1057 157.24 1054.76 155 1052 155C1049.24 155 1047 157.24 1047 160V162H1046C1044.9 162 1044 162.9 1044 164V174C1044 175.1 1044.9 176 1046 176H1058C1059.1 176 1060 175.1 1060 174V164C1060 162.9 1059.1 162 1058 162ZM1052 171C1050.9 171 1050 170.1 1050 169C1050 167.9 1050.9 167 1052 167C1053.1 167 1054 167.9 1054 169C1054 170.1 1053.1 171 1052 171ZM1055.1 162H1048.9V160C1048.9 158.29 1050.29 156.9 1052 156.9C1053.71 156.9 1055.1 158.29 1055.1 160V162Z" fill="#C9A9FB"/>
</g>
<g clip-path="url(#clip5_2_3891)">
<path d="M215.192 217.333C213.688 213.062 209.618 210 204.833 210C198.765 210 193.833 214.932 193.833 221C193.833 227.068 198.765 232 204.833 232C209.618 232 213.688 228.938 215.192 224.667H223.167V232H230.5V224.667H234.167V217.333H215.192ZM204.833 224.667C202.817 224.667 201.167 223.017 201.167 221C201.167 218.983 202.817 217.333 204.833 217.333C206.85 217.333 208.5 218.983 208.5 221C208.5 223.017 206.85 224.667 204.833 224.667Z" fill="#56BAB9"/>
</g>
<g clip-path="url(#clip6_2_3891)">
<path d="M397.192 170.333C395.688 166.062 391.618 163 386.833 163C380.765 163 375.833 167.932 375.833 174C375.833 180.068 380.765 185 386.833 185C391.618 185 395.688 181.938 397.192 177.667H405.167V185H412.5V177.667H416.167V170.333H397.192ZM386.833 177.667C384.817 177.667 383.167 176.017 383.167 174C383.167 171.983 384.817 170.333 386.833 170.333C388.85 170.333 390.5 171.983 390.5 174C390.5 176.017 388.85 177.667 386.833 177.667Z" fill="#C9A9FB"/>
</g>
<g clip-path="url(#clip7_2_3891)">
<path d="M406.192 162.333C404.688 158.062 400.618 155 395.833 155C389.765 155 384.833 159.932 384.833 166C384.833 172.068 389.765 177 395.833 177C400.618 177 404.688 173.938 406.192 169.667H414.167V177H421.5V169.667H425.167V162.333H406.192ZM395.833 169.667C393.817 169.667 392.167 168.017 392.167 166C392.167 163.983 393.817 162.333 395.833 162.333C397.85 162.333 399.5 163.983 399.5 166C399.5 168.017 397.85 169.667 395.833 169.667Z" fill="#C9A9FB"/>
</g>
<path d="M710.098 170L706.976 165.296L705.618 166.836V170H704.26V160.228H705.618V165.324H705.674L707.06 163.588L709.874 160.228H711.498L707.928 164.386L711.764 170H710.098ZM713.471 170V160.228H715.179L717.895 165.366H717.951L720.667 160.228H722.319V170H721.003V162.104H720.933L720.135 163.714L717.895 167.816L715.655 163.714L714.857 162.104H714.787V170H713.471ZM728.618 170H724.544V168.852H725.902V161.376H724.544V160.228H728.618V161.376H727.26V168.852H728.618V170ZM732.211 170H730.853V160.228H734.885C736.649 160.228 737.657 161.362 737.657 163.098C737.657 164.834 736.649 165.968 734.885 165.968H732.211V170ZM732.211 161.432V164.764H734.829C735.697 164.764 736.215 164.288 736.215 163.448V162.748C736.215 161.908 735.697 161.432 734.829 161.432H732.211ZM738.932 168.222C739.576 168.222 739.856 168.586 739.856 169.104V169.314C739.856 170.14 739.366 171.19 738.54 171.876H737.518C738.092 171.288 738.456 170.784 738.624 170.126C738.204 170.042 738.008 169.734 738.008 169.314V169.104C738.008 168.586 738.288 168.222 738.932 168.222ZM751.609 170L748.487 165.296L747.129 166.836V170H745.771V160.228H747.129V165.324H747.185L748.571 163.588L751.385 160.228H753.009L749.439 164.386L753.275 170H751.609ZM754.982 170V160.228H756.69L759.406 165.366H759.462L762.178 160.228H763.83V170H762.514V162.104H762.444L761.646 163.714L759.406 167.816L757.166 163.714L756.368 162.104H756.298V170H754.982ZM770.129 170H766.055V168.852H767.413V161.376H766.055V160.228H770.129V161.376H768.771V168.852H770.129V170ZM773.722 170H772.364V160.228H776.396C778.16 160.228 779.168 161.362 779.168 163.098C779.168 164.834 778.16 165.968 776.396 165.968H773.722V170ZM773.722 161.432V164.764H776.34C777.208 164.764 777.726 164.288 777.726 163.448V162.748C777.726 161.908 777.208 161.432 776.34 161.432H773.722ZM784.693 169.132H783.489V166.276H780.829V165.184H783.489V162.328H784.693V165.184H787.353V166.276H784.693V169.132ZM790.392 168.222C791.036 168.222 791.316 168.586 791.316 169.104V169.314C791.316 170.14 790.826 171.19 790 171.876H788.978C789.552 171.288 789.916 170.784 790.084 170.126C789.664 170.042 789.468 169.734 789.468 169.314V169.104C789.468 168.586 789.748 168.222 790.392 168.222ZM707.886 188H703.812V186.852H705.17V179.376H703.812V178.228H707.886V179.376H706.528V186.852H707.886V188ZM711.479 188H710.121V178.228H714.153C715.917 178.228 716.925 179.362 716.925 181.098C716.925 182.834 715.917 183.968 714.153 183.968H711.479V188ZM711.479 179.432V182.764H714.097C714.965 182.764 715.483 182.288 715.483 181.448V180.748C715.483 179.908 714.965 179.432 714.097 179.432H711.479ZM720.266 188H718.908V178.228H722.94C724.704 178.228 725.712 179.362 725.712 181.098C725.712 182.834 724.704 183.968 722.94 183.968H720.266V188ZM720.266 179.432V182.764H722.884C723.752 182.764 724.27 182.288 724.27 181.448V180.748C724.27 179.908 723.752 179.432 722.884 179.432H720.266Z" fill="black"/>
<defs>
<clipPath id="clip0_2_3891">
<rect width="415" height="48" fill="white" transform="translate(41 90)"/>
</clipPath>
<clipPath id="clip1_2_3891">
<rect width="227" height="66" fill="white" transform="translate(105 138)"/>
</clipPath>
<clipPath id="clip2_2_3891">
<rect width="264" height="48" fill="white" transform="translate(814 90)"/>
</clipPath>
<clipPath id="clip3_2_3891">
<rect width="24" height="24" fill="white" transform="translate(1040 256)"/>
</clipPath>
<clipPath id="clip4_2_3891">
<rect width="24" height="24" fill="white" transform="translate(1040 154)"/>
</clipPath>
<clipPath id="clip5_2_3891">
<rect width="44" height="44" fill="white" transform="translate(192 199)"/>
</clipPath>
<clipPath id="clip6_2_3891">
<rect width="44" height="44" fill="white" transform="translate(374 152)"/>
</clipPath>
<clipPath id="clip7_2_3891">
<rect width="44" height="44" fill="white" transform="translate(383 144)"/>
</clipPath>
</defs>
</svg>
