<svg xmlns="http://www.w3.org/2000/svg" width="1056" height="450" viewBox="0 0 1056 450">
    <defs>
        <style>.cls-1,.cls-10,.cls-5,.cls-8,.cls-9{fill:none;}.cls-1,.cls-5{stroke:#50565b;}.cls-1,.cls-4{stroke-miterlimit:10;}.cls-2{fill:#50565b;}.cls-3{fill:#f2f4f8;}.cls-4{fill:#e3f6ff;}.cls-10,.cls-4,.cls-6,.cls-7,.cls-8,.cls-9{stroke:#000;}.cls-10,.cls-5,.cls-6,.cls-8,.cls-9{stroke-linecap:round;}.cls-10,.cls-5,.cls-6,.cls-7,.cls-8,.cls-9{stroke-linejoin:round;}.cls-5,.cls-8{stroke-dasharray:2 2;}.cls-6,.cls-7{fill:#87eded;}.cls-10{stroke-dasharray:2;}.cls-11{fill:#878d96;}.cls-12{fill:#198038;}.cls-13{fill:#f1c21b;}.cls-14{fill:#da1e28;}.cls-15{font-size:10px;}.cls-15,.cls-17,.cls-19{font-family:IBMPlexSans, IBM Plex Sans;}.cls-16{font-size:16px;font-family:IBMPlexSans-Medium, IBM Plex Sans;font-weight:500;}.cls-17{font-size:14px;}.cls-18{font-size:18px;font-family:IBMPlexSans-SemiBold, IBM Plex Sans;font-weight:600;}.cls-19{font-size:18.7738px;fill:#fff;}</style>
    </defs>
    <g id="Layer_1" data-name="Layer 1">
        <line class="cls-1" x1="149.2615" y1="216.1376" x2="198.5951" y2="216.1376" />
        <polygon class="cls-2" points="197.72 219.129 202.901 216.138 197.72 213.146 197.72 219.129" />
        <circle class="cls-3" cx="94.6164" cy="215.5643" r="49.6164" />
        <rect class="cls-4" x="205.2225" y="175.7541" width="157.0824" height="82.0512" />
        <line class="cls-1" x1="365.1598" y1="216.1376" x2="414.4934" y2="216.1376" />
        <polygon class="cls-2" points="413.618 219.129 418.799 216.138 413.618 213.146 413.618 219.129" />
        <rect class="cls-4" x="421.1209" y="175.7541" width="157.0824" height="82.0512" />
        <rect class="cls-4" x="421.1209" y="321.9213" width="157.0824" height="82.0512" />
        <line class="cls-5" x1="581.0582" y1="216.1376" x2="630.3918" y2="216.1376" />
        <polygon class="cls-2" points="629.516 219.129 634.698 216.138 629.516 213.146 629.516 219.129" />
        <rect class="cls-4" x="637.0192" y="175.7541" width="157.0824" height="82.0512" />
        <line class="cls-5" x1="796.9565" y1="216.1376" x2="846.2902" y2="216.1376" />
        <polygon class="cls-2" points="845.415 219.129 850.596 216.138 845.415 213.146 845.415 219.129" />
        <rect class="cls-4" x="852.9176" y="175.7541" width="157.0824" height="82.0512" />
        <g id="key">
            <path class="cls-6" d="M91.9887,221.1032a15.6628,15.6628,0,1,1-.7439-10.6412" />
            <circle cx="71.8491" cy="216.7906" r="3.3525" />
            <polyline class="cls-7" points="91.245 210.462 122.521 210.462 128.376 216.316 123.33 221.362 103.665 221.362 100.139 217.869 96.905 221.103 91.989 221.103" />
        </g>
        <line class="cls-8" x1="478.8082" y1="263.1692" x2="478.8082" y2="312.5029" />
        <polygon points="475.816 311.627 478.808 316.809 481.8 311.627 475.816 311.627" />
        <line class="cls-8" x1="509.6508" y1="118.343" x2="509.6508" y2="167.6766" />
        <polygon points="506.659 166.801 509.651 171.982 512.643 166.801 506.659 166.801" />
        <line class="cls-9" x1="944.1295" y1="87.5004" x2="944.1295" y2="166.3356" />
        <polygon points="941.138 165.46 944.129 170.641 947.121 165.46 941.138 165.46" />
        <line class="cls-8" x1="509.6508" y1="267.475" x2="509.6508" y2="316.8086" />
        <polygon points="506.659 268.35 509.651 263.169 512.643 268.35 506.659 268.35" />
        <line class="cls-10" x1="913.2869" y1="117.002" x2="913.2869" y2="170.6414" />
        <line class="cls-9" x1="478.8082" y1="87.5004" x2="478.8082" y2="171.9824" />
        <line class="cls-8" x1="932.0606" y1="267.475" x2="932.0606" y2="363.743" />
        <polygon points="929.069 268.35 932.061 263.169 935.052 268.35 929.069 268.35" />
        <line class="cls-10" x1="913.2869" y1="117.002" x2="509.6508" y2="117.002" />
        <line class="cls-10" x1="930.7196" y1="362.402" x2="580.7229" y2="362.402" />
        <line class="cls-9" x1="944.1295" y1="87.5004" x2="478.8082" y2="87.5004" />
        <circle class="cls-2" cx="132.7673" cy="245.1288" r="11.3984" />
        <circle class="cls-11" cx="661.8524" cy="215.5643" r="5.3639" />
        <circle class="cls-12" cx="447.2951" cy="215.5643" r="5.3639" />
        <circle class="cls-13" cx="232.7377" cy="215.5643" r="5.3639" />
        <circle class="cls-14" cx="880.4328" cy="215.5643" r="5.3639" />
        <circle class="cls-11" cx="447.2951" cy="361.7315" r="5.3639" />
    </g>
    <g id="Text">
        <text class="cls-15" transform="translate(468.4182 236.2059)">(Encrypt &amp; Decrypt)</text>
        <text class="cls-16" transform="translate(249.9946 221.3378)">Pre-active</text>
        <text class="cls-16" transform="translate(467.6934 219.9969)">Active</text>
        <text class="cls-16" transform="translate(467.9297 367.5047)">Suspended</text>
        <text class="cls-16" transform="translate(682.2725 221.3378)">Deactivated</text>
        <text class="cls-16" transform="translate(901.8486 221.3378)">Destroyed</text>
        <text class="cls-17" transform="translate(694.3203 134.6795)">Restore</text>
        <text class="cls-18" transform="translate(45.3325 47.0243)">Key states</text>
        <text class="cls-19" transform="translate(127.1348 250.7987)">+</text>
        <text class="cls-17" transform="translate(428.8047 294.4881)">Disable</text>
        <text class="cls-17" transform="translate(697.002 72.9945)">Delete</text>
        <text class="cls-17" transform="translate(800.2578 207.3241)">Delete</text>
        <text class="cls-17" transform="translate(585.7002 207.3241)">Expire</text>
        <text class="cls-17" transform="translate(697.002 353.4916)">Delete</text>
        <text class="cls-17" transform="translate(514.6279 294.4881)">Enable</text>
    </g>
</svg>