<svg xmlns="http://www.w3.org/2000/svg" width="1056" height="730" viewBox="0 0 1056 730">
    <defs>
        <style>.cls-1{fill:#f2f4f8;}.cls-1,.cls-3,.cls-4,.cls-6,.cls-7,.cls-8,.cls-9{stroke:#000;}.cls-1,.cls-3,.cls-5,.cls-6,.cls-7,.cls-8{stroke-linejoin:round;}.cls-14,.cls-2,.cls-3,.cls-4{fill:#fff;}.cls-2{stroke:#fff;}.cls-2,.cls-4,.cls-9{stroke-miterlimit:10;}.cls-3,.cls-5,.cls-8{stroke-linecap:round;}.cls-5,.cls-8,.cls-9{fill:none;}.cls-5{stroke:#a8a8a8;stroke-dasharray:2;}.cls-6{fill:#dbfbfb;}.cls-7{fill:#e3f6ff;}.cls-9{stroke-width:2px;}.cls-10{fill:#0072c3;}.cls-11,.cls-13,.cls-14{font-size:16px;}.cls-11,.cls-12{font-family:IBMPlexSans-SemiBold, IBM Plex Sans;font-weight:600;}.cls-12{font-size:18px;}.cls-13{font-family:IBMPlexSans, IBM Plex Sans;}.cls-14{font-family:IBMPlexMono, IBM Plex Mono;}</style>
    </defs>
    <g id="Layer_1" data-name="Layer 1">
        <rect class="cls-1" x="563.2108" y="205.1559" width="399.389" height="192.9252" />
        <rect class="cls-2" x="605.1804" y="283.6798" width="135.3861" height="58.216" />
        <line class="cls-3" x1="605.5452" y1="342.6313" x2="605.5452" y2="283.0604" />
        <line class="cls-3" x1="740.905" y1="342.6313" x2="740.905" y2="282.4348" />
        <path class="cls-4" d="M740.8787,342.2909c0,4.9853-30.7345,9.7555-67.9626,9.7555s-67.3972-4.7641-67.3972-9.7493" />
        <ellipse class="cls-4" cx="673.1988" cy="282.3051" rx="67.6799" ry="6.0749" />
        <rect class="cls-5" x="67.0207" y="138.8167" width="921.9793" height="284.9877" />
        <rect class="cls-6" x="802.8441" y="278.2644" width="135.3861" height="67.693" />
        <rect class="cls-1" x="93.421" y="492.1744" width="398.712" height="192.9252" />
        <rect class="cls-7" x="128.6214" y="535.4979" width="327.6343" height="67.693" />
        <rect class="cls-1" x="93.421" y="205.1559" width="398.712" height="192.9252" />
        <rect class="cls-7" x="128.6214" y="287.0645" width="327.6343" height="67.693" />
        <line class="cls-8" x1="746.2261" y1="327.0034" x2="786.5978" y2="327.0034" />
        <polygon points="747.102 329.995 741.92 327.003 747.102 324.012 747.102 329.995" />
        <rect class="cls-6" x="796.0748" y="285.0337" width="135.3861" height="67.693" />
        <line class="cls-8" x1="659.3349" y1="569.3445" x2="464.6231" y2="569.3445" />
        <polygon points="465.498 566.353 460.317 569.344 465.498 572.336 465.498 566.353" />
        <rect class="cls-2" x="598.4111" y="290.4491" width="135.3861" height="58.216" />
        <line class="cls-8" x1="598.7759" y1="349.4006" x2="598.7759" y2="289.8297" />
        <line class="cls-8" x1="734.1357" y1="349.4006" x2="734.1357" y2="289.2041" />
        <path class="cls-4" d="M734.1094,349.06c0,4.9853-30.7345,9.7555-67.9626,9.7555s-67.3972-4.7641-67.3972-9.7493" />
        <ellipse class="cls-4" cx="666.4295" cy="289.0744" rx="67.6799" ry="6.0749" />
        <rect class="cls-6" x="788.6286" y="293.1568" width="135.3861" height="67.693" />
        <rect class="cls-2" x="591.6418" y="297.2184" width="135.3861" height="58.216" />
        <line class="cls-3" x1="592.0065" y1="356.1699" x2="592.0065" y2="296.599" />
        <line class="cls-3" x1="727.3664" y1="356.1699" x2="727.3664" y2="295.9734" />
        <path class="cls-4" d="M727.34,355.83c0,4.9853-30.7345,9.7555-67.9626,9.7555s-67.3972-4.7641-67.3972-9.7493" />
        <ellipse class="cls-4" cx="659.6602" cy="295.8437" rx="67.6799" ry="6.0749" />
        <line class="cls-8" x1="292.4386" y1="525.7768" x2="292.4386" y2="356.7883" />
        <polygon points="295.43 524.901 292.439 530.082 289.447 524.901 295.43 524.901" />
        <line class="cls-8" x1="659.3349" y1="569.3445" x2="659.3349" y2="370.3269" />
        <line class="cls-9" x1="528.6873" y1="697.2843" x2="528.6873" y2="98.8778" />
        <circle class="cls-10" cx="431.8863" cy="639.7452" r="11.5078" />
        <circle class="cls-10" cx="270.7768" cy="455.6202" r="11.5078" />
        <circle class="cls-10" cx="639.027" cy="455.6202" r="11.5078" />
    </g>
    <g id="Text">
        <text class="cls-11" transform="translate(66.9312 111.1289)">IBM Cloud</text>
        <text class="cls-11" transform="translate(94.0083 172.0527)">VMware virtualized environment</text>
        <text class="cls-12" transform="translate(47.811 54.1948)">KMIP workflow with VMWare customer environment</text>
        <text class="cls-11" transform="translate(181.1309 648.0581)">Hyper Protect Crypto Services</text>
        <text class="cls-11" transform="translate(644.9023 236.4853)">VMware customer environment</text>
        <text class="cls-11" transform="translate(200.3384 245.9619)">VMware Solution Service</text>
        <text class="cls-13" transform="matrix(1, 0.0031, -0.0031, 1, 243.6697, 572.1846)">KMIP adapter</text>
        <text class="cls-13" transform="matrix(1, 0.0031, -0.0031, 1, 230.6219, 323.7088)">KMIP for VMware</text>
        <text class="cls-13" transform="translate(603.1055 333.2725)">Encrypted disks</text>
        <text class="cls-13" transform="translate(841.5742 333.7666)">VMs</text>
        <text class="cls-14" transform="translate(427.0112 644.602)">1</text>
        <text class="cls-14" transform="translate(265.9028 460.4775)">2</text>
        <text class="cls-14" transform="translate(634.1533 460.4775)">3</text>
    </g>
</svg>