<svg xmlns="http://www.w3.org/2000/svg" width="1056" height="915" viewBox="0 0 1056 915">
    <defs>
        <style>.cls-1{fill:#e3f6ff;}.cls-2{fill:#f2f4f8;}.cls-17,.cls-3,.cls-4,.cls-5{fill:none;}.cls-3,.cls-4,.cls-5{stroke:#9fa5ad;}.cls-17,.cls-3,.cls-4,.cls-5,.cls-6{stroke-linejoin:round;}.cls-4{stroke-dasharray:1.9955 1.9955;}.cls-5{stroke-dasharray:2.0127 2.0127;}.cls-16,.cls-6{fill:#fff;}.cls-6{stroke:#333;}.cls-10,.cls-12,.cls-13,.cls-7{fill:#0072c3;}.cls-10,.cls-13,.cls-14,.cls-8{font-size:12px;}.cls-11,.cls-14,.cls-8,.cls-9{fill:#333;}.cls-10,.cls-12,.cls-8,.cls-9{font-family:IBMPlexSans, IBM Plex Sans;}.cls-11,.cls-12,.cls-16,.cls-9{font-size:16px;}.cls-11,.cls-15{font-family:IBMPlexSans-SemiBold, IBM Plex Sans;font-weight:600;}.cls-13,.cls-14,.cls-16{font-family:IBMPlexMono, IBM Plex Mono;}.cls-15{font-size:18px;}.cls-17{stroke:#50565b;stroke-linecap:round;}.cls-18{fill:#50565b;}</style>
    </defs>
    <g id="Layer_1" data-name="Layer 1">
        <path class="cls-1" d="M158.4244,251.7468H395.2928a0,0,0,0,1,0,0v99.4524a0,0,0,0,1,0,0H158.4244a4,4,0,0,1-4-4V255.7468A4,4,0,0,1,158.4244,251.7468Z" />
        <path class="cls-1" d="M158.4244,449.2893H395.2928a0,0,0,0,1,0,0v99.4524a0,0,0,0,1,0,0H158.4244a4,4,0,0,1-4-4V453.2893A4,4,0,0,1,158.4244,449.2893Z" />
        <path class="cls-1" d="M158.4244,648.1942H395.2928a0,0,0,0,1,0,0v99.4524a0,0,0,0,1,0,0H158.4244a4,4,0,0,1-4-4V652.1942A4,4,0,0,1,158.4244,648.1942Z" />
        <rect class="cls-2" x="423.2212" y="127.0907" width="283.3713" height="177.1071" />
        <polyline class="cls-3" points="706.593 303.198 706.593 304.198 705.593 304.198" />
        <line class="cls-4" x1="703.5969" y1="304.1978" x2="425.219" y2="304.1978" />
        <polyline class="cls-3" points="424.221 304.198 423.221 304.198 423.221 303.198" />
        <line class="cls-5" x1="423.2212" y1="301.185" x2="423.2212" y2="129.0971" />
        <polyline class="cls-3" points="423.221 128.091 423.221 127.091 424.221 127.091" />
        <line class="cls-4" x1="426.2167" y1="127.0907" x2="704.5947" y2="127.0907" />
        <polyline class="cls-3" points="705.593 127.091 706.593 127.091 706.593 128.091" />
        <line class="cls-5" x1="706.5925" y1="130.1034" x2="706.5925" y2="302.1914" />
        <rect class="cls-6" x="440.9319" y="169.9838" width="246.43" height="38.1461" />
        <rect class="cls-6" x="440.9319" y="248.3409" width="246.5875" height="38.1461" />
        <rect class="cls-2" x="423.2212" y="324.6332" width="283.3713" height="177.1071" />
        <polyline class="cls-3" points="706.593 500.74 706.593 501.74 705.593 501.74" />
        <line class="cls-4" x1="703.5969" y1="501.7403" x2="425.219" y2="501.7403" />
        <polyline class="cls-3" points="424.221 501.74 423.221 501.74 423.221 500.74" />
        <line class="cls-5" x1="423.2212" y1="498.7275" x2="423.2212" y2="326.6396" />
        <polyline class="cls-3" points="423.221 325.633 423.221 324.633 424.221 324.633" />
        <line class="cls-4" x1="426.2167" y1="324.6332" x2="704.5947" y2="324.6332" />
        <polyline class="cls-3" points="705.593 324.633 706.593 324.633 706.593 325.633" />
        <line class="cls-5" x1="706.5925" y1="327.6459" x2="706.5925" y2="499.7339" />
        <rect class="cls-6" x="440.9319" y="367.5263" width="246.43" height="38.1461" />
        <rect class="cls-6" x="440.9319" y="445.8834" width="246.5875" height="38.1461" />
        <rect class="cls-2" x="423.2212" y="522.1757" width="283.3713" height="177.1071" />
        <polyline class="cls-3" points="706.593 698.283 706.593 699.283 705.593 699.283" />
        <line class="cls-4" x1="703.5969" y1="699.2828" x2="425.219" y2="699.2828" />
        <polyline class="cls-3" points="424.221 699.283 423.221 699.283 423.221 698.283" />
        <line class="cls-5" x1="423.2212" y1="696.27" x2="423.2212" y2="524.1821" />
        <polyline class="cls-3" points="423.221 523.176 423.221 522.176 424.221 522.176" />
        <line class="cls-4" x1="426.2167" y1="522.1757" x2="704.5947" y2="522.1757" />
        <polyline class="cls-3" points="705.593 522.176 706.593 522.176 706.593 523.176" />
        <line class="cls-5" x1="706.5925" y1="525.1884" x2="706.5925" y2="697.2764" />
        <rect class="cls-6" x="440.9319" y="565.0688" width="246.43" height="38.1461" />
        <rect class="cls-6" x="440.9319" y="643.4259" width="246.5875" height="38.1461" />
        <rect class="cls-2" x="423.2212" y="719.7182" width="283.3713" height="177.1071" />
        <polyline class="cls-3" points="706.593 895.825 706.593 896.825 705.593 896.825" />
        <line class="cls-4" x1="703.5969" y1="896.8253" x2="425.219" y2="896.8253" />
        <polyline class="cls-3" points="424.221 896.825 423.221 896.825 423.221 895.825" />
        <line class="cls-5" x1="423.2212" y1="893.8126" x2="423.2212" y2="721.7245" />
        <polyline class="cls-3" points="423.221 720.718 423.221 719.718 424.221 719.718" />
        <line class="cls-4" x1="426.2167" y1="719.7182" x2="704.5947" y2="719.7182" />
        <polyline class="cls-3" points="705.593 719.718 706.593 719.718 706.593 720.718" />
        <line class="cls-5" x1="706.5925" y1="722.7309" x2="706.5925" y2="894.8189" />
        <rect class="cls-6" x="440.9319" y="762.6113" width="246.43" height="38.1461" />
        <rect class="cls-6" x="440.9319" y="840.9684" width="246.5875" height="38.1461" />
        <circle class="cls-7" cx="191.6196" cy="301.473" r="11.5801" />
        <circle class="cls-7" cx="191.6196" cy="499.0155" r="11.5801" />
        <circle class="cls-7" cx="188.8949" cy="697.9204" r="11.5801" />
    </g>
    <g id="Text">
        <text class="cls-8" transform="translate(448.7949 186.2432)">
            00000000000000000000000000000000
            <tspan x="0" y="14.3999">00000000000000000000000000000000</tspan>
        </text>
        <text class="cls-9" transform="translate(440.9316 155.6992)">New Master Key Register</text>
        <text class="cls-8" transform="translate(448.6377 264.6006)">
            00000000000000000000000000000000
            <tspan x="0" y="14.3999">00000000000000000000000000000000</tspan>
        </text>
        <text class="cls-9" transform="translate(440.9307 235.4189)">Current Master Key Register</text>
        <text class="cls-9" transform="translate(440.9316 353.2422)">New Master Key Register</text>
        <text class="cls-8" transform="translate(448.6377 462.1426)">
            00000000000000000000000000000000
            <tspan x="0" y="14.3999">00000000000000000000000000000000</tspan>
        </text>
        <text class="cls-9" transform="translate(440.9307 432.9614)">Current Master Key Register</text>
        <text class="cls-9" transform="translate(440.9316 550.7842)">New Master Key Register</text>
        <text class="cls-8" transform="translate(448.6377 659.6855)">
            00000000000000000000000000000000
            <tspan x="0" y="14.4004">00000000000000000000000000000000</tspan>
        </text>
        <text class="cls-9" transform="translate(440.9307 630.5039)">Current Master Key Register</text>
        <text class="cls-10" transform="translate(448.7949 778.8711)">
            00000000000000000000000000000000
            <tspan x="0" y="14.4004">00000000000000000000000000000000</tspan>
        </text>
        <text class="cls-9" transform="translate(440.9316 748.3271)">New Master Key Register</text>
        <text class="cls-9" transform="translate(440.9307 828.0469)">Current Master Key Register</text>
        <text class="cls-9" transform="translate(736.1104 194.7539)">Empty</text>
        <text class="cls-11" transform="translate(736.1104 103.4756)">Register state</text>
        <text class="cls-11" transform="translate(529.0313 103.4756)">Register</text>
        <text class="cls-11" transform="translate(251.1094 103.4756)">Step</text>
        <text class="cls-9" transform="translate(736.1104 273.7705)">Empty</text>
        <text class="cls-12" transform="translate(736.1104 390.9336)">Full uncommitted</text>
        <text class="cls-9" transform="translate(736.1104 468.5884)">Empty</text>
        <text class="cls-12" transform="translate(736.1104 588.4766)">Full committed</text>
        <text class="cls-9" transform="translate(736.1104 667.4932)">Empty</text>
        <text class="cls-12" transform="translate(736.1104 783.2939)">Empty</text>
        <text class="cls-12" transform="translate(736.1104 863.6738)">Valid</text>
        <text class="cls-9" transform="translate(219.8877 294.6611)">
            Load the new
            <tspan x="0" y="20.5625">master key register</tspan>
        </text>
        <text class="cls-13" transform="translate(448.7949 383.1992)">
            1234567890abcdef1234567890abcdef
            <tspan x="0" y="14.3999">1234567890abcdef1234567890abcdef</tspan>
        </text>
        <text class="cls-14" transform="translate(448.7949 580.7422)">
            1234567890abcdef1234567890abcdef
            <tspan x="0" y="14.3999">1234567890abcdef1234567890abcdef</tspan>
        </text>
        <text class="cls-13" transform="translate(448.6377 856.6416)">
            1234567890abcdef1234567890abcdef
            <tspan x="0" y="14.4004">1234567890abcdef1234567890abcdef</tspan>
        </text>
        <text class="cls-9" transform="translate(219.8877 493.5664)">
            Commit the new
            <tspan x="0" y="20.5625">master key register</tspan>
        </text>
        <text class="cls-9" transform="translate(218.5254 692.4707)">
            Activate the current
            <tspan x="0" y="20.5625">master key register</tspan>
        </text>
        <text class="cls-15" transform="translate(49.999 42.5293)">Loading the master key</text>
        <text class="cls-16" transform="translate(186.7148 306.3613)">1</text>
        <text class="cls-16" transform="translate(186.7148 503.9033)">2</text>
        <text class="cls-16" transform="translate(183.9893 702.8086)">3</text>
    </g>
    <g id="Line">
        <line class="cls-17" x1="395.2928" y1="216.666" x2="423.2212" y2="216.666" />
        <line class="cls-17" x1="395.2928" y1="216.666" x2="395.2928" y2="386.2801" />
        <line class="cls-17" x1="395.2927" y1="386.6207" x2="419.5967" y2="386.6207" />
        <polygon class="cls-18" points="418.721 389.612 423.902 386.621 418.721 383.629 418.721 389.612" />
        <line class="cls-17" x1="395.2928" y1="414.2085" x2="423.2212" y2="414.2085" />
        <line class="cls-17" x1="395.2928" y1="414.2085" x2="395.2928" y2="583.8226" />
        <line class="cls-17" x1="395.2927" y1="584.1632" x2="419.5967" y2="584.1632" />
        <polygon class="cls-18" points="418.721 587.155 423.902 584.163 418.721 581.171 418.721 587.155" />
        <line class="cls-17" x1="395.2928" y1="613.1134" x2="423.2212" y2="613.1134" />
        <line class="cls-17" x1="395.2928" y1="613.1134" x2="395.2928" y2="782.7274" />
        <line class="cls-17" x1="395.2927" y1="783.0681" x2="419.5967" y2="783.0681" />
        <polygon class="cls-18" points="418.721 786.06 423.902 783.068 418.721 780.076 418.721 786.06" />
    </g>
</svg>