<svg width="1056" height="792" viewBox="0 0 1056 792" fill="none" xmlns="http://www.w3.org/2000/svg">
<rect width="1056" height="792" fill="#F5F5F5"/>
<g clip-path="url(#clip0_0_1)">
<rect width="1056" height="792" fill="white"/>
<rect x="408.5" y="45.5" width="279" height="47" fill="white"/>
<rect x="409" y="46" width="278" height="46" fill="#F4F4F4"/>
<g clip-path="url(#clip1_0_1)">
<path d="M500.686 74V72.362H496.836V64.228H494.988V74H500.686ZM505.098 74.168C507.198 74.168 508.5 72.684 508.5 70.332C508.5 67.994 507.198 66.524 505.098 66.524C503.012 66.524 501.71 67.994 501.71 70.332C501.71 72.684 503.012 74.168 505.098 74.168ZM505.098 72.726C504.174 72.726 503.586 72.124 503.586 71.018V69.66C503.586 68.568 504.174 67.966 505.098 67.966C506.036 67.966 506.624 68.568 506.624 69.66V71.018C506.624 72.124 506.036 72.726 505.098 72.726ZM512.055 74.168C513.147 74.168 513.945 73.678 514.183 72.74H514.267C514.379 73.496 514.855 74 515.625 74H516.619V72.572H515.891V69.128C515.891 67.462 514.841 66.524 512.867 66.524C511.397 66.524 510.543 67.084 510.011 67.924L511.075 68.876C511.425 68.372 511.901 67.952 512.741 67.952C513.693 67.952 514.099 68.428 514.099 69.24V69.772H512.853C510.865 69.772 509.731 70.514 509.731 72.012C509.731 73.314 510.571 74.168 512.055 74.168ZM512.657 72.866C511.957 72.866 511.551 72.572 511.551 71.984V71.746C511.551 71.172 512.013 70.85 512.951 70.85H514.099V71.816C514.099 72.502 513.455 72.866 512.657 72.866ZM522.765 74H524.557V63.64H522.765V67.896H522.695C522.443 67.056 521.645 66.524 520.679 66.524C518.845 66.524 517.823 67.896 517.823 70.332C517.823 72.782 518.845 74.168 520.679 74.168C521.645 74.168 522.429 73.608 522.695 72.782H522.765V74ZM521.253 72.684C520.329 72.684 519.699 72.012 519.699 70.976V69.716C519.699 68.68 520.329 67.994 521.253 67.994C522.107 67.994 522.765 68.456 522.765 69.17V71.494C522.765 72.25 522.107 72.684 521.253 72.684ZM532.044 74V69.17C532.044 68.386 532.716 67.994 533.402 67.994C534.2 67.994 534.578 68.512 534.578 69.562V74H536.37V69.17C536.37 68.386 537.028 67.994 537.728 67.994C538.526 67.994 538.904 68.512 538.904 69.562V74H540.696V69.38C540.696 67.56 539.884 66.524 538.456 66.524C537.294 66.524 536.482 67.182 536.216 67.994H536.188C535.838 67.014 535.068 66.524 534.074 66.524C532.982 66.524 532.394 67.14 532.114 67.91H532.044V66.692H530.252V74H532.044ZM544.646 74.168C545.738 74.168 546.536 73.678 546.774 72.74H546.858C546.97 73.496 547.446 74 548.216 74H549.21V72.572H548.482V69.128C548.482 67.462 547.432 66.524 545.458 66.524C543.988 66.524 543.134 67.084 542.602 67.924L543.666 68.876C544.016 68.372 544.492 67.952 545.332 67.952C546.284 67.952 546.69 68.428 546.69 69.24V69.772H545.444C543.456 69.772 542.322 70.514 542.322 72.012C542.322 73.314 543.162 74.168 544.646 74.168ZM545.248 72.866C544.548 72.866 544.142 72.572 544.142 71.984V71.746C544.142 71.172 544.604 70.85 545.542 70.85H546.69V71.816C546.69 72.502 546.046 72.866 545.248 72.866ZM553.214 74.168C555.034 74.168 556.224 73.188 556.224 71.774C556.224 70.556 555.454 69.842 553.858 69.618L553.116 69.52C552.43 69.408 552.164 69.184 552.164 68.694C552.164 68.246 552.5 67.938 553.27 67.938C553.984 67.938 554.6 68.274 555.02 68.722L556.07 67.672C555.37 66.944 554.642 66.524 553.214 66.524C551.548 66.524 550.442 67.42 550.442 68.834C550.442 70.164 551.31 70.85 552.878 71.046L553.606 71.144C554.25 71.228 554.502 71.494 554.502 71.914C554.502 72.432 554.138 72.754 553.284 72.754C552.458 72.754 551.814 72.376 551.282 71.76L550.19 72.824C550.918 73.664 551.828 74.168 553.214 74.168ZM560.139 74H561.427V72.572H560.041V68.12H561.539V66.692H560.041V64.69H558.431V65.936C558.431 66.44 558.263 66.692 557.731 66.692H557.171V68.12H558.249V72.138C558.249 73.328 558.907 74 560.139 74ZM566.153 74.168C567.511 74.168 568.575 73.65 569.177 72.824L568.211 71.746C567.763 72.32 567.231 72.74 566.349 72.74C565.173 72.74 564.571 72.026 564.571 70.976V70.794H569.429V70.206C569.429 68.204 568.379 66.524 566.097 66.524C563.955 66.524 562.709 68.022 562.709 70.332C562.709 72.67 563.997 74.168 566.153 74.168ZM566.125 67.868C567.049 67.868 567.567 68.554 567.567 69.562V69.688H564.571V69.576C564.571 68.568 565.187 67.868 566.125 67.868ZM572.957 74V69.52C572.957 68.722 573.587 68.386 574.791 68.386H575.351V66.692H574.959C573.797 66.692 573.209 67.434 573.027 68.204H572.957V66.692H571.165V74H572.957ZM580.29 74H582.082V71.774L583.048 70.724L584.924 74H587.052L584.266 69.52L586.786 66.692H584.756L583.118 68.568L582.152 69.884H582.082V63.64H580.29V74ZM590.924 74.168C592.282 74.168 593.346 73.65 593.948 72.824L592.982 71.746C592.534 72.32 592.002 72.74 591.12 72.74C589.944 72.74 589.342 72.026 589.342 70.976V70.794H594.2V70.206C594.2 68.204 593.15 66.524 590.868 66.524C588.726 66.524 587.48 68.022 587.48 70.332C587.48 72.67 588.768 74.168 590.924 74.168ZM590.896 67.868C591.82 67.868 592.338 68.554 592.338 69.562V69.688H589.342V69.576C589.342 68.568 589.958 67.868 590.896 67.868ZM599.06 70.556L598.556 72.404H598.472L597.996 70.556L596.722 66.692H594.944L597.562 74.35L597.226 75.372H595.91V76.8H596.988C598.192 76.8 598.71 76.352 599.074 75.302L602.014 66.692H600.334L599.06 70.556Z" fill="black"/>
</g>
<rect x="408.5" y="45.5" width="279" height="47" stroke="#8D8D8D"/>
<rect x="408.5" y="263.5" width="279" height="49" fill="white"/>
<rect x="409" y="264" width="278" height="48" fill="#EDF5FF"/>
<g clip-path="url(#clip2_0_1)">
<path d="M512.398 289.234H514.148L515.968 293H518.026L516.024 289.024C517.228 288.618 517.844 287.596 517.844 286.252C517.844 284.404 516.738 283.228 514.96 283.228H510.55V293H512.398V289.234ZM512.398 287.68V284.838H514.778C515.492 284.838 515.926 285.216 515.926 285.93V286.574C515.926 287.288 515.492 287.68 514.778 287.68H512.398ZM522.644 293.168C524.002 293.168 525.066 292.65 525.668 291.824L524.702 290.746C524.254 291.32 523.722 291.74 522.84 291.74C521.664 291.74 521.062 291.026 521.062 289.976V289.794H525.92V289.206C525.92 287.204 524.87 285.524 522.588 285.524C520.446 285.524 519.2 287.022 519.2 289.332C519.2 291.67 520.488 293.168 522.644 293.168ZM522.616 286.868C523.54 286.868 524.058 287.554 524.058 288.562V288.688H521.062V288.576C521.062 287.568 521.678 286.868 522.616 286.868ZM528.89 293H530.794L531.718 289.78L532.25 287.792H532.292L532.838 289.78L533.776 293H535.708L537.71 285.692H536.044L535.316 288.702L534.742 291.208H534.686L534 288.702L533.118 285.692H531.494L530.64 288.702L529.968 291.208H529.912L529.338 288.702L528.596 285.692H526.874L528.89 293ZM541.011 293V288.52C541.011 287.722 541.641 287.386 542.845 287.386H543.405V285.692H543.013C541.851 285.692 541.263 286.434 541.081 287.204H541.011V285.692H539.219V293H541.011ZM546.531 293.168C547.623 293.168 548.421 292.678 548.659 291.74H548.743C548.855 292.496 549.331 293 550.101 293H551.095V291.572H550.367V288.128C550.367 286.462 549.317 285.524 547.343 285.524C545.873 285.524 545.019 286.084 544.487 286.924L545.551 287.876C545.901 287.372 546.377 286.952 547.217 286.952C548.169 286.952 548.575 287.428 548.575 288.24V288.772H547.329C545.341 288.772 544.207 289.514 544.207 291.012C544.207 292.314 545.047 293.168 546.531 293.168ZM547.133 291.866C546.433 291.866 546.027 291.572 546.027 290.984V290.746C546.027 290.172 546.489 289.85 547.427 289.85H548.575V290.816C548.575 291.502 547.931 291.866 547.133 291.866ZM552.705 295.8H554.497V291.782H554.553C554.833 292.608 555.603 293.168 556.569 293.168C558.417 293.168 559.439 291.782 559.439 289.332C559.439 286.896 558.417 285.524 556.569 285.524C555.603 285.524 554.819 286.056 554.553 286.896H554.497V285.692H552.705V295.8ZM555.995 291.684C555.141 291.684 554.497 291.25 554.497 290.494V288.17C554.497 287.456 555.141 286.994 555.995 286.994C556.919 286.994 557.563 287.68 557.563 288.716V289.976C557.563 291.012 556.919 291.684 555.995 291.684ZM564.728 293H566.52V290.774L567.486 289.724L569.362 293H571.49L568.704 288.52L571.224 285.692H569.194L567.556 287.568L566.59 288.884H566.52V282.64H564.728V293ZM575.362 293.168C576.72 293.168 577.784 292.65 578.386 291.824L577.42 290.746C576.972 291.32 576.44 291.74 575.558 291.74C574.382 291.74 573.78 291.026 573.78 289.976V289.794H578.638V289.206C578.638 287.204 577.588 285.524 575.306 285.524C573.164 285.524 571.918 287.022 571.918 289.332C571.918 291.67 573.206 293.168 575.362 293.168ZM575.334 286.868C576.258 286.868 576.776 287.554 576.776 288.562V288.688H573.78V288.576C573.78 287.568 574.396 286.868 575.334 286.868ZM583.498 289.556L582.994 291.404H582.91L582.434 289.556L581.16 285.692H579.382L582 293.35L581.664 294.372H580.348V295.8H581.426C582.63 295.8 583.148 295.352 583.512 294.302L586.452 285.692H584.772L583.498 289.556Z" fill="black"/>
</g>
<rect x="408.5" y="263.5" width="279" height="49" stroke="#0F62FE"/>
<rect x="408.5" y="373.5" width="279" height="49" fill="white"/>
<rect x="409" y="374" width="278" height="48" fill="#EDF5FF"/>
<g clip-path="url(#clip3_0_1)">
<path d="M438.917 403H441.115L437.433 397.302L440.835 393.228H438.707L436.285 396.21L434.899 398.044H434.829V393.228H432.981V403H434.829V400.116L436.131 398.576L438.917 403ZM445.116 403.168C446.474 403.168 447.538 402.65 448.14 401.824L447.174 400.746C446.726 401.32 446.194 401.74 445.312 401.74C444.136 401.74 443.534 401.026 443.534 399.976V399.794H448.392V399.206C448.392 397.204 447.342 395.524 445.06 395.524C442.918 395.524 441.672 397.022 441.672 399.332C441.672 401.67 442.96 403.168 445.116 403.168ZM445.088 396.868C446.012 396.868 446.53 397.554 446.53 398.562V398.688H443.534V398.576C443.534 397.568 444.15 396.868 445.088 396.868ZM453.252 399.556L452.748 401.404H452.664L452.188 399.556L450.914 395.692H449.136L451.754 403.35L451.418 404.372H450.102V405.8H451.18C452.384 405.8 452.902 405.352 453.266 404.302L456.206 395.692H454.526L453.252 399.556ZM459.833 403.168C461.653 403.168 462.843 402.188 462.843 400.774C462.843 399.556 462.073 398.842 460.477 398.618L459.735 398.52C459.049 398.408 458.783 398.184 458.783 397.694C458.783 397.246 459.119 396.938 459.889 396.938C460.603 396.938 461.219 397.274 461.639 397.722L462.689 396.672C461.989 395.944 461.261 395.524 459.833 395.524C458.167 395.524 457.061 396.42 457.061 397.834C457.061 399.164 457.929 399.85 459.497 400.046L460.225 400.144C460.869 400.228 461.121 400.494 461.121 400.914C461.121 401.432 460.757 401.754 459.903 401.754C459.077 401.754 458.433 401.376 457.901 400.76L456.809 401.824C457.537 402.664 458.447 403.168 459.833 403.168ZM469.846 403V398.52C469.846 397.722 470.476 397.386 471.68 397.386H472.24V395.692H471.848C470.686 395.692 470.098 396.434 469.916 397.204H469.846V395.692H468.054V403H469.846ZM476.595 403.168C477.953 403.168 479.017 402.65 479.619 401.824L478.653 400.746C478.205 401.32 477.673 401.74 476.791 401.74C475.615 401.74 475.013 401.026 475.013 399.976V399.794H479.871V399.206C479.871 397.204 478.821 395.524 476.539 395.524C474.397 395.524 473.151 397.022 473.151 399.332C473.151 401.67 474.439 403.168 476.595 403.168ZM476.567 396.868C477.491 396.868 478.009 397.554 478.009 398.562V398.688H475.013V398.576C475.013 397.568 475.629 396.868 476.567 396.868ZM482.842 403H484.746L485.67 399.78L486.202 397.792H486.244L486.79 399.78L487.728 403H489.66L491.662 395.692H489.996L489.268 398.702L488.694 401.208H488.638L487.952 398.702L487.07 395.692H485.446L484.592 398.702L483.92 401.208H483.864L483.29 398.702L482.548 395.692H480.826L482.842 403ZM494.962 403V398.52C494.962 397.722 495.592 397.386 496.796 397.386H497.356V395.692H496.964C495.802 395.692 495.214 396.434 495.032 397.204H494.962V395.692H493.17V403H494.962ZM500.482 403.168C501.574 403.168 502.372 402.678 502.61 401.74H502.694C502.806 402.496 503.282 403 504.052 403H505.046V401.572H504.318V398.128C504.318 396.462 503.268 395.524 501.294 395.524C499.824 395.524 498.97 396.084 498.438 396.924L499.502 397.876C499.852 397.372 500.328 396.952 501.168 396.952C502.12 396.952 502.526 397.428 502.526 398.24V398.772H501.28C499.292 398.772 498.158 399.514 498.158 401.012C498.158 402.314 498.998 403.168 500.482 403.168ZM501.084 401.866C500.384 401.866 499.978 401.572 499.978 400.984V400.746C499.978 400.172 500.44 399.85 501.378 399.85H502.526V400.816C502.526 401.502 501.882 401.866 501.084 401.866ZM506.656 405.8H508.448V401.782H508.504C508.784 402.608 509.554 403.168 510.52 403.168C512.368 403.168 513.39 401.782 513.39 399.332C513.39 396.896 512.368 395.524 510.52 395.524C509.554 395.524 508.77 396.056 508.504 396.896H508.448V395.692H506.656V405.8ZM509.946 401.684C509.092 401.684 508.448 401.25 508.448 400.494V398.17C508.448 397.456 509.092 396.994 509.946 396.994C510.87 396.994 511.514 397.68 511.514 398.716V399.976C511.514 401.012 510.87 401.684 509.946 401.684ZM519.043 403H520.835V397.106H522.333V395.692H520.835V394.068H522.333V392.64H521.059C519.743 392.64 519.043 393.354 519.043 394.642V395.692H517.965V397.106H519.043V403ZM525.54 403.168C526.632 403.168 527.43 402.678 527.668 401.74H527.752C527.864 402.496 528.34 403 529.11 403H530.104V401.572H529.376V398.128C529.376 396.462 528.326 395.524 526.352 395.524C524.882 395.524 524.028 396.084 523.496 396.924L524.56 397.876C524.91 397.372 525.386 396.952 526.226 396.952C527.178 396.952 527.584 397.428 527.584 398.24V398.772H526.338C524.35 398.772 523.216 399.514 523.216 401.012C523.216 402.314 524.056 403.168 525.54 403.168ZM526.142 401.866C525.442 401.866 525.036 401.572 525.036 400.984V400.746C525.036 400.172 525.498 399.85 526.436 399.85H527.584V400.816C527.584 401.502 526.94 401.866 526.142 401.866ZM532.61 394.628C533.338 394.628 533.66 394.25 533.66 393.732V393.452C533.66 392.934 533.338 392.556 532.61 392.556C531.868 392.556 531.56 392.934 531.56 393.452V393.732C531.56 394.25 531.868 394.628 532.61 394.628ZM531.714 403H533.506V395.692H531.714V403ZM538.501 403V401.572H537.535V392.64H535.743V401.236C535.743 402.356 536.317 403 537.535 403H538.501ZM544.387 403H546.179V395.692H544.387V400.522C544.387 401.306 543.673 401.684 542.959 401.684C542.105 401.684 541.727 401.138 541.727 400.13V395.692H539.935V400.312C539.935 402.132 540.775 403.168 542.273 403.168C543.477 403.168 544.065 402.51 544.317 401.782H544.387V403ZM550.201 403V398.52C550.201 397.722 550.831 397.386 552.035 397.386H552.595V395.692H552.203C551.041 395.692 550.453 396.434 550.271 397.204H550.201V395.692H548.409V403H550.201ZM556.951 403.168C558.309 403.168 559.373 402.65 559.975 401.824L559.009 400.746C558.561 401.32 558.029 401.74 557.147 401.74C555.971 401.74 555.369 401.026 555.369 399.976V399.794H560.227V399.206C560.227 397.204 559.177 395.524 556.895 395.524C554.753 395.524 553.507 397.022 553.507 399.332C553.507 401.67 554.795 403.168 556.951 403.168ZM556.923 396.868C557.847 396.868 558.365 397.554 558.365 398.562V398.688H555.369V398.576C555.369 397.568 555.985 396.868 556.923 396.868ZM562.795 400.844C562.025 400.844 561.675 401.278 561.675 401.88V402.132C561.675 402.636 561.927 403.028 562.501 403.126C562.277 403.84 561.843 404.386 561.213 405.002H562.487C563.341 404.316 563.915 403.154 563.915 402.132V401.88C563.915 401.278 563.551 400.844 562.795 400.844ZM572.441 403.168C574.541 403.168 575.843 401.684 575.843 399.332C575.843 396.994 574.541 395.524 572.441 395.524C570.355 395.524 569.053 396.994 569.053 399.332C569.053 401.684 570.355 403.168 572.441 403.168ZM572.441 401.726C571.517 401.726 570.929 401.124 570.929 400.018V398.66C570.929 397.568 571.517 396.966 572.441 396.966C573.379 396.966 573.967 397.568 573.967 398.66V400.018C573.967 401.124 573.379 401.726 572.441 401.726ZM577.592 405.8H579.384V401.782H579.44C579.72 402.608 580.49 403.168 581.456 403.168C583.304 403.168 584.326 401.782 584.326 399.332C584.326 396.896 583.304 395.524 581.456 395.524C580.49 395.524 579.706 396.056 579.44 396.896H579.384V395.692H577.592V405.8ZM580.882 401.684C580.028 401.684 579.384 401.25 579.384 400.494V398.17C579.384 397.456 580.028 396.994 580.882 396.994C581.806 396.994 582.45 397.68 582.45 398.716V399.976C582.45 401.012 581.806 401.684 580.882 401.684ZM589.1 403.168C590.458 403.168 591.522 402.65 592.124 401.824L591.158 400.746C590.71 401.32 590.178 401.74 589.296 401.74C588.12 401.74 587.518 401.026 587.518 399.976V399.794H592.376V399.206C592.376 397.204 591.326 395.524 589.044 395.524C586.902 395.524 585.656 397.022 585.656 399.332C585.656 401.67 586.944 403.168 589.1 403.168ZM589.072 396.868C589.996 396.868 590.514 397.554 590.514 398.562V398.688H587.518V398.576C587.518 397.568 588.134 396.868 589.072 396.868ZM595.905 403V398.52C595.905 397.722 596.535 397.386 597.739 397.386H598.299V395.692H597.907C596.745 395.692 596.157 396.434 595.975 397.204H595.905V395.692H594.113V403H595.905ZM601.425 403.168C602.517 403.168 603.315 402.678 603.553 401.74H603.637C603.749 402.496 604.225 403 604.995 403H605.989V401.572H605.261V398.128C605.261 396.462 604.211 395.524 602.237 395.524C600.767 395.524 599.913 396.084 599.381 396.924L600.445 397.876C600.795 397.372 601.271 396.952 602.111 396.952C603.063 396.952 603.469 397.428 603.469 398.24V398.772H602.223C600.235 398.772 599.101 399.514 599.101 401.012C599.101 402.314 599.941 403.168 601.425 403.168ZM602.027 401.866C601.327 401.866 600.921 401.572 600.921 400.984V400.746C600.921 400.172 601.383 399.85 602.321 399.85H603.469V400.816C603.469 401.502 602.825 401.866 602.027 401.866ZM609.826 403H611.114V401.572H609.728V397.12H611.226V395.692H609.728V393.69H608.118V394.936C608.118 395.44 607.95 395.692 607.418 395.692H606.858V397.12H607.936V401.138C607.936 402.328 608.594 403 609.826 403ZM613.837 394.628C614.565 394.628 614.887 394.25 614.887 393.732V393.452C614.887 392.934 614.565 392.556 613.837 392.556C613.095 392.556 612.787 392.934 612.787 393.452V393.732C612.787 394.25 613.095 394.628 613.837 394.628ZM612.941 403H614.733V395.692H612.941V403ZM619.868 403.168C621.968 403.168 623.27 401.684 623.27 399.332C623.27 396.994 621.968 395.524 619.868 395.524C617.782 395.524 616.48 396.994 616.48 399.332C616.48 401.684 617.782 403.168 619.868 403.168ZM619.868 401.726C618.944 401.726 618.356 401.124 618.356 400.018V398.66C618.356 397.568 618.944 396.966 619.868 396.966C620.806 396.966 621.394 397.568 621.394 398.66V400.018C621.394 401.124 620.806 401.726 619.868 401.726ZM626.811 403V398.17C626.811 397.386 627.525 396.994 628.267 396.994C629.121 396.994 629.471 397.526 629.471 398.562V403H631.263V398.38C631.263 396.56 630.423 395.524 628.925 395.524C627.791 395.524 627.175 396.126 626.881 396.91H626.811V395.692H625.019V403H626.811ZM637.242 403H639.034V397.106H640.532V395.692H639.034V394.068H640.532V392.64H639.258C637.942 392.64 637.242 393.354 637.242 394.642V395.692H636.164V397.106H637.242V403ZM643.738 403.168C644.83 403.168 645.628 402.678 645.866 401.74H645.95C646.062 402.496 646.538 403 647.308 403H648.302V401.572H647.574V398.128C647.574 396.462 646.524 395.524 644.55 395.524C643.08 395.524 642.226 396.084 641.694 396.924L642.758 397.876C643.108 397.372 643.584 396.952 644.424 396.952C645.376 396.952 645.782 397.428 645.782 398.24V398.772H644.536C642.548 398.772 641.414 399.514 641.414 401.012C641.414 402.314 642.254 403.168 643.738 403.168ZM644.34 401.866C643.64 401.866 643.234 401.572 643.234 400.984V400.746C643.234 400.172 643.696 399.85 644.634 399.85H645.782V400.816C645.782 401.502 645.138 401.866 644.34 401.866ZM650.808 394.628C651.536 394.628 651.858 394.25 651.858 393.732V393.452C651.858 392.934 651.536 392.556 650.808 392.556C650.066 392.556 649.758 392.934 649.758 393.452V393.732C649.758 394.25 650.066 394.628 650.808 394.628ZM649.912 403H651.704V395.692H649.912V403ZM656.7 403V401.572H655.734V392.64H653.942V401.236C653.942 402.356 654.516 403 655.734 403H656.7ZM660.611 403.168C662.431 403.168 663.621 402.188 663.621 400.774C663.621 399.556 662.851 398.842 661.255 398.618L660.513 398.52C659.827 398.408 659.561 398.184 659.561 397.694C659.561 397.246 659.897 396.938 660.667 396.938C661.381 396.938 661.997 397.274 662.417 397.722L663.467 396.672C662.767 395.944 662.039 395.524 660.611 395.524C658.945 395.524 657.839 396.42 657.839 397.834C657.839 399.164 658.707 399.85 660.275 400.046L661.003 400.144C661.647 400.228 661.899 400.494 661.899 400.914C661.899 401.432 661.535 401.754 660.681 401.754C659.855 401.754 659.211 401.376 658.679 400.76L657.587 401.824C658.315 402.664 659.225 403.168 660.611 403.168Z" fill="black"/>
</g>
<rect x="408.5" y="373.5" width="279" height="49" stroke="#0F62FE"/>
<rect x="408.5" y="699.5" width="279" height="49" fill="white"/>
<rect x="409" y="700" width="278" height="48" fill="#EDF5FF"/>
<g clip-path="url(#clip4_0_1)">
<path d="M525.36 729.168C527.698 729.168 529.028 727.908 529.028 726.06C529.028 724.45 528.104 723.568 526.13 723.218L525.22 723.05C524.282 722.882 523.862 722.574 523.862 721.832C523.862 721.104 524.408 720.684 525.458 720.684C526.494 720.684 527.166 721.09 527.642 721.692L528.902 720.502C528.118 719.564 527.026 719.06 525.556 719.06C523.372 719.06 522.014 720.194 522.014 721.944C522.014 723.54 522.966 724.478 524.94 724.786L525.864 724.926C526.886 725.108 527.194 725.514 527.194 726.172C527.194 726.998 526.606 727.544 525.472 727.544C524.464 727.544 523.638 727.124 522.966 726.34L521.72 727.544C522.546 728.51 523.694 729.168 525.36 729.168ZM535.297 729H537.089V721.692H535.297V726.522C535.297 727.306 534.583 727.684 533.869 727.684C533.015 727.684 532.637 727.138 532.637 726.13V721.692H530.845V726.312C530.845 728.132 531.685 729.168 533.183 729.168C534.387 729.168 534.975 728.51 535.227 727.782H535.297V729ZM542.203 729.168C543.617 729.168 544.639 728.524 545.115 727.236L543.743 726.578C543.477 727.236 543.057 727.726 542.203 727.726C541.209 727.726 540.705 727.04 540.705 726.018V724.688C540.705 723.666 541.209 722.966 542.203 722.966C542.973 722.966 543.435 723.414 543.603 724.03L545.073 723.372C544.639 722.224 543.673 721.524 542.203 721.524C540.047 721.524 538.829 722.994 538.829 725.332C538.829 727.684 540.047 729.168 542.203 729.168ZM549.473 729.168C550.887 729.168 551.909 728.524 552.385 727.236L551.013 726.578C550.747 727.236 550.327 727.726 549.473 727.726C548.479 727.726 547.975 727.04 547.975 726.018V724.688C547.975 723.666 548.479 722.966 549.473 722.966C550.243 722.966 550.705 723.414 550.873 724.03L552.343 723.372C551.909 722.224 550.943 721.524 549.473 721.524C547.317 721.524 546.099 722.994 546.099 725.332C546.099 727.684 547.317 729.168 549.473 729.168ZM556.812 729.168C558.17 729.168 559.234 728.65 559.836 727.824L558.87 726.746C558.422 727.32 557.89 727.74 557.008 727.74C555.832 727.74 555.23 727.026 555.23 725.976V725.794H560.088V725.206C560.088 723.204 559.038 721.524 556.756 721.524C554.614 721.524 553.368 723.022 553.368 725.332C553.368 727.67 554.656 729.168 556.812 729.168ZM556.784 722.868C557.708 722.868 558.226 723.554 558.226 724.562V724.688H555.23V724.576C555.23 723.568 555.846 722.868 556.784 722.868ZM564.219 729.168C566.039 729.168 567.229 728.188 567.229 726.774C567.229 725.556 566.459 724.842 564.863 724.618L564.121 724.52C563.435 724.408 563.169 724.184 563.169 723.694C563.169 723.246 563.505 722.938 564.275 722.938C564.989 722.938 565.605 723.274 566.025 723.722L567.075 722.672C566.375 721.944 565.647 721.524 564.219 721.524C562.553 721.524 561.447 722.42 561.447 723.834C561.447 725.164 562.315 725.85 563.883 726.046L564.611 726.144C565.255 726.228 565.507 726.494 565.507 726.914C565.507 727.432 565.143 727.754 564.289 727.754C563.463 727.754 562.819 727.376 562.287 726.76L561.195 727.824C561.923 728.664 562.833 729.168 564.219 729.168ZM571.269 729.168C573.089 729.168 574.279 728.188 574.279 726.774C574.279 725.556 573.509 724.842 571.913 724.618L571.171 724.52C570.485 724.408 570.219 724.184 570.219 723.694C570.219 723.246 570.555 722.938 571.325 722.938C572.039 722.938 572.655 723.274 573.075 723.722L574.125 722.672C573.425 721.944 572.697 721.524 571.269 721.524C569.603 721.524 568.497 722.42 568.497 723.834C568.497 725.164 569.365 725.85 570.933 726.046L571.661 726.144C572.305 726.228 572.557 726.494 572.557 726.914C572.557 727.432 572.193 727.754 571.339 727.754C570.513 727.754 569.869 727.376 569.337 726.76L568.245 727.824C568.973 728.664 569.883 729.168 571.269 729.168Z" fill="black"/>
</g>
<rect x="408.5" y="699.5" width="279" height="49" stroke="#0F62FE"/>
<rect x="408.5" y="153.5" width="279" height="49" fill="white"/>
<rect x="409" y="154" width="278" height="48" fill="#F4F4F4"/>
<g clip-path="url(#clip5_0_1)">
<path d="M485.195 183.168C486.945 183.168 488.107 182.314 488.807 180.858L487.309 179.976C486.987 180.858 486.301 181.53 485.195 181.53C483.823 181.53 482.941 180.578 482.941 178.898V177.358C482.941 175.692 483.823 174.698 485.195 174.698C486.287 174.698 486.903 175.286 487.183 176.154L488.765 175.314C488.079 173.802 486.945 173.06 485.195 173.06C482.619 173.06 480.981 174.894 480.981 178.184C480.981 181.474 482.619 183.168 485.195 183.168ZM493.33 183.168C495.43 183.168 496.732 181.684 496.732 179.332C496.732 176.994 495.43 175.524 493.33 175.524C491.244 175.524 489.942 176.994 489.942 179.332C489.942 181.684 491.244 183.168 493.33 183.168ZM493.33 181.726C492.406 181.726 491.818 181.124 491.818 180.018V178.66C491.818 177.568 492.406 176.966 493.33 176.966C494.268 176.966 494.856 177.568 494.856 178.66V180.018C494.856 181.124 494.268 181.726 493.33 181.726ZM500.273 183V178.17C500.273 177.386 500.987 176.994 501.729 176.994C502.583 176.994 502.933 177.526 502.933 178.562V183H504.725V178.38C504.725 176.56 503.885 175.524 502.387 175.524C501.253 175.524 500.637 176.126 500.343 176.91H500.273V175.692H498.481V183H500.273ZM507.235 183H509.027V177.106H511.743V183H513.535V175.692H509.027V174.068H510.525V172.64H509.251C507.935 172.64 507.235 173.354 507.235 174.642V175.692H506.157V177.106H507.235V183ZM512.639 174.628C513.367 174.628 513.689 174.25 513.689 173.732V173.452C513.689 172.934 513.367 172.556 512.639 172.556C511.897 172.556 511.589 172.934 511.589 173.452V173.732C511.589 174.25 511.897 174.628 512.639 174.628ZM517.559 183V178.52C517.559 177.722 518.189 177.386 519.393 177.386H519.953V175.692H519.561C518.399 175.692 517.811 176.434 517.629 177.204H517.559V175.692H515.767V183H517.559ZM523.215 183V178.17C523.215 177.386 523.887 176.994 524.573 176.994C525.371 176.994 525.749 177.512 525.749 178.562V183H527.541V178.17C527.541 177.386 528.199 176.994 528.899 176.994C529.697 176.994 530.075 177.512 530.075 178.562V183H531.867V178.38C531.867 176.56 531.055 175.524 529.627 175.524C528.465 175.524 527.653 176.182 527.387 176.994H527.359C527.009 176.014 526.239 175.524 525.245 175.524C524.153 175.524 523.565 176.14 523.285 176.91H523.215V175.692H521.423V183H523.215ZM537.48 183H539.272V180.774L540.238 179.724L542.114 183H544.242L541.456 178.52L543.976 175.692H541.946L540.308 177.568L539.342 178.884H539.272V172.64H537.48V183ZM548.113 183.168C549.471 183.168 550.535 182.65 551.137 181.824L550.171 180.746C549.723 181.32 549.191 181.74 548.309 181.74C547.133 181.74 546.531 181.026 546.531 179.976V179.794H551.389V179.206C551.389 177.204 550.339 175.524 548.057 175.524C545.915 175.524 544.669 177.022 544.669 179.332C544.669 181.67 545.957 183.168 548.113 183.168ZM548.085 176.868C549.009 176.868 549.527 177.554 549.527 178.562V178.688H546.531V178.576C546.531 177.568 547.147 176.868 548.085 176.868ZM556.25 179.556L555.746 181.404H555.662L555.186 179.556L553.912 175.692H552.134L554.752 183.35L554.416 184.372H553.1V185.8H554.178C555.382 185.8 555.9 185.352 556.264 184.302L559.204 175.692H557.524L556.25 179.556ZM565.806 183V178.52C565.806 177.722 566.436 177.386 567.64 177.386H568.2V175.692H567.808C566.646 175.692 566.058 176.434 565.876 177.204H565.806V175.692H564.014V183H565.806ZM572.5 183.168C574.6 183.168 575.902 181.684 575.902 179.332C575.902 176.994 574.6 175.524 572.5 175.524C570.414 175.524 569.112 176.994 569.112 179.332C569.112 181.684 570.414 183.168 572.5 183.168ZM572.5 181.726C571.576 181.726 570.988 181.124 570.988 180.018V178.66C570.988 177.568 571.576 176.966 572.5 176.966C573.438 176.966 574.026 177.568 574.026 178.66V180.018C574.026 181.124 573.438 181.726 572.5 181.726ZM579.878 183H581.166V181.572H579.78V177.12H581.278V175.692H579.78V173.69H578.17V174.936C578.17 175.44 578.002 175.692 577.47 175.692H576.91V177.12H577.988V181.138C577.988 182.328 578.646 183 579.878 183ZM584.798 183.168C585.89 183.168 586.688 182.678 586.926 181.74H587.01C587.122 182.496 587.598 183 588.368 183H589.362V181.572H588.634V178.128C588.634 176.462 587.584 175.524 585.61 175.524C584.14 175.524 583.286 176.084 582.754 176.924L583.818 177.876C584.168 177.372 584.644 176.952 585.484 176.952C586.436 176.952 586.842 177.428 586.842 178.24V178.772H585.596C583.608 178.772 582.474 179.514 582.474 181.012C582.474 182.314 583.314 183.168 584.798 183.168ZM585.4 181.866C584.7 181.866 584.294 181.572 584.294 180.984V180.746C584.294 180.172 584.756 179.85 585.694 179.85H586.842V180.816C586.842 181.502 586.198 181.866 585.4 181.866ZM593.2 183H594.488V181.572H593.102V177.12H594.6V175.692H593.102V173.69H591.492V174.936C591.492 175.44 591.324 175.692 590.792 175.692H590.232V177.12H591.31V181.138C591.31 182.328 591.968 183 593.2 183ZM597.21 174.628C597.938 174.628 598.26 174.25 598.26 173.732V173.452C598.26 172.934 597.938 172.556 597.21 172.556C596.468 172.556 596.16 172.934 596.16 173.452V173.732C596.16 174.25 596.468 174.628 597.21 174.628ZM596.314 183H598.106V175.692H596.314V183ZM603.241 183.168C605.341 183.168 606.643 181.684 606.643 179.332C606.643 176.994 605.341 175.524 603.241 175.524C601.155 175.524 599.853 176.994 599.853 179.332C599.853 181.684 601.155 183.168 603.241 183.168ZM603.241 181.726C602.317 181.726 601.729 181.124 601.729 180.018V178.66C601.729 177.568 602.317 176.966 603.241 176.966C604.179 176.966 604.767 177.568 604.767 178.66V180.018C604.767 181.124 604.179 181.726 603.241 181.726ZM610.184 183V178.17C610.184 177.386 610.898 176.994 611.64 176.994C612.494 176.994 612.844 177.526 612.844 178.562V183H614.636V178.38C614.636 176.56 613.796 175.524 612.298 175.524C611.164 175.524 610.548 176.126 610.254 176.91H610.184V175.692H608.392V183H610.184Z" fill="black"/>
</g>
<rect x="408.5" y="153.5" width="279" height="49" stroke="#8D8D8D"/>
<rect x="408.5" y="483.5" width="279" height="47" fill="white"/>
<rect x="409" y="484" width="278" height="46" fill="#F4F4F4"/>
<g clip-path="url(#clip6_0_1)">
<path d="M481.238 512V507.87H485.102V506.232H481.238V503.866H485.676V502.228H479.39V512H481.238ZM488.414 503.628C489.142 503.628 489.464 503.25 489.464 502.732V502.452C489.464 501.934 489.142 501.556 488.414 501.556C487.672 501.556 487.364 501.934 487.364 502.452V502.732C487.364 503.25 487.672 503.628 488.414 503.628ZM487.518 512H489.31V504.692H487.518V512ZM493.339 512V507.17C493.339 506.386 494.053 505.994 494.795 505.994C495.649 505.994 495.999 506.526 495.999 507.562V512H497.791V507.38C497.791 505.56 496.951 504.524 495.453 504.524C494.319 504.524 493.703 505.126 493.409 505.91H493.339V504.692H491.547V512H493.339ZM501.743 512.168C502.835 512.168 503.633 511.678 503.871 510.74H503.955C504.067 511.496 504.543 512 505.313 512H506.307V510.572H505.579V507.128C505.579 505.462 504.529 504.524 502.555 504.524C501.085 504.524 500.231 505.084 499.699 505.924L500.763 506.876C501.113 506.372 501.589 505.952 502.429 505.952C503.381 505.952 503.787 506.428 503.787 507.24V507.772H502.541C500.553 507.772 499.419 508.514 499.419 510.012C499.419 511.314 500.259 512.168 501.743 512.168ZM502.345 510.866C501.645 510.866 501.239 510.572 501.239 509.984V509.746C501.239 509.172 501.701 508.85 502.639 508.85H503.787V509.816C503.787 510.502 503.143 510.866 502.345 510.866ZM510.676 512V510.572H509.71V501.64H507.918V510.236C507.918 511.356 508.492 512 509.71 512H510.676ZM513.089 503.628C513.817 503.628 514.139 503.25 514.139 502.732V502.452C514.139 501.934 513.817 501.556 513.089 501.556C512.347 501.556 512.039 501.934 512.039 502.452V502.732C512.039 503.25 512.347 503.628 513.089 503.628ZM512.193 512H513.985V504.692H512.193V512ZM521.696 512V510.572H517.776L521.598 506.078V504.692H515.83V506.106H519.498L515.704 510.572V512H521.696ZM526.213 512.168C527.571 512.168 528.635 511.65 529.237 510.824L528.271 509.746C527.823 510.32 527.291 510.74 526.409 510.74C525.233 510.74 524.631 510.026 524.631 508.976V508.794H529.489V508.206C529.489 506.204 528.439 504.524 526.157 504.524C524.015 504.524 522.769 506.022 522.769 508.332C522.769 510.67 524.057 512.168 526.213 512.168ZM526.185 505.868C527.109 505.868 527.627 506.554 527.627 507.562V507.688H524.631V507.576C524.631 506.568 525.247 505.868 526.185 505.868ZM537.578 512.168C538.992 512.168 540.014 511.524 540.49 510.236L539.118 509.578C538.852 510.236 538.432 510.726 537.578 510.726C536.584 510.726 536.08 510.04 536.08 509.018V507.688C536.08 506.666 536.584 505.966 537.578 505.966C538.348 505.966 538.81 506.414 538.978 507.03L540.448 506.372C540.014 505.224 539.048 504.524 537.578 504.524C535.422 504.524 534.204 505.994 534.204 508.332C534.204 510.684 535.422 512.168 537.578 512.168ZM544.862 512.168C546.962 512.168 548.264 510.684 548.264 508.332C548.264 505.994 546.962 504.524 544.862 504.524C542.776 504.524 541.474 505.994 541.474 508.332C541.474 510.684 542.776 512.168 544.862 512.168ZM544.862 510.726C543.938 510.726 543.35 510.124 543.35 509.018V507.66C543.35 506.568 543.938 505.966 544.862 505.966C545.8 505.966 546.388 506.568 546.388 507.66V509.018C546.388 510.124 545.8 510.726 544.862 510.726ZM551.804 512V507.17C551.804 506.386 552.476 505.994 553.162 505.994C553.96 505.994 554.338 506.512 554.338 507.562V512H556.13V507.17C556.13 506.386 556.788 505.994 557.488 505.994C558.286 505.994 558.664 506.512 558.664 507.562V512H560.456V507.38C560.456 505.56 559.644 504.524 558.216 504.524C557.054 504.524 556.242 505.182 555.976 505.994H555.948C555.598 505.014 554.828 504.524 553.834 504.524C552.742 504.524 552.154 505.14 551.874 505.91H551.804V504.692H550.012V512H551.804ZM564.392 512V507.17C564.392 506.386 565.064 505.994 565.75 505.994C566.548 505.994 566.926 506.512 566.926 507.562V512H568.718V507.17C568.718 506.386 569.376 505.994 570.076 505.994C570.874 505.994 571.252 506.512 571.252 507.562V512H573.044V507.38C573.044 505.56 572.232 504.524 570.804 504.524C569.642 504.524 568.83 505.182 568.564 505.994H568.536C568.186 505.014 567.416 504.524 566.422 504.524C565.33 504.524 564.742 505.14 564.462 505.91H564.392V504.692H562.6V512H564.392ZM576.084 503.628C576.812 503.628 577.134 503.25 577.134 502.732V502.452C577.134 501.934 576.812 501.556 576.084 501.556C575.342 501.556 575.034 501.934 575.034 502.452V502.732C575.034 503.25 575.342 503.628 576.084 503.628ZM575.188 512H576.98V504.692H575.188V512ZM581.499 512H582.787V510.572H581.401V506.12H582.899V504.692H581.401V502.69H579.791V503.936C579.791 504.44 579.623 504.692 579.091 504.692H578.531V506.12H579.609V510.138C579.609 511.328 580.267 512 581.499 512ZM586.405 512V507.17C586.405 506.386 587.077 505.994 587.763 505.994C588.561 505.994 588.939 506.512 588.939 507.562V512H590.731V507.17C590.731 506.386 591.389 505.994 592.089 505.994C592.887 505.994 593.265 506.512 593.265 507.562V512H595.057V507.38C595.057 505.56 594.245 504.524 592.817 504.524C591.655 504.524 590.843 505.182 590.577 505.994H590.549C590.199 505.014 589.429 504.524 588.435 504.524C587.343 504.524 586.755 505.14 586.475 505.91H586.405V504.692H584.613V512H586.405ZM600.155 512.168C601.513 512.168 602.577 511.65 603.179 510.824L602.213 509.746C601.765 510.32 601.233 510.74 600.351 510.74C599.175 510.74 598.573 510.026 598.573 508.976V508.794H603.431V508.206C603.431 506.204 602.381 504.524 600.099 504.524C597.957 504.524 596.711 506.022 596.711 508.332C596.711 510.67 597.999 512.168 600.155 512.168ZM600.127 505.868C601.051 505.868 601.569 506.554 601.569 507.562V507.688H598.573V507.576C598.573 506.568 599.189 505.868 600.127 505.868ZM606.96 512V507.17C606.96 506.386 607.674 505.994 608.416 505.994C609.27 505.994 609.62 506.526 609.62 507.562V512H611.412V507.38C611.412 505.56 610.572 504.524 609.074 504.524C607.94 504.524 607.324 505.126 607.03 505.91H606.96V504.692H605.168V512H606.96ZM615.84 512H617.128V510.572H615.742V506.12H617.24V504.692H615.742V502.69H614.132V503.936C614.132 504.44 613.964 504.692 613.432 504.692H612.872V506.12H613.95V510.138C613.95 511.328 614.608 512 615.84 512Z" fill="black"/>
</g>
<rect x="408.5" y="483.5" width="279" height="47" stroke="#8D8D8D"/>
<rect x="408.5" y="591.5" width="279" height="47" fill="white"/>
<rect x="409" y="592" width="278" height="46" fill="#F4F4F4"/>
<g clip-path="url(#clip7_0_1)">
<path d="M490.772 616.234H492.522L494.342 620H496.4L494.398 616.024C495.602 615.618 496.218 614.596 496.218 613.252C496.218 611.404 495.112 610.228 493.334 610.228H488.924V620H490.772V616.234ZM490.772 614.68V611.838H493.152C493.866 611.838 494.3 612.216 494.3 612.93V613.574C494.3 614.288 493.866 614.68 493.152 614.68H490.772ZM500.962 620.168C503.062 620.168 504.364 618.684 504.364 616.332C504.364 613.994 503.062 612.524 500.962 612.524C498.876 612.524 497.574 613.994 497.574 616.332C497.574 618.684 498.876 620.168 500.962 620.168ZM500.962 618.726C500.038 618.726 499.45 618.124 499.45 617.018V615.66C499.45 614.568 500.038 613.966 500.962 613.966C501.9 613.966 502.488 614.568 502.488 615.66V617.018C502.488 618.124 501.9 618.726 500.962 618.726ZM508.34 620H509.628V618.572H508.242V614.12H509.74V612.692H508.242V610.69H506.632V611.936C506.632 612.44 506.464 612.692 505.932 612.692H505.372V614.12H506.45V618.138C506.45 619.328 507.108 620 508.34 620ZM513.26 620.168C514.352 620.168 515.15 619.678 515.388 618.74H515.472C515.584 619.496 516.06 620 516.83 620H517.824V618.572H517.096V615.128C517.096 613.462 516.046 612.524 514.072 612.524C512.602 612.524 511.748 613.084 511.216 613.924L512.28 614.876C512.63 614.372 513.106 613.952 513.946 613.952C514.898 613.952 515.304 614.428 515.304 615.24V615.772H514.058C512.07 615.772 510.936 616.514 510.936 618.012C510.936 619.314 511.776 620.168 513.26 620.168ZM513.862 618.866C513.162 618.866 512.756 618.572 512.756 617.984V617.746C512.756 617.172 513.218 616.85 514.156 616.85H515.304V617.816C515.304 618.502 514.66 618.866 513.862 618.866ZM521.661 620H522.949V618.572H521.563V614.12H523.061V612.692H521.563V610.69H519.953V611.936C519.953 612.44 519.785 612.692 519.253 612.692H518.693V614.12H519.771V618.138C519.771 619.328 520.429 620 521.661 620ZM527.675 620.168C529.033 620.168 530.097 619.65 530.699 618.824L529.733 617.746C529.285 618.32 528.753 618.74 527.871 618.74C526.695 618.74 526.093 618.026 526.093 616.976V616.794H530.951V616.206C530.951 614.204 529.901 612.524 527.619 612.524C525.477 612.524 524.231 614.022 524.231 616.332C524.231 618.67 525.519 620.168 527.675 620.168ZM527.647 613.868C528.571 613.868 529.089 614.554 529.089 615.562V615.688H526.093V615.576C526.093 614.568 526.709 613.868 527.647 613.868ZM537.948 620V615.17C537.948 614.386 538.62 613.994 539.306 613.994C540.104 613.994 540.482 614.512 540.482 615.562V620H542.274V615.17C542.274 614.386 542.932 613.994 543.632 613.994C544.43 613.994 544.808 614.512 544.808 615.562V620H546.6V615.38C546.6 613.56 545.788 612.524 544.36 612.524C543.198 612.524 542.386 613.182 542.12 613.994H542.092C541.742 613.014 540.972 612.524 539.978 612.524C538.886 612.524 538.298 613.14 538.018 613.91H537.948V612.692H536.156V620H537.948ZM550.55 620.168C551.642 620.168 552.44 619.678 552.678 618.74H552.762C552.874 619.496 553.35 620 554.12 620H555.114V618.572H554.386V615.128C554.386 613.462 553.336 612.524 551.362 612.524C549.892 612.524 549.038 613.084 548.506 613.924L549.57 614.876C549.92 614.372 550.396 613.952 551.236 613.952C552.188 613.952 552.594 614.428 552.594 615.24V615.772H551.348C549.36 615.772 548.226 616.514 548.226 618.012C548.226 619.314 549.066 620.168 550.55 620.168ZM551.152 618.866C550.452 618.866 550.046 618.572 550.046 617.984V617.746C550.046 617.172 550.508 616.85 551.446 616.85H552.594V617.816C552.594 618.502 551.95 618.866 551.152 618.866ZM559.118 620.168C560.938 620.168 562.128 619.188 562.128 617.774C562.128 616.556 561.358 615.842 559.762 615.618L559.02 615.52C558.334 615.408 558.068 615.184 558.068 614.694C558.068 614.246 558.404 613.938 559.174 613.938C559.888 613.938 560.504 614.274 560.924 614.722L561.974 613.672C561.274 612.944 560.546 612.524 559.118 612.524C557.452 612.524 556.346 613.42 556.346 614.834C556.346 616.164 557.214 616.85 558.782 617.046L559.51 617.144C560.154 617.228 560.406 617.494 560.406 617.914C560.406 618.432 560.042 618.754 559.188 618.754C558.362 618.754 557.718 618.376 557.186 617.76L556.094 618.824C556.822 619.664 557.732 620.168 559.118 620.168ZM566.043 620H567.331V618.572H565.945V614.12H567.443V612.692H565.945V610.69H564.335V611.936C564.335 612.44 564.167 612.692 563.635 612.692H563.075V614.12H564.153V618.138C564.153 619.328 564.811 620 566.043 620ZM572.057 620.168C573.415 620.168 574.479 619.65 575.081 618.824L574.115 617.746C573.667 618.32 573.135 618.74 572.253 618.74C571.077 618.74 570.475 618.026 570.475 616.976V616.794H575.333V616.206C575.333 614.204 574.283 612.524 572.001 612.524C569.859 612.524 568.613 614.022 568.613 616.332C568.613 618.67 569.901 620.168 572.057 620.168ZM572.029 613.868C572.953 613.868 573.471 614.554 573.471 615.562V615.688H570.475V615.576C570.475 614.568 571.091 613.868 572.029 613.868ZM578.862 620V615.52C578.862 614.722 579.492 614.386 580.696 614.386H581.256V612.692H580.864C579.702 612.692 579.114 613.434 578.932 614.204H578.862V612.692H577.07V620H578.862ZM586.194 620H587.986V617.774L588.952 616.724L590.828 620H592.956L590.17 615.52L592.69 612.692H590.66L589.022 614.568L588.056 615.884H587.986V609.64H586.194V620ZM596.828 620.168C598.186 620.168 599.25 619.65 599.852 618.824L598.886 617.746C598.438 618.32 597.906 618.74 597.024 618.74C595.848 618.74 595.246 618.026 595.246 616.976V616.794H600.104V616.206C600.104 614.204 599.054 612.524 596.772 612.524C594.63 612.524 593.384 614.022 593.384 616.332C593.384 618.67 594.672 620.168 596.828 620.168ZM596.8 613.868C597.724 613.868 598.242 614.554 598.242 615.562V615.688H595.246V615.576C595.246 614.568 595.862 613.868 596.8 613.868ZM604.964 616.556L604.46 618.404H604.376L603.9 616.556L602.626 612.692H600.848L603.466 620.35L603.13 621.372H601.814V622.8H602.892C604.096 622.8 604.614 622.352 604.978 621.302L607.918 612.692H606.238L604.964 616.556Z" fill="black"/>
</g>
<rect x="408.5" y="591.5" width="279" height="47" stroke="#8D8D8D"/>
<rect width="62" height="4" transform="translate(553 92) rotate(90)" fill="white" style="mix-blend-mode:multiply"/>
<path d="M551 92V146" stroke="black"/>
<path d="M555 146L551 154L547 146H555Z" fill="black"/>
<rect width="62" height="4" transform="translate(553 203) rotate(90)" fill="white" style="mix-blend-mode:multiply"/>
<path d="M551 203V257" stroke="black"/>
<path d="M555 257L551 265L547 257H555Z" fill="black"/>
<rect width="62" height="4" transform="translate(553 312) rotate(90)" fill="white" style="mix-blend-mode:multiply"/>
<path d="M551 312V366" stroke="black"/>
<path d="M555 366L551 374L547 366H555Z" fill="black"/>
<rect width="62" height="4" transform="translate(553 423) rotate(90)" fill="white" style="mix-blend-mode:multiply"/>
<path d="M551 423V477" stroke="black"/>
<path d="M555 477L551 485L547 477H555Z" fill="black"/>
<rect width="62" height="4" transform="translate(553 531) rotate(90)" fill="white" style="mix-blend-mode:multiply"/>
<path d="M551 531V585" stroke="black"/>
<path d="M555 585L551 593L547 585H555Z" fill="black"/>
<rect width="62" height="4" transform="translate(553 638) rotate(90)" fill="white" style="mix-blend-mode:multiply"/>
<path d="M551 638V692" stroke="black"/>
<path d="M555 692L551 700L547 692H555Z" fill="black"/>
<path d="M26.2768 35V33.516H24.9748V26.712H26.2768V25.228H21.8388V26.712H23.1268V33.516H21.8388V35H26.2768ZM28.3247 35H33.2807C34.7227 35 35.8007 33.768 35.8007 32.2C35.8007 30.534 34.5407 29.932 33.6867 29.918V29.834C34.5827 29.778 35.4367 29.218 35.4367 27.734C35.4367 26.222 34.4567 25.228 32.8467 25.228H28.3247V35ZM30.1727 30.814H32.7487C33.4487 30.814 33.8687 31.206 33.8687 31.892V32.368C33.8687 33.054 33.4487 33.432 32.7487 33.432H30.1727V30.814ZM30.1727 26.796H32.4547C33.1267 26.796 33.5187 27.174 33.5187 27.832V28.266C33.5187 28.91 33.1267 29.302 32.4547 29.302H30.1727V26.796ZM37.7679 35H39.5179V27.986H39.5739L40.3299 29.54L42.3319 33.236L44.3339 29.54L45.0899 27.986H45.1459V35H46.8959V25.228H44.8939L42.4159 30.002H42.3599L39.8539 25.228H37.7679V35ZM56.6202 35.168C58.3702 35.168 59.5322 34.314 60.2322 32.858L58.7342 31.976C58.4122 32.858 57.7262 33.53 56.6202 33.53C55.2482 33.53 54.3662 32.578 54.3662 30.898V29.358C54.3662 27.692 55.2482 26.698 56.6202 26.698C57.7122 26.698 58.3282 27.286 58.6082 28.154L60.1902 27.314C59.5042 25.802 58.3702 25.06 56.6202 25.06C54.0442 25.06 52.4062 26.894 52.4062 30.184C52.4062 33.474 54.0442 35.168 56.6202 35.168ZM64.6146 35V33.572H63.6486V24.64H61.8566V33.236C61.8566 34.356 62.4306 35 63.6486 35H64.6146ZM69.0298 35.168C71.1298 35.168 72.4318 33.684 72.4318 31.332C72.4318 28.994 71.1298 27.524 69.0298 27.524C66.9438 27.524 65.6418 28.994 65.6418 31.332C65.6418 33.684 66.9438 35.168 69.0298 35.168ZM69.0298 33.726C68.1058 33.726 67.5178 33.124 67.5178 32.018V30.66C67.5178 29.568 68.1058 28.966 69.0298 28.966C69.9678 28.966 70.5558 29.568 70.5558 30.66V32.018C70.5558 33.124 69.9678 33.726 69.0298 33.726ZM78.5485 35H80.3405V27.692H78.5485V32.522C78.5485 33.306 77.8345 33.684 77.1205 33.684C76.2665 33.684 75.8885 33.138 75.8885 32.13V27.692H74.0965V32.312C74.0965 34.132 74.9365 35.168 76.4345 35.168C77.6385 35.168 78.2265 34.51 78.4785 33.782H78.5485V35ZM87.107 35H88.899V24.64H87.107V28.896H87.037C86.785 28.056 85.987 27.524 85.021 27.524C83.187 27.524 82.165 28.896 82.165 31.332C82.165 33.782 83.187 35.168 85.021 35.168C85.987 35.168 86.771 34.608 87.037 33.782H87.107V35ZM85.595 33.684C84.671 33.684 84.041 33.012 84.041 31.976V30.716C84.041 29.68 84.671 28.994 85.595 28.994C86.449 28.994 87.107 29.456 87.107 30.17V32.494C87.107 33.25 86.449 33.684 85.595 33.684ZM97.4781 35.168C98.8921 35.168 99.9141 34.524 100.39 33.236L99.0181 32.578C98.7521 33.236 98.3321 33.726 97.4781 33.726C96.4841 33.726 95.9801 33.04 95.9801 32.018V30.688C95.9801 29.666 96.4841 28.966 97.4781 28.966C98.2481 28.966 98.7101 29.414 98.8781 30.03L100.348 29.372C99.9141 28.224 98.9481 27.524 97.4781 27.524C95.3221 27.524 94.1041 28.994 94.1041 31.332C94.1041 33.684 95.3221 35.168 97.4781 35.168ZM104.761 35.168C106.861 35.168 108.163 33.684 108.163 31.332C108.163 28.994 106.861 27.524 104.761 27.524C102.675 27.524 101.373 28.994 101.373 31.332C101.373 33.684 102.675 35.168 104.761 35.168ZM104.761 33.726C103.837 33.726 103.249 33.124 103.249 32.018V30.66C103.249 29.568 103.837 28.966 104.761 28.966C105.699 28.966 106.287 29.568 106.287 30.66V32.018C106.287 33.124 105.699 33.726 104.761 33.726ZM111.704 35V30.17C111.704 29.386 112.418 28.994 113.16 28.994C114.014 28.994 114.364 29.526 114.364 30.562V35H116.156V30.38C116.156 28.56 115.316 27.524 113.818 27.524C112.684 27.524 112.068 28.126 111.774 28.91H111.704V27.692H109.912V35H111.704ZM120.697 35.168C122.517 35.168 123.707 34.188 123.707 32.774C123.707 31.556 122.937 30.842 121.341 30.618L120.599 30.52C119.913 30.408 119.647 30.184 119.647 29.694C119.647 29.246 119.983 28.938 120.753 28.938C121.467 28.938 122.083 29.274 122.503 29.722L123.553 28.672C122.853 27.944 122.125 27.524 120.697 27.524C119.031 27.524 117.925 28.42 117.925 29.834C117.925 31.164 118.793 31.85 120.361 32.046L121.089 32.144C121.733 32.228 121.985 32.494 121.985 32.914C121.985 33.432 121.621 33.754 120.767 33.754C119.941 33.754 119.297 33.376 118.765 32.76L117.673 33.824C118.401 34.664 119.311 35.168 120.697 35.168ZM128.347 35.168C130.447 35.168 131.749 33.684 131.749 31.332C131.749 28.994 130.447 27.524 128.347 27.524C126.261 27.524 124.959 28.994 124.959 31.332C124.959 33.684 126.261 35.168 128.347 35.168ZM128.347 33.726C127.423 33.726 126.835 33.124 126.835 32.018V30.66C126.835 29.568 127.423 28.966 128.347 28.966C129.285 28.966 129.873 29.568 129.873 30.66V32.018C129.873 33.124 129.285 33.726 128.347 33.726ZM136.256 35V33.572H135.29V24.64H133.498V33.236C133.498 34.356 134.072 35 135.29 35H136.256ZM140.727 35.168C142.085 35.168 143.149 34.65 143.751 33.824L142.785 32.746C142.337 33.32 141.805 33.74 140.923 33.74C139.747 33.74 139.145 33.026 139.145 31.976V31.794H144.003V31.206C144.003 29.204 142.953 27.524 140.671 27.524C138.529 27.524 137.283 29.022 137.283 31.332C137.283 33.67 138.571 35.168 140.727 35.168ZM140.699 28.868C141.623 28.868 142.141 29.554 142.141 30.562V30.688H139.145V30.576C139.145 29.568 139.761 28.868 140.699 28.868ZM149.208 37.8H151V33.782H151.056C151.336 34.608 152.106 35.168 153.072 35.168C154.92 35.168 155.942 33.782 155.942 31.332C155.942 28.896 154.92 27.524 153.072 27.524C152.106 27.524 151.322 28.056 151.056 28.896H151V27.692H149.208V37.8ZM152.498 33.684C151.644 33.684 151 33.25 151 32.494V30.17C151 29.456 151.644 28.994 152.498 28.994C153.422 28.994 154.066 29.68 154.066 30.716V31.976C154.066 33.012 153.422 33.684 152.498 33.684ZM159.555 35V30.52C159.555 29.722 160.185 29.386 161.389 29.386H161.949V27.692H161.557C160.395 27.692 159.807 28.434 159.625 29.204H159.555V27.692H157.763V35H159.555ZM166.248 35.168C168.348 35.168 169.65 33.684 169.65 31.332C169.65 28.994 168.348 27.524 166.248 27.524C164.162 27.524 162.86 28.994 162.86 31.332C162.86 33.684 164.162 35.168 166.248 35.168ZM166.248 33.726C165.324 33.726 164.736 33.124 164.736 32.018V30.66C164.736 29.568 165.324 28.966 166.248 28.966C167.186 28.966 167.774 29.568 167.774 30.66V32.018C167.774 33.124 167.186 33.726 166.248 33.726ZM177.993 35.616C177.993 34.3 177.223 33.53 175.431 33.53H173.471C172.827 33.53 172.519 33.348 172.519 32.984C172.519 32.662 172.757 32.452 173.037 32.326C173.359 32.41 173.737 32.452 174.157 32.452C176.145 32.452 177.181 31.472 177.181 30.002C177.181 29.106 176.803 28.392 176.047 27.972V27.776H177.601V26.404H176.467C175.795 26.404 175.431 26.754 175.431 27.468V27.706C175.067 27.58 174.605 27.524 174.157 27.524C172.183 27.524 171.133 28.518 171.133 30.002C171.133 30.968 171.581 31.724 172.463 32.13V32.186C171.763 32.34 171.119 32.718 171.119 33.474C171.119 34.062 171.455 34.538 172.057 34.692V34.846C171.245 34.972 170.755 35.434 170.755 36.246C170.755 37.324 171.693 37.968 174.157 37.968C176.957 37.968 177.993 37.142 177.993 35.616ZM176.313 35.826C176.313 36.442 175.795 36.736 174.633 36.736H173.737C172.617 36.736 172.197 36.4 172.197 35.84C172.197 35.546 172.309 35.28 172.575 35.084H175.067C175.977 35.084 176.313 35.364 176.313 35.826ZM174.157 31.234C173.303 31.234 172.841 30.842 172.841 30.114V29.876C172.841 29.134 173.303 28.756 174.157 28.756C175.011 28.756 175.473 29.134 175.473 29.876V30.114C175.473 30.842 175.011 31.234 174.157 31.234ZM180.98 35V30.52C180.98 29.722 181.61 29.386 182.814 29.386H183.374V27.692H182.982C181.82 27.692 181.232 28.434 181.05 29.204H180.98V27.692H179.188V35H180.98ZM187.73 35.168C189.088 35.168 190.152 34.65 190.754 33.824L189.788 32.746C189.34 33.32 188.808 33.74 187.926 33.74C186.75 33.74 186.148 33.026 186.148 31.976V31.794H191.006V31.206C191.006 29.204 189.956 27.524 187.674 27.524C185.532 27.524 184.286 29.022 184.286 31.332C184.286 33.67 185.574 35.168 187.73 35.168ZM187.702 28.868C188.626 28.868 189.144 29.554 189.144 30.562V30.688H186.148V30.576C186.148 29.568 186.764 28.868 187.702 28.868ZM195.136 35.168C196.956 35.168 198.146 34.188 198.146 32.774C198.146 31.556 197.376 30.842 195.78 30.618L195.038 30.52C194.352 30.408 194.086 30.184 194.086 29.694C194.086 29.246 194.422 28.938 195.192 28.938C195.906 28.938 196.522 29.274 196.942 29.722L197.992 28.672C197.292 27.944 196.564 27.524 195.136 27.524C193.47 27.524 192.364 28.42 192.364 29.834C192.364 31.164 193.232 31.85 194.8 32.046L195.528 32.144C196.172 32.228 196.424 32.494 196.424 32.914C196.424 33.432 196.06 33.754 195.206 33.754C194.38 33.754 193.736 33.376 193.204 32.76L192.112 33.824C192.84 34.664 193.75 35.168 195.136 35.168ZM202.187 35.168C204.007 35.168 205.197 34.188 205.197 32.774C205.197 31.556 204.427 30.842 202.831 30.618L202.089 30.52C201.403 30.408 201.137 30.184 201.137 29.694C201.137 29.246 201.473 28.938 202.243 28.938C202.957 28.938 203.573 29.274 203.993 29.722L205.043 28.672C204.343 27.944 203.615 27.524 202.187 27.524C200.521 27.524 199.415 28.42 199.415 29.834C199.415 31.164 200.283 31.85 201.851 32.046L202.579 32.144C203.223 32.228 203.475 32.494 203.475 32.914C203.475 33.432 203.111 33.754 202.257 33.754C201.431 33.754 200.787 33.376 200.255 32.76L199.163 33.824C199.891 34.664 200.801 35.168 202.187 35.168Z" fill="black"/>
</g>
<defs>
<clipPath id="clip0_0_1">
<rect width="1056" height="792" fill="white"/>
</clipPath>
<clipPath id="clip1_0_1">
<rect width="280" height="48" fill="white" transform="translate(408 45)"/>
</clipPath>
<clipPath id="clip2_0_1">
<rect width="280" height="48" fill="white" transform="translate(408 264)"/>
</clipPath>
<clipPath id="clip3_0_1">
<rect width="280" height="48" fill="white" transform="translate(408 374)"/>
</clipPath>
<clipPath id="clip4_0_1">
<rect width="280" height="48" fill="white" transform="translate(408 700)"/>
</clipPath>
<clipPath id="clip5_0_1">
<rect width="280" height="48" fill="white" transform="translate(408 154)"/>
</clipPath>
<clipPath id="clip6_0_1">
<rect width="280" height="48" fill="white" transform="translate(408 483)"/>
</clipPath>
<clipPath id="clip7_0_1">
<rect width="280" height="48" fill="white" transform="translate(408 591)"/>
</clipPath>
</defs>
</svg>
