<svg xmlns="http://www.w3.org/2000/svg" width="1056" height="526" viewBox="0 0 1056 526">
    <defs>
        <style>.cls-1,.cls-10,.cls-11,.cls-12,.cls-13,.cls-14,.cls-3,.cls-8,.cls-9{fill:none;}.cls-1,.cls-13,.cls-14,.cls-2,.cls-4,.cls-5,.cls-6,.cls-7,.cls-8,.cls-9{stroke:#000;}.cls-1,.cls-15,.cls-4,.cls-8,.cls-9{stroke-miterlimit:10;}.cls-1{stroke-width:2px;}.cls-2{fill:#f2f4f8;}.cls-10,.cls-11,.cls-12,.cls-13,.cls-14,.cls-2,.cls-3,.cls-5,.cls-6,.cls-7{stroke-linejoin:round;}.cls-3{stroke:#868d95;}.cls-10,.cls-11,.cls-12,.cls-13,.cls-14,.cls-3,.cls-7{stroke-linecap:round;}.cls-13,.cls-3{stroke-dasharray:2;}.cls-4{fill:#e3f6ff;}.cls-5{fill:#dbfbfb;}.cls-6{fill:#b3e6ff;}.cls-7{fill:#d0b0ff;stroke-width:0.5px;}.cls-9{stroke-dasharray:2.0527 2.0527;}.cls-10,.cls-11,.cls-12{stroke:#9fa5ad;}.cls-11{stroke-dasharray:2.0036 2.0036;}.cls-12{stroke-dasharray:2.0203 2.0203;}.cls-14{stroke-dasharray:2 2;}.cls-15{fill:#333;stroke:#fff;}.cls-16,.cls-17,.cls-18,.cls-19{font-size:14px;}.cls-16,.cls-20{font-family:IBMPlexSans-SemiBold, IBM Plex Sans;font-weight:600;}.cls-17,.cls-19{font-family:IBMPlexSans, IBM Plex Sans;}.cls-18{font-family:IBMPlexSans-Medium, IBM Plex Sans;font-weight:500;}.cls-19{fill:#868d95;}.cls-20{font-size:18px;}</style>
    </defs>
    <g id="Layer_1" data-name="Layer 1">
        <line class="cls-1" x1="166.717" y1="116.6741" x2="166.717" y2="509.6665" />
        <rect class="cls-2" x="185.3754" y="162.154" width="846.6246" height="333.5188" />
        <rect class="cls-3" x="203.4507" y="212.8815" width="585.4071" height="251.8883" />
        <rect class="cls-2" x="56.1805" y="352.3518" width="46.646" height="116.384" transform="translate(490.0473 331.0403) rotate(90)" />
        <rect class="cls-4" x="219.7768" y="274.6874" width="173.7563" height="176.0886" />
        <rect class="cls-5" x="235.7009" y="327.0108" width="64.1382" height="46.646" />
        <rect class="cls-5" x="311.9026" y="327.1641" width="64.1382" height="46.646" />
        <rect class="cls-6" x="236.1029" y="387.2208" width="139.938" height="46.646" />
        <rect class="cls-4" x="408.693" y="274.6874" width="173.7563" height="176.0886" />
        <rect class="cls-5" x="424.6172" y="327.0108" width="64.1382" height="46.646" />
        <rect class="cls-5" x="500.8188" y="327.1641" width="64.1382" height="46.646" />
        <rect class="cls-6" x="425.0191" y="387.2208" width="139.938" height="46.646" />
        <path class="cls-7" d="M708.746,46.7842a5.3688,5.3688,0,1,1-2.87-2.2651" />
        <circle cx="703.0083" cy="50.8976" r="1.2011" />
        <polyline class="cls-7" points="705.876 44.519 713.088 36.587 715.922 36.452 716.039 38.895 711.504 43.883 709.805 43.971 709.88 45.537 708.746 46.784" />
        <line class="cls-8" x1="140.4786" y1="411.1269" x2="178.7373" y2="411.1269" />
        <polygon points="177.862 414.119 183.043 411.127 177.862 408.135 177.862 414.119" />
        <line class="cls-8" x1="79.8388" y1="335.9103" x2="79.8388" y2="378.8336" />
        <polygon points="76.847 377.958 79.839 383.139 82.831 377.958 76.847 377.958" />
        <rect class="cls-3" x="809.8485" y="212.8815" width="205.2423" height="251.8883" />
        <rect class="cls-4" x="598.7754" y="274.6874" width="173.7563" height="176.0886" />
        <rect class="cls-6" x="615.1015" y="387.2208" width="139.938" height="46.646" />
        <rect class="cls-4" x="825.0084" y="274.6874" width="173.7563" height="176.0886" />
        <rect class="cls-6" x="841.3345" y="387.2208" width="139.938" height="46.646" />
        <line class="cls-8" x1="682.1551" y1="75.8589" x2="683.1551" y2="75.8589" />
        <line class="cls-9" x1="685.2079" y1="75.8589" x2="725.2363" y2="75.8589" />
        <line class="cls-8" x1="726.2627" y1="75.8589" x2="727.2627" y2="75.8589" />
        <polygon points="726.387 78.851 731.568 75.859 726.387 72.867 726.387 78.851" />
        <polyline class="cls-10" points="1031.417 136.082 1031.417 137.082 1030.417 137.082" />
        <line class="cls-11" x1="1028.4134" y1="137.0817" x2="656.7524" y2="137.0817" />
        <polyline class="cls-10" points="655.751 137.082 654.751 137.082 654.751 136.082" />
        <line class="cls-12" x1="654.7506" y1="134.0614" x2="654.7506" y2="25.9754" />
        <polyline class="cls-10" points="654.751 24.965 654.751 23.965 655.751 23.965" />
        <line class="cls-11" x1="657.7542" y1="23.9652" x2="1029.4152" y2="23.9652" />
        <polyline class="cls-10" points="1030.417 23.965 1031.417 23.965 1031.417 24.965" />
        <line class="cls-12" x1="1031.4169" y1="26.9855" x2="1031.4169" y2="135.0716" />
        <path class="cls-7" d="M645.2353,411.9094a7.2915,7.2915,0,1,1-3.9085-3.0633" />
        <circle cx="637.4613" cy="417.5217" r="1.6312" />
        <polyline class="cls-7" points="641.327 408.846 651.086 398.04 654.935 397.844 655.104 401.162 648.968 407.956 646.661 408.084 646.769 410.211 645.235 411.909" />
        <path class="cls-7" d="M455.1529,411.9094a7.2915,7.2915,0,1,1-3.9085-3.0633" />
        <circle cx="447.3789" cy="417.5217" r="1.6312" />
        <polyline class="cls-7" points="451.244 408.846 461.003 398.04 464.853 397.844 465.022 401.162 458.886 407.956 456.579 408.084 456.687 410.211 455.153 411.909" />
        <path class="cls-7" d="M266.2366,411.9094a7.2915,7.2915,0,1,1-3.9085-3.0633" />
        <circle cx="258.4627" cy="417.5217" r="1.6312" />
        <polyline class="cls-7" points="262.328 408.846 272.087 398.04 275.936 397.844 276.105 401.162 269.969 407.956 267.662 408.084 267.771 410.211 266.237 411.909" />
        <path class="cls-7" d="M871.4683,411.9094a7.2915,7.2915,0,1,1-3.9085-3.0633" />
        <circle cx="863.6943" cy="417.5217" r="1.6312" />
        <polyline class="cls-7" points="867.56 408.846 877.319 398.04 881.168 397.844 881.337 401.162 875.201 407.956 872.894 408.084 873.002 410.211 871.468 411.909" />
        <line class="cls-13" x1="640.7568" y1="435.616" x2="640.7568" y2="479.9297" />
        <line class="cls-14" x1="869.3221" y1="438.1725" x2="869.3221" y2="480.5128" />
        <polygon points="866.33 439.048 869.322 433.867 872.314 439.048 866.33 439.048" />
        <line class="cls-14" x1="456.5051" y1="438.1725" x2="456.5051" y2="480.5128" />
        <polygon points="453.513 439.048 456.505 433.867 459.497 439.048 453.513 439.048" />
        <line class="cls-14" x1="267.5889" y1="438.1725" x2="267.5889" y2="480.5128" />
        <polygon points="264.597 439.048 267.589 433.867 270.581 439.048 264.597 439.048" />
        <line class="cls-13" x1="267.5889" y1="479.9297" x2="869.3221" y2="479.9297" />
        <circle class="cls-15" cx="82.8202" cy="272.2554" r="6.9969" />
        <path class="cls-15" d="M95.0647,290.9138v3.4985H70.5756v-3.4985a10.5262,10.5262,0,0,1,10.4953-10.4953h3.4985A10.5262,10.5262,0,0,1,95.0647,290.9138Z" />
        <circle class="cls-15" cx="75.8233" cy="272.2554" r="6.9969" />
        <path class="cls-15" d="M88.0678,290.9138v3.4985H63.5787v-3.4985A10.5262,10.5262,0,0,1,74.074,280.4185h3.4985A10.5262,10.5262,0,0,1,88.0678,290.9138Z" />
    </g>
    <g id="Text">
        <text class="cls-16" transform="translate(481.6416 189.7413)">Hyper Protect Crypto Services instance</text>
        <text class="cls-17" transform="translate(744.6587 50.8619) rotate(0.1897)">Master Key</text>
        <text class="cls-17" transform="translate(744.0622 117.1874) rotate(0.1897)">Key management service</text>
        <text class="cls-17" transform="translate(745.5696 76.3074) rotate(0.1897)">
            Export the master key from a
            <tspan x="0" y="16.7998">recovery crypto unit to other crypto units</tspan>
        </text>
        <text class="cls-18" transform="translate(46.043 406.7798)">
            IBM Cloud
            <tspan x="-16.2744" y="16.7998">TKE CLI plug-in</tspan>
        </text>
        <text class="cls-18" transform="translate(43.957 309.9888)">
            Crypto unit
            <tspan x="12.0117" y="16.7998">admins</tspan>
        </text>
        <text class="cls-19" transform="translate(221.2798 234.7554)">Region 1</text>
        <text class="cls-18" transform="translate(231.8086 302.4048)">Operational crypto unit</text>
        <text class="cls-18" transform="translate(421.8911 302.4048)">Operational crypto unit</text>
        <text class="cls-18" transform="translate(620.0234 302.4048)">Recovery crypto unit</text>
        <text class="cls-18" transform="translate(846.2568 302.4048)">Recovery crypto unit</text>
        <text class="cls-17" transform="translate(220.8901 260.1187)">AZ1</text>
        <text class="cls-18" transform="translate(253.2661 354.4693)">KMS</text>
        <text class="cls-18" transform="translate(691.1553 117.1578)">KMS</text>
        <text class="cls-18" transform="translate(327.0317 354.6226)">EP11</text>
        <text class="cls-18" transform="translate(291.0845 414.3531)">HSM</text>
        <text class="cls-17" transform="translate(406.3076 260.1187)">AZ2</text>
        <text class="cls-18" transform="translate(442.1826 354.4693)">KMS</text>
        <text class="cls-18" transform="translate(515.9478 354.6226)">EP11</text>
        <text class="cls-18" transform="translate(480.001 414.3531)">HSM</text>
        <text class="cls-19" transform="translate(826.5117 234.7554)">Region 2</text>
        <text class="cls-17" transform="translate(603.3867 260.1187)">AZ3</text>
        <text class="cls-18" transform="translate(670.083 414.3531)">HSM</text>
        <text class="cls-17" transform="translate(826.1211 260.1187)">AZ4</text>
        <text class="cls-18" transform="translate(896.3164 414.3531)">HSM</text>
        <text class="cls-16" transform="translate(199.2905 138.8882)">IBM Cloud</text>
        <text class="cls-20" transform="translate(45.2168 44.3687)">Initializing service instances using recovery crypto units</text>
    </g>
</svg>