<svg id="Layer_1" data-name="Layer 1" xmlns="http://www.w3.org/2000/svg" width="750" height="260" viewBox="0 0 750 260"><defs><style>.cls-1{fill:#f2f4f8;}.cls-1,.cls-2,.cls-3,.cls-4,.cls-5{stroke:#000;}.cls-1,.cls-2,.cls-3,.cls-4{stroke-miterlimit:10;}.cls-2{fill:#dbfbfb;}.cls-3{fill:#b3e6ff;}.cls-4{fill:#f7f1ff;}.cls-5{fill:none;stroke-linecap:round;stroke-linejoin:round;}</style></defs><title>object-class</title><rect class="cls-1" x="320.4085" y="29.1914" width="100" height="40" rx="4"/><path d="M358.3652,52.8349a3.6875,3.6875,0,0,1-1.47-.2812,2.998,2.998,0,0,1-1.1157-.8281,3.8362,3.8362,0,0,1-.7139-1.3565,7,7,0,0,1,0-3.7256,3.9052,3.9052,0,0,1,.7139-1.3564,2.9811,2.9811,0,0,1,1.1157-.834,3.9675,3.9675,0,0,1,2.9341,0,2.976,2.976,0,0,1,1.1221.834,3.9034,3.9034,0,0,1,.7138,1.3564,7.0109,7.0109,0,0,1,0,3.7256,3.8345,3.8345,0,0,1-.7138,1.3565,2.9929,2.9929,0,0,1-1.1221.8281A3.6979,3.6979,0,0,1,358.3652,52.8349Zm0-.8877a2.5442,2.5442,0,0,0,.9961-.1923,2.2368,2.2368,0,0,0,.7857-.5537,2.5281,2.5281,0,0,0,.51-.8672,3.3571,3.3571,0,0,0,.18-1.1319V47.8047a3.3571,3.3571,0,0,0-.18-1.1319,2.5281,2.5281,0,0,0-.51-.8672,2.2368,2.2368,0,0,0-.7857-.5537,2.676,2.676,0,0,0-1.9922,0,2.2374,2.2374,0,0,0-.7861.5537,2.5368,2.5368,0,0,0-.51.8672,3.3571,3.3571,0,0,0-.18,1.1319v1.3974a3.3571,3.3571,0,0,0,.18,1.1319,2.5368,2.5368,0,0,0,.51.8672,2.2374,2.2374,0,0,0,.7861.5537A2.5446,2.5446,0,0,0,358.3652,51.9472Z"/><path d="M363.6333,43.8115h.96v3.6846h.0478a1.737,1.737,0,0,1,.7022-.8614,2.1038,2.1038,0,0,1,1.11-.2792,2.3591,2.3591,0,0,1,1.044.2275,2.2728,2.2728,0,0,1,.7983.6484,2.9839,2.9839,0,0,1,.5039,1.02,5.285,5.285,0,0,1,0,2.6884,2.9668,2.9668,0,0,1-.5039,1.02,2.2728,2.2728,0,0,1-.7983.6484,2.3468,2.3468,0,0,1-1.044.2275,1.8756,1.8756,0,0,1-1.812-1.14h-.0478v.9961h-.96Zm2.5562,8.1719a1.6509,1.6509,0,0,0,1.2836-.5127,1.9168,1.9168,0,0,0,.4683-1.3447V49.0644a1.9166,1.9166,0,0,0-.4683-1.3447,1.6509,1.6509,0,0,0-1.2836-.5127,2.082,2.082,0,0,0-.6182.0908,1.7214,1.7214,0,0,0-.51.2471,1.1912,1.1912,0,0,0-.3423.38.9565.9565,0,0,0-.1259.4765v2.3155a1.122,1.122,0,0,0,.1259.5371,1.21,1.21,0,0,0,.3423.3974,1.5307,1.5307,0,0,0,.51.2481A2.2486,2.2486,0,0,0,366.19,51.9834Z"/><path d="M370.5928,46.499h.96v7.1523a1.5954,1.5954,0,0,1-.3242,1.044,1.2419,1.2419,0,0,1-1.0195.3965h-.624v-.8526h1.0078Zm.48-1.4512a.5886.5886,0,0,1-.45-.15.5521.5521,0,0,1-.1377-.39v-.1563a.5564.5564,0,0,1,.1377-.3906.7529.7529,0,0,1,.9,0,.5564.5564,0,0,1,.1377.3906v.1563a.5521.5521,0,0,1-.1377.39A.5885.5885,0,0,1,371.0728,45.0478Z"/><path d="M375.9209,52.8349a2.7717,2.7717,0,0,1-1.146-.2275,2.4682,2.4682,0,0,1-.876-.6543,2.9908,2.9908,0,0,1-.5639-1.02,4.5926,4.5926,0,0,1,0-2.67,2.9876,2.9876,0,0,1,.5639-1.0264,2.4682,2.4682,0,0,1,.876-.6543,2.7862,2.7862,0,0,1,1.146-.2275,2.6349,2.6349,0,0,1,1.1162.2275,2.4668,2.4668,0,0,1,.84.6279,2.7892,2.7892,0,0,1,.5341.95,3.7513,3.7513,0,0,1,.1856,1.208v.4541h-4.4522v.2881a2.1119,2.1119,0,0,0,.1265.7383,1.75,1.75,0,0,0,.36.5937,1.6508,1.6508,0,0,0,.5756.3965,1.9858,1.9858,0,0,0,.7745.1436,1.8781,1.8781,0,0,0,1.0258-.2764,1.8052,1.8052,0,0,0,.6778-.792l.6845.4951a2.389,2.389,0,0,1-.9365,1.0332A2.8276,2.8276,0,0,1,375.9209,52.8349Zm0-5.6757a1.8243,1.8243,0,0,0-.72.1377,1.6118,1.6118,0,0,0-.5581.3877,1.8149,1.8149,0,0,0-.3657.59,2.0355,2.0355,0,0,0-.1324.7451v.084h3.4209v-.1318a1.885,1.885,0,0,0-.45-1.3174A1.5357,1.5357,0,0,0,375.9209,47.1592Z"/><path d="M382.4854,52.8349a2.8467,2.8467,0,0,1-1.1641-.2275,2.3844,2.3844,0,0,1-.87-.6484,2.8718,2.8718,0,0,1-.54-1.02,4.963,4.963,0,0,1,0-2.6884,2.8881,2.8881,0,0,1,.54-1.02,2.3844,2.3844,0,0,1,.87-.6484,2.8615,2.8615,0,0,1,1.1641-.2275,2.4792,2.4792,0,0,1,1.4824.4023,2.45,2.45,0,0,1,.834,1.05l-.8047.4082a1.4567,1.4567,0,0,0-.5518-.7441,1.6572,1.6572,0,0,0-.96-.2647,1.9192,1.9192,0,0,0-.7559.1387,1.47,1.47,0,0,0-.54.3838,1.6149,1.6149,0,0,0-.3243.5879,2.4743,2.4743,0,0,0-.1074.75V50.123a2.0076,2.0076,0,0,0,.4375,1.3379,1.5864,1.5864,0,0,0,1.29.5225,1.7409,1.7409,0,0,0,1.68-1.08l.6963.4678a2.46,2.46,0,0,1-.8935,1.0683A2.62,2.62,0,0,1,382.4854,52.8349Z"/><path d="M387.585,52.6914a.9823.9823,0,0,1-.7618-.2813,1.0484,1.0484,0,0,1-.2578-.7363V47.3515h-1.0205V46.499h.5762a.564.564,0,0,0,.4258-.126.652.652,0,0,0,.1142-.4375V44.7832h.8643V46.499h1.3555v.8525h-1.3555V51.84h1.26v.8516Z"/><rect class="cls-2" x="185.3245" y="113" width="100" height="40" rx="4"/><path d="M223.9009,127.3154h2.8076a3.6632,3.6632,0,0,1,1.416.2637,2.8728,2.8728,0,0,1,1.0859.7861,3.5747,3.5747,0,0,1,.6905,1.3086,7.1024,7.1024,0,0,1,0,3.6592,3.5747,3.5747,0,0,1-.6905,1.3086,2.8632,2.8632,0,0,1-1.0859.7861,3.6632,3.6632,0,0,1-1.416.2637h-2.8076Zm2.8076,7.4883a2.5307,2.5307,0,0,0,.9482-.1738,2.0456,2.0456,0,0,0,.7442-.5108,2.3687,2.3687,0,0,0,.4858-.8213,3.2925,3.2925,0,0,0,.1738-1.11v-1.3682a3.2925,3.2925,0,0,0-.1738-1.11,2.3687,2.3687,0,0,0-.4858-.8213,2.0456,2.0456,0,0,0-.7442-.5108,2.5307,2.5307,0,0,0-.9482-.1738h-1.8v6.6006Z"/><path d="M236.3564,135.6914a.9407.9407,0,0,1-.7739-.2881,1.4214,1.4214,0,0,1-.2939-.72h-.06a1.6046,1.6046,0,0,1-.6719.8642,2.0929,2.0929,0,0,1-1.1162.2871,2.17,2.17,0,0,1-1.53-.5039,1.7692,1.7692,0,0,1-.5463-1.3672,1.5636,1.5636,0,0,1,.642-1.3447,3.4179,3.4179,0,0,1,1.9981-.4678h1.2241v-.6123a1.34,1.34,0,0,0-.36-1.0078,1.54,1.54,0,0,0-1.1041-.3476,1.6627,1.6627,0,0,0-.9423.2519,2.0726,2.0726,0,0,0-.63.6719l-.5762-.54a2.1928,2.1928,0,0,1,.8042-.8584,2.9978,2.9978,0,0,1,3.1441.1972,1.9372,1.9372,0,0,1,.624,1.5323V134.84h.708v.8516Zm-2.76-.6719a2.455,2.455,0,0,0,.66-.084,1.5992,1.5992,0,0,0,.5162-.24,1.177,1.177,0,0,0,.3359-.36.8558.8558,0,0,0,.12-.4433v-1.02h-1.272a2.3194,2.3194,0,0,0-1.206.24.7759.7759,0,0,0-.3779.6963v.252a.8393.8393,0,0,0,.33.708A1.4373,1.4373,0,0,0,233.5962,135.02Z"/><path d="M239.6328,135.6914a.9827.9827,0,0,1-.7622-.2813,1.048,1.048,0,0,1-.2578-.7363v-4.3223h-1.02v-.8525h.5757a.5649.5649,0,0,0,.4262-.126.6544.6544,0,0,0,.1138-.4375v-1.1523h.8643v1.7158h1.3559v.8525h-1.3559V134.84h1.26v.8516Z"/><path d="M246.9766,135.6914a.9408.9408,0,0,1-.774-.2881,1.4214,1.4214,0,0,1-.2939-.72h-.06a1.6049,1.6049,0,0,1-.6718.8642,2.0935,2.0935,0,0,1-1.1163.2871,2.17,2.17,0,0,1-1.53-.5039,1.769,1.769,0,0,1-.5464-1.3672,1.5634,1.5634,0,0,1,.6421-1.3447,3.4174,3.4174,0,0,1,1.998-.4678h1.2241v-.6123a1.34,1.34,0,0,0-.36-1.0078,1.54,1.54,0,0,0-1.104-.3476,1.6628,1.6628,0,0,0-.9424.2519,2.0726,2.0726,0,0,0-.63.6719l-.5762-.54a2.1935,2.1935,0,0,1,.8042-.8584,2.9978,2.9978,0,0,1,3.1441.1972,1.9372,1.9372,0,0,1,.624,1.5323V134.84h.708v.8516Zm-2.76-.6719a2.4563,2.4563,0,0,0,.66-.084,1.5987,1.5987,0,0,0,.5161-.24,1.177,1.177,0,0,0,.3359-.36.8558.8558,0,0,0,.12-.4433v-1.02h-1.2719a2.32,2.32,0,0,0-1.2061.24.7761.7761,0,0,0-.3779.6963v.252a.8391.8391,0,0,0,.33.708A1.4368,1.4368,0,0,0,244.2163,135.02Z"/><rect class="cls-3" x="185.3245" y="195.6914" width="100" height="40" rx="4"/><path d="M209.0332,218.3828v-8.376h3.3359a2.271,2.271,0,0,1,1.7339.6416,2.8538,2.8538,0,0,1,0,3.5166,2.2707,2.2707,0,0,1-1.7339.6416H210.041v3.5762Zm1.0078-4.4639h2.3281a1.3,1.3,0,0,0,.93-.3125,1.1623,1.1623,0,0,0,.33-.8877v-.624a1.1623,1.1623,0,0,0-.33-.8877,1.3,1.3,0,0,0-.93-.3125H210.041Z"/><path d="M220.0249,217.3867h-.0478a3.0145,3.0145,0,0,1-.2339.4219,1.5458,1.5458,0,0,1-.834.623,2.1485,2.1485,0,0,1-.6724.0947,1.96,1.96,0,0,1-1.5239-.6171,2.4984,2.4984,0,0,1-.564-1.7461V212.19h.96v3.8125q0,1.6714,1.416,1.6719a2.1632,2.1632,0,0,0,.5581-.0723,1.5458,1.5458,0,0,0,.48-.2158,1.1007,1.1007,0,0,0,.3359-.3672,1.0707,1.0707,0,0,0,.126-.5351V212.19h.96v6.1924h-.96Z"/><path d="M223.0249,209.5029h.96v3.6846h.0478a1.7363,1.7363,0,0,1,.7022-.8613,2.1029,2.1029,0,0,1,1.11-.2793,2.3591,2.3591,0,0,1,1.044.2275,2.2728,2.2728,0,0,1,.7983.6484,2.9848,2.9848,0,0,1,.5039,1.02,5.285,5.285,0,0,1,0,2.6884,2.9668,2.9668,0,0,1-.5039,1.02,2.2728,2.2728,0,0,1-.7983.6484,2.3455,2.3455,0,0,1-1.044.2275,1.8756,1.8756,0,0,1-1.812-1.14h-.0478v.9961h-.96Zm2.5562,8.1719a1.6509,1.6509,0,0,0,1.2836-.5127,1.9166,1.9166,0,0,0,.4683-1.3447v-1.0616a1.9168,1.9168,0,0,0-.4683-1.3447,1.6509,1.6509,0,0,0-1.2836-.5127,2.082,2.082,0,0,0-.6182.0908,1.7214,1.7214,0,0,0-.51.2471,1.1922,1.1922,0,0,0-.3423.38.9566.9566,0,0,0-.1259.4766v2.3154a1.122,1.122,0,0,0,.1259.5371,1.2109,1.2109,0,0,0,.3423.3975,1.5325,1.5325,0,0,0,.51.248A2.2486,2.2486,0,0,0,225.5811,217.6748Z"/><path d="M231.0049,218.3828a.98.98,0,0,1-.7622-.2822,1.0161,1.0161,0,0,1-.2578-.7139v-7.8838h.96v8.0283h.9121v.8516Z"/><path d="M233.7285,210.7392a.5889.5889,0,0,1-.45-.15.5521.5521,0,0,1-.1377-.39v-.1562a.5565.5565,0,0,1,.1377-.3907.753.753,0,0,1,.9,0,.5565.5565,0,0,1,.1377.3907v.1562a.5521.5521,0,0,1-.1377.39A.5889.5889,0,0,1,233.7285,210.7392Zm-.48,1.4512h.96v6.1924h-.96Z"/><path d="M238.5527,218.5263a2.8432,2.8432,0,0,1-1.164-.2275,2.3761,2.3761,0,0,1-.87-.6484,2.87,2.87,0,0,1-.54-1.02,4.95,4.95,0,0,1,0-2.6884,2.8874,2.8874,0,0,1,.54-1.02,2.3761,2.3761,0,0,1,.87-.6484,2.86,2.86,0,0,1,1.164-.2275,2.4787,2.4787,0,0,1,1.482.4023,2.4459,2.4459,0,0,1,.834,1.05l-.8042.4082a1.4573,1.4573,0,0,0-.5518-.7441,1.6587,1.6587,0,0,0-.96-.2647,1.923,1.923,0,0,0-.7563.1387,1.4749,1.4749,0,0,0-.54.3838,1.6153,1.6153,0,0,0-.3237.5879,2.4741,2.4741,0,0,0-.1079.75v1.0556a2.0052,2.0052,0,0,0,.438,1.3379,1.5863,1.5863,0,0,0,1.29.5225,1.7414,1.7414,0,0,0,1.68-1.08l.6963.4678a2.4581,2.4581,0,0,1-.894,1.0683A2.6176,2.6176,0,0,1,238.5527,218.5263Z"/><path d="M245.1162,209.5029h.96v5.6279h.0478l.9483-1.0556,1.7519-1.8848h1.1641l-2.292,2.4483,2.52,3.7441h-1.1641L247,215.2265l-.9238.9483v2.208h-.96Z"/><path d="M253.5645,218.5263a2.77,2.77,0,0,1-1.146-.2275,2.4664,2.4664,0,0,1-.876-.6543,2.991,2.991,0,0,1-.564-1.0195,4.5948,4.5948,0,0,1,0-2.67,2.9877,2.9877,0,0,1,.564-1.0264,2.4664,2.4664,0,0,1,.876-.6543,2.7859,2.7859,0,0,1,1.146-.2275,2.6342,2.6342,0,0,1,1.1157.2275,2.4674,2.4674,0,0,1,.84.6279,2.7967,2.7967,0,0,1,.5337.95,3.7544,3.7544,0,0,1,.186,1.208v.4541h-4.4521v.2881a2.1119,2.1119,0,0,0,.1265.7383,1.75,1.75,0,0,0,.36.5937,1.6508,1.6508,0,0,0,.5757.3965,1.9849,1.9849,0,0,0,.7744.1436,1.8794,1.8794,0,0,0,1.0259-.2764,1.8038,1.8038,0,0,0,.6777-.792l.6841.4951a2.3909,2.3909,0,0,1-.936,1.0332A2.8293,2.8293,0,0,1,253.5645,218.5263Zm0-5.6757a1.8248,1.8248,0,0,0-.72.1377,1.6127,1.6127,0,0,0-.5581.3877,1.8194,1.8194,0,0,0-.3657.59,2.0355,2.0355,0,0,0-.1323.7451v.084h3.42v-.1318a1.885,1.885,0,0,0-.45-1.3174A1.5354,1.5354,0,0,0,253.5645,212.8506Z"/><path d="M261.58,212.19h.9482l-2.772,7.6328a3.4017,3.4017,0,0,1-.2163.4619.9021.9021,0,0,1-.2636.294,1.0543,1.0543,0,0,1-.39.1553,2.87,2.87,0,0,1-.57.0488h-.4917v-.8526h.9717l.4683-1.3173-2.316-6.4229h.96l1.4878,4.2041.2881,1.0059h.06l.336-1.0059Z"/><rect class="cls-3" x="320.4085" y="195.6914" width="100" height="40" rx="4"/><path d="M343.3267,218.3828v-8.376h3.3359a2.271,2.271,0,0,1,1.7339.6416,2.8542,2.8542,0,0,1,0,3.5166,2.2707,2.2707,0,0,1-1.7339.6416h-2.3281v3.5762Zm1.0078-4.4639h2.3281a1.3,1.3,0,0,0,.93-.3125,1.1623,1.1623,0,0,0,.33-.8877v-.624a1.1623,1.1623,0,0,0-.33-.8877,1.3,1.3,0,0,0-.93-.3125h-2.3281Z"/><path d="M350.3823,218.3828V212.19h.96v1.1406h.06a1.8667,1.8667,0,0,1,.6-.792,1.8414,1.8414,0,0,1,1.188-.3486h.3721v.96h-.564a2.173,2.173,0,0,0-1.2182.2939.868.868,0,0,0-.438.7383v4.2Z"/><path d="M355.2661,210.7392a.5889.5889,0,0,1-.45-.15.5521.5521,0,0,1-.1377-.39v-.1562a.5565.5565,0,0,1,.1377-.3907.753.753,0,0,1,.9,0,.5565.5565,0,0,1,.1377.3907v.1562a.5521.5521,0,0,1-.1377.39A.5889.5889,0,0,1,355.2661,210.7392Zm-.48,1.4512h.96v6.1924h-.96Z"/><path d="M359.1543,218.3828l-2.1724-6.1924h.96l1.08,3.0723.6723,2.1123h.06l.6724-2.1123,1.104-3.0723h.9238l-2.1841,6.1924Z"/><path d="M368.082,218.3828a.9407.9407,0,0,1-.7739-.2881,1.4214,1.4214,0,0,1-.2939-.72h-.06a1.605,1.605,0,0,1-.6719.8642,2.0931,2.0931,0,0,1-1.1162.2871,2.17,2.17,0,0,1-1.53-.5039,1.7691,1.7691,0,0,1-.5464-1.3671,1.5637,1.5637,0,0,1,.6421-1.3448,3.418,3.418,0,0,1,1.9981-.4677h1.2241v-.6123a1.34,1.34,0,0,0-.36-1.0079,1.5394,1.5394,0,0,0-1.104-.3476,1.6627,1.6627,0,0,0-.9423.2519,2.0716,2.0716,0,0,0-.63.6719l-.5762-.54a2.1928,2.1928,0,0,1,.8042-.8584,2.9976,2.9976,0,0,1,3.144.1972,1.9369,1.9369,0,0,1,.6241,1.5323v3.4013h.708v.8516Zm-2.76-.6719a2.4556,2.4556,0,0,0,.66-.084,1.5977,1.5977,0,0,0,.5161-.24,1.1762,1.1762,0,0,0,.336-.36.8558.8558,0,0,0,.12-.4433v-1.02h-1.272a2.3194,2.3194,0,0,0-1.206.24.776.776,0,0,0-.378.6963v.252a.8393.8393,0,0,0,.33.708A1.4371,1.4371,0,0,0,365.3218,217.7109Z"/><path d="M371.3584,218.3828a.9827.9827,0,0,1-.7622-.2813,1.0478,1.0478,0,0,1-.2578-.7363V213.043h-1.02V212.19h.5756a.5652.5652,0,0,0,.4263-.126.6542.6542,0,0,0,.1138-.4375v-1.1523h.8642V212.19h1.356v.8526h-1.356v4.4882h1.26v.8516Z"/><path d="M376.4824,218.5263a2.7688,2.7688,0,0,1-1.146-.2275,2.4682,2.4682,0,0,1-.876-.6543,2.9908,2.9908,0,0,1-.5639-1.0195,4.5926,4.5926,0,0,1,0-2.67,2.9876,2.9876,0,0,1,.5639-1.0264,2.4682,2.4682,0,0,1,.876-.6543,2.7849,2.7849,0,0,1,1.146-.2275,2.6339,2.6339,0,0,1,1.1153.2275,2.4693,2.4693,0,0,1,.8408.6279,2.8041,2.8041,0,0,1,.5332.95,3.7543,3.7543,0,0,1,.1865,1.208v.4541h-4.4521v.2881a2.1119,2.1119,0,0,0,.1264.7383,1.75,1.75,0,0,0,.36.5937,1.649,1.649,0,0,0,.5757.3965,1.9824,1.9824,0,0,0,.7739.1436,1.8811,1.8811,0,0,0,1.0264-.2764,1.8044,1.8044,0,0,0,.6777-.792l.6836.4951a2.3924,2.3924,0,0,1-.9356,1.0332A2.83,2.83,0,0,1,376.4824,218.5263Zm0-5.6757a1.8229,1.8229,0,0,0-.72.1377,1.6127,1.6127,0,0,0-.5581.3877,1.8177,1.8177,0,0,0-.3657.59,2.0355,2.0355,0,0,0-.1323.7451v.084h3.42v-.1318a1.885,1.885,0,0,0-.45-1.3174A1.5352,1.5352,0,0,0,376.4824,212.8506Z"/><path d="M383.5742,209.5029h.96v5.6279h.0478l.9483-1.0556,1.7519-1.8848h1.1641l-2.292,2.4483,2.52,3.7441H387.51l-2.0518-3.1563-.9238.9483v2.208h-.96Z"/><path d="M392.0215,218.5263a2.7694,2.7694,0,0,1-1.1455-.2275,2.4594,2.4594,0,0,1-.876-.6543,2.9936,2.9936,0,0,1-.5645-1.0195,4.5948,4.5948,0,0,1,0-2.67A2.99,2.99,0,0,1,390,212.9287a2.4594,2.4594,0,0,1,.876-.6543,2.7855,2.7855,0,0,1,1.1455-.2275,2.6349,2.6349,0,0,1,1.1162.2275,2.4655,2.4655,0,0,1,.84.6279,2.7877,2.7877,0,0,1,.5342.95,3.7545,3.7545,0,0,1,.1856,1.208v.4541h-4.4522v.2881a2.1006,2.1006,0,0,0,.127.7383,1.75,1.75,0,0,0,.3593.5937,1.6529,1.6529,0,0,0,.5762.3965,1.9835,1.9835,0,0,0,.7744.1436,1.8777,1.8777,0,0,0,1.0254-.2764,1.8046,1.8046,0,0,0,.6778-.792l.6845.4951a2.389,2.389,0,0,1-.9365,1.0332A2.8276,2.8276,0,0,1,392.0215,218.5263Zm0-5.6757a1.8218,1.8218,0,0,0-.72.1377,1.6128,1.6128,0,0,0-.5586.3877,1.8253,1.8253,0,0,0-.3653.59,2.0273,2.0273,0,0,0-.1328.7451v.084h3.4209v-.1318a1.885,1.885,0,0,0-.45-1.3174A1.5357,1.5357,0,0,0,392.0215,212.8506Z"/><path d="M400.0381,212.19h.9473l-2.7715,7.6328a3.4167,3.4167,0,0,1-.2159.4619.9078.9078,0,0,1-.2636.294,1.0536,1.0536,0,0,1-.3906.1553,2.8682,2.8682,0,0,1-.57.0488h-.4912v-.8526h.9717l.4678-1.3173-2.3155-6.4229h.96l1.4873,4.2041.2881,1.0059h.06l.336-1.0059Z"/><rect class="cls-3" x="455.4925" y="195.6914" width="100" height="40" rx="4"/><path d="M480.8564,218.5263a3.6061,3.6061,0,0,1-1.7392-.39,3.6874,3.6874,0,0,1-1.2246-1.0742l.7441-.624a3.2539,3.2539,0,0,0,.9844.8945,2.5346,2.5346,0,0,0,1.2715.3057,1.97,1.97,0,0,0,1.374-.4317,1.4823,1.4823,0,0,0,.4746-1.1523,1.1789,1.1789,0,0,0-.36-.9239,2.7123,2.7123,0,0,0-1.1875-.5156l-.6846-.1562a3.9792,3.9792,0,0,1-1.7578-.7979,1.9016,1.9016,0,0,1-.6065-1.5058,2.2838,2.2838,0,0,1,.2041-.9844,1.9663,1.9663,0,0,1,.57-.72,2.582,2.582,0,0,1,.876-.4385,3.98,3.98,0,0,1,1.1221-.1494,3.5186,3.5186,0,0,1,1.626.3476,3.1329,3.1329,0,0,1,1.1455,1.02l-.7559.5527a2.6044,2.6044,0,0,0-.84-.7569,2.48,2.48,0,0,0-1.2237-.2753,2.0921,2.0921,0,0,0-1.2666.3418,1.1965,1.1965,0,0,0-.4619,1.0263,1.0781,1.0781,0,0,0,.3906.9053,3.0123,3.0123,0,0,0,1.1817.4863l.6836.1563a3.55,3.55,0,0,1,1.7881.84,2.0521,2.0521,0,0,1,.5527,1.5,2.6571,2.6571,0,0,1-.1982,1.044,2.1355,2.1355,0,0,1-.57.792,2.6544,2.6544,0,0,1-.9063.5039A3.7591,3.7591,0,0,1,480.8564,218.5263Z"/><path d="M487.709,218.5263a2.7709,2.7709,0,0,1-1.1465-.2275,2.477,2.477,0,0,1-.876-.6543,2.9917,2.9917,0,0,1-.5635-1.0195,4.5948,4.5948,0,0,1,0-2.67,2.9885,2.9885,0,0,1,.5635-1.0264,2.477,2.477,0,0,1,.876-.6543,2.7869,2.7869,0,0,1,1.1465-.2275,2.6335,2.6335,0,0,1,1.1152.2275,2.4693,2.4693,0,0,1,.8408.6279,2.8024,2.8024,0,0,1,.5332.95,3.7515,3.7515,0,0,1,.1866,1.208v.4541h-4.4522v.2881a2.1233,2.1233,0,0,0,.126.7383,1.7523,1.7523,0,0,0,.36.5937,1.6488,1.6488,0,0,0,.5752.3965,1.9875,1.9875,0,0,0,.7745.1436,1.8808,1.8808,0,0,0,1.0263-.2764,1.8046,1.8046,0,0,0,.6778-.792l.6835.4951a2.3922,2.3922,0,0,1-.9355,1.0332A2.83,2.83,0,0,1,487.709,218.5263Zm0-5.6757a1.8267,1.8267,0,0,0-.7207.1377,1.61,1.61,0,0,0-.5576.3877,1.8087,1.8087,0,0,0-.3662.59,2.0459,2.0459,0,0,0-.1319.7451v.084h3.42v-.1318a1.885,1.885,0,0,0-.45-1.3174A1.535,1.535,0,0,0,487.709,212.8506Z"/><path d="M494.2734,218.5263a2.8416,2.8416,0,0,1-1.164-.2275,2.3679,2.3679,0,0,1-.87-.6484,2.87,2.87,0,0,1-.54-1.02,4.9374,4.9374,0,0,1,0-2.6884,2.8874,2.8874,0,0,1,.54-1.02,2.3679,2.3679,0,0,1,.87-.6484,2.858,2.858,0,0,1,1.164-.2275,2.4781,2.4781,0,0,1,1.4815.4023,2.4415,2.4415,0,0,1,.834,1.05l-.8037.4082a1.4567,1.4567,0,0,0-.5518-.7441,1.66,1.66,0,0,0-.96-.2647,1.9276,1.9276,0,0,0-.7568.1387,1.4779,1.4779,0,0,0-.54.3838,1.6131,1.6131,0,0,0-.3233.5879,2.4739,2.4739,0,0,0-.1084.75v1.0556a2.0029,2.0029,0,0,0,.4385,1.3379,1.5863,1.5863,0,0,0,1.29.5225,1.7419,1.7419,0,0,0,1.68-1.08l.6963.4678a2.4558,2.4558,0,0,1-.8945,1.0683A2.6148,2.6148,0,0,1,494.2734,218.5263Z"/><path d="M498.0049,218.3828V212.19h.96v1.1406h.06a1.87,1.87,0,0,1,.6006-.792,1.84,1.84,0,0,1,1.1875-.3486h.3721v.96h-.5635a2.1751,2.1751,0,0,0-1.2188.2939.8676.8676,0,0,0-.4375.7383v4.2Z"/><path d="M504.6768,218.5263a2.77,2.77,0,0,1-1.1456-.2275,2.4582,2.4582,0,0,1-.8759-.6543,2.9919,2.9919,0,0,1-.5645-1.0195,4.5948,4.5948,0,0,1,0-2.67,2.9886,2.9886,0,0,1,.5645-1.0264,2.4582,2.4582,0,0,1,.8759-.6543,2.786,2.786,0,0,1,1.1456-.2275,2.6352,2.6352,0,0,1,1.1162.2275,2.4655,2.4655,0,0,1,.84.6279,2.7894,2.7894,0,0,1,.5342.95,3.7545,3.7545,0,0,1,.1855,1.208v.4541H502.9v.2881a2.1029,2.1029,0,0,0,.1269.7383,1.75,1.75,0,0,0,.3594.5937,1.6529,1.6529,0,0,0,.5762.3965,1.9832,1.9832,0,0,0,.7744.1436,1.8777,1.8777,0,0,0,1.0254-.2764,1.8038,1.8038,0,0,0,.6777-.792l.6846.4951a2.389,2.389,0,0,1-.9365,1.0332A2.8281,2.8281,0,0,1,504.6768,218.5263Zm0-5.6757a1.8226,1.8226,0,0,0-.72.1377,1.6147,1.6147,0,0,0-.5586.3877,1.8267,1.8267,0,0,0-.3652.59,2.0253,2.0253,0,0,0-.1328.7451v.084h3.4209v-.1318a1.885,1.885,0,0,0-.45-1.3174A1.5357,1.5357,0,0,0,504.6768,212.8506Z"/><path d="M510.3047,218.3828a.9821.9821,0,0,1-.7617-.2813,1.0478,1.0478,0,0,1-.2578-.7363V213.043h-1.0206V212.19h.5762a.564.564,0,0,0,.4258-.126.6512.6512,0,0,0,.1143-.4375v-1.1523h.8642V212.19h1.3555v.8526h-1.3555v4.4882h1.26v.8516Z"/><path d="M515.9805,209.5029h.96v5.6279h.0479l.9482-1.0556,1.752-1.8848h1.164l-2.292,2.4483,2.5206,3.7441H519.917l-2.0527-3.1563-.9239.9483v2.208h-.96Z"/><path d="M524.4287,218.5263a2.7712,2.7712,0,0,1-1.1465-.2275,2.477,2.477,0,0,1-.876-.6543,2.99,2.99,0,0,1-.5634-1.0195,4.5926,4.5926,0,0,1,0-2.67,2.9867,2.9867,0,0,1,.5634-1.0264,2.477,2.477,0,0,1,.876-.6543,2.7873,2.7873,0,0,1,1.1465-.2275,2.6332,2.6332,0,0,1,1.1152.2275,2.47,2.47,0,0,1,.8409.6279,2.8058,2.8058,0,0,1,.5332.95,3.7543,3.7543,0,0,1,.1865,1.208v.4541h-4.4522v.2881a2.1233,2.1233,0,0,0,.126.7383,1.751,1.751,0,0,0,.36.5937,1.647,1.647,0,0,0,.5752.3965,1.9867,1.9867,0,0,0,.7744.1436,1.8805,1.8805,0,0,0,1.0263-.2764,1.8046,1.8046,0,0,0,.6778-.792l.6836.4951a2.3924,2.3924,0,0,1-.9356,1.0332A2.83,2.83,0,0,1,524.4287,218.5263Zm0-5.6757a1.8271,1.8271,0,0,0-.7207.1377,1.61,1.61,0,0,0-.5576.3877,1.81,1.81,0,0,0-.3662.59,2.0459,2.0459,0,0,0-.1319.7451v.084h3.42v-.1318a1.885,1.885,0,0,0-.45-1.3174A1.5352,1.5352,0,0,0,524.4287,212.8506Z"/><path d="M532.4443,212.19h.9483l-2.7715,7.6328a3.41,3.41,0,0,1-.2168.4619.8979.8979,0,0,1-.2637.294,1.0554,1.0554,0,0,1-.39.1553,2.8742,2.8742,0,0,1-.57.0488h-.4922v-.8526h.9717l.4687-1.3173-2.3164-6.4229h.96l1.4882,4.2041.2881,1.0059h.06l.3359-1.0059Z"/><rect class="cls-3" x="320.4085" y="112.6914" width="100" height="40" rx="4"/><path d="M364.1,131.2666l-1.188,1.32v2.7959h-1.0078v-8.376h1.0078v4.4522h.0361l1.2-1.4522,2.5323-3h1.2358l-3.12,3.5879,3.3364,4.7881h-1.248Z"/><path d="M371.4443,135.5263a2.77,2.77,0,0,1-1.146-.2275,2.4669,2.4669,0,0,1-.8759-.6543,2.9893,2.9893,0,0,1-.564-1.0195,4.5948,4.5948,0,0,1,0-2.67,2.9861,2.9861,0,0,1,.564-1.0264,2.4669,2.4669,0,0,1,.8759-.6543,2.7866,2.7866,0,0,1,1.146-.2275,2.6347,2.6347,0,0,1,1.1158.2275,2.4674,2.4674,0,0,1,.84.6279,2.7967,2.7967,0,0,1,.5337.95,3.7544,3.7544,0,0,1,.186,1.208v.4541H369.668v.2881a2.1142,2.1142,0,0,0,.1264.7383,1.75,1.75,0,0,0,.36.5937,1.6508,1.6508,0,0,0,.5757.3965,1.9849,1.9849,0,0,0,.7744.1436,1.8794,1.8794,0,0,0,1.0259-.2764,1.8038,1.8038,0,0,0,.6777-.792l.6841.4951a2.3909,2.3909,0,0,1-.936,1.0332A2.8294,2.8294,0,0,1,371.4443,135.5263Zm0-5.6757a1.8246,1.8246,0,0,0-.72.1377,1.6127,1.6127,0,0,0-.5581.3877,1.8194,1.8194,0,0,0-.3657.59,2.0355,2.0355,0,0,0-.1323.7451v.084h3.42v-.1318a1.885,1.885,0,0,0-.45-1.3174A1.5356,1.5356,0,0,0,371.4443,129.8506Z"/><path d="M379.46,129.19h.9482l-2.7715,7.6328a3.3982,3.3982,0,0,1-.2168.4619.8968.8968,0,0,1-.2637.294,1.054,1.054,0,0,1-.39.1553,2.8735,2.8735,0,0,1-.57.0488h-.4922v-.8526h.9717l.4687-1.3173-2.3164-6.4229h.96l1.4883,4.2041.2881,1.0059h.06l.336-1.0059Z"/><rect class="cls-4" x="455.4925" y="112.6914" width="100" height="40" rx="4"/><path d="M481.709,135.5263a3.0272,3.0272,0,0,1-2.4834-1.0859,4.9481,4.9481,0,0,1-.8887-3.1973,5.1605,5.1605,0,0,1,.8887-3.246,2.9749,2.9749,0,0,1,2.4834-1.1338,2.93,2.93,0,0,1,2.8808,1.8232l-.8164.4922a2.3211,2.3211,0,0,0-.7685-1.0381,2.0877,2.0877,0,0,0-1.2959-.39,2.2135,2.2135,0,0,0-.9658.2041,1.9965,1.9965,0,0,0-.72.5849,2.7182,2.7182,0,0,0-.45.9024,4.1323,4.1323,0,0,0-.1562,1.1748v1.2519a3.1267,3.1267,0,0,0,.6006,2.0352,2.0585,2.0585,0,0,0,1.6914.7344,2.144,2.144,0,0,0,1.3447-.4141,2.3886,2.3886,0,0,0,.792-1.0977l.8037.5039a3.2236,3.2236,0,0,1-1.14,1.3916A3.1359,3.1359,0,0,1,481.709,135.5263Z"/><path d="M488.4414,135.5263a2.7712,2.7712,0,0,1-1.1465-.2275,2.477,2.477,0,0,1-.876-.6543,2.99,2.99,0,0,1-.5634-1.0195,4.5926,4.5926,0,0,1,0-2.67,2.9867,2.9867,0,0,1,.5634-1.0264,2.477,2.477,0,0,1,.876-.6543,2.7873,2.7873,0,0,1,1.1465-.2275,2.6335,2.6335,0,0,1,1.1152.2275,2.47,2.47,0,0,1,.8409.6279,2.8058,2.8058,0,0,1,.5332.95,3.7543,3.7543,0,0,1,.1865,1.208v.4541H486.665v.2881a2.1233,2.1233,0,0,0,.126.7383,1.751,1.751,0,0,0,.36.5937,1.647,1.647,0,0,0,.5752.3965,1.9867,1.9867,0,0,0,.7744.1436,1.8805,1.8805,0,0,0,1.0263-.2764,1.8046,1.8046,0,0,0,.6778-.792l.6836.4951a2.3924,2.3924,0,0,1-.9356,1.0332A2.83,2.83,0,0,1,488.4414,135.5263Zm0-5.6757a1.8271,1.8271,0,0,0-.7207.1377,1.61,1.61,0,0,0-.5576.3877,1.81,1.81,0,0,0-.3662.59,2.0459,2.0459,0,0,0-.1319.7451v.084h3.42v-.1318a1.885,1.885,0,0,0-.45-1.3174A1.5352,1.5352,0,0,0,488.4414,129.8506Z"/><path d="M492.7012,135.3828V129.19h.96v1.1406h.0606A1.7818,1.7818,0,0,1,495.51,129.19h.372v.96h-.5644a2.1715,2.1715,0,0,0-1.2178.2939.8685.8685,0,0,0-.4385.7383v4.2Z"/><path d="M498.5215,135.3828a.9831.9831,0,0,1-.7627-.2813,1.0478,1.0478,0,0,1-.2578-.7363V130.043h-1.02V129.19h.5752a.5666.5666,0,0,0,.4268-.126.6573.6573,0,0,0,.1133-.4375v-1.1523h.8642V129.19h1.3565v.8526h-1.3565v4.4882h1.26v.8516Z"/><path d="M501.8447,127.7392a.59.59,0,0,1-.45-.15.5521.5521,0,0,1-.1377-.39v-.1562a.5565.5565,0,0,1,.1377-.3907.753.753,0,0,1,.9,0,.5565.5565,0,0,1,.1377.3907v.1562a.5521.5521,0,0,1-.1377.39A.5882.5882,0,0,1,501.8447,127.7392Zm-.4795,1.4512h.96v6.1924h-.96Z"/><path d="M504.7012,130.043h-1.0078V129.19h1.0078v-1.248a1.5575,1.5575,0,0,1,.3359-1.044,1.2626,1.2626,0,0,1,1.0195-.3955h.9366v.8516h-1.3321V129.19h3.4678v6.1924h-.96v-5.34h-2.5078v5.34h-.96Zm3.9482-2.3038a.5867.5867,0,0,1-.45-.15.5482.5482,0,0,1-.1387-.39v-.1562a.5526.5526,0,0,1,.1387-.3907.7515.7515,0,0,1,.8994,0,.5571.5571,0,0,1,.1387.3907v.1562a.5527.5527,0,0,1-.1387.39A.5872.5872,0,0,1,508.6494,127.7392Z"/><path d="M513.4727,135.5263a2.8451,2.8451,0,0,1-1.1641-.2275,2.3844,2.3844,0,0,1-.87-.6484,2.8718,2.8718,0,0,1-.54-1.02,4.963,4.963,0,0,1,0-2.6884,2.889,2.889,0,0,1,.54-1.02,2.3844,2.3844,0,0,1,.87-.6484,2.8615,2.8615,0,0,1,1.1641-.2275,2.4792,2.4792,0,0,1,1.4824.4023,2.45,2.45,0,0,1,.834,1.05l-.8047.4082a1.4567,1.4567,0,0,0-.5518-.7441,1.6572,1.6572,0,0,0-.96-.2647,1.9192,1.9192,0,0,0-.7559.1387,1.47,1.47,0,0,0-.54.3838,1.6149,1.6149,0,0,0-.3243.5879,2.4743,2.4743,0,0,0-.1074.75v1.0556a2.0076,2.0076,0,0,0,.4375,1.3379,1.5864,1.5864,0,0,0,1.29.5225,1.7409,1.7409,0,0,0,1.68-1.08l.6963.4678a2.46,2.46,0,0,1-.8935,1.0683A2.62,2.62,0,0,1,513.4727,135.5263Z"/><path d="M521.7051,135.3828a.9415.9415,0,0,1-.7744-.2881,1.4259,1.4259,0,0,1-.294-.72h-.06a1.61,1.61,0,0,1-.6718.8642,2.0956,2.0956,0,0,1-1.1162.2871,2.1721,2.1721,0,0,1-1.53-.5039,1.7684,1.7684,0,0,1-.5459-1.3671,1.5646,1.5646,0,0,1,.6416-1.3448,3.4174,3.4174,0,0,1,1.998-.4677h1.2246v-.6123a1.3387,1.3387,0,0,0-.36-1.0079,1.5389,1.5389,0,0,0-1.1035-.3476,1.6619,1.6619,0,0,0-.9424.2519,2.0726,2.0726,0,0,0-.63.6719l-.5762-.54a2.188,2.188,0,0,1,.8038-.8584,2.9985,2.9985,0,0,1,3.1445.1972,1.9372,1.9372,0,0,1,.624,1.5323v3.4013h.708v.8516Zm-2.7608-.6719a2.4558,2.4558,0,0,0,.66-.084,1.6054,1.6054,0,0,0,.5166-.24,1.1819,1.1819,0,0,0,.3359-.36.8558.8558,0,0,0,.12-.4433v-1.02h-1.2724a2.321,2.321,0,0,0-1.2061.24.7761.7761,0,0,0-.3779.6963v.252a.8406.8406,0,0,0,.33.708A1.437,1.437,0,0,0,518.9443,134.7109Z"/><path d="M524.9805,135.3828a.982.982,0,0,1-.7617-.2813,1.0479,1.0479,0,0,1-.2579-.7363V130.043H522.94V129.19h.5762a.564.564,0,0,0,.4258-.126.6512.6512,0,0,0,.1142-.4375v-1.1523h.8643V129.19h1.3555v.8526h-1.3555v4.4882h1.26v.8516Z"/><path d="M530.1045,135.5263a2.7694,2.7694,0,0,1-1.1455-.2275,2.4594,2.4594,0,0,1-.876-.6543,2.9917,2.9917,0,0,1-.5644-1.0195,4.5926,4.5926,0,0,1,0-2.67,2.9885,2.9885,0,0,1,.5644-1.0264,2.4594,2.4594,0,0,1,.876-.6543,2.7855,2.7855,0,0,1,1.1455-.2275,2.6349,2.6349,0,0,1,1.1162.2275,2.4655,2.4655,0,0,1,.84.6279,2.7877,2.7877,0,0,1,.5342.95,3.7517,3.7517,0,0,1,.1856,1.208v.4541h-4.4522v.2881a2.1006,2.1006,0,0,0,.127.7383,1.7487,1.7487,0,0,0,.3594.5937,1.6516,1.6516,0,0,0,.5761.3965,1.9839,1.9839,0,0,0,.7744.1436,1.8777,1.8777,0,0,0,1.0254-.2764,1.8046,1.8046,0,0,0,.6778-.792l.6845.4951a2.389,2.389,0,0,1-.9365,1.0332A2.8276,2.8276,0,0,1,530.1045,135.5263Zm0-5.6757a1.8218,1.8218,0,0,0-.72.1377,1.6128,1.6128,0,0,0-.5586.3877,1.8253,1.8253,0,0,0-.3653.59,2.0273,2.0273,0,0,0-.1328.7451v.084h3.4209v-.1318a1.885,1.885,0,0,0-.45-1.3174A1.5357,1.5357,0,0,0,530.1045,129.8506Z"/><line class="cls-5" x1="235.5" y1="91.6914" x2="505.5" y2="91.6914"/><line class="cls-5" x1="235.3245" y1="91.6914" x2="235.3245" y2="111.1914"/><line class="cls-5" x1="505.4925" y1="91.6914" x2="505.4925" y2="111.1914"/><path d="M15.13,17.7832a4.5721,4.5721,0,0,1-1.75-.3218,3.481,3.481,0,0,1-1.3369-.9663,4.59,4.59,0,0,1-.8609-1.582,7.0015,7.0015,0,0,1-.3081-2.1841,7.0206,7.0206,0,0,1,.3081-2.1768,4.5831,4.5831,0,0,1,.8609-1.5888A3.4862,3.4862,0,0,1,13.38,7.9971a4.9193,4.9193,0,0,1,3.5,0,3.5452,3.5452,0,0,1,1.3442.9663,4.4414,4.4414,0,0,1,.8608,1.5888,7.1758,7.1758,0,0,1,.3013,2.1768,7.1562,7.1562,0,0,1-.3013,2.1841,4.447,4.447,0,0,1-.8608,1.582,3.54,3.54,0,0,1-1.3442.9663A4.5711,4.5711,0,0,1,15.13,17.7832Zm0-1.6382a2.1279,2.1279,0,0,0,1.6733-.7,2.8491,2.8491,0,0,0,.6226-1.96V11.9731a2.849,2.849,0,0,0-.6226-1.96,2.13,2.13,0,0,0-1.6733-.7,2.1288,2.1288,0,0,0-1.6729.7,2.8472,2.8472,0,0,0-.623,1.96v1.5122a2.8473,2.8473,0,0,0,.623,1.96A2.1272,2.1272,0,0,0,15.13,16.145Z"/><path d="M21.15,7.2554h1.792v4.2558h.0556A1.8415,1.8415,0,0,1,23.74,10.51a2.215,2.215,0,0,1,1.274-.3711,2.4984,2.4984,0,0,1,2.1352.9873,4.659,4.659,0,0,1,.7349,2.8208,4.7191,4.7191,0,0,1-.7349,2.8418,2.4911,2.4911,0,0,1-2.1352.9942,2.1511,2.1511,0,0,1-1.2671-.3779,1.9554,1.9554,0,0,1-.7491-1.0079h-.0556v1.2178H21.15Zm3.29,9.0439a1.4859,1.4859,0,0,0,1.1338-.4619,1.7474,1.7474,0,0,0,.4341-1.2461v-1.26a1.7737,1.7737,0,0,0-.4341-1.2529,1.4739,1.4739,0,0,0-1.1338-.4687,1.7309,1.7309,0,0,0-1.0713.3217,1.0178,1.0178,0,0,0-.4267.854v2.3243a1.0208,1.0208,0,0,0,.4267.8818A1.7822,1.7822,0,0,0,24.44,16.2993Z"/><path d="M29.55,10.3071h1.792v8.19a2.0136,2.0136,0,0,1-.4619,1.4213,1.9243,1.9243,0,0,1-1.47.4966h-.98V18.9731h1.12Zm.896-1.064a1.0875,1.0875,0,0,1-.8052-.2519.8849.8849,0,0,1-.2451-.6441v-.28a.8849.8849,0,0,1,.2451-.6441,1.401,1.401,0,0,1,1.603,0,.8724.8724,0,0,1,.252.6441v.28a.8724.8724,0,0,1-.252.6441A1.0909,1.0909,0,0,1,30.4463,9.2431Z"/><path d="M36.3682,17.7832a3.6452,3.6452,0,0,1-1.4493-.273,2.9964,2.9964,0,0,1-1.0781-.77,3.4321,3.4321,0,0,1-.6787-1.2041,5.426,5.426,0,0,1-.0073-3.1567,3.4408,3.4408,0,0,1,.665-1.1973,2.9509,2.9509,0,0,1,1.064-.77,3.5655,3.5655,0,0,1,1.4282-.273,3.4817,3.4817,0,0,1,1.4839.294,2.862,2.862,0,0,1,1.0361.7983,3.4449,3.4449,0,0,1,.6089,1.169,4.8433,4.8433,0,0,1,.2031,1.4209v.5879H34.7861V14.59a1.7877,1.7877,0,0,0,.4478,1.272,1.7338,1.7338,0,0,0,1.33.4795,1.9853,1.9853,0,0,0,1.0991-.2778,3.13,3.13,0,0,0,.7627-.709l.9663,1.081a3.0051,3.0051,0,0,1-1.2251.99A4.2637,4.2637,0,0,1,36.3682,17.7832Zm-.0284-6.3a1.4347,1.4347,0,0,0-1.1337.4761,1.7908,1.7908,0,0,0-.42,1.2319v.1118h2.9956v-.126a1.9187,1.9187,0,0,0-.3706-1.2251A1.2856,1.2856,0,0,0,36.34,11.4834Z"/><path d="M44.11,17.7832a3.68,3.68,0,0,1-1.4419-.2661,2.7819,2.7819,0,0,1-1.0572-.77,3.46,3.46,0,0,1-.6508-1.211,5.2434,5.2434,0,0,1-.2242-1.5889,5.1775,5.1775,0,0,1,.2242-1.582,3.3929,3.3929,0,0,1,.6508-1.1968,2.8117,2.8117,0,0,1,1.0572-.7631,3.678,3.678,0,0,1,1.4419-.2662,3.182,3.182,0,0,1,1.8271.49,2.7513,2.7513,0,0,1,1.043,1.3579l-1.47.6577a1.5252,1.5252,0,0,0-.4688-.7627,1.3626,1.3626,0,0,0-.9311-.3013,1.3413,1.3413,0,0,0-1.127.4761,1.9693,1.9693,0,0,0-.3711,1.2461v1.33a1.9381,1.9381,0,0,0,.3711,1.2388,1.3485,1.3485,0,0,0,1.127.4692,1.3973,1.3973,0,0,0,.9941-.3291,2.26,2.26,0,0,0,.5459-.8189l1.3721.6578A2.871,2.871,0,0,1,45.916,17.3,3.2423,3.2423,0,0,1,44.11,17.7832Z"/><path d="M50.69,17.6152a1.91,1.91,0,0,1-1.4068-.4814,1.8586,1.8586,0,0,1-.4829-1.376V11.749H47.7217V10.3071h.56a.6679.6679,0,0,0,.5528-.189.9133.9133,0,0,0,.1469-.5668V8.3052h1.61v2.0019h1.4976V11.749H50.5918v4.4243h1.3857v1.4419Z"/><path d="M59.8315,17.7832a3.68,3.68,0,0,1-1.4419-.2661,2.7824,2.7824,0,0,1-1.0571-.77,3.4615,3.4615,0,0,1-.6509-1.211,5.2466,5.2466,0,0,1-.2241-1.5889,5.1807,5.1807,0,0,1,.2241-1.582,3.3947,3.3947,0,0,1,.6509-1.1968,2.8121,2.8121,0,0,1,1.0571-.7631,3.6784,3.6784,0,0,1,1.4419-.2662,3.1826,3.1826,0,0,1,1.8272.49,2.7513,2.7513,0,0,1,1.043,1.3579l-1.47.6577a1.5243,1.5243,0,0,0-.4687-.7627,1.3629,1.3629,0,0,0-.9312-.3013,1.3411,1.3411,0,0,0-1.1269.4761,1.9687,1.9687,0,0,0-.3711,1.2461v1.33a1.9375,1.9375,0,0,0,.3711,1.2388,1.3483,1.3483,0,0,0,1.1269.4692,1.3976,1.3976,0,0,0,.9942-.3291,2.26,2.26,0,0,0,.5459-.8189l1.3721.6578A2.871,2.871,0,0,1,61.6377,17.3,3.2425,3.2425,0,0,1,59.8315,17.7832Z"/><path d="M65.9214,17.6152a1.7823,1.7823,0,0,1-1.3579-.4619,1.828,1.828,0,0,1-.4341-1.3022V7.2554h1.792v8.9179h.9658v1.4419Z"/><path d="M73.6216,17.6152a1.2582,1.2582,0,0,1-.9312-.3428,1.5731,1.5731,0,0,1-.4267-.9169H72.18a1.7171,1.7171,0,0,1-.7422,1.0708,2.5321,2.5321,0,0,1-1.3862.3569,2.3666,2.3666,0,0,1-1.7217-.586,2.0814,2.0814,0,0,1-.6021-1.5634,1.8925,1.8925,0,0,1,.8121-1.6812,4.0888,4.0888,0,0,1,2.31-.5513h1.2461v-.5322a1.3206,1.3206,0,0,0-.3223-.9521,1.3839,1.3839,0,0,0-1.0361-.336,1.7191,1.7191,0,0,0-1.0146.273,2.6939,2.6939,0,0,0-.6514.6514l-1.064-.9581a3.09,3.09,0,0,1,1.0781-1.0205,3.5448,3.5448,0,0,1,1.7779-.3877,3.3426,3.3426,0,0,1,2.2544.6705,2.4194,2.4194,0,0,1,.77,1.9277v3.436h.7275v1.4419Zm-2.9683-1.1338a1.8848,1.8848,0,0,0,1.022-.2641.8626.8626,0,0,0,.42-.7788v-.96H70.9473q-1.4,0-1.4.89v.2364a.7719.7719,0,0,0,.2871.66A1.3413,1.3413,0,0,0,70.6533,16.4814Z"/><path d="M78.4653,17.7832a3.9245,3.9245,0,0,1-1.7641-.3569,4.0609,4.0609,0,0,1-1.26-.9869l1.0923-1.0644a3.296,3.296,0,0,0,.8892.728,2.2639,2.2639,0,0,0,1.1128.2661,1.5253,1.5253,0,0,0,.9311-.2241.7384.7384,0,0,0,.2866-.6157.6649.6649,0,0,0-.2026-.5113,1.2932,1.2932,0,0,0-.6934-.2587l-.7275-.0982a3.4672,3.4672,0,0,1-1.8135-.6787,1.8934,1.8934,0,0,1-.6225-1.5332,2.27,2.27,0,0,1,.1958-.959,2.03,2.03,0,0,1,.56-.728,2.5647,2.5647,0,0,1,.875-.4619,3.7821,3.7821,0,0,1,1.1411-.1612,5.1967,5.1967,0,0,1,.9449.0772,3.4307,3.4307,0,0,1,.749.2241,2.8917,2.8917,0,0,1,.6162.3638,5.9019,5.9019,0,0,1,.5459.4829l-1.05,1.05a2.7714,2.7714,0,0,0-.77-.56,2.1593,2.1593,0,0,0-.98-.2241,1.3485,1.3485,0,0,0-.8467.21.67.67,0,0,0-.2593.5459.6927.6927,0,0,0,.2173.5532,1.5029,1.5029,0,0,0,.7349.2729l.7422.0982q2.3657.3354,2.3657,2.1557a2.1755,2.1755,0,0,1-.2168.9732,2.22,2.22,0,0,1-.6094.7558,2.8751,2.8751,0,0,1-.9448.49A4.1113,4.1113,0,0,1,78.4653,17.7832Z"/><path d="M85.3535,17.7832a3.9245,3.9245,0,0,1-1.7641-.3569,4.0609,4.0609,0,0,1-1.26-.9869l1.0923-1.0644a3.2971,3.2971,0,0,0,.8891.728,2.2645,2.2645,0,0,0,1.1128.2661,1.5256,1.5256,0,0,0,.9312-.2241.7384.7384,0,0,0,.2866-.6157.6649.6649,0,0,0-.2026-.5113,1.2936,1.2936,0,0,0-.6934-.2587l-.7275-.0982a3.4672,3.4672,0,0,1-1.8135-.6787,1.8935,1.8935,0,0,1-.6226-1.5332,2.2713,2.2713,0,0,1,.1958-.959,2.0318,2.0318,0,0,1,.56-.728,2.5647,2.5647,0,0,1,.875-.4619,3.7816,3.7816,0,0,1,1.1411-.1612,5.1956,5.1956,0,0,1,.9448.0772,3.4316,3.4316,0,0,1,.7491.2241,2.8917,2.8917,0,0,1,.6162.3638,5.9149,5.9149,0,0,1,.5459.4829l-1.05,1.05a2.7729,2.7729,0,0,0-.77-.56,2.1593,2.1593,0,0,0-.98-.2241,1.3485,1.3485,0,0,0-.8467.21.67.67,0,0,0-.2593.5459.6927.6927,0,0,0,.2173.5532,1.5025,1.5025,0,0,0,.7349.2729l.7422.0982q2.3657.3354,2.3657,2.1557a2.1755,2.1755,0,0,1-.2168.9732,2.2212,2.2212,0,0,1-.6094.7558,2.8761,2.8761,0,0,1-.9448.49A4.1118,4.1118,0,0,1,85.3535,17.7832Z"/><path d="M92.8994,17.7832A3.6443,3.6443,0,0,1,91.45,17.51a2.9955,2.9955,0,0,1-1.0781-.77,3.4305,3.4305,0,0,1-.6787-1.2041,5.4271,5.4271,0,0,1-.0074-3.1567,3.4394,3.4394,0,0,1,.6651-1.1973,2.95,2.95,0,0,1,1.0639-.77,3.566,3.566,0,0,1,1.4283-.273,3.4812,3.4812,0,0,1,1.4838.294,2.8615,2.8615,0,0,1,1.0362.7983,3.4467,3.4467,0,0,1,.6089,1.169,4.8466,4.8466,0,0,1,.2031,1.4209v.5879H91.3174V14.59a1.7877,1.7877,0,0,0,.4477,1.272,1.734,1.734,0,0,0,1.33.4795,1.9849,1.9849,0,0,0,1.0991-.2778,3.1287,3.1287,0,0,0,.7627-.709l.9663,1.081a3.0051,3.0051,0,0,1-1.2251.99A4.263,4.263,0,0,1,92.8994,17.7832Zm-.0283-6.3a1.4349,1.4349,0,0,0-1.1338.4761,1.7908,1.7908,0,0,0-.42,1.2319v.1118H94.313v-.126a1.9187,1.9187,0,0,0-.3706-1.2251A1.2858,1.2858,0,0,0,92.8711,11.4834Z"/><path d="M100.1514,17.7832a3.9252,3.9252,0,0,1-1.7642-.3569,4.0594,4.0594,0,0,1-1.26-.9869l1.0922-1.0644a3.296,3.296,0,0,0,.8892.728,2.2645,2.2645,0,0,0,1.1128.2661,1.5253,1.5253,0,0,0,.9311-.2241.7382.7382,0,0,0,.2867-.6157.6646.6646,0,0,0-.2027-.5113,1.2932,1.2932,0,0,0-.6933-.2587l-.7276-.0982a3.4671,3.4671,0,0,1-1.8134-.6787,1.8932,1.8932,0,0,1-.6226-1.5332,2.27,2.27,0,0,1,.1958-.959,2.0318,2.0318,0,0,1,.56-.728A2.5629,2.5629,0,0,1,99.01,10.3a3.7816,3.7816,0,0,1,1.1411-.1612,5.1956,5.1956,0,0,1,.9448.0772,3.429,3.429,0,0,1,.749.2241,2.8917,2.8917,0,0,1,.6162.3638,5.9019,5.9019,0,0,1,.5459.4829l-1.05,1.05a2.7714,2.7714,0,0,0-.77-.56,2.159,2.159,0,0,0-.98-.2241,1.348,1.348,0,0,0-.8466.21.67.67,0,0,0-.2593.5459.6924.6924,0,0,0,.2173.5532,1.502,1.502,0,0,0,.7348.2729l.7422.0982q2.3658.3354,2.3657,2.1557a2.1742,2.1742,0,0,1-.2168.9732,2.2209,2.2209,0,0,1-.6093.7558,2.8766,2.8766,0,0,1-.9449.49A4.1106,4.1106,0,0,1,100.1514,17.7832Z"/><line class="cls-5" x1="370.7" y1="71.3728" x2="370.7" y2="111.6914"/><line class="cls-5" x1="235.5" y1="175.6914" x2="505.5" y2="175.6914"/><line class="cls-5" x1="235.3245" y1="175.6914" x2="235.3245" y2="195.1914"/><line class="cls-5" x1="505.4925" y1="175.6914" x2="505.4925" y2="195.1914"/><line class="cls-5" x1="370.7" y1="154.3728" x2="370.7" y2="194.6914"/></svg>