<svg xmlns="http://www.w3.org/2000/svg" width="1056" height="1120" viewBox="0 0 1056 1120">
    <defs>
        <style>.cls-1,.cls-5{fill:none;}.cls-1,.cls-10,.cls-11,.cls-16,.cls-2,.cls-3,.cls-4,.cls-5,.cls-6,.cls-7,.cls-8,.cls-9{stroke:#000;}.cls-1,.cls-11,.cls-8{stroke-miterlimit:10;}.cls-1{stroke-width:2px;}.cls-2{fill:#f2f4f8;}.cls-10,.cls-16,.cls-2,.cls-3,.cls-4,.cls-5,.cls-6,.cls-7,.cls-9{stroke-linejoin:round;}.cls-3{fill:#e3f6ff;}.cls-4{fill:#f7f1ff;}.cls-5{stroke-linecap:round;}.cls-6{fill:#dbfbfb;}.cls-7{fill:#87eded;}.cls-10,.cls-8{fill:#dde1e6;}.cls-9{fill:#b3e6ff;}.cls-11,.cls-12,.cls-16{fill:#fff;}.cls-13,.cls-15{font-size:16px;}.cls-13,.cls-14{font-family:IBMPlexSans-SemiBold, IBM Plex Sans;font-weight:600;}.cls-14{font-size:18px;}.cls-15{font-family:IBMPlexSans-Medium, IBM Plex Sans;font-weight:500;}.cls-17{font-size:14px;font-family:IBMPlexSans, IBM Plex Sans;}</style>
    </defs>
    <g id="Layer_1" data-name="Layer 1">
        <line class="cls-1" x1="983" y1="554.3038" x2="53.7348" y2="554.3038" />
        <rect class="cls-2" x="411.7752" y="583.0017" width="508.3628" height="479.6649" />
        <rect class="cls-3" x="437.0567" y="646.547" width="459.1664" height="148.9558" />
        <rect class="cls-4" x="437.0567" y="822.3216" width="215.9175" height="216.6008" />
        <rect class="cls-2" x="169.2096" y="582.3184" width="195.419" height="211.8178" />
        <line class="cls-5" x1="545.0154" y1="146.5897" x2="545.0154" y2="177.6087" />
        <polygon points="542.024 147.465 545.015 142.284 548.007 147.465 542.024 147.465" />
        <polygon points="542.024 176.733 545.015 181.914 548.007 176.733 542.024 176.733" />
        <line class="cls-5" x1="368.9344" y1="688.9106" x2="431.3844" y2="688.9106" />
        <polygon points="369.81 691.902 364.629 688.911 369.81 685.919 369.81 691.902" />
        <polygon points="430.509 691.902 435.69 688.911 430.509 685.919 430.509 691.902" />
        <line class="cls-5" x1="557.3145" y1="776.5769" x2="557.3145" y2="818.5284" />
        <polygon points="554.323 777.452 557.315 772.271 560.306 777.452 554.323 777.452" />
        <polygon points="554.323 817.653 557.315 822.834 560.306 817.653 554.323 817.653" />
        <line class="cls-5" x1="786.8977" y1="776.5769" x2="786.8977" y2="818.5284" />
        <polygon points="783.906 777.452 786.898 772.271 789.89 777.452 783.906 777.452" />
        <polygon points="783.906 817.653 786.898 822.834 789.89 817.653 783.906 817.653" />
        <rect class="cls-6" x="169.2096" y="183.281" width="750.245" height="333.4422" />
        <rect class="cls-7" x="417.2409" y="249.5592" width="255.5485" height="218.6506" transform="translate(903.8996 -186.1307) rotate(90)" />
        <rect class="cls-7" x="173.9921" y="249.5592" width="255.5485" height="218.6506" transform="translate(660.6508 57.1182) rotate(90)" />
        <rect class="cls-7" x="659.1231" y="249.5592" width="255.5487" height="218.6506" transform="translate(1145.7818 -428.0129) rotate(90)" />
        <rect class="cls-8" x="698.7542" y="274.8409" width="177.6536" height="188.5862" />
        <polygon class="cls-9" points="461.655 771.363 461.883 717.608 652.975 718.041 652.747 771.795 461.655 771.363" />
        <polygon class="cls-9" points="678.938 771.839 679.166 718.084 870.258 718.516 870.03 772.271 678.938 771.839" />
        <rect class="cls-10" x="679.6219" y="821.9798" width="215.9177" height="217.2845" transform="translate(1718.2027 143.0412) rotate(90)" />
        <line class="cls-5" x1="719.6192" y1="940.5298" x2="719.6192" y2="892.2113" />
        <line class="cls-5" x1="856.2494" y1="940.5298" x2="856.2494" y2="891.7038" />
        <path class="cls-11" d="M856.2229,940.2538c0,4.0436-31.0229,7.9128-68.6,7.9128s-68.03-3.8642-68.03-7.9078" />
        <rect class="cls-12" x="720.6175" y="891.9451" width="134.5807" height="48.5847" />
        <ellipse class="cls-11" cx="787.9078" cy="891.5986" rx="68.3151" ry="4.9274" />
        <line class="cls-5" x1="719.6192" y1="1014.3244" x2="719.6192" y2="966.0058" />
        <line class="cls-5" x1="856.2494" y1="1014.3244" x2="856.2494" y2="965.4984" />
        <path class="cls-11" d="M856.2229,1014.0484c0,4.0436-31.0229,7.9128-68.6,7.9128s-68.03-3.8642-68.03-7.9078" />
        <rect class="cls-12" x="720.6175" y="965.7397" width="134.5807" height="48.5847" />
        <ellipse class="cls-11" cx="787.9078" cy="965.3932" rx="68.3151" ry="4.9274" />
        <line class="cls-5" x1="720.804" y1="366.2734" x2="720.804" y2="317.9549" />
        <line class="cls-5" x1="857.4342" y1="366.2734" x2="857.4342" y2="317.4474" />
        <path class="cls-11" d="M857.4077,365.9974c0,4.0436-31.0229,7.9128-68.6,7.9128s-68.03-3.8642-68.03-7.9078" />
        <rect class="cls-12" x="721.8023" y="317.6887" width="134.5807" height="48.5847" />
        <ellipse class="cls-11" cx="789.0927" cy="317.3422" rx="68.3151" ry="4.9274" />
        <line class="cls-5" x1="720.804" y1="438.7015" x2="720.804" y2="390.3829" />
        <line class="cls-5" x1="857.4342" y1="438.7015" x2="857.4342" y2="389.8754" />
        <path class="cls-11" d="M857.4077,438.4254c0,4.0436-31.0229,7.9129-68.6,7.9129s-68.03-3.8643-68.03-7.9079" />
        <rect class="cls-12" x="721.8023" y="390.1167" width="134.5807" height="48.5847" />
        <ellipse class="cls-11" cx="789.0927" cy="389.7702" rx="68.3151" ry="4.9274" />
        <line class="cls-5" x1="555.948" y1="493.6976" x2="555.948" y2="711.9361" />
        <polygon points="552.956 494.573 555.948 489.392 558.94 494.573 552.956 494.573" />
        <polygon points="552.956 711.061 555.948 716.242 558.94 711.061 552.956 711.061" />
        <line class="cls-5" x1="293.5672" y1="493.6976" x2="293.5672" y2="578.0127" />
        <polygon points="290.575 494.573 293.567 489.392 296.559 494.573 290.575 494.573" />
        <polygon points="290.575 577.137 293.567 582.318 296.559 577.137 290.575 577.137" />
        <line class="cls-5" x1="786.8977" y1="493.6976" x2="786.8977" y2="711.9362" />
        <polygon points="783.906 494.573 786.898 489.392 789.89 494.573 783.906 494.573" />
        <polygon points="783.906 711.061 786.898 716.242 789.89 711.061 783.906 711.061" />
    </g>
    <g id="Text">
        <text class="cls-13" transform="translate(63.21 595.3687)">IBM Cloud</text>
        <text class="cls-14" transform="translate(39.8115 44.5694)">Performing cryptographic operations with PKCS #11 API </text>
        <text class="cls-13" transform="translate(614.8135 609.8428)">
            Hyper Protect
            <tspan x="-4.6563" y="19.2002">Crypto Services</tspan>
        </text>
        <text class="cls-15" transform="translate(459.1826 676.2808)">
            GREP11
            <tspan x="0" y="19.2002">(gRPC)</tspan>
        </text>
        <text class="cls-15" transform="translate(503.7744 931.8287)">Cloud HSM</text>
        <text class="cls-15" transform="translate(198.2295 677.2574)">
            Cloud Identity and
            <tspan x="-7.4326" y="19.2002">Access Management </tspan>
            <tspan x="49.3828" y="38.4004">(IAM)</tspan>
        </text>
        <rect class="cls-16" x="518.3674" y="4.9441" width="54.6626" height="217.2841" transform="translate(659.2846 -432.1126) rotate(90)" />
        <text class="cls-15" transform="translate(461.8643 118.9864)">PKCS #11 applications</text>
        <text class="cls-15" transform="translate(485.626 211.9126)">PKCS #11 library</text>
        <text class="cls-15" transform="translate(232.8369 349.6187)">
            Users and sessions
            <tspan x="-3.3125" y="19.2002">(IAM bearer tokens)</tspan>
        </text>
        <text class="cls-15" transform="translate(519.9248 359.4585)">Crypto</text>
        <text class="cls-17" transform="matrix(1, 0.0031, -0.0031, 1, 511.736, 749.8319)">Crypto service</text>
        <text class="cls-15" transform="translate(748.1807 258.376)">Key objects</text>
        <text class="cls-17" transform="matrix(1, 0.0031, -0.0031, 1, 722.249, 750.4063)">Keystore service</text>
        <text class="cls-17" transform="translate(721.4102 298.0064)">In-memory keystores</text>
        <text class="cls-15" transform="translate(722.8184 850.0992)">
            Database-backed
            <tspan x="28.8877" y="19.2002">keystores</tspan>
        </text>
        <text class="cls-17" transform="translate(748.6426 990.856)">
            Private token
            <tspan x="-6.8467" y="16.7998">object keystore</tspan>
        </text>
        <text class="cls-17" transform="translate(747.1318 341.2984)">
            Public session
            <tspan x="-3.6055" y="16.7998">object keystore</tspan>
        </text>
        <text class="cls-17" transform="translate(744.542 413.7261)">
            Private session
            <tspan x="-1.0156" y="16.7998">object keystore</tspan>
        </text>
        <text class="cls-17" transform="translate(750.4111 916.9214)">
            Public token
            <tspan x="-9.4365" y="16.7998">object keystore</tspan>
        </text>
    </g>
</svg>