<svg xmlns="http://www.w3.org/2000/svg" width="1056" height="520" viewBox="0 0 1056 520"><defs><style>.cls-1,.cls-8{fill:#f2f4f8;}.cls-1,.cls-10,.cls-11,.cls-12,.cls-2,.cls-3,.cls-4,.cls-5,.cls-7,.cls-8,.cls-9{stroke:#000;}.cls-1,.cls-10,.cls-11,.cls-12,.cls-15,.cls-17,.cls-2,.cls-5,.cls-7{stroke-linejoin:round;}.cls-15,.cls-17,.cls-2,.cls-9{fill:none;}.cls-10,.cls-11,.cls-15,.cls-2,.cls-7{stroke-linecap:round;}.cls-3,.cls-5{fill:#b3e6ff;}.cls-3,.cls-4,.cls-8,.cls-9{stroke-miterlimit:10;}.cls-4{fill:#e3f6ff;}.cls-6,.cls-7{fill:#e6d6ff;}.cls-10{fill:#fff;}.cls-11,.cls-12{fill:#87eded;}.cls-13{font-size:16px;}.cls-13,.cls-14{font-family:IBMPlexSans-SemiBold, IBM Plex Sans;font-weight:600;}.cls-14{font-size:18px;}.cls-15,.cls-17{stroke:#50565b;stroke-width:2px;}.cls-16{fill:#50565b;}</style></defs><g id="Figure"><rect class="cls-1" x="292.1063" y="347.5376" width="497.3232" height="149.8782"/><g id="HP_icon" data-name="HP icon"><line class="cls-2" x1="353.5174" y1="438.535" x2="384.661" y2="438.535"/><polyline class="cls-2" points="384.661 438.535 384.661 418.097 353.517 418.097 353.517 430.992"/><path class="cls-2" d="M378.82,418.0971V410.31a9.731,9.731,0,0,0-19.462,0v7.7873"/><path class="cls-2" d="M369.0839,453.1336s-27.7319-16.2579-27.7319-48.1752"/><path class="cls-2" d="M396.8264,404.9584c0,31.9173-27.7425,48.1752-27.7425,48.1752"/><polyline class="cls-2" points="341.352 404.958 369.089 388.9 396.826 404.958"/><circle class="cls-3" cx="396.8264" cy="404.9584" r="2.9197"/><circle class="cls-3" cx="341.352" cy="404.9584" r="2.9197"/><circle class="cls-3" cx="369.0892" cy="453.1336" r="2.9197"/></g><path id="Cloud" class="cls-4" d="M544.2033,407.204A34.0963,34.0963,0,0,0,510.6866,434.89a25.5722,25.5722,0,0,0,4.5007,50.7353H573.151a25.5722,25.5722,0,0,0,4.5007-50.7353,34.0963,34.0963,0,0,0-27.0724-27.0725A35.0171,35.0171,0,0,0,544.2033,407.204Z"/><g id="Hardware"><rect class="cls-5" x="516.9164" y="456.8338" width="54.5012" height="14.4268"/><polygon class="cls-5" points="571.418 456.299 516.916 456.299 526.534 435.461 561.8 435.461 571.418 456.299"/><rect x="551.3803" y="460.8412" width="6.4119" height="6.4119"/><rect x="560.1967" y="460.8412" width="6.4119" height="6.4119"/></g><g id="lock"><g id="lock-2" data-name="lock"><rect class="cls-6" x="510.656" y="454.9049" width="9.8102" height="3.2701"/><path class="cls-7" d="M515.5611,470.71v-3.8151m-5.45-8.8946V451.09a5.45,5.45,0,0,1,10.9,0v6.9107m2.18,1.6568a11.17,11.17,0,0,0-2.18-1.6568,10.8986,10.8986,0,0,0-10.9,0,11.17,11.17,0,0,0-2.18,1.6568,10.9,10.9,0,1,0,15.26,0Z"/><circle cx="515.5611" cy="466.8951" r="2.0438"/></g></g><rect class="cls-8" x="292.1063" y="64.604" width="497.3232" height="197.5667"/><g id="Database"><path class="cls-3" d="M714.2469,148.3634H649.3324c-4.4814,0-8.1143,3.1139-8.1143,6.9551V231.825c0,3.8412,3.6329,6.9551,8.1143,6.9551h64.9145c4.4814,0,8.1143-3.1139,8.1143-6.9551V155.3185C722.3612,151.4773,718.7283,148.3634,714.2469,148.3634Z"/><line class="cls-9" x1="640.9138" y1="178.1256" x2="722.6655" y2="178.1256"/><line class="cls-9" x1="642.2324" y1="209.0179" x2="722.6655" y2="209.0179"/><circle cx="655.4181" cy="162.0578" r="4.0876"/><circle cx="655.4181" cy="193.5717" r="4.0876"/><circle cx="655.4181" cy="223.7672" r="4.0876"/></g><g id="application"><g id="application-2" data-name="application"><path class="cls-10" d="M475.3665,237.6452H393.6147V161.3435h81.7518Zm-81.7518-68.1265h81.7518m-59.9513,0v68.1265"/><path d="M469.9164,165.4311a1.3626,1.3626,0,1,1-1.3626-1.3625A1.3632,1.3632,0,0,1,469.9164,165.4311Zm-6.8127-1.3625a1.3626,1.3626,0,1,0,1.3625,1.3625A1.363,1.363,0,0,0,463.1037,164.0686Zm-5.45,0a1.3626,1.3626,0,1,0,1.3625,1.3625A1.363,1.363,0,0,0,457.6536,164.0686Z"/></g></g><g id="application-3" data-name="application"><g id="application-4" data-name="application"><path class="cls-10" d="M460.3787,224.02H378.6269V147.7182h81.7518Zm-81.7518-68.1265h81.7518m-59.9513,0V224.02"/><path d="M454.9285,151.8058a1.3625,1.3625,0,1,1-1.3625-1.3625A1.3631,1.3631,0,0,1,454.9285,151.8058Zm-6.8126-1.3625a1.3626,1.3626,0,1,0,1.3625,1.3625A1.363,1.363,0,0,0,448.1159,150.4433Zm-5.45,0a1.3626,1.3626,0,1,0,1.3625,1.3625A1.3631,1.3631,0,0,0,442.6658,150.4433Z"/></g></g><g id="key"><path class="cls-11" d="M687.6779,452.0977a15.9143,15.9143,0,1,1-.7558-10.8122"/><circle cx="667.2148" cy="447.7159" r="3.4063"/><polyline class="cls-12" points="686.922 441.286 718.701 441.286 724.65 447.234 719.523 452.361 699.542 452.361 695.96 448.811 692.673 452.098 687.678 452.098"/></g></g><g id="Text"><text class="cls-13" transform="translate(447.4346 382.9637)">Hyper Protect Crypto Services</text><text class="cls-13" transform="translate(453.4922 309.5067)">Enterprise PKCS #11</text><text class="cls-13" transform="translate(344.0576 98.6122)">Encryption/Decryption</text><text class="cls-14" transform="translate(31.5522 36.4579)">Cryptographic operations with Enterprise PKCS #11</text><text class="cls-13" transform="translate(336.3532 120.2878)">Digital signing/validation</text></g><g id="Line"><line class="cls-15" x1="191.2791" y1="166.1124" x2="323.4445" y2="166.1124"/><line class="cls-15" x1="323.4445" y1="166.1124" x2="323.4445" y2="185.1878"/><line class="cls-15" x1="323.4445" y1="185.1878" x2="366.7545" y2="185.1878"/><polygon class="cls-16" points="365.587 189.177 372.496 185.188 365.587 181.199 365.587 189.177"/><line class="cls-15" x1="480.1353" y1="185.1878" x2="587.7751" y2="185.1878"/><line class="cls-15" x1="587.7751" y1="185.1878" x2="587.7751" y2="204.2632"/><line class="cls-15" x1="587.7751" y1="204.2632" x2="631.0852" y2="204.2632"/><polygon class="cls-16" points="629.918 208.252 636.826 204.263 629.918 200.274 629.918 208.252"/><line class="cls-17" x1="426.9967" y1="271.318" x2="426.9967" y2="339.0715"/><polygon class="cls-16" points="423.008 272.485 426.997 265.577 430.986 272.485 423.008 272.485"/><polygon class="cls-16" points="423.008 337.904 426.997 344.813 430.986 337.904 423.008 337.904"/></g></svg>