<svg xmlns="http://www.w3.org/2000/svg" width="1056" height="945" viewBox="0 0 1056 945">
    <defs>
        <style>.cls-1{fill:#fff;}.cls-11,.cls-12,.cls-2,.cls-3,.cls-4,.cls-6,.cls-7,.cls-9{fill:none;}.cls-2,.cls-3,.cls-4,.cls-6,.cls-7{stroke:#9fa5ad;}.cls-12,.cls-2,.cls-3,.cls-4,.cls-6,.cls-7{stroke-linejoin:round;}.cls-3{stroke-dasharray:2.001 2.001;}.cls-4{stroke-dasharray:2.0021 2.0021;}.cls-5{fill:#f2f4f8;}.cls-6{stroke-dasharray:2.007 2.007;}.cls-7{stroke-dasharray:2.0071 2.0071;}.cls-8{fill:#e3f6ff;}.cls-8,.cls-9{stroke:#000;}.cls-11,.cls-8,.cls-9{stroke-miterlimit:10;}.cls-10{fill:#50565b;}.cls-11,.cls-12{stroke:#50565b;}.cls-12{stroke-linecap:round;}.cls-13,.cls-14{font-size:16px;}.cls-13,.cls-15{font-family:IBMPlexSans-SemiBold, IBM Plex Sans;font-weight:600;}.cls-14,.cls-16{font-family:IBMPlexSans, IBM Plex Sans;}.cls-15{font-size:18px;}.cls-16{font-size:14px;}</style>
    </defs>
    <g id="Layer_1" data-name="Layer 1">
        <rect class="cls-1" x="563.9976" y="76.3429" width="472.2347" height="828.8485" />
        <polyline class="cls-2" points="1036.232 904.191 1036.232 905.191 1035.232 905.191" />
        <line class="cls-3" x1="1033.2313" y1="905.1914" x2="565.9981" y2="905.1914" />
        <polyline class="cls-2" points="564.998 905.191 563.998 905.191 563.998 904.191" />
        <line class="cls-4" x1="563.9976" y1="902.1893" x2="563.9976" y2="78.344" />
        <polyline class="cls-2" points="563.998 77.343 563.998 76.343 564.998 76.343" />
        <line class="cls-3" x1="566.9986" y1="76.3429" x2="1034.2318" y2="76.3429" />
        <polyline class="cls-2" points="1035.232 76.343 1036.232 76.343 1036.232 77.343" />
        <line class="cls-4" x1="1036.2322" y1="79.345" x2="1036.2322" y2="903.1904" />
        <rect class="cls-5" x="584.6963" y="120.7231" width="432.0742" height="759.5903" />
        <path d="M1016.2708,121.2231v758.59H585.1964v-758.59h431.0744m1-1H584.1964v760.59h433.0744v-760.59Z" />
        <rect class="cls-5" x="375.8833" y="287.8857" width="122.8389" height="267.8535" />
        <path d="M498.222,288.3859V555.2392H376.3835V288.3859H498.222m1-1H375.3835V556.2392H499.222V287.3859Z" />
        <rect class="cls-1" x="605.7883" y="187.7847" width="393.3732" height="305.072" />
        <polyline class="cls-2" points="999.161 491.857 999.161 492.857 998.161 492.857" />
        <line class="cls-6" x1="996.1545" y1="492.8567" x2="607.7918" y2="492.8567" />
        <polyline class="cls-2" points="606.788 492.857 605.788 492.857 605.788 491.857" />
        <line class="cls-7" x1="605.7883" y1="489.8496" x2="605.7883" y2="189.7883" />
        <polyline class="cls-2" points="605.788 188.785 605.788 187.785 606.788 187.785" />
        <line class="cls-6" x1="608.7953" y1="187.7847" x2="997.158" y2="187.7847" />
        <polyline class="cls-2" points="998.161 187.785 999.161 187.785 999.161 188.785" />
        <line class="cls-7" x1="999.1615" y1="190.7918" x2="999.1615" y2="490.8531" />
        <rect class="cls-8" x="624.8645" y="236.5405" width="356.6138" height="236.8138" />
        <rect class="cls-9" x="644.7929" y="323.9527" width="151.143" height="67.2133" />
        <rect class="cls-9" x="811.9556" y="323.9527" width="151.143" height="67.2133" />
        <rect class="cls-9" x="644.7929" y="407.8823" width="319.0022" height="45.9697" />
        <circle class="cls-10" cx="63.0369" cy="144.8799" r="8.3581" />
        <path class="cls-10" d="M77.6636,167.1683v4.1791H48.41v-4.1791a12.574,12.574,0,0,1,12.5372-12.5372h4.179A12.574,12.574,0,0,1,77.6636,167.1683Z" />
        <circle class="cls-10" cx="63.0369" cy="608.7565" r="8.3581" />
        <path class="cls-10" d="M77.6636,631.0448v4.1791H48.41v-4.1791a12.574,12.574,0,0,1,12.5372-12.5372h4.179A12.574,12.574,0,0,1,77.6636,631.0448Z" />
        <circle class="cls-10" cx="63.0369" cy="781.4913" r="8.3581" />
        <path class="cls-10" d="M77.6636,803.78v4.1791H48.41V803.78a12.5741,12.5741,0,0,1,12.5372-12.5372h4.179A12.5741,12.5741,0,0,1,77.6636,803.78Z" />
        <circle class="cls-10" cx="63.0369" cy="295.3264" r="8.3581" />
        <path class="cls-10" d="M77.6636,317.6147v4.1791H48.41v-4.1791a12.5741,12.5741,0,0,1,12.5372-12.5372h4.179A12.5741,12.5741,0,0,1,77.6636,317.6147Z" />
        <circle class="cls-10" cx="63.0369" cy="449.9519" r="8.3581" />
        <path class="cls-10" d="M77.6636,472.24v4.1791H48.41V472.24A12.5741,12.5741,0,0,1,60.9474,459.703h4.179A12.5741,12.5741,0,0,1,77.6636,472.24Z" />
        <line class="cls-11" x1="116.8373" y1="332.6591" x2="368.8478" y2="332.6591" />
        <polygon class="cls-10" points="367.972 335.651 373.153 332.659 367.972 329.667 367.972 335.651" />
        <line class="cls-11" x1="116.8373" y1="182.9092" x2="580.5872" y2="182.9092" />
        <polygon class="cls-10" points="579.712 185.901 584.893 182.909 579.712 179.917 579.712 185.901" />
        <line class="cls-11" x1="116.8373" y1="487.0524" x2="368.8478" y2="487.0524" />
        <polygon class="cls-10" points="367.972 490.044 373.153 487.052 367.972 484.061 367.972 490.044" />
        <line class="cls-12" x1="498.5255" y1="430.1707" x2="640.4872" y2="430.1707" />
        <polygon class="cls-10" points="639.612 433.162 644.793 430.171 639.612 427.179 639.612 433.162" />
        <line class="cls-12" x1="887.1788" y1="289.4754" x2="887.1788" y2="319.9952" />
        <polygon class="cls-10" points="884.187 319.12 887.179 324.301 890.171 319.12 884.187 319.12" />
        <line class="cls-12" x1="721.4091" y1="289.4754" x2="721.4091" y2="319.9952" />
        <polygon class="cls-10" points="718.417 319.12 721.409 324.301 724.401 319.12 718.417 319.12" />
        <rect class="cls-1" x="605.7883" y="545.7916" width="393.3732" height="305.072" />
        <polyline class="cls-2" points="999.161 849.864 999.161 850.864 998.161 850.864" />
        <line class="cls-6" x1="996.1545" y1="850.8635" x2="607.7918" y2="850.8635" />
        <polyline class="cls-2" points="606.788 850.864 605.788 850.864 605.788 849.864" />
        <line class="cls-7" x1="605.7883" y1="847.8564" x2="605.7883" y2="547.7951" />
        <polyline class="cls-2" points="605.788 546.792 605.788 545.792 606.788 545.792" />
        <line class="cls-6" x1="608.7953" y1="545.7915" x2="997.158" y2="545.7915" />
        <polyline class="cls-2" points="998.161 545.792 999.161 545.792 999.161 546.792" />
        <line class="cls-7" x1="999.1615" y1="548.7987" x2="999.1615" y2="848.86" />
        <rect class="cls-8" x="624.8645" y="594.5473" width="356.6138" height="236.8138" />
        <rect class="cls-9" x="644.7929" y="681.9595" width="151.143" height="67.2133" />
        <rect class="cls-9" x="811.9556" y="681.9595" width="151.143" height="67.2133" />
        <rect class="cls-9" x="644.7929" y="765.8891" width="319.0022" height="45.9697" />
        <line class="cls-12" x1="545.8883" y1="288.7789" x2="887.1788" y2="288.7789" />
        <line class="cls-12" x1="545.8883" y1="643.3031" x2="545.8883" y2="289.4754" />
        <line class="cls-12" x1="116.8373" y1="645.3927" x2="887.1788" y2="645.3927" />
        <line class="cls-12" x1="526.386" y1="430.1707" x2="526.386" y2="788.1775" />
        <line class="cls-12" x1="526.386" y1="788.1775" x2="640.4872" y2="788.1775" />
        <polygon class="cls-10" points="639.612 791.169 644.793 788.177 639.612 785.186 639.612 791.169" />
        <path class="cls-5" d="M142.6083,183.7613H340.4175a0,0,0,0,1,0,0v64.2581a4,4,0,0,1-4,4H146.6083a4,4,0,0,1-4-4V183.7613A0,0,0,0,1,142.6083,183.7613Z" />
        <path class="cls-5" d="M142.6083,334.2078H340.4175a0,0,0,0,1,0,0v64.2581a4,4,0,0,1-4,4H146.6083a4,4,0,0,1-4-4V334.2078A0,0,0,0,1,142.6083,334.2078Z" />
        <path class="cls-5" d="M142.6083,487.9811H340.4175a0,0,0,0,1,0,0v64.2581a4,4,0,0,1-4,4H146.6083a4,4,0,0,1-4-4V487.9811A0,0,0,0,1,142.6083,487.9811Z" />
        <path class="cls-5" d="M142.6083,646.2449H340.4175a0,0,0,0,1,0,0V710.503a4,4,0,0,1-4,4H146.6083a4,4,0,0,1-4-4V646.2449A0,0,0,0,1,142.6083,646.2449Z" />
        <line class="cls-12" x1="887.1788" y1="646.0892" x2="887.1788" y2="676.609" />
        <polygon class="cls-10" points="884.187 675.734 887.179 680.915 890.171 675.734 884.187 675.734" />
        <line class="cls-12" x1="721.4091" y1="646.0892" x2="721.4091" y2="676.609" />
        <polygon class="cls-10" points="718.417 675.734 721.409 680.915 724.401 675.734 718.417 675.734" />
        <rect class="cls-5" x="376.5552" y="732.2597" width="122.8384" height="171.7354" />
        <path d="M498.8937,732.76V903.4949H377.0552V732.76H498.8937m1-1H376.0552V904.4949H499.8937V731.76Z" />
        <line class="cls-11" x1="117.509" y1="813.6097" x2="369.5194" y2="813.6097" />
        <polygon class="cls-10" points="368.644 816.601 373.825 813.61 368.644 810.618 368.644 816.601" />
        <path class="cls-5" d="M143.28,815.1583H341.0891a0,0,0,0,1,0,0v85.3365a4,4,0,0,1-4,4H147.28a4,4,0,0,1-4-4V815.1583A0,0,0,0,1,143.28,815.1583Z" />
        <line class="cls-11" x1="499.222" y1="813.2519" x2="580.5872" y2="813.2519" />
        <polygon class="cls-10" points="579.712 816.244 584.893 813.252 579.712 810.26 579.712 816.244" />
    </g>
    <g id="text">
        <text class="cls-13" transform="translate(684.6836 149.4775)">
            Hyper Protect Crypto Services
            <tspan x="51.4717" y="19.2002">service instance</tspan>
        </text>
        <text class="cls-14" transform="translate(753.5859 266.4912)">Crypto Unit A</text>
        <text class="cls-14" transform="translate(657.9531 352.8584)">
            Key management
            <tspan x="22.1201" y="19.2002">service API</tspan>
        </text>
        <text class="cls-14" transform="translate(852.0605 352.8584)">
            Enterprise
            <tspan x="-14.583" y="19.2002">PKCS #11 API</tspan>
        </text>
        <text class="cls-14" transform="translate(705.3896 435.7427)">Hardware security module</text>
        <text class="cls-13" transform="translate(398.2793 412.2588)">
            IBM Cloud
            <tspan x="9.8633" y="19.2002">Trusted </tspan>
            <tspan x="4.6875" y="38.3999">Key Entry</tspan>
        </text>
        <text class="cls-15" transform="translate(40.2373 48.249)">Hyper Protect Crypto Services roles and responsibilities</text>
        <text class="cls-14" transform="translate(736.6582 217.1147) scale(0.9688 1)">Availability Zone 1</text>
        <text class="cls-14" transform="translate(753.5859 624.498)">Crypto Unit B</text>
        <text class="cls-14" transform="translate(657.9531 710.8652)">
            Key management
            <tspan x="22.1201" y="19.2002">service API</tspan>
        </text>
        <text class="cls-14" transform="translate(852.0605 710.8652)">
            Enterprise
            <tspan x="-14.583" y="19.2002">PKCS #11 API</tspan>
        </text>
        <text class="cls-14" transform="translate(705.3896 793.75)">Hardware security module</text>
        <text class="cls-14" transform="translate(736.6582 575.1211) scale(0.9688 1)">Availability Zone 2</text>
        <text class="cls-14" transform="translate(586.2119 104.2798) scale(0.9688 1)">Region 1</text>
        <text class="cls-16" transform="translate(157.7847 212.3203)">
            Manages service instances
            <tspan x="-1.8687" y="16.7998">and assigns access policies</tspan>
        </text>
        <text class="cls-16" transform="translate(167.2417 362.7666)">
            Provides signature keys
            <tspan x="8.2251" y="16.7998">and signs commands</tspan>
        </text>
        <text class="cls-16" transform="translate(151.0366 516.54)">
            Provides master key parts for
            <tspan x="4.48" y="16.7998">initializing service instances</tspan>
        </text>
        <text class="cls-16" transform="translate(173.4575 673.9512)">
            Manages resources in
            <tspan x="-13.1108" y="16.7998">service instances via APIs</tspan>
        </text>
        <text class="cls-13" transform="translate(398.583 801.2695)">
            Certificate
            <tspan x="8.7119" y="19.2002">Manager</tspan>
            <tspan x="-1.9521" y="38.4004" xml:space="preserve"> CLI plug-in</tspan>
        </text>
        <text class="cls-16" transform="translate(160.2129 845.1103)">
            Manages admin signature
            <tspan x="-1.6025" y="16.7998">keys and client certificates</tspan>
            <tspan x="12.915" y="33.5996">for TLS authentication</tspan>
        </text>
        <text class="cls-13" transform="translate(35.5737 192.1719)">
            Service
            <tspan x="4.1758" y="19.2002">admin</tspan>
        </text>
        <text class="cls-13" transform="translate(35.5737 656.0488)">
            Service
            <tspan x="11.1597" y="19.2002">user</tspan>
        </text>
        <text class="cls-13" transform="translate(24.0698 828.7832)">
            Certificate
            <tspan x="15.6797" y="19.2002">admin</tspan>
        </text>
        <text class="cls-13" transform="translate(21.7739 342.6181)">
            Crypto unit
            <tspan x="17.9756" y="19.2002">admin</tspan>
        </text>
        <text id="Master_key_custodian" data-name="Master key custodian" class="cls-13" transform="translate(22.4058 497.2441)">
            Master key
            <tspan x="4.1519" y="19.2002">custodian</tspan>
        </text>
    </g>
</svg>