<svg xmlns="http://www.w3.org/2000/svg" xmlns:xlink="http://www.w3.org/1999/xlink" width="1056" height="915" viewBox="0 0 1056 915">
    <defs>
        <style>.cls-1,.cls-11,.cls-5,.cls-6,.cls-7,.cls-9{fill:none;}.cls-2{clip-path:url(#clip-path);}.cls-3{fill:#e3f6ff;}.cls-4{fill:#f2f4f8;}.cls-5,.cls-6,.cls-7{stroke:#9fa5ad;}.cls-11,.cls-5,.cls-6,.cls-7,.cls-9{stroke-linejoin:round;}.cls-6{stroke-dasharray:2 2;}.cls-7{stroke-dasharray:1.969 1.969;}.cls-18,.cls-8{fill:#fff;}.cls-9{stroke:#333;}.cls-10,.cls-15,.cls-16,.cls-20{fill:#0072c3;}.cls-11{stroke:#50565b;stroke-linecap:round;}.cls-12{fill:#50565b;}.cls-13,.cls-14,.cls-15,.cls-16,.cls-17{font-size:12px;}.cls-13,.cls-17,.cls-19,.cls-21{fill:#333;}.cls-13,.cls-15,.cls-19,.cls-20{font-family:IBMPlexSans, IBM Plex Sans;}.cls-14,.cls-16,.cls-17,.cls-18{font-family:IBMPlexMono, IBM Plex Mono;}.cls-18,.cls-19,.cls-20,.cls-21{font-size:16px;}.cls-21,.cls-22{font-family:IBMPlexSans-SemiBold, IBM Plex Sans;font-weight:600;}.cls-22{font-size:18px;}</style>
        <clipPath id="clip-path">
            <rect class="cls-1" x="17.1683" y="22.3493" width="1013.0002" height="877.4085" />
        </clipPath>
    </defs>
    <g id="Layer_1" data-name="Layer 1">
        <g class="cls-2">
            <path class="cls-3" d="M411.2959,346.08H137.3779a5.4013,5.4013,0,0,1-5.4027-5.3994V252.9392a5.4013,5.4013,0,0,1,5.4027-5.3994h273.918Z" />
            <path class="cls-3" d="M411.2959,541.8091H137.3779a5.4013,5.4013,0,0,1-5.4027-5.3994V448.6688a5.4013,5.4013,0,0,1,5.4027-5.3994h273.918Z" />
            <path class="cls-3" d="M411.2959,738.8885H137.3779a5.4013,5.4013,0,0,1-5.4027-5.3994V645.7483a5.4014,5.4014,0,0,1,5.4027-5.3995h273.918Z" />
            <rect class="cls-4" x="438.9843" y="124.0274" width="280.9387" height="175.4817" />
            <polyline class="cls-5" points="719.923 298.16 719.923 299.509 718.572 299.509" />
            <line class="cls-6" x1="715.8708" y1="299.5094" x2="441.6854" y2="299.5094" />
            <polyline class="cls-5" points="440.335 299.509 438.985 299.509 438.985 298.16" />
            <line class="cls-7" x1="438.9845" y1="295.5014" x2="438.9845" y2="126.7069" />
            <polyline class="cls-5" points="438.985 125.378 438.985 124.028 440.335 124.028" />
            <line class="cls-6" x1="443.0365" y1="124.0277" x2="717.2219" y2="124.0277" />
            <polyline class="cls-5" points="718.572 124.028 719.923 124.028 719.923 125.378" />
            <line class="cls-7" x1="719.9228" y1="128.0356" x2="719.9228" y2="296.8302" />
            <rect class="cls-8" x="456.5443" y="166.5277" width="244.314" height="37.7961" />
            <rect class="cls-9" x="456.5443" y="166.5277" width="244.314" height="37.7961" />
            <rect class="cls-8" x="456.543" y="244.1649" width="244.4707" height="37.7961" />
            <rect class="cls-9" x="456.543" y="244.1649" width="244.4707" height="37.7961" />
            <rect class="cls-4" x="438.9843" y="319.757" width="280.9387" height="175.4817" />
            <polyline class="cls-5" points="719.923 493.889 719.923 495.239 718.572 495.239" />
            <line class="cls-6" x1="715.8708" y1="495.2389" x2="441.6854" y2="495.2389" />
            <polyline class="cls-5" points="440.335 495.239 438.985 495.239 438.985 493.889" />
            <line class="cls-7" x1="438.9845" y1="491.2315" x2="438.9845" y2="322.437" />
            <polyline class="cls-5" points="438.985 321.107 438.985 319.757 440.335 319.757" />
            <line class="cls-6" x1="443.0365" y1="319.7573" x2="717.2219" y2="319.7573" />
            <polyline class="cls-5" points="718.572 319.757 719.923 319.757 719.923 321.107" />
            <line class="cls-7" x1="719.9228" y1="323.7653" x2="719.9228" y2="492.5598" />
            <rect class="cls-8" x="456.5443" y="362.2573" width="244.314" height="37.7961" />
            <rect class="cls-9" x="456.5443" y="362.2573" width="244.314" height="37.7961" />
            <rect class="cls-8" x="456.543" y="439.8945" width="244.4707" height="37.7961" />
            <rect class="cls-9" x="456.543" y="439.8945" width="244.4707" height="37.7961" />
            <rect class="cls-4" x="438.9843" y="515.4866" width="280.9387" height="175.4817" />
            <polyline class="cls-5" points="719.923 689.619 719.923 690.969 718.572 690.969" />
            <line class="cls-6" x1="715.8708" y1="690.9685" x2="441.6854" y2="690.9685" />
            <polyline class="cls-5" points="440.335 690.969 438.985 690.969 438.985 689.619" />
            <line class="cls-7" x1="438.9845" y1="686.9611" x2="438.9845" y2="518.1653" />
            <polyline class="cls-5" points="438.985 516.837 438.985 515.487 440.335 515.487" />
            <line class="cls-6" x1="443.0365" y1="515.4868" x2="717.2219" y2="515.4868" />
            <polyline class="cls-5" points="718.572 515.487 719.923 515.487 719.923 516.837" />
            <line class="cls-7" x1="719.9228" y1="519.4955" x2="719.9228" y2="688.29" />
            <rect class="cls-8" x="456.5443" y="557.9869" width="244.314" height="37.7961" />
            <rect class="cls-9" x="456.5443" y="557.9869" width="244.314" height="37.7961" />
            <rect class="cls-8" x="456.543" y="635.624" width="244.4707" height="37.7961" />
            <rect class="cls-9" x="456.543" y="635.624" width="244.4707" height="37.7961" />
            <rect class="cls-4" x="438.9843" y="711.2161" width="280.9387" height="175.4817" />
            <polyline class="cls-5" points="719.923 885.348 719.923 886.698 718.572 886.698" />
            <line class="cls-6" x1="715.8708" y1="886.6981" x2="441.6854" y2="886.6981" />
            <polyline class="cls-5" points="440.335 886.698 438.985 886.698 438.985 885.348" />
            <line class="cls-7" x1="438.9845" y1="882.6906" x2="438.9845" y2="713.8948" />
            <polyline class="cls-5" points="438.985 712.566 438.985 711.216 440.335 711.216" />
            <line class="cls-6" x1="443.0365" y1="711.2164" x2="717.2219" y2="711.2164" />
            <polyline class="cls-5" points="718.572 711.216 719.923 711.216 719.923 712.566" />
            <line class="cls-7" x1="719.9228" y1="715.2251" x2="719.9228" y2="884.0196" />
            <rect class="cls-8" x="456.5443" y="753.7165" width="244.314" height="37.7961" />
            <rect class="cls-9" x="456.5443" y="753.7165" width="244.314" height="37.7961" />
            <rect class="cls-8" x="456.543" y="831.3536" width="244.4707" height="37.7961" />
            <rect class="cls-9" x="456.543" y="831.3536" width="244.4707" height="37.7961" />
        </g>
        <path class="cls-10" d="M184.8252,296.81a11.4807,11.4807,0,1,1-11.4807-11.4738A11.4781,11.4781,0,0,1,184.8252,296.81" />
        <path class="cls-10" d="M184.8252,492.5392a11.4807,11.4807,0,1,1-11.4807-11.4738,11.478,11.478,0,0,1,11.4807,11.4738" />
        <path class="cls-10" d="M185.8252,689.6187a11.4807,11.4807,0,1,1-11.4807-11.4738,11.478,11.478,0,0,1,11.4807,11.4738" />
        <line class="cls-11" x1="411.2959" y1="212.7809" x2="438.9845" y2="212.7809" />
        <line class="cls-11" x1="411.2959" y1="212.7809" x2="411.2959" y2="380.8384" />
        <line class="cls-11" x1="411.2959" y1="381.1758" x2="433.8439" y2="381.1758" />
        <polygon class="cls-12" points="432.662 385.214 439.66 381.175 432.662 377.138 432.662 385.214" />
        <line class="cls-11" x1="411.2959" y1="408.5105" x2="438.9845" y2="408.5105" />
        <line class="cls-11" x1="411.2959" y1="408.5105" x2="411.2959" y2="576.568" />
        <line class="cls-11" x1="411.2959" y1="576.9054" x2="433.8439" y2="576.9054" />
        <polygon class="cls-12" points="432.662 580.944 439.66 576.906 432.662 572.867 432.662 580.944" />
        <line class="cls-11" x1="411.2959" y1="605.5899" x2="438.9845" y2="605.5899" />
        <line class="cls-11" x1="411.2959" y1="605.5899" x2="411.2959" y2="773.6474" />
        <line class="cls-11" x1="411.2959" y1="773.9849" x2="433.8439" y2="773.9849" />
        <polygon class="cls-12" points="432.662 778.024 439.66 773.985 432.662 769.946 432.662 778.024" />
    </g>
    <g id="text">
        <text class="cls-13" transform="translate(463.3496 182.6387)">00000000000000000000000000000000</text>
        <text class="cls-13" transform="translate(463.3496 197.2168)">00000000000000000000000000000000</text>
        <text class="cls-14" transform="translate(463.1924 260.2759)">uvwxyz1234567890uvwxyz1234567890</text>
        <text class="cls-14" transform="translate(463.1924 274.856)">uvwxyz1234567890uvwxyz1234567890</text>
        <text class="cls-14" transform="translate(463.1924 456.0073)">uvwxyz1234567890uvwxyz1234567890</text>
        <text class="cls-14" transform="translate(463.1924 470.585)">uvwxyz1234567890uvwxyz1234567890</text>
        <text class="cls-14" transform="translate(463.1924 651.7373)">uvwxyz1234567890uvwxyz1234567890</text>
        <text class="cls-14" transform="translate(463.1924 666.3145)">uvwxyz1234567890uvwxyz1234567890</text>
        <text class="cls-15" transform="translate(463.3496 769.8271)">00000000000000000000000000000000</text>
        <text class="cls-15" transform="translate(463.3496 784.4063)">00000000000000000000000000000000</text>
        <text class="cls-16" transform="translate(463.3496 377.7876)">1234567890abcdef1234567890abcdef</text>
        <text class="cls-16" transform="translate(463.1904 846.8857)">1234567890abcdef1234567890abcdef</text>
        <text class="cls-16" transform="translate(463.1904 861.4629)">1234567890abcdef1234567890abcdef</text>
        <text class="cls-16" transform="translate(463.3496 392.3647)">1234567890abcdef1234567890abcdef</text>
        <text class="cls-17" transform="translate(463.3496 573.5137)">1234567890abcdef1234567890abcdef</text>
        <text class="cls-17" transform="translate(463.3496 588.0938)">1234567890abcdef1234567890abcdef</text>
        <text class="cls-18" transform="translate(168.4829 301.6548)">1</text>
        <text class="cls-18" transform="translate(168.4829 497.3838)">2</text>
        <text class="cls-18" transform="translate(169.4829 694.4619)">3</text>
        <text class="cls-19" transform="translate(457.4729 150.9117)">New Master Key Register</text>
        <text class="cls-19" transform="translate(458.9612 347.1718)">New Master Key Register</text>
        <text class="cls-19" transform="translate(457.4736 542.7991)">New Master Key Register</text>
        <text class="cls-19" transform="translate(457.4727 737.1758)">New Master Key Register</text>
        <text class="cls-19" transform="translate(458.9607 231.936)">Current Master Key Register</text>
        <text class="cls-19" transform="translate(458.9609 428.5999)">Current Master Key Register</text>
        <text class="cls-19" transform="translate(458.9609 622.5045)">Current Master Key Register</text>
        <text class="cls-19" transform="translate(458.9609 819.1575)">Current Master Key Register</text>
        <text class="cls-19" transform="translate(750.509 188.6966)">Empty</text>
        <text class="cls-19" transform="translate(750.509 267.7132)">Valid</text>
        <text class="cls-20" transform="translate(750.509 384.8763)">Full uncommitted</text>
        <text class="cls-19" transform="translate(750.509 462.5311)">Valid</text>
        <text class="cls-20" transform="translate(750.509 582.4193)">Full committed</text>
        <text class="cls-19" transform="translate(750.509 661.4359)">Valid</text>
        <text class="cls-20" transform="translate(750.509 777.2367)">Empty</text>
        <text class="cls-20" transform="translate(750.509 857.6165)">Valid</text>
        <text class="cls-21" transform="translate(750.8281 99.7492)">Register state</text>
        <text class="cls-21" transform="translate(543.749 99.7492)">Register</text>
        <text class="cls-21" transform="translate(265.8271 99.7492)">Step</text>
        <text class="cls-19" transform="translate(211.0617 293.81)">
            Load the new
            <tspan x="0" y="20.5625">master key register</tspan>
        </text>
        <text class="cls-19" transform="translate(212.5492 485.6017)">
            Commit the new
            <tspan x="0" y="20.5625">master key register</tspan>
        </text>
        <text class="cls-19" transform="translate(212.4219 683.1019)">
            Reencrypt keys and
            <tspan x="0" y="20.5625">activate the master key</tspan>
        </text>
        <text class="cls-22" transform="translate(38.4694 47.6574)">Rotating the master key using key parts</text>
    </g>
</svg>