<svg xmlns="http://www.w3.org/2000/svg" width="1056" height="688" viewBox="0 0 1056 688">
    <defs>
        <style>.cls-1{fill:#333;}.cls-2,.cls-4{fill:#f2f4f8;}.cls-10,.cls-11,.cls-12,.cls-13,.cls-2,.cls-9{stroke:#000;}.cls-2,.cls-6,.cls-7,.cls-8{stroke-miterlimit:10;}.cls-3{fill:#e3f6ff;}.cls-5{fill:#0072c3;}.cls-10,.cls-11,.cls-12,.cls-13,.cls-6,.cls-7,.cls-8,.cls-9{fill:none;}.cls-6,.cls-7{stroke:#9fa5ad;}.cls-7{stroke-dasharray:2.0025 2.0025;}.cls-8{stroke:#0072c3;}.cls-10,.cls-11,.cls-12,.cls-13,.cls-9{stroke-linecap:round;stroke-linejoin:round;}.cls-10{stroke-dasharray:1.9978 1.9978;}.cls-11{stroke-dasharray:2.0052 2.0052;}.cls-12{stroke-dasharray:2;}.cls-13{stroke-dasharray:2 2;}.cls-14,.cls-15,.cls-17{font-size:16px;}.cls-14,.cls-16{font-family:IBMPlexSans-SemiBold, IBM Plex Sans;font-weight:600;}.cls-15,.cls-17{font-family:IBMPlexSans, IBM Plex Sans;}.cls-16{font-size:18px;}.cls-17{fill:#fff;}</style>
    </defs>
    <g id="Layer_1" data-name="Layer 1">
        <circle class="cls-1" cx="80.2742" cy="88.3706" r="8.277" />
        <path class="cls-1" d="M94.759,110.4428v4.1385h-28.97v-4.1385A12.4521,12.4521,0,0,1,78.2049,98.0272h4.1386A12.4521,12.4521,0,0,1,94.759,110.4428Z" />
        <rect class="cls-2" x="380.7669" y="93.0002" width="111.7401" height="42.7647" />
        <rect class="cls-2" x="731.1617" y="93.0002" width="124.1557" height="42.7647" />
        <rect class="cls-2" x="881.528" y="93.0002" width="124.1557" height="42.7647" />
        <path class="cls-3" d="M139.7675,190.01H372.9042a0,0,0,0,1,0,0v59.4573a4,4,0,0,1-4,4H143.7675a4,4,0,0,1-4-4V190.01A0,0,0,0,1,139.7675,190.01Z" />
        <path class="cls-3" d="M139.7675,400.9062H372.9042a0,0,0,0,1,0,0v59.4573a4,4,0,0,1-4,4H143.7675a4,4,0,0,1-4-4V400.9062A0,0,0,0,1,139.7675,400.9062Z" />
        <path class="cls-4" d="M466.9861,234.4H763.7186a4,4,0,0,1,4,4v105.12a4,4,0,0,1-4,4H466.9861a0,0,0,0,1,0,0V234.4A0,0,0,0,1,466.9861,234.4Z" />
        <path class="cls-4" d="M498.537,423.3922H731.6738a0,0,0,0,1,0,0v59.4573a4,4,0,0,1-4,4H502.537a4,4,0,0,1-4-4V423.3922A0,0,0,0,1,498.537,423.3922Z" />
        <path class="cls-4" d="M498.537,532.3732H731.6738a0,0,0,0,1,0,0v59.4573a4,4,0,0,1-4,4H502.537a4,4,0,0,1-4-4V532.3732A0,0,0,0,1,498.537,532.3732Z" />
        <circle class="cls-5" cx="174.5305" cy="431.6692" r="13.1053" />
        <circle class="cls-5" cx="174.5305" cy="220.6046" r="13.1053" />
    </g>
    <g id="Line">
        <line class="cls-6" x1="80.0343" y1="153.4398" x2="80.0343" y2="154.4398" />
        <line class="cls-7" x1="80.0343" y1="156.4423" x2="80.0343" y2="648.0612" />
        <line class="cls-6" x1="80.0343" y1="649.0624" x2="80.0343" y2="650.0624" />
        <line class="cls-6" x1="436.8668" y1="153.4398" x2="436.8668" y2="154.4398" />
        <line class="cls-7" x1="436.8668" y1="156.4423" x2="436.8668" y2="648.0612" />
        <line class="cls-6" x1="436.8668" y1="649.0624" x2="436.8668" y2="650.0624" />
        <line class="cls-6" x1="793.6993" y1="153.4398" x2="793.6993" y2="154.4398" />
        <line class="cls-7" x1="793.6993" y1="156.4423" x2="793.6993" y2="648.0612" />
        <line class="cls-6" x1="793.6993" y1="649.0624" x2="793.6993" y2="650.0624" />
        <line class="cls-6" x1="943.6058" y1="153.4398" x2="943.6058" y2="154.4398" />
        <line class="cls-7" x1="943.6058" y1="156.4423" x2="943.6058" y2="648.0612" />
        <line class="cls-6" x1="943.6058" y1="649.0624" x2="943.6058" y2="650.0624" />
        <line class="cls-8" x1="79.3445" y1="188.8759" x2="433.0209" y2="188.8759" />
        <polygon class="cls-5" points="432.146 191.868 437.327 188.876 432.146 185.884 432.146 191.868" />
        <line class="cls-8" x1="79.3445" y1="399.9405" x2="433.0209" y2="399.9405" />
        <polygon class="cls-5" points="432.146 402.932 437.327 399.941 432.146 396.949 432.146 402.932" />
        <line class="cls-9" x1="437.3267" y1="422.0126" x2="438.3267" y2="422.0126" />
        <line class="cls-10" x1="440.3245" y1="422.0126" x2="786.9349" y2="422.0126" />
        <line class="cls-9" x1="787.9338" y1="422.0126" x2="788.9338" y2="422.0126" />
        <polygon points="788.058 425.004 793.24 422.013 788.058 419.021 788.058 425.004" />
        <line class="cls-9" x1="437.3267" y1="530.9937" x2="438.3267" y2="530.9937" />
        <line class="cls-11" x1="440.3318" y1="530.9937" x2="936.6078" y2="530.9937" />
        <line class="cls-9" x1="937.6104" y1="530.9937" x2="938.6104" y2="530.9937" />
        <polygon points="937.735 533.985 942.916 530.994 937.735 528.002 937.735 533.985" />
        <line class="cls-12" x1="437.3266" y1="207.4993" x2="467.6758" y2="207.4993" />
        <line class="cls-12" x1="467.6758" y1="207.4993" x2="467.6758" y2="373.0401" />
        <line class="cls-13" x1="467.6758" y1="373.0401" x2="441.6324" y2="373.0401" />
        <polygon points="442.508 370.048 437.327 373.04 442.508 376.032 442.508 370.048" />
    </g>
    <g id="Text">
        <text class="cls-14" transform="translate(399.248 119.0829)">Cloud TKE</text>
        <text class="cls-14" transform="translate(745.5039 119.0829)">Crypto unit A</text>
        <text class="cls-14" transform="translate(895.8711 119.0829)">Crypto unit B</text>
        <text class="cls-14" transform="translate(27.2031 136.768)">Administrator</text>
        <text class="cls-15" transform="translate(205.8965 215.7494)">
            Create admin’s
            <tspan x="0" y="19.2002">signature key pair</tspan>
        </text>
        <text class="cls-15" transform="translate(205.8965 426.8139)">
            Add admins to
            <tspan x="0" y="19.1997">crypto units</tspan>
        </text>
        <text class="cls-15" transform="translate(480.9355 263.1782)">1. Creates signature key pairs</text>
        <text class="cls-15" transform="translate(516.6846 449.9726)">
            Sends the public signature
            <tspan x="0" y="19.2002">key part to crypto unit A</tspan>
        </text>
        <text class="cls-15" transform="translate(516.6846 558.955)">
            Sends the public signature
            <tspan x="0" y="19.2002">key part to crypto unit B</tspan>
        </text>
        <text class="cls-16" transform="translate(27.4307 38.1464)">Creating and assigning signature keys</text>
        <text class="cls-17" transform="translate(170.1846 225.6655)">1</text>
        <text class="cls-17" transform="translate(170.1846 436.7299)">2</text>
        <text class="cls-15" transform="translate(481.8369 288.2944)">
            2. Encrypts and stores the private
            <tspan x="0" y="19.2002" xml:space="preserve">     signature key part</tspan>
        </text>
        <text class="cls-15" transform="translate(482.6016 329.9565)">3. Stores the public signature key part</text>
    </g>
</svg>