<svg xmlns="http://www.w3.org/2000/svg" width="1056" height="520" viewBox="0 0 1056 520">
    <defs>
        <style>.cls-1,.cls-8{fill:#f2f4f8;}.cls-1,.cls-10,.cls-11,.cls-12,.cls-14,.cls-16,.cls-2,.cls-3,.cls-4,.cls-5,.cls-7,.cls-8,.cls-9{stroke:#000;}.cls-1,.cls-10,.cls-11,.cls-12,.cls-14,.cls-16,.cls-18,.cls-2,.cls-20,.cls-5,.cls-7{stroke-linejoin:round;}.cls-18,.cls-2,.cls-20,.cls-9{fill:none;}.cls-10,.cls-11,.cls-14,.cls-16,.cls-18,.cls-2,.cls-7{stroke-linecap:round;}.cls-15,.cls-16,.cls-3,.cls-5{fill:#b3e6ff;}.cls-13,.cls-3,.cls-4,.cls-8,.cls-9{stroke-miterlimit:10;}.cls-14,.cls-4{fill:#e3f6ff;}.cls-6,.cls-7{fill:#e6d6ff;}.cls-10{fill:#fff;}.cls-11,.cls-12{fill:#87eded;}.cls-13{stroke:#fff;}.cls-17{font-size:18px;font-family:IBMPlexSans-SemiBold, IBM Plex Sans;font-weight:600;}.cls-18,.cls-20{stroke:#50565b;stroke-width:2px;}.cls-19{fill:#50565b;}</style>
    </defs>
    <g id="Figure">
        <rect class="cls-1" x="384.0054" y="329.3524" width="452.2449" height="136.293" />
        <g id="HP_icon" data-name="HP icon">
            <line class="cls-2" x1="439.8501" y1="412.1017" x2="468.1707" y2="412.1017" />
            <polyline class="cls-2" points="468.171 412.102 468.171 393.516 439.85 393.516 439.85 405.243" />
            <path class="cls-2" d="M462.8594,393.5163v-7.0814a8.849,8.849,0,0,0-17.6979,0v7.0814" />
            <path class="cls-2" d="M454.0056,425.377s-25.2182-14.7842-25.2182-43.8084" />
            <path class="cls-2" d="M479.2335,381.5686c0,29.0242-25.2279,43.8084-25.2279,43.8084" />
            <polyline class="cls-2" points="428.787 381.569 454.01 366.966 479.233 381.569" />
            <circle class="cls-3" cx="479.2335" cy="381.5686" r="2.6551" />
            <circle class="cls-3" cx="428.7874" cy="381.5686" r="2.6551" />
            <circle class="cls-3" cx="454.0104" cy="425.377" r="2.6551" />
        </g>
        <path id="Cloud" class="cls-4" d="M613.2518,383.6106a31.0057,31.0057,0,0,0-30.4786,25.1767,23.2543,23.2543,0,0,0,4.0927,46.1365h52.71a23.2543,23.2543,0,0,0,4.0928-46.1365A31.0058,31.0058,0,0,0,619.05,384.1687,31.8415,31.8415,0,0,0,613.2518,383.6106Z" />
        <g id="Hardware">
            <rect class="cls-5" x="588.4383" y="428.7418" width="49.5611" height="13.1191" />
            <polygon class="cls-5" points="637.999 428.256 588.438 428.256 597.184 409.306 629.253 409.306 637.999 428.256" />
            <rect x="619.7784" y="432.386" width="5.8307" height="5.8307" />
            <rect x="627.7956" y="432.386" width="5.8307" height="5.8307" />
        </g>
        <g id="lock">
            <g id="lock-2" data-name="lock">
                <rect class="cls-6" x="582.7453" y="426.9878" width="8.921" height="2.9737" />
                <path class="cls-7" d="M587.2058,441.3605v-3.4693m-4.9561-8.0884v-6.2843a4.9561,4.9561,0,1,1,9.9122,0v6.2843m1.9825,1.5067a10.1526,10.1526,0,0,0-1.9825-1.5067,9.9108,9.9108,0,0,0-9.9122,0,10.1549,10.1549,0,0,0-1.9824,1.5067,9.9123,9.9123,0,1,0,13.8771,0Z" />
                <circle cx="587.2058" cy="437.8912" r="1.8585" />
            </g>
        </g>
        <rect class="cls-8" x="384.0054" y="72.0644" width="452.2449" height="179.6589" />
        <g id="Database">
            <path class="cls-3" d="M806.2923,119.7341H747.2617c-4.0752,0-7.3788,2.8317-7.3788,6.3247v69.5718c0,3.493,3.3036,6.3247,7.3788,6.3247h59.0306c4.0752,0,7.3788-2.8317,7.3788-6.3247V126.0588C813.6711,122.5658,810.3675,119.7341,806.2923,119.7341Z" />
            <line class="cls-9" x1="739.6062" y1="146.7986" x2="813.9478" y2="146.7986" />
            <line class="cls-9" x1="740.8052" y1="174.8908" x2="813.9478" y2="174.8908" />
            <circle cx="752.7958" cy="132.1872" r="3.7171" />
            <circle cx="752.7958" cy="160.8447" r="3.7171" />
            <circle cx="752.7958" cy="188.3032" r="3.7171" />
        </g>
        <g id="application">
            <g id="application-2" data-name="application">
                <path class="cls-10" d="M729.1086,201.8778H654.7669V132.4922h74.3417Zm-74.3417-61.9514h74.3417m-54.5172,0v61.9514" />
                <path d="M724.1525,136.2093a1.2391,1.2391,0,1,1-1.2391-1.239A1.2394,1.2394,0,0,1,724.1525,136.2093Zm-6.1952-1.239a1.239,1.239,0,1,0,1.239,1.239A1.2395,1.2395,0,0,0,717.9573,134.97Zm-4.9561,0a1.239,1.239,0,1,0,1.239,1.239A1.2395,1.2395,0,0,0,713.0012,134.97Z" />
            </g>
        </g>
        <g id="application-3" data-name="application">
            <g id="application-4" data-name="application">
                <path class="cls-10" d="M715.4793,189.4875H641.1376V120.102h74.3417Zm-74.3417-61.9514h74.3417m-54.5172,0v61.9514" />
                <path d="M710.5232,123.819a1.2391,1.2391,0,1,1-1.2391-1.239A1.24,1.24,0,0,1,710.5232,123.819Zm-6.1952-1.239a1.2391,1.2391,0,1,0,1.239,1.239A1.2395,1.2395,0,0,0,704.328,122.58Zm-4.9561,0a1.2391,1.2391,0,1,0,1.239,1.239A1.2395,1.2395,0,0,0,699.3719,122.58Z" />
            </g>
        </g>
        <g id="key">
            <path class="cls-11" d="M743.7217,424.4351a14.472,14.472,0,1,1-.6874-9.8322" />
            <circle cx="725.1134" cy="420.4504" r="3.0976" />
            <polyline class="cls-12" points="743.034 414.603 771.933 414.603 777.342 420.012 772.68 424.674 754.51 424.674 751.253 421.447 748.264 424.435 743.722 424.435" />
        </g>
        <circle cx="290.6881" cy="87.6364" r="7.4342" />
        <path d="M303.6979,107.4609v3.7171h-26.02v-3.7171A11.184,11.184,0,0,1,288.83,96.31h3.7171A11.1841,11.1841,0,0,1,303.6979,107.4609Z" />
        <circle cx="264.6685" cy="87.6364" r="7.4342" />
        <path d="M277.6783,107.4609v3.7171h-26.02v-3.7171A11.1841,11.1841,0,0,1,262.81,96.31h3.717A11.1841,11.1841,0,0,1,277.6783,107.4609Z" />
        <circle class="cls-13" cx="277.6783" cy="97.5487" r="7.4342" />
        <path class="cls-13" d="M290.6881,117.3731V121.09h-26.02v-3.7171A11.184,11.184,0,0,1,275.82,106.2219h3.717A11.184,11.184,0,0,1,290.6881,117.3731Z" />
        <rect x="264.9783" y="212.7192" width="3.175" height="6.35" />
        <rect x="264.9783" y="222.2443" width="3.175" height="6.35" />
        <rect x="274.5033" y="212.7192" width="3.175" height="6.35" />
        <rect x="274.5033" y="222.2443" width="3.175" height="6.35" />
        <rect x="264.9783" y="231.7693" width="3.175" height="6.35" />
        <rect x="274.5033" y="231.7693" width="3.175" height="6.35" />
        <path d="M299.9033,222.2443a3.175,3.175,0,0,0-3.175-3.175h-9.525v-12.7a3.175,3.175,0,0,0-3.175-3.175h-25.4a3.175,3.175,0,0,0-3.1751,3.175v41.2751h44.45Zm-41.275-15.8751h25.4v38.1h-25.4Zm28.575,38.1v-22.225h9.525v22.225Z" />
        <g id="Router">
            <path class="cls-4" d="M425.5469,164.7069c0,7.5333,22.191,13.6293,49.5611,13.6293s49.5611-6.096,49.5611-13.6293" />
            <polyline class="cls-14" points="524.669 164.707 524.669 146.122 425.547 146.122 425.547 164.707" />
            <ellipse class="cls-4" cx="475.108" cy="146.741" rx="49.5611" ry="13.6293" />
            <polygon points="510.806 153.187 506.172 154.732 485.285 150.92 489.918 149.375 510.806 153.187" />
            <polygon points="479.461 147.975 480.912 152.379 492.515 148.509 479.461 147.975" />
            <polygon points="440.455 139.807 445.089 138.261 465.977 142.073 461.343 143.619 440.455 139.807" />
            <polygon points="471.8 145.019 470.349 140.615 458.746 144.485 471.8 145.019" />
            <polygon points="478.865 144.713 483.499 146.258 504.386 142.446 499.753 140.9 478.865 144.713" />
            <polygon points="510.21 139.5 508.759 143.904 497.156 140.034 510.21 139.5" />
            <polygon points="475.082 149.241 470.449 147.695 449.561 151.507 454.194 153.053 475.082 149.241" />
            <polygon points="443.737 154.453 445.188 150.049 456.791 153.919 443.737 154.453" />
        </g>
        <path d="M268.3856,182.0533h-9.2927a3.0975,3.0975,0,0,1-3.0976-3.0975V160.37a3.0975,3.0975,0,0,1,3.0976-3.0975h9.2927a3.0976,3.0976,0,0,1,3.0976,3.0975v18.5855A3.0976,3.0976,0,0,1,268.3856,182.0533Zm-9.2927-21.683v18.5855h9.2927V160.37Z" />
        <path d="M296.2637,141.7849H262.1905a3.0976,3.0976,0,0,0-3.0976,3.0976v9.2927h3.0976v-9.2927h34.0732v21.683h-21.683v3.0976h3.0976v6.1951h-3.0976v3.0976H288.52v-3.0976h-7.7439v-6.1951h15.4878a3.0977,3.0977,0,0,0,3.0976-3.0976v-21.683A3.0977,3.0977,0,0,0,296.2637,141.7849Z" />
        <g id="lock-3" data-name="lock">
            <g id="lock-4" data-name="lock">
                <rect class="cls-15" x="421.482" y="165.8456" width="8.921" height="2.9737" />
                <path class="cls-16" d="M425.9425,180.2183V176.749m-4.9561-8.0883v-6.2844a4.9561,4.9561,0,0,1,9.9122,0v6.2844m1.9824,1.5066a10.16,10.16,0,0,0-1.9824-1.5067,9.9108,9.9108,0,0,0-9.9122,0,10.16,10.16,0,0,0-1.9825,1.5067,9.9123,9.9123,0,1,0,13.8771,0Z" />
                <circle cx="425.9425" cy="176.749" r="1.8585" />
            </g>
        </g>
    </g>
    <g id="Text">
        <text class="cls-17" transform="translate(33.5518 39.9901)">Protecting data in transit with TLS/SSL offloading</text>
        <text class="cls-17" transform="translate(525.2539 361.5672)">Hyper Protect Crypto Services</text>
        <text class="cls-17" transform="translate(491.1133 296.5877)">PKCS #11</text>
        <text class="cls-17" transform="translate(543.7832 178.2948)">
            TLS/SSL
            <tspan x="-7.1641" y="21.6001">offloading</tspan>
        </text>
    </g>
    <g id="Line">
        <line class="cls-18" x1="359.2597" y1="154.4614" x2="415.4362" y2="154.4614" />
        <polygon class="cls-19" points="414.269 158.45 421.177 154.461 414.269 150.472 414.269 158.45" />
        <line class="cls-18" x1="536.4398" y1="154.1761" x2="626.0699" y2="154.4435" />
        <polygon class="cls-19" points="624.891 158.429 631.811 154.461 624.915 150.451 624.891 158.429" />
        <line class="cls-18" x1="314.654" y1="97.18" x2="359.259" y2="97.18" />
        <line class="cls-18" x1="314.654" y1="218.6046" x2="359.259" y2="218.6046" />
        <line class="cls-20" x1="475.6934" y1="192.1309" x2="475.6934" y2="319.42" />
        <polygon class="cls-19" points="471.704 193.298 475.693 186.39 479.682 193.298 471.704 193.298" />
        <polygon class="cls-19" points="471.704 318.253 475.693 325.161 479.682 318.253 471.704 318.253" />
        <line class="cls-18" x1="359.259" y1="218.6046" x2="359.259" y2="97.18" />
    </g>
</svg>