<svg width="1191" height="485" viewBox="0 0 1191 485" fill="none" xmlns="http://www.w3.org/2000/svg">
<rect width="1191" height="485" fill="white"/>
<rect x="449" y="151" width="71" height="36" fill="#D9D9D9"/>
<rect x="121.5" y="90.5" width="414" height="285" stroke="#0F62FE"/>
<rect x="122" y="91" width="413" height="284" fill="white"/>
<rect x="122" y="91" width="413" height="284" fill="#EDF5FF"/>
<g clip-path="url(#clip0_1_6438)">
<path d="M192.07 119V114.87H187.996V119H186.148V109.228H187.996V113.232H192.07V109.228H193.918V119H192.07ZM199.464 115.556L200.739 111.692H202.418L199.479 120.302C199.115 121.352 198.597 121.8 197.392 121.8H196.314V120.372H197.63L197.966 119.35L195.348 111.692H197.126L198.401 115.556L198.876 117.404H198.961L199.464 115.556ZM203.76 121.8V111.692H205.552V112.896H205.608C205.874 112.056 206.658 111.524 207.624 111.524C209.472 111.524 210.494 112.896 210.494 115.332C210.494 117.782 209.472 119.168 207.624 119.168C206.658 119.168 205.888 118.608 205.608 117.782H205.552V121.8H203.76ZM207.05 117.684C207.974 117.684 208.618 117.012 208.618 115.976V114.716C208.618 113.68 207.974 112.994 207.05 112.994C206.196 112.994 205.552 113.456 205.552 114.17V116.494C205.552 117.25 206.196 117.684 207.05 117.684ZM215.269 119.168C213.113 119.168 211.825 117.67 211.825 115.332C211.825 113.022 213.071 111.524 215.213 111.524C217.495 111.524 218.545 113.204 218.545 115.206V115.794H213.687V115.976C213.687 117.026 214.289 117.74 215.465 117.74C216.347 117.74 216.879 117.32 217.327 116.746L218.293 117.824C217.691 118.65 216.627 119.168 215.269 119.168ZM215.241 112.868C214.303 112.868 213.687 113.568 213.687 114.576V114.688H216.683V114.562C216.683 113.554 216.165 112.868 215.241 112.868ZM222.073 119H220.281V111.692H222.073V113.204H222.143C222.325 112.434 222.913 111.692 224.075 111.692H224.467V113.386H223.907C222.703 113.386 222.073 113.722 222.073 114.52V119ZM231.366 119H229.518V109.228H233.914C235.72 109.228 236.812 110.446 236.812 112.252C236.812 114.072 235.72 115.276 233.914 115.276H231.366V119ZM231.366 110.838V113.68H233.746C234.46 113.68 234.894 113.288 234.894 112.574V111.93C234.894 111.216 234.46 110.838 233.746 110.838H231.366ZM240.19 119H238.398V111.692H240.19V113.204H240.26C240.442 112.434 241.03 111.692 242.192 111.692H242.584V113.386H242.024C240.82 113.386 240.19 113.722 240.19 114.52V119ZM246.884 119.168C244.798 119.168 243.496 117.684 243.496 115.332C243.496 112.994 244.798 111.524 246.884 111.524C248.984 111.524 250.286 112.994 250.286 115.332C250.286 117.684 248.984 119.168 246.884 119.168ZM246.884 117.726C247.822 117.726 248.41 117.124 248.41 116.018V114.66C248.41 113.568 247.822 112.966 246.884 112.966C245.96 112.966 245.372 113.568 245.372 114.66V116.018C245.372 117.124 245.96 117.726 246.884 117.726ZM254.262 119C253.03 119 252.372 118.328 252.372 117.138V113.12H251.294V111.692H251.854C252.386 111.692 252.554 111.44 252.554 110.936V109.69H254.164V111.692H255.662V113.12H254.164V117.572H255.55V119H254.262ZM260.276 119.168C258.12 119.168 256.832 117.67 256.832 115.332C256.832 113.022 258.078 111.524 260.22 111.524C262.502 111.524 263.552 113.204 263.552 115.206V115.794H258.694V115.976C258.694 117.026 259.296 117.74 260.472 117.74C261.354 117.74 261.886 117.32 262.334 116.746L263.3 117.824C262.698 118.65 261.634 119.168 260.276 119.168ZM260.248 112.868C259.31 112.868 258.694 113.568 258.694 114.576V114.688H261.69V114.562C261.69 113.554 261.172 112.868 260.248 112.868ZM268.172 119.168C266.016 119.168 264.798 117.684 264.798 115.332C264.798 112.994 266.016 111.524 268.172 111.524C269.642 111.524 270.608 112.224 271.042 113.372L269.572 114.03C269.404 113.414 268.942 112.966 268.172 112.966C267.178 112.966 266.674 113.666 266.674 114.688V116.018C266.674 117.04 267.178 117.726 268.172 117.726C269.026 117.726 269.446 117.236 269.712 116.578L271.084 117.236C270.608 118.524 269.586 119.168 268.172 119.168ZM274.908 119C273.676 119 273.018 118.328 273.018 117.138V113.12H271.94V111.692H272.5C273.032 111.692 273.2 111.44 273.2 110.936V109.69H274.81V111.692H276.308V113.12H274.81V117.572H276.196V119H274.908ZM285.397 119.168C282.821 119.168 281.183 117.474 281.183 114.184C281.183 110.894 282.821 109.06 285.397 109.06C287.147 109.06 288.281 109.802 288.967 111.314L287.385 112.154C287.105 111.286 286.489 110.698 285.397 110.698C284.025 110.698 283.143 111.692 283.143 113.358V114.898C283.143 116.578 284.025 117.53 285.397 117.53C286.503 117.53 287.189 116.858 287.511 115.976L289.009 116.858C288.309 118.314 287.147 119.168 285.397 119.168ZM292.425 119H290.633V111.692H292.425V113.204H292.495C292.677 112.434 293.265 111.692 294.427 111.692H294.819V113.386H294.259C293.055 113.386 292.425 113.722 292.425 114.52V119ZM299.605 115.556L300.879 111.692H302.559L299.619 120.302C299.255 121.352 298.737 121.8 297.533 121.8H296.455V120.372H297.771L298.107 119.35L295.489 111.692H297.267L298.541 115.556L299.017 117.404H299.101L299.605 115.556ZM303.901 121.8V111.692H305.693V112.896H305.749C306.015 112.056 306.799 111.524 307.765 111.524C309.613 111.524 310.635 112.896 310.635 115.332C310.635 117.782 309.613 119.168 307.765 119.168C306.799 119.168 306.029 118.608 305.749 117.782H305.693V121.8H303.901ZM307.191 117.684C308.115 117.684 308.759 117.012 308.759 115.976V114.716C308.759 113.68 308.115 112.994 307.191 112.994C306.337 112.994 305.693 113.456 305.693 114.17V116.494C305.693 117.25 306.337 117.684 307.191 117.684ZM314.655 119C313.423 119 312.765 118.328 312.765 117.138V113.12H311.687V111.692H312.247C312.779 111.692 312.947 111.44 312.947 110.936V109.69H314.557V111.692H316.055V113.12H314.557V117.572H315.943V119H314.655ZM320.613 119.168C318.527 119.168 317.225 117.684 317.225 115.332C317.225 112.994 318.527 111.524 320.613 111.524C322.713 111.524 324.015 112.994 324.015 115.332C324.015 117.684 322.713 119.168 320.613 119.168ZM320.613 117.726C321.551 117.726 322.139 117.124 322.139 116.018V114.66C322.139 113.568 321.551 112.966 320.613 112.966C319.689 112.966 319.101 113.568 319.101 114.66V116.018C319.101 117.124 319.689 117.726 320.613 117.726ZM332.382 119.168C330.716 119.168 329.568 118.51 328.742 117.544L329.988 116.34C330.66 117.124 331.486 117.544 332.494 117.544C333.628 117.544 334.216 116.998 334.216 116.172C334.216 115.514 333.908 115.108 332.886 114.926L331.962 114.786C329.988 114.478 329.036 113.54 329.036 111.944C329.036 110.194 330.394 109.06 332.578 109.06C334.048 109.06 335.14 109.564 335.924 110.502L334.664 111.692C334.188 111.09 333.516 110.684 332.48 110.684C331.43 110.684 330.884 111.104 330.884 111.832C330.884 112.574 331.304 112.882 332.242 113.05L333.152 113.218C335.126 113.568 336.05 114.45 336.05 116.06C336.05 117.908 334.72 119.168 332.382 119.168ZM340.905 119.168C338.749 119.168 337.461 117.67 337.461 115.332C337.461 113.022 338.707 111.524 340.849 111.524C343.131 111.524 344.181 113.204 344.181 115.206V115.794H339.323V115.976C339.323 117.026 339.925 117.74 341.101 117.74C341.983 117.74 342.515 117.32 342.963 116.746L343.929 117.824C343.327 118.65 342.263 119.168 340.905 119.168ZM340.877 112.868C339.939 112.868 339.323 113.568 339.323 114.576V114.688H342.319V114.562C342.319 113.554 341.801 112.868 340.877 112.868ZM347.709 119H345.917V111.692H347.709V113.204H347.779C347.961 112.434 348.549 111.692 349.711 111.692H350.103V113.386H349.543C348.339 113.386 347.709 113.722 347.709 114.52V119ZM355.379 119H353.251L350.815 111.692H352.579L353.601 114.842L354.315 117.446H354.413L355.127 114.842L356.121 111.692H357.829L355.379 119ZM360.08 110.628C359.338 110.628 359.03 110.25 359.03 109.732V109.452C359.03 108.934 359.338 108.556 360.08 108.556C360.808 108.556 361.13 108.934 361.13 109.452V109.732C361.13 110.25 360.808 110.628 360.08 110.628ZM359.184 119V111.692H360.976V119H359.184ZM366.098 119.168C363.942 119.168 362.724 117.684 362.724 115.332C362.724 112.994 363.942 111.524 366.098 111.524C367.568 111.524 368.534 112.224 368.968 113.372L367.498 114.03C367.33 113.414 366.868 112.966 366.098 112.966C365.104 112.966 364.6 113.666 364.6 114.688V116.018C364.6 117.04 365.104 117.726 366.098 117.726C366.952 117.726 367.372 117.236 367.638 116.578L369.01 117.236C368.534 118.524 367.512 119.168 366.098 119.168ZM373.437 119.168C371.281 119.168 369.993 117.67 369.993 115.332C369.993 113.022 371.239 111.524 373.381 111.524C375.663 111.524 376.713 113.204 376.713 115.206V115.794H371.855V115.976C371.855 117.026 372.457 117.74 373.633 117.74C374.515 117.74 375.047 117.32 375.495 116.746L376.461 117.824C375.859 118.65 374.795 119.168 373.437 119.168ZM373.409 112.868C372.471 112.868 371.855 113.568 371.855 114.576V114.688H374.851V114.562C374.851 113.554 374.333 112.868 373.409 112.868ZM380.844 119.168C379.458 119.168 378.548 118.664 377.82 117.824L378.912 116.76C379.444 117.376 380.088 117.754 380.914 117.754C381.768 117.754 382.132 117.432 382.132 116.914C382.132 116.494 381.88 116.228 381.236 116.144L380.508 116.046C378.94 115.85 378.072 115.164 378.072 113.834C378.072 112.42 379.178 111.524 380.844 111.524C382.272 111.524 383 111.944 383.7 112.672L382.65 113.722C382.23 113.274 381.614 112.938 380.9 112.938C380.13 112.938 379.794 113.246 379.794 113.694C379.794 114.184 380.06 114.408 380.746 114.52L381.488 114.618C383.084 114.842 383.854 115.556 383.854 116.774C383.854 118.188 382.664 119.168 380.844 119.168Z" fill="black"/>
<rect width="48" height="48" transform="translate(121 90)" fill="#0F62FE"/>
<rect width="24" height="24" transform="translate(133 102)" fill="white" fill-opacity="0.01" style="mix-blend-mode:multiply"/>
<path d="M151.75 124.5L150.175 123.75C148.9 123.15 148 121.8 148 120.375V115.5H155.5V120.375C155.5 121.8 154.675 123.15 153.325 123.75L151.75 124.5ZM149.5 117V120.375C149.5 121.275 150.025 122.025 150.775 122.4L151.75 122.85L152.725 122.4C153.475 122.025 154 121.2 154 120.375V117H149.5Z" fill="white"/>
<path d="M149.5 111C150.328 111 151 110.328 151 109.5C151 108.672 150.328 108 149.5 108C148.672 108 148 108.672 148 109.5C148 110.328 148.672 111 149.5 111Z" fill="white"/>
<path d="M148.75 103.5C145 103.5 142 106.5 142 110.25C142 110.925 142.075 111.6 142.3 112.2L134.5 120V124.5H139L146.5 117L145.45 115.95L143.35 118.05L142.3 117L141.25 118.05L142.3 119.1L141.1 120.3L140.05 119.25L139 120.3L140.05 121.35L138.4 123H136V120.6L143.95 112.65L143.725 111.75C143.575 111.225 143.5 110.775 143.5 110.25C143.5 107.325 145.825 105 148.75 105C151.675 105 154 107.325 154 110.25C154 111.375 153.625 112.425 153.025 113.25H154.75C155.2 112.35 155.425 111.3 155.425 110.25C155.5 106.5 152.5 103.5 148.75 103.5Z" fill="white"/>
</g>
<rect x="185.5" y="138.5" width="226" height="166" stroke="#0F62FE"/>
<rect x="186" y="139" width="225" height="165" fill="white"/>
<g clip-path="url(#clip1_1_6438)">
<path d="M238.654 167H236.806V157.228H243.092V158.866H238.654V161.232H242.518V162.87H238.654V167ZM249.078 167H244.64V165.516H245.928V158.712H244.64V157.228H249.078V158.712H247.776V165.516H249.078V167ZM252.974 167H251.126V157.228H255.522C257.328 157.228 258.42 158.446 258.42 160.252C258.42 162.072 257.328 163.276 255.522 163.276H252.974V167ZM252.974 158.838V161.68H255.354C256.068 161.68 256.502 161.288 256.502 160.574V159.93C256.502 159.216 256.068 158.838 255.354 158.838H252.974ZM263.197 167.168C261.531 167.168 260.383 166.51 259.557 165.544L260.803 164.34C261.475 165.124 262.301 165.544 263.309 165.544C264.443 165.544 265.031 164.998 265.031 164.172C265.031 163.514 264.723 163.108 263.701 162.926L262.777 162.786C260.803 162.478 259.851 161.54 259.851 159.944C259.851 158.194 261.209 157.06 263.393 157.06C264.863 157.06 265.955 157.564 266.739 158.502L265.479 159.692C265.003 159.09 264.331 158.684 263.295 158.684C262.245 158.684 261.699 159.104 261.699 159.832C261.699 160.574 262.119 160.882 263.057 161.05L263.967 161.218C265.941 161.568 266.865 162.45 266.865 164.06C266.865 165.908 265.535 167.168 263.197 167.168ZM279.206 167H272.472V165.502H275.16V158.558H275.034L272.906 161.078L271.758 160.112L274.18 157.228H276.966V165.502H279.206V167ZM286.374 167H284.624V165.11H280.2V163.542L284.092 157.228H286.374V163.682H287.648V165.11H286.374V167ZM284.512 159.02L281.712 163.682H284.624V159.02H284.512ZM292.507 167.168C290.015 167.168 288.867 165.306 288.867 162.114C288.867 158.922 290.015 157.06 292.507 157.06C294.999 157.06 296.147 158.922 296.147 162.114C296.147 165.306 294.999 167.168 292.507 167.168ZM292.507 165.614C293.753 165.614 294.187 164.606 294.187 162.996V161.232C294.187 159.622 293.753 158.614 292.507 158.614C291.261 158.614 290.827 159.622 290.827 161.232V162.996C290.827 164.606 291.261 165.614 292.507 165.614ZM301.677 163.626H297.673V161.848H301.677V163.626ZM310.298 165.446V167H303.522V165.292L306.588 162.604C307.624 161.694 308.1 161.022 308.1 160.168V159.986C308.1 159.132 307.456 158.656 306.658 158.656C305.65 158.656 305.174 159.314 304.95 160.112L303.354 159.496C303.774 158.194 304.824 157.06 306.812 157.06C308.87 157.06 310.046 158.292 310.046 159.972C310.046 161.596 308.94 162.632 307.582 163.752L305.524 165.446H310.298ZM321.523 167H315.825V157.228H317.673V165.362H321.523V167ZM325.991 167.168C323.835 167.168 322.547 165.67 322.547 163.332C322.547 161.022 323.793 159.524 325.935 159.524C328.217 159.524 329.267 161.204 329.267 163.206V163.794H324.409V163.976C324.409 165.026 325.011 165.74 326.187 165.74C327.069 165.74 327.601 165.32 328.049 164.746L329.015 165.824C328.413 166.65 327.349 167.168 325.991 167.168ZM325.963 160.868C325.025 160.868 324.409 161.568 324.409 162.576V162.688H327.405V162.562C327.405 161.554 326.887 160.868 325.963 160.868ZM334.577 167H332.449L330.013 159.692H331.777L332.799 162.842L333.513 165.446H333.611L334.325 162.842L335.319 159.692H337.027L334.577 167ZM341.227 167.168C339.071 167.168 337.783 165.67 337.783 163.332C337.783 161.022 339.029 159.524 341.171 159.524C343.453 159.524 344.503 161.204 344.503 163.206V163.794H339.645V163.976C339.645 165.026 340.247 165.74 341.423 165.74C342.305 165.74 342.837 165.32 343.285 164.746L344.251 165.824C343.649 166.65 342.585 167.168 341.227 167.168ZM341.199 160.868C340.261 160.868 339.645 161.568 339.645 162.576V162.688H342.641V162.562C342.641 161.554 342.123 160.868 341.199 160.868ZM348.998 167H348.032C346.814 167 346.24 166.356 346.24 165.236V156.64H348.032V165.572H348.998V167ZM359.57 167H357.82V165.11H353.396V163.542L357.288 157.228H359.57V163.682H360.844V165.11H359.57V167ZM357.708 159.02L354.908 163.682H357.82V159.02H357.708ZM292.119 185V180.87H288.045V185H286.197V175.228H288.045V179.232H292.119V175.228H293.967V185H292.119ZM299.457 185.168C297.791 185.168 296.643 184.51 295.817 183.544L297.063 182.34C297.735 183.124 298.561 183.544 299.569 183.544C300.703 183.544 301.291 182.998 301.291 182.172C301.291 181.514 300.983 181.108 299.961 180.926L299.037 180.786C297.063 180.478 296.111 179.54 296.111 177.944C296.111 176.194 297.469 175.06 299.653 175.06C301.123 175.06 302.215 175.564 302.999 176.502L301.739 177.692C301.263 177.09 300.591 176.684 299.555 176.684C298.505 176.684 297.959 177.104 297.959 177.832C297.959 178.574 298.379 178.882 299.317 179.05L300.227 179.218C302.201 179.568 303.125 180.45 303.125 182.06C303.125 183.908 301.795 185.168 299.457 185.168ZM305.138 185V175.228H307.224L309.73 180.002H309.786L312.264 175.228H314.266V185H312.516V177.986H312.46L311.704 179.54L309.702 183.236L307.7 179.54L306.944 177.986H306.888V185H305.138Z" fill="black"/>
</g>
<path d="M244.802 266.168C242.31 266.168 240.784 264.376 240.784 261.114C240.784 257.852 242.31 256.06 244.802 256.06C246.454 256.06 247.588 256.83 248.218 258.23L247.098 258.874C246.734 257.908 245.978 257.278 244.802 257.278C243.206 257.278 242.24 258.468 242.24 260.372V261.856C242.24 263.76 243.206 264.95 244.802 264.95C246.006 264.95 246.818 264.264 247.182 263.256L248.274 263.914C247.644 265.314 246.454 266.168 244.802 266.168ZM254.523 266V264.81H254.453C254.187 265.51 253.627 266.168 252.423 266.168C250.939 266.168 250.015 265.146 250.015 263.382V258.748H251.317V263.186C251.317 264.404 251.835 265.034 252.857 265.034C253.683 265.034 254.523 264.614 254.523 263.704V258.748H255.825V266H254.523ZM260.51 266.168C259.166 266.168 258.284 265.622 257.612 264.768L258.494 264.012C259.04 264.698 259.712 265.09 260.594 265.09C261.518 265.09 262.022 264.684 262.022 264.012C262.022 263.48 261.742 263.102 260.86 262.976L260.244 262.878C258.858 262.682 257.892 262.108 257.892 260.764C257.892 259.336 258.998 258.58 260.524 258.58C261.756 258.58 262.526 259.014 263.142 259.742L262.316 260.526C261.966 260.064 261.35 259.658 260.482 259.658C259.6 259.658 259.152 260.064 259.152 260.68C259.152 261.324 259.572 261.59 260.412 261.716L261.028 261.814C262.624 262.052 263.282 262.752 263.282 263.872C263.282 265.286 262.218 266.168 260.51 266.168ZM268.362 266H266.99C266.094 266 265.618 265.468 265.618 264.628V259.854H264.456V258.748H265.1C265.59 258.748 265.744 258.566 265.744 258.076V256.746H266.92V258.748H268.474V259.854H266.92V264.894H268.362V266ZM273.107 266.168C271.133 266.168 269.803 264.684 269.803 262.374C269.803 260.064 271.133 258.58 273.107 258.58C275.081 258.58 276.411 260.064 276.411 262.374C276.411 264.684 275.081 266.168 273.107 266.168ZM273.107 265.048C274.241 265.048 275.025 264.334 275.025 262.92V261.828C275.025 260.414 274.241 259.7 273.107 259.7C271.973 259.7 271.189 260.414 271.189 261.828V262.92C271.189 264.334 271.973 265.048 273.107 265.048ZM279.645 266H278.343V258.748H279.645V259.938H279.715C280.023 259.196 280.681 258.58 281.647 258.58C282.613 258.58 283.467 259.028 283.845 260.05H283.873C284.139 259.266 284.867 258.58 286.085 258.58C287.541 258.58 288.409 259.602 288.409 261.366V266H287.107V261.562C287.107 260.344 286.645 259.714 285.637 259.714C284.797 259.714 284.027 260.148 284.027 261.03V266H282.725V261.562C282.725 260.344 282.263 259.714 281.269 259.714C280.443 259.714 279.645 260.148 279.645 261.03V266ZM293.552 266.168C291.536 266.168 290.262 264.67 290.262 262.374C290.262 260.078 291.536 258.58 293.552 258.58C295.582 258.58 296.73 260.12 296.73 262.15V262.696H291.62V262.99C291.62 264.194 292.362 265.062 293.664 265.062C294.574 265.062 295.232 264.628 295.624 263.886L296.464 264.6C295.96 265.538 294.91 266.168 293.552 266.168ZM293.552 259.63C292.418 259.63 291.62 260.498 291.62 261.688V261.786H295.344V261.646C295.344 260.442 294.644 259.63 293.552 259.63ZM299.966 266H298.664V258.748H299.966V260.134H300.036C300.274 259.42 300.918 258.748 302.08 258.748H302.514V260.05H301.87C300.666 260.05 299.966 260.526 299.966 261.24V266ZM308.845 266H307.543V258.748H308.845V259.938H308.915C309.223 259.196 309.881 258.58 310.847 258.58C311.813 258.58 312.667 259.028 313.045 260.05H313.073C313.339 259.266 314.067 258.58 315.285 258.58C316.741 258.58 317.609 259.602 317.609 261.366V266H316.307V261.562C316.307 260.344 315.845 259.714 314.837 259.714C313.997 259.714 313.227 260.148 313.227 261.03V266H311.925V261.562C311.925 260.344 311.463 259.714 310.469 259.714C309.643 259.714 308.845 260.148 308.845 261.03V266ZM326 266H325.258C324.46 266 324.082 265.496 323.984 264.796H323.914C323.62 265.692 322.85 266.168 321.814 266.168C320.302 266.168 319.42 265.328 319.42 263.998C319.42 262.598 320.442 261.842 322.514 261.842H323.886V261.184C323.886 260.218 323.368 259.672 322.276 259.672C321.422 259.672 320.876 260.092 320.498 260.708L319.714 259.994C320.148 259.21 321.002 258.58 322.346 258.58C324.152 258.58 325.188 259.504 325.188 261.072V264.894H326V266ZM322.108 265.118C323.13 265.118 323.886 264.6 323.886 263.872V262.752H322.5C321.31 262.752 320.778 263.116 320.778 263.788V264.068C320.778 264.74 321.296 265.118 322.108 265.118ZM329.941 266.168C328.597 266.168 327.715 265.622 327.043 264.768L327.925 264.012C328.471 264.698 329.143 265.09 330.025 265.09C330.949 265.09 331.453 264.684 331.453 264.012C331.453 263.48 331.173 263.102 330.291 262.976L329.675 262.878C328.289 262.682 327.323 262.108 327.323 260.764C327.323 259.336 328.429 258.58 329.955 258.58C331.187 258.58 331.957 259.014 332.573 259.742L331.747 260.526C331.397 260.064 330.781 259.658 329.913 259.658C329.031 259.658 328.583 260.064 328.583 260.68C328.583 261.324 329.003 261.59 329.843 261.716L330.459 261.814C332.055 262.052 332.713 262.752 332.713 263.872C332.713 265.286 331.649 266.168 329.941 266.168ZM337.792 266H336.42C335.524 266 335.048 265.468 335.048 264.628V259.854H333.886V258.748H334.53C335.02 258.748 335.174 258.566 335.174 258.076V256.746H336.35V258.748H337.904V259.854H336.35V264.894H337.792V266ZM342.523 266.168C340.507 266.168 339.233 264.67 339.233 262.374C339.233 260.078 340.507 258.58 342.523 258.58C344.553 258.58 345.701 260.12 345.701 262.15V262.696H340.591V262.99C340.591 264.194 341.333 265.062 342.635 265.062C343.545 265.062 344.203 264.628 344.595 263.886L345.435 264.6C344.931 265.538 343.881 266.168 342.523 266.168ZM342.523 259.63C341.389 259.63 340.591 260.498 340.591 261.688V261.786H344.315V261.646C344.315 260.442 343.615 259.63 342.523 259.63ZM348.938 266H347.636V258.748H348.938V260.134H349.008C349.246 259.42 349.89 258.748 351.052 258.748H351.486V260.05H350.842C349.638 260.05 348.938 260.526 348.938 261.24V266ZM356.515 266V255.64H357.817V262.094H357.887L358.923 260.82L360.813 258.748H362.353L359.777 261.548L362.689 266H361.121L358.853 262.388L357.817 263.494V266H356.515ZM366.706 266.168C364.69 266.168 363.416 264.67 363.416 262.374C363.416 260.078 364.69 258.58 366.706 258.58C368.736 258.58 369.884 260.12 369.884 262.15V262.696H364.774V262.99C364.774 264.194 365.516 265.062 366.818 265.062C367.728 265.062 368.386 264.628 368.778 263.886L369.618 264.6C369.114 265.538 368.064 266.168 366.706 266.168ZM366.706 259.63C365.572 259.63 364.774 260.498 364.774 261.688V261.786H368.498V261.646C368.498 260.442 367.798 259.63 366.706 259.63ZM374.593 263.382L376.217 258.748H377.477L374.327 267.582C373.991 268.492 373.641 268.8 372.535 268.8H371.821V267.694H373.011L373.501 266.294L370.813 258.748H372.115L373.725 263.382L374.103 264.74H374.173L374.593 263.382Z" fill="black"/>
<path d="M456.618 198.94V203H455.26V193.228H459.292C461.014 193.228 462.064 194.306 462.064 196.098C462.064 197.512 461.406 198.478 460.146 198.8L462.316 203H460.79L458.76 198.94H456.618ZM456.618 197.764H459.236C460.104 197.764 460.622 197.288 460.622 196.448V195.748C460.622 194.908 460.104 194.432 459.236 194.432H456.618V197.764ZM466.953 203.168C464.979 203.168 463.649 201.684 463.649 199.374C463.649 197.064 464.979 195.58 466.953 195.58C468.927 195.58 470.257 197.064 470.257 199.374C470.257 201.684 468.927 203.168 466.953 203.168ZM466.953 202.048C468.087 202.048 468.871 201.334 468.871 199.92V198.828C468.871 197.414 468.087 196.7 466.953 196.7C465.819 196.7 465.035 197.414 465.035 198.828V199.92C465.035 201.334 465.819 202.048 466.953 202.048ZM474.975 203.168C473.001 203.168 471.671 201.684 471.671 199.374C471.671 197.064 473.001 195.58 474.975 195.58C476.949 195.58 478.279 197.064 478.279 199.374C478.279 201.684 476.949 203.168 474.975 203.168ZM474.975 202.048C476.109 202.048 476.893 201.334 476.893 199.92V198.828C476.893 197.414 476.109 196.7 474.975 196.7C473.841 196.7 473.057 197.414 473.057 198.828V199.92C473.057 201.334 473.841 202.048 474.975 202.048ZM483.346 203H481.974C481.078 203 480.602 202.468 480.602 201.628V196.854H479.44V195.748H480.084C480.574 195.748 480.728 195.566 480.728 195.076V193.746H481.904V195.748H483.458V196.854H481.904V201.894H483.346V203ZM488.829 203V192.64H490.131V199.094H490.201L491.237 197.82L493.127 195.748H494.667L492.091 198.548L495.003 203H493.435L491.167 199.388L490.131 200.494V203H488.829ZM499.021 203.168C497.005 203.168 495.731 201.67 495.731 199.374C495.731 197.078 497.005 195.58 499.021 195.58C501.051 195.58 502.199 197.12 502.199 199.15V199.696H497.089V199.99C497.089 201.194 497.831 202.062 499.133 202.062C500.043 202.062 500.701 201.628 501.093 200.886L501.933 201.6C501.429 202.538 500.379 203.168 499.021 203.168ZM499.021 196.63C497.887 196.63 497.089 197.498 497.089 198.688V198.786H500.813V198.646C500.813 197.442 500.113 196.63 499.021 196.63ZM506.907 200.382L508.531 195.748H509.791L506.641 204.582C506.305 205.492 505.955 205.8 504.849 205.8H504.135V204.694H505.325L505.815 203.294L503.127 195.748H504.429L506.039 200.382L506.417 201.74H506.487L506.907 200.382ZM513.465 203.168C512.121 203.168 511.239 202.622 510.567 201.768L511.449 201.012C511.995 201.698 512.667 202.09 513.549 202.09C514.473 202.09 514.977 201.684 514.977 201.012C514.977 200.48 514.697 200.102 513.815 199.976L513.199 199.878C511.813 199.682 510.847 199.108 510.847 197.764C510.847 196.336 511.953 195.58 513.479 195.58C514.711 195.58 515.481 196.014 516.097 196.742L515.271 197.526C514.921 197.064 514.305 196.658 513.437 196.658C512.555 196.658 512.107 197.064 512.107 197.68C512.107 198.324 512.527 198.59 513.367 198.716L513.983 198.814C515.579 199.052 516.237 199.752 516.237 200.872C516.237 202.286 515.173 203.168 513.465 203.168Z" fill="black"/>
<path d="M30.996 36H29.148V26.228H33.544C35.35 26.228 36.442 27.446 36.442 29.252C36.442 31.072 35.35 32.276 33.544 32.276H30.996V36ZM30.996 27.838V30.68H33.376C34.09 30.68 34.524 30.288 34.524 29.574V28.93C34.524 28.216 34.09 27.838 33.376 27.838H30.996ZM39.82 36H38.028V28.692H39.82V30.204H39.89C40.072 29.434 40.66 28.692 41.822 28.692H42.214V30.386H41.654C40.45 30.386 39.82 30.722 39.82 31.52V36ZM46.5138 36.168C44.4278 36.168 43.1258 34.684 43.1258 32.332C43.1258 29.994 44.4278 28.524 46.5138 28.524C48.6138 28.524 49.9158 29.994 49.9158 32.332C49.9158 34.684 48.6138 36.168 46.5138 36.168ZM46.5138 34.726C47.4518 34.726 48.0398 34.124 48.0398 33.018V31.66C48.0398 30.568 47.4518 29.966 46.5138 29.966C45.5898 29.966 45.0018 30.568 45.0018 31.66V33.018C45.0018 34.124 45.5898 34.726 46.5138 34.726ZM53.8917 36C52.6597 36 52.0017 35.328 52.0017 34.138V30.12H50.9237V28.692H51.4837C52.0157 28.692 52.1837 28.44 52.1837 27.936V26.69H53.7937V28.692H55.2917V30.12H53.7937V34.572H55.1797V36H53.8917ZM59.9054 36.168C57.7494 36.168 56.4614 34.67 56.4614 32.332C56.4614 30.022 57.7074 28.524 59.8494 28.524C62.1314 28.524 63.1814 30.204 63.1814 32.206V32.794H58.3234V32.976C58.3234 34.026 58.9254 34.74 60.1014 34.74C60.9834 34.74 61.5154 34.32 61.9634 33.746L62.9294 34.824C62.3274 35.65 61.2634 36.168 59.9054 36.168ZM59.8774 29.868C58.9394 29.868 58.3234 30.568 58.3234 31.576V31.688H61.3194V31.562C61.3194 30.554 60.8014 29.868 59.8774 29.868ZM67.802 36.168C65.646 36.168 64.428 34.684 64.428 32.332C64.428 29.994 65.646 28.524 67.802 28.524C69.272 28.524 70.238 29.224 70.672 30.372L69.202 31.03C69.034 30.414 68.572 29.966 67.802 29.966C66.808 29.966 66.304 30.666 66.304 31.688V33.018C66.304 34.04 66.808 34.726 67.802 34.726C68.656 34.726 69.076 34.236 69.342 33.578L70.714 34.236C70.238 35.524 69.216 36.168 67.802 36.168ZM74.5378 36C73.3058 36 72.6478 35.328 72.6478 34.138V30.12H71.5698V28.692H72.1298C72.6618 28.692 72.8298 28.44 72.8298 27.936V26.69H74.4398V28.692H75.9378V30.12H74.4398V34.572H75.8258V36H74.5378ZM78.5481 27.628C77.8061 27.628 77.4981 27.25 77.4981 26.732V26.452C77.4981 25.934 77.8061 25.556 78.5481 25.556C79.2761 25.556 79.5981 25.934 79.5981 26.452V26.732C79.5981 27.25 79.2761 27.628 78.5481 27.628ZM77.6521 36V28.692H79.4441V36H77.6521ZM83.4732 36H81.6812V28.692H83.4732V29.91H83.5432C83.8372 29.126 84.4532 28.524 85.5872 28.524C87.0852 28.524 87.9252 29.56 87.9252 31.38V36H86.1332V31.562C86.1332 30.526 85.7832 29.994 84.9292 29.994C84.1872 29.994 83.4732 30.386 83.4732 31.17V36ZM96.6657 36.616C96.6657 38.142 95.6297 38.968 92.8297 38.968C90.3657 38.968 89.4277 38.324 89.4277 37.246C89.4277 36.434 89.9177 35.972 90.7297 35.846V35.692C90.1277 35.538 89.7917 35.062 89.7917 34.474C89.7917 33.718 90.4357 33.34 91.1357 33.186V33.13C90.2537 32.724 89.8057 31.968 89.8057 31.002C89.8057 29.518 90.8557 28.524 92.8297 28.524C93.2777 28.524 93.7397 28.58 94.1037 28.706V28.468C94.1037 27.754 94.4677 27.404 95.1397 27.404H96.2737V28.776H94.7197V28.972C95.4757 29.392 95.8537 30.106 95.8537 31.002C95.8537 32.472 94.8177 33.452 92.8297 33.452C92.4097 33.452 92.0317 33.41 91.7097 33.326C91.4297 33.452 91.1917 33.662 91.1917 33.984C91.1917 34.348 91.4997 34.53 92.1437 34.53H94.1037C95.8957 34.53 96.6657 35.3 96.6657 36.616ZM94.9857 36.826C94.9857 36.364 94.6497 36.084 93.7397 36.084H91.2477C90.9817 36.28 90.8697 36.546 90.8697 36.84C90.8697 37.4 91.2897 37.736 92.4097 37.736H93.3057C94.4677 37.736 94.9857 37.442 94.9857 36.826ZM92.8297 32.234C93.6837 32.234 94.1457 31.842 94.1457 31.114V30.876C94.1457 30.134 93.6837 29.756 92.8297 29.756C91.9757 29.756 91.5137 30.134 91.5137 30.876V31.114C91.5137 31.842 91.9757 32.234 92.8297 32.234ZM105.865 36V34.782H105.795C105.529 35.608 104.745 36.168 103.779 36.168C101.945 36.168 100.923 34.782 100.923 32.332C100.923 29.896 101.945 28.524 103.779 28.524C104.745 28.524 105.543 29.056 105.795 29.896H105.865V25.64H107.657V36H105.865ZM104.353 34.684C105.207 34.684 105.865 34.25 105.865 33.494V31.17C105.865 30.456 105.207 29.994 104.353 29.994C103.429 29.994 102.799 30.68 102.799 31.716V32.976C102.799 34.012 103.429 34.684 104.353 34.684ZM111.69 36.168C110.206 36.168 109.366 35.314 109.366 34.012C109.366 32.514 110.5 31.772 112.488 31.772H113.734V31.24C113.734 30.428 113.328 29.952 112.376 29.952C111.536 29.952 111.06 30.372 110.71 30.876L109.646 29.924C110.178 29.084 111.032 28.524 112.502 28.524C114.476 28.524 115.526 29.462 115.526 31.128V34.572H116.254V36H115.26C114.49 36 114.014 35.496 113.902 34.74H113.818C113.58 35.678 112.782 36.168 111.69 36.168ZM112.292 34.866C113.09 34.866 113.734 34.502 113.734 33.816V32.85H112.586C111.648 32.85 111.186 33.172 111.186 33.746V33.984C111.186 34.572 111.592 34.866 112.292 34.866ZM120.091 36C118.859 36 118.201 35.328 118.201 34.138V30.12H117.123V28.692H117.683C118.215 28.692 118.383 28.44 118.383 27.936V26.69H119.993V28.692H121.491V30.12H119.993V34.572H121.379V36H120.091ZM125.012 36.168C123.528 36.168 122.688 35.314 122.688 34.012C122.688 32.514 123.822 31.772 125.81 31.772H127.056V31.24C127.056 30.428 126.65 29.952 125.698 29.952C124.858 29.952 124.382 30.372 124.032 30.876L122.968 29.924C123.5 29.084 124.354 28.524 125.824 28.524C127.798 28.524 128.848 29.462 128.848 31.128V34.572H129.576V36H128.582C127.812 36 127.336 35.496 127.224 34.74H127.14C126.902 35.678 126.104 36.168 125.012 36.168ZM125.614 34.866C126.412 34.866 127.056 34.502 127.056 33.816V32.85H125.908C124.97 32.85 124.508 33.172 124.508 33.746V33.984C124.508 34.572 124.914 34.866 125.614 34.866ZM135.551 27.628C134.809 27.628 134.501 27.25 134.501 26.732V26.452C134.501 25.934 134.809 25.556 135.551 25.556C136.279 25.556 136.601 25.934 136.601 26.452V26.732C136.601 27.25 136.279 27.628 135.551 27.628ZM134.655 36V28.692H136.447V36H134.655ZM140.476 36H138.684V28.692H140.476V29.91H140.546C140.84 29.126 141.456 28.524 142.59 28.524C144.088 28.524 144.928 29.56 144.928 31.38V36H143.136V31.562C143.136 30.526 142.786 29.994 141.932 29.994C141.19 29.994 140.476 30.386 140.476 31.17V36ZM152.825 36C151.593 36 150.935 35.328 150.935 34.138V30.12H149.857V28.692H150.417C150.949 28.692 151.117 28.44 151.117 27.936V26.69H152.727V28.692H154.225V30.12H152.727V34.572H154.113V36H152.825ZM157.731 36H155.939V28.692H157.731V30.204H157.801C157.983 29.434 158.571 28.692 159.733 28.692H160.125V30.386H159.565C158.361 30.386 157.731 30.722 157.731 31.52V36ZM163.251 36.168C161.767 36.168 160.927 35.314 160.927 34.012C160.927 32.514 162.061 31.772 164.049 31.772H165.295V31.24C165.295 30.428 164.889 29.952 163.937 29.952C163.097 29.952 162.621 30.372 162.271 30.876L161.207 29.924C161.739 29.084 162.593 28.524 164.063 28.524C166.037 28.524 167.087 29.462 167.087 31.128V34.572H167.815V36H166.821C166.051 36 165.575 35.496 165.463 34.74H165.379C165.141 35.678 164.343 36.168 163.251 36.168ZM163.853 34.866C164.651 34.866 165.295 34.502 165.295 33.816V32.85H164.147C163.209 32.85 162.747 33.172 162.747 33.746V33.984C162.747 34.572 163.153 34.866 163.853 34.866ZM171.217 36H169.425V28.692H171.217V29.91H171.287C171.581 29.126 172.197 28.524 173.331 28.524C174.829 28.524 175.669 29.56 175.669 31.38V36H173.877V31.562C173.877 30.526 173.527 29.994 172.673 29.994C171.931 29.994 171.217 30.386 171.217 31.17V36ZM180.21 36.168C178.824 36.168 177.914 35.664 177.186 34.824L178.278 33.76C178.81 34.376 179.454 34.754 180.28 34.754C181.134 34.754 181.498 34.432 181.498 33.914C181.498 33.494 181.246 33.228 180.602 33.144L179.874 33.046C178.306 32.85 177.438 32.164 177.438 30.834C177.438 29.42 178.544 28.524 180.21 28.524C181.638 28.524 182.366 28.944 183.066 29.672L182.016 30.722C181.596 30.274 180.98 29.938 180.266 29.938C179.496 29.938 179.16 30.246 179.16 30.694C179.16 31.184 179.426 31.408 180.112 31.52L180.854 31.618C182.45 31.842 183.22 32.556 183.22 33.774C183.22 35.188 182.03 36.168 180.21 36.168ZM185.858 27.628C185.116 27.628 184.808 27.25 184.808 26.732V26.452C184.808 25.934 185.116 25.556 185.858 25.556C186.586 25.556 186.908 25.934 186.908 26.452V26.732C186.908 27.25 186.586 27.628 185.858 27.628ZM184.962 36V28.692H186.754V36H184.962ZM191.273 36C190.041 36 189.383 35.328 189.383 34.138V30.12H188.305V28.692H188.865C189.397 28.692 189.565 28.44 189.565 27.936V26.69H191.175V28.692H192.673V30.12H191.175V34.572H192.561V36H191.273ZM199.158 36L197.142 28.692H198.864L199.606 31.702L200.18 34.208H200.236L200.908 31.702L201.762 28.692H203.386L204.268 31.702L204.954 34.208H205.01L205.584 31.702L206.312 28.692H207.978L205.976 36H204.044L203.106 32.78L202.56 30.792H202.518L201.986 32.78L201.062 36H199.158ZM210.383 27.628C209.641 27.628 209.333 27.25 209.333 26.732V26.452C209.333 25.934 209.641 25.556 210.383 25.556C211.111 25.556 211.433 25.934 211.433 26.452V26.732C211.433 27.25 211.111 27.628 210.383 27.628ZM209.487 36V28.692H211.279V36H209.487ZM215.798 36C214.566 36 213.908 35.328 213.908 34.138V30.12H212.83V28.692H213.39C213.922 28.692 214.09 28.44 214.09 27.936V26.69H215.7V28.692H217.198V30.12H215.7V34.572H217.086V36H215.798ZM218.912 36V25.64H220.704V29.91H220.774C221.068 29.126 221.684 28.524 222.818 28.524C224.316 28.524 225.156 29.56 225.156 31.38V36H223.364V31.562C223.364 30.526 223.014 29.994 222.16 29.994C221.418 29.994 220.704 30.386 220.704 31.17V36H218.912ZM237.491 27.866H234.719V36H232.871V27.866H230.099V26.228H237.491V27.866ZM244.862 36H239.164V26.228H241.012V34.362H244.862V36ZM249.663 36.168C247.997 36.168 246.849 35.51 246.023 34.544L247.269 33.34C247.941 34.124 248.767 34.544 249.775 34.544C250.909 34.544 251.497 33.998 251.497 33.172C251.497 32.514 251.189 32.108 250.167 31.926L249.243 31.786C247.269 31.478 246.317 30.54 246.317 28.944C246.317 27.194 247.675 26.06 249.859 26.06C251.329 26.06 252.421 26.564 253.205 27.502L251.945 28.692C251.469 28.09 250.797 27.684 249.761 27.684C248.711 27.684 248.165 28.104 248.165 28.832C248.165 29.574 248.585 29.882 249.523 30.05L250.433 30.218C252.407 30.568 253.331 31.45 253.331 33.06C253.331 34.908 252.001 36.168 249.663 36.168ZM255.367 38.114H253.869L257.887 25.64H259.385L255.367 38.114ZM263.997 36.168C262.331 36.168 261.183 35.51 260.357 34.544L261.603 33.34C262.275 34.124 263.101 34.544 264.109 34.544C265.243 34.544 265.831 33.998 265.831 33.172C265.831 32.514 265.523 32.108 264.501 31.926L263.577 31.786C261.603 31.478 260.651 30.54 260.651 28.944C260.651 27.194 262.009 26.06 264.193 26.06C265.663 26.06 266.755 26.564 267.539 27.502L266.279 28.692C265.803 28.09 265.131 27.684 264.095 27.684C263.045 27.684 262.499 28.104 262.499 28.832C262.499 29.574 262.919 29.882 263.857 30.05L264.767 30.218C266.741 30.568 267.665 31.45 267.665 33.06C267.665 34.908 266.335 36.168 263.997 36.168ZM272.538 36.168C270.872 36.168 269.724 35.51 268.898 34.544L270.144 33.34C270.816 34.124 271.642 34.544 272.65 34.544C273.784 34.544 274.372 33.998 274.372 33.172C274.372 32.514 274.064 32.108 273.042 31.926L272.118 31.786C270.144 31.478 269.192 30.54 269.192 28.944C269.192 27.194 270.55 26.06 272.734 26.06C274.204 26.06 275.296 26.564 276.08 27.502L274.82 28.692C274.344 28.09 273.672 27.684 272.636 27.684C271.586 27.684 271.04 28.104 271.04 28.832C271.04 29.574 271.46 29.882 272.398 30.05L273.308 30.218C275.282 30.568 276.206 31.45 276.206 33.06C276.206 34.908 274.876 36.168 272.538 36.168ZM283.916 36H278.218V26.228H280.066V34.362H283.916V36ZM291.934 36.168C289.848 36.168 288.546 34.684 288.546 32.332C288.546 29.994 289.848 28.524 291.934 28.524C294.034 28.524 295.336 29.994 295.336 32.332C295.336 34.684 294.034 36.168 291.934 36.168ZM291.934 34.726C292.872 34.726 293.46 34.124 293.46 33.018V31.66C293.46 30.568 292.872 29.966 291.934 29.966C291.01 29.966 290.422 30.568 290.422 31.66V33.018C290.422 34.124 291.01 34.726 291.934 34.726ZM297.366 36V30.106H296.288V28.692H297.366V27.642C297.366 26.354 298.066 25.64 299.382 25.64H300.656V27.068H299.158V28.692H300.656V30.106H299.158V36H297.366ZM302.462 36V30.106H301.384V28.692H302.462V27.642C302.462 26.354 303.162 25.64 304.478 25.64H305.752V27.068H304.254V28.692H305.752V30.106H304.254V36H302.462ZM309.91 36H308.944C307.726 36 307.152 35.356 307.152 34.236V25.64H308.944V34.572H309.91V36ZM314.326 36.168C312.24 36.168 310.938 34.684 310.938 32.332C310.938 29.994 312.24 28.524 314.326 28.524C316.426 28.524 317.728 29.994 317.728 32.332C317.728 34.684 316.426 36.168 314.326 36.168ZM314.326 34.726C315.264 34.726 315.852 34.124 315.852 33.018V31.66C315.852 30.568 315.264 29.966 314.326 29.966C313.402 29.966 312.814 30.568 312.814 31.66V33.018C312.814 34.124 313.402 34.726 314.326 34.726ZM321.282 36.168C319.798 36.168 318.958 35.314 318.958 34.012C318.958 32.514 320.092 31.772 322.08 31.772H323.326V31.24C323.326 30.428 322.92 29.952 321.968 29.952C321.128 29.952 320.652 30.372 320.302 30.876L319.238 29.924C319.77 29.084 320.624 28.524 322.094 28.524C324.068 28.524 325.118 29.462 325.118 31.128V34.572H325.846V36H324.852C324.082 36 323.606 35.496 323.494 34.74H323.41C323.172 35.678 322.374 36.168 321.282 36.168ZM321.884 34.866C322.682 34.866 323.326 34.502 323.326 33.816V32.85H322.178C321.24 32.85 320.778 33.172 320.778 33.746V33.984C320.778 34.572 321.184 34.866 321.884 34.866ZM331.993 36V34.782H331.923C331.657 35.608 330.873 36.168 329.907 36.168C328.073 36.168 327.051 34.782 327.051 32.332C327.051 29.896 328.073 28.524 329.907 28.524C330.873 28.524 331.671 29.056 331.923 29.896H331.993V25.64H333.785V36H331.993ZM330.481 34.684C331.335 34.684 331.993 34.25 331.993 33.494V31.17C331.993 30.456 331.335 29.994 330.481 29.994C329.557 29.994 328.927 30.68 328.927 31.716V32.976C328.927 34.012 329.557 34.684 330.481 34.684ZM336.907 27.628C336.165 27.628 335.857 27.25 335.857 26.732V26.452C335.857 25.934 336.165 25.556 336.907 25.556C337.635 25.556 337.957 25.934 337.957 26.452V26.732C337.957 27.25 337.635 27.628 336.907 27.628ZM336.011 36V28.692H337.803V36H336.011ZM341.832 36H340.04V28.692H341.832V29.91H341.902C342.196 29.126 342.812 28.524 343.946 28.524C345.444 28.524 346.284 29.56 346.284 31.38V36H344.492V31.562C344.492 30.526 344.142 29.994 343.288 29.994C342.546 29.994 341.832 30.386 341.832 31.17V36ZM355.025 36.616C355.025 38.142 353.989 38.968 351.189 38.968C348.725 38.968 347.787 38.324 347.787 37.246C347.787 36.434 348.277 35.972 349.089 35.846V35.692C348.487 35.538 348.151 35.062 348.151 34.474C348.151 33.718 348.795 33.34 349.495 33.186V33.13C348.613 32.724 348.165 31.968 348.165 31.002C348.165 29.518 349.215 28.524 351.189 28.524C351.637 28.524 352.099 28.58 352.463 28.706V28.468C352.463 27.754 352.827 27.404 353.499 27.404H354.633V28.776H353.079V28.972C353.835 29.392 354.213 30.106 354.213 31.002C354.213 32.472 353.177 33.452 351.189 33.452C350.769 33.452 350.391 33.41 350.069 33.326C349.789 33.452 349.551 33.662 349.551 33.984C349.551 34.348 349.859 34.53 350.503 34.53H352.463C354.255 34.53 355.025 35.3 355.025 36.616ZM353.345 36.826C353.345 36.364 353.009 36.084 352.099 36.084H349.607C349.341 36.28 349.229 36.546 349.229 36.84C349.229 37.4 349.649 37.736 350.769 37.736H351.665C352.827 37.736 353.345 37.442 353.345 36.826ZM351.189 32.234C352.043 32.234 352.505 31.842 352.505 31.114V30.876C352.505 30.134 352.043 29.756 351.189 29.756C350.335 29.756 349.873 30.134 349.873 30.876V31.114C349.873 31.842 350.335 32.234 351.189 32.234Z" fill="black"/>
<rect x="450" y="150" width="61" height="39" rx="14" stroke="#56BAB9" stroke-width="2"/>
<g clip-path="url(#clip2_1_6438)">
<path d="M295.192 217.333C293.688 213.062 289.618 210 284.833 210C278.765 210 273.833 214.932 273.833 221C273.833 227.068 278.765 232 284.833 232C289.618 232 293.688 228.938 295.192 224.667H303.167V232H310.5V224.667H314.167V217.333H295.192ZM284.833 224.667C282.817 224.667 281.167 223.017 281.167 221C281.167 218.983 282.817 217.333 284.833 217.333C286.85 217.333 288.5 218.983 288.5 221C288.5 223.017 286.85 224.667 284.833 224.667Z" fill="#56BAB9"/>
</g>
<g clip-path="url(#clip3_1_6438)">
<path d="M477.192 170.333C475.688 166.062 471.618 163 466.833 163C460.765 163 455.833 167.932 455.833 174C455.833 180.068 460.765 185 466.833 185C471.618 185 475.688 181.938 477.192 177.667H485.167V185H492.5V177.667H496.167V170.333H477.192ZM466.833 177.667C464.817 177.667 463.167 176.017 463.167 174C463.167 171.983 464.817 170.333 466.833 170.333C468.85 170.333 470.5 171.983 470.5 174C470.5 176.017 468.85 177.667 466.833 177.667Z" fill="#C9A9FB"/>
</g>
<g clip-path="url(#clip4_1_6438)">
<path d="M486.192 162.333C484.688 158.062 480.618 155 475.833 155C469.765 155 464.833 159.932 464.833 166C464.833 172.068 469.765 177 475.833 177C480.618 177 484.688 173.938 486.192 169.667H494.167V177H501.5V169.667H505.167V162.333H486.192ZM475.833 169.667C473.817 169.667 472.167 168.017 472.167 166C472.167 163.983 473.817 162.333 475.833 162.333C477.85 162.333 479.5 163.983 479.5 166C479.5 168.017 477.85 169.667 475.833 169.667Z" fill="#C9A9FB"/>
</g>
<rect x="121.5" y="376.5" width="414" height="70" fill="white"/>
<rect x="121.5" y="376.5" width="414" height="70" stroke="#0F62FE"/>
<rect x="122" y="377" width="413" height="69" fill="white"/>
<rect x="122" y="377" width="413" height="69" fill="#EDF5FF"/>
<g clip-path="url(#clip5_1_6438)">
<path d="M182.18 405H177.742V403.516H179.03V396.712H177.742V395.228H182.18V396.712H180.878V403.516H182.18V405ZM184.228 405V395.228H188.75C190.36 395.228 191.34 396.222 191.34 397.734C191.34 399.218 190.486 399.778 189.59 399.834V399.918C190.444 399.932 191.704 400.534 191.704 402.2C191.704 403.768 190.626 405 189.184 405H184.228ZM186.076 400.814V403.432H188.652C189.352 403.432 189.772 403.054 189.772 402.368V401.892C189.772 401.206 189.352 400.814 188.652 400.814H186.076ZM186.076 396.796V399.302H188.358C189.03 399.302 189.422 398.91 189.422 398.266V397.832C189.422 397.174 189.03 396.796 188.358 396.796H186.076ZM193.671 405V395.228H195.757L198.263 400.002H198.319L200.797 395.228H202.799V405H201.049V397.986H200.993L200.237 399.54L198.235 403.236L196.233 399.54L195.477 397.986H195.421V405H193.671ZM214.427 405H208.729V395.228H210.577V403.362H214.427V405ZM216.974 396.628C216.232 396.628 215.924 396.25 215.924 395.732V395.452C215.924 394.934 216.232 394.556 216.974 394.556C217.702 394.556 218.024 394.934 218.024 395.452V395.732C218.024 396.25 217.702 396.628 216.974 396.628ZM216.078 405V397.692H217.87V405H216.078ZM221.899 405H220.107V397.692H221.899V398.91H221.969C222.263 398.126 222.879 397.524 224.013 397.524C225.511 397.524 226.351 398.56 226.351 400.38V405H224.559V400.562C224.559 399.526 224.209 398.994 223.355 398.994C222.613 398.994 221.899 399.386 221.899 400.17V405ZM232.866 405V403.782H232.796C232.544 404.51 231.956 405.168 230.752 405.168C229.254 405.168 228.414 404.132 228.414 402.312V397.692H230.206V402.13C230.206 403.138 230.584 403.684 231.438 403.684C232.152 403.684 232.866 403.306 232.866 402.522V397.692H234.658V405H232.866ZM236.118 405L238.61 401.29L236.174 397.692H238.218L239.73 400.114H239.786L241.284 397.692H243.188L240.71 401.318L243.202 405H241.158L239.618 402.48H239.562L238.022 405H236.118ZM248.612 405.168C246.05 405.168 244.356 403.418 244.356 400.114C244.356 396.81 246.05 395.06 248.612 395.06C251.188 395.06 252.868 396.81 252.868 400.114C252.868 403.418 251.188 405.168 248.612 405.168ZM248.612 403.53C250.012 403.53 250.908 402.536 250.908 400.87V399.358C250.908 397.692 250.012 396.698 248.612 396.698C247.212 396.698 246.316 397.692 246.316 399.358V400.87C246.316 402.536 247.212 403.53 248.612 403.53ZM260.642 405L257.702 399.988L256.694 397.958H256.652V405H254.902V395.228H256.932L259.872 400.24L260.88 402.27H260.922V395.228H262.672V405H260.642ZM271.565 405H265.125V395.228H271.565V396.866H266.973V399.232H271.033V400.87H266.973V403.362H271.565V405ZM179.338 423L177.322 415.692H179.044L179.786 418.702L180.36 421.208H180.416L181.088 418.702L181.942 415.692H183.566L184.448 418.702L185.134 421.208H185.19L185.764 418.702L186.492 415.692H188.158L186.156 423H184.224L183.286 419.78L182.74 417.792H182.698L182.166 419.78L181.242 423H179.338ZM190.563 414.628C189.821 414.628 189.513 414.25 189.513 413.732V413.452C189.513 412.934 189.821 412.556 190.563 412.556C191.291 412.556 191.613 412.934 191.613 413.452V413.732C191.613 414.25 191.291 414.628 190.563 414.628ZM189.667 423V415.692H191.459V423H189.667ZM195.978 423C194.746 423 194.088 422.328 194.088 421.138V417.12H193.01V415.692H193.57C194.102 415.692 194.27 415.44 194.27 414.936V413.69H195.88V415.692H197.378V417.12H195.88V421.572H197.266V423H195.978ZM199.092 423V412.64H200.884V416.91H200.954C201.248 416.126 201.864 415.524 202.998 415.524C204.496 415.524 205.336 416.56 205.336 418.38V423H203.544V418.562C203.544 417.526 203.194 416.994 202.34 416.994C201.598 416.994 200.884 417.386 200.884 418.17V423H199.092ZM214.857 423.168C212.281 423.168 210.643 421.474 210.643 418.184C210.643 414.894 212.281 413.06 214.857 413.06C216.607 413.06 217.741 413.802 218.427 415.314L216.845 416.154C216.565 415.286 215.949 414.698 214.857 414.698C213.485 414.698 212.603 415.692 212.603 417.358V418.898C212.603 420.578 213.485 421.53 214.857 421.53C215.963 421.53 216.649 420.858 216.971 419.976L218.469 420.858C217.769 422.314 216.607 423.168 214.857 423.168ZM221.886 423H220.094V415.692H221.886V417.204H221.956C222.138 416.434 222.726 415.692 223.888 415.692H224.28V417.386H223.72C222.516 417.386 221.886 417.722 221.886 418.52V423ZM229.065 419.556L230.339 415.692H232.019L229.079 424.302C228.715 425.352 228.197 425.8 226.993 425.8H225.915V424.372H227.231L227.567 423.35L224.949 415.692H226.727L228.001 419.556L228.477 421.404H228.561L229.065 419.556ZM233.361 425.8V415.692H235.153V416.896H235.209C235.475 416.056 236.259 415.524 237.225 415.524C239.073 415.524 240.095 416.896 240.095 419.332C240.095 421.782 239.073 423.168 237.225 423.168C236.259 423.168 235.489 422.608 235.209 421.782H235.153V425.8H233.361ZM236.651 421.684C237.575 421.684 238.219 421.012 238.219 419.976V418.716C238.219 417.68 237.575 416.994 236.651 416.994C235.797 416.994 235.153 417.456 235.153 418.17V420.494C235.153 421.25 235.797 421.684 236.651 421.684ZM244.115 423C242.883 423 242.225 422.328 242.225 421.138V417.12H241.147V415.692H241.707C242.239 415.692 242.407 415.44 242.407 414.936V413.69H244.017V415.692H245.515V417.12H244.017V421.572H245.403V423H244.115ZM250.073 423.168C247.987 423.168 246.685 421.684 246.685 419.332C246.685 416.994 247.987 415.524 250.073 415.524C252.173 415.524 253.475 416.994 253.475 419.332C253.475 421.684 252.173 423.168 250.073 423.168ZM250.073 421.726C251.011 421.726 251.599 421.124 251.599 420.018V418.66C251.599 417.568 251.011 416.966 250.073 416.966C249.149 416.966 248.561 417.568 248.561 418.66V420.018C248.561 421.124 249.149 421.726 250.073 421.726ZM261.776 423H255.336V413.228H261.776V414.866H257.184V417.232H261.244V418.87H257.184V421.362H261.776V423ZM263.008 423L265.5 419.29L263.064 415.692H265.108L266.62 418.114H266.676L268.174 415.692H270.078L267.6 419.318L270.092 423H268.048L266.508 420.48H266.452L264.912 423H263.008ZM271.554 425.8V415.692H273.346V416.896H273.402C273.668 416.056 274.452 415.524 275.418 415.524C277.266 415.524 278.288 416.896 278.288 419.332C278.288 421.782 277.266 423.168 275.418 423.168C274.452 423.168 273.682 422.608 273.402 421.782H273.346V425.8H271.554ZM274.844 421.684C275.768 421.684 276.412 421.012 276.412 419.976V418.716C276.412 417.68 275.768 416.994 274.844 416.994C273.99 416.994 273.346 417.456 273.346 418.17V420.494C273.346 421.25 273.99 421.684 274.844 421.684ZM281.9 423H280.108V415.692H281.9V417.204H281.97C282.152 416.434 282.74 415.692 283.902 415.692H284.294V417.386H283.734C282.53 417.386 281.9 417.722 281.9 418.52V423ZM288.65 423.168C286.494 423.168 285.206 421.67 285.206 419.332C285.206 417.022 286.452 415.524 288.594 415.524C290.876 415.524 291.926 417.204 291.926 419.206V419.794H287.068V419.976C287.068 421.026 287.67 421.74 288.846 421.74C289.728 421.74 290.26 421.32 290.708 420.746L291.674 421.824C291.072 422.65 290.008 423.168 288.65 423.168ZM288.622 416.868C287.684 416.868 287.068 417.568 287.068 418.576V418.688H290.064V418.562C290.064 417.554 289.546 416.868 288.622 416.868ZM296.056 423.168C294.67 423.168 293.76 422.664 293.032 421.824L294.124 420.76C294.656 421.376 295.3 421.754 296.126 421.754C296.98 421.754 297.344 421.432 297.344 420.914C297.344 420.494 297.092 420.228 296.448 420.144L295.72 420.046C294.152 419.85 293.284 419.164 293.284 417.834C293.284 416.42 294.39 415.524 296.056 415.524C297.484 415.524 298.212 415.944 298.912 416.672L297.862 417.722C297.442 417.274 296.826 416.938 296.112 416.938C295.342 416.938 295.006 417.246 295.006 417.694C295.006 418.184 295.272 418.408 295.958 418.52L296.7 418.618C298.296 418.842 299.066 419.556 299.066 420.774C299.066 422.188 297.876 423.168 296.056 423.168ZM303.107 423.168C301.721 423.168 300.811 422.664 300.083 421.824L301.175 420.76C301.707 421.376 302.351 421.754 303.177 421.754C304.031 421.754 304.395 421.432 304.395 420.914C304.395 420.494 304.143 420.228 303.499 420.144L302.771 420.046C301.203 419.85 300.335 419.164 300.335 417.834C300.335 416.42 301.441 415.524 303.107 415.524C304.535 415.524 305.263 415.944 305.963 416.672L304.913 417.722C304.493 417.274 303.877 416.938 303.163 416.938C302.393 416.938 302.057 417.246 302.057 417.694C302.057 418.184 302.323 418.408 303.009 418.52L303.751 418.618C305.347 418.842 306.117 419.556 306.117 420.774C306.117 422.188 304.927 423.168 303.107 423.168ZM314.212 423.168C312.056 423.168 310.838 421.684 310.838 419.332C310.838 416.994 312.056 415.524 314.212 415.524C315.682 415.524 316.648 416.224 317.082 417.372L315.612 418.03C315.444 417.414 314.982 416.966 314.212 416.966C313.218 416.966 312.714 417.666 312.714 418.688V420.018C312.714 421.04 313.218 421.726 314.212 421.726C315.066 421.726 315.486 421.236 315.752 420.578L317.124 421.236C316.648 422.524 315.626 423.168 314.212 423.168ZM320.472 423.168C318.988 423.168 318.148 422.314 318.148 421.012C318.148 419.514 319.282 418.772 321.27 418.772H322.516V418.24C322.516 417.428 322.11 416.952 321.158 416.952C320.318 416.952 319.842 417.372 319.492 417.876L318.428 416.924C318.96 416.084 319.814 415.524 321.284 415.524C323.258 415.524 324.308 416.462 324.308 418.128V421.572H325.036V423H324.042C323.272 423 322.796 422.496 322.684 421.74H322.6C322.362 422.678 321.564 423.168 320.472 423.168ZM321.074 421.866C321.872 421.866 322.516 421.502 322.516 420.816V419.85H321.368C320.43 419.85 319.968 420.172 319.968 420.746V420.984C319.968 421.572 320.374 421.866 321.074 421.866ZM328.438 423H326.646V415.692H328.438V417.204H328.508C328.69 416.434 329.278 415.692 330.44 415.692H330.832V417.386H330.272C329.068 417.386 328.438 417.722 328.438 418.52V423ZM336.77 423V421.782H336.7C336.434 422.608 335.65 423.168 334.684 423.168C332.85 423.168 331.828 421.782 331.828 419.332C331.828 416.896 332.85 415.524 334.684 415.524C335.65 415.524 336.448 416.056 336.7 416.896H336.77V412.64H338.562V423H336.77ZM335.258 421.684C336.112 421.684 336.77 421.25 336.77 420.494V418.17C336.77 417.456 336.112 416.994 335.258 416.994C334.334 416.994 333.704 417.68 333.704 418.716V419.976C333.704 421.012 334.334 421.684 335.258 421.684ZM343.182 423.168C341.796 423.168 340.886 422.664 340.158 421.824L341.25 420.76C341.782 421.376 342.426 421.754 343.252 421.754C344.106 421.754 344.47 421.432 344.47 420.914C344.47 420.494 344.218 420.228 343.574 420.144L342.846 420.046C341.278 419.85 340.41 419.164 340.41 417.834C340.41 416.42 341.516 415.524 343.182 415.524C344.61 415.524 345.338 415.944 346.038 416.672L344.988 417.722C344.568 417.274 343.952 416.938 343.238 416.938C342.468 416.938 342.132 417.246 342.132 417.694C342.132 418.184 342.398 418.408 343.084 418.52L343.826 418.618C345.422 418.842 346.192 419.556 346.192 420.774C346.192 422.188 345.002 423.168 343.182 423.168Z" fill="black"/>
<rect width="24" height="24" transform="translate(137 388)" fill="white" fill-opacity="0.01" style="mix-blend-mode:multiply"/>
<path d="M157.25 390.25H151.25C150.423 390.25 149.75 390.923 149.75 391.75V408.25C149.75 409.077 150.423 409.75 151.25 409.75H157.25C158.077 409.75 158.75 409.077 158.75 408.25V391.75C158.75 390.923 158.077 390.25 157.25 390.25ZM157.25 395.44L152.638 391.75H157.25L157.25 395.44ZM156.799 397L151.25 401.44V392.56L156.799 397ZM157.25 398.56L157.251 407.44L151.701 403L157.25 398.56ZM151.25 404.56L155.862 408.25H151.25V404.56Z" fill="black"/>
<path d="M146.75 390.25H140.75C139.923 390.25 139.25 390.923 139.25 391.75V408.25C139.25 409.077 139.923 409.75 140.75 409.75H146.75C147.577 409.75 148.25 409.077 148.25 408.25V391.75C148.25 390.923 147.577 390.25 146.75 390.25ZM146.75 395.44L142.138 391.75H146.75L146.75 395.44ZM146.299 397L140.75 401.44V392.56L146.299 397ZM146.75 398.56L146.751 407.44L141.201 403L146.75 398.56ZM140.75 404.56L145.362 408.25H140.75V404.56Z" fill="black"/>
</g>
<rect x="833.5" y="87.5" width="161" height="67" fill="white"/>
<rect x="833.5" y="87.5" width="161" height="67" stroke="#0F62FE"/>
<rect x="834" y="88" width="160" height="66" fill="white"/>
<rect x="834" y="88" width="160" height="66" fill="#EDF5FF"/>
<rect width="170" height="76" transform="translate(833 79)" fill="white" fill-opacity="0.01" style="mix-blend-mode:multiply"/>
<path d="M1003 79H833V155H1003V79Z" fill="white" fill-opacity="0.01" style="mix-blend-mode:multiply"/>
<path d="M837 83.5H998.5V151" stroke="#0F62FE"/>
<path d="M841 79.5H1002.5V147" stroke="#0F62FE"/>
<g clip-path="url(#clip6_1_6438)">
<path d="M898.114 116H896.196L895.412 113.508H891.94L891.17 116H889.294L892.57 106.228H894.866L898.114 116ZM894.964 111.926L893.704 107.908H893.634L892.388 111.926H894.964ZM899.602 118.8V108.692H901.394V109.896H901.45C901.716 109.056 902.5 108.524 903.466 108.524C905.314 108.524 906.336 109.896 906.336 112.332C906.336 114.782 905.314 116.168 903.466 116.168C902.5 116.168 901.73 115.608 901.45 114.782H901.394V118.8H899.602ZM902.892 114.684C903.816 114.684 904.46 114.012 904.46 112.976V111.716C904.46 110.68 903.816 109.994 902.892 109.994C902.038 109.994 901.394 110.456 901.394 111.17V113.494C901.394 114.25 902.038 114.684 902.892 114.684ZM908.157 118.8V108.692H909.949V109.896H910.005C910.271 109.056 911.055 108.524 912.021 108.524C913.869 108.524 914.891 109.896 914.891 112.332C914.891 114.782 913.869 116.168 912.021 116.168C911.055 116.168 910.285 115.608 910.005 114.782H909.949V118.8H908.157ZM911.447 114.684C912.371 114.684 913.015 114.012 913.015 112.976V111.716C913.015 110.68 912.371 109.994 911.447 109.994C910.593 109.994 909.949 110.456 909.949 111.17V113.494C909.949 114.25 910.593 114.684 911.447 114.684ZM919.469 116H918.503C917.285 116 916.711 115.356 916.711 114.236V105.64H918.503V114.572H919.469V116ZM921.883 107.628C921.141 107.628 920.833 107.25 920.833 106.732V106.452C920.833 105.934 921.141 105.556 921.883 105.556C922.611 105.556 922.933 105.934 922.933 106.452V106.732C922.933 107.25 922.611 107.628 921.883 107.628ZM920.987 116V108.692H922.779V116H920.987ZM927.9 116.168C925.744 116.168 924.526 114.684 924.526 112.332C924.526 109.994 925.744 108.524 927.9 108.524C929.37 108.524 930.336 109.224 930.77 110.372L929.3 111.03C929.132 110.414 928.67 109.966 927.9 109.966C926.906 109.966 926.402 110.666 926.402 111.688V113.018C926.402 114.04 926.906 114.726 927.9 114.726C928.754 114.726 929.174 114.236 929.44 113.578L930.812 114.236C930.336 115.524 929.314 116.168 927.9 116.168ZM934.159 116.168C932.675 116.168 931.835 115.314 931.835 114.012C931.835 112.514 932.969 111.772 934.957 111.772H936.203V111.24C936.203 110.428 935.797 109.952 934.845 109.952C934.005 109.952 933.529 110.372 933.179 110.876L932.115 109.924C932.647 109.084 933.501 108.524 934.971 108.524C936.945 108.524 937.995 109.462 937.995 111.128V114.572H938.723V116H937.729C936.959 116 936.483 115.496 936.371 114.74H936.287C936.049 115.678 935.251 116.168 934.159 116.168ZM934.761 114.866C935.559 114.866 936.203 114.502 936.203 113.816V112.85H935.055C934.117 112.85 933.655 113.172 933.655 113.746V113.984C933.655 114.572 934.061 114.866 934.761 114.866ZM942.561 116C941.329 116 940.671 115.328 940.671 114.138V110.12H939.593V108.692H940.153C940.685 108.692 940.853 108.44 940.853 107.936V106.69H942.463V108.692H943.961V110.12H942.463V114.572H943.849V116H942.561ZM946.571 107.628C945.829 107.628 945.521 107.25 945.521 106.732V106.452C945.521 105.934 945.829 105.556 946.571 105.556C947.299 105.556 947.621 105.934 947.621 106.452V106.732C947.621 107.25 947.299 107.628 946.571 107.628ZM945.675 116V108.692H947.467V116H945.675ZM952.603 116.168C950.517 116.168 949.215 114.684 949.215 112.332C949.215 109.994 950.517 108.524 952.603 108.524C954.703 108.524 956.005 109.994 956.005 112.332C956.005 114.684 954.703 116.168 952.603 116.168ZM952.603 114.726C953.541 114.726 954.129 114.124 954.129 113.018V111.66C954.129 110.568 953.541 109.966 952.603 109.966C951.679 109.966 951.091 110.568 951.091 111.66V113.018C951.091 114.124 951.679 114.726 952.603 114.726ZM959.545 116H957.753V108.692H959.545V109.91H959.615C959.909 109.126 960.525 108.524 961.659 108.524C963.157 108.524 963.997 109.56 963.997 111.38V116H962.205V111.562C962.205 110.526 961.855 109.994 961.001 109.994C960.259 109.994 959.545 110.386 959.545 111.17V116ZM966.676 118.114H965.178L969.196 105.64H970.694L966.676 118.114ZM893.942 134.168C891.366 134.168 889.728 132.474 889.728 129.184C889.728 125.894 891.366 124.06 893.942 124.06C895.692 124.06 896.826 124.802 897.512 126.314L895.93 127.154C895.65 126.286 895.034 125.698 893.942 125.698C892.57 125.698 891.688 126.692 891.688 128.358V129.898C891.688 131.578 892.57 132.53 893.942 132.53C895.048 132.53 895.734 131.858 896.056 130.976L897.554 131.858C896.854 133.314 895.692 134.168 893.942 134.168ZM901.936 134H900.97C899.752 134 899.178 133.356 899.178 132.236V123.64H900.97V132.572H901.936V134ZM904.35 125.628C903.608 125.628 903.3 125.25 903.3 124.732V124.452C903.3 123.934 903.608 123.556 904.35 123.556C905.078 123.556 905.4 123.934 905.4 124.452V124.732C905.4 125.25 905.078 125.628 904.35 125.628ZM903.454 134V126.692H905.246V134H903.454ZM910.437 134.168C908.281 134.168 906.993 132.67 906.993 130.332C906.993 128.022 908.239 126.524 910.381 126.524C912.663 126.524 913.713 128.204 913.713 130.206V130.794H908.855V130.976C908.855 132.026 909.457 132.74 910.633 132.74C911.515 132.74 912.047 132.32 912.495 131.746L913.461 132.824C912.859 133.65 911.795 134.168 910.437 134.168ZM910.409 127.868C909.471 127.868 908.855 128.568 908.855 129.576V129.688H911.851V129.562C911.851 128.554 911.333 127.868 910.409 127.868ZM917.241 134H915.449V126.692H917.241V127.91H917.311C917.605 127.126 918.221 126.524 919.355 126.524C920.853 126.524 921.693 127.56 921.693 129.38V134H919.901V129.562C919.901 128.526 919.551 127.994 918.697 127.994C917.955 127.994 917.241 128.386 917.241 129.17V134ZM926.122 134C924.89 134 924.232 133.328 924.232 132.138V128.12H923.154V126.692H923.714C924.246 126.692 924.414 126.44 924.414 125.936V124.69H926.024V126.692H927.522V128.12H926.024V132.572H927.41V134H926.122Z" fill="black"/>
<rect width="24" height="24" transform="translate(849 99)" fill="white" fill-opacity="0.01" style="mix-blend-mode:multiply"/>
<path d="M861 102C861.742 102 862.467 102.22 863.083 102.632C863.7 103.044 864.181 103.63 864.465 104.315C864.748 105 864.823 105.754 864.678 106.482C864.533 107.209 864.176 107.877 863.652 108.402C863.127 108.926 862.459 109.283 861.732 109.428C861.004 109.573 860.25 109.498 859.565 109.215C858.88 108.931 858.294 108.45 857.882 107.833C857.47 107.217 857.25 106.492 857.25 105.75C857.25 104.755 857.645 103.802 858.348 103.098C859.052 102.395 860.005 102 861 102ZM861 100.5C859.962 100.5 858.947 100.808 858.083 101.385C857.22 101.962 856.547 102.782 856.15 103.741C855.752 104.7 855.648 105.756 855.851 106.774C856.053 107.793 856.553 108.728 857.288 109.462C858.022 110.197 858.957 110.697 859.976 110.899C860.994 111.102 862.05 110.998 863.009 110.6C863.968 110.203 864.788 109.53 865.365 108.667C865.942 107.803 866.25 106.788 866.25 105.75C866.25 104.358 865.697 103.022 864.712 102.038C863.728 101.053 862.392 100.5 861 100.5Z" fill="black"/>
<path d="M868.5 121.5H867V117.75C867 117.258 866.903 116.77 866.715 116.315C866.526 115.86 866.25 115.447 865.902 115.098C865.553 114.75 865.14 114.474 864.685 114.285C864.23 114.097 863.742 114 863.25 114H858.75C857.755 114 856.802 114.395 856.098 115.098C855.395 115.802 855 116.755 855 117.75V121.5H853.5V117.75C853.5 116.358 854.053 115.022 855.038 114.038C856.022 113.053 857.358 112.5 858.75 112.5H863.25C864.642 112.5 865.978 113.053 866.962 114.038C867.947 115.022 868.5 116.358 868.5 117.75V121.5Z" fill="black"/>
</g>
<rect x="832.5" y="234.5" width="166" height="65" fill="white"/>
<rect x="832.5" y="234.5" width="166" height="65" stroke="#0F62FE"/>
<rect x="833" y="235" width="165" height="64" fill="white"/>
<rect x="833" y="235" width="165" height="64" fill="#EDF5FF"/>
<g clip-path="url(#clip7_1_6438)">
<path d="M894.888 263L891.948 257.988L890.94 255.958H890.898V263H889.148V253.228H891.178L894.118 258.24L895.126 260.27H895.168V253.228H896.918V263H894.888ZM905.6 263V261.488H905.544C905.377 262.44 904.453 263.168 902.982 263.168C900.687 263.168 898.95 261.418 898.95 258.142C898.95 254.866 900.7 253.06 903.304 253.06C905.041 253.06 906.301 253.858 907.001 255.286L905.503 256.168C905.153 255.328 904.466 254.698 903.304 254.698C901.863 254.698 900.91 255.608 900.91 257.33V258.898C900.91 260.606 901.863 261.53 903.332 261.53C904.481 261.53 905.418 260.97 905.418 259.864V259.234H903.5V257.68H907.197V263H905.6ZM913.529 263H909.091V261.516H910.379V254.712H909.091V253.228H913.529V254.712H912.227V261.516H913.529V263ZM921.317 263L918.377 257.988L917.369 255.958H917.327V263H915.577V253.228H917.607L920.547 258.24L921.555 260.27H921.597V253.228H923.347V263H921.317ZM924.904 263L928.068 257.988L925.044 253.228H927.2L929.272 256.7H929.314L931.414 253.228H933.43L930.378 257.988L933.57 263H931.414L929.174 259.248H929.132L926.92 263H924.904ZM891.794 281H890.828C889.61 281 889.036 280.356 889.036 279.236V270.64H890.828V279.572H891.794V281ZM896.209 281.168C894.123 281.168 892.821 279.684 892.821 277.332C892.821 274.994 894.123 273.524 896.209 273.524C898.309 273.524 899.611 274.994 899.611 277.332C899.611 279.684 898.309 281.168 896.209 281.168ZM896.209 279.726C897.147 279.726 897.735 279.124 897.735 278.018V276.66C897.735 275.568 897.147 274.966 896.209 274.966C895.285 274.966 894.697 275.568 894.697 276.66V278.018C894.697 279.124 895.285 279.726 896.209 279.726ZM903.166 281.168C901.682 281.168 900.842 280.314 900.842 279.012C900.842 277.514 901.976 276.772 903.964 276.772H905.21V276.24C905.21 275.428 904.804 274.952 903.852 274.952C903.012 274.952 902.536 275.372 902.186 275.876L901.122 274.924C901.654 274.084 902.508 273.524 903.978 273.524C905.952 273.524 907.002 274.462 907.002 276.128V279.572H907.73V281H906.736C905.966 281 905.49 280.496 905.378 279.74H905.294C905.056 280.678 904.258 281.168 903.166 281.168ZM903.768 279.866C904.566 279.866 905.21 279.502 905.21 278.816V277.85H904.062C903.124 277.85 902.662 278.172 902.662 278.746V278.984C902.662 279.572 903.068 279.866 903.768 279.866ZM913.876 281V279.782H913.806C913.54 280.608 912.756 281.168 911.79 281.168C909.956 281.168 908.934 279.782 908.934 277.332C908.934 274.896 909.956 273.524 911.79 273.524C912.756 273.524 913.554 274.056 913.806 274.896H913.876V270.64H915.668V281H913.876ZM912.364 279.684C913.218 279.684 913.876 279.25 913.876 278.494V276.17C913.876 275.456 913.218 274.994 912.364 274.994C911.44 274.994 910.81 275.68 910.81 276.716V277.976C910.81 279.012 911.44 279.684 912.364 279.684ZM921.363 281V270.64H923.155V274.896H923.211C923.477 274.056 924.261 273.524 925.227 273.524C927.075 273.524 928.097 274.896 928.097 277.332C928.097 279.782 927.075 281.168 925.227 281.168C924.261 281.168 923.491 280.608 923.211 279.782H923.155V281H921.363ZM924.653 279.684C925.577 279.684 926.221 279.012 926.221 277.976V276.716C926.221 275.68 925.577 274.994 924.653 274.994C923.799 274.994 923.155 275.456 923.155 276.17V278.494C923.155 279.25 923.799 279.684 924.653 279.684ZM931.724 281.168C930.24 281.168 929.4 280.314 929.4 279.012C929.4 277.514 930.534 276.772 932.522 276.772H933.768V276.24C933.768 275.428 933.362 274.952 932.41 274.952C931.57 274.952 931.094 275.372 930.744 275.876L929.68 274.924C930.212 274.084 931.066 273.524 932.536 273.524C934.51 273.524 935.56 274.462 935.56 276.128V279.572H936.288V281H935.294C934.524 281 934.048 280.496 933.936 279.74H933.852C933.614 280.678 932.816 281.168 931.724 281.168ZM932.326 279.866C933.124 279.866 933.768 279.502 933.768 278.816V277.85H932.62C931.682 277.85 931.22 278.172 931.22 278.746V278.984C931.22 279.572 931.626 279.866 932.326 279.866ZM940.656 281H939.69C938.472 281 937.898 280.356 937.898 279.236V270.64H939.69V279.572H940.656V281ZM943.979 281.168C942.495 281.168 941.655 280.314 941.655 279.012C941.655 277.514 942.789 276.772 944.777 276.772H946.023V276.24C946.023 275.428 945.617 274.952 944.665 274.952C943.825 274.952 943.349 275.372 942.999 275.876L941.935 274.924C942.467 274.084 943.321 273.524 944.791 273.524C946.765 273.524 947.815 274.462 947.815 276.128V279.572H948.543V281H947.549C946.779 281 946.303 280.496 946.191 279.74H946.107C945.869 280.678 945.071 281.168 943.979 281.168ZM944.581 279.866C945.379 279.866 946.023 279.502 946.023 278.816V277.85H944.875C943.937 277.85 943.475 278.172 943.475 278.746V278.984C943.475 279.572 943.881 279.866 944.581 279.866ZM951.946 281H950.154V273.692H951.946V274.91H952.016C952.31 274.126 952.926 273.524 954.06 273.524C955.558 273.524 956.398 274.56 956.398 276.38V281H954.606V276.562C954.606 275.526 954.256 274.994 953.402 274.994C952.66 274.994 951.946 275.386 951.946 276.17V281ZM961.428 281.168C959.272 281.168 958.054 279.684 958.054 277.332C958.054 274.994 959.272 273.524 961.428 273.524C962.898 273.524 963.864 274.224 964.298 275.372L962.828 276.03C962.66 275.414 962.198 274.966 961.428 274.966C960.434 274.966 959.93 275.666 959.93 276.688V278.018C959.93 279.04 960.434 279.726 961.428 279.726C962.282 279.726 962.702 279.236 962.968 278.578L964.34 279.236C963.864 280.524 962.842 281.168 961.428 281.168ZM968.768 281.168C966.612 281.168 965.324 279.67 965.324 277.332C965.324 275.022 966.57 273.524 968.712 273.524C970.994 273.524 972.044 275.204 972.044 277.206V277.794H967.186V277.976C967.186 279.026 967.788 279.74 968.964 279.74C969.846 279.74 970.378 279.32 970.826 278.746L971.792 279.824C971.19 280.65 970.126 281.168 968.768 281.168ZM968.74 274.868C967.802 274.868 967.186 275.568 967.186 276.576V276.688H970.182V276.562C970.182 275.554 969.664 274.868 968.74 274.868ZM975.572 281H973.78V273.692H975.572V275.204H975.642C975.824 274.434 976.412 273.692 977.574 273.692H977.966V275.386H977.406C976.202 275.386 975.572 275.722 975.572 276.52V281Z" fill="black"/>
<rect width="24" height="24" transform="translate(848 246)" fill="white" fill-opacity="0.01" style="mix-blend-mode:multiply"/>
<path d="M854 265.5H851V268.5H854V265.5Z" fill="black"/>
<path d="M861.5 265.5H858.5V268.5H861.5V265.5Z" fill="black"/>
<path d="M869 265.5H866V268.5H869V265.5Z" fill="black"/>
<path d="M866.75 258H860.75V255H859.25V258H853.25C852.852 258 852.471 258.159 852.19 258.44C851.909 258.721 851.75 259.102 851.75 259.5V264H853.25V259.5H859.25V264H860.75V259.5H866.75V264H868.25V259.5C868.25 259.102 868.091 258.721 867.81 258.44C867.529 258.159 867.148 258 866.75 258Z" fill="black"/>
<path d="M860 253.5C859.407 253.5 858.827 253.324 858.333 252.994C857.84 252.665 857.455 252.196 857.228 251.648C857.001 251.1 856.942 250.497 857.058 249.915C857.173 249.333 857.459 248.798 857.879 248.379C858.298 247.959 858.833 247.673 859.415 247.558C859.997 247.442 860.6 247.501 861.148 247.728C861.696 247.955 862.165 248.34 862.494 248.833C862.824 249.327 863 249.907 863 250.5C862.999 251.295 862.683 252.058 862.12 252.62C861.558 253.183 860.795 253.499 860 253.5ZM860 249C859.703 249 859.413 249.088 859.167 249.253C858.92 249.418 858.728 249.652 858.614 249.926C858.501 250.2 858.471 250.502 858.529 250.793C858.587 251.084 858.73 251.351 858.939 251.561C859.149 251.77 859.416 251.913 859.707 251.971C859.998 252.029 860.3 251.999 860.574 251.886C860.848 251.772 861.082 251.58 861.247 251.333C861.412 251.087 861.5 250.797 861.5 250.5C861.5 250.102 861.341 249.721 861.06 249.44C860.779 249.159 860.398 249 860 249Z" fill="black"/>
</g>
<rect x="760.5" y="400.5" width="309" height="47" fill="white" fill-opacity="0.01" style="mix-blend-mode:multiply"/>
<rect x="760.5" y="400.5" width="309" height="47" stroke="#0F62FE"/>
<rect x="761" y="401" width="308" height="46" fill="white"/>
<rect x="761" y="401" width="308" height="46" fill="#EDF5FF"/>
<rect width="318" height="56" transform="translate(760 392)" fill="white" fill-opacity="0.01" style="mix-blend-mode:multiply"/>
<path d="M1078 392H760V448H1078V392Z" fill="white" fill-opacity="0.01" style="mix-blend-mode:multiply"/>
<path d="M764 396.5H1073.5V444" stroke="#0F62FE"/>
<path d="M768 392.5H1077.5V440" stroke="#0F62FE"/>
<g clip-path="url(#clip8_1_6438)">
<path d="M823.07 429V424.87H818.996V429H817.148V419.228H818.996V423.232H823.07V419.228H824.918V429H823.07ZM833.979 420.866H831.206V429H829.358V420.866H826.586V419.228H833.979V420.866ZM842.492 420.866H839.72V429H837.872V420.866H835.1V419.228H842.492V420.866ZM846.013 429H844.165V419.228H848.561C850.367 419.228 851.459 420.446 851.459 422.252C851.459 424.072 850.367 425.276 848.561 425.276H846.013V429ZM846.013 420.838V423.68H848.393C849.107 423.68 849.541 423.288 849.541 422.574V421.93C849.541 421.216 849.107 420.838 848.393 420.838H846.013ZM859.044 429.168C857.658 429.168 856.748 428.664 856.02 427.824L857.112 426.76C857.644 427.376 858.288 427.754 859.114 427.754C859.968 427.754 860.332 427.432 860.332 426.914C860.332 426.494 860.08 426.228 859.436 426.144L858.708 426.046C857.14 425.85 856.272 425.164 856.272 423.834C856.272 422.42 857.378 421.524 859.044 421.524C860.472 421.524 861.2 421.944 861.9 422.672L860.85 423.722C860.43 423.274 859.814 422.938 859.1 422.938C858.33 422.938 857.994 423.246 857.994 423.694C857.994 424.184 858.26 424.408 858.946 424.52L859.688 424.618C861.284 424.842 862.054 425.556 862.054 426.774C862.054 428.188 860.864 429.168 859.044 429.168ZM866.751 429.168C864.595 429.168 863.307 427.67 863.307 425.332C863.307 423.022 864.553 421.524 866.695 421.524C868.977 421.524 870.027 423.204 870.027 425.206V425.794H865.169V425.976C865.169 427.026 865.771 427.74 866.947 427.74C867.829 427.74 868.361 427.32 868.809 426.746L869.775 427.824C869.173 428.65 868.109 429.168 866.751 429.168ZM866.723 422.868C865.785 422.868 865.169 423.568 865.169 424.576V424.688H868.165V424.562C868.165 423.554 867.647 422.868 866.723 422.868ZM873.555 429H871.763V421.692H873.555V423.204H873.625C873.807 422.434 874.395 421.692 875.557 421.692H875.949V423.386H875.389C874.185 423.386 873.555 423.722 873.555 424.52V429ZM881.225 429H879.097L876.661 421.692H878.425L879.447 424.842L880.161 427.446H880.259L880.973 424.842L881.967 421.692H883.675L881.225 429ZM887.875 429.168C885.719 429.168 884.431 427.67 884.431 425.332C884.431 423.022 885.677 421.524 887.819 421.524C890.101 421.524 891.151 423.204 891.151 425.206V425.794H886.293V425.976C886.293 427.026 886.895 427.74 888.071 427.74C888.953 427.74 889.485 427.32 889.933 426.746L890.899 427.824C890.297 428.65 889.233 429.168 887.875 429.168ZM887.847 422.868C886.909 422.868 886.293 423.568 886.293 424.576V424.688H889.289V424.562C889.289 423.554 888.771 422.868 887.847 422.868ZM894.68 429H892.888V421.692H894.68V423.204H894.75C894.932 422.434 895.52 421.692 896.682 421.692H897.074V423.386H896.514C895.31 423.386 894.68 423.722 894.68 424.52V429ZM900.938 429.168C899.552 429.168 898.642 428.664 897.914 427.824L899.006 426.76C899.538 427.376 900.182 427.754 901.008 427.754C901.862 427.754 902.226 427.432 902.226 426.914C902.226 426.494 901.974 426.228 901.33 426.144L900.602 426.046C899.034 425.85 898.166 425.164 898.166 423.834C898.166 422.42 899.272 421.524 900.938 421.524C902.366 421.524 903.094 421.944 903.794 422.672L902.744 423.722C902.324 423.274 901.708 422.938 900.994 422.938C900.224 422.938 899.888 423.246 899.888 423.694C899.888 424.184 900.154 424.408 900.84 424.52L901.582 424.618C903.178 424.842 903.948 425.556 903.948 426.774C903.948 428.188 902.758 429.168 900.938 429.168Z" fill="black"/>
<rect width="24" height="24" transform="translate(776 412)" fill="white" fill-opacity="0.01" style="mix-blend-mode:multiply"/>
<path d="M782.75 417.25C783.164 417.25 783.5 416.914 783.5 416.5C783.5 416.086 783.164 415.75 782.75 415.75C782.336 415.75 782 416.086 782 416.5C782 416.914 782.336 417.25 782.75 417.25Z" fill="black"/>
<path d="M795.5 419.5H780.5C780.102 419.5 779.721 419.341 779.44 419.06C779.159 418.779 779 418.398 779 418V415C779 414.602 779.159 414.221 779.44 413.94C779.721 413.659 780.102 413.5 780.5 413.5H795.5C795.898 413.5 796.279 413.659 796.56 413.94C796.841 414.221 797 414.602 797 415V418C797 418.398 796.841 418.779 796.56 419.06C796.279 419.341 795.898 419.5 795.5 419.5ZM780.5 415V418H795.5V415H780.5Z" fill="black"/>
<path d="M782.75 424.75C783.164 424.75 783.5 424.414 783.5 424C783.5 423.586 783.164 423.25 782.75 423.25C782.336 423.25 782 423.586 782 424C782 424.414 782.336 424.75 782.75 424.75Z" fill="black"/>
<path d="M795.5 427H780.5C780.102 427 779.721 426.841 779.44 426.56C779.159 426.279 779 425.898 779 425.5V422.5C779 422.102 779.159 421.721 779.44 421.44C779.721 421.159 780.102 421 780.5 421H795.5C795.898 421 796.279 421.159 796.56 421.44C796.841 421.721 797 422.102 797 422.5V425.5C797 425.898 796.841 426.279 796.56 426.56C796.279 426.841 795.898 427 795.5 427ZM780.5 422.5V425.5H795.5V422.5H780.5Z" fill="black"/>
<path d="M782.75 432.25C783.164 432.25 783.5 431.914 783.5 431.5C783.5 431.086 783.164 430.75 782.75 430.75C782.336 430.75 782 431.086 782 431.5C782 431.914 782.336 432.25 782.75 432.25Z" fill="black"/>
<path d="M795.5 434.5H780.5C780.102 434.5 779.721 434.341 779.44 434.06C779.159 433.779 779 433.398 779 433V430C779 429.602 779.159 429.221 779.44 428.94C779.721 428.659 780.102 428.5 780.5 428.5H795.5C795.898 428.5 796.279 428.659 796.56 428.94C796.841 429.221 797 429.602 797 430V433C797 433.398 796.841 433.779 796.56 434.06C796.279 434.341 795.898 434.5 795.5 434.5ZM780.5 430V433H795.5V430H780.5Z" fill="black"/>
<line x1="762" y1="400" x2="762" y2="448" stroke="#0F62FE" stroke-width="4"/>
</g>
<rect width="285" height="10" transform="translate(541 271)" fill="white" fill-opacity="0.01" style="mix-blend-mode:multiply"/>
<rect width="271" height="0" transform="translate(548 276)" fill="white" fill-opacity="0.01" style="mix-blend-mode:multiply"/>
<path d="M548 276H819" stroke="black" stroke-dasharray="4 4"/>
<rect width="8" height="8" transform="translate(818 272)" fill="white" fill-opacity="0.01" style="mix-blend-mode:multiply"/>
<path d="M818 272L826 276L818 280V272Z" fill="black"/>
<rect width="8" height="8" transform="matrix(-1 0 0 1 549 272)" fill="white" fill-opacity="0.01" style="mix-blend-mode:multiply"/>
<path d="M549 272L541 276L549 280V272Z" fill="black"/>
<rect width="72" height="8" transform="matrix(0 -1 1 0 909 230)" fill="white" fill-opacity="0.01" style="mix-blend-mode:multiply"/>
<g clip-path="url(#clip9_1_6438)">
<rect width="65" height="0" transform="matrix(0 -1 1 0 913 230)" fill="white" fill-opacity="0.01" style="mix-blend-mode:multiply"/>
<path d="M913 230V165" stroke="black"/>
</g>
<rect width="8" height="8" transform="matrix(0 -1 1 0 909 166)" fill="white" fill-opacity="0.01" style="mix-blend-mode:multiply"/>
<path d="M909 166L913 158L917 166H909Z" fill="black"/>
<rect width="83" height="8" transform="matrix(0 -1 1 0 909 387)" fill="white" fill-opacity="0.01" style="mix-blend-mode:multiply"/>
<g clip-path="url(#clip10_1_6438)">
<rect width="76" height="0" transform="matrix(0 -1 1 0 913 380)" fill="white" fill-opacity="0.01" style="mix-blend-mode:multiply"/>
<path d="M913 380V304" stroke="black"/>
</g>
<rect width="8" height="8" transform="matrix(0 1 1 0 909 379)" fill="white" fill-opacity="0.01" style="mix-blend-mode:multiply"/>
<path d="M909 379L913 387L917 379H909Z" fill="black"/>
<path d="M644.756 261.866H641.984V270H640.136V261.866H637.364V260.228H644.756V261.866ZM652.127 270H646.429V260.228H648.277V268.362H652.127V270ZM656.928 270.168C655.262 270.168 654.114 269.51 653.288 268.544L654.534 267.34C655.206 268.124 656.032 268.544 657.04 268.544C658.174 268.544 658.762 267.998 658.762 267.172C658.762 266.514 658.454 266.108 657.432 265.926L656.508 265.786C654.534 265.478 653.582 264.54 653.582 262.944C653.582 261.194 654.94 260.06 657.124 260.06C658.594 260.06 659.686 260.564 660.47 261.502L659.21 262.692C658.734 262.09 658.062 261.684 657.026 261.684C655.976 261.684 655.43 262.104 655.43 262.832C655.43 263.574 655.85 263.882 656.788 264.05L657.698 264.218C659.672 264.568 660.596 265.45 660.596 267.06C660.596 268.908 659.266 270.168 656.928 270.168ZM668.863 270.168C666.777 270.168 665.475 268.684 665.475 266.332C665.475 263.994 666.777 262.524 668.863 262.524C670.963 262.524 672.265 263.994 672.265 266.332C672.265 268.684 670.963 270.168 668.863 270.168ZM668.863 268.726C669.801 268.726 670.389 268.124 670.389 267.018V265.66C670.389 264.568 669.801 263.966 668.863 263.966C667.939 263.966 667.351 264.568 667.351 265.66V267.018C667.351 268.124 667.939 268.726 668.863 268.726ZM674.296 270V264.106H673.218V262.692H674.296V261.642C674.296 260.354 674.996 259.64 676.312 259.64H677.586V261.068H676.088V262.692H677.586V264.106H676.088V270H674.296ZM679.391 270V264.106H678.313V262.692H679.391V261.642C679.391 260.354 680.091 259.64 681.407 259.64H682.681V261.068H681.183V262.692H682.681V264.106H681.183V270H679.391ZM686.84 270H685.874C684.656 270 684.082 269.356 684.082 268.236V259.64H685.874V268.572H686.84V270ZM691.255 270.168C689.169 270.168 687.867 268.684 687.867 266.332C687.867 263.994 689.169 262.524 691.255 262.524C693.355 262.524 694.657 263.994 694.657 266.332C694.657 268.684 693.355 270.168 691.255 270.168ZM691.255 268.726C692.193 268.726 692.781 268.124 692.781 267.018V265.66C692.781 264.568 692.193 263.966 691.255 263.966C690.331 263.966 689.743 264.568 689.743 265.66V267.018C689.743 268.124 690.331 268.726 691.255 268.726ZM698.212 270.168C696.728 270.168 695.888 269.314 695.888 268.012C695.888 266.514 697.022 265.772 699.01 265.772H700.256V265.24C700.256 264.428 699.85 263.952 698.898 263.952C698.058 263.952 697.582 264.372 697.232 264.876L696.168 263.924C696.7 263.084 697.554 262.524 699.024 262.524C700.998 262.524 702.048 263.462 702.048 265.128V268.572H702.776V270H701.782C701.012 270 700.536 269.496 700.424 268.74H700.34C700.102 269.678 699.304 270.168 698.212 270.168ZM698.814 268.866C699.612 268.866 700.256 268.502 700.256 267.816V266.85H699.108C698.17 266.85 697.708 267.172 697.708 267.746V267.984C697.708 268.572 698.114 268.866 698.814 268.866ZM708.922 270V268.782H708.852C708.586 269.608 707.802 270.168 706.836 270.168C705.002 270.168 703.98 268.782 703.98 266.332C703.98 263.896 705.002 262.524 706.836 262.524C707.802 262.524 708.6 263.056 708.852 263.896H708.922V259.64H710.714V270H708.922ZM707.41 268.684C708.264 268.684 708.922 268.25 708.922 267.494V265.17C708.922 264.456 708.264 263.994 707.41 263.994C706.486 263.994 705.856 264.68 705.856 265.716V266.976C705.856 268.012 706.486 268.684 707.41 268.684Z" fill="black"/>
<path d="M925.07 203V198.87H920.996V203H919.148V193.228H920.996V197.232H925.07V193.228H926.918V203H925.07ZM935.979 194.866H933.206V203H931.358V194.866H928.586V193.228H935.979V194.866ZM944.492 194.866H941.72V203H939.872V194.866H937.1V193.228H944.492V194.866ZM948.013 203H946.165V193.228H950.561C952.367 193.228 953.459 194.446 953.459 196.252C953.459 198.072 952.367 199.276 950.561 199.276H948.013V203ZM948.013 194.838V197.68H950.393C951.107 197.68 951.541 197.288 951.541 196.574V195.93C951.541 195.216 951.107 194.838 950.393 194.838H948.013ZM958.236 203.168C956.57 203.168 955.422 202.51 954.596 201.544L955.842 200.34C956.514 201.124 957.34 201.544 958.348 201.544C959.482 201.544 960.07 200.998 960.07 200.172C960.07 199.514 959.762 199.108 958.74 198.926L957.816 198.786C955.842 198.478 954.89 197.54 954.89 195.944C954.89 194.194 956.248 193.06 958.432 193.06C959.902 193.06 960.994 193.564 961.778 194.502L960.518 195.692C960.042 195.09 959.37 194.684 958.334 194.684C957.284 194.684 956.738 195.104 956.738 195.832C956.738 196.574 957.158 196.882 958.096 197.05L959.006 197.218C960.98 197.568 961.904 198.45 961.904 200.06C961.904 201.908 960.574 203.168 958.236 203.168ZM969.555 203C968.323 203 967.665 202.328 967.665 201.138V197.12H966.587V195.692H967.147C967.679 195.692 967.847 195.44 967.847 194.936V193.69H969.457V195.692H970.955V197.12H969.457V201.572H970.843V203H969.555ZM974.462 203H972.67V195.692H974.462V197.204H974.532C974.714 196.434 975.302 195.692 976.464 195.692H976.856V197.386H976.296C975.092 197.386 974.462 197.722 974.462 198.52V203ZM979.981 203.168C978.497 203.168 977.657 202.314 977.657 201.012C977.657 199.514 978.791 198.772 980.779 198.772H982.025V198.24C982.025 197.428 981.619 196.952 980.667 196.952C979.827 196.952 979.351 197.372 979.001 197.876L977.937 196.924C978.469 196.084 979.323 195.524 980.793 195.524C982.767 195.524 983.817 196.462 983.817 198.128V201.572H984.545V203H983.551C982.781 203 982.305 202.496 982.193 201.74H982.109C981.871 202.678 981.073 203.168 979.981 203.168ZM980.583 201.866C981.381 201.866 982.025 201.502 982.025 200.816V199.85H980.877C979.939 199.85 979.477 200.172 979.477 200.746V200.984C979.477 201.572 979.883 201.866 980.583 201.866ZM986.52 203V197.106H985.442V195.692H986.52V194.642C986.52 193.354 987.22 192.64 988.536 192.64H989.81V194.068H988.312V195.692H989.81V197.106H988.312V203H986.52ZM991.615 203V197.106H990.537V195.692H991.615V194.642C991.615 193.354 992.315 192.64 993.631 192.64H994.905V194.068H993.407V195.692H997.915V203H996.123V197.106H993.407V203H991.615ZM997.019 194.628C996.277 194.628 995.969 194.25 995.969 193.732V193.452C995.969 192.934 996.277 192.556 997.019 192.556C997.747 192.556 998.069 192.934 998.069 193.452V193.732C998.069 194.25 997.747 194.628 997.019 194.628ZM1003.03 203.168C1000.88 203.168 999.658 201.684 999.658 199.332C999.658 196.994 1000.88 195.524 1003.03 195.524C1004.5 195.524 1005.47 196.224 1005.9 197.372L1004.43 198.03C1004.26 197.414 1003.8 196.966 1003.03 196.966C1002.04 196.966 1001.53 197.666 1001.53 198.688V200.018C1001.53 201.04 1002.04 201.726 1003.03 201.726C1003.89 201.726 1004.31 201.236 1004.57 200.578L1005.94 201.236C1005.47 202.524 1004.45 203.168 1003.03 203.168Z" fill="black"/>
<path d="M926.07 356V351.87H921.996V356H920.148V346.228H921.996V350.232H926.07V346.228H927.918V356H926.07ZM936.979 347.866H934.206V356H932.358V347.866H929.586V346.228H936.979V347.866ZM945.492 347.866H942.72V356H940.872V347.866H938.1V346.228H945.492V347.866ZM949.013 356H947.165V346.228H951.561C953.367 346.228 954.459 347.446 954.459 349.252C954.459 351.072 953.367 352.276 951.561 352.276H949.013V356ZM949.013 347.838V350.68H951.393C952.107 350.68 952.541 350.288 952.541 349.574V348.93C952.541 348.216 952.107 347.838 951.393 347.838H949.013ZM961.932 356C960.7 356 960.042 355.328 960.042 354.138V350.12H958.964V348.692H959.524C960.056 348.692 960.224 348.44 960.224 347.936V346.69H961.834V348.692H963.332V350.12H961.834V354.572H963.22V356H961.932ZM966.839 356H965.047V348.692H966.839V350.204H966.909C967.091 349.434 967.679 348.692 968.841 348.692H969.233V350.386H968.673C967.469 350.386 966.839 350.722 966.839 351.52V356ZM972.358 356.168C970.874 356.168 970.034 355.314 970.034 354.012C970.034 352.514 971.168 351.772 973.156 351.772H974.402V351.24C974.402 350.428 973.996 349.952 973.044 349.952C972.204 349.952 971.728 350.372 971.378 350.876L970.314 349.924C970.846 349.084 971.7 348.524 973.17 348.524C975.144 348.524 976.194 349.462 976.194 351.128V354.572H976.922V356H975.928C975.158 356 974.682 355.496 974.57 354.74H974.486C974.248 355.678 973.45 356.168 972.358 356.168ZM972.96 354.866C973.758 354.866 974.402 354.502 974.402 353.816V352.85H973.254C972.316 352.85 971.854 353.172 971.854 353.746V353.984C971.854 354.572 972.26 354.866 972.96 354.866ZM978.897 356V350.106H977.819V348.692H978.897V347.642C978.897 346.354 979.597 345.64 980.913 345.64H982.187V347.068H980.689V348.692H982.187V350.106H980.689V356H978.897ZM983.992 356V350.106H982.914V348.692H983.992V347.642C983.992 346.354 984.692 345.64 986.008 345.64H987.282V347.068H985.784V348.692H990.292V356H988.5V350.106H985.784V356H983.992ZM989.396 347.628C988.654 347.628 988.346 347.25 988.346 346.732V346.452C988.346 345.934 988.654 345.556 989.396 345.556C990.124 345.556 990.446 345.934 990.446 346.452V346.732C990.446 347.25 990.124 347.628 989.396 347.628ZM995.409 356.168C993.253 356.168 992.035 354.684 992.035 352.332C992.035 349.994 993.253 348.524 995.409 348.524C996.879 348.524 997.845 349.224 998.279 350.372L996.809 351.03C996.641 350.414 996.179 349.966 995.409 349.966C994.415 349.966 993.911 350.666 993.911 351.688V353.018C993.911 354.04 994.415 354.726 995.409 354.726C996.263 354.726 996.683 354.236 996.949 353.578L998.321 354.236C997.845 355.524 996.823 356.168 995.409 356.168Z" fill="black"/>
<defs>
<clipPath id="clip0_1_6438">
<rect width="415" height="48" fill="white" transform="translate(121 90)"/>
</clipPath>
<clipPath id="clip1_1_6438">
<rect width="227" height="66" fill="white" transform="translate(185 138)"/>
</clipPath>
<clipPath id="clip2_1_6438">
<rect width="44" height="44" fill="white" transform="translate(272 199)"/>
</clipPath>
<clipPath id="clip3_1_6438">
<rect width="44" height="44" fill="white" transform="translate(454 152)"/>
</clipPath>
<clipPath id="clip4_1_6438">
<rect width="44" height="44" fill="white" transform="translate(463 144)"/>
</clipPath>
<clipPath id="clip5_1_6438">
<rect width="415" height="66" fill="white" transform="translate(121 376)"/>
</clipPath>
<clipPath id="clip6_1_6438">
<rect width="162" height="66" fill="white" transform="translate(833 87)"/>
</clipPath>
<clipPath id="clip7_1_6438">
<rect width="167" height="66" fill="white" transform="translate(832 234)"/>
</clipPath>
<clipPath id="clip8_1_6438">
<rect width="310" height="48" fill="white" transform="translate(760 400)"/>
</clipPath>
<clipPath id="clip9_1_6438">
<rect width="65" height="8" fill="white" transform="matrix(0 -1 1 0 909 230)"/>
</clipPath>
<clipPath id="clip10_1_6438">
<rect width="76" height="8" fill="white" transform="matrix(0 -1 1 0 909 380)"/>
</clipPath>
</defs>
</svg>
