<svg xmlns="http://www.w3.org/2000/svg" width="750" height="370" viewBox="0 0 750 370"><defs><style>.cls-1,.cls-8{fill:#f2f4f8;}.cls-1,.cls-10,.cls-11,.cls-12,.cls-14,.cls-16,.cls-2,.cls-3,.cls-4,.cls-5,.cls-7,.cls-8,.cls-9{stroke:#000;}.cls-1,.cls-10,.cls-11,.cls-12,.cls-14,.cls-16,.cls-17,.cls-19,.cls-2,.cls-5,.cls-7{stroke-linejoin:round;}.cls-17,.cls-19,.cls-2,.cls-9{fill:none;}.cls-10,.cls-11,.cls-14,.cls-16,.cls-17,.cls-2,.cls-7{stroke-linecap:round;}.cls-15,.cls-16,.cls-3,.cls-5{fill:#b3e6ff;}.cls-13,.cls-3,.cls-4,.cls-8,.cls-9{stroke-miterlimit:10;}.cls-14,.cls-4{fill:#e3f6ff;}.cls-6,.cls-7{fill:#e6d6ff;}.cls-10{fill:#fff;}.cls-11,.cls-12{fill:#87eded;}.cls-13{stroke:#fff;}.cls-17,.cls-19{stroke:#50565b;stroke-width:2px;}.cls-18{fill:#50565b;}</style></defs><title>ssl-offloading</title><g id="Figure"><rect class="cls-1" x="249.9725" y="255.6454" width="365" height="110"/><g id="HP_icon" data-name="HP icon"><line class="cls-2" x1="295.0439" y1="322.4311" x2="317.901" y2="322.4311"/><polyline class="cls-2" points="317.901 322.431 317.901 307.431 295.044 307.431 295.044 316.895"/><path class="cls-2" d="M313.6143,307.4311v-5.7153a7.1419,7.1419,0,0,0-14.2837,0v5.7153"/><path class="cls-2" d="M306.4686,333.1454s-20.3533-11.9321-20.3533-35.3571"/><path class="cls-2" d="M326.83,297.7883c0,23.425-20.361,35.3571-20.361,35.3571"/><polyline class="cls-2" points="286.115 297.788 306.472 286.003 326.83 297.788"/><circle class="cls-3" cx="326.8296" cy="297.7883" r="2.1429"/><circle class="cls-3" cx="286.1153" cy="297.7883" r="2.1429"/><circle class="cls-3" cx="306.4725" cy="333.1454" r="2.1429"/></g><path id="Cloud" class="cls-4" d="M434.9938,299.4364a25.0243,25.0243,0,0,0-24.5989,20.32,18.7682,18.7682,0,0,0,3.3032,37.2361h42.5413a18.7682,18.7682,0,0,0,3.3032-37.2361,25.0242,25.0242,0,0,0-19.8693-19.8693A25.6939,25.6939,0,0,0,434.9938,299.4364Z"/><g id="Hardware"><rect class="cls-5" x="414.9671" y="335.8611" width="40" height="10.5882"/><polygon class="cls-5" points="454.967 335.469 414.967 335.469 422.026 320.175 447.908 320.175 454.967 335.469"/><rect x="440.2613" y="338.8023" width="4.7059" height="4.7059"/><rect x="446.7318" y="338.8023" width="4.7059" height="4.7059"/></g><g id="lock"><g id="lock-2" data-name="lock"><rect class="cls-6" x="410.3725" y="334.4454" width="7.2" height="2.4"/><path class="cls-7" d="M413.9725,346.0454v-2.8m-4-6.528v-5.072a4,4,0,0,1,8,0v5.072m1.6,1.216a8.2008,8.2008,0,0,0-1.6-1.216,7.9987,7.9987,0,0,0-8,0,8.1948,8.1948,0,0,0-1.6,1.216,8,8,0,1,0,11.2,0Z"/><circle cx="413.9725" cy="343.2454" r="1.5"/></g></g><rect class="cls-8" x="249.9725" y="47.9922" width="365" height="145"/><g id="Database"><path class="cls-3" d="M590.7938,86.4657H543.1511c-3.289,0-5.9553,2.2854-5.9553,5.1046v56.15c0,2.8191,2.6663,5.1045,5.9553,5.1045h47.6427c3.289,0,5.9553-2.2854,5.9553-5.1045V91.57C596.7491,88.7511,594.0828,86.4657,590.7938,86.4657Z"/><line class="cls-9" x1="536.9725" y1="108.309" x2="596.9725" y2="108.309"/><line class="cls-9" x1="537.9402" y1="130.9818" x2="596.9725" y2="130.9818"/><circle cx="547.6176" cy="96.5164" r="3"/><circle cx="547.6176" cy="119.6454" r="3"/><circle cx="547.6176" cy="141.8067" r="3"/></g><g id="application"><g id="application-2" data-name="application"><path class="cls-10" d="M528.5,152.7625h-60v-56h60Zm-60-50h60m-44,0v50"/><path d="M524.5,99.7625a1,1,0,1,1-1-1A1,1,0,0,1,524.5,99.7625Zm-5-1a1,1,0,1,0,1,1A1,1,0,0,0,519.5,98.7625Zm-4,0a1,1,0,1,0,1,1A1,1,0,0,0,515.5,98.7625Z"/></g></g><g id="application-3" data-name="application"><g id="application-4" data-name="application"><path class="cls-10" d="M517.5,142.7625h-60v-56h60Zm-60-50h60m-44,0v50"/><path d="M513.5,89.7625a1,1,0,1,1-1-1A1,1,0,0,1,513.5,89.7625Zm-5-1a1,1,0,1,0,1,1A1,1,0,0,0,508.5,88.7625Zm-4,0a1,1,0,1,0,1,1A1,1,0,0,0,504.5,88.7625Z"/></g></g><g id="key"><path class="cls-11" d="M540.294,332.3852a11.68,11.68,0,1,1-.5547-7.9354"/><circle cx="525.2756" cy="329.1692" r="2.5"/><polyline class="cls-12" points="539.739 324.45 563.063 324.45 567.429 328.815 563.666 332.578 549.001 332.578 546.372 329.973 543.96 332.385 540.294 332.385"/></g><circle cx="174.6575" cy="60.5601" r="6"/><path d="M185.1575,76.56v3h-21v-3a9.0265,9.0265,0,0,1,9-9h3A9.0265,9.0265,0,0,1,185.1575,76.56Z"/><circle cx="153.6575" cy="60.5601" r="6"/><path d="M164.1575,76.56v3h-21v-3a9.0265,9.0265,0,0,1,9-9h3A9.0265,9.0265,0,0,1,164.1575,76.56Z"/><circle class="cls-13" cx="164.1575" cy="68.5601" r="6"/><path class="cls-13" d="M174.6575,84.56v3h-21v-3a9.0265,9.0265,0,0,1,9-9h3A9.0265,9.0265,0,0,1,174.6575,84.56Z"/><rect x="153.9075" y="161.5125" width="2.5625" height="5.125"/><rect x="153.9075" y="169.2" width="2.5625" height="5.125"/><rect x="161.595" y="161.5125" width="2.5625" height="5.125"/><rect x="161.595" y="169.2" width="2.5625" height="5.125"/><rect x="153.9075" y="176.8875" width="2.5625" height="5.125"/><rect x="161.595" y="176.8875" width="2.5625" height="5.125"/><path d="M182.095,169.2a2.5625,2.5625,0,0,0-2.5625-2.5625H171.845v-10.25a2.5625,2.5625,0,0,0-2.5625-2.5625h-20.5a2.5625,2.5625,0,0,0-2.5625,2.5625V189.7h35.875Zm-33.3125-12.8125h20.5v30.75h-20.5Zm23.0625,30.75V169.2h7.6875v17.9375Z"/><g id="Router"><path class="cls-4" d="M283.5,122.7625c0,6.08,17.91,11,40,11s40-4.92,40-11"/><polyline class="cls-14" points="363.5 122.763 363.5 107.763 283.5 107.763 283.5 122.763"/><ellipse class="cls-4" cx="323.5" cy="108.2625" rx="40" ry="11"/><polygon points="352.311 113.465 348.572 114.712 331.713 111.636 335.453 110.388 352.311 113.465"/><polygon points="327.013 109.258 328.184 112.813 337.549 109.689 327.013 109.258"/><polygon points="295.532 102.666 299.272 101.419 316.13 104.495 312.391 105.742 295.532 102.666"/><polygon points="320.83 106.873 319.659 103.318 310.295 106.441 320.83 106.873"/><polygon points="326.532 106.625 330.272 107.873 347.13 104.796 343.391 103.549 326.532 106.625"/><polygon points="351.83 102.419 350.659 105.973 341.295 102.85 351.83 102.419"/><polygon points="323.479 110.28 319.74 109.033 302.881 112.109 306.621 113.357 323.479 110.28"/><polygon points="298.181 114.487 299.352 110.932 308.717 114.056 298.181 114.487"/></g><path d="M156.6575,136.7625h-7.5a2.5,2.5,0,0,1-2.5-2.5v-15a2.5,2.5,0,0,1,2.5-2.5h7.5a2.5,2.5,0,0,1,2.5,2.5v15A2.5,2.5,0,0,1,156.6575,136.7625Zm-7.5-17.5v15h7.5v-15Z"/><path d="M179.1575,104.2625h-27.5a2.5,2.5,0,0,0-2.5,2.5v7.5h2.5v-7.5h27.5v17.5h-17.5v2.5h2.5v5h-2.5v2.5h11.25v-2.5h-6.25v-5h12.5a2.5,2.5,0,0,0,2.5-2.5v-17.5A2.5,2.5,0,0,0,179.1575,104.2625Z"/><g id="lock-3" data-name="lock"><g id="lock-4" data-name="lock"><rect class="cls-15" x="280.2193" y="123.6815" width="7.2" height="2.4"/><path class="cls-16" d="M283.8193,135.2815v-2.8m-4-6.528v-5.072a4,4,0,0,1,8,0v5.072m1.6,1.216a8.2018,8.2018,0,0,0-1.6-1.216,7.9987,7.9987,0,0,0-8,0,8.1988,8.1988,0,0,0-1.6,1.216,8,8,0,1,0,11.2,0Z"/><circle cx="283.8193" cy="132.4815" r="1.5"/></g></g></g><g id="Text"><path d="M16.7,22.1053v-9.772h4.396a3.22,3.22,0,0,1,1.2109.2168,2.5652,2.5652,0,0,1,.917.6163,2.6509,2.6509,0,0,1,.5743.9589,3.9965,3.9965,0,0,1,0,2.4712,2.657,2.657,0,0,1-.5743.9517,2.5585,2.5585,0,0,1-.917.6162,3.22,3.22,0,0,1-1.2109.2168H18.5479v3.7241Zm1.8482-5.32h2.38a1.1829,1.1829,0,0,0,.84-.2871,1.0641,1.0641,0,0,0,.3081-.8189v-.644a1.04,1.04,0,0,0-.3081-.812,1.2023,1.2023,0,0,0-.84-.28h-2.38Z"/><path d="M25.4219,22.1053V14.7972h1.792v1.5122h.07a2.3225,2.3225,0,0,1,.2173-.5669,1.7372,1.7372,0,0,1,.3847-.4834,1.8531,1.8531,0,0,1,.5669-.3359,2.1264,2.1264,0,0,1,.7632-.126h.3921v1.6943h-.56a2.81,2.81,0,0,0-1.3721.2657.9244.9244,0,0,0-.4619.8681v4.48Z"/><path d="M33.752,22.2733a3.5547,3.5547,0,0,1-1.4073-.2661,2.92,2.92,0,0,1-1.0639-.77,3.5079,3.5079,0,0,1-.6787-1.211,4.9479,4.9479,0,0,1-.2383-1.5889,4.886,4.886,0,0,1,.2383-1.582,3.4416,3.4416,0,0,1,.6787-1.1968,2.9525,2.9525,0,0,1,1.0639-.7631,3.553,3.553,0,0,1,1.4073-.2662,3.6037,3.6037,0,0,1,1.414.2662,2.9363,2.9363,0,0,1,1.0708.7631,3.4584,3.4584,0,0,1,.6792,1.1968,4.9,4.9,0,0,1,.2378,1.582,4.962,4.962,0,0,1-.2378,1.5889,3.5251,3.5251,0,0,1-.6792,1.211,2.9037,2.9037,0,0,1-1.0708.77A3.6054,3.6054,0,0,1,33.752,22.2733Zm0-1.4419a1.4587,1.4587,0,0,0,1.12-.4341,1.8,1.8,0,0,0,.4057-1.2739V17.7655a1.78,1.78,0,0,0-.4057-1.26,1.4608,1.4608,0,0,0-1.12-.4341,1.4419,1.4419,0,0,0-1.106.4341,1.7781,1.7781,0,0,0-.4063,1.26v1.3579a1.7983,1.7983,0,0,0,.4063,1.2739A1.44,1.44,0,0,0,33.752,20.8314Z"/><path d="M40.9614,22.1053a1.91,1.91,0,0,1-1.4067-.4814,1.8586,1.8586,0,0,1-.4829-1.376V16.2391H37.9937V14.7972h.56a.6676.6676,0,0,0,.5527-.189.9126.9126,0,0,0,.147-.5668V12.7953h1.61v2.0019h1.4975v1.4419H40.8638v4.4243H42.25v1.4419Z"/><path d="M46.814,22.2733A3.6452,3.6452,0,0,1,45.3647,22a2.9964,2.9964,0,0,1-1.0781-.77,3.4321,3.4321,0,0,1-.6787-1.2041,5.426,5.426,0,0,1-.0073-3.1567,3.4408,3.4408,0,0,1,.665-1.1973,2.9509,2.9509,0,0,1,1.064-.77,3.5655,3.5655,0,0,1,1.4282-.273,3.4817,3.4817,0,0,1,1.4839.294,2.862,2.862,0,0,1,1.0361.7983,3.4449,3.4449,0,0,1,.6089,1.169,4.8433,4.8433,0,0,1,.2031,1.4209v.5879H45.2319V19.08a1.7877,1.7877,0,0,0,.4478,1.272,1.7338,1.7338,0,0,0,1.33.4795,1.9853,1.9853,0,0,0,1.0991-.2778,3.13,3.13,0,0,0,.7627-.709l.9663,1.081a3.0051,3.0051,0,0,1-1.2251.99A4.2637,4.2637,0,0,1,46.814,22.2733Zm-.0284-6.3a1.4347,1.4347,0,0,0-1.1337.4761,1.7908,1.7908,0,0,0-.42,1.2319v.1118h2.9956v-.126a1.9187,1.9187,0,0,0-.3706-1.2251A1.2856,1.2856,0,0,0,46.7856,15.9735Z"/><path d="M54.5557,22.2733a3.68,3.68,0,0,1-1.4419-.2661,2.7819,2.7819,0,0,1-1.0572-.77,3.46,3.46,0,0,1-.6508-1.211,5.2434,5.2434,0,0,1-.2242-1.5889,5.1775,5.1775,0,0,1,.2242-1.582,3.3929,3.3929,0,0,1,.6508-1.1968,2.8117,2.8117,0,0,1,1.0572-.7631,3.678,3.678,0,0,1,1.4419-.2662,3.182,3.182,0,0,1,1.8271.49,2.7513,2.7513,0,0,1,1.043,1.3579l-1.47.6577a1.5252,1.5252,0,0,0-.4688-.7627,1.3626,1.3626,0,0,0-.9311-.3013,1.3413,1.3413,0,0,0-1.127.4761,1.9693,1.9693,0,0,0-.3711,1.2461v1.33a1.9381,1.9381,0,0,0,.3711,1.2388,1.3485,1.3485,0,0,0,1.127.4692,1.3973,1.3973,0,0,0,.9941-.3291,2.26,2.26,0,0,0,.5459-.8189l1.3721.6578a2.871,2.871,0,0,1-1.106,1.4492A3.2423,3.2423,0,0,1,54.5557,22.2733Z"/><path d="M61.1353,22.1053a1.91,1.91,0,0,1-1.4068-.4814,1.8586,1.8586,0,0,1-.4829-1.376V16.2391H58.1675V14.7972h.56a.6679.6679,0,0,0,.5528-.189.9133.9133,0,0,0,.1469-.5668V12.7953h1.61v2.0019h1.4976v1.4419H61.0376v4.4243h1.3857v1.4419Z"/><path d="M64.9854,13.7332a1.0873,1.0873,0,0,1-.8052-.2519.8848.8848,0,0,1-.2451-.644v-.28a.8849.8849,0,0,1,.2451-.6441,1.401,1.401,0,0,1,1.603,0,.8724.8724,0,0,1,.252.6441v.28a.8723.8723,0,0,1-.252.644A1.0912,1.0912,0,0,1,64.9854,13.7332Zm-.896,1.064h1.7919v7.3081H64.0894Z"/><path d="M67.9531,22.1053V14.7972h1.792v1.2183h.07a2.3431,2.3431,0,0,1,.7071-.9873,2.041,2.041,0,0,1,1.3369-.399,2.107,2.107,0,0,1,1.7363.7422,3.28,3.28,0,0,1,.6016,2.1138v4.62h-1.792v-4.438a2.0256,2.0256,0,0,0-.28-1.1758,1.0575,1.0575,0,0,0-.9238-.392,1.8976,1.8976,0,0,0-.5391.0766A1.5188,1.5188,0,0,0,70.2,16.4a1.1706,1.1706,0,0,0-.3291.3643.9987.9987,0,0,0-.126.5107v4.83Z"/><path d="M82.7788,22.7215a2.4047,2.4047,0,0,1-.2031,1.0147,1.7282,1.7282,0,0,1-.6646.7353,3.609,3.609,0,0,1-1.19.4478,10.3811,10.3811,0,0,1-3.3457.0351,3.77,3.77,0,0,1-1.0571-.3359,1.4092,1.4092,0,0,1-.5948-.5391,1.4525,1.4525,0,0,1-.1821-.728,1.296,1.296,0,0,1,.3428-.959,1.687,1.687,0,0,1,.959-.4409v-.1543a1.19,1.19,0,0,1-.6929-.4414,1.2664,1.2664,0,0,1-.2451-.7783,1.0657,1.0657,0,0,1,.1123-.4976,1.1507,1.1507,0,0,1,.3008-.3716,1.8309,1.8309,0,0,1,.4272-.2592,2.5493,2.5493,0,0,1,.5039-.1617v-.0556a2.1927,2.1927,0,0,1-1.001-.8535,2.414,2.414,0,0,1-.3291-1.273,2.2764,2.2764,0,0,1,.77-1.7973,3.31,3.31,0,0,1,2.2539-.6788,5.2807,5.2807,0,0,1,.665.042,2.9981,2.9981,0,0,1,.6089.14v-.2383a.9284.9284,0,0,1,1.0361-1.064h1.1338v1.3721H80.833v.1963a2.1212,2.1212,0,0,1,.854.84,2.4651,2.4651,0,0,1,.28,1.19,2.2538,2.2538,0,0,1-.7627,1.7778,3.33,3.33,0,0,1-2.2612.6724,4.41,4.41,0,0,1-1.12-.126,1.2083,1.2083,0,0,0-.3638.2588.5535.5535,0,0,0-.1543.3989q0,.5464.9521.5459h1.96a2.8551,2.8551,0,0,1,1.9531.5532A1.9671,1.9671,0,0,1,82.7788,22.7215Zm-1.68.21a.6306.6306,0,0,0-.28-.5464,1.76,1.76,0,0,0-.9658-.1958H77.3608a.8919.8919,0,0,0-.3779.7559.7534.7534,0,0,0,.35.6582,2.206,2.206,0,0,0,1.19.2378h.896A2.7475,2.7475,0,0,0,80.7,23.6175.7365.7365,0,0,0,81.0991,22.9315Zm-2.1562-4.606q1.3161,0,1.3159-1.1137v-.2369q0-1.1132-1.3159-1.1137T77.627,16.9749v.2369Q77.627,18.3251,78.9429,18.3255Z"/><path d="M91.6548,20.8875h-.07a1.8705,1.8705,0,0,1-.7422,1.0079,2.1826,2.1826,0,0,1-1.274.3779,2.4749,2.4749,0,0,1-2.1206-.9942,4.7162,4.7162,0,0,1-.7353-2.8418,4.6562,4.6562,0,0,1,.7353-2.8208,2.4821,2.4821,0,0,1,2.1206-.9873A2.2139,2.2139,0,0,1,90.8428,15a1.8391,1.8391,0,0,1,.7422,1.001h.07V11.7455h1.792v10.36h-1.792Zm-1.5117-.0981a1.8151,1.8151,0,0,0,1.0781-.3081,1.0155,1.0155,0,0,0,.4336-.8818V17.2752a1.0128,1.0128,0,0,0-.4336-.854,1.7625,1.7625,0,0,0-1.0781-.3217,1.4515,1.4515,0,0,0-1.127.4687,1.7885,1.7885,0,0,0-.4272,1.2529v1.26a1.7618,1.7618,0,0,0,.4272,1.2461A1.4632,1.4632,0,0,0,90.1431,20.7894Z"/><path d="M100.895,22.1053a1.258,1.258,0,0,1-.9311-.3428,1.5738,1.5738,0,0,1-.4268-.9169h-.084a1.7167,1.7167,0,0,1-.7422,1.0708,2.5321,2.5321,0,0,1-1.3862.3569,2.3666,2.3666,0,0,1-1.7217-.586,2.0817,2.0817,0,0,1-.602-1.5634,1.8926,1.8926,0,0,1,.812-1.6812,4.0888,4.0888,0,0,1,2.31-.5512h1.2461v-.5323a1.321,1.321,0,0,0-.3222-.9521,1.3844,1.3844,0,0,0-1.0362-.336,1.7191,1.7191,0,0,0-1.0146.273,2.6975,2.6975,0,0,0-.6514.6514l-1.0639-.9581a3.09,3.09,0,0,1,1.0781-1.0205,3.5441,3.5441,0,0,1,1.7778-.3877,3.3425,3.3425,0,0,1,2.2544.67,2.4194,2.4194,0,0,1,.77,1.9277v3.436h.7276v1.4419Zm-2.9682-1.1338a1.8847,1.8847,0,0,0,1.0219-.2641.8626.8626,0,0,0,.42-.7788v-.9595H98.2207q-1.4,0-1.4.89v.2364a.7719.7719,0,0,0,.2871.66A1.341,1.341,0,0,0,97.9268,20.9715Z"/><path d="M105.57,22.1053a1.91,1.91,0,0,1-1.4067-.4814,1.8586,1.8586,0,0,1-.4829-1.376V16.2391h-1.0782V14.7972h.56a.6676.6676,0,0,0,.5527-.189.9126.9126,0,0,0,.147-.5668V12.7953h1.61v2.0019H106.97v1.4419h-1.4975v4.4243h1.3857v1.4419Z"/><path d="M113.9,22.1053a1.2584,1.2584,0,0,1-.9312-.3428,1.5731,1.5731,0,0,1-.4267-.9169h-.084a1.7167,1.7167,0,0,1-.7422,1.0708,2.5321,2.5321,0,0,1-1.3862.3569,2.3666,2.3666,0,0,1-1.7217-.586,2.0814,2.0814,0,0,1-.6021-1.5634,1.8927,1.8927,0,0,1,.8121-1.6812,4.0888,4.0888,0,0,1,2.31-.5512h1.2461v-.5323a1.3206,1.3206,0,0,0-.3223-.9521,1.3839,1.3839,0,0,0-1.0361-.336,1.7191,1.7191,0,0,0-1.0146.273,2.6939,2.6939,0,0,0-.6514.6514l-1.064-.9581a3.09,3.09,0,0,1,1.0782-1.0205,3.5441,3.5441,0,0,1,1.7778-.3877,3.3426,3.3426,0,0,1,2.2544.67,2.4194,2.4194,0,0,1,.77,1.9277v3.436h.7275v1.4419Zm-2.9683-1.1338a1.8848,1.8848,0,0,0,1.022-.2641.8626.8626,0,0,0,.42-.7788v-.9595h-1.1484q-1.4,0-1.4.89v.2364a.7719.7719,0,0,0,.2871.66A1.3406,1.3406,0,0,0,110.9321,20.9715Z"/><path d="M120.55,13.7332a1.0875,1.0875,0,0,1-.8052-.2519.8848.8848,0,0,1-.2451-.644v-.28a.8849.8849,0,0,1,.2451-.6441,1.401,1.401,0,0,1,1.603,0,.8724.8724,0,0,1,.252.6441v.28a.8723.8723,0,0,1-.252.644A1.0909,1.0909,0,0,1,120.55,13.7332Zm-.896,1.064h1.792v7.3081h-1.792Z"/><path d="M123.5181,22.1053V14.7972h1.792v1.2183h.07a2.342,2.342,0,0,1,.707-.9873,2.041,2.041,0,0,1,1.3369-.399,2.1072,2.1072,0,0,1,1.7364.7422,3.2805,3.2805,0,0,1,.6015,2.1138v4.62H127.97v-4.438a2.0248,2.0248,0,0,0-.28-1.1758,1.0575,1.0575,0,0,0-.9238-.392,1.8964,1.8964,0,0,0-.539.0766,1.5182,1.5182,0,0,0-.462.2241,1.1706,1.1706,0,0,0-.3291.3643,1,1,0,0,0-.1259.5107v4.83Z"/><path d="M137.3359,22.1053a1.91,1.91,0,0,1-1.4067-.4814,1.8586,1.8586,0,0,1-.4829-1.376V16.2391h-1.0781V14.7972h.56a.6679.6679,0,0,0,.5528-.189.9133.9133,0,0,0,.1469-.5668V12.7953h1.61v2.0019h1.4975v1.4419h-1.4975v4.4243h1.3857v1.4419Z"/><path d="M140.29,22.1053V14.7972h1.792v1.5122h.07a2.3222,2.3222,0,0,1,.2172-.5669,1.7375,1.7375,0,0,1,.3848-.4834,1.8531,1.8531,0,0,1,.5669-.3359,2.1256,2.1256,0,0,1,.7632-.126h.3921v1.6943h-.56a2.8106,2.8106,0,0,0-1.3721.2657.9244.9244,0,0,0-.4619.8681v4.48Z"/><path d="M151.0142,22.1053a1.2582,1.2582,0,0,1-.9312-.3428,1.5738,1.5738,0,0,1-.4268-.9169h-.0839a1.7171,1.7171,0,0,1-.7422,1.0708,2.5327,2.5327,0,0,1-1.3863.3569,2.3664,2.3664,0,0,1-1.7216-.586,2.0814,2.0814,0,0,1-.6021-1.5634,1.8926,1.8926,0,0,1,.812-1.6812,4.0892,4.0892,0,0,1,2.31-.5512h1.2461v-.5323a1.3206,1.3206,0,0,0-.3223-.9521,1.3839,1.3839,0,0,0-1.0361-.336,1.72,1.72,0,0,0-1.0147.273,2.6953,2.6953,0,0,0-.6513.6514l-1.064-.9581a3.09,3.09,0,0,1,1.0781-1.0205,3.5448,3.5448,0,0,1,1.7779-.3877,3.3426,3.3426,0,0,1,2.2544.67,2.42,2.42,0,0,1,.77,1.9277v3.436h.7275v1.4419Zm-2.9683-1.1338a1.8848,1.8848,0,0,0,1.022-.2641.8628.8628,0,0,0,.42-.7788v-.9595H148.34q-1.4,0-1.4.89v.2364a.7717.7717,0,0,0,.2872.66A1.3406,1.3406,0,0,0,148.0459,20.9715Z"/><path d="M153.4639,22.1053V14.7972h1.792v1.2183h.07a2.342,2.342,0,0,1,.707-.9873,2.041,2.041,0,0,1,1.3369-.399,2.1072,2.1072,0,0,1,1.7364.7422,3.2805,3.2805,0,0,1,.6015,2.1138v4.62h-1.792v-4.438a2.0248,2.0248,0,0,0-.28-1.1758,1.0575,1.0575,0,0,0-.9238-.392,1.8964,1.8964,0,0,0-.539.0766,1.5182,1.5182,0,0,0-.462.2241,1.1706,1.1706,0,0,0-.3291.3643,1,1,0,0,0-.1259.5107v4.83Z"/><path d="M164.09,22.2733a3.9248,3.9248,0,0,1-1.7641-.3569,4.0609,4.0609,0,0,1-1.26-.9869l1.0923-1.0644a3.296,3.296,0,0,0,.8892.728,2.2642,2.2642,0,0,0,1.1128.2661,1.5253,1.5253,0,0,0,.9311-.2241.7384.7384,0,0,0,.2866-.6157.6645.6645,0,0,0-.2026-.5113,1.2932,1.2932,0,0,0-.6934-.2587l-.7275-.0982a3.4675,3.4675,0,0,1-1.8135-.6787,1.8934,1.8934,0,0,1-.6225-1.5332,2.27,2.27,0,0,1,.1958-.959,2.0316,2.0316,0,0,1,.56-.728,2.5647,2.5647,0,0,1,.875-.4619,3.7821,3.7821,0,0,1,1.1411-.1612,5.1967,5.1967,0,0,1,.9449.0772,3.429,3.429,0,0,1,.749.2241,2.8959,2.8959,0,0,1,.6162.3638,5.9019,5.9019,0,0,1,.5459.4829l-1.05,1.05a2.7714,2.7714,0,0,0-.77-.56,2.159,2.159,0,0,0-.98-.2241,1.3485,1.3485,0,0,0-.8467.21.67.67,0,0,0-.2592.5459.6926.6926,0,0,0,.2172.5532,1.5029,1.5029,0,0,0,.7349.2729l.7422.0982q2.3657.3354,2.3657,2.1557a2.1755,2.1755,0,0,1-.2168.9732,2.22,2.22,0,0,1-.6094.7558,2.8751,2.8751,0,0,1-.9448.49A4.1108,4.1108,0,0,1,164.09,22.2733Z"/><path d="M169.5776,13.7332a1.0871,1.0871,0,0,1-.8051-.2519.8849.8849,0,0,1-.2452-.644v-.28a.8849.8849,0,0,1,.2452-.6441,1.401,1.401,0,0,1,1.603,0,.8723.8723,0,0,1,.2519.6441v.28a.8722.8722,0,0,1-.2519.644A1.0913,1.0913,0,0,1,169.5776,13.7332Zm-.896,1.064h1.792v7.3081h-1.792Z"/><path d="M174.8271,22.1053a1.91,1.91,0,0,1-1.4067-.4814,1.8586,1.8586,0,0,1-.4829-1.376V16.2391h-1.0781V14.7972h.56a.6679.6679,0,0,0,.5528-.189.9133.9133,0,0,0,.1469-.5668V12.7953h1.61v2.0019h1.4976v1.4419H174.73v4.4243h1.3857v1.4419Z"/><path d="M180.3711,14.7972h1.7222l.7421,3.01.5738,2.5058h.0561l.6719-2.5058.854-3.01h1.624l.8824,3.01.6855,2.5058h.0562l.5742-2.5058.728-3.01h1.666l-2.0024,7.3081h-1.9317l-.938-3.22-.5458-1.9878h-.042l-.5323,1.9878-.9238,3.22h-1.9043Z"/><path d="M193.4473,13.7332a1.0873,1.0873,0,0,1-.8052-.2519.8848.8848,0,0,1-.2451-.644v-.28a.8849.8849,0,0,1,.2451-.6441,1.401,1.401,0,0,1,1.603,0,.8724.8724,0,0,1,.252.6441v.28a.8723.8723,0,0,1-.252.644A1.0912,1.0912,0,0,1,193.4473,13.7332Zm-.896,1.064h1.792v7.3081h-1.792Z"/><path d="M198.6968,22.1053a1.91,1.91,0,0,1-1.4068-.4814,1.859,1.859,0,0,1-.4829-1.376V16.2391H195.729V14.7972h.56a.6677.6677,0,0,0,.5527-.189.9133.9133,0,0,0,.147-.5668V12.7953h1.61v2.0019h1.4976v1.4419h-1.4976v4.4243h1.3858v1.4419Z"/><path d="M201.6509,11.7455h1.792v4.27h.07a2.342,2.342,0,0,1,.707-.9873,2.041,2.041,0,0,1,1.3369-.399,2.1072,2.1072,0,0,1,1.7364.7422,3.2805,3.2805,0,0,1,.6015,2.1138v4.62h-1.792v-4.438a2.0256,2.0256,0,0,0-.28-1.1758,1.0578,1.0578,0,0,0-.9239-.392,1.8964,1.8964,0,0,0-.539.0766,1.5182,1.5182,0,0,0-.462.2241,1.1706,1.1706,0,0,0-.3291.3643,1,1,0,0,0-.1259.5107v4.83h-1.792Z"/><path d="M217.1343,13.9715v8.1338h-1.8477V13.9715h-2.7724V12.3333h7.392v1.6382Z"/><path d="M221.4185,22.1053v-9.772h1.8481v8.1338h3.85v1.6382Z"/><path d="M231.7505,22.2733a4.6374,4.6374,0,0,1-2.1353-.4487,4.96,4.96,0,0,1-1.5048-1.1783l1.246-1.206a3.5675,3.5675,0,0,0,1.127.89,3.089,3.089,0,0,0,1.3789.3052,1.9471,1.9471,0,0,0,1.2881-.3682,1.2349,1.2349,0,0,0,.4341-.9931,1.1279,1.1279,0,0,0-.28-.792,1.8832,1.8832,0,0,0-1.05-.4444l-.9238-.1386q-2.9261-.4629-2.9263-2.8457a2.8124,2.8124,0,0,1,.2451-1.1914,2.5326,2.5326,0,0,1,.707-.9112,3.281,3.281,0,0,1,1.1128-.582,4.9587,4.9587,0,0,1,1.4771-.2031,4.7507,4.7507,0,0,1,1.9321.3647,3.7926,3.7926,0,0,1,1.4141,1.08l-1.26,1.1924a2.9,2.9,0,0,0-.8818-.7217,2.7348,2.7348,0,0,0-1.3018-.2773,1.9874,1.9874,0,0,0-1.1972.2983.9865.9865,0,0,0-.399.8394.9979.9979,0,0,0,.3218.8188,2.2676,2.2676,0,0,0,1.0362.3887l.91.1679a4.1769,4.1769,0,0,1,2.1909.9463,2.5107,2.5107,0,0,1,.7071,1.899,3.1736,3.1736,0,0,1-.2452,1.2685,2.7417,2.7417,0,0,1-.7138.981,3.2593,3.2593,0,0,1-1.148.6377A4.98,4.98,0,0,1,231.7505,22.2733Z"/><path d="M235.7959,24.2191l4.0181-12.4736h1.498l-4.0181,12.4736Z"/><path d="M245.7642,22.2733a4.6374,4.6374,0,0,1-2.1353-.4487,4.9607,4.9607,0,0,1-1.5049-1.1783L243.37,19.44a3.5664,3.5664,0,0,0,1.127.89,3.089,3.089,0,0,0,1.3789.3052,1.9471,1.9471,0,0,0,1.2881-.3682,1.2352,1.2352,0,0,0,.434-.9931,1.1279,1.1279,0,0,0-.28-.792,1.8839,1.8839,0,0,0-1.05-.4444l-.9239-.1386q-2.9259-.4629-2.9262-2.8457a2.8124,2.8124,0,0,1,.2451-1.1914,2.5326,2.5326,0,0,1,.707-.9112,3.28,3.28,0,0,1,1.1128-.582,4.9587,4.9587,0,0,1,1.4771-.2031,4.7507,4.7507,0,0,1,1.9321.3647,3.7926,3.7926,0,0,1,1.4141,1.08l-1.26,1.1924a2.9008,2.9008,0,0,0-.8818-.7217,2.7351,2.7351,0,0,0-1.3018-.2773,1.9879,1.9879,0,0,0-1.1973.2983.9864.9864,0,0,0-.3989.8394.9976.9976,0,0,0,.3218.8188,2.2667,2.2667,0,0,0,1.0361.3887l.91.1679a4.1773,4.1773,0,0,1,2.1909.9463,2.5107,2.5107,0,0,1,.707,1.899,3.1736,3.1736,0,0,1-.2451,1.2685,2.7432,2.7432,0,0,1-.7139.981,3.2589,3.2589,0,0,1-1.1479.6377A4.98,4.98,0,0,1,245.7642,22.2733Z"/><path d="M254.1362,22.2733a4.6372,4.6372,0,0,1-2.1352-.4487,4.9607,4.9607,0,0,1-1.5049-1.1783l1.2461-1.206a3.566,3.566,0,0,0,1.1269.89,3.0893,3.0893,0,0,0,1.3789.3052,1.9468,1.9468,0,0,0,1.2881-.3682,1.2349,1.2349,0,0,0,.4341-.9931,1.1275,1.1275,0,0,0-.28-.792,1.8832,1.8832,0,0,0-1.05-.4444l-.9238-.1386q-2.926-.4629-2.9263-2.8457a2.8124,2.8124,0,0,1,.2452-1.1914,2.5315,2.5315,0,0,1,.707-.9112,3.28,3.28,0,0,1,1.1128-.582,4.958,4.958,0,0,1,1.477-.2031,4.7512,4.7512,0,0,1,1.9322.3647,3.7931,3.7931,0,0,1,1.414,1.08l-1.26,1.1924a2.9012,2.9012,0,0,0-.8819-.7217,2.7347,2.7347,0,0,0-1.3017-.2773,1.9875,1.9875,0,0,0-1.1973.2983.9864.9864,0,0,0-.3989.8394.9976.9976,0,0,0,.3218.8188,2.2667,2.2667,0,0,0,1.0361.3887l.91.1679a4.1773,4.1773,0,0,1,2.191.9463,2.5107,2.5107,0,0,1,.707,1.899,3.1736,3.1736,0,0,1-.2451,1.2685,2.7432,2.7432,0,0,1-.7139.981,3.26,3.26,0,0,1-1.1479.6377A4.9812,4.9812,0,0,1,254.1362,22.2733Z"/><path d="M259.6523,22.1053v-9.772h1.8482v8.1338h3.85v1.6382Z"/><path d="M273.0361,22.2733a3.5542,3.5542,0,0,1-1.4072-.2661,2.9207,2.9207,0,0,1-1.064-.77,3.51,3.51,0,0,1-.6787-1.211,4.9506,4.9506,0,0,1-.2383-1.5889,4.8887,4.8887,0,0,1,.2383-1.582,3.4432,3.4432,0,0,1,.6787-1.1968,2.9537,2.9537,0,0,1,1.064-.7631,3.5525,3.5525,0,0,1,1.4072-.2662,3.6038,3.6038,0,0,1,1.4141.2662,2.9363,2.9363,0,0,1,1.0708.7631,3.46,3.46,0,0,1,.6792,1.1968,4.9,4.9,0,0,1,.2378,1.582,4.962,4.962,0,0,1-.2378,1.5889,3.5268,3.5268,0,0,1-.6792,1.211,2.9037,2.9037,0,0,1-1.0708.77A3.6056,3.6056,0,0,1,273.0361,22.2733Zm0-1.4419a1.4584,1.4584,0,0,0,1.12-.4341,1.8,1.8,0,0,0,.4058-1.2739V17.7655a1.78,1.78,0,0,0-.4058-1.26,1.4605,1.4605,0,0,0-1.12-.4341,1.4417,1.4417,0,0,0-1.1059.4341,1.7781,1.7781,0,0,0-.4063,1.26v1.3579a1.7983,1.7983,0,0,0,.4063,1.2739A1.44,1.44,0,0,0,273.0361,20.8314Z"/><path d="M278.3,16.2113h-1.0781V14.7972H278.3v-1.05a2.0237,2.0237,0,0,1,.5112-1.4839,2.0239,2.0239,0,0,1,1.5049-.518H281.59v1.4418h-1.498v1.61h1.498v1.4141h-1.498v5.894H278.3Z"/><path d="M283.2417,16.2113h-1.0781V14.7972h1.0781v-1.05a2.0237,2.0237,0,0,1,.5112-1.4839,2.0239,2.0239,0,0,1,1.5049-.518h1.2739v1.4418h-1.498v1.61h1.498v1.4141h-1.498v5.894h-1.792Z"/><path d="M289.57,22.1053a1.7825,1.7825,0,0,1-1.3579-.4619,1.8284,1.8284,0,0,1-.4341-1.3022V11.7455h1.792v8.9179h.9658v1.4419Z"/><path d="M294.7915,22.2733a3.5542,3.5542,0,0,1-1.4072-.2661,2.92,2.92,0,0,1-1.064-.77,3.51,3.51,0,0,1-.6787-1.211,4.9479,4.9479,0,0,1-.2383-1.5889,4.886,4.886,0,0,1,.2383-1.582,3.4432,3.4432,0,0,1,.6787-1.1968,2.9529,2.9529,0,0,1,1.064-.7631,3.5525,3.5525,0,0,1,1.4072-.2662,3.6042,3.6042,0,0,1,1.4141.2662,2.9372,2.9372,0,0,1,1.0708.7631,3.46,3.46,0,0,1,.6792,1.1968,4.9,4.9,0,0,1,.2378,1.582,4.962,4.962,0,0,1-.2378,1.5889,3.5268,3.5268,0,0,1-.6792,1.211,2.9045,2.9045,0,0,1-1.0708.77A3.606,3.606,0,0,1,294.7915,22.2733Zm0-1.4419a1.4585,1.4585,0,0,0,1.12-.4341,1.8005,1.8005,0,0,0,.4058-1.2739V17.7655a1.78,1.78,0,0,0-.4058-1.26,1.4607,1.4607,0,0,0-1.12-.4341,1.442,1.442,0,0,0-1.106.4341,1.7786,1.7786,0,0,0-.4062,1.26v1.3579a1.7987,1.7987,0,0,0,.4062,1.2739A1.44,1.44,0,0,0,294.7915,20.8314Z"/><path d="M305.1514,22.1053a1.2582,1.2582,0,0,1-.9312-.3428,1.5731,1.5731,0,0,1-.4267-.9169h-.084a1.7171,1.7171,0,0,1-.7422,1.0708,2.5324,2.5324,0,0,1-1.3862.3569,2.3666,2.3666,0,0,1-1.7217-.586,2.0814,2.0814,0,0,1-.6021-1.5634,1.8926,1.8926,0,0,1,.812-1.6812,4.0894,4.0894,0,0,1,2.31-.5512h1.2461v-.5323a1.3206,1.3206,0,0,0-.3223-.9521,1.3839,1.3839,0,0,0-1.0361-.336,1.72,1.72,0,0,0-1.0147.273,2.6953,2.6953,0,0,0-.6513.6514l-1.064-.9581a3.09,3.09,0,0,1,1.0781-1.0205,3.5448,3.5448,0,0,1,1.7779-.3877,3.3426,3.3426,0,0,1,2.2544.67,2.42,2.42,0,0,1,.77,1.9277v3.436h.7275v1.4419Zm-2.9683-1.1338a1.8848,1.8848,0,0,0,1.022-.2641.8626.8626,0,0,0,.42-.7788v-.9595h-1.1484q-1.4,0-1.4.89v.2364a.772.772,0,0,0,.2872.66A1.3406,1.3406,0,0,0,302.1831,20.9715Z"/><path d="M312.1367,20.8875h-.07a1.87,1.87,0,0,1-.7422,1.0079,2.1825,2.1825,0,0,1-1.2739.3779,2.4747,2.4747,0,0,1-2.1206-.9942,4.7155,4.7155,0,0,1-.7354-2.8418,4.6555,4.6555,0,0,1,.7354-2.8208,2.482,2.482,0,0,1,2.1206-.9873A2.2138,2.2138,0,0,1,311.3247,15a1.8386,1.8386,0,0,1,.7422,1.001h.07V11.7455h1.792v10.36h-1.792Zm-1.5117-.0981a1.8149,1.8149,0,0,0,1.0781-.3081,1.0155,1.0155,0,0,0,.4336-.8818V17.2752a1.0128,1.0128,0,0,0-.4336-.854,1.7622,1.7622,0,0,0-1.0781-.3217,1.4515,1.4515,0,0,0-1.127.4687,1.7885,1.7885,0,0,0-.4272,1.2529v1.26a1.7618,1.7618,0,0,0,.4272,1.2461A1.4632,1.4632,0,0,0,310.625,20.7894Z"/><path d="M316.897,13.7332a1.0873,1.0873,0,0,1-.8052-.2519.8848.8848,0,0,1-.2451-.644v-.28a.8849.8849,0,0,1,.2451-.6441,1.401,1.401,0,0,1,1.603,0,.8724.8724,0,0,1,.252.6441v.28a.8723.8723,0,0,1-.252.644A1.091,1.091,0,0,1,316.897,13.7332Zm-.896,1.064h1.792v7.3081h-1.792Z"/><path d="M319.8647,22.1053V14.7972h1.792v1.2183h.07a2.342,2.342,0,0,1,.707-.9873,2.041,2.041,0,0,1,1.3369-.399,2.1068,2.1068,0,0,1,1.7363.7422,3.28,3.28,0,0,1,.6016,2.1138v4.62h-1.792v-4.438a2.0256,2.0256,0,0,0-.28-1.1758,1.0575,1.0575,0,0,0-.9238-.392,1.8976,1.8976,0,0,0-.5391.0766,1.5188,1.5188,0,0,0-.4619.2241,1.1706,1.1706,0,0,0-.3291.3643.9987.9987,0,0,0-.126.5107v4.83Z"/><path d="M334.69,22.7215a2.397,2.397,0,0,1-.2031,1.0147,1.72,1.72,0,0,1-.665.7353,3.5988,3.5988,0,0,1-1.19.4478,10.3811,10.3811,0,0,1-3.3457.0351,3.77,3.77,0,0,1-1.0571-.3359,1.4089,1.4089,0,0,1-.5947-.5391,1.4516,1.4516,0,0,1-.1822-.728,1.296,1.296,0,0,1,.3428-.959,1.6873,1.6873,0,0,1,.959-.4409v-.1543a1.19,1.19,0,0,1-.6929-.4414,1.2664,1.2664,0,0,1-.2451-.7783,1.0657,1.0657,0,0,1,.1123-.4976,1.1507,1.1507,0,0,1,.3008-.3716,1.8351,1.8351,0,0,1,.4272-.2592,2.5493,2.5493,0,0,1,.5039-.1617v-.0556a2.192,2.192,0,0,1-1.0009-.8535,2.4131,2.4131,0,0,1-.3291-1.273,2.2764,2.2764,0,0,1,.77-1.7973,3.31,3.31,0,0,1,2.2539-.6788,5.2807,5.2807,0,0,1,.665.042,2.9965,2.9965,0,0,1,.6089.14v-.2383a.9283.9283,0,0,1,1.0357-1.064h1.1347v1.3721h-1.5542v.1963a2.1175,2.1175,0,0,1,.854.84,2.4641,2.4641,0,0,1,.28,1.19,2.253,2.253,0,0,1-.7637,1.7778,3.3276,3.3276,0,0,1-2.2607.6724,4.4107,4.4107,0,0,1-1.12-.126,1.2083,1.2083,0,0,0-.3638.2588.5535.5535,0,0,0-.1543.3989q0,.5464.9522.5459h1.96a2.8574,2.8574,0,0,1,1.9536.5532A1.9685,1.9685,0,0,1,334.69,22.7215Zm-1.68.21a.6307.6307,0,0,0-.28-.5464,1.7607,1.7607,0,0,0-.9659-.1958h-2.4921a.8918.8918,0,0,0-.378.7559.7534.7534,0,0,0,.35.6582,2.2062,2.2062,0,0,0,1.19.2378h.896a2.7471,2.7471,0,0,0,1.2807-.2237A.7365.7365,0,0,0,333.0107,22.9315Zm-2.1562-4.606q1.3161,0,1.3159-1.1137v-.2369q0-1.1132-1.3159-1.1137t-1.3159,1.1137v.2369Q329.5386,18.3251,330.8545,18.3255Z"/><path d="M371.0425,277.5155h-4.0737v4.13h-1.8482v-9.7715h1.8482v4.0039h4.0737v-4.0039h1.8481v9.7715h-1.8481Z"/><path d="M379.5547,274.3377h1.68l-2.94,8.6094a3.6759,3.6759,0,0,1-.3144.68,1.6978,1.6978,0,0,1-.4131.4688,1.5525,1.5525,0,0,1-.5742.2656,3.2236,3.2236,0,0,1-.7842.084H375.13v-1.4414h1.3159l.3359-1.0206-2.6176-7.6455h1.7778l1.2744,3.8555.4756,1.8438h.084l.5039-1.8438Z"/><path d="M382.41,274.3377h1.7919v1.2041h.0557A1.8411,1.8411,0,0,1,385,274.5409a2.2158,2.2158,0,0,1,1.2744-.3711,2.4984,2.4984,0,0,1,2.1348.9873,4.6531,4.6531,0,0,1,.7353,2.82,4.7144,4.7144,0,0,1-.7353,2.8418,2.491,2.491,0,0,1-2.1348.9941,2.1531,2.1531,0,0,1-1.2676-.3779,1.958,1.958,0,0,1-.749-1.0078h-.0557v4.0176H382.41Zm3.29,5.9922a1.4846,1.4846,0,0,0,1.1338-.4619,1.75,1.75,0,0,0,.4346-1.2461v-1.2607a1.7753,1.7753,0,0,0-.4346-1.253A1.4726,1.4726,0,0,0,385.7,275.64a1.7284,1.7284,0,0,0-1.0713.3223,1.0179,1.0179,0,0,0-.4268.8535V279.14a1.0217,1.0217,0,0,0,.4268.8818A1.78,1.78,0,0,0,385.7,280.33Z"/><path d="M393.7646,281.8133a3.6535,3.6535,0,0,1-1.4492-.2724,2.9992,2.9992,0,0,1-1.0781-.7705,3.4339,3.4339,0,0,1-.6787-1.2041,4.9457,4.9457,0,0,1-.2383-1.5889,5.007,5.007,0,0,1,.2305-1.5674,3.4363,3.4363,0,0,1,.665-1.1973,2.96,2.96,0,0,1,1.0645-.77,3.563,3.563,0,0,1,1.4277-.2724,3.4765,3.4765,0,0,1,1.4844.2939,2.87,2.87,0,0,1,1.0361.7979,3.4364,3.4364,0,0,1,.6084,1.1689,4.8272,4.8272,0,0,1,.2031,1.4209v.5879h-4.8574v.1807a1.7893,1.7893,0,0,0,.4473,1.2724,1.7353,1.7353,0,0,0,1.33.4795,1.9818,1.9818,0,0,0,1.1-.2783,3.1278,3.1278,0,0,0,.7627-.709l.9658,1.0811a3.0084,3.0084,0,0,1-1.2246.99A4.2671,4.2671,0,0,1,393.7646,281.8133Zm-.0283-6.3a1.434,1.434,0,0,0-1.1338.4766,1.791,1.791,0,0,0-.42,1.2314v.1123h2.9951v-.1259a1.9207,1.9207,0,0,0-.37-1.2256A1.2864,1.2864,0,0,0,393.7363,275.5135Z"/><path d="M398.6221,281.6454v-7.3077h1.792V275.85h.07a2.3322,2.3322,0,0,1,.2168-.5664,1.7272,1.7272,0,0,1,.3847-.4834,1.8539,1.8539,0,0,1,.5674-.336,2.1236,2.1236,0,0,1,.7627-.126h.3926v1.6944h-.5606a2.8081,2.8081,0,0,0-1.372.2656.9254.9254,0,0,0-.4619.8682v4.4795Z"/><path d="M407.54,281.6454v-9.7715h4.3955a3.2182,3.2182,0,0,1,1.211.2168,2.553,2.553,0,0,1,.917.6162,2.6474,2.6474,0,0,1,.5742.959,3.9852,3.9852,0,0,1,0,2.4707,2.6608,2.6608,0,0,1-.5742.9521,2.5658,2.5658,0,0,1-.917.6162,3.2182,3.2182,0,0,1-1.211.2168h-2.5478v3.7237Zm1.8477-5.3194h2.38a1.1826,1.1826,0,0,0,.84-.2871,1.0631,1.0631,0,0,0,.3086-.8193v-.6436a1.0392,1.0392,0,0,0-.3086-.8125,1.2021,1.2021,0,0,0-.84-.28h-2.38Z"/><path d="M416.2617,281.6454v-7.3077h1.792V275.85h.07a2.34,2.34,0,0,1,.2168-.5664,1.7294,1.7294,0,0,1,.3848-.4834,1.8528,1.8528,0,0,1,.5674-.336,2.1228,2.1228,0,0,1,.7627-.126h.3925v1.6944h-.56a2.8082,2.8082,0,0,0-1.3721.2656.9254.9254,0,0,0-.4619.8682v4.4795Z"/><path d="M424.5918,281.8133a3.5644,3.5644,0,0,1-1.4072-.2656,2.9231,2.9231,0,0,1-1.0635-.7705,3.5075,3.5075,0,0,1-.6787-1.2109,4.9457,4.9457,0,0,1-.2383-1.5889,4.8856,4.8856,0,0,1,.2383-1.582,3.4384,3.4384,0,0,1,.6787-1.1963,2.9505,2.9505,0,0,1,1.0635-.7637,3.5644,3.5644,0,0,1,1.4072-.2656,3.6131,3.6131,0,0,1,1.4141.2656,2.9381,2.9381,0,0,1,1.0712.7637,3.4544,3.4544,0,0,1,.6788,1.1963,4.8884,4.8884,0,0,1,.2382,1.582,4.9485,4.9485,0,0,1-.2382,1.5889,3.5239,3.5239,0,0,1-.6788,1.2109,2.9109,2.9109,0,0,1-1.0712.7705A3.6131,3.6131,0,0,1,424.5918,281.8133Zm0-1.4414a1.4556,1.4556,0,0,0,1.12-.4346,1.8,1.8,0,0,0,.4063-1.2734v-1.3584a1.7783,1.7783,0,0,0-.4063-1.26,1.4594,1.4594,0,0,0-1.12-.4345,1.441,1.441,0,0,0-1.1055.4345,1.7737,1.7737,0,0,0-.4062,1.26v1.3584a1.7951,1.7951,0,0,0,.4062,1.2734A1.4372,1.4372,0,0,0,424.5918,280.3719Z"/><path d="M431.8018,281.6454a1.9091,1.9091,0,0,1-1.4073-.4815,1.8588,1.8588,0,0,1-.4824-1.376v-4.0088H428.834v-1.4414h.56a.6677.6677,0,0,0,.5527-.1894.9088.9088,0,0,0,.1475-.5664v-1.2461h1.61v2.0019h1.4971v1.4414h-1.4971v4.4249H433.09v1.4414Z"/><path d="M437.6533,281.8133a3.6566,3.6566,0,0,1-1.4492-.2724,2.9992,2.9992,0,0,1-1.0781-.7705,3.4323,3.4323,0,0,1-.6787-1.2041,5.42,5.42,0,0,1-.0069-3.1563,3.4349,3.4349,0,0,1,.6651-1.1973,2.9549,2.9549,0,0,1,1.0634-.77,3.5684,3.5684,0,0,1,1.4288-.2724,3.4722,3.4722,0,0,1,1.4834.2939,2.8611,2.8611,0,0,1,1.0361.7979,3.4561,3.4561,0,0,1,.6094,1.1689,4.8638,4.8638,0,0,1,.2031,1.4209v.5879h-4.8584v.1807a1.79,1.79,0,0,0,.4482,1.2724,1.7355,1.7355,0,0,0,1.33.4795,1.98,1.98,0,0,0,1.0986-.2783,3.1081,3.1081,0,0,0,.7627-.709l.9668,1.0811a3.005,3.005,0,0,1-1.2256.99A4.26,4.26,0,0,1,437.6533,281.8133Zm-.0283-6.3a1.4367,1.4367,0,0,0-1.1338.4766,1.79,1.79,0,0,0-.42,1.2314v.1123h2.9961v-.1259a1.9211,1.9211,0,0,0-.3711-1.2256A1.2852,1.2852,0,0,0,437.625,275.5135Z"/><path d="M445.3955,281.8133a3.688,3.688,0,0,1-1.4424-.2656,2.7822,2.7822,0,0,1-1.0566-.7705,3.4586,3.4586,0,0,1-.6514-1.2109,5.2448,5.2448,0,0,1-.2236-1.5889,5.1807,5.1807,0,0,1,.2236-1.582,3.3892,3.3892,0,0,1,.6514-1.1963,2.8067,2.8067,0,0,1,1.0566-.7637,3.688,3.688,0,0,1,1.4424-.2656,3.1806,3.1806,0,0,1,1.8272.49,2.75,2.75,0,0,1,1.0429,1.3574l-1.4707.6582a1.5229,1.5229,0,0,0-.4687-.7627,1.36,1.36,0,0,0-.9307-.3017,1.34,1.34,0,0,0-1.1269.4765,1.9649,1.9649,0,0,0-.3711,1.2461v1.33a1.9341,1.9341,0,0,0,.3711,1.2383,1.3468,1.3468,0,0,0,1.1269.47,1.4,1.4,0,0,0,.9941-.3291,2.2664,2.2664,0,0,0,.5459-.8193l1.3721.6582a2.8732,2.8732,0,0,1-1.1064,1.4492A3.2458,3.2458,0,0,1,445.3955,281.8133Z"/><path d="M451.9756,281.6454a1.9089,1.9089,0,0,1-1.4072-.4815,1.8584,1.8584,0,0,1-.4825-1.376v-4.0088h-1.0781v-1.4414h.56a.6676.6676,0,0,0,.5527-.1894.9081.9081,0,0,0,.1475-.5664v-1.2461h1.61v2.0019h1.4971v1.4414h-1.4971v4.4249h1.3858v1.4414Z"/><path d="M462.14,281.8133a4.6015,4.6015,0,0,1-1.7431-.3144,3.4858,3.4858,0,0,1-1.33-.9453,4.2887,4.2887,0,0,1-.8476-1.5606,7.2178,7.2178,0,0,1-.294-2.1631,7.5021,7.5021,0,0,1,.294-2.1914,4.488,4.488,0,0,1,.8476-1.61,3.5887,3.5887,0,0,1,1.33-.9864,4.336,4.336,0,0,1,1.7431-.3359,3.9561,3.9561,0,0,1,2.1836.56,3.8386,3.8386,0,0,1,1.3858,1.6943l-1.582.84a2.2188,2.2188,0,0,0-.6856-1.0567,1.9624,1.9624,0,0,0-1.3018-.3994,2.0693,2.0693,0,0,0-1.6455.7,2.89,2.89,0,0,0-.6084,1.96v1.54a2.83,2.83,0,0,0,.6084,1.9531,2.101,2.101,0,0,0,1.6455.6787,2.0074,2.0074,0,0,0,1.3506-.4482,2.5828,2.5828,0,0,0,.7627-1.1055l1.4981.8819a4.3057,4.3057,0,0,1-1.4141,1.7011A3.7811,3.7811,0,0,1,462.14,281.8133Z"/><path d="M467.2217,281.6454v-7.3077h1.792V275.85h.07a2.257,2.257,0,0,1,.2168-.5664,1.7112,1.7112,0,0,1,.3847-.4834,1.8433,1.8433,0,0,1,.5674-.336,2.1236,2.1236,0,0,1,.7627-.126h.3916v1.6944h-.56a2.8056,2.8056,0,0,0-1.3721.2656.9254.9254,0,0,0-.4619.8682v4.4795Z"/><path d="M477.3145,274.3377h1.6806l-2.94,8.6094a3.7488,3.7488,0,0,1-.3145.68,1.6962,1.6962,0,0,1-.4131.4688,1.5585,1.5585,0,0,1-.5742.2656,3.2228,3.2228,0,0,1-.7841.084h-1.0782v-1.4414h1.3164l.336-1.0206-2.6182-7.6455h1.7783l1.2735,3.8555.4765,1.8438h.084l.5039-1.8438Z"/><path d="M480.1709,274.3377h1.792v1.2041h.0557a1.8361,1.8361,0,0,1,.7421-1.0009,2.2159,2.2159,0,0,1,1.2745-.3711,2.4981,2.4981,0,0,1,2.1347.9873,4.6526,4.6526,0,0,1,.7344,2.82,4.7138,4.7138,0,0,1-.7344,2.8418,2.4907,2.4907,0,0,1-2.1347.9941,2.1529,2.1529,0,0,1-1.2676-.3779,1.9575,1.9575,0,0,1-.749-1.0078h-.0557v4.0176h-1.792Zm3.29,5.9922a1.4844,1.4844,0,0,0,1.1338-.4619,1.7486,1.7486,0,0,0,.4336-1.2461v-1.2607a1.7744,1.7744,0,0,0-.4336-1.253,1.4724,1.4724,0,0,0-1.1338-.4687,1.7284,1.7284,0,0,0-1.0713.3223,1.0155,1.0155,0,0,0-.4267.8535V279.14a1.02,1.02,0,0,0,.4267.8818A1.78,1.78,0,0,0,483.4609,280.33Z"/><path d="M490.77,281.6454a1.9091,1.9091,0,0,1-1.4072-.4815,1.8588,1.8588,0,0,1-.4834-1.376v-4.0088h-1.0781v-1.4414h.5605a.668.668,0,0,0,.5528-.1894.9153.9153,0,0,0,.1474-.5664v-1.2461h1.6094v2.0019h1.498v1.4414h-1.498v4.4249h1.3867v1.4414Z"/><path d="M496.5645,281.8133a3.5564,3.5564,0,0,1-1.4063-.2656,2.9188,2.9188,0,0,1-1.0644-.7705,3.5076,3.5076,0,0,1-.6788-1.2109,4.9485,4.9485,0,0,1-.2382-1.5889,4.8884,4.8884,0,0,1,.2382-1.582,3.4386,3.4386,0,0,1,.6788-1.1963,2.9461,2.9461,0,0,1,1.0644-.7637,3.5564,3.5564,0,0,1,1.4063-.2656,3.6091,3.6091,0,0,1,1.414.2656,2.9385,2.9385,0,0,1,1.0713.7637,3.4384,3.4384,0,0,1,.6787,1.1963,4.8856,4.8856,0,0,1,.2383,1.582,4.9457,4.9457,0,0,1-.2383,1.5889,3.5075,3.5075,0,0,1-.6787,1.2109,2.9113,2.9113,0,0,1-1.0713.7705A3.6091,3.6091,0,0,1,496.5645,281.8133Zm0-1.4414a1.4557,1.4557,0,0,0,1.12-.4346,1.8,1.8,0,0,0,.4062-1.2734v-1.3584a1.7783,1.7783,0,0,0-.4062-1.26,1.46,1.46,0,0,0-1.12-.4345,1.441,1.441,0,0,0-1.1055.4345,1.7783,1.7783,0,0,0-.4063,1.26v1.3584a1.8,1.8,0,0,0,.4063,1.2734A1.4372,1.4372,0,0,0,496.5645,280.3719Z"/><path d="M508.002,281.8133a4.64,4.64,0,0,1-2.1348-.4482,4.97,4.97,0,0,1-1.5049-1.1787l1.2461-1.2061a3.5627,3.5627,0,0,0,1.127.89,3.0825,3.0825,0,0,0,1.3789.3056,1.9485,1.9485,0,0,0,1.288-.3681,1.2349,1.2349,0,0,0,.4336-.9932,1.1272,1.1272,0,0,0-.2793-.792,1.8806,1.8806,0,0,0-1.05-.4443l-.9248-.1387q-2.9253-.4629-2.9258-2.8457a2.8187,2.8187,0,0,1,.2452-1.1914,2.5284,2.5284,0,0,1,.707-.9111,3.26,3.26,0,0,1,1.1133-.5821,4.94,4.94,0,0,1,1.4765-.2031,4.7521,4.7521,0,0,1,1.9327.3643,3.7979,3.7979,0,0,1,1.413,1.08l-1.26,1.1924a2.8966,2.8966,0,0,0-.8819-.7217,2.7432,2.7432,0,0,0-1.3017-.2773,1.9865,1.9865,0,0,0-1.1973.2988.9865.9865,0,0,0-.3984.8389.9969.9969,0,0,0,.3213.8193,2.2747,2.2747,0,0,0,1.0361.3887l.91.168a4.1794,4.1794,0,0,1,2.1914.9463,2.5112,2.5112,0,0,1,.706,1.8984,3.17,3.17,0,0,1-.2441,1.2686,2.7473,2.7473,0,0,1-.7149.9814,3.2574,3.2574,0,0,1-1.1474.6377A4.98,4.98,0,0,1,508.002,281.8133Z"/><path d="M516.36,281.8133a3.6536,3.6536,0,0,1-1.4493-.2724,3,3,0,0,1-1.0781-.7705,3.4339,3.4339,0,0,1-.6787-1.2041,5.4191,5.4191,0,0,1-.0068-3.1563,3.4046,3.4046,0,0,1,.665-1.1973,2.9561,2.9561,0,0,1,1.0635-.77,3.5664,3.5664,0,0,1,1.4277-.2724,3.4765,3.4765,0,0,1,1.4844.2939,2.8611,2.8611,0,0,1,1.0361.7979,3.4543,3.4543,0,0,1,.6094,1.1689,4.86,4.86,0,0,1,.2021,1.4209v.5879h-4.8574v.1807a1.7894,1.7894,0,0,0,.4483,1.2724,1.7315,1.7315,0,0,0,1.3291.4795,1.9818,1.9818,0,0,0,1.1-.2783,3.1278,3.1278,0,0,0,.7627-.709l.9658,1.0811a3.0084,3.0084,0,0,1-1.2246.99A4.2637,4.2637,0,0,1,516.36,281.8133Zm-.0284-6.3a1.4367,1.4367,0,0,0-1.1338.4766,1.791,1.791,0,0,0-.42,1.2314v.1123h2.9961v-.1259a1.9211,1.9211,0,0,0-.3711-1.2256A1.2864,1.2864,0,0,0,516.332,275.5135Z"/><path d="M521.2188,281.6454v-7.3077h1.7919V275.85h.07a2.257,2.257,0,0,1,.2168-.5664,1.71,1.71,0,0,1,.3847-.4834,1.8421,1.8421,0,0,1,.5674-.336,2.1232,2.1232,0,0,1,.7627-.126h.3916v1.6944h-.56a2.8054,2.8054,0,0,0-1.372.2656.9253.9253,0,0,0-.462.8682v4.4795Z"/><path d="M528.3994,281.6454l-2.4355-7.3077h1.7636l1.0225,3.1495.7139,2.6044h.0976l.7149-2.6044.9931-3.1495h1.708l-2.4492,7.3077Z"/><path d="M535.0635,273.2733a1.0868,1.0868,0,0,1-.8047-.252.8863.8863,0,0,1-.2451-.6435v-.28a.8863.8863,0,0,1,.2451-.6435,1.4014,1.4014,0,0,1,1.6035,0,.8718.8718,0,0,1,.252.6435v.28a.8718.8718,0,0,1-.252.6435A1.0945,1.0945,0,0,1,535.0635,273.2733Zm-.8955,1.0644h1.792v7.3077h-1.792Z"/><path d="M540.916,281.8133a3.695,3.695,0,0,1-1.4424-.2656,2.7891,2.7891,0,0,1-1.0566-.7705,3.4586,3.4586,0,0,1-.6514-1.2109,5.2448,5.2448,0,0,1-.2236-1.5889,5.1807,5.1807,0,0,1,.2236-1.582,3.3892,3.3892,0,0,1,.6514-1.1963,2.8138,2.8138,0,0,1,1.0566-.7637,3.695,3.695,0,0,1,1.4424-.2656,3.1784,3.1784,0,0,1,1.8272.49,2.75,2.75,0,0,1,1.0429,1.3574l-1.47.6582a1.5176,1.5176,0,0,0-.47-.7627,1.36,1.36,0,0,0-.9307-.3017,1.34,1.34,0,0,0-1.1269.4765,1.9709,1.9709,0,0,0-.3711,1.2461v1.33a1.94,1.94,0,0,0,.3711,1.2383,1.3468,1.3468,0,0,0,1.1269.47,1.3986,1.3986,0,0,0,.9942-.3291,2.2563,2.2563,0,0,0,.5459-.8193l1.372.6582a2.8732,2.8732,0,0,1-1.1064,1.4492A3.2437,3.2437,0,0,1,540.916,281.8133Z"/><path d="M548.0977,281.8133a3.6536,3.6536,0,0,1-1.4493-.2724,3,3,0,0,1-1.0781-.7705,3.4339,3.4339,0,0,1-.6787-1.2041,5.4191,5.4191,0,0,1-.0068-3.1563,3.4046,3.4046,0,0,1,.665-1.1973,2.9561,2.9561,0,0,1,1.0635-.77,3.5664,3.5664,0,0,1,1.4277-.2724,3.4762,3.4762,0,0,1,1.4844.2939,2.8611,2.8611,0,0,1,1.0361.7979,3.4543,3.4543,0,0,1,.6094,1.1689,4.86,4.86,0,0,1,.2021,1.4209v.5879h-4.8574v.1807a1.7894,1.7894,0,0,0,.4483,1.2724,1.7315,1.7315,0,0,0,1.3291.4795,1.9818,1.9818,0,0,0,1.1-.2783,3.1278,3.1278,0,0,0,.7627-.709l.9658,1.0811a3.0084,3.0084,0,0,1-1.2246.99A4.2637,4.2637,0,0,1,548.0977,281.8133Zm-.0284-6.3a1.4368,1.4368,0,0,0-1.1338.4766,1.791,1.791,0,0,0-.42,1.2314v.1123h2.9961v-.1259a1.9211,1.9211,0,0,0-.3711-1.2256A1.2864,1.2864,0,0,0,548.0693,275.5135Z"/><path d="M555.35,281.8133a3.93,3.93,0,0,1-1.7637-.3564,4.0642,4.0642,0,0,1-1.26-.9873l1.0918-1.0645a3.3032,3.3032,0,0,0,.8886.7285,2.2665,2.2665,0,0,0,1.1133.2657,1.5252,1.5252,0,0,0,.9307-.2237.7384.7384,0,0,0,.2871-.6162.6623.6623,0,0,0-.2031-.5107,1.2879,1.2879,0,0,0-.6924-.2588l-.7285-.0986a3.4634,3.4634,0,0,1-1.8125-.6788,1.89,1.89,0,0,1-.6231-1.5332,2.2874,2.2874,0,0,1,.1953-.9589,2.0318,2.0318,0,0,1,.5606-.7276,2.5515,2.5515,0,0,1,.875-.4619,3.783,3.783,0,0,1,1.1406-.1611,5.1663,5.1663,0,0,1,.9453.0771,3.4153,3.4153,0,0,1,.749.2237,2.9163,2.9163,0,0,1,.6163.3642,5.9228,5.9228,0,0,1,.5459.4824l-1.05,1.0508a2.7636,2.7636,0,0,0-.77-.56,2.1581,2.1581,0,0,0-.98-.2237,1.3479,1.3479,0,0,0-.8476.21.669.669,0,0,0-.2588.5459.6927.6927,0,0,0,.2168.5527,1.5077,1.5077,0,0,0,.7354.2735l.7421.0976q2.3658.3355,2.3663,2.1563a2.1747,2.1747,0,0,1-.2178.9726,2.22,2.22,0,0,1-.6084.7559,2.8809,2.8809,0,0,1-.9453.49A4.1175,4.1175,0,0,1,555.35,281.8133Z"/><path d="M337.5664,229.202V219.43h4.396a3.22,3.22,0,0,1,1.2109.2168,2.578,2.578,0,0,1,.917.6162,2.6555,2.6555,0,0,1,.5743.959,3.9981,3.9981,0,0,1,0,2.4717,2.6549,2.6549,0,0,1-.5743.9512,2.5521,2.5521,0,0,1-.917.6162,3.22,3.22,0,0,1-1.2109.2168h-2.5478v3.7246Zm1.8482-5.32h2.38a1.1829,1.1829,0,0,0,.84-.2871,1.0629,1.0629,0,0,0,.3081-.8184v-.6445a1.04,1.04,0,0,0-.3081-.8115,1.2019,1.2019,0,0,0-.84-.28h-2.38Z"/><path d="M349.69,224.7782l-1.3017,1.54v2.8838h-1.8482V219.43h1.8482v4.8164h.07l1.3862-1.8339,2.4219-2.9825h2.1279l-3.4018,4.0743,3.6821,5.6982h-2.1982Z"/><path d="M359.3223,229.37a4.5989,4.5989,0,0,1-1.7427-.3155,3.49,3.49,0,0,1-1.33-.9443,4.2855,4.2855,0,0,1-.8472-1.5615,7.2005,7.2005,0,0,1-.2939-2.1631,7.4766,7.4766,0,0,1,.2939-2.19,4.4659,4.4659,0,0,1,.8472-1.61,3.6089,3.6089,0,0,1,1.33-.9873,4.3525,4.3525,0,0,1,1.7427-.3359,3.948,3.948,0,0,1,2.184.5605,3.846,3.846,0,0,1,1.3863,1.6934l-1.5821.84a2.2257,2.2257,0,0,0-.686-1.0566,1.9672,1.9672,0,0,0-1.3022-.3985,2.0712,2.0712,0,0,0-1.6451.6993,2.8925,2.8925,0,0,0-.6088,1.96v1.54a2.831,2.831,0,0,0,.6088,1.9531,2.0978,2.0978,0,0,0,1.6451.6787,2.0069,2.0069,0,0,0,1.351-.4473,2.5856,2.5856,0,0,0,.7632-1.1064l1.4981.8818a4.3039,4.3039,0,0,1-1.4141,1.7012A3.7779,3.7779,0,0,1,359.3223,229.37Z"/><path d="M367.5542,229.37a4.63,4.63,0,0,1-2.1353-.4493,4.9507,4.9507,0,0,1-1.5048-1.1777l1.2461-1.206a3.5731,3.5731,0,0,0,1.1269.89,3.0955,3.0955,0,0,0,1.3789.3047,1.944,1.944,0,0,0,1.2881-.3682,1.2349,1.2349,0,0,0,.4341-.9931,1.1277,1.1277,0,0,0-.28-.792,1.886,1.886,0,0,0-1.05-.4444l-.9238-.1386q-2.926-.4629-2.9263-2.8457a2.8155,2.8155,0,0,1,.2451-1.1914,2.5414,2.5414,0,0,1,.7071-.9112,3.2894,3.2894,0,0,1,1.1127-.582,4.975,4.975,0,0,1,1.4771-.2031,4.7489,4.7489,0,0,1,1.9321.3652,3.7874,3.7874,0,0,1,1.4141,1.08l-1.26,1.1924a2.8924,2.8924,0,0,0-.8818-.7217,2.7289,2.7289,0,0,0-1.3018-.2774,1.9875,1.9875,0,0,0-1.1972.2979,1.1374,1.1374,0,0,0-.0772,1.6582,2.262,2.262,0,0,0,1.0362.3887l.91.1679a4.1769,4.1769,0,0,1,2.1909.9463,2.5109,2.5109,0,0,1,.7071,1.8994,3.1789,3.1789,0,0,1-.2451,1.2686,2.7414,2.7414,0,0,1-.7139.9805,3.2609,3.2609,0,0,1-1.148.6377A4.98,4.98,0,0,1,367.5542,229.37Z"/><path d="M380.5322,226.6541H378.32l-.4482,2.5479h-1.19l.4346-2.5479H375.59v-1.1484h1.7364l.3916-2.38h-1.5117v-1.1484h1.7216l.4346-2.5479h1.19l-.4483,2.5479H381.33l.4336-2.5479h1.19l-.4346,2.5479h1.5264v1.1484H382.31l-.4053,2.38H383.43v1.1484H381.708l-.4482,2.5479H380.084Zm.1817-1.1484.42-2.38h-2.2119l-.42,2.38Z"/><path d="M385.6836,229.202v-1.498h2.6885V220.76h-.126l-2.1279,2.52-1.1485-.9668,2.4219-2.8838h2.7861v8.2745h2.24v1.498Z"/><path d="M394.083,229.202v-1.498h2.6885V220.76h-.126l-2.1279,2.52-1.1485-.9668,2.4219-2.8838h2.7861v8.2745h2.24v1.498Z"/><path d="M385.3564,125.5956v8.1337h-1.8476v-8.1337h-2.7725v-1.6382h7.3926v1.6382Z"/><path d="M389.6406,133.7293v-9.7719h1.8477v8.1338h3.8506v1.6381Z"/><path d="M399.9727,133.8973a4.641,4.641,0,0,1-2.1358-.4487,4.9616,4.9616,0,0,1-1.5049-1.1782l1.2461-1.2061a3.5723,3.5723,0,0,0,1.127.89,3.089,3.089,0,0,0,1.3789.3051,1.9462,1.9462,0,0,0,1.2881-.3681,1.2359,1.2359,0,0,0,.4345-.9932,1.1282,1.1282,0,0,0-.28-.792,1.881,1.881,0,0,0-1.05-.4443l-.9239-.1387q-2.9266-.4629-2.9267-2.8457a2.82,2.82,0,0,1,.2451-1.1914,2.5369,2.5369,0,0,1,.707-.9111,3.2874,3.2874,0,0,1,1.1133-.5821,4.9562,4.9562,0,0,1,1.4766-.2031,4.7532,4.7532,0,0,1,1.9326.3647,3.7965,3.7965,0,0,1,1.414,1.08l-1.2607,1.1924a2.8889,2.8889,0,0,0-.8818-.7217,2.7349,2.7349,0,0,0-1.3018-.2773,1.9887,1.9887,0,0,0-1.1973.2983.9874.9874,0,0,0-.3984.8394.9989.9989,0,0,0,.3213.8188,2.269,2.269,0,0,0,1.0361.3887l.91.168a4.1794,4.1794,0,0,1,2.1914.9463,2.5122,2.5122,0,0,1,.707,1.8989,3.1733,3.1733,0,0,1-.2451,1.2685,2.7423,2.7423,0,0,1-.7139.981,3.2612,3.2612,0,0,1-1.1484.6377A4.9773,4.9773,0,0,1,399.9727,133.8973Z"/><path d="M404.0186,135.8431l4.0175-12.4736h1.4981l-4.0176,12.4736Z"/><path d="M413.9863,133.8973a4.6336,4.6336,0,0,1-2.1347-.4487,4.96,4.96,0,0,1-1.5049-1.1782l1.2461-1.2061a3.5609,3.5609,0,0,0,1.1269.89,3.0893,3.0893,0,0,0,1.3789.3051,1.9477,1.9477,0,0,0,1.2881-.3681,1.2349,1.2349,0,0,0,.4336-.9932,1.1276,1.1276,0,0,0-.2793-.792,1.8844,1.8844,0,0,0-1.0508-.4443l-.9238-.1387q-2.9253-.4629-2.9258-2.8457a2.8066,2.8066,0,0,1,.2451-1.1914,2.5262,2.5262,0,0,1,.7071-.9111,3.2731,3.2731,0,0,1,1.1123-.5821,4.9666,4.9666,0,0,1,1.4775-.2031,4.7487,4.7487,0,0,1,1.9317.3647,3.79,3.79,0,0,1,1.414,1.08l-1.26,1.1924a2.9133,2.9133,0,0,0-.8819-.7217,2.7372,2.7372,0,0,0-1.3017-.2773,1.9865,1.9865,0,0,0-1.1973.2983.9857.9857,0,0,0-.3994.8394.9966.9966,0,0,0,.3222.8188,2.2653,2.2653,0,0,0,1.0362.3887l.91.168a4.172,4.172,0,0,1,2.19.9463,2.5088,2.5088,0,0,1,.707,1.8989,3.1733,3.1733,0,0,1-.2451,1.2685,2.7423,2.7423,0,0,1-.7139.981,3.2574,3.2574,0,0,1-1.1474.6377A4.9845,4.9845,0,0,1,413.9863,133.8973Z"/><path d="M422.3584,133.8973a4.634,4.634,0,0,1-2.1348-.4487,4.96,4.96,0,0,1-1.5048-1.1782l1.246-1.2061a3.5623,3.5623,0,0,0,1.127.89,3.089,3.089,0,0,0,1.3789.3051,1.9479,1.9479,0,0,0,1.2881-.3681,1.2349,1.2349,0,0,0,.4336-.9932,1.1276,1.1276,0,0,0-.2793-.792,1.8844,1.8844,0,0,0-1.0508-.4443l-.9238-.1387q-2.9253-.4629-2.9258-2.8457a2.8066,2.8066,0,0,1,.2451-1.1914,2.5259,2.5259,0,0,1,.707-.9111,3.275,3.275,0,0,1,1.1123-.5821,4.9677,4.9677,0,0,1,1.4776-.2031,4.7482,4.7482,0,0,1,1.9316.3647,3.79,3.79,0,0,1,1.4141,1.08l-1.26,1.1924a2.9117,2.9117,0,0,0-.8818-.7217,2.7374,2.7374,0,0,0-1.3018-.2773,1.9863,1.9863,0,0,0-1.1972.2983.9857.9857,0,0,0-.3994.8394.9966.9966,0,0,0,.3222.8188,2.2653,2.2653,0,0,0,1.0362.3887l.91.168a4.1716,4.1716,0,0,1,2.19.9463,2.5085,2.5085,0,0,1,.7071,1.8989,3.1733,3.1733,0,0,1-.2452,1.2685,2.7408,2.7408,0,0,1-.7138.981,3.257,3.257,0,0,1-1.1475.6377A4.9834,4.9834,0,0,1,422.3584,133.8973Z"/><path d="M427.874,133.7293v-9.7719h1.8487v8.1338h3.85v1.6381Z"/><path d="M378.3359,150.6971a3.5577,3.5577,0,0,1-1.4072-.2661,2.9177,2.9177,0,0,1-1.0635-.77,3.51,3.51,0,0,1-.6787-1.211,4.9468,4.9468,0,0,1-.2383-1.5888,4.8862,4.8862,0,0,1,.2383-1.5821,3.4418,3.4418,0,0,1,.6787-1.1967,2.951,2.951,0,0,1,1.0635-.7632,3.5559,3.5559,0,0,1,1.4072-.2661,3.6038,3.6038,0,0,1,1.4141.2661,2.9381,2.9381,0,0,1,1.0713.7632,3.4577,3.4577,0,0,1,.6787,1.1967,4.8862,4.8862,0,0,1,.2383,1.5821A4.9468,4.9468,0,0,1,381.5,148.45a3.5258,3.5258,0,0,1-.6787,1.211,2.9052,2.9052,0,0,1-1.0713.77A3.6056,3.6056,0,0,1,378.3359,150.6971Zm0-1.4419a1.4574,1.4574,0,0,0,1.12-.4341,1.8,1.8,0,0,0,.4062-1.2739v-1.3579a1.78,1.78,0,0,0-.4062-1.26,1.46,1.46,0,0,0-1.12-.434,1.44,1.44,0,0,0-1.1054.434,1.7759,1.7759,0,0,0-.4063,1.26v1.3579a1.7957,1.7957,0,0,0,.4063,1.2739A1.4384,1.4384,0,0,0,378.3359,149.2552Z"/><path d="M383.6,144.6351h-1.0781V143.221H383.6v-1.05a1.8035,1.8035,0,0,1,2.0166-2.0019H386.89v1.4419h-1.498v1.61h1.498v1.4141h-1.498v5.894H383.6Z"/><path d="M388.542,144.6351h-1.0781V143.221h1.0781v-1.05a1.8022,1.8022,0,0,1,2.0156-2.0019h1.2744v1.4419h-1.498v1.61h1.498v1.4141h-1.498v5.894h-1.792Z"/><path d="M394.87,150.5291a1.7837,1.7837,0,0,1-1.3584-.4619,1.83,1.83,0,0,1-.4336-1.3022v-8.5957h1.792v8.918h.9658v1.4418Z"/><path d="M400.0918,150.6971a3.5508,3.5508,0,0,1-1.4072-.2661,2.92,2.92,0,0,1-1.0645-.77,3.51,3.51,0,0,1-.6787-1.211,4.9468,4.9468,0,0,1-.2383-1.5888,4.8862,4.8862,0,0,1,.2383-1.5821,3.4418,3.4418,0,0,1,.6787-1.1967,2.9538,2.9538,0,0,1,1.0645-.7632,3.549,3.549,0,0,1,1.4072-.2661,3.6042,3.6042,0,0,1,1.4141.2661,2.9344,2.9344,0,0,1,1.07.7632,3.46,3.46,0,0,1,.68,1.1967,4.9142,4.9142,0,0,1,.2373,1.5821,4.9752,4.9752,0,0,1-.2373,1.5888,3.5277,3.5277,0,0,1-.68,1.211,2.9016,2.9016,0,0,1-1.07.77A3.606,3.606,0,0,1,400.0918,150.6971Zm0-1.4419a1.46,1.46,0,0,0,1.12-.4341,1.8,1.8,0,0,0,.4053-1.2739v-1.3579a1.78,1.78,0,0,0-.4053-1.26,1.4621,1.4621,0,0,0-1.12-.434,1.4427,1.4427,0,0,0-1.1064.434,1.78,1.78,0,0,0-.4063,1.26v1.3579a1.8,1.8,0,0,0,.4063,1.2739A1.4407,1.4407,0,0,0,400.0918,149.2552Z"/><path d="M410.4512,150.5291a1.2581,1.2581,0,0,1-.9307-.3427,1.57,1.57,0,0,1-.4267-.917h-.084a1.7187,1.7187,0,0,1-.7422,1.0708,2.5345,2.5345,0,0,1-1.3867.3569,2.3685,2.3685,0,0,1-1.7217-.5859,2.0811,2.0811,0,0,1-.6016-1.5635,1.8935,1.8935,0,0,1,.8115-1.6812,4.092,4.092,0,0,1,2.3106-.5512h1.2461v-.5322a1.3207,1.3207,0,0,0-.3223-.9522,1.3851,1.3851,0,0,0-1.0361-.3359,1.7192,1.7192,0,0,0-1.0147.2729,2.6864,2.6864,0,0,0-.6513.6514l-1.0645-.958a3.0929,3.0929,0,0,1,1.0781-1.02,3.5468,3.5468,0,0,1,1.7784-.3877,3.3412,3.3412,0,0,1,2.2539.67,2.4184,2.4184,0,0,1,.7705,1.9277v3.4361h.7275v1.4418Zm-2.9678-1.1337a1.881,1.881,0,0,0,1.0215-.2642.8629.8629,0,0,0,.4209-.7788v-.9595h-1.1485q-1.4,0-1.4.89v.2363a.7718.7718,0,0,0,.2871.66A1.3422,1.3422,0,0,0,407.4834,149.3954Z"/><path d="M417.4365,149.3114h-.0693a1.87,1.87,0,0,1-.7422,1.0078,2.1851,2.1851,0,0,1-1.2744.3779,2.4731,2.4731,0,0,1-2.12-.9941,4.7157,4.7157,0,0,1-.7354-2.8418,4.6551,4.6551,0,0,1,.7354-2.8208,2.48,2.48,0,0,1,2.12-.9873,2.2158,2.2158,0,0,1,1.2744.3711,1.838,1.838,0,0,1,.7422,1.0009h.0693v-4.2558h1.792v10.36h-1.792Zm-1.5117-.0982a1.8128,1.8128,0,0,0,1.0781-.3081,1.0155,1.0155,0,0,0,.4336-.8818v-2.3242a1.0127,1.0127,0,0,0-.4336-.854,1.76,1.76,0,0,0-1.0781-.3218,1.4518,1.4518,0,0,0-1.1269.4687,1.7879,1.7879,0,0,0-.4268,1.253v1.26a1.761,1.761,0,0,0,.4268,1.2461A1.4635,1.4635,0,0,0,415.9248,149.2132Z"/><path d="M422.1973,142.1571a1.0879,1.0879,0,0,1-.8057-.252.8867.8867,0,0,1-.2451-.644v-.28a.8867.8867,0,0,1,.2451-.644,1.4014,1.4014,0,0,1,1.6035,0,.8722.8722,0,0,1,.252.644v.28a.8722.8722,0,0,1-.252.644A1.092,1.092,0,0,1,422.1973,142.1571Zm-.8965,1.0639h1.792v7.3081h-1.792Z"/><path d="M425.165,150.5291V143.221h1.792v1.2183h.0694a2.3463,2.3463,0,0,1,.707-.9873,2.0425,2.0425,0,0,1,1.3369-.3989,2.1054,2.1054,0,0,1,1.7363.7422,3.2767,3.2767,0,0,1,.6016,2.1137v4.62h-1.792v-4.4379a2.0254,2.0254,0,0,0-.2793-1.1758,1.0585,1.0585,0,0,0-.9238-.3921,1.896,1.896,0,0,0-.5391.0766,1.5166,1.5166,0,0,0-.4619.2242,1.1692,1.1692,0,0,0-.3291.3642.9993.9993,0,0,0-.126.5108v4.83Z"/><path d="M439.99,151.1454a2.395,2.395,0,0,1-.2031,1.0146,1.7233,1.7233,0,0,1-.6641.7354,3.61,3.61,0,0,1-1.19.4477,10.3851,10.3851,0,0,1-3.3457.0352,3.77,3.77,0,0,1-1.0576-.336,1.4094,1.4094,0,0,1-.5947-.539,1.4571,1.4571,0,0,1-.1817-.7281,1.2958,1.2958,0,0,1,.3428-.9589,1.6864,1.6864,0,0,1,.959-.441v-.1543a1.1911,1.1911,0,0,1-.6934-.4414,1.27,1.27,0,0,1-.2451-.7783,1.0653,1.0653,0,0,1,.1123-.4975,1.1486,1.1486,0,0,1,.3008-.3716,1.8353,1.8353,0,0,1,.4277-.2593,2.5557,2.5557,0,0,1,.5039-.1616v-.0557a2.1888,2.1888,0,0,1-1.0009-.8535,2.4131,2.4131,0,0,1-.3291-1.273,2.2761,2.2761,0,0,1,.7695-1.7973,3.3113,3.3113,0,0,1,2.2539-.6787,5.25,5.25,0,0,1,.665.042,2.9937,2.9937,0,0,1,.6094.14v-.2383a.9281.9281,0,0,1,1.0361-1.0639h1.1338v1.372h-1.5537v.1963a2.12,2.12,0,0,1,.8535.84,2.4637,2.4637,0,0,1,.28,1.19,2.2552,2.2552,0,0,1-.7627,1.7778,3.33,3.33,0,0,1-2.2617.6724,4.4135,4.4135,0,0,1-1.12-.126,1.2077,1.2077,0,0,0-.3633.2588.5515.5515,0,0,0-.1543.3989q0,.5464.9522.5459h1.96a2.8563,2.8563,0,0,1,1.9531.5533A1.9682,1.9682,0,0,1,439.99,151.1454Zm-1.68.21a.6307.6307,0,0,0-.28-.5464,1.7612,1.7612,0,0,0-.9658-.1958h-2.4922a.8919.8919,0,0,0-.378.7559.7538.7538,0,0,0,.3506.6582,2.2041,2.2041,0,0,0,1.19.2378h.8965a2.7462,2.7462,0,0,0,1.28-.2236A.7359.7359,0,0,0,438.3105,151.3553Zm-2.1562-4.6059q1.3168,0,1.3164-1.1138v-.2368q0-1.1133-1.3164-1.1138t-1.3154,1.1138v.2368Q434.8389,146.7489,436.1543,146.7494Z"/></g><g id="Line"><line class="cls-17" x1="230.0006" y1="114.4935" x2="274.2323" y2="114.4935"/><polygon class="cls-18" points="273.065 118.483 279.973 114.494 273.065 110.504 273.065 118.483"/><line class="cls-17" x1="373" y1="114.2633" x2="444.2315" y2="114.4758"/><polygon class="cls-18" points="443.052 118.461 449.972 114.493 443.076 110.483 443.052 118.461"/><line class="cls-17" x1="194" y1="68.2625" x2="230" y2="68.2625"/><line class="cls-17" x1="194" y1="166.2625" x2="230" y2="166.2625"/><line class="cls-19" x1="323.9725" y1="146.0035" x2="323.9725" y2="246.5215"/><polygon class="cls-18" points="319.983 147.171 323.972 140.263 327.962 147.171 319.983 147.171"/><polygon class="cls-18" points="319.983 245.354 323.972 252.263 327.962 245.354 319.983 245.354"/><line class="cls-17" x1="230" y1="166.2625" x2="230" y2="68.2625"/></g></svg>