<svg xmlns="http://www.w3.org/2000/svg" width="1056" height="506" viewBox="0 0 1056 506">
    <defs>
        <style>.cls-1,.cls-10,.cls-12,.cls-13,.cls-14,.cls-18,.cls-2,.cls-20,.cls-21,.cls-22,.cls-23,.cls-24,.cls-25,.cls-26,.cls-27,.cls-28,.cls-29,.cls-3,.cls-30{fill:none;}.cls-1,.cls-12,.cls-13,.cls-14,.cls-2,.cls-3{stroke:#9fa5ad;}.cls-1,.cls-2,.cls-21,.cls-22,.cls-3,.cls-4,.cls-5,.cls-6,.cls-7,.cls-8{stroke-miterlimit:10;}.cls-2{stroke-dasharray:1.9982 1.9982;}.cls-3{stroke-dasharray:2.0035 2.0035;}.cls-4{fill:#f2f4f8;}.cls-10,.cls-11,.cls-20,.cls-21,.cls-22,.cls-23,.cls-24,.cls-25,.cls-28,.cls-4,.cls-5,.cls-6,.cls-7,.cls-8{stroke:#000;}.cls-5{fill:#f7f1ff;}.cls-6{fill:#dbfbfb;}.cls-7{fill:#e3f6ff;}.cls-8{fill:#fff;}.cls-9{fill:#d0b0ff;}.cls-10,.cls-11,.cls-12,.cls-13,.cls-14,.cls-18,.cls-20,.cls-23,.cls-24,.cls-25,.cls-26,.cls-27,.cls-28,.cls-29,.cls-30{stroke-linecap:round;stroke-linejoin:round;}.cls-10,.cls-11{stroke-width:0.5px;}.cls-11{fill:#d5d9e0;}.cls-13{stroke-dasharray:1.9985 1.9985;}.cls-14{stroke-dasharray:2.0136 2.0136;}.cls-15,.cls-16{font-size:16px;}.cls-15{font-family:IBMPlexSans, IBM Plex Sans;}.cls-16,.cls-17{font-family:IBMPlexSans-SemiBold, IBM Plex Sans;font-weight:600;}.cls-17{font-size:18px;}.cls-18,.cls-26,.cls-27,.cls-29,.cls-30{stroke:#0072c3;}.cls-18{stroke-dasharray:0.1 2;}.cls-19{fill:#0072c3;}.cls-22{stroke-width:2px;}.cls-23{stroke-dasharray:2.0032 2.0032;}.cls-24{stroke-dasharray:1.8963 1.8963;}.cls-25{stroke-dasharray:2.0596 2.0596;}.cls-27{stroke-dasharray:0.0999 1.9979;}.cls-28{stroke-dasharray:1.9693 1.9693;}.cls-29{stroke-dasharray:0.0976 1.9523;}.cls-30{stroke-dasharray:0.0994 1.9888;}</style>
    </defs>
    <g id="Figure">
        <polyline class="cls-1" points="230.557 465.546 230.557 466.546 229.557 466.546" />
        <line class="cls-2" x1="227.5588" y1="466.5463" x2="32.7385" y2="466.5463" />
        <polyline class="cls-1" points="31.739 466.546 30.739 466.546 30.739 465.546" />
        <line class="cls-3" x1="30.7394" y1="463.5428" x2="30.7394" y2="232.1442" />
        <polyline class="cls-1" points="30.739 231.142 30.739 230.142 31.739 230.142" />
        <line class="cls-2" x1="33.7376" y1="230.1424" x2="228.5578" y2="230.1424" />
        <polyline class="cls-1" points="229.557 230.142 230.557 230.142 230.557 231.142" />
        <line class="cls-3" x1="230.5569" y1="233.1459" x2="230.5569" y2="464.5445" />
        <rect class="cls-4" x="796.7652" y="230.1425" width="236.4038" height="236.4038" />
        <rect class="cls-4" x="479.6252" y="230.1425" width="250.4755" height="236.4038" />
        <rect class="cls-4" x="268.5504" y="304.7222" width="168.8599" height="56.2866" />
        <rect class="cls-4" x="267.8468" y="382.1163" width="168.8599" height="56.2866" />
        <rect class="cls-5" x="62.4006" y="375.0805" width="140.7166" height="56.2866" />
        <rect class="cls-5" x="55.3648" y="382.1163" width="140.7166" height="56.2866" />
        <rect class="cls-5" x="48.329" y="389.1522" width="140.7166" height="56.2866" />
        <rect class="cls-6" x="61.6971" y="293.4649" width="140.7166" height="56.2866" />
        <rect class="cls-7" x="521.8402" y="304.7222" width="168.8599" height="56.2866" />
        <rect class="cls-7" x="521.1366" y="382.1163" width="168.8599" height="56.2866" />
        <rect class="cls-8" x="824.3808" y="304.7222" width="181.5244" height="56.2866" />
        <rect class="cls-8" x="824.3808" y="382.1163" width="181.5244" height="56.2866" />
        <polygon class="cls-9" points="165.324 430.076 163.844 428.606 162.49 429.962 161.244 429.968 161.122 429.832 165.915 425.503 173.238 425.507 175.693 427.954 173.573 430.077 165.324 430.076" />
        <path class="cls-10" d="M160.4239,429.9665a6.5744,6.5744,0,1,1-.3123-4.4666" />
        <circle cx="151.9705" cy="428.1563" r="1.4707" />
        <polyline class="cls-10" points="160.427 429.966 161.244 429.968 162.49 429.962 163.844 428.606 165.324 430.076 173.573 430.077 175.693 427.954 173.238 425.507 165.915 425.503 160.107 425.497" />
        <polygon class="cls-9" points="437.846 104.166 436.367 102.696 435.012 104.052 433.767 104.058 433.644 103.922 438.437 99.593 445.76 99.597 448.216 102.044 446.095 104.167 437.846 104.166" />
        <path class="cls-10" d="M432.9463,104.0565a6.5742,6.5742,0,1,1-.3122-4.4666" />
        <circle cx="424.4929" cy="102.2463" r="1.4707" />
        <polyline class="cls-10" points="432.95 104.056 433.767 104.058 435.012 104.052 436.367 102.696 437.846 104.166 446.095 104.167 448.216 102.044 445.76 99.597 438.437 99.593 432.629 99.587" />
        <path class="cls-11" d="M123.8379,430.1209a6.5742,6.5742,0,1,1-.3122-4.4665" />
        <circle cx="115.3845" cy="428.3108" r="1.4707" />
        <polyline class="cls-11" points="123.526 425.654 136.654 425.654 139.111 428.112 136.993 430.23 128.739 430.23 127.259 428.763 125.901 430.121 123.838 430.121" />
        <path class="cls-11" d="M432.9446,48.6848a6.5744,6.5744,0,1,1-.3123-4.4666" />
        <circle cx="424.4912" cy="46.8746" r="1.4707" />
        <polyline class="cls-11" points="432.632 44.218 445.76 44.218 448.218 46.676 446.1 48.793 437.846 48.793 436.366 47.327 435.008 48.685 432.945 48.685" />
        <path class="cls-11" d="M976.1689,334.4337a6.5742,6.5742,0,1,0,.3122-4.4666" />
        <circle cx="984.6223" cy="332.6235" r="1.4707" />
        <polyline class="cls-11" points="976.481 329.967 963.353 329.967 960.896 332.424 963.014 334.542 971.268 334.542 972.748 333.076 974.105 334.434 976.169 334.434" />
        <path class="cls-11" d="M435.3476,76.3762A6.5742,6.5742,0,1,0,435.66,71.91" />
        <circle cx="443.801" cy="74.566" r="1.4707" />
        <polyline class="cls-11" points="435.66 71.91 422.532 71.91 420.074 74.367 422.192 76.485 430.447 76.485 431.926 75.019 433.284 76.376 435.348 76.376" />
        <path class="cls-11" d="M976.1689,411.8278a6.5742,6.5742,0,1,0,.3122-4.4666" />
        <circle cx="984.6223" cy="410.0176" r="1.4707" />
        <polyline class="cls-11" points="976.481 407.361 963.353 407.361 960.896 409.819 963.014 411.936 971.268 411.936 972.748 410.47 974.105 411.828 976.169 411.828" />
        <polyline class="cls-12" points="1032.846 134.325 1032.843 135.325 1031.843 135.323" />
        <line class="cls-13" x1="1029.8442" y1="135.317" x2="395.3297" y2="133.5442" />
        <polyline class="cls-12" points="394.33 133.541 393.33 133.539 393.333 132.539" />
        <line class="cls-14" x1="393.3389" y1="130.5251" x2="393.6511" y2="18.7713" />
        <polyline class="cls-12" points="393.654 17.764 393.657 16.765 394.657 16.767" />
        <line class="cls-13" x1="396.6552" y1="16.7729" x2="1031.1697" y2="18.5457" />
        <polyline class="cls-12" points="1032.169 18.548 1033.169 18.551 1033.166 19.551" />
        <line class="cls-14" x1="1033.1606" y1="21.5648" x2="1032.8483" y2="133.3186" />
    </g>
    <g id="Text">
        <text class="cls-15" transform="translate(312.5566 327.1346)">
            Smart card
            <tspan x="11.04" y="19.2002">reader 1</tspan>
        </text>
        <text class="cls-15" transform="translate(312.5566 405.9364)">
            Smart card
            <tspan x="11.04" y="19.2002">reader 2</tspan>
        </text>
        <text class="cls-15" transform="translate(59.4053 411.1864)">EP11 smart card</text>
        <text class="cls-15" transform="translate(82.4927 326.7567)">CA smart card</text>
        <text class="cls-16" transform="translate(69.8579 264.8153)">Smart card zone</text>
        <text class="cls-16" transform="translate(540.833 266.222)">Local workstation</text>
        <text class="cls-16" transform="translate(798.2422 187.5277)">IBM Cloud</text>
        <text class="cls-15" transform="translate(566.6211 328.078)">
            Smart Card
            <tspan x="-13.4238" y="19.2002">Utility Program</tspan>
        </text>
        <text class="cls-15" transform="translate(562.4307 406.8797)">
            Trusted Key
            <tspan x="-17.5518" y="19.2002">Entry application</tspan>
        </text>
        <text class="cls-16" transform="translate(863.0176 258.9056)">
            Hyper Protect
            <tspan x="-38.1836" y="19.2002">Crypto Services instance</tspan>
        </text>
        <text class="cls-16" transform="translate(499.0156 187.5272)">Management Utilities on-prem</text>
        <text class="cls-15" transform="translate(848.4541 337.9525)">Crypto unit A</text>
        <text class="cls-15" transform="translate(848.3574 415.3456)">Crypto unit B</text>
        <text class="cls-15" transform="matrix(1, 0.0028, -0.0028, 1, 465.4879, 51.7615)">Signature key private part</text>
        <text class="cls-15" transform="matrix(1, 0.0028, -0.0028, 1, 465.4116, 79.4612)">Signature key public part</text>
        <text class="cls-15" transform="translate(465.2932 106.9057) rotate(0.4269)">Master key part</text>
        <text class="cls-15" transform="translate(724.2103 51.3678) rotate(0.4269)">Hardware connection</text>
        <text class="cls-15" transform="translate(724.2119 78.6703) rotate(0.4269)">Initialize and configure smart cards</text>
        <text class="cls-15" transform="translate(724.2113 106.277) rotate(0.4269)">Load the master key from smart cards</text>
        <text class="cls-17" transform="translate(23 40.8792)">
            Using smart cards and the Management
            <tspan x="0" y="21.6001">Utilities to initialize service instances</tspan>
        </text>
    </g>
    <g id="Line">
        <line class="cls-18" x1="441.716" y1="397.5952" x2="516.1273" y2="397.5952" />
        <polygon class="cls-19" points="442.591 400.587 437.41 397.595 442.591 394.603 442.591 400.587" />
        <polygon class="cls-19" points="515.252 400.587 520.433 397.595 515.252 394.603 515.252 400.587" />
        <line class="cls-18" x1="441.716" y1="348.3444" x2="459.9249" y2="348.3444" />
        <polygon class="cls-19" points="442.591 351.336 437.41 348.344 442.591 345.353 442.591 351.336" />
        <line class="cls-18" x1="459.9249" y1="348.3444" x2="459.9249" y2="397.5952" />
        <line class="cls-20" x1="243.925" y1="342.0121" x2="243.925" y2="409.5561" />
        <line class="cls-20" x1="243.925" y1="342.0121" x2="267.8468" y2="342.0121" />
        <line class="cls-20" x1="203.1172" y1="325.1261" x2="267.8468" y2="325.1261" />
        <line class="cls-21" x1="680.9672" y1="46.8724" x2="711.2212" y2="46.8724" />
        <line class="cls-22" x1="764.5763" y1="166.1164" x2="764.5763" y2="489.7645" />
        <line class="cls-20" x1="203.8208" y1="410.2596" x2="267.1432" y2="410.2596" />
        <line class="cls-20" x1="441.716" y1="332.8655" x2="442.716" y2="332.8655" />
        <line class="cls-23" x1="444.7192" y1="332.8655" x2="519.8386" y2="332.8655" />
        <line class="cls-20" x1="520.8402" y1="332.8655" x2="521.8402" y2="332.8655" />
        <polygon points="442.591 335.857 437.41 332.866 442.591 329.874 442.591 335.857" />
        <line class="cls-20" x1="707.6191" y1="74.5637" x2="706.6191" y2="74.5637" />
        <line class="cls-24" x1="704.7228" y1="74.5637" x2="682.9153" y2="74.5637" />
        <line class="cls-20" x1="681.9672" y1="74.5637" x2="680.9672" y2="74.5637" />
        <polygon points="706.744 71.572 711.925 74.564 706.744 77.556 706.744 71.572" />
        <line class="cls-20" x1="441.716" y1="411.6668" x2="442.716" y2="411.6668" />
        <line class="cls-25" x1="444.7756" y1="411.6668" x2="497.2957" y2="411.6668" />
        <line class="cls-20" x1="498.3255" y1="411.6668" x2="499.3255" y2="411.6668" />
        <polygon points="442.591 414.659 437.41 411.667 442.591 408.675 442.591 414.659" />
        <line class="cls-26" x1="692.1072" y1="411.6668" x2="692.1572" y2="411.6668" />
        <line class="cls-27" x1="694.1552" y1="411.6668" x2="819.0261" y2="411.6668" />
        <line class="cls-26" x1="820.025" y1="411.6668" x2="820.0751" y2="411.6668" />
        <polygon class="cls-19" points="819.2 414.659 824.381 411.667 819.2 408.675 819.2 414.659" />
        <line class="cls-20" x1="499.3255" y1="332.8655" x2="499.3255" y2="333.8655" />
        <line class="cls-28" x1="499.3255" y1="335.8348" x2="499.3255" y2="409.6822" />
        <line class="cls-20" x1="499.3255" y1="410.6668" x2="499.3255" y2="411.6668" />
        <line class="cls-21" x1="437.4103" y1="317.3867" x2="478.2181" y2="317.3867" />
        <line class="cls-21" x1="437.4103" y1="427.1456" x2="478.2181" y2="427.1456" />
        <line class="cls-26" x1="707.6191" y1="102.244" x2="707.5691" y2="102.244" />
        <line class="cls-29" x1="705.6167" y1="102.244" x2="681.9933" y2="102.244" />
        <line class="cls-26" x1="681.0172" y1="102.244" x2="680.9672" y2="102.244" />
        <polygon class="cls-19" points="706.744 99.252 711.925 102.244 706.744 105.236 706.744 99.252" />
        <line class="cls-18" x1="745.5795" y1="331.4584" x2="745.5795" y2="411.6668" />
        <line class="cls-26" x1="745.5795" y1="331.4584" x2="745.6295" y2="331.4584" />
        <line class="cls-30" x1="747.6183" y1="331.4584" x2="817.6235" y2="331.4584" />
        <line class="cls-26" x1="818.6179" y1="331.4584" x2="818.6679" y2="331.4584" />
        <polygon class="cls-19" points="817.792 334.45 822.974 331.458 817.792 328.467 817.792 334.45" />
    </g>
</svg>