<svg xmlns="http://www.w3.org/2000/svg" xmlns:xlink="http://www.w3.org/1999/xlink" width="1056" height="792" viewBox="0 0 1056 792">
    <defs>
        <style>.cls-1,.cls-11{fill:#fff;}.cls-2{fill:url(#linear-gradient);}.cls-3{fill:url(#linear-gradient-2);}.cls-4{fill:url(#linear-gradient-3);}.cls-5{fill:url(#linear-gradient-4);}.cls-6{fill:#e0e0e0;}.cls-11,.cls-25,.cls-6{stroke:#000;}.cls-10,.cls-11,.cls-12,.cls-25,.cls-28,.cls-6,.cls-8,.cls-9{stroke-miterlimit:10;}.cls-7{fill:#393939;}.cls-10,.cls-12,.cls-25,.cls-28,.cls-8,.cls-9{fill:none;}.cls-10,.cls-12,.cls-8,.cls-9{stroke:#9fa5ad;}.cls-9{stroke-dasharray:2.007 2.007;}.cls-10{stroke-dasharray:1.9969 1.9969;}.cls-12{stroke-dasharray:1.9929 1.9929;}.cls-13{mask:url(#mask);}.cls-14{fill:url(#linear-gradient-5);}.cls-15{fill:#f4f4f4;}.cls-16{mask:url(#mask-2);}.cls-17{fill:url(#linear-gradient-6);}.cls-18{mask:url(#mask-3);}.cls-19{fill:url(#linear-gradient-7);}.cls-20{mask:url(#mask-4);}.cls-21{fill:url(#linear-gradient-8);}.cls-22,.cls-23{font-size:16px;}.cls-22,.cls-24{font-family:IBMPlexSans-SemiBold, IBM Plex Sans;font-weight:600;}.cls-23{font-family:IBMPlexSans, IBM Plex Sans;}.cls-24{font-size:18px;}.cls-25{stroke-width:2px;}.cls-26{mask:url(#mask-5);}.cls-27{fill:url(#linear-gradient-9);}.cls-28{stroke:#231f20;}.cls-29{fill:#231f20;}</style>
        <linearGradient id="linear-gradient" x1="910.4909" y1="244.7645" x2="910.4909" y2="228.2645" gradientUnits="userSpaceOnUse">
            <stop offset="0" stop-opacity="0" />
            <stop offset="0.9" />
        </linearGradient>
        <linearGradient id="linear-gradient-2" x1="573.1978" y1="569.1395" x2="606.1978" y2="602.1395" gradientTransform="matrix(1, 0, 0, -1, 0, 1019.529)" gradientUnits="userSpaceOnUse">
            <stop offset="0.13" stop-opacity="0" />
            <stop offset="0.38" />
        </linearGradient>
        <linearGradient id="linear-gradient-3" x1="273.1192" y1="585.8593" x2="294.1192" y2="606.8593" gradientTransform="matrix(1, 0, 0, -1, 0, 1019.529)" gradientUnits="userSpaceOnUse">
            <stop offset="0.55" stop-color="#fff" />
            <stop offset="0.8" stop-color="#fff" stop-opacity="0" />
        </linearGradient>
        <linearGradient id="linear-gradient-4" x1="567.5728" y1="802.2645" x2="587.0728" y2="802.2645" gradientTransform="matrix(1, 0, 0, -1, 0, 1019.529)" gradientUnits="userSpaceOnUse">
            <stop offset="0" stop-opacity="0" />
            <stop offset="0.7" />
        </linearGradient>
        <mask id="mask" x="868.4909" y="211.7645" width="48" height="48" maskUnits="userSpaceOnUse">
            <path class="cls-1" d="M892.4909,258.2645a1.4979,1.4979,0,0,1-.7558-.2036L873.487,247.4162a1,1,0,0,1-.4961-.8637V224.9773a1,1,0,0,1,.4962-.8638l18.5-10.7916a1,1,0,0,1,1.0078,0l18.252,10.6469-1.5117,2.5914-17.2442-10.0591-16.5,9.6247v19.2774l16.5,9.6255,16.5-9.6255V229.7645h3v16.788a1,1,0,0,1-.4961.8637l-18.248,10.6447A1.498,1.498,0,0,1,892.4909,258.2645Z" />
            <rect class="cls-2" x="907.4909" y="228.2645" width="6" height="16.5" />
        </mask>
        <linearGradient id="linear-gradient-5" x1="868.4909" y1="259.7645" x2="916.4909" y2="211.7645" gradientUnits="userSpaceOnUse">
            <stop offset="0.1" stop-color="#3ddbd9" />
            <stop offset="0.9" stop-color="#4589ff" />
        </linearGradient>
        <mask id="mask-2" x="555.5728" y="408.7645" width="48" height="48" maskUnits="userSpaceOnUse">
            <g id="f465b36a-0fea-4b8c-a98a-1185fe038609">
                <path class="cls-1" d="M591.5728,414.7645v21.45a13.5375,13.5375,0,0,1-6.75,11.7l-6.75,3.9-6.75-3.9a13.5373,13.5373,0,0,1-6.75-11.7v-21.45h27m0-3h-27a3,3,0,0,0-3,3v21.45a16.5,16.5,0,0,0,8.25,14.2905l8.25,4.76,8.25-4.7625a16.5,16.5,0,0,0,8.25-14.2875v-21.45A3,3,0,0,0,591.5728,411.7645Z" />
                <polygon class="cls-3" points="578.073 455.265 599.073 455.265 599.073 410.265 582.573 410.265 582.573 419.265 578.073 419.265 578.073 455.265" />
            </g>
        </mask>
        <linearGradient id="linear-gradient-6" x1="555.5728" y1="562.7645" x2="603.5728" y2="610.7645" gradientTransform="matrix(1, 0, 0, -1, 0, 1019.529)" gradientUnits="userSpaceOnUse">
            <stop offset="0.1" stop-color="#be95ff" />
            <stop offset="0.9" stop-color="#4589ff" />
        </linearGradient>
        <mask id="mask-3" x="555.5728" y="605.7645" width="48" height="48" maskUnits="userSpaceOnUse">
            <path class="cls-1" d="M562.4781,641.7645V617.6832H573.312a7.9294,7.9294,0,0,1,2.9839.5354,6.3076,6.3076,0,0,1,2.2588,1.5176A6.5209,6.5209,0,0,1,579.97,622.1a9.83,9.83,0,0,1,0,6.0894,6.5459,6.5459,0,0,1-1.4151,2.3459,6.2986,6.2986,0,0,1-2.2588,1.5176,7.9157,7.9157,0,0,1-2.9839.5347h-6.28v9.1772Zm4.5542-13.11h5.8652a2.916,2.916,0,0,0,2.07-.7068,2.6246,2.6246,0,0,0,.7588-2.0186v-1.5871a2.57,2.57,0,0,0-.7588-2.001,2.965,2.965,0,0,0-2.07-.69h-5.8652Z" />
            <path class="cls-1" d="M599.4976,643.2821a5.9185,5.9185,0,0,1-.501,2.5019,4.2393,4.2393,0,0,1-1.6377,1.8106,8.8965,8.8965,0,0,1-2.9326,1.1045,25.5535,25.5535,0,0,1-8.2456.0864,9.2894,9.2894,0,0,1-2.6045-.8276,3.4683,3.4683,0,0,1-1.4663-1.3287,3.5749,3.5749,0,0,1-.45-1.7944,3.1981,3.1981,0,0,1,.8452-2.3628,4.1655,4.1655,0,0,1,2.3643-1.0869v-.3794a2.9321,2.9321,0,0,1-1.708-1.0884A3.1172,3.1172,0,0,1,582.5581,638a2.64,2.64,0,0,1,.2754-1.2276,2.8619,2.8619,0,0,1,.7427-.914,4.4808,4.4808,0,0,1,1.0518-.6387,6.2451,6.2451,0,0,1,1.2422-.3985v-.1377a5.4039,5.4039,0,0,1-2.4668-2.1035,5.9552,5.9552,0,0,1-.8116-3.1369,5.6122,5.6122,0,0,1,1.8985-4.429,8.1566,8.1566,0,0,1,5.5547-1.6728,12.9467,12.9467,0,0,1,1.6377.104,7.3389,7.3389,0,0,1,1.5014.3449v-.5866q0-2.6214,2.5532-2.6221h2.7935v3.3809h-3.8291v.4834a5.2188,5.2188,0,0,1,2.105,2.07,6.072,6.072,0,0,1,.69,2.9326,5.5514,5.5514,0,0,1-1.8808,4.3813,8.2084,8.2084,0,0,1-5.5708,1.6568,10.8887,10.8887,0,0,1-2.7613-.3106,2.9682,2.9682,0,0,0-.8965.6387,1.3623,1.3623,0,0,0-.3794.9815q0,1.3469,2.3467,1.3461h4.83q3.3113,0,4.812,1.3638A4.844,4.844,0,0,1,599.4976,643.2821Zm-4.14.5185a1.5531,1.5531,0,0,0-.69-1.3462,4.3383,4.3383,0,0,0-2.3818-.4819h-6.1407a2.1943,2.1943,0,0,0-.9316,1.8618,1.8555,1.8555,0,0,0,.8628,1.6216,5.4384,5.4384,0,0,0,2.9326.5859h2.2075a6.7658,6.7658,0,0,0,3.1568-.5507A1.8146,1.8146,0,0,0,595.3579,643.8006ZM590.045,632.45q3.2409,0,3.2417-2.7444v-.583q0-2.7444-3.2417-2.7444-3.2433,0-3.2432,2.7444v.583Q586.8018,632.4484,590.045,632.45Z" />
        </mask>
        <linearGradient id="linear-gradient-7" x1="555.5728" y1="653.7645" x2="603.5728" y2="605.7645" gradientUnits="userSpaceOnUse">
            <stop offset="0.0994" stop-color="#be95ff" />
            <stop offset="0.8995" stop-color="#4589ff" />
        </linearGradient>
        <mask id="mask-4" x="263.2139" y="390.7645" width="48" height="48" maskUnits="userSpaceOnUse">
            <g id="fp7696w8rb">
                <path class="cls-4" d="M294.0929,412.6435l-10.19,10.19-2.0685-2.0685-2.121,2.121,2.0685,2.0685-2.379,2.379-2.0685-2.0685-2.121,2.121,2.0685,2.0685-4.19,4.19,2.121,2.121,21-21Z" />
                <circle class="cls-1" cx="296.2139" cy="405.7645" r="3" />
                <path class="cls-1" d="M294.7139,393.7645a13.4685,13.4685,0,0,0-12.9105,17.409l-15.5895,15.591v9h9l-1.242-3h-4.758v-4.758l16.089-16.092a10.5,10.5,0,1,1,9.411,5.85v3a13.5,13.5,0,0,0,0-27Z" />
                <path d="M293.2139,429.7645v-16.5h18v16.5Z" />
            </g>
        </mask>
        <linearGradient id="linear-gradient-8" x1="263.2139" y1="580.7645" x2="311.2139" y2="628.7645" gradientTransform="matrix(1, 0, 0, -1, 0, 1019.529)" gradientUnits="userSpaceOnUse">
            <stop offset="0.1" stop-color="#4589ff" />
            <stop offset="0.9" stop-color="#33b1ff" />
        </linearGradient>
        <mask id="mask-5" x="555.5728" y="209.7645" width="48" height="48" maskUnits="userSpaceOnUse">
            <g id="_4vhxb4frpb" data-name="4vhxb4frpb">
                <path class="cls-1" d="M597.5728,233.7645v9h-36v-24h24v-3h-24a3,3,0,0,0-3,3v24a3,3,0,0,0,3,3h12v6h-6v3h24v-3h-6v-6h12a3,3,0,0,0,3-3v-9Zm-15,18h-6v-6h6Z" />
                <path class="cls-5" d="M567.5728,214.2645h19.5v6h-19.5Z" />
            </g>
        </mask>
        <linearGradient id="linear-gradient-9" x1="-4745.9791" y1="762.9623" x2="-4791.1458" y2="810.9515" gradientTransform="translate(-4488.216 1019.529) rotate(180) scale(1.063 1)" gradientUnits="userSpaceOnUse">
            <stop offset="0.1" stop-color="#6fdc8c" />
            <stop offset="0.9" stop-color="#009d9a" />
        </linearGradient>
    </defs>
    <g id="Figure">
        <rect class="cls-6" x="490.0728" y="175.1917" width="179" height="146.8596" />
        <circle class="cls-7" cx="892.4909" cy="237.7645" r="40" />
        <rect class="cls-6" x="491.0728" y="565.2645" width="177" height="177" />
        <rect class="cls-6" x="490.0728" y="370.2645" width="179" height="146.8596" />
        <rect class="cls-6" x="159.2139" y="343.7222" width="256" height="200.5423" />
        <polyline class="cls-8" points="1036.991 765.265 1036.991 766.265 1035.991 766.265" />
        <line class="cls-9" x1="1033.9839" y1="766.2645" x2="749.9944" y2="766.2645" />
        <polyline class="cls-8" points="748.991 766.265 747.991 766.265 747.991 765.265" />
        <line class="cls-10" x1="747.991" y1="763.2676" x2="747.991" y2="125.2629" />
        <polyline class="cls-8" points="747.991 124.265 747.991 123.265 748.991 123.265" />
        <line class="cls-9" x1="750.9979" y1="123.2645" x2="1034.9874" y2="123.2645" />
        <polyline class="cls-8" points="1035.991 123.265 1036.991 123.265 1036.991 124.265" />
        <line class="cls-10" x1="1036.991" y1="126.2614" x2="1036.991" y2="764.2661" />
        <rect class="cls-11" x="773.7506" y="411.9657" width="237.4808" height="56.2866" />
        <polyline class="cls-8" points="697.5 765.265 697.5 766.265 696.5 766.265" />
        <line class="cls-12" x1="694.5071" y1="766.2645" x2="133.4965" y2="766.2645" />
        <polyline class="cls-8" points="132.5 766.265 131.5 766.265 131.5 765.265" />
        <line class="cls-10" x1="131.5" y1="763.2676" x2="131.5" y2="125.2629" />
        <polyline class="cls-8" points="131.5 124.265 131.5 123.265 132.5 123.265" />
        <line class="cls-12" x1="134.4929" y1="123.2645" x2="695.5035" y2="123.2645" />
        <polyline class="cls-8" points="696.5 123.265 697.5 123.265 697.5 124.265" />
        <line class="cls-10" x1="697.5" y1="126.2614" x2="697.5" y2="764.2661" />
        <rect class="cls-11" x="16.5" y="415.7568" width="69" height="56.2866" />
        <circle class="cls-7" cx="579.5728" cy="429.7645" r="40" />
        <g class="cls-13">
            <rect class="cls-14" x="868.4909" y="211.7645" width="48" height="48" />
        </g>
        <path class="cls-15" d="M892.4909,241.7645a6,6,0,1,1,6-6A6.0069,6.0069,0,0,1,892.4909,241.7645Zm0-9a3,3,0,1,0,3,3A3.003,3.003,0,0,0,892.4909,232.7645Z" />
        <circle class="cls-15" cx="902.9909" cy="229.7645" r="3" />
        <circle class="cls-15" cx="881.9909" cy="241.7645" r="3" />
        <circle class="cls-7" cx="579.5728" cy="629.7645" r="40" />
        <g class="cls-16">
            <rect class="cls-17" x="555.5728" y="408.7645" width="48" height="48" />
        </g>
        <path class="cls-15" d="M594.5728,429.9775v-18.213h-7.5v3h4.5v3h-4.5v3h4.5v9.213a6,6,0,1,0,3,0Zm-1.5,8.787a3,3,0,1,1,3-3A3,3,0,0,1,593.0728,438.7645Z" />
        <circle class="cls-7" cx="287.2139" cy="414.7645" r="40" />
        <circle class="cls-7" cx="579.5728" cy="236.7645" r="40" />
        <g class="cls-18">
            <rect id="Color" class="cls-19" x="555.5728" y="605.7645" width="48" height="48" />
        </g>
        <g class="cls-20">
            <path class="cls-21" d="M263.2139,390.7645h48v48h-48Z" />
        </g>
        <path class="cls-15" d="M300.7139,435.7645l-3.2085-1.5195a7.5316,7.5316,0,0,1-4.2915-6.7785v-9.702h15v9.702a7.5313,7.5313,0,0,1-4.2915,6.7785Zm-4.5-15v6.702a4.5181,4.5181,0,0,0,2.5755,4.0665l1.9245.91,1.9245-.91a4.5179,4.5179,0,0,0,2.5755-4.0665v-6.702Z" />
    </g>
    <g id="Text">
        <text class="cls-22" transform="translate(130.2422 101.5277)">IBM Cloud</text>
        <text class="cls-22" transform="translate(289.1543 153.9056)">Region Washington DC (us-east)</text>
        <text class="cls-23" transform="translate(537.9335 499.6932)">Key Protect</text>
        <text class="cls-23" transform="translate(523.6373 302.1932)">Activity Tracker</text>
        <text class="cls-23" transform="translate(506.1496 697.1932)">
            IBM Cloud Database
            <tspan x="19.624" y="19.2002">for PostgreSQL</tspan>
        </text>
        <text class="cls-23" transform="translate(179.5897 496.1932)">
            Hyper Protect Crypto Services
            <tspan x="1.7759" y="19.2002">with Unified Key Orchestrator</tspan>
        </text>
        <text class="cls-24" transform="translate(23 36.8792)">
            Using Hyper Protect Crypto Services with Unified Key Orchestrator
            <tspan x="0" y="21.6001">to manage keys in Key Protect on Satellite</tspan>
        </text>
        <text class="cls-22" transform="translate(748.9655 101.7728)">On-prem</text>
        <text class="cls-22" transform="translate(829.5801 153.7729)">Satellite location</text>
        <text class="cls-23" transform="translate(797.3964 445.941)">Hardware Security Module</text>
        <text class="cls-23" transform="translate(32.8054 448.7319)">Apps</text>
    </g>
    <g id="Line">
        <line class="cls-25" x1="107" y1="79.7645" x2="106.5762" y2="766.7645" />
        <line class="cls-25" x1="723" y1="79.7645" x2="722.5763" y2="766.7645" />
        <g class="cls-26">
            <path class="cls-27" d="M603.5728,257.7645h-48v-48h48Z" />
        </g>
        <path class="cls-15" d="M587.0728,232.2645l-7.5-7.44,2.385-2.355,5.115,5.07,11.115-11.025,2.385,2.37Z" />
        <line class="cls-28" x1="85" y1="442.7645" x2="152.8238" y2="442.7645" />
        <polygon class="cls-29" points="151.365 447.751 160 442.765 151.365 437.778 151.365 447.751" />
        <line class="cls-28" x1="422.1762" y1="444.2645" x2="482.8238" y2="444.2645" />
        <polygon class="cls-29" points="423.635 449.251 415 444.265 423.635 439.278 423.635 449.251" />
        <polygon class="cls-29" points="481.365 449.251 490 444.265 481.365 439.278 481.365 449.251" />
        <line class="cls-28" x1="678.1762" y1="443.2645" x2="766.3238" y2="443.2645" />
        <polygon class="cls-29" points="679.635 448.251 671 443.265 679.635 438.278 679.635 448.251" />
        <polygon class="cls-29" points="764.865 448.251 773.5 443.265 764.865 438.278 764.865 448.251" />
        <line class="cls-28" x1="668.0243" y1="653.5069" x2="742.3238" y2="653.5069" />
        <polygon class="cls-29" points="740.865 658.493 749.5 653.507 740.865 648.521 740.865 658.493" />
        <line x1="579.5" y1="322.2645" x2="579.2743" y2="370.2645" />
        <line class="cls-28" x1="579.4662" y1="329.4406" x2="579.308" y2="363.0884" />
        <polygon class="cls-29" points="574.473 330.876 579.5 322.265 584.446 330.923 574.473 330.876" />
        <polygon class="cls-29" points="574.329 361.606 579.274 370.265 584.301 361.653 574.329 361.606" />
        <line x1="579.5" y1="516.7645" x2="579.2743" y2="564.7645" />
        <line class="cls-28" x1="579.4662" y1="523.9406" x2="579.308" y2="557.5884" />
        <polygon class="cls-29" points="574.473 525.376 579.5 516.765 584.446 525.423 574.473 525.376" />
        <polygon class="cls-29" points="574.329 556.106 579.274 564.765 584.301 556.153 574.329 556.106" />
    </g>
</svg>