<svg width="1200" height="650" viewBox="0 0 1200 650" fill="none" xmlns="http://www.w3.org/2000/svg">
<rect width="1200" height="650" fill="white"/>
<g clip-path="url(#clip0_1_2)">
<path d="M111.192 292.333C109.688 288.062 105.618 285 100.833 285C94.765 285 89.8333 289.932 89.8333 296C89.8333 302.068 94.765 307 100.833 307C105.618 307 109.688 303.938 111.192 299.667H119.167V307H126.5V299.667H130.167V292.333H111.192ZM100.833 299.667C98.8167 299.667 97.1667 298.017 97.1667 296C97.1667 293.983 98.8167 292.333 100.833 292.333C102.85 292.333 104.5 293.983 104.5 296C104.5 298.017 102.85 299.667 100.833 299.667Z" fill="#56BAB9"/>
</g>
<rect width="112" height="60" transform="translate(794 266)" fill="white"/>
<rect x="794" y="266" width="112" height="60" fill="white"/>
<g clip-path="url(#clip1_1_2)">
<path d="M824.508 295H822.66V285.228H827.056C828.862 285.228 829.954 286.446 829.954 288.252C829.954 290.072 828.862 291.276 827.056 291.276H824.508V295ZM824.508 286.838V289.68H826.888C827.602 289.68 828.036 289.288 828.036 288.574V287.93C828.036 287.216 827.602 286.838 826.888 286.838H824.508ZM834.358 295.168C832.202 295.168 830.914 293.67 830.914 291.332C830.914 289.022 832.16 287.524 834.302 287.524C836.584 287.524 837.634 289.204 837.634 291.206V291.794H832.776V291.976C832.776 293.026 833.378 293.74 834.554 293.74C835.436 293.74 835.968 293.32 836.416 292.746L837.382 293.824C836.78 294.65 835.716 295.168 834.358 295.168ZM834.33 288.868C833.392 288.868 832.776 289.568 832.776 290.576V290.688H835.772V290.562C835.772 289.554 835.254 288.868 834.33 288.868ZM841.162 295H839.37V287.692H841.162V288.91H841.232C841.526 288.126 842.142 287.524 843.276 287.524C844.774 287.524 845.614 288.56 845.614 290.38V295H843.822V290.562C843.822 289.526 843.472 288.994 842.618 288.994C841.876 288.994 841.162 289.386 841.162 290.17V295ZM852.297 295V293.782H852.227C851.961 294.608 851.177 295.168 850.211 295.168C848.377 295.168 847.355 293.782 847.355 291.332C847.355 288.896 848.377 287.524 850.211 287.524C851.177 287.524 851.975 288.056 852.227 288.896H852.297V284.64H854.089V295H852.297ZM850.785 293.684C851.639 293.684 852.297 293.25 852.297 292.494V290.17C852.297 289.456 851.639 288.994 850.785 288.994C849.861 288.994 849.231 289.68 849.231 290.716V291.976C849.231 293.012 849.861 293.684 850.785 293.684ZM857.211 286.628C856.469 286.628 856.161 286.25 856.161 285.732V285.452C856.161 284.934 856.469 284.556 857.211 284.556C857.939 284.556 858.261 284.934 858.261 285.452V285.732C858.261 286.25 857.939 286.628 857.211 286.628ZM856.315 295V287.692H858.107V295H856.315ZM862.136 295H860.344V287.692H862.136V288.91H862.206C862.5 288.126 863.116 287.524 864.25 287.524C865.748 287.524 866.588 288.56 866.588 290.38V295H864.796V290.562C864.796 289.526 864.446 288.994 863.592 288.994C862.85 288.994 862.136 289.386 862.136 290.17V295ZM875.329 295.616C875.329 297.142 874.293 297.968 871.493 297.968C869.029 297.968 868.091 297.324 868.091 296.246C868.091 295.434 868.581 294.972 869.393 294.846V294.692C868.791 294.538 868.455 294.062 868.455 293.474C868.455 292.718 869.099 292.34 869.799 292.186V292.13C868.917 291.724 868.469 290.968 868.469 290.002C868.469 288.518 869.519 287.524 871.493 287.524C871.941 287.524 872.403 287.58 872.767 287.706V287.468C872.767 286.754 873.131 286.404 873.803 286.404H874.937V287.776H873.383V287.972C874.139 288.392 874.517 289.106 874.517 290.002C874.517 291.472 873.481 292.452 871.493 292.452C871.073 292.452 870.695 292.41 870.373 292.326C870.093 292.452 869.855 292.662 869.855 292.984C869.855 293.348 870.163 293.53 870.807 293.53H872.767C874.559 293.53 875.329 294.3 875.329 295.616ZM873.649 295.826C873.649 295.364 873.313 295.084 872.403 295.084H869.911C869.645 295.28 869.533 295.546 869.533 295.84C869.533 296.4 869.953 296.736 871.073 296.736H871.969C873.131 296.736 873.649 296.442 873.649 295.826ZM871.493 291.234C872.347 291.234 872.809 290.842 872.809 290.114V289.876C872.809 289.134 872.347 288.756 871.493 288.756C870.639 288.756 870.177 289.134 870.177 289.876V290.114C870.177 290.842 870.639 291.234 871.493 291.234ZM816.05 313V311.782H815.98C815.714 312.608 814.93 313.168 813.964 313.168C812.13 313.168 811.108 311.782 811.108 309.332C811.108 306.896 812.13 305.524 813.964 305.524C814.93 305.524 815.728 306.056 815.98 306.896H816.05V302.64H817.842V313H816.05ZM814.538 311.684C815.392 311.684 816.05 311.25 816.05 310.494V308.17C816.05 307.456 815.392 306.994 814.538 306.994C813.614 306.994 812.984 307.68 812.984 308.716V309.976C812.984 311.012 813.614 311.684 814.538 311.684ZM823.023 313.168C820.867 313.168 819.579 311.67 819.579 309.332C819.579 307.022 820.825 305.524 822.967 305.524C825.249 305.524 826.299 307.204 826.299 309.206V309.794H821.441V309.976C821.441 311.026 822.043 311.74 823.219 311.74C824.101 311.74 824.633 311.32 825.081 310.746L826.047 311.824C825.445 312.65 824.381 313.168 823.023 313.168ZM822.995 306.868C822.057 306.868 821.441 307.568 821.441 308.576V308.688H824.437V308.562C824.437 307.554 823.919 306.868 822.995 306.868ZM830.429 313.168C829.043 313.168 828.133 312.664 827.405 311.824L828.497 310.76C829.029 311.376 829.673 311.754 830.499 311.754C831.353 311.754 831.717 311.432 831.717 310.914C831.717 310.494 831.465 310.228 830.821 310.144L830.093 310.046C828.525 309.85 827.657 309.164 827.657 307.834C827.657 306.42 828.763 305.524 830.429 305.524C831.857 305.524 832.585 305.944 833.285 306.672L832.235 307.722C831.815 307.274 831.199 306.938 830.485 306.938C829.715 306.938 829.379 307.246 829.379 307.694C829.379 308.184 829.645 308.408 830.331 308.52L831.073 308.618C832.669 308.842 833.439 309.556 833.439 310.774C833.439 312.188 832.249 313.168 830.429 313.168ZM837.354 313C836.122 313 835.464 312.328 835.464 311.138V307.12H834.386V305.692H834.946C835.478 305.692 835.646 305.44 835.646 304.936V303.69H837.256V305.692H838.754V307.12H837.256V311.572H838.642V313H837.354ZM842.261 313H840.469V305.692H842.261V307.204H842.331C842.513 306.434 843.101 305.692 844.263 305.692H844.655V307.386H844.095C842.891 307.386 842.261 307.722 842.261 308.52V313ZM850.493 313V311.782H850.423C850.171 312.51 849.583 313.168 848.379 313.168C846.881 313.168 846.041 312.132 846.041 310.312V305.692H847.833V310.13C847.833 311.138 848.211 311.684 849.065 311.684C849.779 311.684 850.493 311.306 850.493 310.522V305.692H852.285V313H850.493ZM857.399 313.168C855.243 313.168 854.025 311.684 854.025 309.332C854.025 306.994 855.243 305.524 857.399 305.524C858.869 305.524 859.835 306.224 860.269 307.372L858.799 308.03C858.631 307.414 858.169 306.966 857.399 306.966C856.405 306.966 855.901 307.666 855.901 308.688V310.018C855.901 311.04 856.405 311.726 857.399 311.726C858.253 311.726 858.673 311.236 858.939 310.578L860.311 311.236C859.835 312.524 858.813 313.168 857.399 313.168ZM864.135 313C862.903 313 862.245 312.328 862.245 311.138V307.12H861.167V305.692H861.727C862.259 305.692 862.427 305.44 862.427 304.936V303.69H864.037V305.692H865.535V307.12H864.037V311.572H865.423V313H864.135ZM868.145 304.628C867.403 304.628 867.095 304.25 867.095 303.732V303.452C867.095 302.934 867.403 302.556 868.145 302.556C868.873 302.556 869.195 302.934 869.195 303.452V303.732C869.195 304.25 868.873 304.628 868.145 304.628ZM867.249 313V305.692H869.041V313H867.249ZM874.177 313.168C872.091 313.168 870.789 311.684 870.789 309.332C870.789 306.994 872.091 305.524 874.177 305.524C876.277 305.524 877.579 306.994 877.579 309.332C877.579 311.684 876.277 313.168 874.177 313.168ZM874.177 311.726C875.115 311.726 875.703 311.124 875.703 310.018V308.66C875.703 307.568 875.115 306.966 874.177 306.966C873.253 306.966 872.665 307.568 872.665 308.66V310.018C872.665 311.124 873.253 311.726 874.177 311.726ZM881.119 313H879.327V305.692H881.119V306.91H881.189C881.483 306.126 882.099 305.524 883.233 305.524C884.731 305.524 885.571 306.56 885.571 308.38V313H883.779V308.562C883.779 307.526 883.429 306.994 882.575 306.994C881.833 306.994 881.119 307.386 881.119 308.17V313Z" fill="black"/>
</g>
<path d="M794 267.875V271.625H794.5V275.375H794V279.125H794.5V282.875H794V286.625H794.5V290.375H794V294.125H794.5V297.875H794V301.625H794.5V305.375H794V309.125H794.5V312.875H794V316.625H794.5V320.375H794V324.125H794.5V325.5H796V326H800V325.5H804V326H808V325.5H812V326H816V325.5H820V326H824V325.5H828V326H832V325.5H836V326H840V325.5H844V326H848V325.5H852V326H856V325.5H860V326H864V325.5H868V326H872V325.5H876V326H880V325.5H884V326H888V325.5H892V326H896V325.5H900V326H904V325.5H905.5V324.125H906V320.375H905.5V316.625H906V312.875H905.5V309.125H906V305.375H905.5V301.625H906V297.875H905.5V294.125H906V290.375H905.5V286.625H906V282.875H905.5V279.125H906V275.375H905.5V271.625H906V267.875H905.5V266.5H904V266H900V266.5H896V266H892V266.5H888V266H884V266.5H880V266H876V266.5H872V266H868V266.5H864V266H860V266.5H856V266H852V266.5H848V266H844V266.5H840V266H836V266.5H832V266H828V266.5H824V266H820V266.5H816V266H812V266.5H808V266H804V266.5H800V266H796V266.5H794.5V267.875H794Z" stroke="#0F62FE" stroke-dasharray="4 4"/>
<rect x="209.5" y="265.5" width="111" height="59" fill="white"/>
<rect x="209.5" y="265.5" width="111" height="59" stroke="#0F62FE"/>
<rect x="210" y="266" width="110" height="58" fill="white"/>
<rect x="210" y="266" width="110" height="58" fill="#EDF5FF"/>
<g clip-path="url(#clip2_1_2)">
<path d="M236.577 294H234.729V284.228H239.125C240.931 284.228 242.023 285.446 242.023 287.252C242.023 289.072 240.931 290.276 239.125 290.276H236.577V294ZM236.577 285.838V288.68H238.957C239.671 288.68 240.105 288.288 240.105 287.574V286.93C240.105 286.216 239.671 285.838 238.957 285.838H236.577ZM245.402 294H243.61V286.692H245.402V288.204H245.472C245.654 287.434 246.242 286.692 247.404 286.692H247.796V288.386H247.236C246.032 288.386 245.402 288.722 245.402 289.52V294ZM252.151 294.168C249.995 294.168 248.707 292.67 248.707 290.332C248.707 288.022 249.953 286.524 252.095 286.524C254.377 286.524 255.427 288.204 255.427 290.206V290.794H250.569V290.976C250.569 292.026 251.171 292.74 252.347 292.74C253.229 292.74 253.761 292.32 254.209 291.746L255.175 292.824C254.573 293.65 253.509 294.168 252.151 294.168ZM252.123 287.868C251.185 287.868 250.569 288.568 250.569 289.576V289.688H253.565V289.562C253.565 288.554 253.047 287.868 252.123 287.868ZM261.081 290.626H257.077V288.848H261.081V290.626ZM264.899 294.168C263.415 294.168 262.575 293.314 262.575 292.012C262.575 290.514 263.709 289.772 265.697 289.772H266.943V289.24C266.943 288.428 266.537 287.952 265.585 287.952C264.745 287.952 264.269 288.372 263.919 288.876L262.855 287.924C263.387 287.084 264.241 286.524 265.711 286.524C267.685 286.524 268.735 287.462 268.735 289.128V292.572H269.463V294H268.469C267.699 294 267.223 293.496 267.111 292.74H267.027C266.789 293.678 265.991 294.168 264.899 294.168ZM265.501 292.866C266.299 292.866 266.943 292.502 266.943 291.816V290.85H265.795C264.857 290.85 264.395 291.172 264.395 291.746V291.984C264.395 292.572 264.801 292.866 265.501 292.866ZM273.958 294.168C271.802 294.168 270.584 292.684 270.584 290.332C270.584 287.994 271.802 286.524 273.958 286.524C275.428 286.524 276.394 287.224 276.828 288.372L275.358 289.03C275.19 288.414 274.728 287.966 273.958 287.966C272.964 287.966 272.46 288.666 272.46 289.688V291.018C272.46 292.04 272.964 292.726 273.958 292.726C274.812 292.726 275.232 292.236 275.498 291.578L276.87 292.236C276.394 293.524 275.372 294.168 273.958 294.168ZM280.693 294C279.461 294 278.803 293.328 278.803 292.138V288.12H277.725V286.692H278.285C278.817 286.692 278.985 286.44 278.985 285.936V284.69H280.595V286.692H282.093V288.12H280.595V292.572H281.981V294H280.693ZM284.704 285.628C283.962 285.628 283.654 285.25 283.654 284.732V284.452C283.654 283.934 283.962 283.556 284.704 283.556C285.432 283.556 285.754 283.934 285.754 284.452V284.732C285.754 285.25 285.432 285.628 284.704 285.628ZM283.808 294V286.692H285.6V294H283.808ZM291.533 294H289.405L286.969 286.692H288.733L289.755 289.842L290.469 292.446H290.567L291.281 289.842L292.275 286.692H293.983L291.533 294ZM298.183 294.168C296.027 294.168 294.739 292.67 294.739 290.332C294.739 288.022 295.985 286.524 298.127 286.524C300.409 286.524 301.459 288.204 301.459 290.206V290.794H296.601V290.976C296.601 292.026 297.203 292.74 298.379 292.74C299.261 292.74 299.793 292.32 300.241 291.746L301.207 292.824C300.605 293.65 299.541 294.168 298.183 294.168ZM298.155 287.868C297.217 287.868 296.601 288.568 296.601 289.576V289.688H299.597V289.562C299.597 288.554 299.079 287.868 298.155 287.868Z" fill="black"/>
</g>
<circle cx="263" cy="308" r="6" fill="#F8C409"/>
<rect x="404.5" y="265.5" width="111" height="59" fill="white"/>
<rect x="404.5" y="265.5" width="111" height="59" stroke="#0F62FE"/>
<rect x="405" y="266" width="110" height="58" fill="white"/>
<rect x="405" y="266" width="110" height="58" fill="#EDF5FF"/>
<g clip-path="url(#clip3_1_2)">
<path d="M446.85 294H444.932L444.148 291.508H440.676L439.906 294H438.03L441.306 284.228H443.602L446.85 294ZM443.7 289.926L442.44 285.908H442.37L441.124 289.926H443.7ZM451.222 294.168C449.066 294.168 447.848 292.684 447.848 290.332C447.848 287.994 449.066 286.524 451.222 286.524C452.692 286.524 453.658 287.224 454.092 288.372L452.622 289.03C452.454 288.414 451.992 287.966 451.222 287.966C450.228 287.966 449.724 288.666 449.724 289.688V291.018C449.724 292.04 450.228 292.726 451.222 292.726C452.076 292.726 452.496 292.236 452.762 291.578L454.134 292.236C453.658 293.524 452.636 294.168 451.222 294.168ZM457.958 294C456.726 294 456.068 293.328 456.068 292.138V288.12H454.99V286.692H455.55C456.082 286.692 456.25 286.44 456.25 285.936V284.69H457.86V286.692H459.358V288.12H457.86V292.572H459.246V294H457.958ZM461.968 285.628C461.226 285.628 460.918 285.25 460.918 284.732V284.452C460.918 283.934 461.226 283.556 461.968 283.556C462.696 283.556 463.018 283.934 463.018 284.452V284.732C463.018 285.25 462.696 285.628 461.968 285.628ZM461.072 294V286.692H462.864V294H461.072ZM468.797 294H466.669L464.233 286.692H465.997L467.019 289.842L467.733 292.446H467.831L468.545 289.842L469.539 286.692H471.247L468.797 294ZM475.448 294.168C473.292 294.168 472.004 292.67 472.004 290.332C472.004 288.022 473.25 286.524 475.392 286.524C477.674 286.524 478.724 288.204 478.724 290.206V290.794H473.866V290.976C473.866 292.026 474.468 292.74 475.644 292.74C476.526 292.74 477.058 292.32 477.506 291.746L478.472 292.824C477.87 293.65 476.806 294.168 475.448 294.168ZM475.42 287.868C474.482 287.868 473.866 288.568 473.866 289.576V289.688H476.862V289.562C476.862 288.554 476.344 287.868 475.42 287.868Z" fill="black"/>
</g>
<circle cx="459" cy="308" r="6" fill="#11A65F"/>
<rect x="599.5" y="265.5" width="111" height="59" fill="white"/>
<rect x="599.5" y="265.5" width="111" height="59" stroke="#0F62FE"/>
<rect x="600" y="266" width="110" height="58" fill="white"/>
<rect x="600" y="266" width="110" height="58" fill="#EDF5FF"/>
<g clip-path="url(#clip4_1_2)">
<path d="M616.383 294V284.228H619.939C622.487 284.228 624.153 285.866 624.153 289.114C624.153 292.362 622.487 294 619.939 294H616.383ZM618.231 292.362H619.939C621.311 292.362 622.193 291.55 622.193 289.884V288.344C622.193 286.678 621.311 285.866 619.939 285.866H618.231V292.362ZM629.038 294.168C626.882 294.168 625.594 292.67 625.594 290.332C625.594 288.022 626.84 286.524 628.982 286.524C631.264 286.524 632.314 288.204 632.314 290.206V290.794H627.456V290.976C627.456 292.026 628.058 292.74 629.234 292.74C630.116 292.74 630.648 292.32 631.096 291.746L632.062 292.824C631.46 293.65 630.396 294.168 629.038 294.168ZM629.01 287.868C628.072 287.868 627.456 288.568 627.456 289.576V289.688H630.452V289.562C630.452 288.554 629.934 287.868 629.01 287.868ZM635.856 294.168C634.372 294.168 633.532 293.314 633.532 292.012C633.532 290.514 634.666 289.772 636.654 289.772H637.9V289.24C637.9 288.428 637.494 287.952 636.542 287.952C635.702 287.952 635.226 288.372 634.876 288.876L633.812 287.924C634.344 287.084 635.198 286.524 636.668 286.524C638.642 286.524 639.692 287.462 639.692 289.128V292.572H640.42V294H639.426C638.656 294 638.18 293.496 638.068 292.74H637.984C637.746 293.678 636.948 294.168 635.856 294.168ZM636.458 292.866C637.256 292.866 637.9 292.502 637.9 291.816V290.85H636.752C635.814 290.85 635.352 291.172 635.352 291.746V291.984C635.352 292.572 635.758 292.866 636.458 292.866ZM644.914 294.168C642.758 294.168 641.54 292.684 641.54 290.332C641.54 287.994 642.758 286.524 644.914 286.524C646.384 286.524 647.35 287.224 647.784 288.372L646.314 289.03C646.146 288.414 645.684 287.966 644.914 287.966C643.92 287.966 643.416 288.666 643.416 289.688V291.018C643.416 292.04 643.92 292.726 644.914 292.726C645.768 292.726 646.188 292.236 646.454 291.578L647.826 292.236C647.35 293.524 646.328 294.168 644.914 294.168ZM651.65 294C650.418 294 649.76 293.328 649.76 292.138V288.12H648.682V286.692H649.242C649.774 286.692 649.942 286.44 649.942 285.936V284.69H651.552V286.692H653.05V288.12H651.552V292.572H652.938V294H651.65ZM655.661 285.628C654.919 285.628 654.611 285.25 654.611 284.732V284.452C654.611 283.934 654.919 283.556 655.661 283.556C656.389 283.556 656.711 283.934 656.711 284.452V284.732C656.711 285.25 656.389 285.628 655.661 285.628ZM654.765 294V286.692H656.557V294H654.765ZM662.49 294H660.362L657.926 286.692H659.69L660.712 289.842L661.426 292.446H661.524L662.238 289.842L663.232 286.692H664.94L662.49 294ZM667.978 294.168C666.494 294.168 665.654 293.314 665.654 292.012C665.654 290.514 666.788 289.772 668.776 289.772H670.022V289.24C670.022 288.428 669.616 287.952 668.664 287.952C667.824 287.952 667.348 288.372 666.998 288.876L665.934 287.924C666.466 287.084 667.32 286.524 668.79 286.524C670.764 286.524 671.814 287.462 671.814 289.128V292.572H672.542V294H671.548C670.778 294 670.302 293.496 670.19 292.74H670.106C669.868 293.678 669.07 294.168 667.978 294.168ZM668.58 292.866C669.378 292.866 670.022 292.502 670.022 291.816V290.85H668.874C667.936 290.85 667.474 291.172 667.474 291.746V291.984C667.474 292.572 667.88 292.866 668.58 292.866ZM676.38 294C675.148 294 674.49 293.328 674.49 292.138V288.12H673.412V286.692H673.972C674.504 286.692 674.672 286.44 674.672 285.936V284.69H676.282V286.692H677.78V288.12H676.282V292.572H677.668V294H676.38ZM682.394 294.168C680.238 294.168 678.95 292.67 678.95 290.332C678.95 288.022 680.196 286.524 682.338 286.524C684.62 286.524 685.67 288.204 685.67 290.206V290.794H680.812V290.976C680.812 292.026 681.414 292.74 682.59 292.74C683.472 292.74 684.004 292.32 684.452 291.746L685.418 292.824C684.816 293.65 683.752 294.168 682.394 294.168ZM682.366 287.868C681.428 287.868 680.812 288.568 680.812 289.576V289.688H683.808V289.562C683.808 288.554 683.29 287.868 682.366 287.868ZM691.942 294V292.782H691.872C691.606 293.608 690.822 294.168 689.856 294.168C688.022 294.168 687 292.782 687 290.332C687 287.896 688.022 286.524 689.856 286.524C690.822 286.524 691.62 287.056 691.872 287.896H691.942V283.64H693.734V294H691.942ZM690.43 292.684C691.284 292.684 691.942 292.25 691.942 291.494V289.17C691.942 288.456 691.284 287.994 690.43 287.994C689.506 287.994 688.876 288.68 688.876 289.716V290.976C688.876 292.012 689.506 292.684 690.43 292.684Z" fill="black"/>
</g>
<circle cx="655" cy="308" r="6" fill="#8C8B87"/>
<rect x="990.5" y="266.5" width="111" height="59" fill="white"/>
<rect x="990.5" y="266.5" width="111" height="59" stroke="#0F62FE"/>
<rect x="991" y="267" width="110" height="58" fill="white"/>
<rect x="991" y="267" width="110" height="58" fill="#EDF5FF"/>
<g clip-path="url(#clip5_1_2)">
<path d="M1011.9 295V285.228H1015.46C1018.01 285.228 1019.67 286.866 1019.67 290.114C1019.67 293.362 1018.01 295 1015.46 295H1011.9ZM1013.75 293.362H1015.46C1016.83 293.362 1017.71 292.55 1017.71 290.884V289.344C1017.71 287.678 1016.83 286.866 1015.46 286.866H1013.75V293.362ZM1024.56 295.168C1022.4 295.168 1021.11 293.67 1021.11 291.332C1021.11 289.022 1022.36 287.524 1024.5 287.524C1026.78 287.524 1027.83 289.204 1027.83 291.206V291.794H1022.97V291.976C1022.97 293.026 1023.58 293.74 1024.75 293.74C1025.63 293.74 1026.17 293.32 1026.61 292.746L1027.58 293.824C1026.98 294.65 1025.91 295.168 1024.56 295.168ZM1024.53 288.868C1023.59 288.868 1022.97 289.568 1022.97 290.576V290.688H1025.97V290.562C1025.97 289.554 1025.45 288.868 1024.53 288.868ZM1031.96 295.168C1030.58 295.168 1029.67 294.664 1028.94 293.824L1030.03 292.76C1030.56 293.376 1031.21 293.754 1032.03 293.754C1032.89 293.754 1033.25 293.432 1033.25 292.914C1033.25 292.494 1033 292.228 1032.35 292.144L1031.63 292.046C1030.06 291.85 1029.19 291.164 1029.19 289.834C1029.19 288.42 1030.3 287.524 1031.96 287.524C1033.39 287.524 1034.12 287.944 1034.82 288.672L1033.77 289.722C1033.35 289.274 1032.73 288.938 1032.02 288.938C1031.25 288.938 1030.91 289.246 1030.91 289.694C1030.91 290.184 1031.18 290.408 1031.86 290.52L1032.61 290.618C1034.2 290.842 1034.97 291.556 1034.97 292.774C1034.97 294.188 1033.78 295.168 1031.96 295.168ZM1038.89 295C1037.66 295 1037 294.328 1037 293.138V289.12H1035.92V287.692H1036.48C1037.01 287.692 1037.18 287.44 1037.18 286.936V285.69H1038.79V287.692H1040.29V289.12H1038.79V293.572H1040.18V295H1038.89ZM1043.79 295H1042V287.692H1043.79V289.204H1043.86C1044.05 288.434 1044.63 287.692 1045.8 287.692H1046.19V289.386H1045.63C1044.42 289.386 1043.79 289.722 1043.79 290.52V295ZM1050.49 295.168C1048.4 295.168 1047.1 293.684 1047.1 291.332C1047.1 288.994 1048.4 287.524 1050.49 287.524C1052.59 287.524 1053.89 288.994 1053.89 291.332C1053.89 293.684 1052.59 295.168 1050.49 295.168ZM1050.49 293.726C1051.43 293.726 1052.01 293.124 1052.01 292.018V290.66C1052.01 289.568 1051.43 288.966 1050.49 288.966C1049.56 288.966 1048.98 289.568 1048.98 290.66V292.018C1048.98 293.124 1049.56 293.726 1050.49 293.726ZM1058.72 291.556L1060 287.692H1061.68L1058.74 296.302C1058.37 297.352 1057.85 297.8 1056.65 297.8H1055.57V296.372H1056.89L1057.22 295.35L1054.61 287.692H1056.38L1057.66 291.556L1058.13 293.404H1058.22L1058.72 291.556ZM1065.88 295.168C1063.72 295.168 1062.43 293.67 1062.43 291.332C1062.43 289.022 1063.68 287.524 1065.82 287.524C1068.1 287.524 1069.15 289.204 1069.15 291.206V291.794H1064.29V291.976C1064.29 293.026 1064.9 293.74 1066.07 293.74C1066.95 293.74 1067.49 293.32 1067.93 292.746L1068.9 293.824C1068.3 294.65 1067.23 295.168 1065.88 295.168ZM1065.85 288.868C1064.91 288.868 1064.29 289.568 1064.29 290.576V290.688H1067.29V290.562C1067.29 289.554 1066.77 288.868 1065.85 288.868ZM1075.42 295V293.782H1075.35C1075.09 294.608 1074.3 295.168 1073.34 295.168C1071.5 295.168 1070.48 293.782 1070.48 291.332C1070.48 288.896 1071.5 287.524 1073.34 287.524C1074.3 287.524 1075.1 288.056 1075.35 288.896H1075.42V284.64H1077.22V295H1075.42ZM1073.91 293.684C1074.77 293.684 1075.42 293.25 1075.42 292.494V290.17C1075.42 289.456 1074.77 288.994 1073.91 288.994C1072.99 288.994 1072.36 289.68 1072.36 290.716V291.976C1072.36 293.012 1072.99 293.684 1073.91 293.684Z" fill="black"/>
</g>
<circle cx="1045" cy="309" r="6" fill="#EF0707"/>
<rect width="76" height="10" transform="translate(133 290)" fill="white" fill-opacity="0.01" style="mix-blend-mode:multiply"/>
<rect width="69" height="0" transform="translate(133 295)" fill="white" fill-opacity="0.01" style="mix-blend-mode:multiply"/>
<path d="M133 295H202" stroke="black"/>
<rect width="8" height="8" transform="translate(201 291)" fill="white" fill-opacity="0.01" style="mix-blend-mode:multiply"/>
<path d="M201 291L209 295L201 299V291Z" fill="black"/>
<rect width="84" height="11" transform="translate(321 290)" fill="white" fill-opacity="0.01" style="mix-blend-mode:multiply"/>
<rect width="77" height="0" transform="translate(321 295.5)" fill="white" fill-opacity="0.01" style="mix-blend-mode:multiply"/>
<path d="M321 295.5H398" stroke="black"/>
<rect width="8" height="8" transform="translate(397 291.5)" fill="white" fill-opacity="0.01" style="mix-blend-mode:multiply"/>
<path d="M397 291.5L405 295.5L397 299.5V291.5Z" fill="black"/>
<rect width="84" height="11" transform="translate(906 290)" fill="white" fill-opacity="0.01" style="mix-blend-mode:multiply"/>
<rect width="77" height="0" transform="translate(906 295.5)" fill="white" fill-opacity="0.01" style="mix-blend-mode:multiply"/>
<path d="M906 295.5H983" stroke="black"/>
<rect width="8" height="8" transform="translate(982 291.5)" fill="white" fill-opacity="0.01" style="mix-blend-mode:multiply"/>
<path d="M982 291.5L990 295.5L982 299.5V291.5Z" fill="black"/>
<rect width="84" height="11" transform="translate(711 290)" fill="white" fill-opacity="0.01" style="mix-blend-mode:multiply"/>
<rect width="77" height="0" transform="translate(711 295.5)" fill="white" fill-opacity="0.01" style="mix-blend-mode:multiply"/>
<path d="M711 295.5H788" stroke="black"/>
<rect width="8" height="8" transform="translate(787 291.5)" fill="white" fill-opacity="0.01" style="mix-blend-mode:multiply"/>
<path d="M787 291.5L795 295.5L787 299.5V291.5Z" fill="black"/>
<rect width="84" height="11" transform="translate(515 290)" fill="white" fill-opacity="0.01" style="mix-blend-mode:multiply"/>
<rect width="77" height="0" transform="translate(515 295.5)" fill="white" fill-opacity="0.01" style="mix-blend-mode:multiply"/>
<path d="M515 295.5H592" stroke="black"/>
<rect width="8" height="8" transform="translate(591 291.5)" fill="white" fill-opacity="0.01" style="mix-blend-mode:multiply"/>
<path d="M591 291.5L599 295.5L591 299.5V291.5Z" fill="black"/>
<path d="M152.746 291.168C150.282 291.168 148.812 289.432 148.812 286.17C148.812 282.908 150.282 281.06 152.746 281.06C154.37 281.06 155.49 281.844 156.106 283.202L155.154 283.776C154.762 282.768 153.95 282.11 152.746 282.11C151.066 282.11 150.072 283.44 150.072 285.442V286.898C150.072 288.9 151.066 290.118 152.746 290.118C153.992 290.118 154.846 289.418 155.238 288.354L156.176 288.942C155.56 290.314 154.37 291.168 152.746 291.168ZM159.165 291H158.045V283.776H159.165V285.106H159.235C159.487 284.42 160.145 283.776 161.321 283.776H161.755V284.896H161.097C159.893 284.896 159.165 285.414 159.165 286.1V291ZM165.994 291.168C164.034 291.168 162.746 289.684 162.746 287.388C162.746 285.092 164.034 283.608 165.994 283.608C167.926 283.608 169.116 285.092 169.116 287.136V287.668H163.922V288.004C163.922 289.25 164.72 290.188 166.064 290.188C166.974 290.188 167.674 289.74 168.052 288.942L168.85 289.516C168.388 290.496 167.352 291.168 165.994 291.168ZM165.994 284.546C164.776 284.546 163.922 285.47 163.922 286.73V286.828H167.912V286.674C167.912 285.4 167.142 284.546 165.994 284.546ZM177.001 291H176.371C175.545 291 175.209 290.496 175.125 289.824H175.055C174.747 290.706 173.977 291.168 172.969 291.168C171.443 291.168 170.547 290.328 170.547 288.984C170.547 287.626 171.527 286.87 173.627 286.87H175.055V286.156C175.055 285.134 174.495 284.574 173.347 284.574C172.479 284.574 171.905 284.994 171.513 285.652L170.841 285.022C171.233 284.252 172.101 283.608 173.403 283.608C175.139 283.608 176.175 284.518 176.175 286.044V290.02H177.001V291ZM173.151 290.216C174.257 290.216 175.055 289.642 175.055 288.9V287.71H173.571C172.297 287.71 171.723 288.102 171.723 288.802V289.096C171.723 289.81 172.283 290.216 173.151 290.216ZM181.756 291H180.356C179.586 291 179.166 290.51 179.166 289.81V284.756H177.976V283.776H178.648C179.124 283.776 179.278 283.608 179.278 283.118V281.774H180.286V283.776H181.868V284.756H180.286V290.02H181.756V291ZM186.489 291.168C184.529 291.168 183.241 289.684 183.241 287.388C183.241 285.092 184.529 283.608 186.489 283.608C188.421 283.608 189.611 285.092 189.611 287.136V287.668H184.417V288.004C184.417 289.25 185.215 290.188 186.559 290.188C187.469 290.188 188.169 289.74 188.547 288.942L189.345 289.516C188.883 290.496 187.847 291.168 186.489 291.168ZM186.489 284.546C185.271 284.546 184.417 285.47 184.417 286.73V286.828H188.407V286.674C188.407 285.4 187.637 284.546 186.489 284.546Z" fill="black"/>
<path d="M269.746 452.168C267.282 452.168 265.812 450.432 265.812 447.17C265.812 443.908 267.282 442.06 269.746 442.06C271.37 442.06 272.49 442.844 273.106 444.202L272.154 444.776C271.762 443.768 270.95 443.11 269.746 443.11C268.066 443.11 267.072 444.44 267.072 446.442V447.898C267.072 449.9 268.066 451.118 269.746 451.118C270.992 451.118 271.846 450.418 272.238 449.354L273.176 449.942C272.56 451.314 271.37 452.168 269.746 452.168ZM276.165 452H275.045V444.776H276.165V446.106H276.235C276.487 445.42 277.145 444.776 278.321 444.776H278.755V445.896H278.097C276.893 445.896 276.165 446.414 276.165 447.1V452ZM282.994 452.168C281.034 452.168 279.746 450.684 279.746 448.388C279.746 446.092 281.034 444.608 282.994 444.608C284.926 444.608 286.116 446.092 286.116 448.136V448.668H280.922V449.004C280.922 450.25 281.72 451.188 283.064 451.188C283.974 451.188 284.674 450.74 285.052 449.942L285.85 450.516C285.388 451.496 284.352 452.168 282.994 452.168ZM282.994 445.546C281.776 445.546 280.922 446.47 280.922 447.73V447.828H284.912V447.674C284.912 446.4 284.142 445.546 282.994 445.546ZM294.001 452H293.371C292.545 452 292.209 451.496 292.125 450.824H292.055C291.747 451.706 290.977 452.168 289.969 452.168C288.443 452.168 287.547 451.328 287.547 449.984C287.547 448.626 288.527 447.87 290.627 447.87H292.055V447.156C292.055 446.134 291.495 445.574 290.347 445.574C289.479 445.574 288.905 445.994 288.513 446.652L287.841 446.022C288.233 445.252 289.101 444.608 290.403 444.608C292.139 444.608 293.175 445.518 293.175 447.044V451.02H294.001V452ZM290.151 451.216C291.257 451.216 292.055 450.642 292.055 449.9V448.71H290.571C289.297 448.71 288.723 449.102 288.723 449.802V450.096C288.723 450.81 289.283 451.216 290.151 451.216ZM298.756 452H297.356C296.586 452 296.166 451.51 296.166 450.81V445.756H294.976V444.776H295.648C296.124 444.776 296.278 444.608 296.278 444.118V442.774H297.286V444.776H298.868V445.756H297.286V451.02H298.756V452ZM303.489 452.168C301.529 452.168 300.241 450.684 300.241 448.388C300.241 446.092 301.529 444.608 303.489 444.608C305.421 444.608 306.611 446.092 306.611 448.136V448.668H301.417V449.004C301.417 450.25 302.215 451.188 303.559 451.188C304.469 451.188 305.169 450.74 305.547 449.942L306.345 450.516C305.883 451.496 304.847 452.168 303.489 452.168ZM303.489 445.546C302.271 445.546 301.417 446.47 301.417 447.73V447.828H305.407V447.674C305.407 446.4 304.637 445.546 303.489 445.546Z" fill="black"/>
<path d="M650.302 153V143.228H653.578C656.014 143.228 657.582 144.852 657.582 148.114C657.582 151.376 656.014 153 653.578 153H650.302ZM651.478 151.964H653.578C655.188 151.964 656.322 150.844 656.322 148.912V147.316C656.322 145.384 655.188 144.264 653.578 144.264H651.478V151.964ZM662.459 153.168C660.499 153.168 659.211 151.684 659.211 149.388C659.211 147.092 660.499 145.608 662.459 145.608C664.391 145.608 665.581 147.092 665.581 149.136V149.668H660.387V150.004C660.387 151.25 661.185 152.188 662.529 152.188C663.439 152.188 664.139 151.74 664.517 150.942L665.315 151.516C664.853 152.496 663.817 153.168 662.459 153.168ZM662.459 146.546C661.241 146.546 660.387 147.47 660.387 148.73V148.828H664.377V148.674C664.377 147.4 663.607 146.546 662.459 146.546ZM669.756 153.168C668.426 153.168 667.544 152.608 666.9 151.754L667.698 151.11C668.258 151.81 668.93 152.216 669.84 152.216C670.792 152.216 671.352 151.782 671.352 151.04C671.352 150.48 671.044 150.046 670.092 149.906L669.518 149.822C668.188 149.626 667.194 149.08 667.194 147.736C667.194 146.308 668.3 145.608 669.77 145.608C670.932 145.608 671.702 146.042 672.29 146.77L671.548 147.442C671.226 146.994 670.61 146.56 669.686 146.56C668.762 146.56 668.272 146.994 668.272 147.68C668.272 148.38 668.762 148.66 669.658 148.8L670.218 148.884C671.814 149.122 672.43 149.822 672.43 150.914C672.43 152.314 671.408 153.168 669.756 153.168ZM677.469 153H676.069C675.299 153 674.879 152.51 674.879 151.81V146.756H673.689V145.776H674.361C674.837 145.776 674.991 145.608 674.991 145.118V143.774H675.999V145.776H677.581V146.756H675.999V152.02H677.469V153ZM680.661 153H679.541V145.776H680.661V147.106H680.731C680.983 146.42 681.641 145.776 682.817 145.776H683.251V146.896H682.593C681.389 146.896 680.661 147.414 680.661 148.1V153ZM687.503 153.168C685.571 153.168 684.241 151.684 684.241 149.388C684.241 147.092 685.571 145.608 687.503 145.608C689.435 145.608 690.765 147.092 690.765 149.388C690.765 151.684 689.435 153.168 687.503 153.168ZM687.503 152.174C688.707 152.174 689.561 151.432 689.561 149.906V148.87C689.561 147.344 688.707 146.602 687.503 146.602C686.299 146.602 685.445 147.344 685.445 148.87V149.906C685.445 151.432 686.299 152.174 687.503 152.174ZM695.401 150.69L697.151 145.776H698.257L695.023 154.68C694.701 155.548 694.407 155.8 693.343 155.8H692.769V154.82H693.903L694.449 153.28L691.747 145.776H692.867L694.603 150.69L694.939 151.866H695.009L695.401 150.69Z" fill="black"/>
<path d="M39.084 52L36.298 47.576L34.996 49.116V52H33.148V42.228H34.996V47.044H35.066L36.452 45.21L38.874 42.228H41.002L37.6 46.302L41.282 52H39.084ZM45.2828 52.168C43.1268 52.168 41.8388 50.67 41.8388 48.332C41.8388 46.022 43.0848 44.524 45.2268 44.524C47.5088 44.524 48.5588 46.204 48.5588 48.206V48.794H43.7008V48.976C43.7008 50.026 44.3028 50.74 45.4788 50.74C46.3608 50.74 46.8928 50.32 47.3408 49.746L48.3068 50.824C47.7048 51.65 46.6408 52.168 45.2828 52.168ZM45.2548 45.868C44.3168 45.868 43.7008 46.568 43.7008 47.576V47.688H46.6968V47.562C46.6968 46.554 46.1788 45.868 45.2548 45.868ZM53.4194 48.556L54.6934 44.692H56.3734L53.4334 53.302C53.0694 54.352 52.5514 54.8 51.3474 54.8H50.2694V53.372H51.5854L51.9214 52.35L49.3034 44.692H51.0814L52.3554 48.556L52.8314 50.404H52.9154L53.4194 48.556ZM63.9418 52H62.9758C61.7578 52 61.1838 51.356 61.1838 50.236V41.64H62.9758V50.572H63.9418V52ZM66.355 43.628C65.613 43.628 65.305 43.25 65.305 42.732V42.452C65.305 41.934 65.613 41.556 66.355 41.556C67.083 41.556 67.405 41.934 67.405 42.452V42.732C67.405 43.25 67.083 43.628 66.355 43.628ZM65.459 52V44.692H67.251V52H65.459ZM69.8522 52V46.106H68.7742V44.692H69.8522V43.642C69.8522 42.354 70.5522 41.64 71.8682 41.64H73.1422V43.068H71.6442V44.692H73.1422V46.106H71.6442V52H69.8522ZM77.442 52.168C75.286 52.168 73.998 50.67 73.998 48.332C73.998 46.022 75.244 44.524 77.386 44.524C79.668 44.524 80.718 46.204 80.718 48.206V48.794H75.86V48.976C75.86 50.026 76.462 50.74 77.638 50.74C78.52 50.74 79.052 50.32 79.5 49.746L80.466 50.824C79.864 51.65 78.8 52.168 77.442 52.168ZM77.414 45.868C76.476 45.868 75.86 46.568 75.86 47.576V47.688H78.856V47.562C78.856 46.554 78.338 45.868 77.414 45.868ZM85.3387 52.168C83.1827 52.168 81.9647 50.684 81.9647 48.332C81.9647 45.994 83.1827 44.524 85.3387 44.524C86.8087 44.524 87.7747 45.224 88.2087 46.372L86.7387 47.03C86.5707 46.414 86.1087 45.966 85.3387 45.966C84.3447 45.966 83.8407 46.666 83.8407 47.688V49.018C83.8407 50.04 84.3447 50.726 85.3387 50.726C86.1927 50.726 86.6127 50.236 86.8787 49.578L88.2507 50.236C87.7747 51.524 86.7527 52.168 85.3387 52.168ZM92.9984 48.556L94.2724 44.692H95.9524L93.0124 53.302C92.6484 54.352 92.1304 54.8 90.9264 54.8H89.8484V53.372H91.1644L91.5004 52.35L88.8824 44.692H90.6604L91.9344 48.556L92.4104 50.404H92.4944L92.9984 48.556ZM100.082 52.168C97.9265 52.168 96.7085 50.684 96.7085 48.332C96.7085 45.994 97.9265 44.524 100.082 44.524C101.552 44.524 102.518 45.224 102.952 46.372L101.482 47.03C101.314 46.414 100.852 45.966 100.082 45.966C99.0885 45.966 98.5845 46.666 98.5845 47.688V49.018C98.5845 50.04 99.0885 50.726 100.082 50.726C100.936 50.726 101.356 50.236 101.622 49.578L102.994 50.236C102.518 51.524 101.496 52.168 100.082 52.168ZM107.294 52H106.328C105.11 52 104.536 51.356 104.536 50.236V41.64H106.328V50.572H107.294V52ZM111.765 52.168C109.609 52.168 108.321 50.67 108.321 48.332C108.321 46.022 109.567 44.524 111.709 44.524C113.991 44.524 115.041 46.204 115.041 48.206V48.794H110.183V48.976C110.183 50.026 110.785 50.74 111.961 50.74C112.843 50.74 113.375 50.32 113.823 49.746L114.789 50.824C114.187 51.65 113.123 52.168 111.765 52.168ZM111.737 45.868C110.799 45.868 110.183 46.568 110.183 47.576V47.688H113.179V47.562C113.179 46.554 112.661 45.868 111.737 45.868ZM121.143 43.628C120.401 43.628 120.093 43.25 120.093 42.732V42.452C120.093 41.934 120.401 41.556 121.143 41.556C121.871 41.556 122.193 41.934 122.193 42.452V42.732C122.193 43.25 121.871 43.628 121.143 43.628ZM120.247 52V44.692H122.039V52H120.247ZM126.068 52H124.276V44.692H126.068V45.91H126.138C126.432 45.126 127.048 44.524 128.182 44.524C129.68 44.524 130.52 45.56 130.52 47.38V52H128.728V47.562C128.728 46.526 128.378 45.994 127.524 45.994C126.782 45.994 126.068 46.386 126.068 47.17V52ZM136.177 42.228H137.997V48.234C137.997 49.76 138.529 50.53 139.929 50.53C141.329 50.53 141.861 49.76 141.861 48.234V42.228H143.681V47.996C143.681 50.866 142.659 52.168 139.915 52.168C137.171 52.168 136.177 50.866 136.177 47.996V42.228ZM147.753 52H145.961V44.692H147.753V45.91H147.823C148.117 45.126 148.733 44.524 149.867 44.524C151.365 44.524 152.205 45.56 152.205 47.38V52H150.413V47.562C150.413 46.526 150.063 45.994 149.209 45.994C148.467 45.994 147.753 46.386 147.753 47.17V52ZM155.247 43.628C154.505 43.628 154.197 43.25 154.197 42.732V42.452C154.197 41.934 154.505 41.556 155.247 41.556C155.975 41.556 156.297 41.934 156.297 42.452V42.732C156.297 43.25 155.975 43.628 155.247 43.628ZM154.351 52V44.692H156.143V52H154.351ZM158.745 52V46.106H157.667V44.692H158.745V43.642C158.745 42.354 159.445 41.64 160.761 41.64H162.035V43.068H160.537V44.692H165.045V52H163.253V46.106H160.537V52H158.745ZM164.149 43.628C163.407 43.628 163.099 43.25 163.099 42.732V42.452C163.099 41.934 163.407 41.556 164.149 41.556C164.877 41.556 165.199 41.934 165.199 42.452V42.732C165.199 43.25 164.877 43.628 164.149 43.628ZM170.231 52.168C168.075 52.168 166.787 50.67 166.787 48.332C166.787 46.022 168.033 44.524 170.175 44.524C172.457 44.524 173.507 46.204 173.507 48.206V48.794H168.649V48.976C168.649 50.026 169.251 50.74 170.427 50.74C171.309 50.74 171.841 50.32 172.289 49.746L173.255 50.824C172.653 51.65 171.589 52.168 170.231 52.168ZM170.203 45.868C169.265 45.868 168.649 46.568 168.649 47.576V47.688H171.645V47.562C171.645 46.554 171.127 45.868 170.203 45.868ZM179.78 52V50.782H179.71C179.444 51.608 178.66 52.168 177.694 52.168C175.86 52.168 174.838 50.782 174.838 48.332C174.838 45.896 175.86 44.524 177.694 44.524C178.66 44.524 179.458 45.056 179.71 45.896H179.78V41.64H181.572V52H179.78ZM178.268 50.684C179.122 50.684 179.78 50.25 179.78 49.494V47.17C179.78 46.456 179.122 45.994 178.268 45.994C177.344 45.994 176.714 46.68 176.714 47.716V48.976C176.714 50.012 177.344 50.684 178.268 50.684ZM193.315 52L190.529 47.576L189.227 49.116V52H187.379V42.228H189.227V47.044H189.297L190.683 45.21L193.105 42.228H195.233L191.831 46.302L195.513 52H193.315ZM199.513 52.168C197.357 52.168 196.069 50.67 196.069 48.332C196.069 46.022 197.315 44.524 199.457 44.524C201.739 44.524 202.789 46.204 202.789 48.206V48.794H197.931V48.976C197.931 50.026 198.533 50.74 199.709 50.74C200.591 50.74 201.123 50.32 201.571 49.746L202.537 50.824C201.935 51.65 200.871 52.168 199.513 52.168ZM199.485 45.868C198.547 45.868 197.931 46.568 197.931 47.576V47.688H200.927V47.562C200.927 46.554 200.409 45.868 199.485 45.868ZM207.65 48.556L208.924 44.692H210.604L207.664 53.302C207.3 54.352 206.782 54.8 205.578 54.8H204.5V53.372H205.816L206.152 52.35L203.534 44.692H205.312L206.586 48.556L207.062 50.404H207.146L207.65 48.556ZM219.362 52.168C216.8 52.168 215.106 50.418 215.106 47.114C215.106 43.81 216.8 42.06 219.362 42.06C221.938 42.06 223.618 43.81 223.618 47.114C223.618 50.418 221.938 52.168 219.362 52.168ZM219.362 50.53C220.762 50.53 221.658 49.536 221.658 47.87V46.358C221.658 44.692 220.762 43.698 219.362 43.698C217.962 43.698 217.066 44.692 217.066 46.358V47.87C217.066 49.536 217.962 50.53 219.362 50.53ZM227.333 52H225.541V44.692H227.333V46.204H227.403C227.585 45.434 228.173 44.692 229.335 44.692H229.727V46.386H229.167C227.963 46.386 227.333 46.722 227.333 47.52V52ZM234.013 52.168C231.857 52.168 230.639 50.684 230.639 48.332C230.639 45.994 231.857 44.524 234.013 44.524C235.483 44.524 236.449 45.224 236.883 46.372L235.413 47.03C235.245 46.414 234.783 45.966 234.013 45.966C233.019 45.966 232.515 46.666 232.515 47.688V49.018C232.515 50.04 233.019 50.726 234.013 50.726C234.867 50.726 235.287 50.236 235.553 49.578L236.925 50.236C236.449 51.524 235.427 52.168 234.013 52.168ZM238.467 52V41.64H240.259V45.91H240.329C240.623 45.126 241.239 44.524 242.373 44.524C243.871 44.524 244.711 45.56 244.711 47.38V52H242.919V47.562C242.919 46.526 242.569 45.994 241.715 45.994C240.973 45.994 240.259 46.386 240.259 47.17V52H238.467ZM249.811 52.168C247.655 52.168 246.367 50.67 246.367 48.332C246.367 46.022 247.613 44.524 249.755 44.524C252.037 44.524 253.087 46.204 253.087 48.206V48.794H248.229V48.976C248.229 50.026 248.831 50.74 250.007 50.74C250.889 50.74 251.421 50.32 251.869 49.746L252.835 50.824C252.233 51.65 251.169 52.168 249.811 52.168ZM249.783 45.868C248.845 45.868 248.229 46.568 248.229 47.576V47.688H251.225V47.562C251.225 46.554 250.707 45.868 249.783 45.868ZM257.218 52.168C255.832 52.168 254.922 51.664 254.194 50.824L255.286 49.76C255.818 50.376 256.462 50.754 257.288 50.754C258.142 50.754 258.506 50.432 258.506 49.914C258.506 49.494 258.254 49.228 257.61 49.144L256.882 49.046C255.314 48.85 254.446 48.164 254.446 46.834C254.446 45.42 255.552 44.524 257.218 44.524C258.646 44.524 259.374 44.944 260.074 45.672L259.024 46.722C258.604 46.274 257.988 45.938 257.274 45.938C256.504 45.938 256.168 46.246 256.168 46.694C256.168 47.184 256.434 47.408 257.12 47.52L257.862 47.618C259.458 47.842 260.228 48.556 260.228 49.774C260.228 51.188 259.038 52.168 257.218 52.168ZM264.143 52C262.911 52 262.253 51.328 262.253 50.138V46.12H261.175V44.692H261.735C262.267 44.692 262.435 44.44 262.435 43.936V42.69H264.045V44.692H265.543V46.12H264.045V50.572H265.431V52H264.143ZM269.049 52H267.257V44.692H269.049V46.204H269.119C269.301 45.434 269.889 44.692 271.051 44.692H271.443V46.386H270.883C269.679 46.386 269.049 46.722 269.049 47.52V52ZM274.569 52.168C273.085 52.168 272.245 51.314 272.245 50.012C272.245 48.514 273.379 47.772 275.367 47.772H276.613V47.24C276.613 46.428 276.207 45.952 275.255 45.952C274.415 45.952 273.939 46.372 273.589 46.876L272.525 45.924C273.057 45.084 273.911 44.524 275.381 44.524C277.355 44.524 278.405 45.462 278.405 47.128V50.572H279.133V52H278.139C277.369 52 276.893 51.496 276.781 50.74H276.697C276.459 51.678 275.661 52.168 274.569 52.168ZM275.171 50.866C275.969 50.866 276.613 50.502 276.613 49.816V48.85H275.465C274.527 48.85 274.065 49.172 274.065 49.746V49.984C274.065 50.572 274.471 50.866 275.171 50.866ZM282.97 52C281.738 52 281.08 51.328 281.08 50.138V46.12H280.002V44.692H280.562C281.094 44.692 281.262 44.44 281.262 43.936V42.69H282.872V44.692H284.37V46.12H282.872V50.572H284.258V52H282.97ZM288.928 52.168C286.842 52.168 285.54 50.684 285.54 48.332C285.54 45.994 286.842 44.524 288.928 44.524C291.028 44.524 292.33 45.994 292.33 48.332C292.33 50.684 291.028 52.168 288.928 52.168ZM288.928 50.726C289.866 50.726 290.454 50.124 290.454 49.018V47.66C290.454 46.568 289.866 45.966 288.928 45.966C288.004 45.966 287.416 46.568 287.416 47.66V49.018C287.416 50.124 288.004 50.726 288.928 50.726ZM295.871 52H294.079V44.692H295.871V46.204H295.941C296.123 45.434 296.711 44.692 297.873 44.692H298.265V46.386H297.705C296.501 46.386 295.871 46.722 295.871 47.52V52Z" fill="black"/>
<path d="M533.478 203.8V208H532.302V198.228H536.194C537.902 198.228 538.924 199.222 538.924 201C538.924 202.428 538.238 203.394 536.964 203.688L539.204 208H537.874L535.76 203.8H533.478ZM533.478 202.792H536.194C537.118 202.792 537.664 202.288 537.664 201.392V200.664C537.664 199.768 537.118 199.264 536.194 199.264H533.478V202.792ZM543.816 208.168C541.856 208.168 540.568 206.684 540.568 204.388C540.568 202.092 541.856 200.608 543.816 200.608C545.748 200.608 546.938 202.092 546.938 204.136V204.668H541.744V205.004C541.744 206.25 542.542 207.188 543.886 207.188C544.796 207.188 545.496 206.74 545.874 205.942L546.672 206.516C546.21 207.496 545.174 208.168 543.816 208.168ZM543.816 201.546C542.598 201.546 541.744 202.47 541.744 203.73V203.828H545.734V203.674C545.734 202.4 544.964 201.546 543.816 201.546ZM554.824 208H554.194C553.368 208 553.032 207.496 552.948 206.824H552.878C552.57 207.706 551.8 208.168 550.792 208.168C549.266 208.168 548.37 207.328 548.37 205.984C548.37 204.626 549.35 203.87 551.45 203.87H552.878V203.156C552.878 202.134 552.318 201.574 551.17 201.574C550.302 201.574 549.728 201.994 549.336 202.652L548.664 202.022C549.056 201.252 549.924 200.608 551.226 200.608C552.962 200.608 553.998 201.518 553.998 203.044V207.02H554.824V208ZM550.974 207.216C552.08 207.216 552.878 206.642 552.878 205.9V204.71H551.394C550.12 204.71 549.546 205.102 549.546 205.802V206.096C549.546 206.81 550.106 207.216 550.974 207.216ZM559.27 208.168C557.24 208.168 556.05 206.698 556.05 204.388C556.05 202.078 557.24 200.608 559.27 200.608C560.698 200.608 561.552 201.308 561.972 202.302L561.034 202.778C560.768 202.036 560.152 201.602 559.27 201.602C557.94 201.602 557.254 202.512 557.254 203.772V205.004C557.254 206.264 557.94 207.174 559.27 207.174C560.18 207.174 560.838 206.74 561.23 205.914L562.042 206.46C561.58 207.496 560.642 208.168 559.27 208.168ZM566.779 208H565.379C564.609 208 564.189 207.51 564.189 206.81V201.756H562.999V200.776H563.671C564.147 200.776 564.301 200.608 564.301 200.118V198.774H565.309V200.776H566.891V201.756H565.309V207.02H566.779V208ZM569.411 199.082C568.935 199.082 568.725 198.83 568.725 198.452V198.27C568.725 197.892 568.935 197.64 569.411 197.64C569.887 197.64 570.097 197.892 570.097 198.27V198.452C570.097 198.83 569.887 199.082 569.411 199.082ZM568.851 208V200.776H569.971V208H568.851ZM575.409 208H574.107L571.573 200.776H572.693L573.953 204.36L574.737 206.824H574.807L575.591 204.36L576.879 200.776H577.957L575.409 208ZM585.319 208H584.689C583.863 208 583.527 207.496 583.443 206.824H583.373C583.065 207.706 582.295 208.168 581.287 208.168C579.761 208.168 578.865 207.328 578.865 205.984C578.865 204.626 579.845 203.87 581.945 203.87H583.373V203.156C583.373 202.134 582.813 201.574 581.665 201.574C580.797 201.574 580.223 201.994 579.831 202.652L579.159 202.022C579.551 201.252 580.419 200.608 581.721 200.608C583.457 200.608 584.493 201.518 584.493 203.044V207.02H585.319V208ZM581.469 207.216C582.575 207.216 583.373 206.642 583.373 205.9V204.71H581.889C580.615 204.71 580.041 205.102 580.041 205.802V206.096C580.041 206.81 580.601 207.216 581.469 207.216ZM590.073 208H588.673C587.903 208 587.483 207.51 587.483 206.81V201.756H586.293V200.776H586.965C587.441 200.776 587.595 200.608 587.595 200.118V198.774H588.603V200.776H590.185V201.756H588.603V207.02H590.073V208ZM594.807 208.168C592.847 208.168 591.559 206.684 591.559 204.388C591.559 202.092 592.847 200.608 594.807 200.608C596.739 200.608 597.929 202.092 597.929 204.136V204.668H592.735V205.004C592.735 206.25 593.533 207.188 594.877 207.188C595.787 207.188 596.487 206.74 596.865 205.942L597.663 206.516C597.201 207.496 596.165 208.168 594.807 208.168ZM594.807 201.546C593.589 201.546 592.735 202.47 592.735 203.73V203.828H596.725V203.674C596.725 202.4 595.955 201.546 594.807 201.546Z" fill="black"/>
<path d="M344.652 291H343.42L342.44 288.116H338.492L337.512 291H336.322L339.738 281.228H341.236L344.652 291ZM342.146 287.08L340.494 282.32H340.424L338.772 287.08H342.146ZM349.007 291.168C346.977 291.168 345.787 289.698 345.787 287.388C345.787 285.078 346.977 283.608 349.007 283.608C350.435 283.608 351.289 284.308 351.709 285.302L350.771 285.778C350.505 285.036 349.889 284.602 349.007 284.602C347.677 284.602 346.991 285.512 346.991 286.772V288.004C346.991 289.264 347.677 290.174 349.007 290.174C349.917 290.174 350.575 289.74 350.967 288.914L351.779 289.46C351.317 290.496 350.379 291.168 349.007 291.168ZM356.516 291H355.116C354.346 291 353.926 290.51 353.926 289.81V284.756H352.736V283.776H353.408C353.884 283.776 354.038 283.608 354.038 283.118V281.774H355.046V283.776H356.628V284.756H355.046V290.02H356.516V291ZM359.148 282.082C358.672 282.082 358.462 281.83 358.462 281.452V281.27C358.462 280.892 358.672 280.64 359.148 280.64C359.624 280.64 359.834 280.892 359.834 281.27V281.452C359.834 281.83 359.624 282.082 359.148 282.082ZM358.588 291V283.776H359.708V291H358.588ZM365.146 291H363.844L361.31 283.776H362.43L363.69 287.36L364.474 289.824H364.544L365.328 287.36L366.616 283.776H367.694L365.146 291ZM375.056 291H374.426C373.6 291 373.264 290.496 373.18 289.824H373.11C372.802 290.706 372.032 291.168 371.024 291.168C369.498 291.168 368.602 290.328 368.602 288.984C368.602 287.626 369.582 286.87 371.682 286.87H373.11V286.156C373.11 285.134 372.55 284.574 371.402 284.574C370.534 284.574 369.96 284.994 369.568 285.652L368.896 285.022C369.288 284.252 370.156 283.608 371.458 283.608C373.194 283.608 374.23 284.518 374.23 286.044V290.02H375.056V291ZM371.206 290.216C372.312 290.216 373.11 289.642 373.11 288.9V287.71H371.626C370.352 287.71 369.778 288.102 369.778 288.802V289.096C369.778 289.81 370.338 290.216 371.206 290.216ZM379.81 291H378.41C377.64 291 377.22 290.51 377.22 289.81V284.756H376.03V283.776H376.702C377.178 283.776 377.332 283.608 377.332 283.118V281.774H378.34V283.776H379.922V284.756H378.34V290.02H379.81V291ZM384.544 291.168C382.584 291.168 381.296 289.684 381.296 287.388C381.296 285.092 382.584 283.608 384.544 283.608C386.476 283.608 387.666 285.092 387.666 287.136V287.668H382.472V288.004C382.472 289.25 383.27 290.188 384.614 290.188C385.524 290.188 386.224 289.74 386.602 288.942L387.4 289.516C386.938 290.496 385.902 291.168 384.544 291.168ZM384.544 284.546C383.326 284.546 382.472 285.47 382.472 286.73V286.828H386.462V286.674C386.462 285.4 385.692 284.546 384.544 284.546Z" fill="black"/>
<path d="M923.302 292V282.228H926.578C929.014 282.228 930.582 283.852 930.582 287.114C930.582 290.376 929.014 292 926.578 292H923.302ZM924.478 290.964H926.578C928.188 290.964 929.322 289.844 929.322 287.912V286.316C929.322 284.384 928.188 283.264 926.578 283.264H924.478V290.964ZM935.459 292.168C933.499 292.168 932.211 290.684 932.211 288.388C932.211 286.092 933.499 284.608 935.459 284.608C937.391 284.608 938.581 286.092 938.581 288.136V288.668H933.387V289.004C933.387 290.25 934.185 291.188 935.529 291.188C936.439 291.188 937.139 290.74 937.517 289.942L938.315 290.516C937.853 291.496 936.817 292.168 935.459 292.168ZM935.459 285.546C934.241 285.546 933.387 286.47 933.387 287.73V287.828H937.377V287.674C937.377 286.4 936.607 285.546 935.459 285.546ZM942.756 292.168C941.426 292.168 940.544 291.608 939.9 290.754L940.698 290.11C941.258 290.81 941.93 291.216 942.84 291.216C943.792 291.216 944.352 290.782 944.352 290.04C944.352 289.48 944.044 289.046 943.092 288.906L942.518 288.822C941.188 288.626 940.194 288.08 940.194 286.736C940.194 285.308 941.3 284.608 942.77 284.608C943.932 284.608 944.702 285.042 945.29 285.77L944.548 286.442C944.226 285.994 943.61 285.56 942.686 285.56C941.762 285.56 941.272 285.994 941.272 286.68C941.272 287.38 941.762 287.66 942.658 287.8L943.218 287.884C944.814 288.122 945.43 288.822 945.43 289.914C945.43 291.314 944.408 292.168 942.756 292.168ZM950.469 292H949.069C948.299 292 947.879 291.51 947.879 290.81V285.756H946.689V284.776H947.361C947.837 284.776 947.991 284.608 947.991 284.118V282.774H948.999V284.776H950.581V285.756H948.999V291.02H950.469V292ZM953.661 292H952.541V284.776H953.661V286.106H953.731C953.983 285.42 954.641 284.776 955.817 284.776H956.251V285.896H955.593C954.389 285.896 953.661 286.414 953.661 287.1V292ZM960.503 292.168C958.571 292.168 957.241 290.684 957.241 288.388C957.241 286.092 958.571 284.608 960.503 284.608C962.435 284.608 963.765 286.092 963.765 288.388C963.765 290.684 962.435 292.168 960.503 292.168ZM960.503 291.174C961.707 291.174 962.561 290.432 962.561 288.906V287.87C962.561 286.344 961.707 285.602 960.503 285.602C959.299 285.602 958.445 286.344 958.445 287.87V288.906C958.445 290.432 959.299 291.174 960.503 291.174ZM968.401 289.69L970.151 284.776H971.257L968.023 293.68C967.701 294.548 967.407 294.8 966.343 294.8H965.769V293.82H966.903L967.449 292.28L964.747 284.776H965.867L967.603 289.69L967.939 290.866H968.009L968.401 289.69Z" fill="black"/>
<path d="M726.302 292V282.228H729.578C732.014 282.228 733.582 283.852 733.582 287.114C733.582 290.376 732.014 292 729.578 292H726.302ZM727.478 290.964H729.578C731.188 290.964 732.322 289.844 732.322 287.912V286.316C732.322 284.384 731.188 283.264 729.578 283.264H727.478V290.964ZM738.459 292.168C736.499 292.168 735.211 290.684 735.211 288.388C735.211 286.092 736.499 284.608 738.459 284.608C740.391 284.608 741.581 286.092 741.581 288.136V288.668H736.387V289.004C736.387 290.25 737.185 291.188 738.529 291.188C739.439 291.188 740.139 290.74 740.517 289.942L741.315 290.516C740.853 291.496 739.817 292.168 738.459 292.168ZM738.459 285.546C737.241 285.546 736.387 286.47 736.387 287.73V287.828H740.377V287.674C740.377 286.4 739.607 285.546 738.459 285.546ZM745.756 292.168C744.426 292.168 743.544 291.608 742.9 290.754L743.698 290.11C744.258 290.81 744.93 291.216 745.84 291.216C746.792 291.216 747.352 290.782 747.352 290.04C747.352 289.48 747.044 289.046 746.092 288.906L745.518 288.822C744.188 288.626 743.194 288.08 743.194 286.736C743.194 285.308 744.3 284.608 745.77 284.608C746.932 284.608 747.702 285.042 748.29 285.77L747.548 286.442C747.226 285.994 746.61 285.56 745.686 285.56C744.762 285.56 744.272 285.994 744.272 286.68C744.272 287.38 744.762 287.66 745.658 287.8L746.218 287.884C747.814 288.122 748.43 288.822 748.43 289.914C748.43 291.314 747.408 292.168 745.756 292.168ZM753.469 292H752.069C751.299 292 750.879 291.51 750.879 290.81V285.756H749.689V284.776H750.361C750.837 284.776 750.991 284.608 750.991 284.118V282.774H751.999V284.776H753.581V285.756H751.999V291.02H753.469V292ZM756.661 292H755.541V284.776H756.661V286.106H756.731C756.983 285.42 757.641 284.776 758.817 284.776H759.251V285.896H758.593C757.389 285.896 756.661 286.414 756.661 287.1V292ZM763.503 292.168C761.571 292.168 760.241 290.684 760.241 288.388C760.241 286.092 761.571 284.608 763.503 284.608C765.435 284.608 766.765 286.092 766.765 288.388C766.765 290.684 765.435 292.168 763.503 292.168ZM763.503 291.174C764.707 291.174 765.561 290.432 765.561 288.906V287.87C765.561 286.344 764.707 285.602 763.503 285.602C762.299 285.602 761.445 286.344 761.445 287.87V288.906C761.445 290.432 762.299 291.174 763.503 291.174ZM771.401 289.69L773.151 284.776H774.257L771.023 293.68C770.701 294.548 770.407 294.8 769.343 294.8H768.769V293.82H769.903L770.449 292.28L767.747 284.776H768.867L770.603 289.69L770.939 290.866H771.009L771.401 289.69Z" fill="black"/>
<path d="M522.302 292V282.228H525.578C528.014 282.228 529.582 283.852 529.582 287.114C529.582 290.376 528.014 292 525.578 292H522.302ZM523.478 290.964H525.578C527.188 290.964 528.322 289.844 528.322 287.912V286.316C528.322 284.384 527.188 283.264 525.578 283.264H523.478V290.964ZM534.459 292.168C532.499 292.168 531.211 290.684 531.211 288.388C531.211 286.092 532.499 284.608 534.459 284.608C536.391 284.608 537.581 286.092 537.581 288.136V288.668H532.387V289.004C532.387 290.25 533.185 291.188 534.529 291.188C535.439 291.188 536.139 290.74 536.517 289.942L537.315 290.516C536.853 291.496 535.817 292.168 534.459 292.168ZM534.459 285.546C533.241 285.546 532.387 286.47 532.387 287.73V287.828H536.377V287.674C536.377 286.4 535.607 285.546 534.459 285.546ZM545.466 292H544.836C544.01 292 543.674 291.496 543.59 290.824H543.52C543.212 291.706 542.442 292.168 541.434 292.168C539.908 292.168 539.012 291.328 539.012 289.984C539.012 288.626 539.992 287.87 542.092 287.87H543.52V287.156C543.52 286.134 542.96 285.574 541.812 285.574C540.944 285.574 540.37 285.994 539.978 286.652L539.306 286.022C539.698 285.252 540.566 284.608 541.868 284.608C543.604 284.608 544.64 285.518 544.64 287.044V291.02H545.466V292ZM541.616 291.216C542.722 291.216 543.52 290.642 543.52 289.9V288.71H542.036C540.762 288.71 540.188 289.102 540.188 289.802V290.096C540.188 290.81 540.748 291.216 541.616 291.216ZM549.913 292.168C547.883 292.168 546.693 290.698 546.693 288.388C546.693 286.078 547.883 284.608 549.913 284.608C551.341 284.608 552.195 285.308 552.615 286.302L551.677 286.778C551.411 286.036 550.795 285.602 549.913 285.602C548.583 285.602 547.897 286.512 547.897 287.772V289.004C547.897 290.264 548.583 291.174 549.913 291.174C550.823 291.174 551.481 290.74 551.873 289.914L552.685 290.46C552.223 291.496 551.285 292.168 549.913 292.168ZM557.422 292H556.022C555.252 292 554.832 291.51 554.832 290.81V285.756H553.642V284.776H554.314C554.79 284.776 554.944 284.608 554.944 284.118V282.774H555.952V284.776H557.534V285.756H555.952V291.02H557.422V292ZM560.054 283.082C559.578 283.082 559.368 282.83 559.368 282.452V282.27C559.368 281.892 559.578 281.64 560.054 281.64C560.53 281.64 560.74 281.892 560.74 282.27V282.452C560.74 282.83 560.53 283.082 560.054 283.082ZM559.494 292V284.776H560.614V292H559.494ZM566.052 292H564.75L562.216 284.776H563.336L564.596 288.36L565.38 290.824H565.45L566.234 288.36L567.522 284.776H568.6L566.052 292ZM575.961 292H575.331C574.505 292 574.169 291.496 574.085 290.824H574.015C573.707 291.706 572.937 292.168 571.929 292.168C570.403 292.168 569.507 291.328 569.507 289.984C569.507 288.626 570.487 287.87 572.587 287.87H574.015V287.156C574.015 286.134 573.455 285.574 572.307 285.574C571.439 285.574 570.865 285.994 570.473 286.652L569.801 286.022C570.193 285.252 571.061 284.608 572.363 284.608C574.099 284.608 575.135 285.518 575.135 287.044V291.02H575.961V292ZM572.111 291.216C573.217 291.216 574.015 290.642 574.015 289.9V288.71H572.531C571.257 288.71 570.683 289.102 570.683 289.802V290.096C570.683 290.81 571.243 291.216 572.111 291.216ZM580.716 292H579.316C578.546 292 578.126 291.51 578.126 290.81V285.756H576.936V284.776H577.608C578.084 284.776 578.238 284.608 578.238 284.118V282.774H579.246V284.776H580.828V285.756H579.246V291.02H580.716V292ZM585.45 292.168C583.49 292.168 582.202 290.684 582.202 288.388C582.202 286.092 583.49 284.608 585.45 284.608C587.382 284.608 588.572 286.092 588.572 288.136V288.668H583.378V289.004C583.378 290.25 584.176 291.188 585.52 291.188C586.43 291.188 587.13 290.74 587.508 289.942L588.306 290.516C587.844 291.496 586.808 292.168 585.45 292.168ZM585.45 285.546C584.232 285.546 583.378 286.47 583.378 287.73V287.828H587.368V287.674C587.368 286.4 586.598 285.546 585.45 285.546Z" fill="black"/>
<path d="M329.162 304.632C329.162 301.93 330.268 299.578 331.696 298.36H332.76C331.206 299.76 330.212 302.084 330.212 304.044V305.248C330.212 307.208 331.248 309.574 332.76 310.918H331.696C330.31 309.742 329.162 307.362 329.162 304.632ZM335.159 309H334.039V301.776H335.159V302.952H335.215C335.537 302.21 336.041 301.608 337.161 301.608C338.113 301.608 338.981 302.042 339.373 303.078H339.401C339.667 302.294 340.367 301.608 341.599 301.608C343.069 301.608 343.951 302.616 343.951 304.366V309H342.831V304.562C342.831 303.288 342.341 302.616 341.249 302.616C340.367 302.616 339.555 303.064 339.555 303.988V309H338.435V304.562C338.435 303.274 337.945 302.616 336.881 302.616C335.999 302.616 335.159 303.064 335.159 303.988V309ZM352.302 309H351.672C350.846 309 350.51 308.496 350.426 307.824H350.356C350.048 308.706 349.278 309.168 348.27 309.168C346.744 309.168 345.848 308.328 345.848 306.984C345.848 305.626 346.828 304.87 348.928 304.87H350.356V304.156C350.356 303.134 349.796 302.574 348.648 302.574C347.78 302.574 347.206 302.994 346.814 303.652L346.142 303.022C346.534 302.252 347.402 301.608 348.704 301.608C350.44 301.608 351.476 302.518 351.476 304.044V308.02H352.302V309ZM348.452 308.216C349.558 308.216 350.356 307.642 350.356 306.9V305.71H348.872C347.598 305.71 347.024 306.102 347.024 306.802V307.096C347.024 307.81 347.584 308.216 348.452 308.216ZM355.181 309H354.061V301.776H355.181V302.952H355.237C355.587 302.14 356.203 301.608 357.281 301.608C358.765 301.608 359.703 302.616 359.703 304.366V309H358.583V304.562C358.583 303.274 358.023 302.616 356.945 302.616C356.049 302.616 355.181 303.064 355.181 303.988V309ZM366.63 309V307.824H366.574C366.294 308.51 365.748 309.168 364.544 309.168C363.06 309.168 362.108 308.16 362.108 306.41V301.776H363.228V306.214C363.228 307.502 363.802 308.16 364.88 308.16C365.762 308.16 366.63 307.726 366.63 306.774V301.776H367.75V309H366.63ZM376.175 309H375.545C374.719 309 374.383 308.496 374.299 307.824H374.229C373.921 308.706 373.151 309.168 372.143 309.168C370.617 309.168 369.721 308.328 369.721 306.984C369.721 305.626 370.701 304.87 372.801 304.87H374.229V304.156C374.229 303.134 373.669 302.574 372.521 302.574C371.653 302.574 371.079 302.994 370.687 303.652L370.015 303.022C370.407 302.252 371.275 301.608 372.577 301.608C374.313 301.608 375.349 302.518 375.349 304.044V308.02H376.175V309ZM372.325 308.216C373.431 308.216 374.229 307.642 374.229 306.9V305.71H372.745C371.471 305.71 370.897 306.102 370.897 306.802V307.096C370.897 307.81 371.457 308.216 372.325 308.216ZM380.117 309H379.123C378.353 309 377.933 308.51 377.933 307.838V298.64H379.053V308.02H380.117V309ZM384.023 309H383.029C382.259 309 381.839 308.51 381.839 307.838V298.64H382.959V308.02H384.023V309ZM388.379 306.69L390.129 301.776H391.235L388.001 310.68C387.679 311.548 387.385 311.8 386.321 311.8H385.747V310.82H386.881L387.427 309.28L384.725 301.776H385.845L387.581 306.69L387.917 307.866H387.987L388.379 306.69ZM395.161 304.632C395.161 307.362 394.013 309.742 392.627 310.918H391.563C393.075 309.574 394.111 307.208 394.111 305.248V304.044C394.111 302.084 393.117 299.76 391.563 298.36H392.627C394.055 299.578 395.161 301.93 395.161 304.632Z" fill="black"/>
<path d="M523.162 304.632C523.162 301.93 524.268 299.578 525.696 298.36H526.76C525.206 299.76 524.212 302.084 524.212 304.044V305.248C524.212 307.208 525.248 309.574 526.76 310.918H525.696C524.31 309.742 523.162 307.362 523.162 304.632ZM529.159 309H528.039V301.776H529.159V302.952H529.215C529.537 302.21 530.041 301.608 531.161 301.608C532.113 301.608 532.981 302.042 533.373 303.078H533.401C533.667 302.294 534.367 301.608 535.599 301.608C537.069 301.608 537.951 302.616 537.951 304.366V309H536.831V304.562C536.831 303.288 536.341 302.616 535.249 302.616C534.367 302.616 533.555 303.064 533.555 303.988V309H532.435V304.562C532.435 303.274 531.945 302.616 530.881 302.616C529.999 302.616 529.159 303.064 529.159 303.988V309ZM546.302 309H545.672C544.846 309 544.51 308.496 544.426 307.824H544.356C544.048 308.706 543.278 309.168 542.27 309.168C540.744 309.168 539.848 308.328 539.848 306.984C539.848 305.626 540.828 304.87 542.928 304.87H544.356V304.156C544.356 303.134 543.796 302.574 542.648 302.574C541.78 302.574 541.206 302.994 540.814 303.652L540.142 303.022C540.534 302.252 541.402 301.608 542.704 301.608C544.44 301.608 545.476 302.518 545.476 304.044V308.02H546.302V309ZM542.452 308.216C543.558 308.216 544.356 307.642 544.356 306.9V305.71H542.872C541.598 305.71 541.024 306.102 541.024 306.802V307.096C541.024 307.81 541.584 308.216 542.452 308.216ZM549.181 309H548.061V301.776H549.181V302.952H549.237C549.587 302.14 550.203 301.608 551.281 301.608C552.765 301.608 553.703 302.616 553.703 304.366V309H552.583V304.562C552.583 303.274 552.023 302.616 550.945 302.616C550.049 302.616 549.181 303.064 549.181 303.988V309ZM560.63 309V307.824H560.574C560.294 308.51 559.748 309.168 558.544 309.168C557.06 309.168 556.108 308.16 556.108 306.41V301.776H557.228V306.214C557.228 307.502 557.802 308.16 558.88 308.16C559.762 308.16 560.63 307.726 560.63 306.774V301.776H561.75V309H560.63ZM570.175 309H569.545C568.719 309 568.383 308.496 568.299 307.824H568.229C567.921 308.706 567.151 309.168 566.143 309.168C564.617 309.168 563.721 308.328 563.721 306.984C563.721 305.626 564.701 304.87 566.801 304.87H568.229V304.156C568.229 303.134 567.669 302.574 566.521 302.574C565.653 302.574 565.079 302.994 564.687 303.652L564.015 303.022C564.407 302.252 565.275 301.608 566.577 301.608C568.313 301.608 569.349 302.518 569.349 304.044V308.02H570.175V309ZM566.325 308.216C567.431 308.216 568.229 307.642 568.229 306.9V305.71H566.745C565.471 305.71 564.897 306.102 564.897 306.802V307.096C564.897 307.81 565.457 308.216 566.325 308.216ZM574.117 309H573.123C572.353 309 571.933 308.51 571.933 307.838V298.64H573.053V308.02H574.117V309ZM578.023 309H577.029C576.259 309 575.839 308.51 575.839 307.838V298.64H576.959V308.02H578.023V309ZM582.379 306.69L584.129 301.776H585.235L582.001 310.68C581.679 311.548 581.385 311.8 580.321 311.8H579.747V310.82H580.881L581.427 309.28L578.725 301.776H579.845L581.581 306.69L581.917 307.866H581.987L582.379 306.69ZM589.161 304.632C589.161 307.362 588.013 309.742 586.627 310.918H585.563C587.075 309.574 588.111 307.208 588.111 305.248V304.044C588.111 302.084 587.117 299.76 585.563 298.36H586.627C588.055 299.578 589.161 301.93 589.161 304.632Z" fill="black"/>
<path d="M719.162 304.632C719.162 301.93 720.268 299.578 721.696 298.36H722.76C721.206 299.76 720.212 302.084 720.212 304.044V305.248C720.212 307.208 721.248 309.574 722.76 310.918H721.696C720.31 309.742 719.162 307.362 719.162 304.632ZM725.159 309H724.039V301.776H725.159V302.952H725.215C725.537 302.21 726.041 301.608 727.161 301.608C728.113 301.608 728.981 302.042 729.373 303.078H729.401C729.667 302.294 730.367 301.608 731.599 301.608C733.069 301.608 733.951 302.616 733.951 304.366V309H732.831V304.562C732.831 303.288 732.341 302.616 731.249 302.616C730.367 302.616 729.555 303.064 729.555 303.988V309H728.435V304.562C728.435 303.274 727.945 302.616 726.881 302.616C725.999 302.616 725.159 303.064 725.159 303.988V309ZM742.302 309H741.672C740.846 309 740.51 308.496 740.426 307.824H740.356C740.048 308.706 739.278 309.168 738.27 309.168C736.744 309.168 735.848 308.328 735.848 306.984C735.848 305.626 736.828 304.87 738.928 304.87H740.356V304.156C740.356 303.134 739.796 302.574 738.648 302.574C737.78 302.574 737.206 302.994 736.814 303.652L736.142 303.022C736.534 302.252 737.402 301.608 738.704 301.608C740.44 301.608 741.476 302.518 741.476 304.044V308.02H742.302V309ZM738.452 308.216C739.558 308.216 740.356 307.642 740.356 306.9V305.71H738.872C737.598 305.71 737.024 306.102 737.024 306.802V307.096C737.024 307.81 737.584 308.216 738.452 308.216ZM745.181 309H744.061V301.776H745.181V302.952H745.237C745.587 302.14 746.203 301.608 747.281 301.608C748.765 301.608 749.703 302.616 749.703 304.366V309H748.583V304.562C748.583 303.274 748.023 302.616 746.945 302.616C746.049 302.616 745.181 303.064 745.181 303.988V309ZM756.63 309V307.824H756.574C756.294 308.51 755.748 309.168 754.544 309.168C753.06 309.168 752.108 308.16 752.108 306.41V301.776H753.228V306.214C753.228 307.502 753.802 308.16 754.88 308.16C755.762 308.16 756.63 307.726 756.63 306.774V301.776H757.75V309H756.63ZM766.175 309H765.545C764.719 309 764.383 308.496 764.299 307.824H764.229C763.921 308.706 763.151 309.168 762.143 309.168C760.617 309.168 759.721 308.328 759.721 306.984C759.721 305.626 760.701 304.87 762.801 304.87H764.229V304.156C764.229 303.134 763.669 302.574 762.521 302.574C761.653 302.574 761.079 302.994 760.687 303.652L760.015 303.022C760.407 302.252 761.275 301.608 762.577 301.608C764.313 301.608 765.349 302.518 765.349 304.044V308.02H766.175V309ZM762.325 308.216C763.431 308.216 764.229 307.642 764.229 306.9V305.71H762.745C761.471 305.71 760.897 306.102 760.897 306.802V307.096C760.897 307.81 761.457 308.216 762.325 308.216ZM770.117 309H769.123C768.353 309 767.933 308.51 767.933 307.838V298.64H769.053V308.02H770.117V309ZM774.023 309H773.029C772.259 309 771.839 308.51 771.839 307.838V298.64H772.959V308.02H774.023V309ZM778.379 306.69L780.129 301.776H781.235L778.001 310.68C777.679 311.548 777.385 311.8 776.321 311.8H775.747V310.82H776.881L777.427 309.28L774.725 301.776H775.845L777.581 306.69L777.917 307.866H777.987L778.379 306.69ZM785.161 304.632C785.161 307.362 784.013 309.742 782.627 310.918H781.563C783.075 309.574 784.111 307.208 784.111 305.248V304.044C784.111 302.084 783.117 299.76 781.563 298.36H782.627C784.055 299.578 785.161 301.93 785.161 304.632Z" fill="black"/>
<rect width="130" height="350" transform="matrix(0 -1 1 0 110 438)" fill="white" fill-opacity="0.01" style="mix-blend-mode:multiply"/>
<rect width="130" height="350" transform="matrix(0 -1 1 0 110 438)" fill="white" fill-opacity="0.01" style="mix-blend-mode:multiply"/>
<path d="M110 308L110 438H460" stroke="black"/>
<rect width="113" height="7" transform="matrix(0 -1 1 0 456 438)" fill="white" fill-opacity="0.01" style="mix-blend-mode:multiply"/>
<g clip-path="url(#clip6_1_2)">
<rect width="106" height="0" transform="matrix(0 -1 1 0 459.5 438)" fill="white" fill-opacity="0.01" style="mix-blend-mode:multiply"/>
<path d="M459.5 438V332" stroke="black"/>
</g>
<rect width="8" height="8" transform="matrix(0 -1 1 0 455.5 333)" fill="white" fill-opacity="0.01" style="mix-blend-mode:multiply"/>
<path d="M455.5 333L459.5 325L463.5 333H455.5Z" fill="black"/>
<rect width="780" height="106" transform="translate(265 159)" fill="white" fill-opacity="0.01" style="mix-blend-mode:multiply"/>
<rect width="780" height="106" transform="translate(265 159)" fill="white" fill-opacity="0.01" style="mix-blend-mode:multiply"/>
<path d="M1045 159H265V265" stroke="black"/>
<rect width="196" height="44" transform="translate(459 213)" fill="white" fill-opacity="0.01" style="mix-blend-mode:multiply"/>
<rect width="196" height="44" transform="translate(459 213)" fill="white" fill-opacity="0.01" style="mix-blend-mode:multiply"/>
<path d="M655 213H459V257" stroke="black"/>
<rect width="8" height="8" transform="matrix(0 1 1 0 455 257)" fill="white" fill-opacity="0.01" style="mix-blend-mode:multiply"/>
<path d="M455 257L459 265L463 257H455Z" fill="black"/>
<rect width="107" height="7" transform="matrix(0 -1 1 0 1041 266)" fill="white" fill-opacity="0.01" style="mix-blend-mode:multiply"/>
<g clip-path="url(#clip7_1_2)">
<rect width="100" height="0" transform="matrix(0 -1 1 0 1044.5 259)" fill="white" fill-opacity="0.01" style="mix-blend-mode:multiply"/>
<path d="M1044.5 259V159" stroke="black"/>
</g>
<rect width="8" height="8" transform="matrix(0 1 1 0 1040.5 258)" fill="white" fill-opacity="0.01" style="mix-blend-mode:multiply"/>
<path d="M1040.5 258L1044.5 266L1048.5 258H1040.5Z" fill="black"/>
<rect width="53" height="7" transform="matrix(0 -1 1 0 651 266)" fill="white" fill-opacity="0.01" style="mix-blend-mode:multiply"/>
<g clip-path="url(#clip8_1_2)">
<rect width="53" height="0" transform="matrix(0 -1 1 0 654.5 266)" fill="white" fill-opacity="0.01" style="mix-blend-mode:multiply"/>
<path d="M654.5 266V213" stroke="black"/>
</g>
<g clip-path="url(#clip9_1_2)">
<rect width="13" height="13" transform="translate(126 300)" fill="white" fill-opacity="0.01" style="mix-blend-mode:multiply"/>
<path d="M132.5 301.625C135.181 301.625 137.375 303.819 137.375 306.5C137.375 309.181 135.181 311.375 132.5 311.375C129.819 311.375 127.625 309.181 127.625 306.5C127.625 303.819 129.819 301.625 132.5 301.625ZM132.5 300.812C129.372 300.812 126.812 303.372 126.812 306.5C126.812 309.628 129.372 312.188 132.5 312.188C135.628 312.188 138.188 309.628 138.188 306.5C138.188 303.372 135.628 300.812 132.5 300.812Z" fill="#161616"/>
<path d="M135.75 306.094H132.906V303.25H132.094V306.094H129.25V306.906H132.094V309.75H132.906V306.906H135.75V306.094Z" fill="#161616"/>
</g>
<rect width="68" height="8" transform="translate(938 559)" fill="white" fill-opacity="0.01" style="mix-blend-mode:multiply"/>
<rect width="68" height="8" transform="translate(938 559)" fill="white"/>
<rect width="68" height="0" transform="translate(938 563)" fill="white" fill-opacity="0.01" style="mix-blend-mode:multiply"/>
<path d="M938 563H1006" stroke="#4385E7"/>
<rect width="68" height="8" transform="translate(938 592)" fill="white" fill-opacity="0.01" style="mix-blend-mode:multiply"/>
<rect width="68" height="8" transform="translate(938 592)" fill="white"/>
<rect width="68" height="0" transform="translate(938 596)" fill="white" fill-opacity="0.01" style="mix-blend-mode:multiply"/>
<path d="M938 596H1006" stroke="#4385E7" stroke-dasharray="4 4"/>
<path d="M1024.26 567L1021.47 562.576L1020.17 564.116V567H1018.32V557.228H1020.17V562.044H1020.24L1021.62 560.21L1024.05 557.228H1026.17L1022.77 561.302L1026.45 567H1024.26ZM1030.46 567.168C1028.3 567.168 1027.01 565.67 1027.01 563.332C1027.01 561.022 1028.26 559.524 1030.4 559.524C1032.68 559.524 1033.73 561.204 1033.73 563.206V563.794H1028.87V563.976C1028.87 565.026 1029.48 565.74 1030.65 565.74C1031.53 565.74 1032.07 565.32 1032.51 564.746L1033.48 565.824C1032.88 566.65 1031.81 567.168 1030.46 567.168ZM1030.43 560.868C1029.49 560.868 1028.87 561.568 1028.87 562.576V562.688H1031.87V562.562C1031.87 561.554 1031.35 560.868 1030.43 560.868ZM1038.59 563.556L1039.87 559.692H1041.55L1038.61 568.302C1038.24 569.352 1037.72 569.8 1036.52 569.8H1035.44V568.372H1036.76L1037.09 567.35L1034.48 559.692H1036.25L1037.53 563.556L1038 565.404H1038.09L1038.59 563.556ZM1048.75 567.168C1047.36 567.168 1046.45 566.664 1045.73 565.824L1046.82 564.76C1047.35 565.376 1047.99 565.754 1048.82 565.754C1049.67 565.754 1050.04 565.432 1050.04 564.914C1050.04 564.494 1049.79 564.228 1049.14 564.144L1048.41 564.046C1046.85 563.85 1045.98 563.164 1045.98 561.834C1045.98 560.42 1047.08 559.524 1048.75 559.524C1050.18 559.524 1050.91 559.944 1051.61 560.672L1050.56 561.722C1050.14 561.274 1049.52 560.938 1048.81 560.938C1048.04 560.938 1047.7 561.246 1047.7 561.694C1047.7 562.184 1047.97 562.408 1048.65 562.52L1049.39 562.618C1050.99 562.842 1051.76 563.556 1051.76 564.774C1051.76 566.188 1050.57 567.168 1048.75 567.168ZM1055.68 567C1054.44 567 1053.79 566.328 1053.79 565.138V561.12H1052.71V559.692H1053.27C1053.8 559.692 1053.97 559.44 1053.97 558.936V557.69H1055.58V559.692H1057.08V561.12H1055.58V565.572H1056.96V567H1055.68ZM1060.6 567.168C1059.11 567.168 1058.27 566.314 1058.27 565.012C1058.27 563.514 1059.41 562.772 1061.39 562.772H1062.64V562.24C1062.64 561.428 1062.23 560.952 1061.28 560.952C1060.44 560.952 1059.97 561.372 1059.62 561.876L1058.55 560.924C1059.08 560.084 1059.94 559.524 1061.41 559.524C1063.38 559.524 1064.43 560.462 1064.43 562.128V565.572H1065.16V567H1064.17C1063.4 567 1062.92 566.496 1062.81 565.74H1062.72C1062.49 566.678 1061.69 567.168 1060.6 567.168ZM1061.2 565.866C1062 565.866 1062.64 565.502 1062.64 564.816V563.85H1061.49C1060.55 563.85 1060.09 564.172 1060.09 564.746V564.984C1060.09 565.572 1060.5 565.866 1061.2 565.866ZM1069 567C1067.77 567 1067.11 566.328 1067.11 565.138V561.12H1066.03V559.692H1066.59C1067.12 559.692 1067.29 559.44 1067.29 558.936V557.69H1068.9V559.692H1070.4V561.12H1068.9V565.572H1070.29V567H1069ZM1075.01 567.168C1072.85 567.168 1071.57 565.67 1071.57 563.332C1071.57 561.022 1072.81 559.524 1074.95 559.524C1077.24 559.524 1078.29 561.204 1078.29 563.206V563.794H1073.43V563.976C1073.43 565.026 1074.03 565.74 1075.21 565.74C1076.09 565.74 1076.62 565.32 1077.07 564.746L1078.03 565.824C1077.43 566.65 1076.37 567.168 1075.01 567.168ZM1074.98 560.868C1074.04 560.868 1073.43 561.568 1073.43 562.576V562.688H1076.42V562.562C1076.42 561.554 1075.91 560.868 1074.98 560.868Z" fill="black"/>
<path d="M1025.73 600.168C1024.06 600.168 1022.91 599.51 1022.09 598.544L1023.33 597.34C1024.01 598.124 1024.83 598.544 1025.84 598.544C1026.97 598.544 1027.56 597.998 1027.56 597.172C1027.56 596.514 1027.25 596.108 1026.23 595.926L1025.31 595.786C1023.33 595.478 1022.38 594.54 1022.38 592.944C1022.38 591.194 1023.74 590.06 1025.92 590.06C1027.39 590.06 1028.49 590.564 1029.27 591.502L1028.01 592.692C1027.53 592.09 1026.86 591.684 1025.83 591.684C1024.78 591.684 1024.23 592.104 1024.23 592.832C1024.23 593.574 1024.65 593.882 1025.59 594.05L1026.5 594.218C1028.47 594.568 1029.4 595.45 1029.4 597.06C1029.4 598.908 1028.07 600.168 1025.73 600.168ZM1033.52 600C1032.29 600 1031.63 599.328 1031.63 598.138V594.12H1030.56V592.692H1031.12C1031.65 592.692 1031.82 592.44 1031.82 591.936V590.69H1033.43V592.692H1034.92V594.12H1033.43V598.572H1034.81V600H1033.52ZM1038.44 600.168C1036.96 600.168 1036.12 599.314 1036.12 598.012C1036.12 596.514 1037.25 595.772 1039.24 595.772H1040.49V595.24C1040.49 594.428 1040.08 593.952 1039.13 593.952C1038.29 593.952 1037.81 594.372 1037.46 594.876L1036.4 593.924C1036.93 593.084 1037.79 592.524 1039.26 592.524C1041.23 592.524 1042.28 593.462 1042.28 595.128V598.572H1043.01V600H1042.01C1041.24 600 1040.77 599.496 1040.66 598.74H1040.57C1040.33 599.678 1039.54 600.168 1038.44 600.168ZM1039.05 598.866C1039.84 598.866 1040.49 598.502 1040.49 597.816V596.85H1039.34C1038.4 596.85 1037.94 597.172 1037.94 597.746V597.984C1037.94 598.572 1038.35 598.866 1039.05 598.866ZM1046.85 600C1045.61 600 1044.96 599.328 1044.96 598.138V594.12H1043.88V592.692H1044.44C1044.97 592.692 1045.14 592.44 1045.14 591.936V590.69H1046.75V592.692H1048.25V594.12H1046.75V598.572H1048.13V600H1046.85ZM1052.86 600.168C1050.7 600.168 1049.42 598.67 1049.42 596.332C1049.42 594.022 1050.66 592.524 1052.8 592.524C1055.09 592.524 1056.14 594.204 1056.14 596.206V596.794H1051.28V596.976C1051.28 598.026 1051.88 598.74 1053.06 598.74C1053.94 598.74 1054.47 598.32 1054.92 597.746L1055.88 598.824C1055.28 599.65 1054.22 600.168 1052.86 600.168ZM1052.83 593.868C1051.89 593.868 1051.28 594.568 1051.28 595.576V595.688H1054.27V595.562C1054.27 594.554 1053.76 593.868 1052.83 593.868ZM1063.62 600C1062.39 600 1061.73 599.328 1061.73 598.138V594.12H1060.65V592.692H1061.21C1061.75 592.692 1061.91 592.44 1061.91 591.936V590.69H1063.52V592.692H1065.02V594.12H1063.52V598.572H1064.91V600H1063.62ZM1068.53 600H1066.74V592.692H1068.53V594.204H1068.6C1068.78 593.434 1069.37 592.692 1070.53 592.692H1070.92V594.386H1070.36C1069.16 594.386 1068.53 594.722 1068.53 595.52V600ZM1074.05 600.168C1072.56 600.168 1071.72 599.314 1071.72 598.012C1071.72 596.514 1072.86 595.772 1074.85 595.772H1076.09V595.24C1076.09 594.428 1075.69 593.952 1074.73 593.952C1073.89 593.952 1073.42 594.372 1073.07 594.876L1072 593.924C1072.54 593.084 1073.39 592.524 1074.86 592.524C1076.83 592.524 1077.88 593.462 1077.88 595.128V598.572H1078.61V600H1077.62C1076.85 600 1076.37 599.496 1076.26 598.74H1076.18C1075.94 599.678 1075.14 600.168 1074.05 600.168ZM1074.65 598.866C1075.45 598.866 1076.09 598.502 1076.09 597.816V596.85H1074.94C1074.01 596.85 1073.54 597.172 1073.54 597.746V597.984C1073.54 598.572 1073.95 598.866 1074.65 598.866ZM1082.02 600H1080.22V592.692H1082.02V593.91H1082.09C1082.38 593.126 1083 592.524 1084.13 592.524C1085.63 592.524 1086.47 593.56 1086.47 595.38V600H1084.68V595.562C1084.68 594.526 1084.33 593.994 1083.47 593.994C1082.73 593.994 1082.02 594.386 1082.02 595.17V600ZM1091.01 600.168C1089.62 600.168 1088.71 599.664 1087.98 598.824L1089.08 597.76C1089.61 598.376 1090.25 598.754 1091.08 598.754C1091.93 598.754 1092.3 598.432 1092.3 597.914C1092.3 597.494 1092.04 597.228 1091.4 597.144L1090.67 597.046C1089.1 596.85 1088.24 596.164 1088.24 594.834C1088.24 593.42 1089.34 592.524 1091.01 592.524C1092.44 592.524 1093.16 592.944 1093.86 593.672L1092.81 594.722C1092.39 594.274 1091.78 593.938 1091.06 593.938C1090.29 593.938 1089.96 594.246 1089.96 594.694C1089.96 595.184 1090.22 595.408 1090.91 595.52L1091.65 595.618C1093.25 595.842 1094.02 596.556 1094.02 597.774C1094.02 599.188 1092.83 600.168 1091.01 600.168ZM1096.66 591.628C1095.91 591.628 1095.61 591.25 1095.61 590.732V590.452C1095.61 589.934 1095.91 589.556 1096.66 589.556C1097.38 589.556 1097.71 589.934 1097.71 590.452V590.732C1097.71 591.25 1097.38 591.628 1096.66 591.628ZM1095.76 600V592.692H1097.55V600H1095.76ZM1102.07 600C1100.84 600 1100.18 599.328 1100.18 598.138V594.12H1099.1V592.692H1099.66C1100.2 592.692 1100.36 592.44 1100.36 591.936V590.69H1101.97V592.692H1103.47V594.12H1101.97V598.572H1103.36V600H1102.07ZM1106.08 591.628C1105.34 591.628 1105.03 591.25 1105.03 590.732V590.452C1105.03 589.934 1105.34 589.556 1106.08 589.556C1106.81 589.556 1107.13 589.934 1107.13 590.452V590.732C1107.13 591.25 1106.81 591.628 1106.08 591.628ZM1105.19 600V592.692H1106.98V600H1105.19ZM1112.11 600.168C1110.03 600.168 1108.72 598.684 1108.72 596.332C1108.72 593.994 1110.03 592.524 1112.11 592.524C1114.21 592.524 1115.51 593.994 1115.51 596.332C1115.51 598.684 1114.21 600.168 1112.11 600.168ZM1112.11 598.726C1113.05 598.726 1113.64 598.124 1113.64 597.018V595.66C1113.64 594.568 1113.05 593.966 1112.11 593.966C1111.19 593.966 1110.6 594.568 1110.6 595.66V597.018C1110.6 598.124 1111.19 598.726 1112.11 598.726ZM1119.06 600H1117.26V592.692H1119.06V593.91H1119.13C1119.42 593.126 1120.04 592.524 1121.17 592.524C1122.67 592.524 1123.51 593.56 1123.51 595.38V600H1121.72V595.562C1121.72 594.526 1121.37 593.994 1120.51 593.994C1119.77 593.994 1119.06 594.386 1119.06 595.17V600Z" fill="black"/>
<defs>
<clipPath id="clip0_1_2">
<rect width="44" height="44" fill="white" transform="translate(88 274)"/>
</clipPath>
<clipPath id="clip1_1_2">
<rect width="109" height="66" fill="white" transform="translate(794 266)"/>
</clipPath>
<clipPath id="clip2_1_2">
<rect width="109" height="48" fill="white" transform="translate(209 265)"/>
</clipPath>
<clipPath id="clip3_1_2">
<rect width="109" height="48" fill="white" transform="translate(404 265)"/>
</clipPath>
<clipPath id="clip4_1_2">
<rect width="109" height="48" fill="white" transform="translate(599 265)"/>
</clipPath>
<clipPath id="clip5_1_2">
<rect width="109" height="48" fill="white" transform="translate(990 266)"/>
</clipPath>
<clipPath id="clip6_1_2">
<rect width="106" height="8" fill="white" transform="matrix(0 -1 1 0 455.5 438)"/>
</clipPath>
<clipPath id="clip7_1_2">
<rect width="100" height="8" fill="white" transform="matrix(0 -1 1 0 1040.5 259)"/>
</clipPath>
<clipPath id="clip8_1_2">
<rect width="53" height="8" fill="white" transform="matrix(0 -1 1 0 650.5 266)"/>
</clipPath>
<clipPath id="clip9_1_2">
<rect width="13" height="13" fill="white" transform="translate(126 300)"/>
</clipPath>
</defs>
</svg>
