<svg xmlns="http://www.w3.org/2000/svg" width="1056" height="480" viewBox="0 0 1056 480"><defs><style>.cls-1{fill:#e3f6ff;}.cls-1,.cls-11,.cls-14,.cls-7,.cls-8{stroke:#000;}.cls-1,.cls-12,.cls-14{stroke-miterlimit:10;}.cls-2{fill:#da1e28;}.cls-3{fill:#f1c21b;}.cls-4{fill:#878d96;}.cls-5{fill:#198038;}.cls-6{fill:#f2f4f8;}.cls-7,.cls-8{fill:#9ef0f0;}.cls-11,.cls-15,.cls-7{stroke-linecap:round;}.cls-11,.cls-15,.cls-7,.cls-8{stroke-linejoin:round;}.cls-9{fill:#50565b;}.cls-10{fill:#fff;}.cls-11,.cls-12,.cls-14,.cls-15{fill:none;}.cls-12,.cls-15{stroke:#231815;}.cls-13{fill:#231815;}</style></defs><g id="Figure"><rect class="cls-1" x="644" y="210" width="140" height="100"/><rect class="cls-1" x="871" y="210" width="140" height="100"/><rect class="cls-1" x="417" y="210" width="140" height="100"/><rect class="cls-1" x="190" y="210" width="140" height="100"/><ellipse class="cls-2" cx="890.5116" cy="261.1252" rx="5.5782" ry="5.6295"/><circle class="cls-3" cx="209.5632" cy="261.1765" r="5.5782"/><circle class="cls-4" cx="660.9892" cy="261.1765" r="5.5782"/><circle class="cls-5" cx="436.6776" cy="261.1765" r="5.5782"/><circle class="cls-6" cx="67.0028" cy="260" r="40"/><g id="key"><path class="cls-7" d="M64.8844,264.4653a12.6271,12.6271,0,1,1-.6-8.5787"/><circle cx="48.6482" cy="260.9886" r="2.7027"/><polyline class="cls-8" points="64.285 255.887 89.499 255.887 94.219 260.606 90.151 264.674 74.298 264.674 71.455 261.858 68.848 264.465 64.884 264.465"/></g><circle class="cls-9" cx="97.7595" cy="283.8345" r="9.1892"/><path class="cls-10" d="M97.1841,287.4681V284.305H94.2329v-1.0293h2.9512v-3.1631h1.15v3.1631h2.9511v1.0293H98.3345v3.1631Z"/></g><g id="Line"><polyline class="cls-11" points="714 206 714 146 486 146 486 201.694"/><polygon points="483.008 200.819 486 206 488.992 200.819 483.008 200.819"/><line class="cls-12" x1="336.4207" y1="260" x2="405.2619" y2="260"/><polygon class="cls-13" points="404.387 262.992 409.568 260 404.387 257.008 404.387 262.992"/><line class="cls-12" x1="111.814" y1="260" x2="179.8802" y2="260"/><polygon class="cls-13" points="179.005 262.992 184.186 260 179.005 257.008 179.005 262.992"/><polyline class="cls-14" points="257 206.5 257 101.5 939 101.5 939 202.194"/><polygon points="936.008 201.319 939 206.5 941.992 201.319 936.008 201.319"/><polyline class="cls-11" points="67.5 313.285 67.5 373.285 486 373.285 486 317.59"/><polygon points="488.992 318.466 486 313.285 483.008 318.466 488.992 318.466"/><line class="cls-15" x1="563.4207" y1="260" x2="632.2736" y2="260"/><polygon class="cls-13" points="631.398 262.992 636.579 260 631.398 257.008 631.398 262.992"/><line class="cls-15" x1="791.4207" y1="260" x2="860.2736" y2="260"/><polygon class="cls-13" points="859.398 262.992 864.579 260 859.398 257.008 859.398 262.992"/></g><g id="Text"><path d="M909.6348,255.6034h4.0644a5.3215,5.3215,0,0,1,1.9756.352,4.0343,4.0343,0,0,1,1.52,1.0479,4.77,4.77,0,0,1,.9756,1.7441,8.8079,8.8079,0,0,1,0,4.88,4.77,4.77,0,0,1-.9756,1.7441,4.0286,4.0286,0,0,1-1.52,1.0479,5.3134,5.3134,0,0,1-1.9756.352h-4.0644Zm4.0644,9.2959a2.541,2.541,0,0,0,1.88-.6958,2.91,2.91,0,0,0,.6963-2.1363v-1.76a2.91,2.91,0,0,0-.6963-2.1363,2.541,2.541,0,0,0-1.88-.6958h-1.9521v7.4239Z"/><path d="M923.9072,266.9632a4.1658,4.1658,0,0,1-1.6552-.312,3.4259,3.4259,0,0,1-1.2325-.88,3.9254,3.9254,0,0,1-.7754-1.3759,6.205,6.205,0,0,1-.0087-3.608,3.9271,3.9271,0,0,1,.7607-1.3681,3.3609,3.3609,0,0,1,1.2158-.88,4.0635,4.0635,0,0,1,1.6319-.312,3.9783,3.9783,0,0,1,1.6962.3359,3.27,3.27,0,0,1,1.1836.9121,3.945,3.945,0,0,1,.6963,1.336,5.5462,5.5462,0,0,1,.2315,1.624v.6719H922.1v.2065a2.0449,2.0449,0,0,0,.5117,1.4536,1.9837,1.9837,0,0,0,1.52.5479,2.2622,2.2622,0,0,0,1.2559-.3174,3.5854,3.5854,0,0,0,.8721-.81l1.1035,1.2358a3.4314,3.4314,0,0,1-1.3994,1.1313A4.8709,4.8709,0,0,1,923.9072,266.9632Zm-.0312-7.2a1.6394,1.6394,0,0,0-1.2959.544,2.0483,2.0483,0,0,0-.4805,1.4077v.1279h3.4238V261.7a2.1946,2.1946,0,0,0-.4238-1.4A1.4678,1.4678,0,0,0,923.876,259.7635Z"/><path d="M932.1953,266.9632a4.4793,4.4793,0,0,1-2.0156-.4077,4.6363,4.6363,0,0,1-1.44-1.1284l1.248-1.2158a3.8036,3.8036,0,0,0,1.0156.832,2.5956,2.5956,0,0,0,1.2725.3042,1.7435,1.7435,0,0,0,1.0644-.2563.8452.8452,0,0,0,.3272-.7037.7589.7589,0,0,0-.2315-.5839,1.4772,1.4772,0,0,0-.7919-.2964l-.8321-.1118a3.9565,3.9565,0,0,1-2.0722-.7759,2.1626,2.1626,0,0,1-.712-1.752,2.5989,2.5989,0,0,1,.2237-1.0962,2.331,2.331,0,0,1,.6406-.832,2.9315,2.9315,0,0,1,1-.5278,4.3271,4.3271,0,0,1,1.3037-.1841,5.943,5.943,0,0,1,1.08.0879,3.9556,3.9556,0,0,1,.8564.2558,3.3172,3.3172,0,0,1,.7032.4161,6.53,6.53,0,0,1,.624.5522l-1.1992,1.2a3.1722,3.1722,0,0,0-.8809-.64,2.4664,2.4664,0,0,0-1.1191-.2564,1.5447,1.5447,0,0,0-.9688.24.7666.7666,0,0,0-.2959.6241.7933.7933,0,0,0,.2481.6318,1.714,1.714,0,0,0,.84.312l.8486.1123q2.7042.3838,2.7041,2.4639a2.4875,2.4875,0,0,1-.248,1.1118,2.5436,2.5436,0,0,1-.6963.8643,3.2989,3.2989,0,0,1-1.08.56A4.686,4.686,0,0,1,932.1953,266.9632Z"/><path d="M939.9229,266.7713a2.1841,2.1841,0,0,1-1.6084-.55,2.1284,2.1284,0,0,1-.5518-1.5727v-4.5811h-1.2315v-1.6479h.64a.7636.7636,0,0,0,.6318-.2158,1.0443,1.0443,0,0,0,.168-.648v-1.4243h1.84v2.2881h1.712v1.6479h-1.712v5.0562h1.584v1.6479Z"/><path d="M943.2988,266.7713v-8.352h2.0489v1.728h.0791a2.7051,2.7051,0,0,1,.248-.6479,1.9962,1.9962,0,0,1,.44-.5523,2.12,2.12,0,0,1,.6485-.3838,2.42,2.42,0,0,1,.8711-.144h.4482v1.936h-.64a3.2142,3.2142,0,0,0-1.5684.3042,1.0561,1.0561,0,0,0-.5273.9917v5.12Z"/><path d="M952.8193,266.9632a4.0675,4.0675,0,0,1-1.6084-.3037,3.33,3.33,0,0,1-1.2158-.88,4.01,4.01,0,0,1-.7754-1.3837,5.6652,5.6652,0,0,1-.2724-1.816,5.5947,5.5947,0,0,1,.2724-1.8081,3.9415,3.9415,0,0,1,.7754-1.3681,3.3847,3.3847,0,0,1,1.2158-.8721,4.0692,4.0692,0,0,1,1.6084-.3037,4.1319,4.1319,0,0,1,1.6162.3037,3.372,3.372,0,0,1,1.2237.8721,3.9575,3.9575,0,0,1,.7763,1.3681,5.62,5.62,0,0,1,.2715,1.8081,5.6908,5.6908,0,0,1-.2715,1.816,4.0261,4.0261,0,0,1-.7763,1.3837,3.3183,3.3183,0,0,1-1.2237.88A4.13,4.13,0,0,1,952.8193,266.9632Zm0-1.6479a1.6672,1.6672,0,0,0,1.28-.4961,2.0608,2.0608,0,0,0,.4639-1.4561v-1.5517a2.0358,2.0358,0,0,0-.4639-1.44,1.669,1.669,0,0,0-1.28-.4961,1.6458,1.6458,0,0,0-1.2636.4961,2.0315,2.0315,0,0,0-.4649,1.44v1.5517a2.0564,2.0564,0,0,0,.4649,1.4561A1.6441,1.6441,0,0,0,952.8193,265.3153Z"/><path d="M963.4912,258.4193h1.92l-3.3593,9.84a4.24,4.24,0,0,1-.36.7764,1.947,1.947,0,0,1-.4717.5356,1.7764,1.7764,0,0,1-.6562.3042,3.7174,3.7174,0,0,1-.8955.0962h-1.2325v-1.6484h1.504l.3837-1.1655-2.9921-8.7383h2.0322l1.456,4.4067.544,2.1074h.0967l.5752-2.1074Z"/><path d="M970.0186,266.9632a4.1659,4.1659,0,0,1-1.6553-.312,3.4247,3.4247,0,0,1-1.2324-.88,3.9223,3.9223,0,0,1-.7754-1.3759,6.2039,6.2039,0,0,1-.0088-3.608,3.9287,3.9287,0,0,1,.7607-1.3681,3.3618,3.3618,0,0,1,1.2158-.88,4.0635,4.0635,0,0,1,1.6319-.312,3.9788,3.9788,0,0,1,1.6963.3359,3.2708,3.2708,0,0,1,1.1836.9121,3.9448,3.9448,0,0,1,.6962,1.336,5.5462,5.5462,0,0,1,.2315,1.624v.6719h-5.5518v.2065a2.0446,2.0446,0,0,0,.5118,1.4536,1.9835,1.9835,0,0,0,1.52.5479,2.2621,2.2621,0,0,0,1.2558-.3174,3.5854,3.5854,0,0,0,.8721-.81l1.1035,1.2358a3.4314,3.4314,0,0,1-1.3994,1.1313A4.87,4.87,0,0,1,970.0186,266.9632Zm-.0313-7.2a1.64,1.64,0,0,0-1.2959.544,2.0483,2.0483,0,0,0-.4805,1.4077v.1279h3.4239V261.7a2.1941,2.1941,0,0,0-.4239-1.4A1.4678,1.4678,0,0,0,969.9873,259.7635Z"/><path d="M980.7549,265.3792h-.08a2.1351,2.1351,0,0,1-.8477,1.1519,2.4957,2.4957,0,0,1-1.456.4321,2.8316,2.8316,0,0,1-2.4248-1.1357,5.396,5.396,0,0,1-.84-3.2481,5.327,5.327,0,0,1,.84-3.2241,2.8394,2.8394,0,0,1,2.4248-1.1279,2.5335,2.5335,0,0,1,1.456.4238,2.1,2.1,0,0,1,.8477,1.1441h.08v-4.8638h2.0478v11.84h-2.0478Zm-1.7285-.1118a2.0753,2.0753,0,0,0,1.2324-.352,1.1618,1.1618,0,0,0,.4961-1.0078v-2.6563a1.1587,1.1587,0,0,0-.4961-.9761,2.0127,2.0127,0,0,0-1.2324-.3676,1.6614,1.6614,0,0,0-1.2881.5356,2.0463,2.0463,0,0,0-.4873,1.4321v1.44a2.0143,2.0143,0,0,0,.4873,1.4238A1.6724,1.6724,0,0,0,979.0264,265.2674Z"/><path d="M568.3281,137.912h-1.1758V128.14h3.8926a2.73,2.73,0,0,1,2.0088.7139,2.7707,2.7707,0,0,1,.7207,2.0581,2.967,2.967,0,0,1-.4971,1.771,2.38,2.38,0,0,1-1.4628.9169l2.24,4.3121h-1.33l-2.1142-4.2h-2.2823Zm2.7168-5.208a1.5192,1.5192,0,0,0,1.085-.3638,1.3611,1.3611,0,0,0,.3847-1.0362v-.728a1.36,1.36,0,0,0-.3847-1.0361,1.5192,1.5192,0,0,0-1.085-.3638h-2.7168v3.5279Z"/><path d="M578.5068,138.08a3.24,3.24,0,0,1-1.3369-.2661,2.8825,2.8825,0,0,1-1.0224-.7627,3.5,3.5,0,0,1-.6582-1.19,5.3783,5.3783,0,0,1,0-3.1153,3.4822,3.4822,0,0,1,.6582-1.1967,2.878,2.878,0,0,1,1.0224-.7632,3.24,3.24,0,0,1,1.3369-.2661,3.0693,3.0693,0,0,1,1.3018.2651,2.8947,2.8947,0,0,1,.9805.7329,3.2574,3.2574,0,0,1,.622,1.1089,4.3514,4.3514,0,0,1,.2178,1.4087v.53h-5.1943v.3364a2.4586,2.4586,0,0,0,.1474.8608,2.0253,2.0253,0,0,0,.42.6929,1.9023,1.9023,0,0,0,.6718.4619,2.2979,2.2979,0,0,0,.9024.168,2.195,2.195,0,0,0,1.1972-.3218,2.1108,2.1108,0,0,0,.7911-.9238l.7978.5776a2.7855,2.7855,0,0,1-1.0918,1.2041A3.2943,3.2943,0,0,1,578.5068,138.08Zm0-6.622a2.1356,2.1356,0,0,0-.84.16,1.8861,1.8861,0,0,0-.6514.4522,2.1266,2.1266,0,0,0-.4267.6884,2.3693,2.3693,0,0,0-.1543.87v.0971h3.99v-.1533a2.1945,2.1945,0,0,0-.5254-1.5371A1.79,1.79,0,0,0,578.5068,131.4579Z"/><path d="M588.7266,137.912a1.0981,1.0981,0,0,1-.9034-.336,1.662,1.662,0,0,1-.3427-.84h-.07a1.8718,1.8718,0,0,1-.7842,1.0078,2.4349,2.4349,0,0,1-1.3018.3359,2.533,2.533,0,0,1-1.7851-.5879,2.0657,2.0657,0,0,1-.6368-1.5962,1.82,1.82,0,0,1,.7491-1.5678,3.9808,3.9808,0,0,1,2.331-.5459H587.41v-.7144a1.56,1.56,0,0,0-.42-1.1758,1.7939,1.7939,0,0,0-1.2881-.4057,1.9359,1.9359,0,0,0-1.0986.2939,2.425,2.425,0,0,0-.7353.7837l-.6719-.63a2.5559,2.5559,0,0,1,.9375-1.0009,2.9547,2.9547,0,0,1,1.624-.4131,2.9867,2.9867,0,0,1,2.044.6425,2.2615,2.2615,0,0,1,.7285,1.7881v3.9673h.8261v.9942Zm-3.2207-.7842a2.8468,2.8468,0,0,0,.77-.0977,1.8812,1.8812,0,0,0,.6015-.28,1.3918,1.3918,0,0,0,.3926-.42,1.0076,1.0076,0,0,0,.14-.518v-1.19h-1.4844a2.7026,2.7026,0,0,0-1.4063.28.9039.9039,0,0,0-.4414.8115v.2945a.9781.9781,0,0,0,.3848.8256A1.6767,1.6767,0,0,0,585.5059,137.1278Z"/><path d="M593.6406,138.08a3.33,3.33,0,0,1-1.3584-.2661,2.7723,2.7723,0,0,1-1.0146-.7558,3.3643,3.3643,0,0,1-.63-1.19,5.7794,5.7794,0,0,1,0-3.1362,3.373,3.373,0,0,1,.63-1.19,2.7723,2.7723,0,0,1,1.0146-.7558,3.33,3.33,0,0,1,1.3584-.2661,2.9,2.9,0,0,1,1.73.4692,2.8627,2.8627,0,0,1,.9727,1.2246l-.9385.4761a1.6985,1.6985,0,0,0-.6436-.8677,1.93,1.93,0,0,0-1.12-.3081,2.2347,2.2347,0,0,0-.8818.1611,1.7281,1.7281,0,0,0-.63.4478,1.8848,1.8848,0,0,0-.3779.686,2.8938,2.8938,0,0,0-.126.875v1.232a2.3445,2.3445,0,0,0,.5107,1.561,1.8519,1.8519,0,0,0,1.5049.6089,2.0318,2.0318,0,0,0,1.96-1.26l.8125.5459a2.8693,2.8693,0,0,1-1.043,1.2461A3.0541,3.0541,0,0,1,593.6406,138.08Z"/><path d="M599.5908,137.912a1.1444,1.1444,0,0,1-.8887-.3282,1.22,1.22,0,0,1-.3017-.8593V131.682h-1.1895v-.9942h.6719a.6592.6592,0,0,0,.4971-.1469.7617.7617,0,0,0,.1328-.5108v-1.3442h1.0078v2.0019h1.582v.9942h-1.582v5.2358h1.47v.9942Z"/><path d="M603.4688,128.994a.6847.6847,0,0,1-.5254-.1748.6449.6449,0,0,1-.16-.4551v-.1821a.6449.6449,0,0,1,.16-.4551.8769.8769,0,0,1,1.0507,0,.65.65,0,0,1,.16.4551v.1821a.65.65,0,0,1-.16.4551A.6861.6861,0,0,1,603.4688,128.994Zm-.56,1.6938h1.1191v7.2242h-1.1191Z"/><path d="M608.0049,137.912l-2.5342-7.2242h1.12l1.26,3.584.7842,2.4644h.07l.7832-2.4644,1.2881-3.584h1.0781l-2.5479,7.2242Z"/><path d="M618.4209,137.912a1.0978,1.0978,0,0,1-.9033-.336,1.6613,1.6613,0,0,1-.3428-.84h-.07a1.8713,1.8713,0,0,1-.7842,1.0078,2.4343,2.4343,0,0,1-1.3017.3359,2.5331,2.5331,0,0,1-1.7852-.5879,2.0656,2.0656,0,0,1-.6367-1.5962,1.82,1.82,0,0,1,.749-1.5678,3.9812,3.9812,0,0,1,2.3311-.5459h1.4277v-.7144a1.56,1.56,0,0,0-.42-1.1758,1.7942,1.7942,0,0,0-1.2881-.4057,1.9354,1.9354,0,0,0-1.0986.2939,2.4243,2.4243,0,0,0-.7354.7837l-.6719-.63a2.5559,2.5559,0,0,1,.9375-1.0009,2.9547,2.9547,0,0,1,1.624-.4131,2.9865,2.9865,0,0,1,2.044.6425,2.2615,2.2615,0,0,1,.7285,1.7881v3.9673h.8262v.9942Zm-3.2207-.7842a2.8463,2.8463,0,0,0,.77-.0977,1.8827,1.8827,0,0,0,.6016-.28,1.3926,1.3926,0,0,0,.3925-.42,1.0076,1.0076,0,0,0,.14-.518v-1.19H615.62a2.7022,2.7022,0,0,0-1.4062.28.9037.9037,0,0,0-.4414.8115v.2945a.978.978,0,0,0,.3847.8256A1.6769,1.6769,0,0,0,615.2,137.1278Z"/><path d="M622.2422,137.912a1.1444,1.1444,0,0,1-.8887-.3282,1.2194,1.2194,0,0,1-.3017-.8593V131.682h-1.1895v-.9942h.6719a.6588.6588,0,0,0,.497-.1469.7616.7616,0,0,0,.1329-.5108v-1.3442h1.0078v2.0019h1.582v.9942h-1.582v5.2358h1.47v.9942Z"/><path d="M628.2207,138.08a3.24,3.24,0,0,1-1.3369-.2661,2.8829,2.8829,0,0,1-1.0225-.7627,3.5016,3.5016,0,0,1-.6582-1.19,5.3805,5.3805,0,0,1,0-3.1153,3.4838,3.4838,0,0,1,.6582-1.1967,2.8783,2.8783,0,0,1,1.0225-.7632,3.24,3.24,0,0,1,1.3369-.2661,3.07,3.07,0,0,1,1.3018.2651,2.8943,2.8943,0,0,1,.98.7329,3.2576,3.2576,0,0,1,.6221,1.1089,4.3514,4.3514,0,0,1,.2178,1.4087v.53h-5.1944v.3364a2.4586,2.4586,0,0,0,.1475.8608,2.0267,2.0267,0,0,0,.42.6929,1.9036,1.9036,0,0,0,.6719.4619,2.2974,2.2974,0,0,0,.9023.168,2.1953,2.1953,0,0,0,1.1973-.3218,2.1106,2.1106,0,0,0,.791-.9238l.7979.5776a2.7855,2.7855,0,0,1-1.0918,1.2041A3.2943,3.2943,0,0,1,628.2207,138.08Zm0-6.622a2.1356,2.1356,0,0,0-.84.16,1.8852,1.8852,0,0,0-.6514.4522,2.1286,2.1286,0,0,0-.4268.6884,2.3693,2.3693,0,0,0-.1543.87v.0971h3.99v-.1533a2.1945,2.1945,0,0,0-.5254-1.5371A1.79,1.79,0,0,0,628.2207,131.4579Z"/><path d="M24.9561,30.04l-1.86,2.2v4.12h-2.64V22.4h2.64v6.88h.1l1.98-2.62,3.46-4.26h3.04l-4.86,5.82,5.26,8.14h-3.14Z"/><path d="M37.5762,36.6a5.2134,5.2134,0,0,1-2.07-.39,4.2818,4.2818,0,0,1-1.54-1.1,4.9148,4.9148,0,0,1-.97-1.72,7.7536,7.7536,0,0,1-.01-4.51,4.8986,4.8986,0,0,1,.95-1.71,4.2115,4.2115,0,0,1,1.52-1.1,5.0866,5.0866,0,0,1,2.04-.39,4.9693,4.9693,0,0,1,2.12.42,4.0883,4.0883,0,0,1,1.48,1.14,4.933,4.933,0,0,1,.87,1.67,6.919,6.919,0,0,1,.29,2.03v.84h-6.94v.2583a2.5537,2.5537,0,0,0,.64,1.8169,2.4763,2.4763,0,0,0,1.9.6851,2.8288,2.8288,0,0,0,1.57-.397,4.48,4.48,0,0,0,1.09-1.0127l1.38,1.544a4.2923,4.2923,0,0,1-1.75,1.414A6.0855,6.0855,0,0,1,37.5762,36.6Zm-.04-9a2.0517,2.0517,0,0,0-1.62.68,2.5633,2.5633,0,0,0-.6,1.76v.16h4.28v-.18a2.7392,2.7392,0,0,0-.53-1.75A1.835,1.835,0,0,0,37.5361,27.6Z"/><path d="M50.7959,25.92h2.4l-4.2,12.3a5.2948,5.2948,0,0,1-.45.97,2.4223,2.4223,0,0,1-.59.67,2.2227,2.2227,0,0,1-.82.38,4.6492,4.6492,0,0,1-1.12.12h-1.54V38.3h1.88l.48-1.4575L43.0962,25.92h2.54l1.82,5.5083.68,2.6342h.12l.72-2.6342Z"/><path d="M62.1558,36.36a2.5481,2.5481,0,0,1-1.94-.66,2.6105,2.6105,0,0,1-.62-1.86V21.56h2.56V34.3h1.38v2.06Z"/><path d="M66.7549,24.4a1.555,1.555,0,0,1-1.15-.36,1.2661,1.2661,0,0,1-.35-.92v-.4a1.2658,1.2658,0,0,1,.35-.92,2.0018,2.0018,0,0,1,2.29,0,1.2455,1.2455,0,0,1,.36.92v.4a1.2458,1.2458,0,0,1-.36.92A1.56,1.56,0,0,1,66.7549,24.4Zm-1.28,1.52h2.56V36.36h-2.56Z"/><path d="M71.5151,27.94h-1.54V25.92h1.54v-1.5a2.5748,2.5748,0,0,1,2.88-2.86h1.82v2.06h-2.14v2.3h2.14v2.02h-2.14v8.42h-2.56Z"/><path d="M82.1353,36.6a5.2142,5.2142,0,0,1-2.07-.39,4.2823,4.2823,0,0,1-1.54-1.1,4.9133,4.9133,0,0,1-.97-1.72,7.7513,7.7513,0,0,1-.01-4.51,4.8955,4.8955,0,0,1,.95-1.71,4.2112,4.2112,0,0,1,1.52-1.1,5.0871,5.0871,0,0,1,2.04-.39,4.9693,4.9693,0,0,1,2.12.42,4.0883,4.0883,0,0,1,1.48,1.14,4.9348,4.9348,0,0,1,.87,1.67,6.919,6.919,0,0,1,.29,2.03v.84h-6.94v.2583a2.5541,2.5541,0,0,0,.64,1.8169,2.4766,2.4766,0,0,0,1.9.6851,2.829,2.829,0,0,0,1.57-.397,4.48,4.48,0,0,0,1.09-1.0127l1.38,1.544a4.2923,4.2923,0,0,1-1.75,1.414A6.0859,6.0859,0,0,1,82.1353,36.6Zm-.04-9a2.0516,2.0516,0,0,0-1.62.68,2.5633,2.5633,0,0,0-.6,1.76v.16h4.28v-.18a2.7392,2.7392,0,0,0-.53-1.75A1.835,1.835,0,0,0,82.0952,27.6Z"/><path d="M93.1948,36.6a5.2545,5.2545,0,0,1-2.06-.38,3.9649,3.9649,0,0,1-1.51-1.1,4.9438,4.9438,0,0,1-.93-1.73,7.4937,7.4937,0,0,1-.32-2.27,7.4,7.4,0,0,1,.32-2.26,4.8585,4.8585,0,0,1,.93-1.71,4.0229,4.0229,0,0,1,1.51-1.09,5.2544,5.2544,0,0,1,2.06-.38,4.5444,4.5444,0,0,1,2.61.7,3.9317,3.9317,0,0,1,1.49,1.94l-2.1.94a2.18,2.18,0,0,0-.67-1.09,1.9465,1.9465,0,0,0-1.33-.43,1.914,1.914,0,0,0-1.61.68,2.8126,2.8126,0,0,0-.53,1.78v1.9a2.7675,2.7675,0,0,0,.53,1.77,1.9251,1.9251,0,0,0,1.61.67,1.9951,1.9951,0,0,0,1.42-.47,3.2161,3.2161,0,0,0,.78-1.17l1.96.94a4.0984,4.0984,0,0,1-1.58,2.07A4.63,4.63,0,0,1,93.1948,36.6Z"/><path d="M105.7344,25.92h2.4l-4.2,12.3a5.2948,5.2948,0,0,1-.45.97,2.421,2.421,0,0,1-.59.67,2.2222,2.2222,0,0,1-.82.38,4.6492,4.6492,0,0,1-1.12.12h-1.54V38.3h1.88l.48-1.4575L98.0347,25.92h2.54l1.82,5.5083.68,2.6342h.12l.72-2.6342Z"/><path d="M113.7944,36.6a5.2545,5.2545,0,0,1-2.06-.38,3.9657,3.9657,0,0,1-1.51-1.1,4.9438,4.9438,0,0,1-.93-1.73,7.4968,7.4968,0,0,1-.32-2.27,7.4033,7.4033,0,0,1,.32-2.26,4.8585,4.8585,0,0,1,.93-1.71,4.0237,4.0237,0,0,1,1.51-1.09,5.2544,5.2544,0,0,1,2.06-.38,4.5442,4.5442,0,0,1,2.61.7,3.9317,3.9317,0,0,1,1.49,1.94l-2.1.94a2.18,2.18,0,0,0-.67-1.09,1.9465,1.9465,0,0,0-1.33-.43,1.914,1.914,0,0,0-1.61.68,2.8132,2.8132,0,0,0-.53,1.78v1.9a2.7681,2.7681,0,0,0,.53,1.77,1.9251,1.9251,0,0,0,1.61.67,1.9954,1.9954,0,0,0,1.42-.47,3.2172,3.2172,0,0,0,.78-1.17l1.96.94a4.0979,4.0979,0,0,1-1.58,2.07A4.63,4.63,0,0,1,113.7944,36.6Z"/><path d="M122.4941,36.36a2.548,2.548,0,0,1-1.94-.66,2.6105,2.6105,0,0,1-.62-1.86V21.56h2.56V34.3h1.38v2.06Z"/><path d="M130.0342,36.6a5.2134,5.2134,0,0,1-2.07-.39,4.2827,4.2827,0,0,1-1.54-1.1,4.9148,4.9148,0,0,1-.97-1.72,7.7536,7.7536,0,0,1-.01-4.51,4.8986,4.8986,0,0,1,.95-1.71,4.2115,4.2115,0,0,1,1.52-1.1,5.0866,5.0866,0,0,1,2.04-.39,4.9693,4.9693,0,0,1,2.12.42,4.0883,4.0883,0,0,1,1.48,1.14,4.933,4.933,0,0,1,.87,1.67,6.919,6.919,0,0,1,.29,2.03v.84h-6.94v.2583a2.5537,2.5537,0,0,0,.64,1.8169,2.4763,2.4763,0,0,0,1.9.6851,2.8286,2.8286,0,0,0,1.57-.397,4.48,4.48,0,0,0,1.09-1.0127l1.38,1.544a4.2916,4.2916,0,0,1-1.75,1.414A6.0855,6.0855,0,0,1,130.0342,36.6Zm-.04-9a2.0517,2.0517,0,0,0-1.62.68,2.5633,2.5633,0,0,0-.6,1.76v.16h4.28v-.18a2.7386,2.7386,0,0,0-.53-1.75A1.835,1.835,0,0,0,129.9941,27.6Z"/><path d="M142.9736,24.4a1.555,1.555,0,0,1-1.15-.36,1.2661,1.2661,0,0,1-.35-.92v-.4a1.2658,1.2658,0,0,1,.35-.92,2.0019,2.0019,0,0,1,2.29,0,1.2458,1.2458,0,0,1,.36.92v.4a1.2461,1.2461,0,0,1-.36.92A1.56,1.56,0,0,1,142.9736,24.4Zm-1.28,1.52h2.56V36.36h-2.56Z"/><path d="M147.2134,36.36V25.92h2.56v1.74h.1a3.3379,3.3379,0,0,1,1.01-1.41,2.9128,2.9128,0,0,1,1.91-.57,3.0082,3.0082,0,0,1,2.48,1.06,4.6836,4.6836,0,0,1,.86,3.02v6.6h-2.56V30.02a2.8937,2.8937,0,0,0-.4-1.68,1.5108,1.5108,0,0,0-1.32-.56,2.7038,2.7038,0,0,0-.77.11,2.1726,2.1726,0,0,0-.66.32,1.6685,1.6685,0,0,0-.47.52,1.4264,1.4264,0,0,0-.18.73v6.9Z"/><path d="M166.3535,22.4v8.58a4.0059,4.0059,0,0,0,.63,2.46,3.1767,3.1767,0,0,0,4.26,0,4.0024,4.0024,0,0,0,.63-2.46V22.4h2.6v8.24a10.7321,10.7321,0,0,1-.2895,2.66,4.53,4.53,0,0,1-.93,1.86,3.7475,3.7475,0,0,1-1.67,1.09,7.8013,7.8013,0,0,1-2.49.35,7.68,7.68,0,0,1-2.49-.35,3.7537,3.7537,0,0,1-1.65-1.09,4.4253,4.4253,0,0,1-.92-1.86,11.0846,11.0846,0,0,1-.28-2.66V22.4Z"/><path d="M177.4932,36.36V25.92h2.56v1.74h.1a3.3379,3.3379,0,0,1,1.01-1.41,2.9125,2.9125,0,0,1,1.91-.57,3.0083,3.0083,0,0,1,2.48,1.06,4.6836,4.6836,0,0,1,.86,3.02v6.6h-2.56V30.02a2.8937,2.8937,0,0,0-.4-1.68,1.5108,1.5108,0,0,0-1.32-.56,2.7038,2.7038,0,0,0-.77.11,2.1726,2.1726,0,0,0-.66.32,1.6685,1.6685,0,0,0-.47.52,1.4264,1.4264,0,0,0-.18.73v6.9Z"/><path d="M190.5327,24.4a1.555,1.555,0,0,1-1.15-.36,1.2661,1.2661,0,0,1-.35-.92v-.4a1.2658,1.2658,0,0,1,.35-.92,2.0019,2.0019,0,0,1,2.29,0,1.2458,1.2458,0,0,1,.36.92v.4a1.2461,1.2461,0,0,1-.36.92A1.56,1.56,0,0,1,190.5327,24.4Zm-1.28,1.52h2.56V36.36h-2.56Z"/><path d="M195.293,27.94h-1.54V25.92h1.54v-1.5a2.5746,2.5746,0,0,1,2.88-2.86h1.82v2.06h-2.14v2.3h6.44V36.36h-2.56V27.94h-3.88v8.42h-2.56Zm7.72-3.54a1.5555,1.5555,0,0,1-1.15-.36,1.2657,1.2657,0,0,1-.35-.92v-.4a1.2654,1.2654,0,0,1,.35-.92,2.0017,2.0017,0,0,1,2.29,0,1.2458,1.2458,0,0,1,.36.92v.4a1.2461,1.2461,0,0,1-.36.92A1.5587,1.5587,0,0,1,203.0132,24.4Z"/><path d="M211.4727,36.6a5.2142,5.2142,0,0,1-2.07-.39,4.2823,4.2823,0,0,1-1.54-1.1,4.9133,4.9133,0,0,1-.97-1.72,7.7513,7.7513,0,0,1-.01-4.51,4.8955,4.8955,0,0,1,.95-1.71,4.2112,4.2112,0,0,1,1.52-1.1,5.0871,5.0871,0,0,1,2.04-.39,4.9693,4.9693,0,0,1,2.12.42,4.0883,4.0883,0,0,1,1.48,1.14,4.9348,4.9348,0,0,1,.87,1.67,6.919,6.919,0,0,1,.29,2.03v.84h-6.94v.2583a2.5541,2.5541,0,0,0,.64,1.8169,2.4766,2.4766,0,0,0,1.9.6851,2.829,2.829,0,0,0,1.57-.397,4.48,4.48,0,0,0,1.09-1.0127l1.38,1.544a4.2923,4.2923,0,0,1-1.75,1.414A6.0859,6.0859,0,0,1,211.4727,36.6Zm-.04-9a2.0516,2.0516,0,0,0-1.62.68,2.5633,2.5633,0,0,0-.6,1.76v.16h4.28v-.18a2.7392,2.7392,0,0,0-.53-1.75A1.835,1.835,0,0,0,211.4326,27.6Z"/><path d="M224.8926,34.62h-.1a2.6732,2.6732,0,0,1-1.06,1.44,3.1178,3.1178,0,0,1-1.82.54,3.5361,3.5361,0,0,1-3.03-1.42,6.738,6.738,0,0,1-1.05-4.06,6.6539,6.6539,0,0,1,1.05-4.03,3.547,3.547,0,0,1,3.03-1.41,3.1619,3.1619,0,0,1,1.82.53,2.6254,2.6254,0,0,1,1.06,1.43h.1V21.56h2.56v14.8h-2.56Zm-2.16-.14a2.5933,2.5933,0,0,0,1.54-.44,1.4529,1.4529,0,0,0,.62-1.26V29.46a1.4475,1.4475,0,0,0-.62-1.22,2.5127,2.5127,0,0,0-1.54-.46,2.0746,2.0746,0,0,0-1.61.67,2.5574,2.5574,0,0,0-.61,1.79v1.8a2.5185,2.5185,0,0,0,.61,1.78A2.0888,2.0888,0,0,0,222.7324,34.48Z"/><path d="M239.7925,30.04l-1.86,2.2v4.12h-2.64V22.4h2.64v6.88h.1l1.98-2.62,3.46-4.26h3.04l-4.86,5.82,5.26,8.14h-3.14Z"/><path d="M252.4126,36.6a5.2137,5.2137,0,0,1-2.07-.39,4.2835,4.2835,0,0,1-1.54-1.1,4.9148,4.9148,0,0,1-.97-1.72,7.7524,7.7524,0,0,1-.01-4.51,4.8955,4.8955,0,0,1,.95-1.71,4.21,4.21,0,0,1,1.52-1.1,5.0869,5.0869,0,0,1,2.04-.39,4.9693,4.9693,0,0,1,2.12.42,4.0883,4.0883,0,0,1,1.48,1.14,4.933,4.933,0,0,1,.87,1.67,6.919,6.919,0,0,1,.29,2.03v.84h-6.94v.2583a2.5537,2.5537,0,0,0,.64,1.8169,2.4764,2.4764,0,0,0,1.9.6851,2.8286,2.8286,0,0,0,1.57-.397,4.48,4.48,0,0,0,1.09-1.0127l1.38,1.544a4.291,4.291,0,0,1-1.75,1.414A6.0855,6.0855,0,0,1,252.4126,36.6Zm-.04-9a2.0518,2.0518,0,0,0-1.62.68,2.5633,2.5633,0,0,0-.6,1.76v.16h4.28v-.18a2.7386,2.7386,0,0,0-.53-1.75A1.8348,1.8348,0,0,0,252.3726,27.6Z"/><path d="M265.6323,25.92h2.4l-4.2,12.3a5.2948,5.2948,0,0,1-.45.97,2.4223,2.4223,0,0,1-.59.67,2.223,2.223,0,0,1-.82.38,4.6507,4.6507,0,0,1-1.12.12h-1.54V38.3h1.88l.48-1.4575-3.74-10.9223h2.54l1.82,5.5083.68,2.6342h.12l.72-2.6342Z"/><path d="M280.0723,36.6a6.5245,6.5245,0,0,1-2.5-.46,4.96,4.96,0,0,1-1.91-1.38,6.556,6.556,0,0,1-1.23-2.26,10.0085,10.0085,0,0,1-.44-3.12,10.0323,10.0323,0,0,1,.44-3.11,6.5444,6.5444,0,0,1,1.23-2.27,4.9768,4.9768,0,0,1,1.91-1.38,7.0235,7.0235,0,0,1,5,0,5.07,5.07,0,0,1,1.92,1.38,6.3489,6.3489,0,0,1,1.23,2.27,10.2526,10.2526,0,0,1,.43,3.11,10.2282,10.2282,0,0,1-.43,3.12,6.3585,6.3585,0,0,1-1.23,2.26,5.0527,5.0527,0,0,1-1.92,1.38A6.527,6.527,0,0,1,280.0723,36.6Zm0-2.34a3.0378,3.0378,0,0,0,2.39-1,4.068,4.068,0,0,0,.89-2.8V28.3a4.068,4.068,0,0,0-.89-2.8,3.3558,3.3558,0,0,0-4.78,0,4.0685,4.0685,0,0,0-.89,2.8v2.16a4.0685,4.0685,0,0,0,.89,2.8A3.0392,3.0392,0,0,0,280.0723,34.26Z"/><path d="M288.6719,36.36V25.92h2.56v2.16h.1a3.3052,3.3052,0,0,1,.31-.81,2.463,2.463,0,0,1,.55-.69,2.6222,2.6222,0,0,1,.81-.48,3.0312,3.0312,0,0,1,1.09-.18h.56v2.42h-.8a4.0158,4.0158,0,0,0-1.96.38,1.32,1.32,0,0,0-.66,1.24v6.4Z"/><path d="M300.5518,36.6a5.2546,5.2546,0,0,1-2.06-.38,3.9657,3.9657,0,0,1-1.51-1.1,4.9421,4.9421,0,0,1-.93-1.73,7.4936,7.4936,0,0,1-.32-2.27,7.4,7.4,0,0,1,.32-2.26,4.8567,4.8567,0,0,1,.93-1.71,4.0237,4.0237,0,0,1,1.51-1.09,5.2546,5.2546,0,0,1,2.06-.38,4.5441,4.5441,0,0,1,2.61.7,3.9325,3.9325,0,0,1,1.49,1.94l-2.1.94a2.18,2.18,0,0,0-.67-1.09,1.9464,1.9464,0,0,0-1.33-.43,1.914,1.914,0,0,0-1.61.68,2.8132,2.8132,0,0,0-.53,1.78v1.9a2.7681,2.7681,0,0,0,.53,1.77,1.9252,1.9252,0,0,0,1.61.67,1.9951,1.9951,0,0,0,1.42-.47,3.2186,3.2186,0,0,0,.78-1.17l1.96.94a4.0979,4.0979,0,0,1-1.58,2.07A4.6294,4.6294,0,0,1,300.5518,36.6Z"/><path d="M306.6914,21.56h2.56v6.1h.1a3.3386,3.3386,0,0,1,1.01-1.41,2.9128,2.9128,0,0,1,1.91-.57,3.0084,3.0084,0,0,1,2.48,1.06,4.6841,4.6841,0,0,1,.86,3.02v6.6h-2.56V30.02a2.8937,2.8937,0,0,0-.4-1.68,1.511,1.511,0,0,0-1.32-.56,2.7043,2.7043,0,0,0-.77.11,2.172,2.172,0,0,0-.66.32,1.6688,1.6688,0,0,0-.47.52,1.4263,1.4263,0,0,0-.18.73v6.9h-2.56Z"/><path d="M322.6719,36.6a5.2134,5.2134,0,0,1-2.07-.39,4.2818,4.2818,0,0,1-1.54-1.1,4.9148,4.9148,0,0,1-.97-1.72,7.7536,7.7536,0,0,1-.01-4.51,4.8986,4.8986,0,0,1,.95-1.71,4.2115,4.2115,0,0,1,1.52-1.1,5.0866,5.0866,0,0,1,2.04-.39,4.9693,4.9693,0,0,1,2.12.42,4.0883,4.0883,0,0,1,1.48,1.14,4.933,4.933,0,0,1,.87,1.67,6.919,6.919,0,0,1,.29,2.03v.84h-6.94v.2583a2.5537,2.5537,0,0,0,.64,1.8169,2.4763,2.4763,0,0,0,1.9.6851,2.8288,2.8288,0,0,0,1.57-.397,4.48,4.48,0,0,0,1.09-1.0127l1.38,1.544a4.2923,4.2923,0,0,1-1.75,1.414A6.0855,6.0855,0,0,1,322.6719,36.6Zm-.04-9a2.0517,2.0517,0,0,0-1.62.68,2.5633,2.5633,0,0,0-.6,1.76v.16h4.28v-.18a2.7392,2.7392,0,0,0-.53-1.75A1.835,1.835,0,0,0,322.6318,27.6Z"/><path d="M333.0312,36.6a5.604,5.604,0,0,1-2.52-.51,5.8015,5.8015,0,0,1-1.8-1.41l1.56-1.52a4.7146,4.7146,0,0,0,1.27,1.04,3.2394,3.2394,0,0,0,1.59.38,2.1786,2.1786,0,0,0,1.33-.32,1.0549,1.0549,0,0,0,.41-.88.9511.9511,0,0,0-.29-.73,1.8437,1.8437,0,0,0-.99-.37l-1.04-.14a4.9458,4.9458,0,0,1-2.59-.97,2.7018,2.7018,0,0,1-.89-2.19,3.242,3.242,0,0,1,.28-1.37,2.9077,2.9077,0,0,1,.8-1.04,3.6706,3.6706,0,0,1,1.25-.66,5.4235,5.4235,0,0,1,1.63-.23,7.4216,7.4216,0,0,1,1.35.11,4.8968,4.8968,0,0,1,1.07.32,4.15,4.15,0,0,1,.88.52,8.387,8.387,0,0,1,.78.69l-1.5,1.5a3.958,3.958,0,0,0-1.1-.8,3.0861,3.0861,0,0,0-1.4-.32,1.9272,1.9272,0,0,0-1.21.3.9556.9556,0,0,0-.37.78.99.99,0,0,0,.31.79,2.145,2.145,0,0,0,1.05.39l1.06.14q3.38.48,3.38,3.08a3.1074,3.1074,0,0,1-.31,1.39,3.1718,3.1718,0,0,1-.87,1.08,4.1218,4.1218,0,0,1-1.35.7A5.8589,5.8589,0,0,1,333.0312,36.6Z"/><path d="M342.6914,36.36a2.7281,2.7281,0,0,1-2.01-.688,2.6562,2.6562,0,0,1-.69-1.9658V27.98h-1.54V25.92h.8a.9539.9539,0,0,0,.79-.27,1.3058,1.3058,0,0,0,.21-.81V23.06h2.3v2.86h2.14v2.06h-2.14V34.3h1.98v2.06Z"/><path d="M346.9111,36.36V25.92h2.56v2.16h.1a3.3049,3.3049,0,0,1,.31-.81,2.4652,2.4652,0,0,1,.55-.69,2.6205,2.6205,0,0,1,.81-.48,3.0321,3.0321,0,0,1,1.09-.18h.56v2.42h-.8a4.0161,4.0161,0,0,0-1.96.38,1.32,1.32,0,0,0-.66,1.24v6.4Z"/><path d="M362.2314,36.36a1.7954,1.7954,0,0,1-1.33-.49,2.2447,2.2447,0,0,1-.61-1.31h-.12a2.45,2.45,0,0,1-1.06,1.53,3.6151,3.6151,0,0,1-1.98.51,3.3824,3.3824,0,0,1-2.46-.8374,2.9726,2.9726,0,0,1-.86-2.2329,2.7043,2.7043,0,0,1,1.16-2.4023,5.8462,5.8462,0,0,1,3.3-.7876h1.78v-.76a1.8883,1.8883,0,0,0-.46-1.36,1.9756,1.9756,0,0,0-1.48-.48,2.4545,2.4545,0,0,0-1.45.39,3.833,3.833,0,0,0-.93.93l-1.52-1.3682a4.4106,4.4106,0,0,1,1.54-1.4585,5.0657,5.0657,0,0,1,2.54-.5537,4.77,4.77,0,0,1,3.22.958,3.4548,3.4548,0,0,1,1.1,2.7535V34.3h1.04v2.06Zm-4.24-1.62a2.6889,2.6889,0,0,0,1.46-.377,1.232,1.232,0,0,0,.6-1.1128V31.88h-1.64q-2,0-2,1.271v.3379a1.1031,1.1031,0,0,0,.41.9434A1.92,1.92,0,0,0,357.9912,34.74Z"/><path d="M368.9111,36.36a2.7283,2.7283,0,0,1-2.01-.688,2.6562,2.6562,0,0,1-.69-1.9658V27.98h-1.54V25.92h.8a.9539.9539,0,0,0,.79-.27,1.3058,1.3058,0,0,0,.21-.81V23.06h2.3v2.86h2.14v2.06h-2.14V34.3h1.98v2.06Z"/><path d="M377.1914,36.6a5.0709,5.0709,0,0,1-2.01-.38,4.16,4.16,0,0,1-1.52-1.1,5.0235,5.0235,0,0,1-.97-1.73,7.0782,7.0782,0,0,1-.34-2.27,6.99,6.99,0,0,1,.34-2.26,4.9389,4.9389,0,0,1,.97-1.71,4.2241,4.2241,0,0,1,1.52-1.09,5.0709,5.0709,0,0,1,2.01-.38,5.1458,5.1458,0,0,1,2.02.38,4.2011,4.2011,0,0,1,1.53,1.09,4.9462,4.9462,0,0,1,.97,1.71,7.0015,7.0015,0,0,1,.34,2.26,7.09,7.09,0,0,1-.34,2.27,5.0309,5.0309,0,0,1-.97,1.73,4.1377,4.1377,0,0,1-1.53,1.1A5.1458,5.1458,0,0,1,377.1914,36.6Zm0-2.06a2.085,2.085,0,0,0,1.6-.62,2.5738,2.5738,0,0,0,.58-1.82V30.16a2.5437,2.5437,0,0,0-.58-1.8,2.0864,2.0864,0,0,0-1.6-.62,2.0594,2.0594,0,0,0-1.58.62,2.5416,2.5416,0,0,0-.58,1.8V32.1a2.5716,2.5716,0,0,0,.58,1.82A2.058,2.058,0,0,0,377.1914,34.54Z"/><path d="M384.311,36.36V25.92h2.56v2.16h.1a3.3049,3.3049,0,0,1,.31-.81,2.4652,2.4652,0,0,1,.55-.69,2.6205,2.6205,0,0,1,.81-.48,3.0321,3.0321,0,0,1,1.09-.18h.56v2.42h-.8a4.0161,4.0161,0,0,0-1.96.38,1.32,1.32,0,0,0-.66,1.24v6.4Z"/><path d="M677.1982,255.6034h4.0645a5.3215,5.3215,0,0,1,1.9756.352,4.0343,4.0343,0,0,1,1.52,1.0479,4.77,4.77,0,0,1,.9756,1.7441,8.8079,8.8079,0,0,1,0,4.88,4.77,4.77,0,0,1-.9756,1.7441,4.0286,4.0286,0,0,1-1.52,1.0479,5.3134,5.3134,0,0,1-1.9756.352h-4.0645Zm4.0645,9.2959a2.541,2.541,0,0,0,1.88-.6958,2.9107,2.9107,0,0,0,.6963-2.1363v-1.76a2.91,2.91,0,0,0-.6963-2.1363,2.541,2.541,0,0,0-1.88-.6958h-1.9522v7.4239Z"/><path d="M691.47,266.9632a4.1658,4.1658,0,0,1-1.6552-.312,3.4259,3.4259,0,0,1-1.2325-.88,3.9254,3.9254,0,0,1-.7754-1.3759,6.205,6.205,0,0,1-.0087-3.608,3.9271,3.9271,0,0,1,.7607-1.3681,3.3609,3.3609,0,0,1,1.2158-.88,4.0633,4.0633,0,0,1,1.6318-.312,3.9784,3.9784,0,0,1,1.6963.3359,3.27,3.27,0,0,1,1.1836.9121,3.945,3.945,0,0,1,.6963,1.336,5.5462,5.5462,0,0,1,.2315,1.624v.6719h-5.5518v.2065a2.0449,2.0449,0,0,0,.5117,1.4536,1.9837,1.9837,0,0,0,1.52.5479,2.2622,2.2622,0,0,0,1.2559-.3174,3.5854,3.5854,0,0,0,.8721-.81l1.1035,1.2358a3.4314,3.4314,0,0,1-1.3994,1.1313A4.8709,4.8709,0,0,1,691.47,266.9632Zm-.0312-7.2a1.6394,1.6394,0,0,0-1.2959.544,2.0483,2.0483,0,0,0-.4805,1.4077v.1279h3.4238V261.7a2.1946,2.1946,0,0,0-.4238-1.4A1.4678,1.4678,0,0,0,691.4385,259.7635Z"/><path d="M703.167,266.7713a1.4375,1.4375,0,0,1-1.0645-.3921,1.8016,1.8016,0,0,1-.4873-1.0478h-.0966a1.9588,1.9588,0,0,1-.8477,1.2241,2.8913,2.8913,0,0,1-1.584.4077,2.7052,2.7052,0,0,1-1.9678-.6694,2.3791,2.3791,0,0,1-.6884-1.7866,2.1645,2.1645,0,0,1,.9277-1.9219,4.68,4.68,0,0,1,2.6406-.63h1.4239v-.6079a1.5127,1.5127,0,0,0-.3682-1.0884,1.58,1.58,0,0,0-1.1836-.3838,1.9625,1.9625,0,0,0-1.16.3121,3.0594,3.0594,0,0,0-.7441.7441l-1.2158-1.0947a3.532,3.532,0,0,1,1.2314-1.1665,4.0511,4.0511,0,0,1,2.0322-.4429,3.818,3.818,0,0,1,2.5762.7661,2.763,2.763,0,0,1,.88,2.2026v3.9273h.832v1.6479Zm-3.3926-1.2959a2.1491,2.1491,0,0,0,1.168-.3017.9854.9854,0,0,0,.4805-.89v-1.0961h-1.3116q-1.6011,0-1.6006,1.017v.27a.8814.8814,0,0,0,.3282.7544A1.5321,1.5321,0,0,0,699.7744,265.4754Z"/><path d="M709.2627,266.9632a4.2117,4.2117,0,0,1-1.6484-.3037,3.17,3.17,0,0,1-1.2081-.88,3.97,3.97,0,0,1-.7441-1.3837,5.9925,5.9925,0,0,1-.2559-1.816,5.9177,5.9177,0,0,1,.2559-1.8081,3.9007,3.9007,0,0,1,.7441-1.3681,3.2189,3.2189,0,0,1,1.2081-.8721,4.2135,4.2135,0,0,1,1.6484-.3037,3.6371,3.6371,0,0,1,2.0879.56,3.1443,3.1443,0,0,1,1.1914,1.5518l-1.68.752a1.7357,1.7357,0,0,0-.5361-.8716,1.5564,1.5564,0,0,0-1.0635-.3443,1.532,1.532,0,0,0-1.2881.544,2.2482,2.2482,0,0,0-.4248,1.4238v1.52a2.2127,2.2127,0,0,0,.4248,1.416,1.54,1.54,0,0,0,1.2881.5362,1.5939,1.5939,0,0,0,1.1357-.376,2.576,2.576,0,0,0,.6241-.936l1.5673.7519a3.2777,3.2777,0,0,1-1.2636,1.6563A3.7066,3.7066,0,0,1,709.2627,266.9632Z"/><path d="M716.7822,266.7713a2.1843,2.1843,0,0,1-1.6084-.55,2.1283,2.1283,0,0,1-.5517-1.5727v-4.5811h-1.2315v-1.6479h.64a.7638.7638,0,0,0,.6318-.2158,1.0443,1.0443,0,0,0,.168-.648v-1.4243h1.84v2.2881h1.7119v1.6479H716.67v5.0562h1.584v1.6479Z"/><path d="M721.1826,257.2035a1.2428,1.2428,0,0,1-.92-.2881,1.013,1.013,0,0,1-.28-.7359v-.32a1.013,1.013,0,0,1,.28-.7358,1.6,1.6,0,0,1,1.832,0,.9991.9991,0,0,1,.2881.7358v.32a.9991.9991,0,0,1-.2881.7359A1.2485,1.2485,0,0,1,721.1826,257.2035Zm-1.0244,1.2158h2.0488v8.352h-2.0488Z"/><path d="M726.3652,266.7713l-2.7832-8.352h2.0157l1.1679,3.6.8164,2.9761h.1114l.8164-2.9761,1.1357-3.6h1.9522l-2.8,8.352Z"/><path d="M738.958,266.7713a1.4371,1.4371,0,0,1-1.0644-.3921,1.8011,1.8011,0,0,1-.4874-1.0478H737.31a1.9588,1.9588,0,0,1-.8477,1.2241,2.8911,2.8911,0,0,1-1.584.4077,2.705,2.705,0,0,1-1.9677-.6694,2.3788,2.3788,0,0,1-.6885-1.7866,2.1645,2.1645,0,0,1,.9277-1.9219,4.68,4.68,0,0,1,2.6406-.63h1.4239v-.6079a1.5127,1.5127,0,0,0-.3682-1.0884,1.5793,1.5793,0,0,0-1.1836-.3838,1.962,1.962,0,0,0-1.16.3121,3.06,3.06,0,0,0-.7442.7441l-1.2158-1.0947a3.5328,3.5328,0,0,1,1.2314-1.1665,4.0513,4.0513,0,0,1,2.0323-.4429,3.8179,3.8179,0,0,1,2.5761.7661,2.7627,2.7627,0,0,1,.88,2.2026v3.9273h.8321v1.6479Zm-3.3926-1.2959a2.1488,2.1488,0,0,0,1.168-.3017.9854.9854,0,0,0,.4805-.89v-1.0961h-1.3116q-1.6009,0-1.6005,1.017v.27a.8813.8813,0,0,0,.3281.7544A1.5323,1.5323,0,0,0,735.5654,265.4754Z"/><path d="M744.3018,266.7713a2.1841,2.1841,0,0,1-1.6084-.55,2.1284,2.1284,0,0,1-.5518-1.5727v-4.5811H740.91v-1.6479h.64a.7636.7636,0,0,0,.6318-.2158,1.0443,1.0443,0,0,0,.168-.648v-1.4243h1.84v2.2881h1.7119v1.6479H744.19v5.0562h1.5839v1.6479Z"/><path d="M750.9893,266.9632a4.1659,4.1659,0,0,1-1.6553-.312,3.4247,3.4247,0,0,1-1.2324-.88,3.9223,3.9223,0,0,1-.7754-1.3759,6.2039,6.2039,0,0,1-.0088-3.608,3.9287,3.9287,0,0,1,.7607-1.3681,3.3618,3.3618,0,0,1,1.2158-.88,4.0635,4.0635,0,0,1,1.6319-.312,3.9788,3.9788,0,0,1,1.6963.3359,3.2708,3.2708,0,0,1,1.1836.9121,3.9468,3.9468,0,0,1,.6963,1.336,5.55,5.55,0,0,1,.2314,1.624v.6719h-5.5518v.2065a2.0446,2.0446,0,0,0,.5118,1.4536,1.9835,1.9835,0,0,0,1.52.5479,2.2621,2.2621,0,0,0,1.2558-.3174,3.5854,3.5854,0,0,0,.8721-.81l1.1035,1.2358a3.4314,3.4314,0,0,1-1.3994,1.1313A4.87,4.87,0,0,1,750.9893,266.9632Zm-.0313-7.2a1.64,1.64,0,0,0-1.2959.544,2.0483,2.0483,0,0,0-.4805,1.4077v.1279h3.4239V261.7a2.1941,2.1941,0,0,0-.4239-1.4A1.4678,1.4678,0,0,0,750.958,259.7635Z"/><path d="M761.7256,265.3792h-.08a2.1354,2.1354,0,0,1-.8476,1.1519,2.4963,2.4963,0,0,1-1.4561.4321,2.8316,2.8316,0,0,1-2.4248-1.1357,5.396,5.396,0,0,1-.84-3.2481,5.327,5.327,0,0,1,.84-3.2241,2.8394,2.8394,0,0,1,2.4248-1.1279,2.534,2.534,0,0,1,1.4561.4238,2.1,2.1,0,0,1,.8476,1.1441h.08v-4.8638h2.0478v11.84h-2.0478Zm-1.7285-.1118a2.0753,2.0753,0,0,0,1.2324-.352,1.1618,1.1618,0,0,0,.4961-1.0078v-2.6563a1.1587,1.1587,0,0,0-.4961-.9761,2.0127,2.0127,0,0,0-1.2324-.3676,1.6614,1.6614,0,0,0-1.2881.5356,2.0463,2.0463,0,0,0-.4873,1.4321v1.44a2.0143,2.0143,0,0,0,.4873,1.4238A1.6724,1.6724,0,0,0,759.9971,265.2674Z"/><path d="M471.0879,266.7713l-.896-2.8481h-3.9683l-.88,2.8481H463.2l3.7441-11.1679h2.6241l3.7119,11.1679Zm-2.8482-9.248h-.08l-1.4239,4.5923H469.68Z"/><path d="M478.0957,266.9632a4.2123,4.2123,0,0,1-1.6479-.3037,3.1739,3.1739,0,0,1-1.2081-.88,3.9538,3.9538,0,0,1-.7441-1.3837,6.0081,6.0081,0,0,1-.2559-1.816,5.9331,5.9331,0,0,1,.2559-1.8081,3.8848,3.8848,0,0,1,.7441-1.3681,3.2228,3.2228,0,0,1,1.2081-.8721,4.2141,4.2141,0,0,1,1.6479-.3037,3.6349,3.6349,0,0,1,2.0879.56,3.1424,3.1424,0,0,1,1.1919,1.5518l-1.68.752a1.7426,1.7426,0,0,0-.5361-.8716,1.5555,1.5555,0,0,0-1.064-.3443,1.5326,1.5326,0,0,0-1.2881.544,2.2508,2.2508,0,0,0-.4238,1.4238v1.52a2.2153,2.2153,0,0,0,.4238,1.416,1.54,1.54,0,0,0,1.2881.5362,1.5952,1.5952,0,0,0,1.1362-.376,2.5874,2.5874,0,0,0,.6241-.936l1.5678.7519a3.2812,3.2812,0,0,1-1.2641,1.6563A3.7063,3.7063,0,0,1,478.0957,266.9632Z"/><path d="M485.6152,266.7713a2.1822,2.1822,0,0,1-1.6079-.55,2.1249,2.1249,0,0,1-.5522-1.5727v-4.5811h-1.232v-1.6479h.64a.7636.7636,0,0,0,.6318-.2158,1.0443,1.0443,0,0,0,.168-.648v-1.4243h1.84v2.2881h1.7119v1.6479h-1.7119v5.0562h1.584v1.6479Z"/><path d="M490.0156,257.2035a1.2428,1.2428,0,0,1-.92-.2881,1.011,1.011,0,0,1-.28-.7359v-.32a1.0109,1.0109,0,0,1,.28-.7358,1.6,1.6,0,0,1,1.832,0,.9971.9971,0,0,1,.2881.7358v.32a.9972.9972,0,0,1-.2881.7359A1.2477,1.2477,0,0,1,490.0156,257.2035Zm-1.0239,1.2158H491.04v8.352h-2.0479Z"/><path d="M495.1992,266.7713l-2.7842-8.352h2.0162l1.1679,3.6.8159,2.9761h.1123l.816-2.9761,1.1357-3.6h1.9522l-2.8,8.352Z"/><path d="M505.0391,266.9632a4.1709,4.1709,0,0,1-1.6563-.312,3.4333,3.4333,0,0,1-1.2324-.88,3.94,3.94,0,0,1-.7754-1.3759,6.2038,6.2038,0,0,1-.0078-3.608,3.9191,3.9191,0,0,1,.76-1.3681,3.3638,3.3638,0,0,1,1.2168-.88,4.0581,4.0581,0,0,1,1.6308-.312,3.9834,3.9834,0,0,1,1.6973.3359,3.2879,3.2879,0,0,1,1.1836.9121,3.9431,3.9431,0,0,1,.6953,1.336,5.5462,5.5462,0,0,1,.2324,1.624v.6719h-5.5527v.2065a2.0489,2.0489,0,0,0,.5117,1.4536,1.9859,1.9859,0,0,0,1.5215.5479,2.2641,2.2641,0,0,0,1.2558-.3174,3.596,3.596,0,0,0,.8711-.81l1.1035,1.2358a3.4217,3.4217,0,0,1-1.3984,1.1313A4.87,4.87,0,0,1,505.0391,266.9632Zm-.0313-7.2a1.6416,1.6416,0,0,0-1.2969.544,2.0482,2.0482,0,0,0-.48,1.4077v.1279h3.4238V261.7a2.1888,2.1888,0,0,0-.4238-1.4A1.4648,1.4648,0,0,0,505.0078,259.7635Z"/><path d="M227.0547,266.7713V255.6034h5.0239a3.6765,3.6765,0,0,1,1.3843.248,2.933,2.933,0,0,1,1.0478.7041,3.02,3.02,0,0,1,.6558,1.0957,4.561,4.561,0,0,1,0,2.8242,3.0327,3.0327,0,0,1-.6558,1.0879,2.933,2.933,0,0,1-1.0478.7041,3.6746,3.6746,0,0,1-1.3843.2481h-2.9121v4.2558Zm2.1118-6.08h2.72a1.3525,1.3525,0,0,0,.96-.3282,1.2161,1.2161,0,0,0,.352-.936v-.7358a1.1911,1.1911,0,0,0-.352-.9278,1.3738,1.3738,0,0,0-.96-.32h-2.72Z"/><path d="M237.0229,266.7713v-8.352h2.0479v1.728h.08a2.6636,2.6636,0,0,1,.248-.6479,1.9838,1.9838,0,0,1,.44-.5523,2.1155,2.1155,0,0,1,.6479-.3838,2.4256,2.4256,0,0,1,.8721-.144h.4477v1.936h-.64a3.2118,3.2118,0,0,0-1.5684.3042,1.0566,1.0566,0,0,0-.5278.9917v5.12Z"/><path d="M246.6069,266.9632a4.169,4.169,0,0,1-1.6562-.312,3.4228,3.4228,0,0,1-1.2319-.88,3.931,3.931,0,0,1-.7759-1.3759,6.2038,6.2038,0,0,1-.0078-3.608,3.9189,3.9189,0,0,1,.76-1.3681,3.37,3.37,0,0,1,1.2158-.88,4.0711,4.0711,0,0,1,1.6324-.312,3.9748,3.9748,0,0,1,1.6958.3359,3.2684,3.2684,0,0,1,1.1841.9121,3.937,3.937,0,0,1,.6958,1.336,5.5329,5.5329,0,0,1,.2324,1.624v.6719h-5.5523v.2065a2.0408,2.0408,0,0,0,.5122,1.4536,1.9811,1.9811,0,0,0,1.52.5479,2.2632,2.2632,0,0,0,1.2558-.3174,3.5944,3.5944,0,0,0,.8721-.81l1.104,1.2358a3.44,3.44,0,0,1-1.4,1.1313A4.873,4.873,0,0,1,246.6069,266.9632Zm-.0322-7.2a1.64,1.64,0,0,0-1.2959.544,2.05,2.05,0,0,0-.48,1.4077v.1279h3.4239V261.7a2.1917,2.1917,0,0,0-.4239-1.4A1.4694,1.4694,0,0,0,246.5747,259.7635Z"/><path d="M252.063,262.9154v-2.0322h4.5757v2.0322Z"/><path d="M264.8945,266.7713a1.4352,1.4352,0,0,1-1.0639-.3921,1.7983,1.7983,0,0,1-.4883-1.0478h-.0957a1.9632,1.9632,0,0,1-.8482,1.2241,2.89,2.89,0,0,1-1.5839.4077,2.7071,2.7071,0,0,1-1.9683-.6694,2.38,2.38,0,0,1-.688-1.7866,2.164,2.164,0,0,1,.9282-1.9219,4.6775,4.6775,0,0,1,2.64-.63H263.15v-.6079a1.51,1.51,0,0,0-.3682-1.0884,1.5793,1.5793,0,0,0-1.1836-.3838,1.9622,1.9622,0,0,0-1.16.3121,3.0775,3.0775,0,0,0-.7442.7441l-1.2158-1.0947A3.5258,3.5258,0,0,1,259.71,258.67a4.047,4.047,0,0,1,2.0318-.4429,3.8184,3.8184,0,0,1,2.5762.7661,2.7645,2.7645,0,0,1,.88,2.2026v3.9273h.8321v1.6479Zm-3.3921-1.2959a2.1512,2.1512,0,0,0,1.168-.3017.986.986,0,0,0,.48-.89v-1.0961h-1.312q-1.6,0-1.6,1.017v.27a.8816.8816,0,0,0,.3281.7544A1.5321,1.5321,0,0,0,261.5024,265.4754Z"/><path d="M270.99,266.9632a4.2127,4.2127,0,0,1-1.6479-.3037,3.1736,3.1736,0,0,1-1.208-.88,3.9523,3.9523,0,0,1-.7442-1.3837,6.0082,6.0082,0,0,1-.2558-1.816,5.9332,5.9332,0,0,1,.2558-1.8081,3.8833,3.8833,0,0,1,.7442-1.3681,3.2225,3.2225,0,0,1,1.208-.8721,4.2145,4.2145,0,0,1,1.6479-.3037,3.6349,3.6349,0,0,1,2.0879.56,3.1424,3.1424,0,0,1,1.1919,1.5518l-1.68.752a1.7426,1.7426,0,0,0-.5361-.8716,1.5551,1.5551,0,0,0-1.064-.3443,1.5329,1.5329,0,0,0-1.2881.544,2.2508,2.2508,0,0,0-.4238,1.4238v1.52a2.2153,2.2153,0,0,0,.4238,1.416,1.54,1.54,0,0,0,1.2881.5362,1.5953,1.5953,0,0,0,1.1363-.376,2.5872,2.5872,0,0,0,.624-.936l1.5679.7519a3.2818,3.2818,0,0,1-1.2642,1.6563A3.7058,3.7058,0,0,1,270.99,266.9632Z"/><path d="M278.51,266.7713a2.1821,2.1821,0,0,1-1.6079-.55,2.1246,2.1246,0,0,1-.5523-1.5727v-4.5811h-1.2319v-1.6479h.64a.7636.7636,0,0,0,.6318-.2158,1.0436,1.0436,0,0,0,.168-.648v-1.4243h1.84v2.2881h1.712v1.6479h-1.712v5.0562h1.584v1.6479Z"/><path d="M282.91,257.2035a1.2431,1.2431,0,0,1-.92-.2881,1.0109,1.0109,0,0,1-.28-.7359v-.32a1.0108,1.0108,0,0,1,.28-.7358,1.6,1.6,0,0,1,1.8321,0,.9971.9971,0,0,1,.2881.7358v.32a.9972.9972,0,0,1-.2881.7359A1.2477,1.2477,0,0,1,282.91,257.2035Zm-1.024,1.2158h2.0479v8.352h-2.0479Z"/><path d="M288.0938,266.7713l-2.7842-8.352h2.0161l1.168,3.6.8159,2.9761h.1123l.8159-2.9761,1.1357-3.6h1.9522l-2.8,8.352Z"/><path d="M297.9336,266.9632a4.17,4.17,0,0,1-1.6563-.312,3.4236,3.4236,0,0,1-1.2319-.88,3.9341,3.9341,0,0,1-.7759-1.3759,6.206,6.206,0,0,1-.0078-3.608,3.9191,3.9191,0,0,1,.76-1.3681,3.37,3.37,0,0,1,1.2158-.88,4.0706,4.0706,0,0,1,1.6323-.312,3.9748,3.9748,0,0,1,1.6958.3359,3.2684,3.2684,0,0,1,1.1841.9121,3.9352,3.9352,0,0,1,.6958,1.336,5.53,5.53,0,0,1,.2324,1.624v.6719h-5.5522v.2065a2.0408,2.0408,0,0,0,.5122,1.4536,1.981,1.981,0,0,0,1.52.5479,2.2636,2.2636,0,0,0,1.2559-.3174,3.5922,3.5922,0,0,0,.872-.81l1.104,1.2358a3.4389,3.4389,0,0,1-1.4,1.1313A4.8725,4.8725,0,0,1,297.9336,266.9632Zm-.0322-7.2a1.64,1.64,0,0,0-1.2959.544,2.05,2.05,0,0,0-.48,1.4077v.1279h3.4238V261.7a2.1917,2.1917,0,0,0-.4238-1.4A1.4694,1.4694,0,0,0,297.9014,259.7635Z"/><path d="M802.0322,242.4559h3.2764a4.2786,4.2786,0,0,1,1.6523.3081,3.3371,3.3371,0,0,1,1.2666.917,4.1675,4.1675,0,0,1,.8047,1.5259,8.2711,8.2711,0,0,1,0,4.27,4.1675,4.1675,0,0,1-.8047,1.5259,3.3371,3.3371,0,0,1-1.2666.917,4.2712,4.2712,0,0,1-1.6523.3081h-3.2764Zm3.2764,8.7358a2.9315,2.9315,0,0,0,1.1055-.2026,2.3829,2.3829,0,0,0,.8681-.5952,2.75,2.75,0,0,0,.5674-.959,3.8417,3.8417,0,0,0,.2031-1.2949v-1.5962a3.8433,3.8433,0,0,0-.2031-1.2949,2.7489,2.7489,0,0,0-.5674-.959,2.3891,2.3891,0,0,0-.8681-.5952,2.9414,2.9414,0,0,0-1.1055-.2027H803.208v7.7Z"/><path d="M814.03,252.3958a3.2391,3.2391,0,0,1-1.3369-.2661,2.8829,2.8829,0,0,1-1.0225-.7627,3.5,3.5,0,0,1-.6582-1.19,5.378,5.378,0,0,1,0-3.1152,3.4826,3.4826,0,0,1,.6582-1.1968,2.8783,2.8783,0,0,1,1.0225-.7632,3.2407,3.2407,0,0,1,1.3369-.2661,3.0707,3.0707,0,0,1,1.3017.2651,2.8947,2.8947,0,0,1,.9805.7329,3.2593,3.2593,0,0,1,.6221,1.1089,4.3519,4.3519,0,0,1,.2177,1.4087v.53H811.958v.3364a2.4573,2.4573,0,0,0,.1475.8609,2.0247,2.0247,0,0,0,.42.6928,1.9027,1.9027,0,0,0,.6719.4619,2.2974,2.2974,0,0,0,.9023.168,2.1953,2.1953,0,0,0,1.1973-.3218,2.11,2.11,0,0,0,.791-.9238l.7978.5776a2.7843,2.7843,0,0,1-1.0918,1.2041A3.2942,3.2942,0,0,1,814.03,252.3958Zm0-6.622a2.1364,2.1364,0,0,0-.84.16,1.8884,1.8884,0,0,0-.6513.4522,2.1245,2.1245,0,0,0-.4268.6885,2.3683,2.3683,0,0,0-.1543.87v.0971h3.99v-.1533a2.1949,2.1949,0,0,0-.5253-1.5371A1.7906,1.7906,0,0,0,814.03,245.7738Z"/><path d="M821.1709,252.3958a3.3861,3.3861,0,0,1-1.6875-.3847,3.8366,3.8366,0,0,1-1.1689-1.0293l.7978-.6441a3.14,3.14,0,0,0,.9385.8194,2.44,2.44,0,0,0,1.2041.2866,1.7825,1.7825,0,0,0,1.1123-.3076,1.1184,1.1184,0,0,0,.126-1.5894,1.6671,1.6671,0,0,0-.9864-.4131l-.5742-.0839a4.7505,4.7505,0,0,1-.9238-.2168,2.5677,2.5677,0,0,1-.7354-.3921,1.6907,1.6907,0,0,1-.49-.6089,1.994,1.994,0,0,1-.1748-.8682,2.0821,2.0821,0,0,1,.1963-.9306,1.8667,1.8667,0,0,1,.5391-.6651,2.3454,2.3454,0,0,1,.8183-.3989,3.777,3.777,0,0,1,1.0225-.1333,3.19,3.19,0,0,1,1.4765.3081,3.3027,3.3027,0,0,1,1.043.854l-.7412.6719a2.21,2.21,0,0,0-1.8623-.8819,1.6044,1.6044,0,0,0-1.0567.3008,1.0163,1.0163,0,0,0-.3574.8194.8576.8576,0,0,0,.3574.77,2.6556,2.6556,0,0,0,1.0284.35l.56.084a3.0036,3.0036,0,0,1,1.708.6933,1.8218,1.8218,0,0,1,.5039,1.3369,2.0467,2.0467,0,0,1-.7138,1.6519A2.9485,2.9485,0,0,1,821.1709,252.3958Z"/><path d="M827.3164,252.2279a1.1447,1.1447,0,0,1-.8887-.3281,1.22,1.22,0,0,1-.3017-.8594v-5.0425h-1.1895v-.9941h.6719a.6592.6592,0,0,0,.4971-.147.7622.7622,0,0,0,.1328-.5108v-1.3442h1.0078v2.002h1.582v.9941h-1.582v5.2358h1.47v.9942Z"/><path d="M830.6348,252.2279v-7.2241h1.1191v1.33h.07a2.1837,2.1837,0,0,1,.7-.9238,2.151,2.151,0,0,1,1.3858-.4062h.4345v1.12h-.6582a2.5266,2.5266,0,0,0-1.4209.3427,1.0133,1.0133,0,0,0-.5117.8614v4.9Z"/><path d="M838.4326,252.3958a3.2562,3.2562,0,0,1-1.33-.2661,2.874,2.874,0,0,1-1.0293-.7627,3.5972,3.5972,0,0,1-.664-1.19,5.21,5.21,0,0,1,0-3.1152,3.5778,3.5778,0,0,1,.664-1.1968,2.8694,2.8694,0,0,1,1.0293-.7632,3.2579,3.2579,0,0,1,1.33-.2661,3.2121,3.2121,0,0,1,1.3233.2661,2.9566,2.9566,0,0,1,1.0293.7632,3.5238,3.5238,0,0,1,.6718,1.1968,5.2305,5.2305,0,0,1,0,3.1152,3.5425,3.5425,0,0,1-.6718,1.19,2.9614,2.9614,0,0,1-1.0293.7627A3.21,3.21,0,0,1,838.4326,252.3958Zm0-.9941a2.036,2.036,0,0,0,1.4844-.56,2.2911,2.2911,0,0,0,.5732-1.708V248.098a2.2928,2.2928,0,0,0-.5732-1.708,2.2471,2.2471,0,0,0-2.9688,0,2.2888,2.2888,0,0,0-.5732,1.708v1.0356a2.2871,2.2871,0,0,0,.5732,1.708A2.0363,2.0363,0,0,0,838.4326,251.4017Z"/><path d="M847.9238,245.0038H849.03l-3.2344,8.9043a4.001,4.001,0,0,1-.252.539,1.05,1.05,0,0,1-.3076.3428,1.2291,1.2291,0,0,1-.4551.1821,3.39,3.39,0,0,1-.665.0557h-.5742v-.9937h1.1338l.5469-1.5376-2.7022-7.4926h1.12l1.7354,4.9047.3359,1.1739h.07l.3916-1.1739Z"/><path d="M345.4565,235.4276l-.98-2.8838h-3.9478l-.98,2.8838h-1.19l3.416-9.772h1.4981l3.416,9.772Zm-2.9257-8.68h-.07l-1.6518,4.76h3.374Z"/><path d="M350.8887,235.5956a3.3267,3.3267,0,0,1-1.3579-.2662,2.7736,2.7736,0,0,1-1.0152-.7558,3.3659,3.3659,0,0,1-.63-1.19,5.7794,5.7794,0,0,1,0-3.1362,3.3732,3.3732,0,0,1,.63-1.19,2.7738,2.7738,0,0,1,1.0152-.7559,3.3284,3.3284,0,0,1,1.3579-.2661,2.8973,2.8973,0,0,1,1.729.4692,2.8591,2.8591,0,0,1,.9731,1.2246l-.938.4761a1.7023,1.7023,0,0,0-.644-.8677,1.9306,1.9306,0,0,0-1.12-.3081,2.2334,2.2334,0,0,0-.8819.1612,1.7263,1.7263,0,0,0-.63.4477,1.8855,1.8855,0,0,0-.3785.6861,2.897,2.897,0,0,0-.1259.875v1.2319a2.3444,2.3444,0,0,0,.5112,1.561,1.8518,1.8518,0,0,0,1.5049.6089,2.0317,2.0317,0,0,0,1.96-1.26l.812.5459a2.8691,2.8691,0,0,1-1.0429,1.2461A3.05,3.05,0,0,1,350.8887,235.5956Z"/><path d="M356.8384,235.4276a1.1473,1.1473,0,0,1-.8892-.3281,1.2216,1.2216,0,0,1-.3008-.8594v-5.0425h-1.19v-.9941h.6724a.6581.6581,0,0,0,.497-.147.7644.7644,0,0,0,.1329-.5108v-1.3442h1.0078v2.002h1.582v.9941h-1.582v5.2358h1.47v.9942Z"/><path d="M360.7163,226.51a.6835.6835,0,0,1-.5249-.1748.6458.6458,0,0,1-.1611-.4551v-.1821a.6459.6459,0,0,1,.1611-.4551.8755.8755,0,0,1,1.05,0,.6459.6459,0,0,1,.1611.4551v.1821a.6458.6458,0,0,1-.1611.4551A.6842.6842,0,0,1,360.7163,226.51Zm-.56,1.6939h1.12v7.2241h-1.12Z"/><path d="M365.2524,235.4276l-2.5341-7.2241h1.12l1.26,3.5839.7842,2.4644h.07l.7842-2.4644,1.2881-3.5839h1.0781l-2.5483,7.2241Z"/><path d="M375.6685,235.4276a1.0986,1.0986,0,0,1-.9029-.336,1.666,1.666,0,0,1-.3432-.84h-.07a1.869,1.869,0,0,1-.7841,1.0078,2.4337,2.4337,0,0,1-1.3018.336,2.5333,2.5333,0,0,1-1.7852-.5879,2.0658,2.0658,0,0,1-.6367-1.5962,1.8216,1.8216,0,0,1,.7491-1.5679,3.9791,3.9791,0,0,1,2.3305-.5459h1.4282v-.7144a1.5619,1.5619,0,0,0-.42-1.1757,1.7934,1.7934,0,0,0-1.2881-.4058,1.9372,1.9372,0,0,0-1.0991.2939,2.4186,2.4186,0,0,0-.7349.7837l-.6718-.63a2.5473,2.5473,0,0,1,.938-1.001,2.9523,2.9523,0,0,1,1.624-.4131,2.988,2.988,0,0,1,2.0439.6426,2.2623,2.2623,0,0,1,.7281,1.7881v3.9672h.8256v.9942Zm-3.22-.7842a2.8459,2.8459,0,0,0,.77-.0977,1.8851,1.8851,0,0,0,.6015-.28,1.3857,1.3857,0,0,0,.3921-.42,1.0035,1.0035,0,0,0,.14-.5181v-1.19h-1.4838a2.7055,2.7055,0,0,0-1.4073.28.9036.9036,0,0,0-.4409.8115v.2945a.9792.9792,0,0,0,.3848.8257A1.6778,1.6778,0,0,0,372.4487,234.6434Z"/><path d="M379.49,235.4276a1.1471,1.1471,0,0,1-.8891-.3281,1.2216,1.2216,0,0,1-.3008-.8594v-5.0425h-1.19v-.9941h.6723a.6584.6584,0,0,0,.4971-.147.7645.7645,0,0,0,.1328-.5108v-1.3442H379.42v2.002h1.5821v.9941H379.42v5.2358h1.47v.9942Z"/><path d="M385.4683,235.5956a3.2429,3.2429,0,0,1-1.337-.2662,2.8852,2.8852,0,0,1-1.0219-.7627,3.499,3.499,0,0,1-.6577-1.19,5.3668,5.3668,0,0,1,0-3.1152,3.4818,3.4818,0,0,1,.6577-1.1968,2.8818,2.8818,0,0,1,1.0219-.7632,3.2445,3.2445,0,0,1,1.337-.2661,3.073,3.073,0,0,1,1.3022.2651,2.888,2.888,0,0,1,.98.7329,3.2677,3.2677,0,0,1,.623,1.1089,4.3766,4.3766,0,0,1,.2168,1.4087v.53h-5.1938v.3364a2.4686,2.4686,0,0,0,.147.8609,2.0466,2.0466,0,0,0,.42.6928,1.9134,1.9134,0,0,0,.6723.4619,2.3,2.3,0,0,0,.9029.168,2.1962,2.1962,0,0,0,1.1968-.3218,2.1107,2.1107,0,0,0,.791-.9238l.7983.5776a2.7886,2.7886,0,0,1-1.0923,1.2041A3.2924,3.2924,0,0,1,385.4683,235.5956Zm0-6.6221a2.14,2.14,0,0,0-.84.16,1.8925,1.8925,0,0,0-.6509.4522,2.1272,2.1272,0,0,0-.4272.6885,2.39,2.39,0,0,0-.1538.87v.0971h3.99v-.1533a2.1968,2.1968,0,0,0-.5254-1.5371A1.7906,1.7906,0,0,0,385.4683,228.9735Z"/><path d="M339.1987,247.8592a9.4824,9.4824,0,0,1,.1958-1.9458,9.2888,9.2888,0,0,1,.5391-1.7431,7.97,7.97,0,0,1,.8052-1.4629,6.1606,6.1606,0,0,1,.9936-1.12h1.064a7.1081,7.1081,0,0,0-1.0567,1.2041,8.1913,8.1913,0,0,0-.7983,1.4282,8.8732,8.8732,0,0,0-.5107,1.54,6.664,6.664,0,0,0-.1822,1.5117v1.2041a6.7211,6.7211,0,0,0,.1822,1.5259,8.5072,8.5072,0,0,0,.518,1.54,8.6143,8.6143,0,0,0,.8047,1.4282,6.5394,6.5394,0,0,0,1.043,1.1758h-1.064a5.6622,5.6622,0,0,1-.98-1.0918,7.91,7.91,0,0,1-.8046-1.47,9.7056,9.7056,0,0,1-.5459-1.7568A9.3109,9.3109,0,0,1,339.1987,247.8592Z"/><path d="M343.9165,252.2274v-7.2241h1.12v1.1626h.0562a3.7257,3.7257,0,0,1,.2866-.52,1.7637,1.7637,0,0,1,.9311-.707,2.2829,2.2829,0,0,1,.7281-.104,2.6318,2.6318,0,0,1,1.3159.34,2.0559,2.0559,0,0,1,.896,1.1172h.0278a2.2181,2.2181,0,0,1,.7354-1.02,2.2545,2.2545,0,0,1,1.4629-.4375,2.1647,2.1647,0,0,1,1.729.7212,3.0224,3.0224,0,0,1,.623,2.0371v4.6338h-1.12V247.78a2.3675,2.3675,0,0,0-.3779-1.4589,1.423,1.423,0,0,0-1.2041-.4913,2.3705,2.3705,0,0,0-.6368.084,1.739,1.739,0,0,0-.539.253,1.2288,1.2288,0,0,0-.3779.4277,1.2611,1.2611,0,0,0-.14.61v5.023h-1.12V247.78a2.3675,2.3675,0,0,0-.3779-1.4589,1.3894,1.3894,0,0,0-1.1758-.4913,2.4524,2.4524,0,0,0-.6441.084,1.733,1.733,0,0,0-.5463.253,1.3052,1.3052,0,0,0-.3848.4277,1.2152,1.2152,0,0,0-.147.61v5.023Z"/><path d="M361.3882,252.2274a1.0986,1.0986,0,0,1-.9028-.3359,1.6668,1.6668,0,0,1-.3433-.84h-.07a1.8691,1.8691,0,0,1-.7842,1.0078,2.4337,2.4337,0,0,1-1.3018.336,2.533,2.533,0,0,1-1.7851-.5879,2.0656,2.0656,0,0,1-.6367-1.5962,1.8217,1.8217,0,0,1,.749-1.5679,3.9793,3.9793,0,0,1,2.3305-.5459h1.4283v-.7143a1.5621,1.5621,0,0,0-.42-1.1758,1.7929,1.7929,0,0,0-1.288-.4058,1.9366,1.9366,0,0,0-1.0992.294,2.418,2.418,0,0,0-.7348.7836l-.6719-.63a2.5473,2.5473,0,0,1,.938-1.001,2.9523,2.9523,0,0,1,1.624-.4131,2.9883,2.9883,0,0,1,2.044.6426,2.2626,2.2626,0,0,1,.728,1.7881v3.9672h.8257v.9942Zm-3.22-.7842a2.85,2.85,0,0,0,.77-.0976,1.8863,1.8863,0,0,0,.6015-.28,1.3845,1.3845,0,0,0,.3921-.42,1.0036,1.0036,0,0,0,.14-.5181v-1.19h-1.4839a2.705,2.705,0,0,0-1.4072.28.9035.9035,0,0,0-.441.8115v.2945a.98.98,0,0,0,.3848.8257A1.6772,1.6772,0,0,0,358.1685,251.4432Z"/><path d="M363.6143,252.2274v-7.2241h1.12v1.1626h.0561a2.35,2.35,0,0,1,.7491-.97,2.118,2.118,0,0,1,1.2949-.36,2.2674,2.2674,0,0,1,1.771.7212,2.9336,2.9336,0,0,1,.6508,2.0371v4.6338h-1.12V247.78q0-1.95-1.6377-1.95a2.5342,2.5342,0,0,0-.6513.084,1.9006,1.9006,0,0,0-.5669.253,1.2518,1.2518,0,0,0-.399.4277,1.2163,1.2163,0,0,0-.1469.61v5.023Z"/><path d="M376.0181,251.0648h-.0562a3.4136,3.4136,0,0,1-.2729.4922,1.8015,1.8015,0,0,1-.9732.7275,2.509,2.509,0,0,1-.7837.1109,2.2884,2.2884,0,0,1-1.7783-.7212,2.9134,2.9134,0,0,1-.6577-2.0367v-4.6342h1.12v4.4477q0,1.95,1.6519,1.95a2.5044,2.5044,0,0,0,.6508-.084,1.8017,1.8017,0,0,0,.56-.2524,1.2815,1.2815,0,0,0,.3921-.4277,1.2529,1.2529,0,0,0,.147-.6246v-5.0092h1.12v7.2241h-1.12Z"/><path d="M384.7681,252.2274a1.0988,1.0988,0,0,1-.9029-.3359,1.6667,1.6667,0,0,1-.3432-.84h-.07a1.8685,1.8685,0,0,1-.7841,1.0078,2.4337,2.4337,0,0,1-1.3018.336,2.533,2.533,0,0,1-1.7851-.5879,2.0653,2.0653,0,0,1-.6368-1.5962,1.8216,1.8216,0,0,1,.7491-1.5679,3.9791,3.9791,0,0,1,2.3305-.5459h1.4282v-.7143a1.562,1.562,0,0,0-.42-1.1758,1.7931,1.7931,0,0,0-1.2881-.4058,1.9365,1.9365,0,0,0-1.0991.294,2.418,2.418,0,0,0-.7348.7836l-.6719-.63a2.5473,2.5473,0,0,1,.938-1.001,2.9523,2.9523,0,0,1,1.624-.4131,2.988,2.988,0,0,1,2.0439.6426,2.2623,2.2623,0,0,1,.7281,1.7881v3.9672h.8256v.9942Zm-3.22-.7842a2.85,2.85,0,0,0,.77-.0976,1.8863,1.8863,0,0,0,.6015-.28,1.3845,1.3845,0,0,0,.3921-.42,1.0035,1.0035,0,0,0,.14-.5181v-1.19h-1.4838a2.7056,2.7056,0,0,0-1.4073.28.9036.9036,0,0,0-.4409.8115v.2945a.9792.9792,0,0,0,.3848.8257A1.6771,1.6771,0,0,0,381.5483,251.4432Z"/><path d="M388.1841,252.2274a1.1423,1.1423,0,0,1-.8887-.3291,1.1845,1.1845,0,0,1-.3013-.833v-9.1978h1.12v9.3657h1.0639v.9942Z"/><path d="M391.9219,252.2274a1.1423,1.1423,0,0,1-.8887-.3291,1.1845,1.1845,0,0,1-.3013-.833v-9.1978h1.12v9.3657h1.0639v.9942Z"/><path d="M398.8521,245.0033h1.1059l-3.2339,8.9043a4.0018,4.0018,0,0,1-.2519.539,1.0515,1.0515,0,0,1-.3081.3428,1.23,1.23,0,0,1-.4551.1821,3.3908,3.3908,0,0,1-.6651.0557H394.47v-.9937h1.1343l.5459-1.5376-2.7021-7.4926h1.12l1.7363,4.9048.3359,1.1738h.07l.3921-1.1738Z"/><path d="M403.7236,247.8592a9.3772,9.3772,0,0,1-.2026,1.9673,9.7858,9.7858,0,0,1-.5464,1.7568,7.8818,7.8818,0,0,1-.8047,1.47,5.659,5.659,0,0,1-.98,1.0918H400.126a6.5543,6.5543,0,0,0,1.0429-1.1758,8.6672,8.6672,0,0,0,1.3228-2.9683,6.7492,6.7492,0,0,0,.1821-1.5259v-1.2041a6.6921,6.6921,0,0,0-.1821-1.5117,8.8732,8.8732,0,0,0-.5107-1.54,8.2245,8.2245,0,0,0-.7984-1.4282,7.1076,7.1076,0,0,0-1.0566-1.2041H401.19a6.1609,6.1609,0,0,1,.9937,1.12,8,8,0,0,1,.8052,1.4629,9.3183,9.3183,0,0,1,.539,1.7431A9.51,9.51,0,0,1,403.7236,247.8592Z"/><path d="M565.8037,225.6556H569.08a4.2786,4.2786,0,0,1,1.6523.3081,3.3371,3.3371,0,0,1,1.2666.917,4.1675,4.1675,0,0,1,.8047,1.5259,8.2711,8.2711,0,0,1,0,4.27,4.1675,4.1675,0,0,1-.8047,1.5259,3.3371,3.3371,0,0,1-1.2666.917,4.2712,4.2712,0,0,1-1.6523.3081h-3.2764Zm3.2764,8.7359a2.931,2.931,0,0,0,1.1054-.2027,2.3825,2.3825,0,0,0,.8682-.5952,2.75,2.75,0,0,0,.5674-.959,3.8417,3.8417,0,0,0,.2031-1.2949v-1.5962a3.8433,3.8433,0,0,0-.2031-1.2949,2.75,2.75,0,0,0-.5674-.959,2.3886,2.3886,0,0,0-.8682-.5952,2.9408,2.9408,0,0,0-1.1054-.2027H566.98v7.7Z"/><path d="M577.8018,235.5956a3.24,3.24,0,0,1-1.337-.2662,2.8825,2.8825,0,0,1-1.0224-.7627,3.5,3.5,0,0,1-.6582-1.19,5.378,5.378,0,0,1,0-3.1152,3.4826,3.4826,0,0,1,.6582-1.1968,2.8792,2.8792,0,0,1,1.0224-.7632,3.2412,3.2412,0,0,1,1.337-.2661,3.0707,3.0707,0,0,1,1.3017.2651,2.8947,2.8947,0,0,1,.98.7329,3.2593,3.2593,0,0,1,.6221,1.1089,4.3519,4.3519,0,0,1,.2177,1.4087v.53H575.73v.3364a2.4573,2.4573,0,0,0,.1475.8609,2.0247,2.0247,0,0,0,.42.6928,1.9018,1.9018,0,0,0,.6719.4619,2.2974,2.2974,0,0,0,.9023.168,2.1955,2.1955,0,0,0,1.1973-.3218,2.11,2.11,0,0,0,.791-.9238l.7978.5776a2.7849,2.7849,0,0,1-1.0918,1.2041A3.2942,3.2942,0,0,1,577.8018,235.5956Zm0-6.6221a2.1364,2.1364,0,0,0-.84.16,1.89,1.89,0,0,0-.6514.4522,2.126,2.126,0,0,0-.4267.6885,2.3687,2.3687,0,0,0-.1543.87v.0971h3.99v-.1533a2.1945,2.1945,0,0,0-.5254-1.5371A1.79,1.79,0,0,0,577.8018,228.9735Z"/><path d="M588.0225,235.4276a1.0978,1.0978,0,0,1-.9034-.336,1.662,1.662,0,0,1-.3427-.84h-.07a1.8714,1.8714,0,0,1-.7842,1.0078,2.4349,2.4349,0,0,1-1.3018.336,2.533,2.533,0,0,1-1.7851-.5879,2.0658,2.0658,0,0,1-.6368-1.5962,1.8206,1.8206,0,0,1,.7491-1.5679,3.9808,3.9808,0,0,1,2.331-.5459h1.4278v-.7144a1.56,1.56,0,0,0-.42-1.1757,1.7939,1.7939,0,0,0-1.2881-.4058,1.9367,1.9367,0,0,0-1.0986.2939,2.425,2.425,0,0,0-.7353.7837l-.6719-.63a2.5568,2.5568,0,0,1,.9375-1.001,2.9547,2.9547,0,0,1,1.624-.4131,2.9867,2.9867,0,0,1,2.044.6426,2.2613,2.2613,0,0,1,.7285,1.7881v3.9672h.8261v.9942Zm-3.2207-.7842a2.8468,2.8468,0,0,0,.7705-.0977,1.879,1.879,0,0,0,.6015-.28,1.3926,1.3926,0,0,0,.3926-.42,1.008,1.008,0,0,0,.14-.5181v-1.19h-1.4844a2.7026,2.7026,0,0,0-1.4063.28.904.904,0,0,0-.4414.8115v.2945a.9782.9782,0,0,0,.3848.8257A1.6773,1.6773,0,0,0,584.8018,234.6434Z"/><path d="M592.9355,235.5956a3.33,3.33,0,0,1-1.3584-.2662,2.7723,2.7723,0,0,1-1.0146-.7558,3.3643,3.3643,0,0,1-.63-1.19,5.7794,5.7794,0,0,1,0-3.1362,3.3716,3.3716,0,0,1,.63-1.19,2.7725,2.7725,0,0,1,1.0146-.7559,3.3311,3.3311,0,0,1,1.3584-.2661,2.9,2.9,0,0,1,1.7295.4692,2.862,2.862,0,0,1,.9727,1.2246l-.9385.4761a1.6988,1.6988,0,0,0-.6435-.8677,1.9309,1.9309,0,0,0-1.12-.3081,2.2333,2.2333,0,0,0-.8818.1612,1.7276,1.7276,0,0,0-.63.4477,1.8859,1.8859,0,0,0-.3779.6861,2.8938,2.8938,0,0,0-.126.875v1.2319a2.3436,2.3436,0,0,0,.5108,1.561,1.8517,1.8517,0,0,0,1.5048.6089,2.0318,2.0318,0,0,0,1.96-1.26l.8125.5459a2.8686,2.8686,0,0,1-1.043,1.2461A3.0541,3.0541,0,0,1,592.9355,235.5956Z"/><path d="M598.8857,235.4276a1.1446,1.1446,0,0,1-.8886-.3281,1.22,1.22,0,0,1-.3018-.8594v-5.0425h-1.1894v-.9941h.6718a.6592.6592,0,0,0,.4971-.147.7617.7617,0,0,0,.1328-.5108v-1.3442h1.0078v2.002h1.5821v.9941h-1.5821v5.2358h1.47v.9942Z"/><path d="M602.7637,226.51a.6847.6847,0,0,1-.5254-.1748.6452.6452,0,0,1-.16-.4551v-.1821a.6454.6454,0,0,1,.16-.4551.877.877,0,0,1,1.0508,0,.65.65,0,0,1,.16.4551v.1821a.65.65,0,0,1-.16.4551A.6863.6863,0,0,1,602.7637,226.51Zm-.56,1.6939h1.1191v7.2241h-1.1191Z"/><path d="M607.3,235.4276l-2.5342-7.2241h1.12l1.26,3.5839.7842,2.4644H608l.7832-2.4644,1.2881-3.5839h1.0781l-2.5478,7.2241Z"/><path d="M617.7158,235.4276a1.0975,1.0975,0,0,1-.9033-.336,1.6621,1.6621,0,0,1-.3428-.84h-.07a1.871,1.871,0,0,1-.7842,1.0078,2.4343,2.4343,0,0,1-1.3017.336,2.5333,2.5333,0,0,1-1.7852-.5879,2.0658,2.0658,0,0,1-.6367-1.5962,1.8205,1.8205,0,0,1,.749-1.5679,3.9812,3.9812,0,0,1,2.3311-.5459h1.4277v-.7144a1.56,1.56,0,0,0-.42-1.1757,1.7942,1.7942,0,0,0-1.2881-.4058,1.9362,1.9362,0,0,0-1.0986.2939,2.4243,2.4243,0,0,0-.7354.7837l-.6719-.63a2.5568,2.5568,0,0,1,.9375-1.001,2.955,2.955,0,0,1,1.6241-.4131,2.9862,2.9862,0,0,1,2.0439.6426,2.2609,2.2609,0,0,1,.7285,1.7881v3.9672h.8262v.9942Zm-3.2207-.7842a2.8463,2.8463,0,0,0,.77-.0977,1.8806,1.8806,0,0,0,.6016-.28,1.3939,1.3939,0,0,0,.3926-.42,1.0089,1.0089,0,0,0,.14-.5181v-1.19H614.915a2.7022,2.7022,0,0,0-1.4062.28.9038.9038,0,0,0-.4414.8115v.2945a.9781.9781,0,0,0,.3847.8257A1.6775,1.6775,0,0,0,614.4951,234.6434Z"/><path d="M621.5381,235.4276a1.1447,1.1447,0,0,1-.8887-.3281,1.22,1.22,0,0,1-.3017-.8594v-5.0425h-1.19v-.9941h.6719a.6587.6587,0,0,0,.497-.147.7616.7616,0,0,0,.1329-.5108v-1.3442h1.0078v2.002h1.582v.9941h-1.582v5.2358h1.47v.9942Z"/><path d="M627.5156,235.5956a3.24,3.24,0,0,1-1.3369-.2662,2.8829,2.8829,0,0,1-1.0225-.7627,3.5016,3.5016,0,0,1-.6582-1.19,5.38,5.38,0,0,1,0-3.1152,3.4843,3.4843,0,0,1,.6582-1.1968,2.88,2.88,0,0,1,1.0225-.7632,3.2411,3.2411,0,0,1,1.3369-.2661,3.0708,3.0708,0,0,1,1.3018.2651,2.8947,2.8947,0,0,1,.9805.7329,3.2574,3.2574,0,0,1,.622,1.1089,4.3518,4.3518,0,0,1,.2178,1.4087v.53h-5.1943v.3364a2.46,2.46,0,0,0,.1474.8609,2.0262,2.0262,0,0,0,.42.6928,1.9036,1.9036,0,0,0,.6719.4619,2.2976,2.2976,0,0,0,.9024.168,2.195,2.195,0,0,0,1.1972-.3218,2.11,2.11,0,0,0,.791-.9238l.7979.5776a2.7849,2.7849,0,0,1-1.0918,1.2041A3.2944,3.2944,0,0,1,627.5156,235.5956Zm0-6.6221a2.1356,2.1356,0,0,0-.84.16,1.8888,1.8888,0,0,0-.6514.4522,2.126,2.126,0,0,0-.4267.6885,2.3667,2.3667,0,0,0-.1543.87v.0971h3.99v-.1533a2.1945,2.1945,0,0,0-.5254-1.5371A1.79,1.79,0,0,0,627.5156,228.9735Z"/><path d="M565.6641,247.8592a9.4754,9.4754,0,0,1,.1963-1.9458,9.1723,9.1723,0,0,1,.539-1.7431,7.9388,7.9388,0,0,1,.8047-1.4629,6.1289,6.1289,0,0,1,.9941-1.12h1.0635a7.1076,7.1076,0,0,0-1.0566,1.2041,8.1894,8.1894,0,0,0-.7979,1.4282,8.92,8.92,0,0,0-.5117,1.54,6.6906,6.6906,0,0,0-.1816,1.5117v1.2041a6.7479,6.7479,0,0,0,.1816,1.5259,8.6811,8.6811,0,0,0,1.3233,2.9683,6.516,6.516,0,0,0,1.0429,1.1758h-1.0635a5.6635,5.6635,0,0,1-.98-1.0918,7.9107,7.9107,0,0,1-.8047-1.47,9.7534,9.7534,0,0,1-.5459-1.7568A9.311,9.311,0,0,1,565.6641,247.8592Z"/><path d="M570.3818,252.2274v-7.2241h1.1192v1.1626h.0566a3.728,3.728,0,0,1,.2871-.52,1.7616,1.7616,0,0,1,.3916-.4228,1.8156,1.8156,0,0,1,.5391-.2842,2.2812,2.2812,0,0,1,.7275-.104,2.6318,2.6318,0,0,1,1.3164.34,2.0588,2.0588,0,0,1,.8965,1.1172h.0274a2.2172,2.2172,0,0,1,.7353-1.02,2.2554,2.2554,0,0,1,1.4629-.4375,2.1629,2.1629,0,0,1,1.7285.7212,3.0172,3.0172,0,0,1,.6231,2.0371v4.6338h-1.1192V247.78a2.36,2.36,0,0,0-.3789-1.4589,1.422,1.422,0,0,0-1.2031-.4913,2.38,2.38,0,0,0-.6377.084,1.7547,1.7547,0,0,0-.5391.253,1.245,1.245,0,0,0-.3779.4277,1.2724,1.2724,0,0,0-.14.61v5.023h-1.12V247.78a2.3669,2.3669,0,0,0-.3779-1.4589,1.3886,1.3886,0,0,0-1.1758-.4913,2.4527,2.4527,0,0,0-.6445.084,1.74,1.74,0,0,0-.5459.253,1.3063,1.3063,0,0,0-.3848.4277,1.2216,1.2216,0,0,0-.1474.61v5.023Z"/><path d="M587.8545,252.2274a1.0977,1.0977,0,0,1-.9033-.3359,1.662,1.662,0,0,1-.3428-.84h-.07a1.871,1.871,0,0,1-.7842,1.0078,2.4346,2.4346,0,0,1-1.3018.336,2.533,2.533,0,0,1-1.7851-.5879,2.0656,2.0656,0,0,1-.6367-1.5962,1.8205,1.8205,0,0,1,.749-1.5679,3.9812,3.9812,0,0,1,2.3311-.5459h1.4277v-.7143a1.56,1.56,0,0,0-.42-1.1758,1.7942,1.7942,0,0,0-1.2881-.4058,1.936,1.936,0,0,0-1.0987.294,2.4247,2.4247,0,0,0-.7353.7836l-.6719-.63a2.5568,2.5568,0,0,1,.9375-1.001,2.9547,2.9547,0,0,1,1.624-.4131,2.9865,2.9865,0,0,1,2.044.6426,2.2613,2.2613,0,0,1,.7285,1.7881v3.9672h.8262v.9942Zm-3.2207-.7842a2.85,2.85,0,0,0,.7705-.0976,1.8829,1.8829,0,0,0,.6016-.28,1.3935,1.3935,0,0,0,.3925-.42,1.008,1.008,0,0,0,.14-.5181v-1.19h-1.4844a2.7023,2.7023,0,0,0-1.4062.28.9038.9038,0,0,0-.4414.8115v.2945a.9781.9781,0,0,0,.3847.8257A1.6769,1.6769,0,0,0,584.6338,251.4432Z"/><path d="M590.08,252.2274v-7.2241h1.1191v1.1626h.0567a2.3494,2.3494,0,0,1,.749-.97,2.1161,2.1161,0,0,1,1.2949-.36,2.2663,2.2663,0,0,1,1.77.7212,2.9313,2.9313,0,0,1,.6514,2.0371v4.6338h-1.12V247.78q0-1.95-1.6377-1.95a2.5327,2.5327,0,0,0-.6514.084,1.8988,1.8988,0,0,0-.5664.253,1.2472,1.2472,0,0,0-.3994.4277,1.2206,1.2206,0,0,0-.1475.61v5.023Z"/><path d="M602.4834,251.0648h-.0557a3.56,3.56,0,0,1-.2724.4922,1.8042,1.8042,0,0,1-.9737.7275,2.51,2.51,0,0,1-.7841.1109,2.287,2.287,0,0,1-1.7774-.7212,2.9093,2.9093,0,0,1-.6582-2.0367v-4.6342h1.12v4.4477q0,1.95,1.6514,1.95a2.5068,2.5068,0,0,0,.6514-.084,1.7942,1.7942,0,0,0,.5595-.2524,1.2666,1.2666,0,0,0,.3926-.4277,1.2528,1.2528,0,0,0,.1465-.6246v-5.0092h1.12v7.2241h-1.12Z"/><path d="M611.2334,252.2274a1.0977,1.0977,0,0,1-.9033-.3359,1.662,1.662,0,0,1-.3428-.84h-.07a1.871,1.871,0,0,1-.7842,1.0078,2.4343,2.4343,0,0,1-1.3017.336,2.5331,2.5331,0,0,1-1.7852-.5879,2.0656,2.0656,0,0,1-.6367-1.5962,1.8205,1.8205,0,0,1,.749-1.5679,3.9812,3.9812,0,0,1,2.3311-.5459h1.4277v-.7143a1.56,1.56,0,0,0-.42-1.1758,1.7942,1.7942,0,0,0-1.2881-.4058,1.9355,1.9355,0,0,0-1.0986.294,2.4239,2.4239,0,0,0-.7354.7836l-.6719-.63a2.5568,2.5568,0,0,1,.9375-1.001,2.9547,2.9547,0,0,1,1.624-.4131,2.9865,2.9865,0,0,1,2.044.6426,2.2613,2.2613,0,0,1,.7285,1.7881v3.9672h.8262v.9942Zm-3.2207-.7842a2.85,2.85,0,0,0,.77-.0976,1.8829,1.8829,0,0,0,.6016-.28,1.3935,1.3935,0,0,0,.3925-.42,1.008,1.008,0,0,0,.14-.5181v-1.19h-1.4844a2.7023,2.7023,0,0,0-1.4062.28.9038.9038,0,0,0-.4414.8115v.2945a.9781.9781,0,0,0,.3847.8257A1.6769,1.6769,0,0,0,608.0127,251.4432Z"/><path d="M614.6494,252.2274a1.143,1.143,0,0,1-.8887-.3291,1.1845,1.1845,0,0,1-.3007-.833v-9.1978h1.1191v9.3657h1.0645v.9942Z"/><path d="M618.3877,252.2274a1.143,1.143,0,0,1-.8887-.3291,1.1846,1.1846,0,0,1-.3008-.833v-9.1978h1.1192v9.3657h1.0644v.9942Z"/><path d="M625.3164,245.0033h1.1065l-3.2344,8.9043a4.001,4.001,0,0,1-.252.539,1.05,1.05,0,0,1-.3076.3428,1.2291,1.2291,0,0,1-.4551.1821,3.39,3.39,0,0,1-.665.0557h-.5742v-.9937h1.1338l.5468-1.5376-2.7021-7.4926h1.12l1.7354,4.9048.3359,1.1738h.07l.3916-1.1738Z"/><path d="M630.19,247.8592a9.377,9.377,0,0,1-.2032,1.9673,9.8259,9.8259,0,0,1-.5459,1.7568,7.9132,7.9132,0,0,1-.8056,1.47,5.6639,5.6639,0,0,1-.98,1.0918h-1.0645a6.52,6.52,0,0,0,1.043-1.1758,8.6552,8.6552,0,0,0,.8057-1.4282,8.5441,8.5441,0,0,0,.5175-1.54,6.7482,6.7482,0,0,0,.1817-1.5259v-1.2041a6.6909,6.6909,0,0,0-.1817-1.5117,8.9157,8.9157,0,0,0-.5107-1.54,8.2485,8.2485,0,0,0-.7979-1.4282,7.1086,7.1086,0,0,0-1.0576-1.2041h1.0645a6.2,6.2,0,0,1,.9941,1.12,7.9981,7.9981,0,0,1,.8047,1.4629,9.3259,9.3259,0,0,1,.5391,1.7431A9.4823,9.4823,0,0,1,630.19,247.8592Z"/><path d="M575.9248,82.2962h3.2764a4.28,4.28,0,0,1,1.6523.3081,3.3371,3.3371,0,0,1,1.2666.917,4.1675,4.1675,0,0,1,.8047,1.5259,8.2711,8.2711,0,0,1,0,4.27,4.1659,4.1659,0,0,1-.8047,1.5259,3.336,3.336,0,0,1-1.2666.917,4.2694,4.2694,0,0,1-1.6523.3081h-3.2764Zm3.2764,8.7359a2.931,2.931,0,0,0,1.1054-.2027,2.3813,2.3813,0,0,0,.8682-.5952,2.75,2.75,0,0,0,.5674-.959,3.8413,3.8413,0,0,0,.2031-1.2949V86.3841a3.8438,3.8438,0,0,0-.2031-1.2949,2.7523,2.7523,0,0,0-.5674-.959,2.3886,2.3886,0,0,0-.8682-.5952,2.9408,2.9408,0,0,0-1.1054-.2026h-2.1006v7.7Z"/><path d="M587.9229,92.2362a3.2412,3.2412,0,0,1-1.337-.2661,2.8849,2.8849,0,0,1-1.0224-.7627,3.5014,3.5014,0,0,1-.6582-1.19,5.378,5.378,0,0,1,0-3.1152,3.4836,3.4836,0,0,1,.6582-1.1968,2.88,2.88,0,0,1,1.0224-.7632,3.2412,3.2412,0,0,1,1.337-.2661,3.0692,3.0692,0,0,1,1.3017.2652,2.8921,2.8921,0,0,1,.9805.7329,3.2555,3.2555,0,0,1,.622,1.1089,4.3481,4.3481,0,0,1,.2178,1.4086v.53h-5.1943v.3364a2.4588,2.4588,0,0,0,.1474.8609,2.0269,2.0269,0,0,0,.42.6929,1.9036,1.9036,0,0,0,.6718.4619,2.2979,2.2979,0,0,0,.9024.1679A2.1963,2.1963,0,0,0,589.19,90.92a2.1115,2.1115,0,0,0,.791-.9239l.7978.5777a2.786,2.786,0,0,1-1.0918,1.2041A3.2951,3.2951,0,0,1,587.9229,92.2362Zm0-6.6221a2.1347,2.1347,0,0,0-.84.16,1.8882,1.8882,0,0,0-.6514.4521,2.126,2.126,0,0,0-.4267.6885,2.3687,2.3687,0,0,0-.1543.87v.0972h3.99v-.1533a2.1946,2.1946,0,0,0-.5254-1.5372A1.79,1.79,0,0,0,587.9229,85.6141Z"/><path d="M595.0635,92.2362a3.385,3.385,0,0,1-1.6875-.3848,3.8368,3.8368,0,0,1-1.169-1.0293l.7979-.644a3.1392,3.1392,0,0,0,.9385.8193,2.44,2.44,0,0,0,1.2041.2866,1.7829,1.7829,0,0,0,1.1123-.3076,1.1181,1.1181,0,0,0,.1259-1.5893,1.6665,1.6665,0,0,0-.9863-.4131l-.5742-.084a4.7505,4.7505,0,0,1-.9238-.2168,2.5652,2.5652,0,0,1-.7354-.3921,1.6907,1.6907,0,0,1-.49-.6089,1.994,1.994,0,0,1-.1748-.8682,2.0824,2.0824,0,0,1,.1963-.9306,1.8673,1.8673,0,0,1,.539-.6651,2.3459,2.3459,0,0,1,.8184-.3989,3.7808,3.7808,0,0,1,1.0224-.1333,3.1907,3.1907,0,0,1,1.4766.3081,3.3041,3.3041,0,0,1,1.043.854l-.7412.6719a2.2094,2.2094,0,0,0-1.8623-.8818,1.605,1.605,0,0,0-1.0567.3007,1.0161,1.0161,0,0,0-.3574.8194.8572.8572,0,0,0,.3574.77,2.6557,2.6557,0,0,0,1.0283.35l.5606.084a3.0036,3.0036,0,0,1,1.708.6934,1.822,1.822,0,0,1,.5039,1.3369,2.0463,2.0463,0,0,1-.7139,1.6518A2.948,2.948,0,0,1,595.0635,92.2362Z"/><path d="M601.209,92.0682a1.1447,1.1447,0,0,1-.8887-.3281,1.22,1.22,0,0,1-.3017-.8594V85.8382h-1.1895v-.9941h.6719a.6583.6583,0,0,0,.497-.147.7613.7613,0,0,0,.1329-.5107V82.8421h1.0078v2.002h1.582v.9941h-1.582v5.2359h1.47v.9941Z"/><path d="M604.5273,92.0682V84.8441h1.1192v1.33h.07a2.184,2.184,0,0,1,.7-.9239,2.1505,2.1505,0,0,1,1.3857-.4062h.4346v1.12h-.6582a2.5263,2.5263,0,0,0-1.4209.3428,1.013,1.013,0,0,0-.5117.8613v4.9Z"/><path d="M612.3252,92.2362a3.2575,3.2575,0,0,1-1.33-.2661,2.8763,2.8763,0,0,1-1.0293-.7627,3.5969,3.5969,0,0,1-.664-1.19,5.21,5.21,0,0,1,0-3.1152,3.5771,3.5771,0,0,1,.664-1.1968,2.8718,2.8718,0,0,1,1.0293-.7632,3.2575,3.2575,0,0,1,1.33-.2661,3.2116,3.2116,0,0,1,1.3232.2661,2.9572,2.9572,0,0,1,1.0293.7632,3.5249,3.5249,0,0,1,.6719,1.1968,5.2305,5.2305,0,0,1,0,3.1152,3.5442,3.5442,0,0,1-.6719,1.19,2.962,2.962,0,0,1-1.0293.7627A3.2116,3.2116,0,0,1,612.3252,92.2362Zm0-.9942a2.0365,2.0365,0,0,0,1.4844-.56,2.2914,2.2914,0,0,0,.5732-1.708V87.9383a2.2929,2.2929,0,0,0-.5732-1.708,2.2474,2.2474,0,0,0-2.9688,0,2.2889,2.2889,0,0,0-.5732,1.708V88.974a2.2874,2.2874,0,0,0,.5732,1.708A2.0365,2.0365,0,0,0,612.3252,91.242Z"/><path d="M621.8164,84.8441h1.1065l-3.2344,8.9043a4.001,4.001,0,0,1-.252.539,1.05,1.05,0,0,1-.3076.3428,1.2291,1.2291,0,0,1-.4551.1822,3.3912,3.3912,0,0,1-.665.0556h-.5742v-.9936h1.1338l.5468-1.5376-2.7021-7.4927h1.12l1.7354,4.9048.3359,1.1738h.07l.3916-1.1738Z"/><path d="M129.0122,252.3958a3.5336,3.5336,0,0,1-2.8979-1.267,5.7786,5.7786,0,0,1-1.0362-3.731,6.0263,6.0263,0,0,1,1.0362-3.7871,3.4709,3.4709,0,0,1,2.8979-1.3228,3.417,3.417,0,0,1,3.36,2.128l-.9522.5742a2.711,2.711,0,0,0-.896-1.2114,2.439,2.439,0,0,0-1.5117-.4546,2.57,2.57,0,0,0-1.1269.2387,2.3262,2.3262,0,0,0-.84.6812,3.1882,3.1882,0,0,0-.5249,1.0537,4.8035,4.8035,0,0,0-.1821,1.37v1.4615a3.6527,3.6527,0,0,0,.7,2.3745,2.4048,2.4048,0,0,0,1.9741.8564,2.5,2.5,0,0,0,1.5679-.4829,2.7853,2.7853,0,0,0,.9238-1.2808l.938.5879a3.7534,3.7534,0,0,1-1.33,1.6241A3.6568,3.6568,0,0,1,129.0122,252.3958Z"/><path d="M134.15,252.2279v-7.2241h1.12v1.33h.07a2.1837,2.1837,0,0,1,.7-.9238,2.151,2.151,0,0,1,1.3858-.4062h.4341v1.12h-.6578a2.5312,2.5312,0,0,0-1.4213.3427,1.0121,1.0121,0,0,0-.5108.8614v4.9Z"/><path d="M141.9336,252.3958a3.2428,3.2428,0,0,1-1.3369-.2661,2.8855,2.8855,0,0,1-1.022-.7627,3.499,3.499,0,0,1-.6577-1.19,5.3668,5.3668,0,0,1,0-3.1152,3.4818,3.4818,0,0,1,.6577-1.1968,2.881,2.881,0,0,1,1.022-.7632,3.2444,3.2444,0,0,1,1.3369-.2661,3.073,3.073,0,0,1,1.3022.2651,2.887,2.887,0,0,1,.98.7329,3.27,3.27,0,0,1,.6231,1.1089,4.3793,4.3793,0,0,1,.2168,1.4087v.53h-5.1939v.3364a2.4686,2.4686,0,0,0,.147.8609,2.0482,2.0482,0,0,0,.42.6928,1.9138,1.9138,0,0,0,.6724.4619,2.3,2.3,0,0,0,.9028.168,2.196,2.196,0,0,0,1.1968-.3218,2.11,2.11,0,0,0,.791-.9238l.7983.5776a2.7889,2.7889,0,0,1-1.0922,1.2041A3.2929,3.2929,0,0,1,141.9336,252.3958Zm0-6.622a2.1391,2.1391,0,0,0-.84.16,1.8906,1.8906,0,0,0-.6509.4522,2.1274,2.1274,0,0,0-.4273.6885,2.3891,2.3891,0,0,0-.1538.87v.0971h3.99v-.1533a2.1968,2.1968,0,0,0-.5254-1.5371A1.7909,1.7909,0,0,0,141.9336,245.7738Z"/><path d="M152.1538,252.2279a1.0983,1.0983,0,0,1-.9028-.336,1.6661,1.6661,0,0,1-.3433-.84h-.07a1.8687,1.8687,0,0,1-.7842,1.0078,2.4333,2.4333,0,0,1-1.3017.3359,2.5335,2.5335,0,0,1-1.7852-.5878,2.0658,2.0658,0,0,1-.6367-1.5962,1.8217,1.8217,0,0,1,.749-1.5679,3.9794,3.9794,0,0,1,2.3306-.5459h1.4282v-.7144a1.5619,1.5619,0,0,0-.42-1.1757,1.7934,1.7934,0,0,0-1.2881-.4058,1.9368,1.9368,0,0,0-1.0991.2939,2.4175,2.4175,0,0,0-.7349.7837l-.6719-.63a2.5473,2.5473,0,0,1,.938-1.001,2.9523,2.9523,0,0,1,1.624-.4131,2.9878,2.9878,0,0,1,2.044.6426,2.2626,2.2626,0,0,1,.728,1.7881v3.9672h.8257v.9942Zm-3.22-.7842a2.8451,2.8451,0,0,0,.77-.0977,1.8857,1.8857,0,0,0,.6016-.28,1.3861,1.3861,0,0,0,.3921-.42,1.0039,1.0039,0,0,0,.14-.518v-1.19H149.354a2.7051,2.7051,0,0,0-1.4072.28.9033.9033,0,0,0-.4409.8115v.2945a.9794.9794,0,0,0,.3847.8257A1.6781,1.6781,0,0,0,148.9341,251.4437Z"/><path d="M155.9761,252.2279a1.1473,1.1473,0,0,1-.8892-.3281,1.2216,1.2216,0,0,1-.3008-.8594v-5.0425h-1.19v-.9941h.6724a.6581.6581,0,0,0,.497-.147.7645.7645,0,0,0,.1328-.5108v-1.3442h1.0079v2.002h1.582v.9941h-1.582v5.2358h1.47v.9942Z"/><path d="M161.9536,252.3958a3.2428,3.2428,0,0,1-1.3369-.2661,2.8855,2.8855,0,0,1-1.022-.7627,3.5007,3.5007,0,0,1-.6577-1.19,5.369,5.369,0,0,1,0-3.1152,3.4834,3.4834,0,0,1,.6577-1.1968,2.881,2.881,0,0,1,1.022-.7632,3.2444,3.2444,0,0,1,1.3369-.2661,3.0734,3.0734,0,0,1,1.3023.2651,2.8876,2.8876,0,0,1,.98.7329,3.2679,3.2679,0,0,1,.6231,1.1089,4.3793,4.3793,0,0,1,.2168,1.4087v.53h-5.1939v.3364a2.4709,2.4709,0,0,0,.147.8609,2.05,2.05,0,0,0,.42.6928,1.9147,1.9147,0,0,0,.6724.4619,2.3,2.3,0,0,0,.9028.168,2.1957,2.1957,0,0,0,1.1968-.3218,2.11,2.11,0,0,0,.791-.9238l.7984.5776a2.7892,2.7892,0,0,1-1.0923,1.2041A3.2927,3.2927,0,0,1,161.9536,252.3958Zm0-6.622a2.1391,2.1391,0,0,0-.84.16,1.8906,1.8906,0,0,0-.6509.4522,2.1291,2.1291,0,0,0-.4273.6885,2.3891,2.3891,0,0,0-.1538.87v.0971h3.99v-.1533a2.1968,2.1968,0,0,0-.5254-1.5371A1.7909,1.7909,0,0,0,161.9536,245.7738Z"/><path d="M244.0122,392.3958a3.5336,3.5336,0,0,1-2.8979-1.267,5.7786,5.7786,0,0,1-1.0362-3.731,6.0263,6.0263,0,0,1,1.0362-3.7871,3.4709,3.4709,0,0,1,2.8979-1.3228,3.417,3.417,0,0,1,3.36,2.128l-.9522.5742a2.711,2.711,0,0,0-.896-1.2114,2.439,2.439,0,0,0-1.5117-.4546,2.57,2.57,0,0,0-1.1269.2387,2.3262,2.3262,0,0,0-.84.6812,3.1882,3.1882,0,0,0-.5249,1.0537,4.8035,4.8035,0,0,0-.1821,1.37v1.4615a3.6527,3.6527,0,0,0,.7,2.3745,2.4048,2.4048,0,0,0,1.9741.8564,2.5,2.5,0,0,0,1.5679-.4829,2.7853,2.7853,0,0,0,.9238-1.2808l.938.5879a3.7534,3.7534,0,0,1-1.33,1.6241A3.6568,3.6568,0,0,1,244.0122,392.3958Z"/><path d="M249.15,392.2279v-7.2241h1.12v1.33h.07a2.1837,2.1837,0,0,1,.7-.9238,2.151,2.151,0,0,1,1.3858-.4062h.4341v1.12h-.6578a2.5312,2.5312,0,0,0-1.4213.3427,1.0121,1.0121,0,0,0-.5108.8614v4.9Z"/><path d="M256.9336,392.3958a3.2428,3.2428,0,0,1-1.3369-.2661,2.8855,2.8855,0,0,1-1.022-.7627,3.499,3.499,0,0,1-.6577-1.19,5.3668,5.3668,0,0,1,0-3.1152,3.4818,3.4818,0,0,1,.6577-1.1968,2.881,2.881,0,0,1,1.022-.7632,3.2444,3.2444,0,0,1,1.3369-.2661,3.073,3.073,0,0,1,1.3022.2651,2.887,2.887,0,0,1,.98.7329,3.27,3.27,0,0,1,.6231,1.1089,4.3793,4.3793,0,0,1,.2168,1.4087v.53h-5.1939v.3364a2.4686,2.4686,0,0,0,.147.8609,2.0482,2.0482,0,0,0,.42.6928,1.9138,1.9138,0,0,0,.6724.4619,2.3,2.3,0,0,0,.9028.168,2.196,2.196,0,0,0,1.1968-.3218,2.11,2.11,0,0,0,.791-.9238l.7983.5776a2.7889,2.7889,0,0,1-1.0922,1.2041A3.2929,3.2929,0,0,1,256.9336,392.3958Zm0-6.622a2.1391,2.1391,0,0,0-.84.16,1.8906,1.8906,0,0,0-.6509.4522,2.1274,2.1274,0,0,0-.4273.6885,2.3891,2.3891,0,0,0-.1538.87v.0971h3.99v-.1533a2.1968,2.1968,0,0,0-.5254-1.5371A1.7909,1.7909,0,0,0,256.9336,385.7738Z"/><path d="M267.1538,392.2279a1.0983,1.0983,0,0,1-.9028-.336,1.6661,1.6661,0,0,1-.3433-.84h-.07a1.8687,1.8687,0,0,1-.7842,1.0078,2.4333,2.4333,0,0,1-1.3017.3359,2.5335,2.5335,0,0,1-1.7852-.5878,2.0658,2.0658,0,0,1-.6367-1.5962,1.8217,1.8217,0,0,1,.749-1.5679,3.9794,3.9794,0,0,1,2.3306-.5459h1.4282v-.7144a1.5619,1.5619,0,0,0-.42-1.1757,1.7934,1.7934,0,0,0-1.2881-.4058,1.9368,1.9368,0,0,0-1.0991.2939,2.4175,2.4175,0,0,0-.7349.7837l-.6719-.63a2.5473,2.5473,0,0,1,.938-1.001,2.9523,2.9523,0,0,1,1.624-.4131,2.9878,2.9878,0,0,1,2.044.6426,2.2626,2.2626,0,0,1,.728,1.7881v3.9672h.8257v.9942Zm-3.22-.7842a2.8451,2.8451,0,0,0,.77-.0977,1.8857,1.8857,0,0,0,.6016-.28,1.3861,1.3861,0,0,0,.3921-.42,1.0039,1.0039,0,0,0,.14-.518v-1.19H264.354a2.7051,2.7051,0,0,0-1.4072.28.9033.9033,0,0,0-.4409.8115v.2945a.9794.9794,0,0,0,.3847.8257A1.6781,1.6781,0,0,0,263.9341,391.4437Z"/><path d="M270.9761,392.2279a1.1473,1.1473,0,0,1-.8892-.3281,1.2216,1.2216,0,0,1-.3008-.8594v-5.0425h-1.19v-.9941h.6724a.6581.6581,0,0,0,.497-.147.7645.7645,0,0,0,.1328-.5108v-1.3442h1.0079v2.002h1.582v.9941h-1.582v5.2358h1.47v.9942Z"/><path d="M276.9536,392.3958a3.2428,3.2428,0,0,1-1.3369-.2661,2.8855,2.8855,0,0,1-1.022-.7627,3.5007,3.5007,0,0,1-.6577-1.19,5.369,5.369,0,0,1,0-3.1152,3.4834,3.4834,0,0,1,.6577-1.1968,2.881,2.881,0,0,1,1.022-.7632,3.2444,3.2444,0,0,1,1.3369-.2661,3.0734,3.0734,0,0,1,1.3023.2651,2.8876,2.8876,0,0,1,.98.7329,3.2679,3.2679,0,0,1,.6231,1.1089,4.3793,4.3793,0,0,1,.2168,1.4087v.53h-5.1939v.3364a2.4709,2.4709,0,0,0,.147.8609,2.05,2.05,0,0,0,.42.6928,1.9147,1.9147,0,0,0,.6724.4619,2.3,2.3,0,0,0,.9028.168,2.1957,2.1957,0,0,0,1.1968-.3218,2.11,2.11,0,0,0,.791-.9238l.7984.5776a2.7892,2.7892,0,0,1-1.0923,1.2041A3.2927,3.2927,0,0,1,276.9536,392.3958Zm0-6.622a2.1391,2.1391,0,0,0-.84.16,1.8906,1.8906,0,0,0-.6509.4522,2.1291,2.1291,0,0,0-.4273.6885,2.3891,2.3891,0,0,0-.1538.87v.0971h3.99v-.1533a2.1968,2.1968,0,0,0-.5254-1.5371A1.7909,1.7909,0,0,0,276.9536,385.7738Z"/></g></svg>