<?xml version="1.0" encoding="UTF-8"?>
<svg xmlns="http://www.w3.org/2000/svg" viewBox="0 0 992.68 374.36">
  <defs>
    <style>
      .cls-1, .cls-2, .cls-3 {
        stroke-linecap: round;
      }

      .cls-1, .cls-2, .cls-3, .cls-4 {
        stroke-linejoin: round;
      }

      .cls-1, .cls-3, .cls-5, .cls-6, .cls-4 {
        stroke: #000;
      }

      .cls-1, .cls-4 {
        fill: #9ef0f0;
      }

      .cls-2, .cls-3, .cls-7, .cls-6 {
        fill: none;
      }

      .cls-2, .cls-7 {
        stroke: #231815;
      }

      .cls-8 {
        fill: #f2f4f8;
      }

      .cls-9 {
        fill: #f1c21b;
      }

      .cls-10 {
        fill: #da1e28;
      }

      .cls-11 {
        fill: #231815;
      }

      .cls-12 {
        fill: #198038;
      }

      .cls-13 {
        fill: #878d96;
      }

      .cls-14 {
        fill: #50565b;
      }

      .cls-15 {
        font-size: 16px;
      }

      .cls-15, .cls-16 {
        font-family: IBMPlexSans-SemiBold, 'IBMPlexSans SemiBold';
        font-weight: 600;
      }

      .cls-5 {
        fill: #e3f6ff;
      }

      .cls-5, .cls-7, .cls-6 {
        stroke-miterlimit: 10;
      }

      .cls-17 {
        fill: #fff;
        font-size: 15.14px;
      }

      .cls-17, .cls-18 {
        font-family: IBMPlexSans, 'IBM Plex Sans';
      }

      .cls-18 {
        font-size: 14px;
      }

      .cls-16 {
        font-size: 18px;
      }
    </style>
  </defs>
  <g id="Figure">
    <rect class="cls-5" x="625.18" y="188.71" width="140" height="100"/>
    <rect class="cls-5" x="852.18" y="188.71" width="140" height="100"/>
    <rect class="cls-5" x="398.18" y="188.71" width="140" height="100"/>
    <rect class="cls-5" x="171.18" y="188.71" width="140" height="100"/>
    <ellipse class="cls-10" cx="871.7" cy="239.83" rx="5.58" ry="5.63"/>
    <circle class="cls-9" cx="190.75" cy="239.88" r="5.58"/>
    <circle class="cls-13" cx="642.17" cy="239.88" r="5.58"/>
    <circle class="cls-12" cx="417.86" cy="239.88" r="5.58"/>
    <g>
      <circle class="cls-8" cx="48.19" cy="238.71" r="40"/>
      <g id="key">
        <path class="cls-1" d="M46.07,243.17c-1.49,5.27-6.34,9.13-12.1,9.13-6.96,0-12.62-5.63-12.62-12.59s5.66-12.62,12.62-12.62c5.14,0,9.54,3.08,11.5,7.51"/>
        <circle cx="29.83" cy="239.69" r="2.7"/>
        <polyline class="cls-4" points="45.47 234.59 70.68 234.59 75.4 239.31 71.34 243.38 55.48 243.38 52.64 240.56 50.03 243.17 46.07 243.17"/>
      </g>
      <g>
        <circle class="cls-14" cx="78.94" cy="262.54" r="9.19"/>
        <text class="cls-17" transform="translate(74.4 267.11)"><tspan x="0" y="0">+</tspan></text>
      </g>
    </g>
  </g>
  <g id="Line">
    <g>
      <polyline class="cls-3" points="695.18 184.71 695.18 124.71 467.18 124.71 467.18 180.4"/>
      <polygon points="464.19 179.52 467.18 184.71 470.18 179.52 464.19 179.52"/>
    </g>
    <g>
      <line class="cls-7" x1="317.6" y1="238.71" x2="386.45" y2="238.71"/>
      <polygon class="cls-11" points="385.57 241.7 390.75 238.71 385.57 235.71 385.57 241.7"/>
    </g>
    <g>
      <line class="cls-7" x1="93" y1="238.71" x2="161.06" y2="238.71"/>
      <polygon class="cls-11" points="160.19 241.7 165.37 238.71 160.19 235.71 160.19 241.7"/>
    </g>
    <g>
      <polyline class="cls-6" points="238.18 185.21 238.18 80.21 920.18 80.21 920.18 180.9"/>
      <polygon points="917.19 180.02 920.18 185.21 923.18 180.02 917.19 180.02"/>
    </g>
    <g>
      <polyline class="cls-3" points="48.68 291.99 48.68 351.99 467.18 351.99 467.18 296.3"/>
      <polygon points="470.18 297.17 467.18 291.99 464.19 297.17 470.18 297.17"/>
    </g>
    <g>
      <line class="cls-2" x1="544.6" y1="238.71" x2="613.46" y2="238.71"/>
      <polygon class="cls-11" points="612.58 241.7 617.76 238.71 612.58 235.71 612.58 241.7"/>
    </g>
    <g>
      <line class="cls-2" x1="772.6" y1="238.71" x2="841.46" y2="238.71"/>
      <polygon class="cls-11" points="840.58 241.7 845.76 238.71 840.58 235.71 840.58 241.7"/>
    </g>
  </g>
  <g id="Text">
    <text class="cls-15" transform="translate(892.89 245.48)"><tspan x="0" y="0">Destroyed</tspan></text>
    <text class="cls-18" transform="translate(547.03 116.62)"><tspan x="0" y="0">Reactivate</tspan></text>
    <text class="cls-16" transform="translate(0 15.07)"><tspan x="0" y="0">Key lifecycle in Unified Key Orchestrator</tspan></text>
    <text class="cls-15" transform="translate(661.44 245.48)"><tspan x="0" y="0">Deactivated</tspan></text>
    <text class="cls-15" transform="translate(444.05 245.48)"><tspan x="0" y="0">Active</tspan></text>
    <text class="cls-15" transform="translate(212.05 245.48)"><tspan x="0" y="0">Pre-active</tspan></text>
    <text class="cls-18" transform="translate(781.92 230.93)"><tspan x="0" y="0">Destroy</tspan></text>
    <text class="cls-18" transform="translate(319.22 214.13)"><tspan x="0" y="0">Activate</tspan><tspan x="0" y="16.8">(manually)</tspan></text>
    <text class="cls-18" transform="translate(545.69 214.13)"><tspan x="0" y="0">Deactivate</tspan><tspan x="0" y="16.8">(manually)</tspan></text>
    <text class="cls-18" transform="translate(555.81 70.77)"><tspan x="0" y="0">Destroy</tspan></text>
    <text class="cls-18" transform="translate(105.45 230.93)"><tspan x="0" y="0">Create</tspan></text>
    <text class="cls-18" transform="translate(220.45 370.93)"><tspan x="0" y="0">Create</tspan></text>
  </g>
</svg>