<svg xmlns="http://www.w3.org/2000/svg" width="1056" height="792" viewBox="0 0 1056 792"><defs><style>.cls-1{fill:#f4f4f4;}.cls-1,.cls-10,.cls-11,.cls-13,.cls-18,.cls-2,.cls-20,.cls-5,.cls-6,.cls-7,.cls-8,.cls-9{stroke:#000;}.cls-1,.cls-10,.cls-11,.cls-18,.cls-2,.cls-3,.cls-5{stroke-miterlimit:10;}.cls-10,.cls-2,.cls-21,.cls-27{fill:#fff;}.cls-2,.cls-7{stroke-dasharray:2;}.cls-11,.cls-13,.cls-18,.cls-20,.cls-3,.cls-7{fill:none;}.cls-3{stroke:#50565b;}.cls-18,.cls-3{stroke-width:2px;}.cls-4{fill:#50565b;}.cls-5{fill:#e3f6ff;}.cls-12,.cls-6{fill:#b3e6ff;}.cls-13,.cls-14,.cls-15,.cls-20,.cls-6,.cls-7,.cls-8,.cls-9{stroke-linejoin:round;}.cls-10,.cls-11,.cls-13,.cls-14,.cls-20,.cls-7,.cls-8{stroke-linecap:round;}.cls-8,.cls-9{fill:#87eded;}.cls-14,.cls-15{fill:#dbfbfb;stroke:#20d5d2;}.cls-16{fill:#f2f4f8;}.cls-17{fill:#20d5d2;}.cls-19{fill:#333;}.cls-20{stroke-dasharray:2 2;}.cls-22,.cls-24{font-size:16px;}.cls-22,.cls-23,.cls-27{font-family:IBMPlexSans, IBM Plex Sans;}.cls-23,.cls-27{font-size:14px;}.cls-24,.cls-26{font-family:IBMPlexSans-SemiBold, IBM Plex Sans;font-weight:600;}.cls-25{font-family:IBMPlexSans-Text, IBM Plex Sans;}.cls-26{font-size:18px;}</style></defs><g id="Layer_1" data-name="Layer 1"><rect class="cls-1" x="352.1755" y="149.8316" width="395.0645" height="527.9823"/><rect class="cls-2" x="576.1811" y="195.1836" width="143.9066" height="446.6536"/><line class="cls-3" x1="142.4248" y1="226.9891" x2="347.1133" y2="226.9891"/><polygon class="cls-4" points="345.946 230.978 352.854 226.989 345.946 223 345.946 230.978"/><rect class="cls-5" x="376.5871" y="362.5941" width="159.03" height="147.8516"/><g id="Hardware"><rect class="cls-6" x="428.9499" y="412.5786" width="54.3044" height="14.3747"/><polygon class="cls-6" points="483.254 412.046 428.95 412.046 438.533 391.283 473.671 391.283 483.254 412.046"/><rect x="463.2895" y="416.5715" width="6.3888" height="6.3888"/><rect x="472.074" y="416.5715" width="6.3888" height="6.3888"/></g><line class="cls-7" x1="464.8571" y1="226.9891" x2="574.8235" y2="226.9891"/><g id="key"><path class="cls-8" d="M900.0257,271.261a15.857,15.857,0,1,1-8.15-7.0852"/><circle cx="882.5211" cy="282.5911" r="3.394"/><polyline class="cls-9" points="891.875 264.176 914.266 241.786 922.647 241.786 922.647 249.01 908.57 263.088 903.545 263.111 903.545 267.742 900.026 271.261"/></g><g id="Doc"><polygon class="cls-10" points="879.244 244.566 879.244 295.476 919.972 295.476 919.972 254.748 909.79 244.566 879.244 244.566"/><polyline class="cls-11" points="909.79 244.566 909.79 254.748 919.972 254.748"/><line class="cls-11" x1="887.3892" y1="276.1304" x2="905.2079" y2="276.1304"/><line class="cls-11" x1="887.3892" y1="260.6876" x2="911.8262" y2="260.6876"/><line class="cls-11" x1="887.3892" y1="268.3241" x2="911.8262" y2="268.3241"/></g><g id="lock"><g id="lock-2" data-name="lock"><rect class="cls-12" x="915.9804" y="283.4638" width="9.5033" height="5.4304"/><path class="cls-8" d="M931.5929,296.4945a10.8609,10.8609,0,1,1-10.8609-10.8608A10.8607,10.8607,0,0,1,931.5929,296.4945Zm-5.43-9.4076v-6.8837a5.43,5.43,0,0,0-10.8609,0v6.8837m5.43,8.8646v3.8013"/><circle cx="920.732" cy="295.9515" r="1.6291"/></g></g><path class="cls-13" d="M909.9933,298.1939c-1.5476-.801-3.1225-1.697-4.738-2.7152-1.8057-1.1269-3.6384-2.403-5.4848-3.7878-1.0046-.76-2.0092-1.5476-3.0139-2.3758a100.0028,100.0028,0,0,1-7.589-6.8695,101.6523,101.6523,0,0,1-7.2089-7.9963c-.9639-1.1811-1.86-2.3623-2.7152-3.53-.4616-.6245-.8961-1.249-1.3169-1.86-.7331-1.0725-1.4391-2.1315-2.0772-3.19-6.3807-10.2907-8.39-19.4138-4.3307-23.4731,3.5569-3.5569,11.0238-2.4573,19.74,2.1722"/><g id="key-2" data-name="key"><path class="cls-14" d="M409.9288,227.9433a15.857,15.857,0,1,1-.7531-10.7731"/><circle cx="389.5396" cy="223.5773" r="3.394"/><polyline class="cls-15" points="409.176 217.17 440.84 217.17 446.767 223.097 441.659 228.205 421.75 228.205 418.181 224.669 414.906 227.943 409.929 227.943"/></g><path class="cls-16" d="M175.0074,228.4451H293.1195a0,0,0,0,1,0,0v35.3707a4,4,0,0,1-4,4H179.0074a4,4,0,0,1-4-4V228.4451A0,0,0,0,1,175.0074,228.4451Z"/><g id="key-3" data-name="key"><path class="cls-14" d="M633.2593,459.102a15.857,15.857,0,1,1-.7531-10.7731"/><circle class="cls-17" cx="612.87" cy="454.736" r="3.394"/><polyline class="cls-15" points="632.506 448.329 664.171 448.329 670.097 454.256 664.989 459.364 645.08 459.364 641.511 455.828 638.237 459.102 633.259 459.102"/></g><g id="key-4" data-name="key"><path class="cls-14" d="M633.2593,366.7846a15.857,15.857,0,1,1-.7531-10.7731"/><circle class="cls-17" cx="612.87" cy="362.4186" r="3.394"/><polyline class="cls-15" points="632.506 356.011 664.171 356.011 670.097 361.938 664.989 367.047 645.08 367.047 641.511 363.51 638.237 366.785 633.259 366.785"/></g><g id="key-5" data-name="key"><path class="cls-14" d="M633.2593,274.4671a15.857,15.857,0,1,1-.7531-10.7731"/><circle class="cls-17" cx="612.87" cy="270.1011" r="3.394"/><polyline class="cls-15" points="632.506 263.694 664.171 263.694 670.097 269.621 664.989 274.729 645.08 274.729 641.511 271.193 638.237 274.467 633.259 274.467"/></g><g id="key-6" data-name="key"><path class="cls-8" d="M633.2593,570.7412a15.8569,15.8569,0,1,1-.7531-10.7732"/><circle cx="612.87" cy="566.3751" r="3.394"/><polyline class="cls-9" points="632.506 559.968 664.171 559.968 670.097 565.895 664.989 571.003 645.08 571.003 641.511 567.467 638.237 570.741 633.259 570.741"/></g><line class="cls-18" x1="325.7021" y1="96.206" x2="325.7021" y2="709.7177"/><circle class="cls-19" cx="113.3073" cy="215.7434" r="8.1457"/><path class="cls-19" d="M127.5622,237.4651v4.0728h-28.51v-4.0728a12.2544,12.2544,0,0,1,12.2185-12.2185h4.0729A12.2544,12.2544,0,0,1,127.5622,237.4651Z"/><g id="key-7" data-name="key"><path class="cls-14" d="M409.9288,233.3738a15.8569,15.8569,0,1,1-.7531-10.7732"/><circle cx="389.5396" cy="229.0078" r="3.394"/><polyline class="cls-15" points="409.176 222.601 440.84 222.601 446.767 228.527 441.659 233.636 421.75 233.636 418.181 230.099 414.906 233.374 409.929 233.374"/></g><g id="key-8" data-name="key"><path class="cls-8" d="M409.9288,238.8042a15.857,15.857,0,1,1-.7531-10.7731"/><circle cx="389.5396" cy="234.4382" r="3.394"/><polyline class="cls-9" points="409.176 228.031 440.84 228.031 446.767 233.958 441.659 239.066 421.75 239.066 418.181 235.53 414.906 238.804 409.929 238.804"/></g><line class="cls-7" x1="410.5527" y1="296.3255" x2="410.5527" y2="362.8484"/><line class="cls-7" x1="410.5527" y1="510.8279" x2="410.5527" y2="565.1323"/><line class="cls-20" x1="567.8025" y1="565.1323" x2="410.5527" y2="565.1323"/><polygon points="566.927 562.14 572.108 565.132 566.927 568.124 566.927 562.14"/><line class="cls-7" x1="720.0877" y1="565.1323" x2="900.5" y2="565.1323"/><line class="cls-20" x1="900.501" y1="565.4734" x2="900.501" y2="501.7791"/><polygon points="903.493 502.654 900.501 497.473 897.509 502.654 903.493 502.654"/><line class="cls-20" x1="905.5" y1="407.4725" x2="905.5" y2="343.7783"/><polygon points="908.492 344.654 905.5 339.473 902.508 344.654 908.492 344.654"/><circle class="cls-17" cx="693.6143" cy="564.4535" r="8.1457"/><polygon class="cls-21" points="692.408 567.053 689.022 563.667 688.32 564.306 691.706 567.692 692.408 568.395 699.181 561.622 698.478 560.92 692.408 567.053"/><circle class="cls-4" cx="231.1444" cy="206.9038" r="11.5397"/><circle class="cls-4" cx="388.8309" cy="326.193" r="11.5397"/><circle class="cls-4" cx="790.3193" cy="266.7232" r="11.5397"/><circle class="cls-4" cx="927.2595" cy="528.8746" r="11.5397"/><circle class="cls-4" cx="927.2595" cy="372.8746" r="11.5397"/><circle class="cls-4" cx="114.5938" cy="414.4376" r="11.5397"/><circle class="cls-4" cx="114.5938" cy="463.2674" r="11.5397"/><circle class="cls-4" cx="114.5938" cy="525.0971" r="11.5397"/><circle class="cls-4" cx="114.5938" cy="590.9269" r="11.5397"/><line class="cls-7" x1="790.5" y1="472.4725" x2="790.5" y2="288.4725"/><line class="cls-7" x1="720.5" y1="472.9439" x2="790.5" y2="472.9439"/><line class="cls-7" x1="720.7121" y1="379.9439" x2="790.5" y2="379.9439"/><g id="Doc-2" data-name="Doc"><polygon class="cls-10" points="879.78 418.602 879.78 469.513 920.508 469.513 920.508 428.785 910.326 418.602 879.78 418.602"/><polyline class="cls-11" points="910.326 418.602 910.326 428.785 920.508 428.785"/><line class="cls-11" x1="887.9257" y1="450.1669" x2="905.7443" y2="450.1669"/><line class="cls-11" x1="887.9257" y1="434.7241" x2="912.3627" y2="434.7241"/><line class="cls-11" x1="887.9257" y1="442.3607" x2="912.3627" y2="442.3607"/></g><line class="cls-20" x1="847.1943" y1="287.0577" x2="720.5" y2="287.0577"/><polygon points="846.319 284.066 851.5 287.058 846.319 290.049 846.319 284.066"/><circle cx="633" cy="516.9725" r="1"/><circle cx="633" cy="523.9725" r="1"/><circle cx="633" cy="530.9725" r="1"/><line class="cls-20" x1="892.5" y1="341.4725" x2="892.5" y2="405.1668"/><polygon points="889.508 404.291 892.5 409.473 895.492 404.291 889.508 404.291"/></g><g id="Text"><text class="cls-22" transform="translate(850.8301 328.7879)">Wrapped data</text><text class="cls-22" transform="translate(388.4883 464.4061)">Hardware security <tspan x="40.3994" y="19.2002">module</tspan></text><text class="cls-23" transform="translate(198.3755 249.7372)">Rotate key</text><text class="cls-24" transform="translate(375.4351 181.4628)">Hyper Protect Crypto Services</text><text class="cls-22" transform="translate(601.1592 231.5497)">Manged key A</text><text class="cls-22" transform="translate(363.314 279.0663)">Managed key <tspan class="cls-25" x="98.4312" y="0">A</tspan></text><text class="cls-22" transform="translate(598.6748 405.6864)">Version 2</text><text class="cls-22" transform="translate(598.6748 497.326)">Version 3</text><text class="cls-22" transform="translate(584.5361 608.9647)">Latest key version</text><text class="cls-22" transform="translate(599.6748 314.0467)">Version 1</text><text class="cls-24" transform="translate(351.7446 119.3456)">IBM Cloud</text><text class="cls-26" transform="translate(103.3911 65.2831)">Managed key rotation</text><text class="cls-23" transform="translate(142.5005 416.9881)">A request is initiated to <tspan x="0" y="16.7998">rotate a managed key</tspan></text><text class="cls-23" transform="translate(142.5005 462.8172)">The service generates new <tspan x="0" y="16.7998">key material that replaces </tspan><tspan x="0" y="33.5996">the previous key material</tspan></text><text class="cls-23" transform="translate(142.5005 524.6473)">The latest key material <tspan x="0" y="16.7998">becomes available for </tspan><tspan x="0" y="33.5996">wrap operations</tspan></text><text class="cls-23" transform="translate(142.5005 590.4774)">Previous key materials <tspan x="0" y="16.7998">remain available for </tspan><tspan x="0" y="33.5996">unwrap operations</tspan></text><text class="cls-27" transform="translate(226.6655 211.4139)">1</text><text class="cls-27" transform="translate(384.3521 330.703)">2</text><text class="cls-27" transform="translate(785.8398 271.2333)">4</text><text class="cls-27" transform="translate(922.7813 533.3846)">3</text><text class="cls-27" transform="translate(922.7813 377.3846)">3</text><text class="cls-27" transform="translate(110.1147 418.9481)">1</text><text class="cls-27" transform="translate(110.1147 467.7772)">2</text><text class="cls-27" transform="translate(110.1147 529.6063)">3</text><text class="cls-27" transform="translate(110.1147 595.4364)">4</text><text class="cls-22" transform="translate(883.0244 488.6826)">Data</text><circle class="cls-4" cx="871.448" cy="372.6155" r="11.5397"/><text class="cls-27" transform="translate(866.9686 377.1255)">4</text></g></svg>