<svg xmlns="http://www.w3.org/2000/svg" width="1056" height="480" viewBox="0 0 1056 480">
    <defs>
        <style>.cls-1{fill:#e3f6ff;}.cls-1,.cls-11,.cls-14,.cls-7,.cls-8{stroke:#000;}.cls-1,.cls-12,.cls-14{stroke-miterlimit:10;}.cls-2{fill:#da1e28;}.cls-3{fill:#f1c21b;}.cls-4{fill:#878d96;}.cls-5{fill:#198038;}.cls-6{fill:#f2f4f8;}.cls-7,.cls-8{fill:#9ef0f0;}.cls-11,.cls-15,.cls-7{stroke-linecap:round;}.cls-11,.cls-15,.cls-7,.cls-8{stroke-linejoin:round;}.cls-9{fill:#50565b;}.cls-10{font-size:15.1351px;fill:#fff;}.cls-10,.cls-17{font-family:IBMPlexSans, IBM Plex Sans;}.cls-11,.cls-12,.cls-14,.cls-15{fill:none;}.cls-12,.cls-15{stroke:#231815;}.cls-13{fill:#231815;}.cls-16{font-size:16px;}.cls-16,.cls-18{font-family:IBMPlexSans-SemiBold, IBM Plex Sans;font-weight:600;}.cls-17{font-size:14px;}.cls-18{font-size:18px;}</style>
    </defs>
    <g id="Figure">
        <rect class="cls-1" x="644" y="210" width="140" height="100" />
        <rect class="cls-1" x="871" y="210" width="140" height="100" />
        <rect class="cls-1" x="417" y="210" width="140" height="100" />
        <rect class="cls-1" x="190" y="210" width="140" height="100" />
        <ellipse class="cls-2" cx="890.5116" cy="261.1252" rx="5.5782" ry="5.6295" />
        <circle class="cls-3" cx="209.5632" cy="261.1765" r="5.5782" />
        <circle class="cls-4" cx="660.9892" cy="261.1765" r="5.5782" />
        <circle class="cls-5" cx="436.6776" cy="261.1765" r="5.5782" />
        <circle class="cls-6" cx="67.0028" cy="260" r="40" />
        <g id="key">
            <path class="cls-7" d="M64.8844,264.4653a12.6271,12.6271,0,1,1-.6-8.5787" />
            <circle cx="48.6482" cy="260.9886" r="2.7027" />
            <polyline class="cls-8" points="64.285 255.887 89.499 255.887 94.219 260.606 90.151 264.674 74.298 264.674 71.455 261.858 68.848 264.465 64.884 264.465" />
        </g>
        <circle class="cls-9" cx="97.7595" cy="283.8345" r="9.1892" />
        <text class="cls-10" transform="translate(93.2188 288.4064)">+</text>
    </g>
    <g id="Line">
        <polyline class="cls-11" points="714 206 714 146 486 146 486 201.694" />
        <polygon points="483.008 200.819 486 206 488.992 200.819 483.008 200.819" />
        <line class="cls-12" x1="336.4207" y1="260" x2="405.2619" y2="260" />
        <polygon class="cls-13" points="404.387 262.992 409.568 260 404.387 257.008 404.387 262.992" />
        <line class="cls-12" x1="111.814" y1="260" x2="179.8802" y2="260" />
        <polygon class="cls-13" points="179.005 262.992 184.186 260 179.005 257.008 179.005 262.992" />
        <polyline class="cls-14" points="257 206.5 257 101.5 939 101.5 939 202.194" />
        <polygon points="936.008 201.319 939 206.5 941.992 201.319 936.008 201.319" />
        <polyline class="cls-11" points="67.5 313.285 67.5 373.285 486 373.285 486 317.59" />
        <polygon points="488.992 318.466 486 313.285 483.008 318.466 488.992 318.466" />
        <line class="cls-15" x1="563.4207" y1="260" x2="632.2736" y2="260" />
        <polygon class="cls-13" points="631.398 262.992 636.579 260 631.398 257.008 631.398 262.992" />
        <line class="cls-15" x1="791.4207" y1="260" x2="860.2736" y2="260" />
        <polygon class="cls-13" points="859.398 262.992 864.579 260 859.398 257.008 859.398 262.992" />
    </g>
    <g id="Text">
        <text class="cls-16" transform="translate(908.0918 266.7713)">Destroyed</text>
        <text class="cls-17" transform="translate(565.8506 137.912)">Reactivate</text>
        <text class="cls-18" transform="translate(18.8159 36.3602)">Key lifecycle in Unified Key Orchestrator</text>
        <text class="cls-16" transform="translate(675.751 266.7713)">Deactivated</text>
        <text class="cls-16" transform="translate(462.8638 266.7713)">Active</text>
        <text class="cls-16" transform="translate(225.6386 266.7713)">Pre-active</text>
        <text class="cls-17" transform="translate(800.731 252.2278)">Destroy</text>
        <text class="cls-17" transform="translate(338.0366 235.4276)">
            Activate
            <tspan x="0" y="16.7998">(manually)</tspan>
        </text>
        <text class="cls-17" transform="translate(564.502 235.4276)">
            Deactivate
            <tspan x="0" y="16.7998">(manually)</tspan>
        </text>
        <text class="cls-17" transform="translate(574.623 92.0682)">Destroy</text>
        <text class="cls-17" transform="translate(124.2663 252.2279)">Create</text>
        <text class="cls-17" transform="translate(239.266 392.2278)">Create</text>
    </g>
</svg>