<svg xmlns="http://www.w3.org/2000/svg" xmlns:xlink="http://www.w3.org/1999/xlink" width="1056" height="720" viewBox="0 0 1056 720"><defs><style>.cls-1{fill:#fff;}.cls-2{fill:url(#linear-gradient);}.cls-3{fill:url(#linear-gradient-2);}.cls-13,.cls-14,.cls-4,.cls-7{fill:none;}.cls-5{fill:#f4f4f4;}.cls-10,.cls-11,.cls-12,.cls-14,.cls-16,.cls-17,.cls-5,.cls-9{stroke:#000;}.cls-10,.cls-13,.cls-14,.cls-15,.cls-5,.cls-7,.cls-8{stroke-miterlimit:10;}.cls-15,.cls-6{fill:#4d5358;}.cls-15,.cls-7{stroke:#4d5358;stroke-width:2px;}.cls-8{fill:#dde1e6;}.cls-13,.cls-8{stroke:#6f6f6f;}.cls-9{fill:#b3e6ff;}.cls-11,.cls-12,.cls-16,.cls-17,.cls-9{stroke-linejoin:round;}.cls-10{fill:#e3f6ff;}.cls-11,.cls-12{fill:#d4bbff;}.cls-11,.cls-16{stroke-linecap:round;}.cls-16,.cls-17{fill:#9ef0f0;}.cls-18{mask:url(#mask);}.cls-19{clip-path:url(#clip-path);}.cls-20{fill:#3ddbd9;}.cls-21{fill:#3cdad9;}.cls-22{fill:#3cd9d9;}.cls-23{fill:#3bd8da;}.cls-24{fill:#3bd7da;}.cls-25{fill:#3ad6da;}.cls-26{fill:#39d5da;}.cls-27{fill:#39d4da;}.cls-28{fill:#38d3db;}.cls-29{fill:#38d2db;}.cls-30{fill:#37d1db;}.cls-31{fill:#36d0db;}.cls-32{fill:#36cfdc;}.cls-33{fill:#35cedc;}.cls-34{fill:#34cddc;}.cls-35{fill:#34ccdc;}.cls-36{fill:#33cbdc;}.cls-37{fill:#33cadd;}.cls-38{fill:#32c9dd;}.cls-39{fill:#31c8dd;}.cls-40{fill:#31c7dd;}.cls-41{fill:#30c6dd;}.cls-42{fill:#30c5de;}.cls-43{fill:#2fc4de;}.cls-44{fill:#2ec3de;}.cls-45{fill:#2ec2de;}.cls-46{fill:#2dc1de;}.cls-47{fill:#2dc0df;}.cls-48{fill:#2cbfdf;}.cls-49{fill:#2bbedf;}.cls-50{fill:#2bbddf;}.cls-51{fill:#2abcdf;}.cls-52{fill:#29bbe0;}.cls-53{fill:#29bae0;}.cls-54{fill:#28b9e0;}.cls-55{fill:#28b8e0;}.cls-56{fill:#27b7e1;}.cls-57{fill:#26b5e1;}.cls-58{fill:#26b4e1;}.cls-59{fill:#25b3e1;}.cls-60{fill:#25b2e1;}.cls-61{fill:#24b1e2;}.cls-62{fill:#23b0e2;}.cls-63{fill:#23afe2;}.cls-64{fill:#22aee2;}.cls-65{fill:#22ade2;}.cls-66{fill:#21ace3;}.cls-67{fill:#20abe3;}.cls-68{fill:#20aae3;}.cls-69{fill:#1fa9e3;}.cls-70{fill:#1ea8e3;}.cls-71{fill:#1ea7e4;}.cls-72{fill:#1da6e4;}.cls-73{fill:#1da5e4;}.cls-74{fill:#1ca4e4;}.cls-75{fill:#1ba3e4;}.cls-76{fill:#1ba2e5;}.cls-77{fill:#1aa1e5;}.cls-78{fill:#1aa0e5;}.cls-79{fill:#199fe5;}.cls-80{fill:#189ee6;}.cls-81{fill:#189de6;}.cls-82{fill:#179ce6;}.cls-83{fill:#179be6;}.cls-84{fill:#169ae6;}.cls-85{fill:#1599e7;}.cls-86{fill:#1598e7;}.cls-87{fill:#1497e7;}.cls-88{fill:#1396e7;}.cls-89{fill:#1395e7;}.cls-90{fill:#1294e8;}.cls-91{fill:#1293e8;}.cls-92{fill:#1192e8;}.cls-93{mask:url(#mask-2);}.cls-94{clip-path:url(#clip-path-2);}.cls-95{fill:#a56eff;}.cls-96{fill:#a46eff;}.cls-97{fill:#a36eff;}.cls-98{fill:#a26eff;}.cls-99{fill:#a16eff;}.cls-100{fill:#a06eff;}.cls-101{fill:#9f6eff;}.cls-102{fill:#9e6dff;}.cls-103{fill:#9d6dff;}.cls-104{fill:#9c6dff;}.cls-105{fill:#9b6dff;}.cls-106{fill:#9a6dff;}.cls-107{fill:#996dff;}.cls-108{fill:#986dff;}.cls-109{fill:#976dff;}.cls-110{fill:#966dff;}.cls-111{fill:#956dff;}.cls-112{fill:#946dff;}.cls-113{fill:#936dff;}.cls-114{fill:#926cff;}.cls-115{fill:#916cff;}.cls-116{fill:#906cff;}.cls-117{fill:#8f6cff;}.cls-118{fill:#8e6cff;}.cls-119{fill:#8d6cff;}.cls-120{fill:#8c6cff;}.cls-121{fill:#8b6cff;}.cls-122{fill:#8a6cff;}.cls-123{fill:#896cff;}.cls-124{fill:#886cff;}.cls-125{fill:#876cff;}.cls-126{fill:#866cff;}.cls-127{fill:#856bff;}.cls-128{fill:#846bff;}.cls-129{fill:#836bff;}.cls-130{fill:#826bff;}.cls-131{fill:#816bff;}.cls-132{fill:#806bff;}.cls-133{fill:#7f6bff;}.cls-134{fill:#7e6bff;}.cls-135{fill:#7d6bff;}.cls-136{fill:#7c6bff;}.cls-137{fill:#7b6bff;}.cls-138{fill:#7a6bff;}.cls-139{fill:#796aff;}.cls-140{fill:#786aff;}.cls-141{fill:#776aff;}.cls-142{fill:#766aff;}.cls-143{fill:#756aff;}.cls-144{fill:#746aff;}.cls-145{fill:#736aff;}.cls-146{fill:#726aff;}.cls-147{fill:#716aff;}.cls-148{fill:#706aff;}.cls-149{fill:#6f6aff;}.cls-150{fill:#6e6aff;}.cls-151{fill:#6d69ff;}.cls-152{fill:#6c69ff;}.cls-153{fill:#6b69ff;}.cls-154{fill:#6a69ff;}.cls-155{fill:#6969ff;}.cls-156{fill:#6869ff;}.cls-157{fill:#6769ff;}.cls-158{fill:#6669ff;}.cls-159{fill:#6569ff;}.cls-160{fill:#6469ff;}.cls-161{fill:#6369ff;}.cls-162{fill:#6269ff;}.cls-163{fill:#6169ff;}.cls-164{fill:#6068ff;}.cls-165{fill:#5f68ff;}.cls-166{fill:#5e68ff;}.cls-167{fill:#5d68ff;}.cls-168{fill:#5c68ff;}.cls-169{fill:#5b68ff;}.cls-170{fill:#5968fe;}.cls-171{fill:#5868fe;}.cls-172{fill:#5768fe;}.cls-173{fill:#5668fe;}.cls-174{fill:#5568fe;}.cls-175{fill:#5468fe;}.cls-176{fill:#5367fe;}.cls-177{fill:#5267fe;}.cls-178{fill:#5167fe;}.cls-179{fill:#5067fe;}.cls-180{fill:#4f67fe;}.cls-181{fill:#4e67fe;}.cls-182{fill:#4d67fe;}.cls-183{fill:#4c67fe;}.cls-184{fill:#4b67fe;}.cls-185{fill:#4a67fe;}.cls-186{fill:#4967fe;}.cls-187{fill:#4867fe;}.cls-188{fill:#4767fe;}.cls-189{fill:#4666fe;}.cls-190{fill:#4566fe;}.cls-191{fill:#4466fe;}.cls-192{fill:#4366fe;}.cls-193{fill:#4266fe;}.cls-194{fill:#4166fe;}.cls-195{fill:#4066fe;}.cls-196{fill:#3f66fe;}.cls-197{fill:#3e66fe;}.cls-198{fill:#3d66fe;}.cls-199{fill:#3c66fe;}.cls-200{fill:#3b66fe;}.cls-201{fill:#3a65fe;}.cls-202{fill:#3965fe;}.cls-203{fill:#3865fe;}.cls-204{fill:#3765fe;}.cls-205{fill:#3665fe;}.cls-206{fill:#3565fe;}.cls-207{fill:#3465fe;}.cls-208{fill:#3365fe;}.cls-209{fill:#3265fe;}.cls-210{fill:#3165fe;}.cls-211{fill:#3065fe;}.cls-212{fill:#2f65fe;}.cls-213{fill:#2e64fe;}.cls-214{fill:#2d64fe;}.cls-215{fill:#2c64fe;}.cls-216{fill:#2b64fe;}.cls-217{fill:#2a64fe;}.cls-218{fill:#2964fe;}.cls-219{fill:#2864fe;}.cls-220{fill:#2764fe;}.cls-221{fill:#2664fe;}.cls-222{fill:#2564fe;}.cls-223{fill:#2464fe;}.cls-224{fill:#2364fe;}.cls-225{fill:#2264fe;}.cls-226{fill:#2163fe;}.cls-227{fill:#2063fe;}.cls-228{fill:#1f63fe;}.cls-229{fill:#1e63fe;}.cls-230{fill:#1d63fe;}.cls-231{fill:#1c63fe;}.cls-232{fill:#1b63fe;}.cls-233{fill:#1a63fe;}.cls-234{fill:#1963fe;}.cls-235{fill:#1863fe;}.cls-236{fill:#1763fe;}.cls-237{fill:#1663fe;}.cls-238{fill:#1562fe;}.cls-239{fill:#1462fe;}.cls-240{fill:#1362fe;}.cls-241{fill:#1262fe;}.cls-242{fill:#1162fe;}.cls-243{fill:#1062fe;}.cls-244{fill:#0f62fe;}.cls-245{fill:#001d6c;}.cls-246{fill:#4285f4;}.cls-247{fill:#34a853;}.cls-248{fill:#ea4335;}.cls-249{fill:#fbbc05;}.cls-250{fill:#252f3e;}.cls-251{fill:#f90;fill-rule:evenodd;}.cls-252{mask:url(#mask-3);}.cls-253{fill:url(#linear-gradient-3);}.cls-254{font-size:18px;}.cls-254,.cls-255{font-family:IBMPlexSans-SemiBold, IBM Plex Sans;font-weight:600;}.cls-255,.cls-256,.cls-257{font-size:16px;}.cls-256,.cls-257{font-family:IBMPlexSans, IBM Plex Sans;}.cls-257{fill:#6f6f6f;}</style><linearGradient id="linear-gradient" x1="923.2344" y1="1331.4471" x2="968.6094" y2="1286.0721" gradientTransform="translate(0 -1048.11)" gradientUnits="userSpaceOnUse"><stop offset="0.13" stop-opacity="0"/><stop offset="0.38"/></linearGradient><linearGradient id="linear-gradient-2" x1="911.7943" y1="476.6835" x2="938.9193" y2="503.8085" gradientTransform="matrix(1, 0, 0, -1, 0, 630.2055)" gradientUnits="userSpaceOnUse"><stop offset="0.55" stop-color="#fff"/><stop offset="0.8" stop-color="#fff" stop-opacity="0"/></linearGradient><mask id="mask" x="888" y="344.1028" width="84" height="84" maskUnits="userSpaceOnUse"><g id="b4504f32-7b82-4457-a5e3-8ebeace6b279"><path class="cls-1" d="M912.5674,399.2278l-1.88-6.2423h-8.7754l-1.869,6.2423h-5.7908l8.6626-26.25h7.0586l8.5365,26.25Zm-6.1924-21.06h-.1995l-2.8875,9.975h6.0086Z"/><path class="cls-1" d="M940.6234,399.2278H920.7285V394.151l12.9465-16.0965H921.3664v-5.0767h18.9551v5.0767L927.3487,394.151h13.2747Z"/><path class="cls-1" d="M950.7034,399.2278h-5.7147v-26.25h12.4452a8.57,8.57,0,0,1,3.2707.6011,6.99,6.99,0,0,1,2.5043,1.7115,7.8107,7.8107,0,0,1,1.5986,2.6512,9.9223,9.9223,0,0,1,.5644,3.4125,8.9388,8.9388,0,0,1-1.1865,4.6647,6.7707,6.7707,0,0,1-3.591,2.8875l5.1529,10.3215H959.4l-4.5885-9.6285h-4.1081ZM956.72,384.79a2.8877,2.8877,0,0,0,2.0107-.6589,2.4544,2.4544,0,0,0,.7376-1.9373V380.54a2.4544,2.4544,0,0,0-.7376-1.9373,2.8871,2.8871,0,0,0-2.0107-.6588h-6.0165v6.846Z"/></g></mask><clipPath id="clip-path"><rect class="cls-4" x="888" y="344.1028" width="84" height="84"/></clipPath><mask id="mask-2" x="899" y="226.1028" width="66" height="66" maskUnits="userSpaceOnUse"><g id="baaa97b3-c98c-4e2f-8f80-de6b0b192ffe"><g id="b0feeea2-5dab-4f45-9a71-aede4225675b"><path class="cls-1" d="M948.5,234.3528v29.4937a18.6119,18.6119,0,0,1-9.2812,16.0875l-9.2813,5.3625-9.2813-5.3625a18.6119,18.6119,0,0,1-9.2812-16.0875V234.3528H948.5m0-4.125H911.375a4.125,4.125,0,0,0-4.125,4.125v29.4937a22.6875,22.6875,0,0,0,11.3438,19.6494l11.3437,6.5444,11.3437-6.5485a22.6872,22.6872,0,0,0,11.3438-19.6453V234.3528A4.125,4.125,0,0,0,948.5,230.2278Z"/><polygon class="cls-2" points="929.937 290.04 958.812 290.04 958.812 228.165 936.125 228.165 936.125 240.54 929.937 240.54 929.937 290.04"/></g></g></mask><clipPath id="clip-path-2"><rect class="cls-4" x="899" y="226.1028" width="66" height="66"/></clipPath><mask id="mask-3" x="899" y="98.1028" width="62" height="62" maskUnits="userSpaceOnUse"><g id="rfylg6g1jb"><path class="cls-3" d="M938.8854,126.3631l-13.1615,13.1615-2.6718-2.6718-2.74,2.74,2.6718,2.6718-3.0729,3.0729-2.6718-2.6718-2.74,2.74,2.6718,2.6718-5.4114,5.4114,2.74,2.74,27.125-27.125Z"/><circle class="cls-1" cx="941.625" cy="117.4778" r="3.875"/><path class="cls-1" d="M939.6875,101.9778a17.3968,17.3968,0,0,0-16.6761,22.4866L902.875,144.6028v11.625H914.5l-1.6043-3.875H906.75V146.207l20.7816-20.7855a13.5624,13.5624,0,1,1,12.1559,7.5563v3.875a17.4375,17.4375,0,0,0,0-34.875Z"/><path d="M937.75,148.4778V127.1653H961v21.3125Z"/></g></mask><linearGradient id="linear-gradient-3" x1="899" y1="470.1028" x2="961" y2="532.1028" gradientTransform="matrix(1, 0, 0, -1, 0, 630.2055)" gradientUnits="userSpaceOnUse"><stop offset="0.1" stop-color="#0f62fe"/><stop offset="0.9" stop-color="#1192e8"/></linearGradient></defs><g id="Figure"><rect class="cls-5" x="37.3956" y="221.042" width="464.0186" height="335.0661"/><rect class="cls-5" x="663.0468" y="69.4981" width="360.9532" height="98.8015"/><rect class="cls-5" x="653.0217" y="75.2258" width="360.9532" height="98.8015"/><rect class="cls-5" x="643.505" y="80.9534" width="360.9532" height="98.8015"/><line class="cls-6" x1="563" y1="132.1028" x2="642.0731" y2="131.7861"/><line class="cls-7" x1="563" y1="132.1028" x2="636.3322" y2="131.809"/><polygon class="cls-6" points="635.181 135.803 642.073 131.786 635.149 127.825 635.181 135.803"/><rect class="cls-8" x="73.5549" y="260.6282" width="228.4633" height="62.2879"/><g id="Hardware"><rect class="cls-9" x="359.2716" y="487.7566" width="57.2762" height="15.1614"/><polygon class="cls-9" points="416.548 487.195 359.272 487.195 369.379 465.295 406.44 465.295 416.548 487.195"/><rect x="395.4904" y="491.9681" width="6.7384" height="6.7384"/><rect x="404.7557" y="491.9681" width="6.7384" height="6.7384"/></g><rect class="cls-5" x="663.0022" y="198.3697" width="360.9532" height="98.8015"/><rect class="cls-5" x="652.9771" y="204.0973" width="360.9532" height="98.8015"/><rect class="cls-5" x="643.505" y="209.8249" width="360.9532" height="98.8015"/><rect class="cls-5" x="663.0022" y="327.2412" width="360.9532" height="98.8015"/><rect class="cls-5" x="652.9771" y="332.9689" width="360.9532" height="98.8015"/><rect class="cls-5" x="643.505" y="338.6965" width="360.9532" height="98.8015"/><rect class="cls-5" x="663.0022" y="456.1128" width="360.9532" height="98.8015"/><rect class="cls-5" x="652.9771" y="461.8404" width="360.9532" height="98.8015"/><rect class="cls-5" x="643.505" y="467.5681" width="360.9532" height="98.8015"/><rect class="cls-10" x="73.5549" y="366.6263" width="257.7431" height="62.2879"/><rect class="cls-8" x="334.1877" y="260.6282" width="107.4441" height="62.2879"/><line class="cls-7" x1="563.3183" y1="260.6576" x2="636.3321" y2="260.6576"/><polygon class="cls-6" points="635.165 264.647 642.073 260.658 635.165 256.669 635.165 264.647"/><line class="cls-6" x1="501" y1="388.1028" x2="642.0731" y2="388.0973"/><line class="cls-7" x1="501" y1="388.1028" x2="636.3321" y2="388.0975"/><polygon class="cls-6" points="635.165 392.087 642.073 388.097 635.165 384.108 635.165 392.087"/><line class="cls-7" x1="563.3183" y1="516.9688" x2="636.3321" y2="516.9688"/><polygon class="cls-6" points="635.165 520.958 642.073 516.969 635.165 512.98 635.165 520.958"/><g id="key"><path class="cls-11" d="M294.1069,485.33a12.4136,12.4136,0,1,1-.59-8.4337"/><circle cx="278.1452" cy="481.9125" r="2.657"/><polyline class="cls-12" points="293.517 476.897 318.306 476.897 322.946 481.537 318.947 485.535 303.361 485.535 300.567 482.767 298.003 485.33 294.107 485.33"/></g><polyline class="cls-13" points="187.787 322.794 187.787 346.041 387.91 346.041 387.91 322.794"/><line class="cls-13" x1="387.9099" y1="346.0414" x2="387.9098" y2="397.7703"/><line class="cls-14" x1="387.9097" y1="397.7703" x2="387.9099" y2="456.6603"/><polygon points="382.924 455.201 387.91 463.837 392.896 455.201 382.924 455.201"/><line class="cls-14" x1="388.6216" y1="397.7703" x2="332.0098" y2="397.7703"/><line class="cls-15" x1="564" y1="131.3541" x2="564" y2="646.1028"/><g id="key-3" data-name="key"><path class="cls-16" d="M694.97,241.4219a12.4137,12.4137,0,1,1-.59-8.4337"/><circle cx="679.0087" cy="238.004" r="2.657"/><polyline class="cls-17" points="694.381 232.988 719.169 232.988 723.809 237.628 719.81 241.627 704.224 241.627 701.43 238.858 698.867 241.422 694.97 241.422"/></g><g id="key-4" data-name="key"><path class="cls-16" d="M695.97,118.4212a12.4136,12.4136,0,1,1-.59-8.4337"/><circle cx="680.0087" cy="115.0033" r="2.657"/><polyline class="cls-17" points="695.381 109.987 720.169 109.987 724.809 114.627 720.81 118.626 705.224 118.626 702.43 115.858 699.867 118.421 695.97 118.421"/></g><g id="key-5" data-name="key"><path class="cls-16" d="M695.97,376.9687a12.4136,12.4136,0,1,1-.59-8.4337"/><circle cx="680.0087" cy="373.5508" r="2.657"/><polyline class="cls-17" points="695.381 368.535 720.169 368.535 724.809 373.175 720.81 377.174 705.224 377.174 702.43 374.405 699.867 376.969 695.97 376.969"/></g><g id="key-6" data-name="key"><path class="cls-16" d="M695.97,507.2889a12.4136,12.4136,0,1,1-.59-8.4337"/><circle cx="680.0087" cy="503.871" r="2.657"/><polyline class="cls-17" points="695.381 498.855 720.169 498.855 724.809 503.495 720.81 507.494 705.224 507.494 702.43 504.725 699.867 507.289 695.97 507.289"/></g><rect class="cls-5" x="662.6667" y="585.4746" width="360.9532" height="98.8015"/><rect class="cls-5" x="652.6416" y="591.2023" width="360.9532" height="98.8015"/><rect class="cls-5" x="643.1695" y="596.9299" width="360.9532" height="98.8015"/><line class="cls-7" x1="562.9828" y1="646.3307" x2="635.9966" y2="646.3307"/><polygon class="cls-6" points="634.829 650.32 641.738 646.331 634.829 642.342 634.829 650.32"/><g id="key-7" data-name="key"><path class="cls-16" d="M695.635,636.6507a12.4136,12.4136,0,1,1-.59-8.4337"/><circle cx="679.6733" cy="633.2328" r="2.657"/><polyline class="cls-17" points="695.045 628.217 719.834 628.217 724.474 632.857 720.475 636.856 704.889 636.856 702.095 634.087 699.531 636.651 695.635 636.651"/></g><g id="b6907886-4c52-444d-9c8e-c4b6448a42c7"><g class="cls-18"><g class="cls-19"><polygon class="cls-20" points="888 411.303 904.8 428.103 888 428.103 888 411.303"/><polygon class="cls-20" points="888 409.463 906.64 428.103 904.8 428.103 888 411.303 888 409.463"/><polygon class="cls-21" points="888 407.62 908.483 428.103 906.64 428.103 888 409.463 888 407.62"/><polygon class="cls-22" points="888 405.78 910.323 428.103 908.483 428.103 888 407.62 888 405.78"/><polygon class="cls-23" points="888 403.94 912.163 428.103 910.323 428.103 888 405.78 888 403.94"/><polygon class="cls-24" points="888 402.097 914.006 428.103 912.163 428.103 888 403.94 888 402.097"/><polygon class="cls-25" points="888 400.257 915.846 428.103 914.006 428.103 888 402.097 888 400.257"/><polygon class="cls-26" points="888 398.414 917.689 428.103 915.846 428.103 888 400.257 888 398.414"/><polygon class="cls-27" points="888 396.574 919.529 428.103 917.689 428.103 888 398.414 888 396.574"/><polygon class="cls-28" points="888 394.734 921.369 428.103 919.529 428.103 888 396.574 888 394.734"/><polygon class="cls-29" points="888 392.891 923.212 428.103 921.369 428.103 888 394.734 888 392.891"/><polygon class="cls-30" points="888 391.051 925.052 428.103 923.212 428.103 888 392.891 888 391.051"/><polygon class="cls-31" points="888 389.211 926.892 428.103 925.052 428.103 888 391.051 888 389.211"/><polygon class="cls-32" points="888 387.368 928.735 428.103 926.892 428.103 888 389.211 888 387.368"/><polygon class="cls-33" points="888 385.528 930.575 428.103 928.735 428.103 888 387.368 888 385.528"/><polygon class="cls-34" points="888 383.685 932.418 428.103 930.575 428.103 888 385.528 888 383.685"/><polygon class="cls-35" points="888 381.845 934.258 428.103 932.418 428.103 888 383.685 888 381.845"/><polygon class="cls-36" points="888 380.005 936.098 428.103 934.258 428.103 888 381.845 888 380.005"/><polygon class="cls-37" points="888 378.162 937.941 428.103 936.098 428.103 888 380.005 888 378.162"/><polygon class="cls-38" points="888 376.322 939.781 428.103 937.941 428.103 888 378.162 888 376.322"/><polygon class="cls-39" points="888 374.482 941.621 428.103 939.781 428.103 888 376.322 888 374.482"/><polygon class="cls-40" points="888 372.639 943.464 428.103 941.621 428.103 888 374.482 888 372.639"/><polygon class="cls-41" points="888 370.799 945.304 428.103 943.464 428.103 888 372.639 888 370.799"/><polygon class="cls-42" points="888 368.956 947.146 428.103 945.304 428.103 888 370.799 888 368.956"/><polygon class="cls-43" points="888 367.116 948.987 428.103 947.146 428.103 888 368.956 888 367.116"/><polygon class="cls-44" points="888 365.276 950.827 428.103 948.987 428.103 888 367.116 888 365.276"/><polygon class="cls-45" points="888 363.433 952.669 428.103 950.827 428.103 888 365.276 888 363.433"/><polygon class="cls-46" points="888 361.593 954.51 428.103 952.669 428.103 888 363.433 888 361.593"/><polygon class="cls-47" points="888 359.753 956.35 428.103 954.51 428.103 888 361.593 888 359.753"/><polygon class="cls-48" points="888 357.91 958.192 428.103 956.35 428.103 888 359.753 888 357.91"/><polygon class="cls-49" points="888 356.07 960.033 428.103 958.192 428.103 888 357.91 888 356.07"/><polygon class="cls-50" points="888 354.23 961.873 428.103 960.033 428.103 888 356.07 888 354.23"/><polygon class="cls-51" points="888 352.387 963.715 428.103 961.873 428.103 888 354.23 888 352.387"/><polygon class="cls-52" points="888 350.547 965.556 428.103 963.715 428.103 888 352.387 888 350.547"/><polygon class="cls-53" points="888 348.704 967.398 428.103 965.556 428.103 888 350.547 888 348.704"/><polygon class="cls-54" points="888 346.864 969.238 428.103 967.398 428.103 888 348.704 888 346.864"/><polygon class="cls-55" points="888 345.024 971.079 428.103 969.238 428.103 888 346.864 888 345.024"/><polygon class="cls-56" points="888.921 344.103 972 427.181 972 428.103 971.079 428.103 888 345.024 888 344.103 888.921 344.103"/><polygon class="cls-57" points="890.762 344.103 972 425.341 972 427.181 888.921 344.103 890.762 344.103"/><polygon class="cls-58" points="892.602 344.103 972 423.501 972 425.341 890.762 344.103 892.602 344.103"/><polygon class="cls-59" points="894.444 344.103 972 421.658 972 423.501 892.602 344.103 894.444 344.103"/><polygon class="cls-60" points="896.284 344.103 972 419.818 972 421.658 894.444 344.103 896.284 344.103"/><polygon class="cls-61" points="898.127 344.103 972 417.976 972 419.818 896.284 344.103 898.127 344.103"/><polygon class="cls-62" points="899.967 344.103 972 416.135 972 417.976 898.127 344.103 899.967 344.103"/><polygon class="cls-63" points="901.808 344.103 972 414.295 972 416.135 899.967 344.103 901.808 344.103"/><polygon class="cls-64" points="903.65 344.103 972 412.453 972 414.295 901.808 344.103 903.65 344.103"/><polygon class="cls-65" points="905.49 344.103 972 410.612 972 412.453 903.65 344.103 905.49 344.103"/><polygon class="cls-66" points="907.33 344.103 972 408.772 972 410.612 905.49 344.103 907.33 344.103"/><polygon class="cls-67" points="909.173 344.103 972 406.93 972 408.772 907.33 344.103 909.173 344.103"/><polygon class="cls-68" points="911.013 344.103 972 405.089 972 406.93 909.173 344.103 911.013 344.103"/><polygon class="cls-69" points="912.854 344.103 972 403.249 972 405.089 911.013 344.103 912.854 344.103"/><polygon class="cls-70" points="914.696 344.103 972 401.407 972 403.249 912.854 344.103 914.696 344.103"/><polygon class="cls-71" points="916.536 344.103 972 399.566 972 401.407 914.696 344.103 916.536 344.103"/><polygon class="cls-72" points="918.379 344.103 972 397.724 972 399.566 916.536 344.103 918.379 344.103"/><polygon class="cls-73" points="920.219 344.103 972 395.884 972 397.724 918.379 344.103 920.219 344.103"/><polygon class="cls-74" points="922.059 344.103 972 394.043 972 395.884 920.219 344.103 922.059 344.103"/><polygon class="cls-75" points="923.902 344.103 972 392.201 972 394.043 922.059 344.103 923.902 344.103"/><polygon class="cls-76" points="925.742 344.103 972 390.361 972 392.201 923.902 344.103 925.742 344.103"/><polygon class="cls-77" points="927.582 344.103 972 388.52 972 390.361 925.742 344.103 927.582 344.103"/><polygon class="cls-78" points="929.425 344.103 972 386.678 972 388.52 927.582 344.103 929.425 344.103"/><polygon class="cls-79" points="931.265 344.103 972 384.838 972 386.678 929.425 344.103 931.265 344.103"/><polygon class="cls-80" points="933.108 344.103 972 382.995 972 384.838 931.265 344.103 933.108 344.103"/><polygon class="cls-81" points="934.948 344.103 972 381.155 972 382.995 933.108 344.103 934.948 344.103"/><polygon class="cls-82" points="936.788 344.103 972 379.315 972 381.155 934.948 344.103 936.788 344.103"/><polygon class="cls-83" points="938.631 344.103 972 377.472 972 379.315 936.788 344.103 938.631 344.103"/><polygon class="cls-84" points="940.471 344.103 972 375.632 972 377.472 938.631 344.103 940.471 344.103"/><polygon class="cls-85" points="942.311 344.103 972 373.792 972 375.632 940.471 344.103 942.311 344.103"/><polygon class="cls-86" points="944.154 344.103 972 371.949 972 373.792 942.311 344.103 944.154 344.103"/><polygon class="cls-87" points="945.994 344.103 972 370.109 972 371.949 944.154 344.103 945.994 344.103"/><polygon class="cls-88" points="947.837 344.103 972 368.266 972 370.109 945.994 344.103 947.837 344.103"/><polygon class="cls-89" points="949.677 344.103 972 366.426 972 368.266 947.837 344.103 949.677 344.103"/><polygon class="cls-90" points="951.517 344.103 972 364.586 972 366.426 949.677 344.103 951.517 344.103"/><polygon class="cls-91" points="953.36 344.103 972 362.743 972 364.586 951.517 344.103 953.36 344.103"/><polygon class="cls-92" points="955.2 344.103 972 360.903 972 362.743 953.36 344.103 955.2 344.103"/><polygon class="cls-92" points="972 360.903 955.2 344.103 972 344.103 972 360.903"/></g></g></g><g id="e48c9f6b-604b-493d-8b44-389877d170e9"><g class="cls-93"><g class="cls-94"><polygon class="cls-95" points="899 278.903 912.2 292.103 899 292.103 899 278.903"/><polygon class="cls-95" points="899 278.199 912.903 292.103 912.2 292.103 899 278.903 899 278.199"/><polygon class="cls-96" points="899 277.494 913.609 292.103 912.903 292.103 899 278.199 899 277.494"/><polygon class="cls-97" points="899 276.791 914.312 292.103 913.609 292.103 899 277.494 899 276.791"/><polygon class="cls-98" points="899 276.087 915.015 292.103 914.312 292.103 899 276.791 899 276.087"/><polygon class="cls-99" points="899 275.382 915.721 292.103 915.015 292.103 899 276.087 899 275.382"/><polygon class="cls-100" points="899 274.679 916.424 292.103 915.721 292.103 899 275.382 899 274.679"/><polygon class="cls-101" points="899 273.975 917.127 292.103 916.424 292.103 899 274.679 899 273.975"/><polygon class="cls-102" points="899 273.27 917.833 292.103 917.127 292.103 899 273.975 899 273.27"/><polygon class="cls-103" points="899 272.567 918.536 292.103 917.833 292.103 899 273.27 899 272.567"/><polygon class="cls-104" points="899 271.863 919.239 292.103 918.536 292.103 899 272.567 899 271.863"/><polygon class="cls-105" points="899 271.158 919.945 292.103 919.239 292.103 899 271.863 899 271.158"/><polygon class="cls-106" points="899 270.455 920.648 292.103 919.945 292.103 899 271.158 899 270.455"/><polygon class="cls-107" points="899 269.751 921.351 292.103 920.648 292.103 899 270.455 899 269.751"/><polygon class="cls-108" points="899 269.046 922.057 292.103 921.351 292.103 899 269.751 899 269.046"/><polygon class="cls-109" points="899 268.343 922.76 292.103 922.057 292.103 899 269.046 899 268.343"/><polygon class="cls-110" points="899 267.639 923.463 292.103 922.76 292.103 899 268.343 899 267.639"/><polygon class="cls-111" points="899 266.934 924.169 292.103 923.463 292.103 899 267.639 899 266.934"/><polygon class="cls-112" points="899 266.231 924.872 292.103 924.169 292.103 899 266.934 899 266.231"/><polygon class="cls-113" points="899 265.527 925.575 292.103 924.872 292.103 899 266.231 899 265.527"/><polygon class="cls-114" points="899 264.822 926.281 292.103 925.575 292.103 899 265.527 899 264.822"/><polygon class="cls-115" points="899 264.119 926.984 292.103 926.281 292.103 899 264.822 899 264.119"/><polygon class="cls-116" points="899 263.415 927.687 292.103 926.984 292.103 899 264.119 899 263.415"/><polygon class="cls-117" points="899 262.71 928.393 292.103 927.687 292.103 899 263.415 899 262.71"/><polygon class="cls-118" points="899 262.007 929.096 292.103 928.393 292.103 899 262.71 899 262.007"/><polygon class="cls-119" points="899 261.303 929.799 292.103 929.096 292.103 899 262.007 899 261.303"/><polygon class="cls-120" points="899 260.598 930.505 292.103 929.799 292.103 899 261.303 899 260.598"/><polygon class="cls-121" points="899 259.895 931.208 292.103 930.505 292.103 899 260.598 899 259.895"/><polygon class="cls-122" points="899 259.191 931.911 292.103 931.208 292.103 899 259.895 899 259.191"/><polygon class="cls-123" points="899 258.486 932.617 292.103 931.911 292.103 899 259.191 899 258.486"/><polygon class="cls-124" points="899 257.783 933.32 292.103 932.617 292.103 899 258.486 899 257.783"/><polygon class="cls-125" points="899 257.079 934.023 292.103 933.32 292.103 899 257.783 899 257.079"/><polygon class="cls-126" points="899 256.374 934.729 292.103 934.023 292.103 899 257.079 899 256.374"/><polygon class="cls-127" points="899 255.671 935.432 292.103 934.729 292.103 899 256.374 899 255.671"/><polygon class="cls-128" points="899 254.967 936.135 292.103 935.432 292.103 899 255.671 899 254.967"/><polygon class="cls-129" points="899 254.262 936.841 292.103 936.135 292.103 899 254.967 899 254.262"/><polygon class="cls-130" points="899 253.559 937.544 292.103 936.841 292.103 899 254.262 899 253.559"/><polygon class="cls-131" points="899 252.855 938.247 292.103 937.544 292.103 899 253.559 899 252.855"/><polygon class="cls-132" points="899 252.15 938.953 292.103 938.247 292.103 899 252.855 899 252.15"/><polygon class="cls-133" points="899 251.447 939.656 292.103 938.953 292.103 899 252.15 899 251.447"/><polygon class="cls-134" points="899 250.743 940.359 292.103 939.656 292.103 899 251.447 899 250.743"/><polygon class="cls-135" points="899 250.038 941.065 292.103 940.359 292.103 899 250.743 899 250.038"/><polygon class="cls-136" points="899 249.335 941.768 292.103 941.065 292.103 899 250.038 899 249.335"/><polygon class="cls-137" points="899 248.631 942.471 292.103 941.768 292.103 899 249.335 899 248.631"/><polygon class="cls-138" points="899 247.926 943.177 292.103 942.471 292.103 899 248.631 899 247.926"/><polygon class="cls-139" points="899 247.223 943.88 292.103 943.177 292.103 899 247.926 899 247.223"/><polygon class="cls-140" points="899 246.519 944.583 292.103 943.88 292.103 899 247.223 899 246.519"/><polygon class="cls-141" points="899 245.814 945.289 292.103 944.583 292.103 899 246.519 899 245.814"/><polygon class="cls-142" points="899 245.111 945.992 292.103 945.289 292.103 899 245.814 899 245.111"/><polygon class="cls-143" points="899 244.407 946.695 292.103 945.992 292.103 899 245.111 899 244.407"/><polygon class="cls-144" points="899 243.702 947.401 292.103 946.695 292.103 899 244.407 899 243.702"/><polygon class="cls-145" points="899 242.999 948.104 292.103 947.401 292.103 899 243.702 899 242.999"/><polygon class="cls-146" points="899 242.295 948.807 292.103 948.104 292.103 899 242.999 899 242.295"/><polygon class="cls-147" points="899 241.59 949.513 292.103 948.807 292.103 899 242.295 899 241.59"/><polygon class="cls-148" points="899 240.887 950.216 292.103 949.513 292.103 899 241.59 899 240.887"/><polygon class="cls-149" points="899 240.183 950.919 292.103 950.216 292.103 899 240.887 899 240.183"/><polygon class="cls-150" points="899 239.478 951.625 292.103 950.919 292.103 899 240.183 899 239.478"/><polygon class="cls-151" points="899 238.775 952.328 292.103 951.625 292.103 899 239.478 899 238.775"/><polygon class="cls-152" points="899 238.071 953.031 292.103 952.328 292.103 899 238.775 899 238.071"/><polygon class="cls-153" points="899 237.366 953.737 292.103 953.031 292.103 899 238.071 899 237.366"/><polygon class="cls-154" points="899 236.663 954.44 292.103 953.737 292.103 899 237.366 899 236.663"/><polygon class="cls-155" points="899 235.959 955.143 292.103 954.44 292.103 899 236.663 899 235.959"/><polygon class="cls-156" points="899 235.254 955.849 292.103 955.143 292.103 899 235.959 899 235.254"/><polygon class="cls-157" points="899 234.551 956.552 292.103 955.849 292.103 899 235.254 899 234.551"/><polygon class="cls-158" points="899 233.847 957.255 292.103 956.552 292.103 899 234.551 899 233.847"/><polygon class="cls-159" points="899 233.142 957.961 292.103 957.255 292.103 899 233.847 899 233.142"/><polygon class="cls-160" points="899 232.439 958.664 292.103 957.961 292.103 899 233.142 899 232.439"/><polygon class="cls-161" points="899 231.735 959.367 292.103 958.664 292.103 899 232.439 899 231.735"/><polygon class="cls-162" points="899 231.03 960.073 292.103 959.367 292.103 899 231.735 899 231.03"/><polygon class="cls-163" points="899 230.327 960.776 292.103 960.073 292.103 899 231.03 899 230.327"/><polygon class="cls-164" points="899 229.623 961.479 292.103 960.776 292.103 899 230.327 899 229.623"/><polygon class="cls-165" points="899 228.918 962.185 292.103 961.479 292.103 899 229.623 899 228.918"/><polygon class="cls-166" points="899 228.215 962.888 292.103 962.185 292.103 899 228.918 899 228.215"/><polygon class="cls-167" points="899 227.511 963.591 292.103 962.888 292.103 899 228.215 899 227.511"/><polygon class="cls-168" points="899 226.806 964.297 292.103 963.591 292.103 899 227.511 899 226.806"/><polygon class="cls-169" points="899 226.103 965 292.103 964.297 292.103 899 226.806 899 226.103"/><polygon class="cls-170" points="899.703 226.103 965 291.399 965 292.103 899 226.103 899.703 226.103"/><polygon class="cls-171" points="900.409 226.103 965 290.694 965 291.399 899.703 226.103 900.409 226.103"/><polygon class="cls-172" points="901.112 226.103 965 289.991 965 290.694 900.409 226.103 901.112 226.103"/><polygon class="cls-173" points="901.815 226.103 965 289.287 965 289.991 901.112 226.103 901.815 226.103"/><polygon class="cls-174" points="902.521 226.103 965 288.582 965 289.287 901.815 226.103 902.521 226.103"/><polygon class="cls-175" points="903.224 226.103 965 287.879 965 288.582 902.521 226.103 903.224 226.103"/><polygon class="cls-176" points="903.927 226.103 965 287.175 965 287.879 903.224 226.103 903.927 226.103"/><polygon class="cls-177" points="904.633 226.103 965 286.47 965 287.175 903.927 226.103 904.633 226.103"/><polygon class="cls-178" points="905.336 226.103 965 285.767 965 286.47 904.633 226.103 905.336 226.103"/><polygon class="cls-179" points="906.039 226.103 965 285.063 965 285.767 905.336 226.103 906.039 226.103"/><polygon class="cls-180" points="906.745 226.103 965 284.358 965 285.063 906.039 226.103 906.745 226.103"/><polygon class="cls-181" points="907.448 226.103 965 283.655 965 284.358 906.745 226.103 907.448 226.103"/><polygon class="cls-182" points="908.151 226.103 965 282.951 965 283.655 907.448 226.103 908.151 226.103"/><polygon class="cls-183" points="908.857 226.103 965 282.246 965 282.951 908.151 226.103 908.857 226.103"/><polygon class="cls-184" points="909.56 226.103 965 281.543 965 282.246 908.857 226.103 909.56 226.103"/><polygon class="cls-185" points="910.263 226.103 965 280.839 965 281.543 909.56 226.103 910.263 226.103"/><polygon class="cls-186" points="910.969 226.103 965 280.134 965 280.839 910.263 226.103 910.969 226.103"/><polygon class="cls-187" points="911.672 226.103 965 279.431 965 280.134 910.969 226.103 911.672 226.103"/><polygon class="cls-188" points="912.375 226.103 965 278.727 965 279.431 911.672 226.103 912.375 226.103"/><polygon class="cls-189" points="913.081 226.103 965 278.022 965 278.727 912.375 226.103 913.081 226.103"/><polygon class="cls-190" points="913.784 226.103 965 277.319 965 278.022 913.081 226.103 913.784 226.103"/><polygon class="cls-191" points="914.487 226.103 965 276.615 965 277.319 913.784 226.103 914.487 226.103"/><polygon class="cls-192" points="915.193 226.103 965 275.91 965 276.615 914.487 226.103 915.193 226.103"/><polygon class="cls-193" points="915.896 226.103 965 275.207 965 275.91 915.193 226.103 915.896 226.103"/><polygon class="cls-194" points="916.599 226.103 965 274.503 965 275.207 915.896 226.103 916.599 226.103"/><polygon class="cls-195" points="917.305 226.103 965 273.798 965 274.503 916.599 226.103 917.305 226.103"/><polygon class="cls-196" points="918.008 226.103 965 273.095 965 273.798 917.305 226.103 918.008 226.103"/><polygon class="cls-197" points="918.711 226.103 965 272.391 965 273.095 918.008 226.103 918.711 226.103"/><polygon class="cls-198" points="919.417 226.103 965 271.686 965 272.391 918.711 226.103 919.417 226.103"/><polygon class="cls-199" points="920.12 226.103 965 270.983 965 271.686 919.417 226.103 920.12 226.103"/><polygon class="cls-200" points="920.823 226.103 965 270.279 965 270.983 920.12 226.103 920.823 226.103"/><polygon class="cls-201" points="921.529 226.103 965 269.574 965 270.279 920.823 226.103 921.529 226.103"/><polygon class="cls-202" points="922.232 226.103 965 268.871 965 269.574 921.529 226.103 922.232 226.103"/><polygon class="cls-203" points="922.935 226.103 965 268.167 965 268.871 922.232 226.103 922.935 226.103"/><polygon class="cls-204" points="923.641 226.103 965 267.462 965 268.167 922.935 226.103 923.641 226.103"/><polygon class="cls-205" points="924.344 226.103 965 266.759 965 267.462 923.641 226.103 924.344 226.103"/><polygon class="cls-206" points="925.047 226.103 965 266.055 965 266.759 924.344 226.103 925.047 226.103"/><polygon class="cls-207" points="925.753 226.103 965 265.35 965 266.055 925.047 226.103 925.753 226.103"/><polygon class="cls-208" points="926.456 226.103 965 264.647 965 265.35 925.753 226.103 926.456 226.103"/><polygon class="cls-209" points="927.159 226.103 965 263.943 965 264.647 926.456 226.103 927.159 226.103"/><polygon class="cls-210" points="927.865 226.103 965 263.238 965 263.943 927.159 226.103 927.865 226.103"/><polygon class="cls-211" points="928.568 226.103 965 262.535 965 263.238 927.865 226.103 928.568 226.103"/><polygon class="cls-212" points="929.271 226.103 965 261.831 965 262.535 928.568 226.103 929.271 226.103"/><polygon class="cls-213" points="929.977 226.103 965 261.126 965 261.831 929.271 226.103 929.977 226.103"/><polygon class="cls-214" points="930.68 226.103 965 260.423 965 261.126 929.977 226.103 930.68 226.103"/><polygon class="cls-215" points="931.383 226.103 965 259.719 965 260.423 930.68 226.103 931.383 226.103"/><polygon class="cls-216" points="932.089 226.103 965 259.014 965 259.719 931.383 226.103 932.089 226.103"/><polygon class="cls-217" points="932.792 226.103 965 258.311 965 259.014 932.089 226.103 932.792 226.103"/><polygon class="cls-218" points="933.495 226.103 965 257.607 965 258.311 932.792 226.103 933.495 226.103"/><polygon class="cls-219" points="934.201 226.103 965 256.902 965 257.607 933.495 226.103 934.201 226.103"/><polygon class="cls-220" points="934.904 226.103 965 256.199 965 256.902 934.201 226.103 934.904 226.103"/><polygon class="cls-221" points="935.607 226.103 965 255.495 965 256.199 934.904 226.103 935.607 226.103"/><polygon class="cls-222" points="936.313 226.103 965 254.79 965 255.495 935.607 226.103 936.313 226.103"/><polygon class="cls-223" points="937.016 226.103 965 254.087 965 254.79 936.313 226.103 937.016 226.103"/><polygon class="cls-224" points="937.719 226.103 965 253.383 965 254.087 937.016 226.103 937.719 226.103"/><polygon class="cls-225" points="938.425 226.103 965 252.678 965 253.383 937.719 226.103 938.425 226.103"/><polygon class="cls-226" points="939.128 226.103 965 251.975 965 252.678 938.425 226.103 939.128 226.103"/><polygon class="cls-227" points="939.831 226.103 965 251.271 965 251.975 939.128 226.103 939.831 226.103"/><polygon class="cls-228" points="940.537 226.103 965 250.566 965 251.271 939.831 226.103 940.537 226.103"/><polygon class="cls-229" points="941.24 226.103 965 249.863 965 250.566 940.537 226.103 941.24 226.103"/><polygon class="cls-230" points="941.943 226.103 965 249.159 965 249.863 941.24 226.103 941.943 226.103"/><polygon class="cls-231" points="942.649 226.103 965 248.454 965 249.159 941.943 226.103 942.649 226.103"/><polygon class="cls-232" points="943.352 226.103 965 247.751 965 248.454 942.649 226.103 943.352 226.103"/><polygon class="cls-233" points="944.055 226.103 965 247.047 965 247.751 943.352 226.103 944.055 226.103"/><polygon class="cls-234" points="944.761 226.103 965 246.342 965 247.047 944.055 226.103 944.761 226.103"/><polygon class="cls-235" points="945.464 226.103 965 245.639 965 246.342 944.761 226.103 945.464 226.103"/><polygon class="cls-236" points="946.167 226.103 965 244.935 965 245.639 945.464 226.103 946.167 226.103"/><polygon class="cls-237" points="946.873 226.103 965 244.23 965 244.935 946.167 226.103 946.873 226.103"/><polygon class="cls-238" points="947.576 226.103 965 243.527 965 244.23 946.873 226.103 947.576 226.103"/><polygon class="cls-239" points="948.279 226.103 965 242.823 965 243.527 947.576 226.103 948.279 226.103"/><polygon class="cls-240" points="948.985 226.103 965 242.118 965 242.823 948.279 226.103 948.985 226.103"/><polygon class="cls-241" points="949.688 226.103 965 241.415 965 242.118 948.985 226.103 949.688 226.103"/><polygon class="cls-242" points="950.391 226.103 965 240.711 965 241.415 949.688 226.103 950.391 226.103"/><polygon class="cls-243" points="951.097 226.103 965 240.006 965 240.711 950.391 226.103 951.097 226.103"/><polygon class="cls-244" points="951.8 226.103 965 239.303 965 240.006 951.097 226.103 951.8 226.103"/><polygon class="cls-244" points="965 239.303 951.8 226.103 965 226.103 965 239.303"/></g></g><path class="cls-245" d="M952.625,255.2706V230.2278H942.3125v4.125H948.5v4.125h-6.1875v4.125H948.5v12.6678a8.25,8.25,0,1,0,4.125,0Zm-2.0625,12.0822a4.125,4.125,0,1,1,4.125-4.125A4.125,4.125,0,0,1,950.5625,267.3528Z"/></g><path class="cls-246" d="M947.11,626.717a25.6882,25.6882,0,0,1,7.7446,12.485,18.4756,18.4756,0,0,1-10.5258,33.7925H930.0663v-11.407h14.2626a7.0832,7.0832,0,1,0,0-14.1664V646.002a14.2236,14.2236,0,0,0-5.2214-11.2823l8.0026-8.0027Z"/><path class="cls-247" d="M915.819,672.9945h14.2473v-11.407H915.819a7.0059,7.0059,0,0,1-2.919-.6385l-8.265,8.2606a18.49,18.49,0,0,0,11.184,3.7827Z"/><path class="cls-248" d="M947.1079,626.7192l-8.0026,8.0026a14.2839,14.2839,0,0,0-19.5059,1.5831l-.1749.0371a18.4393,18.4393,0,0,0-14.1467,3.0262,26.2967,26.2967,0,0,1,5.5581-10.4144c9.367-10.6111,25.8839-11.6847,36.2742-2.2346Z"/><path class="cls-249" d="M915.819,636.0009a18.5263,18.5263,0,0,0-11.184,33.2131l8.265-8.265a7.1215,7.1215,0,1,1,9.4238-9.4217l8.2628-8.265a18.51,18.51,0,0,0-14.7676-7.2614Z"/><path class="cls-250" d="M913.0675,511.47a6.5056,6.5056,0,0,0,.2694,2.0363,11.9164,11.9164,0,0,0,.7772,1.645.9267.9267,0,0,1,.171.5259.8986.8986,0,0,1-.4611.6866l-1.5337.9585a1.2164,1.2164,0,0,1-.6347.2073,1.1535,1.1535,0,0,1-.7306-.3187,7.1342,7.1342,0,0,1-.8756-1.0751q-.4082-.6574-.7565-1.35a9.2351,9.2351,0,0,1-7.158,3.1554,6.9332,6.9332,0,0,1-4.87-1.6451,6.18,6.18,0,0,1,.4119-9.1036,9.2328,9.2328,0,0,1,5.9664-1.785,20.5647,20.5647,0,0,1,2.5829.184c.9015.114,1.8264.2979,2.7979.5026v-1.6684a4.8772,4.8772,0,0,0-1.14-3.6581,5.8706,5.8706,0,0,0-3.9715-1.0518,11.6457,11.6457,0,0,0-2.63.298,20.3281,20.3281,0,0,0-2.6322.7772,7.1385,7.1385,0,0,1-.8523.2953,1.5748,1.5748,0,0,1-.3886.07c-.342,0-.51-.2279-.51-.71v-1.1192a1.3944,1.3944,0,0,1,.1684-.8031,1.8154,1.8154,0,0,1,.684-.4767,14.62,14.62,0,0,1,3.0673-1.031,15.7664,15.7664,0,0,1,3.798-.4327c2.9015,0,5.0181.6166,6.3808,1.8523,1.3393,1.2332,2.0207,3.1088,2.0207,5.6218v7.4093h.0518Zm-9.886,3.4767a8.27,8.27,0,0,0,2.5078-.4145,5.43,5.43,0,0,0,2.3135-1.4612,3.5982,3.5982,0,0,0,.829-1.4637,7.7885,7.7885,0,0,0,.2435-1.99v-.9586a21.52,21.52,0,0,0-2.2409-.3886,19.5006,19.5006,0,0,0-2.29-.1373,5.864,5.864,0,0,0-3.6269.9145,3.5881,3.5881,0,0,0-.2928,5.0518,3.51,3.51,0,0,0,2.557.8472Zm19.5544,2.4689a1.42,1.42,0,0,1-.9249-.228,1.86,1.86,0,0,1-.51-.8912l-5.7254-17.6761a3.7918,3.7918,0,0,1-.2176-.9145.5164.5164,0,0,1,.5855-.57h2.3834a1.4044,1.4044,0,0,1,.9507.228,1.8075,1.8075,0,0,1,.4871.8912l4.0932,15.1373,3.798-15.1373a1.5686,1.5686,0,0,1,.4637-.8912,1.7563,1.7563,0,0,1,.9741-.2306h1.9482a1.5393,1.5393,0,0,1,.9741.2306,1.5142,1.5142,0,0,1,.4611.8912l3.85,15.3186,4.2125-15.3186a1.9025,1.9025,0,0,1,.487-.8912,1.6625,1.6625,0,0,1,.9508-.2306h2.2642c.3886,0,.6088.184.6088.5726a2.0265,2.0265,0,0,1-.0518.3653,2.7274,2.7274,0,0,1-.1684.5725l-5.8678,17.6735a1.7461,1.7461,0,0,1-.513.8938,1.6324,1.6324,0,0,1-.9249.228h-2.0932a1.5474,1.5474,0,0,1-.9741-.228,1.5856,1.5856,0,0,1-.4637-.9145l-3.7746-14.7487-3.7513,14.7254a1.7568,1.7568,0,0,1-.4612.9145,1.58,1.58,0,0,1-.9741.228Zm31.2953.6166a17.0843,17.0843,0,0,1-3.7513-.412,11.3725,11.3725,0,0,1-2.8-.9145,1.6917,1.6917,0,0,1-.7539-.64,1.5271,1.5271,0,0,1-.1477-.64V514.26c0-.4792.1943-.71.56-.71a1.53,1.53,0,0,1,.44.07c.1451.0466.3627.1373.6088.2279a14.0145,14.0145,0,0,0,2.6788.8031,15.5438,15.5438,0,0,0,2.8963.2721,6.932,6.932,0,0,0,3.557-.7539,2.4283,2.4283,0,0,0,1.2643-2.1736,2.1534,2.1534,0,0,0-.6555-1.601,6.304,6.304,0,0,0-2.4611-1.1866l-3.5311-1.031a7.4893,7.4893,0,0,1-3.8963-2.3316,5.2349,5.2349,0,0,1-1.2177-3.3161,4.8586,4.8586,0,0,1,.6581-2.5389,6.04,6.04,0,0,1,1.7538-1.873,7.9307,7.9307,0,0,1,2.5311-1.1891,11.2587,11.2587,0,0,1,3.07-.3886,13.2681,13.2681,0,0,1,1.6321.0906c.56.07,1.07.1607,1.58.2513.49.1166.9508.2306,1.3886.3679a5.65,5.65,0,0,1,1.0233.4093,2.084,2.084,0,0,1,.7306.5726,1.1662,1.1662,0,0,1,.22.7539v1.0751c0,.4819-.1943.7332-.56.7332a2.707,2.707,0,0,1-.9275-.2747,11.7281,11.7281,0,0,0-4.6735-.8937,6.6024,6.6024,0,0,0-3.2384.6424,2.1712,2.1712,0,0,0-1.145,2.0337,2.099,2.099,0,0,0,.7305,1.6244,7.4683,7.4683,0,0,0,2.6788,1.2564l3.4559,1.0285a7.4926,7.4926,0,0,1,3.7772,2.1969,4.9784,4.9784,0,0,1,1.1192,3.2,5.6039,5.6039,0,0,1-.6321,2.6528,6.2773,6.2773,0,0,1-1.78,2.013,8.0391,8.0391,0,0,1-2.7021,1.28,12.279,12.279,0,0,1-3.4818.4793Z"/><path class="cls-251" d="M961.0415,530.67c-7.9352,5.785-19.4689,8.8575-29.3833,8.8575a53.571,53.571,0,0,1-35.8756-13.5c-.7487-.6658-.0726-1.5726.8212-1.0467a72.1,72.1,0,0,0,63.2823,3.8809c1.3264-.5959,2.4611.8549,1.1554,1.8082Z"/><path class="cls-251" d="M964.3472,526.9546c-1.01-1.2849-6.7072-.6191-9.2875-.3109-.7721.0985-.8938-.57-.1943-1.07,4.5362-3.1425,11.9922-2.2358,12.86-1.1917.8679,1.0725-.2409,8.43-4.487,11.9533-.6528.5493-1.28.2617-.99-.4507.9637-2.3575,3.1114-7.6684,2.0984-8.93Z"/><g class="cls-252"><path class="cls-253" d="M899,98.1028h62v62H899Z"/></g><path class="cls-245" d="M947.4375,156.2278l-4.1443-1.9627A9.7283,9.7283,0,0,1,937.75,145.51V132.9778h19.375V145.51a9.7283,9.7283,0,0,1-5.5432,8.7556Zm-5.8125-19.375V145.51a5.8359,5.8359,0,0,0,3.3267,5.2526l2.4858,1.176,2.4858-1.176A5.8359,5.8359,0,0,0,953.25,145.51v-8.6567Z"/></g><g id="Text"><text class="cls-254" transform="translate(142.6523 539.0119)">Hyper Protect Crypto Services</text><text class="cls-255" transform="translate(579.0684 156.1281)">KYOK</text><text class="cls-255" transform="translate(579.0693 413.8713)">BYOK</text><text class="cls-255" transform="translate(579.0693 542.7444)">BYOK</text><text class="cls-255" transform="translate(170.6865 488.2658)">Master key</text><text class="cls-254" transform="translate(20 31.0715)">Integrate your key management with Unified Key Orchestrator</text><text class="cls-256" transform="translate(113.9639 405.0666)">Unified Key Orchestrator</text><text class="cls-257" transform="translate(97.5645 299.0364)">Key management service</text><text class="cls-257" transform="translate(347.8311 298.8303)">Cloud HSM</text><text class="cls-255" transform="translate(427.4902 488.2658)">HSM</text><text class="cls-255" transform="translate(579.0146 285.1037)">BYOK</text><text class="cls-256" transform="translate(671.1495 410.3528)">Key Vault</text><text class="cls-256" transform="translate(671.4131 541.5412)">Key Management Service</text><text class="cls-256" transform="translate(671.669 155.549)">Hyper Protect Crypto Services</text><text class="cls-256" transform="translate(670.669 271.8987)">Key Protect</text><text class="cls-256" transform="translate(671.4485 294.9232)">Key Protect on Satellite</text><text class="cls-255" transform="translate(578.7339 672.1062)">BYOK</text><text class="cls-256" transform="translate(671.0777 670.9031)">Key Management Service</text></g></svg>