<svg xmlns="http://www.w3.org/2000/svg" width="1056" height="390" viewBox="0 0 1056 390">
    <defs>
        <style>.cls-1,.cls-15{fill:#fff;}.cls-10,.cls-12,.cls-16,.cls-19,.cls-2,.cls-20,.cls-3,.cls-4,.cls-5{fill:none;}.cls-2,.cls-3,.cls-4,.cls-5{stroke:#9fa5ad;}.cls-10,.cls-15,.cls-16,.cls-2,.cls-3,.cls-4,.cls-5,.cls-6{stroke-miterlimit:10;}.cls-3{stroke-dasharray:1.9997 1.9997;}.cls-4{stroke-dasharray:1.9996 1.9996;}.cls-5{stroke-dasharray:1.9942 1.9942;}.cls-6{fill:#f4f4f4;}.cls-12,.cls-13,.cls-14,.cls-15,.cls-16,.cls-18,.cls-6,.cls-7,.cls-8,.cls-9{stroke:#000;}.cls-19,.cls-6{stroke-dasharray:2;}.cls-7{fill:#00bab6;}.cls-12,.cls-13,.cls-15,.cls-16,.cls-19,.cls-20,.cls-7,.cls-8,.cls-9{stroke-linecap:round;}.cls-12,.cls-13,.cls-14,.cls-18,.cls-19,.cls-20,.cls-7,.cls-8,.cls-9{stroke-linejoin:round;}.cls-18,.cls-27,.cls-8{fill:#87eded;}.cls-9{fill:#20d5d2;}.cls-10{stroke:#50565b;stroke-width:2px;}.cls-11{fill:#50565b;}.cls-13,.cls-14,.cls-17{fill:#b3e6ff;}.cls-19,.cls-20{stroke:#1193e8;}.cls-20{stroke-dasharray:2 2;}.cls-21{fill:#1193e8;}.cls-22{fill:#e3f6ff;}.cls-23,.cls-25{font-size:16px;}.cls-23,.cls-24{font-family:IBMPlexSans-SemiBold, IBM Plex Sans;font-weight:600;}.cls-24{font-size:18px;}.cls-25,.cls-26{font-family:IBMPlexSans, IBM Plex Sans;}.cls-26{font-size:14px;}</style>
    </defs>
    <g id="Layer_1" data-name="Layer 1">
        <rect class="cls-1" x="308.3867" y="58.9016" width="623.9037" height="243.9533" />
        <polyline class="cls-2" points="932.29 301.855 932.29 302.855 931.29 302.855" />
        <line class="cls-3" x1="929.2906" y1="302.855" x2="310.3865" y2="302.855" />
        <polyline class="cls-2" points="309.387 302.855 308.387 302.855 308.387 301.855" />
        <line class="cls-4" x1="308.3867" y1="299.8554" x2="308.3867" y2="60.9015" />
        <polyline class="cls-2" points="308.387 59.902 308.387 58.902 309.387 58.902" />
        <line class="cls-3" x1="311.3864" y1="58.9016" x2="930.2905" y2="58.9016" />
        <polyline class="cls-2" points="931.29 58.902 932.29 58.902 932.29 59.902" />
        <line class="cls-4" x1="932.2903" y1="61.9013" x2="932.2903" y2="300.8552" />
        <rect class="cls-1" x="47.229" y="58.9016" width="231.3351" height="243.9533" />
        <polyline class="cls-2" points="278.564 301.855 278.564 302.855 277.564 302.855" />
        <line class="cls-5" x1="275.5698" y1="302.855" x2="49.2261" y2="302.855" />
        <polyline class="cls-2" points="48.229 302.855 47.229 302.855 47.229 301.855" />
        <line class="cls-4" x1="47.229" y1="299.8554" x2="47.229" y2="60.9015" />
        <polyline class="cls-2" points="47.229 59.902 47.229 58.902 48.229 58.902" />
        <line class="cls-5" x1="50.2232" y1="58.9016" x2="276.5669" y2="58.9016" />
        <polyline class="cls-2" points="277.564 58.902 278.564 58.902 278.564 59.902" />
        <line class="cls-4" x1="278.564" y1="61.9013" x2="278.564" y2="300.8552" />
        <rect class="cls-6" x="78.4244" y="107.2717" width="168.9442" height="168.2437" />
        <rect class="cls-6" x="337.8298" y="106.5707" width="356.1153" height="168.2437" />
        <rect class="cls-6" x="850.9726" y="106.5707" width="157.0274" height="168.2437" />
        <g id="gear">
            <path id="gear-2" data-name="gear" class="cls-7" d="M783.5611,180.2749l-1.0992,2.6284,2.5666,2.5666-3.91,3.9089L778.56,186.82l-2.6358,1.0814v3.63h-5.5286v-3.6192l-2.6284-1.0991L765.2,189.38l-3.9089-3.9089,2.5592-2.5591-1.0815-2.6358H759.14v-5.5287h3.6191l1.0992-2.6284-2.5667-2.5666,3.9089-3.9089,2.5591,2.5592,2.6359-1.0814v-3.63h5.5286V167.11l2.6284,1.0992,2.5666-2.5666,3.91,3.9089-2.5592,2.5591,1.0815,2.6358H787.18v5.5287ZM773.16,170.9682a6.5429,6.5429,0,1,0,6.5428,6.5428A6.5429,6.5429,0,0,0,773.16,170.9682Z" />
        </g>
        <g id="gear-3" data-name="gear">
            <path id="gear-4" data-name="gear" class="cls-8" d="M768.1387,155.0384l-1.0992,2.6283,2.5667,2.5667-3.91,3.9088-2.5592-2.5592-2.6358,1.0815v3.63h-5.5287v-3.6191l-2.6283-1.0992-2.5667,2.5666-3.9088-3.9088,2.5591-2.5592-1.0814-2.6358h-3.6294v-5.5287h3.6191l1.0992-2.6283-2.5666-2.5667,3.9088-3.9088,2.5592,2.5591,2.6358-1.0814v-3.63h5.5287v3.6191l2.6283,1.0992,2.5667-2.5667,3.91,3.9089-2.5592,2.5592,1.0814,2.6358h3.6294v5.5287Zm-10.4012-9.3067a6.5428,6.5428,0,1,0,6.5428,6.5428A6.5428,6.5428,0,0,0,757.7375,145.7317Z" />
        </g>
        <g id="gear-5" data-name="gear">
            <path id="gear-6" data-name="gear" class="cls-9" d="M798.9834,155.0384l-1.0992,2.6283,2.5667,2.5667-3.91,3.9088-2.5592-2.5592-2.6358,1.0815v3.63h-5.5287v-3.6191l-2.6284-1.0992-2.5666,2.5666-3.9089-3.9088,2.5592-2.5592-1.0814-2.6358h-3.6294v-5.5287h3.6191l1.0992-2.6283-2.5667-2.5667,3.9089-3.9088,2.5592,2.5591,2.6358-1.0814v-3.63h5.5287v3.6191l2.6283,1.0992,2.5667-2.5667,3.91,3.9089-2.5592,2.5592,1.0814,2.6358h3.6294v5.5287Zm-10.4012-9.3067a6.5428,6.5428,0,1,0,6.5428,6.5428A6.5428,6.5428,0,0,0,788.5822,145.7317Z" />
        </g>
        <line class="cls-10" x1="679.2238" y1="191.3936" x2="730.9661" y2="191.3936" />
        <polygon class="cls-11" points="729.799 195.383 736.707 191.394 729.799 187.404 729.799 195.383" />
        <line class="cls-10" x1="809.6127" y1="191.3936" x2="861.3549" y2="191.3936" />
        <polygon class="cls-11" points="860.188 195.383 867.096 191.394 860.188 187.404 860.188 195.383" />
        <g id="add">
            <line class="cls-12" x1="501.8669" y1="164.0539" x2="515.8872" y2="164.0539" />
            <line class="cls-12" x1="508.8771" y1="157.0438" x2="508.8771" y2="171.0641" />
        </g>
        <g id="key">
            <path class="cls-13" d="M160.1191,170.81a16.3757,16.3757,0,1,1-8.417-7.3171" />
            <circle cx="142.0417" cy="182.5112" r="3.5051" />
            <polyline class="cls-14" points="151.702 163.493 174.825 140.371 183.481 140.371 183.481 147.831 168.943 162.369 163.754 162.393 163.754 167.176 160.119 170.81" />
        </g>
        <g id="Doc">
            <polygon class="cls-15" points="138.657 143.242 138.657 195.818 180.718 195.818 180.718 153.757 170.203 143.242 138.657 143.242" />
            <polyline class="cls-16" points="170.203 143.242 170.203 153.757 180.718 153.757" />
            <line class="cls-16" x1="147.0691" y1="175.8391" x2="165.4708" y2="175.8391" />
            <line class="cls-16" x1="147.0691" y1="159.891" x2="172.3057" y2="159.891" />
            <line class="cls-16" x1="147.0691" y1="167.7775" x2="172.3057" y2="167.7775" />
        </g>
        <g id="lock">
            <g id="lock-2" data-name="lock">
                <rect class="cls-17" x="176.5958" y="183.4125" width="9.8142" height="5.6081" />
                <path class="cls-13" d="M192.7191,196.87a11.2162,11.2162,0,1,1-11.2162-11.2162A11.216,11.216,0,0,1,192.7191,196.87Zm-5.6081-9.7155v-7.1089a5.6081,5.6081,0,1,0-11.2162,0v7.1089m5.6081,9.1547v3.9257" />
                <circle cx="181.5029" cy="196.3088" r="1.6824" />
            </g>
        </g>
        <path class="cls-12" d="M170.4128,198.6245c-1.5983-.8272-3.2246-1.7525-4.893-2.804-1.8647-1.1637-3.7575-2.4816-5.6643-3.9117-1.0375-.7851-2.075-1.5983-3.1125-2.4535a103.2652,103.2652,0,0,1-7.8373-7.0943,104.9748,104.9748,0,0,1-7.4448-8.258c-.9954-1.22-1.9208-2.44-2.8041-3.6453-.4766-.6449-.9253-1.29-1.36-1.9207-.7571-1.1076-1.4862-2.2012-2.1451-3.2948-6.59-10.6274-8.6646-20.0491-4.4725-24.2411,3.6733-3.6733,11.3845-2.5377,20.3855,2.2432" />
    </g>
    <g id="key-2" data-name="key">
        <g id="key-3" data-name="key">
            <path class="cls-8" d="M419.9048,169.0119a16.3757,16.3757,0,1,1-.7777-11.1257" />
            <circle cx="398.8484" cy="164.503" r="3.5051" />
            <polyline class="cls-18" points="419.127 157.886 451.828 157.886 457.948 164.007 452.673 169.282 432.113 169.282 428.427 165.63 425.045 169.012 419.905 169.012" />
        </g>
        <g id="key-4" data-name="key">
            <path class="cls-8" d="M604.4073,164.3252a16.3758,16.3758,0,1,1-8.4169-7.317" />
            <circle cx="586.33" cy="176.0261" r="3.5051" />
            <polyline class="cls-18" points="595.99 157.008 619.113 133.885 627.769 133.885 627.769 141.346 613.231 155.884 608.042 155.908 608.042 160.691 604.407 164.325" />
        </g>
        <g id="key-5" data-name="key">
            <path class="cls-13" d="M929.543,166.2078a16.3759,16.3759,0,1,1-.7778-11.1256" />
            <circle cx="908.4866" cy="161.6989" r="3.5051" />
            <polyline class="cls-14" points="928.765 155.082 961.466 155.082 967.587 161.203 962.311 166.478 941.751 166.478 938.065 162.826 934.683 166.208 929.543 166.208" />
        </g>
        <g id="key-6" data-name="key">
            <path class="cls-13" d="M598.9547,159.864a16.3759,16.3759,0,1,1-8.417-7.317" />
            <circle cx="580.8773" cy="171.5649" r="3.5051" />
            <polyline class="cls-14" points="590.538 152.547 613.66 129.424 622.317 129.424 622.317 136.885 607.778 151.423 602.589 151.447 602.589 156.229 598.955 159.864" />
        </g>
        <line class="cls-19" x1="965.2381" y1="275.5154" x2="965.2381" y2="364.5443" />
        <line class="cls-19" x1="964.537" y1="364.5443" x2="159.7714" y2="364.5443" />
        <line class="cls-20" x1="159.7714" y1="364.5443" x2="159.7714" y2="291.7384" />
        <polygon class="cls-21" points="162.763 292.614 159.771 287.433 156.78 292.614 162.763 292.614" />
        <path class="cls-22" d="M311.6857,327.3905H746.7274a4,4,0,0,1,4,4v32.4528a0,0,0,0,1,0,0H307.6857a0,0,0,0,1,0,0V331.3905A4,4,0,0,1,311.6857,327.3905Z" />
    </g>
    <g id="text">
        <text class="cls-23" transform="translate(72.8125 89.4647)">IBM Cloud data service</text>
        <text class="cls-24" transform="translate(24.5752 34.7851)">Unwrapping keys</text>
        <text class="cls-23" transform="translate(336.6133 88.0624)">Hyper Protect Crypto Services</text>
        <text class="cls-25" transform="translate(366.9692 223.2089)">
            Root key managed
            <tspan x="0.2163" y="19.2002">in service instance</tspan>
        </text>
        <text class="cls-25" transform="translate(895.8955 223.2089)">
            DEK from
            <tspan x="-9.4717" y="19.2002">data service</tspan>
        </text>
        <text class="cls-25" transform="translate(756.5244 223.2089)">
            AES
            <tspan x="-18.0957" y="19.2002">algorithm</tspan>
        </text>
        <text class="cls-25" transform="translate(553.5664 223.2089)">
            Wrapped DEK
            <tspan x="-12.6953" y="19.2002">from data service</tspan>
        </text>
        <text class="cls-26" transform="translate(357.0537 351.351)">DEK returns to data service and unwraps the data at rest</text>
        <text class="cls-25" transform="translate(108.2354 238.3612)">Wrapped data</text>
    </g>
    <g id="Layer_4" data-name="Layer 4">
        <g id="lock-3" data-name="lock">
            <g id="lock-4" data-name="lock">
                <rect class="cls-27" x="615.4314" y="176.6722" width="9.8142" height="5.6081" />
                <path class="cls-8" d="M620.3385,193.4966v-3.9257m-5.6081-9.1553v-7.1082a4.3084,4.3084,0,0,1,.0561-.7431,5.6045,5.6045,0,0,1,11.16.7431v7.1082m0,0c-.2243-.1262-.4627-.2523-.701-.3645a11.0753,11.0753,0,0,0-4.9071-1.1357,11.6145,11.6145,0,0,0-2.4395.2664,11.1955,11.1955,0,0,0-2.4676.8693c-.2383.1122-.4767.2383-.701.3645a11.2163,11.2163,0,1,0,11.2162,0Z" />
                <circle cx="620.3385" cy="189.5685" r="1.6824" />
            </g>
        </g>
        <path class="cls-12" d="M575.095,154.5061c-4.4445-6.9681-6.1129-12.7024-3.8276-14.9877,3.0985-3.0985,12.5062,1.0515,22.755,9.5338q2.6078,2.1452,5.2576,4.6548c.687.6449,1.374,1.3179,2.061,2.0049l.8833.8832c1.6824,1.7245,3.2667,3.4631,4.7248,5.1876a75.335,75.335,0,0,1,7.8374,10.7816" />
        <path class="cls-12" d="M609.9915,185.8135a39.469,39.469,0,0,1-6.9681-3.5472" />
    </g>
</svg>