<svg id="Layer_1" data-name="Layer 1" xmlns="http://www.w3.org/2000/svg" xmlns:xlink="http://www.w3.org/1999/xlink" viewBox="0 0 952.56 465.12"><defs><style>.cls-1{fill:#fff;}.cls-2{fill:url(#linear-gradient);}.cls-3{fill:#231f20;}.cls-4,.cls-5,.cls-6,.cls-7{fill:none;}.cls-5,.cls-6,.cls-7{stroke:#231f20;stroke-miterlimit:10;}.cls-5{stroke-dasharray:5 5;}.cls-7{stroke-dasharray:5;}.cls-8{fill:#939598;}.cls-9{fill:#010101;}.cls-10{mask:url(#mask);}.cls-11{fill:url(#linear-gradient-2);}.cls-12{fill:#f4f4f4;}.cls-13{fill:#009444;}.cls-14{fill:#fff200;}</style><linearGradient id="linear-gradient" x1="431.84" y1="172.71" x2="442.84" y2="172.71" gradientTransform="translate(43.81 116.09)" gradientUnits="userSpaceOnUse"><stop offset="0.1" stop-color="#010101"/><stop offset="0.89" stop-color="#010101" stop-opacity="0"/></linearGradient><mask id="mask" x="459.41" y="188.98" width="32" height="32" maskUnits="userSpaceOnUse"><g transform="translate(-12.25 -78.82)"><circle id="node" class="cls-1" cx="478.66" cy="292.79" r="1"/><path id="storage" class="cls-1" d="M499.66,287.79h-2v2h2v6h-24v-6h10v-2h-10a2,2,0,0,0-2,2v6a2,2,0,0,0,2,2h24a2,2,0,0,0,2-2v-6A2,2,0,0,0,499.66,287.79Z"/><rect class="cls-2" x="475.66" y="286.79" width="11" height="4" transform="translate(962.31 577.59) rotate(180)"/></g></mask><linearGradient id="linear-gradient-2" x1="459.41" y1="220.98" x2="491.41" y2="188.98" gradientUnits="userSpaceOnUse"><stop offset="0.1" stop-color="#ad96c7"/><stop offset="0.9" stop-color="#5a80c1"/></linearGradient></defs><path class="cls-3" d="M754,489.17a5.93,5.93,0,0,1-2.49.45,4.42,4.42,0,0,1-4.67-4.78,4.71,4.71,0,0,1,4.93-5,5.25,5.25,0,0,1,2.25.42l-.3,1a4.49,4.49,0,0,0-1.9-.39c-2.22,0-3.69,1.41-3.69,3.89,0,2.31,1.33,3.8,3.63,3.8a5,5,0,0,0,2-.39Z" transform="translate(-12.25 -78.82)"/><path class="cls-3" d="M757.71,481.08h-2.87v-1h7v1h-2.89v8.4h-1.23Z" transform="translate(-12.25 -78.82)"/><path class="cls-3" d="M769.09,489.17a5.93,5.93,0,0,1-2.49.45,4.41,4.41,0,0,1-4.66-4.78,4.7,4.7,0,0,1,4.93-5,5.2,5.2,0,0,1,2.24.42l-.3,1a4.49,4.49,0,0,0-1.9-.39c-2.22,0-3.69,1.41-3.69,3.89,0,2.31,1.33,3.8,3.63,3.8a5,5,0,0,0,2-.39Z" transform="translate(-12.25 -78.82)"/><path class="cls-3" d="M773.54,484.82c0-.8,0-1.49,0-2.12h1.07l.05,1.33h0a2,2,0,0,1,1.88-1.48,1.25,1.25,0,0,1,.35,0v1.16a1.76,1.76,0,0,0-.42,0,1.72,1.72,0,0,0-1.65,1.58,3.34,3.34,0,0,0-.06.58v3.61h-1.22Z" transform="translate(-12.25 -78.82)"/><path class="cls-3" d="M778.67,486.31a2.17,2.17,0,0,0,2.32,2.36,4.57,4.57,0,0,0,1.88-.35l.21.88a5.47,5.47,0,0,1-2.26.42,3.15,3.15,0,0,1-3.33-3.42c0-2,1.2-3.65,3.18-3.65,2.21,0,2.8,1.94,2.8,3.19a5.55,5.55,0,0,1,0,.57Zm3.61-.88a1.76,1.76,0,0,0-1.71-2,2,2,0,0,0-1.89,2Z" transform="translate(-12.25 -78.82)"/><path class="cls-3" d="M785,484.91c0-.87,0-1.57,0-2.21H786l.06,1.16h0a2.67,2.67,0,0,1,2.41-1.31c1.64,0,2.87,1.38,2.87,3.44,0,2.44-1.49,3.64-3.08,3.64a2.38,2.38,0,0,1-2.09-1.06h0v3.68H785Zm1.22,1.81a2.54,2.54,0,0,0,.06.5,1.89,1.89,0,0,0,1.85,1.45c1.3,0,2.06-1.07,2.06-2.62,0-1.36-.72-2.52-2-2.52a2,2,0,0,0-1.86,1.52,1.76,1.76,0,0,0-.09.51Z" transform="translate(-12.25 -78.82)"/><path class="cls-3" d="M799.09,486a3.31,3.31,0,0,1-3.37,3.6,3.22,3.22,0,0,1-3.25-3.48,3.31,3.31,0,0,1,3.36-3.6A3.2,3.2,0,0,1,799.09,486Zm-5.38.07c0,1.49.86,2.61,2.06,2.61s2.06-1.11,2.06-2.63c0-1.15-.57-2.61-2-2.61S793.71,484.82,793.71,486.1Z" transform="translate(-12.25 -78.82)"/><path class="cls-3" d="M800.48,488.22a3.2,3.2,0,0,0,1.62.49c.9,0,1.32-.45,1.32-1s-.35-.91-1.26-1.25c-1.22-.43-1.8-1.1-1.8-1.91a2.09,2.09,0,0,1,2.34-2,3.33,3.33,0,0,1,1.67.42l-.31.89a2.58,2.58,0,0,0-1.38-.39c-.73,0-1.14.42-1.14.92s.41.82,1.29,1.15c1.18.45,1.78,1,1.78,2,0,1.19-.93,2-2.54,2a3.84,3.84,0,0,1-1.9-.46Z" transform="translate(-12.25 -78.82)"/><path class="cls-3" d="M807.56,480.79a.76.76,0,1,1-1.52,0,.75.75,0,0,1,.76-.77A.73.73,0,0,1,807.56,480.79Zm-1.37,8.69V482.7h1.23v6.78Z" transform="translate(-12.25 -78.82)"/><path class="cls-3" d="M811,480.75v1.95h1.76v.94H811v3.65c0,.84.24,1.32.92,1.32a2.91,2.91,0,0,0,.72-.08l0,.92a2.91,2.91,0,0,1-1.09.17,1.71,1.71,0,0,1-1.33-.52,2.51,2.51,0,0,1-.47-1.76v-3.7h-1.06v-.94h1.06v-1.62Z" transform="translate(-12.25 -78.82)"/><path class="cls-3" d="M820.15,486a3.31,3.31,0,0,1-3.38,3.6,3.22,3.22,0,0,1-3.25-3.48,3.31,3.31,0,0,1,3.37-3.6A3.21,3.21,0,0,1,820.15,486Zm-5.38.07c0,1.49.85,2.61,2.06,2.61s2.06-1.11,2.06-2.63c0-1.15-.58-2.61-2-2.61S814.77,484.82,814.77,486.1Z" transform="translate(-12.25 -78.82)"/><path class="cls-3" d="M821.7,484.82c0-.8,0-1.49-.06-2.12h1.08l0,1.33h.06a2,2,0,0,1,1.88-1.48,1.25,1.25,0,0,1,.35,0v1.16a1.76,1.76,0,0,0-.42,0,1.72,1.72,0,0,0-1.65,1.58,3.34,3.34,0,0,0-.06.58v3.61H821.7Z" transform="translate(-12.25 -78.82)"/><path class="cls-3" d="M827.08,482.7l1.48,4c.16.44.32,1,.44,1.38h0c.13-.4.27-.92.44-1.41l1.34-4h1.31l-1.85,4.83c-.89,2.33-1.49,3.52-2.33,4.25a3.39,3.39,0,0,1-1.51.8l-.31-1a3.49,3.49,0,0,0,1.08-.6,3.88,3.88,0,0,0,1-1.38.92.92,0,0,0,.09-.29,1.2,1.2,0,0,0-.08-.32l-2.51-6.25Z" transform="translate(-12.25 -78.82)"/><path class="cls-4" d="M858.31,219.14H816.59c-6.76,0,1.41,5.1,1.41-1.2v-2.86c0-6.29-8.17-21.7-1.41-21.7h41.72" transform="translate(-12.25 -78.82)"/><path class="cls-3" d="M859.37,196.53a13.82,13.82,0,0,1,2.34-.19,3.85,3.85,0,0,1,2.65.79,2.52,2.52,0,0,1,.82,2,2.8,2.8,0,0,1-.72,2,3.92,3.92,0,0,1-2.89,1,4.19,4.19,0,0,1-1-.09v3.79h-1.22Zm1.22,4.55a4.09,4.09,0,0,0,1,.1c1.47,0,2.37-.72,2.37-2s-.89-1.85-2.23-1.85a4.88,4.88,0,0,0-1.15.1Z" transform="translate(-12.25 -78.82)"/><path class="cls-3" d="M870.17,205.86l-.1-.86h0a2.54,2.54,0,0,1-2.08,1,1.93,1.93,0,0,1-2.07-1.95c0-1.64,1.46-2.53,4.08-2.52v-.14a1.4,1.4,0,0,0-1.54-1.57,3.39,3.39,0,0,0-1.77.51l-.28-.82a4.24,4.24,0,0,1,2.23-.6c2.07,0,2.58,1.42,2.58,2.78v2.53a9.08,9.08,0,0,0,.11,1.63ZM870,202.4c-1.34,0-2.87.21-2.87,1.52a1.1,1.1,0,0,0,1.17,1.18,1.69,1.69,0,0,0,1.64-1.14,1.27,1.27,0,0,0,.06-.39Z" transform="translate(-12.25 -78.82)"/><path class="cls-3" d="M873.16,201.19c0-.8,0-1.48-.06-2.11h1.08l.05,1.33h0a2,2,0,0,1,1.88-1.49,1.78,1.78,0,0,1,.35,0v1.17a1.67,1.67,0,0,0-2.07,1.54,3.22,3.22,0,0,0-.06.57v3.62h-1.22Z" transform="translate(-12.25 -78.82)"/><path class="cls-3" d="M879.56,197.13v2h1.76V200h-1.76v3.66c0,.84.24,1.32.92,1.32a2.82,2.82,0,0,0,.72-.09l0,.93a2.91,2.91,0,0,1-1.09.17,1.73,1.73,0,0,1-1.33-.52,2.53,2.53,0,0,1-.48-1.77V200H877.3v-.93h1.05v-1.63Z" transform="translate(-12.25 -78.82)"/><path class="cls-3" d="M884.08,197.17a.72.72,0,0,1-.78.76.74.74,0,0,1-.75-.76.76.76,0,0,1,.78-.77A.73.73,0,0,1,884.08,197.17Zm-1.37,8.69v-6.78h1.23v6.78Z" transform="translate(-12.25 -78.82)"/><path class="cls-3" d="M887.47,197.13v2h1.76V200h-1.76v3.66c0,.84.24,1.32.92,1.32a2.82,2.82,0,0,0,.72-.09l0,.93a2.91,2.91,0,0,1-1.09.17,1.74,1.74,0,0,1-1.33-.52,2.53,2.53,0,0,1-.48-1.77V200h-1v-.93h1v-1.63Z" transform="translate(-12.25 -78.82)"/><path class="cls-3" d="M892,197.17a.73.73,0,0,1-.78.76.74.74,0,0,1-.75-.76.76.76,0,0,1,.77-.77A.73.73,0,0,1,892,197.17Zm-1.37,8.69v-6.78h1.23v6.78Z" transform="translate(-12.25 -78.82)"/><path class="cls-3" d="M900,202.41a3.31,3.31,0,0,1-3.38,3.6,3.22,3.22,0,0,1-3.25-3.49,3.31,3.31,0,0,1,3.37-3.6A3.21,3.21,0,0,1,900,202.41Zm-5.38.07c0,1.48.85,2.6,2.06,2.6s2.06-1.1,2.06-2.63c0-1.15-.58-2.6-2-2.6S894.65,201.19,894.65,202.48Z" transform="translate(-12.25 -78.82)"/><path class="cls-3" d="M901.58,200.91c0-.7,0-1.27-.06-1.83h1.1l.07,1.12h0a2.51,2.51,0,0,1,2.25-1.28c.93,0,2.39.56,2.39,2.89v4.05h-1.23V202c0-1.1-.41-2-1.57-2a1.75,1.75,0,0,0-1.65,1.27,1.62,1.62,0,0,0-.09.57v4.08h-1.23Z" transform="translate(-12.25 -78.82)"/><path class="cls-3" d="M918.17,195.91v8.19c0,.61,0,1.29.06,1.76h-1.11l0-1.18h0a2.51,2.51,0,0,1-2.31,1.33c-1.64,0-2.9-1.39-2.9-3.45,0-2.25,1.38-3.64,3-3.64a2.26,2.26,0,0,1,2,1h0v-4.05Zm-1.23,5.93a1.91,1.91,0,0,0-1.83-2c-1.28,0-2,1.12-2,2.62s.68,2.51,2,2.51a1.85,1.85,0,0,0,1.8-1.48,1.76,1.76,0,0,0,.06-.53Z" transform="translate(-12.25 -78.82)"/><path class="cls-3" d="M924,205.86l-.1-.86h0a2.54,2.54,0,0,1-2.08,1,1.93,1.93,0,0,1-2.07-1.95c0-1.64,1.46-2.53,4.08-2.52v-.14a1.4,1.4,0,0,0-1.54-1.57,3.39,3.39,0,0,0-1.77.51l-.28-.82a4.24,4.24,0,0,1,2.23-.6c2.07,0,2.58,1.42,2.58,2.78v2.53a9.08,9.08,0,0,0,.11,1.63Zm-.18-3.46c-1.35,0-2.87.21-2.87,1.52a1.09,1.09,0,0,0,1.16,1.18,1.69,1.69,0,0,0,1.64-1.14,1.28,1.28,0,0,0,.07-.39Z" transform="translate(-12.25 -78.82)"/><path class="cls-3" d="M928.39,197.13v2h1.77V200h-1.77v3.66c0,.84.24,1.32.93,1.32a2.73,2.73,0,0,0,.71-.09l.06.93a3,3,0,0,1-1.1.17,1.74,1.74,0,0,1-1.33-.52,2.53,2.53,0,0,1-.47-1.77V200h-1.05v-.93h1.05v-1.63Z" transform="translate(-12.25 -78.82)"/><path class="cls-3" d="M935.29,205.86l-.09-.86h-.05a2.51,2.51,0,0,1-2.07,1,1.93,1.93,0,0,1-2.07-1.95c0-1.64,1.45-2.53,4.07-2.52v-.14a1.4,1.4,0,0,0-1.54-1.57,3.33,3.33,0,0,0-1.76.51l-.28-.82a4.23,4.23,0,0,1,2.22-.6c2.08,0,2.58,1.42,2.58,2.78v2.53a10.11,10.11,0,0,0,.11,1.63Zm-.18-3.46c-1.34,0-2.87.21-2.87,1.52a1.09,1.09,0,0,0,1.16,1.18A1.67,1.67,0,0,0,935,204a1.28,1.28,0,0,0,.07-.39Z" transform="translate(-12.25 -78.82)"/><path class="cls-3" d="M941.09,204.59a3.2,3.2,0,0,0,1.62.49c.9,0,1.32-.44,1.32-1s-.35-.91-1.26-1.25c-1.22-.43-1.79-1.11-1.79-1.92a2.09,2.09,0,0,1,2.33-2,3.44,3.44,0,0,1,1.67.42l-.31.9a2.58,2.58,0,0,0-1.38-.39c-.73,0-1.14.42-1.14.92s.41.81,1.29,1.15c1.18.45,1.78,1,1.78,2,0,1.2-.93,2-2.54,2a3.86,3.86,0,0,1-1.9-.47Z" transform="translate(-12.25 -78.82)"/><path class="cls-3" d="M947.49,202.69a2.16,2.16,0,0,0,2.32,2.35,4.41,4.41,0,0,0,1.88-.35l.21.89a5.64,5.64,0,0,1-2.26.42,3.15,3.15,0,0,1-3.33-3.42c0-2.05,1.2-3.66,3.18-3.66,2.21,0,2.8,2,2.8,3.2,0,.25,0,.44,0,.57Zm3.61-.88a1.76,1.76,0,0,0-1.71-2,2,2,0,0,0-1.89,2Z" transform="translate(-12.25 -78.82)"/><path class="cls-3" d="M955.3,197.13v2h1.76V200H955.3v3.66c0,.84.24,1.32.92,1.32a2.89,2.89,0,0,0,.72-.09l0,.93a2.91,2.91,0,0,1-1.09.17,1.73,1.73,0,0,1-1.33-.52,2.53,2.53,0,0,1-.48-1.77V200H953v-.93h1.05v-1.63Z" transform="translate(-12.25 -78.82)"/><path class="cls-3" d="M613.55,205.8a5,5,0,0,0,2.35.61c1.34,0,2.12-.66,2.12-1.61s-.54-1.38-1.91-1.88c-1.65-.54-2.68-1.34-2.68-2.67s1.31-2.56,3.28-2.56a4.85,4.85,0,0,1,2.24.46l-.36,1a4.24,4.24,0,0,0-1.92-.45c-1.39,0-1.91.77-1.91,1.42,0,.88.61,1.32,2,1.82,1.71.62,2.59,1.39,2.59,2.77s-1.16,2.72-3.55,2.72a5.5,5.5,0,0,1-2.59-.6Z" transform="translate(-12.25 -78.82)"/><path class="cls-3" d="M621.92,204.12a2.26,2.26,0,0,0,2.5,2.35,5.18,5.18,0,0,0,2-.35l.23.88a6.24,6.24,0,0,1-2.42.42,3.26,3.26,0,0,1-3.58-3.42,3.38,3.38,0,0,1,3.41-3.65,2.94,2.94,0,0,1,3,3.19,3.66,3.66,0,0,1-.05.58Zm3.88-.89a1.79,1.79,0,0,0-1.83-2,2.1,2.1,0,0,0-2,2Z" transform="translate(-12.25 -78.82)"/><path class="cls-3" d="M633.67,206.23h0a2.63,2.63,0,0,1-2.37,1.21,3.18,3.18,0,0,1-3.08-3.44,3.34,3.34,0,0,1,3.29-3.65,2.43,2.43,0,0,1,2.24,1.17h0l0-1H635c0,.58,0,1.16,0,1.86v7.69h-1.33Zm0-3a1.77,1.77,0,0,0-.06-.52,1.9,1.9,0,0,0-1.89-1.4c-1.37,0-2.19,1.08-2.19,2.6,0,1.35.69,2.52,2.14,2.52a2,2,0,0,0,2-1.93Z" transform="translate(-12.25 -78.82)"/><path class="cls-3" d="M643.26,205.43c0,.7,0,1.32.06,1.85h-1.17l-.08-1.11h0a2.76,2.76,0,0,1-2.4,1.27c-1.14,0-2.51-.59-2.51-3v-4h1.32v3.76c0,1.28.42,2.15,1.62,2.15a1.91,1.91,0,0,0,1.75-1.12,1.77,1.77,0,0,0,.12-.63V200.5h1.32Z" transform="translate(-12.25 -78.82)"/><path class="cls-3" d="M646.19,204.12a2.26,2.26,0,0,0,2.49,2.35,5.24,5.24,0,0,0,2-.35l.22.88a6.16,6.16,0,0,1-2.42.42,3.26,3.26,0,0,1-3.58-3.42,3.39,3.39,0,0,1,3.42-3.65,2.93,2.93,0,0,1,3,3.19c0,.25,0,.45,0,.58Zm3.87-.89a1.79,1.79,0,0,0-1.83-2,2.11,2.11,0,0,0-2,2Z" transform="translate(-12.25 -78.82)"/><path class="cls-3" d="M653,202.34c0-.7,0-1.28-.06-1.84h1.17l.08,1.12h0a2.71,2.71,0,0,1,2.4-1.27c1,0,2.57.56,2.57,2.88v4.05h-1.32v-3.91c0-1.09-.44-2-1.69-2a1.86,1.86,0,0,0-1.77,1.26,1.68,1.68,0,0,0-.09.58v4.07H653Z" transform="translate(-12.25 -78.82)"/><path class="cls-3" d="M662.85,198.55v1.95h1.89v.94h-1.89v3.66c0,.84.26,1.31,1,1.31a3.33,3.33,0,0,0,.77-.08l.06.92a3.4,3.4,0,0,1-1.17.17,1.88,1.88,0,0,1-1.43-.52,2.35,2.35,0,0,1-.51-1.76v-3.7h-1.13v-.94h1.13v-1.62Z" transform="translate(-12.25 -78.82)"/><path class="cls-3" d="M667.7,198.6a.75.75,0,0,1-.84.75.76.76,0,0,1-.8-.75.78.78,0,0,1,.83-.77A.75.75,0,0,1,667.7,198.6Zm-1.47,8.68V200.5h1.32v6.78Z" transform="translate(-12.25 -78.82)"/><path class="cls-3" d="M673.77,207.28l-.1-.85h0a2.78,2.78,0,0,1-2.22,1,2,2,0,0,1-2.23-1.95c0-1.64,1.57-2.54,4.38-2.52v-.14c0-.56-.17-1.57-1.66-1.57a3.8,3.8,0,0,0-1.89.5l-.3-.81a4.8,4.8,0,0,1,2.39-.6,2.47,2.47,0,0,1,2.76,2.77v2.54a8.91,8.91,0,0,0,.12,1.62Zm-.19-3.46c-1.45,0-3.08.21-3.08,1.53a1.12,1.12,0,0,0,1.24,1.17,1.81,1.81,0,0,0,1.76-1.13,1.13,1.13,0,0,0,.08-.39Z" transform="translate(-12.25 -78.82)"/><path class="cls-3" d="M677,197.34h1.32v9.94H677Z" transform="translate(-12.25 -78.82)"/><path class="cls-3" d="M683.76,198a19,19,0,0,1,2.78-.2,6.11,6.11,0,0,1,4.11,1.18,4.2,4.2,0,0,1,1.42,3.39,4.83,4.83,0,0,1-1.45,3.67,6.55,6.55,0,0,1-4.48,1.36,22.52,22.52,0,0,1-2.38-.12Zm1.31,8.34a8.32,8.32,0,0,0,1.32.07c2.8,0,4.32-1.45,4.32-4,0-2.23-1.34-3.64-4.11-3.64a8.11,8.11,0,0,0-1.53.12Z" transform="translate(-12.25 -78.82)"/><path class="cls-3" d="M697.75,207.28l-.1-.85h0a2.78,2.78,0,0,1-2.22,1,2,2,0,0,1-2.23-1.95c0-1.64,1.57-2.54,4.38-2.52v-.14c0-.56-.17-1.57-1.66-1.57a3.8,3.8,0,0,0-1.89.5l-.3-.81a4.8,4.8,0,0,1,2.39-.6,2.47,2.47,0,0,1,2.76,2.77v2.54a8.91,8.91,0,0,0,.12,1.62Zm-.19-3.46c-1.45,0-3.08.21-3.08,1.53a1.12,1.12,0,0,0,1.24,1.17,1.81,1.81,0,0,0,1.76-1.13,1.13,1.13,0,0,0,.08-.39Z" transform="translate(-12.25 -78.82)"/><path class="cls-3" d="M702.5,198.55v1.95h1.89v.94H702.5v3.66c0,.84.25,1.31,1,1.31a3.33,3.33,0,0,0,.77-.08l.06.92a3.4,3.4,0,0,1-1.17.17,1.88,1.88,0,0,1-1.43-.52,2.35,2.35,0,0,1-.51-1.76v-3.7h-1.13v-.94h1.13v-1.62Z" transform="translate(-12.25 -78.82)"/><path class="cls-3" d="M709.91,207.28l-.11-.85h0a2.8,2.8,0,0,1-2.23,1,2,2,0,0,1-2.22-1.95c0-1.64,1.56-2.54,4.37-2.52v-.14c0-.56-.16-1.57-1.65-1.57a3.81,3.81,0,0,0-1.9.5l-.3-.81a4.83,4.83,0,0,1,2.39-.6,2.47,2.47,0,0,1,2.77,2.77v2.54a8.91,8.91,0,0,0,.12,1.62Zm-.2-3.46c-1.44,0-3.08.21-3.08,1.53a1.13,1.13,0,0,0,1.25,1.17,1.82,1.82,0,0,0,1.76-1.13,1.4,1.4,0,0,0,.07-.39Z" transform="translate(-12.25 -78.82)"/><path class="cls-3" d="M716.17,205.8a5,5,0,0,0,2.34.61c1.34,0,2.12-.66,2.12-1.61s-.54-1.38-1.91-1.88c-1.65-.54-2.67-1.34-2.67-2.67s1.31-2.56,3.28-2.56a4.88,4.88,0,0,1,2.24.46l-.36,1a4.29,4.29,0,0,0-1.93-.45c-1.38,0-1.91.77-1.91,1.42,0,.88.62,1.32,2,1.82,1.71.62,2.58,1.39,2.58,2.77s-1.16,2.72-3.55,2.72a5.49,5.49,0,0,1-2.58-.6Z" transform="translate(-12.25 -78.82)"/><path class="cls-3" d="M724.54,204.12a2.26,2.26,0,0,0,2.49,2.35,5.24,5.24,0,0,0,2-.35l.22.88a6.16,6.16,0,0,1-2.42.42,3.26,3.26,0,0,1-3.57-3.42,3.38,3.38,0,0,1,3.41-3.65,2.93,2.93,0,0,1,3,3.19c0,.25,0,.45,0,.58Zm3.88-.89a1.8,1.8,0,0,0-1.84-2,2.12,2.12,0,0,0-2,2Z" transform="translate(-12.25 -78.82)"/><path class="cls-3" d="M732.92,198.55v1.95h1.9v.94h-1.9v3.66c0,.84.26,1.31,1,1.31a3.23,3.23,0,0,0,.76-.08l.06.92a3.36,3.36,0,0,1-1.17.17,1.9,1.9,0,0,1-1.43-.52,2.39,2.39,0,0,1-.51-1.76v-3.7H730.5v-.94h1.13v-1.62Z" transform="translate(-12.25 -78.82)"/><path class="cls-3" d="M735.48,324.8a6.1,6.1,0,0,1-2.49.45,4.41,4.41,0,0,1-4.66-4.78,4.7,4.7,0,0,1,4.93-5,5.08,5.08,0,0,1,2.24.42l-.3,1a4.33,4.33,0,0,0-1.9-.4c-2.22,0-3.69,1.42-3.69,3.9,0,2.31,1.33,3.79,3.63,3.79a4.86,4.86,0,0,0,2-.39Z" transform="translate(-12.25 -78.82)"/><path class="cls-3" d="M737,315.16h1.24v9.95H737Z" transform="translate(-12.25 -78.82)"/><path class="cls-3" d="M746.4,321.66a3.31,3.31,0,0,1-3.37,3.6,3.22,3.22,0,0,1-3.25-3.49,3.31,3.31,0,0,1,3.36-3.6A3.21,3.21,0,0,1,746.4,321.66Zm-5.38.07c0,1.49.86,2.61,2.06,2.61s2.06-1.11,2.06-2.64c0-1.15-.57-2.6-2-2.6S741,320.44,741,321.73Z" transform="translate(-12.25 -78.82)"/><path class="cls-3" d="M753.63,323.26c0,.7,0,1.32,0,1.85h-1.09l-.07-1.11h0a2.53,2.53,0,0,1-2.24,1.26c-1.06,0-2.34-.59-2.34-3v-4h1.23v3.75c0,1.29.4,2.16,1.52,2.16a1.79,1.79,0,0,0,1.62-1.12,1.81,1.81,0,0,0,.11-.63v-4.16h1.24Z" transform="translate(-12.25 -78.82)"/><path class="cls-3" d="M761.52,315.16v8.2c0,.6,0,1.28.06,1.75h-1.11l-.05-1.18h0a2.51,2.51,0,0,1-2.31,1.33c-1.64,0-2.9-1.39-2.9-3.44,0-2.26,1.38-3.65,3-3.65a2.26,2.26,0,0,1,2,1h0v-4Zm-1.23,5.93a1.91,1.91,0,0,0-1.84-1.95c-1.27,0-2,1.12-2,2.62s.68,2.51,2,2.51a2,2,0,0,0,1.86-2Z" transform="translate(-12.25 -78.82)"/><path class="cls-3" d="M768,316.38v1.95h1.76v.94H768v3.65c0,.84.23,1.32.92,1.32a2.35,2.35,0,0,0,.71-.09l.06.93a3,3,0,0,1-1.09.17,1.68,1.68,0,0,1-1.33-.52,2.52,2.52,0,0,1-.48-1.77v-3.69h-1v-.94h1V316.7Z" transform="translate(-12.25 -78.82)"/><path class="cls-3" d="M774.92,325.11l-.1-.86h0a2.51,2.51,0,0,1-2.07,1,1.94,1.94,0,0,1-2.08-1.95c0-1.63,1.46-2.53,4.08-2.52v-.14a1.4,1.4,0,0,0-1.54-1.57,3.39,3.39,0,0,0-1.77.51l-.28-.81a4.18,4.18,0,0,1,2.23-.61c2.07,0,2.58,1.42,2.58,2.78v2.53a10.11,10.11,0,0,0,.11,1.63Zm-.18-3.46c-1.35,0-2.87.21-2.87,1.52a1.09,1.09,0,0,0,1.16,1.18,1.7,1.7,0,0,0,1.64-1.13,1.4,1.4,0,0,0,.07-.4Z" transform="translate(-12.25 -78.82)"/><path class="cls-3" d="M777.91,320.54c0-.87,0-1.57,0-2.21H779l.06,1.16h0a2.65,2.65,0,0,1,2.41-1.32c1.64,0,2.87,1.39,2.87,3.45,0,2.44-1.49,3.64-3.08,3.64a2.38,2.38,0,0,1-2.09-1.06h0v3.68h-1.22Zm1.22,1.81a2.54,2.54,0,0,0,.06.5,1.88,1.88,0,0,0,1.85,1.44c1.3,0,2.06-1.06,2.06-2.61,0-1.36-.72-2.53-2-2.53a2,2,0,0,0-1.87,1.53,2.09,2.09,0,0,0-.08.5Z" transform="translate(-12.25 -78.82)"/><path class="cls-3" d="M786.56,321.94a2.17,2.17,0,0,0,2.33,2.35,4.45,4.45,0,0,0,1.88-.35l.21.89a5.64,5.64,0,0,1-2.26.42,3.15,3.15,0,0,1-3.33-3.42c0-2.05,1.2-3.66,3.18-3.66,2.21,0,2.8,1.95,2.8,3.2a5.55,5.55,0,0,1,0,.57Zm3.62-.88a1.75,1.75,0,0,0-1.71-2,2,2,0,0,0-1.89,2Z" transform="translate(-12.25 -78.82)"/><path class="cls-3" d="M800.69,324.86a4.63,4.63,0,0,1-1.94.39,3.22,3.22,0,0,1-3.38-3.46,3.44,3.44,0,0,1,3.64-3.6,4.1,4.1,0,0,1,1.71.35l-.28.95a2.84,2.84,0,0,0-1.43-.32,2.56,2.56,0,0,0,0,5.1,3.54,3.54,0,0,0,1.51-.34Z" transform="translate(-12.25 -78.82)"/><path class="cls-3" d="M808.18,321.66a3.31,3.31,0,0,1-3.37,3.6,3.22,3.22,0,0,1-3.25-3.49,3.31,3.31,0,0,1,3.36-3.6A3.21,3.21,0,0,1,808.18,321.66Zm-5.38.07c0,1.49.86,2.61,2.06,2.61s2.06-1.11,2.06-2.64c0-1.15-.57-2.6-2-2.6S802.8,320.44,802.8,321.73Z" transform="translate(-12.25 -78.82)"/><path class="cls-3" d="M809.73,320.16c0-.7,0-1.27-.05-1.83h1.09l.07,1.12h0a2.48,2.48,0,0,1,2.24-1.28c.94,0,2.39.56,2.39,2.89v4.05h-1.23V321.2c0-1.09-.4-2-1.57-2a1.74,1.74,0,0,0-1.65,1.26,1.64,1.64,0,0,0-.08.57v4.08h-1.24Z" transform="translate(-12.25 -78.82)"/><path class="cls-3" d="M817.5,320.16c0-.7,0-1.27,0-1.83h1.09l.07,1.12h0a2.48,2.48,0,0,1,2.24-1.28c.94,0,2.39.56,2.39,2.89v4.05H822V321.2c0-1.09-.4-2-1.57-2a1.74,1.74,0,0,0-1.65,1.26,1.64,1.64,0,0,0-.08.57v4.08H817.5Z" transform="translate(-12.25 -78.82)"/><path class="cls-3" d="M826,321.94a2.17,2.17,0,0,0,2.33,2.35,4.36,4.36,0,0,0,1.87-.35l.21.89a5.54,5.54,0,0,1-2.25.42,3.16,3.16,0,0,1-3.34-3.42c0-2.05,1.21-3.66,3.18-3.66,2.22,0,2.8,1.95,2.8,3.2a3.65,3.65,0,0,1,0,.57Zm3.61-.88a1.74,1.74,0,0,0-1.7-2,2,2,0,0,0-1.9,2Z" transform="translate(-12.25 -78.82)"/><path class="cls-3" d="M837.12,324.86a4.69,4.69,0,0,1-2,.39,3.22,3.22,0,0,1-3.37-3.46,3.44,3.44,0,0,1,3.64-3.6,4.1,4.1,0,0,1,1.71.35l-.28.95a2.87,2.87,0,0,0-1.43-.32,2.56,2.56,0,0,0,0,5.1,3.54,3.54,0,0,0,1.51-.34Z" transform="translate(-12.25 -78.82)"/><path class="cls-3" d="M840.23,316.38v1.95H842v.94h-1.76v3.65c0,.84.23,1.32.92,1.32a2.35,2.35,0,0,0,.71-.09l.06.93a3,3,0,0,1-1.09.17,1.68,1.68,0,0,1-1.33-.52A2.52,2.52,0,0,1,839,323v-3.69h-1v-.94h1V316.7Z" transform="translate(-12.25 -78.82)"/><path class="cls-3" d="M849.43,321.66a3.31,3.31,0,0,1-3.38,3.6,3.22,3.22,0,0,1-3.25-3.49,3.31,3.31,0,0,1,3.36-3.6A3.22,3.22,0,0,1,849.43,321.66Zm-5.38.07c0,1.49.85,2.61,2.06,2.61s2.06-1.11,2.06-2.64c0-1.15-.58-2.6-2-2.6S844.05,320.44,844.05,321.73Z" transform="translate(-12.25 -78.82)"/><path class="cls-3" d="M851,320.44c0-.8,0-1.48-.06-2.11H852l0,1.33h.06a2,2,0,0,1,1.87-1.49,1.3,1.3,0,0,1,.36.05v1.16a1.82,1.82,0,0,0-.42,0,1.73,1.73,0,0,0-1.66,1.58,3.27,3.27,0,0,0,0,.57v3.62H851Z" transform="translate(-12.25 -78.82)"/><line class="cls-5" x1="742.43" y1="196.32" x2="663.79" y2="135.81"/><path class="cls-3" d="M671.25,210.94a30.37,30.37,0,0,0,9.68,1.45l-4.27,2.72-1.53,4.81A30.24,30.24,0,0,0,671.25,210.94Z" transform="translate(-12.25 -78.82)"/><line class="cls-6" x1="691.62" y1="82.78" x2="734.5" y2="82.78"/><path class="cls-3" d="M752.78,161.6a29.91,29.91,0,0,0-8.54,4.76L746,161.6l-1.72-4.75A30.12,30.12,0,0,0,752.78,161.6Z" transform="translate(-12.25 -78.82)"/><line class="cls-5" x1="524.22" y1="213.12" x2="735.45" y2="213.12"/><path class="cls-3" d="M753.73,291.93a30.28,30.28,0,0,0-8.54,4.76l1.72-4.76-1.72-4.75A30.26,30.26,0,0,0,753.73,291.93Z" transform="translate(-12.25 -78.82)"/><path class="cls-3" d="M612.5,276.85c0-.69,0-1.27,0-1.81h.93l0,1.14h.05a1.74,1.74,0,0,1,1.61-1.27,1.39,1.39,0,0,1,.3,0v1a1.32,1.32,0,0,0-.36,0,1.48,1.48,0,0,0-1.42,1.36,3.37,3.37,0,0,0-.05.49v3.09h-1Z" transform="translate(-12.25 -78.82)"/><path class="cls-3" d="M616.89,278.13a1.87,1.87,0,0,0,2,2,4,4,0,0,0,1.61-.3l.18.75a4.67,4.67,0,0,1-1.93.36,2.69,2.69,0,0,1-2.85-2.92c0-1.76,1-3.13,2.72-3.13a2.46,2.46,0,0,1,2.4,2.73,4.15,4.15,0,0,1,0,.49Zm3.1-.75a1.51,1.51,0,0,0-1.47-1.72,1.74,1.74,0,0,0-1.61,1.72Z" transform="translate(-12.25 -78.82)"/><path class="cls-3" d="M625.53,280.84l-.08-.73h0a2.14,2.14,0,0,1-1.77.86,1.65,1.65,0,0,1-1.78-1.66c0-1.41,1.25-2.17,3.49-2.16V277a1.2,1.2,0,0,0-1.32-1.35,2.84,2.84,0,0,0-1.51.44l-.24-.7a3.63,3.63,0,0,1,1.91-.51c1.77,0,2.21,1.21,2.21,2.37v2.17a8.39,8.39,0,0,0,.09,1.39Zm-.15-3c-1.16,0-2.46.18-2.46,1.31a.93.93,0,0,0,1,1,1.45,1.45,0,0,0,1.41-1,1.36,1.36,0,0,0,.06-.33Z" transform="translate(-12.25 -78.82)"/><path class="cls-3" d="M633.11,272.33v7c0,.52,0,1.11,0,1.5h-.95l0-1h0a2.14,2.14,0,0,1-2,1.14c-1.4,0-2.48-1.18-2.48-3,0-1.93,1.19-3.11,2.6-3.11a2,2,0,0,1,1.76.88h0v-3.46Zm-1.05,5.07a1.65,1.65,0,0,0,0-.44,1.54,1.54,0,0,0-1.52-1.23c-1.09,0-1.74,1-1.74,2.25s.57,2.14,1.71,2.14a1.67,1.67,0,0,0,1.6-1.71Z" transform="translate(-12.25 -78.82)"/><path class="cls-3" d="M601.69,370.11a12.3,12.3,0,0,1,2.34-.2,3.88,3.88,0,0,1,2.73.77,2.38,2.38,0,0,1,.74,1.8,2.48,2.48,0,0,1-1.78,2.41v0a2.35,2.35,0,0,1,1.39,1.9,14.55,14.55,0,0,0,.73,2.59h-1.26a11,11,0,0,1-.63-2.25c-.28-1.3-.79-1.79-1.9-1.84h-1.14v4.09h-1.22Zm1.22,4.3h1.24c1.31,0,2.13-.71,2.13-1.79s-.88-1.75-2.17-1.77a5.29,5.29,0,0,0-1.2.11Z" transform="translate(-12.25 -78.82)"/><path class="cls-3" d="M609.92,376.26a2.17,2.17,0,0,0,2.33,2.35,4.36,4.36,0,0,0,1.87-.35l.21.88a5.38,5.38,0,0,1-2.25.42,3.15,3.15,0,0,1-3.34-3.41c0-2,1.21-3.66,3.18-3.66,2.22,0,2.8,1.95,2.8,3.19a3.8,3.8,0,0,1,0,.58Zm3.61-.88a1.75,1.75,0,0,0-1.7-2,2.05,2.05,0,0,0-1.9,2Z" transform="translate(-12.25 -78.82)"/><path class="cls-3" d="M616.19,379.42c0-.46.06-1.14.06-1.75v-8.19h1.22v4.26h0a2.53,2.53,0,0,1,2.31-1.25c1.69,0,2.88,1.4,2.86,3.46,0,2.42-1.52,3.63-3,3.63a2.42,2.42,0,0,1-2.27-1.28h0l0,1.12Zm1.28-2.71a2.22,2.22,0,0,0,0,.45,1.9,1.9,0,0,0,1.85,1.44c1.29,0,2.06-1.05,2.06-2.61,0-1.36-.7-2.52-2-2.52a2,2,0,0,0-1.87,1.51,2.32,2.32,0,0,0-.07.51Z" transform="translate(-12.25 -78.82)"/><path class="cls-3" d="M629.89,377.58c0,.7,0,1.31.05,1.84h-1.09l-.07-1.1h0a2.56,2.56,0,0,1-2.24,1.26c-1.06,0-2.34-.59-2.34-3v-4h1.23v3.76c0,1.29.4,2.16,1.52,2.16a1.79,1.79,0,0,0,1.62-1.12,1.85,1.85,0,0,0,.11-.63v-4.17h1.24Z" transform="translate(-12.25 -78.82)"/><path class="cls-3" d="M633.3,370.74a.73.73,0,0,1-.78.76.74.74,0,0,1-.75-.76.75.75,0,0,1,.77-.77A.73.73,0,0,1,633.3,370.74Zm-1.37,8.68v-6.78h1.23v6.78Z" transform="translate(-12.25 -78.82)"/><path class="cls-3" d="M635.2,369.48h1.24v9.94H635.2Z" transform="translate(-12.25 -78.82)"/><path class="cls-3" d="M644.36,369.48v8.19c0,.61,0,1.29.06,1.75h-1.11l0-1.17h0a2.53,2.53,0,0,1-2.31,1.33c-1.64,0-2.9-1.39-2.9-3.45,0-2.25,1.38-3.64,3-3.64a2.26,2.26,0,0,1,2,1h0v-4Zm-1.23,5.92a1.78,1.78,0,0,0-.06-.51,1.8,1.8,0,0,0-1.78-1.43c-1.27,0-2,1.12-2,2.62s.68,2.5,2,2.5a1.84,1.84,0,0,0,1.8-1.47,1.76,1.76,0,0,0,.06-.53Z" transform="translate(-12.25 -78.82)"/><path class="cls-3" d="M651.35,370h1.21v6.32c0,2.51-1.23,3.28-2.85,3.28a3.89,3.89,0,0,1-1.31-.23l.19-1a2.83,2.83,0,0,0,1,.18c1.09,0,1.74-.49,1.74-2.34Z" transform="translate(-12.25 -78.82)"/><path class="cls-3" d="M660.69,376a3.31,3.31,0,0,1-3.38,3.6,3.23,3.23,0,0,1-3.25-3.49,3.31,3.31,0,0,1,3.36-3.6A3.22,3.22,0,0,1,660.69,376Zm-5.38.07c0,1.48.85,2.6,2.06,2.6s2.06-1.1,2.06-2.63c0-1.15-.58-2.6-2-2.6S655.31,374.76,655.31,376.05Z" transform="translate(-12.25 -78.82)"/><path class="cls-3" d="M662.18,379.42c0-.46.06-1.14.06-1.75v-8.19h1.22v4.26h0a2.53,2.53,0,0,1,2.31-1.25c1.69,0,2.88,1.4,2.86,3.46,0,2.42-1.53,3.63-3,3.63a2.42,2.42,0,0,1-2.27-1.28h0l0,1.12Zm1.28-2.71a2.22,2.22,0,0,0,0,.45,1.9,1.9,0,0,0,1.85,1.44c1.29,0,2.06-1.05,2.06-2.61,0-1.36-.7-2.52-2-2.52a2,2,0,0,0-1.87,1.51,2.32,2.32,0,0,0-.07.51Z" transform="translate(-12.25 -78.82)"/><path class="cls-3" d="M607.29,386.5a9.28,9.28,0,0,0-1.77,5.73,9.4,9.4,0,0,0,1.77,5.69h-1a9.08,9.08,0,0,1-1.83-5.69,9.25,9.25,0,0,1,1.83-5.73Z" transform="translate(-12.25 -78.82)"/><path class="cls-3" d="M615.06,395.92a6.13,6.13,0,0,1-2.49.44,4.41,4.41,0,0,1-4.67-4.77,4.7,4.7,0,0,1,4.93-5,5.1,5.1,0,0,1,2.25.42l-.3,1a4.49,4.49,0,0,0-1.9-.39c-2.22,0-3.69,1.42-3.69,3.9,0,2.31,1.33,3.79,3.63,3.79a4.86,4.86,0,0,0,2-.39Z" transform="translate(-12.25 -78.82)"/><path class="cls-3" d="M617.8,386.78v5.59c0,2.12.94,3,2.2,3s2.3-.92,2.3-3v-5.59h1.23v5.51c0,2.9-1.53,4.09-3.57,4.09s-3.39-1.11-3.39-4v-5.56Z" transform="translate(-12.25 -78.82)"/><path class="cls-3" d="M625,395.51l5.24-7.66v0h-4.8v-1h6.38v.75l-5.21,7.63v0h5.28v1H625Z" transform="translate(-12.25 -78.82)"/><path class="cls-3" d="M633.38,386.91a12.37,12.37,0,0,1,2.34-.2,3.86,3.86,0,0,1,2.73.77,2.36,2.36,0,0,1,.75,1.8,2.5,2.5,0,0,1-1.78,2.41v0a2.33,2.33,0,0,1,1.38,1.9,15.5,15.5,0,0,0,.73,2.59h-1.26a12.57,12.57,0,0,1-.63-2.25c-.28-1.3-.78-1.79-1.89-1.84H634.6v4.09h-1.22Zm1.22,4.3h1.25c1.3,0,2.13-.71,2.13-1.79s-.89-1.75-2.17-1.77a5.48,5.48,0,0,0-1.21.11Z" transform="translate(-12.25 -78.82)"/><path class="cls-3" d="M640.92,386.91a11.87,11.87,0,0,1,2.22-.2,3.86,3.86,0,0,1,2.59.69,2,2,0,0,1,.79,1.67,2.23,2.23,0,0,1-1.6,2.07v0a2.42,2.42,0,0,1,2,2.37,2.55,2.55,0,0,1-.8,1.89,4.75,4.75,0,0,1-3.26.88,15.37,15.37,0,0,1-1.89-.11Zm1.21,3.87h1.11c1.29,0,2-.68,2-1.59,0-1.1-.84-1.54-2.08-1.54a4.63,4.63,0,0,0-1.08.09Zm0,4.52a6.75,6.75,0,0,0,1,.06c1.26,0,2.42-.47,2.42-1.84s-1.11-1.82-2.44-1.82h-1Z" transform="translate(-12.25 -78.82)"/><path class="cls-3" d="M648.5,386.78h1.22v8.42h4v1H648.5Z" transform="translate(-12.25 -78.82)"/><path class="cls-3" d="M655.11,386.91a12.37,12.37,0,0,1,2.34-.2,3.88,3.88,0,0,1,2.73.77,2.35,2.35,0,0,1,.74,1.8,2.48,2.48,0,0,1-1.78,2.41v0a2.33,2.33,0,0,1,1.39,1.9,14.55,14.55,0,0,0,.73,2.59H660a11,11,0,0,1-.63-2.25c-.28-1.3-.79-1.79-1.89-1.84h-1.15v4.09h-1.22Zm1.22,4.3h1.25c1.3,0,2.13-.71,2.13-1.79s-.89-1.75-2.18-1.77a5.44,5.44,0,0,0-1.2.11Z" transform="translate(-12.25 -78.82)"/><path class="cls-3" d="M661.86,397.92a9.52,9.52,0,0,0,1.76-5.73,9.29,9.29,0,0,0-1.76-5.69h.95a8.92,8.92,0,0,1,1.84,5.7,9.07,9.07,0,0,1-1.84,5.72Z" transform="translate(-12.25 -78.82)"/><rect class="cls-6" x="579.02" y="281.18" width="92.21" height="44.6" rx="12"/><path class="cls-4" d="M583.79,379.56" transform="translate(-12.25 -78.82)"/><path class="cls-4" d="M520.33,334.07" transform="translate(-12.25 -78.82)"/><line class="cls-5" x1="671.91" y1="326.37" x2="733.19" y2="356.43"/><path class="cls-3" d="M750.86,437.9a30,30,0,0,0-9.77.51l3.64-3.52.55-5A30.13,30.13,0,0,0,750.86,437.9Z" transform="translate(-12.25 -78.82)"/><line class="cls-7" x1="537.23" y1="270.43" x2="537.23" y2="270.43"/><line class="cls-5" x1="508.08" y1="255.26" x2="573.7" y2="290.34"/><path class="cls-3" d="M591.27,372a30.2,30.2,0,0,0-9.78.16l3.76-3.38.72-5A30.22,30.22,0,0,0,591.27,372Z" transform="translate(-12.25 -78.82)"/><path class="cls-3" d="M508.47,360.09a14.44,14.44,0,0,1,2.22-.17,4.6,4.6,0,0,1,3.27,1,3.73,3.73,0,0,1,1.14,2.9,4.24,4.24,0,0,1-1.16,3.14,5,5,0,0,1-3.57,1.17,16.77,16.77,0,0,1-1.9-.1Zm1,7.15a6.45,6.45,0,0,0,1.06.06,3.11,3.11,0,0,0,3.44-3.43c0-1.91-1.07-3.12-3.27-3.12a6,6,0,0,0-1.23.11Z" transform="translate(-12.25 -78.82)"/><path class="cls-3" d="M517.6,360.63a.62.62,0,0,1-.67.65.63.63,0,0,1-.64-.65A.65.65,0,0,1,517,360,.62.62,0,0,1,517.6,360.63Zm-1.17,7.44v-5.81h1.05v5.81Z" transform="translate(-12.25 -78.82)"/><path class="cls-3" d="M519.09,367a2.79,2.79,0,0,0,1.39.42c.77,0,1.13-.39,1.13-.87s-.3-.78-1.08-1.06c-1-.38-1.53-1-1.53-1.65a1.79,1.79,0,0,1,2-1.7,2.87,2.87,0,0,1,1.42.36l-.26.77a2.22,2.22,0,0,0-1.19-.34c-.62,0-1,.36-1,.79s.35.7,1.11,1c1,.38,1.52.88,1.52,1.75,0,1-.79,1.74-2.17,1.74a3.3,3.3,0,0,1-1.63-.4Z" transform="translate(-12.25 -78.82)"/><path class="cls-3" d="M528.12,367.85a3.87,3.87,0,0,1-1.66.34,2.76,2.76,0,0,1-2.89-3,3,3,0,0,1,3.12-3.08,3.6,3.6,0,0,1,1.46.3l-.24.82a2.37,2.37,0,0,0-1.22-.28,2.19,2.19,0,0,0,0,4.37,3,3,0,0,0,1.29-.29Z" transform="translate(-12.25 -78.82)"/><path class="cls-3" d="M534.54,365.12a2.84,2.84,0,0,1-2.89,3.08,2.76,2.76,0,0,1-2.78-3,2.83,2.83,0,0,1,2.88-3.08A2.74,2.74,0,0,1,534.54,365.12Zm-4.6.06c0,1.27.73,2.23,1.76,2.23s1.76-1,1.76-2.26c0-1-.49-2.23-1.73-2.23S529.94,364.07,529.94,365.18Z" transform="translate(-12.25 -78.82)"/><path class="cls-3" d="M536.2,362.26l1.14,3.26c.19.53.35,1,.47,1.49h0c.13-.48.3-1,.49-1.49l1.12-3.26h1.11l-2.28,5.81h-1l-2.2-5.81Z" transform="translate(-12.25 -78.82)"/><path class="cls-3" d="M542,365.36a1.87,1.87,0,0,0,2,2,3.75,3.75,0,0,0,1.6-.3l.18.76a4.84,4.84,0,0,1-1.93.36,2.69,2.69,0,0,1-2.85-2.93c0-1.75,1-3.13,2.72-3.13a2.46,2.46,0,0,1,2.4,2.73,4.36,4.36,0,0,1,0,.5Zm3.1-.76a1.51,1.51,0,0,0-1.46-1.72,1.75,1.75,0,0,0-1.62,1.72Z" transform="translate(-12.25 -78.82)"/><path class="cls-3" d="M547.46,364.07c0-.68,0-1.27-.05-1.81h.92l0,1.14h0a1.74,1.74,0,0,1,1.61-1.27,1,1,0,0,1,.3,0v1a1.9,1.9,0,0,0-.37,0,1.48,1.48,0,0,0-1.41,1.36,3.37,3.37,0,0,0,0,.49v3.1h-1Z" transform="translate(-12.25 -78.82)"/><path class="cls-3" d="M669.58,425.1a11.35,11.35,0,0,1,2.06-.17,3.46,3.46,0,0,1,2.41.66,2,2,0,0,1,.65,1.53,2.14,2.14,0,0,1-1.56,2.07v0a2,2,0,0,1,1.22,1.63,11.8,11.8,0,0,0,.64,2.22h-1.11a10.19,10.19,0,0,1-.56-1.93c-.24-1.11-.69-1.53-1.66-1.57h-1v3.5h-1.08Zm1.08,3.68h1.09c1.15,0,1.88-.61,1.88-1.54s-.78-1.5-1.91-1.51a4.32,4.32,0,0,0-1.06.1Z" transform="translate(-12.25 -78.82)"/><path class="cls-3" d="M676.84,430.36a1.89,1.89,0,0,0,2,2,4,4,0,0,0,1.66-.3l.18.75a4.91,4.91,0,0,1-2,.36,2.73,2.73,0,0,1-2.94-2.92,2.84,2.84,0,0,1,2.8-3.13,2.48,2.48,0,0,1,2.47,2.73,4.15,4.15,0,0,1,0,.49Zm3.18-.75a1.52,1.52,0,0,0-1.51-1.72,1.77,1.77,0,0,0-1.66,1.72Z" transform="translate(-12.25 -78.82)"/><path class="cls-3" d="M682.36,433.07c0-.39,0-1,0-1.5v-7h1.07v3.64h0a2.24,2.24,0,0,1,2-1.06c1.48,0,2.53,1.19,2.52,3a2.79,2.79,0,0,1-2.68,3.1,2.15,2.15,0,0,1-2-1.09h0l-.05,1Zm1.12-2.32a2.32,2.32,0,0,0,0,.38,1.67,1.67,0,0,0,1.63,1.23c1.13,0,1.81-.9,1.81-2.23,0-1.16-.61-2.16-1.77-2.16a1.75,1.75,0,0,0-1.66,1.3,2.34,2.34,0,0,0-.06.43Z" transform="translate(-12.25 -78.82)"/><path class="cls-3" d="M694.42,431.49c0,.6,0,1.13.05,1.58h-1l-.06-.95h0a2.24,2.24,0,0,1-2,1.08c-.94,0-2.06-.5-2.06-2.54v-3.39h1.09v3.21c0,1.1.34,1.85,1.33,1.85a1.5,1.5,0,0,0,1.53-1.5v-3.56h1.08Z" transform="translate(-12.25 -78.82)"/><path class="cls-3" d="M697.43,425.64a.67.67,0,0,1-1.34,0,.65.65,0,0,1,.68-.66A.63.63,0,0,1,697.43,425.64Zm-1.21,7.43v-5.8h1.09v5.8Z" transform="translate(-12.25 -78.82)"/><path class="cls-3" d="M699.11,424.56h1.09v8.51h-1.09Z" transform="translate(-12.25 -78.82)"/><path class="cls-3" d="M707.17,424.56v7c0,.52,0,1.11.05,1.5h-1l0-1h0a2.21,2.21,0,0,1-2,1.14,2.67,2.67,0,0,1-2.55-2.95,2.8,2.8,0,0,1,2.67-3.11,2,2,0,0,1,1.8.88h0v-3.46Zm-1.08,5.07a1.65,1.65,0,0,0-.05-.44,1.58,1.58,0,0,0-1.57-1.23c-1.12,0-1.78,1-1.78,2.25s.59,2.14,1.76,2.14a1.62,1.62,0,0,0,1.59-1.26,1.59,1.59,0,0,0,.05-.45Z" transform="translate(-12.25 -78.82)"/><rect class="cls-6" x="565.9" y="0.5" width="386.16" height="460.4" rx="62.1"/><path class="cls-3" d="M762.79,156a13.34,13.34,0,0,1,2.34-.19,3.88,3.88,0,0,1,2.73.77,2.33,2.33,0,0,1,.74,1.79,2.47,2.47,0,0,1-1.78,2.41v0a2.35,2.35,0,0,1,1.39,1.91,15.12,15.12,0,0,0,.73,2.59h-1.26a11.39,11.39,0,0,1-.63-2.26c-.28-1.3-.79-1.79-1.89-1.83H764v4.09h-1.22Zm1.22,4.3h1.24c1.31,0,2.13-.71,2.13-1.79s-.88-1.75-2.17-1.76a4.75,4.75,0,0,0-1.2.11Z" transform="translate(-12.25 -78.82)"/><path class="cls-3" d="M771,162.19a2.18,2.18,0,0,0,2.33,2.36,4.52,4.52,0,0,0,1.87-.35l.21.88a5.54,5.54,0,0,1-2.25.42,3.15,3.15,0,0,1-3.34-3.42c0-2,1.21-3.66,3.18-3.66,2.22,0,2.81,2,2.81,3.2a3.4,3.4,0,0,1-.05.57Zm3.62-.88a1.76,1.76,0,0,0-1.71-2,2,2,0,0,0-1.89,2Z" transform="translate(-12.25 -78.82)"/><path class="cls-3" d="M777.18,164.1a3.21,3.21,0,0,0,1.63.49c.89,0,1.31-.45,1.31-1s-.35-.91-1.26-1.25c-1.22-.43-1.79-1.1-1.79-1.92a2.09,2.09,0,0,1,2.34-2,3.47,3.47,0,0,1,1.67.42l-.31.9a2.65,2.65,0,0,0-1.39-.39c-.73,0-1.13.42-1.13.92s.4.82,1.28,1.15c1.18.45,1.78,1,1.78,2.05,0,1.19-.92,2-2.53,2a3.91,3.91,0,0,1-1.91-.46Z" transform="translate(-12.25 -78.82)"/><path class="cls-3" d="M784.38,156.63v2h1.76v.94h-1.76v3.65c0,.84.24,1.32.92,1.32a3,3,0,0,0,.72-.08l.05.92a3,3,0,0,1-1.09.17,1.69,1.69,0,0,1-1.33-.52,2.5,2.5,0,0,1-.48-1.76v-3.7h-1v-.94h1V157Z" transform="translate(-12.25 -78.82)"/><path class="cls-3" d="M793.58,161.91a3.31,3.31,0,0,1-3.38,3.6A3.22,3.22,0,0,1,787,162a3.32,3.32,0,0,1,3.36-3.6A3.22,3.22,0,0,1,793.58,161.91Zm-5.38.07c0,1.49.85,2.61,2.06,2.61s2.06-1.11,2.06-2.64c0-1.14-.58-2.6-2-2.6S788.2,160.69,788.2,162Z" transform="translate(-12.25 -78.82)"/><path class="cls-3" d="M795.13,160.69c0-.79,0-1.48-.06-2.11h1.08l0,1.33h.06a2,2,0,0,1,1.88-1.49,1.29,1.29,0,0,1,.35.05v1.16a1.82,1.82,0,0,0-.42,0,1.74,1.74,0,0,0-1.66,1.58,4.65,4.65,0,0,0,0,.57v3.62h-1.22Z" transform="translate(-12.25 -78.82)"/><path class="cls-3" d="M800.25,162.19a2.18,2.18,0,0,0,2.33,2.36,4.61,4.61,0,0,0,1.88-.35l.21.88a5.64,5.64,0,0,1-2.26.42,3.14,3.14,0,0,1-3.33-3.42c0-2,1.2-3.66,3.18-3.66,2.21,0,2.8,2,2.8,3.2a5.55,5.55,0,0,1,0,.57Zm3.62-.88a1.76,1.76,0,0,0-1.71-2,2,2,0,0,0-1.89,2Z" transform="translate(-12.25 -78.82)"/><path class="cls-3" d="M811.52,155.92h1.22v6.31c0,2.51-1.23,3.28-2.86,3.28a4.15,4.15,0,0,1-1.3-.22l.18-1a2.91,2.91,0,0,0,1,.19c1.09,0,1.73-.49,1.73-2.34Z" transform="translate(-12.25 -78.82)"/><path class="cls-3" d="M820.86,161.91a3.31,3.31,0,0,1-3.37,3.6,3.22,3.22,0,0,1-3.25-3.49,3.31,3.31,0,0,1,3.36-3.6A3.21,3.21,0,0,1,820.86,161.91Zm-5.37.07c0,1.49.85,2.61,2,2.61s2.06-1.11,2.06-2.64c0-1.14-.57-2.6-2-2.6S815.49,160.69,815.49,162Z" transform="translate(-12.25 -78.82)"/><path class="cls-3" d="M822.36,165.36c0-.46,0-1.15,0-1.75v-8.2h1.22v4.26h0a2.54,2.54,0,0,1,2.31-1.25c1.68,0,2.87,1.41,2.86,3.46,0,2.43-1.53,3.63-3,3.63a2.43,2.43,0,0,1-2.27-1.27h0l-.06,1.12Zm1.27-2.72a2.22,2.22,0,0,0,.06.45,1.9,1.9,0,0,0,1.85,1.44c1.29,0,2.06-1.05,2.06-2.6,0-1.36-.7-2.52-2-2.52a2,2,0,0,0-1.88,1.51,2.32,2.32,0,0,0-.07.5Z" transform="translate(-12.25 -78.82)"/><path class="cls-3" d="M441.17,325.91a4.69,4.69,0,0,1-1.95.39,3.22,3.22,0,0,1-3.37-3.46,3.44,3.44,0,0,1,3.64-3.6,4.1,4.1,0,0,1,1.71.35l-.28,1a2.87,2.87,0,0,0-1.43-.32,2.56,2.56,0,0,0,0,5.1A3.4,3.4,0,0,0,441,325Z" transform="translate(-12.25 -78.82)"/><path class="cls-3" d="M442.61,316.21h1.23v10h-1.23Z" transform="translate(-12.25 -78.82)"/><path class="cls-3" d="M452.05,322.71a3.31,3.31,0,0,1-3.38,3.6,3.22,3.22,0,0,1-3.25-3.49,3.31,3.31,0,0,1,3.37-3.6A3.21,3.21,0,0,1,452.05,322.71Zm-5.38.07c0,1.49.86,2.61,2.06,2.61s2.06-1.11,2.06-2.64c0-1.14-.57-2.6-2-2.6S446.67,321.49,446.67,322.78Z" transform="translate(-12.25 -78.82)"/><path class="cls-3" d="M459.27,324.31c0,.7,0,1.32.06,1.85h-1.09l-.07-1.11h0a2.54,2.54,0,0,1-2.24,1.26c-1.07,0-2.34-.59-2.34-3v-4h1.23v3.75c0,1.29.39,2.16,1.51,2.16a1.79,1.79,0,0,0,1.63-1.12,1.81,1.81,0,0,0,.11-.63v-4.16h1.23Z" transform="translate(-12.25 -78.82)"/><path class="cls-3" d="M467.17,316.21v8.2c0,.6,0,1.29.06,1.75h-1.11l-.06-1.18h0a2.51,2.51,0,0,1-2.32,1.33c-1.64,0-2.9-1.38-2.9-3.44,0-2.26,1.39-3.65,3-3.65a2.27,2.27,0,0,1,2.05,1h0v-4.05Zm-1.23,5.93a2.24,2.24,0,0,0-.06-.52,1.81,1.81,0,0,0-1.78-1.43c-1.27,0-2,1.12-2,2.62s.67,2.51,2,2.51a1.85,1.85,0,0,0,1.81-1.47,2.29,2.29,0,0,0,.06-.54Z" transform="translate(-12.25 -78.82)"/><path class="cls-3" d="M478.31,322.71a3.31,3.31,0,0,1-3.37,3.6,3.22,3.22,0,0,1-3.25-3.49,3.31,3.31,0,0,1,3.36-3.6A3.21,3.21,0,0,1,478.31,322.71Zm-5.37.07c0,1.49.85,2.61,2.05,2.61s2.06-1.11,2.06-2.64c0-1.14-.57-2.6-2-2.6S472.94,321.49,472.94,322.78Z" transform="translate(-12.25 -78.82)"/><path class="cls-3" d="M479.81,326.16c0-.46.05-1.15.05-1.75v-8.2h1.22v4.26h0a2.52,2.52,0,0,1,2.31-1.25c1.68,0,2.87,1.4,2.86,3.46,0,2.43-1.53,3.63-3,3.63A2.43,2.43,0,0,1,481,325h0l-.06,1.12Zm1.27-2.72a2.22,2.22,0,0,0,.06.45,1.9,1.9,0,0,0,1.85,1.44c1.29,0,2.06-1.05,2.06-2.6,0-1.36-.7-2.52-2-2.52a2,2,0,0,0-1.88,1.51,2.32,2.32,0,0,0-.07.5Z" transform="translate(-12.25 -78.82)"/><path class="cls-3" d="M486.18,328.12a2,2,0,0,0,1.34-.52c.34-.39.46-.92.46-2.55v-5.67h1.24v6.15a3.71,3.71,0,0,1-.82,2.79,3.14,3.14,0,0,1-2.1.77Zm3.18-10.65a.73.73,0,0,1-.77.76.74.74,0,0,1-.76-.76.75.75,0,0,1,.78-.77A.74.74,0,0,1,489.36,317.47Z" transform="translate(-12.25 -78.82)"/><path class="cls-3" d="M491.92,323a2.17,2.17,0,0,0,2.32,2.36,4.54,4.54,0,0,0,1.88-.35l.21.88a5.58,5.58,0,0,1-2.25.42,3.15,3.15,0,0,1-3.34-3.42c0-2,1.21-3.66,3.18-3.66,2.21,0,2.8,1.95,2.8,3.2a3.65,3.65,0,0,1,0,.57Zm3.61-.88a1.75,1.75,0,0,0-1.71-2,2,2,0,0,0-1.89,2Z" transform="translate(-12.25 -78.82)"/><path class="cls-3" d="M503.08,325.91a4.69,4.69,0,0,1-1.95.39,3.22,3.22,0,0,1-3.37-3.46,3.44,3.44,0,0,1,3.64-3.6,4.1,4.1,0,0,1,1.71.35l-.28,1a2.87,2.87,0,0,0-1.43-.32,2.56,2.56,0,0,0,0,5.1,3.4,3.4,0,0,0,1.51-.34Z" transform="translate(-12.25 -78.82)"/><path class="cls-3" d="M506.19,317.43v1.95H508v.94h-1.76V324c0,.84.23,1.32.92,1.32a2.82,2.82,0,0,0,.71-.08l.06.92a3,3,0,0,1-1.09.17,1.68,1.68,0,0,1-1.33-.52A2.5,2.5,0,0,1,505,324v-3.7h-1.05v-.94H505v-1.63Z" transform="translate(-12.25 -78.82)"/><path class="cls-3" d="M512.13,324.9a3.24,3.24,0,0,0,1.63.49c.9,0,1.32-.45,1.32-1s-.35-.91-1.27-1.25c-1.21-.43-1.79-1.1-1.79-1.92a2.09,2.09,0,0,1,2.34-2,3.44,3.44,0,0,1,1.67.42l-.31.9a2.65,2.65,0,0,0-1.39-.39c-.73,0-1.13.42-1.13.92s.4.82,1.29,1.15c1.17.45,1.78,1,1.78,2,0,1.19-.93,2-2.54,2a3.84,3.84,0,0,1-1.9-.46Z" transform="translate(-12.25 -78.82)"/><path class="cls-3" d="M519.33,317.43v1.95h1.77v.94h-1.77V324c0,.84.24,1.32.92,1.32a2.85,2.85,0,0,0,.72-.08l.06.92a3,3,0,0,1-1.1.17,1.71,1.71,0,0,1-1.33-.52,2.51,2.51,0,0,1-.47-1.76v-3.7h-1v-.94h1v-1.63Z" transform="translate(-12.25 -78.82)"/><path class="cls-3" d="M528.53,322.71a3.31,3.31,0,0,1-3.37,3.6,3.22,3.22,0,0,1-3.25-3.49,3.31,3.31,0,0,1,3.36-3.6A3.21,3.21,0,0,1,528.53,322.71Zm-5.38.07c0,1.49.86,2.61,2.06,2.61s2.06-1.11,2.06-2.64c0-1.14-.57-2.6-2-2.6S523.15,321.49,523.15,322.78Z" transform="translate(-12.25 -78.82)"/><path class="cls-3" d="M530.08,321.49c0-.79,0-1.48-.05-2.11h1.07l0,1.33h.05a2,2,0,0,1,1.88-1.49,1.23,1.23,0,0,1,.35,0v1.16a1.76,1.76,0,0,0-.42,0,1.71,1.71,0,0,0-1.65,1.58,3.22,3.22,0,0,0-.06.57v3.62h-1.22Z" transform="translate(-12.25 -78.82)"/><path class="cls-3" d="M538.34,326.16l-.09-.86h0a2.48,2.48,0,0,1-2.07,1,1.93,1.93,0,0,1-2.07-1.94c0-1.64,1.45-2.54,4.07-2.53v-.14a1.4,1.4,0,0,0-1.54-1.57,3.33,3.33,0,0,0-1.76.51l-.28-.81a4.15,4.15,0,0,1,2.23-.61c2.07,0,2.57,1.42,2.57,2.78v2.53a10,10,0,0,0,.11,1.63Zm-.18-3.46c-1.34,0-2.87.21-2.87,1.52a1.09,1.09,0,0,0,1.16,1.18,1.69,1.69,0,0,0,1.64-1.13,1.4,1.4,0,0,0,.07-.39Z" transform="translate(-12.25 -78.82)"/><path class="cls-3" d="M547.18,319.38c0,.49-.06,1-.06,1.86v3.94c0,1.55-.31,2.51-1,3.09a3.6,3.6,0,0,1-2.47.82,4.39,4.39,0,0,1-2.25-.56l.3-.94a3.84,3.84,0,0,0,2,.53c1.26,0,2.19-.66,2.19-2.37V325h0a2.43,2.43,0,0,1-2.16,1.13,3,3,0,0,1-2.88-3.31c0-2.29,1.5-3.6,3-3.6A2.27,2.27,0,0,1,546,320.4h0l.06-1Zm-1.28,2.67a1.66,1.66,0,0,0-.07-.56,1.77,1.77,0,0,0-1.72-1.3c-1.18,0-2,1-2,2.56,0,1.33.68,2.44,2,2.44a1.82,1.82,0,0,0,1.71-1.26,2.15,2.15,0,0,0,.09-.66Z" transform="translate(-12.25 -78.82)"/><path class="cls-3" d="M549.85,323a2.17,2.17,0,0,0,2.32,2.36,4.54,4.54,0,0,0,1.88-.35l.21.88a5.58,5.58,0,0,1-2.25.42,3.15,3.15,0,0,1-3.34-3.42c0-2,1.21-3.66,3.18-3.66,2.22,0,2.8,1.95,2.8,3.2a3.65,3.65,0,0,1,0,.57Zm3.61-.88a1.75,1.75,0,0,0-1.71-2,2,2,0,0,0-1.89,2Z" transform="translate(-12.25 -78.82)"/><path class="cls-3" d="M144.08,492.27a6.13,6.13,0,0,1-2.49.44,4.41,4.41,0,0,1-4.66-4.77,4.7,4.7,0,0,1,4.93-5,5.08,5.08,0,0,1,2.24.42l-.3,1a4.49,4.49,0,0,0-1.9-.39c-2.22,0-3.69,1.42-3.69,3.89s1.33,3.8,3.63,3.8a4.86,4.86,0,0,0,2-.39Z" transform="translate(-12.25 -78.82)"/><path class="cls-3" d="M147.79,484.17h-2.87v-1h7v1H149v8.4h-1.23Z" transform="translate(-12.25 -78.82)"/><path class="cls-3" d="M159.17,492.27a6.09,6.09,0,0,1-2.49.44,4.41,4.41,0,0,1-4.66-4.77,4.7,4.7,0,0,1,4.93-5,5,5,0,0,1,2.24.42l-.3,1A4.49,4.49,0,0,0,157,484c-2.21,0-3.68,1.42-3.68,3.89s1.33,3.8,3.62,3.8a4.83,4.83,0,0,0,2-.39Z" transform="translate(-12.25 -78.82)"/><path class="cls-3" d="M163.62,487.91c0-.8,0-1.49-.05-2.12h1.08l0,1.33h.05a2,2,0,0,1,1.88-1.48,1.25,1.25,0,0,1,.35,0v1.16a2.5,2.5,0,0,0-.42,0,1.73,1.73,0,0,0-1.65,1.58,3.34,3.34,0,0,0-.06.58v3.61h-1.22Z" transform="translate(-12.25 -78.82)"/><path class="cls-3" d="M168.75,489.41a2.17,2.17,0,0,0,2.32,2.35,4.38,4.38,0,0,0,1.88-.35l.21.88a5.43,5.43,0,0,1-2.26.42,3.15,3.15,0,0,1-3.33-3.41c0-2.05,1.21-3.66,3.18-3.66,2.21,0,2.8,1.95,2.8,3.19a5.79,5.79,0,0,1,0,.58Zm3.61-.88a1.75,1.75,0,0,0-1.71-2,2.05,2.05,0,0,0-1.89,2Z" transform="translate(-12.25 -78.82)"/><path class="cls-3" d="M175.07,488c0-.87,0-1.57,0-2.22h1.11l.05,1.17h0a2.65,2.65,0,0,1,2.41-1.32c1.64,0,2.87,1.39,2.87,3.45,0,2.43-1.48,3.64-3.08,3.64a2.37,2.37,0,0,1-2.09-1.07h0v3.69h-1.22Zm1.22,1.8a2.64,2.64,0,0,0,.06.51,1.9,1.9,0,0,0,1.85,1.44c1.3,0,2.06-1.06,2.06-2.62,0-1.36-.72-2.52-2-2.52a2,2,0,0,0-1.86,1.53,2,2,0,0,0-.09.5Z" transform="translate(-12.25 -78.82)"/><path class="cls-3" d="M189.18,489.13a3.32,3.32,0,0,1-3.38,3.6,3.23,3.23,0,0,1-3.25-3.49,3.31,3.31,0,0,1,3.36-3.6A3.21,3.21,0,0,1,189.18,489.13Zm-5.38.07c0,1.48.85,2.6,2.06,2.6s2.06-1.1,2.06-2.63c0-1.15-.58-2.61-2-2.61S183.8,487.91,183.8,489.2Z" transform="translate(-12.25 -78.82)"/><path class="cls-3" d="M190.56,491.31a3.2,3.2,0,0,0,1.62.49c.9,0,1.32-.44,1.32-1s-.35-.91-1.26-1.24c-1.22-.44-1.79-1.11-1.79-1.92a2.09,2.09,0,0,1,2.34-2,3.43,3.43,0,0,1,1.66.42l-.31.9a2.57,2.57,0,0,0-1.38-.4c-.73,0-1.14.42-1.14.93s.41.81,1.29,1.15c1.18.45,1.78,1,1.78,2,0,1.19-.92,2-2.53,2a3.88,3.88,0,0,1-1.91-.46Z" transform="translate(-12.25 -78.82)"/><path class="cls-3" d="M197.64,483.89a.76.76,0,0,1-1.52,0,.75.75,0,0,1,.77-.77A.73.73,0,0,1,197.64,483.89Zm-1.37,8.68v-6.78h1.23v6.78Z" transform="translate(-12.25 -78.82)"/><path class="cls-3" d="M201,483.85v1.94h1.77v.94H201v3.66c0,.84.24,1.32.93,1.32a2.73,2.73,0,0,0,.71-.09l.06.92a3,3,0,0,1-1.1.17,1.74,1.74,0,0,1-1.33-.51,2.53,2.53,0,0,1-.47-1.77v-3.7h-1.05v-.94h1.05v-1.62Z" transform="translate(-12.25 -78.82)"/><path class="cls-3" d="M210.23,489.13a3.32,3.32,0,0,1-3.37,3.6,3.22,3.22,0,0,1-3.25-3.49,3.31,3.31,0,0,1,3.36-3.6A3.2,3.2,0,0,1,210.23,489.13Zm-5.38.07c0,1.48.86,2.6,2.06,2.6s2.06-1.1,2.06-2.63c0-1.15-.57-2.61-2-2.61S204.85,487.91,204.85,489.2Z" transform="translate(-12.25 -78.82)"/><path class="cls-3" d="M211.78,487.91c0-.8,0-1.49-.05-2.12h1.07l0,1.33h.05a2,2,0,0,1,1.88-1.48,1.25,1.25,0,0,1,.35,0v1.16a2.5,2.5,0,0,0-.42,0,1.73,1.73,0,0,0-1.65,1.58,3.34,3.34,0,0,0-.06.58v3.61h-1.22Z" transform="translate(-12.25 -78.82)"/><path class="cls-3" d="M217.16,485.79l1.48,4c.16.45.33,1,.44,1.39h0c.12-.41.26-.93.43-1.42l1.34-4h1.31l-1.85,4.84c-.88,2.32-1.49,3.51-2.33,4.24a3.39,3.39,0,0,1-1.51.8l-.31-1a3,3,0,0,0,1.08-.6,3.72,3.72,0,0,0,1-1.37,1,1,0,0,0,.09-.3,1,1,0,0,0-.08-.32l-2.51-6.25Z" transform="translate(-12.25 -78.82)"/><path class="cls-3" d="M122.49,324.8a6.1,6.1,0,0,1-2.49.45,4.42,4.42,0,0,1-4.67-4.78,4.71,4.71,0,0,1,4.94-5,5.08,5.08,0,0,1,2.24.42l-.3,1a4.34,4.34,0,0,0-1.9-.39c-2.22,0-3.69,1.41-3.69,3.89,0,2.31,1.33,3.8,3.63,3.8a4.85,4.85,0,0,0,2-.4Z" transform="translate(-12.25 -78.82)"/><path class="cls-3" d="M124,315.16h1.24v9.95H124Z" transform="translate(-12.25 -78.82)"/><path class="cls-3" d="M133.41,321.66a3.31,3.31,0,0,1-3.37,3.6,3.22,3.22,0,0,1-3.25-3.49,3.31,3.31,0,0,1,3.36-3.6A3.21,3.21,0,0,1,133.41,321.66Zm-5.38.07c0,1.49.86,2.61,2.06,2.61s2.06-1.11,2.06-2.64c0-1.14-.57-2.6-2-2.6S128,320.44,128,321.73Z" transform="translate(-12.25 -78.82)"/><path class="cls-3" d="M140.64,323.26c0,.7,0,1.32.05,1.85H139.6l-.07-1.11h0a2.54,2.54,0,0,1-2.24,1.26c-1.06,0-2.34-.59-2.34-3v-4h1.23v3.75c0,1.29.4,2.16,1.52,2.16a1.77,1.77,0,0,0,1.62-1.12,1.81,1.81,0,0,0,.11-.63v-4.16h1.24Z" transform="translate(-12.25 -78.82)"/><path class="cls-3" d="M148.53,315.16v8.2c0,.6,0,1.29.06,1.75h-1.11l-.06-1.18h0a2.51,2.51,0,0,1-2.31,1.33c-1.64,0-2.9-1.38-2.9-3.44,0-2.26,1.38-3.65,3-3.65a2.26,2.26,0,0,1,2,1h0v-4Zm-1.23,5.93a2.24,2.24,0,0,0-.06-.52,1.81,1.81,0,0,0-1.78-1.43c-1.27,0-2,1.12-2,2.62s.67,2.51,2,2.51a1.85,1.85,0,0,0,1.8-1.47,2.29,2.29,0,0,0,.06-.54Z" transform="translate(-12.25 -78.82)"/><path class="cls-3" d="M155,316.38v1.95h1.77v.94H155v3.65c0,.84.24,1.32.93,1.32a2.82,2.82,0,0,0,.71-.08l.06.92a3,3,0,0,1-1.09.17,1.68,1.68,0,0,1-1.33-.52,2.52,2.52,0,0,1-.48-1.77v-3.69h-1v-.94h1V316.7Z" transform="translate(-12.25 -78.82)"/><path class="cls-3" d="M161.93,325.11l-.1-.86h0a2.52,2.52,0,0,1-2.08,1,1.93,1.93,0,0,1-2.07-1.95c0-1.63,1.46-2.53,4.08-2.52v-.14a1.4,1.4,0,0,0-1.54-1.57,3.39,3.39,0,0,0-1.77.51l-.28-.81a4.15,4.15,0,0,1,2.23-.61c2.07,0,2.58,1.42,2.58,2.78v2.53a9,9,0,0,0,.11,1.63Zm-.18-3.46c-1.35,0-2.88.21-2.88,1.52a1.1,1.1,0,0,0,1.17,1.18,1.7,1.7,0,0,0,1.64-1.13,1.4,1.4,0,0,0,.07-.4Z" transform="translate(-12.25 -78.82)"/><path class="cls-3" d="M164.92,320.54c0-.87,0-1.57,0-2.21H166l.06,1.16h0a2.65,2.65,0,0,1,2.41-1.32c1.63,0,2.87,1.39,2.87,3.45,0,2.44-1.49,3.64-3.08,3.64a2.37,2.37,0,0,1-2.09-1.06h0v3.68h-1.22Zm1.22,1.81a2.54,2.54,0,0,0,.06.5,1.88,1.88,0,0,0,1.85,1.44c1.3,0,2-1.06,2-2.61,0-1.36-.71-2.53-2-2.53a2,2,0,0,0-1.87,1.53,2.17,2.17,0,0,0-.08.51Z" transform="translate(-12.25 -78.82)"/><path class="cls-3" d="M173.57,321.94a2.17,2.17,0,0,0,2.33,2.35,4.63,4.63,0,0,0,1.88-.34l.21.88a5.64,5.64,0,0,1-2.26.42,3.14,3.14,0,0,1-3.33-3.42c0-2,1.2-3.66,3.18-3.66,2.21,0,2.8,1.95,2.8,3.2a5.55,5.55,0,0,1,0,.57Zm3.62-.88a1.76,1.76,0,0,0-1.71-2,2,2,0,0,0-1.89,2Z" transform="translate(-12.25 -78.82)"/><path class="cls-3" d="M187.7,324.86a4.65,4.65,0,0,1-1.95.39,3.22,3.22,0,0,1-3.37-3.46,3.44,3.44,0,0,1,3.64-3.6,4.1,4.1,0,0,1,1.71.35l-.28.95a2.84,2.84,0,0,0-1.43-.32,2.56,2.56,0,0,0,0,5.1,3.4,3.4,0,0,0,1.51-.34Z" transform="translate(-12.25 -78.82)"/><path class="cls-3" d="M195.19,321.66a3.31,3.31,0,0,1-3.37,3.6,3.22,3.22,0,0,1-3.25-3.49,3.31,3.31,0,0,1,3.36-3.6A3.21,3.21,0,0,1,195.19,321.66Zm-5.38.07c0,1.49.86,2.61,2.06,2.61s2.06-1.11,2.06-2.64c0-1.14-.57-2.6-2-2.6S189.81,320.44,189.81,321.73Z" transform="translate(-12.25 -78.82)"/><path class="cls-3" d="M196.74,320.16c0-.7,0-1.27-.05-1.83h1.09l.07,1.12h0a2.48,2.48,0,0,1,2.24-1.28c.94,0,2.39.56,2.39,2.89v4.05h-1.23V321.2c0-1.09-.4-2-1.57-2a1.74,1.74,0,0,0-1.65,1.26,1.64,1.64,0,0,0-.08.57v4.08h-1.24Z" transform="translate(-12.25 -78.82)"/><path class="cls-3" d="M204.51,320.16c0-.7,0-1.27,0-1.83h1.09l.07,1.12h0a2.48,2.48,0,0,1,2.24-1.28c.94,0,2.39.56,2.39,2.89v4.05h-1.23V321.2c0-1.09-.4-2-1.57-2a1.74,1.74,0,0,0-1.65,1.26,1.64,1.64,0,0,0-.08.57v4.08h-1.24Z" transform="translate(-12.25 -78.82)"/><path class="cls-3" d="M213,321.94a2.17,2.17,0,0,0,2.32,2.35,4.56,4.56,0,0,0,1.88-.34l.21.88a5.54,5.54,0,0,1-2.25.42,3.15,3.15,0,0,1-3.34-3.42c0-2,1.21-3.66,3.18-3.66,2.22,0,2.8,1.95,2.8,3.2a3.65,3.65,0,0,1,0,.57Zm3.61-.88a1.75,1.75,0,0,0-1.71-2,2,2,0,0,0-1.89,2Z" transform="translate(-12.25 -78.82)"/><path class="cls-3" d="M224.13,324.86a4.69,4.69,0,0,1-1.95.39,3.22,3.22,0,0,1-3.37-3.46,3.44,3.44,0,0,1,3.64-3.6,4.1,4.1,0,0,1,1.71.35l-.28.95a2.87,2.87,0,0,0-1.43-.32,2.56,2.56,0,0,0,0,5.1,3.4,3.4,0,0,0,1.51-.34Z" transform="translate(-12.25 -78.82)"/><path class="cls-3" d="M227.24,316.38v1.95H229v.94h-1.76v3.65c0,.84.23,1.32.92,1.32a2.82,2.82,0,0,0,.71-.08l.06.92a3,3,0,0,1-1.09.17,1.68,1.68,0,0,1-1.33-.52A2.52,2.52,0,0,1,226,323v-3.69H225v-.94H226V316.7Z" transform="translate(-12.25 -78.82)"/><path class="cls-3" d="M236.44,321.66a3.31,3.31,0,0,1-3.38,3.6,3.22,3.22,0,0,1-3.25-3.49,3.31,3.31,0,0,1,3.36-3.6A3.22,3.22,0,0,1,236.44,321.66Zm-5.38.07c0,1.49.85,2.61,2.06,2.61s2.06-1.11,2.06-2.64c0-1.14-.58-2.6-2-2.6S231.06,320.44,231.06,321.73Z" transform="translate(-12.25 -78.82)"/><path class="cls-3" d="M238,320.44c0-.8,0-1.48-.06-2.11H239l0,1.33h.06a2,2,0,0,1,1.87-1.49,1.23,1.23,0,0,1,.35.05v1.16a1.71,1.71,0,0,0-.42,0,1.74,1.74,0,0,0-1.65,1.58,3.27,3.27,0,0,0,0,.57v3.62H238Z" transform="translate(-12.25 -78.82)"/><line class="cls-4" x1="134.33" y1="122.9" x2="140.49" y2="107.58"/><line class="cls-4" x1="143.62" y1="83.75" x2="150.26" y2="83.75"/><line class="cls-6" x1="198.38" y1="84.94" x2="239.84" y2="84.94"/><path class="cls-3" d="M258.12,163.75a29.91,29.91,0,0,0-8.54,4.76l1.72-4.76L249.58,159A30.12,30.12,0,0,0,258.12,163.75Z" transform="translate(-12.25 -78.82)"/><path class="cls-3" d="M239.91,204.37a4.88,4.88,0,0,0,2.35.62c1.34,0,2.12-.66,2.12-1.61s-.54-1.39-1.91-1.88c-1.66-.55-2.68-1.35-2.68-2.68s1.31-2.56,3.28-2.56a4.85,4.85,0,0,1,2.24.46l-.36,1a4.25,4.25,0,0,0-1.93-.45c-1.38,0-1.9.77-1.9,1.41,0,.89.61,1.32,2,1.82,1.71.62,2.58,1.39,2.58,2.78s-1.15,2.72-3.54,2.72a5.49,5.49,0,0,1-2.59-.61Z" transform="translate(-12.25 -78.82)"/><path class="cls-3" d="M248.28,202.69a2.26,2.26,0,0,0,2.5,2.35,5,5,0,0,0,2-.35l.23.89a6.44,6.44,0,0,1-2.42.42,3.27,3.27,0,0,1-3.58-3.42,3.38,3.38,0,0,1,3.41-3.66,2.94,2.94,0,0,1,3,3.2,3.51,3.51,0,0,1-.05.57Zm3.88-.88a1.8,1.8,0,0,0-1.83-2,2.1,2.1,0,0,0-2,2Z" transform="translate(-12.25 -78.82)"/><path class="cls-3" d="M260,204.8h0a2.61,2.61,0,0,1-2.37,1.21,3.17,3.17,0,0,1-3.08-3.43,3.34,3.34,0,0,1,3.29-3.66,2.42,2.42,0,0,1,2.24,1.18h0l0-1h1.25c0,.57,0,1.16,0,1.86v7.69H260Zm0-3a1.81,1.81,0,0,0-.06-.52,1.91,1.91,0,0,0-1.89-1.4c-1.37,0-2.2,1.08-2.2,2.61,0,1.34.7,2.52,2.15,2.52a2,2,0,0,0,1.9-1.35,1.86,1.86,0,0,0,.1-.58Z" transform="translate(-12.25 -78.82)"/><path class="cls-3" d="M269.62,204c0,.7,0,1.31.06,1.85h-1.17l-.08-1.11h0A2.75,2.75,0,0,1,266,206c-1.15,0-2.51-.59-2.51-3v-4h1.32v3.75c0,1.29.42,2.16,1.62,2.16a1.93,1.93,0,0,0,1.75-1.12,1.86,1.86,0,0,0,.12-.63v-4.16h1.32Z" transform="translate(-12.25 -78.82)"/><path class="cls-3" d="M272.55,202.69A2.25,2.25,0,0,0,275,205a5.05,5.05,0,0,0,2-.35l.22.89a6.35,6.35,0,0,1-2.42.42,3.27,3.27,0,0,1-3.58-3.42,3.39,3.39,0,0,1,3.42-3.66,2.94,2.94,0,0,1,3,3.2c0,.25,0,.44,0,.57Zm3.87-.88a1.79,1.79,0,0,0-1.83-2,2.11,2.11,0,0,0-2,2Z" transform="translate(-12.25 -78.82)"/><path class="cls-3" d="M279.34,200.91c0-.7,0-1.27-.06-1.83h1.17l.07,1.12h0a2.73,2.73,0,0,1,2.41-1.28c1,0,2.57.56,2.57,2.89v4.05h-1.32V202c0-1.1-.44-2-1.69-2a1.87,1.87,0,0,0-1.77,1.27,1.62,1.62,0,0,0-.09.57v4.08h-1.32Z" transform="translate(-12.25 -78.82)"/><path class="cls-3" d="M289.21,197.13v2h1.89V200h-1.89v3.66c0,.84.25,1.32,1,1.32a3.22,3.22,0,0,0,.77-.09l.06.93a3.4,3.4,0,0,1-1.17.17,1.92,1.92,0,0,1-1.43-.52,2.39,2.39,0,0,1-.51-1.77V200h-1.13v-.93h1.13v-1.63Z" transform="translate(-12.25 -78.82)"/><path class="cls-3" d="M294.06,197.17a.75.75,0,0,1-.84.76.76.76,0,0,1-.8-.76.79.79,0,0,1,.83-.77A.76.76,0,0,1,294.06,197.17Zm-1.47,8.69v-6.78h1.32v6.78Z" transform="translate(-12.25 -78.82)"/><path class="cls-3" d="M300.13,205.86,300,205h0a2.78,2.78,0,0,1-2.22,1,2,2,0,0,1-2.23-1.95c0-1.64,1.57-2.53,4.38-2.52v-.14c0-.56-.17-1.57-1.66-1.57a3.81,3.81,0,0,0-1.89.51l-.3-.82a4.8,4.8,0,0,1,2.39-.6,2.48,2.48,0,0,1,2.76,2.78v2.53a9,9,0,0,0,.12,1.63Zm-.19-3.46c-1.45,0-3.08.21-3.08,1.52a1.13,1.13,0,0,0,1.24,1.18,1.8,1.8,0,0,0,1.76-1.14,1,1,0,0,0,.08-.39Z" transform="translate(-12.25 -78.82)"/><path class="cls-3" d="M303.35,195.91h1.32v10h-1.32Z" transform="translate(-12.25 -78.82)"/><path class="cls-3" d="M310.12,196.54a20.47,20.47,0,0,1,2.78-.2,6.11,6.11,0,0,1,4.11,1.18,4.2,4.2,0,0,1,1.42,3.39,4.83,4.83,0,0,1-1.45,3.67,6.55,6.55,0,0,1-4.48,1.36,22.68,22.68,0,0,1-2.38-.11Zm1.31,8.35a9.71,9.71,0,0,0,1.32.07c2.8,0,4.32-1.46,4.32-4,0-2.22-1.34-3.64-4.11-3.64a8,8,0,0,0-1.53.13Z" transform="translate(-12.25 -78.82)"/><path class="cls-3" d="M324.11,205.86,324,205H324a2.78,2.78,0,0,1-2.22,1,2,2,0,0,1-2.23-1.95c0-1.64,1.57-2.53,4.38-2.52v-.14c0-.56-.17-1.57-1.66-1.57a3.81,3.81,0,0,0-1.89.51l-.3-.82a4.8,4.8,0,0,1,2.39-.6,2.48,2.48,0,0,1,2.76,2.78v2.53a9,9,0,0,0,.12,1.63Zm-.19-3.46c-1.45,0-3.09.21-3.09,1.52a1.14,1.14,0,0,0,1.25,1.18,1.8,1.8,0,0,0,1.76-1.14,1,1,0,0,0,.08-.39Z" transform="translate(-12.25 -78.82)"/><path class="cls-3" d="M328.86,197.13v2h1.89V200h-1.89v3.66c0,.84.25,1.32,1,1.32a3.22,3.22,0,0,0,.77-.09l.06.93a3.43,3.43,0,0,1-1.18.17,1.91,1.91,0,0,1-1.42-.52,2.39,2.39,0,0,1-.51-1.77V200h-1.13v-.93h1.13v-1.63Z" transform="translate(-12.25 -78.82)"/><path class="cls-3" d="M336.27,205.86l-.11-.86h0a2.8,2.8,0,0,1-2.23,1,2,2,0,0,1-2.22-1.95c0-1.64,1.56-2.53,4.37-2.52v-.14c0-.56-.16-1.57-1.65-1.57a3.82,3.82,0,0,0-1.9.51l-.3-.82a4.83,4.83,0,0,1,2.39-.6,2.48,2.48,0,0,1,2.77,2.78v2.53a9,9,0,0,0,.12,1.63Zm-.2-3.46c-1.44,0-3.08.21-3.08,1.52a1.14,1.14,0,0,0,1.25,1.18A1.81,1.81,0,0,0,336,204a1.28,1.28,0,0,0,.07-.39Z" transform="translate(-12.25 -78.82)"/><path class="cls-3" d="M342.53,204.37a4.84,4.84,0,0,0,2.34.62c1.34,0,2.12-.66,2.12-1.61s-.54-1.39-1.91-1.88c-1.65-.55-2.67-1.35-2.67-2.68s1.31-2.56,3.28-2.56a4.83,4.83,0,0,1,2.23.46l-.36,1a4.2,4.2,0,0,0-1.92-.45c-1.38,0-1.91.77-1.91,1.41,0,.89.62,1.32,2,1.82,1.71.62,2.58,1.39,2.58,2.78s-1.16,2.72-3.55,2.72a5.48,5.48,0,0,1-2.58-.61Z" transform="translate(-12.25 -78.82)"/><path class="cls-3" d="M350.9,202.69a2.25,2.25,0,0,0,2.49,2.35,5.05,5.05,0,0,0,2-.35l.22.89a6.35,6.35,0,0,1-2.42.42,3.26,3.26,0,0,1-3.57-3.42,3.38,3.38,0,0,1,3.41-3.66,2.94,2.94,0,0,1,3,3.2c0,.25,0,.44,0,.57Zm3.88-.88a1.8,1.8,0,0,0-1.84-2,2.11,2.11,0,0,0-2,2Z" transform="translate(-12.25 -78.82)"/><path class="cls-3" d="M359.28,197.13v2h1.9V200h-1.9v3.66c0,.84.26,1.32,1,1.32a3.15,3.15,0,0,0,.77-.09l.06.93a3.36,3.36,0,0,1-1.17.17,1.94,1.94,0,0,1-1.43-.52,2.39,2.39,0,0,1-.51-1.77V200h-1.13v-.93H358v-1.63Z" transform="translate(-12.25 -78.82)"/><line class="cls-5" x1="267.66" y1="132.72" x2="190.43" y2="195.8"/><path class="cls-3" d="M198,278.43a30.31,30.31,0,0,0,3.61-9.09l1.68,4.77,4.34,2.6A30.33,30.33,0,0,0,198,278.43Z" transform="translate(-12.25 -78.82)"/><line class="cls-5" x1="207.12" y1="215.31" x2="424.16" y2="215.31"/><path class="cls-3" d="M442.44,294.13a30.12,30.12,0,0,0-8.54,4.75l1.72-4.75-1.72-4.76A30.15,30.15,0,0,0,442.44,294.13Z" transform="translate(-12.25 -78.82)"/><path class="cls-3" d="M325.84,276.6l.77,2.95c.17.65.32,1.25.43,1.85h0c.13-.59.32-1.22.51-1.84l1-3h.89l.9,2.9c.21.7.38,1.31.51,1.9h0a19.29,19.29,0,0,1,.44-1.89l.83-2.91h1l-1.87,5.8h-1l-.88-2.77a17.16,17.16,0,0,1-.52-1.9h0a19.58,19.58,0,0,1-.53,1.91l-.94,2.76h-1l-1.75-5.8Z" transform="translate(-12.25 -78.82)"/><path class="cls-3" d="M334.25,278.41c0-.68,0-1.27,0-1.81h.92l0,1.14h0a1.75,1.75,0,0,1,1.61-1.27,1.32,1.32,0,0,1,.3,0v1a1.28,1.28,0,0,0-.36,0,1.47,1.47,0,0,0-1.41,1.36,2.38,2.38,0,0,0-.05.49v3.09h-1.05Z" transform="translate(-12.25 -78.82)"/><path class="cls-3" d="M339.4,275a.62.62,0,0,1-.67.64.63.63,0,0,1-.64-.64.64.64,0,0,1,.66-.66A.62.62,0,0,1,339.4,275Zm-1.17,7.43v-5.8h1v5.8Z" transform="translate(-12.25 -78.82)"/><path class="cls-3" d="M342.31,274.93v1.67h1.51v.8h-1.51v3.13c0,.72.2,1.13.79,1.13a2.68,2.68,0,0,0,.61-.07l.05.79a2.73,2.73,0,0,1-.94.14,1.45,1.45,0,0,1-1.14-.44,2.15,2.15,0,0,1-.41-1.51V277.4h-.89v-.8h.89v-1.39Z" transform="translate(-12.25 -78.82)"/><path class="cls-3" d="M345.52,279.69a1.87,1.87,0,0,0,2,2,4,4,0,0,0,1.61-.3l.18.75a4.67,4.67,0,0,1-1.93.36,2.69,2.69,0,0,1-2.86-2.92c0-1.76,1-3.13,2.73-3.13a2.46,2.46,0,0,1,2.4,2.73,4.15,4.15,0,0,1,0,.49Zm3.1-.75a1.51,1.51,0,0,0-1.47-1.72,1.76,1.76,0,0,0-1.62,1.72Z" transform="translate(-12.25 -78.82)"/><rect class="cls-6" x="0.5" y="4.21" width="355.62" height="460.4" rx="62.1"/><circle class="cls-8" cx="161.21" cy="207.26" r="24.76"/><path id="tape--storage" class="cls-9" d="M173.56,301.75a15.36,15.36,0,1,1,15.36-15.36A15.38,15.38,0,0,1,173.56,301.75Zm0-30a14.64,14.64,0,1,0,14.64,14.64A14.65,14.65,0,0,0,173.56,271.75Zm4.66,26.06a.31.31,0,0,1-.13,0,.34.34,0,0,1-.2-.19l-2.33-5.53a.36.36,0,0,1,.19-.47,5.69,5.69,0,0,0,3-3,.34.34,0,0,1,.2-.19.32.32,0,0,1,.27,0l5.54,2.31a.34.34,0,0,1,.19.2.32.32,0,0,1,0,.27,12.48,12.48,0,0,1-6.6,6.63A.32.32,0,0,1,178.22,297.81Zm-1.86-5.71,2,4.87a11.78,11.78,0,0,0,5.75-5.77l-4.88-2A6.45,6.45,0,0,1,176.36,292.1Zm-2.8-1.35a4.36,4.36,0,1,1,4.36-4.36A4.36,4.36,0,0,1,173.56,290.75Zm0-8a3.64,3.64,0,1,0,3.64,3.64A3.65,3.65,0,0,0,173.56,282.75Zm0,6a2.36,2.36,0,1,1,2.36-2.36A2.36,2.36,0,0,1,173.56,288.75Zm0-4a1.64,1.64,0,1,0,1.64,1.64A1.64,1.64,0,0,0,173.56,284.75Zm-5.54-.3a.32.32,0,0,1-.14,0l-5.54-2.31a.34.34,0,0,1-.19-.2.32.32,0,0,1,0-.27,12.48,12.48,0,0,1,6.6-6.63.34.34,0,0,1,.28,0,.35.35,0,0,1,.19.19l2.33,5.53a.35.35,0,0,1-.19.47,5.69,5.69,0,0,0-3,3,.34.34,0,0,1-.2.19A.31.31,0,0,1,168,284.45ZM163,281.59l4.87,2a6.45,6.45,0,0,1,2.93-2.93l-2.06-4.87A11.76,11.76,0,0,0,163,281.59Z" transform="translate(-12.25 -78.82)"/><circle cx="475.86" cy="205.98" r="24.76"/><g class="cls-10"><rect class="cls-11" x="459.41" y="188.98" width="32" height="32"/></g><path id="data" class="cls-12" d="M489.66,277.79h-8v-8h8Zm-6-2h4v-4h-4Z" transform="translate(-12.25 -78.82)"/><path class="cls-12" d="M493.66,281.79h-6v8h8v-6h6v-8h-8Zm0,6h-4v-4h4Zm6-10v4h-4v-4Z" transform="translate(-12.25 -78.82)"/><circle class="cls-8" cx="163.46" cy="378.41" r="24.76"/><line class="cls-7" x1="162.74" y1="255.86" x2="163.38" y2="347.73"/><path id="archive" class="cls-9" d="M187.27,470.26H163.84a1.33,1.33,0,0,1-1.33-1.33V448.77h-1.6a.34.34,0,0,1-.35-.35v-7.81a.35.35,0,0,1,.35-.35H190.2a.36.36,0,0,1,.36.35v7.81a.35.35,0,0,1-.36.35h-1.6v20.16A1.33,1.33,0,0,1,187.27,470.26Zm-24.06-21.49v20.16a.63.63,0,0,0,.63.63h23.43a.63.63,0,0,0,.63-.63V448.77Zm25-.7h1.6V441H161.26v7.11Zm-9.76,7.54h-5.86a2.31,2.31,0,1,1,0-4.61h5.86a2.31,2.31,0,0,1,0,4.61Zm-5.86-3.91a1.61,1.61,0,1,0,0,3.21h5.86a1.61,1.61,0,0,0,0-3.21Z" transform="translate(-12.25 -78.82)"/><line class="cls-7" x1="770.08" y1="257.64" x2="771.21" y2="343.58"/><circle class="cls-8" cx="771.61" cy="373.61" r="24.76"/><path id="archive-2" data-name="archive" class="cls-9" d="M795.94,466.79H772.5a1.34,1.34,0,0,1-1.33-1.33V445.3h-1.6a.35.35,0,0,1-.35-.35v-7.81a.35.35,0,0,1,.35-.35h29.3a.35.35,0,0,1,.35.35V445a.35.35,0,0,1-.35.35h-1.6v20.16A1.34,1.34,0,0,1,795.94,466.79ZM771.88,445.3v20.16a.62.62,0,0,0,.62.62h23.44a.62.62,0,0,0,.62-.62V445.3Zm25-.7h1.61v-7.11h-28.6v7.11Zm-9.76,7.54h-5.86a2.31,2.31,0,1,1,0-4.61h5.86a2.31,2.31,0,0,1,0,4.61Zm-5.86-3.91a1.61,1.61,0,0,0,0,3.21h5.86a1.61,1.61,0,0,0,0-3.21Z" transform="translate(-12.25 -78.82)"/><circle class="cls-8" cx="774.24" cy="205.94" r="24.76"/><path id="tape--storage-2" data-name="tape--storage" class="cls-9" d="M786.59,300.44A15.36,15.36,0,1,1,802,285.08,15.38,15.38,0,0,1,786.59,300.44Zm0-30a14.64,14.64,0,1,0,14.64,14.64A14.65,14.65,0,0,0,786.59,270.44Zm4.66,26.05-.13,0a.39.39,0,0,1-.2-.2l-2.33-5.53a.36.36,0,0,1,.19-.47,5.65,5.65,0,0,0,3-3,.34.34,0,0,1,.2-.19.32.32,0,0,1,.27,0l5.54,2.31a.34.34,0,0,1,.19.2.32.32,0,0,1,0,.27,12.45,12.45,0,0,1-6.6,6.63A.32.32,0,0,1,791.25,296.49Zm-1.86-5.7,2.05,4.86a11.8,11.8,0,0,0,5.75-5.76l-4.88-2A6.49,6.49,0,0,1,789.39,290.79Zm-2.8-1.35a4.36,4.36,0,1,1,4.36-4.36A4.36,4.36,0,0,1,786.59,289.44Zm0-8a3.64,3.64,0,1,0,3.64,3.64A3.64,3.64,0,0,0,786.59,281.44Zm0,6a2.36,2.36,0,1,1,2.36-2.36A2.36,2.36,0,0,1,786.59,287.44Zm0-4a1.64,1.64,0,1,0,1.64,1.64A1.63,1.63,0,0,0,786.59,283.44Zm-5.54-.31a.32.32,0,0,1-.14,0l-5.54-2.31a.35.35,0,0,1-.19-.19.34.34,0,0,1,0-.28,12.48,12.48,0,0,1,6.6-6.63.32.32,0,0,1,.27,0,.34.34,0,0,1,.2.19l2.33,5.53a.35.35,0,0,1-.19.47,5.69,5.69,0,0,0-3,3,.39.39,0,0,1-.2.2ZM776,280.27l4.87,2a6.45,6.45,0,0,1,2.92-2.94l-2-4.87A11.76,11.76,0,0,0,776,280.27Z" transform="translate(-12.25 -78.82)"/><path class="cls-3" d="M31.94,196.53a15.86,15.86,0,0,1,2.51-.19,4.32,4.32,0,0,1,2.84.79,2.44,2.44,0,0,1,.89,2,2.67,2.67,0,0,1-.78,2,4.37,4.37,0,0,1-3.1,1,4.78,4.78,0,0,1-1-.09v3.79H31.94Zm1.31,4.55a4.72,4.72,0,0,0,1.08.1c1.58,0,2.54-.72,2.54-2s-.94-1.85-2.39-1.85a5.59,5.59,0,0,0-1.23.1Z" transform="translate(-12.25 -78.82)"/><path class="cls-3" d="M43.53,205.86l-.11-.86h0a2.8,2.8,0,0,1-2.23,1,2,2,0,0,1-2.22-1.95c0-1.64,1.56-2.53,4.37-2.52v-.14c0-.56-.16-1.57-1.65-1.57a3.78,3.78,0,0,0-1.89.51l-.3-.82a4.79,4.79,0,0,1,2.38-.6,2.48,2.48,0,0,1,2.77,2.78v2.53a9,9,0,0,0,.12,1.63Zm-.2-3.46c-1.44,0-3.08.21-3.08,1.52a1.14,1.14,0,0,0,1.25,1.18A1.8,1.8,0,0,0,43.26,204a1.28,1.28,0,0,0,.07-.39Z" transform="translate(-12.25 -78.82)"/><path class="cls-3" d="M46.74,201.19c0-.8,0-1.48-.06-2.11h1.16l0,1.33H48a2.16,2.16,0,0,1,2-1.49,2,2,0,0,1,.37,0v1.17a1.93,1.93,0,0,0-.45,0,1.8,1.8,0,0,0-1.77,1.59,3.22,3.22,0,0,0-.06.57v3.62H46.74Z" transform="translate(-12.25 -78.82)"/><path class="cls-3" d="M53.61,197.13v2H55.5V200H53.61v3.66c0,.84.26,1.32,1,1.32a3.22,3.22,0,0,0,.77-.09l.06.93a3.4,3.4,0,0,1-1.17.17,1.92,1.92,0,0,1-1.43-.52,2.39,2.39,0,0,1-.51-1.77V200H51.19v-.93h1.13v-1.63Z" transform="translate(-12.25 -78.82)"/><path class="cls-3" d="M58.46,197.17a.75.75,0,0,1-.84.76.76.76,0,0,1-.8-.76.79.79,0,0,1,.83-.77A.76.76,0,0,1,58.46,197.17ZM57,205.86v-6.78h1.32v6.78Z" transform="translate(-12.25 -78.82)"/><path class="cls-3" d="M62.1,197.13v2H64V200H62.1v3.66c0,.84.25,1.32,1,1.32a3.22,3.22,0,0,0,.77-.09l.06.93a3.47,3.47,0,0,1-1.18.17,1.91,1.91,0,0,1-1.42-.52,2.39,2.39,0,0,1-.52-1.77V200H59.68v-.93H60.8v-1.63Z" transform="translate(-12.25 -78.82)"/><path class="cls-3" d="M67,197.17a.75.75,0,0,1-.84.76.76.76,0,0,1-.8-.76.79.79,0,0,1,.83-.77A.76.76,0,0,1,67,197.17Zm-1.47,8.69v-6.78H66.8v6.78Z" transform="translate(-12.25 -78.82)"/><path class="cls-3" d="M75.58,202.41A3.44,3.44,0,0,1,72,206a3.33,3.33,0,0,1-3.48-3.49,3.42,3.42,0,0,1,3.61-3.6A3.33,3.33,0,0,1,75.58,202.41Zm-5.77.07A2.24,2.24,0,1,0,72,199.85C70.48,199.85,69.81,201.19,69.81,202.48Z" transform="translate(-12.25 -78.82)"/><path class="cls-3" d="M77.24,200.91c0-.7,0-1.27-.06-1.83h1.17l.08,1.12h0a2.7,2.7,0,0,1,2.4-1.28c1,0,2.57.56,2.57,2.89v4.05H82.11V202c0-1.1-.43-2-1.68-2a1.88,1.88,0,0,0-1.78,1.27,1.62,1.62,0,0,0-.09.57v4.08H77.24Z" transform="translate(-12.25 -78.82)"/><path class="cls-3" d="M88.81,196.54a20.34,20.34,0,0,1,2.78-.2,6.06,6.06,0,0,1,4.1,1.18,4.17,4.17,0,0,1,1.43,3.39,4.8,4.8,0,0,1-1.46,3.67,6.53,6.53,0,0,1-4.48,1.36,22.61,22.61,0,0,1-2.37-.11Zm1.31,8.35a9.71,9.71,0,0,0,1.32.07c2.8,0,4.31-1.46,4.31-4,0-2.22-1.33-3.64-4.1-3.64a7.78,7.78,0,0,0-1.53.13Z" transform="translate(-12.25 -78.82)"/><path class="cls-3" d="M102.8,205.86l-.11-.86h0a2.8,2.8,0,0,1-2.23,1,2,2,0,0,1-2.22-1.95c0-1.64,1.56-2.53,4.37-2.52v-.14c0-.56-.16-1.57-1.65-1.57a3.81,3.81,0,0,0-1.89.51l-.3-.82a4.8,4.8,0,0,1,2.39-.6,2.48,2.48,0,0,1,2.76,2.78v2.53a9,9,0,0,0,.12,1.63Zm-.2-3.46c-1.44,0-3.08.21-3.08,1.52a1.14,1.14,0,0,0,1.25,1.18,1.8,1.8,0,0,0,1.76-1.14,1.28,1.28,0,0,0,.07-.39Z" transform="translate(-12.25 -78.82)"/><path class="cls-3" d="M107.55,197.13v2h1.89V200h-1.89v3.66c0,.84.25,1.32,1,1.32a3.3,3.3,0,0,0,.77-.09l.06.93a3.47,3.47,0,0,1-1.18.17,1.91,1.91,0,0,1-1.42-.52,2.39,2.39,0,0,1-.52-1.77V200h-1.12v-.93h1.12v-1.63Z" transform="translate(-12.25 -78.82)"/><path class="cls-3" d="M115,205.86l-.1-.86h0a2.76,2.76,0,0,1-2.22,1,2,2,0,0,1-2.22-1.95c0-1.64,1.56-2.53,4.37-2.52v-.14a1.44,1.44,0,0,0-1.65-1.57,3.82,3.82,0,0,0-1.9.51l-.3-.82a4.8,4.8,0,0,1,2.39-.6A2.48,2.48,0,0,1,116,201.7v2.53a9,9,0,0,0,.12,1.63Zm-.19-3.46c-1.44,0-3.08.21-3.08,1.52a1.13,1.13,0,0,0,1.24,1.18,1.8,1.8,0,0,0,1.76-1.14,1,1,0,0,0,.08-.39Z" transform="translate(-12.25 -78.82)"/><path class="cls-3" d="M121.17,204.59a3.62,3.62,0,0,0,1.75.49c1,0,1.41-.44,1.41-1s-.38-.91-1.35-1.25c-1.31-.43-1.93-1.11-1.93-1.92,0-1.09,1-2,2.51-2a3.87,3.87,0,0,1,1.79.42l-.33.9a3,3,0,0,0-1.49-.39c-.78,0-1.21.42-1.21.92s.43.81,1.38,1.15c1.26.45,1.91,1,1.91,2,0,1.2-1,2-2.72,2a4.4,4.4,0,0,1-2-.47Z" transform="translate(-12.25 -78.82)"/><path class="cls-3" d="M128,202.69a2.26,2.26,0,0,0,2.5,2.35,5,5,0,0,0,2-.35l.22.89a6.35,6.35,0,0,1-2.42.42,3.27,3.27,0,0,1-3.57-3.42,3.38,3.38,0,0,1,3.41-3.66,3,3,0,0,1,3,3.2,3.51,3.51,0,0,1,0,.57Zm3.88-.88a1.8,1.8,0,0,0-1.84-2,2.12,2.12,0,0,0-2,2Z" transform="translate(-12.25 -78.82)"/><path class="cls-3" d="M136.42,197.13v2h1.9V200h-1.9v3.66c0,.84.26,1.32,1,1.32a3.13,3.13,0,0,0,.76-.09l.06.93a3.36,3.36,0,0,1-1.17.17,1.94,1.94,0,0,1-1.43-.52,2.44,2.44,0,0,1-.51-1.77V200H134v-.93h1.13v-1.63Z" transform="translate(-12.25 -78.82)"/><circle class="cls-8" cx="658.03" cy="81.56" r="24.76"/><path id="data--backup" class="cls-9" d="M666.64,150.6h-6.5v-.72h6.5Zm0,8.28h-6.5v.72h6.5Zm-6.5,9.72h6.5v-.72h-6.5Zm23.36-18.36v9a.36.36,0,0,1-.36.36H679.5v2.64a.36.36,0,0,1-.36.36h-20a.36.36,0,0,1-.36-.36V159.6H655.5v8.28h3.28v-2.64a.36.36,0,0,1,.36-.36h20a.36.36,0,0,1,.36.36v6a.36.36,0,0,1-.36.36h-20a.36.36,0,0,1-.36-.36V168.6h-3.64a.36.36,0,0,1-.36-.36v-9a.36.36,0,0,1,.36-.36h3.64v-2.64a.36.36,0,0,1,.36-.36h20a.36.36,0,0,1,.36.36v2.64h3.28V150.6H679.5v2.64a.36.36,0,0,1-.36.36h-20a.36.36,0,0,1-.36-.36v-6a.36.36,0,0,1,.36-.36h20a.36.36,0,0,1,.36.36v2.64h3.64A.36.36,0,0,1,683.5,150.24Zm-4.72-2.64H659.5v5.28h19.28ZM659.5,170.88h19.28V165.6H659.5Zm19.28-14.28H659.5v5.28h19.28Zm-1.64-6.36a.5.5,0,1,0-.5.5A.5.5,0,0,0,677.14,150.24Zm0,9a.5.5,0,1,0-.5.5A.5.5,0,0,0,677.14,159.24Zm0,9a.5.5,0,1,0-.5.5A.5.5,0,0,0,677.14,168.24Z" transform="translate(-12.25 -78.82)"/><circle class="cls-8" cx="274.55" cy="83.75" r="24.76"/><path id="data--backup-2" data-name="data--backup" class="cls-9" d="M283.29,152.6h-6.5v-.72h6.5Zm0,8.28h-6.5v.72h6.5Zm-6.5,9.72h6.5v-.72h-6.5Zm23.36-18.36v9a.36.36,0,0,1-.36.36h-3.64v2.64a.36.36,0,0,1-.36.36h-20a.36.36,0,0,1-.36-.36V161.6h-3.28v8.28h3.28v-2.64a.36.36,0,0,1,.36-.36h20a.36.36,0,0,1,.36.36v6a.36.36,0,0,1-.36.36h-20a.36.36,0,0,1-.36-.36V170.6h-3.64a.36.36,0,0,1-.36-.36v-9a.36.36,0,0,1,.36-.36h3.64v-2.64a.36.36,0,0,1,.36-.36h20a.36.36,0,0,1,.36.36v2.64h3.28V152.6h-3.28v2.64a.36.36,0,0,1-.36.36h-20a.36.36,0,0,1-.36-.36v-6a.36.36,0,0,1,.36-.36h20a.36.36,0,0,1,.36.36v2.64h3.64A.36.36,0,0,1,300.15,152.24Zm-4.72-2.64H276.15v5.28h19.28Zm-19.28,23.28h19.28V167.6H276.15Zm19.28-14.28H276.15v5.28h19.28Zm-1.64-6.36a.5.5,0,0,0-.5-.5.5.5,0,0,0,0,1A.5.5,0,0,0,293.79,152.24Zm0,9a.5.5,0,0,0-.5-.5.5.5,0,0,0,0,1A.5.5,0,0,0,293.79,161.24Zm0,9a.5.5,0,0,0-.5-.5.5.5,0,0,0,0,1A.5.5,0,0,0,293.79,170.24Z" transform="translate(-12.25 -78.82)"/><circle class="cls-8" cx="902.28" cy="82.63" r="24.76"/><path id="hard--drive" class="cls-9" d="M924.21,152.77a.94.94,0,1,1,.93-.93A.94.94,0,0,1,924.21,152.77Zm.93,9.35a.94.94,0,0,0-1.87,0,.94.94,0,1,0,1.87,0Zm0,10.29a.94.94,0,1,0-.93.93A.93.93,0,0,0,925.14,172.41Zm3.74,4.07h-28a.34.34,0,0,1-.34-.33v-7.48a.34.34,0,0,1,.34-.34h28a.34.34,0,0,1,.34.34v7.48A.34.34,0,0,1,928.88,176.48Zm-27.71-.67h27.38V169H901.17Zm27.71-9.61h-28a.34.34,0,0,1-.34-.34v-7.48a.34.34,0,0,1,.34-.33h28a.34.34,0,0,1,.34.33v7.48A.34.34,0,0,1,928.88,166.2Zm-27.71-.68h27.38v-6.8H901.17Zm27.71-9.61h-28a.34.34,0,0,1-.34-.33V148.1a.34.34,0,0,1,.34-.34h28a.34.34,0,0,1,.34.34v7.48A.34.34,0,0,1,928.88,155.91Zm-27.71-.67h27.38v-6.81H901.17Z" transform="translate(-12.25 -78.82)"/><line class="cls-6" x1="823.86" y1="81.56" x2="866.74" y2="81.56"/><path class="cls-3" d="M885,160.38a29.91,29.91,0,0,0-8.54,4.76l1.72-4.76-1.72-4.75A30.12,30.12,0,0,0,885,160.38Z" transform="translate(-12.25 -78.82)"/><circle class="cls-8" cx="51.43" cy="84.94" r="24.76"/><path id="hard--drive-2" data-name="hard--drive" class="cls-9" d="M73.36,155.07a.94.94,0,0,1,0-1.87.94.94,0,1,1,0,1.87Zm.94,9.35a.94.94,0,1,0-.94.94A.94.94,0,0,0,74.3,164.42Zm0,10.29a.94.94,0,1,0-.94.93A.94.94,0,0,0,74.3,174.71ZM78,178.78H50a.34.34,0,0,1-.34-.33V171a.34.34,0,0,1,.34-.34H78a.34.34,0,0,1,.33.34v7.48A.33.33,0,0,1,78,178.78Zm-27.71-.67H77.7V171.3H50.33ZM78,168.5H50a.34.34,0,0,1-.34-.34v-7.48a.34.34,0,0,1,.34-.33H78a.33.33,0,0,1,.33.33v7.48A.34.34,0,0,1,78,168.5Zm-27.71-.67H77.7V161H50.33ZM78,158.22H50a.34.34,0,0,1-.34-.34V150.4a.34.34,0,0,1,.34-.34H78a.34.34,0,0,1,.33.34v7.48A.34.34,0,0,1,78,158.22Zm-27.71-.68H77.7v-6.8H50.33Z" transform="translate(-12.25 -78.82)"/><line class="cls-6" x1="79.34" y1="84.94" x2="120.8" y2="84.94"/><path class="cls-3" d="M139.08,163.75a29.91,29.91,0,0,0-8.54,4.76l1.72-4.76L130.54,159A30.12,30.12,0,0,0,139.08,163.75Z" transform="translate(-12.25 -78.82)"/><path class="cls-3" d="M140.44,158.43a11.27,11.27,0,0,1,2.23-.2,3.88,3.88,0,0,1,2.59.69,2,2,0,0,1,.79,1.66,2.27,2.27,0,0,1-1.6,2.08v0a2.44,2.44,0,0,1,2,2.37,2.57,2.57,0,0,1-.8,1.89,4.76,4.76,0,0,1-3.27.88,13.69,13.69,0,0,1-1.89-.11Zm1.22,3.86h1.11c1.29,0,2-.67,2-1.58,0-1.11-.84-1.54-2.07-1.54a5.54,5.54,0,0,0-1.08.08Zm0,4.53a6.93,6.93,0,0,0,1,.05c1.27,0,2.43-.46,2.43-1.83s-1.11-1.82-2.44-1.82h-1Z" transform="translate(-12.25 -78.82)"/><path class="cls-3" d="M151.74,167.74l-.09-.85h-.05a2.5,2.5,0,0,1-2.07,1,1.93,1.93,0,0,1-2.07-1.94c0-1.64,1.45-2.54,4.07-2.52v-.14a1.4,1.4,0,0,0-1.54-1.57,3.33,3.33,0,0,0-1.76.5l-.28-.81a4.14,4.14,0,0,1,2.22-.6c2.08,0,2.58,1.41,2.58,2.77v2.54a10,10,0,0,0,.11,1.62Zm-.18-3.46c-1.34,0-2.87.21-2.87,1.53a1.08,1.08,0,0,0,1.16,1.17,1.7,1.7,0,0,0,1.64-1.13,1.4,1.4,0,0,0,.07-.39Z" transform="translate(-12.25 -78.82)"/><path class="cls-3" d="M159.57,167.49a4.53,4.53,0,0,1-1.95.39,3.22,3.22,0,0,1-3.37-3.46,3.44,3.44,0,0,1,3.64-3.6,4.1,4.1,0,0,1,1.71.35l-.28,1a3,3,0,0,0-1.43-.32,2.56,2.56,0,0,0,0,5.1,3.4,3.4,0,0,0,1.51-.34Z" transform="translate(-12.25 -78.82)"/><path class="cls-3" d="M162.23,164.07h0c.16-.24.4-.53.6-.77l2-2.34h1.48l-2.62,2.79,3,4h-1.5l-2.34-3.25-.63.7v2.55H161v-10h1.22Z" transform="translate(-12.25 -78.82)"/><path class="cls-3" d="M173.3,165.89c0,.7,0,1.32.06,1.85h-1.09l-.07-1.11h0a2.54,2.54,0,0,1-2.24,1.26c-1.07,0-2.34-.58-2.34-3v-4h1.23v3.75c0,1.29.39,2.16,1.51,2.16a1.77,1.77,0,0,0,1.63-1.12,1.81,1.81,0,0,0,.11-.63V161h1.23Z" transform="translate(-12.25 -78.82)"/><path class="cls-3" d="M175.34,163.17c0-.86,0-1.57-.05-2.21h1.11l0,1.16h0a2.67,2.67,0,0,1,2.41-1.31c1.64,0,2.87,1.38,2.87,3.44,0,2.44-1.48,3.64-3.08,3.64a2.38,2.38,0,0,1-2.09-1.06h0v3.68h-1.22Zm1.22,1.81a2.54,2.54,0,0,0,.06.5,1.9,1.9,0,0,0,1.85,1.45c1.3,0,2.06-1.07,2.06-2.62,0-1.36-.72-2.52-2-2.52a2,2,0,0,0-1.86,1.52,2.18,2.18,0,0,0-.09.51Z" transform="translate(-12.25 -78.82)"/><path class="cls-3" d="M188.25,158.3h1.22v6.32c0,2.5-1.23,3.27-2.86,3.27a3.88,3.88,0,0,1-1.3-.22l.18-1a3.18,3.18,0,0,0,1,.18c1.09,0,1.73-.49,1.73-2.34Z" transform="translate(-12.25 -78.82)"/><path class="cls-3" d="M197.59,164.29a3.31,3.31,0,0,1-3.37,3.6,3.22,3.22,0,0,1-3.25-3.48,3.31,3.31,0,0,1,3.36-3.6A3.2,3.2,0,0,1,197.59,164.29Zm-5.37.07c0,1.49.85,2.61,2.05,2.61s2.06-1.11,2.06-2.63c0-1.15-.57-2.61-2-2.61S192.22,163.08,192.22,164.36Z" transform="translate(-12.25 -78.82)"/><path class="cls-3" d="M199.09,167.74c0-.46,0-1.15,0-1.75v-8.2h1.22v4.26h0a2.54,2.54,0,0,1,2.31-1.24c1.68,0,2.87,1.4,2.86,3.46,0,2.42-1.53,3.62-3,3.62a2.41,2.41,0,0,1-2.27-1.27h0l-.06,1.12Zm1.27-2.72a2.13,2.13,0,0,0,.06.45,1.89,1.89,0,0,0,1.85,1.44c1.29,0,2.06-1,2.06-2.6,0-1.36-.7-2.52-2-2.52a2,2,0,0,0-1.88,1.51,3.17,3.17,0,0,0-.07.5Z" transform="translate(-12.25 -78.82)"/><path class="cls-3" d="M863.56,101.94l2.92-4c.28-.37.54-.69.84-1v0h-3.49v-1h4.91v.77l-2.88,3.93c-.26.38-.53.72-.82,1.07v0h3.76v1h-5.23Z" transform="translate(-12.25 -78.82)"/><path class="cls-3" d="M869,103.21l3.71-10.15h.9l-3.72,10.15Z" transform="translate(-12.25 -78.82)"/><path class="cls-3" d="M882.26,97.84c0,3.25-1.88,5-4.16,5s-4-1.93-4-4.79,1.77-5,4.17-5S882.26,95,882.26,97.84Zm-7,.15c0,2,1,3.82,2.86,3.82S881,100,881,97.89c0-1.87-.93-3.84-2.86-3.84S875.3,95.92,875.3,98Z" transform="translate(-12.25 -78.82)"/><path class="cls-3" d="M883.61,101.17a3.87,3.87,0,0,0,2.07.62c1.19,0,1.88-.66,1.88-1.61s-.48-1.39-1.69-1.88c-1.47-.55-2.37-1.35-2.37-2.68a2.63,2.63,0,0,1,2.9-2.56,3.88,3.88,0,0,1,2,.46l-.32,1a3.39,3.39,0,0,0-1.7-.45c-1.22,0-1.69.77-1.69,1.41,0,.89.55,1.32,1.78,1.82,1.52.62,2.29,1.39,2.29,2.78s-1,2.71-3.14,2.71a4.44,4.44,0,0,1-2.29-.6Z" transform="translate(-12.25 -78.82)"/><path class="cls-3" d="M894.64,102.65l-2.93-9.44H893l1.4,4.65c.38,1.28.72,2.43,1,3.53h0c.26-1.09.63-2.28,1-3.51l1.51-4.67h1.24l-3.2,9.44Z" transform="translate(-12.25 -78.82)"/><path class="cls-3" d="M899.93,101.17a3.93,3.93,0,0,0,2.08.62c1.18,0,1.88-.66,1.88-1.61s-.48-1.39-1.69-1.88c-1.47-.55-2.37-1.35-2.37-2.68a2.63,2.63,0,0,1,2.9-2.56,3.88,3.88,0,0,1,2,.46l-.32,1a3.39,3.39,0,0,0-1.7-.45c-1.23,0-1.69.77-1.69,1.41,0,.89.54,1.32,1.78,1.82,1.52.62,2.29,1.39,2.29,2.78s-1,2.71-3.14,2.71a4.44,4.44,0,0,1-2.29-.6Z" transform="translate(-12.25 -78.82)"/><path class="cls-3" d="M907.81,93.21v9.44h-1.16V93.21Z" transform="translate(-12.25 -78.82)"/><path class="cls-3" d="M66.29,102.5c0,3.25-1.87,5-4.16,5s-4-1.93-4-4.79,1.77-5,4.16-5S66.29,99.7,66.29,102.5Zm-7,.15c0,2,1,3.83,2.87,3.83s2.87-1.78,2.87-3.92c0-1.88-.93-3.84-2.86-3.84S59.33,100.58,59.33,102.65Z" transform="translate(-12.25 -78.82)"/><path class="cls-3" d="M67.76,102.37c0-.7,0-1.27-.05-1.83h1l.07,1.12h0A2.35,2.35,0,0,1,71,100.39c.9,0,2.28.56,2.28,2.88v4H72.07v-3.91c0-1.09-.39-2-1.49-2A1.68,1.68,0,0,0,69,102.67a1.91,1.91,0,0,0-.08.57v4.08H67.76Z" transform="translate(-12.25 -78.82)"/><path class="cls-3" d="M77.86,103.08V104H74.57v-.91Z" transform="translate(-12.25 -78.82)"/><path class="cls-3" d="M79.23,102.75c0-.87,0-1.57,0-2.21h1l0,1.16h0a2.51,2.51,0,0,1,2.29-1.31c1.55,0,2.72,1.38,2.72,3.44,0,2.44-1.41,3.64-2.92,3.64a2.24,2.24,0,0,1-2-1.06h0v3.68H79.23Zm1.16,1.81a2.57,2.57,0,0,0,0,.5,1.83,1.83,0,0,0,1.76,1.45c1.23,0,2-1.07,2-2.62,0-1.36-.68-2.52-1.91-2.52a1.88,1.88,0,0,0-1.77,1.52,2.17,2.17,0,0,0-.08.51Z" transform="translate(-12.25 -78.82)"/><path class="cls-3" d="M86.8,102.65c0-.79,0-1.48,0-2.11h1l0,1.33h.06a1.94,1.94,0,0,1,1.78-1.48,1.11,1.11,0,0,1,.33,0v1.16a1.59,1.59,0,0,0-.4,0A1.69,1.69,0,0,0,88,103.13a4.83,4.83,0,0,0-.05.58v3.61H86.8Z" transform="translate(-12.25 -78.82)"/><path class="cls-3" d="M91.67,104.15a2.12,2.12,0,0,0,2.21,2.36,4.12,4.12,0,0,0,1.78-.35l.2.88a4.89,4.89,0,0,1-2.14.42c-2,0-3.17-1.37-3.17-3.42s1.15-3.65,3-3.65c2.11,0,2.67,1.94,2.67,3.19a5.55,5.55,0,0,1,0,.57Zm3.43-.88c0-.78-.3-2-1.62-2s-1.7,1.15-1.79,2Z" transform="translate(-12.25 -78.82)"/><path class="cls-3" d="M97.69,102.37c0-.7,0-1.27-.06-1.83h1l0,1.09h0a2.21,2.21,0,0,1,2-1.24,1.92,1.92,0,0,1,1.83,1.35h0a2.94,2.94,0,0,1,.72-.88,2.12,2.12,0,0,1,1.43-.47c.85,0,2.11.58,2.11,2.94v4h-1.14v-3.84c0-1.3-.46-2.09-1.4-2.09a1.52,1.52,0,0,0-1.38,1.12,2,2,0,0,0-.1.62v4.19h-1.14v-4.06c0-1.08-.45-1.87-1.34-1.87a1.63,1.63,0,0,0-1.46,1.24,1.93,1.93,0,0,0-.09.6v4.09H97.69Z" transform="translate(-12.25 -78.82)"/><path class="cls-3" d="M110.88,106.6l2.91-4c.28-.36.54-.68.84-1v0h-3.49v-1h4.91v.77l-2.88,3.94c-.26.37-.53.71-.82,1.06v0h3.76v1h-5.22Z" transform="translate(-12.25 -78.82)"/><path class="cls-3" d="M116.32,107.88,120,97.72h.91l-3.73,10.16Z" transform="translate(-12.25 -78.82)"/><path class="cls-3" d="M129.57,102.5c0,3.25-1.87,5-4.16,5s-4-1.93-4-4.79,1.76-5,4.16-5S129.57,99.7,129.57,102.5Zm-7,.15c0,2,1,3.83,2.86,3.83s2.88-1.78,2.88-3.92c0-1.88-.93-3.84-2.86-3.84S122.61,100.58,122.61,102.65Z" transform="translate(-12.25 -78.82)"/><path class="cls-3" d="M130.92,105.83a3.9,3.9,0,0,0,2.07.62c1.19,0,1.88-.66,1.88-1.61s-.48-1.39-1.69-1.88c-1.47-.54-2.37-1.34-2.37-2.67a2.64,2.64,0,0,1,2.9-2.57,3.87,3.87,0,0,1,2,.47l-.32,1a3.39,3.39,0,0,0-1.7-.45,1.48,1.48,0,0,0-1.69,1.42c0,.88.55,1.31,1.78,1.82,1.52.61,2.29,1.38,2.29,2.77s-1,2.72-3.14,2.72a4.54,4.54,0,0,1-2.29-.6Z" transform="translate(-12.25 -78.82)"/><path class="cls-3" d="M153,102.65" transform="translate(-12.25 -78.82)"/><path class="cls-3" d="M153,102.65" transform="translate(-12.25 -78.82)"/><circle class="cls-13" cx="163.31" cy="452.28" r="10.41"/><path class="cls-14" d="M174.39,527.89h0l-1.35.78-.21-.85,1.71-1h.9v8.24h-1Z" transform="translate(-12.25 -78.82)"/><circle class="cls-13" cx="477.41" cy="300.61" r="10.41"/><circle class="cls-13" cx="777.98" cy="448.04" r="10.41"/><path class="cls-14" d="M487.2,383.42v-.64L488,382c2-1.89,2.89-2.9,2.91-4.07a1.4,1.4,0,0,0-1.55-1.53,2.66,2.66,0,0,0-1.66.66l-.33-.74a3.41,3.41,0,0,1,2.21-.79,2.19,2.19,0,0,1,2.38,2.26c0,1.44-1,2.61-2.68,4.19l-.63.58v0h3.5v.87Z" transform="translate(-12.25 -78.82)"/><path class="cls-14" d="M787.94,528.65a3.57,3.57,0,0,0,1.73.49c1.35,0,1.77-.87,1.76-1.51,0-1.1-1-1.56-2-1.56h-.59v-.79h.59c.76,0,1.74-.4,1.74-1.32,0-.63-.4-1.18-1.37-1.18a2.83,2.83,0,0,0-1.56.52l-.28-.77a3.71,3.71,0,0,1,2-.6c1.54,0,2.23.91,2.23,1.86a1.93,1.93,0,0,1-1.44,1.83v0a2,2,0,0,1,1.74,2c0,1.25-1,2.34-2.84,2.34a4,4,0,0,1-2-.53Z" transform="translate(-12.25 -78.82)"/></svg>