<svg id="Layer_1" data-name="Layer 1" xmlns="http://www.w3.org/2000/svg" xmlns:xlink="http://www.w3.org/1999/xlink" viewBox="0 0 1022.65 679.51"><defs><style>.cls-1{fill:#fff;}.cls-2{fill:url(#linear-gradient);}.cls-3{font-size:14px;}.cls-19,.cls-21,.cls-27,.cls-3,.cls-34{fill:#231f20;}.cls-21,.cls-27,.cls-3,.cls-34{font-family:IBMPlexSans;}.cls-4{letter-spacing:0.03em;}.cls-5{letter-spacing:-0.03em;}.cls-21,.cls-6{letter-spacing:-0.01em;}.cls-7{letter-spacing:-0.01em;}.cls-8{letter-spacing:0.02em;}.cls-9{letter-spacing:0em;}.cls-10,.cls-18,.cls-20,.cls-26{fill:none;}.cls-11{letter-spacing:-0.03em;}.cls-12{letter-spacing:0.02em;}.cls-13{letter-spacing:0em;}.cls-14{letter-spacing:0.01em;}.cls-15{letter-spacing:0em;}.cls-16{letter-spacing:0.01em;}.cls-17{letter-spacing:-0.01em;}.cls-18,.cls-20,.cls-26{stroke:#231f20;stroke-miterlimit:10;}.cls-18{stroke-dasharray:5 5;}.cls-21,.cls-27{font-size:12px;}.cls-22{letter-spacing:0em;}.cls-23{letter-spacing:0em;}.cls-24{letter-spacing:-0.01em;}.cls-25{letter-spacing:0em;}.cls-26{stroke-dasharray:5;}.cls-28{letter-spacing:-0.01em;}.cls-29{letter-spacing:-0.01em;}.cls-30{letter-spacing:-0.01em;}.cls-31{letter-spacing:0em;}.cls-32{letter-spacing:0em;}.cls-33{letter-spacing:-0.01em;}.cls-34{font-size:36px;}.cls-35{letter-spacing:-0.02em;}.cls-36{letter-spacing:-0.04em;}.cls-37{letter-spacing:0.01em;}.cls-38{letter-spacing:-0.01em;}.cls-39{letter-spacing:0em;}.cls-40{letter-spacing:-0.04em;}.cls-41{letter-spacing:-0.06em;}.cls-42{letter-spacing:-0.01em;}.cls-43{letter-spacing:0.01em;}.cls-44{letter-spacing:0em;}.cls-45{letter-spacing:0em;}.cls-46{letter-spacing:-0.01em;}.cls-47{fill:#939598;}.cls-48{fill:#010101;}.cls-49{mask:url(#mask);}.cls-50{fill:url(#linear-gradient-2);}.cls-51{fill:#f4f4f4;}.cls-52{letter-spacing:-0.03em;}.cls-53{letter-spacing:0.02em;}.cls-54{letter-spacing:-0.03em;}.cls-55{letter-spacing:0em;}.cls-56{letter-spacing:-0.01em;}.cls-57{letter-spacing:-0.08em;}</style><linearGradient id="linear-gradient" x1="431.84" y1="172.71" x2="442.84" y2="172.71" gradientTransform="translate(43.81 116.09)" gradientUnits="userSpaceOnUse"><stop offset="0.1" stop-color="#010101"/><stop offset="0.89" stop-color="#010101" stop-opacity="0"/></linearGradient><mask id="mask" x="457.49" y="303.3" width="32" height="32" maskUnits="userSpaceOnUse"><g transform="translate(-14.17 35.51)"><circle id="node" class="cls-1" cx="478.66" cy="292.79" r="1"/><path id="storage" class="cls-1" d="M499.66,287.79h-2v2h2v6h-24v-6h10v-2h-10a2,2,0,0,0-2,2v6a2,2,0,0,0,2,2h24a2,2,0,0,0,2-2v-6A2,2,0,0,0,499.66,287.79Z"/><rect class="cls-2" x="475.66" y="286.79" width="11" height="4" transform="translate(962.31 577.59) rotate(180)"/></g></mask><linearGradient id="linear-gradient-2" x1="457.49" y1="335.3" x2="489.49" y2="303.3" gradientUnits="userSpaceOnUse"><stop offset="0.1" stop-color="#ad96c7"/><stop offset="0.9" stop-color="#5a80c1"/></linearGradient></defs><text x="-14.17" y="35.51"/><text x="-14.17" y="35.51"/><text x="-14.17" y="35.51"/><text class="cls-3" transform="translate(732.17 524.99)"><tspan class="cls-4">C</tspan><tspan class="cls-5" x="8.51" y="0">T</tspan><tspan x="15.09" y="0">C </tspan><tspan class="cls-6" x="26.18" y="0">r</tspan><tspan x="30.62" y="0">eposi</tspan><tspan class="cls-7" x="62.1" y="0">t</tspan><tspan x="66.65" y="0">o</tspan><tspan class="cls-8" x="74.34" y="0">r</tspan><tspan class="cls-9" x="79.27" y="0">y</tspan></text><path class="cls-10" d="M858.31,219.14H816.59c-6.76,0,1.41,5.1,1.41-1.2v-2.86c0-6.29-8.17-21.7-1.41-21.7h41.72" transform="translate(-14.17 35.51)"/><text x="-14.17" y="35.51"/><text class="cls-3" transform="translate(844.14 241.37)"><tspan class="cls-11">P</tspan><tspan x="7.08" y="0">a</tspan><tspan class="cls-12" x="13.83" y="0">r</tspan><tspan class="cls-9" x="18.75" y="0">tition d</tspan><tspan class="cls-13" x="60.89" y="0">a</tspan><tspan x="67.58" y="0">ta set</tspan></text><text x="-14.17" y="35.51"/><text class="cls-3" transform="translate(598.43 242.79) scale(1.07 1)"><tspan class="cls-14">S</tspan><tspan x="6.99" y="0">eque</tspan><tspan class="cls-15" x="36.61" y="0">n</tspan><tspan x="44.32" y="0">tial D</tspan><tspan class="cls-15" x="74.58" y="0">a</tspan><tspan x="81.27" y="0">ta </tspan><tspan class="cls-14" x="95.62" y="0">S</tspan><tspan x="102.6" y="0">et</tspan></text><text class="cls-3" transform="translate(713.65 360.62)">Cloud tape <tspan class="cls-7" x="67.02" y="0">c</tspan><tspan x="73.2" y="0">onne</tspan><tspan class="cls-16" x="103.44" y="0">c</tspan><tspan class="cls-17" x="109.9" y="0">t</tspan><tspan x="114.45" y="0">or</tspan></text><line class="cls-18" x1="740.51" y1="310.64" x2="661.87" y2="250.14"/><path class="cls-19" d="M671.25,210.94a30.37,30.37,0,0,0,9.68,1.45l-4.27,2.72-1.53,4.81A30.24,30.24,0,0,0,671.25,210.94Z" transform="translate(-14.17 35.51)"/><line class="cls-20" x1="689.7" y1="197.11" x2="732.58" y2="197.11"/><path class="cls-19" d="M752.78,161.6a29.91,29.91,0,0,0-8.54,4.76L746,161.6l-1.72-4.75A30.12,30.12,0,0,0,752.78,161.6Z" transform="translate(-14.17 35.51)"/><line class="cls-18" x1="522.3" y1="327.44" x2="733.53" y2="327.45"/><path class="cls-19" d="M753.73,291.93a30.28,30.28,0,0,0-8.54,4.76l1.72-4.76-1.72-4.75A30.26,30.26,0,0,0,753.73,291.93Z" transform="translate(-14.17 35.51)"/><text class="cls-21" transform="translate(597.46 316.35)">r<tspan class="cls-22" x="3.8" y="0">ead</tspan></text><text x="-14.17" y="35.51"/><text class="cls-3" transform="translate(586.46 414.94)"><tspan class="cls-23">R</tspan><tspan x="7.59" y="0">ebuild Job</tspan><tspan x="0" y="16.8"> </tspan><tspan class="cls-24" x="2.97" y="16.8">(</tspan><tspan class="cls-25" x="6.78" y="16.8">CUZRBLR)</tspan></text><rect class="cls-20" x="577.11" y="395.51" width="92.21" height="44.6" rx="12"/><path class="cls-10" d="M583.79,379.56" transform="translate(-14.17 35.51)"/><path class="cls-10" d="M520.33,334.07" transform="translate(-14.17 35.51)"/><line class="cls-18" x1="669.99" y1="440.7" x2="731.27" y2="470.75"/><path class="cls-19" d="M750.86,437.9a30,30,0,0,0-9.77.51l3.64-3.52.55-5A30.13,30.13,0,0,0,750.86,437.9Z" transform="translate(-14.17 35.51)"/><line class="cls-26" x1="535.31" y1="384.76" x2="535.31" y2="384.76"/><line class="cls-18" x1="506.16" y1="369.58" x2="571.78" y2="404.67"/><path class="cls-19" d="M591.27,372a30.2,30.2,0,0,0-9.78.16l3.76-3.38.72-5A30.22,30.22,0,0,0,591.27,372Z" transform="translate(-14.17 35.51)"/><text class="cls-27" transform="translate(493.39 403.58)">Dis<tspan class="cls-28" x="15.55" y="0">c</tspan><tspan class="cls-29" x="20.86" y="0">o</tspan><tspan class="cls-30" x="27.36" y="0">v</tspan><tspan x="33.01" y="0">er</tspan></text><text x="-14.17" y="35.51"/><text x="-14.17" y="35.51"/><text class="cls-27" transform="translate(654.48 468.58) scale(1.03 1)"><tspan class="cls-31">R</tspan><tspan x="6.5" y="0">ebuild</tspan></text><rect class="cls-20" x="565.16" y="124.61" width="386.16" height="460.4" rx="62.1"/><text x="-14.17" y="35.51"/><text x="-14.17" y="35.51"/><text x="-14.17" y="35.51"/><text x="-14.17" y="35.51"/><text x="-14.17" y="35.51"/><text x="-14.17" y="35.51"/><text x="-14.17" y="35.51"/><text class="cls-3" transform="translate(747.56 200.87)"><tspan class="cls-23">R</tspan><tspan x="7.59" y="0">es</tspan><tspan class="cls-7" x="20.15" y="0">t</tspan><tspan class="cls-32" x="24.7" y="0">o</tspan><tspan class="cls-33" x="32.38" y="0">r</tspan><tspan class="cls-32" x="36.82" y="0">e Job</tspan></text><text class="cls-34" transform="translate(4.37 85.54)"><tspan class="cls-35">B</tspan><tspan class="cls-36" x="18.97" y="0">Y</tspan><tspan x="37.15" y="0">OD </tspan><tspan class="cls-37" x="93.56" y="0">S</tspan><tspan class="cls-38" x="111.53" y="0">c</tspan><tspan x="127.44" y="0">ena</tspan><tspan class="cls-39" x="182.81" y="0">r</tspan><tspan x="194.72" y="0">io </tspan><tspan class="cls-38" x="230.54" y="0">U</tspan><tspan x="253.62" y="0">sing Cloud</tspan><tspan class="cls-40" x="413.31" y="0"> </tspan><tspan class="cls-41" x="419.47" y="0">T</tspan><tspan x="435.05" y="0">ape </tspan><tspan class="cls-42" x="498.56" y="0">C</tspan><tspan x="519.04" y="0">onne</tspan><tspan class="cls-43" x="596.8" y="0">c</tspan><tspan class="cls-38" x="613.39" y="0">t</tspan><tspan x="625.09" y="0">or</tspan></text><text x="-14.17" y="35.51"/><text class="cls-3" transform="translate(421.15 361.67)">cloud obje<tspan class="cls-16" x="61.91" y="0">c</tspan><tspan x="68.36" y="0">t s</tspan><tspan class="cls-7" x="81.51" y="0">t</tspan><tspan x="86.06" y="0">o</tspan><tspan class="cls-44" x="93.74" y="0">r</tspan><tspan class="cls-25" x="98.25" y="0">age</tspan></text><text x="-14.17" y="35.51"/><text class="cls-3" transform="translate(124.15 524.99)"><tspan class="cls-4">C</tspan><tspan class="cls-5" x="8.51" y="0">T</tspan><tspan x="15.09" y="0">C </tspan><tspan class="cls-6" x="26.18" y="0">r</tspan><tspan x="30.62" y="0">eposi</tspan><tspan class="cls-7" x="62.1" y="0">t</tspan><tspan x="66.65" y="0">o</tspan><tspan class="cls-8" x="74.34" y="0">r</tspan><tspan class="cls-9" x="79.27" y="0">y</tspan></text><text class="cls-3" transform="translate(100.66 360.62)">Cloud tape <tspan class="cls-7" x="67.02" y="0">c</tspan><tspan x="73.2" y="0">onne</tspan><tspan class="cls-16" x="103.44" y="0">c</tspan><tspan class="cls-17" x="109.9" y="0">t</tspan><tspan x="114.45" y="0">or</tspan></text><text x="-14.17" y="35.51"/><line class="cls-10" x1="132.41" y1="237.23" x2="138.57" y2="221.9"/><line class="cls-10" x1="141.7" y1="198.07" x2="148.34" y2="198.07"/><line class="cls-20" x1="196.46" y1="198.07" x2="237.92" y2="198.07"/><path class="cls-19" d="M258.12,162.56a29.91,29.91,0,0,0-8.54,4.76l1.72-4.76-1.72-4.75A30.12,30.12,0,0,0,258.12,162.56Z" transform="translate(-14.17 35.51)"/><text class="cls-3" transform="translate(224.79 241.37) scale(1.07 1)"><tspan class="cls-14">S</tspan><tspan x="6.99" y="0">eque</tspan><tspan class="cls-15" x="36.61" y="0">n</tspan><tspan x="44.32" y="0">tial D</tspan><tspan class="cls-15" x="74.58" y="0">a</tspan><tspan x="81.27" y="0">ta </tspan><tspan class="cls-14" x="95.62" y="0">S</tspan><tspan x="102.6" y="0">et</tspan></text><line class="cls-18" x1="265.74" y1="247.05" x2="188.51" y2="310.13"/><path class="cls-19" d="M198,278.43a30.31,30.31,0,0,0,3.61-9.09l1.68,4.77,4.34,2.6A30.33,30.33,0,0,0,198,278.43Z" transform="translate(-14.17 35.51)"/><line class="cls-18" x1="205.2" y1="329.64" x2="422.24" y2="329.64"/><path class="cls-19" d="M442.44,294.13a30.12,30.12,0,0,0-8.54,4.75l1.72-4.75-1.72-4.76A30.15,30.15,0,0,0,442.44,294.13Z" transform="translate(-14.17 35.51)"/><text class="cls-27" transform="translate(310.38 317.91)">w<tspan class="cls-45" x="8.83" y="0">r</tspan><tspan x="12.8" y="0">i</tspan><tspan class="cls-46" x="15.61" y="0">t</tspan><tspan x="19.51" y="0">e</tspan></text><rect class="cls-20" x="9.93" y="118.54" width="355.62" height="460.4" rx="62.1"/><text x="-14.17" y="35.51"/><text x="-14.17" y="35.51"/><text x="-14.17" y="35.51"/><text x="-14.17" y="35.51"/><text x="-14.17" y="35.51"/><text x="-14.17" y="35.51"/><text x="-14.17" y="35.51"/><text x="-14.17" y="35.51"/><circle class="cls-47" cx="159.29" cy="321.58" r="24.76"/><path id="tape--storage" class="cls-48" d="M173.56,301.75a15.36,15.36,0,1,1,15.36-15.36A15.38,15.38,0,0,1,173.56,301.75Zm0-30a14.64,14.64,0,1,0,14.64,14.64A14.65,14.65,0,0,0,173.56,271.75Zm4.66,26.06a.31.31,0,0,1-.13,0,.34.34,0,0,1-.2-.19l-2.33-5.53a.36.36,0,0,1,.19-.47,5.69,5.69,0,0,0,3-3,.34.34,0,0,1,.2-.19.32.32,0,0,1,.27,0l5.54,2.31a.34.34,0,0,1,.19.2.32.32,0,0,1,0,.27,12.48,12.48,0,0,1-6.6,6.63A.32.32,0,0,1,178.22,297.81Zm-1.86-5.71,2,4.87a11.78,11.78,0,0,0,5.75-5.77l-4.88-2A6.45,6.45,0,0,1,176.36,292.1Zm-2.8-1.35a4.36,4.36,0,1,1,4.36-4.36A4.36,4.36,0,0,1,173.56,290.75Zm0-8a3.64,3.64,0,1,0,3.64,3.64A3.65,3.65,0,0,0,173.56,282.75Zm0,6a2.36,2.36,0,1,1,2.36-2.36A2.36,2.36,0,0,1,173.56,288.75Zm0-4a1.64,1.64,0,1,0,1.64,1.64A1.64,1.64,0,0,0,173.56,284.75Zm-5.54-.3a.32.32,0,0,1-.14,0l-5.54-2.31a.34.34,0,0,1-.19-.2.32.32,0,0,1,0-.27,12.48,12.48,0,0,1,6.6-6.63.34.34,0,0,1,.28,0,.35.35,0,0,1,.19.19l2.33,5.53a.35.35,0,0,1-.19.47,5.69,5.69,0,0,0-3,3,.34.34,0,0,1-.2.19A.31.31,0,0,1,168,284.45ZM163,281.59l4.87,2a6.45,6.45,0,0,1,2.93-2.93l-2.06-4.87A11.76,11.76,0,0,0,163,281.59Z" transform="translate(-14.17 35.51)"/><text x="-14.17" y="35.51"/><circle cx="473.94" cy="320.3" r="24.76"/><g class="cls-49"><rect class="cls-50" x="457.49" y="303.3" width="32" height="32"/></g><path id="data" class="cls-51" d="M489.66,277.79h-8v-8h8Zm-6-2h4v-4h-4Z" transform="translate(-14.17 35.51)"/><path class="cls-51" d="M493.66,281.79h-6v8h8v-6h6v-8h-8Zm0,6h-4v-4h4Zm6-10v4h-4v-4Z" transform="translate(-14.17 35.51)"/><text x="-14.17" y="35.51"/><text x="-14.17" y="35.51"/><circle class="cls-47" cx="161.03" cy="476.41" r="24.76"/><line class="cls-26" x1="160.82" y1="365.19" x2="161.96" y2="451.13"/><path id="archive" class="cls-48" d="M187.27,455.26H163.84a1.33,1.33,0,0,1-1.33-1.33V433.77h-1.6a.34.34,0,0,1-.35-.35v-7.81a.35.35,0,0,1,.35-.35H190.2a.36.36,0,0,1,.36.35v7.81a.35.35,0,0,1-.36.35h-1.6v20.16A1.33,1.33,0,0,1,187.27,455.26Zm-24.06-21.49v20.16a.63.63,0,0,0,.63.63h23.43a.63.63,0,0,0,.63-.63V433.77Zm25-.7h1.6V426H161.26v7.11Zm-9.76,7.54h-5.86a2.31,2.31,0,1,1,0-4.61h5.86a2.31,2.31,0,0,1,0,4.61Zm-5.86-3.91a1.61,1.61,0,1,0,0,3.21h5.86a1.61,1.61,0,0,0,0-3.21Z" transform="translate(-14.17 35.51)"/><text x="-14.17" y="35.51"/><line class="cls-26" x1="768.16" y1="371.97" x2="769.3" y2="457.91"/><circle class="cls-47" cx="769.69" cy="487.94" r="24.76"/><path id="archive-2" data-name="archive" class="cls-48" d="M795.94,466.79H772.5a1.34,1.34,0,0,1-1.33-1.33V445.3h-1.6a.35.35,0,0,1-.35-.35v-7.81a.35.35,0,0,1,.35-.35h29.3a.35.35,0,0,1,.35.35V445a.35.35,0,0,1-.35.35h-1.6v20.16A1.34,1.34,0,0,1,795.94,466.79ZM771.88,445.3v20.16a.62.62,0,0,0,.62.62h23.44a.62.62,0,0,0,.62-.62V445.3Zm25-.7h1.61v-7.11h-28.6v7.11Zm-9.76,7.54h-5.86a2.31,2.31,0,1,1,0-4.61h5.86a2.31,2.31,0,0,1,0,4.61Zm-5.86-3.91a1.61,1.61,0,0,0,0,3.21h5.86a1.61,1.61,0,0,0,0-3.21Z" transform="translate(-14.17 35.51)"/><circle class="cls-47" cx="772.32" cy="320.27" r="24.76"/><path id="tape--storage-2" data-name="tape--storage" class="cls-48" d="M786.59,300.44A15.36,15.36,0,1,1,802,285.08,15.38,15.38,0,0,1,786.59,300.44Zm0-30a14.64,14.64,0,1,0,14.64,14.64A14.65,14.65,0,0,0,786.59,270.44Zm4.66,26.05-.13,0a.39.39,0,0,1-.2-.2l-2.33-5.53a.36.36,0,0,1,.19-.47,5.65,5.65,0,0,0,3-3,.34.34,0,0,1,.2-.19.32.32,0,0,1,.27,0l5.54,2.31a.34.34,0,0,1,.19.2.32.32,0,0,1,0,.27,12.45,12.45,0,0,1-6.6,6.63A.32.32,0,0,1,791.25,296.49Zm-1.86-5.7,2.05,4.86a11.8,11.8,0,0,0,5.75-5.76l-4.88-2A6.49,6.49,0,0,1,789.39,290.79Zm-2.8-1.35a4.36,4.36,0,1,1,4.36-4.36A4.36,4.36,0,0,1,786.59,289.44Zm0-8a3.64,3.64,0,1,0,3.64,3.64A3.64,3.64,0,0,0,786.59,281.44Zm0,6a2.36,2.36,0,1,1,2.36-2.36A2.36,2.36,0,0,1,786.59,287.44Zm0-4a1.64,1.64,0,1,0,1.64,1.64A1.63,1.63,0,0,0,786.59,283.44Zm-5.54-.31a.32.32,0,0,1-.14,0l-5.54-2.31a.35.35,0,0,1-.19-.19.34.34,0,0,1,0-.28,12.48,12.48,0,0,1,6.6-6.63.32.32,0,0,1,.27,0,.34.34,0,0,1,.2.19l2.33,5.53a.35.35,0,0,1-.19.47,5.69,5.69,0,0,0-3,3,.39.39,0,0,1-.2.2ZM776,280.27l4.87,2a6.45,6.45,0,0,1,2.92-2.94l-2-4.87A11.76,11.76,0,0,0,776,280.27Z" transform="translate(-14.17 35.51)"/><text x="-14.17" y="35.51"/><text class="cls-3" transform="translate(16.64 241.37) scale(1.07 1)"><tspan class="cls-52">P</tspan><tspan x="7.08" y="0">a</tspan><tspan class="cls-53" x="13.83" y="0">r</tspan><tspan x="18.75" y="0">tition D</tspan><tspan class="cls-15" x="62.31" y="0">a</tspan><tspan x="69.01" y="0">ta set</tspan></text><circle class="cls-47" cx="656.11" cy="195.89" r="24.76"/><path id="data--backup" class="cls-48" d="M666.64,150.6h-6.5v-.72h6.5Zm0,8.28h-6.5v.72h6.5Zm-6.5,9.72h6.5v-.72h-6.5Zm23.36-18.36v9a.36.36,0,0,1-.36.36H679.5v2.64a.36.36,0,0,1-.36.36h-20a.36.36,0,0,1-.36-.36V159.6H655.5v8.28h3.28v-2.64a.36.36,0,0,1,.36-.36h20a.36.36,0,0,1,.36.36v6a.36.36,0,0,1-.36.36h-20a.36.36,0,0,1-.36-.36V168.6h-3.64a.36.36,0,0,1-.36-.36v-9a.36.36,0,0,1,.36-.36h3.64v-2.64a.36.36,0,0,1,.36-.36h20a.36.36,0,0,1,.36.36v2.64h3.28V150.6H679.5v2.64a.36.36,0,0,1-.36.36h-20a.36.36,0,0,1-.36-.36v-6a.36.36,0,0,1,.36-.36h20a.36.36,0,0,1,.36.36v2.64h3.64A.36.36,0,0,1,683.5,150.24Zm-4.72-2.64H659.5v5.28h19.28ZM659.5,170.88h19.28V165.6H659.5Zm19.28-14.28H659.5v5.28h19.28Zm-1.64-6.36a.5.5,0,1,0-.5.5A.5.5,0,0,0,677.14,150.24Zm0,9a.5.5,0,1,0-.5.5A.5.5,0,0,0,677.14,159.24Zm0,9a.5.5,0,1,0-.5.5A.5.5,0,0,0,677.14,168.24Z" transform="translate(-14.17 35.51)"/><circle class="cls-47" cx="272.63" cy="198.07" r="24.76"/><path id="data--backup-2" data-name="data--backup" class="cls-48" d="M283.29,152.6h-6.5v-.72h6.5Zm0,8.28h-6.5v.72h6.5Zm-6.5,9.72h6.5v-.72h-6.5Zm23.36-18.36v9a.36.36,0,0,1-.36.36h-3.64v2.64a.36.36,0,0,1-.36.36h-20a.36.36,0,0,1-.36-.36V161.6h-3.28v8.28h3.28v-2.64a.36.36,0,0,1,.36-.36h20a.36.36,0,0,1,.36.36v6a.36.36,0,0,1-.36.36h-20a.36.36,0,0,1-.36-.36V170.6h-3.64a.36.36,0,0,1-.36-.36v-9a.36.36,0,0,1,.36-.36h3.64v-2.64a.36.36,0,0,1,.36-.36h20a.36.36,0,0,1,.36.36v2.64h3.28V152.6h-3.28v2.64a.36.36,0,0,1-.36.36h-20a.36.36,0,0,1-.36-.36v-6a.36.36,0,0,1,.36-.36h20a.36.36,0,0,1,.36.36v2.64h3.64A.36.36,0,0,1,300.15,152.24Zm-4.72-2.64H276.15v5.28h19.28Zm-19.28,23.28h19.28V167.6H276.15Zm19.28-14.28H276.15v5.28h19.28Zm-1.64-6.36a.5.5,0,0,0-.5-.5.5.5,0,0,0,0,1A.5.5,0,0,0,293.79,152.24Zm0,9a.5.5,0,0,0-.5-.5.5.5,0,0,0,0,1A.5.5,0,0,0,293.79,161.24Zm0,9a.5.5,0,0,0-.5-.5.5.5,0,0,0,0,1A.5.5,0,0,0,293.79,170.24Z" transform="translate(-14.17 35.51)"/><circle class="cls-47" cx="900.36" cy="196.96" r="24.76"/><text x="-14.17" y="35.51"/><path id="hard--drive" class="cls-48" d="M924.21,152.77a.94.94,0,1,1,.93-.93A.94.94,0,0,1,924.21,152.77Zm.93,9.35a.94.94,0,0,0-1.87,0,.94.94,0,1,0,1.87,0Zm0,10.29a.94.94,0,1,0-.93.93A.93.93,0,0,0,925.14,172.41Zm3.74,4.07h-28a.34.34,0,0,1-.34-.33v-7.48a.34.34,0,0,1,.34-.34h28a.34.34,0,0,1,.34.34v7.48A.34.34,0,0,1,928.88,176.48Zm-27.71-.67h27.38V169H901.17Zm27.71-9.61h-28a.34.34,0,0,1-.34-.34v-7.48a.34.34,0,0,1,.34-.33h28a.34.34,0,0,1,.34.33v7.48A.34.34,0,0,1,928.88,166.2Zm-27.71-.68h27.38v-6.8H901.17Zm27.71-9.61h-28a.34.34,0,0,1-.34-.33V148.1a.34.34,0,0,1,.34-.34h28a.34.34,0,0,1,.34.34v7.48A.34.34,0,0,1,928.88,155.91Zm-27.71-.67h27.38v-6.81H901.17Z" transform="translate(-14.17 35.51)"/><line class="cls-20" x1="821.94" y1="195.89" x2="864.82" y2="195.89"/><path class="cls-19" d="M885,160.38a29.91,29.91,0,0,0-8.54,4.76l1.72-4.76-1.72-4.75A30.12,30.12,0,0,0,885,160.38Z" transform="translate(-14.17 35.51)"/><circle class="cls-47" cx="49.51" cy="199.26" r="24.76"/><text x="-14.17" y="35.51"/><path id="hard--drive-2" data-name="hard--drive" class="cls-48" d="M73.36,155.07a.94.94,0,0,1,0-1.87.94.94,0,1,1,0,1.87Zm.94,9.35a.94.94,0,1,0-.94.94A.94.94,0,0,0,74.3,164.42Zm0,10.29a.94.94,0,1,0-.94.93A.94.94,0,0,0,74.3,174.71ZM78,178.78H50a.34.34,0,0,1-.34-.33V171a.34.34,0,0,1,.34-.34H78a.34.34,0,0,1,.33.34v7.48A.33.33,0,0,1,78,178.78Zm-27.71-.67H77.7V171.3H50.33ZM78,168.5H50a.34.34,0,0,1-.34-.34v-7.48a.34.34,0,0,1,.34-.33H78a.33.33,0,0,1,.33.33v7.48A.34.34,0,0,1,78,168.5Zm-27.71-.67H77.7V161H50.33ZM78,158.22H50a.34.34,0,0,1-.34-.34V150.4a.34.34,0,0,1,.34-.34H78a.34.34,0,0,1,.33.34v7.48A.34.34,0,0,1,78,158.22Zm-27.71-.68H77.7v-6.8H50.33Z" transform="translate(-14.17 35.51)"/><line class="cls-20" x1="77.42" y1="199.26" x2="118.88" y2="199.26"/><path class="cls-19" d="M139.08,163.75a29.91,29.91,0,0,0-8.54,4.76l1.72-4.76L130.54,159A30.12,30.12,0,0,0,139.08,163.75Z" transform="translate(-14.17 35.51)"/><text class="cls-3" transform="translate(129.94 204.01)">Bac<tspan class="cls-23" x="20.61" y="0">k</tspan><tspan x="27.23" y="0">up Job</tspan></text><text x="-14.17" y="35.51"/><text class="cls-3" transform="translate(740.81 142.83) scale(0.95 1)">VSI - z/OS running under zP<tspan class="cls-54" x="159.65" y="0">D</tspan><tspan class="cls-55" x="168.63" y="0">T</tspan></text><text class="cls-3" transform="translate(43.45 142.83) scale(0.95 1)">On-p<tspan class="cls-56" x="29.68" y="0">r</tspan><tspan x="34.12" y="0">em L</tspan><tspan class="cls-57" x="62.38" y="0">P</tspan><tspan x="68.66" y="0">AR z/OS</tspan></text></svg>