<svg xmlns="http://www.w3.org/2000/svg" width="1056" height="775" viewBox="0 0 1056 775">
    <defs>
        <style>.cls-1{fill:#f2f4f8;}.cls-1,.cls-11,.cls-2,.cls-3,.cls-4,.cls-5,.cls-6,.cls-7{stroke:#000;}.cls-1,.cls-14,.cls-2,.cls-3,.cls-4,.cls-5,.cls-6,.cls-7{stroke-linejoin:round;}.cls-2{fill:#dbfbfb;}.cls-3{fill:#fff;}.cls-4{fill:#e3f6ff;}.cls-5{fill:#f7f1ff;}.cls-6{fill:#87eded;}.cls-7,.cls-8{fill:#b3e6ff;}.cls-10,.cls-11,.cls-12,.cls-14,.cls-9{fill:none;}.cls-10,.cls-9{stroke:#9fa5ad;}.cls-10,.cls-11,.cls-12,.cls-9{stroke-miterlimit:10;}.cls-10{stroke-dasharray:1.9896 1.9896;}.cls-11,.cls-12,.cls-14{stroke-width:2px;}.cls-12,.cls-14{stroke:#50565b;}.cls-13{fill:#50565b;}.cls-15{font-size:18px;}.cls-15,.cls-17{font-family:IBMPlexSans-SemiBold, IBM Plex Sans;font-weight:600;}.cls-16,.cls-17{font-size:16px;}.cls-16,.cls-18{font-family:IBMPlexSans, IBM Plex Sans;}.cls-18{font-size:16.4965px;}</style>
    </defs>
    <g id="Figure">
        <rect class="cls-1" x="39.9575" y="181.7525" width="687.3548" height="351.9256" />
        <rect class="cls-2" x="58.5161" y="601.0389" width="343.6774" height="75.609" />
        <rect class="cls-1" x="793.2984" y="181.0652" width="225.4524" height="353.3003" />
        <rect class="cls-3" x="60.2345" y="205.81" width="646.1135" height="285.9396" />
        <rect class="cls-3" x="813.919" y="205.81" width="184.2111" height="285.9396" />
        <rect class="cls-4" x="84.6356" y="233.3041" width="164.9651" height="206.2064" />
        <rect class="cls-5" x="84.6356" y="78.6493" width="164.9651" height="61.8619" />
        <rect class="cls-5" x="300.465" y="78.6493" width="164.9651" height="61.8619" />
        <rect class="cls-5" x="514.9197" y="78.6493" width="164.9651" height="61.8619" />
        <rect class="cls-4" x="300.8087" y="233.3041" width="164.9651" height="206.2064" />
        <rect class="cls-4" x="516.2944" y="233.3041" width="164.9651" height="206.2064" />
        <rect class="cls-4" x="837.9764" y="233.3041" width="21.9954" height="206.2064" />
        <rect class="cls-4" x="897.0889" y="233.3041" width="21.9954" height="206.2064" />
        <rect class="cls-4" x="954.8267" y="233.3041" width="21.9954" height="206.2064" />
        <rect class="cls-1" x="39.2702" y="702.7675" width="978.7932" height="45.3654" />
        <rect class="cls-2" x="48.8932" y="591.416" width="343.6774" height="75.609" />
        <rect class="cls-2" x="39.2702" y="581.793" width="343.6774" height="75.609" />
        <rect class="cls-2" x="674.386" y="601.0389" width="343.6774" height="75.609" />
        <rect class="cls-2" x="664.763" y="591.416" width="343.6774" height="75.609" />
        <rect class="cls-2" x="655.1401" y="581.793" width="343.6774" height="75.609" />
        <rect class="cls-6" x="54.392" y="595.5401" width="140.2204" height="27.4942" />
        <rect class="cls-6" x="228.9801" y="595.5401" width="140.2204" height="27.4942" />
        <rect class="cls-6" x="670.2619" y="595.5401" width="140.2204" height="27.4942" />
        <rect class="cls-6" x="844.85" y="595.5401" width="140.2204" height="27.4942" />
        <g id="Keystore">
            <path class="cls-7" d="M104.9386,363.0355c0,7.3409,27.7,13.2934,61.8652,13.2934s61.8554-5.9525,61.8554-13.2934" />
            <polyline class="cls-7" points="104.943 363.902 104.943 270.41 104.943 270.023 104.992 270.023" />
            <polyline class="cls-7" points="228.617 270.023 228.654 270.023 228.654 270.269 228.654 270.563 228.654 363.902" />
            <rect class="cls-8" x="105.6259" y="269.7339" width="122.3491" height="93.4802" />
            <ellipse class="cls-7" cx="166.8021" cy="270.4776" rx="61.8603" ry="13.2889" />
        </g>
        <g id="Keystore-2" data-name="Keystore">
            <path class="cls-7" d="M322.1427,363.0355c0,7.3409,27.7,13.2934,61.8652,13.2934s61.8554-5.9525,61.8554-13.2934" />
            <polyline class="cls-7" points="322.147 363.902 322.147 270.41 322.147 270.023 322.197 270.023" />
            <polyline class="cls-7" points="445.821 270.023 445.859 270.023 445.859 270.269 445.859 270.563 445.859 363.902" />
            <rect class="cls-8" x="322.83" y="269.7339" width="122.3491" height="93.4802" />
            <ellipse class="cls-7" cx="384.0062" cy="270.4776" rx="61.8603" ry="13.2889" />
        </g>
        <g id="Keystore-3" data-name="Keystore">
            <path class="cls-7" d="M536.5974,363.0355c0,7.3409,27.7,13.2934,61.8652,13.2934s61.8554-5.9525,61.8554-13.2934" />
            <polyline class="cls-7" points="536.602 363.902 536.602 270.41 536.602 270.023 536.651 270.023" />
            <polyline class="cls-7" points="660.276 270.023 660.313 270.023 660.313 270.269 660.313 270.563 660.313 363.902" />
            <rect class="cls-8" x="537.2847" y="269.7339" width="122.3491" height="93.4802" />
            <ellipse class="cls-7" cx="598.4609" cy="270.4776" rx="61.8603" ry="13.2889" />
        </g>
    </g>
    <g id="Line">
        <line class="cls-9" x1="276.4076" y1="221.2754" x2="276.4076" y2="222.2754" />
        <line class="cls-10" x1="276.4076" y1="224.2651" x2="276.4076" y2="446.1077" />
        <line class="cls-9" x1="276.4076" y1="447.1025" x2="276.4076" y2="448.1025" />
        <line class="cls-9" x1="490.8623" y1="221.2754" x2="490.8623" y2="222.2754" />
        <line class="cls-10" x1="490.8623" y1="224.2651" x2="490.8623" y2="446.1077" />
        <line class="cls-9" x1="490.8623" y1="447.1025" x2="490.8623" y2="448.1025" />
        <line class="cls-9" x1="878.5303" y1="221.2754" x2="878.5303" y2="222.2754" />
        <line class="cls-10" x1="878.5303" y1="224.2651" x2="878.5303" y2="446.1077" />
        <line class="cls-9" x1="878.5303" y1="447.1025" x2="878.5303" y2="448.1025" />
        <line class="cls-9" x1="936.2682" y1="221.2754" x2="936.2682" y2="222.2754" />
        <line class="cls-10" x1="936.2682" y1="224.2651" x2="936.2682" y2="446.1077" />
        <line class="cls-9" x1="936.2682" y1="447.1025" x2="936.2682" y2="448.1025" />
        <line class="cls-11" x1="760.9927" y1="161.1319" x2="760.9927" y2="554.2988" />
        <line class="cls-12" x1="84.6356" y1="543.5433" x2="84.6356" y2="576.2942" />
        <polygon class="cls-13" points="80.647 544.71 84.636 537.802 88.625 544.71 80.647 544.71" />
        <line class="cls-12" x1="211.7962" y1="544.2306" x2="211.7962" y2="576.9815" />
        <polygon class="cls-13" points="207.807 545.398 211.796 538.49 215.785 545.398 207.807 545.398" />
        <line class="cls-12" x1="345.1431" y1="544.2306" x2="345.1431" y2="576.9815" />
        <polygon class="cls-13" points="341.154 545.398 345.143 538.49 349.132 545.398 341.154 545.398" />
        <line class="cls-14" x1="849.6614" y1="544.2306" x2="849.6614" y2="576.9815" />
        <polygon class="cls-13" points="845.672 545.398 849.661 538.49 853.651 545.398 845.672 545.398" />
        <line class="cls-14" x1="908.774" y1="544.2306" x2="908.774" y2="576.9815" />
        <polygon class="cls-13" points="904.785 545.398 908.774 538.49 912.763 545.398 904.785 545.398" />
        <line class="cls-14" x1="966.5118" y1="544.2306" x2="966.5118" y2="576.9815" />
        <polygon class="cls-13" points="962.523 545.398 966.512 538.49 970.501 545.398 962.523 545.398" />
        <line class="cls-12" x1="166.4308" y1="146.6974" x2="166.4308" y2="223.439" />
        <polygon class="cls-13" points="162.442 222.272 166.431 229.18 170.42 222.272 162.442 222.272" />
        <line class="cls-12" x1="383.6349" y1="146.6974" x2="383.6349" y2="223.439" />
        <polygon class="cls-13" points="379.646 222.272 383.635 229.18 387.624 222.272 379.646 222.272" />
        <line class="cls-12" x1="598.0896" y1="146.6974" x2="598.0896" y2="223.439" />
        <polygon class="cls-13" points="594.101 222.272 598.09 229.18 602.079 222.272 594.101 222.272" />
    </g>
    <g id="Text">
        <text class="cls-15" transform="translate(34.1382 43.3331)">Hyper Protect Crypto Services workload isolation</text>
        <text class="cls-16" transform="translate(130.2661 318.1202)">
            Dedicated
            <tspan x="3.8159" y="19.2002">KeyStore</tspan>
        </text>
        <text class="cls-16" transform="translate(347.2251 318.1202)">
            Dedicated
            <tspan x="3.8159" y="19.2002">KeyStore</tspan>
        </text>
        <text class="cls-16" transform="translate(560.3047 318.1202)">
            Dedicated
            <tspan x="3.8154" y="19.2002">KeyStore</tspan>
        </text>
        <text class="cls-17" transform="translate(115.957 403.4484)">
            Hyper Protect
            <tspan x="-6.5435" y="19.2002">Crypto Services</tspan>
        </text>
        <text class="cls-17" transform="translate(331.7861 403.4484)">
            Hyper Protect
            <tspan x="-6.5435" y="19.2002">Crypto Services</tspan>
        </text>
        <text class="cls-17" transform="translate(546.2393 403.4484)">
            Hyper Protect
            <tspan x="-6.5439" y="19.2002">Crypto Services</tspan>
        </text>
        <text class="cls-17" transform="translate(387.6152 730.2443)">IBM zSystems/LinuxONE platform</text>
        <text class="cls-17" transform="translate(231.416 469.9093)">Isolated Container Runtime Environment</text>
        <text class="cls-17" transform="translate(290.0391 519.3976)">Secure Service Container</text>
        <text class="cls-16" transform="translate(82.7637 615.0109)">Domain 00</text>
        <text class="cls-16" transform="translate(257.3521 615.0109)">Domain 84</text>
        <text class="cls-18" transform="translate(205.3896 611.4835)">...</text>
        <text class="cls-16" transform="translate(698.6328 615.0109)">Domain 00</text>
        <text class="cls-16" transform="translate(873.2217 615.0109)">Domain 84</text>
        <text class="cls-18" transform="translate(821.2588 611.4835)">...</text>
        <text class="cls-17" transform="translate(111.6768 646.4191)">HSM Card (Crypto Express)</text>
        <text class="cls-17" transform="translate(727.5459 646.4191)">HSM Card (Crypto Express)</text>
        <text class="cls-16" transform="translate(144.3823 114.3951)">App A</text>
        <text class="cls-16" transform="translate(361.5854 114.3951)">App B</text>
        <text class="cls-16" transform="translate(574.665 114.3951)">App C</text>
    </g>
</svg>