<svg xmlns="http://www.w3.org/2000/svg" viewBox="0 0 750 550"><defs><style>.cls-1{fill:#f2f4f8;}.cls-1,.cls-11,.cls-2,.cls-3,.cls-4,.cls-5,.cls-6,.cls-7{stroke:#000;}.cls-1,.cls-14,.cls-2,.cls-3,.cls-4,.cls-5,.cls-6,.cls-7{stroke-linejoin:round;}.cls-2{fill:#dbfbfb;}.cls-3{fill:#fff;}.cls-4{fill:#e3f6ff;}.cls-5{fill:#f7f1ff;}.cls-6{fill:#87eded;}.cls-7,.cls-8{fill:#b3e6ff;}.cls-10,.cls-11,.cls-12,.cls-14,.cls-9{fill:none;}.cls-10,.cls-9{stroke:#9fa5ad;}.cls-10,.cls-11,.cls-12,.cls-9{stroke-miterlimit:10;}.cls-10{stroke-dasharray:2.01 2.01;}.cls-11,.cls-12,.cls-14{stroke-width:2px;}.cls-12,.cls-14{stroke:#50565b;}.cls-13{fill:#50565b;}.cls-15{font-size:14px;}.cls-15,.cls-31{font-family:IBMPlexSans-SemiBold, IBM Plex Sans;font-weight:700;}.cls-16{letter-spacing:-0.01em;}.cls-17{letter-spacing:-0.01em;}.cls-18{letter-spacing:0em;}.cls-19{letter-spacing:0.01em;}.cls-20{letter-spacing:0em;}.cls-21{letter-spacing:-0.01em;}.cls-22{letter-spacing:0em;}.cls-23{letter-spacing:-0.01em;}.cls-24,.cls-31{font-size:12px;}.cls-24{font-family:IBMPlexSans, IBM Plex Sans;}.cls-25{letter-spacing:0em;}.cls-26{letter-spacing:0em;}.cls-27{letter-spacing:-0.02em;}.cls-28{letter-spacing:0em;}.cls-29{letter-spacing:0em;}.cls-30{letter-spacing:-0.01em;}.cls-32{letter-spacing:-0.01em;}.cls-33{letter-spacing:0.01em;}.cls-34{letter-spacing:-0.01em;}.cls-35{letter-spacing:0em;}.cls-36{letter-spacing:0em;}.cls-37{letter-spacing:-0.01em;}.cls-38{letter-spacing:0.01em;}.cls-39{letter-spacing:-0.01em;}</style></defs><title>architecture</title><g id="Figure"><rect class="cls-1" x="19.37" y="125.63" width="500" height="256"/><rect class="cls-2" x="32.87" y="430.63" width="250" height="55"/><rect class="cls-1" x="567.37" y="125.13" width="164" height="257"/><rect class="cls-3" x="34.12" y="143.13" width="470" height="208"/><rect class="cls-3" x="582.37" y="143.13" width="134" height="208"/><rect class="cls-4" x="51.87" y="163.13" width="120" height="150"/><rect class="cls-5" x="51.87" y="50.63" width="120" height="45"/><rect class="cls-5" x="208.87" y="50.63" width="120" height="45"/><rect class="cls-5" x="364.87" y="50.63" width="120" height="45"/><rect class="cls-4" x="209.12" y="163.13" width="120" height="150"/><rect class="cls-4" x="365.87" y="163.13" width="120" height="150"/><rect class="cls-4" x="599.87" y="163.13" width="16" height="150"/><rect class="cls-4" x="642.87" y="163.13" width="16" height="150"/><rect class="cls-4" x="684.87" y="163.13" width="16" height="150"/><rect class="cls-1" x="18.87" y="504.63" width="712" height="33"/><rect class="cls-2" x="25.87" y="423.63" width="250" height="55"/><rect class="cls-2" x="18.87" y="416.63" width="250" height="55"/><rect class="cls-2" x="480.87" y="430.63" width="250" height="55"/><rect class="cls-2" x="473.87" y="423.63" width="250" height="55"/><rect class="cls-2" x="466.87" y="416.63" width="250" height="55"/><rect class="cls-6" x="29.87" y="426.63" width="102" height="20"/><rect class="cls-6" x="156.87" y="426.63" width="102" height="20"/><rect class="cls-6" x="477.87" y="426.63" width="102" height="20"/><rect class="cls-6" x="604.87" y="426.63" width="102" height="20"/><g id="Keystore"><path class="cls-7" d="M66.64,257.5c0,5.34,20.15,9.67,45,9.67s45-4.33,45-9.67"/><polyline class="cls-7" points="66.64 258.13 66.64 190.13 66.64 189.84 66.68 189.84"/><polyline class="cls-7" points="156.61 189.84 156.63 189.84 156.63 190.02 156.63 190.24 156.63 258.13"/><rect class="cls-8" x="67.14" y="189.63" width="89" height="68"/><ellipse class="cls-7" cx="111.64" cy="190.17" rx="45" ry="9.67"/></g><g id="Keystore-2" data-name="Keystore"><path class="cls-7" d="M224.64,257.5c0,5.34,20.15,9.67,45,9.67s45-4.33,45-9.67"/><polyline class="cls-7" points="224.64 258.13 224.64 190.13 224.64 189.84 224.68 189.84"/><polyline class="cls-7" points="314.61 189.84 314.63 189.84 314.63 190.02 314.63 190.24 314.63 258.13"/><rect class="cls-8" x="225.14" y="189.63" width="89" height="68"/><ellipse class="cls-7" cx="269.64" cy="190.17" rx="45" ry="9.67"/></g><g id="Keystore-3" data-name="Keystore"><path class="cls-7" d="M380.64,257.5c0,5.34,20.15,9.67,45,9.67s45-4.33,45-9.67"/><polyline class="cls-7" points="380.64 258.13 380.64 190.13 380.64 189.84 380.68 189.84"/><polyline class="cls-7" points="470.61 189.84 470.63 189.84 470.63 190.02 470.63 190.24 470.63 258.13"/><rect class="cls-8" x="381.14" y="189.63" width="89" height="68"/><ellipse class="cls-7" cx="425.64" cy="190.17" rx="45" ry="9.67"/></g></g><g id="Line"><line class="cls-9" x1="191.37" y1="154.38" x2="191.37" y2="155.38"/><line class="cls-10" x1="191.37" y1="157.4" x2="191.37" y2="317.38"/><line class="cls-9" x1="191.37" y1="318.38" x2="191.37" y2="319.38"/><line class="cls-9" x1="347.37" y1="154.38" x2="347.37" y2="155.38"/><line class="cls-10" x1="347.37" y1="157.4" x2="347.37" y2="317.38"/><line class="cls-9" x1="347.37" y1="318.38" x2="347.37" y2="319.38"/><line class="cls-9" x1="629.37" y1="154.38" x2="629.37" y2="155.38"/><line class="cls-10" x1="629.37" y1="157.4" x2="629.37" y2="317.38"/><line class="cls-9" x1="629.37" y1="318.38" x2="629.37" y2="319.38"/><line class="cls-9" x1="671.37" y1="154.38" x2="671.37" y2="155.38"/><line class="cls-10" x1="671.37" y1="157.4" x2="671.37" y2="317.38"/><line class="cls-9" x1="671.37" y1="318.38" x2="671.37" y2="319.38"/><line class="cls-11" x1="543.87" y1="110.63" x2="543.87" y2="396.63"/><line class="cls-12" x1="51.87" y1="390.37" x2="51.87" y2="412.63"/><polygon class="cls-13" points="47.88 391.54 51.87 384.63 55.86 391.54 47.88 391.54"/><line class="cls-12" x1="144.37" y1="390.87" x2="144.37" y2="413.13"/><polygon class="cls-13" points="140.38 392.04 144.37 385.13 148.36 392.04 140.38 392.04"/><line class="cls-12" x1="241.37" y1="390.87" x2="241.37" y2="413.13"/><polygon class="cls-13" points="237.38 392.04 241.37 385.13 245.36 392.04 237.38 392.04"/><line class="cls-14" x1="608.37" y1="390.87" x2="608.37" y2="413.13"/><polygon class="cls-13" points="604.38 392.04 608.37 385.13 612.36 392.04 604.38 392.04"/><line class="cls-14" x1="651.37" y1="390.87" x2="651.37" y2="413.13"/><polygon class="cls-13" points="647.38 392.04 651.37 385.13 655.36 392.04 647.38 392.04"/><line class="cls-14" x1="693.37" y1="390.87" x2="693.37" y2="413.13"/><polygon class="cls-13" points="689.38 392.04 693.37 385.13 697.36 392.04 689.38 392.04"/><line class="cls-12" x1="111.37" y1="100.13" x2="111.37" y2="154.39"/><polygon class="cls-13" points="107.38 153.22 111.37 160.13 115.36 153.22 107.38 153.22"/><line class="cls-12" x1="269.37" y1="100.13" x2="269.37" y2="154.39"/><polygon class="cls-13" points="265.38 153.22 269.37 160.13 273.36 153.22 265.38 153.22"/><line class="cls-12" x1="425.37" y1="100.13" x2="425.37" y2="154.39"/><polygon class="cls-13" points="421.38 153.22 425.37 160.13 429.36 153.22 421.38 153.22"/></g><g id="Text"><text class="cls-15" transform="translate(15.14 24.94)">Hyper <tspan class="cls-16" x="42.42" y="0">P</tspan><tspan class="cls-17" x="51.25" y="0">r</tspan><tspan class="cls-18" x="56.69" y="0">ot</tspan><tspan x="69.69" y="0">ect C</tspan><tspan class="cls-19" x="102.21" y="0">r</tspan><tspan class="cls-20" x="107.83" y="0">y</tspan><tspan class="cls-21" x="115.16" y="0">p</tspan><tspan class="cls-18" x="123.48" y="0">t</tspan><tspan x="128.66" y="0">o Se</tspan><tspan class="cls-19" x="156.21" y="0">r</tspan><tspan class="cls-20" x="161.82" y="0">vi</tspan><tspan class="cls-22" x="173.02" y="0">c</tspan><tspan x="180.14" y="0">es </tspan><tspan class="cls-23" x="198.24" y="0">w</tspan><tspan x="209.58" y="0">orkload isol</tspan><tspan class="cls-18" x="285.2" y="0">a</tspan><tspan x="292.97" y="0">tion</tspan></text><text class="cls-24" transform="translate(84.26 224.83)">Dedica<tspan class="cls-25" x="37.04" y="0">t</tspan><tspan class="cls-26" x="41.21" y="0">ed</tspan><tspan class="cls-27" x="3.07" y="14.4">K</tspan><tspan class="cls-28" x="10.38" y="14.4">e</tspan><tspan x="16.91" y="14.4">yS</tspan><tspan class="cls-29" x="29.87" y="14.4">t</tspan><tspan x="34.03" y="14.4">o</tspan><tspan class="cls-30" x="40.75" y="14.4">r</tspan><tspan x="45.1" y="14.4">e</tspan></text><text class="cls-24" transform="translate(242.08 224.83)">Dedica<tspan class="cls-25" x="37.04" y="0">t</tspan><tspan class="cls-26" x="41.21" y="0">ed</tspan><tspan class="cls-27" x="3.07" y="14.4">K</tspan><tspan class="cls-28" x="10.38" y="14.4">e</tspan><tspan x="16.91" y="14.4">yS</tspan><tspan class="cls-29" x="29.87" y="14.4">t</tspan><tspan x="34.03" y="14.4">o</tspan><tspan class="cls-30" x="40.75" y="14.4">r</tspan><tspan x="45.1" y="14.4">e</tspan></text><text class="cls-24" transform="translate(397.08 224.83)">Dedica<tspan class="cls-25" x="37.04" y="0">t</tspan><tspan class="cls-26" x="41.21" y="0">ed</tspan><tspan class="cls-27" x="3.07" y="14.4">K</tspan><tspan class="cls-28" x="10.38" y="14.4">e</tspan><tspan x="16.91" y="14.4">yS</tspan><tspan class="cls-29" x="29.87" y="14.4">t</tspan><tspan x="34.03" y="14.4">o</tspan><tspan class="cls-30" x="40.75" y="14.4">r</tspan><tspan x="45.1" y="14.4">e</tspan></text><text class="cls-31" transform="translate(73.63 286.9)">Hyper <tspan class="cls-32" x="36.36" y="0">P</tspan><tspan class="cls-28" x="43.93" y="0">r</tspan><tspan class="cls-25" x="48.59" y="0">ot</tspan><tspan x="59.74" y="0">ect</tspan><tspan x="-5.05" y="14.4">C</tspan><tspan class="cls-33" x="2.65" y="14.4">r</tspan><tspan x="7.46" y="14.4">y</tspan><tspan class="cls-34" x="13.75" y="14.4">p</tspan><tspan class="cls-25" x="20.88" y="14.4">t</tspan><tspan x="25.32" y="14.4">o Se</tspan><tspan class="cls-33" x="48.94" y="14.4">r</tspan><tspan x="53.75" y="14.4">vi</tspan><tspan class="cls-28" x="63.35" y="14.4">c</tspan><tspan class="cls-35" x="69.44" y="14.4">es</tspan></text><text class="cls-31" transform="translate(230.63 286.9)">Hyper <tspan class="cls-32" x="36.36" y="0">P</tspan><tspan class="cls-28" x="43.93" y="0">r</tspan><tspan class="cls-25" x="48.59" y="0">ot</tspan><tspan x="59.74" y="0">ect</tspan><tspan x="-5.05" y="14.4">C</tspan><tspan class="cls-33" x="2.65" y="14.4">r</tspan><tspan x="7.46" y="14.4">y</tspan><tspan class="cls-34" x="13.75" y="14.4">p</tspan><tspan class="cls-25" x="20.88" y="14.4">t</tspan><tspan x="25.32" y="14.4">o Se</tspan><tspan class="cls-33" x="48.94" y="14.4">r</tspan><tspan x="53.75" y="14.4">vi</tspan><tspan class="cls-28" x="63.35" y="14.4">c</tspan><tspan class="cls-35" x="69.44" y="14.4">es</tspan></text><text class="cls-31" transform="translate(386.63 286.9)">Hyper <tspan class="cls-32" x="36.36" y="0">P</tspan><tspan class="cls-28" x="43.93" y="0">r</tspan><tspan class="cls-25" x="48.59" y="0">ot</tspan><tspan x="59.74" y="0">ect</tspan><tspan x="-5.05" y="14.4">C</tspan><tspan class="cls-33" x="2.65" y="14.4">r</tspan><tspan x="7.46" y="14.4">y</tspan><tspan class="cls-34" x="13.75" y="14.4">p</tspan><tspan class="cls-25" x="20.88" y="14.4">t</tspan><tspan x="25.32" y="14.4">o Se</tspan><tspan class="cls-33" x="48.94" y="14.4">r</tspan><tspan x="53.75" y="14.4">vi</tspan><tspan class="cls-28" x="63.35" y="14.4">c</tspan><tspan class="cls-35" x="69.44" y="14.4">es</tspan></text><text class="cls-31" transform="translate(293.65 524.62)">IBM Z/LinuxOne pl<tspan class="cls-29" x="104.15" y="0">a</tspan><tspan class="cls-36" x="110.81" y="0">t</tspan><tspan class="cls-25" x="115.26" y="0">f</tspan><tspan x="119.41" y="0">orm</tspan></text><text class="cls-31" transform="translate(155.36 335.25)"><tspan class="cls-29">I</tspan><tspan class="cls-35" x="5.03" y="0">sol</tspan><tspan class="cls-29" x="21.3" y="0">at</tspan><tspan x="32.4" y="0">ed Container Runtime E</tspan><tspan class="cls-37" x="163.71" y="0">n</tspan><tspan class="cls-35" x="170.67" y="0">vi</tspan><tspan class="cls-30" x="180.27" y="0">r</tspan><tspan x="184.93" y="0">onment</tspan></text><text class="cls-31" transform="translate(199.19 371.25)">Secu<tspan class="cls-28" x="27.24" y="0">r</tspan><tspan x="31.9" y="0">e Se</tspan><tspan class="cls-38" x="55.45" y="0">r</tspan><tspan class="cls-35" x="60.26" y="0">vi</tspan><tspan class="cls-30" x="69.86" y="0">c</tspan><tspan x="75.96" y="0">e Container</tspan></text><text class="cls-24" transform="translate(50.51 440.8)">Domain 00</text><text class="cls-24" transform="translate(177.51 440.8)">Domain 84</text><text class="cls-24" transform="translate(139.71 438.23)">...</text><text class="cls-24" transform="translate(498.51 440.8)">Domain 00</text><text class="cls-24" transform="translate(625.51 440.8)">Domain 84</text><text class="cls-24" transform="translate(587.71 438.23)">...</text><text class="cls-31" transform="translate(71.54 463.64)">HSM Ca<tspan class="cls-28" x="43" y="0">r</tspan><tspan x="47.65" y="0">d (C</tspan><tspan class="cls-33" x="69.43" y="0">r</tspan><tspan x="74.24" y="0">y</tspan><tspan class="cls-34" x="80.53" y="0">p</tspan><tspan class="cls-25" x="87.66" y="0">t</tspan><tspan x="92.1" y="0">o Exp</tspan><tspan class="cls-28" x="122.61" y="0">r</tspan><tspan class="cls-35" x="127.27" y="0">e</tspan><tspan class="cls-39" x="133.97" y="0">s</tspan><tspan x="139.87" y="0">s)</tspan></text><text class="cls-31" transform="translate(519.54 463.64)">HSM Ca<tspan class="cls-28" x="43" y="0">r</tspan><tspan x="47.65" y="0">d (C</tspan><tspan class="cls-33" x="69.43" y="0">r</tspan><tspan x="74.24" y="0">y</tspan><tspan class="cls-34" x="80.53" y="0">p</tspan><tspan class="cls-25" x="87.66" y="0">t</tspan><tspan x="92.1" y="0">o Exp</tspan><tspan class="cls-28" x="122.61" y="0">r</tspan><tspan class="cls-35" x="127.27" y="0">e</tspan><tspan class="cls-39" x="133.97" y="0">s</tspan><tspan x="139.87" y="0">s)</tspan></text><text class="cls-24" transform="translate(95.33 76.64)">App A</text><text class="cls-24" transform="translate(253.33 76.64)">App B</text><text class="cls-24" transform="translate(408.33 76.64)">App C</text></g></svg>