<svg xmlns="http://www.w3.org/2000/svg" width="1056" height="390" viewBox="0 0 1056 390">
    <defs>
        <style>.cls-1,.cls-15{fill:#fff;}.cls-10,.cls-12,.cls-16,.cls-19,.cls-2,.cls-20,.cls-3,.cls-4,.cls-5{fill:none;}.cls-2,.cls-3,.cls-4,.cls-5{stroke:#9fa5ad;}.cls-10,.cls-15,.cls-16,.cls-2,.cls-3,.cls-4,.cls-5,.cls-6{stroke-miterlimit:10;}.cls-3{stroke-dasharray:1.9997 1.9997;}.cls-4{stroke-dasharray:1.9996 1.9996;}.cls-5{stroke-dasharray:1.9942 1.9942;}.cls-6{fill:#f4f4f4;}.cls-12,.cls-13,.cls-14,.cls-15,.cls-16,.cls-18,.cls-6,.cls-7,.cls-8,.cls-9{stroke:#000;}.cls-19,.cls-6{stroke-dasharray:2;}.cls-7{fill:#00bab6;}.cls-12,.cls-13,.cls-15,.cls-16,.cls-19,.cls-20,.cls-7,.cls-8,.cls-9{stroke-linecap:round;}.cls-12,.cls-13,.cls-14,.cls-18,.cls-19,.cls-20,.cls-7,.cls-8,.cls-9{stroke-linejoin:round;}.cls-18,.cls-27,.cls-8{fill:#87eded;}.cls-9{fill:#20d5d2;}.cls-10{stroke:#50565b;stroke-width:2px;}.cls-11{fill:#50565b;}.cls-13,.cls-14,.cls-17{fill:#b3e6ff;}.cls-19,.cls-20{stroke:#1193e8;}.cls-20{stroke-dasharray:2 2;}.cls-21{fill:#1193e8;}.cls-22{fill:#e3f6ff;}.cls-23,.cls-25{font-size:16px;}.cls-23,.cls-24{font-family:IBMPlexSans-SemiBold, IBM Plex Sans;font-weight:600;}.cls-24{font-size:18px;}.cls-25,.cls-26{font-family:IBMPlexSans, IBM Plex Sans;}.cls-26{font-size:14px;}</style>
    </defs>
    <g id="Layer_1" data-name="Layer 1">
        <rect class="cls-1" x="308.3867" y="61.6261" width="623.9037" height="243.9533" />
        <polyline class="cls-2" points="932.29 304.579 932.29 305.579 931.29 305.579" />
        <line class="cls-3" x1="929.2906" y1="305.5794" x2="310.3865" y2="305.5794" />
        <polyline class="cls-2" points="309.387 305.579 308.387 305.579 308.387 304.579" />
        <line class="cls-4" x1="308.3867" y1="302.5798" x2="308.3867" y2="63.6259" />
        <polyline class="cls-2" points="308.387 62.626 308.387 61.626 309.387 61.626" />
        <line class="cls-3" x1="311.3864" y1="61.6261" x2="930.2905" y2="61.6261" />
        <polyline class="cls-2" points="931.29 61.626 932.29 61.626 932.29 62.626" />
        <line class="cls-4" x1="932.2903" y1="64.6257" x2="932.2903" y2="303.5796" />
        <rect class="cls-1" x="47.229" y="61.6261" width="231.3351" height="243.9533" />
        <polyline class="cls-2" points="278.564 304.579 278.564 305.579 277.564 305.579" />
        <line class="cls-5" x1="275.5698" y1="305.5794" x2="49.2261" y2="305.5794" />
        <polyline class="cls-2" points="48.229 305.579 47.229 305.579 47.229 304.579" />
        <line class="cls-4" x1="47.229" y1="302.5798" x2="47.229" y2="63.6259" />
        <polyline class="cls-2" points="47.229 62.626 47.229 61.626 48.229 61.626" />
        <line class="cls-5" x1="50.2232" y1="61.6261" x2="276.5669" y2="61.6261" />
        <polyline class="cls-2" points="277.564 61.626 278.564 61.626 278.564 62.626" />
        <line class="cls-4" x1="278.564" y1="64.6257" x2="278.564" y2="303.5796" />
        <rect class="cls-6" x="78.4244" y="109.9961" width="168.9442" height="168.2437" />
        <rect class="cls-6" x="337.8298" y="109.2951" width="308.4463" height="168.2437" />
        <rect class="cls-6" x="850.9726" y="109.2951" width="157.0274" height="168.2437" />
        <g id="gear">
            <path id="gear-2" data-name="gear" class="cls-7" d="M762.5306,185.8034l-1.0992,2.6283,2.5667,2.5667-3.91,3.9089-2.5592-2.5592-2.6358,1.0814v3.63h-5.5287v-3.6191l-2.6283-1.0992-2.5667,2.5667-3.9089-3.9089L742.82,188.44l-1.0814-2.6359h-3.6294v-5.5286h3.6191l1.0992-2.6284-2.5667-2.5666,3.9089-3.9089,2.5592,2.5592,2.6358-1.0814v-3.63h5.5287v3.6191l2.6283,1.0992,2.5667-2.5666,3.91,3.9088-2.5592,2.5592,1.0814,2.6358H766.15v5.5287Zm-10.4012-9.3067a6.5428,6.5428,0,1,0,6.5428,6.5428A6.5428,6.5428,0,0,0,752.1294,176.4967Z" />
        </g>
        <g id="gear-3" data-name="gear">
            <path id="gear-4" data-name="gear" class="cls-8" d="M747.1083,160.5669l-1.0992,2.6283,2.5666,2.5666-3.91,3.9089-2.5592-2.5592-2.6358,1.0815v3.63h-5.5286v-3.6191l-2.6284-1.0992-2.5666,2.5666-3.9089-3.9088,2.5592-2.5592-1.0815-2.6358h-3.6293v-5.5287h3.6191l1.0992-2.6283-2.5667-2.5667,3.9089-3.9088,2.5591,2.5591,2.6359-1.0814v-3.63h5.5286v3.6191l2.6284,1.0992,2.5666-2.5667,3.91,3.9089-2.5592,2.5592,1.0815,2.6358h3.6294v5.5287ZM736.7071,151.26a6.5428,6.5428,0,1,0,6.5428,6.5428A6.5429,6.5429,0,0,0,736.7071,151.26Z" />
        </g>
        <g id="gear-5" data-name="gear">
            <path id="gear-6" data-name="gear" class="cls-9" d="M777.9529,160.5669l-1.0992,2.6283,2.5667,2.5666-3.91,3.9089-2.5592-2.5592-2.6358,1.0815v3.63h-5.5287v-3.6191l-2.6283-1.0992-2.5667,2.5666-3.9088-3.9088,2.5591-2.5592-1.0814-2.6358h-3.6294v-5.5287h3.6191l1.0992-2.6283-2.5666-2.5667,3.9088-3.9088,2.5592,2.5591,2.6358-1.0814v-3.63h5.5287v3.6191l2.6283,1.0992,2.5667-2.5667,3.91,3.9089-2.5592,2.5592,1.0815,2.6358h3.6293v5.5287ZM767.5517,151.26a6.5428,6.5428,0,1,0,6.5428,6.5428A6.5428,6.5428,0,0,0,767.5517,151.26Z" />
        </g>
        <line class="cls-10" x1="632.9568" y1="194.118" x2="702.9255" y2="194.118" />
        <polygon class="cls-11" points="701.758 198.107 708.666 194.118 701.758 190.129 701.758 198.107" />
        <line class="cls-10" x1="795.5923" y1="194.118" x2="865.561" y2="194.118" />
        <polygon class="cls-11" points="864.394 198.107 871.302 194.118 864.394 190.129 864.394 198.107" />
        <g id="add">
            <line class="cls-12" x1="497.6608" y1="166.7784" x2="511.6811" y2="166.7784" />
            <line class="cls-12" x1="504.671" y1="159.7682" x2="504.671" y2="173.7885" />
        </g>
        <g id="key">
            <path class="cls-13" d="M161.5211,179.4128a16.3758,16.3758,0,1,1-8.4169-7.317" />
            <circle cx="143.4438" cy="191.1137" r="3.5051" />
            <polyline class="cls-14" points="153.104 172.096 176.227 148.973 184.883 148.973 184.883 156.434 170.345 170.972 165.156 170.996 165.156 175.778 161.521 179.413" />
        </g>
        <g id="Doc">
            <polygon class="cls-15" points="140.059 151.844 140.059 203.649 181.503 203.649 181.503 162.205 171.142 151.844 140.059 151.844" />
            <polyline class="cls-16" points="171.142 151.844 171.142 162.205 181.503 162.205" />
            <line class="cls-16" x1="148.3478" y1="183.9634" x2="166.4795" y2="183.9634" />
            <line class="cls-16" x1="148.3478" y1="168.2492" x2="173.2141" y2="168.2492" />
            <line class="cls-16" x1="148.3478" y1="176.02" x2="173.2141" y2="176.02" />
        </g>
        <g id="lock">
            <g id="lock-2" data-name="lock">
                <rect class="cls-17" x="176.5958" y="192.0149" width="9.8142" height="5.6081" />
                <path class="cls-13" d="M192.7191,205.472a11.2162,11.2162,0,1,1-11.2162-11.2162A11.216,11.216,0,0,1,192.7191,205.472Zm-5.6081-9.7155v-7.1088a5.6081,5.6081,0,1,0-11.2162,0v7.1088m5.6081,9.1547v3.9257" />
                <circle cx="181.5029" cy="204.9112" r="1.6824" />
            </g>
        </g>
    </g>
    <g id="key-2" data-name="key">
        <g id="key-3" data-name="key">
            <path class="cls-8" d="M418.5028,171.7363a16.3759,16.3759,0,1,1-.7778-11.1256" />
            <circle cx="397.4464" cy="167.2274" r="3.5051" />
            <polyline class="cls-18" points="417.725 160.611 450.426 160.611 456.546 166.731 451.271 172.007 430.711 172.007 427.025 168.355 423.643 171.736 418.503 171.736" />
        </g>
        <g id="key-4" data-name="key">
            <path class="cls-8" d="M932.4825,178.2659a16.3759,16.3759,0,1,1-8.417-7.317" />
            <circle cx="914.4051" cy="189.9668" r="3.5051" />
            <polyline class="cls-18" points="924.066 170.949 947.188 147.826 955.844 147.826 955.844 155.287 941.306 169.825 936.117 169.849 936.117 174.631 932.483 178.266" />
        </g>
        <g id="key-5" data-name="key">
            <path class="cls-13" d="M572.0252,171.7363a16.3759,16.3759,0,1,1-.7778-11.1256" />
            <circle cx="550.9688" cy="167.2274" r="3.5051" />
            <polyline class="cls-14" points="571.247 160.611 603.948 160.611 610.069 166.731 604.793 172.007 584.233 172.007 580.547 168.355 577.165 171.736 572.025 171.736" />
        </g>
        <g id="key-6" data-name="key">
            <path class="cls-13" d="M927.03,173.8047a16.3757,16.3757,0,1,1-8.417-7.3171" />
            <circle cx="908.9525" cy="185.5055" r="3.5051" />
            <polyline class="cls-14" points="918.613 166.488 941.736 143.365 950.392 143.365 950.392 150.825 935.853 165.364 930.664 165.388 930.664 170.17 927.03 173.805" />
        </g>
        <line class="cls-19" x1="965.2381" y1="278.2398" x2="965.2381" y2="367.2688" />
        <line class="cls-19" x1="964.537" y1="367.2688" x2="159.7714" y2="367.2688" />
        <line class="cls-20" x1="159.7714" y1="367.2688" x2="159.7714" y2="294.4628" />
        <polygon class="cls-21" points="162.763 295.338 159.771 290.157 156.78 295.338 162.763 295.338" />
        <path class="cls-22" d="M313.0877,330.115H748.1294a4,4,0,0,1,4,4v32.4528a0,0,0,0,1,0,0H309.0877a0,0,0,0,1,0,0V334.115A4,4,0,0,1,313.0877,330.115Z" />
    </g>
    <g id="text">
        <text class="cls-23" transform="translate(72.8125 92.1892)">IBM Cloud data service</text>
        <text class="cls-24" transform="translate(25.5752 36.1072)">Wrapping keys</text>
        <text class="cls-23" transform="translate(336.6133 90.7868)">Hyper Protect Crypto Services</text>
        <text class="cls-25" transform="translate(365.5679 221.7263)">
            Root key managed
            <tspan x="0.2163" y="19.2002">in service instance</tspan>
        </text>
        <text class="cls-25" transform="translate(538.3779 221.7263)">
            DEK from
            <tspan x="-9.4717" y="19.2002">data service</tspan>
        </text>
        <text class="cls-25" transform="translate(735.4932 221.7263)">
            AES
            <tspan x="-18.0957" y="19.2002">algorithm</tspan>
        </text>
        <text class="cls-25" transform="translate(881.6406 237.1491)">Wrapped DEK</text>
        <text class="cls-25" transform="translate(108.3774 235.7468)">Encrypted data</text>
        <text class="cls-26" transform="translate(358.4561 354.0725)">DEK returns to data service and wraps the data at rest</text>
    </g>
    <g id="Layer_4" data-name="Layer 4">
        <g id="lock-3" data-name="lock">
            <g id="lock-4" data-name="lock">
                <rect class="cls-27" x="943.5066" y="190.6129" width="9.8142" height="5.6081" />
                <path class="cls-8" d="M948.4137,207.4373v-3.9257m-5.6081-9.1553V187.248a4.31,4.31,0,0,1,.0561-.7431,5.6046,5.6046,0,0,1,11.16.7431v7.1083m0,0c-.2243-.1262-.4627-.2524-.701-.3645a11.0753,11.0753,0,0,0-4.9071-1.1357,11.6145,11.6145,0,0,0-2.4395.2664,11.1955,11.1955,0,0,0-2.4676.8693c-.2383.1121-.4767.2383-.701.3645a11.2162,11.2162,0,1,0,11.2162,0Z" />
                <circle cx="948.4137" cy="203.5092" r="1.6824" />
            </g>
        </g>
        <path class="cls-12" d="M903.17,168.4468c-4.4445-6.9681-6.1129-12.7024-3.8276-14.9877,3.0985-3.0985,12.5061,1.0515,22.755,9.5338q2.6077,2.1452,5.2576,4.6547c.687.645,1.374,1.3179,2.061,2.0049l.8833.8833c1.6824,1.7245,3.2667,3.463,4.7248,5.1875a75.3462,75.3462,0,0,1,7.8374,10.7816" />
        <path class="cls-12" d="M938.0667,199.7541a39.461,39.461,0,0,1-6.9681-3.5471" />
    </g>
</svg>