<svg xmlns="http://www.w3.org/2000/svg" width="750" height="370" viewBox="0 0 750 370"><defs><style>.cls-1,.cls-8{fill:#f2f4f8;}.cls-1,.cls-10,.cls-11,.cls-12,.cls-2,.cls-3,.cls-4,.cls-5,.cls-7,.cls-8,.cls-9{stroke:#000;}.cls-1,.cls-10,.cls-11,.cls-12,.cls-13,.cls-15,.cls-2,.cls-5,.cls-7{stroke-linejoin:round;}.cls-13,.cls-15,.cls-2,.cls-9{fill:none;}.cls-10,.cls-11,.cls-13,.cls-2,.cls-7{stroke-linecap:round;}.cls-3,.cls-5{fill:#b3e6ff;}.cls-3,.cls-4,.cls-8,.cls-9{stroke-miterlimit:10;}.cls-4{fill:#e3f6ff;}.cls-6,.cls-7{fill:#e6d6ff;}.cls-10{fill:#fff;}.cls-11,.cls-12{fill:#87eded;}.cls-13,.cls-15{stroke:#50565b;stroke-width:2px;}.cls-14{fill:#50565b;}</style></defs><title>application-encryption-pkcs11</title><g id="Figure"><rect class="cls-1" x="231" y="250.4158" width="365" height="110"/><g id="HP_icon" data-name="HP icon"><line class="cls-2" x1="276.0714" y1="317.2015" x2="298.9286" y2="317.2015"/><polyline class="cls-2" points="298.929 317.201 298.929 302.201 276.071 302.201 276.071 311.666"/><path class="cls-2" d="M294.6418,302.2015v-5.7153a7.1418,7.1418,0,1,0-14.2836,0v5.7153"/><path class="cls-2" d="M287.4961,327.9158s-20.3532-11.9322-20.3532-35.3572"/><path class="cls-2" d="M307.8571,292.5586c0,23.425-20.361,35.3572-20.361,35.3572"/><polyline class="cls-2" points="267.143 292.559 287.5 280.773 307.857 292.559"/><circle class="cls-3" cx="307.8571" cy="292.5586" r="2.1429"/><circle class="cls-3" cx="267.1429" cy="292.5586" r="2.1429"/><circle class="cls-3" cx="287.5" cy="327.9158" r="2.1429"/></g><path id="Cloud" class="cls-4" d="M416.0213,294.2067a25.0242,25.0242,0,0,0-24.5988,20.32,18.7682,18.7682,0,0,0,3.3032,37.2361h42.5412a18.7682,18.7682,0,0,0,3.3032-37.2361,25.0241,25.0241,0,0,0-19.8692-19.8692A25.7039,25.7039,0,0,0,416.0213,294.2067Z"/><g id="Hardware"><rect class="cls-5" x="395.9947" y="330.6315" width="40" height="10.5882"/><polygon class="cls-5" points="435.995 330.239 395.995 330.239 403.054 314.945 428.936 314.945 435.995 330.239"/><rect x="421.2888" y="333.5726" width="4.7059" height="4.7059"/><rect x="427.7594" y="333.5726" width="4.7059" height="4.7059"/></g><g id="lock"><g id="lock-2" data-name="lock"><rect class="cls-6" x="391.4" y="329.2158" width="7.2" height="2.4"/><path class="cls-7" d="M395,340.8158v-2.8m-4-6.528v-5.072a4,4,0,0,1,8,0v5.072m1.6,1.216a8.1983,8.1983,0,0,0-1.6-1.2161,7.9993,7.9993,0,0,0-8,0,8.1983,8.1983,0,0,0-1.6,1.2161,8,8,0,1,0,11.2,0Z"/><circle cx="395" cy="338.0158" r="1.5"/></g></g><rect class="cls-8" x="231" y="42.7625" width="365" height="145"/><g id="Database"><path class="cls-3" d="M540.8213,104.236H493.1787c-3.2891,0-5.9554,2.2854-5.9554,5.1046v56.15c0,2.8192,2.6663,5.1046,5.9554,5.1046h47.6426c3.2891,0,5.9554-2.2854,5.9554-5.1046v-56.15C546.7767,106.5214,544.11,104.236,540.8213,104.236Z"/><line class="cls-9" x1="487" y1="126.0794" x2="547" y2="126.0794"/><line class="cls-9" x1="487.9677" y1="148.7522" x2="547" y2="148.7522"/><circle cx="497.6452" cy="114.2867" r="3"/><circle cx="497.6452" cy="137.4158" r="3"/><circle cx="497.6452" cy="159.5771" r="3"/></g><g id="application"><g id="application-2" data-name="application"><path class="cls-10" d="M365.5,169.7625h-60v-56h60Zm-60-50h60m-44,0v50"/><path d="M361.5,116.7625a1,1,0,1,1-1-1A1,1,0,0,1,361.5,116.7625Zm-5-1a1,1,0,1,0,1,1A1,1,0,0,0,356.5,115.7625Zm-4,0a1,1,0,1,0,1,1A1,1,0,0,0,352.5,115.7625Z"/></g></g><g id="application-3" data-name="application"><g id="application-4" data-name="application"><path class="cls-10" d="M354.5,159.7625h-60v-56h60Zm-60-50h60m-44,0v50"/><path d="M350.5,106.7625a1,1,0,1,1-1-1A1,1,0,0,1,350.5,106.7625Zm-5-1a1,1,0,1,0,1,1A1,1,0,0,0,345.5,105.7625Zm-4,0a1,1,0,1,0,1,1A1,1,0,0,0,341.5,105.7625Z"/></g></g><g id="key"><path class="cls-11" d="M521.3216,327.1555a11.68,11.68,0,1,1-.5548-7.9353"/><circle cx="506.3031" cy="323.9396" r="2.5"/><polyline class="cls-12" points="520.767 319.22 544.091 319.22 548.456 323.586 544.694 327.348 530.029 327.348 527.4 324.744 524.988 327.156 521.322 327.156"/></g></g><g id="Text"><path d="M352.07,272.286h-4.0737v4.13h-1.8482v-9.7725h1.8482v4.0039H352.07v-4.0039h1.8482v9.7725H352.07Z"/><path d="M360.582,269.1073h1.68l-2.94,8.61a3.6987,3.6987,0,0,1-.315.6787,1.702,1.702,0,0,1-.413.47,1.549,1.549,0,0,1-.5738.2656,3.2762,3.2762,0,0,1-.7842.084h-1.0781v-1.4424h1.3164l.336-1.0195-2.6182-7.6465H356.97l1.2744,3.8564.4756,1.8438h.084l.5044-1.8438Z"/><path d="M363.438,269.1073h1.792v1.2041h.0556a1.8429,1.8429,0,0,1,.7422-1.001,2.2143,2.2143,0,0,1,1.274-.3711,2.4984,2.4984,0,0,1,2.1352.9873,4.6613,4.6613,0,0,1,.7349,2.8213,4.7213,4.7213,0,0,1-.7349,2.8418,2.491,2.491,0,0,1-2.1352.9941,2.15,2.15,0,0,1-1.2671-.3779,1.9551,1.9551,0,0,1-.7491-1.0078H365.23v4.0176h-1.792Zm3.29,5.9922a1.4856,1.4856,0,0,0,1.1338-.462,1.7455,1.7455,0,0,0,.4341-1.246v-1.26a1.7727,1.7727,0,0,0-.4341-1.2529,1.474,1.474,0,0,0-1.1338-.4688,1.7332,1.7332,0,0,0-1.0713.3213,1.0186,1.0186,0,0,0-.4267.8545V273.91a1.0207,1.0207,0,0,0,.4267.8818A1.7855,1.7855,0,0,0,366.728,275.1Z"/><path d="M374.792,276.5838a3.6373,3.6373,0,0,1-1.4492-.2734,2.9968,2.9968,0,0,1-1.0782-.7695,3.4339,3.4339,0,0,1-.6787-1.2041,5.43,5.43,0,0,1-.0073-3.1573,3.4425,3.4425,0,0,1,.6651-1.1972,2.9428,2.9428,0,0,1,1.0639-.77,3.5655,3.5655,0,0,1,1.4282-.2734,3.4889,3.4889,0,0,1,1.4839.2939,2.8625,2.8625,0,0,1,1.0362.7989,3.4541,3.4541,0,0,1,.6093,1.1689,4.86,4.86,0,0,1,.2032,1.4209v.5879H373.21v.1807a1.7857,1.7857,0,0,0,.4477,1.2715,1.732,1.732,0,0,0,1.33.48,1.9884,1.9884,0,0,0,1.0991-.2774,3.1456,3.1456,0,0,0,.7627-.709l.9668,1.0811a3.0013,3.0013,0,0,1-1.2256.9892A4.265,4.265,0,0,1,374.792,276.5838Zm-.0283-6.3a1.4345,1.4345,0,0,0-1.1338.4756,1.7916,1.7916,0,0,0-.42,1.2324v.1114h2.9951v-.126a1.9167,1.9167,0,0,0-.37-1.2246A1.2858,1.2858,0,0,0,374.7637,270.284Z"/><path d="M379.65,276.4159v-7.3086h1.791V270.62h.07a2.3475,2.3475,0,0,1,.2168-.5674,1.7584,1.7584,0,0,1,.3848-.4834,1.8528,1.8528,0,0,1,.5674-.336,2.1289,2.1289,0,0,1,.7627-.1259h.3925v1.6943h-.56a2.8127,2.8127,0,0,0-1.3711.2656.9244.9244,0,0,0-.4629.8682v4.4805Z"/><path d="M388.5674,276.4159v-9.7725h4.3955a3.2159,3.2159,0,0,1,1.2109.2168,2.5829,2.5829,0,0,1,.918.6162,2.6531,2.6531,0,0,1,.5742.959,4.0078,4.0078,0,0,1,0,2.4717,2.6537,2.6537,0,0,1-.5742.9511,2.5584,2.5584,0,0,1-.918.6163,3.2159,3.2159,0,0,1-1.2109.2168H390.416v3.7246Zm1.8486-5.32h2.3789a1.1813,1.1813,0,0,0,.84-.2872,1.0611,1.0611,0,0,0,.3086-.8183v-.6445a1.0389,1.0389,0,0,0-.3086-.8116,1.2006,1.2006,0,0,0-.84-.28H390.416Z"/><path d="M397.2891,276.4159v-7.3086h1.7929V270.62h.0694a2.3056,2.3056,0,0,1,.2177-.5674,1.74,1.74,0,0,1,.3848-.4834,1.8487,1.8487,0,0,1,.5664-.336,2.1273,2.1273,0,0,1,.7637-.1259h.3916v1.6943h-.56a2.8213,2.8213,0,0,0-1.373.2656.9248.9248,0,0,0-.461.8682v4.4805Z"/><path d="M405.6191,276.5838a3.5387,3.5387,0,0,1-1.4062-.2666,2.906,2.906,0,0,1-1.0645-.7695,3.5091,3.5091,0,0,1-.6787-1.2109,4.95,4.95,0,0,1-.2383-1.5889,4.8856,4.8856,0,0,1,.2383-1.582,3.4455,3.4455,0,0,1,.6787-1.1973,2.946,2.946,0,0,1,1.0645-.7627,3.54,3.54,0,0,1,1.4062-.2666,3.5932,3.5932,0,0,1,1.4141.2666,2.938,2.938,0,0,1,1.0713.7627,3.4455,3.4455,0,0,1,.6787,1.1973,4.8856,4.8856,0,0,1,.2383,1.582,4.95,4.95,0,0,1-.2383,1.5889,3.5091,3.5091,0,0,1-.6787,1.2109,2.8983,2.8983,0,0,1-1.0713.7695A3.5914,3.5914,0,0,1,405.6191,276.5838Zm0-1.4423a1.4625,1.4625,0,0,0,1.1211-.4336,1.8052,1.8052,0,0,0,.4053-1.2745V272.076a1.7861,1.7861,0,0,0-.4053-1.2607,1.4621,1.4621,0,0,0-1.1211-.4336,1.44,1.44,0,0,0-1.1054.4336,1.7776,1.7776,0,0,0-.4063,1.2607v1.3574a1.7966,1.7966,0,0,0,.4063,1.2745A1.44,1.44,0,0,0,405.6191,275.1415Z"/><path d="M412.8291,276.4159a1.913,1.913,0,0,1-1.4072-.4815,1.8584,1.8584,0,0,1-.4824-1.376V270.55h-1.0782v-1.4424h.5606a.6688.6688,0,0,0,.5527-.1885.918.918,0,0,0,.1465-.5674v-1.2461h1.61v2.002h1.4971V270.55h-1.4971v4.4238h1.3858v1.4424Z"/><path d="M418.6816,276.5838a3.6322,3.6322,0,0,1-1.4492-.2734,2.9792,2.9792,0,0,1-1.0781-.7695,3.42,3.42,0,0,1-.68-1.2041,5.4224,5.4224,0,0,1-.0068-3.1573,3.4439,3.4439,0,0,1,.665-1.1972,2.945,2.945,0,0,1,1.0645-.77,3.563,3.563,0,0,1,1.4277-.2734,3.4916,3.4916,0,0,1,1.4844.2939,2.85,2.85,0,0,1,1.0351.7989,3.4209,3.4209,0,0,1,.6094,1.1689,4.86,4.86,0,0,1,.2031,1.4209v.5879H417.1v.1807a1.7851,1.7851,0,0,0,.4473,1.2715,1.732,1.732,0,0,0,1.33.48,1.9916,1.9916,0,0,0,1.1-.2774,3.1271,3.1271,0,0,0,.7617-.709l.9668,1.0811a3.006,3.006,0,0,1-1.2246.9892A4.267,4.267,0,0,1,418.6816,276.5838Zm-.0293-6.3a1.4326,1.4326,0,0,0-1.1328.4756,1.7872,1.7872,0,0,0-.42,1.2324v.1114h2.9951v-.126a1.922,1.922,0,0,0-.37-1.2246A1.2883,1.2883,0,0,0,418.6523,270.284Z"/><path d="M426.4229,276.5838a3.67,3.67,0,0,1-1.4424-.2666,2.7766,2.7766,0,0,1-1.0567-.7695,3.444,3.444,0,0,1-.65-1.2109,5.2174,5.2174,0,0,1-.2246-1.5889,5.1493,5.1493,0,0,1,.2246-1.582,3.38,3.38,0,0,1,.65-1.1973,2.8129,2.8129,0,0,1,1.0567-.7627,3.6716,3.6716,0,0,1,1.4424-.2666,3.1857,3.1857,0,0,1,1.8271.49,2.753,2.753,0,0,1,1.043,1.3584l-1.4707.6573a1.5265,1.5265,0,0,0-.4688-.7627,1.3636,1.3636,0,0,0-.9306-.3008,1.3422,1.3422,0,0,0-1.127.4756,1.9727,1.9727,0,0,0-.3711,1.2461v1.33a1.941,1.941,0,0,0,.3711,1.2393,1.3493,1.3493,0,0,0,1.127.4688,1.3955,1.3955,0,0,0,.9941-.3292,2.2514,2.2514,0,0,0,.5459-.8183l1.3721.6572a2.8692,2.8692,0,0,1-1.1065,1.4492A3.2333,3.2333,0,0,1,426.4229,276.5838Z"/><path d="M433.0029,276.4159a1.9132,1.9132,0,0,1-1.4072-.4815,1.8584,1.8584,0,0,1-.4824-1.376V270.55h-1.0781v-1.4424h.5605a.6688.6688,0,0,0,.5527-.1885.918.918,0,0,0,.1465-.5674v-1.2461h1.61v2.002h1.497V270.55h-1.497v4.4238h1.3857v1.4424Z"/><path d="M443.167,276.5838a4.6,4.6,0,0,1-1.7432-.3154,3.483,3.483,0,0,1-1.33-.9443,4.2926,4.2926,0,0,1-.8477-1.5616,7.2177,7.2177,0,0,1-.293-2.163,7.4958,7.4958,0,0,1,.293-2.19,4.4731,4.4731,0,0,1,.8477-1.61,3.6,3.6,0,0,1,1.33-.9873,4.3519,4.3519,0,0,1,1.7432-.336,3.949,3.949,0,0,1,2.1836.5606,3.8354,3.8354,0,0,1,1.3857,1.6933l-1.582.84a2.22,2.22,0,0,0-.6855-1.0567,1.9677,1.9677,0,0,0-1.3018-.3984,2.0716,2.0716,0,0,0-1.6455.6992,2.8894,2.8894,0,0,0-.6084,1.96v1.54a2.8282,2.8282,0,0,0,.6084,1.9532,2.0979,2.0979,0,0,0,1.6455.6787,2.0071,2.0071,0,0,0,1.3506-.4473,2.58,2.58,0,0,0,.7627-1.1064l1.498.8818a4.3,4.3,0,0,1-1.414,1.7012A3.7749,3.7749,0,0,1,443.167,276.5838Z"/><path d="M448.249,276.4159v-7.3086h1.792V270.62h.07a2.2677,2.2677,0,0,1,.2168-.5674,1.74,1.74,0,0,1,.3848-.4834,1.8409,1.8409,0,0,1,.5674-.336,2.1251,2.1251,0,0,1,.7627-.1259h.3916v1.6943h-.56a2.8174,2.8174,0,0,0-1.3721.2656.9255.9255,0,0,0-.4619.8682v4.4805Z"/><path d="M458.3418,269.1073h1.6807l-2.94,8.61a3.76,3.76,0,0,1-.3144.6787,1.717,1.717,0,0,1-.4131.47,1.5584,1.5584,0,0,1-.5742.2656,3.2744,3.2744,0,0,1-.7842.084H453.918v-1.4424h1.3164l.3359-1.0195-2.6182-7.6465h1.7784l1.2734,3.8564.4766,1.8438h.084l.5039-1.8438Z"/><path d="M461.1982,269.1073h1.792v1.2041h.0557a1.84,1.84,0,0,1,.7422-1.001,2.2154,2.2154,0,0,1,1.2744-.3711,2.4984,2.4984,0,0,1,2.1348.9873,4.6586,4.6586,0,0,1,.7343,2.8213,4.7187,4.7187,0,0,1-.7343,2.8418,2.491,2.491,0,0,1-2.1348.9941,2.1522,2.1522,0,0,1-1.2676-.3779,1.9571,1.9571,0,0,1-.749-1.0078H462.99v4.0176h-1.792Zm3.29,5.9922a1.4843,1.4843,0,0,0,1.1338-.462,1.7457,1.7457,0,0,0,.4336-1.246v-1.26a1.7729,1.7729,0,0,0-.4336-1.2529,1.4726,1.4726,0,0,0-1.1338-.4688,1.734,1.734,0,0,0-1.0713.3213,1.0172,1.0172,0,0,0-.4268.8545V273.91a1.0193,1.0193,0,0,0,.4268.8818A1.7863,1.7863,0,0,0,464.4883,275.1Z"/><path d="M471.7969,276.4159a1.9134,1.9134,0,0,1-1.4073-.4815,1.8592,1.8592,0,0,1-.4834-1.376V270.55h-1.0781v-1.4424h.5606a.6675.6675,0,0,0,.5527-.1885.9177.9177,0,0,0,.1475-.5674v-1.2461h1.6093v2.002h1.4981V270.55h-1.4981v4.4238h1.3868v1.4424Z"/><path d="M477.5918,276.5838a3.5392,3.5392,0,0,1-1.4063-.2666,2.9048,2.9048,0,0,1-1.0644-.7695,3.5075,3.5075,0,0,1-.6787-1.2109,4.95,4.95,0,0,1-.2383-1.5889,4.8856,4.8856,0,0,1,.2383-1.582,3.4439,3.4439,0,0,1,.6787-1.1973,2.9448,2.9448,0,0,1,1.0644-.7627,3.541,3.541,0,0,1,1.4063-.2666,3.5939,3.5939,0,0,1,1.4141.2666,2.9368,2.9368,0,0,1,1.0712.7627,3.4441,3.4441,0,0,1,.6788,1.1973,4.8884,4.8884,0,0,1,.2382,1.582,4.9529,4.9529,0,0,1-.2382,1.5889,3.5076,3.5076,0,0,1-.6788,1.2109,2.8971,2.8971,0,0,1-1.0712.7695A3.5921,3.5921,0,0,1,477.5918,276.5838Zm0-1.4423a1.4589,1.4589,0,0,0,1.12-.4336,1.8012,1.8012,0,0,0,.4063-1.2745V272.076a1.7822,1.7822,0,0,0-.4063-1.2607,1.4585,1.4585,0,0,0-1.12-.4336,1.44,1.44,0,0,0-1.1055.4336,1.7821,1.7821,0,0,0-.4062,1.2607v1.3574a1.8012,1.8012,0,0,0,.4062,1.2745A1.44,1.44,0,0,0,477.5918,275.1415Z"/><path d="M489.0293,276.5838a4.6276,4.6276,0,0,1-2.1348-.4492,4.9523,4.9523,0,0,1-1.5049-1.1777l1.2461-1.2061a3.5791,3.5791,0,0,0,1.127.89,3.0955,3.0955,0,0,0,1.3789.3047,1.9435,1.9435,0,0,0,1.2881-.3682,1.2348,1.2348,0,0,0,.4336-.9932,1.1276,1.1276,0,0,0-.2793-.792,1.8884,1.8884,0,0,0-1.05-.4443l-.9248-.1387q-2.9253-.4629-2.9258-2.8457a2.8222,2.8222,0,0,1,.2451-1.1914,2.5455,2.5455,0,0,1,.707-.9111,3.2775,3.2775,0,0,1,1.1133-.582,4.969,4.969,0,0,1,1.4766-.2032,4.7513,4.7513,0,0,1,1.9326.3653,3.7878,3.7878,0,0,1,1.4131,1.08l-1.26,1.1924a2.88,2.88,0,0,0-.8818-.7216,2.73,2.73,0,0,0-1.3018-.2774,1.9858,1.9858,0,0,0-1.1972.2979,1.1382,1.1382,0,0,0-.0772,1.6582,2.2655,2.2655,0,0,0,1.0361.3886l.91.168a4.18,4.18,0,0,1,2.1914.9463,2.5121,2.5121,0,0,1,.7061,1.8994,3.177,3.177,0,0,1-.2442,1.2686,2.7422,2.7422,0,0,1-.7148.98,3.257,3.257,0,0,1-1.1475.6377A4.9784,4.9784,0,0,1,489.0293,276.5838Z"/><path d="M497.3877,276.5838a3.6356,3.6356,0,0,1-1.4492-.2734,2.9955,2.9955,0,0,1-1.0781-.7695,3.4325,3.4325,0,0,1-.6788-1.2041,5.4246,5.4246,0,0,1-.0068-3.1573,3.4121,3.4121,0,0,1,.665-1.1972,2.9421,2.9421,0,0,1,1.0635-.77,3.5666,3.5666,0,0,1,1.4278-.2734,3.4911,3.4911,0,0,1,1.4843.2939,2.8532,2.8532,0,0,1,1.0362.7989,3.4541,3.4541,0,0,1,.6093,1.1689,4.86,4.86,0,0,1,.2022,1.4209v.5879h-4.8574v.1807a1.786,1.786,0,0,0,.4482,1.2715,1.7283,1.7283,0,0,0,1.3291.48,1.989,1.989,0,0,0,1.1-.2774,3.1456,3.1456,0,0,0,.7627-.709l.9658,1.0811a3.0047,3.0047,0,0,1-1.2246.9892A4.2634,4.2634,0,0,1,497.3877,276.5838Zm-.0283-6.3a1.4359,1.4359,0,0,0-1.1338.4756,1.7916,1.7916,0,0,0-.42,1.2324v.1114h2.9961v-.126a1.917,1.917,0,0,0-.3711-1.2246A1.2865,1.2865,0,0,0,497.3594,270.284Z"/><path d="M502.2461,276.4159v-7.3086h1.792V270.62h.07a2.2677,2.2677,0,0,1,.2168-.5674,1.74,1.74,0,0,1,.3848-.4834,1.8416,1.8416,0,0,1,.5673-.336,2.1258,2.1258,0,0,1,.7627-.1259h.3916v1.6943h-.56a2.8171,2.8171,0,0,0-1.3721.2656.9255.9255,0,0,0-.4619.8682v4.4805Z"/><path d="M509.4268,276.4159l-2.4356-7.3086h1.7637l1.0224,3.15.7139,2.6035h.0977l.7148-2.6035.9932-3.15h1.708l-2.4492,7.3086Z"/><path d="M516.0908,268.0438a1.0869,1.0869,0,0,1-.8047-.252.887.887,0,0,1-.2451-.6445v-.2793a.8872.8872,0,0,1,.2451-.6445,1.4014,1.4014,0,0,1,1.6035,0,.8727.8727,0,0,1,.252.6445v.2793a.8725.8725,0,0,1-.252.6445A1.0943,1.0943,0,0,1,516.0908,268.0438Zm-.8955,1.0635h1.792v7.3086h-1.792Z"/><path d="M521.9434,276.5838a3.6764,3.6764,0,0,1-1.4424-.2666,2.7773,2.7773,0,0,1-1.0567-.7695,3.46,3.46,0,0,1-.6513-1.2109,5.2493,5.2493,0,0,1-.2237-1.5889,5.1806,5.1806,0,0,1,.2237-1.582,3.3961,3.3961,0,0,1,.6513-1.1973,2.8137,2.8137,0,0,1,1.0567-.7627,3.6782,3.6782,0,0,1,1.4424-.2666,3.1857,3.1857,0,0,1,1.8271.49,2.753,2.753,0,0,1,1.043,1.3584l-1.47.6573a1.5212,1.5212,0,0,0-.47-.7627,1.3636,1.3636,0,0,0-.9306-.3008,1.3424,1.3424,0,0,0-1.127.4756,1.9727,1.9727,0,0,0-.3711,1.2461v1.33a1.941,1.941,0,0,0,.3711,1.2393,1.3494,1.3494,0,0,0,1.127.4688,1.394,1.394,0,0,0,.9941-.3292,2.2514,2.2514,0,0,0,.5459-.8183l1.3721.6572A2.8692,2.8692,0,0,1,523.749,276.1,3.2356,3.2356,0,0,1,521.9434,276.5838Z"/><path d="M529.125,276.5838a3.6356,3.6356,0,0,1-1.4492-.2734,2.9955,2.9955,0,0,1-1.0781-.7695,3.4325,3.4325,0,0,1-.6788-1.2041,5.4246,5.4246,0,0,1-.0068-3.1573,3.4121,3.4121,0,0,1,.665-1.1972,2.9421,2.9421,0,0,1,1.0635-.77,3.5666,3.5666,0,0,1,1.4278-.2734,3.4911,3.4911,0,0,1,1.4843.2939,2.8532,2.8532,0,0,1,1.0362.7989,3.4541,3.4541,0,0,1,.6093,1.1689,4.86,4.86,0,0,1,.2022,1.4209v.5879H527.543v.1807a1.786,1.786,0,0,0,.4482,1.2715,1.7283,1.7283,0,0,0,1.3291.48,1.9888,1.9888,0,0,0,1.1-.2774,3.1456,3.1456,0,0,0,.7627-.709l.9658,1.0811a3.0047,3.0047,0,0,1-1.2246.9892A4.2634,4.2634,0,0,1,529.125,276.5838Zm-.0283-6.3a1.4359,1.4359,0,0,0-1.1338.4756,1.7916,1.7916,0,0,0-.42,1.2324v.1114h2.9961v-.126a1.917,1.917,0,0,0-.3711-1.2246A1.2865,1.2865,0,0,0,529.0967,270.284Z"/><path d="M536.377,276.5838a3.9159,3.9159,0,0,1-1.7637-.3574,4.0454,4.0454,0,0,1-1.26-.9863l1.0918-1.0645a3.319,3.319,0,0,0,.8887.7276,2.2674,2.2674,0,0,0,1.1133.2666,1.5243,1.5243,0,0,0,.9306-.2246.7367.7367,0,0,0,.2871-.6153.6642.6642,0,0,0-.2031-.5117,1.2879,1.2879,0,0,0-.6924-.2588l-.7285-.0976a3.4646,3.4646,0,0,1-1.8125-.6787,1.8915,1.8915,0,0,1-.623-1.5333,2.2829,2.2829,0,0,1,.1953-.9589,2.035,2.035,0,0,1,.5605-.7286,2.5722,2.5722,0,0,1,.875-.4619,3.7832,3.7832,0,0,1,1.1407-.1611,5.2473,5.2473,0,0,1,.9453.0772,3.41,3.41,0,0,1,.749.2246,2.9144,2.9144,0,0,1,.6162.3632,5.9235,5.9235,0,0,1,.5459.4834l-1.05,1.05a2.7823,2.7823,0,0,0-.77-.56,2.1587,2.1587,0,0,0-.98-.2246,1.3548,1.3548,0,0,0-.8477.21.6707.6707,0,0,0-.2588.5459.6949.6949,0,0,0,.2168.5537,1.4993,1.4993,0,0,0,.7354.2725l.7422.0986q2.3657.3356,2.3662,2.1553a2.1746,2.1746,0,0,1-.2178.9736,2.2174,2.2174,0,0,1-.6084.7559,2.8971,2.8971,0,0,1-.9453.49A4.1163,4.1163,0,0,1,536.377,276.5838Z"/><path d="M350.5938,223.9715V214.2H354.99a3.22,3.22,0,0,1,1.211.2168,2.5545,2.5545,0,0,1,.917.6163,2.6478,2.6478,0,0,1,.5742.9589,3.9949,3.9949,0,0,1,0,2.4707,2.66,2.66,0,0,1-.5742.9522,2.5658,2.5658,0,0,1-.917.6162,3.22,3.22,0,0,1-1.211.2168h-2.5478v3.7236Zm1.8481-5.3193h2.38a1.1826,1.1826,0,0,0,.84-.2871,1.0648,1.0648,0,0,0,.3081-.8194v-.6435a1.0405,1.0405,0,0,0-.3081-.8125,1.2021,1.2021,0,0,0-.84-.28h-2.38Z"/><path d="M362.7178,219.5477l-1.3018,1.54v2.8838h-1.8481V214.2h1.8481v4.8155h.07l1.3863-1.834,2.4218-2.9815h2.128l-3.4019,4.0733,3.6821,5.6982h-2.1982Z"/><path d="M372.35,224.14a4.5993,4.5993,0,0,1-1.7427-.3145,3.4909,3.4909,0,0,1-1.33-.9453,4.2794,4.2794,0,0,1-.8472-1.5605,7.205,7.205,0,0,1-.294-2.1631,7.4882,7.4882,0,0,1,.294-2.1914,4.481,4.481,0,0,1,.8472-1.61,3.595,3.595,0,0,1,1.33-.9863,4.3357,4.3357,0,0,1,1.7427-.3359,3.9564,3.9564,0,0,1,2.1841.5595,3.85,3.85,0,0,1,1.3862,1.6944l-1.582.84a2.2257,2.2257,0,0,0-.686-1.0566,1.9622,1.9622,0,0,0-1.3023-.3994,2.0688,2.0688,0,0,0-1.645.7,2.892,2.892,0,0,0-.6089,1.96v1.54a2.8321,2.8321,0,0,0,.6089,1.9531,2.1009,2.1009,0,0,0,1.645.6787,2.008,2.008,0,0,0,1.3511-.4482,2.5888,2.5888,0,0,0,.7632-1.1055l1.498.8818a4.3108,4.3108,0,0,1-1.414,1.7012A3.7843,3.7843,0,0,1,372.35,224.14Z"/><path d="M380.582,224.14a4.6444,4.6444,0,0,1-2.1357-.4482,4.9684,4.9684,0,0,1-1.5049-1.1788l1.2461-1.206a3.5527,3.5527,0,0,0,1.127.89,3.0826,3.0826,0,0,0,1.3789.3057,1.95,1.95,0,0,0,1.288-.3682,1.2353,1.2353,0,0,0,.4346-.9931,1.1278,1.1278,0,0,0-.28-.792,1.8779,1.8779,0,0,0-1.05-.4444l-.9238-.1386q-2.9268-.4629-2.9267-2.8457a2.8035,2.8035,0,0,1,.2451-1.1914,2.5187,2.5187,0,0,1,.707-.9112,3.2785,3.2785,0,0,1,1.1133-.582,4.94,4.94,0,0,1,1.4765-.2031,4.7489,4.7489,0,0,1,1.9317.3642,3.7935,3.7935,0,0,1,1.414,1.08l-1.26,1.1924a2.9074,2.9074,0,0,0-.8819-.7217,2.7392,2.7392,0,0,0-1.3017-.2773,1.9865,1.9865,0,0,0-1.1973.2988.9864.9864,0,0,0-.3984.8389,1,1,0,0,0,.3213.8193,2.27,2.27,0,0,0,1.0361.3887l.91.1679a4.181,4.181,0,0,1,2.1914.9463,2.5121,2.5121,0,0,1,.707,1.8985,3.1533,3.1533,0,0,1-.2461,1.2685,2.73,2.73,0,0,1-.7129.9815,3.2621,3.2621,0,0,1-1.1484.6377A4.9781,4.9781,0,0,1,380.582,224.14Z"/><path d="M393.56,221.4237h-2.2119l-.4483,2.5478h-1.19l.4346-2.5478h-1.5264v-1.1475h1.7363l.3926-2.3808h-1.5127v-1.1475h1.7217L391.39,214.2H392.58l-.4492,2.5479h2.2265l.4336-2.5479h1.19l-.4345,2.5479h1.5263v1.1475h-1.7353l-.4063,2.3808h1.5254v1.1475h-1.7216l-.4483,2.5478h-1.1758Zm.1816-1.1475.4209-2.3808h-2.2129l-.42,2.3808Z"/><path d="M398.7109,223.9715v-1.498h2.6885V215.53h-.126l-2.1279,2.52-1.1475-.9659L400.42,214.2h2.7852v8.2735h2.24v1.498Z"/><path d="M407.1113,223.9715v-1.498h2.6875V215.53h-.1259l-2.128,2.52-1.1484-.9659,2.4219-2.8838h2.7871v8.2735h2.2392v1.498Z"/><path d="M269.4678,67.722V59.346h5.52V60.75h-3.936v2.0284h3.48V64.182h-3.48v2.1362h3.936V67.722Z"/><path d="M276.5718,67.722V61.4579h1.5356v1.0439h.06a2.005,2.005,0,0,1,.6059-.8457,1.75,1.75,0,0,1,1.146-.3423,1.8066,1.8066,0,0,1,1.4883.6362,2.8114,2.8114,0,0,1,.5161,1.8121v3.96h-1.5361V63.9178a1.7345,1.7345,0,0,0-.24-1.0078.9071.9071,0,0,0-.792-.3359,1.61,1.61,0,0,0-.4619.0659,1.2954,1.2954,0,0,0-.396.1919.9959.9959,0,0,0-.2818.312.8551.8551,0,0,0-.1084.438v4.14Z"/><path d="M286.1,67.8661a3.1538,3.1538,0,0,1-1.2358-.2281,2.3835,2.3835,0,0,1-.9063-.66A2.9684,2.9684,0,0,1,283.4,65.94a4.485,4.485,0,0,1-.1924-1.3618,4.4285,4.4285,0,0,1,.1924-1.356,2.9153,2.9153,0,0,1,.5576-1.0259,2.4192,2.4192,0,0,1,.9063-.6543,3.1556,3.1556,0,0,1,1.2358-.228,2.7257,2.7257,0,0,1,1.5659.42,2.3565,2.3565,0,0,1,.8941,1.1636l-1.26.5645a1.31,1.31,0,0,0-.4019-.6543A1.1692,1.1692,0,0,0,286.1,62.55a1.15,1.15,0,0,0-.9658.4078,1.6906,1.6906,0,0,0-.3179,1.0683v1.14a1.6616,1.6616,0,0,0,.3179,1.062,1.1566,1.1566,0,0,0,.9658.4023,1.197,1.197,0,0,0,.8521-.2822,1.9317,1.9317,0,0,0,.4682-.7022l1.1758.564a2.4579,2.4579,0,0,1-.9478,1.2422A2.78,2.78,0,0,1,286.1,67.8661Z"/><path d="M289.7837,67.722V61.4579h1.5356v1.2963h.06a1.9979,1.9979,0,0,1,.186-.4863,1.495,1.495,0,0,1,.33-.414,1.5763,1.5763,0,0,1,.4858-.2876,1.8172,1.8172,0,0,1,.6543-.1084h.336V62.91h-.48a2.4123,2.4123,0,0,0-1.1763.228.7927.7927,0,0,0-.396.7442v3.84Z"/><path d="M298.4355,61.4579h1.44l-2.52,7.38a3.1745,3.1745,0,0,1-.27.5821,1.4472,1.4472,0,0,1-.354.4018,1.3359,1.3359,0,0,1-.4917.228,2.8012,2.8012,0,0,1-.6723.0718h-.9238V68.8861h1.1279l.2881-.8745-2.2442-6.5537h1.524l1.0922,3.3051.4078,1.5806h.0722l.4322-1.5806Z"/><path d="M300.8833,61.4579h1.5356V62.49h.0484a1.5731,1.5731,0,0,1,.6357-.8579,1.8979,1.8979,0,0,1,1.0923-.3184,2.1405,2.1405,0,0,1,1.83.8462,3.99,3.99,0,0,1,.63,2.418,4.0411,4.0411,0,0,1-.63,2.436,2.1337,2.1337,0,0,1-1.83.8521,1.8427,1.8427,0,0,1-1.0864-.3243,1.674,1.674,0,0,1-.6416-.8637h-.0484v3.4438h-1.5356Zm2.82,5.1362a1.2722,1.2722,0,0,0,.9722-.396,1.4988,1.4988,0,0,0,.3716-1.0679V64.05a1.5207,1.5207,0,0,0-.3716-1.0742,1.2633,1.2633,0,0,0-.9722-.4018,1.4811,1.4811,0,0,0-.9179.2758.8723.8723,0,0,0-.3663.732v1.9922a.8748.8748,0,0,0,.3663.7558A1.5267,1.5267,0,0,0,303.7031,66.5941Z"/><path d="M309.9673,67.722a1.6355,1.6355,0,0,1-1.2061-.4131,1.5913,1.5913,0,0,1-.414-1.1792V62.6942h-.9243V61.4579h.48a.5738.5738,0,0,0,.4742-.1617.7858.7858,0,0,0,.1259-.4863V59.742h1.38v1.7159h1.2842v1.2363h-1.2842v3.792h1.1885V67.722Z"/><path d="M313.2671,60.5462a.9324.9324,0,0,1-.69-.2163.76.76,0,0,1-.21-.5517v-.24a.7606.7606,0,0,1,.21-.5517,1.1993,1.1993,0,0,1,1.3741,0,.7477.7477,0,0,1,.2163.5517v.24a.7469.7469,0,0,1-.2163.5517A.9354.9354,0,0,1,313.2671,60.5462Zm-.7676.9117h1.5357V67.722H312.5Z"/><path d="M318.2949,67.8661a3.0445,3.0445,0,0,1-1.206-.2281,2.4967,2.4967,0,0,1-.9121-.66,3.02,3.02,0,0,1-.5821-1.0381,4.2472,4.2472,0,0,1-.2041-1.3618,4.1939,4.1939,0,0,1,.2041-1.356,2.9677,2.9677,0,0,1,.5821-1.0259,2.536,2.536,0,0,1,.9121-.6543,3.0463,3.0463,0,0,1,1.206-.228,3.0909,3.0909,0,0,1,1.2119.228,2.5246,2.5246,0,0,1,.918.6543,2.9659,2.9659,0,0,1,.582,1.0259,4.2048,4.2048,0,0,1,.2041,1.356,4.2583,4.2583,0,0,1-.2041,1.3618,3.0185,3.0185,0,0,1-.582,1.0381,2.4857,2.4857,0,0,1-.918.66A3.0891,3.0891,0,0,1,318.2949,67.8661Zm0-1.2359a1.2506,1.2506,0,0,0,.96-.3721,1.5444,1.5444,0,0,0,.3481-1.0922V64.0018a1.5246,1.5246,0,0,0-.3481-1.08,1.2509,1.2509,0,0,0-.96-.3721,1.235,1.235,0,0,0-.9482.3721,1.524,1.524,0,0,0-.3477,1.08v1.1641a1.5439,1.5439,0,0,0,.3477,1.0922A1.2346,1.2346,0,0,0,318.2949,66.63Z"/><path d="M322.5669,67.722V61.4579h1.5356v1.0439h.06a2.0044,2.0044,0,0,1,.606-.8457,1.75,1.75,0,0,1,1.146-.3423,1.8065,1.8065,0,0,1,1.4882.6362,2.8114,2.8114,0,0,1,.5161,1.8121v3.96h-1.5361V63.9178a1.7345,1.7345,0,0,0-.24-1.0078.907.907,0,0,0-.792-.3359,1.61,1.61,0,0,0-.4619.0659,1.2954,1.2954,0,0,0-.396.1919.9971.9971,0,0,0-.2818.312.8551.8551,0,0,0-.1084.438v4.14Z"/><path d="M328.7949,69.534l3.4439-10.6919h1.2841L330.0791,69.534Z"/><path d="M334.9624,59.346h3.0483a3.9854,3.9854,0,0,1,1.482.2642,3.0237,3.0237,0,0,1,1.14.7856,3.5816,3.5816,0,0,1,.7324,1.3082,6.6219,6.6219,0,0,1,0,3.66,3.5811,3.5811,0,0,1-.7324,1.3081,3.0228,3.0228,0,0,1-1.14.7857,3.9874,3.9874,0,0,1-1.482.2641h-3.0483Zm3.0483,6.9722a1.9055,1.9055,0,0,0,1.41-.522,2.1811,2.1811,0,0,0,.522-1.602v-1.32a2.1814,2.1814,0,0,0-.522-1.6021,1.9058,1.9058,0,0,0-1.41-.522h-1.4643v5.5684Z"/><path d="M345.6665,67.8661a3.1293,3.1293,0,0,1-1.2417-.2339,2.57,2.57,0,0,1-.9243-.66,2.9508,2.9508,0,0,1-.582-1.0322,4.65,4.65,0,0,1-.0059-2.7056,2.938,2.938,0,0,1,.57-1.0263,2.5293,2.5293,0,0,1,.9121-.66,3.0455,3.0455,0,0,1,1.2242-.2344,2.9746,2.9746,0,0,1,1.2719.2525,2.4581,2.4581,0,0,1,.8882.6835,2.96,2.96,0,0,1,.522,1.002,4.1638,4.1638,0,0,1,.1738,1.2183v.5039h-4.1641v.1548a1.531,1.531,0,0,0,.3843,1.09,1.4858,1.4858,0,0,0,1.14.4111,1.6981,1.6981,0,0,0,.9419-.2383,2.6787,2.6787,0,0,0,.6543-.6079l.8281.9268a2.5791,2.5791,0,0,1-1.05.8486A3.6566,3.6566,0,0,1,345.6665,67.8661Zm-.0239-5.4a1.231,1.231,0,0,0-.9722.4077,1.5384,1.5384,0,0,0-.36,1.0561v.0962h2.5679v-.1084a1.6429,1.6429,0,0,0-.3179-1.05A1.1006,1.1006,0,0,0,345.6426,62.4662Z"/><path d="M352.3022,67.8661a3.1545,3.1545,0,0,1-1.2358-.2281,2.3824,2.3824,0,0,1-.9062-.66,2.9686,2.9686,0,0,1-.5577-1.0381,4.4851,4.4851,0,0,1-.1923-1.3618,4.4286,4.4286,0,0,1,.1923-1.356,2.9155,2.9155,0,0,1,.5577-1.0259,2.418,2.418,0,0,1,.9062-.6543,3.1563,3.1563,0,0,1,1.2358-.228,2.7258,2.7258,0,0,1,1.566.42,2.3564,2.3564,0,0,1,.894,1.1636l-1.26.5645a1.31,1.31,0,0,0-.4018-.6543,1.17,1.17,0,0,0-.7984-.2579,1.15,1.15,0,0,0-.9658.4078,1.6906,1.6906,0,0,0-.3178,1.0683v1.14a1.6616,1.6616,0,0,0,.3178,1.062,1.1566,1.1566,0,0,0,.9658.4023,1.197,1.197,0,0,0,.8521-.2822,1.9319,1.9319,0,0,0,.4683-.7022l1.1757.564a2.4583,2.4583,0,0,1-.9477,1.2422A2.78,2.78,0,0,1,352.3022,67.8661Z"/><path d="M355.9868,67.722V61.4579h1.5357v1.2963h.06a2.0023,2.0023,0,0,1,.1861-.4863,1.4928,1.4928,0,0,1,.33-.414,1.5768,1.5768,0,0,1,.4859-.2876,1.8169,1.8169,0,0,1,.6543-.1084h.3359V62.91h-.48a2.4116,2.4116,0,0,0-1.1762.228.7925.7925,0,0,0-.396.7442v3.84Z"/><path d="M364.6382,61.4579h1.44l-2.52,7.38a3.1745,3.1745,0,0,1-.27.5821,1.45,1.45,0,0,1-.354.4018,1.3359,1.3359,0,0,1-.4917.228,2.8021,2.8021,0,0,1-.6724.0718h-.9238V68.8861h1.1279l.2881-.8745-2.2441-6.5537h1.5239l1.0923,3.3051.4077,1.5806h.0723l.4321-1.5806Z"/><path d="M367.0864,61.4579h1.5357V62.49h.0483a1.5728,1.5728,0,0,1,.6358-.8579,1.8976,1.8976,0,0,1,1.0922-.3184,2.1405,2.1405,0,0,1,1.83.8462,3.99,3.99,0,0,1,.63,2.418,4.0411,4.0411,0,0,1-.63,2.436,2.1337,2.1337,0,0,1-1.83.8521,1.8427,1.8427,0,0,1-1.0864-.3243,1.674,1.674,0,0,1-.6416-.8637h-.0483v3.4438h-1.5357Zm2.82,5.1362a1.2719,1.2719,0,0,0,.9722-.396A1.4988,1.4988,0,0,0,371.25,65.13V64.05a1.5207,1.5207,0,0,0-.3716-1.0742,1.263,1.263,0,0,0-.9722-.4018,1.4811,1.4811,0,0,0-.9179.2758.8723.8723,0,0,0-.3662.732v1.9922a.8747.8747,0,0,0,.3662.7558A1.5267,1.5267,0,0,0,369.9062,66.5941Z"/><path d="M376.17,67.722a1.6347,1.6347,0,0,1-1.2055-.4131A1.5909,1.5909,0,0,1,374.55,66.13V62.6942h-.9243V61.4579h.48a.5737.5737,0,0,0,.4741-.1617.7851.7851,0,0,0,.126-.4863V59.742h1.38v1.7159H377.37v1.2363h-1.2842v3.792h1.1885V67.722Z"/><path d="M379.47,60.5462a.9349.9349,0,0,1-.69-.2163.7628.7628,0,0,1-.209-.5517v-.24a.7636.7636,0,0,1,.209-.5517,1.2007,1.2007,0,0,1,1.375,0,.7489.7489,0,0,1,.2158.5517v.24a.7481.7481,0,0,1-.2158.5517A.9381.9381,0,0,1,379.47,60.5462Zm-.7676.9117h1.5362V67.722h-1.5362Z"/><path d="M384.498,67.8661a3.0463,3.0463,0,0,1-1.206-.2281,2.4926,2.4926,0,0,1-.9121-.66,3.01,3.01,0,0,1-.582-1.0381,4.2583,4.2583,0,0,1-.2041-1.3618,4.2048,4.2048,0,0,1,.2041-1.356,2.9579,2.9579,0,0,1,.582-1.0259,2.5317,2.5317,0,0,1,.9121-.6543,3.048,3.048,0,0,1,1.206-.228,3.0953,3.0953,0,0,1,1.212.228,2.5208,2.5208,0,0,1,.9179.6543,2.96,2.96,0,0,1,.5821,1.0259,4.2075,4.2075,0,0,1,.2041,1.356A4.2611,4.2611,0,0,1,387.21,65.94a3.0122,3.0122,0,0,1-.5821,1.0381,2.4821,2.4821,0,0,1-.9179.66A3.0935,3.0935,0,0,1,384.498,67.8661Zm0-1.2359a1.249,1.249,0,0,0,.96-.3721,1.5464,1.5464,0,0,0,.3486-1.0922V64.0018a1.5266,1.5266,0,0,0-.3486-1.08,1.2493,1.2493,0,0,0-.96-.3721,1.2344,1.2344,0,0,0-.9482.3721,1.5268,1.5268,0,0,0-.3477,1.08v1.1641a1.5466,1.5466,0,0,0,.3477,1.0922A1.234,1.234,0,0,0,384.498,66.63Z"/><path d="M388.77,67.722V61.4579h1.5362v1.0439h.06a2.01,2.01,0,0,1,.6065-.8457,1.749,1.749,0,0,1,1.1455-.3423,1.8055,1.8055,0,0,1,1.4883.6362,2.812,2.812,0,0,1,.5166,1.8121v3.96h-1.5362V63.9178a1.7337,1.7337,0,0,0-.24-1.0078.907.907,0,0,0-.792-.3359,1.6134,1.6134,0,0,0-.4619.0659,1.2993,1.2993,0,0,0-.3965.1919,1.0125,1.0125,0,0,0-.2812.312.8541.8541,0,0,0-.1084.438v4.14Z"/><path d="M262.9463,73.7459h3.0483a3.9854,3.9854,0,0,1,1.482.2642,3.0237,3.0237,0,0,1,1.14.7856,3.5816,3.5816,0,0,1,.7324,1.3082,6.6244,6.6244,0,0,1,0,3.66,3.5811,3.5811,0,0,1-.7324,1.3081,3.0228,3.0228,0,0,1-1.14.7857,3.9874,3.9874,0,0,1-1.482.2641h-3.0483Zm3.0483,6.9722a1.9056,1.9056,0,0,0,1.41-.522,2.1815,2.1815,0,0,0,.522-1.602v-1.32a2.1818,2.1818,0,0,0-.522-1.6021,1.9059,1.9059,0,0,0-1.41-.5219H264.53v5.5683Z"/><path d="M271.8862,74.9461a.932.932,0,0,1-.69-.2163.7594.7594,0,0,1-.21-.5517v-.24a.76.76,0,0,1,.21-.5517,1.1991,1.1991,0,0,1,1.374,0,.7473.7473,0,0,1,.2163.5517v.24a.7465.7465,0,0,1-.2163.5517A.9352.9352,0,0,1,271.8862,74.9461Zm-.7675.9117h1.5356v6.2641h-1.5356Z"/><path d="M280.082,82.65a2.0646,2.0646,0,0,1-.1738.87,1.4793,1.4793,0,0,1-.57.63,3.0969,3.0969,0,0,1-1.02.3842,8.8809,8.8809,0,0,1-2.8677.03,3.2134,3.2134,0,0,1-.9063-.2881,1.203,1.203,0,0,1-.51-.4619,1.2413,1.2413,0,0,1-.1563-.624,1.111,1.111,0,0,1,.294-.8218,1.445,1.445,0,0,1,.8222-.3779v-.1323a1.0185,1.0185,0,0,1-.5942-.3785,1.0863,1.0863,0,0,1-.21-.667.9113.9113,0,0,1,.0962-.4262.9969.9969,0,0,1,.2578-.3189,1.5943,1.5943,0,0,1,.3663-.2221,2.1782,2.1782,0,0,1,.4316-.1382v-.0484a1.8764,1.8764,0,0,1-.8579-.7314,2.07,2.07,0,0,1-.2818-1.0908,1.9524,1.9524,0,0,1,.66-1.5406,2.8377,2.8377,0,0,1,1.9321-.582,4.5149,4.5149,0,0,1,.57.0361,2.55,2.55,0,0,1,.5224.12v-.2041a.7955.7955,0,0,1,.8877-.9121h.9722V75.93h-1.332v.168a1.8175,1.8175,0,0,1,.7319.72,2.111,2.111,0,0,1,.24,1.02,1.9324,1.9324,0,0,1-.6543,1.5245,2.8556,2.8556,0,0,1-1.938.5756,3.787,3.787,0,0,1-.96-.1079,1.026,1.026,0,0,0-.312.2222.4755.4755,0,0,0-.1319.3418q0,.468.816.4683h1.68a2.4485,2.4485,0,0,1,1.6739.4736A1.6858,1.6858,0,0,1,280.082,82.65Zm-1.44.18a.5383.5383,0,0,0-.24-.4677,1.5028,1.5028,0,0,0-.8277-.1685H275.438a.7659.7659,0,0,0-.3242.6484.646.646,0,0,0,.3.564,1.8948,1.8948,0,0,0,1.02.2036h.768a2.3524,2.3524,0,0,0,1.0977-.1919A.6306.6306,0,0,0,278.6421,82.83Zm-1.8482-3.9482q1.128,0,1.128-.9541v-.2031q0-.9545-1.128-.9546t-1.1279.9546v.2031Q275.666,78.8819,276.7939,78.8817Z"/><path d="M281.7378,74.9461a.932.932,0,0,1-.69-.2163.7594.7594,0,0,1-.21-.5517v-.24a.76.76,0,0,1,.21-.5517,1.1991,1.1991,0,0,1,1.374,0,.7477.7477,0,0,1,.2163.5517v.24a.7469.7469,0,0,1-.2163.5517A.9354.9354,0,0,1,281.7378,74.9461Zm-.7676.9117h1.5357v6.2641H280.97Z"/><path d="M286.2383,82.1219a1.6355,1.6355,0,0,1-1.2061-.4131,1.5913,1.5913,0,0,1-.414-1.1792V77.0941h-.9244V75.8578h.48a.5734.5734,0,0,0,.4741-.1617.7851.7851,0,0,0,.126-.4863V74.1419h1.38v1.7159h1.2842v1.2363h-1.2842v3.792h1.1885v1.2358Z"/><path d="M293.3779,82.1219a1.0764,1.0764,0,0,1-.7978-.2939,1.3488,1.3488,0,0,1-.3662-.7862h-.0723a1.4694,1.4694,0,0,1-.6357.918,2.1684,2.1684,0,0,1-1.188.3062,2.0288,2.0288,0,0,1-1.4761-.5025,1.7832,1.7832,0,0,1-.5161-1.34,1.6226,1.6226,0,0,1,.6963-1.4414,3.5059,3.5059,0,0,1,1.98-.4722H292.07V78.054a1.1335,1.1335,0,0,0-.2759-.8159,1.1833,1.1833,0,0,0-.8881-.2881,1.4733,1.4733,0,0,0-.87.2339,2.3037,2.3037,0,0,0-.5576.5581l-.9121-.8208a2.6546,2.6546,0,0,1,.9238-.8755,3.0424,3.0424,0,0,1,1.524-.332,2.8642,2.8642,0,0,1,1.9321.5747,2.0739,2.0739,0,0,1,.66,1.6524v2.9453h.624v1.2358ZM290.834,81.15a1.6148,1.6148,0,0,0,.876-.2261.74.74,0,0,0,.36-.6675v-.8223h-.9839q-1.2,0-1.2.7627v.2027a.6616.6616,0,0,0,.2461.5659A1.1532,1.1532,0,0,0,290.834,81.15Z"/><path d="M297.0137,82.1219a1.5287,1.5287,0,0,1-1.1641-.396,1.5678,1.5678,0,0,1-.3716-1.1162V73.242h1.5357v7.6441h.8281v1.2358Z"/><path d="M303.89,82.266a3.3568,3.3568,0,0,1-1.5117-.3062,3.48,3.48,0,0,1-1.08-.8457l.936-.9121a2.8337,2.8337,0,0,0,.7617.624,1.9467,1.9467,0,0,0,.9541.228,1.3085,1.3085,0,0,0,.7979-.1918.6336.6336,0,0,0,.2461-.5284.57.57,0,0,0-.1739-.438,1.11,1.11,0,0,0-.5942-.2221l-.624-.084a2.9681,2.9681,0,0,1-1.5537-.5816,1.6211,1.6211,0,0,1-.5342-1.3144,1.9518,1.9518,0,0,1,.1679-.8218,1.7457,1.7457,0,0,1,.48-.624,2.2057,2.2057,0,0,1,.75-.396,3.2529,3.2529,0,0,1,.978-.1382,4.4568,4.4568,0,0,1,.81.0664,2.9475,2.9475,0,0,1,.6421.1919,2.4849,2.4849,0,0,1,.5278.312,5.0152,5.0152,0,0,1,.4683.4141l-.9.9a2.3772,2.3772,0,0,0-.66-.48,1.8545,1.8545,0,0,0-.84-.1919,1.156,1.156,0,0,0-.7256.18.5735.5735,0,0,0-.2222.4683.5937.5937,0,0,0,.1861.4736,1.2871,1.2871,0,0,0,.63.2344l.6362.084q2.0274.2879,2.0278,1.8476a1.8624,1.8624,0,0,1-.186.834,1.9008,1.9008,0,0,1-.522.6484,2.4753,2.4753,0,0,1-.81.42A3.5242,3.5242,0,0,1,303.89,82.266Z"/><path d="M308.5933,74.9461a.9323.9323,0,0,1-.69-.2163.76.76,0,0,1-.21-.5517v-.24a.7606.7606,0,0,1,.21-.5517,1.1991,1.1991,0,0,1,1.374,0,.7474.7474,0,0,1,.2164.5517v.24a.7466.7466,0,0,1-.2164.5517A.935.935,0,0,1,308.5933,74.9461Zm-.7676.9117h1.5356v6.2641h-1.5356Z"/><path d="M316.79,82.65a2.0646,2.0646,0,0,1-.1739.87,1.4793,1.4793,0,0,1-.57.63,3.0969,3.0969,0,0,1-1.02.3842,8.8809,8.8809,0,0,1-2.8677.03,3.2126,3.2126,0,0,1-.9062-.2881,1.2027,1.2027,0,0,1-.51-.4619,1.2413,1.2413,0,0,1-.1563-.624,1.111,1.111,0,0,1,.294-.8218,1.445,1.445,0,0,1,.8223-.3779v-.1323a1.0187,1.0187,0,0,1-.5943-.3785,1.0863,1.0863,0,0,1-.21-.667.91.91,0,0,1,.0962-.4262.9956.9956,0,0,1,.2578-.3189,1.5915,1.5915,0,0,1,.3662-.2221,2.18,2.18,0,0,1,.4316-.1382v-.0484a1.8764,1.8764,0,0,1-.8579-.7314,2.07,2.07,0,0,1-.2817-1.0908,1.9523,1.9523,0,0,1,.66-1.5406,2.8378,2.8378,0,0,1,1.9322-.582,4.5134,4.5134,0,0,1,.57.0361,2.5526,2.5526,0,0,1,.5225.12v-.2041a.7954.7954,0,0,1,.8876-.9121h.9722V75.93h-1.332v.168a1.8168,1.8168,0,0,1,.7319.72,2.111,2.111,0,0,1,.24,1.02,1.9327,1.9327,0,0,1-.6543,1.5245,2.856,2.856,0,0,1-1.938.5756,3.7873,3.7873,0,0,1-.96-.1079,1.026,1.026,0,0,0-.312.2222.4754.4754,0,0,0-.1318.3418q0,.468.8159.4683h1.68a2.4484,2.4484,0,0,1,1.6738.4736A1.6859,1.6859,0,0,1,316.79,82.65Zm-1.44.18a.5383.5383,0,0,0-.24-.4677,1.5028,1.5028,0,0,0-.8277-.1685h-2.1362a.7659.7659,0,0,0-.3242.6484.646.646,0,0,0,.3.564,1.8948,1.8948,0,0,0,1.02.2036h.7681a2.3522,2.3522,0,0,0,1.0976-.1919A.63.63,0,0,0,315.35,82.83Zm-1.8481-3.9482q1.1278,0,1.1279-.9541v-.2031q0-.9545-1.1279-.9546t-1.128.9546v.2031Q312.3735,78.8819,313.5015,78.8817Z"/><path d="M317.6772,82.1219V75.8578h1.5357v1.0439h.06a2.0052,2.0052,0,0,1,.606-.8457,1.75,1.75,0,0,1,1.146-.3423,1.8067,1.8067,0,0,1,1.4883.6362,2.812,2.812,0,0,1,.5161,1.8121v3.96h-1.5361V78.3177a1.7336,1.7336,0,0,0-.24-1.0078.9068.9068,0,0,0-.792-.3359,1.6114,1.6114,0,0,0-.4619.0659,1.2977,1.2977,0,0,0-.396.1919.9968.9968,0,0,0-.2817.312.8541.8541,0,0,0-.1084.438v4.14Z"/><path d="M325.501,74.9461a.9324.9324,0,0,1-.69-.2163.76.76,0,0,1-.21-.5517v-.24a.7606.7606,0,0,1,.21-.5517,1.1993,1.1993,0,0,1,1.3741,0,.7477.7477,0,0,1,.2163.5517v.24a.7469.7469,0,0,1-.2163.5517A.9354.9354,0,0,1,325.501,74.9461Zm-.7676.9117h1.5356v6.2641h-1.5356Z"/><path d="M328.0454,82.1219V75.8578h1.5357v1.0439h.06a2.0044,2.0044,0,0,1,.606-.8457,1.75,1.75,0,0,1,1.146-.3423,1.8065,1.8065,0,0,1,1.4882.6362,2.8114,2.8114,0,0,1,.5162,1.8121v3.96h-1.5362V78.3177a1.7345,1.7345,0,0,0-.24-1.0078.907.907,0,0,0-.792-.3359,1.61,1.61,0,0,0-.4619.0659,1.2954,1.2954,0,0,0-.396.1919.9956.9956,0,0,0-.2817.312.8541.8541,0,0,0-.1084.438v4.14Z"/><path d="M340.7529,82.65a2.0646,2.0646,0,0,1-.1738.87,1.48,1.48,0,0,1-.57.63,3.0969,3.0969,0,0,1-1.02.3842,8.8809,8.8809,0,0,1-2.8677.03,3.2134,3.2134,0,0,1-.9063-.2881,1.203,1.203,0,0,1-.51-.4619,1.2413,1.2413,0,0,1-.1563-.624,1.111,1.111,0,0,1,.294-.8218,1.445,1.445,0,0,1,.8222-.3779v-.1323a1.0185,1.0185,0,0,1-.5942-.3785,1.0863,1.0863,0,0,1-.21-.667.9113.9113,0,0,1,.0962-.4262.9969.9969,0,0,1,.2578-.3189,1.5943,1.5943,0,0,1,.3663-.2221,2.1782,2.1782,0,0,1,.4316-.1382v-.0484a1.8764,1.8764,0,0,1-.8579-.7314,2.07,2.07,0,0,1-.2818-1.0908,1.9524,1.9524,0,0,1,.66-1.5406,2.8377,2.8377,0,0,1,1.9321-.582,4.5149,4.5149,0,0,1,.57.0361,2.55,2.55,0,0,1,.5224.12v-.2041a.7955.7955,0,0,1,.8877-.9121h.9722V75.93h-1.332v.168a1.8175,1.8175,0,0,1,.7319.72,2.111,2.111,0,0,1,.24,1.02,1.9324,1.9324,0,0,1-.6543,1.5245,2.8556,2.8556,0,0,1-1.938.5756,3.787,3.787,0,0,1-.96-.1079,1.026,1.026,0,0,0-.312.2222.4755.4755,0,0,0-.1319.3418q0,.468.816.4683h1.68a2.4485,2.4485,0,0,1,1.6739.4736A1.6858,1.6858,0,0,1,340.7529,82.65Zm-1.44.18a.5383.5383,0,0,0-.24-.4677,1.5028,1.5028,0,0,0-.8277-.1685h-2.1362a.7659.7659,0,0,0-.3242.6484.646.646,0,0,0,.3.564,1.8948,1.8948,0,0,0,1.02.2036h.768a2.3524,2.3524,0,0,0,1.0977-.1919A.6306.6306,0,0,0,339.313,82.83Zm-1.8482-3.9482q1.128,0,1.128-.9541v-.2031q0-.9545-1.128-.9546t-1.1279.9546v.2031Q336.3369,78.8819,337.4648,78.8817Z"/><path d="M341.0771,83.9339,344.521,73.242h1.2842l-3.4439,10.6919Z"/><path d="M348.4927,82.1219l-2.0879-6.2641h1.5117l.8765,2.7.6118,2.2319h.084l.6118-2.2319.852-2.7h1.4639l-2.1,6.2641Z"/><path d="M357.937,82.1219a1.0764,1.0764,0,0,1-.7978-.2939,1.3494,1.3494,0,0,1-.3663-.7862h-.0722a1.4691,1.4691,0,0,1-.6358.918,2.168,2.168,0,0,1-1.1879.3062,2.0288,2.0288,0,0,1-1.4761-.5025,1.7828,1.7828,0,0,1-.5161-1.34,1.6226,1.6226,0,0,1,.6963-1.4414,3.5058,3.5058,0,0,1,1.98-.4722h1.0679V78.054a1.1335,1.1335,0,0,0-.2759-.8159,1.1837,1.1837,0,0,0-.8882-.2881,1.473,1.473,0,0,0-.87.2339,2.3037,2.3037,0,0,0-.5576.5581l-.9121-.8208a2.6529,2.6529,0,0,1,.9238-.8755,3.0424,3.0424,0,0,1,1.524-.332,2.8644,2.8644,0,0,1,1.9321.5747,2.0738,2.0738,0,0,1,.66,1.6524v2.9453h.6241v1.2358Zm-2.5439-.9721a1.6142,1.6142,0,0,0,.8759-.2261.7394.7394,0,0,0,.36-.6675v-.8223h-.9839q-1.2,0-1.2.7627v.2027a.6616.6616,0,0,0,.2461.5659A1.1532,1.1532,0,0,0,355.3931,81.15Z"/><path d="M361.5728,82.1219a1.5286,1.5286,0,0,1-1.1641-.396,1.5673,1.5673,0,0,1-.3716-1.1162V73.242h1.5357v7.6441h.8281v1.2358Z"/><path d="M364.3325,74.9461a.932.932,0,0,1-.69-.2163.7594.7594,0,0,1-.21-.5517v-.24a.76.76,0,0,1,.21-.5517,1.1991,1.1991,0,0,1,1.374,0,.7477.7477,0,0,1,.2163.5517v.24a.7469.7469,0,0,1-.2163.5517A.9352.9352,0,0,1,364.3325,74.9461Zm-.7676.9117h1.5357v6.2641h-1.5357Z"/><path d="M370.7642,81.078h-.06a1.6009,1.6009,0,0,1-.6357.8637,1.8692,1.8692,0,0,1-1.0923.3243,2.1215,2.1215,0,0,1-1.8179-.8521,4.0447,4.0447,0,0,1-.63-2.436,3.9939,3.9939,0,0,1,.63-2.418,2.1282,2.1282,0,0,1,1.8179-.8462,1.8982,1.8982,0,0,1,1.0923.3184,1.5731,1.5731,0,0,1,.6357.8579h.06V73.242H372.3v8.88h-1.5361Zm-1.2959-.084a1.5548,1.5548,0,0,0,.9238-.2642.87.87,0,0,0,.3721-.7558V77.9818a.8681.8681,0,0,0-.3721-.732,1.5081,1.5081,0,0,0-.9238-.2758,1.2433,1.2433,0,0,0-.9659.4018,1.5339,1.5339,0,0,0-.3662,1.0742v1.08a1.5118,1.5118,0,0,0,.3662,1.0679A1.2519,1.2519,0,0,0,369.4683,80.994Z"/><path d="M378.6846,82.1219a1.0757,1.0757,0,0,1-.7979-.2939,1.3494,1.3494,0,0,1-.3662-.7862h-.0723a1.469,1.469,0,0,1-.6357.918,2.1693,2.1693,0,0,1-1.188.3062,2.0291,2.0291,0,0,1-1.4761-.5025,1.7832,1.7832,0,0,1-.5161-1.34,1.6229,1.6229,0,0,1,.6963-1.4414,3.5061,3.5061,0,0,1,1.98-.4722h1.0684V78.054a1.1337,1.1337,0,0,0-.2764-.8159,1.1832,1.1832,0,0,0-.8877-.2881,1.4733,1.4733,0,0,0-.8706.2339,2.3019,2.3019,0,0,0-.5576.5581l-.9121-.8208a2.6529,2.6529,0,0,1,.9238-.8755,3.0422,3.0422,0,0,1,1.5239-.332,2.8631,2.8631,0,0,1,1.9317.5747,2.0722,2.0722,0,0,1,.66,1.6524v2.9453h.625v1.2358Zm-2.544-.9721a1.6144,1.6144,0,0,0,.876-.2261.7409.7409,0,0,0,.36-.6675v-.8223h-.9844q-1.2,0-1.2.7627v.2027a.6613.6613,0,0,0,.2461.5659A1.1527,1.1527,0,0,0,376.1406,81.15Z"/><path d="M382.6924,82.1219a1.6347,1.6347,0,0,1-1.2061-.4131,1.5913,1.5913,0,0,1-.414-1.1792V77.0941h-.9239V75.8578h.48a.5733.5733,0,0,0,.4737-.1617.7855.7855,0,0,0,.1269-.4863V74.1419h1.3789v1.7159h1.2852v1.2363h-1.2852v3.792h1.19v1.2358Z"/><path d="M385.9922,74.9461a.9318.9318,0,0,1-.69-.2163.7594.7594,0,0,1-.21-.5517v-.24a.76.76,0,0,1,.21-.5517,1.1991,1.1991,0,0,1,1.374,0,.7461.7461,0,0,1,.2168.5517v.24a.7453.7453,0,0,1-.2168.5517A.9356.9356,0,0,1,385.9922,74.9461Zm-.7676.9117H386.76v6.2641h-1.5352Z"/><path d="M391.02,82.266a3.0413,3.0413,0,0,1-1.205-.2281,2.4937,2.4937,0,0,1-.9122-.66,3.0137,3.0137,0,0,1-.582-1.0381,4.2328,4.2328,0,0,1-.2051-1.3618,4.18,4.18,0,0,1,.2051-1.356,2.9611,2.9611,0,0,1,.582-1.0259,2.533,2.533,0,0,1,.9122-.6543,3.043,3.043,0,0,1,1.205-.228,3.096,3.096,0,0,1,1.2129.228,2.53,2.53,0,0,1,.918.6543,2.9755,2.9755,0,0,1,.582,1.0259,4.2331,4.2331,0,0,1,.2031,1.356,4.287,4.287,0,0,1-.2031,1.3618,3.0284,3.0284,0,0,1-.582,1.0381,2.4906,2.4906,0,0,1-.918.66A3.0942,3.0942,0,0,1,391.02,82.266Zm0-1.2359a1.2532,1.2532,0,0,0,.961-.372,1.5471,1.5471,0,0,0,.3476-1.0923V78.4017a1.5268,1.5268,0,0,0-.3476-1.08,1.2532,1.2532,0,0,0-.961-.3721,1.232,1.232,0,0,0-.9472.3721,1.5217,1.5217,0,0,0-.3477,1.08v1.1641a1.542,1.542,0,0,0,.3477,1.0923A1.2319,1.2319,0,0,0,391.02,81.03Z"/><path d="M395.292,82.1219V75.8578h1.5361v1.0439h.06a2.0018,2.0018,0,0,1,.6064-.8457,1.7473,1.7473,0,0,1,1.1455-.3423,1.8079,1.8079,0,0,1,1.4883.6362,2.8115,2.8115,0,0,1,.5166,1.8121v3.96h-1.5371V78.3177a1.7345,1.7345,0,0,0-.24-1.0078.9062.9062,0,0,0-.791-.3359,1.62,1.62,0,0,0-.4629.0659,1.3039,1.3039,0,0,0-.3955.1919,1.0048,1.0048,0,0,0-.2823.312.8547.8547,0,0,0-.1074.438v4.14Z"/><path d="M16.7,22.1053v-9.772h6.44v1.6382H18.5479v2.3658h4.06v1.6381h-4.06v2.4917H23.14v1.6382Z"/><path d="M24.9878,22.1053V14.7972H26.78v1.2183h.07a2.3429,2.3429,0,0,1,.707-.9873,2.0411,2.0411,0,0,1,1.337-.399,2.1071,2.1071,0,0,1,1.7363.7422,3.28,3.28,0,0,1,.6015,2.1138v4.62H29.44v-4.438a2.0256,2.0256,0,0,0-.28-1.1758,1.0577,1.0577,0,0,0-.9239-.392,1.8964,1.8964,0,0,0-.539.0766,1.5165,1.5165,0,0,0-.4619.2241,1.1682,1.1682,0,0,0-.3291.3643.9987.9987,0,0,0-.126.5107v4.83Z"/><path d="M36.1035,22.2733a3.68,3.68,0,0,1-1.4419-.2661,2.7824,2.7824,0,0,1-1.0571-.77,3.4583,3.4583,0,0,1-.6509-1.211,5.2466,5.2466,0,0,1-.2241-1.5889,5.1807,5.1807,0,0,1,.2241-1.582,3.3915,3.3915,0,0,1,.6509-1.1968,2.8121,2.8121,0,0,1,1.0571-.7631,3.678,3.678,0,0,1,1.4419-.2662,3.1826,3.1826,0,0,1,1.8272.49,2.7511,2.7511,0,0,1,1.0429,1.3579l-1.47.6577a1.525,1.525,0,0,0-.4687-.7627,1.3629,1.3629,0,0,0-.9312-.3013,1.3409,1.3409,0,0,0-1.1269.4761,1.9687,1.9687,0,0,0-.3711,1.2461v1.33a1.9375,1.9375,0,0,0,.3711,1.2388,1.3482,1.3482,0,0,0,1.1269.4692,1.3976,1.3976,0,0,0,.9942-.3291,2.26,2.26,0,0,0,.5459-.8189l1.372.6578A2.8708,2.8708,0,0,1,37.91,21.79,3.2425,3.2425,0,0,1,36.1035,22.2733Z"/><path d="M40.4014,22.1053V14.7972h1.792v1.5122h.07a2.3225,2.3225,0,0,1,.2173-.5669,1.7354,1.7354,0,0,1,.3847-.4834,1.8531,1.8531,0,0,1,.5669-.3359,2.1264,2.1264,0,0,1,.7632-.126h.3921v1.6943h-.56a2.81,2.81,0,0,0-1.372.2657.9244.9244,0,0,0-.4619.8681v4.48Z"/><path d="M50.4951,14.7972h1.68l-2.94,8.61a3.6919,3.6919,0,0,1-.315.6792,1.6908,1.6908,0,0,1-.4131.4692,1.547,1.547,0,0,1-.5737.2656,3.2458,3.2458,0,0,1-.7842.084H46.0708V23.4632h1.3164l.3359-1.02-2.6181-7.646h1.7778l1.2744,3.856.4756,1.8437h.084l.5044-1.8437Z"/><path d="M53.3511,14.7972h1.792v1.2041h.0556A1.841,1.841,0,0,1,55.9409,15a2.215,2.215,0,0,1,1.2739-.3711,2.4986,2.4986,0,0,1,2.1353.9873,4.66,4.66,0,0,1,.7349,2.8208,4.72,4.72,0,0,1-.7349,2.8418,2.4913,2.4913,0,0,1-2.1353.9942,2.151,2.151,0,0,1-1.267-.3779,1.9554,1.9554,0,0,1-.7491-1.0079h-.0556v4.0176h-1.792Zm3.29,5.9922a1.4859,1.4859,0,0,0,1.1338-.4619,1.7474,1.7474,0,0,0,.4341-1.2461v-1.26a1.7737,1.7737,0,0,0-.4341-1.2529,1.4739,1.4739,0,0,0-1.1338-.4687,1.7309,1.7309,0,0,0-1.0713.3217,1.0178,1.0178,0,0,0-.4267.854V19.6a1.0208,1.0208,0,0,0,.4267.8818A1.7822,1.7822,0,0,0,56.6411,20.7894Z"/><path d="M63.9487,22.1053a1.91,1.91,0,0,1-1.4067-.4814,1.8586,1.8586,0,0,1-.4829-1.376V16.2391H60.981V14.7972h.56a.6679.6679,0,0,0,.5528-.189.9133.9133,0,0,0,.1469-.5668V12.7953h1.61v2.0019h1.4975v1.4419H63.8511v4.4243h1.3857v1.4419Z"/><path d="M67.7988,13.7332a1.0871,1.0871,0,0,1-.8051-.2519.8849.8849,0,0,1-.2452-.644v-.28a.8849.8849,0,0,1,.2452-.6441,1.401,1.401,0,0,1,1.603,0,.8727.8727,0,0,1,.2519.6441v.28a.8726.8726,0,0,1-.2519.644A1.0913,1.0913,0,0,1,67.7988,13.7332Zm-.896,1.064h1.792v7.3081h-1.792Z"/><path d="M70.7666,22.1053V14.7972h1.792v1.2183h.07a2.3429,2.3429,0,0,1,.707-.9873,2.0411,2.0411,0,0,1,1.337-.399,2.1071,2.1071,0,0,1,1.7363.7422,3.28,3.28,0,0,1,.6016,2.1138v4.62h-1.792v-4.438a2.0256,2.0256,0,0,0-.28-1.1758,1.0577,1.0577,0,0,0-.9239-.392,1.8964,1.8964,0,0,0-.539.0766,1.5165,1.5165,0,0,0-.4619.2241,1.1694,1.1694,0,0,0-.3291.3643.9987.9987,0,0,0-.126.5107v4.83Z"/><path d="M85.5923,22.7215a2.4047,2.4047,0,0,1-.2031,1.0147,1.7288,1.7288,0,0,1-.6646.7353,3.61,3.61,0,0,1-1.19.4478,10.3811,10.3811,0,0,1-3.3457.0351,3.77,3.77,0,0,1-1.0572-.3359,1.41,1.41,0,0,1-.5947-.5391,1.4515,1.4515,0,0,1-.1821-.728,1.296,1.296,0,0,1,.3428-.959,1.687,1.687,0,0,1,.9589-.4409v-.1543a1.19,1.19,0,0,1-.6928-.4414,1.2664,1.2664,0,0,1-.2451-.7783,1.0657,1.0657,0,0,1,.1123-.4976,1.1517,1.1517,0,0,1,.3007-.3716,1.8337,1.8337,0,0,1,.4273-.2592,2.5493,2.5493,0,0,1,.5039-.1617v-.0556a2.1927,2.1927,0,0,1-1.001-.8535,2.414,2.414,0,0,1-.3291-1.273,2.2767,2.2767,0,0,1,.77-1.7973,3.3106,3.3106,0,0,1,2.2539-.6788,5.2823,5.2823,0,0,1,.6651.042,2.9981,2.9981,0,0,1,.6089.14v-.2383a.9284.9284,0,0,1,1.0361-1.064H85.2v1.3721H83.6465v.1963a2.1212,2.1212,0,0,1,.854.84,2.4651,2.4651,0,0,1,.28,1.19,2.2538,2.2538,0,0,1-.7627,1.7778,3.33,3.33,0,0,1-2.2613.6724,4.4107,4.4107,0,0,1-1.12-.126,1.2091,1.2091,0,0,0-.3637.2588.5531.5531,0,0,0-.1543.3989q0,.5464.9521.5459h1.96a2.8553,2.8553,0,0,1,1.9531.5532A1.9671,1.9671,0,0,1,85.5923,22.7215Zm-1.68.21a.6308.6308,0,0,0-.28-.5464,1.76,1.76,0,0,0-.9658-.1958H80.1743a.8919.8919,0,0,0-.3779.7559.7534.7534,0,0,0,.35.6582,2.206,2.206,0,0,0,1.19.2378h.896a2.7475,2.7475,0,0,0,1.2808-.2237A.7365.7365,0,0,0,83.9126,22.9315Zm-2.1563-4.606q1.3162,0,1.316-1.1137v-.2369q0-1.1132-1.316-1.1137T80.44,16.9749v.2369Q80.44,18.3251,81.7563,18.3255Z"/><path d="M95.3086,22.1053a1.2584,1.2584,0,0,1-.9312-.3428,1.5731,1.5731,0,0,1-.4267-.9169h-.084a1.7167,1.7167,0,0,1-.7422,1.0708,2.5321,2.5321,0,0,1-1.3862.3569,2.3666,2.3666,0,0,1-1.7217-.586,2.0813,2.0813,0,0,1-.602-1.5634,1.8926,1.8926,0,0,1,.812-1.6812,4.0888,4.0888,0,0,1,2.31-.5512h1.2461v-.5323a1.3206,1.3206,0,0,0-.3223-.9521,1.3839,1.3839,0,0,0-1.0361-.336,1.7191,1.7191,0,0,0-1.0146.273,2.6939,2.6939,0,0,0-.6514.6514l-1.064-.9581a3.09,3.09,0,0,1,1.0782-1.0205,3.5441,3.5441,0,0,1,1.7778-.3877,3.3425,3.3425,0,0,1,2.2544.67,2.4194,2.4194,0,0,1,.77,1.9277v3.436h.7275v1.4419ZM92.34,20.9715a1.8848,1.8848,0,0,0,1.022-.2641.8626.8626,0,0,0,.42-.7788v-.9595H92.6343q-1.4,0-1.4.89v.2364a.7719.7719,0,0,0,.2871.66A1.3406,1.3406,0,0,0,92.34,20.9715Z"/><path d="M97.7583,14.7972H99.55v1.2041h.0557A1.8409,1.8409,0,0,1,100.3481,15a2.215,2.215,0,0,1,1.274-.3711,2.4984,2.4984,0,0,1,2.1352.9873,4.659,4.659,0,0,1,.7349,2.8208,4.7191,4.7191,0,0,1-.7349,2.8418,2.4911,2.4911,0,0,1-2.1352.9942,2.1513,2.1513,0,0,1-1.2671-.3779,1.9547,1.9547,0,0,1-.749-1.0079H99.55v4.0176h-1.792Zm3.29,5.9922a1.4859,1.4859,0,0,0,1.1338-.4619,1.7474,1.7474,0,0,0,.4341-1.2461v-1.26a1.7737,1.7737,0,0,0-.4341-1.2529,1.4739,1.4739,0,0,0-1.1338-.4687,1.7306,1.7306,0,0,0-1.0712.3217,1.0177,1.0177,0,0,0-.4268.854V19.6a1.0207,1.0207,0,0,0,.4268.8818A1.7819,1.7819,0,0,0,101.0483,20.7894Z"/><path d="M106.1582,14.7972h1.792v1.2041h.0557A1.8409,1.8409,0,0,1,108.748,15a2.215,2.215,0,0,1,1.274-.3711,2.4984,2.4984,0,0,1,2.1352.9873,4.659,4.659,0,0,1,.7349,2.8208,4.7191,4.7191,0,0,1-.7349,2.8418,2.4911,2.4911,0,0,1-2.1352.9942,2.1513,2.1513,0,0,1-1.2671-.3779,1.9547,1.9547,0,0,1-.749-1.0079H107.95v4.0176h-1.792Zm3.29,5.9922a1.4858,1.4858,0,0,0,1.1338-.4619,1.7474,1.7474,0,0,0,.4341-1.2461v-1.26a1.7737,1.7737,0,0,0-.4341-1.2529,1.4737,1.4737,0,0,0-1.1338-.4687,1.7306,1.7306,0,0,0-1.0712.3217,1.0177,1.0177,0,0,0-.4268.854V19.6a1.0207,1.0207,0,0,0,.4268.8818A1.7819,1.7819,0,0,0,109.4482,20.7894Z"/><path d="M116.35,22.1053a1.7823,1.7823,0,0,1-1.3579-.4619,1.828,1.828,0,0,1-.4341-1.3022V11.7455h1.792v8.9179h.9658v1.4419Z"/><path d="M119.57,13.7332a1.0875,1.0875,0,0,1-.8052-.2519.8852.8852,0,0,1-.2451-.644v-.28a.8853.8853,0,0,1,.2451-.6441,1.4012,1.4012,0,0,1,1.6031,0,.8727.8727,0,0,1,.2519.6441v.28a.8726.8726,0,0,1-.2519.644A1.0913,1.0913,0,0,1,119.57,13.7332Zm-.896,1.064h1.792v7.3081h-1.792Z"/><path d="M125.4219,22.2733a3.68,3.68,0,0,1-1.4419-.2661,2.7816,2.7816,0,0,1-1.0571-.77,3.4583,3.4583,0,0,1-.6509-1.211,5.2466,5.2466,0,0,1-.2241-1.5889,5.1807,5.1807,0,0,1,.2241-1.582,3.3915,3.3915,0,0,1,.6509-1.1968,2.8113,2.8113,0,0,1,1.0571-.7631,3.678,3.678,0,0,1,1.4419-.2662,3.182,3.182,0,0,1,1.8271.49,2.7513,2.7513,0,0,1,1.043,1.3579l-1.47.6577a1.5252,1.5252,0,0,0-.4688-.7627,1.3626,1.3626,0,0,0-.9311-.3013,1.3413,1.3413,0,0,0-1.127.4761,1.9693,1.9693,0,0,0-.3711,1.2461v1.33a1.9381,1.9381,0,0,0,.3711,1.2388,1.3485,1.3485,0,0,0,1.127.4692,1.3973,1.3973,0,0,0,.9941-.3291,2.2589,2.2589,0,0,0,.5459-.8189l1.3721.6578a2.87,2.87,0,0,1-1.106,1.4492A3.2423,3.2423,0,0,1,125.4219,22.2733Z"/><path d="M135.0957,22.1053a1.258,1.258,0,0,1-.9311-.3428,1.5732,1.5732,0,0,1-.4268-.9169h-.084a1.7167,1.7167,0,0,1-.7422,1.0708,2.5321,2.5321,0,0,1-1.3862.3569,2.3666,2.3666,0,0,1-1.7217-.586,2.0813,2.0813,0,0,1-.602-1.5634,1.8926,1.8926,0,0,1,.812-1.6812,4.0888,4.0888,0,0,1,2.31-.5512H133.57v-.5323a1.321,1.321,0,0,0-.3222-.9521,1.3844,1.3844,0,0,0-1.0362-.336,1.7191,1.7191,0,0,0-1.0146.273,2.6957,2.6957,0,0,0-.6514.6514l-1.064-.9581a3.0907,3.0907,0,0,1,1.0782-1.0205,3.5441,3.5441,0,0,1,1.7778-.3877,3.3425,3.3425,0,0,1,2.2544.67,2.4194,2.4194,0,0,1,.77,1.9277v3.436h.7276v1.4419Zm-2.9683-1.1338a1.8848,1.8848,0,0,0,1.022-.2641.8626.8626,0,0,0,.42-.7788v-.9595h-1.1484q-1.4,0-1.4.89v.2364a.7719.7719,0,0,0,.2871.66A1.3406,1.3406,0,0,0,132.1274,20.9715Z"/><path d="M139.7715,22.1053a1.91,1.91,0,0,1-1.4068-.4814,1.859,1.859,0,0,1-.4829-1.376V16.2391h-1.0781V14.7972h.56a.6677.6677,0,0,0,.5527-.189.9133.9133,0,0,0,.147-.5668V12.7953h1.61v2.0019h1.4976v1.4419h-1.4976v4.4243H141.06v1.4419Z"/><path d="M143.6216,13.7332a1.0873,1.0873,0,0,1-.8052-.2519.8848.8848,0,0,1-.2451-.644v-.28a.8849.8849,0,0,1,.2451-.6441,1.401,1.401,0,0,1,1.603,0,.8724.8724,0,0,1,.252.6441v.28a.8723.8723,0,0,1-.252.644A1.0909,1.0909,0,0,1,143.6216,13.7332Zm-.896,1.064h1.792v7.3081h-1.792Z"/><path d="M149.4873,22.2733a3.5542,3.5542,0,0,1-1.4072-.2661,2.92,2.92,0,0,1-1.064-.77,3.51,3.51,0,0,1-.6787-1.211,4.9479,4.9479,0,0,1-.2383-1.5889,4.886,4.886,0,0,1,.2383-1.582,3.4432,3.4432,0,0,1,.6787-1.1968,2.9529,2.9529,0,0,1,1.064-.7631,3.5525,3.5525,0,0,1,1.4072-.2662,3.6042,3.6042,0,0,1,1.4141.2662,2.9372,2.9372,0,0,1,1.0708.7631,3.46,3.46,0,0,1,.6792,1.1968,4.9,4.9,0,0,1,.2378,1.582,4.962,4.962,0,0,1-.2378,1.5889,3.5268,3.5268,0,0,1-.6792,1.211,2.9045,2.9045,0,0,1-1.0708.77A3.606,3.606,0,0,1,149.4873,22.2733Zm0-1.4419a1.4585,1.4585,0,0,0,1.12-.4341,1.8005,1.8005,0,0,0,.4058-1.2739V17.7655a1.78,1.78,0,0,0-.4058-1.26,1.4607,1.4607,0,0,0-1.12-.4341,1.442,1.442,0,0,0-1.106.4341,1.7786,1.7786,0,0,0-.4062,1.26v1.3579a1.7987,1.7987,0,0,0,.4062,1.2739A1.44,1.44,0,0,0,149.4873,20.8314Z"/><path d="M154.4712,22.1053V14.7972h1.792v1.2183h.07a2.3429,2.3429,0,0,1,.707-.9873,2.0411,2.0411,0,0,1,1.337-.399,2.1071,2.1071,0,0,1,1.7363.7422,3.28,3.28,0,0,1,.6015,2.1138v4.62h-1.7919v-4.438a2.0256,2.0256,0,0,0-.28-1.1758,1.0577,1.0577,0,0,0-.9239-.392,1.8964,1.8964,0,0,0-.539.0766,1.5165,1.5165,0,0,0-.4619.2241,1.1682,1.1682,0,0,0-.3291.3643.9987.9987,0,0,0-.126.5107v4.83Z"/><path d="M170.3745,20.8875h-.07a2.4044,2.4044,0,0,1-.2588.5249,1.92,1.92,0,0,1-.4063.441,1.8509,1.8509,0,0,1-.5878.3081,2.566,2.566,0,0,1-.7911.1118,2.104,2.104,0,0,1-1.7358-.7422,3.275,3.275,0,0,1-.602-2.1138v-4.62h1.7919v4.438a1.9263,1.9263,0,0,0,.294,1.1553,1.0877,1.0877,0,0,0,.938.3989,1.9955,1.9955,0,0,0,.5249-.07,1.3208,1.3208,0,0,0,.4551-.2168,1.2125,1.2125,0,0,0,.3217-.3638,1.0019,1.0019,0,0,0,.126-.5112v-4.83h1.792v7.3081h-1.792Z"/><path d="M176.6328,22.2733a3.9245,3.9245,0,0,1-1.7641-.3569,4.0609,4.0609,0,0,1-1.26-.9869l1.0923-1.0644a3.2971,3.2971,0,0,0,.8891.728,2.2645,2.2645,0,0,0,1.1128.2661,1.5256,1.5256,0,0,0,.9312-.2241.7384.7384,0,0,0,.2866-.6157.6649.6649,0,0,0-.2026-.5113,1.2936,1.2936,0,0,0-.6934-.2587l-.7275-.0982a3.4672,3.4672,0,0,1-1.8135-.6787,1.8935,1.8935,0,0,1-.6226-1.5332,2.2713,2.2713,0,0,1,.1958-.959,2.0318,2.0318,0,0,1,.56-.728,2.5647,2.5647,0,0,1,.875-.4619,3.7816,3.7816,0,0,1,1.1411-.1612,5.1956,5.1956,0,0,1,.9448.0772,3.4316,3.4316,0,0,1,.7491.2241,2.8959,2.8959,0,0,1,.6162.3638,5.9149,5.9149,0,0,1,.5459.4829l-1.05,1.05a2.7729,2.7729,0,0,0-.77-.56,2.1593,2.1593,0,0,0-.98-.2241,1.3485,1.3485,0,0,0-.8467.21.67.67,0,0,0-.2593.5459.6927.6927,0,0,0,.2173.5532,1.5025,1.5025,0,0,0,.7349.2729l.7422.0982q2.3657.3354,2.3657,2.1557a2.1755,2.1755,0,0,1-.2168.9732,2.2212,2.2212,0,0,1-.6094.7558,2.8761,2.8761,0,0,1-.9448.49A4.1118,4.1118,0,0,1,176.6328,22.2733Z"/><path d="M182.1206,13.7332a1.0875,1.0875,0,0,1-.8052-.2519.8852.8852,0,0,1-.2451-.644v-.28a.8853.8853,0,0,1,.2451-.6441,1.4012,1.4012,0,0,1,1.6031,0,.8727.8727,0,0,1,.2519.6441v.28a.8726.8726,0,0,1-.2519.644A1.0913,1.0913,0,0,1,182.1206,13.7332Zm-.896,1.064h1.792v7.3081h-1.792Z"/><path d="M185.0889,22.1053V14.7972h1.792v1.2183h.07a2.342,2.342,0,0,1,.707-.9873,2.041,2.041,0,0,1,1.3369-.399,2.1072,2.1072,0,0,1,1.7364.7422,3.2805,3.2805,0,0,1,.6015,2.1138v4.62h-1.792v-4.438a2.0248,2.0248,0,0,0-.28-1.1758,1.0575,1.0575,0,0,0-.9238-.392,1.8964,1.8964,0,0,0-.539.0766,1.5182,1.5182,0,0,0-.462.2241,1.1706,1.1706,0,0,0-.3291.3643,1,1,0,0,0-.1259.5107v4.83Z"/><path d="M199.9146,22.7215a2.4031,2.4031,0,0,1-.2032,1.0147,1.7279,1.7279,0,0,1-.6645.7353,3.61,3.61,0,0,1-1.19.4478,10.3811,10.3811,0,0,1-3.3457.0351,3.7706,3.7706,0,0,1-1.0571-.3359,1.4089,1.4089,0,0,1-.5947-.5391,1.4515,1.4515,0,0,1-.1821-.728,1.296,1.296,0,0,1,.3427-.959,1.6873,1.6873,0,0,1,.959-.4409v-.1543a1.19,1.19,0,0,1-.6929-.4414,1.267,1.267,0,0,1-.2451-.7783,1.0657,1.0657,0,0,1,.1123-.4976,1.152,1.152,0,0,1,.3008-.3716,1.8337,1.8337,0,0,1,.4273-.2592,2.5472,2.5472,0,0,1,.5039-.1617v-.0556a2.1917,2.1917,0,0,1-1.001-.8535,2.414,2.414,0,0,1-.3291-1.273,2.2764,2.2764,0,0,1,.77-1.7973,3.3106,3.3106,0,0,1,2.2539-.6788,5.2835,5.2835,0,0,1,.6651.042,2.9971,2.9971,0,0,1,.6088.14v-.2383a.9285.9285,0,0,1,1.0362-1.064h1.1338v1.3721h-1.5537v.1963a2.1218,2.1218,0,0,1,.854.84,2.465,2.465,0,0,1,.28,1.19,2.2538,2.2538,0,0,1-.7627,1.7778,3.33,3.33,0,0,1-2.2612.6724,4.4107,4.4107,0,0,1-1.12-.126,1.21,1.21,0,0,0-.3638.2588.5535.5535,0,0,0-.1543.3989q0,.5464.9522.5459h1.96a2.8556,2.8556,0,0,1,1.9532.5532A1.9674,1.9674,0,0,1,199.9146,22.7215Zm-1.68.21a.6308.6308,0,0,0-.28-.5464,1.76,1.76,0,0,0-.9658-.1958h-2.4922a.8917.8917,0,0,0-.3779.7559.7534.7534,0,0,0,.35.6582,2.2058,2.2058,0,0,0,1.19.2378h.896a2.7471,2.7471,0,0,0,1.2807-.2237A.7365.7365,0,0,0,198.2349,22.9315Zm-2.1563-4.606q1.3162,0,1.3159-1.1137v-.2369q0-1.1132-1.3159-1.1137t-1.3159,1.1137v.2369Q194.7627,18.3251,196.0786,18.3255Z"/><path d="M206.5361,22.1053a1.91,1.91,0,0,1-1.4067-.4814,1.8586,1.8586,0,0,1-.4829-1.376V16.2391h-1.0781V14.7972h.56a.6679.6679,0,0,0,.5528-.189.9133.9133,0,0,0,.1469-.5668V12.7953h1.61v2.0019h1.4975v1.4419h-1.4975v4.4243h1.3857v1.4419Z"/><path d="M209.49,11.7455h1.792v4.27h.07a2.342,2.342,0,0,1,.707-.9873,2.041,2.041,0,0,1,1.3369-.399,2.107,2.107,0,0,1,1.7363.7422,3.28,3.28,0,0,1,.6016,2.1138v4.62h-1.792v-4.438a2.0256,2.0256,0,0,0-.28-1.1758,1.0575,1.0575,0,0,0-.9238-.392,1.8976,1.8976,0,0,0-.5391.0766,1.5188,1.5188,0,0,0-.4619.2241,1.1706,1.1706,0,0,0-.3291.3643.9987.9987,0,0,0-.126.5107v4.83H209.49Z"/><path d="M220.6763,22.2733A3.6443,3.6443,0,0,1,219.2271,22a2.9959,2.9959,0,0,1-1.0782-.77,3.4321,3.4321,0,0,1-.6787-1.2041,5.426,5.426,0,0,1-.0073-3.1567,3.4408,3.4408,0,0,1,.665-1.1973,2.9509,2.9509,0,0,1,1.064-.77,3.5655,3.5655,0,0,1,1.4282-.273,3.4814,3.4814,0,0,1,1.4839.294,2.862,2.862,0,0,1,1.0361.7983,3.4449,3.4449,0,0,1,.6089,1.169,4.8433,4.8433,0,0,1,.2031,1.4209v.5879h-4.8579V19.08a1.7877,1.7877,0,0,0,.4478,1.272,1.7338,1.7338,0,0,0,1.33.4795,1.9853,1.9853,0,0,0,1.0991-.2778,3.1287,3.1287,0,0,0,.7627-.709l.9663,1.081a3.0051,3.0051,0,0,1-1.2251.99A4.2637,4.2637,0,0,1,220.6763,22.2733Zm-.0284-6.3a1.4347,1.4347,0,0,0-1.1337.4761,1.7908,1.7908,0,0,0-.42,1.2319v.1118H222.09v-.126a1.9187,1.9187,0,0,0-.3706-1.2251A1.2856,1.2856,0,0,0,220.6479,15.9735Z"/><path d="M231.2324,22.2733a3.9245,3.9245,0,0,1-1.7641-.3569,4.0609,4.0609,0,0,1-1.26-.9869L229.3,19.8651a3.296,3.296,0,0,0,.8892.728,2.2638,2.2638,0,0,0,1.1127.2661,1.5256,1.5256,0,0,0,.9312-.2241.7384.7384,0,0,0,.2866-.6157.6649.6649,0,0,0-.2026-.5113,1.2936,1.2936,0,0,0-.6934-.2587l-.7275-.0982a3.4672,3.4672,0,0,1-1.8135-.6787,1.8935,1.8935,0,0,1-.6226-1.5332,2.2713,2.2713,0,0,1,.1958-.959,2.0318,2.0318,0,0,1,.56-.728,2.5647,2.5647,0,0,1,.875-.4619,3.7816,3.7816,0,0,1,1.1411-.1612,5.1948,5.1948,0,0,1,.9448.0772,3.4316,3.4316,0,0,1,.7491.2241,2.8959,2.8959,0,0,1,.6162.3638,5.9149,5.9149,0,0,1,.5459.4829l-1.05,1.05a2.7729,2.7729,0,0,0-.77-.56,2.1593,2.1593,0,0,0-.98-.2241,1.3485,1.3485,0,0,0-.8467.21.67.67,0,0,0-.2593.5459.6927.6927,0,0,0,.2173.5532,1.5025,1.5025,0,0,0,.7349.2729l.7422.0982q2.3656.3354,2.3657,2.1557a2.1755,2.1755,0,0,1-.2168.9732,2.2212,2.2212,0,0,1-.6094.7558,2.8761,2.8761,0,0,1-.9448.49A4.1113,4.1113,0,0,1,231.2324,22.2733Z"/><path d="M237.9937,22.1053a1.91,1.91,0,0,1-1.4068-.4814,1.8586,1.8586,0,0,1-.4829-1.376V16.2391h-1.0781V14.7972h.56a.6679.6679,0,0,0,.5528-.189.9133.9133,0,0,0,.1469-.5668V12.7953h1.61v2.0019h1.4976v1.4419H237.896v4.4243h1.3857v1.4419Z"/><path d="M246.3242,22.1053a1.258,1.258,0,0,1-.9311-.3428,1.5738,1.5738,0,0,1-.4268-.9169h-.084a1.7167,1.7167,0,0,1-.7422,1.0708,2.5321,2.5321,0,0,1-1.3862.3569,2.3666,2.3666,0,0,1-1.7217-.586,2.0817,2.0817,0,0,1-.602-1.5634,1.8926,1.8926,0,0,1,.812-1.6812,4.0888,4.0888,0,0,1,2.31-.5512h1.2461v-.5323a1.321,1.321,0,0,0-.3222-.9521,1.3844,1.3844,0,0,0-1.0362-.336,1.7191,1.7191,0,0,0-1.0146.273,2.6975,2.6975,0,0,0-.6514.6514l-1.0639-.9581a3.09,3.09,0,0,1,1.0781-1.0205,3.5441,3.5441,0,0,1,1.7778-.3877,3.3425,3.3425,0,0,1,2.2544.67,2.4194,2.4194,0,0,1,.77,1.9277v3.436h.7276v1.4419Zm-2.9682-1.1338a1.8847,1.8847,0,0,0,1.0219-.2641.8626.8626,0,0,0,.42-.7788v-.9595H243.65q-1.4,0-1.4.89v.2364a.7719.7719,0,0,0,.2871.66A1.341,1.341,0,0,0,243.356,20.9715Z"/><path d="M248.7739,22.1053V14.7972h1.792v1.2183h.07a2.3431,2.3431,0,0,1,.7071-.9873,2.041,2.041,0,0,1,1.3369-.399,2.107,2.107,0,0,1,1.7363.7422,3.28,3.28,0,0,1,.6016,2.1138v4.62h-1.792v-4.438a2.0256,2.0256,0,0,0-.28-1.1758,1.0575,1.0575,0,0,0-.9238-.392,1.8976,1.8976,0,0,0-.5391.0766,1.5188,1.5188,0,0,0-.4619.2241,1.1706,1.1706,0,0,0-.3291.3643.9987.9987,0,0,0-.126.5107v4.83Z"/><path d="M261.5415,20.8875h-.07a1.87,1.87,0,0,1-.7422,1.0079,2.1825,2.1825,0,0,1-1.2739.3779,2.4746,2.4746,0,0,1-2.1206-.9942,4.7155,4.7155,0,0,1-.7354-2.8418,4.6555,4.6555,0,0,1,.7354-2.8208,2.4818,2.4818,0,0,1,2.1206-.9873A2.2138,2.2138,0,0,1,260.7295,15a1.8386,1.8386,0,0,1,.7422,1.001h.07V11.7455h1.792v10.36h-1.792Zm-1.5117-.0981a1.8149,1.8149,0,0,0,1.0781-.3081,1.0155,1.0155,0,0,0,.4336-.8818V17.2752a1.0128,1.0128,0,0,0-.4336-.854,1.7622,1.7622,0,0,0-1.0781-.3217,1.4515,1.4515,0,0,0-1.127.4687,1.7885,1.7885,0,0,0-.4272,1.2529v1.26a1.7618,1.7618,0,0,0,.4272,1.2461A1.4632,1.4632,0,0,0,260.03,20.7894Z"/><path d="M270.7817,22.1053a1.258,1.258,0,0,1-.9311-.3428,1.5738,1.5738,0,0,1-.4268-.9169h-.084a1.7166,1.7166,0,0,1-.7421,1.0708,2.5327,2.5327,0,0,1-1.3863.3569,2.3666,2.3666,0,0,1-1.7217-.586,2.0817,2.0817,0,0,1-.602-1.5634,1.8926,1.8926,0,0,1,.812-1.6812,4.089,4.089,0,0,1,2.31-.5512h1.2461v-.5323a1.321,1.321,0,0,0-.3223-.9521,1.3841,1.3841,0,0,0-1.0361-.336,1.7194,1.7194,0,0,0-1.0147.273,2.6975,2.6975,0,0,0-.6514.6514l-1.0639-.9581a3.09,3.09,0,0,1,1.0781-1.0205,3.5441,3.5441,0,0,1,1.7778-.3877,3.3423,3.3423,0,0,1,2.2544.67,2.42,2.42,0,0,1,.77,1.9277v3.436h.7275v1.4419Zm-2.9682-1.1338a1.8845,1.8845,0,0,0,1.0219-.2641.8627.8627,0,0,0,.4205-.7788v-.9595h-1.1485q-1.4,0-1.4.89v.2364a.7719.7719,0,0,0,.2871.66A1.341,1.341,0,0,0,267.8135,20.9715Z"/><path d="M273.2314,22.1053V14.7972h1.792v1.5122h.07a2.3222,2.3222,0,0,1,.2172-.5669,1.7375,1.7375,0,0,1,.3848-.4834,1.8531,1.8531,0,0,1,.5669-.3359,2.1256,2.1256,0,0,1,.7632-.126h.3921v1.6943h-.56a2.81,2.81,0,0,0-1.372.2657.9243.9243,0,0,0-.462.8681v4.48Z"/><path d="M283.1992,20.8875h-.07a1.87,1.87,0,0,1-.7422,1.0079,2.1825,2.1825,0,0,1-1.2739.3779,2.4747,2.4747,0,0,1-2.1206-.9942,4.7155,4.7155,0,0,1-.7354-2.8418,4.6555,4.6555,0,0,1,.7354-2.8208,2.482,2.482,0,0,1,2.1206-.9873A2.2138,2.2138,0,0,1,282.3872,15a1.8386,1.8386,0,0,1,.7422,1.001h.07V11.7455h1.792v10.36h-1.792Zm-1.5117-.0981a1.8149,1.8149,0,0,0,1.0781-.3081,1.0155,1.0155,0,0,0,.4336-.8818V17.2752a1.0128,1.0128,0,0,0-.4336-.854,1.7622,1.7622,0,0,0-1.0781-.3217,1.4515,1.4515,0,0,0-1.127.4687,1.7885,1.7885,0,0,0-.4272,1.2529v1.26a1.7618,1.7618,0,0,0,.4272,1.2461A1.4632,1.4632,0,0,0,281.6875,20.7894Z"/><path d="M290.479,22.1053v-9.772h4.396a3.22,3.22,0,0,1,1.2109.2168,2.5652,2.5652,0,0,1,.917.6163,2.6493,2.6493,0,0,1,.5742.9589,3.9965,3.9965,0,0,1,0,2.4712,2.6554,2.6554,0,0,1-.5742.9517,2.5585,2.5585,0,0,1-.917.6162,3.22,3.22,0,0,1-1.2109.2168h-2.5479v3.7241Zm1.8481-5.32h2.38a1.1829,1.1829,0,0,0,.84-.2871,1.0641,1.0641,0,0,0,.3081-.8189v-.644a1.04,1.04,0,0,0-.3081-.812,1.2023,1.2023,0,0,0-.84-.28h-2.38Z"/><path d="M302.603,17.6815l-1.3017,1.54v2.8838h-1.8482v-9.772h1.8482v4.816h.07l1.3862-1.834,2.4219-2.982h2.1279l-3.4018,4.0738,3.6821,5.6982h-2.1982Z"/><path d="M312.2349,22.2733a4.5989,4.5989,0,0,1-1.7427-.315,3.4911,3.4911,0,0,1-1.33-.9448,4.2832,4.2832,0,0,1-.8472-1.561,7.2028,7.2028,0,0,1-.2939-2.1631,7.4824,7.4824,0,0,1,.2939-2.1909,4.4742,4.4742,0,0,1,.8472-1.61,3.6021,3.6021,0,0,1,1.33-.9868,4.3439,4.3439,0,0,1,1.7427-.3359,3.9521,3.9521,0,0,1,2.184.56,3.8476,3.8476,0,0,1,1.3863,1.6939l-1.5821.84a2.2257,2.2257,0,0,0-.686-1.0566,1.9646,1.9646,0,0,0-1.3022-.3989,2.07,2.07,0,0,0-1.6451.7,2.8925,2.8925,0,0,0-.6088,1.96v1.54a2.8317,2.8317,0,0,0,.6088,1.9531,2.0994,2.0994,0,0,0,1.6451.6787,2.0072,2.0072,0,0,0,1.351-.4478,2.5864,2.5864,0,0,0,.7632-1.1059l1.4981.8818a4.3067,4.3067,0,0,1-1.4141,1.7012A3.7807,3.7807,0,0,1,312.2349,22.2733Z"/><path d="M320.4673,22.2733a4.6374,4.6374,0,0,1-2.1353-.4487,4.9619,4.9619,0,0,1-1.5049-1.1783l1.2461-1.206a3.5675,3.5675,0,0,0,1.127.89,3.089,3.089,0,0,0,1.3789.3052,1.9471,1.9471,0,0,0,1.2881-.3682,1.2352,1.2352,0,0,0,.4341-.9931,1.1279,1.1279,0,0,0-.28-.792,1.8832,1.8832,0,0,0-1.05-.4444l-.9238-.1386q-2.926-.4629-2.9263-2.8457a2.8124,2.8124,0,0,1,.2451-1.1914,2.5326,2.5326,0,0,1,.707-.9112,3.28,3.28,0,0,1,1.1128-.582,4.9587,4.9587,0,0,1,1.4771-.2031,4.7507,4.7507,0,0,1,1.9321.3647,3.7926,3.7926,0,0,1,1.4141,1.08l-1.26,1.1924a2.9008,2.9008,0,0,0-.8818-.7217,2.7348,2.7348,0,0,0-1.3018-.2773,1.9874,1.9874,0,0,0-1.1972.2983.9865.9865,0,0,0-.399.8394.9979.9979,0,0,0,.3218.8188,2.2676,2.2676,0,0,0,1.0361.3887l.91.1679a4.1769,4.1769,0,0,1,2.1909.9463,2.5107,2.5107,0,0,1,.7071,1.899,3.1736,3.1736,0,0,1-.2452,1.2685,2.7417,2.7417,0,0,1-.7138.981,3.2593,3.2593,0,0,1-1.148.6377A4.98,4.98,0,0,1,320.4673,22.2733Z"/><path d="M333.4443,19.5575h-2.2114l-.4482,2.5478h-1.19l.4341-2.5478h-1.5264V18.41h1.7364l.3921-2.38h-1.5122V14.8812h1.7221l.4341-2.5479h1.19l-.4482,2.5479h2.2256l.4346-2.5479h1.1894l-.4336,2.5479h1.5264v1.1479h-1.7363l-.4063,2.38h1.5264v1.148h-1.7217l-.4482,2.5478h-1.1763Zm.1827-1.148.42-2.38h-2.2124l-.42,2.38Z"/><path d="M338.5967,22.1053v-1.498h2.6875V13.6634h-.126l-2.1279,2.52-1.1485-.9663,2.4229-2.8838H343.09v8.274h2.24v1.498Z"/><path d="M346.9971,22.1053v-1.498h2.6875V13.6634h-.126l-2.1279,2.52-1.1485-.9663,2.4229-2.8838H351.49v8.274h2.24v1.498Z"/><path d="M364.623,22.1053l-.7841-2.4922h-3.4717l-.7705,2.4922h-1.876l3.2764-9.772h2.2959l3.248,9.772Zm-2.4921-8.0918h-.07l-1.246,4.0176h2.5761Z"/><path d="M367.9824,22.1053v-9.772h4.3955a3.22,3.22,0,0,1,1.211.2168,2.567,2.567,0,0,1,.917.6163,2.6521,2.6521,0,0,1,.5742.9589,3.9868,3.9868,0,0,1,0,2.4712,2.6582,2.6582,0,0,1-.5742.9517,2.56,2.56,0,0,1-.917.6162,3.22,3.22,0,0,1-1.211.2168H369.83v3.7241Zm1.8477-5.32h2.38a1.1826,1.1826,0,0,0,.84-.2871,1.0658,1.0658,0,0,0,.3086-.8189v-.644a1.0421,1.0421,0,0,0-.3086-.812,1.2021,1.2021,0,0,0-.84-.28h-2.38Z"/><path d="M376.5508,22.1053V20.6214h1.2881V13.8172h-1.2881V12.3333h4.4375v1.4839h-1.3018v6.8042h1.3018v1.4839Z"/></g><g id="Line"><line class="cls-13" x1="157" y1="117.2625" x2="254" y2="117.2625"/><line class="cls-13" x1="254" y1="117.2625" x2="254" y2="131.2625"/><line class="cls-13" x1="254" y1="131.2625" x2="284.259" y2="131.2625"/><polygon class="cls-14" points="283.092 135.252 290 131.263 283.092 127.273 283.092 135.252"/><line class="cls-13" x1="369" y1="131.2625" x2="448" y2="131.2625"/><line class="cls-13" x1="448" y1="131.2625" x2="448" y2="145.2625"/><line class="cls-13" x1="448" y1="145.2625" x2="478.259" y2="145.2625"/><polygon class="cls-14" points="477.092 149.252 484 145.263 477.092 141.273 477.092 149.252"/><line class="cls-15" x1="330" y1="196.0035" x2="330" y2="242.6748"/><polygon class="cls-14" points="326.011 197.171 330 190.263 333.989 197.171 326.011 197.171"/><polygon class="cls-14" points="326.011 241.508 330 248.416 333.989 241.508 326.011 241.508"/></g></svg>