<svg id="Layer_1" data-name="Layer 1" xmlns="http://www.w3.org/2000/svg" viewBox="0 0 750 520"><defs><style>.cls-1{fill:#f2f4f8;}.cls-1,.cls-18,.cls-2,.cls-3,.cls-6,.cls-7,.cls-8,.cls-9{stroke:#000;}.cls-1,.cls-18,.cls-2,.cls-3,.cls-30,.cls-6,.cls-7,.cls-9{stroke-linejoin:round;}.cls-2{fill:#dbfbfb;}.cls-3{fill:#fff;}.cls-28,.cls-30,.cls-4,.cls-5,.cls-8{fill:none;}.cls-4,.cls-5{stroke:#9fa5ad;}.cls-28,.cls-4,.cls-5,.cls-8{stroke-miterlimit:10;}.cls-5{stroke-dasharray:2.01 2.01;}.cls-6{fill:#e3f6ff;}.cls-7{fill:#f7f1ff;}.cls-28,.cls-30,.cls-8{stroke-width:2px;}.cls-9{fill:#87eded;}.cls-10,.cls-11{font-size:12px;}.cls-10{font-family:IBMPlexSans, IBM Plex Sans;}.cls-11{font-family:IBMPlexSans-SemiBold, IBM Plex Sans;font-weight:700;}.cls-12{letter-spacing:0em;}.cls-13{letter-spacing:0.01em;}.cls-14{letter-spacing:-0.01em;}.cls-15{letter-spacing:0em;}.cls-16{letter-spacing:0em;}.cls-17{letter-spacing:-0.01em;}.cls-18,.cls-19{fill:#b3e6ff;}.cls-20{letter-spacing:0em;}.cls-21{letter-spacing:-0.02em;}.cls-22{letter-spacing:0em;}.cls-23{letter-spacing:-0.01em;}.cls-24{letter-spacing:-0.01em;}.cls-25{letter-spacing:0em;}.cls-26{letter-spacing:-0.01em;}.cls-27{letter-spacing:0.01em;}.cls-28,.cls-30{stroke:#50565b;}.cls-29{fill:#50565b;}</style></defs><title>architecture</title><rect class="cls-1" x="19.37" y="91.14" width="500" height="256"/><rect class="cls-2" x="32.87" y="396.14" width="250" height="55"/><rect class="cls-1" x="567.37" y="90.64" width="164" height="257"/><rect class="cls-3" x="34.12" y="108.64" width="470" height="208"/><rect class="cls-3" x="582.37" y="108.64" width="134" height="208"/><line class="cls-4" x1="191.37" y1="119.89" x2="191.37" y2="120.89"/><line class="cls-5" x1="191.37" y1="122.9" x2="191.37" y2="282.88"/><line class="cls-4" x1="191.37" y1="283.89" x2="191.37" y2="284.89"/><line class="cls-4" x1="347.37" y1="119.89" x2="347.37" y2="120.89"/><line class="cls-5" x1="347.37" y1="122.9" x2="347.37" y2="282.88"/><line class="cls-4" x1="347.37" y1="283.89" x2="347.37" y2="284.89"/><line class="cls-4" x1="629.37" y1="119.89" x2="629.37" y2="120.89"/><line class="cls-5" x1="629.37" y1="122.9" x2="629.37" y2="282.88"/><line class="cls-4" x1="629.37" y1="283.89" x2="629.37" y2="284.89"/><line class="cls-4" x1="671.37" y1="119.89" x2="671.37" y2="120.89"/><line class="cls-5" x1="671.37" y1="122.9" x2="671.37" y2="282.88"/><line class="cls-4" x1="671.37" y1="283.89" x2="671.37" y2="284.89"/><rect class="cls-6" x="51.87" y="128.64" width="120" height="150"/><rect class="cls-7" x="51.87" y="16.14" width="120" height="45"/><rect class="cls-7" x="208.87" y="16.14" width="120" height="45"/><rect class="cls-7" x="364.87" y="16.14" width="120" height="45"/><rect class="cls-6" x="209.12" y="128.64" width="120" height="150"/><rect class="cls-6" x="365.87" y="128.64" width="120" height="150"/><rect class="cls-6" x="599.87" y="128.64" width="16" height="150"/><rect class="cls-6" x="642.87" y="128.64" width="16" height="150"/><rect class="cls-6" x="684.87" y="128.64" width="16" height="150"/><line class="cls-8" x1="543.87" y1="76.14" x2="543.87" y2="362.14"/><rect class="cls-1" x="18.87" y="470.14" width="712" height="33"/><rect class="cls-2" x="25.87" y="389.14" width="250" height="55"/><rect class="cls-2" x="18.87" y="382.14" width="250" height="55"/><rect class="cls-2" x="480.87" y="396.14" width="250" height="55"/><rect class="cls-2" x="473.87" y="389.14" width="250" height="55"/><rect class="cls-2" x="466.87" y="382.14" width="250" height="55"/><rect class="cls-9" x="29.87" y="392.14" width="102" height="20"/><text class="cls-10" transform="translate(50.51 406.3)">Domain 00</text><rect class="cls-9" x="156.87" y="392.14" width="102" height="20"/><text class="cls-10" transform="translate(177.51 406.3)">Domain 84</text><text class="cls-10" transform="translate(139.71 403.74)">...</text><rect class="cls-9" x="477.87" y="392.14" width="102" height="20"/><text class="cls-10" transform="translate(498.51 406.3)">Domain 00</text><rect class="cls-9" x="604.87" y="392.14" width="102" height="20"/><text class="cls-10" transform="translate(625.51 406.3)">Domain 84</text><text class="cls-10" transform="translate(587.71 403.74)">...</text><text class="cls-11" transform="translate(71.54 429.15)">HSM Ca<tspan class="cls-12" x="43" y="0">r</tspan><tspan x="47.65" y="0">d (C</tspan><tspan class="cls-13" x="69.43" y="0">r</tspan><tspan x="74.24" y="0">y</tspan><tspan class="cls-14" x="80.53" y="0">p</tspan><tspan class="cls-15" x="87.66" y="0">t</tspan><tspan x="92.1" y="0">o Exp</tspan><tspan class="cls-12" x="122.61" y="0">r</tspan><tspan class="cls-16" x="127.27" y="0">e</tspan><tspan class="cls-17" x="133.97" y="0">s</tspan><tspan x="139.87" y="0">s)</tspan></text><text class="cls-11" transform="translate(519.54 429.15)">HSM Ca<tspan class="cls-12" x="43" y="0">r</tspan><tspan x="47.65" y="0">d (C</tspan><tspan class="cls-13" x="69.43" y="0">r</tspan><tspan x="74.24" y="0">y</tspan><tspan class="cls-14" x="80.53" y="0">p</tspan><tspan class="cls-15" x="87.66" y="0">t</tspan><tspan x="92.1" y="0">o Exp</tspan><tspan class="cls-12" x="122.61" y="0">r</tspan><tspan class="cls-16" x="127.27" y="0">e</tspan><tspan class="cls-17" x="133.97" y="0">s</tspan><tspan x="139.87" y="0">s)</tspan></text><text class="cls-10" transform="translate(95.33 42.14)">App A</text><text class="cls-10" transform="translate(253.33 42.14)">App B</text><text class="cls-10" transform="translate(408.33 42.14)">App C</text><g id="Keystore"><path class="cls-18" d="M66.64,223c0,5.34,20.15,9.67,45,9.67s45-4.33,45-9.67"/><polyline class="cls-18" points="66.64 223.64 66.64 155.63 66.64 155.35 66.68 155.35"/><polyline class="cls-18" points="156.61 155.35 156.63 155.35 156.63 155.53 156.63 155.74 156.63 223.64"/><rect class="cls-19" x="67.14" y="155.14" width="89" height="68"/><ellipse class="cls-18" cx="111.64" cy="155.68" rx="45" ry="9.67"/></g><g id="Keystore-2" data-name="Keystore"><path class="cls-18" d="M224.64,223c0,5.34,20.15,9.67,45,9.67s45-4.33,45-9.67"/><polyline class="cls-18" points="224.64 223.64 224.64 155.63 224.64 155.35 224.68 155.35"/><polyline class="cls-18" points="314.61 155.35 314.63 155.35 314.63 155.53 314.63 155.74 314.63 223.64"/><rect class="cls-19" x="225.14" y="155.14" width="89" height="68"/><ellipse class="cls-18" cx="269.64" cy="155.68" rx="45" ry="9.67"/></g><g id="Keystore-3" data-name="Keystore"><path class="cls-18" d="M380.64,223c0,5.34,20.15,9.67,45,9.67s45-4.33,45-9.67"/><polyline class="cls-18" points="380.64 223.64 380.64 155.63 380.64 155.35 380.68 155.35"/><polyline class="cls-18" points="470.61 155.35 470.63 155.35 470.63 155.53 470.63 155.74 470.63 223.64"/><rect class="cls-19" x="381.14" y="155.14" width="89" height="68"/><ellipse class="cls-18" cx="425.64" cy="155.68" rx="45" ry="9.67"/></g><text class="cls-10" transform="translate(84.26 190.34)">Dedica<tspan class="cls-15" x="37.04" y="0">t</tspan><tspan class="cls-20" x="41.21" y="0">ed</tspan><tspan class="cls-21" x="3.07" y="14.4">K</tspan><tspan class="cls-12" x="10.38" y="14.4">e</tspan><tspan x="16.91" y="14.4">yS</tspan><tspan class="cls-22" x="29.87" y="14.4">t</tspan><tspan x="34.03" y="14.4">o</tspan><tspan class="cls-23" x="40.75" y="14.4">r</tspan><tspan x="45.1" y="14.4">e</tspan></text><text class="cls-10" transform="translate(242.08 190.34)">Dedica<tspan class="cls-15" x="37.04" y="0">t</tspan><tspan class="cls-20" x="41.21" y="0">ed</tspan><tspan class="cls-21" x="3.07" y="14.4">K</tspan><tspan class="cls-12" x="10.38" y="14.4">e</tspan><tspan x="16.91" y="14.4">yS</tspan><tspan class="cls-22" x="29.87" y="14.4">t</tspan><tspan x="34.03" y="14.4">o</tspan><tspan class="cls-23" x="40.75" y="14.4">r</tspan><tspan x="45.1" y="14.4">e</tspan></text><text class="cls-10" transform="translate(397.08 190.34)">Dedica<tspan class="cls-15" x="37.04" y="0">t</tspan><tspan class="cls-20" x="41.21" y="0">ed</tspan><tspan class="cls-21" x="3.07" y="14.4">K</tspan><tspan class="cls-12" x="10.38" y="14.4">e</tspan><tspan x="16.91" y="14.4">yS</tspan><tspan class="cls-22" x="29.87" y="14.4">t</tspan><tspan x="34.03" y="14.4">o</tspan><tspan class="cls-23" x="40.75" y="14.4">r</tspan><tspan x="45.1" y="14.4">e</tspan></text><text class="cls-11" transform="translate(73.63 252.41)">Hyper <tspan class="cls-24" x="36.36" y="0">P</tspan><tspan class="cls-12" x="43.93" y="0">r</tspan><tspan class="cls-15" x="48.59" y="0">ot</tspan><tspan x="59.74" y="0">ect</tspan><tspan x="-5.05" y="14.4">C</tspan><tspan class="cls-13" x="2.65" y="14.4">r</tspan><tspan x="7.46" y="14.4">y</tspan><tspan class="cls-14" x="13.75" y="14.4">p</tspan><tspan class="cls-15" x="20.88" y="14.4">t</tspan><tspan x="25.32" y="14.4">o Se</tspan><tspan class="cls-13" x="48.94" y="14.4">r</tspan><tspan x="53.75" y="14.4">vi</tspan><tspan class="cls-12" x="63.35" y="14.4">c</tspan><tspan class="cls-16" x="69.44" y="14.4">es</tspan></text><text class="cls-11" transform="translate(230.63 252.41)">Hyper <tspan class="cls-24" x="36.36" y="0">P</tspan><tspan class="cls-12" x="43.93" y="0">r</tspan><tspan class="cls-15" x="48.59" y="0">ot</tspan><tspan x="59.74" y="0">ect</tspan><tspan x="-5.05" y="14.4">C</tspan><tspan class="cls-13" x="2.65" y="14.4">r</tspan><tspan x="7.46" y="14.4">y</tspan><tspan class="cls-14" x="13.75" y="14.4">p</tspan><tspan class="cls-15" x="20.88" y="14.4">t</tspan><tspan x="25.32" y="14.4">o Se</tspan><tspan class="cls-13" x="48.94" y="14.4">r</tspan><tspan x="53.75" y="14.4">vi</tspan><tspan class="cls-12" x="63.35" y="14.4">c</tspan><tspan class="cls-16" x="69.44" y="14.4">es</tspan></text><text class="cls-11" transform="translate(386.63 252.41)">Hyper <tspan class="cls-24" x="36.36" y="0">P</tspan><tspan class="cls-12" x="43.93" y="0">r</tspan><tspan class="cls-15" x="48.59" y="0">ot</tspan><tspan x="59.74" y="0">ect</tspan><tspan x="-5.05" y="14.4">C</tspan><tspan class="cls-13" x="2.65" y="14.4">r</tspan><tspan x="7.46" y="14.4">y</tspan><tspan class="cls-14" x="13.75" y="14.4">p</tspan><tspan class="cls-15" x="20.88" y="14.4">t</tspan><tspan x="25.32" y="14.4">o Se</tspan><tspan class="cls-13" x="48.94" y="14.4">r</tspan><tspan x="53.75" y="14.4">vi</tspan><tspan class="cls-12" x="63.35" y="14.4">c</tspan><tspan class="cls-16" x="69.44" y="14.4">es</tspan></text><text class="cls-11" transform="translate(293.65 490.13)">IBM Z/LinuxOne pl<tspan class="cls-22" x="104.15" y="0">a</tspan><tspan class="cls-25" x="110.81" y="0">t</tspan><tspan class="cls-15" x="115.26" y="0">f</tspan><tspan x="119.41" y="0">orm</tspan></text><text class="cls-11" transform="translate(155.36 300.75)"><tspan class="cls-22">I</tspan><tspan class="cls-16" x="5.03" y="0">sol</tspan><tspan class="cls-22" x="21.3" y="0">at</tspan><tspan x="32.4" y="0">ed Container Runtime E</tspan><tspan class="cls-26" x="163.71" y="0">n</tspan><tspan class="cls-16" x="170.67" y="0">vi</tspan><tspan class="cls-23" x="180.27" y="0">r</tspan><tspan x="184.93" y="0">onment</tspan></text><text class="cls-11" transform="translate(199.19 336.75)">Secu<tspan class="cls-12" x="27.24" y="0">r</tspan><tspan x="31.9" y="0">e Se</tspan><tspan class="cls-27" x="55.45" y="0">r</tspan><tspan class="cls-16" x="60.26" y="0">vi</tspan><tspan class="cls-23" x="69.86" y="0">c</tspan><tspan x="75.96" y="0">e Container</tspan></text><line class="cls-28" x1="51.87" y1="355.88" x2="51.87" y2="378.14"/><polygon class="cls-29" points="47.88 357.05 51.87 350.14 55.86 357.05 47.88 357.05"/><line class="cls-28" x1="144.37" y1="356.38" x2="144.37" y2="378.64"/><polygon class="cls-29" points="140.38 357.55 144.37 350.64 148.36 357.55 140.38 357.55"/><line class="cls-28" x1="241.37" y1="356.38" x2="241.37" y2="378.64"/><polygon class="cls-29" points="237.38 357.55 241.37 350.64 245.36 357.55 237.38 357.55"/><line class="cls-30" x1="608.37" y1="356.38" x2="608.37" y2="378.64"/><polygon class="cls-29" points="604.38 357.55 608.37 350.64 612.36 357.55 604.38 357.55"/><line class="cls-30" x1="651.37" y1="356.38" x2="651.37" y2="378.64"/><polygon class="cls-29" points="647.38 357.55 651.37 350.64 655.36 357.55 647.38 357.55"/><line class="cls-30" x1="693.37" y1="356.38" x2="693.37" y2="378.64"/><polygon class="cls-29" points="689.38 357.55 693.37 350.64 697.36 357.55 689.38 357.55"/><line class="cls-28" x1="111.37" y1="65.64" x2="111.37" y2="119.9"/><polygon class="cls-29" points="107.38 118.73 111.37 125.64 115.36 118.73 107.38 118.73"/><line class="cls-28" x1="269.37" y1="65.64" x2="269.37" y2="119.9"/><polygon class="cls-29" points="265.38 118.73 269.37 125.64 273.36 118.73 265.38 118.73"/><line class="cls-28" x1="425.37" y1="65.64" x2="425.37" y2="119.9"/><polygon class="cls-29" points="421.38 118.73 425.37 125.64 429.36 118.73 421.38 118.73"/></svg>