<svg id="Layer_1" data-name="Layer 1" xmlns="http://www.w3.org/2000/svg" viewBox="0 0 750 245"><defs><style>.cls-1,.cls-17,.cls-18{fill:#87eded;}.cls-1,.cls-15,.cls-16,.cls-18,.cls-2,.cls-20,.cls-21,.cls-29,.cls-3,.cls-4,.cls-5,.cls-6{stroke:#000;}.cls-1,.cls-15,.cls-2,.cls-6{stroke-miterlimit:10;}.cls-2{fill:#dbfbfb;}.cls-22,.cls-24,.cls-3,.cls-5{fill:none;}.cls-16,.cls-18,.cls-20,.cls-21,.cls-22,.cls-24,.cls-29,.cls-3,.cls-4,.cls-5{stroke-linejoin:round;}.cls-29,.cls-4{fill:#f2f4f8;}.cls-18,.cls-20,.cls-24,.cls-29,.cls-5{stroke-linecap:round;}.cls-16,.cls-6{fill:#b3e6ff;}.cls-7{font-size:16px;}.cls-30,.cls-7{font-family:IBMPlexSans-SemiBold, IBM Plex Sans;font-weight:700;}.cls-8{letter-spacing:-0.01em;}.cls-9{letter-spacing:0em;}.cls-10{letter-spacing:0em;}.cls-11{letter-spacing:0.01em;}.cls-12{letter-spacing:-0.01em;}.cls-13{letter-spacing:0em;}.cls-14{letter-spacing:0em;}.cls-15{fill:#e3f6ff;}.cls-19,.cls-20,.cls-21{fill:#e6d6ff;}.cls-22,.cls-24{stroke:#50565b;stroke-width:2px;}.cls-23{fill:#50565b;}.cls-25{letter-spacing:-0.03em;}.cls-26{letter-spacing:0em;}.cls-27{letter-spacing:-0.01em;}.cls-28{letter-spacing:-0.01em;}.cls-30{font-size:12px;}.cls-31{letter-spacing:-0.01em;}.cls-32{letter-spacing:-0.01em;}.cls-33{letter-spacing:-0.02em;}.cls-34{letter-spacing:-0.01em;}.cls-35{letter-spacing:0em;}.cls-36{letter-spacing:0em;}.cls-37{letter-spacing:-0.01em;}.cls-38{letter-spacing:0em;}</style></defs><title>byok_vm</title><rect class="cls-1" x="542.5" y="12.87" width="107" height="60"/><rect class="cls-2" x="536.5" y="19.7" width="107" height="60"/><rect class="cls-3" x="174.5" y="114.52" width="365" height="110"/><rect class="cls-4" x="158" y="97.52" width="365" height="110"/><g id="HP_icon" data-name="HP icon"><line class="cls-5" x1="203.07" y1="164.31" x2="225.93" y2="164.31"/><polyline class="cls-5" points="225.93 164.31 225.93 149.31 203.07 149.31 203.07 158.77"/><path class="cls-5" d="M221.64,149.31v-5.72a7.14,7.14,0,1,0-14.28,0v5.72"/><path class="cls-5" d="M214.5,175s-20.36-11.93-20.36-35.35"/><path class="cls-5" d="M234.86,139.67c0,23.42-20.36,35.35-20.36,35.35"/><polyline class="cls-5" points="194.14 139.67 214.5 127.88 234.86 139.67"/><circle class="cls-6" cx="234.86" cy="139.67" r="2.14"/><circle class="cls-6" cx="194.14" cy="139.67" r="2.14"/><circle class="cls-6" cx="214.5" cy="175.02" r="2.14"/></g><text class="cls-7" transform="translate(272 127.52)">Hyper <tspan class="cls-8" x="48.48" y="0">P</tspan><tspan class="cls-9" x="58.58" y="0">r</tspan><tspan class="cls-10" x="64.78" y="0">ot</tspan><tspan x="79.65" y="0">ect C</tspan><tspan class="cls-11" x="116.81" y="0">r</tspan><tspan x="123.23" y="0">y</tspan><tspan class="cls-12" x="131.61" y="0">p</tspan><tspan class="cls-13" x="141.12" y="0">t</tspan><tspan x="147.04" y="0">o Se</tspan><tspan class="cls-11" x="178.53" y="0">r</tspan><tspan x="184.94" y="0">vi</tspan><tspan class="cls-14" x="197.74" y="0">c</tspan><tspan x="205.87" y="0">es</tspan></text><path id="Cloud" class="cls-15" d="M343,141.31a25,25,0,0,0-24.6,20.32,18.77,18.77,0,0,0,3.31,37.24h42.54a18.77,18.77,0,0,0,3.3-37.24,25,25,0,0,0-19.87-19.87A26.22,26.22,0,0,0,343,141.31Z"/><g id="Hardware"><rect class="cls-16" x="322.99" y="177.74" width="40" height="10.59"/><polygon class="cls-16" points="363 177.35 323 177.35 330.05 162.05 355.94 162.05 363 177.35"/><rect x="348.29" y="180.68" width="4.71" height="4.71"/><rect x="354.76" y="180.68" width="4.71" height="4.71"/></g><g id="lock"><g id="lock-2" data-name="lock"><rect class="cls-17" x="532.5" y="66.02" width="9" height="3"/><path class="cls-18" d="M537,80.52V77m-5-8.16V62.52a5,5,0,1,1,10,0v6.34m2,1.52a10.25,10.25,0,0,0-2-1.52,10,10,0,0,0-10,0,10.25,10.25,0,0,0-2,1.52,10,10,0,1,0,14,0Z"/><circle cx="537" cy="77.02" r="1.5"/></g></g><g id="lock-3" data-name="lock"><g id="lock-4" data-name="lock"><rect class="cls-19" x="318.4" y="176.32" width="7.2" height="2.4"/><path class="cls-20" d="M322,187.92v-2.8m-4-6.53v-5.07a4,4,0,1,1,8,0v5.07m1.6,1.22a8.68,8.68,0,0,0-1.6-1.22,8,8,0,0,0-8,0,8.68,8.68,0,0,0-1.6,1.22,8,8,0,1,0,11.2,0Z"/><circle cx="322" cy="185.12" r="1.5"/></g></g><g id="key"><path class="cls-20" d="M450.54,175.64a11.67,11.67,0,1,1-.55-7.93"/><circle cx="435.52" cy="172.43" r="2.5"/><polyline class="cls-21" points="449.99 167.71 473.31 167.71 477.68 172.07 473.91 175.84 459.25 175.84 456.62 173.23 454.21 175.64 450.54 175.64"/></g><line class="cls-22" x1="237" y1="49.37" x2="237" y2="86.78"/><polygon class="cls-23" points="233.01 85.61 237 92.52 240.99 85.61 233.01 85.61"/><line class="cls-24" x1="483" y1="49.7" x2="534" y2="49.7"/><line class="cls-24" x1="237" y1="49.37" x2="328" y2="49.37"/><text class="cls-7" transform="translate(99.45 57.08)"><tspan class="cls-25">K</tspan><tspan class="cls-12" x="10.45" y="0">e</tspan><tspan x="19.28" y="0">y </tspan><tspan class="cls-8" x="31.44" y="0">P</tspan><tspan class="cls-9" x="41.54" y="0">r</tspan><tspan class="cls-10" x="47.74" y="0">ot</tspan><tspan x="62.61" y="0">ect AP</tspan><tspan class="cls-10" x="110.51" y="0">I</tspan><tspan class="cls-26" x="117.21" y="0">s</tspan></text><text class="cls-7" transform="translate(557.77 56.41)">VM<tspan class="cls-27" x="23.26" y="0">w</tspan><tspan x="36.16" y="0">a</tspan><tspan class="cls-28" x="45.1" y="0">r</tspan><tspan x="51.31" y="0">e</tspan></text><rect class="cls-29" x="328.5" y="19.7" width="153" height="60"/><text class="cls-30" transform="translate(382.91 38.87)">VM<tspan class="cls-31" x="17.45" y="0">w</tspan><tspan x="27.12" y="0">a</tspan><tspan class="cls-32" x="33.83" y="0">r</tspan><tspan x="38.48" y="0">e</tspan><tspan class="cls-33" x="-25.36" y="14.4">K</tspan><tspan class="cls-34" x="-17.53" y="14.4">e</tspan><tspan x="-10.9" y="14.4">y Mana</tspan><tspan class="cls-34" x="28.48" y="14.4">g</tspan><tspan x="34.95" y="14.4">ement</tspan><tspan x="-46.08" y="28.8">In</tspan><tspan class="cls-35" x="-33.95" y="28.8">t</tspan><tspan x="-29.51" y="28.8">e</tspan><tspan class="cls-36" x="-22.81" y="28.8">r</tspan><tspan x="-18.16" y="28.8">ope</tspan><tspan class="cls-37" x="2.5" y="28.8">r</tspan><tspan x="7.08" y="28.8">ability </tspan><tspan class="cls-8" x="44.75" y="28.8">P</tspan><tspan class="cls-36" x="52.32" y="28.8">r</tspan><tspan class="cls-38" x="56.98" y="28.8">ot</tspan><tspan x="68.12" y="28.8">o</tspan><tspan class="cls-32" x="74.88" y="28.8">c</tspan><tspan x="80.97" y="28.8">ol</tspan></text></svg>