<svg id="Layer_1" data-name="Layer 1" xmlns="http://www.w3.org/2000/svg" viewBox="0 0 750 255"><defs><style>.cls-1{fill:#dbfbfb;}.cls-1,.cls-10,.cls-12,.cls-13,.cls-2,.cls-4,.cls-5,.cls-6,.cls-7,.cls-8,.cls-9{stroke:#000;}.cls-1,.cls-2,.cls-8,.cls-9{stroke-miterlimit:10;}.cls-14,.cls-16,.cls-2,.cls-7{fill:none;}.cls-3,.cls-4{fill:#87eded;}.cls-12,.cls-16,.cls-4,.cls-7{stroke-linecap:round;}.cls-10,.cls-12,.cls-13,.cls-14,.cls-16,.cls-4,.cls-5,.cls-6,.cls-7{stroke-linejoin:round;}.cls-5{fill:#fff;}.cls-6{fill:#f2f4f8;}.cls-10,.cls-8{fill:#b3e6ff;}.cls-9{fill:#e3f6ff;}.cls-11,.cls-12,.cls-13{fill:#e6d6ff;}.cls-14,.cls-16{stroke:#50565b;stroke-width:2px;}.cls-15{fill:#50565b;}</style></defs><title>byok</title><g id="Database"><path class="cls-1" d="M524.7916,11.2053H469.2084c-3.8372,0-6.9479,2.6663-6.9479,5.9553V82.6693c0,3.2891,3.1107,5.9554,6.9479,5.9554h55.5832c3.8372,0,6.9479-2.6663,6.9479-5.9554V17.1606C531.74,13.8716,528.6288,11.2053,524.7916,11.2053Z"/><line class="cls-2" x1="462" y1="36.6892" x2="532" y2="36.6892"/><line class="cls-2" x1="463.129" y1="63.1408" x2="532" y2="63.1408"/><circle cx="477.6452" cy="23.7859" r="3.5"/><circle cx="477.6452" cy="49.915" r="3.5"/><circle cx="477.6452" cy="75.0763" r="3.5"/></g><g id="lock"><g id="lock-2" data-name="lock"><rect class="cls-3" x="458.5" y="75.415" width="9" height="3"/><path class="cls-4" d="M463,89.915v-3.5m-5-8.16v-6.34a5,5,0,1,1,10,0v6.34m2,1.52a10.2478,10.2478,0,0,0-2-1.52,9.999,9.999,0,0,0-10,0,10.2478,10.2478,0,0,0-2,1.52,10,10,0,1,0,14,0Z"/><circle cx="463" cy="86.415" r="1.5"/></g></g><rect class="cls-5" x="177.5" y="125.915" width="365" height="110"/><rect class="cls-6" x="161" y="108.915" width="365" height="110"/><g id="HP_icon" data-name="HP icon"><line class="cls-7" x1="206.0714" y1="175.7007" x2="228.9286" y2="175.7007"/><polyline class="cls-7" points="228.929 175.701 228.929 160.701 206.071 160.701 206.071 170.165"/><path class="cls-7" d="M224.6418,160.7007v-5.7153a7.1418,7.1418,0,1,0-14.2836,0v5.7153"/><path class="cls-7" d="M217.4961,186.415s-20.3532-11.9321-20.3532-35.3572"/><path class="cls-7" d="M237.8571,151.0578c0,23.4251-20.361,35.3572-20.361,35.3572"/><polyline class="cls-7" points="197.143 151.058 217.5 139.272 237.857 151.058"/><circle class="cls-8" cx="237.8571" cy="151.0578" r="2.1429"/><circle class="cls-8" cx="197.1429" cy="151.0578" r="2.1429"/><circle class="cls-8" cx="217.5" cy="186.415" r="2.1429"/></g><path d="M283.08,134.1944h-4.6563v4.7207H276.312v-11.168h2.1118v4.5762H283.08v-4.5762h2.1118v11.168H283.08Z"/><path d="M292.8081,130.5625h1.92l-3.36,9.84a4.2063,4.2063,0,0,1-.36.7763,1.9279,1.9279,0,0,1-.4717.5362,1.771,1.771,0,0,1-.6562.3037,3.6971,3.6971,0,0,1-.896.0967H287.752v-1.6485h1.5039l.3842-1.166-2.9922-8.7383H288.68l1.456,4.4073.544,2.1074h.0962l.5762-2.1074Z"/><path d="M296.0718,130.5625H298.12v1.376h.064a2.0992,2.0992,0,0,1,.8481-1.1435,2.5311,2.5311,0,0,1,1.4561-.4239,2.8548,2.8548,0,0,1,2.44,1.128,5.3215,5.3215,0,0,1,.84,3.2236,5.39,5.39,0,0,1-.84,3.248,2.8458,2.8458,0,0,1-2.44,1.1358,2.4571,2.4571,0,0,1-1.4482-.4317,2.234,2.234,0,0,1-.856-1.1523h-.064v4.5928h-2.0478Zm3.76,6.8487a1.7,1.7,0,0,0,1.2964-.5284,1.9961,1.9961,0,0,0,.4956-1.4238v-1.44a2.0279,2.0279,0,0,0-.4956-1.4317,1.685,1.685,0,0,0-1.2964-.5361,1.9754,1.9754,0,0,0-1.2236.3682,1.1611,1.1611,0,0,0-.4883.9756v2.6562a1.1661,1.1661,0,0,0,.4883,1.0078A2.0322,2.0322,0,0,0,299.8315,137.4112Z"/><path d="M309.0474,139.1065a4.17,4.17,0,0,1-1.6563-.3115,3.4248,3.4248,0,0,1-1.2319-.88,3.9411,3.9411,0,0,1-.7759-1.376,6.2051,6.2051,0,0,1-.0078-3.6084,3.92,3.92,0,0,1,.76-1.3682,3.3757,3.3757,0,0,1,1.2158-.88,4.07,4.07,0,0,1,1.6323-.3115,3.9673,3.9673,0,0,1,1.6958.336,3.2565,3.2565,0,0,1,1.1841.9121,3.931,3.931,0,0,1,.6958,1.3359,5.53,5.53,0,0,1,.2324,1.624v.6719h-5.5522v.2061a2.0414,2.0414,0,0,0,.5122,1.4541,1.9812,1.9812,0,0,0,1.52.5478,2.263,2.263,0,0,0,1.2558-.3174,3.6025,3.6025,0,0,0,.8721-.8105l1.104,1.2353a3.4448,3.4448,0,0,1-1.4,1.1319A4.8744,4.8744,0,0,1,309.0474,139.1065Zm-.0323-7.1992a1.6387,1.6387,0,0,0-1.2959.5439,2.049,2.049,0,0,0-.48,1.4072v.128h3.4238v-.1436a2.1927,2.1927,0,0,0-.4238-1.4A1.471,1.471,0,0,0,309.0151,131.9073Z"/><path d="M314.6,138.9151v-8.3526h2.0479v1.7285h.08a2.6637,2.6637,0,0,1,.2481-.6484,1.9831,1.9831,0,0,1,.44-.5518,2.0993,2.0993,0,0,1,.648-.3837,2.4142,2.4142,0,0,1,.872-.1446h.4478v1.9366h-.64a3.2168,3.2168,0,0,0-1.5684.3037,1.0571,1.0571,0,0,0-.5278.9922v5.12Z"/><path d="M324.7915,138.9151v-11.168h5.0239a3.6667,3.6667,0,0,1,1.3843.248,2.9231,2.9231,0,0,1,1.0479.7041,3.0181,3.0181,0,0,1,.6557,1.0958,4.561,4.561,0,0,1,0,2.8242,3.0425,3.0425,0,0,1-.6557,1.0879,2.9478,2.9478,0,0,1-1.0479.7041,3.6864,3.6864,0,0,1-1.3843.248h-2.9121v4.2559Zm2.1118-6.08h2.72a1.3529,1.3529,0,0,0,.96-.3281,1.2177,1.2177,0,0,0,.352-.9366v-.7353a1.19,1.19,0,0,0-.352-.9277,1.3715,1.3715,0,0,0-.96-.32h-2.72Z"/><path d="M334.7593,138.9151v-8.3526h2.0478v1.7285h.08a2.6556,2.6556,0,0,1,.2481-.6484,1.9831,1.9831,0,0,1,.44-.5518,2.0988,2.0988,0,0,1,.6479-.3837,2.4144,2.4144,0,0,1,.8721-.1446h.4478v1.9366h-.64a3.2167,3.2167,0,0,0-1.5683.3037,1.0572,1.0572,0,0,0-.5279.9922v5.12Z"/><path d="M344.2793,139.1065a4.0646,4.0646,0,0,1-1.6079-.3037,3.3272,3.3272,0,0,1-1.2163-.88,4.0223,4.0223,0,0,1-.7759-1.3838,5.67,5.67,0,0,1-.272-1.8164,5.5893,5.5893,0,0,1,.272-1.8076,3.9492,3.9492,0,0,1,.7759-1.3682,3.3766,3.3766,0,0,1,1.2163-.8721,4.0646,4.0646,0,0,1,1.6079-.3037,4.1262,4.1262,0,0,1,1.6157.3037,3.3637,3.3637,0,0,1,1.2241.8721,3.9476,3.9476,0,0,1,.7759,1.3682,5.5866,5.5866,0,0,1,.272,1.8076,5.6674,5.6674,0,0,1-.272,1.8164,4.0207,4.0207,0,0,1-.7759,1.3838,3.3148,3.3148,0,0,1-1.2241.88A4.1262,4.1262,0,0,1,344.2793,139.1065Zm0-1.6475a1.6659,1.6659,0,0,0,1.28-.4961,2.0577,2.0577,0,0,0,.4643-1.456v-1.5518a2.0322,2.0322,0,0,0-.4643-1.44,1.6694,1.6694,0,0,0-1.28-.4961,1.6486,1.6486,0,0,0-1.2642.4961,2.0325,2.0325,0,0,0-.4638,1.44v1.5518a2.058,2.058,0,0,0,.4638,1.456A1.645,1.645,0,0,0,344.2793,137.459Z"/><path d="M352.519,138.9151a2.18,2.18,0,0,1-1.6079-.5508,2.1247,2.1247,0,0,1-.5522-1.5723v-4.581H349.127v-1.6485h.64a.7621.7621,0,0,0,.6318-.2158,1.0422,1.0422,0,0,0,.168-.6475v-1.4248h1.84v2.2881h1.7119v1.6485h-1.7119v5.0556h1.584v1.6485Z"/><path d="M359.207,139.1065a4.169,4.169,0,0,1-1.6562-.3115,3.4252,3.4252,0,0,1-1.232-.88,3.9409,3.9409,0,0,1-.7758-1.376,6.2051,6.2051,0,0,1-.0078-3.6084,3.9193,3.9193,0,0,1,.76-1.3682,3.3774,3.3774,0,0,1,1.2158-.88,4.0711,4.0711,0,0,1,1.6324-.3115,3.9673,3.9673,0,0,1,1.6958.336,3.2561,3.2561,0,0,1,1.184.9121,3.9312,3.9312,0,0,1,.6959,1.3359,5.5334,5.5334,0,0,1,.2324,1.624v.6719h-5.5523v.2061a2.0414,2.0414,0,0,0,.5122,1.4541,1.9814,1.9814,0,0,0,1.52.5478,2.2632,2.2632,0,0,0,1.2558-.3174,3.6043,3.6043,0,0,0,.8721-.8105l1.104,1.2353a3.4448,3.4448,0,0,1-1.4,1.1319A4.8746,4.8746,0,0,1,359.207,139.1065Zm-.0322-7.1992a1.6385,1.6385,0,0,0-1.2959.5439,2.0491,2.0491,0,0,0-.48,1.4072v.128h3.4239v-.1436a2.1927,2.1927,0,0,0-.4239-1.4A1.4707,1.4707,0,0,0,359.1748,131.9073Z"/><path d="M368.0552,139.1065a4.2146,4.2146,0,0,1-1.648-.3037,3.1734,3.1734,0,0,1-1.208-.88,3.957,3.957,0,0,1-.7441-1.3838,6.0131,6.0131,0,0,1-.2559-1.8164,5.927,5.927,0,0,1,.2559-1.8076,3.8836,3.8836,0,0,1,.7441-1.3682,3.2181,3.2181,0,0,1,1.208-.8721,4.2146,4.2146,0,0,1,1.648-.3037,3.6351,3.6351,0,0,1,2.0874.56,3.1423,3.1423,0,0,1,1.1924,1.5518l-1.68.7519a1.7427,1.7427,0,0,0-.5362-.8711,1.5552,1.5552,0,0,0-1.0639-.3447,1.5326,1.5326,0,0,0-1.2881.5439,2.2529,2.2529,0,0,0-.4238,1.4239v1.52a2.2162,2.2162,0,0,0,.4238,1.416,1.5418,1.5418,0,0,0,1.2881.5361,1.5952,1.5952,0,0,0,1.1362-.376,2.5884,2.5884,0,0,0,.624-.9365l1.5674.752a3.2766,3.2766,0,0,1-1.2637,1.6562A3.7009,3.7009,0,0,1,368.0552,139.1065Z"/><path d="M375.5752,138.9151a2.1824,2.1824,0,0,1-1.6084-.5508,2.1282,2.1282,0,0,1-.5518-1.5723v-4.581h-1.2314v-1.6485h.64a.7623.7623,0,0,0,.6319-.2158,1.0423,1.0423,0,0,0,.1679-.6475v-1.4248h1.84v2.2881h1.7119v1.6485h-1.7119v5.0556h1.584v1.6485Z"/><path d="M387.1914,139.1065a5.2727,5.2727,0,0,1-1.9922-.3594,4.0059,4.0059,0,0,1-1.5205-1.08,4.9014,4.9014,0,0,1-.9678-1.7842,8.2331,8.2331,0,0,1-.3359-2.4716,8.5578,8.5578,0,0,1,.3359-2.5039,5.1282,5.1282,0,0,1,.9678-1.8409,4.1168,4.1168,0,0,1,1.5205-1.1279,4.971,4.971,0,0,1,1.9922-.3838,4.5238,4.5238,0,0,1,2.4951.64,4.3891,4.3891,0,0,1,1.584,1.9365l-1.8076.96a2.5475,2.5475,0,0,0-.7842-1.208,2.245,2.245,0,0,0-1.4873-.456,2.3672,2.3672,0,0,0-1.8809.8,3.3068,3.3068,0,0,0-.6953,2.24v1.76a3.2373,3.2373,0,0,0,.6953,2.2324,2.4,2.4,0,0,0,1.8809.7754,2.2942,2.2942,0,0,0,1.544-.5117,2.9582,2.9582,0,0,0,.872-1.2637l1.7119,1.0078a4.9236,4.9236,0,0,1-1.6162,1.9444A4.3191,4.3191,0,0,1,387.1914,139.1065Z"/><path d="M392.998,138.9151v-8.3526h2.0489v1.7285h.0791a2.7006,2.7006,0,0,1,.248-.6484,1.9926,1.9926,0,0,1,.44-.5518,2.1,2.1,0,0,1,.6484-.3837,2.4088,2.4088,0,0,1,.8711-.1446h.4482v1.9366h-.64a3.22,3.22,0,0,0-1.5684.3037,1.0569,1.0569,0,0,0-.5273.9922v5.12Z"/><path d="M404.5342,130.5625h1.92l-3.3594,9.84a4.2323,4.2323,0,0,1-.36.7763,1.944,1.944,0,0,1-.4717.5362,1.7707,1.7707,0,0,1-.6563.3037,3.6945,3.6945,0,0,1-.8955.0967h-1.2324v-1.6485h1.5039l.3838-1.166-2.9922-8.7383h2.0322l1.4561,4.4073.5439,2.1074h.0967l.5752-2.1074Z"/><path d="M407.7979,130.5625h2.0488v1.376h.0635a2.0984,2.0984,0,0,1,.8476-1.1435,2.5309,2.5309,0,0,1,1.4561-.4239,2.8552,2.8552,0,0,1,2.44,1.128,5.325,5.325,0,0,1,.84,3.2236,5.3938,5.3938,0,0,1-.84,3.248,2.8463,2.8463,0,0,1-2.44,1.1358,2.4534,2.4534,0,0,1-1.4473-.4317,2.232,2.232,0,0,1-.8564-1.1523h-.0635v4.5928h-2.0488Zm3.7607,6.8487a1.6986,1.6986,0,0,0,1.2959-.5284,1.9964,1.9964,0,0,0,.4961-1.4238v-1.44a2.0281,2.0281,0,0,0-.4961-1.4317,1.6841,1.6841,0,0,0-1.2959-.5361,1.9774,1.9774,0,0,0-1.2246.3682,1.1615,1.1615,0,0,0-.4873.9756v2.6562a1.1666,1.1666,0,0,0,.4873,1.0078A2.0343,2.0343,0,0,0,411.5586,137.4112Z"/><path d="M419.91,138.9151a2.1822,2.1822,0,0,1-1.6084-.5508,2.1282,2.1282,0,0,1-.5518-1.5723v-4.581h-1.2314v-1.6485h.64a.7621.7621,0,0,0,.6318-.2158,1.0422,1.0422,0,0,0,.168-.6475v-1.4248h1.84v2.2881H421.51v1.6485h-1.7119v5.0556h1.5839v1.6485Z"/><path d="M426.5342,139.1065a4.0689,4.0689,0,0,1-1.6084-.3037,3.33,3.33,0,0,1-1.2158-.88,4.0116,4.0116,0,0,1-.7754-1.3838,5.667,5.667,0,0,1-.2725-1.8164,5.5862,5.5862,0,0,1,.2725-1.8076,3.9388,3.9388,0,0,1,.7754-1.3682,3.3791,3.3791,0,0,1,1.2158-.8721,4.0689,4.0689,0,0,1,1.6084-.3037,4.1323,4.1323,0,0,1,1.6162.3037,3.3661,3.3661,0,0,1,1.2236.8721,3.9565,3.9565,0,0,1,.7764,1.3682,5.6143,5.6143,0,0,1,.2715,1.8076,5.6955,5.6955,0,0,1-.2715,1.8164,4.03,4.03,0,0,1-.7764,1.3838,3.317,3.317,0,0,1-1.2236.88A4.1323,4.1323,0,0,1,426.5342,139.1065Zm0-1.6475a1.667,1.667,0,0,0,1.28-.4961,2.0627,2.0627,0,0,0,.4638-1.456v-1.5518a2.0371,2.0371,0,0,0-.4638-1.44,1.6706,1.6706,0,0,0-1.28-.4961,1.6475,1.6475,0,0,0-1.2637.4961,2.0323,2.0323,0,0,0-.4648,1.44v1.5518a2.0578,2.0578,0,0,0,.4648,1.456A1.6439,1.6439,0,0,0,426.5342,137.459Z"/><path d="M439.6055,139.1065a5.3039,5.3039,0,0,1-2.44-.5127,5.6509,5.6509,0,0,1-1.72-1.3467l1.4238-1.3779a4.0853,4.0853,0,0,0,1.2881,1.0166,3.5354,3.5354,0,0,0,1.5762.3486,2.225,2.225,0,0,0,1.4717-.42,1.4128,1.4128,0,0,0,.4961-1.1358,1.2875,1.2875,0,0,0-.32-.9052,2.1511,2.1511,0,0,0-1.1993-.5078l-1.0566-.1582q-3.3442-.5289-3.3438-3.252a3.2274,3.2274,0,0,1,.28-1.3623,2.8994,2.8994,0,0,1,.8076-1.041,3.7441,3.7441,0,0,1,1.2725-.6651,5.6468,5.6468,0,0,1,1.6875-.2324,5.4184,5.4184,0,0,1,2.208.417,4.34,4.34,0,0,1,1.6162,1.2344l-1.44,1.3623a3.3086,3.3086,0,0,0-1.0078-.8242,3.1206,3.1206,0,0,0-1.4873-.3174,2.2775,2.2775,0,0,0-1.3682.3408,1.3,1.3,0,0,0-.0879,1.8955,2.59,2.59,0,0,0,1.1836.4444l1.04.1923a4.7769,4.7769,0,0,1,2.5039,1.0811,2.87,2.87,0,0,1,.8076,2.17,3.6271,3.6271,0,0,1-.2793,1.45,3.1546,3.1546,0,0,1-.8164,1.1211,3.7329,3.7329,0,0,1-1.3116.7285A5.6869,5.6869,0,0,1,439.6055,139.1065Z"/><path d="M449.1572,139.1065a4.1658,4.1658,0,0,1-1.6552-.3115,3.4271,3.4271,0,0,1-1.2325-.88,3.9339,3.9339,0,0,1-.7754-1.376,6.2063,6.2063,0,0,1-.0087-3.6084,3.9275,3.9275,0,0,1,.7607-1.3682,3.368,3.368,0,0,1,1.2158-.88,4.0635,4.0635,0,0,1,1.6319-.3115,3.9708,3.9708,0,0,1,1.6962.336,3.258,3.258,0,0,1,1.1836.9121,3.9408,3.9408,0,0,1,.6963,1.3359,5.5467,5.5467,0,0,1,.2315,1.624v.6719H447.35v.2061a2.0455,2.0455,0,0,0,.5117,1.4541,1.984,1.984,0,0,0,1.52.5478,2.2622,2.2622,0,0,0,1.2559-.3174,3.5952,3.5952,0,0,0,.8721-.8105l1.1035,1.2353a3.4366,3.4366,0,0,1-1.3994,1.1319A4.8724,4.8724,0,0,1,449.1572,139.1065Zm-.0312-7.1992a1.6377,1.6377,0,0,0-1.2959.5439,2.047,2.047,0,0,0-.4805,1.4072v.128h3.4238v-.1436a2.1956,2.1956,0,0,0-.4238-1.4A1.469,1.469,0,0,0,449.126,131.9073Z"/><path d="M454.709,138.9151v-8.3526h2.0488v1.7285h.0791a2.6967,2.6967,0,0,1,.2481-.6484,1.994,1.994,0,0,1,.44-.5518,2.1014,2.1014,0,0,1,.6484-.3837,2.4088,2.4088,0,0,1,.8711-.1446h.4483v1.9366h-.64a3.2193,3.2193,0,0,0-1.5683.3037,1.0568,1.0568,0,0,0-.5274.9922v5.12Z"/><path d="M462.917,138.9151l-2.7832-8.3526h2.0156l1.168,3.6006.8164,2.9756h.1113l.8164-2.9756,1.1358-3.6006h1.9521l-2.8,8.3526Z"/><path d="M470.5332,129.3467a1.2405,1.2405,0,0,1-.92-.2881,1.0118,1.0118,0,0,1-.28-.7353v-.32a1.0142,1.0142,0,0,1,.28-.7364,1.6,1.6,0,0,1,1.832,0,1,1,0,0,1,.2881.7364v.32a.9979.9979,0,0,1-.2881.7353A1.2463,1.2463,0,0,1,470.5332,129.3467Zm-1.0244,1.2158h2.0488v8.3526h-2.0488Z"/><path d="M477.2207,139.1065a4.2135,4.2135,0,0,1-1.6484-.3037,3.17,3.17,0,0,1-1.208-.88,3.9735,3.9735,0,0,1-.7442-1.3838,5.9976,5.9976,0,0,1-.2558-1.8164,5.9117,5.9117,0,0,1,.2558-1.8076,3.9,3.9,0,0,1,.7442-1.3682,3.2142,3.2142,0,0,1,1.208-.8721,4.2135,4.2135,0,0,1,1.6484-.3037,3.64,3.64,0,0,1,2.0879.56,3.1456,3.1456,0,0,1,1.1914,1.5518l-1.68.7519a1.7364,1.7364,0,0,0-.5361-.8711,1.5565,1.5565,0,0,0-1.0635-.3447,1.532,1.532,0,0,0-1.2881.5439,2.25,2.25,0,0,0-.4248,1.4239v1.52a2.2136,2.2136,0,0,0,.4248,1.416,1.5412,1.5412,0,0,0,1.2881.5361,1.5939,1.5939,0,0,0,1.1357-.376,2.5759,2.5759,0,0,0,.6241-.9365l1.5674.752a3.2777,3.2777,0,0,1-1.2637,1.6562A3.7016,3.7016,0,0,1,477.2207,139.1065Z"/><path d="M485.4287,139.1065a4.1663,4.1663,0,0,1-1.6553-.3115,3.4276,3.4276,0,0,1-1.2324-.88,3.9339,3.9339,0,0,1-.7754-1.376,6.2074,6.2074,0,0,1-.0088-3.6084,3.9293,3.9293,0,0,1,.7608-1.3682,3.368,3.368,0,0,1,1.2158-.88,4.063,4.063,0,0,1,1.6318-.3115,3.9709,3.9709,0,0,1,1.6963.336,3.2589,3.2589,0,0,1,1.1836.9121,3.9408,3.9408,0,0,1,.6963,1.3359,5.5467,5.5467,0,0,1,.2315,1.624v.6719h-5.5518v.2061a2.0455,2.0455,0,0,0,.5117,1.4541,1.9839,1.9839,0,0,0,1.5205.5478,2.2624,2.2624,0,0,0,1.2559-.3174,3.593,3.593,0,0,0,.872-.8105l1.1036,1.2353a3.4379,3.4379,0,0,1-1.3994,1.1319A4.8724,4.8724,0,0,1,485.4287,139.1065Zm-.0312-7.1992a1.6377,1.6377,0,0,0-1.2959.5439,2.0465,2.0465,0,0,0-.4805,1.4072v.128h3.4238v-.1436a2.1956,2.1956,0,0,0-.4238-1.4A1.469,1.469,0,0,0,485.3975,131.9073Z"/><path d="M493.7168,139.1065a4.4861,4.4861,0,0,1-2.0156-.4073,4.6454,4.6454,0,0,1-1.44-1.1289l1.2481-1.2158a3.785,3.785,0,0,0,1.0156.8321,2.59,2.59,0,0,0,1.2725.3046,1.7432,1.7432,0,0,0,1.0644-.2568.8441.8441,0,0,0,.3272-.7031.7584.7584,0,0,0-.2315-.584,1.4738,1.4738,0,0,0-.792-.2969l-.832-.1113a3.9531,3.9531,0,0,1-2.0723-.7764,2.1621,2.1621,0,0,1-.7119-1.7519,2.5931,2.5931,0,0,1,.2237-1.0957,2.33,2.33,0,0,1,.6406-.8321,2.9331,2.9331,0,0,1,1-.5283,4.3434,4.3434,0,0,1,1.3037-.1836,5.943,5.943,0,0,1,1.08.0879,3.9279,3.9279,0,0,1,.8564.2559,3.3136,3.3136,0,0,1,.7031.416,6.5123,6.5123,0,0,1,.6241.5517l-1.1993,1.2a3.1622,3.1622,0,0,0-.8808-.64,2.4617,2.4617,0,0,0-1.1192-.2568,1.5439,1.5439,0,0,0-.9687.24.7661.7661,0,0,0-.2959.624.7931.7931,0,0,0,.248.6319,1.7155,1.7155,0,0,0,.84.3125l.8486.1123q2.7042.3837,2.7041,2.4638a2.486,2.486,0,0,1-.248,1.1114,2.5423,2.5423,0,0,1-.6963.8642,3.3,3.3,0,0,1-1.08.5606A4.7027,4.7027,0,0,1,493.7168,139.1065Z"/><path id="Cloud" class="cls-9" d="M346.0213,152.7059a25.0242,25.0242,0,0,0-24.5988,20.32,18.7682,18.7682,0,0,0,3.3032,37.2361h42.5412a18.7682,18.7682,0,0,0,3.3032-37.2361,25.0241,25.0241,0,0,0-19.8692-19.8692A25.7039,25.7039,0,0,0,346.0213,152.7059Z"/><g id="Hardware"><rect class="cls-10" x="325.9947" y="189.1307" width="40" height="10.5882"/><polygon class="cls-10" points="365.995 188.739 325.995 188.739 333.054 173.444 358.936 173.444 365.995 188.739"/><rect x="351.2888" y="192.0718" width="4.7059" height="4.7059"/><rect x="357.7594" y="192.0718" width="4.7059" height="4.7059"/></g><g id="lock-3" data-name="lock"><g id="lock-4" data-name="lock"><rect class="cls-11" x="321.4" y="187.715" width="7.2" height="2.4"/><path class="cls-12" d="M325,199.315v-2.8m-4-6.528v-5.072a4,4,0,1,1,8,0v5.072m1.6,1.216a8.1983,8.1983,0,0,0-1.6-1.2161,7.9993,7.9993,0,0,0-8,0,8.1983,8.1983,0,0,0-1.6,1.2161,8,8,0,1,0,11.2,0Z"/><circle cx="325" cy="196.515" r="1.5"/></g></g><g id="key"><path class="cls-12" d="M453.54,187.0362a11.68,11.68,0,1,1-.5547-7.9353"/><circle cx="438.522" cy="183.8203" r="2.5"/><polyline class="cls-13" points="452.986 179.101 476.309 179.101 480.675 183.467 476.912 187.229 462.248 187.229 459.619 184.624 457.207 187.036 453.54 187.036"/></g><line class="cls-14" x1="340" y1="50.7617" x2="340" y2="98.174"/><polygon class="cls-15" points="336.011 97.007 340 103.915 343.989 97.007 336.011 97.007"/><line class="cls-16" x1="340" y1="50.7617" x2="458" y2="50.7617"/><path d="M207.3579,63.4151l-1.4883,1.76v3.2959h-2.1118V57.3033H205.87v5.5039h.08l1.584-2.0957,2.7681-3.4082h2.4321l-3.8882,4.6557,4.208,6.5122H210.542Z"/><path d="M217.4536,68.6631a4.169,4.169,0,0,1-1.6562-.312,3.424,3.424,0,0,1-1.232-.88,3.9319,3.9319,0,0,1-.7758-1.376,6.2046,6.2046,0,0,1-.0079-3.6079,3.9191,3.9191,0,0,1,.76-1.3681,3.37,3.37,0,0,1,1.2158-.88,4.0706,4.0706,0,0,1,1.6323-.312,3.9745,3.9745,0,0,1,1.6958.3359,3.2665,3.2665,0,0,1,1.1841.9121,3.9352,3.9352,0,0,1,.6958,1.336,5.53,5.53,0,0,1,.2325,1.624v.6719h-5.5523v.2065a2.0408,2.0408,0,0,0,.5122,1.4536,1.9814,1.9814,0,0,0,1.52.5479,2.2634,2.2634,0,0,0,1.2559-.3174,3.5949,3.5949,0,0,0,.8721-.8106l1.104,1.2359a3.44,3.44,0,0,1-1.4,1.1313A4.8733,4.8733,0,0,1,217.4536,68.6631Zm-.0322-7.2a1.64,1.64,0,0,0-1.2959.544,2.05,2.05,0,0,0-.48,1.4077v.1279h3.4238v-.1436a2.1916,2.1916,0,0,0-.4238-1.4A1.4694,1.4694,0,0,0,217.4214,61.4634Z"/><path d="M228.03,60.1192h1.92l-3.36,9.84a4.21,4.21,0,0,1-.36.7764,1.9323,1.9323,0,0,1-.4717.5356,1.7764,1.7764,0,0,1-.6562.3042,3.7188,3.7188,0,0,1-.896.0962h-1.232V70.023h1.5039l.3843-1.1655L221.87,60.1192h2.0318l1.456,4.4067.544,2.1074h.0962l.5761-2.1074Z"/><path d="M235.1978,68.4712V57.3033h5.0239a3.6769,3.6769,0,0,1,1.3843.248,2.9339,2.9339,0,0,1,1.0478.7041,3.02,3.02,0,0,1,.6558,1.0957,4.561,4.561,0,0,1,0,2.8242,3.0327,3.0327,0,0,1-.6558,1.0879,2.9339,2.9339,0,0,1-1.0478.7041,3.6769,3.6769,0,0,1-1.3843.2481H237.31v4.2558Zm2.1118-6.08h2.72a1.352,1.352,0,0,0,.96-.3281,1.2163,1.2163,0,0,0,.3521-.936v-.7359a1.1911,1.1911,0,0,0-.3521-.9277,1.3733,1.3733,0,0,0-.96-.32h-2.72Z"/><path d="M245.1655,68.4712v-8.352h2.0479v1.728h.08a2.6659,2.6659,0,0,1,.248-.648,1.9848,1.9848,0,0,1,.44-.5522,2.1172,2.1172,0,0,1,.648-.3838,2.4256,2.4256,0,0,1,.8721-.144h.4477v1.936h-.64a3.2118,3.2118,0,0,0-1.5684.3042,1.0563,1.0563,0,0,0-.5278.9917v5.12Z"/><path d="M254.6855,68.6631a4.0636,4.0636,0,0,1-1.6079-.3037,3.3281,3.3281,0,0,1-1.2163-.88,4.0193,4.0193,0,0,1-.7759-1.3838,5.6644,5.6644,0,0,1-.2719-1.8159,5.5951,5.5951,0,0,1,.2719-1.8081,3.95,3.95,0,0,1,.7759-1.3681,3.3811,3.3811,0,0,1,1.2163-.8721,4.0636,4.0636,0,0,1,1.6079-.3037,4.1249,4.1249,0,0,1,1.6158.3037,3.3681,3.3681,0,0,1,1.2241.8721,3.95,3.95,0,0,1,.7759,1.3681,5.5951,5.5951,0,0,1,.2719,1.8081,5.6644,5.6644,0,0,1-.2719,1.8159,4.0193,4.0193,0,0,1-.7759,1.3838,3.3157,3.3157,0,0,1-1.2241.88A4.1249,4.1249,0,0,1,254.6855,68.6631Zm0-1.6479a1.6659,1.6659,0,0,0,1.28-.4961,2.0563,2.0563,0,0,0,.4644-1.4561V63.5113a2.0313,2.0313,0,0,0-.4644-1.44,1.6677,1.6677,0,0,0-1.28-.4961,1.6471,1.6471,0,0,0-1.2641.4961,2.0312,2.0312,0,0,0-.4639,1.44V65.063a2.0562,2.0562,0,0,0,.4639,1.4561A1.6453,1.6453,0,0,0,254.6855,67.0152Z"/><path d="M262.9253,68.4712a2.1822,2.1822,0,0,1-1.6079-.55,2.1247,2.1247,0,0,1-.5523-1.5727V61.7671h-1.2319V60.1192h.64a.7636.7636,0,0,0,.6319-.2159,1.0438,1.0438,0,0,0,.1679-.6479V57.8311h1.84v2.2881h1.7119v1.6479h-1.7119v5.0562h1.584v1.6479Z"/><path d="M269.6133,68.6631a4.17,4.17,0,0,1-1.6563-.312,3.4236,3.4236,0,0,1-1.2319-.88,3.9337,3.9337,0,0,1-.7759-1.376,6.2035,6.2035,0,0,1-.0078-3.6079,3.9191,3.9191,0,0,1,.76-1.3681,3.3686,3.3686,0,0,1,1.2158-.88,4.0706,4.0706,0,0,1,1.6323-.312,3.9748,3.9748,0,0,1,1.6958.3359,3.2673,3.2673,0,0,1,1.1841.9121,3.9352,3.9352,0,0,1,.6958,1.336,5.53,5.53,0,0,1,.2324,1.624v.6719h-5.5522v.2065a2.0408,2.0408,0,0,0,.5122,1.4536,1.9812,1.9812,0,0,0,1.52.5479,2.2636,2.2636,0,0,0,1.2559-.3174,3.5927,3.5927,0,0,0,.872-.8106l1.104,1.2359a3.44,3.44,0,0,1-1.4,1.1313A4.8729,4.8729,0,0,1,269.6133,68.6631Zm-.0322-7.2a1.64,1.64,0,0,0-1.2959.544,2.05,2.05,0,0,0-.48,1.4077v.1279h3.4238v-.1436a2.1916,2.1916,0,0,0-.4238-1.4A1.4694,1.4694,0,0,0,269.5811,61.4634Z"/><path d="M278.4614,68.6631a4.2127,4.2127,0,0,1-1.6479-.3037,3.1736,3.1736,0,0,1-1.208-.88,3.9528,3.9528,0,0,1-.7442-1.3838,6.0071,6.0071,0,0,1-.2558-1.8159,5.9332,5.9332,0,0,1,.2558-1.8081,3.8833,3.8833,0,0,1,.7442-1.3681,3.2214,3.2214,0,0,1,1.208-.8721,4.2127,4.2127,0,0,1,1.6479-.3037,3.6349,3.6349,0,0,1,2.0879.56,3.1424,3.1424,0,0,1,1.1919,1.5518l-1.68.7519a1.7427,1.7427,0,0,0-.5361-.8715,1.5551,1.5551,0,0,0-1.064-.3443,1.5329,1.5329,0,0,0-1.2881.544,2.2508,2.2508,0,0,0-.4238,1.4238v1.52a2.2153,2.2153,0,0,0,.4238,1.416,1.5407,1.5407,0,0,0,1.2881.5362,1.5955,1.5955,0,0,0,1.1363-.376,2.5872,2.5872,0,0,0,.624-.936l1.5679.7519a3.2818,3.2818,0,0,1-1.2642,1.6563A3.7058,3.7058,0,0,1,278.4614,68.6631Z"/><path d="M285.981,68.4712a2.1825,2.1825,0,0,1-1.608-.55,2.1251,2.1251,0,0,1-.5522-1.5727V61.7671h-1.2319V60.1192h.64a.7633.7633,0,0,0,.6318-.2159,1.0437,1.0437,0,0,0,.168-.6479V57.8311h1.84v2.2881h1.712v1.6479h-1.712v5.0562h1.584v1.6479Z"/><path d="M300.1729,68.4712l-.896-2.8481h-3.9683l-.88,2.8481h-2.144l3.7441-11.1679h2.624l3.7119,11.1679Zm-2.8482-9.248h-.08l-1.4238,4.5923h2.9438Z"/><path d="M304.0127,68.4712V57.3033h5.0239a3.6765,3.6765,0,0,1,1.3843.248,2.9334,2.9334,0,0,1,1.0479.7041,3.0211,3.0211,0,0,1,.6557,1.0957,4.561,4.561,0,0,1,0,2.8242,3.0339,3.0339,0,0,1-.6557,1.0879,2.9334,2.9334,0,0,1-1.0479.7041,3.6765,3.6765,0,0,1-1.3843.2481h-2.9121v4.2558Zm2.1118-6.08h2.72a1.3525,1.3525,0,0,0,.96-.3281,1.2163,1.2163,0,0,0,.352-.936v-.7359a1.191,1.191,0,0,0-.352-.9277,1.3738,1.3738,0,0,0-.96-.32h-2.72Z"/><path d="M313.8047,68.4712V66.7754h1.4717V58.9991h-1.4717V57.3033h5.0718v1.6958h-1.4878v7.7763h1.4878v1.6958Z"/><path d="M323.58,68.6631a4.483,4.483,0,0,1-2.0161-.4077,4.6348,4.6348,0,0,1-1.44-1.1284l1.2481-1.2158a3.7886,3.7886,0,0,0,1.0161.832,2.5948,2.5948,0,0,0,1.272.3042,1.7407,1.7407,0,0,0,1.0639-.2564.8429.8429,0,0,0,.3281-.7036.76.76,0,0,0-.2319-.584,1.4767,1.4767,0,0,0-.792-.2963l-.832-.1119a3.9577,3.9577,0,0,1-2.0723-.7758,2.1628,2.1628,0,0,1-.7119-1.752,2.5987,2.5987,0,0,1,.2241-1.0962,2.3231,2.3231,0,0,1,.64-.832,2.9259,2.9259,0,0,1,1-.5278,4.3267,4.3267,0,0,1,1.3037-.1841,5.9469,5.9469,0,0,1,1.08.0879,3.9342,3.9342,0,0,1,.8559.2558,3.34,3.34,0,0,1,.7041.416,6.6443,6.6443,0,0,1,.624.5523l-1.2,1.2a3.169,3.169,0,0,0-.88-.64,2.4735,2.4735,0,0,0-1.12-.2563,1.5421,1.5421,0,0,0-.9677.24.7649.7649,0,0,0-.2959.6241.7935.7935,0,0,0,.2475.6318,1.7176,1.7176,0,0,0,.84.312l.8476.1123q2.7042.3838,2.7041,2.4639a2.4811,2.4811,0,0,1-.248,1.1118,2.5421,2.5421,0,0,1-.6958.8642,3.2931,3.2931,0,0,1-1.08.56A4.6847,4.6847,0,0,1,323.58,68.6631Z"/></svg>