<svg xmlns="http://www.w3.org/2000/svg" width="750" height="275" viewBox="0 0 750 275"><defs><style>.cls-1{fill:#e3f6ff;}.cls-1,.cls-11,.cls-12,.cls-13,.cls-2,.cls-4,.cls-5,.cls-6,.cls-7,.cls-8,.cls-9{stroke:#000;}.cls-1,.cls-2,.cls-8{stroke-miterlimit:10;}.cls-14,.cls-16,.cls-2,.cls-7{fill:none;}.cls-3,.cls-4,.cls-8,.cls-9{fill:#b3e6ff;}.cls-11,.cls-12,.cls-16,.cls-4,.cls-7{stroke-linecap:round;}.cls-11,.cls-12,.cls-13,.cls-14,.cls-16,.cls-4,.cls-5,.cls-6,.cls-7,.cls-9{stroke-linejoin:round;}.cls-5{fill:#fff;}.cls-6{fill:#f2f4f8;}.cls-10,.cls-11{fill:#e6d6ff;}.cls-12,.cls-13{fill:#87eded;}.cls-14,.cls-16{stroke:#50565b;stroke-width:2px;}.cls-15{fill:#50565b;}</style></defs><title>byok</title><g id="Figure"><g id="Database"><path class="cls-1" d="M524.7916,31.2053H469.2084c-3.8372,0-6.9479,2.6663-6.9479,5.9553v65.5087c0,3.2891,3.1107,5.9554,6.9479,5.9554h55.5832c3.8372,0,6.9479-2.6663,6.9479-5.9554V37.1606C531.74,33.8716,528.6288,31.2053,524.7916,31.2053Z"/><line class="cls-2" x1="462" y1="56.6892" x2="532" y2="56.6892"/><line class="cls-2" x1="463.129" y1="83.1408" x2="532" y2="83.1408"/><circle cx="477.6452" cy="43.7859" r="3.5"/><circle cx="477.6452" cy="69.915" r="3.5"/><circle cx="477.6452" cy="95.0763" r="3.5"/></g><g id="lock"><g id="lock-2" data-name="lock"><rect class="cls-3" x="458.5" y="95.415" width="9" height="3"/><path class="cls-4" d="M463,109.915v-3.5m-5-8.16v-6.34a5,5,0,1,1,10,0v6.34m2,1.52a10.2478,10.2478,0,0,0-2-1.52,9.999,9.999,0,0,0-10,0,10.2478,10.2478,0,0,0-2,1.52,10,10,0,1,0,14,0Z"/><circle cx="463" cy="106.415" r="1.5"/></g></g><rect class="cls-5" x="177.5" y="145.915" width="365" height="110"/><rect class="cls-6" x="161" y="128.915" width="365" height="110"/><g id="HP_icon" data-name="HP icon"><line class="cls-7" x1="206.0714" y1="195.7007" x2="228.9286" y2="195.7007"/><polyline class="cls-7" points="228.929 195.701 228.929 180.701 206.071 180.701 206.071 190.165"/><path class="cls-7" d="M224.6418,180.7007v-5.7153a7.1418,7.1418,0,1,0-14.2836,0v5.7153"/><path class="cls-7" d="M217.4961,206.415s-20.3532-11.9321-20.3532-35.3572"/><path class="cls-7" d="M237.8571,171.0578c0,23.4251-20.361,35.3572-20.361,35.3572"/><polyline class="cls-7" points="197.143 171.058 217.5 159.272 237.857 171.058"/><circle class="cls-8" cx="237.8571" cy="171.0578" r="2.1429"/><circle class="cls-8" cx="197.1429" cy="171.0578" r="2.1429"/><circle class="cls-8" cx="217.5" cy="206.415" r="2.1429"/></g><path id="Cloud" class="cls-1" d="M346.0213,172.7059a25.0242,25.0242,0,0,0-24.5988,20.32,18.7682,18.7682,0,0,0,3.3032,37.2361h42.5412a18.7682,18.7682,0,0,0,3.3032-37.2361,25.0241,25.0241,0,0,0-19.8692-19.8692A25.7039,25.7039,0,0,0,346.0213,172.7059Z"/><g id="Hardware"><rect class="cls-9" x="325.9947" y="209.1307" width="40" height="10.5882"/><polygon class="cls-9" points="365.995 208.739 325.995 208.739 333.054 193.444 358.936 193.444 365.995 208.739"/><rect x="351.2888" y="212.0718" width="4.7059" height="4.7059"/><rect x="357.7594" y="212.0718" width="4.7059" height="4.7059"/></g><g id="lock-3" data-name="lock"><g id="lock-4" data-name="lock"><rect class="cls-10" x="321.4" y="207.715" width="7.2" height="2.4"/><path class="cls-11" d="M325,219.315v-2.8m-4-6.528v-5.072a4,4,0,1,1,8,0v5.072m1.6,1.216a8.1983,8.1983,0,0,0-1.6-1.2161,7.9993,7.9993,0,0,0-8,0,8.1983,8.1983,0,0,0-1.6,1.2161,8,8,0,1,0,11.2,0Z"/><circle cx="325" cy="216.515" r="1.5"/></g></g><g id="key"><path class="cls-12" d="M446.569,207.9774a11.68,11.68,0,1,1-.5548-7.9353"/><circle cx="431.5505" cy="204.7615" r="2.5"/><polyline class="cls-13" points="446.014 200.042 469.338 200.042 473.704 204.408 469.941 208.17 455.276 208.17 452.647 205.565 450.235 207.977 446.569 207.977"/></g></g><g id="Line"><line class="cls-14" x1="340" y1="70.7617" x2="340" y2="118.174"/><polygon class="cls-15" points="336.011 117.007 340 123.915 343.989 117.007 336.011 117.007"/><line class="cls-16" x1="340" y1="70.7617" x2="458" y2="70.7617"/></g><g id="Text"><path d="M288.07,151.7852h-4.0737v4.13h-1.8482v-9.7725h1.8482v4.0039H288.07v-4.0039h1.8482v9.7725H288.07Z"/><path d="M296.582,148.6065h1.68l-2.94,8.61a3.6987,3.6987,0,0,1-.315.6787,1.702,1.702,0,0,1-.413.47,1.549,1.549,0,0,1-.5738.2656,3.2711,3.2711,0,0,1-.7842.084h-1.0781v-1.4424h1.3164l.336-1.02-2.6182-7.6465H292.97l1.2744,3.8564.4756,1.8438h.084l.5044-1.8438Z"/><path d="M299.438,148.6065h1.792v1.2041h.0556a1.8429,1.8429,0,0,1,.7422-1.001,2.2143,2.2143,0,0,1,1.274-.3711,2.4984,2.4984,0,0,1,2.1352.9873,4.6613,4.6613,0,0,1,.7349,2.8213,4.7213,4.7213,0,0,1-.7349,2.8418,2.491,2.491,0,0,1-2.1352.9941,2.15,2.15,0,0,1-1.2671-.3779,1.9551,1.9551,0,0,1-.7491-1.0078H301.23v4.0176h-1.792Zm3.29,5.9922a1.4856,1.4856,0,0,0,1.1338-.462,1.7455,1.7455,0,0,0,.4341-1.246v-1.26a1.7727,1.7727,0,0,0-.4341-1.2529,1.474,1.474,0,0,0-1.1338-.4688,1.7332,1.7332,0,0,0-1.0713.3213,1.0186,1.0186,0,0,0-.4267.8545v2.3242a1.0207,1.0207,0,0,0,.4267.8818A1.7855,1.7855,0,0,0,302.728,154.5987Z"/><path d="M310.792,156.083a3.6373,3.6373,0,0,1-1.4492-.2734,2.9968,2.9968,0,0,1-1.0782-.7695,3.4339,3.4339,0,0,1-.6787-1.2041,5.43,5.43,0,0,1-.0073-3.1573,3.4425,3.4425,0,0,1,.6651-1.1972,2.9428,2.9428,0,0,1,1.0639-.77,3.5655,3.5655,0,0,1,1.4282-.2734,3.4874,3.4874,0,0,1,1.4839.294,2.857,2.857,0,0,1,1.0362.7988,3.4443,3.4443,0,0,1,.6088,1.1689,4.8438,4.8438,0,0,1,.2032,1.4209v.5879H309.21v.1807a1.7857,1.7857,0,0,0,.4477,1.2715,1.732,1.732,0,0,0,1.33.48,1.9884,1.9884,0,0,0,1.0991-.2774,3.1365,3.1365,0,0,0,.7627-.709l.9663,1.0811a3.003,3.003,0,0,1-1.2251.9892A4.2634,4.2634,0,0,1,310.792,156.083Zm-.0283-6.3a1.4345,1.4345,0,0,0-1.1338.4756,1.7916,1.7916,0,0,0-.42,1.2324v.1114h2.9956v-.126a1.9168,1.9168,0,0,0-.3706-1.2246A1.2858,1.2858,0,0,0,310.7637,149.7832Z"/><path d="M315.65,155.9151v-7.3086h1.792v1.5127h.07a2.3285,2.3285,0,0,1,.2173-.5674,1.7491,1.7491,0,0,1,.3848-.4834,1.848,1.848,0,0,1,.5669-.3359,2.1255,2.1255,0,0,1,.7631-.126h.3921v1.6943h-.56a2.8171,2.8171,0,0,0-1.3721.2656.9246.9246,0,0,0-.4619.8682v4.4805Z"/><path d="M324.5674,155.9151v-9.7725h4.396a3.22,3.22,0,0,1,1.2109.2168,2.578,2.578,0,0,1,.917.6162,2.6539,2.6539,0,0,1,.5742.959,3.9981,3.9981,0,0,1,0,2.4717,2.655,2.655,0,0,1-.5742.9512,2.5534,2.5534,0,0,1-.917.6162,3.22,3.22,0,0,1-1.2109.2168h-2.5479v3.7246Zm1.8481-5.32h2.38a1.1825,1.1825,0,0,0,.84-.2872,1.0627,1.0627,0,0,0,.3081-.8183v-.6445a1.04,1.04,0,0,0-.3081-.8116,1.2023,1.2023,0,0,0-.84-.28h-2.38Z"/><path d="M333.29,155.9151v-7.3086h1.7919v1.5127h.07a2.32,2.32,0,0,1,.2173-.5674,1.7469,1.7469,0,0,1,.3847-.4834,1.8491,1.8491,0,0,1,.5669-.3359,2.126,2.126,0,0,1,.7632-.126h.3921v1.6943h-.56a2.8169,2.8169,0,0,0-1.372.2656.9246.9246,0,0,0-.462.8682v4.4805Z"/><path d="M341.62,156.083a3.5437,3.5437,0,0,1-1.4072-.2666,2.9125,2.9125,0,0,1-1.064-.7695,3.5091,3.5091,0,0,1-.6787-1.2109,4.95,4.95,0,0,1-.2383-1.5889,4.8856,4.8856,0,0,1,.2383-1.582,3.4455,3.4455,0,0,1,.6787-1.1973,2.9527,2.9527,0,0,1,1.064-.7627,3.5455,3.5455,0,0,1,1.4072-.2666,3.5967,3.5967,0,0,1,1.4141.2666,2.9362,2.9362,0,0,1,1.0708.7627,3.4624,3.4624,0,0,1,.6792,1.1973,4.9,4.9,0,0,1,.2378,1.582,4.9642,4.9642,0,0,1-.2378,1.5889,3.5263,3.5263,0,0,1-.6792,1.2109,2.8965,2.8965,0,0,1-1.0708.7695A3.5949,3.5949,0,0,1,341.62,156.083Zm0-1.4423a1.46,1.46,0,0,0,1.12-.4336,1.8006,1.8006,0,0,0,.4058-1.2745v-1.3574a1.7816,1.7816,0,0,0-.4058-1.2607,1.46,1.46,0,0,0-1.12-.4336,1.441,1.441,0,0,0-1.1059.4336,1.78,1.78,0,0,0-.4063,1.2607v1.3574a1.7989,1.7989,0,0,0,.4063,1.2745A1.4414,1.4414,0,0,0,341.62,154.6407Z"/><path d="M348.8291,155.9151a1.9118,1.9118,0,0,1-1.4067-.4815,1.8586,1.8586,0,0,1-.4829-1.376v-4.0087h-1.0782v-1.4424h.56a.6675.6675,0,0,0,.5527-.1885.9146.9146,0,0,0,.147-.5674v-1.2461h1.61v2.002h1.4976v1.4424h-1.4976v4.4238h1.3858v1.4424Z"/><path d="M354.6812,156.083a3.6375,3.6375,0,0,1-1.4493-.2734,2.9964,2.9964,0,0,1-1.0781-.7695,3.4339,3.4339,0,0,1-.6787-1.2041,5.428,5.428,0,0,1-.0073-3.1573,3.4439,3.4439,0,0,1,.665-1.1972,2.944,2.944,0,0,1,1.064-.77,3.5655,3.5655,0,0,1,1.4282-.2734,3.4877,3.4877,0,0,1,1.4839.294,2.8566,2.8566,0,0,1,1.0361.7988,3.4445,3.4445,0,0,1,.6089,1.1689,4.8438,4.8438,0,0,1,.2031,1.4209v.5879h-4.8579v.1807a1.7853,1.7853,0,0,0,.4478,1.2715,1.732,1.732,0,0,0,1.33.48,1.9887,1.9887,0,0,0,1.0991-.2774,3.14,3.14,0,0,0,.7627-.709l.9663,1.0811a3.0043,3.0043,0,0,1-1.2251.9892A4.2637,4.2637,0,0,1,354.6812,156.083Zm-.0284-6.3a1.4347,1.4347,0,0,0-1.1338.4756,1.792,1.792,0,0,0-.42,1.2324v.1114h2.9956v-.126a1.9162,1.9162,0,0,0-.3706-1.2246A1.2857,1.2857,0,0,0,354.6528,149.7832Z"/><path d="M362.4229,156.083a3.6686,3.6686,0,0,1-1.4419-.2666,2.7745,2.7745,0,0,1-1.0572-.7695,3.461,3.461,0,0,1-.6509-1.2109,5.2489,5.2489,0,0,1-.2241-1.5889,5.18,5.18,0,0,1,.2241-1.582,3.397,3.397,0,0,1,.6509-1.1973,2.8107,2.8107,0,0,1,1.0572-.7627,3.67,3.67,0,0,1,1.4419-.2666,3.1868,3.1868,0,0,1,1.8271.49,2.753,2.753,0,0,1,1.043,1.3584l-1.47.6573a1.5265,1.5265,0,0,0-.4688-.7627,1.3651,1.3651,0,0,0-.9311-.3008,1.3422,1.3422,0,0,0-1.127.4756,1.97,1.97,0,0,0-.3711,1.2461v1.33a1.938,1.938,0,0,0,.3711,1.2393,1.3493,1.3493,0,0,0,1.127.4688,1.3951,1.3951,0,0,0,.9941-.3291,2.259,2.259,0,0,0,.5459-.8184l1.3721.6572a2.868,2.868,0,0,1-1.106,1.4492A3.2385,3.2385,0,0,1,362.4229,156.083Z"/><path d="M369.0029,155.9151a1.9119,1.9119,0,0,1-1.4067-.4815,1.8586,1.8586,0,0,1-.4829-1.376v-4.0087h-1.0781v-1.4424h.56a.6675.6675,0,0,0,.5527-.1885.9146.9146,0,0,0,.147-.5674v-1.2461h1.61v2.002h1.4975v1.4424h-1.4975v4.4238h1.3857v1.4424Z"/><path d="M379.167,156.083a4.6,4.6,0,0,1-1.7432-.3154,3.483,3.483,0,0,1-1.33-.9443,4.2844,4.2844,0,0,1-.8472-1.5616,7.2,7.2,0,0,1-.294-2.163,7.4776,7.4776,0,0,1,.294-2.1905,4.4647,4.4647,0,0,1,.8472-1.61,3.6,3.6,0,0,1,1.33-.9873,4.3519,4.3519,0,0,1,1.7432-.336,3.949,3.949,0,0,1,2.1836.5606,3.8354,3.8354,0,0,1,1.3857,1.6933l-1.582.84a2.22,2.22,0,0,0-.6855-1.0567,1.9677,1.9677,0,0,0-1.3018-.3984,2.0716,2.0716,0,0,0-1.6455.6992,2.8894,2.8894,0,0,0-.6084,1.96v1.54a2.8282,2.8282,0,0,0,.6084,1.9532,2.0979,2.0979,0,0,0,1.6455.6787,2.0071,2.0071,0,0,0,1.3506-.4473,2.58,2.58,0,0,0,.7627-1.1064l1.498.8818a4.3,4.3,0,0,1-1.414,1.7012A3.7749,3.7749,0,0,1,379.167,156.083Z"/><path d="M384.249,155.9151v-7.3086h1.792v1.5127h.07a2.2677,2.2677,0,0,1,.2168-.5674,1.74,1.74,0,0,1,.3848-.4834,1.8388,1.8388,0,0,1,.5674-.3359,2.1228,2.1228,0,0,1,.7627-.126h.3916v1.6943h-.56a2.8174,2.8174,0,0,0-1.3721.2656.9255.9255,0,0,0-.4619.8682v4.4805Z"/><path d="M394.3418,148.6065h1.6807l-2.94,8.61a3.76,3.76,0,0,1-.3144.6787,1.717,1.717,0,0,1-.4131.47,1.5584,1.5584,0,0,1-.5742.2656,3.2693,3.2693,0,0,1-.7842.084H389.918v-1.4424h1.3164l.3359-1.02-2.6182-7.6465h1.7784l1.2734,3.8564.4766,1.8438h.084l.5039-1.8438Z"/><path d="M397.1982,148.6065h1.792v1.2041h.0557a1.84,1.84,0,0,1,.7422-1.001,2.2154,2.2154,0,0,1,1.2744-.3711,2.4984,2.4984,0,0,1,2.1348.9873,4.6586,4.6586,0,0,1,.7343,2.8213,4.7187,4.7187,0,0,1-.7343,2.8418,2.491,2.491,0,0,1-2.1348.9941,2.1522,2.1522,0,0,1-1.2676-.3779,1.9571,1.9571,0,0,1-.749-1.0078H398.99v4.0176h-1.792Zm3.29,5.9922a1.4843,1.4843,0,0,0,1.1338-.462,1.7457,1.7457,0,0,0,.4336-1.246v-1.26a1.7729,1.7729,0,0,0-.4336-1.2529,1.4726,1.4726,0,0,0-1.1338-.4688,1.734,1.734,0,0,0-1.0713.3213,1.0172,1.0172,0,0,0-.4268.8545v2.3242a1.0193,1.0193,0,0,0,.4268.8818A1.7863,1.7863,0,0,0,400.4883,154.5987Z"/><path d="M407.7969,155.9151a1.9134,1.9134,0,0,1-1.4073-.4815,1.8592,1.8592,0,0,1-.4834-1.376v-4.0087h-1.0781v-1.4424h.5606a.6675.6675,0,0,0,.5527-.1885.9177.9177,0,0,0,.1475-.5674v-1.2461h1.6093v2.002h1.4981v1.4424h-1.4981v4.4238h1.3868v1.4424Z"/><path d="M413.5918,156.083a3.5392,3.5392,0,0,1-1.4063-.2666,2.9048,2.9048,0,0,1-1.0644-.7695,3.5075,3.5075,0,0,1-.6787-1.2109,4.95,4.95,0,0,1-.2383-1.5889,4.8856,4.8856,0,0,1,.2383-1.582,3.4439,3.4439,0,0,1,.6787-1.1973,2.9448,2.9448,0,0,1,1.0644-.7627,3.541,3.541,0,0,1,1.4063-.2666,3.5939,3.5939,0,0,1,1.4141.2666,2.9368,2.9368,0,0,1,1.0712.7627,3.4441,3.4441,0,0,1,.6788,1.1973,4.8884,4.8884,0,0,1,.2382,1.582,4.9529,4.9529,0,0,1-.2382,1.5889,3.5076,3.5076,0,0,1-.6788,1.2109,2.8971,2.8971,0,0,1-1.0712.7695A3.5921,3.5921,0,0,1,413.5918,156.083Zm0-1.4423a1.4589,1.4589,0,0,0,1.12-.4336,1.8012,1.8012,0,0,0,.4063-1.2745v-1.3574a1.7822,1.7822,0,0,0-.4063-1.2607,1.4585,1.4585,0,0,0-1.12-.4336,1.44,1.44,0,0,0-1.1055.4336,1.7821,1.7821,0,0,0-.4062,1.2607v1.3574a1.8012,1.8012,0,0,0,.4062,1.2745A1.44,1.44,0,0,0,413.5918,154.6407Z"/><path d="M425.0293,156.083a4.6276,4.6276,0,0,1-2.1348-.4492,4.9523,4.9523,0,0,1-1.5049-1.1777l1.2461-1.2061a3.5791,3.5791,0,0,0,1.127.89,3.0955,3.0955,0,0,0,1.3789.3047,1.9435,1.9435,0,0,0,1.2881-.3682,1.2348,1.2348,0,0,0,.4336-.9932,1.1276,1.1276,0,0,0-.2793-.792,1.8884,1.8884,0,0,0-1.05-.4443l-.9248-.1387q-2.9253-.4629-2.9258-2.8457a2.8222,2.8222,0,0,1,.2451-1.1914,2.5455,2.5455,0,0,1,.707-.9111,3.2775,3.2775,0,0,1,1.1133-.582,4.969,4.969,0,0,1,1.4766-.2032,4.7513,4.7513,0,0,1,1.9326.3653,3.7871,3.7871,0,0,1,1.4131,1.08l-1.26,1.1923a2.88,2.88,0,0,0-.8818-.7216,2.73,2.73,0,0,0-1.3018-.2774,1.9858,1.9858,0,0,0-1.1972.2979,1.1382,1.1382,0,0,0-.0772,1.6582,2.2655,2.2655,0,0,0,1.0361.3886l.91.168a4.18,4.18,0,0,1,2.1914.9463,2.5121,2.5121,0,0,1,.7061,1.8994,3.177,3.177,0,0,1-.2442,1.2686,2.7422,2.7422,0,0,1-.7148.98,3.257,3.257,0,0,1-1.1475.6377A4.9784,4.9784,0,0,1,425.0293,156.083Z"/><path d="M433.3877,156.083a3.6356,3.6356,0,0,1-1.4492-.2734,2.9955,2.9955,0,0,1-1.0781-.7695,3.4325,3.4325,0,0,1-.6788-1.2041,5.4246,5.4246,0,0,1-.0068-3.1573,3.4121,3.4121,0,0,1,.665-1.1972,2.9421,2.9421,0,0,1,1.0635-.77,3.5666,3.5666,0,0,1,1.4278-.2734,3.49,3.49,0,0,1,1.4843.294,2.8519,2.8519,0,0,1,1.0362.7988,3.4541,3.4541,0,0,1,.6093,1.1689,4.86,4.86,0,0,1,.2022,1.4209v.5879h-4.8574v.1807a1.786,1.786,0,0,0,.4482,1.2715,1.7283,1.7283,0,0,0,1.3291.48,1.989,1.989,0,0,0,1.1-.2774,3.1456,3.1456,0,0,0,.7627-.709l.9658,1.0811a3.0047,3.0047,0,0,1-1.2246.9892A4.2634,4.2634,0,0,1,433.3877,156.083Zm-.0283-6.3a1.4359,1.4359,0,0,0-1.1338.4756,1.7916,1.7916,0,0,0-.42,1.2324v.1114h2.9961v-.126a1.917,1.917,0,0,0-.3711-1.2246A1.2865,1.2865,0,0,0,433.3594,149.7832Z"/><path d="M438.2461,155.9151v-7.3086h1.792v1.5127h.07a2.2677,2.2677,0,0,1,.2168-.5674,1.74,1.74,0,0,1,.3848-.4834,1.8394,1.8394,0,0,1,.5673-.3359,2.1236,2.1236,0,0,1,.7627-.126h.3916v1.6943h-.56a2.8171,2.8171,0,0,0-1.3721.2656.9255.9255,0,0,0-.4619.8682v4.4805Z"/><path d="M445.4268,155.9151l-2.4356-7.3086h1.7637l1.0224,3.15.7139,2.6035h.0977l.7148-2.6035.9932-3.15h1.708l-2.4492,7.3086Z"/><path d="M452.0908,147.543a1.0869,1.0869,0,0,1-.8047-.252.887.887,0,0,1-.2451-.6445v-.2793a.8872.8872,0,0,1,.2451-.6445,1.4014,1.4014,0,0,1,1.6035,0,.8727.8727,0,0,1,.252.6445v.2793a.8725.8725,0,0,1-.252.6445A1.0943,1.0943,0,0,1,452.0908,147.543Zm-.8955,1.0635h1.792v7.3086h-1.792Z"/><path d="M457.9434,156.083a3.6764,3.6764,0,0,1-1.4424-.2666,2.7773,2.7773,0,0,1-1.0567-.7695,3.46,3.46,0,0,1-.6513-1.2109,5.2493,5.2493,0,0,1-.2237-1.5889,5.1806,5.1806,0,0,1,.2237-1.582,3.3961,3.3961,0,0,1,.6513-1.1973,2.8137,2.8137,0,0,1,1.0567-.7627,3.6782,3.6782,0,0,1,1.4424-.2666,3.1857,3.1857,0,0,1,1.8271.49,2.753,2.753,0,0,1,1.043,1.3584l-1.47.6573a1.5212,1.5212,0,0,0-.47-.7627,1.3636,1.3636,0,0,0-.9306-.3008,1.3424,1.3424,0,0,0-1.127.4756,1.9727,1.9727,0,0,0-.3711,1.2461v1.33a1.941,1.941,0,0,0,.3711,1.2393,1.3494,1.3494,0,0,0,1.127.4688,1.3944,1.3944,0,0,0,.9941-.3291,2.2526,2.2526,0,0,0,.5459-.8184l1.3721.6572A2.8688,2.8688,0,0,1,459.749,155.6,3.2356,3.2356,0,0,1,457.9434,156.083Z"/><path d="M465.125,156.083a3.6356,3.6356,0,0,1-1.4492-.2734,2.9955,2.9955,0,0,1-1.0781-.7695,3.4325,3.4325,0,0,1-.6788-1.2041,5.4246,5.4246,0,0,1-.0068-3.1573,3.4121,3.4121,0,0,1,.665-1.1972,2.9421,2.9421,0,0,1,1.0635-.77,3.5666,3.5666,0,0,1,1.4278-.2734,3.49,3.49,0,0,1,1.4843.294,2.8519,2.8519,0,0,1,1.0362.7988,3.4541,3.4541,0,0,1,.6093,1.1689,4.86,4.86,0,0,1,.2022,1.4209v.5879H463.543v.1807a1.786,1.786,0,0,0,.4482,1.2715,1.7283,1.7283,0,0,0,1.3291.48,1.9888,1.9888,0,0,0,1.1-.2774,3.1456,3.1456,0,0,0,.7627-.709l.9658,1.0811a3.0047,3.0047,0,0,1-1.2246.9892A4.2634,4.2634,0,0,1,465.125,156.083Zm-.0283-6.3a1.4359,1.4359,0,0,0-1.1338.4756,1.7916,1.7916,0,0,0-.42,1.2324v.1114h2.9961v-.126a1.917,1.917,0,0,0-.3711-1.2246A1.2865,1.2865,0,0,0,465.0967,149.7832Z"/><path d="M472.377,156.083a3.9159,3.9159,0,0,1-1.7637-.3574,4.0454,4.0454,0,0,1-1.26-.9863l1.0918-1.0645a3.3171,3.3171,0,0,0,.8887.7276,2.2674,2.2674,0,0,0,1.1133.2666,1.5243,1.5243,0,0,0,.9306-.2246.7367.7367,0,0,0,.2871-.6153.6642.6642,0,0,0-.2031-.5117,1.2879,1.2879,0,0,0-.6924-.2588l-.7285-.0976a3.4646,3.4646,0,0,1-1.8125-.6787,1.8914,1.8914,0,0,1-.623-1.5332,2.2831,2.2831,0,0,1,.1953-.959,2.0338,2.0338,0,0,1,.5605-.7285,2.5706,2.5706,0,0,1,.875-.462,3.7832,3.7832,0,0,1,1.1407-.1611,5.2473,5.2473,0,0,1,.9453.0772,3.41,3.41,0,0,1,.749.2246,2.9144,2.9144,0,0,1,.6162.3632,5.9383,5.9383,0,0,1,.5459.4834l-1.05,1.05a2.7823,2.7823,0,0,0-.7705-.5595,2.1587,2.1587,0,0,0-.9795-.2246,1.3548,1.3548,0,0,0-.8477.21.6707.6707,0,0,0-.2588.5459.6949.6949,0,0,0,.2168.5537,1.4993,1.4993,0,0,0,.7354.2725l.7422.0986q2.3656.3356,2.3662,2.1553a2.1746,2.1746,0,0,1-.2178.9736,2.2174,2.2174,0,0,1-.6084.7559,2.8971,2.8971,0,0,1-.9453.49A4.1163,4.1163,0,0,1,472.377,156.083Z"/><path d="M21.1479,18.1431h3.5562a4.6614,4.6614,0,0,1,1.729.3081,3.5246,3.5246,0,0,1,1.33.917,4.1741,4.1741,0,0,1,.854,1.5259,6.8657,6.8657,0,0,1,.3008,2.1347,6.87,6.87,0,0,1-.3008,2.1353,4.1749,4.1749,0,0,1-.854,1.5259,3.5258,3.5258,0,0,1-1.33.917,4.6533,4.6533,0,0,1-1.729.3081H21.1479Zm3.5562,8.1338a2.2227,2.2227,0,0,0,1.645-.6089,2.5452,2.5452,0,0,0,.6089-1.8691v-1.54a2.545,2.545,0,0,0-.6089-1.8691,2.2223,2.2223,0,0,0-1.645-.6089h-1.708v6.4956Z"/><path d="M36.0581,27.9151a1.2584,1.2584,0,0,1-.9311-.3428,1.5735,1.5735,0,0,1-.4268-.917h-.084a1.7164,1.7164,0,0,1-.7422,1.0708,2.5313,2.5313,0,0,1-1.3862.3569,2.367,2.367,0,0,1-1.7217-.5859,2.0814,2.0814,0,0,1-.602-1.5635,1.8926,1.8926,0,0,1,.812-1.6811,4.0888,4.0888,0,0,1,2.31-.5513h1.2461V23.169a1.3211,1.3211,0,0,0-.3222-.9522,1.3847,1.3847,0,0,0-1.0362-.3359,1.72,1.72,0,0,0-1.0146.2729,2.6992,2.6992,0,0,0-.6514.6514l-1.064-.958a3.0889,3.0889,0,0,1,1.0782-1.0205A3.5441,3.5441,0,0,1,33.3,20.439a3.3424,3.3424,0,0,1,2.2544.67,2.42,2.42,0,0,1,.77,1.9277v3.4361h.7276v1.4419ZM33.09,26.7813a1.884,1.884,0,0,0,1.022-.2642.8625.8625,0,0,0,.42-.7788v-.9595H33.3838q-1.4,0-1.4.89v.2363a.7721.7721,0,0,0,.2871.66A1.3415,1.3415,0,0,0,33.09,26.7813Z"/><path d="M40.7339,27.9151a1.91,1.91,0,0,1-1.4068-.4815,1.859,1.859,0,0,1-.4829-1.376V22.0489H37.7661V20.607h.56a.6677.6677,0,0,0,.5527-.189.9129.9129,0,0,0,.147-.5669V18.605h1.61v2.002h1.4976v1.4419H40.6362v4.4243H42.022v1.4419Z"/><path d="M49.064,27.9151a1.2586,1.2586,0,0,1-.9312-.3428,1.5734,1.5734,0,0,1-.4267-.917h-.084a1.7168,1.7168,0,0,1-.7422,1.0708,2.5318,2.5318,0,0,1-1.3862.3569,2.367,2.367,0,0,1-1.7217-.5859,2.0815,2.0815,0,0,1-.6021-1.5635,1.8926,1.8926,0,0,1,.812-1.6811,4.0891,4.0891,0,0,1,2.31-.5513h1.2461V23.169a1.3207,1.3207,0,0,0-.3223-.9522,1.3843,1.3843,0,0,0-1.0361-.3359,1.72,1.72,0,0,0-1.0147.2729,2.6988,2.6988,0,0,0-.6513.6514l-1.064-.958a3.0886,3.0886,0,0,1,1.0781-1.0205,3.5448,3.5448,0,0,1,1.7779-.3877,3.3426,3.3426,0,0,1,2.2544.67,2.42,2.42,0,0,1,.77,1.9277v3.4361h.7275v1.4419Zm-2.9683-1.1338a1.884,1.884,0,0,0,1.022-.2642.8627.8627,0,0,0,.42-.7788v-.9595H46.39q-1.4,0-1.4.89v.2363a.7719.7719,0,0,0,.2872.66A1.3413,1.3413,0,0,0,46.0957,26.7813Z"/><path d="M60.1934,27.9151a1.2586,1.2586,0,0,1-.9312-.3428,1.5741,1.5741,0,0,1-.4268-.917h-.0839a1.7168,1.7168,0,0,1-.7422,1.0708,2.5319,2.5319,0,0,1-1.3863.3569,2.3668,2.3668,0,0,1-1.7216-.5859,2.0815,2.0815,0,0,1-.6021-1.5635,1.8926,1.8926,0,0,1,.812-1.6811,4.0891,4.0891,0,0,1,2.31-.5513h1.2461V23.169a1.3207,1.3207,0,0,0-.3223-.9522,1.3843,1.3843,0,0,0-1.0361-.3359,1.72,1.72,0,0,0-1.0147.2729,2.6988,2.6988,0,0,0-.6513.6514l-1.064-.958a3.0886,3.0886,0,0,1,1.0781-1.0205,3.5448,3.5448,0,0,1,1.7779-.3877,3.3426,3.3426,0,0,1,2.2544.67,2.42,2.42,0,0,1,.77,1.9277v3.4361h.7275v1.4419Zm-2.9683-1.1338a1.884,1.884,0,0,0,1.022-.2642.8627.8627,0,0,0,.42-.7788v-.9595H57.519q-1.4,0-1.4.89v.2363a.7721.7721,0,0,0,.2871.66A1.3418,1.3418,0,0,0,57.2251,26.7813Z"/><path d="M64.8691,27.9151a1.91,1.91,0,0,1-1.4067-.4815,1.8586,1.8586,0,0,1-.4829-1.376V22.0489H61.9014V20.607h.56a.6679.6679,0,0,0,.5528-.189.9136.9136,0,0,0,.1469-.5669V18.605h1.61v2.002H66.269v1.4419H64.7715v4.4243h1.3857v1.4419Z"/><path d="M71.1274,27.9151V20.607h1.792v1.5122h.07a2.3207,2.3207,0,0,1,.2172-.5669,1.7347,1.7347,0,0,1,.3848-.4834,1.8513,1.8513,0,0,1,.5669-.336,2.1279,2.1279,0,0,1,.7632-.1259h.3921v1.6943h-.56a2.8119,2.8119,0,0,0-1.3721.2656.9246.9246,0,0,0-.4619.8682v4.48Z"/><path d="M79.5137,28.083a3.6461,3.6461,0,0,1-1.4492-.2729,2.9971,2.9971,0,0,1-1.0782-.77,3.4339,3.4339,0,0,1-.6787-1.2041A5.4263,5.4263,0,0,1,76.3,22.6792a3.4394,3.4394,0,0,1,.665-1.1972,2.9511,2.9511,0,0,1,1.064-.77,3.5655,3.5655,0,0,1,1.4282-.2729,3.4814,3.4814,0,0,1,1.4839.2939,2.8622,2.8622,0,0,1,1.0361.7984A3.4445,3.4445,0,0,1,82.5864,22.7a4.8438,4.8438,0,0,1,.2032,1.4209v.5879h-4.858V24.89a1.7879,1.7879,0,0,0,.4478,1.272,1.7338,1.7338,0,0,0,1.33.4794,1.9845,1.9845,0,0,0,1.0991-.2778,3.1267,3.1267,0,0,0,.7627-.709l.9663,1.0811a3.004,3.004,0,0,1-1.2251.99A4.2637,4.2637,0,0,1,79.5137,28.083Zm-.0283-6.3a1.4347,1.4347,0,0,0-1.1338.4761,1.791,1.791,0,0,0-.42,1.2319v.1119h2.9956v-.126a1.9187,1.9187,0,0,0-.3706-1.2251A1.2856,1.2856,0,0,0,79.4854,21.7832Z"/><path d="M86.7651,28.083a3.9234,3.9234,0,0,1-1.7641-.3569,4.0621,4.0621,0,0,1-1.26-.9868l1.0923-1.0645a3.2983,3.2983,0,0,0,.8892.7281,2.2639,2.2639,0,0,0,1.1128.2661,1.5253,1.5253,0,0,0,.9311-.2241.7386.7386,0,0,0,.2866-.6158.6645.6645,0,0,0-.2026-.5112,1.2932,1.2932,0,0,0-.6934-.2588l-.7275-.0981a3.468,3.468,0,0,1-1.8135-.6787,1.8935,1.8935,0,0,1-.6225-1.5332,2.27,2.27,0,0,1,.1958-.959,2.0308,2.0308,0,0,1,.56-.7281,2.5665,2.5665,0,0,1,.875-.4619,3.7822,3.7822,0,0,1,1.1411-.1611,5.2063,5.2063,0,0,1,.9449.0771,3.4236,3.4236,0,0,1,.749.2242,2.8914,2.8914,0,0,1,.6162.3637,5.9314,5.9314,0,0,1,.5459.4829l-1.05,1.05a2.7711,2.7711,0,0,0-.77-.56,2.159,2.159,0,0,0-.98-.2241,1.3492,1.3492,0,0,0-.8467.21.6705.6705,0,0,0-.2593.5459.6924.6924,0,0,0,.2173.5532,1.5038,1.5038,0,0,0,.7349.273l.7422.0981q2.3657.3356,2.3657,2.1558a2.1748,2.1748,0,0,1-.2168.9731,2.22,2.22,0,0,1-.6094.7559,2.8749,2.8749,0,0,1-.9448.49A4.1108,4.1108,0,0,1,86.7651,28.083Z"/><path d="M93.5269,27.9151a1.91,1.91,0,0,1-1.4068-.4815,1.859,1.859,0,0,1-.4829-1.376V22.0489H90.5591V20.607h.56a.6679.6679,0,0,0,.5528-.189.9136.9136,0,0,0,.1469-.5669V18.605h1.61v2.002h1.4976v1.4419H93.4292v4.4243h1.3857v1.4419Z"/><path d="M102.7393,28.083A3.6466,3.6466,0,0,1,101.29,27.81a2.9976,2.9976,0,0,1-1.0781-.77,3.4339,3.4339,0,0,1-.6787-1.2041,5.4263,5.4263,0,0,1-.0073-3.1568,3.4394,3.4394,0,0,1,.665-1.1972,2.9511,2.9511,0,0,1,1.064-.77,3.5655,3.5655,0,0,1,1.4282-.2729,3.4817,3.4817,0,0,1,1.4839.2939,2.8622,2.8622,0,0,1,1.0361.7984A3.4445,3.4445,0,0,1,105.812,22.7a4.8438,4.8438,0,0,1,.2031,1.4209v.5879h-4.8579V24.89a1.7879,1.7879,0,0,0,.4478,1.272,1.7338,1.7338,0,0,0,1.33.4794,1.9845,1.9845,0,0,0,1.0991-.2778,3.13,3.13,0,0,0,.7627-.709l.9663,1.0811a3.004,3.004,0,0,1-1.2251.99A4.2637,4.2637,0,0,1,102.7393,28.083Zm-.0284-6.3a1.435,1.435,0,0,0-1.1338.4761,1.7914,1.7914,0,0,0-.42,1.2319v.1119h2.9956v-.126a1.9187,1.9187,0,0,0-.3706-1.2251A1.2857,1.2857,0,0,0,102.7109,21.7832Z"/><path d="M107.5972,27.9151V20.607h1.792v1.2182h.07a2.342,2.342,0,0,1,.707-.9873,2.0415,2.0415,0,0,1,1.3369-.3989,2.1072,2.1072,0,0,1,1.7364.7422,3.28,3.28,0,0,1,.6015,2.1138v4.62h-1.792v-4.438a2.0244,2.0244,0,0,0-.28-1.1758,1.0576,1.0576,0,0,0-.9238-.3921,1.8964,1.8964,0,0,0-.539.0767,1.5136,1.5136,0,0,0-.462.2241,1.1692,1.1692,0,0,0-.3291.3642,1,1,0,0,0-.1259.5108v4.83Z"/><path d="M118.7129,28.083a3.6858,3.6858,0,0,1-1.4424-.2661,2.7826,2.7826,0,0,1-1.0566-.77,3.4586,3.4586,0,0,1-.6514-1.2109,5.2785,5.2785,0,0,1-.2236-1.5889,5.2116,5.2116,0,0,1,.2236-1.582,3.3915,3.3915,0,0,1,.6514-1.1968,2.8137,2.8137,0,0,1,1.0566-.7632,3.6877,3.6877,0,0,1,1.4424-.2661,3.1817,3.1817,0,0,1,1.8271.49,2.7511,2.7511,0,0,1,1.043,1.3579l-1.47.6578a1.52,1.52,0,0,0-.47-.7627,1.3617,1.3617,0,0,0-.9307-.3013,1.3413,1.3413,0,0,0-1.127.4761,1.9721,1.9721,0,0,0-.3711,1.2461v1.33a1.9411,1.9411,0,0,0,.3711,1.2388,1.3482,1.3482,0,0,0,1.127.4692,1.3961,1.3961,0,0,0,.9941-.3291,2.2522,2.2522,0,0,0,.5459-.8188l1.3721.6577A2.8708,2.8708,0,0,1,120.5186,27.6,3.24,3.24,0,0,1,118.7129,28.083Z"/><path d="M123.0107,27.9151V20.607h1.792v1.5122h.07a2.2643,2.2643,0,0,1,.2168-.5669,1.7257,1.7257,0,0,1,.3848-.4834,1.8421,1.8421,0,0,1,.5674-.336,2.1251,2.1251,0,0,1,.7627-.1259h.3916v1.6943h-.56a2.8119,2.8119,0,0,0-1.3721.2656.9255.9255,0,0,0-.4619.8682v4.48Z"/><path d="M133.1045,20.607h1.6807l-2.9405,8.61a3.7492,3.7492,0,0,1-.3144.6792,1.7074,1.7074,0,0,1-.4131.4693,1.5584,1.5584,0,0,1-.5742.2656,3.2491,3.2491,0,0,1-.7842.084h-1.0781V29.273h1.3164l.3359-1.02-2.6182-7.646h1.7784l1.2734,3.8559.4766,1.8438h.0839l.504-1.8438Z"/><path d="M135.96,20.607h1.792v1.2041h.0556a1.8379,1.8379,0,0,1,.7422-1.001,2.2158,2.2158,0,0,1,1.2744-.3711,2.4983,2.4983,0,0,1,2.1348.9873,4.6559,4.6559,0,0,1,.7344,2.8208,4.7166,4.7166,0,0,1-.7344,2.8418,2.4909,2.4909,0,0,1-2.1348.9941,2.1524,2.1524,0,0,1-1.2676-.3779,1.9576,1.9576,0,0,1-.749-1.0078h-.0556v4.0176H135.96Zm3.29,5.9922a1.4843,1.4843,0,0,0,1.1338-.462,1.747,1.747,0,0,0,.4336-1.2461v-1.26a1.7731,1.7731,0,0,0-.4336-1.2529,1.4726,1.4726,0,0,0-1.1338-.4688,1.7313,1.7313,0,0,0-1.0713.3218,1.0164,1.0164,0,0,0-.4267.854v2.3242a1.02,1.02,0,0,0,.4267.8818A1.7833,1.7833,0,0,0,139.25,26.5992Z"/><path d="M146.5586,27.9151a1.911,1.911,0,0,1-1.4072-.4815,1.8588,1.8588,0,0,1-.4834-1.376V22.0489H143.59V20.607h.5606a.6676.6676,0,0,0,.5527-.189.9161.9161,0,0,0,.1475-.5669V18.605H146.46v2.002h1.498v1.4419H146.46v4.4243h1.3867v1.4419Z"/><path d="M150.4082,19.543a1.0869,1.0869,0,0,1-.8047-.252.8867.8867,0,0,1-.2451-.644v-.28a.8867.8867,0,0,1,.2451-.644,1.4014,1.4014,0,0,1,1.6035,0,.8722.8722,0,0,1,.252.644v.28a.8722.8722,0,0,1-.252.644A1.0943,1.0943,0,0,1,150.4082,19.543Zm-.8955,1.064h1.792v7.3081h-1.792Z"/><path d="M156.2734,28.083a3.5475,3.5475,0,0,1-1.4062-.2661,2.913,2.913,0,0,1-1.0645-.77,3.5091,3.5091,0,0,1-.6787-1.2109,4.9479,4.9479,0,0,1-.2383-1.5889,4.8856,4.8856,0,0,1,.2383-1.582,3.4423,3.4423,0,0,1,.6787-1.1968,2.9473,2.9473,0,0,1,1.0645-.7632,3.5492,3.5492,0,0,1,1.4062-.2661,3.6021,3.6021,0,0,1,1.4141.2661,2.9393,2.9393,0,0,1,1.0713.7632,3.4423,3.4423,0,0,1,.6787,1.1968,4.8856,4.8856,0,0,1,.2383,1.582,4.9479,4.9479,0,0,1-.2383,1.5889,3.5091,3.5091,0,0,1-.6787,1.2109,2.9052,2.9052,0,0,1-1.0713.77A3.6,3.6,0,0,1,156.2734,28.083Zm0-1.4419a1.4577,1.4577,0,0,0,1.12-.434,1.8007,1.8007,0,0,0,.4062-1.274V23.5752a1.78,1.78,0,0,0-.4062-1.26,1.4592,1.4592,0,0,0-1.12-.4341,1.44,1.44,0,0,0-1.1054.4341,1.78,1.78,0,0,0-.4063,1.26v1.3579a1.8007,1.8007,0,0,0,.4063,1.274A1.4387,1.4387,0,0,0,156.2734,26.6411Z"/><path d="M161.2578,27.9151V20.607h1.792v1.2182h.07a2.3309,2.3309,0,0,1,.707-.9873,2.0407,2.0407,0,0,1,1.337-.3989,2.1051,2.1051,0,0,1,1.7353.7422,3.2769,3.2769,0,0,1,.6026,2.1138v4.62H165.71v-4.438a2.0249,2.0249,0,0,0-.28-1.1758,1.0576,1.0576,0,0,0-.9238-.3921,1.9017,1.9017,0,0,0-.5391.0767,1.5119,1.5119,0,0,0-.4619.2241,1.168,1.168,0,0,0-.3291.3642.9993.9993,0,0,0-.126.5108v4.83Z"/><path d="M172.08,20.607h1.7217l.7421,3.01.5743,2.5059h.0556l.6719-2.5059.8545-3.01h1.624l.8819,3.01.6855,2.5059h.0566l.5733-2.5059.7285-3.01h1.666l-2.0019,7.3081h-1.9327l-.9375-3.22-.5459-1.9878h-.0419l-.5323,1.9878L176,27.9151h-1.9043Z"/><path d="M185.1553,19.543a1.0868,1.0868,0,0,1-.8047-.252.8867.8867,0,0,1-.2451-.644v-.28a.8867.8867,0,0,1,.2451-.644,1.4014,1.4014,0,0,1,1.6035,0,.8722.8722,0,0,1,.252.644v.28a.8722.8722,0,0,1-.252.644A1.0945,1.0945,0,0,1,185.1553,19.543Zm-.8955,1.064h1.792v7.3081H184.26Z"/><path d="M190.4053,27.9151a1.9114,1.9114,0,0,1-1.4073-.4815,1.8592,1.8592,0,0,1-.4834-1.376V22.0489h-1.0781V20.607h.5606a.6677.6677,0,0,0,.5527-.189.9161.9161,0,0,0,.1475-.5669V18.605h1.6093v2.002h1.4981v1.4419h-1.4981v4.4243h1.3868v1.4419Z"/><path d="M193.3594,17.5552h1.792v4.27h.07a2.3292,2.3292,0,0,1,.707-.9873,2.0406,2.0406,0,0,1,1.3369-.3989,2.1052,2.1052,0,0,1,1.7354.7422,3.2775,3.2775,0,0,1,.6025,2.1138v4.62h-1.792v-4.438a2.0241,2.0241,0,0,0-.28-1.1758,1.0576,1.0576,0,0,0-.9238-.3921,1.9015,1.9015,0,0,0-.539.0767,1.5136,1.5136,0,0,0-.462.2241,1.1692,1.1692,0,0,0-.3291.3642,1,1,0,0,0-.1259.5108v4.83h-1.792Z"/><path d="M208.1572,23.4912l-1.3017,1.54v2.8838h-1.8477v-9.772h1.8477V22.959h.07l1.3857-1.834,2.4219-2.9819h2.1279l-3.4023,4.0737,3.6826,5.6983h-2.1982Z"/><path d="M216.5713,27.9151v-3.836l-3.3467-5.936h2.0723l2.2539,4.13h.0283l2.1982-4.13h2.0157l-3.36,5.9219v3.85Z"/><path d="M226.3008,28.083a4.57,4.57,0,0,1-1.75-.3217,3.4719,3.4719,0,0,1-1.3369-.9663,4.5829,4.5829,0,0,1-.8614-1.5821,7.0151,7.0151,0,0,1-.3086-2.1841,7.0342,7.0342,0,0,1,.3086-2.1767,4.5761,4.5761,0,0,1,.8614-1.5889,3.475,3.475,0,0,1,1.3369-.9663,4.9193,4.9193,0,0,1,3.5,0,3.5435,3.5435,0,0,1,1.3437.9663,4.452,4.452,0,0,1,.8614,1.5889,7.1916,7.1916,0,0,1,.3007,2.1767,7.1721,7.1721,0,0,1-.3007,2.1841,4.4577,4.4577,0,0,1-.8614,1.5821,3.54,3.54,0,0,1-1.3437.9663A4.5784,4.5784,0,0,1,226.3008,28.083Zm0-1.6381a2.129,2.129,0,0,0,1.6728-.7,2.8492,2.8492,0,0,0,.6231-1.96V22.273a2.8493,2.8493,0,0,0-.6231-1.96,2.3507,2.3507,0,0,0-3.3466,0,2.849,2.849,0,0,0-.6221,1.96v1.5122a2.8489,2.8489,0,0,0,.6221,1.96A2.13,2.13,0,0,0,226.3008,26.4449Z"/><path d="M235.583,23.4912l-1.3018,1.54v2.8838h-1.8476v-9.772h1.8476V22.959h.07l1.3857-1.834,2.4219-2.9819h2.1279l-3.4023,4.0737,3.6826,5.6983h-2.1983Z"/><path d="M223.7437,94.0474l-1.3018,1.54v2.8838h-1.8481v-9.772h1.8481v4.816h.07l1.3862-1.834,2.4219-2.982h2.128l-3.4019,4.0738,3.6821,5.6982H226.53Z"/><path d="M232.5781,98.6392a3.6443,3.6443,0,0,1-1.4492-.273,2.9955,2.9955,0,0,1-1.0781-.77,3.4305,3.4305,0,0,1-.6787-1.2041,5.4271,5.4271,0,0,1-.0074-3.1567,3.4394,3.4394,0,0,1,.6651-1.1973,2.9491,2.9491,0,0,1,1.064-.77,3.5651,3.5651,0,0,1,1.4282-.273,3.482,3.482,0,0,1,1.4839.294,2.862,2.862,0,0,1,1.0361.7983,3.4467,3.4467,0,0,1,.6089,1.169,4.8466,4.8466,0,0,1,.2031,1.4209v.5879h-4.8579v.1806a1.7875,1.7875,0,0,0,.4477,1.272,1.734,1.734,0,0,0,1.33.48,1.9849,1.9849,0,0,0,1.0991-.2778,3.1287,3.1287,0,0,0,.7627-.709l.9664,1.081a3.0064,3.0064,0,0,1-1.2251.99A4.2638,4.2638,0,0,1,232.5781,98.6392Zm-.0283-6.3a1.4349,1.4349,0,0,0-1.1338.4761,1.7908,1.7908,0,0,0-.42,1.2319v.1118h2.9956v-.126a1.9187,1.9187,0,0,0-.3706-1.2251A1.2858,1.2858,0,0,0,232.55,92.3394Z"/><path d="M241.832,91.1631h1.68l-2.94,8.61a3.6919,3.6919,0,0,1-.315.6792,1.6921,1.6921,0,0,1-.413.4692,1.5475,1.5475,0,0,1-.5738.2656,3.2458,3.2458,0,0,1-.7842.084h-1.0781V99.8291h1.3164l.336-1.02-2.6182-7.646H238.22l1.2744,3.856.4756,1.8437h.084l.5044-1.8437Z"/><path d="M248.1035,98.4712v-9.772H252.5a3.2192,3.2192,0,0,1,1.2109.2168,2.5652,2.5652,0,0,1,.917.6163,2.6509,2.6509,0,0,1,.5743.9589,3.9965,3.9965,0,0,1,0,2.4712,2.657,2.657,0,0,1-.5743.9517,2.5585,2.5585,0,0,1-.917.6162,3.2192,3.2192,0,0,1-1.2109.2168h-2.5478v3.7241Zm1.8482-5.32h2.38a1.1829,1.1829,0,0,0,.84-.2871,1.0637,1.0637,0,0,0,.3081-.8189v-.644a1.04,1.04,0,0,0-.3081-.812,1.2023,1.2023,0,0,0-.84-.28h-2.38Z"/><path d="M256.8257,98.4712V91.1631h1.792v1.5122h.07a2.3225,2.3225,0,0,1,.2173-.5669,1.7357,1.7357,0,0,1,.3848-.4834,1.8514,1.8514,0,0,1,.5668-.3359,2.1264,2.1264,0,0,1,.7632-.126h.3921v1.6944h-.56a2.81,2.81,0,0,0-1.3721.2656.9244.9244,0,0,0-.4619.8681v4.48Z"/><path d="M265.1558,98.6392a3.5547,3.5547,0,0,1-1.4073-.2661,2.92,2.92,0,0,1-1.0639-.77,3.5079,3.5079,0,0,1-.6787-1.211,4.9477,4.9477,0,0,1-.2383-1.5888,4.8862,4.8862,0,0,1,.2383-1.5821,3.4416,3.4416,0,0,1,.6787-1.1968,2.9525,2.9525,0,0,1,1.0639-.7631,3.553,3.553,0,0,1,1.4073-.2662,3.6037,3.6037,0,0,1,1.414.2662,2.9363,2.9363,0,0,1,1.0708.7631,3.4584,3.4584,0,0,1,.6792,1.1968,4.9,4.9,0,0,1,.2378,1.5821,4.9618,4.9618,0,0,1-.2378,1.5888,3.5251,3.5251,0,0,1-.6792,1.211,2.9037,2.9037,0,0,1-1.0708.77A3.6054,3.6054,0,0,1,265.1558,98.6392Zm0-1.4419a1.4587,1.4587,0,0,0,1.12-.4341,1.8,1.8,0,0,0,.4057-1.2739V94.1314a1.78,1.78,0,0,0-.4057-1.26,1.4608,1.4608,0,0,0-1.12-.4341,1.4419,1.4419,0,0,0-1.106.4341,1.7781,1.7781,0,0,0-.4062,1.26v1.3579a1.7981,1.7981,0,0,0,.4062,1.2739A1.44,1.44,0,0,0,265.1558,97.1973Z"/><path d="M272.3652,98.4712a1.91,1.91,0,0,1-1.4067-.4814,1.8586,1.8586,0,0,1-.4829-1.376V92.605h-1.0781V91.1631h.56a.6682.6682,0,0,0,.5528-.1889.9138.9138,0,0,0,.1469-.5669V89.1612h1.61v2.0019h1.4975V92.605h-1.4975v4.4243h1.3857v1.4419Z"/><path d="M278.2178,98.6392a3.6443,3.6443,0,0,1-1.4492-.273,2.9968,2.9968,0,0,1-1.0782-.77,3.4321,3.4321,0,0,1-.6787-1.2041,5.426,5.426,0,0,1-.0073-3.1567,3.4408,3.4408,0,0,1,.665-1.1973,2.9509,2.9509,0,0,1,1.064-.77,3.5655,3.5655,0,0,1,1.4282-.273,3.4814,3.4814,0,0,1,1.4839.294,2.862,2.862,0,0,1,1.0361.7983,3.4449,3.4449,0,0,1,.6089,1.169,4.8433,4.8433,0,0,1,.2032,1.4209v.5879h-4.858v.1806a1.7875,1.7875,0,0,0,.4478,1.272,1.7338,1.7338,0,0,0,1.33.48,1.9853,1.9853,0,0,0,1.0991-.2778,3.1287,3.1287,0,0,0,.7627-.709l.9663,1.081a3.0051,3.0051,0,0,1-1.2251.99A4.2637,4.2637,0,0,1,278.2178,98.6392Zm-.0283-6.3a1.4347,1.4347,0,0,0-1.1338.4761,1.7908,1.7908,0,0,0-.42,1.2319v.1118h2.9956v-.126a1.9187,1.9187,0,0,0-.3706-1.2251A1.2856,1.2856,0,0,0,278.19,92.3394Z"/><path d="M285.959,98.6392a3.68,3.68,0,0,1-1.4419-.2661,2.7816,2.7816,0,0,1-1.0571-.77,3.4583,3.4583,0,0,1-.6509-1.211,5.2464,5.2464,0,0,1-.2241-1.5888,5.1809,5.1809,0,0,1,.2241-1.5821,3.3915,3.3915,0,0,1,.6509-1.1968,2.8113,2.8113,0,0,1,1.0571-.7631,3.678,3.678,0,0,1,1.4419-.2662,3.182,3.182,0,0,1,1.8271.49,2.7507,2.7507,0,0,1,1.043,1.3579l-1.47.6577a1.5245,1.5245,0,0,0-.4688-.7627,1.3626,1.3626,0,0,0-.9311-.3013,1.3413,1.3413,0,0,0-1.127.4761,1.9693,1.9693,0,0,0-.3711,1.2461v1.33a1.9381,1.9381,0,0,0,.3711,1.2388,1.3485,1.3485,0,0,0,1.127.4692,1.3973,1.3973,0,0,0,.9941-.3291,2.2589,2.2589,0,0,0,.5459-.8189l1.3721.6578a2.87,2.87,0,0,1-1.106,1.4492A3.2421,3.2421,0,0,1,285.959,98.6392Z"/><path d="M292.5391,98.4712a1.91,1.91,0,0,1-1.4068-.4814,1.859,1.859,0,0,1-.4829-1.376V92.605h-1.0781V91.1631h.56a.6681.6681,0,0,0,.5528-.1889.9138.9138,0,0,0,.147-.5669V89.1612h1.61v2.0019h1.4976V92.605h-1.4976v4.4243h1.3857v1.4419Z"/><path d="M304.9565,98.4712l-.7836-2.4922h-3.4722l-.77,2.4922h-1.876l3.2759-9.772h2.2964l3.2475,9.772Zm-2.4917-8.0918h-.07l-1.2456,4.0176h2.5757Z"/><path d="M308.3169,98.4712v-9.772h4.396a3.22,3.22,0,0,1,1.2109.2168,2.5652,2.5652,0,0,1,.917.6163,2.6493,2.6493,0,0,1,.5742.9589,3.9965,3.9965,0,0,1,0,2.4712,2.6554,2.6554,0,0,1-.5742.9517,2.5585,2.5585,0,0,1-.917.6162,3.22,3.22,0,0,1-1.2109.2168H310.165v3.7241Zm1.8481-5.32h2.38a1.1829,1.1829,0,0,0,.84-.2871,1.0641,1.0641,0,0,0,.3081-.8189v-.644a1.04,1.04,0,0,0-.3081-.812,1.2023,1.2023,0,0,0-.84-.28h-2.38Z"/><path d="M316.8848,98.4712V96.9873h1.2876V90.1831h-1.2876V88.6992h4.438v1.4839h-1.3023v6.8042h1.3023v1.4839Z"/></g></svg>