<svg id="Layer_1" data-name="Layer 1" xmlns="http://www.w3.org/2000/svg" viewBox="0 0 750 270"><defs><style>.cls-1,.cls-10,.cls-9{fill:#87eded;}.cls-1,.cls-10,.cls-12,.cls-13,.cls-17,.cls-2,.cls-3,.cls-4,.cls-5,.cls-6,.cls-7,.cls-8{stroke:#000;}.cls-1,.cls-2,.cls-6,.cls-7{stroke-miterlimit:10;}.cls-2{fill:#dbfbfb;}.cls-3{fill:#fff;}.cls-10,.cls-12,.cls-13,.cls-14,.cls-16,.cls-17,.cls-3,.cls-4,.cls-5,.cls-8{stroke-linejoin:round;}.cls-17,.cls-4{fill:#f2f4f8;}.cls-14,.cls-16,.cls-5{fill:none;}.cls-10,.cls-12,.cls-16,.cls-17,.cls-5{stroke-linecap:round;}.cls-6,.cls-8{fill:#b3e6ff;}.cls-7{fill:#e3f6ff;}.cls-11,.cls-12,.cls-13{fill:#e6d6ff;}.cls-14,.cls-16{stroke:#50565b;stroke-width:2px;}.cls-15{fill:#50565b;}</style></defs><title>byok_vm</title><rect class="cls-1" x="542.5" y="45.9847" width="107" height="60"/><rect class="cls-2" x="536.5" y="52.818" width="107" height="60"/><rect class="cls-3" x="174.5" y="147.6379" width="365" height="110"/><rect class="cls-4" x="158" y="130.6379" width="365" height="110"/><g id="HP_icon" data-name="HP icon"><line class="cls-5" x1="203.0714" y1="197.4236" x2="225.9286" y2="197.4236"/><polyline class="cls-5" points="225.929 197.424 225.929 182.424 203.071 182.424 203.071 191.888"/><path class="cls-5" d="M221.6418,182.4236v-5.7153a7.1418,7.1418,0,1,0-14.2836,0v5.7153"/><path class="cls-5" d="M214.4961,208.1379s-20.3532-11.9321-20.3532-35.3571"/><path class="cls-5" d="M234.8571,172.7808c0,23.425-20.361,35.3571-20.361,35.3571"/><polyline class="cls-5" points="194.143 172.781 214.5 160.995 234.857 172.781"/><circle class="cls-6" cx="234.8571" cy="172.7808" r="2.1429"/><circle class="cls-6" cx="194.1429" cy="172.7808" r="2.1429"/><circle class="cls-6" cx="214.5" cy="208.1379" r="2.1429"/></g><path d="M290.07,153.5081h-4.0737v4.13h-1.8482v-9.7725h1.8482v4.0039H290.07v-4.0039h1.8482v9.7725H290.07Z"/><path d="M298.582,150.3294h1.68l-2.94,8.61a3.7018,3.7018,0,0,1-.315.6787,1.7015,1.7015,0,0,1-.413.47,1.5475,1.5475,0,0,1-.5738.2656,3.2711,3.2711,0,0,1-.7842.084h-1.0781v-1.4424h1.3164l.336-1.0195-2.6182-7.6465H294.97l1.2744,3.8565.4756,1.8437h.084l.5044-1.8437Z"/><path d="M301.438,150.3294h1.792v1.2041h.0556a1.8433,1.8433,0,0,1,.7422-1.001,2.215,2.215,0,0,1,1.274-.3711,2.4984,2.4984,0,0,1,2.1352.9873,4.6615,4.6615,0,0,1,.7349,2.8213,4.7211,4.7211,0,0,1-.7349,2.8418,2.4911,2.4911,0,0,1-2.1352.9942,2.15,2.15,0,0,1-1.2671-.378,1.9547,1.9547,0,0,1-.7491-1.0078H303.23v4.0176h-1.792Zm3.29,5.9922a1.4859,1.4859,0,0,0,1.1338-.4619,1.7457,1.7457,0,0,0,.4341-1.2461v-1.26a1.7729,1.7729,0,0,0-.4341-1.2529,1.474,1.474,0,0,0-1.1338-.4688,1.7339,1.7339,0,0,0-1.0713.3213,1.0187,1.0187,0,0,0-.4267.8545v2.3242a1.0209,1.0209,0,0,0,.4267.8819A1.7855,1.7855,0,0,0,304.728,156.3216Z"/><path d="M312.792,157.806a3.6356,3.6356,0,0,1-1.4492-.2735,2.9956,2.9956,0,0,1-1.0782-.7695,3.433,3.433,0,0,1-.6787-1.2041,5.43,5.43,0,0,1-.0073-3.1572,3.443,3.443,0,0,1,.6651-1.1973,2.9425,2.9425,0,0,1,1.0639-.7695,3.5638,3.5638,0,0,1,1.4282-.2735,3.4889,3.4889,0,0,1,1.4839.294,2.8581,2.8581,0,0,1,1.0362.7988,3.4447,3.4447,0,0,1,.6088,1.169,4.8433,4.8433,0,0,1,.2032,1.4209v.5878H311.21v.1807a1.7856,1.7856,0,0,0,.4477,1.2715,1.732,1.732,0,0,0,1.33.48,1.9884,1.9884,0,0,0,1.0991-.2774,3.136,3.136,0,0,0,.7627-.7089l.9663,1.081a3.004,3.004,0,0,1-1.2251.9893A4.2634,4.2634,0,0,1,312.792,157.806Zm-.0283-6.3a1.4345,1.4345,0,0,0-1.1338.4756,1.7912,1.7912,0,0,0-.42,1.2324v.1113h2.9956V153.2a1.9168,1.9168,0,0,0-.3706-1.2246A1.2858,1.2858,0,0,0,312.7637,151.5062Z"/><path d="M317.65,157.638v-7.3086h1.792v1.5127h.07a2.33,2.33,0,0,1,.2173-.5674,1.7506,1.7506,0,0,1,.3848-.4834,1.8519,1.8519,0,0,1,.5669-.3359,2.1255,2.1255,0,0,1,.7631-.126h.3921v1.6943h-.56a2.8158,2.8158,0,0,0-1.3721.2657.9244.9244,0,0,0-.4619.8681v4.4805Z"/><path d="M326.5674,157.638v-9.7725h4.396a3.22,3.22,0,0,1,1.2109.2168,2.578,2.578,0,0,1,.917.6162,2.6548,2.6548,0,0,1,.5742.959,3.9981,3.9981,0,0,1,0,2.4717,2.6533,2.6533,0,0,1-.5742.9512,2.5521,2.5521,0,0,1-.917.6162,3.22,3.22,0,0,1-1.2109.2168h-2.5479v3.7246Zm1.8481-5.32h2.38a1.1829,1.1829,0,0,0,.84-.2871,1.0629,1.0629,0,0,0,.3081-.8184v-.6445a1.04,1.04,0,0,0-.3081-.8115,1.2019,1.2019,0,0,0-.84-.28h-2.38Z"/><path d="M335.29,157.638v-7.3086h1.7919v1.5127h.07a2.322,2.322,0,0,1,.2173-.5674,1.7484,1.7484,0,0,1,.3847-.4834,1.8531,1.8531,0,0,1,.5669-.3359,2.126,2.126,0,0,1,.7632-.126h.3921v1.6943h-.56a2.8157,2.8157,0,0,0-1.372.2657.9245.9245,0,0,0-.462.8681v4.4805Z"/><path d="M343.62,157.806a3.5455,3.5455,0,0,1-1.4072-.2666,2.9128,2.9128,0,0,1-1.064-.77,3.5082,3.5082,0,0,1-.6787-1.2109,4.95,4.95,0,0,1-.2383-1.5889,4.8856,4.8856,0,0,1,.2383-1.582,3.4455,3.4455,0,0,1,.6787-1.1973,2.9539,2.9539,0,0,1,1.064-.7627,3.5455,3.5455,0,0,1,1.4072-.2666,3.5967,3.5967,0,0,1,1.4141.2666,2.9374,2.9374,0,0,1,1.0708.7627,3.4624,3.4624,0,0,1,.6792,1.1973,4.9,4.9,0,0,1,.2378,1.582,4.9642,4.9642,0,0,1-.2378,1.5889,3.5253,3.5253,0,0,1-.6792,1.2109,2.8968,2.8968,0,0,1-1.0708.77A3.5967,3.5967,0,0,1,343.62,157.806Zm0-1.4424a1.46,1.46,0,0,0,1.12-.4336,1.8005,1.8005,0,0,0,.4058-1.2744v-1.3574a1.782,1.782,0,0,0-.4058-1.2608,1.46,1.46,0,0,0-1.12-.4336,1.4414,1.4414,0,0,0-1.1059.4336,1.78,1.78,0,0,0-.4063,1.2608v1.3574a1.7988,1.7988,0,0,0,.4063,1.2744A1.441,1.441,0,0,0,343.62,156.3636Z"/><path d="M350.8291,157.638a1.9117,1.9117,0,0,1-1.4067-.4814,1.8586,1.8586,0,0,1-.4829-1.376v-4.0088h-1.0782v-1.4424h.56a.6675.6675,0,0,0,.5527-.1885.9144.9144,0,0,0,.147-.5674v-1.246h1.61v2.0019h1.4976v1.4424h-1.4976v4.4238h1.3858v1.4424Z"/><path d="M356.6812,157.806a3.6358,3.6358,0,0,1-1.4493-.2735,2.9952,2.9952,0,0,1-1.0781-.7695,3.433,3.433,0,0,1-.6787-1.2041,5.4276,5.4276,0,0,1-.0073-3.1572,3.4444,3.4444,0,0,1,.665-1.1973,2.9438,2.9438,0,0,1,1.064-.7695,3.5638,3.5638,0,0,1,1.4282-.2735,3.4892,3.4892,0,0,1,1.4839.294,2.8577,2.8577,0,0,1,1.0361.7988,3.4449,3.4449,0,0,1,.6089,1.169,4.8433,4.8433,0,0,1,.2031,1.4209v.5878h-4.8579v.1807a1.7852,1.7852,0,0,0,.4478,1.2715,1.732,1.732,0,0,0,1.33.48,1.9887,1.9887,0,0,0,1.0991-.2774,3.14,3.14,0,0,0,.7627-.7089l.9663,1.081a3.0053,3.0053,0,0,1-1.2251.9893A4.2637,4.2637,0,0,1,356.6812,157.806Zm-.0284-6.3a1.4347,1.4347,0,0,0-1.1338.4756,1.7917,1.7917,0,0,0-.42,1.2324v.1113h2.9956V153.2a1.9162,1.9162,0,0,0-.3706-1.2246A1.2856,1.2856,0,0,0,356.6528,151.5062Z"/><path d="M364.4229,157.806a3.67,3.67,0,0,1-1.4419-.2666,2.7747,2.7747,0,0,1-1.0572-.77,3.46,3.46,0,0,1-.6509-1.2109,5.2489,5.2489,0,0,1-.2241-1.5889,5.18,5.18,0,0,1,.2241-1.582,3.397,3.397,0,0,1,.6509-1.1973,2.8118,2.8118,0,0,1,1.0572-.7627,3.67,3.67,0,0,1,1.4419-.2666,3.1861,3.1861,0,0,1,1.8271.49,2.7526,2.7526,0,0,1,1.043,1.3584l-1.47.6572a1.5273,1.5273,0,0,0-.4688-.7627,1.3651,1.3651,0,0,0-.9311-.3008,1.3422,1.3422,0,0,0-1.127.4756,1.97,1.97,0,0,0-.3711,1.2461v1.33a1.9377,1.9377,0,0,0,.3711,1.2392,1.3493,1.3493,0,0,0,1.127.4688,1.3951,1.3951,0,0,0,.9941-.3291,2.259,2.259,0,0,0,.5459-.8184l1.3721.6573a2.8689,2.8689,0,0,1-1.106,1.4492A3.2393,3.2393,0,0,1,364.4229,157.806Z"/><path d="M371.0029,157.638a1.9119,1.9119,0,0,1-1.4067-.4814,1.8586,1.8586,0,0,1-.4829-1.376v-4.0088h-1.0781v-1.4424h.56a.6675.6675,0,0,0,.5527-.1885.9144.9144,0,0,0,.147-.5674v-1.246h1.61v2.0019h1.4975v1.4424h-1.4975v4.4238h1.3857v1.4424Z"/><path d="M381.167,157.806a4.6,4.6,0,0,1-1.7432-.3155,3.4819,3.4819,0,0,1-1.33-.9443,4.2921,4.2921,0,0,1-.8477-1.5615,7.218,7.218,0,0,1-.293-2.1631,7.4947,7.4947,0,0,1,.293-2.19,4.4728,4.4728,0,0,1,.8477-1.61,3.6,3.6,0,0,1,1.33-.9873,4.3536,4.3536,0,0,1,1.7432-.3359,3.9489,3.9489,0,0,1,2.1836.5605,3.8357,3.8357,0,0,1,1.3857,1.6934l-1.582.84a2.219,2.219,0,0,0-.6855-1.0566,1.9677,1.9677,0,0,0-1.3018-.3985,2.0713,2.0713,0,0,0-1.6455.6993,2.8893,2.8893,0,0,0-.6084,1.96v1.54a2.828,2.828,0,0,0,.6084,1.9531,2.0979,2.0979,0,0,0,1.6455.6787,2.0066,2.0066,0,0,0,1.3506-.4473,2.58,2.58,0,0,0,.7627-1.1064l1.498.8818a4.3,4.3,0,0,1-1.414,1.7012A3.775,3.775,0,0,1,381.167,157.806Z"/><path d="M386.249,157.638v-7.3086h1.792v1.5127h.07a2.2692,2.2692,0,0,1,.2168-.5674,1.7414,1.7414,0,0,1,.3848-.4834,1.8427,1.8427,0,0,1,.5674-.3359,2.1228,2.1228,0,0,1,.7627-.126h.3916v1.6943h-.56a2.8161,2.8161,0,0,0-1.3721.2657.9253.9253,0,0,0-.4619.8681v4.4805Z"/><path d="M396.3418,150.3294h1.6807l-2.94,8.61a3.7627,3.7627,0,0,1-.3144.6787,1.7165,1.7165,0,0,1-.4131.47,1.5568,1.5568,0,0,1-.5742.2656,3.2693,3.2693,0,0,1-.7842.084H391.918v-1.4424h1.3164l.3359-1.0195-2.6182-7.6465h1.7784l1.2734,3.8565.4766,1.8437h.084l.5039-1.8437Z"/><path d="M399.1982,150.3294h1.792v1.2041h.0557a1.84,1.84,0,0,1,.7422-1.001,2.2161,2.2161,0,0,1,1.2744-.3711,2.4984,2.4984,0,0,1,2.1348.9873,4.6588,4.6588,0,0,1,.7343,2.8213,4.7184,4.7184,0,0,1-.7343,2.8418,2.4911,2.4911,0,0,1-2.1348.9942,2.1523,2.1523,0,0,1-1.2676-.378,1.9567,1.9567,0,0,1-.749-1.0078H400.99v4.0176h-1.792Zm3.29,5.9922a1.4846,1.4846,0,0,0,1.1338-.4619,1.7459,1.7459,0,0,0,.4336-1.2461v-1.26a1.773,1.773,0,0,0-.4336-1.2529,1.4726,1.4726,0,0,0-1.1338-.4688,1.7347,1.7347,0,0,0-1.0713.3213,1.0173,1.0173,0,0,0-.4268.8545v2.3242a1.02,1.02,0,0,0,.4268.8819A1.7863,1.7863,0,0,0,402.4883,156.3216Z"/><path d="M409.7969,157.638a1.9134,1.9134,0,0,1-1.4073-.4814,1.8592,1.8592,0,0,1-.4834-1.376v-4.0088h-1.0781v-1.4424h.5606a.6675.6675,0,0,0,.5527-.1885.9175.9175,0,0,0,.1475-.5674v-1.246h1.6093v2.0019h1.4981v1.4424h-1.4981v4.4238h1.3868v1.4424Z"/><path d="M415.5918,157.806a3.541,3.541,0,0,1-1.4063-.2666,2.9051,2.9051,0,0,1-1.0644-.77,3.5065,3.5065,0,0,1-.6787-1.2109,4.95,4.95,0,0,1-.2383-1.5889,4.8856,4.8856,0,0,1,.2383-1.582,3.4439,3.4439,0,0,1,.6787-1.1973,2.946,2.946,0,0,1,1.0644-.7627,3.541,3.541,0,0,1,1.4063-.2666,3.5939,3.5939,0,0,1,1.4141.2666,2.938,2.938,0,0,1,1.0712.7627,3.4441,3.4441,0,0,1,.6788,1.1973,4.8884,4.8884,0,0,1,.2382,1.582,4.9529,4.9529,0,0,1-.2382,1.5889,3.5067,3.5067,0,0,1-.6788,1.2109,2.8974,2.8974,0,0,1-1.0712.77A3.5939,3.5939,0,0,1,415.5918,157.806Zm0-1.4424a1.4585,1.4585,0,0,0,1.12-.4336,1.8011,1.8011,0,0,0,.4063-1.2744v-1.3574a1.7826,1.7826,0,0,0-.4063-1.2608,1.4589,1.4589,0,0,0-1.12-.4336,1.44,1.44,0,0,0-1.1055.4336,1.7826,1.7826,0,0,0-.4062,1.2608v1.3574a1.8011,1.8011,0,0,0,.4062,1.2744A1.44,1.44,0,0,0,415.5918,156.3636Z"/><path d="M427.0293,157.806a4.6276,4.6276,0,0,1-2.1348-.4492,4.9542,4.9542,0,0,1-1.5049-1.1778l1.2461-1.206a3.58,3.58,0,0,0,1.127.89,3.0955,3.0955,0,0,0,1.3789.3047,1.9435,1.9435,0,0,0,1.2881-.3682,1.2345,1.2345,0,0,0,.4336-.9931,1.1276,1.1276,0,0,0-.2793-.792,1.8883,1.8883,0,0,0-1.05-.4444l-.9248-.1386q-2.9253-.4629-2.9258-2.8457a2.8216,2.8216,0,0,1,.2451-1.1914,2.5467,2.5467,0,0,1,.707-.9112,3.2793,3.2793,0,0,1,1.1133-.582,4.9692,4.9692,0,0,1,1.4766-.2031,4.7514,4.7514,0,0,1,1.9326.3652,3.7881,3.7881,0,0,1,1.4131,1.08l-1.26,1.1924a2.8817,2.8817,0,0,0-.8818-.7217,2.73,2.73,0,0,0-1.3018-.2774,1.9865,1.9865,0,0,0-1.1972.2979,1.1382,1.1382,0,0,0-.0772,1.6582,2.2643,2.2643,0,0,0,1.0361.3887l.91.1679a4.1806,4.1806,0,0,1,2.1914.9463,2.5124,2.5124,0,0,1,.7061,1.8994,3.177,3.177,0,0,1-.2442,1.2686,2.7426,2.7426,0,0,1-.7148.9805,3.2585,3.2585,0,0,1-1.1475.6377A4.9784,4.9784,0,0,1,427.0293,157.806Z"/><path d="M435.3877,157.806a3.6339,3.6339,0,0,1-1.4492-.2735,2.9943,2.9943,0,0,1-1.0781-.7695,3.4316,3.4316,0,0,1-.6788-1.2041,5.4243,5.4243,0,0,1-.0068-3.1572,3.4126,3.4126,0,0,1,.665-1.1973,2.9419,2.9419,0,0,1,1.0635-.7695,3.5649,3.5649,0,0,1,1.4278-.2735,3.4911,3.4911,0,0,1,1.4843.294,2.853,2.853,0,0,1,1.0362.7988,3.4546,3.4546,0,0,1,.6093,1.169,4.86,4.86,0,0,1,.2022,1.4209v.5878h-4.8574v.1807a1.7858,1.7858,0,0,0,.4482,1.2715,1.7283,1.7283,0,0,0,1.3291.48,1.989,1.989,0,0,0,1.1-.2774,3.1451,3.1451,0,0,0,.7627-.7089l.9658,1.081a3.0057,3.0057,0,0,1-1.2246.9893A4.2634,4.2634,0,0,1,435.3877,157.806Zm-.0283-6.3a1.4359,1.4359,0,0,0-1.1338.4756,1.7912,1.7912,0,0,0-.42,1.2324v.1113h2.9961V153.2a1.917,1.917,0,0,0-.3711-1.2246A1.2864,1.2864,0,0,0,435.3594,151.5062Z"/><path d="M440.2461,157.638v-7.3086h1.792v1.5127h.07a2.2692,2.2692,0,0,1,.2168-.5674,1.7414,1.7414,0,0,1,.3848-.4834,1.8434,1.8434,0,0,1,.5673-.3359,2.1236,2.1236,0,0,1,.7627-.126h.3916v1.6943h-.56a2.8158,2.8158,0,0,0-1.3721.2657.9253.9253,0,0,0-.4619.8681v4.4805Z"/><path d="M447.4268,157.638l-2.4356-7.3086h1.7637l1.0224,3.15.7139,2.6035h.0977l.7148-2.6035.9932-3.15h1.708l-2.4492,7.3086Z"/><path d="M454.0908,149.2659a1.0874,1.0874,0,0,1-.8047-.2519.8873.8873,0,0,1-.2451-.6446V148.09a.8873.8873,0,0,1,.2451-.6446,1.4018,1.4018,0,0,1,1.6035,0,.8728.8728,0,0,1,.252.6446v.2792a.8728.8728,0,0,1-.252.6446A1.0947,1.0947,0,0,1,454.0908,149.2659Zm-.8955,1.0635h1.792v7.3086h-1.792Z"/><path d="M459.9434,157.806a3.6782,3.6782,0,0,1-1.4424-.2666,2.7776,2.7776,0,0,1-1.0567-.77,3.4592,3.4592,0,0,1-.6513-1.2109,5.2493,5.2493,0,0,1-.2237-1.5889,5.1806,5.1806,0,0,1,.2237-1.582,3.3961,3.3961,0,0,1,.6513-1.1973,2.8148,2.8148,0,0,1,1.0567-.7627,3.6782,3.6782,0,0,1,1.4424-.2666,3.185,3.185,0,0,1,1.8271.49,2.7526,2.7526,0,0,1,1.043,1.3584l-1.47.6572a1.5221,1.5221,0,0,0-.47-.7627,1.3636,1.3636,0,0,0-.9306-.3008,1.3424,1.3424,0,0,0-1.127.4756,1.9727,1.9727,0,0,0-.3711,1.2461v1.33a1.9407,1.9407,0,0,0,.3711,1.2392,1.3494,1.3494,0,0,0,1.127.4688,1.3944,1.3944,0,0,0,.9941-.3291,2.2526,2.2526,0,0,0,.5459-.8184l1.3721.6573a2.87,2.87,0,0,1-1.1065,1.4492A3.2364,3.2364,0,0,1,459.9434,157.806Z"/><path d="M467.125,157.806a3.6339,3.6339,0,0,1-1.4492-.2735,2.9943,2.9943,0,0,1-1.0781-.7695,3.4316,3.4316,0,0,1-.6788-1.2041,5.4243,5.4243,0,0,1-.0068-3.1572,3.4126,3.4126,0,0,1,.665-1.1973,2.9419,2.9419,0,0,1,1.0635-.7695,3.5649,3.5649,0,0,1,1.4278-.2735,3.4911,3.4911,0,0,1,1.4843.294,2.853,2.853,0,0,1,1.0362.7988,3.4546,3.4546,0,0,1,.6093,1.169,4.86,4.86,0,0,1,.2022,1.4209v.5878H465.543v.1807a1.7858,1.7858,0,0,0,.4482,1.2715,1.7283,1.7283,0,0,0,1.3291.48,1.9888,1.9888,0,0,0,1.1-.2774,3.1451,3.1451,0,0,0,.7627-.7089l.9658,1.081a3.0057,3.0057,0,0,1-1.2246.9893A4.2634,4.2634,0,0,1,467.125,157.806Zm-.0283-6.3a1.4359,1.4359,0,0,0-1.1338.4756,1.7912,1.7912,0,0,0-.42,1.2324v.1113h2.9961V153.2a1.917,1.917,0,0,0-.3711-1.2246A1.2864,1.2864,0,0,0,467.0967,151.5062Z"/><path d="M474.377,157.806a3.9159,3.9159,0,0,1-1.7637-.3575,4.0454,4.0454,0,0,1-1.26-.9863l1.0918-1.0644a3.3186,3.3186,0,0,0,.8887.7275,2.2674,2.2674,0,0,0,1.1133.2666,1.5243,1.5243,0,0,0,.9306-.2246.7365.7365,0,0,0,.2871-.6152.6642.6642,0,0,0-.2031-.5118,1.288,1.288,0,0,0-.6924-.2587l-.7285-.0977a3.4638,3.4638,0,0,1-1.8125-.6787,1.8913,1.8913,0,0,1-.623-1.5332,2.2834,2.2834,0,0,1,.1953-.959,2.0346,2.0346,0,0,1,.5605-.7285,2.5687,2.5687,0,0,1,.875-.4619,3.7831,3.7831,0,0,1,1.1407-.1612,5.2473,5.2473,0,0,1,.9453.0772,3.4153,3.4153,0,0,1,.749.2246,2.9148,2.9148,0,0,1,.6162.3633,5.9087,5.9087,0,0,1,.5459.4834l-1.05,1.05a2.7805,2.7805,0,0,0-.7705-.56,2.1587,2.1587,0,0,0-.9795-.2246,1.3541,1.3541,0,0,0-.8477.21.67.67,0,0,0-.2588.5459.6952.6952,0,0,0,.2168.5537,1.4994,1.4994,0,0,0,.7354.2724l.7422.0987q2.3656.3354,2.3662,2.1552a2.1753,2.1753,0,0,1-.2178.9737,2.2171,2.2171,0,0,1-.6084.7558,2.8973,2.8973,0,0,1-.9453.49A4.1163,4.1163,0,0,1,474.377,157.806Z"/><path id="Cloud" class="cls-7" d="M343.0213,174.4289a25.0241,25.0241,0,0,0-24.5988,20.32,18.7682,18.7682,0,0,0,3.3032,37.2361h42.5412a18.7682,18.7682,0,0,0,3.3032-37.2361,25.0241,25.0241,0,0,0-19.8692-19.8693A25.695,25.695,0,0,0,343.0213,174.4289Z"/><g id="Hardware"><rect class="cls-8" x="322.9947" y="210.8536" width="40" height="10.5882"/><polygon class="cls-8" points="362.995 210.461 322.995 210.461 330.054 195.167 355.936 195.167 362.995 210.461"/><rect x="348.2888" y="213.7948" width="4.7059" height="4.7059"/><rect x="354.7594" y="213.7948" width="4.7059" height="4.7059"/></g><g id="lock"><g id="lock-2" data-name="lock"><rect class="cls-9" x="532.5" y="99.1379" width="9" height="3"/><path class="cls-10" d="M537,113.6379v-3.5m-5-8.16v-6.34a5,5,0,1,1,10,0v6.34m2,1.52a10.2473,10.2473,0,0,0-2-1.52,9.9984,9.9984,0,0,0-10,0,10.2473,10.2473,0,0,0-2,1.52,10,10,0,1,0,14,0Z"/><circle cx="537" cy="110.1379" r="1.5"/></g></g><g id="lock-3" data-name="lock"><g id="lock-4" data-name="lock"><rect class="cls-11" x="318.4" y="209.4379" width="7.2" height="2.4"/><path class="cls-12" d="M322,221.0379v-2.8m-4-6.528v-5.072a4,4,0,1,1,8,0v5.072m1.6,1.216a8.1978,8.1978,0,0,0-1.6-1.216,7.9987,7.9987,0,0,0-8,0,8.1978,8.1978,0,0,0-1.6,1.216,8,8,0,1,0,11.2,0Z"/><circle cx="322" cy="218.2379" r="1.5"/></g></g><g id="key"><path class="cls-12" d="M450.54,208.7592a11.68,11.68,0,1,1-.5547-7.9354"/><circle cx="435.522" cy="205.5432" r="2.5"/><polyline class="cls-13" points="449.986 200.824 473.309 200.824 477.675 205.189 473.912 208.952 459.248 208.952 456.619 206.347 454.207 208.759 450.54 208.759"/></g><line class="cls-14" x1="237" y1="82.4847" x2="237" y2="119.8969"/><polygon class="cls-15" points="233.011 118.73 237 125.638 240.989 118.73 233.011 118.73"/><line class="cls-16" x1="483" y1="82.818" x2="534" y2="82.818"/><line class="cls-16" x1="237" y1="82.4847" x2="328" y2="82.4847"/><path d="M115.7437,91.77l-1.3018,1.54v2.8838h-1.8481v-9.772h1.8481v4.8159h.07l1.3862-1.834,2.4219-2.9819h2.128l-3.4019,4.0737,3.6821,5.6983H118.53Z"/><path d="M124.5781,96.3621a3.6461,3.6461,0,0,1-1.4492-.2729,2.9979,2.9979,0,0,1-1.0781-.77,3.4323,3.4323,0,0,1-.6787-1.2041,5.4274,5.4274,0,0,1-.0074-3.1568,3.4394,3.4394,0,0,1,.6651-1.1973,2.95,2.95,0,0,1,1.064-.77,3.5651,3.5651,0,0,1,1.4282-.2729,3.482,3.482,0,0,1,1.4839.2939,2.8611,2.8611,0,0,1,1.0361.7984,3.4462,3.4462,0,0,1,.6089,1.1689A4.8471,4.8471,0,0,1,127.854,92.4v.5879h-4.8579v.1807a1.7874,1.7874,0,0,0,.4477,1.2719,1.7336,1.7336,0,0,0,1.33.4795,1.984,1.984,0,0,0,1.0991-.2778,3.1267,3.1267,0,0,0,.7627-.709l.9664,1.0811a3.0062,3.0062,0,0,1-1.2251.99A4.2638,4.2638,0,0,1,124.5781,96.3621Zm-.0283-6.3a1.4349,1.4349,0,0,0-1.1338.4761,1.7909,1.7909,0,0,0-.42,1.2319v.1118h2.9956v-.1259a1.9187,1.9187,0,0,0-.3706-1.2251A1.2858,1.2858,0,0,0,124.55,90.0623Z"/><path d="M133.832,88.886h1.68l-2.94,8.61a3.6919,3.6919,0,0,1-.315.6792,1.6925,1.6925,0,0,1-.413.4693,1.5506,1.5506,0,0,1-.5738.2656,3.2508,3.2508,0,0,1-.7842.084h-1.0781V97.5521h1.3164l.336-1.02-2.6182-7.646H130.22l1.2744,3.856.4756,1.8438h.084l.5044-1.8438Z"/><path d="M140.1035,96.1942v-9.772H144.5a3.2173,3.2173,0,0,1,1.2109.2168,2.565,2.565,0,0,1,.917.6162,2.65,2.65,0,0,1,.5743.959,3.9965,3.9965,0,0,1,0,2.4712,2.6574,2.6574,0,0,1-.5743.9516,2.5585,2.5585,0,0,1-.917.6162A3.2173,3.2173,0,0,1,144.5,92.47h-2.5478v3.7242Zm1.8482-5.32h2.38a1.1829,1.1829,0,0,0,.84-.2871,1.0635,1.0635,0,0,0,.3081-.8188v-.6441a1.04,1.04,0,0,0-.3081-.812,1.2023,1.2023,0,0,0-.84-.28h-2.38Z"/><path d="M148.8257,96.1942V88.886h1.792v1.5123h.07a2.321,2.321,0,0,1,.2173-.5669,1.7329,1.7329,0,0,1,.3848-.4834,1.85,1.85,0,0,1,.5668-.336,2.1264,2.1264,0,0,1,.7632-.126h.3921V90.58h-.56a2.8114,2.8114,0,0,0-1.3721.2656.9245.9245,0,0,0-.4619.8682v4.48Z"/><path d="M157.1558,96.3621a3.553,3.553,0,0,1-1.4073-.2661,2.9183,2.9183,0,0,1-1.0639-.77,3.5075,3.5075,0,0,1-.6787-1.2109,4.9479,4.9479,0,0,1-.2383-1.5889,4.8856,4.8856,0,0,1,.2383-1.582,3.4407,3.4407,0,0,1,.6787-1.1968,2.9516,2.9516,0,0,1,1.0639-.7632,3.553,3.553,0,0,1,1.4073-.2661,3.6037,3.6037,0,0,1,1.414.2661,2.9354,2.9354,0,0,1,1.0708.7632,3.4575,3.4575,0,0,1,.6792,1.1968,4.9,4.9,0,0,1,.2378,1.582,4.962,4.962,0,0,1-.2378,1.5889,3.5246,3.5246,0,0,1-.6792,1.2109,2.9026,2.9026,0,0,1-1.0708.77A3.6037,3.6037,0,0,1,157.1558,96.3621Zm0-1.4419a1.4587,1.4587,0,0,0,1.12-.4341,1.8,1.8,0,0,0,.4057-1.2739V91.8543a1.78,1.78,0,0,0-.4057-1.26,1.46,1.46,0,0,0-1.12-.4341,1.4415,1.4415,0,0,0-1.106.4341,1.7777,1.7777,0,0,0-.4062,1.26v1.3579a1.7979,1.7979,0,0,0,.4062,1.2739A1.44,1.44,0,0,0,157.1558,94.92Z"/><path d="M164.3652,96.1942a1.91,1.91,0,0,1-1.4067-.4815,1.8586,1.8586,0,0,1-.4829-1.376V90.3279h-1.0781V88.886h.56a.6679.6679,0,0,0,.5528-.1889.9138.9138,0,0,0,.1469-.5669V86.8841h1.61V88.886h1.4975v1.4419h-1.4975v4.4244h1.3857v1.4419Z"/><path d="M170.2178,96.3621a3.6461,3.6461,0,0,1-1.4492-.2729,2.9992,2.9992,0,0,1-1.0782-.77,3.4339,3.4339,0,0,1-.6787-1.2041,5.4263,5.4263,0,0,1-.0073-3.1568,3.4408,3.4408,0,0,1,.665-1.1973,2.952,2.952,0,0,1,1.064-.77,3.5655,3.5655,0,0,1,1.4282-.2729,3.4814,3.4814,0,0,1,1.4839.2939,2.8611,2.8611,0,0,1,1.0361.7984,3.4445,3.4445,0,0,1,.6089,1.1689,4.8438,4.8438,0,0,1,.2032,1.4209v.5879h-4.858v.1807a1.7875,1.7875,0,0,0,.4478,1.2719,1.7335,1.7335,0,0,0,1.33.4795,1.9845,1.9845,0,0,0,1.0991-.2778,3.1267,3.1267,0,0,0,.7627-.709l.9663,1.0811a3.0048,3.0048,0,0,1-1.2251.99A4.2637,4.2637,0,0,1,170.2178,96.3621Zm-.0283-6.3a1.4347,1.4347,0,0,0-1.1338.4761,1.791,1.791,0,0,0-.42,1.2319v.1118h2.9956v-.1259a1.9187,1.9187,0,0,0-.3706-1.2251A1.2856,1.2856,0,0,0,170.19,90.0623Z"/><path d="M177.959,96.3621a3.6781,3.6781,0,0,1-1.4419-.2661,2.7805,2.7805,0,0,1-1.0571-.77,3.4578,3.4578,0,0,1-.6509-1.2109,5.2466,5.2466,0,0,1-.2241-1.5889,5.18,5.18,0,0,1,.2241-1.582,3.3906,3.3906,0,0,1,.6509-1.1968,2.81,2.81,0,0,1,1.0571-.7632,3.6781,3.6781,0,0,1,1.4419-.2661,3.1828,3.1828,0,0,1,1.8271.49,2.7511,2.7511,0,0,1,1.043,1.3579l-1.47.6577a1.5245,1.5245,0,0,0-.4688-.7627,1.3631,1.3631,0,0,0-.9311-.3012,1.3415,1.3415,0,0,0-1.127.476,1.97,1.97,0,0,0-.3711,1.2461v1.33a1.9381,1.9381,0,0,0,.3711,1.2388,1.3482,1.3482,0,0,0,1.127.4692,1.3969,1.3969,0,0,0,.9941-.3291,2.2593,2.2593,0,0,0,.5459-.8188l1.3721.6577a2.87,2.87,0,0,1-1.106,1.4492A3.2421,3.2421,0,0,1,177.959,96.3621Z"/><path d="M184.5391,96.1942a1.91,1.91,0,0,1-1.4068-.4815,1.859,1.859,0,0,1-.4829-1.376V90.3279h-1.0781V88.886h.56a.6678.6678,0,0,0,.5528-.1889.9138.9138,0,0,0,.147-.5669V86.8841h1.61V88.886h1.4976v1.4419h-1.4976v4.4244h1.3857v1.4419Z"/><path d="M196.9565,96.1942l-.7836-2.4922h-3.4722l-.77,2.4922h-1.876l3.2759-9.772h2.2964l3.2475,9.772Zm-2.4917-8.0918h-.07L193.1489,92.12h2.5757Z"/><path d="M200.3169,96.1942v-9.772h4.396a3.2176,3.2176,0,0,1,1.2109.2168,2.565,2.565,0,0,1,.917.6162,2.6488,2.6488,0,0,1,.5742.959,3.9965,3.9965,0,0,1,0,2.4712,2.6558,2.6558,0,0,1-.5742.9516,2.5585,2.5585,0,0,1-.917.6162,3.2176,3.2176,0,0,1-1.2109.2168H202.165v3.7242Zm1.8481-5.32h2.38a1.1829,1.1829,0,0,0,.84-.2871,1.0638,1.0638,0,0,0,.3081-.8188v-.6441a1.0406,1.0406,0,0,0-.3081-.812,1.2023,1.2023,0,0,0-.84-.28h-2.38Z"/><path d="M208.8848,96.1942V94.71h1.2876V87.9061h-1.2876V86.4222h4.438v1.4839h-1.3023V94.71h1.3023v1.4839Z"/><path d="M217.439,96.3621a3.9239,3.9239,0,0,1-1.7642-.3569,4.0605,4.0605,0,0,1-1.26-.9868l1.0922-1.0645a3.296,3.296,0,0,0,.8892.728,2.2634,2.2634,0,0,0,1.1128.2662,1.5245,1.5245,0,0,0,.9311-.2242.7382.7382,0,0,0,.2867-.6157.6645.6645,0,0,0-.2027-.5112,1.2931,1.2931,0,0,0-.6933-.2588l-.7276-.0981a3.4672,3.4672,0,0,1-1.8134-.6788,1.8932,1.8932,0,0,1-.6226-1.5332,2.269,2.269,0,0,1,.1958-.9589,2.0322,2.0322,0,0,1,.56-.7281,2.5629,2.5629,0,0,1,.875-.4619,3.7817,3.7817,0,0,1,1.1411-.1611,5.2052,5.2052,0,0,1,.9448.0771,3.4236,3.4236,0,0,1,.749.2242,2.8914,2.8914,0,0,1,.6162.3637,5.9166,5.9166,0,0,1,.5459.4829l-1.05,1.05a2.7711,2.7711,0,0,0-.77-.56,2.159,2.159,0,0,0-.98-.2242,1.3492,1.3492,0,0,0-.8467.21.67.67,0,0,0-.2592.5459.6922.6922,0,0,0,.2173.5532,1.503,1.503,0,0,0,.7348.273l.7422.0981q2.3658.3356,2.3657,2.1558a2.1734,2.1734,0,0,1-.2168.9731,2.2212,2.2212,0,0,1-.6093.7559,2.8783,2.8783,0,0,1-.9449.49A4.1106,4.1106,0,0,1,217.439,96.3621Z"/><path d="M21.8618,27.1942,18.67,17.4222h1.89l1.498,4.76.8682,3.2481h.042l.854-3.2481,1.498-4.76h1.834l-3.1919,9.772Z"/><path d="M35.9033,20.18h-.0556l-.7564,1.5542L33.0894,25.43l-2.002-3.6958L30.3315,20.18h-.0561v7.0142h-1.75v-9.772h2.0859l2.5064,4.7739h.0556l2.4781-4.7739h2.0019v9.772h-1.75Z"/><path d="M39.1235,19.886h1.7222l.7422,3.01.5737,2.5059h.0562l.6718-2.5059.8541-3.01h1.624l.8823,3.01.6855,2.5059h.0562l.5742-2.5059.728-3.01H49.96l-2.0025,7.3082H46.0259l-.938-3.22-.5459-1.9878H44.5l-.5322,1.9878-.9239,3.22H41.14Z"/><path d="M56.4976,27.1942a1.2586,1.2586,0,0,1-.9312-.3428,1.5741,1.5741,0,0,1-.4268-.917h-.0839a1.7168,1.7168,0,0,1-.7422,1.0708,2.5319,2.5319,0,0,1-1.3863.3569,2.3668,2.3668,0,0,1-1.7216-.5859,2.0815,2.0815,0,0,1-.6021-1.5635,1.8925,1.8925,0,0,1,.812-1.6811,4.0891,4.0891,0,0,1,2.31-.5513h1.2461v-.5322a1.3207,1.3207,0,0,0-.3223-.9522,1.3843,1.3843,0,0,0-1.0361-.3359,1.72,1.72,0,0,0-1.0147.2729,2.697,2.697,0,0,0-.6513.6514l-1.064-.958a3.0886,3.0886,0,0,1,1.0781-1.0205,3.5448,3.5448,0,0,1,1.7779-.3877,3.3426,3.3426,0,0,1,2.2544.67,2.42,2.42,0,0,1,.77,1.9277v3.4361h.7275v1.4419ZM53.5293,26.06a1.884,1.884,0,0,0,1.022-.2642.8627.8627,0,0,0,.42-.7788v-.9595H53.8232q-1.4,0-1.4.89v.2363a.7718.7718,0,0,0,.2871.66A1.3411,1.3411,0,0,0,53.5293,26.06Z"/><path d="M58.9473,27.1942V19.886h1.792v1.5123h.07a2.321,2.321,0,0,1,.2173-.5669,1.7325,1.7325,0,0,1,.3847-.4834,1.8513,1.8513,0,0,1,.5669-.336,2.1264,2.1264,0,0,1,.7632-.126h.3921V21.58h-.56a2.8112,2.8112,0,0,0-1.372.2656.9245.9245,0,0,0-.4619.8682v4.48Z"/><path d="M67.3335,27.3621a3.6461,3.6461,0,0,1-1.4492-.2729,2.9979,2.9979,0,0,1-1.0781-.77,3.4325,3.4325,0,0,1-.6788-1.2041,5.4285,5.4285,0,0,1-.0073-3.1568,3.4394,3.4394,0,0,1,.6651-1.1973,2.9508,2.9508,0,0,1,1.0639-.77,3.5655,3.5655,0,0,1,1.4282-.2729,3.4814,3.4814,0,0,1,1.4839.2939,2.8606,2.8606,0,0,1,1.0362.7984,3.4443,3.4443,0,0,1,.6088,1.1689A4.8438,4.8438,0,0,1,70.6094,23.4v.5879H65.7515v.1807a1.7874,1.7874,0,0,0,.4477,1.2719,1.7335,1.7335,0,0,0,1.33.48,1.984,1.984,0,0,0,1.0991-.2778,3.1267,3.1267,0,0,0,.7627-.709l.9663,1.0811a3.0048,3.0048,0,0,1-1.2251.99A4.2634,4.2634,0,0,1,67.3335,27.3621Zm-.0283-6.3a1.4349,1.4349,0,0,0-1.1338.4761,1.7909,1.7909,0,0,0-.42,1.2319v.1118h2.9956v-.1259a1.9193,1.9193,0,0,0-.3706-1.2251A1.2858,1.2858,0,0,0,67.3052,21.0623Z"/><path d="M76.3916,18.8221a1.0875,1.0875,0,0,1-.8052-.252.885.885,0,0,1-.2451-.644v-.28a.885.885,0,0,1,.2451-.644,1.4007,1.4007,0,0,1,1.6031,0,.8725.8725,0,0,1,.2519.644v.28a.8725.8725,0,0,1-.2519.644A1.0913,1.0913,0,0,1,76.3916,18.8221Zm-.896,1.0639h1.792v7.3082h-1.792Z"/><path d="M79.3594,27.1942V19.886h1.792v1.2183h.07a2.3707,2.3707,0,0,1,.6719-.98,1.8849,1.8849,0,0,1,1.2881-.4062,2.2947,2.2947,0,0,1,1.3022.3642,2.1491,2.1491,0,0,1,.812,1.106h.0278a2.0563,2.0563,0,0,1,.7769-1.043,2.4054,2.4054,0,0,1,1.4634-.4272,1.9831,1.9831,0,0,1,1.6587.7422,3.3625,3.3625,0,0,1,.581,2.1137v4.62h-1.792v-4.438q0-1.5681-1.1758-1.5679a1.7093,1.7093,0,0,0-.5112.0767,1.3689,1.3689,0,0,0-.4341.2241,1.06,1.06,0,0,0-.413.875v4.83h-1.792v-4.438q0-1.5681-1.1758-1.5679a1.6646,1.6646,0,0,0-.4971.0767,1.3689,1.3689,0,0,0-.4341.2241,1.1722,1.1722,0,0,0-.3081.3642,1.0487,1.0487,0,0,0-.1186.5108v4.83Z"/><path d="M97.167,27.1942a1.2588,1.2588,0,0,1-.9312-.3428,1.5734,1.5734,0,0,1-.4267-.917h-.084a1.7164,1.7164,0,0,1-.7422,1.0708,2.5313,2.5313,0,0,1-1.3862.3569,2.367,2.367,0,0,1-1.7217-.5859,2.0815,2.0815,0,0,1-.6021-1.5635,1.8925,1.8925,0,0,1,.8121-1.6811,4.0888,4.0888,0,0,1,2.31-.5513h1.2461v-.5322a1.3207,1.3207,0,0,0-.3223-.9522,1.3843,1.3843,0,0,0-1.0361-.3359,1.72,1.72,0,0,0-1.0146.2729,2.6957,2.6957,0,0,0-.6514.6514l-1.064-.958a3.0881,3.0881,0,0,1,1.0782-1.0205,3.5441,3.5441,0,0,1,1.7778-.3877,3.3426,3.3426,0,0,1,2.2544.67,2.42,2.42,0,0,1,.77,1.9277v3.4361h.7275v1.4419ZM94.1987,26.06a1.884,1.884,0,0,0,1.022-.2642.8625.8625,0,0,0,.42-.7788v-.9595H94.4927q-1.4,0-1.4.89v.2363a.7718.7718,0,0,0,.2871.66A1.3406,1.3406,0,0,0,94.1987,26.06Z"/><path d="M106.21,27.81a2.4027,2.4027,0,0,1-.2031,1.0146,1.7276,1.7276,0,0,1-.6645.7354,3.6075,3.6075,0,0,1-1.19.4477,10.3851,10.3851,0,0,1-3.3457.0352,3.7672,3.7672,0,0,1-1.0571-.336,1.4094,1.4094,0,0,1-.5947-.539,1.4519,1.4519,0,0,1-.1821-.7281,1.2957,1.2957,0,0,1,.3427-.9589,1.688,1.688,0,0,1,.959-.441V26.886a1.19,1.19,0,0,1-.6929-.4414,1.267,1.267,0,0,1-.2451-.7783,1.0653,1.0653,0,0,1,.1123-.4975,1.1486,1.1486,0,0,1,.3008-.3716,1.834,1.834,0,0,1,.4273-.2593,2.5535,2.5535,0,0,1,.5039-.1616v-.0557a2.1906,2.1906,0,0,1-1.001-.8535,2.4139,2.4139,0,0,1-.3291-1.2729,2.2766,2.2766,0,0,1,.77-1.7974,3.3111,3.3111,0,0,1,2.2539-.6787,5.2648,5.2648,0,0,1,.6651.042,2.9971,2.9971,0,0,1,.6088.14v-.2383a.9284.9284,0,0,1,1.0362-1.0639h1.1338V19.97h-1.5538v.1963a2.1223,2.1223,0,0,1,.8541.84,2.4649,2.4649,0,0,1,.28,1.19,2.2536,2.2536,0,0,1-.7627,1.7778,3.3292,3.3292,0,0,1-2.2612.6724,4.4107,4.4107,0,0,1-1.12-.126,1.213,1.213,0,0,0-.3638.2588.5537.5537,0,0,0-.1543.3989q0,.5465.9522.5459h1.96a2.855,2.855,0,0,1,1.9532.5533A1.9671,1.9671,0,0,1,106.21,27.81Zm-1.68.21a.6308.6308,0,0,0-.28-.5464,1.7612,1.7612,0,0,0-.9658-.1958h-2.4922a.8918.8918,0,0,0-.3779.7559.7532.7532,0,0,0,.35.6582,2.2064,2.2064,0,0,0,1.19.2378h.896a2.7486,2.7486,0,0,0,1.2807-.2236A.7367.7367,0,0,0,104.5308,28.02Zm-2.1563-4.6059q1.3162,0,1.3159-1.1138v-.2368q0-1.1133-1.3159-1.1138t-1.3159,1.1138v.2368Q101.0586,23.4139,102.3745,23.4144Z"/><path d="M110.1172,27.3621a3.6461,3.6461,0,0,1-1.4492-.2729,2.9992,2.9992,0,0,1-1.0782-.77,3.4339,3.4339,0,0,1-.6787-1.2041,5.4285,5.4285,0,0,1-.0073-3.1568,3.4408,3.4408,0,0,1,.665-1.1973,2.952,2.952,0,0,1,1.064-.77,3.5655,3.5655,0,0,1,1.4282-.2729,3.4814,3.4814,0,0,1,1.4839.2939,2.8615,2.8615,0,0,1,1.0362.7984,3.4443,3.4443,0,0,1,.6088,1.1689,4.8438,4.8438,0,0,1,.2032,1.4209v.5879h-4.8579v.1807a1.7874,1.7874,0,0,0,.4477,1.2719,1.7335,1.7335,0,0,0,1.33.48,1.9843,1.9843,0,0,0,1.0991-.2778,3.1267,3.1267,0,0,0,.7627-.709l.9663,1.0811a3.0048,3.0048,0,0,1-1.2251.99A4.2637,4.2637,0,0,1,110.1172,27.3621Zm-.0283-6.3a1.4349,1.4349,0,0,0-1.1338.4761,1.7909,1.7909,0,0,0-.42,1.2319v.1118h2.9956v-.1259a1.9193,1.9193,0,0,0-.3706-1.2251A1.2858,1.2858,0,0,0,110.0889,21.0623Z"/><path d="M118.2788,19.886h1.792V21.09h.0557a1.84,1.84,0,0,1,.7422-1.001,2.2138,2.2138,0,0,1,1.2739-.3711,2.4984,2.4984,0,0,1,2.1352.9873,4.6586,4.6586,0,0,1,.7349,2.8208,4.7193,4.7193,0,0,1-.7349,2.8418,2.491,2.491,0,0,1-2.1352.9941,2.1513,2.1513,0,0,1-1.2671-.3779,1.9548,1.9548,0,0,1-.749-1.0078h-.0557V29.994h-1.792Zm3.29,5.9922a1.4858,1.4858,0,0,0,1.1338-.4619,1.7472,1.7472,0,0,0,.4341-1.2461V22.91a1.7738,1.7738,0,0,0-.4341-1.253,1.4737,1.4737,0,0,0-1.1338-.4687,1.73,1.73,0,0,0-1.0712.3218,1.0175,1.0175,0,0,0-.4268.854v2.3242a1.0205,1.0205,0,0,0,.4268.8818A1.7819,1.7819,0,0,0,121.5688,25.8782Z"/><path d="M126.6787,27.1942V19.886h1.792v1.5123h.07a2.325,2.325,0,0,1,.2173-.5669,1.7347,1.7347,0,0,1,.3848-.4834,1.85,1.85,0,0,1,.5669-.336,2.1256,2.1256,0,0,1,.7632-.126h.392V21.58h-.56a2.8116,2.8116,0,0,0-1.3721.2656.9245.9245,0,0,0-.4619.8682v4.48Z"/><path d="M135.0088,27.3621a3.5521,3.5521,0,0,1-1.4072-.2661,2.9179,2.9179,0,0,1-1.064-.77,3.5091,3.5091,0,0,1-.6787-1.2109,4.9479,4.9479,0,0,1-.2383-1.5889,4.8856,4.8856,0,0,1,.2383-1.582,3.4423,3.4423,0,0,1,.6787-1.1968,2.9511,2.9511,0,0,1,1.064-.7632,3.5521,3.5521,0,0,1,1.4072-.2661,3.6045,3.6045,0,0,1,1.4141.2661,2.9363,2.9363,0,0,1,1.0708.7632,3.4591,3.4591,0,0,1,.6792,1.1968,4.9024,4.9024,0,0,1,.2377,1.582,4.9649,4.9649,0,0,1-.2377,1.5889,3.5263,3.5263,0,0,1-.6792,1.2109,2.9034,2.9034,0,0,1-1.0708.77A3.6045,3.6045,0,0,1,135.0088,27.3621Zm0-1.4419a1.4585,1.4585,0,0,0,1.12-.4341,1.8,1.8,0,0,0,.4058-1.2739V22.8543a1.78,1.78,0,0,0-.4058-1.26,1.46,1.46,0,0,0-1.12-.4341,1.4415,1.4415,0,0,0-1.106.4341,1.7777,1.7777,0,0,0-.4062,1.26v1.3579a1.7979,1.7979,0,0,0,.4062,1.2739A1.44,1.44,0,0,0,135.0088,25.92Z"/><path d="M142.2183,27.1942a1.91,1.91,0,0,1-1.4068-.4815,1.859,1.859,0,0,1-.4829-1.376V21.3279h-1.0781V19.886h.56a.6678.6678,0,0,0,.5528-.1889.9138.9138,0,0,0,.147-.5669V17.8841h1.61V19.886h1.4976v1.4419h-1.4976v4.4244h1.3857v1.4419Z"/><path d="M148.07,27.3621a3.6461,3.6461,0,0,1-1.4492-.2729,2.9979,2.9979,0,0,1-1.0781-.77,3.4323,3.4323,0,0,1-.6787-1.2041,5.4274,5.4274,0,0,1-.0074-3.1568,3.4394,3.4394,0,0,1,.6651-1.1973,2.9508,2.9508,0,0,1,1.0639-.77,3.566,3.566,0,0,1,1.4283-.2729,3.4812,3.4812,0,0,1,1.4838.2939,2.8606,2.8606,0,0,1,1.0362.7984,3.4462,3.4462,0,0,1,.6089,1.1689,4.8471,4.8471,0,0,1,.2031,1.4209v.5879h-4.8579v.1807a1.7874,1.7874,0,0,0,.4477,1.2719,1.7336,1.7336,0,0,0,1.33.48,1.984,1.984,0,0,0,1.0991-.2778,3.1267,3.1267,0,0,0,.7627-.709l.9663,1.0811a3.0048,3.0048,0,0,1-1.2251.99A4.263,4.263,0,0,1,148.07,27.3621Zm-.0283-6.3a1.4349,1.4349,0,0,0-1.1338.4761,1.7909,1.7909,0,0,0-.42,1.2319v.1118h2.9956v-.1259a1.9187,1.9187,0,0,0-.3706-1.2251A1.2858,1.2858,0,0,0,148.042,21.0623Z"/><path d="M155.812,27.3621a3.6781,3.6781,0,0,1-1.4419-.2661,2.7813,2.7813,0,0,1-1.0571-.77,3.4578,3.4578,0,0,1-.6509-1.2109,5.2466,5.2466,0,0,1-.2241-1.5889,5.18,5.18,0,0,1,.2241-1.582,3.3906,3.3906,0,0,1,.6509-1.1968,2.8112,2.8112,0,0,1,1.0571-.7632,3.6781,3.6781,0,0,1,1.4419-.2661,3.1833,3.1833,0,0,1,1.8272.49,2.7515,2.7515,0,0,1,1.0429,1.3579l-1.47.6577a1.525,1.525,0,0,0-.4687-.7627,1.3634,1.3634,0,0,0-.9312-.3012,1.3412,1.3412,0,0,0-1.1269.476,1.9689,1.9689,0,0,0-.3711,1.2461v1.33a1.9375,1.9375,0,0,0,.3711,1.2388,1.3479,1.3479,0,0,0,1.1269.4692,1.3972,1.3972,0,0,0,.9942-.3291,2.2606,2.2606,0,0,0,.5459-.8188l1.372.6577a2.8708,2.8708,0,0,1-1.1059,1.4492A3.2427,3.2427,0,0,1,155.812,27.3621Z"/><path d="M162.3921,27.1942a1.91,1.91,0,0,1-1.4067-.4815,1.8586,1.8586,0,0,1-.483-1.376V21.3279h-1.0781V19.886h.56a.6676.6676,0,0,0,.5527-.1889.9131.9131,0,0,0,.147-.5669V17.8841h1.61V19.886h1.4976v1.4419h-1.4976v4.4244H163.68v1.4419Z"/><path d="M166.2422,18.8221a1.0875,1.0875,0,0,1-.8052-.252.8846.8846,0,0,1-.2451-.644v-.28a.8846.8846,0,0,1,.2451-.644,1.4006,1.4006,0,0,1,1.603,0,.8722.8722,0,0,1,.252.644v.28a.8722.8722,0,0,1-.252.644A1.0909,1.0909,0,0,1,166.2422,18.8221Zm-.896,1.0639h1.792v7.3082h-1.792Z"/><path d="M172.1079,27.3621a3.5525,3.5525,0,0,1-1.4072-.2661,2.9187,2.9187,0,0,1-1.064-.77,3.5091,3.5091,0,0,1-.6787-1.2109,4.9479,4.9479,0,0,1-.2383-1.5889,4.8856,4.8856,0,0,1,.2383-1.582,3.4423,3.4423,0,0,1,.6787-1.1968,2.952,2.952,0,0,1,1.064-.7632,3.5525,3.5525,0,0,1,1.4072-.2661,3.6038,3.6038,0,0,1,1.4141.2661,2.9363,2.9363,0,0,1,1.0708.7632,3.4591,3.4591,0,0,1,.6792,1.1968,4.9,4.9,0,0,1,.2378,1.582,4.962,4.962,0,0,1-.2378,1.5889,3.5263,3.5263,0,0,1-.6792,1.2109,2.9034,2.9034,0,0,1-1.0708.77A3.6038,3.6038,0,0,1,172.1079,27.3621Zm0-1.4419a1.4585,1.4585,0,0,0,1.12-.4341,1.8,1.8,0,0,0,.4058-1.2739V22.8543a1.78,1.78,0,0,0-.4058-1.26,1.46,1.46,0,0,0-1.12-.4341,1.4413,1.4413,0,0,0-1.1059.4341,1.7777,1.7777,0,0,0-.4063,1.26v1.3579a1.798,1.798,0,0,0,.4063,1.2739A1.44,1.44,0,0,0,172.1079,25.92Z"/><path d="M177.0918,27.1942V19.886h1.792v1.2183h.07a2.3429,2.3429,0,0,1,.707-.9873,2.0416,2.0416,0,0,1,1.337-.3989,2.1068,2.1068,0,0,1,1.7363.7422,3.28,3.28,0,0,1,.6015,2.1137v4.62h-1.7919v-4.438a2.0251,2.0251,0,0,0-.28-1.1758,1.0577,1.0577,0,0,0-.9239-.3921,1.8964,1.8964,0,0,0-.539.0767,1.5119,1.5119,0,0,0-.4619.2241,1.168,1.168,0,0,0-.3291.3642.9993.9993,0,0,0-.126.5108v4.83Z"/><path d="M187.9141,19.886h1.7216l.7422,3.01.5742,2.5059h.0557l.6719-2.5059.8545-3.01h1.624l.8818,3.01.6856,2.5059h.0566l.5733-2.5059.7285-3.01h1.666l-2.002,7.3082h-1.9326l-.9375-3.22-.5459-1.9878h-.042l-.5322,1.9878-.9238,3.22H189.93Z"/><path d="M200.9893,18.8221a1.0868,1.0868,0,0,1-.8047-.252.8867.8867,0,0,1-.2451-.644v-.28a.8867.8867,0,0,1,.2451-.644,1.4014,1.4014,0,0,1,1.6035,0,.8721.8721,0,0,1,.2519.644v.28a.8721.8721,0,0,1-.2519.644A1.0946,1.0946,0,0,1,200.9893,18.8221Zm-.8955,1.0639h1.7919v7.3082h-1.7919Z"/><path d="M206.2393,27.1942a1.9112,1.9112,0,0,1-1.4073-.4815,1.8592,1.8592,0,0,1-.4834-1.376V21.3279h-1.0781V19.886h.5606a.6677.6677,0,0,0,.5527-.1889.917.917,0,0,0,.1474-.5669V17.8841h1.6094V19.886h1.4981v1.4419h-1.4981v4.4244h1.3867v1.4419Z"/><path d="M209.1934,16.8343h1.792v4.27h.07a2.3292,2.3292,0,0,1,.707-.9873,2.0406,2.0406,0,0,1,1.3369-.3989,2.1049,2.1049,0,0,1,1.7354.7422,3.2773,3.2773,0,0,1,.6025,2.1137v4.62h-1.792v-4.438a2.0241,2.0241,0,0,0-.28-1.1758,1.0576,1.0576,0,0,0-.9238-.3921,1.9027,1.9027,0,0,0-.5391.0767,1.5142,1.5142,0,0,0-.4619.2241,1.1692,1.1692,0,0,0-.3291.3642.9993.9993,0,0,0-.1259.5108v4.83h-1.792Z"/><path d="M223.99,22.77l-1.3017,1.54v2.8838h-1.8477v-9.772h1.8477v4.8159h.07l1.3857-1.834,2.4219-2.9819h2.1279l-3.4023,4.0737,3.6826,5.6983h-2.1982Z"/><path d="M232.4053,27.1942v-3.836l-3.3467-5.936h2.0723l2.2539,4.13h.0283l2.1982-4.13h2.0157l-3.36,5.9219v3.85Z"/><path d="M242.1348,27.3621a4.5685,4.5685,0,0,1-1.75-.3218,3.47,3.47,0,0,1-1.3369-.9663,4.5824,4.5824,0,0,1-.8614-1.582,7.0121,7.0121,0,0,1-.3086-2.1841,7.0308,7.0308,0,0,1,.3086-2.1767,4.5761,4.5761,0,0,1,.8614-1.5889,3.475,3.475,0,0,1,1.3369-.9663,4.9193,4.9193,0,0,1,3.5,0,3.5435,3.5435,0,0,1,1.3437.9663,4.45,4.45,0,0,1,.8613,1.5889,7.191,7.191,0,0,1,.3008,2.1767,7.172,7.172,0,0,1-.3008,2.1841,4.4555,4.4555,0,0,1-.8613,1.582,3.5382,3.5382,0,0,1-1.3437.9663A4.5765,4.5765,0,0,1,242.1348,27.3621Zm0-1.6382a2.129,2.129,0,0,0,1.6728-.7,2.8492,2.8492,0,0,0,.6231-1.96V21.5521a2.8493,2.8493,0,0,0-.6231-1.96,2.3508,2.3508,0,0,0-3.3467,0,2.8494,2.8494,0,0,0-.622,1.96v1.5122a2.8493,2.8493,0,0,0,.622,1.96A2.13,2.13,0,0,0,242.1348,25.7239Z"/><path d="M251.416,22.77l-1.3017,1.54v2.8838h-1.8477v-9.772h1.8477v4.8159h.07l1.3857-1.834,2.4219-2.9819H256.12l-3.4023,4.0737L256.4,27.1942h-2.1983Z"/><path d="M569.19,87.5272l-3.1924-9.772h1.8907l1.498,4.76.8682,3.248h.042l.8535-3.248,1.498-4.76h1.834l-3.1924,9.772Z"/><path d="M583.2324,80.513h-.0566l-.7559,1.5542L580.418,85.763l-2.002-3.6958L577.66,80.513h-.0557v7.0142h-1.75v-9.772H577.94l2.5059,4.7739h.0557l2.4785-4.7739h2.0019v9.772h-1.75Z"/><path d="M586.4521,80.2191h1.7217l.7422,3.01.5742,2.5059h.0557l.6719-2.5059.8545-3.01h1.624l.8818,3.01.6856,2.5059h.0566l.5733-2.5059.7285-3.01h1.666l-2.002,7.3081h-1.9326l-.9375-3.22-.5459-1.9877h-.042l-.5322,1.9877-.9238,3.22h-1.9043Z"/><path d="M603.8262,87.5272a1.2566,1.2566,0,0,1-.9307-.3428,1.5774,1.5774,0,0,1-.4277-.917h-.084a1.7111,1.7111,0,0,1-.7422,1.0708,2.5286,2.5286,0,0,1-1.3857.3569,2.3669,2.3669,0,0,1-1.7217-.5859,2.0818,2.0818,0,0,1-.6026-1.5635,1.894,1.894,0,0,1,.8125-1.6811,4.09,4.09,0,0,1,2.31-.5513H602.3v-.5322a1.3247,1.3247,0,0,0-.3213-.9522,1.3851,1.3851,0,0,0-1.0361-.3359,1.7241,1.7241,0,0,0-1.0156.2729,2.6826,2.6826,0,0,0-.65.6514l-1.0645-.958a3.0844,3.0844,0,0,1,1.0781-1.02,3.5468,3.5468,0,0,1,1.7784-.3877,3.3412,3.3412,0,0,1,2.2539.67,2.4209,2.4209,0,0,1,.7695,1.9277v3.4361h.7285v1.4419Zm-2.9678-1.1338a1.8858,1.8858,0,0,0,1.0215-.2642.8621.8621,0,0,0,.42-.7788v-.9595h-1.1475q-1.4,0-1.4.89v.2363a.7721.7721,0,0,0,.2871.66A1.3409,1.3409,0,0,0,600.8584,86.3934Z"/><path d="M606.2764,87.5272V80.2191h1.792v1.5122h.07a2.26,2.26,0,0,1,.2168-.5669,1.7253,1.7253,0,0,1,.3847-.4834,1.8421,1.8421,0,0,1,.5674-.336,2.1233,2.1233,0,0,1,.7627-.1259h.3916v1.6943h-.56a2.8112,2.8112,0,0,0-1.372.2656.9255.9255,0,0,0-.4619.8682v4.48Z"/><path d="M614.6621,87.6951a3.6443,3.6443,0,0,1-1.4492-.2729,2.9967,2.9967,0,0,1-1.0781-.77,3.4323,3.4323,0,0,1-.6787-1.2041,5.4218,5.4218,0,0,1-.0069-3.1568,3.4063,3.4063,0,0,1,.6651-1.1972,2.948,2.948,0,0,1,1.0634-.77,3.5669,3.5669,0,0,1,1.4278-.2729,3.4836,3.4836,0,0,1,1.4843.2939,2.8564,2.8564,0,0,1,1.0362.7984,3.4561,3.4561,0,0,1,.6094,1.1689,4.8638,4.8638,0,0,1,.2021,1.4209v.5879H613.08v.1807a1.7877,1.7877,0,0,0,.4482,1.2719,1.73,1.73,0,0,0,1.3291.48,1.9846,1.9846,0,0,0,1.1-.2778,3.1358,3.1358,0,0,0,.7627-.709l.9658,1.0811a3.0058,3.0058,0,0,1-1.2246.99A4.263,4.263,0,0,1,614.6621,87.6951Zm-.0283-6.3a1.4363,1.4363,0,0,0-1.1338.4761,1.7909,1.7909,0,0,0-.42,1.2319v.1119h2.9961v-.126a1.9194,1.9194,0,0,0-.3711-1.2251A1.2865,1.2865,0,0,0,614.6338,81.3953Z"/><rect class="cls-17" x="328.5" y="52.818" width="153" height="60"/><path d="M385.8379,71.9847l-2.7354-8.376h1.6192l1.2842,4.08.7441,2.7837h.0361l.7325-2.7837,1.2832-4.08h1.5722l-2.7363,8.376Z"/><path d="M397.874,65.9725h-.0478l-.6475,1.332-1.7158,3.168-1.7168-3.168-.6475-1.332h-.0478v6.0122h-1.5v-8.376h1.7881l2.1474,4.0918h.0479l2.124-4.0918h1.7158v8.376h-1.5Z"/><path d="M400.6338,65.7205h1.4756l.6357,2.58.4922,2.1479h.0479l.5761-2.1479.7325-2.58h1.3916l.7558,2.58.5879,2.1479h.0479l.4921-2.1479.6241-2.58h1.4287l-1.7168,6.2642H406.55l-.8047-2.76-.4678-1.7041h-.0361l-.456,1.7041-.792,2.76h-1.6319Z"/><path d="M415.5264,71.9847a1.0758,1.0758,0,0,1-.7979-.294,1.3494,1.3494,0,0,1-.3662-.7861H414.29a1.4656,1.4656,0,0,1-.6357.918,2.1676,2.1676,0,0,1-1.1885.3061,2.029,2.029,0,0,1-1.4756-.5024,1.7851,1.7851,0,0,1-.5156-1.34,1.6234,1.6234,0,0,1,.6953-1.4414,3.5088,3.5088,0,0,1,1.9805-.4721h1.0684v-.4561a1.1337,1.1337,0,0,0-.2764-.8159,1.1847,1.1847,0,0,0-.8877-.2881,1.47,1.47,0,0,0-.87.2339,2.2973,2.2973,0,0,0-.5586.5581l-.9121-.8208a2.6517,2.6517,0,0,1,.9248-.8755,3.0378,3.0378,0,0,1,1.5234-.332,2.8672,2.8672,0,0,1,1.9326.5747,2.0745,2.0745,0,0,1,.6592,1.6523v2.9453h.624v1.2359Zm-2.544-.9722a1.6144,1.6144,0,0,0,.876-.2261.7388.7388,0,0,0,.36-.6674v-.8223h-.9844q-1.2,0-1.2.7627v.2026a.6612.6612,0,0,0,.2461.5659A1.151,1.151,0,0,0,412.9824,71.0125Z"/><path d="M417.626,71.9847V65.7205h1.5361v1.2964h.0606a1.9949,1.9949,0,0,1,.1855-.4863,1.5013,1.5013,0,0,1,.33-.4141,1.5758,1.5758,0,0,1,.4863-.2876,1.8119,1.8119,0,0,1,.6533-.1084h.336v1.4522h-.48a2.4063,2.4063,0,0,0-1.1758.228.791.791,0,0,0-.3965.7441v3.84Z"/><path d="M424.8135,72.1287a3.1315,3.1315,0,0,1-1.2422-.2339,2.5668,2.5668,0,0,1-.9238-.66,2.9447,2.9447,0,0,1-.5821-1.0322,4.6487,4.6487,0,0,1-.0058-2.7056,2.9387,2.9387,0,0,1,.57-1.0264,2.5142,2.5142,0,0,1,.9121-.66,3.0412,3.0412,0,0,1,1.2236-.2344,2.9711,2.9711,0,0,1,1.2715.2524,2.4559,2.4559,0,0,1,.8887.6836,2.9681,2.9681,0,0,1,.5215,1.002,4.1464,4.1464,0,0,1,.1738,1.2182v.5039H423.458v.1548a1.5289,1.5289,0,0,0,.3838,1.09,1.4855,1.4855,0,0,0,1.14.4111,1.7008,1.7008,0,0,0,.9424-.2383,2.664,2.664,0,0,0,.6533-.6079l.8282.9268a2.571,2.571,0,0,1-1.05.8486A3.6582,3.6582,0,0,1,424.8135,72.1287Zm-.0235-5.4a1.2321,1.2321,0,0,0-.9726.4077,1.5357,1.5357,0,0,0-.3594,1.0562v.0962h2.5674v-.1084a1.6488,1.6488,0,0,0-.3174-1.05A1.1027,1.1027,0,0,0,424.79,66.7288Z"/><path d="M361.2324,82.5926l-1.1152,1.32v2.4722h-1.584v-8.376h1.584v4.1279h.06l1.1884-1.5717,2.0752-2.5562h1.8242l-2.916,3.4922,3.1563,4.8838h-1.8838Z"/><path d="M368.8047,86.5286a3.1318,3.1318,0,0,1-1.2422-.2339,2.5668,2.5668,0,0,1-.9238-.66,2.9447,2.9447,0,0,1-.5821-1.0322,4.6487,4.6487,0,0,1-.0058-2.7056,2.9387,2.9387,0,0,1,.57-1.0264,2.5151,2.5151,0,0,1,.9121-.66,3.0412,3.0412,0,0,1,1.2236-.2344,2.9711,2.9711,0,0,1,1.2715.2524,2.4559,2.4559,0,0,1,.8887.6836,2.9681,2.9681,0,0,1,.5215,1.002,4.1464,4.1464,0,0,1,.1738,1.2182v.5039h-4.1631v.1548a1.5289,1.5289,0,0,0,.3838,1.09,1.4858,1.4858,0,0,0,1.14.4111,1.7007,1.7007,0,0,0,.9423-.2383,2.6644,2.6644,0,0,0,.6534-.6079l.8281.9268a2.571,2.571,0,0,1-1.05.8486A3.6582,3.6582,0,0,1,368.8047,86.5286Zm-.0235-5.4a1.2321,1.2321,0,0,0-.9726.4077,1.5361,1.5361,0,0,0-.3594,1.0562v.0962h2.5674V82.58a1.6482,1.6482,0,0,0-.3174-1.05A1.1027,1.1027,0,0,0,368.7812,81.1287Z"/><path d="M376.7363,80.12h1.44l-2.52,7.38a3.2065,3.2065,0,0,1-.27.582,1.4479,1.4479,0,0,1-.3535.4019,1.3459,1.3459,0,0,1-.4922.228,2.7977,2.7977,0,0,1-.6719.0718h-.9248V87.5486h1.1289l.2872-.8745L372.1172,80.12h1.5234l1.0918,3.3052.4082,1.5806h.0723l.4316-1.5806Z"/><path d="M388.4365,80.3724h-.0478l-.6475,1.332-1.7158,3.168-1.7168-3.168-.6475-1.332h-.0478v6.0122h-1.5v-8.376h1.7881L386.0488,82.1h.0479l2.124-4.0918h1.7158v8.376h-1.5Z"/><path d="M396.417,86.3846a1.0761,1.0761,0,0,1-.7979-.294,1.35,1.35,0,0,1-.3662-.7861h-.0722a1.4661,1.4661,0,0,1-.6358.918,2.1676,2.1676,0,0,1-1.1885.3061,2.0286,2.0286,0,0,1-1.4755-.5024,1.7848,1.7848,0,0,1-.5157-1.34,1.6234,1.6234,0,0,1,.6953-1.4414,3.509,3.509,0,0,1,1.9805-.4721h1.0684v-.4561a1.1337,1.1337,0,0,0-.2764-.8159,1.1847,1.1847,0,0,0-.8877-.2881,1.47,1.47,0,0,0-.87.2339,2.2973,2.2973,0,0,0-.5586.5581l-.9121-.8208a2.6517,2.6517,0,0,1,.9248-.8755,3.0378,3.0378,0,0,1,1.5234-.332,2.8677,2.8677,0,0,1,1.9327.5747,2.0748,2.0748,0,0,1,.6591,1.6523v2.9453h.6241v1.2359Zm-2.544-.9722a1.6144,1.6144,0,0,0,.876-.2261.7386.7386,0,0,0,.36-.6674v-.8223h-.9844q-1.2,0-1.2.7627v.2026a.6612.6612,0,0,0,.2461.5659A1.1514,1.1514,0,0,0,393.873,85.4124Z"/><path d="M398.5166,86.3846V80.12h1.5361v1.044h.0606a2.007,2.007,0,0,1,.6055-.8457,1.7494,1.7494,0,0,1,1.1464-.3423,1.8045,1.8045,0,0,1,1.4873.6362,2.8051,2.8051,0,0,1,.5166,1.812v3.96H402.333V82.58a1.7342,1.7342,0,0,0-.24-1.0078.9069.9069,0,0,0-.792-.336,1.6129,1.6129,0,0,0-.4619.066,1.2837,1.2837,0,0,0-.3955.1918.9907.9907,0,0,0-.2823.3121.855.855,0,0,0-.1084.4379v4.14Z"/><path d="M410.1807,86.3846a1.0758,1.0758,0,0,1-.7979-.294,1.3494,1.3494,0,0,1-.3662-.7861h-.0723a1.4656,1.4656,0,0,1-.6357.918,2.1676,2.1676,0,0,1-1.1885.3061,2.029,2.029,0,0,1-1.4756-.5024,1.7851,1.7851,0,0,1-.5156-1.34,1.6234,1.6234,0,0,1,.6953-1.4414,3.5088,3.5088,0,0,1,1.9805-.4721h1.0683v-.4561a1.1337,1.1337,0,0,0-.2763-.8159,1.1847,1.1847,0,0,0-.8877-.2881,1.47,1.47,0,0,0-.87.2339,2.2973,2.2973,0,0,0-.5586.5581l-.9121-.8208a2.6517,2.6517,0,0,1,.9248-.8755,3.0378,3.0378,0,0,1,1.5234-.332,2.8672,2.8672,0,0,1,1.9326.5747,2.0745,2.0745,0,0,1,.6592,1.6523v2.9453h.624v1.2359Zm-2.544-.9722a1.6144,1.6144,0,0,0,.876-.2261.7387.7387,0,0,0,.36-.6674v-.8223h-.9843q-1.2,0-1.2.7627v.2026a.6612.6612,0,0,0,.2461.5659A1.151,1.151,0,0,0,407.6367,85.4124Z"/><path d="M417.9326,86.9124a2.072,2.072,0,0,1-.1738.87,1.4825,1.4825,0,0,1-.57.63,3.1,3.1,0,0,1-1.02.3843,8.8909,8.8909,0,0,1-2.8681.03,3.222,3.222,0,0,1-.9063-.2881,1.2,1.2,0,0,1-.51-.4619,1.2413,1.2413,0,0,1-.1563-.624,1.109,1.109,0,0,1,.294-.8218,1.4442,1.4442,0,0,1,.8222-.378V86.12a1.0166,1.0166,0,0,1-.5937-.3784,1.0834,1.0834,0,0,1-.21-.667.9119.9119,0,0,1,.0957-.4263.9834.9834,0,0,1,.2578-.3188,1.5974,1.5974,0,0,1,.3662-.2222,2.1838,2.1838,0,0,1,.4317-.1382v-.0483a1.873,1.873,0,0,1-.8574-.7314,2.0662,2.0662,0,0,1-.2823-1.0909,1.9511,1.9511,0,0,1,.66-1.54,2.8356,2.8356,0,0,1,1.9316-.582,4.52,4.52,0,0,1,.57.0361,2.5489,2.5489,0,0,1,.5215.12v-.2041a.7959.7959,0,0,1,.8887-.9121h.9717v1.1763h-1.3321v.168a1.8058,1.8058,0,0,1,.7315.72,2.1118,2.1118,0,0,1,.24,1.02,1.9331,1.9331,0,0,1-.6533,1.5244,2.8565,2.8565,0,0,1-1.9385.5757,3.7842,3.7842,0,0,1-.96-.1079,1.0225,1.0225,0,0,0-.3116.2222.4725.4725,0,0,0-.1328.3418q0,.468.8164.4682h1.68a2.4454,2.4454,0,0,1,1.6739.4737A1.6842,1.6842,0,0,1,417.9326,86.9124Zm-1.44.18a.54.54,0,0,0-.2393-.4678,1.5052,1.5052,0,0,0-.8281-.1684h-2.1357a.7633.7633,0,0,0-.3243.6484.646.646,0,0,0,.3.564,1.8955,1.8955,0,0,0,1.02.2036h.7685a2.3513,2.3513,0,0,0,1.0977-.1919A.6293.6293,0,0,0,416.4922,87.0926Zm-1.8477-3.9482q1.128,0,1.128-.9542v-.2031q0-.9543-1.128-.9546t-1.1279.9546V82.19Q413.5166,83.1446,414.6445,83.1444Z"/><path d="M421.28,86.5286a3.1315,3.1315,0,0,1-1.2422-.2339,2.5668,2.5668,0,0,1-.9238-.66,2.9447,2.9447,0,0,1-.5821-1.0322,4.6487,4.6487,0,0,1-.0058-2.7056,2.9387,2.9387,0,0,1,.57-1.0264,2.5142,2.5142,0,0,1,.9121-.66,3.0412,3.0412,0,0,1,1.2236-.2344,2.9711,2.9711,0,0,1,1.2715.2524,2.4559,2.4559,0,0,1,.8887.6836,2.9681,2.9681,0,0,1,.5215,1.002,4.1464,4.1464,0,0,1,.1738,1.2182v.5039h-4.1631v.1548a1.5289,1.5289,0,0,0,.3838,1.09,1.4855,1.4855,0,0,0,1.14.4111,1.7008,1.7008,0,0,0,.9424-.2383,2.664,2.664,0,0,0,.6533-.6079l.8282.9268a2.571,2.571,0,0,1-1.05.8486A3.6582,3.6582,0,0,1,421.28,86.5286Zm-.0235-5.4a1.2321,1.2321,0,0,0-.9726.4077,1.5357,1.5357,0,0,0-.3594,1.0562v.0962h2.5674V82.58a1.6488,1.6488,0,0,0-.3174-1.05A1.1028,1.1028,0,0,0,421.2568,81.1287Z"/><path d="M425.4443,86.3846V80.12h1.5362v1.044h.06a2.0283,2.0283,0,0,1,.5752-.84,1.6187,1.6187,0,0,1,1.1045-.3481,1.9716,1.9716,0,0,1,1.1162.312,1.84,1.84,0,0,1,.6953.9482h.0244a1.7648,1.7648,0,0,1,.6661-.894,2.06,2.06,0,0,1,1.2539-.3662,1.7,1.7,0,0,1,1.4218.6362,2.8816,2.8816,0,0,1,.4981,1.812v3.96H432.86V82.58q0-1.3432-1.0079-1.3438a1.4461,1.4461,0,0,0-.4375.066,1.1592,1.1592,0,0,0-.372.1918.9326.9326,0,0,0-.2588.3121.9491.9491,0,0,0-.0957.4379v4.14h-1.5362V82.58q0-1.3432-1.0078-1.3438a1.4116,1.4116,0,0,0-.4257.066,1.1691,1.1691,0,0,0-.3721.1918.9836.9836,0,0,0-.2637.3121.8927.8927,0,0,0-.1025.4379v4.14Z"/><path d="M438.6318,86.5286a3.1322,3.1322,0,0,1-1.2422-.2339,2.5685,2.5685,0,0,1-.9238-.66,2.9446,2.9446,0,0,1-.582-1.0322,4.65,4.65,0,0,1-.0059-2.7056,2.9418,2.9418,0,0,1,.57-1.0264,2.5146,2.5146,0,0,1,.9122-.66,3.04,3.04,0,0,1,1.2236-.2344,2.9711,2.9711,0,0,1,1.2715.2524,2.4564,2.4564,0,0,1,.8886.6836,2.9663,2.9663,0,0,1,.5215,1.002,4.1464,4.1464,0,0,1,.1739,1.2182v.5039h-4.1631v.1548a1.5285,1.5285,0,0,0,.3838,1.09,1.4854,1.4854,0,0,0,1.14.4111,1.701,1.701,0,0,0,.9424-.2383,2.6658,2.6658,0,0,0,.6533-.6079l.8281.9268a2.57,2.57,0,0,1-1.05.8486A3.6579,3.6579,0,0,1,438.6318,86.5286Zm-.0234-5.4a1.2325,1.2325,0,0,0-.9727.4077,1.5361,1.5361,0,0,0-.3593,1.0562v.0962h2.5674V82.58a1.6488,1.6488,0,0,0-.3174-1.05A1.1028,1.1028,0,0,0,438.6084,81.1287Z"/><path d="M442.7959,86.3846V80.12h1.5361v1.044h.0606a2.0076,2.0076,0,0,1,.6054-.8457,1.75,1.75,0,0,1,1.1465-.3423,1.8045,1.8045,0,0,1,1.4873.6362,2.8051,2.8051,0,0,1,.5166,1.812v3.96h-1.5361V82.58a1.7342,1.7342,0,0,0-.24-1.0078.9069.9069,0,0,0-.792-.336,1.6129,1.6129,0,0,0-.4619.066,1.2837,1.2837,0,0,0-.3955.1918.9907.9907,0,0,0-.2823.3121.855.855,0,0,0-.1084.4379v4.14Z"/><path d="M451.8076,86.3846a1.6375,1.6375,0,0,1-1.206-.4131,1.5951,1.5951,0,0,1-.4141-1.1792V81.3568h-.9238V80.12h.48a.5733.5733,0,0,0,.4737-.1616.7851.7851,0,0,0,.126-.4863V78.4046h1.38V80.12h1.2842v1.2364h-1.2842v3.7919h1.1885v1.2359Z"/><path d="M337.4668,100.7845v-1.272h1.1045v-5.832h-1.1045v-1.272h3.8047v1.272h-1.1162v5.832h1.1162v1.272Z"/><path d="M342.7949,100.7845V94.52h1.5362v1.044h.06a2.007,2.007,0,0,1,.6055-.8457,1.75,1.75,0,0,1,1.1465-.3423,1.8048,1.8048,0,0,1,1.4873.6362,2.8057,2.8057,0,0,1,.5166,1.812v3.96h-1.5362V96.98a1.7342,1.7342,0,0,0-.24-1.0078.9068.9068,0,0,0-.792-.336,1.6129,1.6129,0,0,0-.4619.066,1.2827,1.2827,0,0,0-.3955.1919.989.989,0,0,0-.2822.312.8541.8541,0,0,0-.1084.438v4.14Z"/><path d="M351.8066,100.7845a1.6376,1.6376,0,0,1-1.206-.4131,1.5951,1.5951,0,0,1-.4141-1.1792V95.7567h-.9238V94.52h.4805a.5732.5732,0,0,0,.4736-.1616.7851.7851,0,0,0,.126-.4863V92.8045h1.38V94.52h1.2841v1.2364h-1.2841v3.7919h1.1884v1.2359Z"/><path d="M356.8223,100.9285a3.1315,3.1315,0,0,1-1.2422-.2339,2.568,2.568,0,0,1-.9239-.66,2.9461,2.9461,0,0,1-.582-1.0322,4.6487,4.6487,0,0,1-.0058-2.7056,2.9387,2.9387,0,0,1,.57-1.0264,2.5134,2.5134,0,0,1,.9121-.66,3.0412,3.0412,0,0,1,1.2236-.2344,2.9711,2.9711,0,0,1,1.2715.2524,2.4576,2.4576,0,0,1,.8887.6836,2.97,2.97,0,0,1,.5215,1.002,4.1464,4.1464,0,0,1,.1738,1.2182v.5039h-4.1631v.1548a1.5288,1.5288,0,0,0,.3838,1.09,1.4854,1.4854,0,0,0,1.14.4111,1.7008,1.7008,0,0,0,.9424-.2383,2.664,2.664,0,0,0,.6533-.6079l.8282.9268a2.571,2.571,0,0,1-1.05.8486A3.6585,3.6585,0,0,1,356.8223,100.9285Zm-.0235-5.4a1.2321,1.2321,0,0,0-.9726.4077,1.5357,1.5357,0,0,0-.3594,1.0562v.0962h2.5674V96.98a1.6488,1.6488,0,0,0-.3174-1.05A1.1028,1.1028,0,0,0,356.7988,95.5286Z"/><path d="M360.9863,100.7845V94.52h1.5362v1.2964h.0605a1.9952,1.9952,0,0,1,.1856-.4863,1.5009,1.5009,0,0,1,.33-.4141,1.5775,1.5775,0,0,1,.4864-.2876,1.8115,1.8115,0,0,1,.6533-.1084h.3359v1.4522h-.48a2.4063,2.4063,0,0,0-1.1758.228.7912.7912,0,0,0-.3964.7441v3.84Z"/><path d="M368.127,100.9285a3.0433,3.0433,0,0,1-1.2061-.228,2.4948,2.4948,0,0,1-.9121-.66,3.009,3.009,0,0,1-.582-1.038,4.2585,4.2585,0,0,1-.2041-1.3619,4.2042,4.2042,0,0,1,.2041-1.3559,2.9579,2.9579,0,0,1,.582-1.0259,2.5314,2.5314,0,0,1,.9121-.6543,3.045,3.045,0,0,1,1.2061-.228,3.0916,3.0916,0,0,1,1.2119.228,2.52,2.52,0,0,1,.9179.6543,2.96,2.96,0,0,1,.5821,1.0259,4.2069,4.2069,0,0,1,.2041,1.3559,4.2613,4.2613,0,0,1-.2041,1.3619,3.0108,3.0108,0,0,1-.5821,1.038,2.4835,2.4835,0,0,1-.9179.66A3.09,3.09,0,0,1,368.127,100.9285Zm0-1.2358a1.25,1.25,0,0,0,.96-.3721,1.5463,1.5463,0,0,0,.3477-1.0923v-1.164a1.5262,1.5262,0,0,0-.3477-1.08,1.25,1.25,0,0,0-.96-.3721,1.2356,1.2356,0,0,0-.9483.3721,1.522,1.522,0,0,0-.3476,1.08v1.164a1.5421,1.5421,0,0,0,.3476,1.0923A1.2356,1.2356,0,0,0,368.127,99.6927Z"/><path d="M372.3984,94.52h1.5362v1.0323h.0478a1.5754,1.5754,0,0,1,.6367-.858,1.8954,1.8954,0,0,1,1.0918-.3183,2.1414,2.1414,0,0,1,1.83.8462,3.9936,3.9936,0,0,1,.63,2.4179,4.0448,4.0448,0,0,1-.63,2.4361,2.1348,2.1348,0,0,1-1.83.852,1.84,1.84,0,0,1-1.0859-.3242,1.673,1.673,0,0,1-.6426-.8638h-.0478v3.4439h-1.5362Zm2.82,5.1363a1.2705,1.2705,0,0,0,.9716-.396,1.497,1.497,0,0,0,.3721-1.0679v-1.08a1.5187,1.5187,0,0,0-.3721-1.0742,1.261,1.261,0,0,0-.9716-.4019,1.4807,1.4807,0,0,0-.918.2759.8721.8721,0,0,0-.3662.732v1.9921a.8748.8748,0,0,0,.3662.7559A1.5268,1.5268,0,0,0,375.2188,99.6566Z"/><path d="M382.1309,100.9285a3.1315,3.1315,0,0,1-1.2422-.2339,2.568,2.568,0,0,1-.9239-.66,2.9461,2.9461,0,0,1-.582-1.0322,4.6487,4.6487,0,0,1-.0058-2.7056,2.9387,2.9387,0,0,1,.57-1.0264,2.5134,2.5134,0,0,1,.9121-.66,3.0412,3.0412,0,0,1,1.2236-.2344,2.9711,2.9711,0,0,1,1.2715.2524,2.4576,2.4576,0,0,1,.8887.6836,2.9679,2.9679,0,0,1,.5214,1.002,4.1431,4.1431,0,0,1,.1739,1.2182v.5039h-4.1631v.1548a1.5283,1.5283,0,0,0,.3838,1.09,1.4854,1.4854,0,0,0,1.14.4111,1.7008,1.7008,0,0,0,.9424-.2383,2.664,2.664,0,0,0,.6533-.6079l.8282.9268a2.571,2.571,0,0,1-1.05.8486A3.6585,3.6585,0,0,1,382.1309,100.9285Zm-.0235-5.4a1.2321,1.2321,0,0,0-.9726.4077,1.5357,1.5357,0,0,0-.3594,1.0562v.0962h2.5674V96.98a1.6488,1.6488,0,0,0-.3174-1.05A1.1028,1.1028,0,0,0,382.1074,95.5286Z"/><path d="M386.2939,100.7845V94.52H387.83v1.2964h.06a1.9992,1.9992,0,0,1,.1856-.4863,1.5027,1.5027,0,0,1,.33-.4141,1.5775,1.5775,0,0,1,.4864-.2876,1.8119,1.8119,0,0,1,.6533-.1084h.3359v1.4522h-.4795a2.4056,2.4056,0,0,0-1.1757.228.791.791,0,0,0-.3965.7441v3.84Z"/><path d="M395.4863,100.7845a1.0757,1.0757,0,0,1-.7978-.294,1.3488,1.3488,0,0,1-.3662-.7861H394.25a1.4656,1.4656,0,0,1-.6357.918,2.168,2.168,0,0,1-1.1885.3061,2.0287,2.0287,0,0,1-1.4756-.5024,1.7848,1.7848,0,0,1-.5156-1.34,1.6232,1.6232,0,0,1,.6953-1.4414,3.5088,3.5088,0,0,1,1.9805-.4721h1.0683v-.4561a1.1337,1.1337,0,0,0-.2764-.8159,1.1844,1.1844,0,0,0-.8877-.2881,1.47,1.47,0,0,0-.87.2339,2.2991,2.2991,0,0,0-.5586.5581l-.9121-.8208a2.6526,2.6526,0,0,1,.9248-.8755,3.038,3.038,0,0,1,1.5235-.332,2.8674,2.8674,0,0,1,1.9326.5747,2.0748,2.0748,0,0,1,.6592,1.6523v2.9453h.624v1.2359Zm-2.5439-.9722a1.6148,1.6148,0,0,0,.876-.2261.7387.7387,0,0,0,.36-.6674v-.8223h-.9844q-1.2,0-1.2.7627v.2026a.6615.6615,0,0,0,.2461.5659A1.1516,1.1516,0,0,0,392.9424,99.8123Z"/><path d="M397.5859,91.9046h1.5362v3.648h.0478a1.5754,1.5754,0,0,1,.6367-.858,1.8954,1.8954,0,0,1,1.0918-.3183,2.1414,2.1414,0,0,1,1.83.8462,3.9936,3.9936,0,0,1,.63,2.4179,4.0448,4.0448,0,0,1-.63,2.4361,2.1348,2.1348,0,0,1-1.83.852,1.84,1.84,0,0,1-1.0859-.3242,1.673,1.673,0,0,1-.6426-.8638h-.0478v1.044h-1.5362Zm2.82,7.752a1.2706,1.2706,0,0,0,.9717-.396,1.497,1.497,0,0,0,.3721-1.0679v-1.08a1.5187,1.5187,0,0,0-.3721-1.0742,1.2611,1.2611,0,0,0-.9717-.4019,1.4806,1.4806,0,0,0-.9179.2759.8721.8721,0,0,0-.3662.732v1.9921a.8748.8748,0,0,0,.3662.7559A1.5267,1.5267,0,0,0,400.4062,99.6566Z"/><path d="M405.5547,93.6087a.9322.9322,0,0,1-.69-.2163.76.76,0,0,1-.21-.5518V92.6a.7606.7606,0,0,1,.21-.5518,1.1991,1.1991,0,0,1,1.374,0,.7458.7458,0,0,1,.2158.5518v.24a.7447.7447,0,0,1-.2158.5518A.9345.9345,0,0,1,405.5547,93.6087Zm-.7686.9116h1.5362v6.2642h-1.5362Z"/><path d="M409.6338,100.7845a1.53,1.53,0,0,1-1.1641-.396,1.5681,1.5681,0,0,1-.372-1.1162V91.9046h1.5361v7.644h.8281v1.2359Z"/><path d="M412.3945,93.6087a.9323.9323,0,0,1-.69-.2163.76.76,0,0,1-.21-.5518V92.6a.761.761,0,0,1,.21-.5518,1.1991,1.1991,0,0,1,1.374,0,.7454.7454,0,0,1,.2158.5518v.24a.7443.7443,0,0,1-.2158.5518A.9342.9342,0,0,1,412.3945,93.6087Zm-.7685.9116h1.5361v6.2642H411.626Z"/><path d="M416.8936,100.7845a1.6377,1.6377,0,0,1-1.2061-.4131,1.5951,1.5951,0,0,1-.4141-1.1792V95.7567H414.35V94.52h.4805a.5732.5732,0,0,0,.4736-.1616.7851.7851,0,0,0,.126-.4863V92.8045h1.38V94.52h1.2842v1.2364H416.81v3.7919h1.1884v1.2359Z"/><path d="M423.2656,94.52h1.44l-2.52,7.38a3.2065,3.2065,0,0,1-.2705.582,1.4479,1.4479,0,0,1-.3535.4019,1.3459,1.3459,0,0,1-.4922.228,2.7977,2.7977,0,0,1-.6719.0718h-.9248v-1.2359h1.1289l.2871-.8745L418.6465,94.52H420.17l1.0918,3.3052.4082,1.5806h.0723l.4316-1.5806Z"/><path d="M428.6416,100.7845v-8.376h3.7676a2.7582,2.7582,0,0,1,1.0381.186,2.2,2.2,0,0,1,.7861.5279,2.276,2.276,0,0,1,.4922.8222,3.4208,3.4208,0,0,1,0,2.1177,2.28,2.28,0,0,1-.4922.8164,2.2052,2.2052,0,0,1-.7861.5279,2.7582,2.7582,0,0,1-1.0381.186h-2.1836v3.1919Zm1.584-4.56h2.04a1.0137,1.0137,0,0,0,.72-.2461.9121.9121,0,0,0,.2636-.7016v-.5523a.894.894,0,0,0-.2636-.6958,1.0294,1.0294,0,0,0-.72-.24h-2.04Z"/><path d="M436.1172,100.7845V94.52h1.5361v1.2964h.0606a1.9949,1.9949,0,0,1,.1855-.4863,1.5031,1.5031,0,0,1,.33-.4141,1.5758,1.5758,0,0,1,.4863-.2876,1.8119,1.8119,0,0,1,.6533-.1084h.336v1.4522h-.48a2.4063,2.4063,0,0,0-1.1758.228.7912.7912,0,0,0-.3965.7441v3.84Z"/><path d="M443.2578,100.9285a3.0428,3.0428,0,0,1-1.206-.228,2.4951,2.4951,0,0,1-.9122-.66,3.0123,3.0123,0,0,1-.582-1.038,4.2613,4.2613,0,0,1-.2041-1.3619,4.2069,4.2069,0,0,1,.2041-1.3559,2.9611,2.9611,0,0,1,.582-1.0259,2.5318,2.5318,0,0,1,.9122-.6543,3.0445,3.0445,0,0,1,1.206-.228,3.0909,3.0909,0,0,1,1.2119.228,2.52,2.52,0,0,1,.918.6543,2.96,2.96,0,0,1,.582,1.0259,4.2042,4.2042,0,0,1,.2041,1.3559,4.2585,4.2585,0,0,1-.2041,1.3619,3.0106,3.0106,0,0,1-.582,1.038,2.4838,2.4838,0,0,1-.918.66A3.0891,3.0891,0,0,1,443.2578,100.9285Zm0-1.2358a1.25,1.25,0,0,0,.96-.3721,1.5467,1.5467,0,0,0,.3476-1.0923v-1.164a1.5266,1.5266,0,0,0-.3476-1.08,1.25,1.25,0,0,0-.96-.3721,1.2354,1.2354,0,0,0-.9482.3721,1.5216,1.5216,0,0,0-.3477,1.08v1.164a1.5417,1.5417,0,0,0,.3477,1.0923A1.2354,1.2354,0,0,0,443.2578,99.6927Z"/><path d="M449.4375,100.7845a1.6379,1.6379,0,0,1-1.2061-.4131,1.5955,1.5955,0,0,1-.414-1.1792V95.7567h-.9238V94.52h.48a.5733.5733,0,0,0,.4737-.1616.7858.7858,0,0,0,.1259-.4863V92.8045h1.38V94.52h1.2842v1.2364h-1.2842v3.7919h1.1885v1.2359Z"/><path d="M454.4053,100.9285a3.0433,3.0433,0,0,1-1.2061-.228,2.4956,2.4956,0,0,1-.9121-.66,3.0106,3.0106,0,0,1-.582-1.038,4.2585,4.2585,0,0,1-.2041-1.3619,4.2042,4.2042,0,0,1,.2041-1.3559,2.96,2.96,0,0,1,.582-1.0259,2.5323,2.5323,0,0,1,.9121-.6543,3.045,3.045,0,0,1,1.2061-.228,3.0916,3.0916,0,0,1,1.2119.228,2.5209,2.5209,0,0,1,.918.6543,2.9611,2.9611,0,0,1,.582,1.0259,4.2069,4.2069,0,0,1,.2041,1.3559,4.2613,4.2613,0,0,1-.2041,1.3619,3.0123,3.0123,0,0,1-.582,1.038,2.4846,2.4846,0,0,1-.918.66A3.09,3.09,0,0,1,454.4053,100.9285Zm0-1.2358a1.25,1.25,0,0,0,.96-.3721,1.5463,1.5463,0,0,0,.3477-1.0923v-1.164a1.5262,1.5262,0,0,0-.3477-1.08,1.25,1.25,0,0,0-.96-.3721,1.2357,1.2357,0,0,0-.9483.3721,1.522,1.522,0,0,0-.3476,1.08v1.164a1.5421,1.5421,0,0,0,.3476,1.0923A1.2357,1.2357,0,0,0,454.4053,99.6927Z"/><path d="M461.1494,100.9285a3.1549,3.1549,0,0,1-1.2363-.228,2.381,2.381,0,0,1-.9063-.66,2.967,2.967,0,0,1-.5576-1.038,4.5008,4.5008,0,0,1-.1924-1.3619,4.4432,4.4432,0,0,1,.1924-1.3559,2.9153,2.9153,0,0,1,.5576-1.0259,2.4141,2.4141,0,0,1,.9063-.6543,3.1567,3.1567,0,0,1,1.2363-.228,2.7233,2.7233,0,0,1,1.5654.42,2.36,2.36,0,0,1,.8946,1.1636l-1.2608.5644a1.3068,1.3068,0,0,0-.4013-.6543,1.1681,1.1681,0,0,0-.7979-.2578,1.1507,1.1507,0,0,0-.9668.4077,1.6908,1.6908,0,0,0-.3174,1.0684v1.14a1.6611,1.6611,0,0,0,.3174,1.062,1.1572,1.1572,0,0,0,.9668.4024,1.1973,1.1973,0,0,0,.8516-.2822,1.92,1.92,0,0,0,.4678-.7022l1.1767.564a2.4649,2.4649,0,0,1-.9482,1.2422A2.7813,2.7813,0,0,1,461.1494,100.9285Z"/><path d="M467.2568,100.9285a3.0428,3.0428,0,0,1-1.206-.228,2.494,2.494,0,0,1-.9121-.66,3.0108,3.0108,0,0,1-.5821-1.038,4.2613,4.2613,0,0,1-.2041-1.3619,4.2069,4.2069,0,0,1,.2041-1.3559,2.96,2.96,0,0,1,.5821-1.0259,2.5305,2.5305,0,0,1,.9121-.6543,3.0445,3.0445,0,0,1,1.206-.228,3.0918,3.0918,0,0,1,1.212.228,2.52,2.52,0,0,1,.9179.6543,2.96,2.96,0,0,1,.5821,1.0259,4.2069,4.2069,0,0,1,.2041,1.3559,4.2613,4.2613,0,0,1-.2041,1.3619,3.0108,3.0108,0,0,1-.5821,1.038,2.4835,2.4835,0,0,1-.9179.66A3.09,3.09,0,0,1,467.2568,100.9285Zm0-1.2358a1.25,1.25,0,0,0,.96-.3721,1.5467,1.5467,0,0,0,.3477-1.0923v-1.164a1.5266,1.5266,0,0,0-.3477-1.08,1.25,1.25,0,0,0-.96-.3721,1.2354,1.2354,0,0,0-.9482.3721,1.522,1.522,0,0,0-.3477,1.08v1.164a1.5421,1.5421,0,0,0,.3477,1.0923A1.2354,1.2354,0,0,0,467.2568,99.6927Z"/><path d="M473.0645,100.7845a1.5293,1.5293,0,0,1-1.1641-.396,1.5677,1.5677,0,0,1-.3721-1.1162V91.9046h1.5362v7.644h.8281v1.2359Z"/></svg>