<svg id="Layer_1" data-name="Layer 1" xmlns="http://www.w3.org/2000/svg" viewBox="0 0 750 245"><defs><style>.cls-1,.cls-10,.cls-9{fill:#87eded;}.cls-1,.cls-10,.cls-12,.cls-13,.cls-17,.cls-2,.cls-3,.cls-4,.cls-5,.cls-6,.cls-7,.cls-8{stroke:#000;}.cls-1,.cls-2,.cls-6,.cls-7{stroke-miterlimit:10;}.cls-2{fill:#dbfbfb;}.cls-3{fill:#fff;}.cls-10,.cls-12,.cls-13,.cls-14,.cls-16,.cls-17,.cls-3,.cls-4,.cls-5,.cls-8{stroke-linejoin:round;}.cls-17,.cls-4{fill:#f2f4f8;}.cls-14,.cls-16,.cls-5{fill:none;}.cls-10,.cls-12,.cls-16,.cls-17,.cls-5{stroke-linecap:round;}.cls-6,.cls-8{fill:#b3e6ff;}.cls-7{fill:#e3f6ff;}.cls-11,.cls-12,.cls-13{fill:#e6d6ff;}.cls-14,.cls-16{stroke:#50565b;stroke-width:2px;}.cls-15{fill:#50565b;}</style></defs><title>byok_vm</title><rect class="cls-1" x="542.5" y="12.8696" width="107" height="60"/><rect class="cls-2" x="536.5" y="19.7029" width="107" height="60"/><rect class="cls-3" x="174.5" y="114.5228" width="365" height="110"/><rect class="cls-4" x="158" y="97.5228" width="365" height="110"/><g id="HP_icon" data-name="HP icon"><line class="cls-5" x1="203.0714" y1="164.3085" x2="225.9286" y2="164.3085"/><polyline class="cls-5" points="225.929 164.309 225.929 149.308 203.071 149.308 203.071 158.773"/><path class="cls-5" d="M221.6418,149.3085v-5.7153a7.1418,7.1418,0,0,0-14.2836,0v5.7153"/><path class="cls-5" d="M214.4961,175.0228s-20.3532-11.9321-20.3532-35.3571"/><path class="cls-5" d="M234.8571,139.6657c0,23.425-20.361,35.3571-20.361,35.3571"/><polyline class="cls-5" points="194.143 139.666 214.5 127.88 234.857 139.666"/><circle class="cls-6" cx="234.8571" cy="139.6657" r="2.1429"/><circle class="cls-6" cx="194.1429" cy="139.6657" r="2.1429"/><circle class="cls-6" cx="214.5" cy="175.0228" r="2.1429"/></g><path d="M280.08,122.8022h-4.6563v4.7207H273.312V116.355h2.1118v4.5761H280.08V116.355h2.1118v11.1679H280.08Z"/><path d="M289.8081,119.1709h1.92l-3.36,9.8393a4.2074,4.2074,0,0,1-.36.7764,1.9275,1.9275,0,0,1-.4717.5361,1.7678,1.7678,0,0,1-.6562.3037,3.6921,3.6921,0,0,1-.896.0967H284.752v-1.6484h1.5039l.3842-1.166-2.9922-8.7378H285.68l1.456,4.4067.544,2.1074h.0962l.5762-2.1074Z"/><path d="M293.0718,119.1709H295.12v1.376h.064a2.1006,2.1006,0,0,1,.8481-1.1441,2.5318,2.5318,0,0,1,1.4561-.4238,2.855,2.855,0,0,1,2.44,1.1279,5.3229,5.3229,0,0,1,.84,3.2236,5.3907,5.3907,0,0,1-.84,3.2481,2.8458,2.8458,0,0,1-2.44,1.1357,2.457,2.457,0,0,1-1.4482-.4316,2.2342,2.2342,0,0,1-.856-1.1524h-.064v4.5928h-2.0478Zm3.76,6.8481a1.7,1.7,0,0,0,1.2964-.5283,1.9964,1.9964,0,0,0,.4956-1.4238v-1.44a2.0276,2.0276,0,0,0-.4956-1.4316,1.6864,1.6864,0,0,0-1.2964-.5356,1.9751,1.9751,0,0,0-1.2236.3676,1.1627,1.1627,0,0,0-.4883.9761v2.6558a1.1661,1.1661,0,0,0,.4883,1.0078A2.0329,2.0329,0,0,0,296.8315,126.019Z"/><path d="M306.0474,127.7143a4.17,4.17,0,0,1-1.6563-.3115,3.4236,3.4236,0,0,1-1.2319-.88,3.9411,3.9411,0,0,1-.7759-1.376,6.2035,6.2035,0,0,1-.0078-3.6079,3.9191,3.9191,0,0,1,.76-1.3681,3.3686,3.3686,0,0,1,1.2158-.88,4.07,4.07,0,0,1,1.6323-.312,3.9748,3.9748,0,0,1,1.6958.3359,3.2684,3.2684,0,0,1,1.1841.9121,3.9352,3.9352,0,0,1,.6958,1.336,5.53,5.53,0,0,1,.2324,1.624v.6719h-5.5522v.206a2.0412,2.0412,0,0,0,.5122,1.4541,1.9809,1.9809,0,0,0,1.52.5479,2.263,2.263,0,0,0,1.2558-.3174,3.601,3.601,0,0,0,.8721-.8106l1.104,1.2354a3.4446,3.4446,0,0,1-1.4,1.1318A4.8729,4.8729,0,0,1,306.0474,127.7143Zm-.0323-7.1992a1.64,1.64,0,0,0-1.2959.544,2.05,2.05,0,0,0-.48,1.4072v.1279h3.4238v-.1435a2.1912,2.1912,0,0,0-.4238-1.4A1.47,1.47,0,0,0,306.0151,120.5151Z"/><path d="M311.6,127.5229v-8.352h2.0479v1.728h.08a2.668,2.668,0,0,1,.2481-.6479,1.9838,1.9838,0,0,1,.44-.5523,2.1172,2.1172,0,0,1,.648-.3838,2.4254,2.4254,0,0,1,.872-.144h.4478v1.936h-.64a3.2116,3.2116,0,0,0-1.5684.3042,1.0563,1.0563,0,0,0-.5278.9917v5.12Z"/><path d="M321.7915,127.5229V116.355h5.0239a3.6765,3.6765,0,0,1,1.3843.248,2.9334,2.9334,0,0,1,1.0479.7041,3.0211,3.0211,0,0,1,.6557,1.0957,4.561,4.561,0,0,1,0,2.8242,3.0339,3.0339,0,0,1-.6557,1.0879,2.9465,2.9465,0,0,1-1.0479.7041,3.6844,3.6844,0,0,1-1.3843.2481h-2.9121v4.2558Zm2.1118-6.08h2.72a1.3525,1.3525,0,0,0,.96-.3281,1.2163,1.2163,0,0,0,.352-.936v-.7359a1.191,1.191,0,0,0-.352-.9277,1.3738,1.3738,0,0,0-.96-.32h-2.72Z"/><path d="M331.7593,127.5229v-8.352h2.0478v1.728h.08a2.66,2.66,0,0,1,.2481-.6479,1.9838,1.9838,0,0,1,.44-.5523,2.1167,2.1167,0,0,1,.6479-.3838,2.4256,2.4256,0,0,1,.8721-.144h.4478v1.936h-.64a3.2114,3.2114,0,0,0-1.5683.3042,1.0564,1.0564,0,0,0-.5279.9917v5.12Z"/><path d="M341.2793,127.7143a4.0629,4.0629,0,0,1-1.6079-.3037,3.326,3.326,0,0,1-1.2163-.88,4.0223,4.0223,0,0,1-.7759-1.3838,5.67,5.67,0,0,1-.272-1.8164,5.5919,5.5919,0,0,1,.272-1.8076,3.9488,3.9488,0,0,1,.7759-1.3681,3.38,3.38,0,0,1,1.2163-.8721,4.0629,4.0629,0,0,1,1.6079-.3037,4.1244,4.1244,0,0,1,1.6157.3037,3.3672,3.3672,0,0,1,1.2241.8721,3.9472,3.9472,0,0,1,.7759,1.3681,5.5892,5.5892,0,0,1,.272,1.8076,5.6669,5.6669,0,0,1-.272,1.8164,4.0207,4.0207,0,0,1-.7759,1.3838,3.3136,3.3136,0,0,1-1.2241.88A4.1244,4.1244,0,0,1,341.2793,127.7143Zm0-1.6474a1.6662,1.6662,0,0,0,1.28-.4961,2.058,2.058,0,0,0,.4643-1.4561V122.563a2.0313,2.0313,0,0,0-.4643-1.44,1.668,1.668,0,0,0-1.28-.4961,1.6472,1.6472,0,0,0-1.2642.4961,2.0316,2.0316,0,0,0-.4638,1.44v1.5517a2.0583,2.0583,0,0,0,.4638,1.4561A1.6454,1.6454,0,0,0,341.2793,126.0669Z"/><path d="M349.519,127.5229a2.18,2.18,0,0,1-1.6079-.5508,2.1245,2.1245,0,0,1-.5522-1.5722v-4.5811H346.127v-1.6479h.64a.7636.7636,0,0,0,.6318-.2158,1.0443,1.0443,0,0,0,.168-.648v-1.4243h1.84v2.2881h1.7119v1.6479h-1.7119v5.0557h1.584v1.6484Z"/><path d="M356.207,127.7143a4.169,4.169,0,0,1-1.6562-.3115,3.424,3.424,0,0,1-1.232-.88,3.9409,3.9409,0,0,1-.7758-1.376,6.2035,6.2035,0,0,1-.0078-3.6079,3.9189,3.9189,0,0,1,.76-1.3681,3.37,3.37,0,0,1,1.2158-.88,4.0711,4.0711,0,0,1,1.6324-.312,3.9748,3.9748,0,0,1,1.6958.3359,3.268,3.268,0,0,1,1.184.9121,3.9354,3.9354,0,0,1,.6959,1.336,5.5329,5.5329,0,0,1,.2324,1.624v.6719h-5.5523v.206a2.0412,2.0412,0,0,0,.5122,1.4541,1.9811,1.9811,0,0,0,1.52.5479,2.2632,2.2632,0,0,0,1.2558-.3174,3.6028,3.6028,0,0,0,.8721-.8106l1.104,1.2354a3.4446,3.4446,0,0,1-1.4,1.1318A4.873,4.873,0,0,1,356.207,127.7143Zm-.0322-7.1992a1.64,1.64,0,0,0-1.2959.544,2.05,2.05,0,0,0-.48,1.4072v.1279h3.4239v-.1435a2.1912,2.1912,0,0,0-.4239-1.4A1.4694,1.4694,0,0,0,356.1748,120.5151Z"/><path d="M365.0552,127.7143a4.2128,4.2128,0,0,1-1.648-.3037,3.1724,3.1724,0,0,1-1.208-.88,3.957,3.957,0,0,1-.7441-1.3838,6.0127,6.0127,0,0,1-.2559-1.8164,5.93,5.93,0,0,1,.2559-1.8076,3.8832,3.8832,0,0,1,.7441-1.3681,3.2214,3.2214,0,0,1,1.208-.8721,4.2128,4.2128,0,0,1,1.648-.3037,3.6321,3.6321,0,0,1,2.0874.56,3.141,3.141,0,0,1,1.1924,1.5518l-1.68.752a1.742,1.742,0,0,0-.5362-.8716,1.555,1.555,0,0,0-1.0639-.3443,1.5326,1.5326,0,0,0-1.2881.544,2.25,2.25,0,0,0-.4238,1.4233v1.52a2.2162,2.2162,0,0,0,.4238,1.416,1.5416,1.5416,0,0,0,1.2881.5362,1.5952,1.5952,0,0,0,1.1362-.376,2.5892,2.5892,0,0,0,.624-.9365l1.5674.7519a3.2769,3.2769,0,0,1-1.2637,1.6563A3.7016,3.7016,0,0,1,365.0552,127.7143Z"/><path d="M372.5752,127.5229a2.1824,2.1824,0,0,1-1.6084-.5508,2.1279,2.1279,0,0,1-.5518-1.5722v-4.5811h-1.2314v-1.6479h.64a.7639.7639,0,0,0,.6319-.2158,1.0443,1.0443,0,0,0,.1679-.648v-1.4243h1.84v2.2881h1.7119v1.6479h-1.7119v5.0557h1.584v1.6484Z"/><path d="M384.1914,127.7143a5.2746,5.2746,0,0,1-1.9922-.3593,4.007,4.007,0,0,1-1.5205-1.08,4.9023,4.9023,0,0,1-.9678-1.7842,8.2338,8.2338,0,0,1-.3359-2.4717,8.5583,8.5583,0,0,1,.3359-2.5039,5.1253,5.1253,0,0,1,.9678-1.84,4.1157,4.1157,0,0,1,1.5205-1.1279,4.971,4.971,0,0,1,1.9922-.3838,4.52,4.52,0,0,1,2.4951.64,4.3915,4.3915,0,0,1,1.584,1.936l-1.8076.96a2.5489,2.5489,0,0,0-.7842-1.208,2.2449,2.2449,0,0,0-1.4873-.4556,2.3672,2.3672,0,0,0-1.8809.8,3.3046,3.3046,0,0,0-.6953,2.24v1.76a3.2374,3.2374,0,0,0,.6953,2.2325,2.4,2.4,0,0,0,1.8809.7754,2.2943,2.2943,0,0,0,1.544-.5118,2.9585,2.9585,0,0,0,.872-1.2636l1.7119,1.0078a4.9233,4.9233,0,0,1-1.6162,1.9443A4.3183,4.3183,0,0,1,384.1914,127.7143Z"/><path d="M389.998,127.5229v-8.352h2.0489v1.728h.0791a2.7051,2.7051,0,0,1,.248-.6479,1.9932,1.9932,0,0,1,.44-.5523,2.1181,2.1181,0,0,1,.6484-.3838,2.42,2.42,0,0,1,.8711-.144h.4482v1.936h-.64a3.2145,3.2145,0,0,0-1.5684.3042,1.0561,1.0561,0,0,0-.5273.9917v5.12Z"/><path d="M401.5342,119.1709h1.92l-3.3594,9.8393a4.2334,4.2334,0,0,1-.36.7764,1.9435,1.9435,0,0,1-.4717.5361,1.7675,1.7675,0,0,1-.6563.3037,3.69,3.69,0,0,1-.8955.0967h-1.2324v-1.6484h1.5039l.3838-1.166-2.9922-8.7378h2.0322l1.4561,4.4067.5439,2.1074h.0967l.5752-2.1074Z"/><path d="M404.7979,119.1709h2.0488v1.376h.0635a2.1,2.1,0,0,1,.8476-1.1441,2.5316,2.5316,0,0,1,1.4561-.4238,2.8554,2.8554,0,0,1,2.44,1.1279,5.3264,5.3264,0,0,1,.84,3.2236,5.3942,5.3942,0,0,1-.84,3.2481,2.8462,2.8462,0,0,1-2.44,1.1357,2.4533,2.4533,0,0,1-1.4473-.4316,2.2323,2.2323,0,0,1-.8564-1.1524h-.0635v4.5928h-2.0488Zm3.7607,6.8481a1.6985,1.6985,0,0,0,1.2959-.5283,1.9967,1.9967,0,0,0,.4961-1.4238v-1.44a2.0279,2.0279,0,0,0-.4961-1.4316,1.6855,1.6855,0,0,0-1.2959-.5356,1.9771,1.9771,0,0,0-1.2246.3676,1.163,1.163,0,0,0-.4873.9761v2.6558a1.1666,1.1666,0,0,0,.4873,1.0078A2.035,2.035,0,0,0,408.5586,126.019Z"/><path d="M416.91,127.5229a2.1822,2.1822,0,0,1-1.6084-.5508A2.1279,2.1279,0,0,1,414.75,125.4v-4.5811h-1.2314v-1.6479h.64a.7636.7636,0,0,0,.6318-.2158,1.0443,1.0443,0,0,0,.168-.648v-1.4243h1.84v2.2881H418.51v1.6479h-1.7119v5.0557h1.5839v1.6484Z"/><path d="M423.5342,127.7143a4.0671,4.0671,0,0,1-1.6084-.3037,3.3284,3.3284,0,0,1-1.2158-.88,4.0116,4.0116,0,0,1-.7754-1.3838,5.6666,5.6666,0,0,1-.2725-1.8164,5.5888,5.5888,0,0,1,.2725-1.8076,3.9383,3.9383,0,0,1,.7754-1.3681,3.3827,3.3827,0,0,1,1.2158-.8721,4.0671,4.0671,0,0,1,1.6084-.3037,4.13,4.13,0,0,1,1.6162.3037,3.37,3.37,0,0,1,1.2236.8721,3.9561,3.9561,0,0,1,.7764,1.3681,5.6169,5.6169,0,0,1,.2715,1.8076,5.6951,5.6951,0,0,1-.2715,1.8164,4.03,4.03,0,0,1-.7764,1.3838,3.3159,3.3159,0,0,1-1.2236.88A4.13,4.13,0,0,1,423.5342,127.7143Zm0-1.6474a1.6673,1.6673,0,0,0,1.28-.4961,2.0629,2.0629,0,0,0,.4638-1.4561V122.563a2.0362,2.0362,0,0,0-.4638-1.44,1.6691,1.6691,0,0,0-1.28-.4961,1.6461,1.6461,0,0,0-1.2637.4961,2.0314,2.0314,0,0,0-.4648,1.44v1.5517a2.0581,2.0581,0,0,0,.4648,1.4561A1.6443,1.6443,0,0,0,423.5342,126.0669Z"/><path d="M436.6055,127.7143a5.3039,5.3039,0,0,1-2.44-.5127,5.6505,5.6505,0,0,1-1.72-1.3466l1.4238-1.378a4.0839,4.0839,0,0,0,1.2881,1.0166,3.5341,3.5341,0,0,0,1.5762.3487,2.225,2.225,0,0,0,1.4717-.42,1.4124,1.4124,0,0,0,.4961-1.1357,1.2877,1.2877,0,0,0-.32-.9053,2.1525,2.1525,0,0,0-1.1993-.5078l-1.0566-.1582q-3.3442-.5288-3.3438-3.2519a3.2243,3.2243,0,0,1,.28-1.3619,2.902,2.902,0,0,1,.8076-1.0415,3.7545,3.7545,0,0,1,1.2725-.665,5.66,5.66,0,0,1,1.6875-.2319,5.4167,5.4167,0,0,1,2.208.417,4.3327,4.3327,0,0,1,1.6162,1.2338l-1.44,1.3628a3.3189,3.3189,0,0,0-1.0078-.8247,3.1267,3.1267,0,0,0-1.4873-.3169,2.2739,2.2739,0,0,0-1.3682.3409,1.3,1.3,0,0,0-.0879,1.8955,2.59,2.59,0,0,0,1.1836.4438l1.04.1924a4.7769,4.7769,0,0,1,2.5039,1.081,2.8705,2.8705,0,0,1,.8076,2.17,3.6278,3.6278,0,0,1-.2793,1.45,3.1555,3.1555,0,0,1-.8164,1.1211,3.7344,3.7344,0,0,1-1.3116.7285A5.687,5.687,0,0,1,436.6055,127.7143Z"/><path d="M446.1572,127.7143a4.1658,4.1658,0,0,1-1.6552-.3115,3.4259,3.4259,0,0,1-1.2325-.88,3.9339,3.9339,0,0,1-.7754-1.376,6.2046,6.2046,0,0,1-.0087-3.6079,3.9271,3.9271,0,0,1,.7607-1.3681,3.3609,3.3609,0,0,1,1.2158-.88,4.0635,4.0635,0,0,1,1.6319-.312,3.9783,3.9783,0,0,1,1.6962.3359,3.27,3.27,0,0,1,1.1836.9121,3.945,3.945,0,0,1,.6963,1.336,5.5462,5.5462,0,0,1,.2315,1.624v.6719H444.35v.206a2.0454,2.0454,0,0,0,.5117,1.4541,1.9837,1.9837,0,0,0,1.52.5479,2.2622,2.2622,0,0,0,1.2559-.3174,3.5937,3.5937,0,0,0,.8721-.8106l1.1035,1.2354a3.4364,3.4364,0,0,1-1.3994,1.1318A4.8709,4.8709,0,0,1,446.1572,127.7143Zm-.0312-7.1992a1.6394,1.6394,0,0,0-1.2959.544,2.0478,2.0478,0,0,0-.4805,1.4072v.1279h3.4238v-.1435a2.1941,2.1941,0,0,0-.4238-1.4A1.4678,1.4678,0,0,0,446.126,120.5151Z"/><path d="M451.709,127.5229v-8.352h2.0488v1.728h.0791a2.7012,2.7012,0,0,1,.2481-.6479,1.9947,1.9947,0,0,1,.44-.5523,2.1193,2.1193,0,0,1,.6484-.3838,2.42,2.42,0,0,1,.8711-.144h.4483v1.936h-.64a3.2141,3.2141,0,0,0-1.5683.3042,1.056,1.056,0,0,0-.5274.9917v5.12Z"/><path d="M459.917,127.5229l-2.7832-8.352h2.0156l1.168,3.6.8164,2.9756h.1113l.8164-2.9756,1.1358-3.6h1.9521l-2.8,8.352Z"/><path d="M467.5332,117.9551a1.2426,1.2426,0,0,1-.92-.2881,1.013,1.013,0,0,1-.28-.7359v-.32a1.013,1.013,0,0,1,.28-.7358,1.6,1.6,0,0,1,1.832,0,.9991.9991,0,0,1,.2881.7358v.32a.9991.9991,0,0,1-.2881.7359A1.2485,1.2485,0,0,1,467.5332,117.9551Zm-1.0244,1.2158h2.0488v8.352h-2.0488Z"/><path d="M474.2207,127.7143a4.2117,4.2117,0,0,1-1.6484-.3037,3.1686,3.1686,0,0,1-1.208-.88,3.9735,3.9735,0,0,1-.7442-1.3838,5.9971,5.9971,0,0,1-.2558-1.8164,5.9145,5.9145,0,0,1,.2558-1.8076,3.8993,3.8993,0,0,1,.7442-1.3681,3.2174,3.2174,0,0,1,1.208-.8721,4.2117,4.2117,0,0,1,1.6484-.3037,3.6371,3.6371,0,0,1,2.0879.56,3.1443,3.1443,0,0,1,1.1914,1.5518l-1.68.752a1.7357,1.7357,0,0,0-.5361-.8716,1.5564,1.5564,0,0,0-1.0635-.3443,1.532,1.532,0,0,0-1.2881.544,2.2476,2.2476,0,0,0-.4248,1.4233v1.52a2.2136,2.2136,0,0,0,.4248,1.416,1.541,1.541,0,0,0,1.2881.5362,1.5939,1.5939,0,0,0,1.1357-.376,2.5768,2.5768,0,0,0,.6241-.9365l1.5674.7519a3.2779,3.2779,0,0,1-1.2637,1.6563A3.7023,3.7023,0,0,1,474.2207,127.7143Z"/><path d="M482.4287,127.7143a4.1663,4.1663,0,0,1-1.6553-.3115,3.4264,3.4264,0,0,1-1.2324-.88,3.9339,3.9339,0,0,1-.7754-1.376,6.2058,6.2058,0,0,1-.0088-3.6079,3.9288,3.9288,0,0,1,.7608-1.3681,3.3609,3.3609,0,0,1,1.2158-.88,4.063,4.063,0,0,1,1.6318-.312,3.9784,3.9784,0,0,1,1.6963.3359,3.2708,3.2708,0,0,1,1.1836.9121,3.945,3.945,0,0,1,.6963,1.336,5.5462,5.5462,0,0,1,.2315,1.624v.6719h-5.5518v.206a2.0454,2.0454,0,0,0,.5117,1.4541,1.9835,1.9835,0,0,0,1.5205.5479,2.2624,2.2624,0,0,0,1.2559-.3174,3.5915,3.5915,0,0,0,.872-.8106l1.1036,1.2354a3.4377,3.4377,0,0,1-1.3994,1.1318A4.8709,4.8709,0,0,1,482.4287,127.7143Zm-.0312-7.1992a1.6394,1.6394,0,0,0-1.2959.544,2.0473,2.0473,0,0,0-.4805,1.4072v.1279h3.4238v-.1435a2.1941,2.1941,0,0,0-.4238-1.4A1.4678,1.4678,0,0,0,482.3975,120.5151Z"/><path d="M490.7168,127.7143a4.4862,4.4862,0,0,1-2.0156-.4072,4.6469,4.6469,0,0,1-1.44-1.1289l1.2481-1.2158a3.7846,3.7846,0,0,0,1.0156.832,2.59,2.59,0,0,0,1.2725.3047,1.7432,1.7432,0,0,0,1.0644-.2568.8443.8443,0,0,0,.3272-.7032.7582.7582,0,0,0-.2315-.5839,1.473,1.473,0,0,0-.792-.2969l-.832-.1114a3.9522,3.9522,0,0,1-2.0723-.7763,2.1618,2.1618,0,0,1-.7119-1.7515,2.5971,2.5971,0,0,1,.2237-1.0962,2.33,2.33,0,0,1,.6406-.832,2.9305,2.9305,0,0,1,1-.5278,4.3271,4.3271,0,0,1,1.3037-.1841,5.943,5.943,0,0,1,1.08.0879,3.9556,3.9556,0,0,1,.8564.2558,3.3178,3.3178,0,0,1,.7031.416,6.5338,6.5338,0,0,1,.6241.5523l-1.1993,1.2a3.17,3.17,0,0,0-.8808-.64,2.4665,2.4665,0,0,0-1.1192-.2564,1.5446,1.5446,0,0,0-.9687.24.7663.7663,0,0,0-.2959.6241.7936.7936,0,0,0,.248.6318,1.7158,1.7158,0,0,0,.84.312l.8486.1123q2.7042.3838,2.7041,2.4639a2.4853,2.4853,0,0,1-.248,1.1113,2.5436,2.5436,0,0,1-.6963.8643,3.3,3.3,0,0,1-1.08.5605A4.7027,4.7027,0,0,1,490.7168,127.7143Z"/><path id="Cloud" class="cls-7" d="M343.0213,141.3138a25.0241,25.0241,0,0,0-24.5988,20.32,18.7682,18.7682,0,0,0,3.3032,37.2361h42.5412a18.7682,18.7682,0,0,0,3.3032-37.2361,25.0243,25.0243,0,0,0-19.8692-19.8693A25.695,25.695,0,0,0,343.0213,141.3138Z"/><g id="Hardware"><rect class="cls-8" x="322.9947" y="177.7385" width="40" height="10.5882"/><polygon class="cls-8" points="362.995 177.346 322.995 177.346 330.054 162.052 355.936 162.052 362.995 177.346"/><rect x="348.2888" y="180.6797" width="4.7059" height="4.7059"/><rect x="354.7594" y="180.6797" width="4.7059" height="4.7059"/></g><g id="lock"><g id="lock-2" data-name="lock"><rect class="cls-9" x="532.5" y="66.0228" width="9" height="3"/><path class="cls-10" d="M537,80.5228v-3.5m-5-8.16v-6.34a5,5,0,1,1,10,0v6.34m2,1.52a10.2473,10.2473,0,0,0-2-1.52,9.9984,9.9984,0,0,0-10,0,10.2473,10.2473,0,0,0-2,1.52,10,10,0,1,0,14,0Z"/><circle cx="537" cy="77.0228" r="1.5"/></g></g><g id="lock-3" data-name="lock"><g id="lock-4" data-name="lock"><rect class="cls-11" x="318.4" y="176.3228" width="7.2" height="2.4"/><path class="cls-12" d="M322,187.9228v-2.8m-4-6.528v-5.072a4,4,0,1,1,8,0v5.072m1.6,1.216a8.1978,8.1978,0,0,0-1.6-1.216,7.9987,7.9987,0,0,0-8,0,8.1978,8.1978,0,0,0-1.6,1.216,8,8,0,1,0,11.2,0Z"/><circle cx="322" cy="185.1228" r="1.5"/></g></g><g id="key"><path class="cls-12" d="M450.54,175.6441a11.68,11.68,0,1,1-.5547-7.9354"/><circle cx="435.522" cy="172.4281" r="2.5"/><polyline class="cls-13" points="449.986 167.709 473.309 167.709 477.675 172.074 473.912 175.837 459.248 175.837 456.619 173.232 454.207 175.644 450.54 175.644"/></g><line class="cls-14" x1="237" y1="49.3696" x2="237" y2="86.7819"/><polygon class="cls-15" points="233.011 85.615 237 92.523 240.989 85.615 233.011 85.615"/><line class="cls-16" x1="483" y1="49.7029" x2="534" y2="49.7029"/><line class="cls-16" x1="237" y1="49.3696" x2="328" y2="49.3696"/><path d="M104.3579,52.0229l-1.4883,1.76v3.2959h-2.1118V45.9111H102.87V51.415h.08l1.584-2.0957,2.7681-3.4082h2.4321l-3.8882,4.6558,4.208,6.5122H107.542Z"/><path d="M114.4536,57.271a4.169,4.169,0,0,1-1.6562-.312,3.424,3.424,0,0,1-1.232-.88,3.9319,3.9319,0,0,1-.7758-1.376,6.2046,6.2046,0,0,1-.0079-3.6079,3.92,3.92,0,0,1,.76-1.3682,3.3706,3.3706,0,0,1,1.2158-.88,4.0706,4.0706,0,0,1,1.6323-.312,3.973,3.973,0,0,1,1.6958.336,3.2665,3.2665,0,0,1,1.1841.9121,3.9356,3.9356,0,0,1,.6958,1.3359,5.5306,5.5306,0,0,1,.2325,1.624v.6719h-5.5523v.2066a2.041,2.041,0,0,0,.5122,1.4536,1.9813,1.9813,0,0,0,1.52.5478,2.2625,2.2625,0,0,0,1.2559-.3174,3.5944,3.5944,0,0,0,.8721-.81l1.104,1.2358a3.44,3.44,0,0,1-1.4,1.1314A4.8749,4.8749,0,0,1,114.4536,57.271Zm-.0322-7.2a1.64,1.64,0,0,0-1.2959.5439,2.05,2.05,0,0,0-.48,1.4077v.128h3.4238v-.1436a2.1917,2.1917,0,0,0-.4238-1.4A1.47,1.47,0,0,0,114.4214,50.0713Z"/><path d="M125.03,48.727h1.92l-3.36,9.84a4.2063,4.2063,0,0,1-.36.7763,1.9327,1.9327,0,0,1-.4717.5357,1.7779,1.7779,0,0,1-.6562.3042,3.7239,3.7239,0,0,1-.896.0962h-1.232V58.6308h1.5039l.3843-1.1655L118.87,48.727h2.0318l1.456,4.4068.544,2.1074h.0962l.5761-2.1074Z"/><path d="M132.1978,57.0791V45.9111h5.0239a3.6749,3.6749,0,0,1,1.3843.2481,2.9339,2.9339,0,0,1,1.0478.7041,3.02,3.02,0,0,1,.6558,1.0957,4.561,4.561,0,0,1,0,2.8242,3.0327,3.0327,0,0,1-.6558,1.0879,2.9352,2.9352,0,0,1-1.0478.7041,3.6769,3.6769,0,0,1-1.3843.248H134.31v4.2559Zm2.1118-6.08h2.72a1.3525,1.3525,0,0,0,.96-.3281,1.2166,1.2166,0,0,0,.3521-.9361V48.999a1.1908,1.1908,0,0,0-.3521-.9277,1.3733,1.3733,0,0,0-.96-.32h-2.72Z"/><path d="M142.1655,57.0791V48.727h2.0479v1.7281h.08a2.6628,2.6628,0,0,1,.248-.648,1.9834,1.9834,0,0,1,.44-.5522,2.1172,2.1172,0,0,1,.648-.3838,2.4255,2.4255,0,0,1,.8721-.1441h.4477v1.9361h-.64a3.2107,3.2107,0,0,0-1.5684.3042,1.0563,1.0563,0,0,0-.5278.9917v5.12Z"/><path d="M151.6855,57.271a4.0653,4.0653,0,0,1-1.6079-.3037,3.3293,3.3293,0,0,1-1.2163-.88,4.0193,4.0193,0,0,1-.7759-1.3838,5.6649,5.6649,0,0,1-.2719-1.8159,5.5947,5.5947,0,0,1,.2719-1.8081,3.9508,3.9508,0,0,1,.7759-1.3682,3.3835,3.3835,0,0,1,1.2163-.8721,4.0653,4.0653,0,0,1,1.6079-.3037,4.1267,4.1267,0,0,1,1.6158.3037,3.37,3.37,0,0,1,1.2241.8721,3.9508,3.9508,0,0,1,.7759,1.3682,5.5947,5.5947,0,0,1,.2719,1.8081,5.6649,5.6649,0,0,1-.2719,1.8159,4.0193,4.0193,0,0,1-.7759,1.3838,3.3168,3.3168,0,0,1-1.2241.88A4.1267,4.1267,0,0,1,151.6855,57.271Zm0-1.648a1.6656,1.6656,0,0,0,1.28-.4961,2.0561,2.0561,0,0,0,.4644-1.456V52.1191a2.0309,2.0309,0,0,0-.4644-1.44,1.6674,1.6674,0,0,0-1.28-.4961,1.6467,1.6467,0,0,0-1.2641.4961,2.0308,2.0308,0,0,0-.4639,1.44v1.5518a2.0559,2.0559,0,0,0,.4639,1.456A1.645,1.645,0,0,0,151.6855,55.623Z"/><path d="M159.9253,57.0791a2.1822,2.1822,0,0,1-1.6079-.55,2.1248,2.1248,0,0,1-.5523-1.5728V50.375h-1.2319V48.727h.64a.7636.7636,0,0,0,.6319-.2158,1.0438,1.0438,0,0,0,.1679-.6479V46.4389h1.84V48.727h1.7119v1.648h-1.7119v5.0561h1.584v1.648Z"/><path d="M166.6133,57.271a4.17,4.17,0,0,1-1.6563-.312,3.4236,3.4236,0,0,1-1.2319-.88,3.9337,3.9337,0,0,1-.7759-1.376,6.2035,6.2035,0,0,1-.0078-3.6079,3.92,3.92,0,0,1,.76-1.3682,3.37,3.37,0,0,1,1.2158-.88,4.0706,4.0706,0,0,1,1.6323-.312,3.9733,3.9733,0,0,1,1.6958.336,3.2673,3.2673,0,0,1,1.1841.9121,3.9356,3.9356,0,0,1,.6958,1.3359,5.5305,5.5305,0,0,1,.2324,1.624v.6719h-5.5522v.2066a2.041,2.041,0,0,0,.5122,1.4536,1.9812,1.9812,0,0,0,1.52.5478,2.2628,2.2628,0,0,0,1.2559-.3174,3.5922,3.5922,0,0,0,.872-.81l1.104,1.2358a3.44,3.44,0,0,1-1.4,1.1314A4.8744,4.8744,0,0,1,166.6133,57.271Zm-.0322-7.2a1.64,1.64,0,0,0-1.2959.5439,2.05,2.05,0,0,0-.48,1.4077v.128h3.4238v-.1436a2.1917,2.1917,0,0,0-.4238-1.4A1.47,1.47,0,0,0,166.5811,50.0713Z"/><path d="M175.4614,57.271a4.2145,4.2145,0,0,1-1.6479-.3037,3.1746,3.1746,0,0,1-1.208-.88,3.9528,3.9528,0,0,1-.7442-1.3838,6.0076,6.0076,0,0,1-.2558-1.8159,5.9327,5.9327,0,0,1,.2558-1.8081,3.8838,3.8838,0,0,1,.7442-1.3682,3.2236,3.2236,0,0,1,1.208-.8721,4.2145,4.2145,0,0,1,1.6479-.3037,3.6349,3.6349,0,0,1,2.0879.56,3.1417,3.1417,0,0,1,1.1919,1.5517l-1.68.752a1.743,1.743,0,0,0-.5361-.8716,1.5551,1.5551,0,0,0-1.064-.3442,1.5328,1.5328,0,0,0-1.2881.5439,2.2509,2.2509,0,0,0-.4238,1.4239v1.52a2.2153,2.2153,0,0,0,.4238,1.416,1.5407,1.5407,0,0,0,1.2881.5361,1.5955,1.5955,0,0,0,1.1363-.376,2.5863,2.5863,0,0,0,.624-.936l1.5679.752a3.2812,3.2812,0,0,1-1.2642,1.6562A3.705,3.705,0,0,1,175.4614,57.271Z"/><path d="M182.981,57.0791a2.1825,2.1825,0,0,1-1.608-.55,2.1252,2.1252,0,0,1-.5522-1.5728V50.375h-1.2319V48.727h.64a.7633.7633,0,0,0,.6318-.2158,1.0437,1.0437,0,0,0,.168-.6479V46.4389h1.84V48.727h1.712v1.648h-1.712v5.0561h1.584v1.648Z"/><path d="M197.1729,57.0791l-.896-2.8482h-3.9683l-.88,2.8482h-2.144l3.7441-11.168h2.624l3.7119,11.168Zm-2.8482-9.2481h-.08l-1.4238,4.5923h2.9438Z"/><path d="M201.0127,57.0791V45.9111h5.0239a3.6746,3.6746,0,0,1,1.3843.2481,2.9334,2.9334,0,0,1,1.0479.7041,3.0211,3.0211,0,0,1,.6557,1.0957,4.561,4.561,0,0,1,0,2.8242,3.0339,3.0339,0,0,1-.6557,1.0879,2.9347,2.9347,0,0,1-1.0479.7041,3.6765,3.6765,0,0,1-1.3843.248h-2.9121v4.2559Zm2.1118-6.08h2.72a1.3529,1.3529,0,0,0,.96-.3281,1.2165,1.2165,0,0,0,.352-.9361V48.999a1.1908,1.1908,0,0,0-.352-.9277,1.3738,1.3738,0,0,0-.96-.32h-2.72Z"/><path d="M210.8047,57.0791V55.3833h1.4717V47.6069h-1.4717V45.9111h5.0718v1.6958h-1.4878v7.7764h1.4878v1.6958Z"/><path d="M220.58,57.271a4.4843,4.4843,0,0,1-2.0161-.4077,4.6352,4.6352,0,0,1-1.44-1.1285l1.2481-1.2158a3.789,3.789,0,0,0,1.0161.8321,2.5948,2.5948,0,0,0,1.272.3042,1.7407,1.7407,0,0,0,1.0639-.2564.8431.8431,0,0,0,.3281-.7036.76.76,0,0,0-.2319-.584,1.4767,1.4767,0,0,0-.792-.2964l-.832-.1118a3.9586,3.9586,0,0,1-2.0723-.7759,2.1627,2.1627,0,0,1-.7119-1.7519,2.5987,2.5987,0,0,1,.2241-1.0962,2.3235,2.3235,0,0,1,.64-.8321,2.9276,2.9276,0,0,1,1-.5278,4.33,4.33,0,0,1,1.3037-.1841,5.9469,5.9469,0,0,1,1.08.0879,3.9342,3.9342,0,0,1,.8559.2559,3.34,3.34,0,0,1,.7041.416,6.6287,6.6287,0,0,1,.624.5522l-1.2,1.2a3.1669,3.1669,0,0,0-.88-.64,2.4735,2.4735,0,0,0-1.12-.2563,1.5414,1.5414,0,0,0-.9677.24.7647.7647,0,0,0-.2959.624.7932.7932,0,0,0,.2475.6318,1.7166,1.7166,0,0,0,.84.3121l.8476.1123q2.7042.3837,2.7041,2.4638a2.4808,2.4808,0,0,1-.248,1.1118,2.5415,2.5415,0,0,1-.6958.8643,3.2931,3.2931,0,0,1-1.08.56A4.6847,4.6847,0,0,1,220.58,57.271Z"/><path d="M561.6787,56.4121,558.03,45.2441h2.16l1.7119,5.44.9922,3.7119h.0479l.9756-3.7119,1.7129-5.44h2.0957l-3.6485,11.168Z"/><path d="M577.7266,48.396h-.0645l-.8633,1.7759-2.2881,4.2241-2.288-4.2241-.8643-1.7759h-.0645v8.0161h-2V45.2441h2.3848L574.542,50.7h.0644l2.8321-5.4561h2.2881v11.168h-2Z"/><path d="M581.4062,48.06h1.9678l.8477,3.44.6562,2.8642h.0645L585.71,51.5l.9765-3.44h1.8555L589.55,51.5l.7842,2.8642h.0644l.6553-2.8642.832-3.44H593.79l-2.288,8.3521h-2.2081l-1.0722-3.68-.624-2.272H587.55l-.6074,2.272-1.0567,3.68H583.71Z"/><path d="M601.2617,56.4121a1.4375,1.4375,0,0,1-1.0644-.3921,1.8007,1.8007,0,0,1-.4873-1.0479h-.0967a1.9587,1.9587,0,0,1-.8477,1.2242,2.892,2.892,0,0,1-1.584.4077,2.705,2.705,0,0,1-1.9677-.6695,2.3785,2.3785,0,0,1-.6885-1.7866,2.1647,2.1647,0,0,1,.9277-1.9218,4.6794,4.6794,0,0,1,2.6407-.63h1.4238v-.6079a1.5123,1.5123,0,0,0-.3682-1.0884,1.5789,1.5789,0,0,0-1.1836-.3838,1.9629,1.9629,0,0,0-1.16.312,3.0616,3.0616,0,0,0-.7442.7441l-1.2158-1.0947a3.5328,3.5328,0,0,1,1.2314-1.1665,4.0513,4.0513,0,0,1,2.0323-.4429,3.8174,3.8174,0,0,1,2.5761.7662,2.7627,2.7627,0,0,1,.88,2.2026v3.9272h.8321v1.648Zm-3.3926-1.2959a2.1489,2.1489,0,0,0,1.168-.3018.9851.9851,0,0,0,.4805-.89V52.8281h-1.3115q-1.6011,0-1.6006,1.0171v.27a.8812.8812,0,0,0,.3281.7544A1.5316,1.5316,0,0,0,597.8691,55.1162Z"/><path d="M604.0615,56.4121V48.06H606.11v1.7281h.0791a2.7042,2.7042,0,0,1,.248-.648,1.9943,1.9943,0,0,1,.44-.5522,2.12,2.12,0,0,1,.6485-.3838,2.42,2.42,0,0,1,.8711-.1441h.4482v1.9361h-.64a3.2131,3.2131,0,0,0-1.5684.3042,1.056,1.056,0,0,0-.5273.9917v5.12Z"/><path d="M613.6455,56.604a4.1663,4.1663,0,0,1-1.6553-.312,3.4264,3.4264,0,0,1-1.2324-.88,3.9249,3.9249,0,0,1-.7754-1.376,6.2058,6.2058,0,0,1-.0088-3.6079,3.9293,3.9293,0,0,1,.7608-1.3682,3.3607,3.3607,0,0,1,1.2158-.88,4.0613,4.0613,0,0,1,1.6318-.3121,3.9784,3.9784,0,0,1,1.6963.336,3.27,3.27,0,0,1,1.1836.9121,3.9455,3.9455,0,0,1,.6963,1.3359,5.5472,5.5472,0,0,1,.2314,1.624v.6719h-5.5517v.2066a2.0451,2.0451,0,0,0,.5117,1.4536,1.9839,1.9839,0,0,0,1.52.5478,2.2616,2.2616,0,0,0,1.2559-.3174,3.5832,3.5832,0,0,0,.872-.81l1.1036,1.2358a3.4325,3.4325,0,0,1-1.3995,1.1314A4.87,4.87,0,0,1,613.6455,56.604Zm-.0312-7.2a1.6393,1.6393,0,0,0-1.2959.5439,2.048,2.048,0,0,0-.4805,1.4077v.128h3.4238V51.34a2.1946,2.1946,0,0,0-.4238-1.4A1.468,1.468,0,0,0,613.6143,49.4043Z"/><rect class="cls-17" x="328.5" y="19.7029" width="153" height="60"/><path d="M385.8379,38.87l-2.7354-8.376h1.6192l1.2842,4.08.7441,2.7837h.0361l.7325-2.7837,1.2832-4.08h1.5722l-2.7363,8.376Z"/><path d="M397.874,32.8574h-.0478l-.6475,1.332-1.7158,3.168-1.7168-3.168-.6475-1.332h-.0478V38.87h-1.5v-8.376h1.7881l2.1474,4.0918h.0479l2.124-4.0918h1.7158V38.87h-1.5Z"/><path d="M400.6338,32.6054h1.4756l.6357,2.58.4922,2.148h.0479l.5761-2.148.7325-2.58h1.3916l.7558,2.58.5879,2.148h.0479l.4921-2.148.6241-2.58h1.4287L408.2051,38.87H406.55l-.8047-2.76-.4678-1.7041h-.0361l-.456,1.7041-.792,2.76h-1.6319Z"/><path d="M415.5264,38.87a1.0761,1.0761,0,0,1-.7979-.2939,1.3494,1.3494,0,0,1-.3662-.7862H414.29a1.4656,1.4656,0,0,1-.6357.918,2.1676,2.1676,0,0,1-1.1885.3061,2.0286,2.0286,0,0,1-1.4756-.5024,1.7849,1.7849,0,0,1-.5156-1.34A1.6233,1.6233,0,0,1,411.17,35.73a3.5079,3.5079,0,0,1,1.9805-.4722h1.0684v-.4561a1.1337,1.1337,0,0,0-.2764-.8159,1.1847,1.1847,0,0,0-.8877-.2881,1.4706,1.4706,0,0,0-.87.2339,2.2973,2.2973,0,0,0-.5586.5581l-.9121-.8208a2.6517,2.6517,0,0,1,.9248-.8755,3.0378,3.0378,0,0,1,1.5234-.332,2.8672,2.8672,0,0,1,1.9326.5747,2.0746,2.0746,0,0,1,.6592,1.6524v2.9453h.624V38.87Zm-2.544-.9722a1.6152,1.6152,0,0,0,.876-.226.7391.7391,0,0,0,.36-.6675v-.8223h-.9844q-1.2,0-1.2.7627v.2026a.6615.6615,0,0,0,.2461.566A1.1517,1.1517,0,0,0,412.9824,37.8974Z"/><path d="M417.626,38.87V32.6054h1.5361v1.2964h.0606a1.9964,1.9964,0,0,1,.1855-.4863,1.5027,1.5027,0,0,1,.33-.4141,1.5758,1.5758,0,0,1,.4863-.2876,1.8119,1.8119,0,0,1,.6533-.1084h.336v1.4522h-.48a2.4074,2.4074,0,0,0-1.1758.228.7911.7911,0,0,0-.3965.7442v3.84Z"/><path d="M424.8135,39.0136a3.1332,3.1332,0,0,1-1.2422-.2338,2.5682,2.5682,0,0,1-.9238-.66,2.9447,2.9447,0,0,1-.5821-1.0322,4.6487,4.6487,0,0,1-.0058-2.7056,2.9387,2.9387,0,0,1,.57-1.0264,2.5154,2.5154,0,0,1,.9121-.66,3.0412,3.0412,0,0,1,1.2236-.2344,2.9711,2.9711,0,0,1,1.2715.2524,2.4559,2.4559,0,0,1,.8887.6836,2.9681,2.9681,0,0,1,.5215,1.002,4.1471,4.1471,0,0,1,.1738,1.2183v.5039H423.458v.1547a1.5286,1.5286,0,0,0,.3838,1.09,1.4855,1.4855,0,0,0,1.14.4111,1.7008,1.7008,0,0,0,.9424-.2383,2.664,2.664,0,0,0,.6533-.6079l.8282.9268a2.571,2.571,0,0,1-1.05.8486A3.6582,3.6582,0,0,1,424.8135,39.0136Zm-.0235-5.4a1.2319,1.2319,0,0,0-.9726.4078,1.5352,1.5352,0,0,0-.3594,1.0561v.0962h2.5674v-.1084a1.6492,1.6492,0,0,0-.3174-1.05A1.1027,1.1027,0,0,0,424.79,33.6137Z"/><path d="M361.2324,49.4775l-1.1152,1.32V53.27h-1.584v-8.376h1.584v4.128h.06l1.1884-1.5718,2.0752-2.5562h1.8242l-2.916,3.4922,3.1563,4.8838h-1.8838Z"/><path d="M368.8047,53.4136a3.1336,3.1336,0,0,1-1.2422-.2339,2.5682,2.5682,0,0,1-.9238-.66,2.9447,2.9447,0,0,1-.5821-1.0322,4.6487,4.6487,0,0,1-.0058-2.7056,2.9387,2.9387,0,0,1,.57-1.0264,2.5163,2.5163,0,0,1,.9121-.66,3.0412,3.0412,0,0,1,1.2236-.2344,2.9711,2.9711,0,0,1,1.2715.2524,2.4559,2.4559,0,0,1,.8887.6836,2.9681,2.9681,0,0,1,.5215,1.002,4.1471,4.1471,0,0,1,.1738,1.2183v.5039h-4.1631v.1547a1.5286,1.5286,0,0,0,.3838,1.09,1.4858,1.4858,0,0,0,1.14.4111,1.7007,1.7007,0,0,0,.9423-.2383,2.6644,2.6644,0,0,0,.6534-.6079l.8281.9268a2.571,2.571,0,0,1-1.05.8486A3.6582,3.6582,0,0,1,368.8047,53.4136Zm-.0235-5.4a1.2319,1.2319,0,0,0-.9726.4078,1.5357,1.5357,0,0,0-.3594,1.0561v.0962h2.5674v-.1084a1.6486,1.6486,0,0,0-.3174-1.05A1.1027,1.1027,0,0,0,368.7812,48.0136Z"/><path d="M376.7363,47.0053h1.44l-2.52,7.38a3.2076,3.2076,0,0,1-.27.5821,1.4489,1.4489,0,0,1-.3535.4018,1.3459,1.3459,0,0,1-.4922.228,2.7977,2.7977,0,0,1-.6719.0718h-.9248V54.4336h1.1289l.2872-.8745-2.2432-6.5538h1.5234l1.0918,3.3052.4082,1.5806h.0723l.4316-1.5806Z"/><path d="M388.4365,47.2573h-.0478l-.6475,1.332-1.7158,3.168-1.7168-3.168-.6475-1.332h-.0478V53.27h-1.5v-8.376h1.7881l2.1474,4.0918h.0479l2.124-4.0918h1.7158V53.27h-1.5Z"/><path d="M396.417,53.27a1.076,1.076,0,0,1-.7979-.2939,1.35,1.35,0,0,1-.3662-.7862h-.0722a1.4661,1.4661,0,0,1-.6358.918,2.1676,2.1676,0,0,1-1.1885.3062,2.0282,2.0282,0,0,1-1.4755-.5025,1.7846,1.7846,0,0,1-.5157-1.34,1.6233,1.6233,0,0,1,.6953-1.4414,3.5082,3.5082,0,0,1,1.9805-.4722h1.0684v-.4561a1.1337,1.1337,0,0,0-.2764-.8159,1.1847,1.1847,0,0,0-.8877-.2881,1.4708,1.4708,0,0,0-.87.2339,2.2973,2.2973,0,0,0-.5586.5581l-.9121-.8208a2.6517,2.6517,0,0,1,.9248-.8755,3.0378,3.0378,0,0,1,1.5234-.332,2.8677,2.8677,0,0,1,1.9327.5747,2.0749,2.0749,0,0,1,.6591,1.6524v2.9453h.6241V53.27Zm-2.544-.9722a1.6152,1.6152,0,0,0,.876-.226.7389.7389,0,0,0,.36-.6675v-.8223h-.9844q-1.2,0-1.2.7627v.2027a.6615.6615,0,0,0,.2461.5659A1.1521,1.1521,0,0,0,393.873,52.2973Z"/><path d="M398.5166,53.27V47.0053h1.5361v1.044h.0606a2.0076,2.0076,0,0,1,.6055-.8457,1.75,1.75,0,0,1,1.1464-.3423,1.8045,1.8045,0,0,1,1.4873.6362,2.8055,2.8055,0,0,1,.5166,1.812v3.96H402.333V49.4653a1.7345,1.7345,0,0,0-.24-1.0078.9071.9071,0,0,0-.792-.3359,1.6129,1.6129,0,0,0-.4619.0659,1.2816,1.2816,0,0,0-.3955.1919.9915.9915,0,0,0-.2823.312.8551.8551,0,0,0-.1084.438v4.14Z"/><path d="M410.1807,53.27a1.0757,1.0757,0,0,1-.7979-.2939,1.3494,1.3494,0,0,1-.3662-.7862h-.0723a1.4656,1.4656,0,0,1-.6357.918,2.1676,2.1676,0,0,1-1.1885.3062,2.0286,2.0286,0,0,1-1.4756-.5025,1.7849,1.7849,0,0,1-.5156-1.34,1.6233,1.6233,0,0,1,.6953-1.4414,3.5079,3.5079,0,0,1,1.9805-.4722h1.0683v-.4561a1.1337,1.1337,0,0,0-.2763-.8159,1.1847,1.1847,0,0,0-.8877-.2881,1.4706,1.4706,0,0,0-.87.2339,2.2973,2.2973,0,0,0-.5586.5581l-.9121-.8208a2.6517,2.6517,0,0,1,.9248-.8755,3.0378,3.0378,0,0,1,1.5234-.332,2.8672,2.8672,0,0,1,1.9326.5747,2.0746,2.0746,0,0,1,.6592,1.6524v2.9453h.624V53.27Zm-2.544-.9722a1.6152,1.6152,0,0,0,.876-.226.739.739,0,0,0,.36-.6675v-.8223h-.9843q-1.2,0-1.2.7627v.2027a.6615.6615,0,0,0,.2461.5659A1.1517,1.1517,0,0,0,407.6367,52.2973Z"/><path d="M417.9326,53.7973a2.0725,2.0725,0,0,1-.1738.87,1.4823,1.4823,0,0,1-.57.63,3.1,3.1,0,0,1-1.02.3843,8.8834,8.8834,0,0,1-2.8681.03,3.222,3.222,0,0,1-.9063-.2881,1.2,1.2,0,0,1-.51-.4619,1.2413,1.2413,0,0,1-.1563-.624,1.109,1.109,0,0,1,.294-.8218,1.4435,1.4435,0,0,1,.8222-.3779v-.1324a1.0166,1.0166,0,0,1-.5937-.3784,1.0832,1.0832,0,0,1-.21-.667.9112.9112,0,0,1,.0957-.4262.9837.9837,0,0,1,.2578-.3189,1.5936,1.5936,0,0,1,.3662-.2221,2.1707,2.1707,0,0,1,.4317-.1382v-.0484a1.873,1.873,0,0,1-.8574-.7314,2.0658,2.0658,0,0,1-.2823-1.0908,1.9512,1.9512,0,0,1,.66-1.5406,2.8361,2.8361,0,0,1,1.9316-.582,4.52,4.52,0,0,1,.57.0361,2.5489,2.5489,0,0,1,.5215.12v-.2041a.796.796,0,0,1,.8887-.9122h.9717v1.1763h-1.3321v.168a1.8064,1.8064,0,0,1,.7315.72,2.1118,2.1118,0,0,1,.24,1.02,1.9329,1.9329,0,0,1-.6533,1.5244,2.8565,2.8565,0,0,1-1.9385.5757,3.7842,3.7842,0,0,1-.96-.1079,1.0242,1.0242,0,0,0-.3116.2222.4725.4725,0,0,0-.1328.3418q0,.468.8164.4682h1.68a2.4459,2.4459,0,0,1,1.6739.4737A1.6844,1.6844,0,0,1,417.9326,53.7973Zm-1.44.18a.54.54,0,0,0-.2393-.4678,1.5052,1.5052,0,0,0-.8281-.1684h-2.1357a.7634.7634,0,0,0-.3243.6484.6458.6458,0,0,0,.3.564,1.8955,1.8955,0,0,0,1.02.2036h.7685a2.3513,2.3513,0,0,0,1.0977-.1919A.6293.6293,0,0,0,416.4922,53.9775Zm-1.8477-3.9482q1.128,0,1.128-.9541V48.872q0-.9543-1.128-.9545t-1.1279.9545v.2032Q413.5166,50.03,414.6445,50.0293Z"/><path d="M421.28,53.4136a3.1332,3.1332,0,0,1-1.2422-.2339,2.5682,2.5682,0,0,1-.9238-.66,2.9447,2.9447,0,0,1-.5821-1.0322,4.6487,4.6487,0,0,1-.0058-2.7056,2.9387,2.9387,0,0,1,.57-1.0264,2.5154,2.5154,0,0,1,.9121-.66,3.0412,3.0412,0,0,1,1.2236-.2344,2.9711,2.9711,0,0,1,1.2715.2524,2.4559,2.4559,0,0,1,.8887.6836,2.9681,2.9681,0,0,1,.5215,1.002,4.1471,4.1471,0,0,1,.1738,1.2183v.5039h-4.1631v.1547a1.5286,1.5286,0,0,0,.3838,1.09,1.4855,1.4855,0,0,0,1.14.4111,1.7008,1.7008,0,0,0,.9424-.2383,2.664,2.664,0,0,0,.6533-.6079l.8282.9268a2.571,2.571,0,0,1-1.05.8486A3.6582,3.6582,0,0,1,421.28,53.4136Zm-.0235-5.4a1.2319,1.2319,0,0,0-.9726.4078,1.5352,1.5352,0,0,0-.3594,1.0561v.0962h2.5674v-.1084a1.6492,1.6492,0,0,0-.3174-1.05A1.1028,1.1028,0,0,0,421.2568,48.0136Z"/><path d="M425.4443,53.27V47.0053h1.5362v1.044h.06a2.03,2.03,0,0,1,.5752-.84,1.6187,1.6187,0,0,1,1.1045-.3481,1.9716,1.9716,0,0,1,1.1162.312,1.84,1.84,0,0,1,.6953.9483h.0244a1.765,1.765,0,0,1,.6661-.8941,2.06,2.06,0,0,1,1.2539-.3662,1.7,1.7,0,0,1,1.4218.6362,2.882,2.882,0,0,1,.4981,1.812v3.96H432.86V49.4653q0-1.3432-1.0079-1.3437a1.446,1.446,0,0,0-.4375.0659,1.1574,1.1574,0,0,0-.372.1919.9332.9332,0,0,0-.2588.312.9492.9492,0,0,0-.0957.438v4.14h-1.5362V49.4653q0-1.3432-1.0078-1.3437a1.4115,1.4115,0,0,0-.4257.0659,1.1673,1.1673,0,0,0-.3721.1919.9843.9843,0,0,0-.2637.312.8929.8929,0,0,0-.1025.438v4.14Z"/><path d="M438.6318,53.4136A3.1339,3.1339,0,0,1,437.39,53.18a2.57,2.57,0,0,1-.9238-.66,2.9446,2.9446,0,0,1-.582-1.0322,4.65,4.65,0,0,1-.0059-2.7056,2.9418,2.9418,0,0,1,.57-1.0264,2.5158,2.5158,0,0,1,.9122-.66,3.04,3.04,0,0,1,1.2236-.2344,2.9711,2.9711,0,0,1,1.2715.2524,2.4564,2.4564,0,0,1,.8886.6836,2.9663,2.9663,0,0,1,.5215,1.002,4.1471,4.1471,0,0,1,.1739,1.2183v.5039h-4.1631v.1547a1.5282,1.5282,0,0,0,.3838,1.09,1.4854,1.4854,0,0,0,1.14.4111,1.701,1.701,0,0,0,.9424-.2383,2.6658,2.6658,0,0,0,.6533-.6079l.8281.9268a2.57,2.57,0,0,1-1.05.8486A3.6579,3.6579,0,0,1,438.6318,53.4136Zm-.0234-5.4a1.2322,1.2322,0,0,0-.9727.4078,1.5357,1.5357,0,0,0-.3593,1.0561v.0962h2.5674v-.1084a1.6492,1.6492,0,0,0-.3174-1.05A1.1028,1.1028,0,0,0,438.6084,48.0136Z"/><path d="M442.7959,53.27V47.0053h1.5361v1.044h.0606a2.0082,2.0082,0,0,1,.6054-.8457,1.75,1.75,0,0,1,1.1465-.3423,1.8045,1.8045,0,0,1,1.4873.6362,2.8055,2.8055,0,0,1,.5166,1.812v3.96h-1.5361V49.4653a1.7345,1.7345,0,0,0-.24-1.0078.9071.9071,0,0,0-.792-.3359,1.6129,1.6129,0,0,0-.4619.0659,1.2816,1.2816,0,0,0-.3955.1919.9915.9915,0,0,0-.2823.312.8551.8551,0,0,0-.1084.438v4.14Z"/><path d="M451.8076,53.27a1.6375,1.6375,0,0,1-1.206-.4131,1.595,1.595,0,0,1-.4141-1.1792V48.2417h-.9238V47.0053h.48a.5733.5733,0,0,0,.4737-.1616.7851.7851,0,0,0,.126-.4863V45.29h1.38v1.7158h1.2842v1.2364h-1.2842v3.792h1.1885V53.27Z"/><path d="M337.4668,67.6694v-1.272h1.1045v-5.832h-1.1045v-1.272h3.8047v1.272h-1.1162v5.832h1.1162v1.272Z"/><path d="M342.7949,67.6694V61.4053h1.5362v1.0439h.06a2.0076,2.0076,0,0,1,.6055-.8457,1.75,1.75,0,0,1,1.1465-.3423,1.8048,1.8048,0,0,1,1.4873.6362,2.8061,2.8061,0,0,1,.5166,1.812v3.96h-1.5362V63.8652a1.7345,1.7345,0,0,0-.24-1.0078.907.907,0,0,0-.792-.3359,1.6129,1.6129,0,0,0-.4619.0659,1.2827,1.2827,0,0,0-.3955.1919.9912.9912,0,0,0-.2822.312.8541.8541,0,0,0-.1084.438v4.14Z"/><path d="M351.8066,67.6694a1.6376,1.6376,0,0,1-1.206-.4131,1.595,1.595,0,0,1-.4141-1.1792V62.6416h-.9238V61.4053h.4805a.5732.5732,0,0,0,.4736-.1617.7851.7851,0,0,0,.126-.4863V59.6894h1.38v1.7159h1.2841v1.2363h-1.2841v3.792h1.1884v1.2358Z"/><path d="M356.8223,67.8135A3.1332,3.1332,0,0,1,355.58,67.58a2.5694,2.5694,0,0,1-.9239-.66,2.9461,2.9461,0,0,1-.582-1.0322,4.6487,4.6487,0,0,1-.0058-2.7056,2.9373,2.9373,0,0,1,.57-1.0263,2.5136,2.5136,0,0,1,.9121-.66,3.0412,3.0412,0,0,1,1.2236-.2344,2.9711,2.9711,0,0,1,1.2715.2524,2.4576,2.4576,0,0,1,.8887.6836,2.97,2.97,0,0,1,.5215,1.002,4.1471,4.1471,0,0,1,.1738,1.2183v.5039h-4.1631v.1547a1.5286,1.5286,0,0,0,.3838,1.09,1.4854,1.4854,0,0,0,1.14.4111,1.7008,1.7008,0,0,0,.9424-.2383,2.664,2.664,0,0,0,.6533-.6079l.8282.9268a2.571,2.571,0,0,1-1.05.8486A3.6585,3.6585,0,0,1,356.8223,67.8135Zm-.0235-5.4a1.2318,1.2318,0,0,0-.9726.4077,1.5352,1.5352,0,0,0-.3594,1.0561v.0962h2.5674v-.1084a1.6492,1.6492,0,0,0-.3174-1.05A1.1027,1.1027,0,0,0,356.7988,62.4136Z"/><path d="M360.9863,67.6694V61.4053h1.5362v1.2963h.0605a1.9967,1.9967,0,0,1,.1856-.4863,1.5024,1.5024,0,0,1,.33-.4141,1.5775,1.5775,0,0,1,.4864-.2876,1.8116,1.8116,0,0,1,.6533-.1083h.3359v1.4521h-.48a2.4074,2.4074,0,0,0-1.1758.228.7912.7912,0,0,0-.3964.7442v3.84Z"/><path d="M368.127,67.8135a3.0433,3.0433,0,0,1-1.2061-.2281,2.4934,2.4934,0,0,1-.9121-.66,3.01,3.01,0,0,1-.582-1.0381,4.2583,4.2583,0,0,1-.2041-1.3618,4.2048,4.2048,0,0,1,.2041-1.356,2.9579,2.9579,0,0,1,.582-1.0259,2.5326,2.5326,0,0,1,.9121-.6543,3.045,3.045,0,0,1,1.2061-.228,3.0916,3.0916,0,0,1,1.2119.228,2.5208,2.5208,0,0,1,.9179.6543,2.96,2.96,0,0,1,.5821,1.0259,4.2075,4.2075,0,0,1,.2041,1.356,4.2611,4.2611,0,0,1-.2041,1.3618,3.0122,3.0122,0,0,1-.5821,1.0381,2.4821,2.4821,0,0,1-.9179.66A3.09,3.09,0,0,1,368.127,67.8135Zm0-1.2359a1.25,1.25,0,0,0,.96-.3721,1.5462,1.5462,0,0,0,.3477-1.0922V63.9492a1.5263,1.5263,0,0,0-.3477-1.08,1.2506,1.2506,0,0,0-.96-.3721,1.236,1.236,0,0,0-.9483.3721,1.5222,1.5222,0,0,0-.3476,1.08v1.1641a1.542,1.542,0,0,0,.3476,1.0922A1.2356,1.2356,0,0,0,368.127,66.5776Z"/><path d="M372.3984,61.4053h1.5362v1.0322h.0478a1.5748,1.5748,0,0,1,.6367-.8579,1.8954,1.8954,0,0,1,1.0918-.3184,2.1414,2.1414,0,0,1,1.83.8462,3.9939,3.9939,0,0,1,.63,2.418,4.0447,4.0447,0,0,1-.63,2.436,2.1346,2.1346,0,0,1-1.83.8521,1.84,1.84,0,0,1-1.0859-.3243,1.6731,1.6731,0,0,1-.6426-.8637h-.0478v3.4438h-1.5362Zm2.82,5.1362a1.2705,1.2705,0,0,0,.9716-.396,1.4968,1.4968,0,0,0,.3721-1.0679v-1.08a1.5187,1.5187,0,0,0-.3721-1.0742,1.2613,1.2613,0,0,0-.9716-.4018,1.4812,1.4812,0,0,0-.918.2758.8723.8723,0,0,0-.3662.732v1.9922a.8747.8747,0,0,0,.3662.7558A1.5268,1.5268,0,0,0,375.2188,66.5415Z"/><path d="M382.1309,67.8135a3.1332,3.1332,0,0,1-1.2422-.2339,2.5694,2.5694,0,0,1-.9239-.66,2.9461,2.9461,0,0,1-.582-1.0322,4.6487,4.6487,0,0,1-.0058-2.7056,2.9373,2.9373,0,0,1,.57-1.0263,2.5136,2.5136,0,0,1,.9121-.66,3.0412,3.0412,0,0,1,1.2236-.2344,2.9711,2.9711,0,0,1,1.2715.2524,2.4576,2.4576,0,0,1,.8887.6836,2.9679,2.9679,0,0,1,.5214,1.002,4.1438,4.1438,0,0,1,.1739,1.2183v.5039h-4.1631v.1547a1.5282,1.5282,0,0,0,.3838,1.09,1.4854,1.4854,0,0,0,1.14.4111,1.7008,1.7008,0,0,0,.9424-.2383,2.664,2.664,0,0,0,.6533-.6079l.8282.9268a2.571,2.571,0,0,1-1.05.8486A3.6585,3.6585,0,0,1,382.1309,67.8135Zm-.0235-5.4a1.2318,1.2318,0,0,0-.9726.4077,1.5352,1.5352,0,0,0-.3594,1.0561v.0962h2.5674v-.1084a1.6492,1.6492,0,0,0-.3174-1.05A1.1027,1.1027,0,0,0,382.1074,62.4136Z"/><path d="M386.2939,67.6694V61.4053H387.83v1.2963h.06a2.0008,2.0008,0,0,1,.1856-.4863,1.5042,1.5042,0,0,1,.33-.4141,1.5775,1.5775,0,0,1,.4864-.2876,1.8119,1.8119,0,0,1,.6533-.1083h.3359v1.4521h-.4795a2.4067,2.4067,0,0,0-1.1757.228.7911.7911,0,0,0-.3965.7442v3.84Z"/><path d="M395.4863,67.6694a1.0756,1.0756,0,0,1-.7978-.2939,1.3488,1.3488,0,0,1-.3662-.7862H394.25a1.4656,1.4656,0,0,1-.6357.918,2.1681,2.1681,0,0,1-1.1885.3062,2.0283,2.0283,0,0,1-1.4756-.5025,1.7844,1.7844,0,0,1-.5156-1.34A1.6231,1.6231,0,0,1,391.13,64.53a3.5079,3.5079,0,0,1,1.9805-.4722h1.0683v-.4561a1.1337,1.1337,0,0,0-.2764-.8159,1.1844,1.1844,0,0,0-.8877-.2881,1.4711,1.4711,0,0,0-.87.2339,2.2991,2.2991,0,0,0-.5586.5581l-.9121-.8208a2.6526,2.6526,0,0,1,.9248-.8755,3.038,3.038,0,0,1,1.5235-.332,2.8674,2.8674,0,0,1,1.9326.5747,2.0749,2.0749,0,0,1,.6592,1.6524v2.9453h.624v1.2358Zm-2.5439-.9722a1.6157,1.6157,0,0,0,.876-.226.739.739,0,0,0,.36-.6675v-.8223h-.9844q-1.2,0-1.2.7627v.2027a.6617.6617,0,0,0,.2461.5659A1.1522,1.1522,0,0,0,392.9424,66.6972Z"/><path d="M397.5859,58.79h1.5362v3.648h.0478a1.5748,1.5748,0,0,1,.6367-.8579,1.8954,1.8954,0,0,1,1.0918-.3184,2.1414,2.1414,0,0,1,1.83.8462,3.9939,3.9939,0,0,1,.63,2.418,4.0447,4.0447,0,0,1-.63,2.436,2.1346,2.1346,0,0,1-1.83.8521,1.84,1.84,0,0,1-1.0859-.3243,1.6731,1.6731,0,0,1-.6426-.8637h-.0478v1.0439h-1.5362Zm2.82,7.752a1.2706,1.2706,0,0,0,.9717-.396,1.4968,1.4968,0,0,0,.3721-1.0679v-1.08a1.5187,1.5187,0,0,0-.3721-1.0742,1.2613,1.2613,0,0,0-.9717-.4018,1.4811,1.4811,0,0,0-.9179.2758.8723.8723,0,0,0-.3662.732v1.9922a.8747.8747,0,0,0,.3662.7558A1.5267,1.5267,0,0,0,400.4062,66.5415Z"/><path d="M405.5547,60.4936a.9318.9318,0,0,1-.69-.2163.7594.7594,0,0,1-.21-.5517v-.24a.76.76,0,0,1,.21-.5517,1.1991,1.1991,0,0,1,1.374,0,.7454.7454,0,0,1,.2158.5517v.24a.7446.7446,0,0,1-.2158.5517A.9341.9341,0,0,1,405.5547,60.4936Zm-.7686.9117h1.5362v6.2641h-1.5362Z"/><path d="M409.6338,67.6694a1.53,1.53,0,0,1-1.1641-.396,1.5679,1.5679,0,0,1-.372-1.1162V58.79h1.5361v7.6441h.8281v1.2358Z"/><path d="M412.3945,60.4936a.9319.9319,0,0,1-.69-.2163.76.76,0,0,1-.21-.5517v-.24a.7606.7606,0,0,1,.21-.5517,1.1991,1.1991,0,0,1,1.374,0,.745.745,0,0,1,.2158.5517v.24a.7442.7442,0,0,1-.2158.5517A.9337.9337,0,0,1,412.3945,60.4936Zm-.7685.9117h1.5361v6.2641H411.626Z"/><path d="M416.8936,67.6694a1.6377,1.6377,0,0,1-1.2061-.4131,1.595,1.595,0,0,1-.4141-1.1792V62.6416H414.35V61.4053h.4805a.5732.5732,0,0,0,.4736-.1617.7851.7851,0,0,0,.126-.4863V59.6894h1.38v1.7159h1.2842v1.2363H416.81v3.792h1.1884v1.2358Z"/><path d="M423.2656,61.4053h1.44l-2.52,7.38a3.2076,3.2076,0,0,1-.2705.5821,1.4489,1.4489,0,0,1-.3535.4018,1.3459,1.3459,0,0,1-.4922.228,2.7977,2.7977,0,0,1-.6719.0718h-.9248V68.8335h1.1289l.2871-.8745-2.2431-6.5537H420.17l1.0918,3.3051.4082,1.5806h.0723l.4316-1.5806Z"/><path d="M428.6416,67.6694v-8.376h3.7676a2.7562,2.7562,0,0,1,1.0381.1861,2.1985,2.1985,0,0,1,.7861.5278,2.2756,2.2756,0,0,1,.4922.8223,3.42,3.42,0,0,1,0,2.1176,2.28,2.28,0,0,1-.4922.8164,2.2039,2.2039,0,0,1-.7861.5279,2.7582,2.7582,0,0,1-1.0381.186h-2.1836v3.1919Zm1.584-4.56h2.04a1.0141,1.0141,0,0,0,.72-.2461.9125.9125,0,0,0,.2636-.7017v-.5522a.8937.8937,0,0,0-.2636-.6958,1.0289,1.0289,0,0,0-.72-.24h-2.04Z"/><path d="M436.1172,67.6694V61.4053h1.5361v1.2963h.0606a1.9964,1.9964,0,0,1,.1855-.4863,1.5046,1.5046,0,0,1,.33-.4141,1.5758,1.5758,0,0,1,.4863-.2876,1.8119,1.8119,0,0,1,.6533-.1083h.336v1.4521h-.48a2.4074,2.4074,0,0,0-1.1758.228.7913.7913,0,0,0-.3965.7442v3.84Z"/><path d="M443.2578,67.8135a3.0428,3.0428,0,0,1-1.206-.2281,2.4937,2.4937,0,0,1-.9122-.66,3.0137,3.0137,0,0,1-.582-1.0381,4.2611,4.2611,0,0,1-.2041-1.3618,4.2075,4.2075,0,0,1,.2041-1.356,2.9611,2.9611,0,0,1,.582-1.0259,2.533,2.533,0,0,1,.9122-.6543,3.0445,3.0445,0,0,1,1.206-.228,3.0909,3.0909,0,0,1,1.2119.228,2.5212,2.5212,0,0,1,.918.6543,2.96,2.96,0,0,1,.582,1.0259,4.2048,4.2048,0,0,1,.2041,1.356,4.2583,4.2583,0,0,1-.2041,1.3618,3.012,3.012,0,0,1-.582,1.0381,2.4825,2.4825,0,0,1-.918.66A3.0891,3.0891,0,0,1,443.2578,67.8135Zm0-1.2359a1.25,1.25,0,0,0,.96-.3721,1.5466,1.5466,0,0,0,.3476-1.0922V63.9492a1.5268,1.5268,0,0,0-.3476-1.08,1.2508,1.2508,0,0,0-.96-.3721,1.2357,1.2357,0,0,0-.9482.3721,1.5217,1.5217,0,0,0-.3477,1.08v1.1641a1.5416,1.5416,0,0,0,.3477,1.0922A1.2354,1.2354,0,0,0,443.2578,66.5776Z"/><path d="M449.4375,67.6694a1.6379,1.6379,0,0,1-1.2061-.4131,1.5953,1.5953,0,0,1-.414-1.1792V62.6416h-.9238V61.4053h.48a.5733.5733,0,0,0,.4737-.1617.7858.7858,0,0,0,.1259-.4863V59.6894h1.38v1.7159h1.2842v1.2363h-1.2842v3.792h1.1885v1.2358Z"/><path d="M454.4053,67.8135a3.0433,3.0433,0,0,1-1.2061-.2281,2.4942,2.4942,0,0,1-.9121-.66,3.012,3.012,0,0,1-.582-1.0381,4.2583,4.2583,0,0,1-.2041-1.3618,4.2048,4.2048,0,0,1,.2041-1.356,2.96,2.96,0,0,1,.582-1.0259,2.5335,2.5335,0,0,1,.9121-.6543,3.045,3.045,0,0,1,1.2061-.228,3.0916,3.0916,0,0,1,1.2119.228,2.522,2.522,0,0,1,.918.6543,2.9611,2.9611,0,0,1,.582,1.0259,4.2075,4.2075,0,0,1,.2041,1.356,4.2611,4.2611,0,0,1-.2041,1.3618,3.0137,3.0137,0,0,1-.582,1.0381,2.4833,2.4833,0,0,1-.918.66A3.09,3.09,0,0,1,454.4053,67.8135Zm0-1.2359a1.25,1.25,0,0,0,.96-.3721,1.5462,1.5462,0,0,0,.3477-1.0922V63.9492a1.5263,1.5263,0,0,0-.3477-1.08,1.2506,1.2506,0,0,0-.96-.3721,1.2361,1.2361,0,0,0-.9483.3721,1.5222,1.5222,0,0,0-.3476,1.08v1.1641a1.542,1.542,0,0,0,.3476,1.0922A1.2357,1.2357,0,0,0,454.4053,66.5776Z"/><path d="M461.1494,67.8135a3.1549,3.1549,0,0,1-1.2363-.2281,2.38,2.38,0,0,1-.9063-.66,2.9684,2.9684,0,0,1-.5576-1.0381,4.5006,4.5006,0,0,1-.1924-1.3618,4.4438,4.4438,0,0,1,.1924-1.356,2.9153,2.9153,0,0,1,.5576-1.0259,2.4152,2.4152,0,0,1,.9063-.6543,3.1567,3.1567,0,0,1,1.2363-.228,2.7233,2.7233,0,0,1,1.5654.42,2.36,2.36,0,0,1,.8946,1.1636l-1.2608.5644a1.3068,1.3068,0,0,0-.4013-.6543,1.1686,1.1686,0,0,0-.7979-.2578,1.1507,1.1507,0,0,0-.9668.4078,1.69,1.69,0,0,0-.3174,1.0683v1.14a1.6615,1.6615,0,0,0,.3174,1.062,1.1574,1.1574,0,0,0,.9668.4023,1.1973,1.1973,0,0,0,.8516-.2822,1.92,1.92,0,0,0,.4678-.7022l1.1767.564a2.4649,2.4649,0,0,1-.9482,1.2422A2.7805,2.7805,0,0,1,461.1494,67.8135Z"/><path d="M467.2568,67.8135a3.0428,3.0428,0,0,1-1.206-.2281,2.4926,2.4926,0,0,1-.9121-.66,3.0122,3.0122,0,0,1-.5821-1.0381,4.2611,4.2611,0,0,1-.2041-1.3618,4.2075,4.2075,0,0,1,.2041-1.356,2.96,2.96,0,0,1,.5821-1.0259,2.5317,2.5317,0,0,1,.9121-.6543,3.0445,3.0445,0,0,1,1.206-.228,3.0918,3.0918,0,0,1,1.212.228,2.5208,2.5208,0,0,1,.9179.6543,2.96,2.96,0,0,1,.5821,1.0259,4.2075,4.2075,0,0,1,.2041,1.356,4.2611,4.2611,0,0,1-.2041,1.3618,3.0122,3.0122,0,0,1-.5821,1.0381,2.4821,2.4821,0,0,1-.9179.66A3.09,3.09,0,0,1,467.2568,67.8135Zm0-1.2359a1.25,1.25,0,0,0,.96-.3721,1.5466,1.5466,0,0,0,.3477-1.0922V63.9492a1.5268,1.5268,0,0,0-.3477-1.08,1.2508,1.2508,0,0,0-.96-.3721,1.2357,1.2357,0,0,0-.9482.3721,1.5222,1.5222,0,0,0-.3477,1.08v1.1641a1.542,1.542,0,0,0,.3477,1.0922A1.2354,1.2354,0,0,0,467.2568,66.5776Z"/><path d="M473.0645,67.6694a1.5293,1.5293,0,0,1-1.1641-.396,1.5675,1.5675,0,0,1-.3721-1.1162V58.79h1.5362v7.6441h.8281v1.2358Z"/></svg>