<svg id="Layer_1" data-name="Layer 1" xmlns="http://www.w3.org/2000/svg" viewBox="0 0 750 255"><defs><style>.cls-1{fill:#dbfbfb;}.cls-1,.cls-17,.cls-18,.cls-2,.cls-20,.cls-21,.cls-4,.cls-5,.cls-6,.cls-7,.cls-8{stroke:#000;}.cls-1,.cls-17,.cls-2,.cls-8{stroke-miterlimit:10;}.cls-2,.cls-22,.cls-24,.cls-5,.cls-7{fill:none;}.cls-3,.cls-4{fill:#87eded;}.cls-20,.cls-24,.cls-4,.cls-7{stroke-linecap:round;}.cls-18,.cls-20,.cls-21,.cls-22,.cls-24,.cls-4,.cls-5,.cls-6,.cls-7{stroke-linejoin:round;}.cls-6{fill:#f2f4f8;}.cls-18,.cls-8{fill:#b3e6ff;}.cls-9{font-size:16px;font-family:IBMPlexSans-SemiBold, IBM Plex Sans;font-weight:700;}.cls-10{letter-spacing:-0.01em;}.cls-11{letter-spacing:0em;}.cls-12{letter-spacing:0em;}.cls-13{letter-spacing:0.01em;}.cls-14{letter-spacing:-0.01em;}.cls-15{letter-spacing:0em;}.cls-16{letter-spacing:0em;}.cls-17{fill:#e3f6ff;}.cls-19,.cls-20,.cls-21{fill:#e6d6ff;}.cls-22,.cls-24{stroke:#50565b;stroke-width:2px;}.cls-23{fill:#50565b;}.cls-25{letter-spacing:-0.03em;}.cls-26{letter-spacing:0em;}</style></defs><title>byok</title><g id="Database"><path class="cls-1" d="M524.79,11.21H469.21c-3.84,0-6.95,2.66-6.95,5.95V82.67c0,3.29,3.11,6,6.95,6h55.58c3.84,0,7-2.66,7-6V17.16C531.74,13.87,528.63,11.21,524.79,11.21Z"/><line class="cls-2" x1="462" y1="36.69" x2="532" y2="36.69"/><line class="cls-2" x1="463.13" y1="63.14" x2="532" y2="63.14"/><circle cx="477.65" cy="23.79" r="3.5"/><circle cx="477.65" cy="49.91" r="3.5"/><circle cx="477.65" cy="75.08" r="3.5"/></g><g id="lock"><g id="lock-2" data-name="lock"><rect class="cls-3" x="458.5" y="75.41" width="9" height="3"/><path class="cls-4" d="M463,89.91v-3.5m-5-8.16V71.91a5,5,0,1,1,10,0v6.34m2,1.52a10.25,10.25,0,0,0-2-1.52,10,10,0,0,0-10,0,10.25,10.25,0,0,0-2,1.52,10,10,0,1,0,14,0Z"/><circle cx="463" cy="86.41" r="1.5"/></g></g><rect class="cls-5" x="177.5" y="125.91" width="365" height="110"/><rect class="cls-6" x="161" y="108.91" width="365" height="110"/><g id="HP_icon" data-name="HP icon"><line class="cls-7" x1="206.07" y1="175.7" x2="228.93" y2="175.7"/><polyline class="cls-7" points="228.93 175.7 228.93 160.7 206.07 160.7 206.07 170.16"/><path class="cls-7" d="M224.64,160.7V155a7.14,7.14,0,1,0-14.28,0v5.71"/><path class="cls-7" d="M217.5,186.41s-20.36-11.93-20.36-35.35"/><path class="cls-7" d="M237.86,151.06c0,23.42-20.36,35.35-20.36,35.35"/><polyline class="cls-7" points="197.14 151.06 217.5 139.27 237.86 151.06"/><circle class="cls-8" cx="237.86" cy="151.06" r="2.14"/><circle class="cls-8" cx="197.14" cy="151.06" r="2.14"/><circle class="cls-8" cx="217.5" cy="186.41" r="2.14"/></g><text class="cls-9" transform="translate(275 138.91)">Hyper <tspan class="cls-10" x="48.48" y="0">P</tspan><tspan class="cls-11" x="58.58" y="0">r</tspan><tspan class="cls-12" x="64.78" y="0">ot</tspan><tspan x="79.65" y="0">ect C</tspan><tspan class="cls-13" x="116.81" y="0">r</tspan><tspan x="123.23" y="0">y</tspan><tspan class="cls-14" x="131.61" y="0">p</tspan><tspan class="cls-15" x="141.12" y="0">t</tspan><tspan x="147.04" y="0">o Se</tspan><tspan class="cls-13" x="178.53" y="0">r</tspan><tspan x="184.94" y="0">vi</tspan><tspan class="cls-16" x="197.74" y="0">c</tspan><tspan x="205.87" y="0">es</tspan></text><path id="Cloud" class="cls-17" d="M346,152.71A25,25,0,0,0,321.42,173a18.77,18.77,0,0,0,3.31,37.23h42.54a18.77,18.77,0,0,0,3.3-37.23,25,25,0,0,0-19.87-19.87A24.5,24.5,0,0,0,346,152.71Z"/><g id="Hardware"><rect class="cls-18" x="325.99" y="189.13" width="40" height="10.59"/><polygon class="cls-18" points="366 188.74 326 188.74 333.05 173.44 358.94 173.44 366 188.74"/><rect x="351.29" y="192.07" width="4.71" height="4.71"/><rect x="357.76" y="192.07" width="4.71" height="4.71"/></g><g id="lock-3" data-name="lock"><g id="lock-4" data-name="lock"><rect class="cls-19" x="321.4" y="187.71" width="7.2" height="2.4"/><path class="cls-20" d="M325,199.31v-2.8M321,190v-5.08a4,4,0,1,1,8,0V190m1.6,1.21A8.21,8.21,0,0,0,329,190a7.95,7.95,0,0,0-8,0,8.21,8.21,0,0,0-1.6,1.21,8,8,0,1,0,11.2,0Z"/><circle cx="325" cy="196.51" r="1.5"/></g></g><g id="key"><path class="cls-20" d="M453.54,187a11.68,11.68,0,1,1-.55-7.94"/><circle cx="438.52" cy="183.82" r="2.5"/><polyline class="cls-21" points="452.99 179.1 476.31 179.1 480.68 183.47 476.91 187.23 462.25 187.23 459.62 184.62 457.21 187.04 453.54 187.04"/></g><line class="cls-22" x1="340" y1="50.76" x2="340" y2="98.17"/><polygon class="cls-23" points="336.01 97.01 340 103.92 343.99 97.01 336.01 97.01"/><line class="cls-24" x1="340" y1="50.76" x2="458" y2="50.76"/><text class="cls-9" transform="translate(202.45 68.47)"><tspan class="cls-25">K</tspan><tspan class="cls-14" x="10.45" y="0">e</tspan><tspan x="19.28" y="0">y </tspan><tspan class="cls-10" x="31.44" y="0">P</tspan><tspan class="cls-11" x="41.54" y="0">r</tspan><tspan class="cls-12" x="47.74" y="0">ot</tspan><tspan x="62.61" y="0">ect AP</tspan><tspan class="cls-12" x="110.51" y="0">I</tspan><tspan class="cls-26" x="117.21" y="0">s</tspan></text></svg>