<svg xmlns="http://www.w3.org/2000/svg" viewBox="0 0 750 420"><defs><style>.cls-1,.cls-10,.cls-12,.cls-13,.cls-2,.cls-20,.cls-22,.cls-23,.cls-28,.cls-29,.cls-3,.cls-5,.cls-6,.cls-7,.cls-8,.cls-9{fill:none;}.cls-1,.cls-2,.cls-3{stroke:#9fa5ad;}.cls-1,.cls-10,.cls-11,.cls-12,.cls-2,.cls-20,.cls-3,.cls-5,.cls-6,.cls-7,.cls-8,.cls-9{stroke-miterlimit:10;}.cls-2{stroke-dasharray:2 2;}.cls-3{stroke-dasharray:1.98 1.98;}.cls-4{fill:#f4f4f4;}.cls-10,.cls-11,.cls-12,.cls-13,.cls-14,.cls-15,.cls-16,.cls-17,.cls-18,.cls-19,.cls-22,.cls-24,.cls-25,.cls-26,.cls-27,.cls-5,.cls-6,.cls-7,.cls-8,.cls-9{stroke:#000;}.cls-6{stroke-dasharray:2 2;}.cls-29,.cls-7{stroke-dasharray:2 2;}.cls-8{stroke-dasharray:2 2;}.cls-9{stroke-dasharray:1.98 1.98;}.cls-10{stroke-dasharray:1.99 1.99;}.cls-11{fill:#fff;}.cls-11,.cls-12,.cls-14,.cls-15,.cls-16,.cls-17,.cls-18,.cls-19,.cls-22,.cls-23,.cls-25,.cls-28,.cls-29{stroke-linecap:round;}.cls-13,.cls-14,.cls-15,.cls-16,.cls-17,.cls-18,.cls-19,.cls-22,.cls-23,.cls-24,.cls-25,.cls-26,.cls-27,.cls-28,.cls-29{stroke-linejoin:round;}.cls-14,.cls-27,.cls-64{fill:#b3e6ff;}.cls-15{fill:#30b0ff;}.cls-16{fill:#6ccaff;}.cls-17{fill:#bb8eff;}.cls-18,.cls-24,.cls-66{fill:#e6d6ff;}.cls-19{fill:#d0b0ff;}.cls-20,.cls-23{stroke:#50565b;stroke-width:2px;}.cls-21{fill:#50565b;}.cls-25,.cls-26,.cls-65{fill:#87eded;}.cls-28,.cls-29{stroke:#6e32c9;}.cls-28{stroke-dasharray:2;}.cls-30{fill:#6e32c9;}.cls-31{fill:#f7f1ff;}.cls-32{font-size:10px;}.cls-32,.cls-54{font-family:IBMPlexSans, IBM Plex Sans;}.cls-33{letter-spacing:-0.02em;}.cls-34{letter-spacing:-0.02em;}.cls-35{letter-spacing:0em;}.cls-36{letter-spacing:0em;}.cls-37{letter-spacing:0em;}.cls-38{letter-spacing:-0.01em;}.cls-39{letter-spacing:0em;}.cls-40{letter-spacing:0em;}.cls-41{letter-spacing:0.01em;}.cls-42{letter-spacing:-0.01em;}.cls-43{letter-spacing:0em;}.cls-44,.cls-54{font-size:12px;}.cls-44{font-family:IBMPlexSans-SemiBold, IBM Plex Sans;font-weight:700;}.cls-45{letter-spacing:0em;}.cls-46{letter-spacing:0.01em;}.cls-47{letter-spacing:0em;}.cls-48{letter-spacing:0em;}.cls-49{letter-spacing:-0.01em;}.cls-50{letter-spacing:0em;}.cls-51{letter-spacing:0.01em;}.cls-52{letter-spacing:-0.01em;}.cls-53{letter-spacing:-0.01em;}.cls-55{letter-spacing:0.01em;}.cls-56{letter-spacing:-0.01em;}.cls-57{letter-spacing:-0.01em;}.cls-58{letter-spacing:-0.02em;}.cls-59{letter-spacing:-0.02em;}.cls-60{letter-spacing:0em;}.cls-61{letter-spacing:-0.01em;}.cls-62{letter-spacing:-0.02em;}.cls-63{letter-spacing:0.01em;}</style></defs><title>envelope-encryption</title><g id="Layer_1" data-name="Layer 1"><polyline class="cls-1" points="732.5 189.4 732.5 190.4 731.5 190.4"/><line class="cls-2" x1="729.5" y1="190.4" x2="19.5" y2="190.4"/><polyline class="cls-1" points="18.5 190.4 17.5 190.4 17.5 189.4"/><line class="cls-3" x1="17.5" y1="187.42" x2="17.5" y2="18.39"/><polyline class="cls-1" points="17.5 17.4 17.5 16.4 18.5 16.4"/><line class="cls-2" x1="20.5" y1="16.4" x2="730.5" y2="16.4"/><polyline class="cls-1" points="731.5 16.4 732.5 16.4 732.5 17.4"/><line class="cls-3" x1="732.5" y1="19.38" x2="732.5" y2="188.41"/><polyline class="cls-1" points="732.5 381.4 732.5 382.4 731.5 382.4"/><line class="cls-2" x1="729.5" y1="382.4" x2="19.5" y2="382.4"/><polyline class="cls-1" points="18.5 382.4 17.5 382.4 17.5 381.4"/><line class="cls-3" x1="17.5" y1="379.42" x2="17.5" y2="210.39"/><polyline class="cls-1" points="17.5 209.4 17.5 208.4 18.5 208.4"/><line class="cls-2" x1="20.5" y1="208.4" x2="730.5" y2="208.4"/><polyline class="cls-1" points="731.5 208.4 732.5 208.4 732.5 209.4"/><line class="cls-3" x1="732.5" y1="211.38" x2="732.5" y2="380.41"/><rect class="cls-4" x="38" y="48.9" width="280.5" height="120"/><polyline class="cls-5" points="318.5 167.9 318.5 168.9 317.5 168.9"/><line class="cls-6" x1="315.5" y1="168.9" x2="40" y2="168.9"/><polyline class="cls-5" points="39 168.9 38 168.9 38 167.9"/><line class="cls-7" x1="38" y1="165.9" x2="38" y2="50.9"/><polyline class="cls-5" points="38 49.9 38 48.9 39 48.9"/><line class="cls-6" x1="41" y1="48.9" x2="316.5" y2="48.9"/><polyline class="cls-5" points="317.5 48.9 318.5 48.9 318.5 49.9"/><line class="cls-7" x1="318.5" y1="51.9" x2="318.5" y2="166.9"/><rect class="cls-4" x="38.5" y="242.4" width="280" height="120"/><polyline class="cls-5" points="318.5 361.4 318.5 362.4 317.5 362.4"/><line class="cls-8" x1="315.5" y1="362.4" x2="40.5" y2="362.4"/><polyline class="cls-5" points="39.5 362.4 38.5 362.4 38.5 361.4"/><line class="cls-7" x1="38.5" y1="359.4" x2="38.5" y2="244.4"/><polyline class="cls-5" points="38.5 243.4 38.5 242.4 39.5 242.4"/><line class="cls-8" x1="41.5" y1="242.4" x2="316.5" y2="242.4"/><polyline class="cls-5" points="317.5 242.4 318.5 242.4 318.5 243.4"/><line class="cls-7" x1="318.5" y1="245.4" x2="318.5" y2="360.4"/><rect class="cls-4" x="462.5" y="48.4" width="115" height="314"/><polyline class="cls-5" points="577.5 361.4 577.5 362.4 576.5 362.4"/><line class="cls-9" x1="574.52" y1="362.4" x2="464.49" y2="362.4"/><polyline class="cls-5" points="463.5 362.4 462.5 362.4 462.5 361.4"/><line class="cls-10" x1="462.5" y1="359.41" x2="462.5" y2="50.4"/><polyline class="cls-5" points="462.5 49.4 462.5 48.4 463.5 48.4"/><line class="cls-9" x1="465.48" y1="48.4" x2="575.51" y2="48.4"/><polyline class="cls-5" points="576.5 48.4 577.5 48.4 577.5 49.4"/><line class="cls-10" x1="577.5" y1="51.39" x2="577.5" y2="360.41"/><g id="Doc"><polygon class="cls-11" points="86.44 69.75 86.44 107.25 116.44 107.25 116.44 77.25 108.94 69.75 86.44 69.75"/><polyline class="cls-12" points="108.94 69.75 108.94 77.25 116.44 77.25"/><line class="cls-12" x1="92.44" y1="93" x2="105.57" y2="93"/><line class="cls-12" x1="92.44" y1="81.63" x2="110.44" y2="81.63"/><line class="cls-12" x1="92.44" y1="87.25" x2="110.44" y2="87.25"/></g><g id="unlock"><g id="unlock-2" data-name="unlock"><path class="cls-13" d="M120,96a4,4,0,0,0-8,0v5.07"/><path class="cls-14" d="M124,108a8,8,0,1,1-8-8A8,8,0,0,1,124,108Zm-8-.4v2.8"/><circle cx="116" cy="107.6" r="1.2"/></g></g><g id="gear"><path id="gear-2" data-name="gear" class="cls-15" d="M399.42,105l-.79,1.88,1.84,1.83-2.79,2.78-1.83-1.82-1.88.77V113H390v-2.58l-1.88-.79-1.83,1.84-2.79-2.79,1.83-1.83-.77-1.88H382V101h2.58l.79-1.88-1.84-1.83,2.79-2.78,1.83,1.82,1.88-.77V93H394v2.58l1.88.79,1.83-1.84,2.79,2.79-1.83,1.83.77,1.88H402V105ZM392,98.33a4.67,4.67,0,1,0,4.67,4.67A4.67,4.67,0,0,0,392,98.33Z"/></g><g id="gear-3" data-name="gear"><path id="gear-4" data-name="gear" class="cls-14" d="M388.42,87l-.79,1.88,1.84,1.83-2.79,2.78-1.83-1.82-1.88.77V95H379V92.42l-1.88-.79-1.83,1.84-2.79-2.79,1.83-1.83L373.59,87H371V83h2.58l.79-1.88-1.84-1.83,2.79-2.78,1.83,1.82,1.88-.77V75H383v2.58l1.88.79,1.83-1.84,2.79,2.79-1.83,1.83.77,1.88H391V87ZM381,80.33A4.67,4.67,0,1,0,385.67,85,4.67,4.67,0,0,0,381,80.33Z"/></g><g id="gear-5" data-name="gear"><path id="gear-6" data-name="gear" class="cls-16" d="M410.42,87l-.79,1.88,1.84,1.83-2.79,2.78-1.83-1.82-1.88.77V95H401V92.42l-1.88-.79-1.83,1.84-2.79-2.79,1.83-1.83L395.59,87H393V83h2.58l.79-1.88-1.84-1.83,2.79-2.78,1.83,1.82,1.88-.77V75H405v2.58l1.88.79,1.83-1.84,2.79,2.79-1.83,1.83.77,1.88H413V87ZM403,80.33A4.67,4.67,0,1,0,407.67,85,4.67,4.67,0,0,0,403,80.33Z"/></g><g id="gear-7" data-name="gear"><path id="gear-8" data-name="gear" class="cls-17" d="M399.42,289l-.79,1.88,1.84,1.83-2.79,2.78-1.83-1.82-1.88.77V297H390v-2.58l-1.88-.79-1.83,1.84-2.79-2.79,1.83-1.83-.77-1.88H382V285h2.58l.79-1.88-1.84-1.83,2.79-2.78,1.83,1.82,1.88-.77V277H394v2.58l1.88.79,1.83-1.84,2.79,2.79-1.83,1.83.77,1.88H402V289ZM392,282.33a4.67,4.67,0,1,0,4.67,4.67A4.67,4.67,0,0,0,392,282.33Z"/></g><g id="gear-9" data-name="gear"><path id="gear-10" data-name="gear" class="cls-18" d="M388.42,271l-.79,1.88,1.84,1.83-2.79,2.78-1.83-1.82-1.88.77V279H379v-2.58l-1.88-.79-1.83,1.84-2.79-2.79,1.83-1.83-.77-1.88H371V267h2.58l.79-1.88-1.84-1.83,2.79-2.78,1.83,1.82,1.88-.77V259H383v2.58l1.88.79,1.83-1.84,2.79,2.79-1.83,1.83.77,1.88H391V271ZM381,264.33a4.67,4.67,0,1,0,4.67,4.67A4.67,4.67,0,0,0,381,264.33Z"/></g><g id="gear-11" data-name="gear"><path id="gear-12" data-name="gear" class="cls-19" d="M410.42,271l-.79,1.88,1.84,1.83-2.79,2.78-1.83-1.82-1.88.77V279H401v-2.58l-1.88-.79-1.83,1.84-2.79-2.79,1.83-1.83-.77-1.88H393V267h2.58l.79-1.88-1.84-1.83,2.79-2.78,1.83,1.82,1.88-.77V259H405v2.58l1.88.79,1.83-1.84,2.79,2.79-1.83,1.83.77,1.88H413V271ZM403,264.33a4.67,4.67,0,1,0,4.67,4.67A4.67,4.67,0,0,0,403,264.33Z"/></g><line class="cls-20" x1="308" y1="102.9" x2="356.26" y2="102.9"/><polygon class="cls-21" points="355.09 106.89 362 102.9 355.09 98.91 355.09 106.89"/><line class="cls-20" x1="310" y1="302.9" x2="358.26" y2="302.9"/><polygon class="cls-21" points="357.09 306.89 364 302.9 357.09 298.91 357.09 306.89"/><line class="cls-20" x1="428" y1="102.9" x2="476.26" y2="102.9"/><polygon class="cls-21" points="475.09 106.89 482 102.9 475.09 98.91 475.09 106.89"/><line class="cls-20" x1="428" y1="302.9" x2="476.26" y2="302.9"/><polygon class="cls-21" points="475.09 306.89 482 302.9 475.09 298.91 475.09 306.89"/><g id="add"><line class="cls-22" x1="167.5" y1="92.4" x2="177.5" y2="92.4"/><line class="cls-22" x1="172.5" y1="87.4" x2="172.5" y2="97.4"/></g><g id="add-2" data-name="add"><line class="cls-22" x1="516.5" y1="143.4" x2="526.5" y2="143.4"/><line class="cls-22" x1="521.5" y1="138.4" x2="521.5" y2="148.4"/></g><g id="add-3" data-name="add"><line class="cls-22" x1="516.5" y1="252.4" x2="526.5" y2="252.4"/><line class="cls-22" x1="521.5" y1="247.4" x2="521.5" y2="257.4"/></g><g id="add-4" data-name="add"><line class="cls-22" x1="123.5" y1="282.4" x2="133.5" y2="282.4"/><line class="cls-22" x1="128.5" y1="277.4" x2="128.5" y2="287.4"/></g><g id="add-5" data-name="add"><line class="cls-22" x1="222.5" y1="282.4" x2="232.5" y2="282.4"/><line class="cls-22" x1="227.5" y1="277.4" x2="227.5" y2="287.4"/></g><line class="cls-23" x1="578" y1="199.9" x2="661" y2="199.9"/><line class="cls-23" x1="661" y1="199.9" x2="661" y2="174.64"/><polygon class="cls-21" points="664.99 175.81 661 168.9 657.01 175.81 664.99 175.81"/></g><g id="key"><g id="key-2" data-name="key"><path class="cls-18" d="M76.54,285.94A11.67,11.67,0,1,1,76,278"/><circle cx="61.52" cy="282.72" r="2.5"/><polyline class="cls-24" points="75.99 278 99.31 278 103.67 282.37 99.91 286.13 85.25 286.13 82.62 283.53 80.21 285.94 76.54 285.94"/></g><g id="key-3" data-name="key"><path class="cls-18" d="M524.44,294.5a11.69,11.69,0,1,1-6-5.21"/><circle cx="511.55" cy="302.85" r="2.5"/><polyline class="cls-24" points="518.44 289.29 534.93 272.79 541.11 272.79 541.11 278.11 530.74 288.48 527.03 288.5 527.03 291.91 524.44 294.5"/></g><g id="key-4" data-name="key"><path class="cls-25" d="M176,285.94a11.67,11.67,0,1,1-.55-7.94"/><circle cx="161.02" cy="282.72" r="2.5"/><polyline class="cls-26" points="175.49 278 198.81 278 203.18 282.37 199.41 286.13 184.75 286.13 182.12 283.53 179.71 285.94 176.04 285.94"/></g><g id="key-5" data-name="key"><path class="cls-25" d="M523.64,188.6a11.69,11.69,0,1,1-6-5.22"/><circle cx="510.74" cy="196.94" r="2.5"/><polyline class="cls-26" points="517.63 183.38 534.13 166.88 540.3 166.88 540.3 172.21 529.93 182.57 526.23 182.59 526.23 186 523.64 188.59"/></g><g id="key-6" data-name="key"><path class="cls-25" d="M521,291.5a11.68,11.68,0,1,1-6-5.2"/><circle cx="508.09" cy="299.89" r="2.5"/><polyline class="cls-26" points="514.93 286.3 531.37 269.75 537.54 269.73 537.56 275.05 527.23 285.46 523.53 285.49 523.54 288.9 520.96 291.5"/></g><g id="key-7" data-name="key"><path class="cls-14" d="M275.54,285.94A11.67,11.67,0,1,1,275,278"/><circle cx="260.52" cy="282.72" r="2.5"/><polyline class="cls-27" points="274.99 278 298.31 278 302.68 282.37 298.91 286.13 284.25 286.13 281.62 283.53 279.21 285.94 275.54 285.94"/></g><g id="key-8" data-name="key"><path class="cls-14" d="M519.75,185.41a11.69,11.69,0,1,1-6-5.22"/><circle cx="506.85" cy="193.76" r="2.5"/><polyline class="cls-27" points="513.75 180.19 530.24 163.7 536.41 163.7 536.41 169.02 526.04 179.39 522.34 179.41 522.34 182.82 519.75 185.41"/></g><g id="key-9" data-name="key"><path class="cls-14" d="M659.75,99.41a11.69,11.69,0,1,1-6-5.22"/><circle cx="646.85" cy="107.76" r="2.5"/><polyline class="cls-27" points="653.75 94.19 670.24 77.7 676.41 77.7 676.41 83.02 666.04 93.39 662.34 93.41 662.34 96.82 659.75 99.41"/></g><g id="key-10" data-name="key"><path class="cls-14" d="M520.75,84.41a11.69,11.69,0,1,1-6-5.22"/><circle cx="507.85" cy="92.76" r="2.5"/><polyline class="cls-27" points="514.75 79.19 531.24 62.7 537.41 62.7 537.41 68.02 527.04 78.39 523.34 78.41 523.34 81.82 520.75 84.41"/></g><g id="key-11" data-name="key"><path class="cls-14" d="M245.54,95.94A11.67,11.67,0,1,1,245,88"/><circle cx="230.52" cy="92.72" r="2.5"/><polyline class="cls-27" points="244.99 88 268.31 88 272.68 92.37 268.91 96.13 254.25 96.13 251.62 93.53 249.21 95.94 245.54 95.94"/></g><line class="cls-28" x1="690.5" y1="98.4" x2="712.5" y2="98.4"/><line class="cls-28" x1="713" y1="98.9" x2="713" y2="401.9"/><line class="cls-28" x1="712" y1="401.9" x2="76" y2="401.9"/><line class="cls-29" x1="76" y1="401.9" x2="76" y2="354.21"/><polygon class="cls-30" points="78.99 355.08 76 349.9 73.01 355.08 78.99 355.08"/><path class="cls-31" d="M605,247.4H712.5a0,0,0,0,1,0,0v89a0,0,0,0,1,0,0H605a4,4,0,0,1-4-4v-81A4,4,0,0,1,605,247.4Z"/><text class="cls-32" transform="translate(614.17 271.3)"><tspan class="cls-33">R</tspan><tspan x="6.25" y="0">oot </tspan><tspan class="cls-34" x="23.32" y="0">k</tspan><tspan class="cls-35" x="28.42" y="0">e</tspan><tspan class="cls-36" x="33.86" y="0">y</tspan><tspan x="38.81" y="0">s p</tspan><tspan class="cls-35" x="51.84" y="0">r</tspan><tspan x="55.46" y="0">o</tspan><tspan class="cls-37" x="61.06" y="0">t</tspan><tspan x="64.53" y="0">ect </tspan><tspan x="0" y="12">the data </tspan><tspan class="cls-38" x="39.39" y="12">s</tspan><tspan class="cls-37" x="44.19" y="12">t</tspan><tspan class="cls-39" x="47.66" y="12">o</tspan><tspan class="cls-35" x="53.26" y="12">r</tspan><tspan class="cls-40" x="56.88" y="12">ed in </tspan><tspan x="0" y="24">cloud se</tspan><tspan class="cls-41" x="37.55" y="24">r</tspan><tspan x="41.32" y="24">vi</tspan><tspan class="cls-42" x="48.74" y="24">c</tspan><tspan x="53.71" y="24">e</tspan><tspan class="cls-35" x="59.2" y="24">s</tspan><tspan x="64.02" y="24">.</tspan><tspan x="0" y="36">Ma</tspan><tspan class="cls-38" x="13.46" y="36">s</tspan><tspan class="cls-43" x="18.26" y="36">t</tspan><tspan class="cls-40" x="21.73" y="36">er </tspan><tspan class="cls-34" x="33.25" y="36">k</tspan><tspan class="cls-35" x="38.35" y="36">e</tspan><tspan class="cls-40" x="43.79" y="36">y p</tspan><tspan class="cls-35" x="56.94" y="36">r</tspan><tspan x="60.56" y="36">o</tspan><tspan class="cls-43" x="66.16" y="36">t</tspan><tspan class="cls-40" x="69.63" y="36">ects </tspan><tspan x="0" y="48">the </tspan><tspan class="cls-35" x="17.04" y="48">r</tspan><tspan x="20.66" y="48">oot </tspan><tspan class="cls-34" x="37.73" y="48">k</tspan><tspan class="cls-35" x="42.83" y="48">e</tspan><tspan class="cls-37" x="48.27" y="48">y</tspan><tspan class="cls-35" x="53.22" y="48">s</tspan><tspan x="58.04" y="48">.</tspan></text></g><g id="text"><text class="cls-44" transform="translate(37.63 36.2)">IBM Cloud d<tspan class="cls-45" x="67.93" y="0">a</tspan><tspan x="74.59" y="0">ta se</tspan><tspan class="cls-46" x="101.3" y="0">r</tspan><tspan class="cls-47" x="106.11" y="0">vi</tspan><tspan class="cls-48" x="115.71" y="0">c</tspan><tspan x="121.81" y="0">e</tspan></text><text class="cls-44" transform="translate(37.63 229.2)">Hyper <tspan class="cls-49" x="36.36" y="0">P</tspan><tspan class="cls-48" x="43.93" y="0">r</tspan><tspan class="cls-50" x="48.59" y="0">ot</tspan><tspan x="59.74" y="0">ect C</tspan><tspan class="cls-51" x="87.61" y="0">r</tspan><tspan x="92.42" y="0">y</tspan><tspan class="cls-52" x="98.71" y="0">p</tspan><tspan class="cls-50" x="105.84" y="0">t</tspan><tspan x="110.28" y="0">o Se</tspan><tspan class="cls-51" x="133.89" y="0">r</tspan><tspan x="138.71" y="0">vi</tspan><tspan class="cls-53" x="148.31" y="0">c</tspan><tspan class="cls-47" x="154.4" y="0">es</tspan></text><text class="cls-54" transform="translate(69.03 129.59)">Unenc<tspan class="cls-55" x="34.39" y="0">r</tspan><tspan x="38.92" y="0">y</tspan><tspan class="cls-56" x="44.9" y="0">p</tspan><tspan class="cls-50" x="51.79" y="0">t</tspan><tspan x="55.96" y="0">ed</tspan><tspan x="22.76" y="14.4">data</tspan></text><text class="cls-54" transform="translate(63.18 320.34)">HSM<tspan x="-17.03" y="14.4">ma</tspan><tspan class="cls-57" x="-0.15" y="14.4">s</tspan><tspan class="cls-50" x="5.61" y="14.4">t</tspan><tspan x="9.77" y="14.4">er </tspan><tspan class="cls-58" x="23.6" y="14.4">k</tspan><tspan class="cls-48" x="29.72" y="14.4">e</tspan><tspan x="36.25" y="14.4">y</tspan></text><text class="cls-54" transform="translate(126.09 320.34)"><tspan class="cls-59">R</tspan><tspan class="cls-60" x="7.5" y="0">oot </tspan><tspan class="cls-58" x="27.98" y="0">k</tspan><tspan class="cls-48" x="34.1" y="0">e</tspan><tspan x="40.63" y="0">y mana</tspan><tspan class="cls-56" x="79.56" y="0">g</tspan><tspan x="85.82" y="0">ed</tspan><tspan x="-0.04" y="14.4">in se</tspan><tspan class="cls-55" x="25.04" y="14.4">r</tspan><tspan x="29.56" y="14.4">vi</tspan><tspan class="cls-56" x="38.47" y="14.4">c</tspan><tspan class="cls-47" x="44.43" y="14.4">e in</tspan><tspan class="cls-61" x="63.67" y="14.4">s</tspan><tspan x="69.43" y="14.4">tan</tspan><tspan class="cls-52" x="86.86" y="14.4">c</tspan><tspan x="92.83" y="14.4">e</tspan></text><text class="cls-54" transform="translate(250.32 320.34)">DEK f<tspan class="cls-53" x="29.38" y="0">r</tspan><tspan x="33.72" y="0">om</tspan><tspan x="-7.16" y="14.4">data se</tspan><tspan class="cls-55" x="32.09" y="14.4">r</tspan><tspan x="36.62" y="14.4">vi</tspan><tspan class="cls-56" x="45.52" y="14.4">c</tspan><tspan x="51.48" y="14.4">e</tspan></text><text class="cls-54" transform="translate(202.03 129.59)">Data enc<tspan class="cls-55" x="47.35" y="0">r</tspan><tspan x="51.88" y="0">y</tspan><tspan class="cls-56" x="57.86" y="0">p</tspan><tspan x="64.75" y="0">tion</tspan><tspan class="cls-62" x="16.61" y="14.4">k</tspan><tspan class="cls-53" x="22.73" y="14.4">e</tspan><tspan x="29.26" y="14.4">y (DE</tspan><tspan class="cls-63" x="57.14" y="14.4">K</tspan><tspan x="64.87" y="14.4">)</tspan></text><text class="cls-54" transform="translate(621.97 139.59)"><tspan class="cls-49">W</tspan><tspan class="cls-50" x="10.57" y="0">r</tspan><tspan x="14.93" y="0">apped data</tspan><tspan x="20.63" y="14.4">at </tspan><tspan class="cls-48" x="34.09" y="14.4">r</tspan><tspan x="38.43" y="14.4">e</tspan><tspan class="cls-61" x="45.02" y="14.4">s</tspan><tspan x="50.78" y="14.4">t</tspan></text><text class="cls-54" transform="translate(379.53 129.59)">AES <tspan x="-13.54" y="14.4">al</tspan><tspan class="cls-52" x="-3.86" y="14.4">g</tspan><tspan x="2.4" y="14.4">orithm</tspan></text><text class="cls-54" transform="translate(379.53 320.34)">AES <tspan x="-13.54" y="14.4">al</tspan><tspan class="cls-52" x="-3.86" y="14.4">g</tspan><tspan x="2.4" y="14.4">orithm</tspan></text><text class="cls-54" transform="translate(481.89 124.59)">Enc<tspan class="cls-55" x="19.85" y="0">r</tspan><tspan x="24.37" y="0">y</tspan><tspan class="cls-52" x="30.36" y="0">p</tspan><tspan class="cls-45" x="37.25" y="0">t</tspan><tspan class="cls-47" x="41.41" y="0">ed data</tspan></text><text class="cls-54" transform="translate(485.63 230.59)"><tspan class="cls-49">W</tspan><tspan class="cls-50" x="10.57" y="0">r</tspan><tspan x="14.93" y="0">apped DEK</tspan></text><text class="cls-54" transform="translate(498.38 336.59)"><tspan class="cls-49">W<tspan class="cls-50" x="10.57" y="0">r</tspan><tspan class="cls-47" x="14.93" y="0">apped</tspan></tspan><tspan class="cls-48" x="2.67" y="14.4">r</tspan><tspan x="7.01" y="14.4">oot </tspan><tspan class="cls-62" x="27.5" y="14.4">k</tspan><tspan class="cls-48" x="33.62" y="14.4">e</tspan><tspan x="40.15" y="14.4">y</tspan></text></g><g id="Layer_4" data-name="Layer 4"><g id="Doc-2" data-name="Doc"><polygon class="cls-11" points="644.44 79.75 644.44 117.25 674.44 117.25 674.44 87.25 666.94 79.75 644.44 79.75"/><polyline class="cls-12" points="666.94 79.75 666.94 87.25 674.44 87.25"/><line class="cls-12" x1="650.44" y1="103" x2="663.57" y2="103"/><line class="cls-12" x1="650.44" y1="91.63" x2="668.44" y2="91.63"/><line class="cls-12" x1="650.44" y1="97.25" x2="668.44" y2="97.25"/></g><g id="lock"><g id="lock-2" data-name="lock"><rect class="cls-64" x="671.5" y="108.4" width="7" height="4"/><path class="cls-14" d="M683,118a8,8,0,1,1-8-8A8,8,0,0,1,683,118Zm-4-6.93V106a4,4,0,0,0-8,0v5.07m4,6.53v2.8"/><circle cx="675" cy="117.6" r="1.2"/></g></g><g id="lock-3" data-name="lock"><g id="lock-4" data-name="lock"><rect class="cls-65" x="531.5" y="197.4" width="7" height="4"/><path class="cls-25" d="M535,209.4v-2.8m-4-6.53V195a3.08,3.08,0,0,1,0-.53,4,4,0,0,1,8,.53v5.07m0,0-.5-.26A7.9,7.9,0,0,0,535,199a8.28,8.28,0,0,0-1.74.19,8,8,0,0,0-1.76.62l-.5.26a8,8,0,1,0,8,0Z"/><circle cx="535" cy="206.6" r="1.2"/></g></g><g id="lock-5" data-name="lock"><g id="lock-6" data-name="lock"><rect class="cls-66" x="531.5" y="303.4" width="7" height="4"/><path class="cls-18" d="M543,313a8,8,0,1,1-8-8A8,8,0,0,1,543,313Zm-4-6.93V301a4,4,0,0,0-8,0v5.07m4,6.53v2.8"/><circle cx="535" cy="312.6" r="1.2"/></g></g><path class="cls-22" d="M502.73,181.59c-3.17-5-4.36-9.06-2.73-10.69,2.21-2.21,8.92.75,16.23,6.8q1.86,1.53,3.75,3.32c.49.46,1,.94,1.47,1.43l.63.63c1.2,1.23,2.33,2.47,3.37,3.7a53.73,53.73,0,0,1,5.59,7.69"/><path class="cls-22" d="M527.62,203.92a28.15,28.15,0,0,1-5-2.53"/><path class="cls-22" d="M527.62,309.92a26.91,26.91,0,0,1-4.48-2.23"/><path class="cls-22" d="M503.2,288.32c-3.52-5.3-4.91-9.71-3.2-11.42,2.28-2.28,9.35,1,16.93,7.39,1.13.95,2.28,2,3.42,3.08.37.35.73.71,1.1,1.08s.85.86,1.26,1.29c1.09,1.14,2.12,2.29,3.07,3.42a52.9,52.9,0,0,1,5.26,7.31"/><path class="cls-22" d="M667.09,119.25c-1.14-.59-2.3-1.25-3.49-2s-2.68-1.77-4-2.79c-.74-.56-1.48-1.14-2.22-1.75a73.65,73.65,0,0,1-5.59-5.06,74.88,74.88,0,0,1-5.31-5.89c-.71-.87-1.37-1.74-2-2.6-.34-.46-.66-.92-1-1.37-.54-.79-1.06-1.57-1.53-2.35-4.7-7.58-6.18-14.3-3.19-17.29,2.62-2.62,8.12-1.81,14.54,1.6"/><g id="Doc-3" data-name="Doc"><polygon class="cls-11" points="505.44 64.75 505.44 101.7 535 101.7 535 72.14 527.61 64.75 505.44 64.75"/><polyline class="cls-12" points="527.61 64.75 527.61 72.14 535 72.14"/><line class="cls-12" x1="511.35" y1="87.66" x2="524.28" y2="87.66"/><line class="cls-12" x1="511.35" y1="76.45" x2="529.09" y2="76.45"/><line class="cls-12" x1="511.35" y1="81.99" x2="529.09" y2="81.99"/></g><g id="lock-7" data-name="lock"><g id="lock-8" data-name="lock"><rect class="cls-64" x="531.5" y="93.4" width="7" height="4"/><path class="cls-14" d="M543,103a8,8,0,1,1-8-8A8,8,0,0,1,543,103Zm-4-6.93V91a4,4,0,0,0-8,0v5.07m4,6.53v2.8"/><circle cx="535" cy="102.6" r="1.2"/></g></g></g></svg>