<svg xmlns="http://www.w3.org/2000/svg" viewBox="0 0 750 407.41"><defs><style>.cls-1{fill:#f4f4f4;}.cls-1,.cls-10,.cls-12,.cls-13,.cls-14,.cls-16,.cls-4,.cls-5,.cls-6,.cls-7,.cls-8,.cls-9{stroke:#000;}.cls-1,.cls-10,.cls-16,.cls-2,.cls-4,.cls-9{stroke-miterlimit:10;}.cls-10,.cls-12,.cls-16,.cls-2,.cls-6,.cls-7{fill:none;}.cls-2{stroke:#50565b;}.cls-16,.cls-2{stroke-width:2px;}.cls-3{fill:#50565b;}.cls-4{fill:#e3f6ff;}.cls-11,.cls-5,.cls-8{fill:#b3e6ff;}.cls-12,.cls-13,.cls-14,.cls-5,.cls-6,.cls-7,.cls-8{stroke-linejoin:round;}.cls-10,.cls-12,.cls-13,.cls-6,.cls-7,.cls-8,.cls-9{stroke-linecap:round;}.cls-6{stroke-dasharray:2;}.cls-7{stroke-dasharray:2 2;}.cls-9{fill:#fff;}.cls-13,.cls-14,.cls-17{fill:#87eded;}.cls-15{fill:#f2f4f8;}.cls-18{fill:#333;}</style></defs><title>hpcs-integrations</title><g id="Layer_1" data-name="Layer 1"><rect class="cls-1" x="184.5" y="60.59" width="275" height="220"/><rect class="cls-1" x="508.5" y="60.59" width="218" height="149"/><line class="cls-2" x1="58" y1="117.09" x2="192.26" y2="117.09"/><polygon class="cls-3" points="191.09 121.08 198 117.09 191.09 113.11 191.09 121.08"/><path d="M651.61,171.79l-2-8.38h1.06l.91,4,.69,3.13h0l.79-3.13,1.05-4h1.15l1,4,.78,3.12h0l.72-3.12,1-4h1l-2.15,8.38h-1.12l-1.09-4.18-.76-3.07h0l-.79,3.07-1.12,4.18Z"/><path d="M660.92,171.79v-6.2h1v1.14h.06a1.79,1.79,0,0,1,1.79-1.14h.37v1h-.56a2.11,2.11,0,0,0-1.22.3.84.84,0,0,0-.44.74v4.2Z"/><path d="M669.77,171.79a1,1,0,0,1-.77-.29,1.38,1.38,0,0,1-.29-.72h-.06a1.59,1.59,0,0,1-.68.86,2.08,2.08,0,0,1-1.11.29,2.18,2.18,0,0,1-1.53-.5,1.77,1.77,0,0,1-.55-1.37,1.59,1.59,0,0,1,.64-1.35,3.46,3.46,0,0,1,2-.46h1.23v-.62a1.32,1.32,0,0,0-.36-1,1.51,1.51,0,0,0-1.11-.35,1.65,1.65,0,0,0-.94.25,2.13,2.13,0,0,0-.63.67l-.58-.54a2.28,2.28,0,0,1,.81-.86,2.58,2.58,0,0,1,1.39-.35A2.53,2.53,0,0,1,669,166a1.93,1.93,0,0,1,.63,1.53v3.4h.7v.86Zm-2.76-.68a2.3,2.3,0,0,0,.66-.08,1.67,1.67,0,0,0,.52-.24,1.16,1.16,0,0,0,.34-.36.86.86,0,0,0,.12-.44v-1h-1.27a2.31,2.31,0,0,0-1.21.24.78.78,0,0,0-.38.69v.25a.84.84,0,0,0,.33.71A1.42,1.42,0,0,0,667,171.11Z"/><path d="M671.68,165.59h1v1h.05a1.73,1.73,0,0,1,.7-.86,2.08,2.08,0,0,1,1.11-.28,2.41,2.41,0,0,1,1,.23,2.24,2.24,0,0,1,.79.65,3.05,3.05,0,0,1,.51,1,5.37,5.37,0,0,1,0,2.68,3.05,3.05,0,0,1-.51,1,2.24,2.24,0,0,1-.79.65,2.41,2.41,0,0,1-1,.23,1.87,1.87,0,0,1-1.81-1.14h-.05v3.4h-1Zm2.56,5.49a1.65,1.65,0,0,0,1.28-.51,2,2,0,0,0,.47-1.35v-1.06a2,2,0,0,0-.47-1.35,1.65,1.65,0,0,0-1.28-.51,2.11,2.11,0,0,0-.62.09,1.73,1.73,0,0,0-.51.25,1.12,1.12,0,0,0-.34.38.91.91,0,0,0-.13.48v2.31a1.08,1.08,0,0,0,.13.54,1.19,1.19,0,0,0,.34.4,1.51,1.51,0,0,0,.51.24A2.11,2.11,0,0,0,674.24,171.08Z"/><path d="M678.64,165.59h1v1h0a1.73,1.73,0,0,1,.7-.86,2.08,2.08,0,0,1,1.11-.28,2.41,2.41,0,0,1,1,.23,2.24,2.24,0,0,1,.79.65,3.05,3.05,0,0,1,.51,1,5.37,5.37,0,0,1,0,2.68,3.05,3.05,0,0,1-.51,1,2.24,2.24,0,0,1-.79.65,2.41,2.41,0,0,1-1,.23,1.87,1.87,0,0,1-1.81-1.14h0v3.4h-1Zm2.56,5.49a1.65,1.65,0,0,0,1.28-.51,2,2,0,0,0,.47-1.35v-1.06a2,2,0,0,0-.47-1.35,1.65,1.65,0,0,0-1.28-.51,2.11,2.11,0,0,0-.62.09,1.73,1.73,0,0,0-.51.25,1.12,1.12,0,0,0-.34.38.91.91,0,0,0-.13.48v2.31a1.08,1.08,0,0,0,.13.54,1.19,1.19,0,0,0,.34.4,1.51,1.51,0,0,0,.51.24A2.11,2.11,0,0,0,681.2,171.08Z"/><path d="M687.93,171.93a2.84,2.84,0,0,1-1.15-.23,2.43,2.43,0,0,1-.87-.65,3.17,3.17,0,0,1-.57-1,4.79,4.79,0,0,1,0-2.67,3.12,3.12,0,0,1,.57-1,2.43,2.43,0,0,1,.87-.65,2.84,2.84,0,0,1,1.15-.23,2.67,2.67,0,0,1,1.12.23,2.58,2.58,0,0,1,.84.63,2.66,2.66,0,0,1,.53.95,3.82,3.82,0,0,1,.19,1.2v.46h-4.46v.29a2.15,2.15,0,0,0,.13.73,1.66,1.66,0,0,0,.36.6,1.56,1.56,0,0,0,.58.39,2,2,0,0,0,1.8-.13,1.8,1.8,0,0,0,.67-.79l.69.5a2.38,2.38,0,0,1-.94,1A2.83,2.83,0,0,1,687.93,171.93Zm0-5.68a1.89,1.89,0,0,0-.72.14,1.57,1.57,0,0,0-.56.39,1.77,1.77,0,0,0-.36.59,2,2,0,0,0-.14.74v.09h3.42v-.13a1.89,1.89,0,0,0-.45-1.32A1.53,1.53,0,0,0,687.93,166.25Z"/><path d="M696.15,170.79h0a1.88,1.88,0,0,1-1.81,1.14,2.37,2.37,0,0,1-1-.23,2.19,2.19,0,0,1-.8-.65,3.05,3.05,0,0,1-.51-1,5.37,5.37,0,0,1,0-2.68,3.05,3.05,0,0,1,.51-1,2.19,2.19,0,0,1,.8-.65,2.37,2.37,0,0,1,1-.23,2.08,2.08,0,0,1,1.11.28,1.73,1.73,0,0,1,.7.86h0v-3.68h1v8.88h-1Zm-1.6.29a2.06,2.06,0,0,0,.62-.09,1.51,1.51,0,0,0,.51-.24,1.16,1.16,0,0,0,.47-.94V167.5A.91.91,0,0,0,696,167a1,1,0,0,0-.34-.38,1.73,1.73,0,0,0-.51-.25,2.06,2.06,0,0,0-.62-.09,1.65,1.65,0,0,0-1.28.51,2,2,0,0,0-.47,1.35v1.06a2,2,0,0,0,.47,1.35A1.65,1.65,0,0,0,694.55,171.08Z"/><path d="M666.71,185.19h0a1.89,1.89,0,0,1-1.81,1.14,2.38,2.38,0,0,1-1.05-.23,2.28,2.28,0,0,1-.8-.65,2.86,2.86,0,0,1-.5-1,5.08,5.08,0,0,1,0-2.68,2.86,2.86,0,0,1,.5-1,2.28,2.28,0,0,1,.8-.65,2.38,2.38,0,0,1,1.05-.23,2,2,0,0,1,1.1.28,1.75,1.75,0,0,1,.71.86h0v-3.68h1v8.88h-1Zm-1.59.29a2.16,2.16,0,0,0,.62-.09,1.71,1.71,0,0,0,.51-.24,1.32,1.32,0,0,0,.34-.4,1.19,1.19,0,0,0,.12-.54V181.9a1,1,0,0,0-.12-.48,1.24,1.24,0,0,0-.34-.38,2,2,0,0,0-.51-.25,2.16,2.16,0,0,0-.62-.09,1.69,1.69,0,0,0-1.29.51,1.94,1.94,0,0,0-.46,1.35v1.06a1.94,1.94,0,0,0,.46,1.35A1.69,1.69,0,0,0,665.12,185.48Z"/><path d="M674.21,186.19a1,1,0,0,1-.77-.29,1.46,1.46,0,0,1-.29-.72h-.06a1.62,1.62,0,0,1-.67.86,2.15,2.15,0,0,1-1.12.29,2.18,2.18,0,0,1-1.53-.5,1.81,1.81,0,0,1-.55-1.37,1.58,1.58,0,0,1,.65-1.35,3.4,3.4,0,0,1,2-.46h1.23V182a1.32,1.32,0,0,0-.36-1,1.51,1.51,0,0,0-1.11-.35,1.65,1.65,0,0,0-.94.25,2.13,2.13,0,0,0-.63.67l-.58-.54a2.28,2.28,0,0,1,.81-.86,2.58,2.58,0,0,1,1.39-.35,2.53,2.53,0,0,1,1.75.55,1.93,1.93,0,0,1,.63,1.53v3.4h.7v.86Zm-2.75-.68a2.3,2.3,0,0,0,.66-.08,1.72,1.72,0,0,0,.51-.24,1.06,1.06,0,0,0,.34-.36.86.86,0,0,0,.12-.44v-1h-1.27a2.31,2.31,0,0,0-1.21.24.78.78,0,0,0-.38.69v.25a.84.84,0,0,0,.33.71A1.44,1.44,0,0,0,671.46,185.51Z"/><path d="M677.49,186.19a1,1,0,0,1-.76-.29,1,1,0,0,1-.26-.73v-4.32h-1V180H676a.57.57,0,0,0,.42-.12.64.64,0,0,0,.12-.44v-1.15h.86V180h1.36v.86h-1.36v4.48h1.26v.86Z"/><path d="M684.83,186.19a1,1,0,0,1-.77-.29,1.38,1.38,0,0,1-.29-.72h-.06a1.62,1.62,0,0,1-.67.86,2.15,2.15,0,0,1-1.12.29,2.18,2.18,0,0,1-1.53-.5,1.77,1.77,0,0,1-.55-1.37,1.59,1.59,0,0,1,.64-1.35,3.46,3.46,0,0,1,2-.46h1.23V182a1.32,1.32,0,0,0-.36-1,1.51,1.51,0,0,0-1.11-.35,1.65,1.65,0,0,0-.94.25,2.13,2.13,0,0,0-.63.67l-.58-.54a2.28,2.28,0,0,1,.81-.86,2.58,2.58,0,0,1,1.39-.35,2.53,2.53,0,0,1,1.75.55,1.93,1.93,0,0,1,.63,1.53v3.4h.71v.86Zm-2.76-.68a2.3,2.3,0,0,0,.66-.08,1.79,1.79,0,0,0,.52-.24,1.16,1.16,0,0,0,.34-.36.86.86,0,0,0,.12-.44v-1h-1.28a2.3,2.3,0,0,0-1.2.24.78.78,0,0,0-.38.69v.25a.84.84,0,0,0,.33.71A1.42,1.42,0,0,0,682.07,185.51Z"/><rect class="cls-1" x="508.5" y="230.59" width="218" height="149"/><path d="M651.61,341.79l-2-8.38h1.06l.91,4,.69,3.13h0l.79-3.13,1.05-4h1.15l1,4,.78,3.12h0l.72-3.12,1-4h1l-2.15,8.38h-1.12l-1.09-4.18-.76-3.07h0l-.79,3.07-1.12,4.18Z"/><path d="M660.92,341.79v-6.2h1v1.14h.06a1.79,1.79,0,0,1,1.79-1.14h.37v1h-.56a2.11,2.11,0,0,0-1.22.3.84.84,0,0,0-.44.74v4.2Z"/><path d="M669.77,341.79a1,1,0,0,1-.77-.29,1.38,1.38,0,0,1-.29-.72h-.06a1.59,1.59,0,0,1-.68.86,2.08,2.08,0,0,1-1.11.29,2.18,2.18,0,0,1-1.53-.5,1.77,1.77,0,0,1-.55-1.37,1.59,1.59,0,0,1,.64-1.35,3.46,3.46,0,0,1,2-.46h1.23v-.62a1.32,1.32,0,0,0-.36-1,1.51,1.51,0,0,0-1.11-.35,1.65,1.65,0,0,0-.94.25,2.13,2.13,0,0,0-.63.67l-.58-.54a2.28,2.28,0,0,1,.81-.86,2.58,2.58,0,0,1,1.39-.35A2.53,2.53,0,0,1,669,336a1.93,1.93,0,0,1,.63,1.53v3.4h.7v.86Zm-2.76-.68a2.3,2.3,0,0,0,.66-.08,1.67,1.67,0,0,0,.52-.24,1.16,1.16,0,0,0,.34-.36.86.86,0,0,0,.12-.44v-1h-1.27a2.31,2.31,0,0,0-1.21.24.78.78,0,0,0-.38.69v.25a.84.84,0,0,0,.33.71A1.42,1.42,0,0,0,667,341.11Z"/><path d="M671.68,335.59h1v1h.05a1.73,1.73,0,0,1,.7-.86,2.08,2.08,0,0,1,1.11-.28,2.41,2.41,0,0,1,1,.23,2.24,2.24,0,0,1,.79.65,3.05,3.05,0,0,1,.51,1,5.37,5.37,0,0,1,0,2.68,3.05,3.05,0,0,1-.51,1,2.24,2.24,0,0,1-.79.65,2.41,2.41,0,0,1-1,.23,1.87,1.87,0,0,1-1.81-1.14h-.05v3.4h-1Zm2.56,5.49a1.65,1.65,0,0,0,1.28-.51,2,2,0,0,0,.47-1.35v-1.06a2,2,0,0,0-.47-1.35,1.65,1.65,0,0,0-1.28-.51,2.11,2.11,0,0,0-.62.09,1.73,1.73,0,0,0-.51.25,1.12,1.12,0,0,0-.34.38.91.91,0,0,0-.13.48v2.31a1.08,1.08,0,0,0,.13.54,1.19,1.19,0,0,0,.34.4,1.51,1.51,0,0,0,.51.24A2.11,2.11,0,0,0,674.24,341.08Z"/><path d="M678.64,335.59h1v1h0a1.73,1.73,0,0,1,.7-.86,2.08,2.08,0,0,1,1.11-.28,2.41,2.41,0,0,1,1,.23,2.24,2.24,0,0,1,.79.65,3.05,3.05,0,0,1,.51,1,5.37,5.37,0,0,1,0,2.68,3.05,3.05,0,0,1-.51,1,2.24,2.24,0,0,1-.79.65,2.41,2.41,0,0,1-1,.23,1.87,1.87,0,0,1-1.81-1.14h0v3.4h-1Zm2.56,5.49a1.65,1.65,0,0,0,1.28-.51,2,2,0,0,0,.47-1.35v-1.06a2,2,0,0,0-.47-1.35,1.65,1.65,0,0,0-1.28-.51,2.11,2.11,0,0,0-.62.09,1.73,1.73,0,0,0-.51.25,1.12,1.12,0,0,0-.34.38.91.91,0,0,0-.13.48v2.31a1.08,1.08,0,0,0,.13.54,1.19,1.19,0,0,0,.34.4,1.51,1.51,0,0,0,.51.24A2.11,2.11,0,0,0,681.2,341.08Z"/><path d="M687.93,341.93a2.84,2.84,0,0,1-1.15-.23,2.43,2.43,0,0,1-.87-.65,3.17,3.17,0,0,1-.57-1,4.79,4.79,0,0,1,0-2.67,3.12,3.12,0,0,1,.57-1,2.43,2.43,0,0,1,.87-.65,2.84,2.84,0,0,1,1.15-.23,2.67,2.67,0,0,1,1.12.23,2.58,2.58,0,0,1,.84.63,2.66,2.66,0,0,1,.53.95,3.82,3.82,0,0,1,.19,1.2v.46h-4.46v.29a2.15,2.15,0,0,0,.13.73,1.66,1.66,0,0,0,.36.6,1.56,1.56,0,0,0,.58.39,2,2,0,0,0,1.8-.13,1.8,1.8,0,0,0,.67-.79l.69.5a2.38,2.38,0,0,1-.94,1A2.83,2.83,0,0,1,687.93,341.93Zm0-5.68a1.89,1.89,0,0,0-.72.14,1.57,1.57,0,0,0-.56.39,1.77,1.77,0,0,0-.36.59,2,2,0,0,0-.14.74v.09h3.42v-.13a1.89,1.89,0,0,0-.45-1.32A1.53,1.53,0,0,0,687.93,336.25Z"/><path d="M696.15,340.79h0a1.88,1.88,0,0,1-1.81,1.14,2.37,2.37,0,0,1-1-.23,2.19,2.19,0,0,1-.8-.65,3.05,3.05,0,0,1-.51-1,5.37,5.37,0,0,1,0-2.68,3.05,3.05,0,0,1,.51-1,2.19,2.19,0,0,1,.8-.65,2.37,2.37,0,0,1,1-.23,2.08,2.08,0,0,1,1.11.28,1.73,1.73,0,0,1,.7.86h0v-3.68h1v8.88h-1Zm-1.6.29a2.06,2.06,0,0,0,.62-.09,1.51,1.51,0,0,0,.51-.24,1.16,1.16,0,0,0,.47-.94V337.5A.91.91,0,0,0,696,337a1,1,0,0,0-.34-.38,1.73,1.73,0,0,0-.51-.25,2.06,2.06,0,0,0-.62-.09,1.65,1.65,0,0,0-1.28.51,2,2,0,0,0-.47,1.35v1.06a2,2,0,0,0,.47,1.35A1.65,1.65,0,0,0,694.55,341.08Z"/><path d="M666.71,355.19h0a1.89,1.89,0,0,1-1.81,1.14,2.38,2.38,0,0,1-1.05-.23,2.28,2.28,0,0,1-.8-.65,2.86,2.86,0,0,1-.5-1,5.08,5.08,0,0,1,0-2.68,2.86,2.86,0,0,1,.5-1,2.28,2.28,0,0,1,.8-.65,2.38,2.38,0,0,1,1.05-.23,2,2,0,0,1,1.1.28,1.71,1.71,0,0,1,.71.86h0v-3.68h1v8.88h-1Zm-1.59.29a2.16,2.16,0,0,0,.62-.09,1.71,1.71,0,0,0,.51-.24,1.45,1.45,0,0,0,.34-.4,1.19,1.19,0,0,0,.12-.54V351.9a1,1,0,0,0-.12-.48,1.24,1.24,0,0,0-.34-.38,2,2,0,0,0-.51-.25,2.16,2.16,0,0,0-.62-.09,1.66,1.66,0,0,0-1.29.52,1.9,1.9,0,0,0-.46,1.34v1.06a1.94,1.94,0,0,0,.46,1.35A1.69,1.69,0,0,0,665.12,355.48Z"/><path d="M674.21,356.19a1,1,0,0,1-.77-.29,1.46,1.46,0,0,1-.29-.72h-.06a1.62,1.62,0,0,1-.67.86,2.15,2.15,0,0,1-1.12.29,2.18,2.18,0,0,1-1.53-.5,1.81,1.81,0,0,1-.55-1.37,1.58,1.58,0,0,1,.65-1.35,3.4,3.4,0,0,1,2-.46h1.23V352a1.32,1.32,0,0,0-.36-1,1.51,1.51,0,0,0-1.11-.35,1.65,1.65,0,0,0-.94.25,2.13,2.13,0,0,0-.63.67l-.58-.54a2.28,2.28,0,0,1,.81-.86,2.58,2.58,0,0,1,1.39-.35,2.53,2.53,0,0,1,1.75.55,1.93,1.93,0,0,1,.63,1.53v3.4h.7v.86Zm-2.75-.68a2.3,2.3,0,0,0,.66-.08,1.72,1.72,0,0,0,.51-.24,1.06,1.06,0,0,0,.34-.36.86.86,0,0,0,.12-.44v-1h-1.27a2.31,2.31,0,0,0-1.21.24.78.78,0,0,0-.38.69v.25a.84.84,0,0,0,.33.71A1.44,1.44,0,0,0,671.46,355.51Z"/><path d="M677.49,356.19a1,1,0,0,1-.76-.29,1,1,0,0,1-.26-.73v-4.32h-1V350H676a.57.57,0,0,0,.42-.12.64.64,0,0,0,.12-.44v-1.15h.86V350h1.36v.86h-1.36v4.48h1.26v.86Z"/><path d="M684.83,356.19a1,1,0,0,1-.77-.29,1.38,1.38,0,0,1-.29-.72h-.06a1.62,1.62,0,0,1-.67.86,2.15,2.15,0,0,1-1.12.29,2.18,2.18,0,0,1-1.53-.5,1.77,1.77,0,0,1-.55-1.37,1.59,1.59,0,0,1,.64-1.35,3.46,3.46,0,0,1,2-.46h1.23V352a1.32,1.32,0,0,0-.36-1,1.51,1.51,0,0,0-1.11-.35,1.65,1.65,0,0,0-.94.25,2.13,2.13,0,0,0-.63.67l-.58-.54a2.28,2.28,0,0,1,.81-.86,2.58,2.58,0,0,1,1.39-.35,2.53,2.53,0,0,1,1.75.55,1.93,1.93,0,0,1,.63,1.53v3.4h.71v.86Zm-2.76-.68a2.3,2.3,0,0,0,.66-.08,1.79,1.79,0,0,0,.52-.24,1.16,1.16,0,0,0,.34-.36.86.86,0,0,0,.12-.44v-1h-1.28a2.3,2.3,0,0,0-1.2.24.78.78,0,0,0-.38.69v.25a.84.84,0,0,0,.33.71A1.42,1.42,0,0,0,682.07,355.51Z"/><rect class="cls-4" x="201.5" y="186.59" width="241" height="73"/><g id="Hardware"><rect class="cls-5" x="219.99" y="225.13" width="40" height="10.59"/><polygon class="cls-5" points="260 224.74 220 224.74 227.05 209.44 252.94 209.44 260 224.74"/><rect x="245.29" y="228.07" width="4.71" height="4.71"/><rect x="251.76" y="228.07" width="4.71" height="4.71"/></g><path d="M277.07,219.31v-8.38h5.39v1.4h-3.8v2H282v1.41h-3.31v3.54Z"/><path d="M283.65,219.31V218h1.1V212.2h-1.1v-1.27h3.8v1.27h-1.11V218h1.11v1.28Z"/><path d="M289.07,219.31v-8.38h3.77a2.64,2.64,0,0,1,1,.19,2.27,2.27,0,0,1,.79.52,2.53,2.53,0,0,1,.49.83,3.56,3.56,0,0,1,0,2.11,2.49,2.49,0,0,1-.49.82,2.29,2.29,0,0,1-.79.53,2.84,2.84,0,0,1-1,.18h-2.18v3.2Zm1.59-4.56h2a1,1,0,0,0,.72-.25.93.93,0,0,0,.26-.7v-.55a.91.91,0,0,0-.26-.7,1,1,0,0,0-.72-.24h-2Z"/><path d="M299.28,219.45a3.93,3.93,0,0,1-1.83-.39,4.22,4.22,0,0,1-1.29-1l1.07-1a3,3,0,0,0,1,.76,2.56,2.56,0,0,0,1.18.27,1.64,1.64,0,0,0,1.1-.32,1.05,1.05,0,0,0,.38-.85,1,1,0,0,0-.24-.68,1.65,1.65,0,0,0-.9-.38l-.8-.12c-1.67-.26-2.5-1.08-2.5-2.44a2.38,2.38,0,0,1,.21-1,2.18,2.18,0,0,1,.6-.78,2.82,2.82,0,0,1,1-.5,4.66,4.66,0,0,1,2.92.14,3.39,3.39,0,0,1,1.21.92l-1.08,1a2.41,2.41,0,0,0-.76-.62,2.28,2.28,0,0,0-1.11-.24,1.65,1.65,0,0,0-1,.26.83.83,0,0,0-.34.71.85.85,0,0,0,.28.71,1.93,1.93,0,0,0,.88.33l.78.14a3.7,3.7,0,0,1,1.88.81,2.15,2.15,0,0,1,.61,1.63,2.72,2.72,0,0,1-.21,1.09,2.42,2.42,0,0,1-.61.84,2.79,2.79,0,0,1-1,.55A4.21,4.21,0,0,1,299.28,219.45Z"/><path d="M307,219.31V218h2.31v-6h-.11l-1.83,2.16-1-.83,2.08-2.47h2.38V218h1.92v1.29Z"/><path d="M317.24,219.31v-1.62h-3.8v-1.36l3.34-5.4h2v5.52h1.09v1.24h-1.09v1.62Zm-2.5-2.86h2.5v-4h-.1Z"/><path d="M323.86,219.45a3.13,3.13,0,0,1-1.39-.29,2.56,2.56,0,0,1-1-.85,3.75,3.75,0,0,1-.57-1.36,7.74,7.74,0,0,1-.19-1.83,7.86,7.86,0,0,1,.19-1.83,3.67,3.67,0,0,1,.57-1.36,2.56,2.56,0,0,1,1-.85,3,3,0,0,1,1.39-.29,2.65,2.65,0,0,1,2.36,1.14,7.07,7.07,0,0,1,0,6.38A2.65,2.65,0,0,1,323.86,219.45Zm0-1.33a1.14,1.14,0,0,0,1.12-.61,3.56,3.56,0,0,0,.32-1.64v-1.51a3.59,3.59,0,0,0-.32-1.64,1.35,1.35,0,0,0-2.24,0,3.59,3.59,0,0,0-.32,1.64v1.51a3.56,3.56,0,0,0,.32,1.64A1.14,1.14,0,0,0,323.86,218.12Z"/><path d="M328.16,216.41v-1.52h3.43v1.52Z"/><path d="M338.84,219.31H333v-1.47l2.63-2.3a6,6,0,0,0,1-1.06,1.83,1.83,0,0,0,.31-1v-.16a1,1,0,0,0-.36-.84,1.31,1.31,0,0,0-.87-.3,1.3,1.3,0,0,0-1,.37,2.21,2.21,0,0,0-.48.88l-1.37-.53a3.38,3.38,0,0,1,.38-.79,2.56,2.56,0,0,1,.6-.67,3.2,3.2,0,0,1,.86-.46,3.54,3.54,0,0,1,1.13-.16A3.51,3.51,0,0,1,337,211a2.49,2.49,0,0,1,.87.52,2.18,2.18,0,0,1,.54.8,2.46,2.46,0,0,1,.19,1,2.69,2.69,0,0,1-.17,1,3.46,3.46,0,0,1-.45.82,5.91,5.91,0,0,1-.68.75c-.25.23-.52.47-.81.71L334.74,218h4.1Z"/><path d="M343.3,219.31v-8.38h1.58v7h3.3v1.41Z"/><path d="M351.87,219.45a3.19,3.19,0,0,1-1.24-.23,2.62,2.62,0,0,1-.93-.66,3.08,3.08,0,0,1-.58-1,4.1,4.1,0,0,1-.2-1.36,4.34,4.34,0,0,1,.19-1.34,3.31,3.31,0,0,1,.57-1,2.67,2.67,0,0,1,.92-.66,3.12,3.12,0,0,1,1.22-.23,2.94,2.94,0,0,1,1.27.25,2.54,2.54,0,0,1,.89.68,2.94,2.94,0,0,1,.52,1,4,4,0,0,1,.18,1.21v.51h-4.17v.15a1.5,1.5,0,0,0,.39,1.09,1.45,1.45,0,0,0,1.14.41A1.79,1.79,0,0,0,353,218a2.88,2.88,0,0,0,.65-.61l.83.92a2.52,2.52,0,0,1-1,.85A3.56,3.56,0,0,1,351.87,219.45Zm0-5.4a1.25,1.25,0,0,0-1,.41,1.52,1.52,0,0,0-.36,1v.1h2.57v-.11a1.66,1.66,0,0,0-.32-1.05A1.1,1.1,0,0,0,351.84,214.05Z"/><path d="M357.27,219.31,355.18,213h1.51l.88,2.7.61,2.23h.08l.62-2.23.85-2.7h1.46l-2.1,6.27Z"/><path d="M364.65,219.45a3.19,3.19,0,0,1-1.24-.23,2.62,2.62,0,0,1-.93-.66,3.08,3.08,0,0,1-.58-1,4.1,4.1,0,0,1-.2-1.36,4.34,4.34,0,0,1,.19-1.34,3.31,3.31,0,0,1,.57-1,2.67,2.67,0,0,1,.92-.66,3.12,3.12,0,0,1,1.22-.23,2.94,2.94,0,0,1,1.27.25,2.54,2.54,0,0,1,.89.68,2.94,2.94,0,0,1,.52,1,4,4,0,0,1,.18,1.21v.51h-4.17v.15a1.5,1.5,0,0,0,.39,1.09,1.45,1.45,0,0,0,1.14.41,1.79,1.79,0,0,0,.94-.23,2.88,2.88,0,0,0,.65-.61l.83.92a2.52,2.52,0,0,1-1.05.85A3.56,3.56,0,0,1,364.65,219.45Zm0-5.4a1.25,1.25,0,0,0-1,.41,1.52,1.52,0,0,0-.36,1v.1h2.57v-.11a1.66,1.66,0,0,0-.32-1.05A1.1,1.1,0,0,0,364.62,214.05Z"/><path d="M370.35,219.31a1.56,1.56,0,0,1-1.17-.4,1.62,1.62,0,0,1-.37-1.12v-7.36h1.54v7.64h.83v1.24Z"/><path d="M378.46,219.31v-1.62h-3.79v-1.36l3.33-5.4h2v5.52h1.09v1.24H380v1.62Zm-2.5-2.86h2.5v-4h-.1Z"/><path d="M282.45,229.91h-4.24v3.8h-1v-8.38h1V229h4.24v-3.7h1v8.38h-1Z"/><path d="M290.09,233.71a.93.93,0,0,1-.77-.29,1.38,1.38,0,0,1-.3-.72H289a1.58,1.58,0,0,1-.67.86,2.08,2.08,0,0,1-1.11.29,2.18,2.18,0,0,1-1.53-.5,1.77,1.77,0,0,1-.55-1.37,1.57,1.57,0,0,1,.64-1.35,3.46,3.46,0,0,1,2-.46H289v-.62a1.32,1.32,0,0,0-.36-1,1.48,1.48,0,0,0-1.1-.35,1.63,1.63,0,0,0-.94.25,2.13,2.13,0,0,0-.63.67l-.58-.54a2.28,2.28,0,0,1,.81-.86,3,3,0,0,1,3.14.2,1.93,1.93,0,0,1,.62,1.53v3.4h.71v.86Zm-2.76-.68A2.3,2.3,0,0,0,288,233a1.92,1.92,0,0,0,.52-.24,1.13,1.13,0,0,0,.33-.36.86.86,0,0,0,.12-.44v-1h-1.27a2.3,2.3,0,0,0-1.2.24.76.76,0,0,0-.38.69v.25a.84.84,0,0,0,.33.71A1.42,1.42,0,0,0,287.33,233Z"/><path d="M292,233.71v-6.2h1v1.14H293a1.79,1.79,0,0,1,1.79-1.14h.37v1h-.56a2.14,2.14,0,0,0-1.22.3.86.86,0,0,0-.44.74v4.2Z"/><path d="M300.29,232.71h-.05a1.88,1.88,0,0,1-1.81,1.14,2.37,2.37,0,0,1-1-.23,2.28,2.28,0,0,1-.8-.65,2.86,2.86,0,0,1-.5-1,5.08,5.08,0,0,1,0-2.68,2.86,2.86,0,0,1,.5-1,2.28,2.28,0,0,1,.8-.65,2.37,2.37,0,0,1,1-.23,2.08,2.08,0,0,1,1.11.28,1.69,1.69,0,0,1,.7.86h.05v-3.68h1v8.88h-1Zm-1.59.29a2,2,0,0,0,.61-.09,1.51,1.51,0,0,0,.51-.24,1.33,1.33,0,0,0,.35-.4,1.19,1.19,0,0,0,.12-.54v-2.31a1,1,0,0,0-.12-.48,1.16,1.16,0,0,0-.35-.38,1.52,1.52,0,0,0-.51-.25,2,2,0,0,0-.61-.09,1.66,1.66,0,0,0-1.29.51,2,2,0,0,0-.47,1.35v1.06a1.92,1.92,0,0,0,.47,1.34A1.63,1.63,0,0,0,298.7,233Z"/><path d="M302.64,227.51h.94l.66,2.68.66,2.71h0l.76-2.71.78-2.68h.85l.81,2.68.76,2.71h0l.63-2.71.68-2.68h.9l-1.65,6.2h-1.19l-.86-3-.54-1.88h0l-.53,1.88-.87,3H304.3Z"/><path d="M316.9,233.71a.93.93,0,0,1-.77-.29,1.38,1.38,0,0,1-.3-.72h-.06a1.58,1.58,0,0,1-.67.86,2.1,2.1,0,0,1-1.12.29,2.22,2.22,0,0,1-1.53-.5,1.8,1.8,0,0,1-.54-1.37,1.57,1.57,0,0,1,.64-1.35,3.43,3.43,0,0,1,2-.46h1.22v-.62a1.32,1.32,0,0,0-.36-1,1.5,1.5,0,0,0-1.1-.35,1.63,1.63,0,0,0-.94.25,1.93,1.93,0,0,0-.63.67l-.58-.54a2.33,2.33,0,0,1,.8-.86,2.62,2.62,0,0,1,1.4-.35,2.55,2.55,0,0,1,1.75.55,2,2,0,0,1,.62,1.53v3.4h.71v.86Zm-2.76-.68a2.3,2.3,0,0,0,.66-.08,1.92,1.92,0,0,0,.52-.24,1.13,1.13,0,0,0,.33-.36.86.86,0,0,0,.12-.44v-1H314.5a2.36,2.36,0,0,0-1.21.24.77.77,0,0,0-.37.69v.25a.84.84,0,0,0,.33.71A1.41,1.41,0,0,0,314.14,233Z"/><path d="M318.81,233.71v-6.2h1v1.14h.06a1.79,1.79,0,0,1,1.79-1.14H322v1h-.57a2.1,2.1,0,0,0-1.21.3.84.84,0,0,0-.44.74v4.2Z"/><path d="M325.48,233.85a2.84,2.84,0,0,1-1.15-.23,2.43,2.43,0,0,1-.87-.65,3.17,3.17,0,0,1-.57-1,4.79,4.79,0,0,1,0-2.67,3.12,3.12,0,0,1,.57-1,2.43,2.43,0,0,1,.87-.65,2.84,2.84,0,0,1,1.15-.23,2.67,2.67,0,0,1,1.12.23,2.58,2.58,0,0,1,.84.63,2.66,2.66,0,0,1,.53,1,3.77,3.77,0,0,1,.19,1.2v.46H323.7v.29a2.15,2.15,0,0,0,.13.73,1.66,1.66,0,0,0,.36.6,1.56,1.56,0,0,0,.58.39,2,2,0,0,0,1.8-.13,1.8,1.8,0,0,0,.67-.79l.69.49a2.35,2.35,0,0,1-.94,1A2.83,2.83,0,0,1,325.48,233.85Zm0-5.68a1.89,1.89,0,0,0-.72.14,1.57,1.57,0,0,0-.56.39,1.77,1.77,0,0,0-.36.59,2,2,0,0,0-.14.74v.09h3.42V230a1.89,1.89,0,0,0-.45-1.32A1.53,1.53,0,0,0,325.48,228.17Z"/><path d="M334.43,233.85a2.87,2.87,0,0,1-1.44-.33,3.26,3.26,0,0,1-1-.88l.69-.55a2.9,2.9,0,0,0,.8.7,2.15,2.15,0,0,0,1,.24,1.52,1.52,0,0,0,1-.26.88.88,0,0,0,.34-.74.91.91,0,0,0-.23-.62,1.5,1.5,0,0,0-.85-.36l-.49-.07a4.37,4.37,0,0,1-.79-.18,2.37,2.37,0,0,1-.63-.34,1.42,1.42,0,0,1-.42-.52,1.73,1.73,0,0,1-.15-.75,1.84,1.84,0,0,1,.16-.8,1.7,1.7,0,0,1,.47-.56,1.92,1.92,0,0,1,.7-.35,3.45,3.45,0,0,1,.87-.11,2.81,2.81,0,0,1,1.27.26,2.73,2.73,0,0,1,.89.74l-.63.57a2.08,2.08,0,0,0-.6-.52,1.92,1.92,0,0,0-1-.23,1.36,1.36,0,0,0-.9.25.88.88,0,0,0-.31.71.73.73,0,0,0,.31.66,2.42,2.42,0,0,0,.88.3l.48.07a2.55,2.55,0,0,1,1.46.59,1.56,1.56,0,0,1,.43,1.15,1.73,1.73,0,0,1-.61,1.41A2.5,2.5,0,0,1,334.43,233.85Z"/><path d="M340.74,233.85a2.8,2.8,0,0,1-1.14-.23,2.55,2.55,0,0,1-.88-.65,3.15,3.15,0,0,1-.56-1,4.56,4.56,0,0,1,0-2.67,3.1,3.1,0,0,1,.56-1,2.55,2.55,0,0,1,.88-.65,2.8,2.8,0,0,1,1.14-.23,2.67,2.67,0,0,1,1.12.23,2.38,2.38,0,0,1,.84.63,2.66,2.66,0,0,1,.53,1,3.51,3.51,0,0,1,.19,1.2v.46H339v.29a2.15,2.15,0,0,0,.12.73,2,2,0,0,0,.36.6,1.56,1.56,0,0,0,.58.39,1.92,1.92,0,0,0,.77.15,1.8,1.8,0,0,0,1.71-1.07l.68.49a2.39,2.39,0,0,1-.93,1A2.86,2.86,0,0,1,340.74,233.85Zm0-5.68a1.89,1.89,0,0,0-.72.14,1.53,1.53,0,0,0-.55.39,1.79,1.79,0,0,0-.37.59,2,2,0,0,0-.13.74v.09h3.42V230a1.89,1.89,0,0,0-.45-1.32A1.55,1.55,0,0,0,340.74,228.17Z"/><path d="M347.31,233.85a2.94,2.94,0,0,1-1.17-.23,2.43,2.43,0,0,1-.87-.65,3.09,3.09,0,0,1-.54-1,5.08,5.08,0,0,1,0-2.68,3.09,3.09,0,0,1,.54-1,2.43,2.43,0,0,1,.87-.65,2.94,2.94,0,0,1,1.17-.23,2.29,2.29,0,0,1,2.31,1.45l-.8.41a1.51,1.51,0,0,0-.55-.75,1.72,1.72,0,0,0-1-.26,2,2,0,0,0-.76.14,1.6,1.6,0,0,0-.54.38,1.68,1.68,0,0,0-.32.59,2.56,2.56,0,0,0-.11.75v1.06a2,2,0,0,0,.44,1.34,1.61,1.61,0,0,0,1.29.52,1.75,1.75,0,0,0,1.68-1.08l.69.47a2.42,2.42,0,0,1-.89,1.06A2.58,2.58,0,0,1,347.31,233.85Z"/><path d="M354.86,232.71h-.05a3,3,0,0,1-.24.42,1.48,1.48,0,0,1-.34.37,1.42,1.42,0,0,1-.49.25,2,2,0,0,1-.67.1,2,2,0,0,1-1.53-.62,2.51,2.51,0,0,1-.56-1.74v-4h1v3.82c0,1.11.47,1.67,1.42,1.67a2.51,2.51,0,0,0,.55-.07,1.51,1.51,0,0,0,.48-.22,1.05,1.05,0,0,0,.47-.9v-4.3h1v6.2h-1Z"/><path d="M357.86,233.71v-6.2h1v1.14h.06a1.86,1.86,0,0,1,.6-.79,1.82,1.82,0,0,1,1.18-.35H361v1h-.57a2.16,2.16,0,0,0-1.22.3.85.85,0,0,0-.43.74v4.2Z"/><path d="M362.74,226.06a.58.58,0,0,1-.45-.15.56.56,0,0,1-.14-.39v-.15a.56.56,0,0,1,.14-.39.75.75,0,0,1,.9,0,.56.56,0,0,1,.14.39v.15a.56.56,0,0,1-.14.39A.58.58,0,0,1,362.74,226.06Zm-.48,1.45h1v6.2h-1Z"/><path d="M366.63,233.71a1,1,0,0,1-.76-.29,1,1,0,0,1-.26-.73v-4.32h-1v-.86h.57a.6.6,0,0,0,.43-.12.65.65,0,0,0,.11-.44V225.8h.87v1.71h1.35v.86h-1.35v4.48h1.26v.86Z"/><path d="M373.29,227.51h.95l-2.78,7.64a4.09,4.09,0,0,1-.21.46.84.84,0,0,1-.27.29,1,1,0,0,1-.39.16,2.94,2.94,0,0,1-.57.05h-.49v-.86h1l.47-1.31-2.31-6.43h1l1.48,4.21.29,1h.06l.34-1Z"/><path d="M378.29,233.71v-6.2h1v1h.05a2.46,2.46,0,0,1,.25-.45,1.86,1.86,0,0,1,.33-.36,1.67,1.67,0,0,1,.46-.24,2,2,0,0,1,.63-.09,2.32,2.32,0,0,1,1.13.29,1.7,1.7,0,0,1,.76,1h0a1.84,1.84,0,0,1,1.88-1.25,1.85,1.85,0,0,1,1.48.62,2.55,2.55,0,0,1,.54,1.74v4h-1v-3.82a2,2,0,0,0-.33-1.25,1.21,1.21,0,0,0-1-.42,2.35,2.35,0,0,0-.54.07,1.45,1.45,0,0,0-.47.22,1.14,1.14,0,0,0-.32.37,1.05,1.05,0,0,0-.12.52v4.31h-1v-3.82a2.07,2.07,0,0,0-.32-1.25,1.21,1.21,0,0,0-1-.42,2.43,2.43,0,0,0-.55.07,1.36,1.36,0,0,0-.47.22,1.06,1.06,0,0,0-.33.37,1,1,0,0,0-.13.52v4.31Z"/><path d="M391.11,233.85a2.8,2.8,0,0,1-1.14-.23,2.5,2.5,0,0,1-.89-.65,3.37,3.37,0,0,1-.57-1,4.56,4.56,0,0,1,0-2.67,3.31,3.31,0,0,1,.57-1,2.5,2.5,0,0,1,.89-.65,2.92,2.92,0,0,1,2.27,0,2.46,2.46,0,0,1,.88.65,3.13,3.13,0,0,1,.58,1,4.56,4.56,0,0,1,0,2.67,3.19,3.19,0,0,1-.58,1,2.46,2.46,0,0,1-.88.65A2.78,2.78,0,0,1,391.11,233.85Zm0-.85a1.74,1.74,0,0,0,1.27-.48,2,2,0,0,0,.49-1.47v-.88a2,2,0,0,0-.49-1.47,1.74,1.74,0,0,0-1.27-.48,1.77,1.77,0,0,0-1.28.48,2,2,0,0,0-.49,1.47v.88a2,2,0,0,0,.49,1.47A1.77,1.77,0,0,0,391.11,233Z"/><path d="M399.45,232.71h-.05a1.89,1.89,0,0,1-1.81,1.14,2.41,2.41,0,0,1-1-.23,2.24,2.24,0,0,1-.79-.65,3.05,3.05,0,0,1-.51-1,5.37,5.37,0,0,1,0-2.68,3.05,3.05,0,0,1,.51-1,2.24,2.24,0,0,1,.79-.65,2.41,2.41,0,0,1,1-.23,2.08,2.08,0,0,1,1.11.28,1.69,1.69,0,0,1,.7.86h.05v-3.68h1v8.88h-1Zm-1.6.29a2.11,2.11,0,0,0,.62-.09,1.51,1.51,0,0,0,.51-.24,1.3,1.3,0,0,0,.34-.4,1.08,1.08,0,0,0,.13-.54v-2.31a.91.91,0,0,0-.13-.48,1.12,1.12,0,0,0-.34-.38,1.52,1.52,0,0,0-.51-.25,2.11,2.11,0,0,0-.62-.09,1.65,1.65,0,0,0-1.28.51,2,2,0,0,0-.47,1.35v1.06a1.92,1.92,0,0,0,.47,1.34A1.62,1.62,0,0,0,397.85,233Z"/><path d="M406.26,232.71h0a4.49,4.49,0,0,1-.24.42,1.48,1.48,0,0,1-.34.37,1.51,1.51,0,0,1-.49.25,2,2,0,0,1-.67.1,2,2,0,0,1-1.53-.62,2.51,2.51,0,0,1-.56-1.74v-4h1v3.82c0,1.11.47,1.67,1.41,1.67a2.52,2.52,0,0,0,.56-.07,1.51,1.51,0,0,0,.48-.22,1.2,1.2,0,0,0,.34-.37,1.09,1.09,0,0,0,.12-.53v-4.3h1v6.2h-1Z"/><path d="M410.28,233.71a1,1,0,0,1-.76-.29,1,1,0,0,1-.26-.71v-7.88h1v8h.91v.86Z"/><path d="M414.85,233.85a2.8,2.8,0,0,1-1.14-.23,2.55,2.55,0,0,1-.88-.65,3.15,3.15,0,0,1-.56-1,4.56,4.56,0,0,1,0-2.67,3.1,3.1,0,0,1,.56-1,2.55,2.55,0,0,1,.88-.65,2.8,2.8,0,0,1,1.14-.23,2.67,2.67,0,0,1,1.12.23,2.38,2.38,0,0,1,.84.63,2.66,2.66,0,0,1,.53,1,3.51,3.51,0,0,1,.19,1.2v.46h-4.45v.29a1.93,1.93,0,0,0,.13.73,1.79,1.79,0,0,0,.35.6,1.56,1.56,0,0,0,.58.39,1.94,1.94,0,0,0,.78.15,1.8,1.8,0,0,0,1.7-1.07l.68.49a2.39,2.39,0,0,1-.93,1A2.86,2.86,0,0,1,414.85,233.85Zm0-5.68a1.89,1.89,0,0,0-.72.14,1.53,1.53,0,0,0-.55.39,1.79,1.79,0,0,0-.37.59,2,2,0,0,0-.13.74v.09h3.42V230a1.89,1.89,0,0,0-.45-1.32A1.55,1.55,0,0,0,414.85,228.17Z"/><line class="cls-6" x1="221" y1="259.59" x2="221" y2="310.09"/><line class="cls-7" x1="221" y1="310.09" x2="519.69" y2="310.09"/><polygon points="518.82 313.09 524 310.09 518.82 307.1 518.82 313.09"/><line class="cls-6" x1="484" y1="310.09" x2="484" y2="132.09"/><line class="cls-7" x1="484" y1="132.09" x2="519.69" y2="132.09"/><polygon points="518.82 135.09 524 132.09 518.82 129.1 518.82 135.09"/><line class="cls-7" x1="602" y1="132.09" x2="638.69" y2="132.09"/><polygon points="637.82 135.09 643 132.09 637.82 129.1 637.82 135.09"/><line class="cls-7" x1="602" y1="310.09" x2="638.69" y2="310.09"/><polygon points="637.82 313.09 643 310.09 637.82 307.1 637.82 313.09"/><g id="key"><path class="cls-8" d="M672.75,129.41a11.69,11.69,0,1,1-6-5.22"/><circle cx="659.85" cy="137.76" r="2.5"/><polyline class="cls-5" points="666.75 124.19 683.24 107.7 689.41 107.7 689.41 113.02 679.04 123.39 675.34 123.41 675.34 126.82 672.75 129.41"/></g><g id="Doc"><polygon class="cls-9" points="657.44 109.75 657.44 147.25 687.44 147.25 687.44 117.25 679.94 109.75 657.44 109.75"/><polyline class="cls-10" points="679.94 109.75 679.94 117.25 687.44 117.25"/><line class="cls-10" x1="663.44" y1="133" x2="676.57" y2="133"/><line class="cls-10" x1="663.44" y1="121.63" x2="681.44" y2="121.63"/><line class="cls-10" x1="663.44" y1="127.25" x2="681.44" y2="127.25"/></g><g id="lock"><g id="lock-2" data-name="lock"><rect class="cls-11" x="684.5" y="138.4" width="7" height="4"/><path class="cls-8" d="M696,148a8,8,0,1,1-8-8A8,8,0,0,1,696,148Zm-4-6.93V136a4,4,0,0,0-8,0v5.07m4,6.53v2.8"/><circle cx="688" cy="147.6" r="1.2"/></g></g><path class="cls-12" d="M680.09,149.25c-1.14-.59-2.3-1.25-3.49-2s-2.68-1.77-4-2.79c-.74-.56-1.48-1.14-2.22-1.75a73.65,73.65,0,0,1-5.59-5.06,74.88,74.88,0,0,1-5.31-5.89c-.71-.87-1.37-1.74-2-2.6-.34-.46-.66-.92-1-1.37-.54-.79-1.06-1.57-1.53-2.35-4.7-7.58-6.18-14.3-3.19-17.29,2.62-2.62,8.12-1.81,14.54,1.6"/><g id="key-2" data-name="key"><path class="cls-8" d="M672.75,299.41a11.69,11.69,0,1,1-6-5.22"/><circle cx="659.85" cy="307.76" r="2.5"/><polyline class="cls-5" points="666.75 294.19 683.24 277.7 689.41 277.7 689.41 283.02 679.04 293.39 675.34 293.41 675.34 296.82 672.75 299.41"/></g><g id="Doc-2" data-name="Doc"><polygon class="cls-9" points="657.44 279.75 657.44 317.25 687.44 317.25 687.44 287.25 679.94 279.75 657.44 279.75"/><polyline class="cls-10" points="679.94 279.75 679.94 287.25 687.44 287.25"/><line class="cls-10" x1="663.44" y1="303" x2="676.57" y2="303"/><line class="cls-10" x1="663.44" y1="291.63" x2="681.44" y2="291.63"/><line class="cls-10" x1="663.44" y1="297.25" x2="681.44" y2="297.25"/></g><g id="lock-3" data-name="lock"><g id="lock-4" data-name="lock"><rect class="cls-11" x="684.5" y="308.4" width="7" height="4"/><path class="cls-8" d="M696,318a8,8,0,1,1-8-8A8,8,0,0,1,696,318Zm-4-6.93V306a4,4,0,0,0-8,0v5.07m4,6.53v2.8"/><circle cx="688" cy="317.6" r="1.2"/></g></g><path class="cls-12" d="M680.09,319.25c-1.14-.59-2.3-1.25-3.49-2s-2.68-1.77-4-2.79c-.74-.56-1.48-1.14-2.22-1.75a73.65,73.65,0,0,1-5.59-5.06,74.88,74.88,0,0,1-5.31-5.89c-.71-.87-1.37-1.74-2-2.6-.34-.46-.66-.92-1-1.37-.54-.79-1.06-1.57-1.53-2.35-4.7-7.58-6.18-14.3-3.19-17.29,2.62-2.62,8.12-1.81,14.54,1.6"/></g><g id="key-3" data-name="key"><g id="key-4" data-name="key"><path class="cls-13" d="M245,122.13a11.67,11.67,0,1,1-.55-7.93"/><circle cx="230.02" cy="118.91" r="2.5"/><polyline class="cls-14" points="244.49 114.19 267.81 114.19 272.18 118.56 268.41 122.32 253.75 122.32 251.12 119.72 248.71 122.13 245.04 122.13"/></g><g id="key-5" data-name="key"><path class="cls-13" d="M318,122.13a11.67,11.67,0,1,1-.55-7.93"/><circle cx="303.02" cy="118.91" r="2.5"/><polyline class="cls-14" points="317.49 114.19 340.81 114.19 345.18 118.56 341.41 122.32 326.75 122.32 324.12 119.72 321.71 122.13 318.04 122.13"/></g><g id="key-6" data-name="key"><path class="cls-13" d="M393,122.13a11.67,11.67,0,1,1-.55-7.93"/><circle cx="378.02" cy="118.91" r="2.5"/><polyline class="cls-14" points="392.49 114.19 415.81 114.19 420.18 118.56 416.41 122.32 401.75 122.32 399.12 119.72 396.71 122.13 393.04 122.13"/></g><g id="key-7" data-name="key"><path class="cls-13" d="M571.64,129.79a11.69,11.69,0,1,1-6-5.22"/><circle cx="558.74" cy="138.13" r="2.5"/><polyline class="cls-14" points="565.63 124.57 582.13 108.08 588.3 108.08 588.3 113.4 577.93 123.77 574.23 123.78 574.23 127.19 571.64 129.79"/></g><g id="key-8" data-name="key"><path class="cls-8" d="M567.75,126.61a11.69,11.69,0,1,1-6-5.22"/><circle cx="554.85" cy="134.95" r="2.5"/><polyline class="cls-5" points="561.75 121.39 578.24 104.89 584.41 104.89 584.41 110.22 574.04 120.58 570.34 120.6 570.34 124.01 567.75 126.61"/></g><g id="key-9" data-name="key"><path class="cls-13" d="M571.64,299.79a11.69,11.69,0,1,1-6-5.22"/><circle cx="558.74" cy="308.13" r="2.5"/><polyline class="cls-14" points="565.63 294.57 582.13 278.08 588.3 278.08 588.3 283.4 577.93 293.77 574.23 293.78 574.23 297.19 571.64 299.79"/></g><g id="key-10" data-name="key"><path class="cls-8" d="M567.75,296.61a11.69,11.69,0,1,1-6-5.22"/><circle cx="554.85" cy="304.95" r="2.5"/><polyline class="cls-5" points="561.75 291.39 578.24 274.89 584.41 274.89 584.41 280.22 574.04 290.58 570.34 290.6 570.34 294.01 567.75 296.61"/></g><path class="cls-15" d="M268,311.09H443a0,0,0,0,1,0,0v35a4,4,0,0,1-4,4H272a4,4,0,0,1-4-4v-35A0,0,0,0,1,268,311.09Z"/><path d="M281.11,327.18l-1.7-7h.89l.75,3.36.58,2.61h0l.65-2.61.88-3.36h1l.85,3.36.65,2.6h0l.6-2.6.79-3.36h.86l-1.79,7h-.93l-.91-3.48-.64-2.56h0L283,323.7l-.93,3.48Z"/><path d="M288.87,327.18V322h.8v1h.05a1.71,1.71,0,0,1,.5-.66,1.56,1.56,0,0,1,1-.29h.31v.8h-.47a1.73,1.73,0,0,0-1,.25.71.71,0,0,0-.37.61v3.5Z"/><path d="M296.25,327.18a.77.77,0,0,1-.64-.24,1.26,1.26,0,0,1-.25-.6h-.05a1.32,1.32,0,0,1-.56.72,1.74,1.74,0,0,1-.93.24,1.79,1.79,0,0,1-1.27-.42,1.46,1.46,0,0,1-.46-1.14,1.31,1.31,0,0,1,.54-1.12,2.82,2.82,0,0,1,1.66-.39h1v-.51a1.14,1.14,0,0,0-.3-.84,1.28,1.28,0,0,0-.92-.29,1.38,1.38,0,0,0-.78.21,1.78,1.78,0,0,0-.53.56l-.48-.45a1.81,1.81,0,0,1,.67-.71,2.11,2.11,0,0,1,1.16-.3,2.15,2.15,0,0,1,1.46.46,1.61,1.61,0,0,1,.52,1.28v2.83h.59v.71Zm-2.3-.56a1.93,1.93,0,0,0,.55-.07,1.14,1.14,0,0,0,.43-.2.8.8,0,0,0,.28-.3.66.66,0,0,0,.1-.37v-.85h-1.06a2,2,0,0,0-1,.2.66.66,0,0,0-.32.58v.21a.68.68,0,0,0,.28.59A1.18,1.18,0,0,0,294,326.62Z"/><path d="M297.84,322h.8v.83h0a1.4,1.4,0,0,1,.59-.71,1.68,1.68,0,0,1,.92-.24,1.91,1.91,0,0,1,1.54.73,2.7,2.7,0,0,1,.42.85,4.35,4.35,0,0,1,.14,1.12,4.23,4.23,0,0,1-.14,1.12,2.5,2.5,0,0,1-.42.85,1.82,1.82,0,0,1-.67.54,1.92,1.92,0,0,1-.87.19,1.56,1.56,0,0,1-1.51-.95h0v2.83h-.8Zm2.13,4.57a1.39,1.39,0,0,0,1.07-.42,1.61,1.61,0,0,0,.39-1.12v-.89A1.59,1.59,0,0,0,301,323a1.4,1.4,0,0,0-1.07-.43,1.7,1.7,0,0,0-.51.08,1.56,1.56,0,0,0-.43.2,1.06,1.06,0,0,0-.28.32.83.83,0,0,0-.11.4v1.93a.9.9,0,0,0,.11.44.93.93,0,0,0,.28.34,1.14,1.14,0,0,0,.43.2A1.7,1.7,0,0,0,300,326.59Z"/><path d="M309.18,322H310l-2.31,6.36a2.92,2.92,0,0,1-.18.39.73.73,0,0,1-.22.24.77.77,0,0,1-.32.13,2.21,2.21,0,0,1-.48,0h-.41v-.71h.81l.39-1.1L305.32,322h.8l1.24,3.51.24.83h0l.28-.83Z"/><path d="M312.89,327.3a2.27,2.27,0,0,1-.95-.19,1.93,1.93,0,0,1-.73-.54,2.61,2.61,0,0,1-.48-.85,3.51,3.51,0,0,1-.17-1.12,3.59,3.59,0,0,1,.17-1.11,2.51,2.51,0,0,1,.48-.85,2.07,2.07,0,0,1,.73-.55,2.47,2.47,0,0,1,1.9,0,2.07,2.07,0,0,1,.73.55,2.35,2.35,0,0,1,.48.85,3.31,3.31,0,0,1,.17,1.11,3.25,3.25,0,0,1-.17,1.12,2.44,2.44,0,0,1-.48.85,1.93,1.93,0,0,1-.73.54A2.27,2.27,0,0,1,312.89,327.3Zm0-.71a1.42,1.42,0,0,0,1.06-.4,1.59,1.59,0,0,0,.41-1.22v-.74A1.62,1.62,0,0,0,314,323a1.47,1.47,0,0,0-1.06-.4,1.48,1.48,0,0,0-1.06.4,1.66,1.66,0,0,0-.41,1.22V325a1.63,1.63,0,0,0,.41,1.22A1.44,1.44,0,0,0,312.89,326.59Z"/><path d="M319.72,326.35h0a2.37,2.37,0,0,1-.19.35,1.42,1.42,0,0,1-.29.31,1.22,1.22,0,0,1-.41.21,1.61,1.61,0,0,1-.56.08,1.64,1.64,0,0,1-1.27-.51,2.12,2.12,0,0,1-.47-1.46V322h.8v3.18c0,.93.39,1.39,1.18,1.39a1.84,1.84,0,0,0,.47-.06,1.32,1.32,0,0,0,.4-.18,1,1,0,0,0,.28-.3.93.93,0,0,0,.1-.45V322h.8v5.16h-.8Z"/><path d="M322.22,327.18V322h.8v1h.05a1.71,1.71,0,0,1,.5-.66,1.56,1.56,0,0,1,1-.29h.31v.8h-.47a1.73,1.73,0,0,0-1,.25.71.71,0,0,0-.37.61v3.5Z"/><path d="M331.55,326.35h0a1.57,1.57,0,0,1-1.51.95,1.92,1.92,0,0,1-.87-.19,1.72,1.72,0,0,1-.66-.54,2.19,2.19,0,0,1-.42-.85,3.84,3.84,0,0,1-.15-1.12,3.94,3.94,0,0,1,.15-1.12,2.34,2.34,0,0,1,.42-.85,1.92,1.92,0,0,1,.66-.54,2.06,2.06,0,0,1,.87-.19,1.74,1.74,0,0,1,.93.24,1.43,1.43,0,0,1,.58.71h0v-3.07h.8v7.4h-.8Zm-1.33.24a1.81,1.81,0,0,0,.52-.07,1.17,1.17,0,0,0,.42-.2,1,1,0,0,0,.29-.34.89.89,0,0,0,.1-.44v-1.93a.82.82,0,0,0-.1-.4,1.1,1.1,0,0,0-.29-.32,1.63,1.63,0,0,0-.42-.2,1.82,1.82,0,0,0-.52-.08,1.4,1.4,0,0,0-1.07.43,1.59,1.59,0,0,0-.39,1.12v.89a1.61,1.61,0,0,0,.39,1.12A1.39,1.39,0,0,0,330.22,326.59Z"/><path d="M337.8,327.18a.77.77,0,0,1-.64-.24,1.17,1.17,0,0,1-.25-.6h-.05a1.32,1.32,0,0,1-.56.72,1.74,1.74,0,0,1-.93.24,1.79,1.79,0,0,1-1.27-.42,1.46,1.46,0,0,1-.46-1.14,1.31,1.31,0,0,1,.54-1.12,2.82,2.82,0,0,1,1.66-.39h1v-.51a1.14,1.14,0,0,0-.3-.84,1.3,1.3,0,0,0-.92-.29,1.38,1.38,0,0,0-.78.21,1.78,1.78,0,0,0-.53.56l-.48-.45a1.75,1.75,0,0,1,.67-.71,2.08,2.08,0,0,1,1.16-.3,2.16,2.16,0,0,1,1.46.46,1.61,1.61,0,0,1,.52,1.28v2.83h.59v.71Zm-2.3-.56a1.93,1.93,0,0,0,.55-.07,1.14,1.14,0,0,0,.43-.2.89.89,0,0,0,.28-.3.66.66,0,0,0,.1-.37v-.85H335.8a2,2,0,0,0-1,.2.66.66,0,0,0-.32.58v.21a.68.68,0,0,0,.28.59A1.18,1.18,0,0,0,335.5,326.62Z"/><path d="M340.53,327.18a.82.82,0,0,1-.63-.23.85.85,0,0,1-.22-.61v-3.61h-.85V322h.48a.5.5,0,0,0,.36-.1.57.57,0,0,0,.09-.37v-1h.72V322h1.13v.71h-1.13v3.74h1v.71Z"/><path d="M346.65,327.18a.77.77,0,0,1-.64-.24,1.17,1.17,0,0,1-.25-.6h-.05a1.32,1.32,0,0,1-.56.72,1.74,1.74,0,0,1-.93.24,1.79,1.79,0,0,1-1.27-.42,1.46,1.46,0,0,1-.46-1.14,1.31,1.31,0,0,1,.54-1.12,2.82,2.82,0,0,1,1.66-.39h1v-.51a1.14,1.14,0,0,0-.3-.84,1.3,1.3,0,0,0-.92-.29,1.38,1.38,0,0,0-.78.21,1.78,1.78,0,0,0-.53.56l-.48-.45a1.75,1.75,0,0,1,.67-.71,2.08,2.08,0,0,1,1.16-.3,2.16,2.16,0,0,1,1.46.46,1.61,1.61,0,0,1,.52,1.28v2.83h.59v.71Zm-2.3-.56a1.93,1.93,0,0,0,.55-.07,1.14,1.14,0,0,0,.43-.2.89.89,0,0,0,.28-.3.66.66,0,0,0,.1-.37v-.85h-1.06a2,2,0,0,0-1,.2.66.66,0,0,0-.32.58v.21a.68.68,0,0,0,.28.59A1.18,1.18,0,0,0,344.35,326.62Z"/><path d="M352.54,327.3a2.24,2.24,0,0,1-1-.19,1.86,1.86,0,0,1-.73-.54,2.42,2.42,0,0,1-.47-.85,3.51,3.51,0,0,1-.17-1.12,3.59,3.59,0,0,1,.17-1.11,2.34,2.34,0,0,1,.47-.85,2,2,0,0,1,.73-.55,2.4,2.4,0,0,1,1-.19,2.27,2.27,0,0,1,.93.19,2,2,0,0,1,.7.53,2.43,2.43,0,0,1,.45.79,3.18,3.18,0,0,1,.15,1v.38h-3.71V325a1.8,1.8,0,0,0,.11.62,1.44,1.44,0,0,0,.3.49,1.37,1.37,0,0,0,.48.33,1.62,1.62,0,0,0,.64.12,1.54,1.54,0,0,0,.86-.23,1.46,1.46,0,0,0,.56-.66l.57.42a2.08,2.08,0,0,1-.78.86A2.41,2.41,0,0,1,352.54,327.3Zm0-4.73a1.46,1.46,0,0,0-.6.12,1.23,1.23,0,0,0-.46.32,1.46,1.46,0,0,0-.31.49,1.8,1.8,0,0,0-.11.62v.07h2.85v-.11a1.55,1.55,0,0,0-.37-1.09A1.28,1.28,0,0,0,352.54,322.57Z"/><path d="M356.09,327.18V322h.8v.83h0a1.7,1.7,0,0,1,.54-.69,1.5,1.5,0,0,1,.92-.26,1.62,1.62,0,0,1,1.27.52,2.09,2.09,0,0,1,.46,1.45v3.31h-.8V324c0-.93-.39-1.4-1.17-1.4a1.76,1.76,0,0,0-.46.06,1.38,1.38,0,0,0-.41.18.92.92,0,0,0-.28.31.87.87,0,0,0-.11.44v3.58Z"/><path d="M363.69,327.3a2.33,2.33,0,0,1-1-.19,1.76,1.76,0,0,1-.72-.54,2.23,2.23,0,0,1-.45-.85,3.52,3.52,0,0,1-.16-1.12,3.61,3.61,0,0,1,.16-1.12,2.39,2.39,0,0,1,.45-.85,2,2,0,0,1,.72-.54,2.5,2.5,0,0,1,1-.19,2.12,2.12,0,0,1,1.24.34,2,2,0,0,1,.69.87l-.67.34a1.26,1.26,0,0,0-.46-.62,1.42,1.42,0,0,0-.8-.22,1.54,1.54,0,0,0-.63.12,1.23,1.23,0,0,0-.45.32,1.37,1.37,0,0,0-.27.49,2.06,2.06,0,0,0-.09.62V325a1.65,1.65,0,0,0,.37,1.12,1.31,1.31,0,0,0,1.07.43,1.45,1.45,0,0,0,1.4-.9l.58.39a2,2,0,0,1-.74.89A2.2,2.2,0,0,1,363.69,327.3Z"/><path d="M366.8,327.18V322h.8v1h0a1.61,1.61,0,0,1,.5-.66,1.56,1.56,0,0,1,1-.29h.31v.8H369a1.73,1.73,0,0,0-1,.25.71.71,0,0,0-.37.61v3.5Z"/><path d="M373.75,322h.79l-2.31,6.36a2.92,2.92,0,0,1-.18.39.73.73,0,0,1-.22.24.77.77,0,0,1-.32.13,2.21,2.21,0,0,1-.48,0h-.41v-.71h.81l.39-1.1L369.89,322h.8l1.24,3.51.24.83h.05l.28-.83Z"/><path d="M375.56,322h.8v.83h0a1.4,1.4,0,0,1,.59-.71,1.68,1.68,0,0,1,.92-.24,1.91,1.91,0,0,1,1.54.73,2.7,2.7,0,0,1,.42.85,4.35,4.35,0,0,1,.14,1.12,4.23,4.23,0,0,1-.14,1.12,2.5,2.5,0,0,1-.42.85,1.82,1.82,0,0,1-.67.54,1.92,1.92,0,0,1-.87.19,1.56,1.56,0,0,1-1.51-.95h0v2.83h-.8Zm2.13,4.57a1.39,1.39,0,0,0,1.07-.42,1.61,1.61,0,0,0,.39-1.12v-.89a1.59,1.59,0,0,0-.39-1.12,1.4,1.4,0,0,0-1.07-.43,1.7,1.7,0,0,0-.51.08,1.56,1.56,0,0,0-.43.2,1.26,1.26,0,0,0-.29.32,1,1,0,0,0-.1.4v1.93a1,1,0,0,0,.1.44,1.07,1.07,0,0,0,.29.34,1.14,1.14,0,0,0,.43.2A1.7,1.7,0,0,0,377.69,326.59Z"/><path d="M382.44,327.18a.82.82,0,0,1-.63-.23.85.85,0,0,1-.22-.61v-3.61h-.85V322h.48a.5.5,0,0,0,.36-.1.57.57,0,0,0,.09-.37v-1h.72V322h1.13v.71h-1.13v3.74h1.05v.71Z"/><path d="M385.21,320.81a.48.48,0,0,1-.37-.12.46.46,0,0,1-.12-.33v-.13a.44.44,0,0,1,.12-.32.45.45,0,0,1,.37-.13.49.49,0,0,1,.38.13.48.48,0,0,1,.11.32v.13a.5.5,0,0,1-.11.33A.52.52,0,0,1,385.21,320.81Zm-.4,1.21h.8v5.16h-.8Z"/><path d="M389.26,327.3a2.27,2.27,0,0,1-.95-.19,1.86,1.86,0,0,1-.73-.54,2.44,2.44,0,0,1-.48-.85,3.51,3.51,0,0,1-.17-1.12,3.59,3.59,0,0,1,.17-1.11,2.35,2.35,0,0,1,.48-.85,2,2,0,0,1,.73-.55,2.47,2.47,0,0,1,1.9,0,2.17,2.17,0,0,1,.73.55,2.35,2.35,0,0,1,.48.85,3.59,3.59,0,0,1,.17,1.11,3.51,3.51,0,0,1-.17,1.12,2.44,2.44,0,0,1-.48.85,2,2,0,0,1-.73.54A2.27,2.27,0,0,1,389.26,327.3Zm0-.71a1.44,1.44,0,0,0,1.06-.4,1.63,1.63,0,0,0,.41-1.22v-.74a1.66,1.66,0,0,0-.41-1.22,1.6,1.6,0,0,0-2.12,0,1.66,1.66,0,0,0-.41,1.22V325a1.63,1.63,0,0,0,.41,1.22A1.44,1.44,0,0,0,389.26,326.59Z"/><path d="M392.91,327.18V322h.8v.83h0a1.7,1.7,0,0,1,.54-.69,1.5,1.5,0,0,1,.92-.26,1.62,1.62,0,0,1,1.27.52,2.09,2.09,0,0,1,.46,1.45v3.31h-.8V324c0-.93-.39-1.4-1.17-1.4a1.76,1.76,0,0,0-.46.06,1.38,1.38,0,0,0-.41.18.92.92,0,0,0-.28.31.87.87,0,0,0-.11.44v3.58Z"/><path d="M401,319.78h.8v4.69h0l.79-.88L404,322h1l-1.91,2,2.1,3.12h-1l-1.71-2.63-.77.79v1.84H401Z"/><path d="M408,327.3a2.24,2.24,0,0,1-.95-.19,1.86,1.86,0,0,1-.73-.54,2.61,2.61,0,0,1-.48-.85,3.52,3.52,0,0,1-.16-1.12,3.59,3.59,0,0,1,.16-1.11,2.51,2.51,0,0,1,.48-.85,2,2,0,0,1,.73-.55,2.4,2.4,0,0,1,.95-.19,2.27,2.27,0,0,1,.93.19,2,2,0,0,1,.7.53,2.43,2.43,0,0,1,.45.79,3.18,3.18,0,0,1,.15,1v.38h-3.71V325a1.59,1.59,0,0,0,.11.62,1.44,1.44,0,0,0,.3.49,1.28,1.28,0,0,0,.48.33,1.59,1.59,0,0,0,.64.12,1.54,1.54,0,0,0,.86-.23,1.46,1.46,0,0,0,.56-.66l.57.42a2.08,2.08,0,0,1-.78.86A2.41,2.41,0,0,1,408,327.3Zm0-4.73a1.46,1.46,0,0,0-.6.12,1.36,1.36,0,0,0-.47.32,1.44,1.44,0,0,0-.3.49,1.8,1.8,0,0,0-.11.62v.07h2.85v-.11A1.55,1.55,0,0,0,409,323,1.28,1.28,0,0,0,408,322.57Z"/><path d="M414.67,322h.79l-2.31,6.36a2.92,2.92,0,0,1-.18.39.73.73,0,0,1-.22.24.77.77,0,0,1-.32.13,2.21,2.21,0,0,1-.48,0h-.41v-.71h.81l.39-1.1L410.81,322h.8l1.24,3.51.24.83h.05l.28-.83Z"/><path d="M418,327.3a2.42,2.42,0,0,1-1.2-.27,2.58,2.58,0,0,1-.84-.74l.57-.46a2.18,2.18,0,0,0,.67.59,1.71,1.71,0,0,0,.86.2,1.22,1.22,0,0,0,.79-.22.7.7,0,0,0,.29-.62.73.73,0,0,0-.2-.51,1.17,1.17,0,0,0-.7-.3l-.41-.06a3.2,3.2,0,0,1-.66-.15,1.92,1.92,0,0,1-.53-.28,1.14,1.14,0,0,1-.34-.44,1.32,1.32,0,0,1-.13-.62,1.53,1.53,0,0,1,.14-.66,1.37,1.37,0,0,1,.38-.48,1.79,1.79,0,0,1,.59-.28,2.86,2.86,0,0,1,.73-.1,2.16,2.16,0,0,1,1.8.83l-.53.48a1.54,1.54,0,0,0-.5-.43,1.62,1.62,0,0,0-.83-.2,1.13,1.13,0,0,0-.76.22.72.72,0,0,0-.25.58.6.6,0,0,0,.25.55,1.78,1.78,0,0,0,.74.25l.4.06a2.13,2.13,0,0,1,1.22.5,1.29,1.29,0,0,1,.36.95,1.45,1.45,0,0,1-.51,1.18A2.09,2.09,0,0,1,418,327.3Z"/><path d="M279.52,334h.78l.55,2.23.55,2.26h0l.63-2.26.65-2.23h.71l.67,2.23.64,2.26h0l.53-2.26.56-2.23h.75l-1.37,5.16h-1l-.72-2.48-.45-1.57h0l-.44,1.57-.72,2.48h-1Z"/><path d="M288.14,332.81a.48.48,0,0,1-.37-.12.46.46,0,0,1-.12-.33v-.13a.44.44,0,0,1,.12-.32.45.45,0,0,1,.37-.13.49.49,0,0,1,.38.13.48.48,0,0,1,.11.32v.13a.5.5,0,0,1-.11.33A.52.52,0,0,1,288.14,332.81Zm-.4,1.21h.8v5.16h-.8Z"/><path d="M291.38,339.18a.82.82,0,0,1-.63-.23.85.85,0,0,1-.22-.61v-3.61h-.85V334h.48a.5.5,0,0,0,.36-.1.57.57,0,0,0,.09-.37v-1h.72V334h1.13v.71h-1.13v3.74h1.05v.71Z"/><path d="M293.75,331.78h.8v3.07h0a1.7,1.7,0,0,1,.54-.69,1.52,1.52,0,0,1,.92-.26,1.62,1.62,0,0,1,1.27.52,2.09,2.09,0,0,1,.46,1.45v3.31H297V336c0-.93-.39-1.4-1.17-1.4a1.76,1.76,0,0,0-.46.06,1.38,1.38,0,0,0-.41.18.92.92,0,0,0-.28.31.87.87,0,0,0-.11.44v3.58h-.8Z"/><path d="M305.54,339.18a.77.77,0,0,1-.64-.24,1.17,1.17,0,0,1-.25-.6h0a1.32,1.32,0,0,1-.56.72,1.74,1.74,0,0,1-.93.24,1.79,1.79,0,0,1-1.27-.42,1.46,1.46,0,0,1-.46-1.14,1.31,1.31,0,0,1,.54-1.12,2.82,2.82,0,0,1,1.66-.39h1v-.51a1.14,1.14,0,0,0-.3-.84,1.3,1.3,0,0,0-.92-.29,1.38,1.38,0,0,0-.78.21,1.78,1.78,0,0,0-.53.56l-.48-.45a1.75,1.75,0,0,1,.67-.71,2.08,2.08,0,0,1,1.16-.3,2.16,2.16,0,0,1,1.46.46,1.61,1.61,0,0,1,.52,1.28v2.83H306v.71Zm-2.3-.56a1.93,1.93,0,0,0,.55-.07,1.14,1.14,0,0,0,.43-.2.89.89,0,0,0,.28-.3.66.66,0,0,0,.1-.37v-.85h-1.06a2,2,0,0,0-1,.2.66.66,0,0,0-.32.58v.21a.68.68,0,0,0,.28.59A1.18,1.18,0,0,0,303.24,338.62Z"/><path d="M307.13,339.18V334h.8v.83h0a1.7,1.7,0,0,1,.54-.69,1.5,1.5,0,0,1,.92-.26,1.62,1.62,0,0,1,1.27.52,2.09,2.09,0,0,1,.46,1.45v3.31h-.8V336c0-.93-.39-1.4-1.17-1.4a1.76,1.76,0,0,0-.46.06,1.38,1.38,0,0,0-.41.18.92.92,0,0,0-.28.31.87.87,0,0,0-.11.44v3.58Z"/><path d="M318.92,339.18a.77.77,0,0,1-.64-.24,1.17,1.17,0,0,1-.25-.6h0a1.32,1.32,0,0,1-.56.72,1.74,1.74,0,0,1-.93.24,1.79,1.79,0,0,1-1.27-.42,1.46,1.46,0,0,1-.46-1.14,1.31,1.31,0,0,1,.54-1.12,2.82,2.82,0,0,1,1.66-.39h1v-.51a1.14,1.14,0,0,0-.3-.84,1.3,1.3,0,0,0-.92-.29,1.38,1.38,0,0,0-.78.21,1.78,1.78,0,0,0-.53.56l-.48-.45a1.75,1.75,0,0,1,.67-.71,2.08,2.08,0,0,1,1.16-.3,2.16,2.16,0,0,1,1.46.46,1.61,1.61,0,0,1,.52,1.28v2.83h.59v.71Zm-2.3-.56a1.93,1.93,0,0,0,.55-.07,1.14,1.14,0,0,0,.43-.2.89.89,0,0,0,.28-.3.66.66,0,0,0,.1-.37v-.85h-1.06a2,2,0,0,0-1,.2.66.66,0,0,0-.32.58v.21a.68.68,0,0,0,.28.59A1.18,1.18,0,0,0,316.62,338.62Z"/><path d="M323.81,338.35h0a1.56,1.56,0,0,1-1.51.95,1.92,1.92,0,0,1-.87-.19,1.72,1.72,0,0,1-.66-.54,2.19,2.19,0,0,1-.42-.85,3.84,3.84,0,0,1-.15-1.12,3.94,3.94,0,0,1,.15-1.12,2.34,2.34,0,0,1,.42-.85,1.92,1.92,0,0,1,.66-.54,2.06,2.06,0,0,1,.87-.19,1.74,1.74,0,0,1,.93.24,1.43,1.43,0,0,1,.58.71h0v-3.07h.8v7.4h-.8Zm-1.33.24a1.81,1.81,0,0,0,.52-.07,1.17,1.17,0,0,0,.42-.2,1,1,0,0,0,.29-.34.89.89,0,0,0,.1-.44v-1.93a.82.82,0,0,0-.1-.4,1.1,1.1,0,0,0-.29-.32,1.63,1.63,0,0,0-.42-.2,1.82,1.82,0,0,0-.52-.08,1.4,1.4,0,0,0-1.07.43,1.59,1.59,0,0,0-.39,1.12v.89a1.61,1.61,0,0,0,.39,1.12A1.39,1.39,0,0,0,322.48,338.59Z"/><path d="M329.61,338.35h0a1.57,1.57,0,0,1-1.51.95,1.92,1.92,0,0,1-.87-.19,1.72,1.72,0,0,1-.66-.54,2.19,2.19,0,0,1-.42-.85,3.84,3.84,0,0,1-.15-1.12,3.94,3.94,0,0,1,.15-1.12,2.34,2.34,0,0,1,.42-.85,1.92,1.92,0,0,1,.66-.54,2.06,2.06,0,0,1,.87-.19,1.74,1.74,0,0,1,.93.24,1.43,1.43,0,0,1,.58.71h0v-3.07h.8v7.4h-.8Zm-1.33.24a1.81,1.81,0,0,0,.52-.07,1.17,1.17,0,0,0,.42-.2,1,1,0,0,0,.29-.34.89.89,0,0,0,.1-.44v-1.93a.82.82,0,0,0-.1-.4,1.1,1.1,0,0,0-.29-.32,1.63,1.63,0,0,0-.42-.2,1.82,1.82,0,0,0-.52-.08,1.4,1.4,0,0,0-1.07.43,1.59,1.59,0,0,0-.39,1.12v.89a1.61,1.61,0,0,0,.39,1.12A1.39,1.39,0,0,0,328.28,338.59Z"/><path d="M334.05,339.3a2.24,2.24,0,0,1-.95-.19,1.86,1.86,0,0,1-.73-.54,2.42,2.42,0,0,1-.47-.85,3.51,3.51,0,0,1-.17-1.12,3.59,3.59,0,0,1,.17-1.11,2.34,2.34,0,0,1,.47-.85,2,2,0,0,1,.73-.55,2.4,2.4,0,0,1,.95-.19,2.27,2.27,0,0,1,.93.19,2,2,0,0,1,.7.53,2.43,2.43,0,0,1,.45.79,3.18,3.18,0,0,1,.15,1v.38h-3.71V337a1.8,1.8,0,0,0,.11.62,1.44,1.44,0,0,0,.3.49,1.37,1.37,0,0,0,.48.33,1.62,1.62,0,0,0,.64.12,1.54,1.54,0,0,0,.86-.23,1.46,1.46,0,0,0,.56-.66l.57.42a2.08,2.08,0,0,1-.78.86A2.41,2.41,0,0,1,334.05,339.3Zm0-4.73a1.46,1.46,0,0,0-.6.12,1.23,1.23,0,0,0-.46.32,1.46,1.46,0,0,0-.31.49,1.8,1.8,0,0,0-.11.62v.07h2.85v-.11a1.55,1.55,0,0,0-.37-1.09A1.28,1.28,0,0,0,334.05,334.57Z"/><path d="M340.9,338.35h0a1.57,1.57,0,0,1-1.51.95,1.92,1.92,0,0,1-.87-.19,1.72,1.72,0,0,1-.66-.54,2.19,2.19,0,0,1-.42-.85,3.84,3.84,0,0,1-.15-1.12,3.94,3.94,0,0,1,.15-1.12,2.34,2.34,0,0,1,.42-.85,1.92,1.92,0,0,1,.66-.54,2.06,2.06,0,0,1,.87-.19,1.74,1.74,0,0,1,.93.24,1.43,1.43,0,0,1,.58.71h0v-3.07h.8v7.4h-.8Zm-1.33.24a1.81,1.81,0,0,0,.52-.07,1.17,1.17,0,0,0,.42-.2,1,1,0,0,0,.29-.34.89.89,0,0,0,.1-.44v-1.93a.82.82,0,0,0-.1-.4,1.1,1.1,0,0,0-.29-.32,1.63,1.63,0,0,0-.42-.2,1.82,1.82,0,0,0-.52-.08,1.4,1.4,0,0,0-1.07.43,1.59,1.59,0,0,0-.39,1.12v.89a1.61,1.61,0,0,0,.39,1.12A1.39,1.39,0,0,0,339.57,338.59Z"/><path d="M346.61,339.18A.82.82,0,0,1,346,339a.84.84,0,0,1-.22-.6v-6.57h.8v6.69h.76v.71Z"/><path d="M352.23,339.18a.77.77,0,0,1-.64-.24,1.17,1.17,0,0,1-.25-.6h0a1.32,1.32,0,0,1-.56.72,1.74,1.74,0,0,1-.93.24,1.79,1.79,0,0,1-1.27-.42,1.46,1.46,0,0,1-.46-1.14,1.31,1.31,0,0,1,.54-1.12,2.82,2.82,0,0,1,1.66-.39h1v-.51a1.14,1.14,0,0,0-.3-.84,1.3,1.3,0,0,0-.92-.29,1.38,1.38,0,0,0-.78.21,1.78,1.78,0,0,0-.53.56l-.48-.45a1.75,1.75,0,0,1,.67-.71,2.08,2.08,0,0,1,1.16-.3,2.16,2.16,0,0,1,1.46.46,1.61,1.61,0,0,1,.52,1.28v2.83h.59v.71Zm-2.3-.56a1.93,1.93,0,0,0,.55-.07,1.14,1.14,0,0,0,.43-.2.89.89,0,0,0,.28-.3.66.66,0,0,0,.1-.37v-.85h-1.06a2,2,0,0,0-1,.2.66.66,0,0,0-.32.58v.21a.68.68,0,0,0,.28.59A1.18,1.18,0,0,0,349.93,338.62Z"/><path d="M357,334h.79l-2.31,6.36a2.92,2.92,0,0,1-.18.39.73.73,0,0,1-.22.24.77.77,0,0,1-.32.13,2.21,2.21,0,0,1-.48,0h-.41v-.71h.81l.39-1.1L353.09,334h.8l1.24,3.51.24.83h.05l.28-.83Z"/><path d="M360.65,339.3a2.24,2.24,0,0,1-.95-.19,1.86,1.86,0,0,1-.73-.54,2.42,2.42,0,0,1-.47-.85,3.51,3.51,0,0,1-.17-1.12,3.59,3.59,0,0,1,.17-1.11,2.34,2.34,0,0,1,.47-.85,2,2,0,0,1,.73-.55,2.4,2.4,0,0,1,.95-.19,2.27,2.27,0,0,1,.93.19,2,2,0,0,1,.7.53,2.43,2.43,0,0,1,.45.79,3.18,3.18,0,0,1,.15,1v.38h-3.71V337a1.8,1.8,0,0,0,.11.62,1.44,1.44,0,0,0,.3.49,1.37,1.37,0,0,0,.48.33,1.62,1.62,0,0,0,.64.12,1.54,1.54,0,0,0,.86-.23,1.46,1.46,0,0,0,.56-.66l.57.42a2.08,2.08,0,0,1-.78.86A2.41,2.41,0,0,1,360.65,339.3Zm0-4.73a1.46,1.46,0,0,0-.6.12,1.23,1.23,0,0,0-.46.32,1.46,1.46,0,0,0-.31.49,1.8,1.8,0,0,0-.11.62v.07H362v-.11a1.55,1.55,0,0,0-.37-1.09A1.28,1.28,0,0,0,360.65,334.57Z"/><path d="M364.2,339.18V334h.8v1h.05a1.61,1.61,0,0,1,.5-.66,1.56,1.56,0,0,1,1-.29h.31v.8h-.47a1.73,1.73,0,0,0-1,.25.71.71,0,0,0-.37.61v3.5Z"/><path d="M372.18,339.3a2.27,2.27,0,0,1-.95-.19,1.86,1.86,0,0,1-.73-.54,2.44,2.44,0,0,1-.48-.85,3.51,3.51,0,0,1-.17-1.12,3.59,3.59,0,0,1,.17-1.11,2.35,2.35,0,0,1,.48-.85,2,2,0,0,1,.73-.55,2.47,2.47,0,0,1,1.9,0,2.17,2.17,0,0,1,.73.55,2.35,2.35,0,0,1,.48.85,3.59,3.59,0,0,1,.17,1.11,3.51,3.51,0,0,1-.17,1.12,2.44,2.44,0,0,1-.48.85,2,2,0,0,1-.73.54A2.27,2.27,0,0,1,372.18,339.3Zm0-.71a1.44,1.44,0,0,0,1.06-.4,1.63,1.63,0,0,0,.41-1.22v-.74a1.66,1.66,0,0,0-.41-1.22,1.6,1.6,0,0,0-2.12,0,1.66,1.66,0,0,0-.41,1.22V337a1.63,1.63,0,0,0,.41,1.22A1.44,1.44,0,0,0,372.18,338.59Z"/><path d="M376.05,334.73h-.84V334h.84v-1a1.28,1.28,0,0,1,.28-.87,1.06,1.06,0,0,1,.85-.33H378v.71h-1.11V334H378v.71h-1.11v4.45h-.8Z"/><path d="M382.92,339.3a2.49,2.49,0,0,1-1.21-.27,2.66,2.66,0,0,1-.83-.74l.57-.46a2.18,2.18,0,0,0,.67.59,1.71,1.71,0,0,0,.86.2,1.27,1.27,0,0,0,.8-.22.75.75,0,0,0,.28-.62.72.72,0,0,0-.19-.51,1.21,1.21,0,0,0-.71-.3l-.41-.06a3.2,3.2,0,0,1-.66-.15,1.62,1.62,0,0,1-.52-.28,1.29,1.29,0,0,1-.36-.44,1.46,1.46,0,0,1-.12-.62,1.53,1.53,0,0,1,.14-.66,1.29,1.29,0,0,1,.39-.48,1.65,1.65,0,0,1,.58-.28,2.86,2.86,0,0,1,.73-.1,2.13,2.13,0,0,1,1.8.83l-.53.48a1.54,1.54,0,0,0-.5-.43,1.62,1.62,0,0,0-.83-.2,1.1,1.1,0,0,0-.75.22.72.72,0,0,0-.26.58.6.6,0,0,0,.26.55,1.73,1.73,0,0,0,.73.25l.4.06a2.13,2.13,0,0,1,1.22.5,1.29,1.29,0,0,1,.36.95,1.45,1.45,0,0,1-.51,1.18A2.09,2.09,0,0,1,382.92,339.3Z"/><path d="M388.18,339.3a2.24,2.24,0,0,1-.95-.19,1.86,1.86,0,0,1-.73-.54,2.42,2.42,0,0,1-.47-.85,3.51,3.51,0,0,1-.17-1.12,3.59,3.59,0,0,1,.17-1.11,2.34,2.34,0,0,1,.47-.85,2,2,0,0,1,.73-.55,2.4,2.4,0,0,1,.95-.19,2.27,2.27,0,0,1,.93.19,2,2,0,0,1,.7.53,2.43,2.43,0,0,1,.45.79,3.18,3.18,0,0,1,.15,1v.38H386.7V337a1.8,1.8,0,0,0,.11.62,1.44,1.44,0,0,0,.3.49,1.37,1.37,0,0,0,.48.33,1.62,1.62,0,0,0,.64.12,1.54,1.54,0,0,0,.86-.23,1.46,1.46,0,0,0,.56-.66l.57.42a2.08,2.08,0,0,1-.78.86A2.41,2.41,0,0,1,388.18,339.3Zm0-4.73a1.46,1.46,0,0,0-.6.12,1.23,1.23,0,0,0-.46.32,1.46,1.46,0,0,0-.31.49,1.8,1.8,0,0,0-.11.62v.07h2.85v-.11a1.55,1.55,0,0,0-.37-1.09A1.28,1.28,0,0,0,388.18,334.57Z"/><path d="M393.65,339.3a2.33,2.33,0,0,1-1-.19,1.76,1.76,0,0,1-.72-.54,2.23,2.23,0,0,1-.45-.85,3.52,3.52,0,0,1-.16-1.12,3.61,3.61,0,0,1,.16-1.12,2.39,2.39,0,0,1,.45-.85,2,2,0,0,1,.72-.54,2.5,2.5,0,0,1,1-.19,2.06,2.06,0,0,1,1.23.34,1.93,1.93,0,0,1,.7.87l-.67.34a1.26,1.26,0,0,0-.46-.62,1.42,1.42,0,0,0-.8-.22,1.54,1.54,0,0,0-.63.12,1.23,1.23,0,0,0-.45.32,1.37,1.37,0,0,0-.27.49,2.06,2.06,0,0,0-.09.62V337a1.65,1.65,0,0,0,.37,1.12,1.31,1.31,0,0,0,1.07.43,1.45,1.45,0,0,0,1.4-.9l.58.39a2,2,0,0,1-.75.89A2.17,2.17,0,0,1,393.65,339.3Z"/><path d="M399.94,338.35h0a2.37,2.37,0,0,1-.19.35,1.42,1.42,0,0,1-.29.31,1.22,1.22,0,0,1-.41.21,1.61,1.61,0,0,1-.56.08,1.64,1.64,0,0,1-1.27-.51,2.12,2.12,0,0,1-.47-1.46V334h.8v3.18c0,.93.39,1.39,1.18,1.39a1.84,1.84,0,0,0,.47-.06,1.27,1.27,0,0,0,.39-.18.8.8,0,0,0,.28-.3.84.84,0,0,0,.11-.45V334h.8v5.16h-.8Z"/><path d="M402.44,339.18V334h.8v1h.05a1.61,1.61,0,0,1,.5-.66,1.56,1.56,0,0,1,1-.29h.31v.8h-.47a1.73,1.73,0,0,0-1,.25.71.71,0,0,0-.37.61v3.5Z"/><path d="M406.51,332.81a.52.52,0,0,1-.38-.12.5.5,0,0,1-.11-.33v-.13a.48.48,0,0,1,.11-.32.49.49,0,0,1,.38-.13.45.45,0,0,1,.37.13.44.44,0,0,1,.12.32v.13a.46.46,0,0,1-.12.33A.48.48,0,0,1,406.51,332.81Zm-.4,1.21h.8v5.16h-.8Z"/><path d="M409.75,339.18a.82.82,0,0,1-.63-.23.85.85,0,0,1-.22-.61v-3.61h-.85V334h.48a.46.46,0,0,0,.35-.1.51.51,0,0,0,.1-.37v-1h.72V334h1.13v.71H409.7v3.74h1.05v.71Z"/><path d="M415.3,334h.79l-2.31,6.36a2.92,2.92,0,0,1-.18.39.73.73,0,0,1-.22.24.77.77,0,0,1-.32.13,2.21,2.21,0,0,1-.48,0h-.41v-.71H413l.39-1.1L411.44,334h.8l1.24,3.51.24.83h0l.28-.83Z"/><path class="cls-15" d="M82,118.5h87a0,0,0,0,1,0,0v25a4,4,0,0,1-4,4H86a4,4,0,0,1-4-4v-25A0,0,0,0,1,82,118.5Z"/><path d="M98.51,134.18l-.7-2.06H95l-.7,2.06h-.85l2.44-7H97l2.44,7ZM96.42,128h0l-1.18,3.4H97.6Z"/><path d="M103.77,133.35h0a1.56,1.56,0,0,1-1.51,1,1.92,1.92,0,0,1-.87-.19,1.72,1.72,0,0,1-.66-.54,2.19,2.19,0,0,1-.42-.85,3.84,3.84,0,0,1-.15-1.12,3.94,3.94,0,0,1,.15-1.12,2.34,2.34,0,0,1,.42-.85,1.92,1.92,0,0,1,.66-.54,2.06,2.06,0,0,1,.87-.19,1.74,1.74,0,0,1,.93.24,1.43,1.43,0,0,1,.58.71h0v-3.07h.8v7.4h-.8Zm-1.33.24a1.81,1.81,0,0,0,.52-.07,1.17,1.17,0,0,0,.42-.2,1,1,0,0,0,.29-.34.89.89,0,0,0,.1-.44v-1.93a.82.82,0,0,0-.1-.4,1.1,1.1,0,0,0-.29-.32,1.63,1.63,0,0,0-.42-.2,1.82,1.82,0,0,0-.52-.08,1.4,1.4,0,0,0-1.07.43,1.59,1.59,0,0,0-.39,1.12v.89a1.61,1.61,0,0,0,.39,1.12A1.39,1.39,0,0,0,102.44,133.59Z"/><path d="M109.57,133.35h0a1.56,1.56,0,0,1-1.51,1,1.92,1.92,0,0,1-.87-.19,1.72,1.72,0,0,1-.66-.54,2.19,2.19,0,0,1-.42-.85,3.84,3.84,0,0,1-.15-1.12,3.94,3.94,0,0,1,.15-1.12,2.34,2.34,0,0,1,.42-.85,1.92,1.92,0,0,1,.66-.54,2.06,2.06,0,0,1,.87-.19,1.74,1.74,0,0,1,.93.24,1.43,1.43,0,0,1,.58.71h0v-3.07h.8v7.4h-.8Zm-1.33.24a1.81,1.81,0,0,0,.52-.07,1.17,1.17,0,0,0,.42-.2,1,1,0,0,0,.29-.34.89.89,0,0,0,.1-.44v-1.93a.82.82,0,0,0-.1-.4,1.1,1.1,0,0,0-.29-.32,1.63,1.63,0,0,0-.42-.2,1.82,1.82,0,0,0-.52-.08,1.4,1.4,0,0,0-1.07.43,1.59,1.59,0,0,0-.39,1.12v.89a1.61,1.61,0,0,0,.39,1.12A1.39,1.39,0,0,0,108.24,133.59Z"/><path d="M114.43,134.18V129h.8V130h0a1.71,1.71,0,0,1,.5-.66,1.56,1.56,0,0,1,1-.29h.31v.8h-.47a1.73,1.73,0,0,0-1,.25.71.71,0,0,0-.37.61v3.5Z"/><path d="M120,134.3a2.27,2.27,0,0,1-1-.19,1.93,1.93,0,0,1-.73-.54,2.61,2.61,0,0,1-.48-.85,3.51,3.51,0,0,1-.17-1.12,3.59,3.59,0,0,1,.17-1.11,2.51,2.51,0,0,1,.48-.85,2.07,2.07,0,0,1,.73-.55,2.47,2.47,0,0,1,1.9,0,2.07,2.07,0,0,1,.73.55,2.35,2.35,0,0,1,.48.85,3.59,3.59,0,0,1,.17,1.11,3.51,3.51,0,0,1-.17,1.12,2.44,2.44,0,0,1-.48.85,1.93,1.93,0,0,1-.73.54A2.27,2.27,0,0,1,120,134.3Zm0-.71a1.42,1.42,0,0,0,1.06-.4,1.63,1.63,0,0,0,.41-1.22v-.74a1.66,1.66,0,0,0-.41-1.22,1.47,1.47,0,0,0-1.06-.4,1.48,1.48,0,0,0-1.06.4,1.66,1.66,0,0,0-.41,1.22V132a1.63,1.63,0,0,0,.41,1.22A1.44,1.44,0,0,0,120,133.59Z"/><path d="M125.6,134.3a2.27,2.27,0,0,1-.95-.19,1.86,1.86,0,0,1-.73-.54,2.44,2.44,0,0,1-.48-.85,3.51,3.51,0,0,1-.17-1.12,3.59,3.59,0,0,1,.17-1.11,2.35,2.35,0,0,1,.48-.85,2,2,0,0,1,.73-.55,2.47,2.47,0,0,1,1.9,0,2.17,2.17,0,0,1,.73.55,2.35,2.35,0,0,1,.48.85,3.59,3.59,0,0,1,.17,1.11,3.51,3.51,0,0,1-.17,1.12,2.44,2.44,0,0,1-.48.85,2,2,0,0,1-.73.54A2.27,2.27,0,0,1,125.6,134.3Zm0-.71a1.44,1.44,0,0,0,1.06-.4,1.63,1.63,0,0,0,.41-1.22v-.74a1.66,1.66,0,0,0-.41-1.22,1.6,1.6,0,0,0-2.12,0,1.66,1.66,0,0,0-.41,1.22V132a1.63,1.63,0,0,0,.41,1.22A1.44,1.44,0,0,0,125.6,133.59Z"/><path d="M130.39,134.18a.82.82,0,0,1-.63-.23.85.85,0,0,1-.22-.61v-3.61h-.85V129h.48a.5.5,0,0,0,.36-.1.57.57,0,0,0,.09-.37v-1h.72V129h1.13v.71h-1.13v3.74h1v.71Z"/><path d="M135.12,126.78h.8v4.69h0l.79-.88,1.46-1.57h1l-1.91,2,2.1,3.12h-1l-1.71-2.63-.77.79v1.84h-.8Z"/><path d="M142.16,134.3a2.24,2.24,0,0,1-.95-.19,1.86,1.86,0,0,1-.73-.54,2.42,2.42,0,0,1-.47-.85,3.51,3.51,0,0,1-.17-1.12,3.59,3.59,0,0,1,.17-1.11,2.34,2.34,0,0,1,.47-.85,2,2,0,0,1,.73-.55,2.4,2.4,0,0,1,.95-.19,2.27,2.27,0,0,1,.93.19,2,2,0,0,1,.7.53,2.43,2.43,0,0,1,.45.79,3.18,3.18,0,0,1,.15,1v.38h-3.71V132a1.8,1.8,0,0,0,.11.62,1.44,1.44,0,0,0,.3.49,1.37,1.37,0,0,0,.48.33,1.62,1.62,0,0,0,.64.12,1.54,1.54,0,0,0,.86-.23,1.46,1.46,0,0,0,.56-.66l.57.42a2.08,2.08,0,0,1-.78.86A2.41,2.41,0,0,1,142.16,134.3Zm0-4.73a1.46,1.46,0,0,0-.6.12,1.23,1.23,0,0,0-.46.32,1.46,1.46,0,0,0-.31.49,1.8,1.8,0,0,0-.11.62v.07h2.85v-.11a1.55,1.55,0,0,0-.37-1.09A1.28,1.28,0,0,0,142.16,129.57Z"/><path d="M148.84,129h.79l-2.31,6.36a2.92,2.92,0,0,1-.18.39.73.73,0,0,1-.22.24.77.77,0,0,1-.32.13,2.21,2.21,0,0,1-.48,0h-.41v-.71h.81l.39-1.1L145,129h.8l1.24,3.51.24.83h.05l.28-.83Z"/><path d="M152.16,134.3A2.42,2.42,0,0,1,151,134a2.58,2.58,0,0,1-.84-.74l.57-.46a2.18,2.18,0,0,0,.67.59,1.71,1.71,0,0,0,.86.2,1.27,1.27,0,0,0,.8-.22.81.81,0,0,0,.09-1.13,1.21,1.21,0,0,0-.71-.3l-.41-.06a3.2,3.2,0,0,1-.66-.15,1.73,1.73,0,0,1-.52-.28,1.16,1.16,0,0,1-.35-.44,1.32,1.32,0,0,1-.13-.62,1.53,1.53,0,0,1,.14-.66,1.29,1.29,0,0,1,.39-.48,1.65,1.65,0,0,1,.58-.28,2.86,2.86,0,0,1,.73-.1,2.13,2.13,0,0,1,1.8.83l-.53.48a1.54,1.54,0,0,0-.5-.43,1.62,1.62,0,0,0-.83-.2,1.1,1.1,0,0,0-.75.22.72.72,0,0,0-.26.58.6.6,0,0,0,.26.55,1.73,1.73,0,0,0,.73.25l.4.06a2.13,2.13,0,0,1,1.22.5,1.29,1.29,0,0,1,.36.95,1.45,1.45,0,0,1-.51,1.18A2.09,2.09,0,0,1,152.16,134.3Z"/></g><g id="text"><path d="M207.69,80.35H204.2v3.54h-1.58V75.52h1.58V79h3.49V75.52h1.59v8.37h-1.59Z"/><path d="M215,77.63h1.44L213.91,85a3.14,3.14,0,0,1-.27.58,1.27,1.27,0,0,1-.36.4,1.24,1.24,0,0,1-.49.23,2.65,2.65,0,0,1-.67.07h-.92V85.06h1.12l.29-.88-2.24-6.55h1.52l1.09,3.3.41,1.59h.07l.44-1.59Z"/><path d="M217.44,77.63H219v1H219a1.57,1.57,0,0,1,.64-.86,1.89,1.89,0,0,1,1.09-.31,2.15,2.15,0,0,1,1.83.84,4,4,0,0,1,.63,2.42,4.05,4.05,0,0,1-.63,2.44,2.15,2.15,0,0,1-1.83.85,1.83,1.83,0,0,1-1.09-.33,1.63,1.63,0,0,1-.64-.86H219v3.44h-1.53Zm2.82,5.14a1.29,1.29,0,0,0,1-.4,1.48,1.48,0,0,0,.37-1.07V80.22a1.5,1.5,0,0,0-.37-1.07,1.25,1.25,0,0,0-1-.4,1.5,1.5,0,0,0-.92.27.87.87,0,0,0-.37.73v2a.86.86,0,0,0,.37.75A1.5,1.5,0,0,0,220.26,82.77Z"/><path d="M227.17,84a3,3,0,0,1-1.24-.24,2.39,2.39,0,0,1-.93-.66,2.94,2.94,0,0,1-.58-1,4.14,4.14,0,0,1-.2-1.36,4.3,4.3,0,0,1,.19-1.34,3.2,3.2,0,0,1,.57-1,2.67,2.67,0,0,1,.92-.66,3.35,3.35,0,0,1,2.49,0,2.43,2.43,0,0,1,.89.68,2.89,2.89,0,0,1,.52,1,4,4,0,0,1,.18,1.22v.51h-4.17v.15a1.52,1.52,0,0,0,.39,1.09,1.48,1.48,0,0,0,1.14.41,1.7,1.7,0,0,0,.94-.24,2.83,2.83,0,0,0,.65-.6l.83.92a2.6,2.6,0,0,1-1,.85A3.56,3.56,0,0,1,227.17,84Zm0-5.4a1.21,1.21,0,0,0-1,.41,1.52,1.52,0,0,0-.36,1v.1h2.57v-.11a1.66,1.66,0,0,0-.32-1A1.1,1.1,0,0,0,227.14,78.64Z"/><path d="M231.33,83.89V77.63h1.54v1.3h.06a2.22,2.22,0,0,1,.18-.49,1.65,1.65,0,0,1,.33-.41,1.59,1.59,0,0,1,.49-.29,1.88,1.88,0,0,1,.65-.11h.34v1.45h-.48a2.46,2.46,0,0,0-1.18.23.79.79,0,0,0-.39.74v3.84Z"/><path d="M239,83.89V75.52h3.76a2.84,2.84,0,0,1,1,.18,2.29,2.29,0,0,1,.79.53,2.33,2.33,0,0,1,.49.82,3.27,3.27,0,0,1,.17,1.06,3.18,3.18,0,0,1-.17,1.06,2.33,2.33,0,0,1-.49.82,2.29,2.29,0,0,1-.79.53,2.84,2.84,0,0,1-1,.18h-2.18v3.19Zm1.58-4.56h2a1,1,0,0,0,.72-.24.91.91,0,0,0,.26-.7v-.56a.87.87,0,0,0-.26-.69,1,1,0,0,0-.72-.24h-2Z"/><path d="M246.45,83.89V77.63H248v1.3h.06a2.22,2.22,0,0,1,.18-.49,1.65,1.65,0,0,1,.33-.41,1.59,1.59,0,0,1,.49-.29,1.88,1.88,0,0,1,.65-.11H250v1.45h-.48a2.46,2.46,0,0,0-1.18.23.79.79,0,0,0-.39.74v3.84Z"/><path d="M253.59,84a3,3,0,0,1-1.2-.23,2.52,2.52,0,0,1-.92-.66,3.08,3.08,0,0,1-.58-1,4.72,4.72,0,0,1,0-2.72,3,3,0,0,1,.58-1,2.64,2.64,0,0,1,.92-.66,3,3,0,0,1,1.2-.22,3.11,3.11,0,0,1,1.21.22,2.55,2.55,0,0,1,.92.66,2.83,2.83,0,0,1,.58,1,4.51,4.51,0,0,1,0,2.72,2.92,2.92,0,0,1-.58,1,2.44,2.44,0,0,1-.92.66A3.11,3.11,0,0,1,253.59,84Zm0-1.24a1.24,1.24,0,0,0,1-.37,1.55,1.55,0,0,0,.35-1.09V80.17a1.54,1.54,0,0,0-.35-1.08,1.42,1.42,0,0,0-1.91,0,1.54,1.54,0,0,0-.34,1.08v1.17a1.55,1.55,0,0,0,.34,1.09A1.24,1.24,0,0,0,253.59,82.8Z"/><path d="M259.77,83.89a1.45,1.45,0,0,1-1.62-1.59V78.87h-.92V77.63h.48a.55.55,0,0,0,.47-.16.75.75,0,0,0,.13-.49V75.91h1.38v1.72H261v1.24h-1.28v3.79h1.19v1.23Z"/><path d="M264.79,84a3,3,0,0,1-1.24-.24,2.39,2.39,0,0,1-.93-.66,2.94,2.94,0,0,1-.58-1,4.14,4.14,0,0,1-.2-1.36,4.3,4.3,0,0,1,.19-1.34,3.2,3.2,0,0,1,.57-1,2.67,2.67,0,0,1,.92-.66,3.35,3.35,0,0,1,2.49,0,2.43,2.43,0,0,1,.89.68,2.89,2.89,0,0,1,.52,1,4,4,0,0,1,.18,1.22v.51h-4.17v.15a1.52,1.52,0,0,0,.39,1.09,1.48,1.48,0,0,0,1.14.41,1.7,1.7,0,0,0,.94-.24,2.83,2.83,0,0,0,.65-.6l.83.92a2.6,2.6,0,0,1-1.05.85A3.56,3.56,0,0,1,264.79,84Zm0-5.4a1.21,1.21,0,0,0-1,.41,1.52,1.52,0,0,0-.36,1v.1H266v-.11a1.66,1.66,0,0,0-.32-1A1.1,1.1,0,0,0,264.76,78.64Z"/><path d="M271.42,84a3.17,3.17,0,0,1-1.23-.23,2.4,2.4,0,0,1-.91-.66,3.05,3.05,0,0,1-.56-1,5,5,0,0,1,0-2.72,3,3,0,0,1,.56-1,2.51,2.51,0,0,1,.91-.66,3.17,3.17,0,0,1,1.23-.22,2.72,2.72,0,0,1,1.57.42,2.31,2.31,0,0,1,.89,1.16l-1.26.56a1.26,1.26,0,0,0-.4-.65,1.17,1.17,0,0,0-.8-.26,1.14,1.14,0,0,0-1,.41,1.7,1.7,0,0,0-.32,1.07v1.14a1.67,1.67,0,0,0,.32,1.06,1.14,1.14,0,0,0,1,.4,1.2,1.2,0,0,0,.86-.28,1.9,1.9,0,0,0,.46-.7l1.18.56a2.42,2.42,0,0,1-.95,1.24A2.74,2.74,0,0,1,271.42,84Z"/><path d="M277.06,83.89a1.6,1.6,0,0,1-1.2-.41,1.57,1.57,0,0,1-.42-1.18V78.87h-.92V77.63H275a.55.55,0,0,0,.47-.16.75.75,0,0,0,.13-.49V75.91H277v1.72h1.28v1.24H277v3.79h1.19v1.23Z"/><path d="M285.77,84a4,4,0,0,1-1.49-.27,3.06,3.06,0,0,1-1.14-.81,3.52,3.52,0,0,1-.72-1.34,6.07,6.07,0,0,1-.26-1.85,6.33,6.33,0,0,1,.26-1.88,3.62,3.62,0,0,1,.72-1.38,3.16,3.16,0,0,1,1.14-.85,3.77,3.77,0,0,1,1.49-.29,3.41,3.41,0,0,1,1.88.48,3.3,3.3,0,0,1,1.18,1.46l-1.35.72a1.93,1.93,0,0,0-.59-.91,1.67,1.67,0,0,0-1.12-.34,1.74,1.74,0,0,0-1.4.6,2.47,2.47,0,0,0-.53,1.68v1.32a2.41,2.41,0,0,0,.53,1.67,1.76,1.76,0,0,0,1.4.58,1.69,1.69,0,0,0,1.16-.38,2.27,2.27,0,0,0,.66-1l1.28.76a3.73,3.73,0,0,1-1.21,1.46A3.29,3.29,0,0,1,285.77,84Z"/><path d="M290.13,83.89V77.63h1.54v1.3h.06a2.22,2.22,0,0,1,.18-.49,1.65,1.65,0,0,1,.33-.41,1.59,1.59,0,0,1,.49-.29,1.88,1.88,0,0,1,.65-.11h.34v1.45h-.48a2.46,2.46,0,0,0-1.18.23.79.79,0,0,0-.39.74v3.84Z"/><path d="M298.78,77.63h1.44L297.7,85a3.14,3.14,0,0,1-.27.58,1.25,1.25,0,0,1-.35.4,1.31,1.31,0,0,1-.49.23,2.7,2.7,0,0,1-.67.07H295V85.06h1.13l.29-.88-2.25-6.55h1.53l1.09,3.3.41,1.59h.07l.43-1.59Z"/><path d="M301.23,77.63h1.54v1h0a1.67,1.67,0,0,1,.64-.86,1.91,1.91,0,0,1,1.09-.31,2.15,2.15,0,0,1,1.83.84,4,4,0,0,1,.63,2.42,4.05,4.05,0,0,1-.63,2.44,2.15,2.15,0,0,1-1.83.85,1.8,1.8,0,0,1-1.08-.33,1.65,1.65,0,0,1-.65-.86h0v3.44h-1.54Zm2.82,5.14a1.29,1.29,0,0,0,1-.4,1.48,1.48,0,0,0,.37-1.07V80.22a1.5,1.5,0,0,0-.37-1.07,1.25,1.25,0,0,0-1-.4,1.52,1.52,0,0,0-.92.27.89.89,0,0,0-.36.73v2a.87.87,0,0,0,.36.75A1.52,1.52,0,0,0,304.05,82.77Z"/><path d="M310.31,83.89a1.6,1.6,0,0,1-1.2-.41,1.57,1.57,0,0,1-.42-1.18V78.87h-.92V77.63h.48a.55.55,0,0,0,.47-.16.75.75,0,0,0,.13-.49V75.91h1.38v1.72h1.28v1.24h-1.28v3.79h1.19v1.23Z"/><path d="M315.28,84a3,3,0,0,1-1.2-.23,2.52,2.52,0,0,1-.92-.66,3.08,3.08,0,0,1-.58-1,4.72,4.72,0,0,1,0-2.72,3,3,0,0,1,.58-1,2.64,2.64,0,0,1,.92-.66,3,3,0,0,1,1.2-.22,3.11,3.11,0,0,1,1.21.22,2.55,2.55,0,0,1,.92.66,2.83,2.83,0,0,1,.58,1,4.51,4.51,0,0,1,0,2.72,2.92,2.92,0,0,1-.58,1,2.44,2.44,0,0,1-.92.66A3.11,3.11,0,0,1,315.28,84Zm0-1.24a1.24,1.24,0,0,0,1-.37,1.55,1.55,0,0,0,.35-1.09V80.17a1.54,1.54,0,0,0-.35-1.08,1.42,1.42,0,0,0-1.91,0,1.54,1.54,0,0,0-.34,1.08v1.17a1.55,1.55,0,0,0,.34,1.09A1.24,1.24,0,0,0,315.28,82.8Z"/><path d="M325.09,84a3.93,3.93,0,0,1-1.83-.39,4.11,4.11,0,0,1-1.29-1l1.06-1a3,3,0,0,0,1,.76,2.58,2.58,0,0,0,1.18.26,1.69,1.69,0,0,0,1.11-.31,1.09,1.09,0,0,0,.37-.85,1,1,0,0,0-.24-.68,1.58,1.58,0,0,0-.9-.38l-.79-.12c-1.68-.27-2.51-1.08-2.51-2.44a2.38,2.38,0,0,1,.21-1,2.1,2.1,0,0,1,.6-.78,2.74,2.74,0,0,1,1-.5,4.08,4.08,0,0,1,1.26-.18,4,4,0,0,1,1.66.32,3.1,3.1,0,0,1,1.21.92l-1.08,1a2.46,2.46,0,0,0-.75-.61,2.35,2.35,0,0,0-1.12-.24,1.72,1.72,0,0,0-1,.25,1,1,0,0,0-.06,1.43,1.93,1.93,0,0,0,.89.33l.78.14a3.53,3.53,0,0,1,1.87.81,2.13,2.13,0,0,1,.61,1.63,2.75,2.75,0,0,1-.21,1.09,2.39,2.39,0,0,1-.61.84,2.79,2.79,0,0,1-1,.55A4.44,4.44,0,0,1,325.09,84Z"/><path d="M332.25,84A3,3,0,0,1,331,83.8a2.47,2.47,0,0,1-.93-.66,2.94,2.94,0,0,1-.58-1,4.42,4.42,0,0,1-.2-1.36,4,4,0,0,1,.2-1.34,2.86,2.86,0,0,1,.57-1,2.54,2.54,0,0,1,.91-.66,3,3,0,0,1,1.22-.23,2.94,2.94,0,0,1,1.27.25,2.43,2.43,0,0,1,.89.68,2.89,2.89,0,0,1,.52,1,4,4,0,0,1,.18,1.22v.51h-4.17v.15a1.52,1.52,0,0,0,.39,1.09,1.48,1.48,0,0,0,1.14.41,1.68,1.68,0,0,0,.94-.24A2.83,2.83,0,0,0,334,82l.83.92a2.48,2.48,0,0,1-1,.85A3.56,3.56,0,0,1,332.25,84Zm0-5.4a1.22,1.22,0,0,0-1,.41,1.52,1.52,0,0,0-.36,1v.1h2.57v-.11a1.61,1.61,0,0,0-.32-1A1.08,1.08,0,0,0,332.23,78.64Z"/><path d="M336.41,83.89V77.63H338v1.3H338a1.84,1.84,0,0,1,.19-.49,1.3,1.3,0,0,1,.33-.41,1.43,1.43,0,0,1,.48-.29,1.9,1.9,0,0,1,.66-.11H340v1.45h-.48a2.39,2.39,0,0,0-1.17.23.78.78,0,0,0-.4.74v3.84Z"/><path d="M342.57,83.89l-2.09-6.26H342l.88,2.7.61,2.23h.09l.61-2.23.85-2.7h1.46l-2.1,6.26Z"/><path d="M348.28,76.72a.91.91,0,0,1-.69-.22.75.75,0,0,1-.21-.55v-.24a.75.75,0,0,1,.21-.55.91.91,0,0,1,.69-.22.94.94,0,0,1,.69.22.75.75,0,0,1,.21.55V76a.75.75,0,0,1-.21.55A.94.94,0,0,1,348.28,76.72Zm-.77.91h1.54v6.26h-1.54Z"/><path d="M353.3,84a3.19,3.19,0,0,1-1.24-.23,2.29,2.29,0,0,1-.9-.66,2.89,2.89,0,0,1-.56-1,5,5,0,0,1,0-2.72,2.8,2.8,0,0,1,.56-1,2.39,2.39,0,0,1,.9-.66,3.19,3.19,0,0,1,1.24-.22,2.71,2.71,0,0,1,1.56.42,2.33,2.33,0,0,1,.9,1.16l-1.26.56a1.33,1.33,0,0,0-.4-.65,1.2,1.2,0,0,0-.8-.26,1.16,1.16,0,0,0-1,.41A1.7,1.7,0,0,0,352,80.2v1.14a1.67,1.67,0,0,0,.32,1.06,1.16,1.16,0,0,0,1,.4,1.18,1.18,0,0,0,.85-.28,1.92,1.92,0,0,0,.47-.7l1.17.56a2.4,2.4,0,0,1-.94,1.24A2.76,2.76,0,0,1,353.3,84Z"/><path d="M359.45,84a3.08,3.08,0,0,1-1.24-.24,2.44,2.44,0,0,1-.92-.66,2.8,2.8,0,0,1-.58-1,4.13,4.13,0,0,1-.21-1.36,4.29,4.29,0,0,1,.2-1.34,2.86,2.86,0,0,1,.57-1,2.63,2.63,0,0,1,.91-.66,3,3,0,0,1,1.23-.23,3,3,0,0,1,1.27.25,2.52,2.52,0,0,1,.89.68,3.07,3.07,0,0,1,.52,1,4.39,4.39,0,0,1,.17,1.22v.51H358.1v.15a1.55,1.55,0,0,0,.38,1.09,1.51,1.51,0,0,0,1.14.41,1.66,1.66,0,0,0,.94-.24,2.68,2.68,0,0,0,.66-.6l.83.92a2.6,2.6,0,0,1-1.05.85A3.61,3.61,0,0,1,359.45,84Zm0-5.4a1.2,1.2,0,0,0-1,.41,1.52,1.52,0,0,0-.36,1v.1h2.57v-.11a1.66,1.66,0,0,0-.32-1A1.1,1.1,0,0,0,359.43,78.64Z"/><path d="M365.67,84a3.28,3.28,0,0,1-1.51-.31,3.36,3.36,0,0,1-1.08-.84L364,82a2.81,2.81,0,0,0,.77.63,1.94,1.94,0,0,0,1,.23,1.3,1.3,0,0,0,.8-.2.62.62,0,0,0,.24-.52.55.55,0,0,0-.17-.44,1.09,1.09,0,0,0-.59-.22l-.63-.09a3,3,0,0,1-1.55-.58,1.61,1.61,0,0,1-.54-1.31,2,2,0,0,1,.17-.83,1.7,1.7,0,0,1,.48-.62,2.44,2.44,0,0,1,.75-.4,3.32,3.32,0,0,1,1-.13,5,5,0,0,1,.81.06,3.46,3.46,0,0,1,.64.19,2.58,2.58,0,0,1,.53.32,4.45,4.45,0,0,1,.47.41l-.9.9a2.66,2.66,0,0,0-.66-.48,1.85,1.85,0,0,0-.84-.19,1.17,1.17,0,0,0-.73.18.56.56,0,0,0-.22.47.58.58,0,0,0,.19.47,1.17,1.17,0,0,0,.63.23l.63.09c1.35.19,2,.81,2,1.85a1.78,1.78,0,0,1-.19.83,1.81,1.81,0,0,1-.52.65,2.39,2.39,0,0,1-.81.42A3.48,3.48,0,0,1,365.67,84Z"/><path d="M527.22,84a3.93,3.93,0,0,1-1.83-.39,4.11,4.11,0,0,1-1.29-1l1.07-1a3.1,3.1,0,0,0,1,.76,2.6,2.6,0,0,0,1.19.26,1.68,1.68,0,0,0,1.1-.31,1.06,1.06,0,0,0,.37-.85,1,1,0,0,0-.24-.68,1.58,1.58,0,0,0-.9-.38l-.79-.12c-1.67-.27-2.51-1.08-2.51-2.44a2.38,2.38,0,0,1,.21-1,2,2,0,0,1,.61-.78,2.61,2.61,0,0,1,1-.5,4.14,4.14,0,0,1,1.27-.18,4,4,0,0,1,1.65.32,3.14,3.14,0,0,1,1.22.92l-1.08,1a2.38,2.38,0,0,0-.76-.61,2.35,2.35,0,0,0-1.12-.24,1.71,1.71,0,0,0-1,.25.84.84,0,0,0-.34.72.89.89,0,0,0,.27.71,2,2,0,0,0,.89.33l.78.14a3.57,3.57,0,0,1,1.88.81,2.17,2.17,0,0,1,.6,1.63,2.75,2.75,0,0,1-.21,1.09,2.39,2.39,0,0,1-.61.84,2.75,2.75,0,0,1-1,.55A4.56,4.56,0,0,1,527.22,84Z"/><path d="M534.38,84a3.08,3.08,0,0,1-1.24-.24,2.44,2.44,0,0,1-.92-.66,2.8,2.8,0,0,1-.58-1,4.13,4.13,0,0,1-.21-1.36,4.29,4.29,0,0,1,.2-1.34,2.86,2.86,0,0,1,.57-1,2.63,2.63,0,0,1,.91-.66,3,3,0,0,1,1.23-.23,3,3,0,0,1,1.27.25,2.52,2.52,0,0,1,.89.68,3.07,3.07,0,0,1,.52,1,4.39,4.39,0,0,1,.17,1.22v.51H533v.15a1.55,1.55,0,0,0,.38,1.09,1.51,1.51,0,0,0,1.14.41,1.66,1.66,0,0,0,.94-.24,2.68,2.68,0,0,0,.66-.6l.83.92a2.6,2.6,0,0,1-1.05.85A3.61,3.61,0,0,1,534.38,84Zm0-5.4a1.2,1.2,0,0,0-1,.41,1.52,1.52,0,0,0-.36,1v.1h2.57v-.11a1.66,1.66,0,0,0-.32-1A1.1,1.1,0,0,0,534.36,78.64Z"/><path d="M538.55,83.89V77.63h1.53v1.3h.06a2.26,2.26,0,0,1,.19-.49,1.3,1.3,0,0,1,.33-.41,1.59,1.59,0,0,1,.49-.29,1.8,1.8,0,0,1,.65-.11h.34v1.45h-.48a2.44,2.44,0,0,0-1.18.23.8.8,0,0,0-.4.74v3.84Z"/><path d="M544.7,83.89l-2.08-6.26h1.51l.87,2.7.62,2.23h.08l.61-2.23.85-2.7h1.47l-2.1,6.26Z"/><path d="M550.42,76.72a.91.91,0,0,1-.69-.22.75.75,0,0,1-.21-.55v-.24a.75.75,0,0,1,.21-.55.91.91,0,0,1,.69-.22.9.9,0,0,1,.68.22.76.76,0,0,1,.22.55V76a.76.76,0,0,1-.22.55A.9.9,0,0,1,550.42,76.72Zm-.77.91h1.53v6.26h-1.53Z"/><path d="M555.43,84a3.17,3.17,0,0,1-1.23-.23,2.33,2.33,0,0,1-.91-.66,2.89,2.89,0,0,1-.56-1,5,5,0,0,1,0-2.72,2.8,2.8,0,0,1,.56-1,2.43,2.43,0,0,1,.91-.66,3.17,3.17,0,0,1,1.23-.22,2.74,2.74,0,0,1,1.57.42,2.31,2.31,0,0,1,.89,1.16l-1.26.56a1.26,1.26,0,0,0-.4-.65,1.18,1.18,0,0,0-.8-.26,1.14,1.14,0,0,0-1,.41,1.64,1.64,0,0,0-.32,1.07v1.14a1.62,1.62,0,0,0,.32,1.06,1.14,1.14,0,0,0,1,.4,1.18,1.18,0,0,0,.85-.28,1.92,1.92,0,0,0,.47-.7l1.18.56a2.47,2.47,0,0,1-.95,1.24A2.74,2.74,0,0,1,555.43,84Z"/><path d="M561.59,84a3,3,0,0,1-1.24-.24,2.39,2.39,0,0,1-.93-.66,2.94,2.94,0,0,1-.58-1,4.13,4.13,0,0,1-.21-1.36,4.29,4.29,0,0,1,.2-1.34,3,3,0,0,1,.57-1,2.67,2.67,0,0,1,.92-.66,3.35,3.35,0,0,1,2.49,0,2.43,2.43,0,0,1,.89.68,2.89,2.89,0,0,1,.52,1,4,4,0,0,1,.18,1.22v.51h-4.17v.15a1.52,1.52,0,0,0,.39,1.09,1.48,1.48,0,0,0,1.14.41,1.7,1.7,0,0,0,.94-.24,2.83,2.83,0,0,0,.65-.6l.83.92a2.6,2.6,0,0,1-1,.85A3.56,3.56,0,0,1,561.59,84Zm0-5.4a1.21,1.21,0,0,0-1,.41,1.52,1.52,0,0,0-.36,1v.1h2.57v-.11a1.66,1.66,0,0,0-.32-1A1.1,1.1,0,0,0,561.56,78.64Z"/><path d="M573.86,83.89l-.67-2.13h-3l-.66,2.13H568l2.81-8.37h2l2.79,8.37ZM571.73,77h-.06L570.6,80.4h2.21Z"/><path d="M221.15,157.79h-1v-8.38h3.33a2.36,2.36,0,0,1,1.73.61,2.39,2.39,0,0,1,.61,1.77,2.54,2.54,0,0,1-.42,1.51,2,2,0,0,1-1.26.79l1.92,3.7h-1.14l-1.81-3.6h-1.95Zm2.32-4.47a1.29,1.29,0,0,0,.93-.31,1.16,1.16,0,0,0,.33-.89v-.62a1.16,1.16,0,0,0-.33-.89,1.29,1.29,0,0,0-.93-.31h-2.32v3Z"/><path d="M229.88,157.93a2.87,2.87,0,0,1-1.14-.23,2.46,2.46,0,0,1-.88-.65,3.37,3.37,0,0,1-.57-1,4.56,4.56,0,0,1,0-2.67,3.31,3.31,0,0,1,.57-1,2.46,2.46,0,0,1,.88-.65,2.87,2.87,0,0,1,1.14-.23,2.8,2.8,0,0,1,1.14.23,2.55,2.55,0,0,1,.88.65,3,3,0,0,1,.57,1,4.35,4.35,0,0,1,0,2.67,3,3,0,0,1-.57,1,2.55,2.55,0,0,1-.88.65A2.8,2.8,0,0,1,229.88,157.93Zm0-.85a1.73,1.73,0,0,0,1.27-.48,2,2,0,0,0,.5-1.47v-.88a2,2,0,0,0-.5-1.47,1.92,1.92,0,0,0-2.54,0,2,2,0,0,0-.49,1.47v.88a2,2,0,0,0,.49,1.47A1.74,1.74,0,0,0,229.88,157.08Z"/><path d="M236.6,157.93a2.87,2.87,0,0,1-1.14-.23,2.46,2.46,0,0,1-.88-.65,3.37,3.37,0,0,1-.57-1,4.56,4.56,0,0,1,0-2.67,3.31,3.31,0,0,1,.57-1,2.46,2.46,0,0,1,.88-.65,2.87,2.87,0,0,1,1.14-.23,2.8,2.8,0,0,1,1.14.23,2.55,2.55,0,0,1,.88.65,3,3,0,0,1,.57,1,4.35,4.35,0,0,1,0,2.67,3,3,0,0,1-.57,1,2.55,2.55,0,0,1-.88.65A2.8,2.8,0,0,1,236.6,157.93Zm0-.85a1.73,1.73,0,0,0,1.27-.48,2,2,0,0,0,.5-1.47v-.88a2,2,0,0,0-.5-1.47,1.92,1.92,0,0,0-2.54,0,2,2,0,0,0-.49,1.47v.88a2,2,0,0,0,.49,1.47A1.74,1.74,0,0,0,236.6,157.08Z"/><path d="M242.35,157.79a1,1,0,0,1-.76-.29,1,1,0,0,1-.26-.73v-4.32h-1v-.86h.58a.57.57,0,0,0,.42-.12.64.64,0,0,0,.12-.44v-1.15h.86v1.71h1.36v.86h-1.36v4.48h1.26v.86Z"/><path d="M248,148.91h1v5.62h0l.95-1.05,1.75-1.89h1.17L250.61,154l2.52,3.75H252l-2.05-3.16-.92,1v2.21h-1Z"/><path d="M256.47,157.93a2.8,2.8,0,0,1-1.14-.23,2.55,2.55,0,0,1-.88-.65,3.15,3.15,0,0,1-.56-1,4.56,4.56,0,0,1,0-2.67,3.1,3.1,0,0,1,.56-1,2.55,2.55,0,0,1,.88-.65,2.8,2.8,0,0,1,1.14-.23,2.67,2.67,0,0,1,1.12.23,2.38,2.38,0,0,1,.84.63,2.66,2.66,0,0,1,.53.95,3.55,3.55,0,0,1,.19,1.2v.46H254.7v.29a2.15,2.15,0,0,0,.12.73,2,2,0,0,0,.36.6,1.56,1.56,0,0,0,.58.39,1.92,1.92,0,0,0,.77.15,1.8,1.8,0,0,0,1.71-1.07l.68.5a2.42,2.42,0,0,1-.93,1A2.86,2.86,0,0,1,256.47,157.93Zm0-5.68a1.89,1.89,0,0,0-.72.14,1.53,1.53,0,0,0-.55.39,1.79,1.79,0,0,0-.37.59,2,2,0,0,0-.13.74v.09h3.42v-.13a1.89,1.89,0,0,0-.45-1.32A1.55,1.55,0,0,0,256.47,152.25Z"/><path d="M264.49,151.59h.95l-2.77,7.64c-.08.18-.15.33-.22.46a.92.92,0,0,1-.26.29,1.14,1.14,0,0,1-.39.16,3.1,3.1,0,0,1-.57.05h-.5v-.86h1l.46-1.31-2.31-6.43h1l1.49,4.21.28,1h.06l.34-1Z"/><path d="M274.64,157.79l-.67-2.14h-3l-.66,2.14h-1.6l2.8-8.38h2l2.79,8.38Zm-2.13-6.94h-.06l-1.07,3.44h2.21Z"/><path d="M294.2,157.79h-1v-8.38h3.34a2.33,2.33,0,0,1,1.72.61,2.4,2.4,0,0,1,.62,1.77,2.48,2.48,0,0,1-.43,1.51,2,2,0,0,1-1.25.79l1.92,3.7H298l-1.81-3.6h-2Zm2.33-4.47a1.29,1.29,0,0,0,.93-.31,1.16,1.16,0,0,0,.33-.89v-.62a1.16,1.16,0,0,0-.33-.89,1.29,1.29,0,0,0-.93-.31H294.2v3Z"/><path d="M302.94,157.93a2.8,2.8,0,0,1-1.14-.23,2.5,2.5,0,0,1-.89-.65,3.37,3.37,0,0,1-.57-1,4.56,4.56,0,0,1,0-2.67,3.31,3.31,0,0,1,.57-1,2.5,2.5,0,0,1,.89-.65,2.92,2.92,0,0,1,2.27,0,2.55,2.55,0,0,1,.88.65,3.13,3.13,0,0,1,.58,1,4.56,4.56,0,0,1,0,2.67,3.19,3.19,0,0,1-.58,1,2.55,2.55,0,0,1-.88.65A2.78,2.78,0,0,1,302.94,157.93Zm0-.85a1.74,1.74,0,0,0,1.27-.48,2,2,0,0,0,.49-1.47v-.88a2,2,0,0,0-.49-1.47,1.74,1.74,0,0,0-1.27-.48,1.77,1.77,0,0,0-1.28.48,2,2,0,0,0-.49,1.47v.88a2,2,0,0,0,.49,1.47A1.77,1.77,0,0,0,302.94,157.08Z"/><path d="M309.66,157.93a2.8,2.8,0,0,1-1.14-.23,2.5,2.5,0,0,1-.89-.65,3.37,3.37,0,0,1-.57-1,4.56,4.56,0,0,1,0-2.67,3.31,3.31,0,0,1,.57-1,2.5,2.5,0,0,1,.89-.65,2.92,2.92,0,0,1,2.27,0,2.55,2.55,0,0,1,.88.65,3.13,3.13,0,0,1,.58,1,4.56,4.56,0,0,1,0,2.67,3.19,3.19,0,0,1-.58,1,2.55,2.55,0,0,1-.88.65A2.78,2.78,0,0,1,309.66,157.93Zm0-.85a1.74,1.74,0,0,0,1.27-.48,2,2,0,0,0,.49-1.47v-.88a2,2,0,0,0-.49-1.47,1.74,1.74,0,0,0-1.27-.48,1.77,1.77,0,0,0-1.28.48,2,2,0,0,0-.49,1.47v.88a2,2,0,0,0,.49,1.47A1.77,1.77,0,0,0,309.66,157.08Z"/><path d="M315.4,157.79a1,1,0,0,1-.76-.29,1,1,0,0,1-.26-.73v-4.32h-1v-.86h.58a.6.6,0,0,0,.43-.12.71.71,0,0,0,.11-.44v-1.15h.86v1.71h1.36v.86h-1.36v4.48h1.26v.86Z"/><path d="M321.08,148.91h1v5.62h0l1-1.05,1.75-1.89H326L323.66,154l2.52,3.75H325L323,154.63l-.92,1v2.21h-1Z"/><path d="M329.53,157.93a2.81,2.81,0,0,1-1.15-.23,2.43,2.43,0,0,1-.87-.65,3,3,0,0,1-.57-1,4.56,4.56,0,0,1,0-2.67,3,3,0,0,1,.57-1,2.43,2.43,0,0,1,.87-.65,2.81,2.81,0,0,1,1.15-.23,2.62,2.62,0,0,1,1.11.23,2.38,2.38,0,0,1,.84.63,2.68,2.68,0,0,1,.54.95,3.82,3.82,0,0,1,.18,1.2v.46h-4.45v.29a1.93,1.93,0,0,0,.13.73,1.66,1.66,0,0,0,.36.6,1.53,1.53,0,0,0,.57.39,1.94,1.94,0,0,0,.78.15,1.82,1.82,0,0,0,1-.28,1.76,1.76,0,0,0,.68-.79l.69.5a2.45,2.45,0,0,1-.94,1A2.83,2.83,0,0,1,329.53,157.93Zm0-5.68a1.81,1.81,0,0,0-.72.14,1.57,1.57,0,0,0-.56.39,1.79,1.79,0,0,0-.37.59,2.21,2.21,0,0,0-.13.74v.09h3.42v-.13a1.89,1.89,0,0,0-.45-1.32A1.54,1.54,0,0,0,329.53,152.25Z"/><path d="M337.54,151.59h.95l-2.77,7.64a2.83,2.83,0,0,1-.22.46.92.92,0,0,1-.26.29,1,1,0,0,1-.39.16,3.1,3.1,0,0,1-.57.05h-.49v-.86h1l.47-1.31-2.32-6.43h1l1.49,4.21.29,1h.06l.33-1Z"/><path d="M342.51,149.41h3.88a2.52,2.52,0,0,1,.93.16,1.92,1.92,0,0,1,.7.43,1.78,1.78,0,0,1,.44.68,2.46,2.46,0,0,1,.15.88,2.15,2.15,0,0,1-.13.81,1.45,1.45,0,0,1-.33.54,1.29,1.29,0,0,1-.48.33,1.81,1.81,0,0,1-.56.12v.07a1.9,1.9,0,0,1,.59.11,1.68,1.68,0,0,1,.59.34,2,2,0,0,1,.45.6,2,2,0,0,1,.18.91,2.65,2.65,0,0,1-.16.94,2.51,2.51,0,0,1-.45.76,1.94,1.94,0,0,1-.69.51,2,2,0,0,1-.86.19h-4.25Zm1.59,3.49h1.95a.94.94,0,0,0,.67-.23A.89.89,0,0,0,347,152v-.37a.85.85,0,0,0-.24-.65.9.9,0,0,0-.67-.24H344.1Zm0,3.54h2.2a1,1,0,0,0,.71-.23.88.88,0,0,0,.25-.68v-.41a.89.89,0,0,0-.25-.68,1,1,0,0,0-.71-.24h-2.2Z"/><path d="M369.33,157.79h-1v-8.38h3.33a2.36,2.36,0,0,1,1.73.61,2.39,2.39,0,0,1,.61,1.77,2.54,2.54,0,0,1-.42,1.51,2,2,0,0,1-1.26.79l1.92,3.7h-1.14l-1.81-3.6h-1.95Zm2.32-4.47a1.29,1.29,0,0,0,.93-.31,1.16,1.16,0,0,0,.33-.89v-.62a1.16,1.16,0,0,0-.33-.89,1.29,1.29,0,0,0-.93-.31h-2.32v3Z"/><path d="M378.06,157.93a2.87,2.87,0,0,1-1.14-.23,2.55,2.55,0,0,1-.88-.65,3.37,3.37,0,0,1-.57-1,4.56,4.56,0,0,1,0-2.67,3.31,3.31,0,0,1,.57-1,2.55,2.55,0,0,1,.88-.65,2.87,2.87,0,0,1,1.14-.23,2.8,2.8,0,0,1,1.14.23,2.55,2.55,0,0,1,.88.65,3,3,0,0,1,.57,1,4.35,4.35,0,0,1,0,2.67,3,3,0,0,1-.57,1,2.55,2.55,0,0,1-.88.65A2.8,2.8,0,0,1,378.06,157.93Zm0-.85a1.73,1.73,0,0,0,1.27-.48,2,2,0,0,0,.5-1.47v-.88a2,2,0,0,0-.5-1.47,1.92,1.92,0,0,0-2.54,0,2,2,0,0,0-.49,1.47v.88a2,2,0,0,0,.49,1.47A1.74,1.74,0,0,0,378.06,157.08Z"/><path d="M384.78,157.93a2.87,2.87,0,0,1-1.14-.23,2.46,2.46,0,0,1-.88-.65,3.37,3.37,0,0,1-.57-1,4.56,4.56,0,0,1,0-2.67,3.31,3.31,0,0,1,.57-1,2.46,2.46,0,0,1,.88-.65,2.87,2.87,0,0,1,1.14-.23,2.8,2.8,0,0,1,1.14.23,2.55,2.55,0,0,1,.88.65,3.13,3.13,0,0,1,.58,1,4.56,4.56,0,0,1,0,2.67,3.19,3.19,0,0,1-.58,1,2.55,2.55,0,0,1-.88.65A2.8,2.8,0,0,1,384.78,157.93Zm0-.85a1.73,1.73,0,0,0,1.27-.48,2,2,0,0,0,.5-1.47v-.88a2,2,0,0,0-.5-1.47,1.92,1.92,0,0,0-2.54,0,2,2,0,0,0-.49,1.47v.88a2,2,0,0,0,.49,1.47A1.74,1.74,0,0,0,384.78,157.08Z"/><path d="M390.53,157.79a1,1,0,0,1-.76-.29,1,1,0,0,1-.26-.73v-4.32h-1v-.86h.58a.57.57,0,0,0,.42-.12.64.64,0,0,0,.12-.44v-1.15h.86v1.71h1.36v.86h-1.36v4.48h1.26v.86Z"/><path d="M396.21,148.91h1v5.62h0l1-1.05,1.75-1.89h1.17L398.79,154l2.52,3.75h-1.17l-2.05-3.16-.92,1v2.21h-1Z"/><path d="M404.65,157.93a2.8,2.8,0,0,1-1.14-.23,2.55,2.55,0,0,1-.88-.65,3.15,3.15,0,0,1-.56-1,4.56,4.56,0,0,1,0-2.67,3.1,3.1,0,0,1,.56-1,2.55,2.55,0,0,1,.88-.65,2.8,2.8,0,0,1,1.14-.23,2.67,2.67,0,0,1,1.12.23,2.38,2.38,0,0,1,.84.63,2.66,2.66,0,0,1,.53.95,3.55,3.55,0,0,1,.19,1.2v.46h-4.45v.29a2.15,2.15,0,0,0,.12.73,1.84,1.84,0,0,0,.37.6,1.45,1.45,0,0,0,.57.39,1.92,1.92,0,0,0,.77.15,1.8,1.8,0,0,0,1.71-1.07l.68.5a2.42,2.42,0,0,1-.93,1A2.86,2.86,0,0,1,404.65,157.93Zm0-5.68a1.89,1.89,0,0,0-.72.14,1.53,1.53,0,0,0-.55.39,1.79,1.79,0,0,0-.37.59,2,2,0,0,0-.13.74v.09h3.42v-.13a1.89,1.89,0,0,0-.45-1.32A1.55,1.55,0,0,0,404.65,152.25Z"/><path d="M412.67,151.59h.95l-2.77,7.64c-.08.18-.15.33-.22.46a.92.92,0,0,1-.26.29,1.14,1.14,0,0,1-.39.16,3.1,3.1,0,0,1-.57.05h-.5v-.86h1l.46-1.31L408,151.59h1l1.49,4.21.28,1h.06l.34-1Z"/><path d="M420.89,157.93a3.92,3.92,0,0,1-1.49-.27,2.9,2.9,0,0,1-1.14-.81,3.68,3.68,0,0,1-.73-1.34,6.09,6.09,0,0,1-.25-1.85,6.34,6.34,0,0,1,.25-1.88,3.78,3.78,0,0,1,.73-1.38,3.11,3.11,0,0,1,1.14-.85,3.73,3.73,0,0,1,1.49-.28,3.37,3.37,0,0,1,1.87.48A3.28,3.28,0,0,1,424,151.2l-1.36.72A1.91,1.91,0,0,0,422,151a1.7,1.7,0,0,0-1.12-.34,1.78,1.78,0,0,0-1.41.6A2.47,2.47,0,0,0,419,153v1.32a2.39,2.39,0,0,0,.52,1.67,1.8,1.8,0,0,0,1.41.59,1.71,1.71,0,0,0,1.16-.39,2.11,2.11,0,0,0,.65-.95L424,156a3.75,3.75,0,0,1-1.22,1.46A3.21,3.21,0,0,1,420.89,157.93Z"/><path d="M547.24,171.79l-2-8.38h1.07l.9,4,.7,3.13h0l.78-3.13,1.06-4h1.15l1,4,.78,3.12h0l.73-3.12.94-4h1l-2.15,8.38h-1.12l-1.09-4.18-.77-3.07h0l-.8,3.07-1.11,4.18Z"/><path d="M556.55,171.79v-6.2h1v1.14h.06a2,2,0,0,1,.6-.79,1.87,1.87,0,0,1,1.19-.35h.37v1h-.56a2.14,2.14,0,0,0-1.22.3.86.86,0,0,0-.44.74v4.2Z"/><path d="M565.41,171.79a.93.93,0,0,1-.77-.29,1.38,1.38,0,0,1-.3-.72h-.06a1.58,1.58,0,0,1-.67.86,2.1,2.1,0,0,1-1.12.29,2.22,2.22,0,0,1-1.53-.5,1.8,1.8,0,0,1-.54-1.37,1.57,1.57,0,0,1,.64-1.35,3.43,3.43,0,0,1,2-.46h1.22v-.62a1.32,1.32,0,0,0-.36-1,1.5,1.5,0,0,0-1.1-.35,1.63,1.63,0,0,0-.94.25,1.93,1.93,0,0,0-.63.67l-.58-.54a2.33,2.33,0,0,1,.8-.86,2.62,2.62,0,0,1,1.4-.35,2.55,2.55,0,0,1,1.75.55,1.93,1.93,0,0,1,.62,1.53v3.4H566v.86Zm-2.76-.68a2.3,2.3,0,0,0,.66-.08,1.92,1.92,0,0,0,.52-.24,1.13,1.13,0,0,0,.33-.36.86.86,0,0,0,.12-.44v-1H563a2.36,2.36,0,0,0-1.21.24.77.77,0,0,0-.37.69v.25a.84.84,0,0,0,.33.71A1.41,1.41,0,0,0,562.65,171.11Z"/><path d="M567.32,165.59h1v1h.05a1.73,1.73,0,0,1,.7-.86,2.08,2.08,0,0,1,1.11-.28,2.37,2.37,0,0,1,1,.23,2.28,2.28,0,0,1,.8.65,2.86,2.86,0,0,1,.5,1,5.08,5.08,0,0,1,0,2.68,2.86,2.86,0,0,1-.5,1,2.28,2.28,0,0,1-.8.65,2.37,2.37,0,0,1-1,.23,1.87,1.87,0,0,1-1.81-1.14h-.05v3.4h-1Zm2.56,5.49a1.65,1.65,0,0,0,1.28-.51,2,2,0,0,0,.47-1.35v-1.06a2,2,0,0,0-.47-1.35,1.65,1.65,0,0,0-1.28-.51,2.06,2.06,0,0,0-.62.09,1.73,1.73,0,0,0-.51.25,1.16,1.16,0,0,0-.35.38,1,1,0,0,0-.12.48v2.31a1.19,1.19,0,0,0,.12.54,1.22,1.22,0,0,0,.35.4,1.51,1.51,0,0,0,.51.24A2.06,2.06,0,0,0,569.88,171.08Z"/><path d="M574.28,165.59h1v1h0a1.73,1.73,0,0,1,.7-.86,2.08,2.08,0,0,1,1.11-.28,2.37,2.37,0,0,1,1,.23,2.19,2.19,0,0,1,.8.65,3.05,3.05,0,0,1,.51,1,5.37,5.37,0,0,1,0,2.68,3.05,3.05,0,0,1-.51,1,2.19,2.19,0,0,1-.8.65,2.37,2.37,0,0,1-1,.23,1.87,1.87,0,0,1-1.81-1.14h0v3.4h-1Zm2.55,5.49a1.66,1.66,0,0,0,1.29-.51,2,2,0,0,0,.47-1.35v-1.06a2,2,0,0,0-.47-1.35,1.66,1.66,0,0,0-1.29-.51,2,2,0,0,0-.61.09,1.73,1.73,0,0,0-.51.25,1,1,0,0,0-.34.38.91.91,0,0,0-.13.48v2.31a1.16,1.16,0,0,0,.47.94,1.51,1.51,0,0,0,.51.24A2,2,0,0,0,576.83,171.08Z"/><path d="M583.57,171.93a2.81,2.81,0,0,1-1.15-.23,2.55,2.55,0,0,1-.88-.65,3.15,3.15,0,0,1-.56-1,4.56,4.56,0,0,1,0-2.67,3.1,3.1,0,0,1,.56-1,2.55,2.55,0,0,1,.88-.65,2.81,2.81,0,0,1,1.15-.23,2.65,2.65,0,0,1,1.11.23,2.38,2.38,0,0,1,.84.63,2.84,2.84,0,0,1,.54.95,3.82,3.82,0,0,1,.18,1.2v.46h-4.45v.29a1.93,1.93,0,0,0,.13.73,1.66,1.66,0,0,0,.36.6,1.45,1.45,0,0,0,.57.39,1.94,1.94,0,0,0,.78.15,1.8,1.8,0,0,0,1.7-1.07l.68.5a2.42,2.42,0,0,1-.93,1A2.85,2.85,0,0,1,583.57,171.93Zm0-5.68a1.81,1.81,0,0,0-.72.14,1.49,1.49,0,0,0-.56.39,1.79,1.79,0,0,0-.37.59,2,2,0,0,0-.13.74v.09h3.42v-.13a1.89,1.89,0,0,0-.45-1.32A1.54,1.54,0,0,0,583.57,166.25Z"/><path d="M591.79,170.79h0a1.89,1.89,0,0,1-1.81,1.14,2.38,2.38,0,0,1-1-.23,2.28,2.28,0,0,1-.8-.65,3,3,0,0,1-.5-1,5.37,5.37,0,0,1,0-2.68,3,3,0,0,1,.5-1,2.28,2.28,0,0,1,.8-.65,2.38,2.38,0,0,1,1-.23,2.08,2.08,0,0,1,1.11.28,1.79,1.79,0,0,1,.7.86h0v-3.68h1v8.88h-1Zm-1.6.29a2.11,2.11,0,0,0,.62-.09,1.71,1.71,0,0,0,.51-.24,1.16,1.16,0,0,0,.47-.94V167.5a1,1,0,0,0-.13-.48,1.12,1.12,0,0,0-.34-.38,2,2,0,0,0-.51-.25,2.11,2.11,0,0,0-.62-.09,1.65,1.65,0,0,0-1.28.51,1.9,1.9,0,0,0-.47,1.35v1.06a1.9,1.9,0,0,0,.47,1.35A1.65,1.65,0,0,0,590.19,171.08Z"/><path d="M560.57,177.81h2.81a3.73,3.73,0,0,1,1.41.26,2.86,2.86,0,0,1,1.09.79,3.55,3.55,0,0,1,.69,1.31,6.25,6.25,0,0,1,.24,1.83,6.34,6.34,0,0,1-.24,1.83,3.63,3.63,0,0,1-.69,1.31,2.84,2.84,0,0,1-1.09.78,3.55,3.55,0,0,1-1.41.27h-2.81Zm2.81,7.49a2.39,2.39,0,0,0,.94-.18,1.93,1.93,0,0,0,.75-.51,2.15,2.15,0,0,0,.48-.82,3.15,3.15,0,0,0,.18-1.11v-1.37a3.23,3.23,0,0,0-.18-1.11,2.31,2.31,0,0,0-.48-.82,2.17,2.17,0,0,0-.75-.51,2.58,2.58,0,0,0-.94-.17h-1.8v6.6Z"/><path d="M568.62,186.19v-8.38h5.11v.89h-4.1v2.81h3.86v.88h-3.86v2.91h4.1v.89Z"/><path d="M577.81,182.07l-1.19,1.32v2.8h-1v-8.38h1v4.45h0l1.2-1.45,2.53-3h1.24l-3.12,3.59,3.33,4.79H580.6Z"/><path d="M527.22,254a3.93,3.93,0,0,1-1.83-.39,4.11,4.11,0,0,1-1.29-1l1.07-1a3.1,3.1,0,0,0,1,.76,2.6,2.6,0,0,0,1.19.26,1.68,1.68,0,0,0,1.1-.31,1.06,1.06,0,0,0,.37-.85,1,1,0,0,0-.24-.68,1.58,1.58,0,0,0-.9-.38l-.79-.12c-1.67-.27-2.51-1.08-2.51-2.44a2.38,2.38,0,0,1,.21-1,2,2,0,0,1,.61-.78,2.61,2.61,0,0,1,1-.5,4.14,4.14,0,0,1,1.27-.18,4,4,0,0,1,1.65.32,3.14,3.14,0,0,1,1.22.92l-1.08,1a2.38,2.38,0,0,0-.76-.61,2.35,2.35,0,0,0-1.12-.24,1.71,1.71,0,0,0-1,.25.84.84,0,0,0-.34.72.89.89,0,0,0,.27.71,2,2,0,0,0,.89.33l.78.14a3.57,3.57,0,0,1,1.88.81,2.17,2.17,0,0,1,.6,1.63,2.75,2.75,0,0,1-.21,1.09,2.39,2.39,0,0,1-.61.84,2.75,2.75,0,0,1-1,.55A4.56,4.56,0,0,1,527.22,254Z"/><path d="M534.38,254a3.08,3.08,0,0,1-1.24-.24,2.44,2.44,0,0,1-.92-.66,2.8,2.8,0,0,1-.58-1,4.13,4.13,0,0,1-.21-1.36,4.29,4.29,0,0,1,.2-1.34,2.86,2.86,0,0,1,.57-1,2.63,2.63,0,0,1,.91-.66,3,3,0,0,1,1.23-.24,3,3,0,0,1,1.27.26,2.52,2.52,0,0,1,.89.68,3.07,3.07,0,0,1,.52,1,4.39,4.39,0,0,1,.17,1.22v.5H533v.16a1.55,1.55,0,0,0,.38,1.09,1.51,1.51,0,0,0,1.14.41,1.66,1.66,0,0,0,.94-.24,2.68,2.68,0,0,0,.66-.6l.83.92a2.6,2.6,0,0,1-1.05.85A3.61,3.61,0,0,1,534.38,254Zm0-5.4a1.2,1.2,0,0,0-1,.41,1.52,1.52,0,0,0-.36,1v.1h2.57v-.11a1.66,1.66,0,0,0-.32-1.05A1.1,1.1,0,0,0,534.36,248.64Z"/><path d="M538.55,253.89v-6.26h1.53v1.3h.06a2.26,2.26,0,0,1,.19-.49,1.2,1.2,0,0,1,.33-.41,1.59,1.59,0,0,1,.49-.29,1.8,1.8,0,0,1,.65-.11h.34v1.45h-.48a2.44,2.44,0,0,0-1.18.23.8.8,0,0,0-.4.74v3.84Z"/><path d="M544.7,253.89l-2.08-6.26h1.51l.87,2.7.62,2.23h.08l.61-2.23.85-2.7h1.47l-2.1,6.26Z"/><path d="M550.42,246.72a1,1,0,0,1-.69-.22.75.75,0,0,1-.21-.55v-.24a.75.75,0,0,1,.21-.55.91.91,0,0,1,.69-.22.9.9,0,0,1,.68.22.76.76,0,0,1,.22.55V246a.76.76,0,0,1-.22.55A.94.94,0,0,1,550.42,246.72Zm-.77.91h1.53v6.26h-1.53Z"/><path d="M555.43,254a3.17,3.17,0,0,1-1.23-.23,2.33,2.33,0,0,1-.91-.66,2.89,2.89,0,0,1-.56-1,5,5,0,0,1,0-2.72,2.8,2.8,0,0,1,.56-1,2.43,2.43,0,0,1,.91-.66,3.17,3.17,0,0,1,1.23-.23,2.74,2.74,0,0,1,1.57.43,2.31,2.31,0,0,1,.89,1.16l-1.26.56a1.26,1.26,0,0,0-.4-.65,1.18,1.18,0,0,0-.8-.26,1.14,1.14,0,0,0-1,.41,1.64,1.64,0,0,0-.32,1.07v1.14a1.62,1.62,0,0,0,.32,1.06,1.14,1.14,0,0,0,1,.4,1.18,1.18,0,0,0,.85-.28,1.92,1.92,0,0,0,.47-.7l1.18.56a2.47,2.47,0,0,1-.95,1.24A2.74,2.74,0,0,1,555.43,254Z"/><path d="M561.59,254a3,3,0,0,1-1.24-.24,2.39,2.39,0,0,1-.93-.66,2.94,2.94,0,0,1-.58-1,4.13,4.13,0,0,1-.21-1.36,4.29,4.29,0,0,1,.2-1.34,3,3,0,0,1,.57-1,2.67,2.67,0,0,1,.92-.66,3.23,3.23,0,0,1,2.49,0,2.43,2.43,0,0,1,.89.68,2.89,2.89,0,0,1,.52,1,4,4,0,0,1,.18,1.22v.5h-4.17v.16a1.52,1.52,0,0,0,.39,1.09,1.48,1.48,0,0,0,1.14.41,1.7,1.7,0,0,0,.94-.24,2.83,2.83,0,0,0,.65-.6l.83.92a2.6,2.6,0,0,1-1,.85A3.56,3.56,0,0,1,561.59,254Zm0-5.4a1.21,1.21,0,0,0-1,.41,1.52,1.52,0,0,0-.36,1v.1h2.57v-.11a1.66,1.66,0,0,0-.32-1.05A1.1,1.1,0,0,0,561.56,248.64Z"/><path d="M568.68,245.52h3.87a2.77,2.77,0,0,1,.94.15,2.09,2.09,0,0,1,.7.44,1.68,1.68,0,0,1,.43.67,2.56,2.56,0,0,1,.16.89,2.37,2.37,0,0,1-.13.81,1.47,1.47,0,0,1-.34.54,1.42,1.42,0,0,1-.48.33,1.75,1.75,0,0,1-.55.12v.07a1.76,1.76,0,0,1,1.18.45,1.75,1.75,0,0,1,.45.6,2,2,0,0,1,.18.9,3,3,0,0,1-.16.95,2.34,2.34,0,0,1-.46.76,2.29,2.29,0,0,1-.68.51,2,2,0,0,1-.86.18h-4.25Zm1.58,3.49h2a.94.94,0,0,0,.67-.23.89.89,0,0,0,.24-.66v-.37a.85.85,0,0,0-.24-.65.9.9,0,0,0-.67-.24h-2Zm0,3.54h2.21a1,1,0,0,0,.71-.24.85.85,0,0,0,.25-.67v-.41a.88.88,0,0,0-.25-.68,1,1,0,0,0-.71-.24h-2.21Z"/><path d="M547.24,341.79l-2-8.38h1.07l.9,4,.7,3.13h0l.78-3.13,1.06-4h1.15l1,4,.78,3.12h0l.73-3.12.94-4h1l-2.15,8.38h-1.12l-1.09-4.18-.77-3.07h0l-.8,3.07-1.11,4.18Z"/><path d="M556.55,341.79v-6.2h1v1.14h.06a2,2,0,0,1,.6-.79,1.87,1.87,0,0,1,1.19-.35h.37v1h-.56a2.14,2.14,0,0,0-1.22.3.86.86,0,0,0-.44.74v4.2Z"/><path d="M565.41,341.79a.93.93,0,0,1-.77-.29,1.38,1.38,0,0,1-.3-.72h-.06a1.58,1.58,0,0,1-.67.86,2.1,2.1,0,0,1-1.12.29,2.22,2.22,0,0,1-1.53-.5,1.8,1.8,0,0,1-.54-1.37,1.57,1.57,0,0,1,.64-1.35,3.43,3.43,0,0,1,2-.46h1.22v-.62a1.32,1.32,0,0,0-.36-1,1.5,1.5,0,0,0-1.1-.35,1.63,1.63,0,0,0-.94.25,1.93,1.93,0,0,0-.63.67l-.58-.54a2.33,2.33,0,0,1,.8-.86,2.62,2.62,0,0,1,1.4-.35,2.55,2.55,0,0,1,1.75.55,1.93,1.93,0,0,1,.62,1.53v3.4H566v.86Zm-2.76-.68a2.3,2.3,0,0,0,.66-.08,1.92,1.92,0,0,0,.52-.24,1.13,1.13,0,0,0,.33-.36.86.86,0,0,0,.12-.44v-1H563a2.36,2.36,0,0,0-1.21.24.77.77,0,0,0-.37.69v.25a.84.84,0,0,0,.33.71A1.41,1.41,0,0,0,562.65,341.11Z"/><path d="M567.32,335.59h1v1h.05a1.73,1.73,0,0,1,.7-.86,2.08,2.08,0,0,1,1.11-.28,2.37,2.37,0,0,1,1,.23,2.28,2.28,0,0,1,.8.65,2.86,2.86,0,0,1,.5,1,5.08,5.08,0,0,1,0,2.68,2.86,2.86,0,0,1-.5,1,2.28,2.28,0,0,1-.8.65,2.37,2.37,0,0,1-1,.23,1.87,1.87,0,0,1-1.81-1.14h-.05v3.4h-1Zm2.56,5.49a1.65,1.65,0,0,0,1.28-.51,2,2,0,0,0,.47-1.35v-1.06a2,2,0,0,0-.47-1.35,1.65,1.65,0,0,0-1.28-.51,2.06,2.06,0,0,0-.62.09,1.73,1.73,0,0,0-.51.25,1.16,1.16,0,0,0-.35.38,1,1,0,0,0-.12.48v2.31a1.19,1.19,0,0,0,.12.54,1.22,1.22,0,0,0,.35.4,1.51,1.51,0,0,0,.51.24A2.06,2.06,0,0,0,569.88,341.08Z"/><path d="M574.28,335.59h1v1h0a1.73,1.73,0,0,1,.7-.86,2.08,2.08,0,0,1,1.11-.28,2.37,2.37,0,0,1,1,.23,2.19,2.19,0,0,1,.8.65,3.05,3.05,0,0,1,.51,1,5.37,5.37,0,0,1,0,2.68,3.05,3.05,0,0,1-.51,1,2.19,2.19,0,0,1-.8.65,2.37,2.37,0,0,1-1,.23,1.87,1.87,0,0,1-1.81-1.14h0v3.4h-1Zm2.55,5.49a1.66,1.66,0,0,0,1.29-.51,2,2,0,0,0,.47-1.35v-1.06a2,2,0,0,0-.47-1.35,1.66,1.66,0,0,0-1.29-.51,2,2,0,0,0-.61.09,1.73,1.73,0,0,0-.51.25,1,1,0,0,0-.34.38.91.91,0,0,0-.13.48v2.31a1.16,1.16,0,0,0,.47.94,1.51,1.51,0,0,0,.51.24A2,2,0,0,0,576.83,341.08Z"/><path d="M583.57,341.93a2.81,2.81,0,0,1-1.15-.23,2.55,2.55,0,0,1-.88-.65,3.15,3.15,0,0,1-.56-1,4.56,4.56,0,0,1,0-2.67,3.1,3.1,0,0,1,.56-1,2.55,2.55,0,0,1,.88-.65,2.81,2.81,0,0,1,1.15-.23,2.65,2.65,0,0,1,1.11.23,2.38,2.38,0,0,1,.84.63,2.84,2.84,0,0,1,.54.95,3.82,3.82,0,0,1,.18,1.2v.46h-4.45v.29a1.93,1.93,0,0,0,.13.73,1.66,1.66,0,0,0,.36.6,1.45,1.45,0,0,0,.57.39,1.94,1.94,0,0,0,.78.15,1.8,1.8,0,0,0,1.7-1.07l.68.5a2.42,2.42,0,0,1-.93,1A2.85,2.85,0,0,1,583.57,341.93Zm0-5.68a1.81,1.81,0,0,0-.72.14,1.49,1.49,0,0,0-.56.39,1.79,1.79,0,0,0-.37.59,2,2,0,0,0-.13.74v.09h3.42v-.13a1.89,1.89,0,0,0-.45-1.32A1.54,1.54,0,0,0,583.57,336.25Z"/><path d="M591.79,340.79h0a1.89,1.89,0,0,1-1.81,1.14,2.38,2.38,0,0,1-1-.23,2.28,2.28,0,0,1-.8-.65,3,3,0,0,1-.5-1,5.37,5.37,0,0,1,0-2.68,3,3,0,0,1,.5-1,2.28,2.28,0,0,1,.8-.65,2.38,2.38,0,0,1,1-.23,2.08,2.08,0,0,1,1.11.28,1.79,1.79,0,0,1,.7.86h0v-3.68h1v8.88h-1Zm-1.6.29a2.11,2.11,0,0,0,.62-.09,1.71,1.71,0,0,0,.51-.24,1.16,1.16,0,0,0,.47-.94V337.5a1,1,0,0,0-.13-.48,1.12,1.12,0,0,0-.34-.38,2,2,0,0,0-.51-.25,2.11,2.11,0,0,0-.62-.09,1.65,1.65,0,0,0-1.28.51,1.9,1.9,0,0,0-.47,1.35v1.06a1.9,1.9,0,0,0,.47,1.35A1.65,1.65,0,0,0,590.19,341.08Z"/><path d="M560.57,347.81h2.81a3.73,3.73,0,0,1,1.41.26,2.86,2.86,0,0,1,1.09.79,3.55,3.55,0,0,1,.69,1.31,6.25,6.25,0,0,1,.24,1.83,6.34,6.34,0,0,1-.24,1.83,3.63,3.63,0,0,1-.69,1.31,2.84,2.84,0,0,1-1.09.78,3.55,3.55,0,0,1-1.41.27h-2.81Zm2.81,7.49a2.39,2.39,0,0,0,.94-.18,1.93,1.93,0,0,0,.75-.51,2.15,2.15,0,0,0,.48-.82,3.15,3.15,0,0,0,.18-1.11v-1.37a3.23,3.23,0,0,0-.18-1.11,2.31,2.31,0,0,0-.48-.82,2.17,2.17,0,0,0-.75-.51,2.58,2.58,0,0,0-.94-.17h-1.8v6.6Z"/><path d="M568.62,356.19v-8.38h5.11v.89h-4.1v2.81h3.86v.88h-3.86v2.91h4.1v.89Z"/><path d="M577.81,352.07l-1.19,1.32v2.8h-1v-8.38h1v4.45h0l1.2-1.45,2.53-3h1.24l-3.12,3.59,3.33,4.79H580.6Z"/><line class="cls-16" x1="67" y1="21.09" x2="67" y2="386.09"/><path d="M82.82,33.14V31.87h1.1V26h-1.1V24.76h3.8V26H85.51v5.84h1.11v1.27Z"/><path d="M88.24,24.76h3.88a2.52,2.52,0,0,1,.93.16,2.06,2.06,0,0,1,.7.43,1.78,1.78,0,0,1,.44.68,2.5,2.5,0,0,1,.15.88,2.15,2.15,0,0,1-.13.81,1.58,1.58,0,0,1-.33.55,1.39,1.39,0,0,1-.48.32,1.81,1.81,0,0,1-.56.12v.07a1.9,1.9,0,0,1,.59.11,1.85,1.85,0,0,1,.59.34,2,2,0,0,1,.45.6,2.08,2.08,0,0,1,.18.91,2.65,2.65,0,0,1-.16.94,2.39,2.39,0,0,1-.45.76,1.94,1.94,0,0,1-.69.51,1.9,1.9,0,0,1-.86.19H88.24Zm1.59,3.49h2a.9.9,0,0,0,.67-.23.87.87,0,0,0,.24-.65V27a.87.87,0,0,0-.24-.65.9.9,0,0,0-.67-.23h-2Zm0,3.54H92a1,1,0,0,0,.71-.23.88.88,0,0,0,.25-.68v-.41a.89.89,0,0,0-.25-.68,1,1,0,0,0-.71-.24h-2.2Z"/><path d="M102.52,27.13h0l-.64,1.33-1.72,3.17-1.72-3.17-.64-1.33h0v6H96.2V24.76H98l2.14,4.09h.05l2.13-4.09H104v8.38h-1.5Z"/><path d="M112.07,33.28a3.92,3.92,0,0,1-1.49-.27,3.06,3.06,0,0,1-1.14-.81,3.6,3.6,0,0,1-.73-1.34,6.42,6.42,0,0,1-.25-1.85,6.74,6.74,0,0,1,.25-1.88,3.78,3.78,0,0,1,.73-1.38,3.13,3.13,0,0,1,1.14-.84,3.57,3.57,0,0,1,1.49-.29,3.41,3.41,0,0,1,1.88.48,3.27,3.27,0,0,1,1.18,1.45l-1.35.72a1.93,1.93,0,0,0-.59-.91,1.72,1.72,0,0,0-1.12-.34,1.78,1.78,0,0,0-1.41.6,2.52,2.52,0,0,0-.52,1.68v1.32a2.48,2.48,0,0,0,.52,1.68,1.83,1.83,0,0,0,1.41.58,1.7,1.7,0,0,0,1.16-.39,2.24,2.24,0,0,0,.66-.94l1.28.75A3.66,3.66,0,0,1,114,32.76,3.24,3.24,0,0,1,112.07,33.28Z"/><path d="M118,33.14a1.36,1.36,0,0,1-1.54-1.51V24.26H118V31.9h.82v1.24Z"/><path d="M122.44,33.28a2.86,2.86,0,0,1-1.2-.23,2.52,2.52,0,0,1-.92-.66,3,3,0,0,1-.58-1,4.48,4.48,0,0,1-.2-1.37,4.35,4.35,0,0,1,.2-1.35,3.13,3.13,0,0,1,.58-1,2.61,2.61,0,0,1,.92-.65,3,3,0,0,1,1.2-.23,3.11,3.11,0,0,1,1.21.23,2.52,2.52,0,0,1,.92.65,3,3,0,0,1,.58,1,4.07,4.07,0,0,1,.21,1.35,4.19,4.19,0,0,1-.21,1.37,2.88,2.88,0,0,1-.58,1,2.44,2.44,0,0,1-.92.66A2.94,2.94,0,0,1,122.44,33.28Zm0-1.23a1.24,1.24,0,0,0,1-.38,1.53,1.53,0,0,0,.35-1.09V29.42a1.54,1.54,0,0,0-.35-1.08,1.42,1.42,0,0,0-1.91,0,1.54,1.54,0,0,0-.34,1.08v1.16a1.53,1.53,0,0,0,.34,1.09A1.25,1.25,0,0,0,122.44,32.05Z"/><path d="M130.46,32.09h-.06a2.35,2.35,0,0,1-.22.45,1.8,1.8,0,0,1-.35.38,1.76,1.76,0,0,1-.51.27,2.26,2.26,0,0,1-.67.09,1.81,1.81,0,0,1-1.49-.63,2.8,2.8,0,0,1-.52-1.82v-4h1.54v3.81a1.65,1.65,0,0,0,.25,1,.93.93,0,0,0,.8.34,1.63,1.63,0,0,0,.45-.06,1,1,0,0,0,.39-.19.84.84,0,0,0,.28-.31.87.87,0,0,0,.11-.44V26.87H132v6.27h-1.53Z"/><path d="M137.66,32.09h-.06A1.64,1.64,0,0,1,137,33a1.89,1.89,0,0,1-1.09.32,2.12,2.12,0,0,1-1.82-.85,4.05,4.05,0,0,1-.63-2.44,4,4,0,0,1,.63-2.41,2.12,2.12,0,0,1,1.82-.85,1.89,1.89,0,0,1,1.09.32,1.58,1.58,0,0,1,.64.86h.06V24.26h1.53v8.88h-1.53Zm-1.3-.08a1.62,1.62,0,0,0,.93-.26.9.9,0,0,0,.37-.76V29a.87.87,0,0,0-.37-.73,1.49,1.49,0,0,0-.93-.28,1.22,1.22,0,0,0-1,.4,1.52,1.52,0,0,0-.37,1.08v1.08a1.47,1.47,0,0,0,.37,1.06A1.22,1.22,0,0,0,136.36,32Z"/></g><g id="Layer_4" data-name="Layer 4"><g id="lock-5" data-name="lock"><g id="lock-6" data-name="lock"><rect class="cls-17" x="579.5" y="138.59" width="7" height="4"/><path class="cls-13" d="M583,150.59v-2.8m-4-6.53v-5.07a3.08,3.08,0,0,1,0-.53,4,4,0,0,1,8,.53v5.07m0,0-.5-.26a7.9,7.9,0,0,0-3.5-.81,8.28,8.28,0,0,0-1.74.19,8,8,0,0,0-1.76.62l-.5.26a8,8,0,1,0,8,0Z"/><circle cx="583" cy="147.79" r="1.2"/></g></g><path class="cls-12" d="M550.73,122.78c-3.17-5-4.36-9.06-2.73-10.69,2.21-2.21,8.92.75,16.23,6.8q1.86,1.53,3.75,3.32c.49.46,1,.94,1.47,1.43l.63.63c1.2,1.23,2.33,2.47,3.37,3.7a53.73,53.73,0,0,1,5.59,7.69"/><path class="cls-12" d="M575.62,145.11a28.15,28.15,0,0,1-5-2.53"/><g id="lock-7" data-name="lock"><g id="lock-8" data-name="lock"><rect class="cls-17" x="579.5" y="308.59" width="7" height="4"/><path class="cls-13" d="M583,320.59v-2.8m-4-6.53v-5.07a3.08,3.08,0,0,1,0-.53,4,4,0,0,1,8,.53v5.07m0,0-.5-.26a7.9,7.9,0,0,0-3.5-.81,8.28,8.28,0,0,0-1.74.19,8,8,0,0,0-1.76.62l-.5.26a8,8,0,1,0,8,0Z"/><circle cx="583" cy="317.79" r="1.2"/></g></g><path class="cls-12" d="M550.73,292.78c-3.17-5-4.36-9.06-2.73-10.69,2.21-2.21,8.92.75,16.23,6.8q1.86,1.53,3.75,3.32c.49.46,1,.94,1.47,1.43l.63.63c1.2,1.23,2.33,2.47,3.37,3.7a53.73,53.73,0,0,1,5.59,7.69"/><path class="cls-12" d="M575.62,315.11a28.15,28.15,0,0,1-5-2.53"/><circle class="cls-18" cx="31.55" cy="109.14" r="6"/><path class="cls-18" d="M42.05,125.14v3h-21v-3a9,9,0,0,1,9-9h3A9,9,0,0,1,42.05,125.14Z"/></g></svg>