<svg xmlns="http://www.w3.org/2000/svg" viewBox="0 0 750 407.41"><defs><style>.cls-1{fill:#f4f4f4;}.cls-1,.cls-19,.cls-20,.cls-21,.cls-22,.cls-23,.cls-25,.cls-26,.cls-27,.cls-49,.cls-8,.cls-9{stroke:#000;}.cls-1,.cls-2,.cls-22,.cls-23,.cls-49,.cls-8{stroke-miterlimit:10;}.cls-19,.cls-2,.cls-20,.cls-23,.cls-25,.cls-49{fill:none;}.cls-2{stroke:#50565b;}.cls-2,.cls-49{stroke-width:2px;}.cls-3{fill:#50565b;}.cls-10,.cls-4,.cls-41{font-size:12px;}.cls-15,.cls-29,.cls-4{font-family:IBMPlexSans, IBM Plex Sans;}.cls-5{letter-spacing:-0.01em;}.cls-6{letter-spacing:0em;}.cls-7{letter-spacing:0em;}.cls-8{fill:#e3f6ff;}.cls-21,.cls-24,.cls-9{fill:#b3e6ff;}.cls-19,.cls-20,.cls-21,.cls-25,.cls-26,.cls-27,.cls-9{stroke-linejoin:round;}.cls-10,.cls-41,.cls-47{font-family:IBMPlexSans-SemiBold, IBM Plex Sans;}.cls-11,.cls-41,.cls-47{font-weight:700;}.cls-12{letter-spacing:-0.01em;}.cls-13{letter-spacing:-0.01em;}.cls-14{letter-spacing:-0.01em;}.cls-16{letter-spacing:-0.01em;}.cls-17{letter-spacing:-0.01em;}.cls-18{letter-spacing:-0.01em;}.cls-19,.cls-20,.cls-21,.cls-22,.cls-23,.cls-25,.cls-26{stroke-linecap:round;}.cls-19{stroke-dasharray:2;}.cls-20{stroke-dasharray:2 2;}.cls-22{fill:#fff;}.cls-26,.cls-27,.cls-50{fill:#87eded;}.cls-28{fill:#f2f4f8;}.cls-29{font-size:10px;}.cls-30{letter-spacing:0em;}.cls-31{letter-spacing:0em;}.cls-32{letter-spacing:0em;}.cls-33{letter-spacing:0.01em;}.cls-34{letter-spacing:-0.01em;}.cls-35{letter-spacing:-0.02em;}.cls-36{letter-spacing:0em;}.cls-37{letter-spacing:0em;}.cls-38{letter-spacing:0em;}.cls-39{letter-spacing:-0.01em;}.cls-40{letter-spacing:-0.02em;}.cls-42{letter-spacing:0em;}.cls-43{letter-spacing:0.01em;}.cls-44{letter-spacing:0em;}.cls-45{letter-spacing:-0.02em;}.cls-46{letter-spacing:-0.02em;}.cls-48{letter-spacing:-0.02em;}.cls-51{fill:#333;}</style></defs><title>hpcs-integrations</title><g id="Layer_1" data-name="Layer 1"><rect class="cls-1" x="184.5" y="60.59" width="275" height="220"/><rect class="cls-1" x="508.5" y="60.59" width="218" height="149"/><line class="cls-2" x1="58" y1="117.09" x2="192.26" y2="117.09"/><polygon class="cls-3" points="191.09 121.08 198 117.09 191.09 113.11 191.09 121.08"/><text class="cls-4" transform="translate(649.33 171.79)"><tspan class="cls-5">W<tspan class="cls-6" x="10.57" y="0">r</tspan><tspan class="cls-7" x="14.93" y="0">apped</tspan></tspan><tspan x="12.41" y="14.4">data</tspan></text><rect class="cls-1" x="508.5" y="230.59" width="218" height="149"/><text class="cls-4" transform="translate(649.33 341.79)"><tspan class="cls-5">W<tspan class="cls-6" x="10.57" y="0">r</tspan><tspan class="cls-7" x="14.93" y="0">apped</tspan></tspan><tspan x="12.41" y="14.4">data</tspan></text><rect class="cls-8" x="201.5" y="186.59" width="241" height="73"/><g id="Hardware"><rect class="cls-9" x="219.99" y="225.13" width="40" height="10.59"/><polygon class="cls-9" points="260 224.74 220 224.74 227.05 209.44 252.94 209.44 260 224.74"/><rect x="245.29" y="228.07" width="4.71" height="4.71"/><rect x="251.76" y="228.07" width="4.71" height="4.71"/></g><text class="cls-10" transform="translate(276.09 219.31)"><tspan class="cls-11">FI<tspan class="cls-12" x="12" y="0">P</tspan><tspan x="19.61" y="0">S 140-2 </tspan><tspan class="cls-5" x="66.23" y="0">L</tspan><tspan class="cls-13" x="72.36" y="0">e</tspan><tspan class="cls-14" x="78.95" y="0">v</tspan><tspan x="85.14" y="0">el 4</tspan></tspan><tspan class="cls-15"><tspan x="0" y="14.4">Ha</tspan><tspan class="cls-16" x="14.89" y="14.4">r</tspan><tspan x="19.22" y="14.4">d</tspan><tspan class="cls-17" x="26.18" y="14.4">w</tspan><tspan class="cls-7" x="35.29" y="14.4">a</tspan><tspan class="cls-18" x="41.7" y="14.4">r</tspan><tspan x="46.04" y="14.4">e security module</tspan></tspan></text><line class="cls-19" x1="221" y1="259.59" x2="221" y2="310.09"/><line class="cls-20" x1="221" y1="310.09" x2="519.69" y2="310.09"/><polygon points="518.82 313.09 524 310.09 518.82 307.1 518.82 313.09"/><line class="cls-19" x1="484" y1="310.09" x2="484" y2="132.09"/><line class="cls-20" x1="484" y1="132.09" x2="519.69" y2="132.09"/><polygon points="518.82 135.09 524 132.09 518.82 129.1 518.82 135.09"/><line class="cls-20" x1="602" y1="132.09" x2="638.69" y2="132.09"/><polygon points="637.82 135.09 643 132.09 637.82 129.1 637.82 135.09"/><line class="cls-20" x1="602" y1="310.09" x2="638.69" y2="310.09"/><polygon points="637.82 313.09 643 310.09 637.82 307.1 637.82 313.09"/><g id="key"><path class="cls-21" d="M672.75,129.41a11.69,11.69,0,1,1-6-5.22"/><circle cx="659.85" cy="137.76" r="2.5"/><polyline class="cls-9" points="666.75 124.19 683.24 107.7 689.41 107.7 689.41 113.02 679.04 123.39 675.34 123.41 675.34 126.82 672.75 129.41"/></g><g id="Doc"><polygon class="cls-22" points="657.44 109.75 657.44 147.25 687.44 147.25 687.44 117.25 679.94 109.75 657.44 109.75"/><polyline class="cls-23" points="679.94 109.75 679.94 117.25 687.44 117.25"/><line class="cls-23" x1="663.44" y1="133" x2="676.57" y2="133"/><line class="cls-23" x1="663.44" y1="121.63" x2="681.44" y2="121.63"/><line class="cls-23" x1="663.44" y1="127.25" x2="681.44" y2="127.25"/></g><g id="lock"><g id="lock-2" data-name="lock"><rect class="cls-24" x="684.5" y="138.4" width="7" height="4"/><path class="cls-21" d="M696,148a8,8,0,1,1-8-8A8,8,0,0,1,696,148Zm-4-6.93V136a4,4,0,0,0-8,0v5.07m4,6.53v2.8"/><circle cx="688" cy="147.6" r="1.2"/></g></g><path class="cls-25" d="M680.09,149.25c-1.14-.59-2.3-1.25-3.49-2s-2.68-1.77-4-2.79c-.74-.56-1.48-1.14-2.22-1.75a73.65,73.65,0,0,1-5.59-5.06,74.88,74.88,0,0,1-5.31-5.89c-.71-.87-1.37-1.74-2-2.6-.34-.46-.66-.92-1-1.37-.54-.79-1.06-1.57-1.53-2.35-4.7-7.58-6.18-14.3-3.19-17.29,2.62-2.62,8.12-1.81,14.54,1.6"/><g id="key-2" data-name="key"><path class="cls-21" d="M672.75,299.41a11.69,11.69,0,1,1-6-5.22"/><circle cx="659.85" cy="307.76" r="2.5"/><polyline class="cls-9" points="666.75 294.19 683.24 277.7 689.41 277.7 689.41 283.02 679.04 293.39 675.34 293.41 675.34 296.82 672.75 299.41"/></g><g id="Doc-2" data-name="Doc"><polygon class="cls-22" points="657.44 279.75 657.44 317.25 687.44 317.25 687.44 287.25 679.94 279.75 657.44 279.75"/><polyline class="cls-23" points="679.94 279.75 679.94 287.25 687.44 287.25"/><line class="cls-23" x1="663.44" y1="303" x2="676.57" y2="303"/><line class="cls-23" x1="663.44" y1="291.63" x2="681.44" y2="291.63"/><line class="cls-23" x1="663.44" y1="297.25" x2="681.44" y2="297.25"/></g><g id="lock-3" data-name="lock"><g id="lock-4" data-name="lock"><rect class="cls-24" x="684.5" y="308.4" width="7" height="4"/><path class="cls-21" d="M696,318a8,8,0,1,1-8-8A8,8,0,0,1,696,318Zm-4-6.93V306a4,4,0,0,0-8,0v5.07m4,6.53v2.8"/><circle cx="688" cy="317.6" r="1.2"/></g></g><path class="cls-25" d="M680.09,319.25c-1.14-.59-2.3-1.25-3.49-2s-2.68-1.77-4-2.79c-.74-.56-1.48-1.14-2.22-1.75a73.65,73.65,0,0,1-5.59-5.06,74.88,74.88,0,0,1-5.31-5.89c-.71-.87-1.37-1.74-2-2.6-.34-.46-.66-.92-1-1.37-.54-.79-1.06-1.57-1.53-2.35-4.7-7.58-6.18-14.3-3.19-17.29,2.62-2.62,8.12-1.81,14.54,1.6"/></g><g id="key-3" data-name="key"><g id="key-4" data-name="key"><path class="cls-26" d="M245,122.13a11.67,11.67,0,1,1-.55-7.93"/><circle cx="230.02" cy="118.91" r="2.5"/><polyline class="cls-27" points="244.49 114.19 267.81 114.19 272.18 118.56 268.41 122.32 253.75 122.32 251.12 119.72 248.71 122.13 245.04 122.13"/></g><g id="key-5" data-name="key"><path class="cls-26" d="M318,122.13a11.67,11.67,0,1,1-.55-7.93"/><circle cx="303.02" cy="118.91" r="2.5"/><polyline class="cls-27" points="317.49 114.19 340.81 114.19 345.18 118.56 341.41 122.32 326.75 122.32 324.12 119.72 321.71 122.13 318.04 122.13"/></g><g id="key-6" data-name="key"><path class="cls-26" d="M393,122.13a11.67,11.67,0,1,1-.55-7.93"/><circle cx="378.02" cy="118.91" r="2.5"/><polyline class="cls-27" points="392.49 114.19 415.81 114.19 420.18 118.56 416.41 122.32 401.75 122.32 399.12 119.72 396.71 122.13 393.04 122.13"/></g><g id="key-7" data-name="key"><path class="cls-26" d="M571.64,129.79a11.69,11.69,0,1,1-6-5.22"/><circle cx="558.74" cy="138.13" r="2.5"/><polyline class="cls-27" points="565.63 124.57 582.13 108.08 588.3 108.08 588.3 113.4 577.93 123.77 574.23 123.78 574.23 127.19 571.64 129.79"/></g><g id="key-8" data-name="key"><path class="cls-21" d="M567.75,126.61a11.69,11.69,0,1,1-6-5.22"/><circle cx="554.85" cy="134.95" r="2.5"/><polyline class="cls-9" points="561.75 121.39 578.24 104.89 584.41 104.89 584.41 110.22 574.04 120.58 570.34 120.6 570.34 124.01 567.75 126.61"/></g><g id="key-9" data-name="key"><path class="cls-26" d="M571.64,299.79a11.69,11.69,0,1,1-6-5.22"/><circle cx="558.74" cy="308.13" r="2.5"/><polyline class="cls-27" points="565.63 294.57 582.13 278.08 588.3 278.08 588.3 283.4 577.93 293.77 574.23 293.78 574.23 297.19 571.64 299.79"/></g><g id="key-10" data-name="key"><path class="cls-21" d="M567.75,296.61a11.69,11.69,0,1,1-6-5.22"/><circle cx="554.85" cy="304.95" r="2.5"/><polyline class="cls-9" points="561.75 291.39 578.24 274.89 584.41 274.89 584.41 280.22 574.04 290.58 570.34 290.6 570.34 294.01 567.75 296.61"/></g><path class="cls-28" d="M268,311.09H443a0,0,0,0,1,0,0v35a4,4,0,0,1-4,4H272a4,4,0,0,1-4-4v-35A0,0,0,0,1,268,311.09Z"/><text class="cls-29" transform="translate(279.21 327.18)"><tspan class="cls-5">W</tspan><tspan class="cls-30" x="8.81" y="0">r</tspan><tspan x="12.44" y="0">ap </tspan><tspan class="cls-31" x="25.94" y="0">y</tspan><tspan class="cls-32" x="30.88" y="0">our data enc</tspan><tspan class="cls-33" x="86.74" y="0">r</tspan><tspan x="90.51" y="0">y</tspan><tspan class="cls-34" x="95.5" y="0">p</tspan><tspan x="101.24" y="0">tion </tspan><tspan class="cls-35" x="120.89" y="0">k</tspan><tspan class="cls-36" x="125.99" y="0">e</tspan><tspan class="cls-37" x="131.43" y="0">y</tspan><tspan x="136.38" y="0">s </tspan><tspan x="0" y="12">with an added l</tspan><tspan class="cls-36" x="68.42" y="12">ay</tspan><tspan class="cls-38" x="78.65" y="12">er </tspan><tspan class="cls-39" x="90.17" y="12">o</tspan><tspan x="95.71" y="12">f security</tspan></text><path class="cls-28" d="M82,118.5h87a0,0,0,0,1,0,0v25a4,4,0,0,1-4,4H86a4,4,0,0,1-4-4v-25A0,0,0,0,1,82,118.5Z"/><text class="cls-29" transform="translate(93.21 134.18)">Add <tspan class="cls-36" x="20.37" y="0">r</tspan><tspan class="cls-32" x="23.99" y="0">oot </tspan><tspan class="cls-40" x="41.06" y="0">k</tspan><tspan class="cls-31" x="46.16" y="0">e</tspan><tspan class="cls-30" x="51.6" y="0">y</tspan><tspan x="56.55" y="0">s</tspan></text></g><g id="text"><text class="cls-41" transform="translate(201.63 83.89)">Hyper <tspan class="cls-5" x="36.36" y="0">P</tspan><tspan class="cls-42" x="43.93" y="0">r</tspan><tspan class="cls-6" x="48.59" y="0">ot</tspan><tspan x="59.74" y="0">ect C</tspan><tspan class="cls-43" x="87.61" y="0">r</tspan><tspan x="92.42" y="0">y</tspan><tspan class="cls-16" x="98.71" y="0">p</tspan><tspan class="cls-6" x="105.84" y="0">t</tspan><tspan x="110.28" y="0">o Se</tspan><tspan class="cls-43" x="133.89" y="0">r</tspan><tspan x="138.71" y="0">vi</tspan><tspan class="cls-18" x="148.31" y="0">c</tspan><tspan class="cls-7" x="154.4" y="0">es</tspan></text><text class="cls-41" transform="translate(523.63 83.89)">Se<tspan class="cls-43" x="14.03" y="0">r</tspan><tspan class="cls-44" x="18.84" y="0">vi</tspan><tspan class="cls-18" x="28.44" y="0">c</tspan><tspan class="cls-7" x="34.54" y="0">e A</tspan></text><text class="cls-4" transform="translate(219.02 157.79)"><tspan class="cls-45">R</tspan><tspan class="cls-44" x="7.5" y="0">oot </tspan><tspan class="cls-46" x="27.98" y="0">k</tspan><tspan class="cls-42" x="34.1" y="0">e</tspan><tspan x="40.63" y="0">y </tspan><tspan class="cls-47" x="49.45" y="0">A</tspan></text><text class="cls-4" transform="translate(292.08 157.79)"><tspan class="cls-45">R</tspan><tspan class="cls-7" x="7.5" y="0">oot </tspan><tspan class="cls-48" x="27.98" y="0">k</tspan><tspan class="cls-18" x="34.1" y="0">e</tspan><tspan x="40.63" y="0">y </tspan><tspan class="cls-47" x="49.45" y="0">B</tspan></text><text class="cls-4" transform="translate(367.2 157.79)"><tspan class="cls-45">R</tspan><tspan class="cls-7" x="7.5" y="0">oot </tspan><tspan class="cls-48" x="27.98" y="0">k</tspan><tspan class="cls-18" x="34.1" y="0">e</tspan><tspan x="40.63" y="0">y </tspan><tspan class="cls-47" x="49.45" y="0">C</tspan></text><text class="cls-4" transform="translate(544.96 171.79)"><tspan class="cls-5">W</tspan><tspan class="cls-6" x="10.57" y="0">r</tspan><tspan x="14.93" y="0">apped </tspan><tspan x="14.49" y="14.4">DEK</tspan></text><text class="cls-41" transform="translate(523.63 253.89)">Se<tspan class="cls-43" x="14.03" y="0">r</tspan><tspan class="cls-44" x="18.84" y="0">vi</tspan><tspan class="cls-18" x="28.44" y="0">c</tspan><tspan class="cls-7" x="34.54" y="0">e B</tspan></text><text class="cls-4" transform="translate(544.96 341.79)"><tspan class="cls-5">W</tspan><tspan class="cls-6" x="10.57" y="0">r</tspan><tspan x="14.93" y="0">apped </tspan><tspan x="14.49" y="14.4">DEK</tspan></text><line class="cls-49" x1="67" y1="21.09" x2="67" y2="386.09"/><text class="cls-41" transform="translate(82.18 33.14)">IBM Cloud</text></g><g id="Layer_4" data-name="Layer 4"><g id="lock-5" data-name="lock"><g id="lock-6" data-name="lock"><rect class="cls-50" x="579.5" y="138.59" width="7" height="4"/><path class="cls-26" d="M583,150.59v-2.8m-4-6.53v-5.07a3.08,3.08,0,0,1,0-.53,4,4,0,0,1,8,.53v5.07m0,0-.5-.26a7.9,7.9,0,0,0-3.5-.81,8.28,8.28,0,0,0-1.74.19,8,8,0,0,0-1.76.62l-.5.26a8,8,0,1,0,8,0Z"/><circle cx="583" cy="147.79" r="1.2"/></g></g><path class="cls-25" d="M550.73,122.78c-3.17-5-4.36-9.06-2.73-10.69,2.21-2.21,8.92.75,16.23,6.8q1.86,1.53,3.75,3.32c.49.46,1,.94,1.47,1.43l.63.63c1.2,1.23,2.33,2.47,3.37,3.7a53.73,53.73,0,0,1,5.59,7.69"/><path class="cls-25" d="M575.62,145.11a28.15,28.15,0,0,1-5-2.53"/><g id="lock-7" data-name="lock"><g id="lock-8" data-name="lock"><rect class="cls-50" x="579.5" y="308.59" width="7" height="4"/><path class="cls-26" d="M583,320.59v-2.8m-4-6.53v-5.07a3.08,3.08,0,0,1,0-.53,4,4,0,0,1,8,.53v5.07m0,0-.5-.26a7.9,7.9,0,0,0-3.5-.81,8.28,8.28,0,0,0-1.74.19,8,8,0,0,0-1.76.62l-.5.26a8,8,0,1,0,8,0Z"/><circle cx="583" cy="317.79" r="1.2"/></g></g><path class="cls-25" d="M550.73,292.78c-3.17-5-4.36-9.06-2.73-10.69,2.21-2.21,8.92.75,16.23,6.8q1.86,1.53,3.75,3.32c.49.46,1,.94,1.47,1.43l.63.63c1.2,1.23,2.33,2.47,3.37,3.7a53.73,53.73,0,0,1,5.59,7.69"/><path class="cls-25" d="M575.62,315.11a28.15,28.15,0,0,1-5-2.53"/><circle class="cls-51" cx="31.55" cy="109.14" r="6"/><path class="cls-51" d="M42.05,125.14v3h-21v-3a9,9,0,0,1,9-9h3A9,9,0,0,1,42.05,125.14Z"/></g></svg>