<svg xmlns="http://www.w3.org/2000/svg" viewBox="0 0 750 659"><defs><style>.cls-1,.cls-11,.cls-13,.cls-18,.cls-19,.cls-21,.cls-23,.cls-25,.cls-26,.cls-27,.cls-28,.cls-29,.cls-30,.cls-4{fill:none;}.cls-1,.cls-10,.cls-11,.cls-12,.cls-13,.cls-14,.cls-16,.cls-2,.cls-25,.cls-3,.cls-31,.cls-4,.cls-8,.cls-9{stroke:#000;}.cls-1,.cls-11,.cls-14,.cls-18,.cls-19,.cls-21,.cls-23,.cls-25,.cls-4{stroke-miterlimit:10;}.cls-1{stroke-width:2px;}.cls-2{fill:#f2f4f8;}.cls-10,.cls-12,.cls-13,.cls-16,.cls-2,.cls-26,.cls-27,.cls-28,.cls-29,.cls-3,.cls-30,.cls-31,.cls-8,.cls-9{stroke-linejoin:round;}.cls-14,.cls-15,.cls-3{fill:#fff;}.cls-5{fill:#333;}.cls-6{fill:#f7f1ff;}.cls-7,.cls-9{fill:#dbfbfb;}.cls-17,.cls-8{fill:#e3f6ff;}.cls-10{fill:#b3e6ff;}.cls-11{stroke-dasharray:2 2;}.cls-12{fill:#d0b0ff;}.cls-12,.cls-13,.cls-16,.cls-18,.cls-26,.cls-27,.cls-28,.cls-30,.cls-31{stroke-linecap:round;}.cls-12,.cls-16,.cls-31{stroke-width:0.5px;}.cls-16{fill:#87eded;}.cls-18,.cls-19,.cls-29,.cls-30{stroke:#6e32c9;}.cls-18{stroke-width:1.5px;}.cls-20{fill:#6e32c9;}.cls-21{stroke:#0072c3;}.cls-22{fill:#0072c3;}.cls-23{stroke:#007d79;}.cls-24{fill:#007d79;}.cls-25{stroke-dasharray:1.99 1.99;}.cls-26,.cls-27,.cls-28{stroke:#9fa5ad;}.cls-27{stroke-dasharray:1.99 1.99;}.cls-28{stroke-dasharray:1.97 1.97;}.cls-31{fill:#dde1e6;}.cls-32,.cls-46,.cls-70{font-size:12px;}.cls-32,.cls-80{font-family:IBMPlexSans-SemiBold, IBM Plex Sans;font-weight:700;}.cls-33{letter-spacing:0em;}.cls-34{letter-spacing:0em;}.cls-35{letter-spacing:0em;}.cls-36{letter-spacing:-0.01em;}.cls-37{letter-spacing:-0.01em;}.cls-38{letter-spacing:0.01em;}.cls-39{letter-spacing:-0.01em;}.cls-40{letter-spacing:0em;}.cls-41,.cls-45{font-size:10px;}.cls-41,.cls-45,.cls-46{font-family:IBMPlexSans, IBM Plex Sans;}.cls-41,.cls-92{letter-spacing:-0.03em;}.cls-42{letter-spacing:0em;}.cls-43{letter-spacing:0em;}.cls-44{letter-spacing:-0.01em;}.cls-47{letter-spacing:-0.01em;}.cls-48{letter-spacing:-0.03em;}.cls-49{letter-spacing:0em;}.cls-50{letter-spacing:-0.02em;}.cls-51{letter-spacing:-0.01em;}.cls-52{letter-spacing:-0.02em;}.cls-53{letter-spacing:-0.01em;}.cls-54{letter-spacing:0.01em;}.cls-55{letter-spacing:-0.02em;}.cls-56{letter-spacing:-0.01em;}.cls-57{letter-spacing:-0.01em;}.cls-58{letter-spacing:0em;}.cls-59{letter-spacing:-0.02em;}.cls-60{letter-spacing:-0.01em;}.cls-61{letter-spacing:-0.01em;}.cls-62{letter-spacing:0em;}.cls-63{letter-spacing:0em;}.cls-64{letter-spacing:-0.01em;}.cls-65{letter-spacing:-0.01em;}.cls-66{letter-spacing:0em;}.cls-67{letter-spacing:0em;}.cls-68{letter-spacing:0.01em;}.cls-69{letter-spacing:0em;}.cls-70{font-family:IBMPlexSans-Medium, IBM Plex Sans;}.cls-71{letter-spacing:0em;}.cls-72{letter-spacing:-0.01em;}.cls-73{letter-spacing:0.01em;}.cls-74{letter-spacing:0em;}.cls-75{letter-spacing:-0.01em;}.cls-76{letter-spacing:0em;}.cls-77{letter-spacing:-0.02em;}.cls-78{letter-spacing:-0.01em;}.cls-79{letter-spacing:0em;}.cls-80{font-size:14px;}.cls-81{letter-spacing:0em;}.cls-82{letter-spacing:0em;}.cls-83{letter-spacing:-0.01em;}.cls-84{letter-spacing:0em;}.cls-85{letter-spacing:0em;}.cls-86{letter-spacing:0em;}.cls-87{letter-spacing:0.01em;}.cls-88{letter-spacing:-0.01em;}.cls-89{letter-spacing:-0.03em;}.cls-90{letter-spacing:-0.03em;}.cls-91{letter-spacing:-0.02em;}.cls-93{letter-spacing:-0.01em;}</style></defs><title>hs-crypto-components</title><g id="Layer_1" data-name="Layer 1"><line class="cls-1" x1="343" y1="133.67" x2="343" y2="639.67"/><rect class="cls-2" x="361.3" y="590.7" width="380.7" height="30"/><rect class="cls-2" x="361.3" y="164.67" width="380.7" height="401"/><rect class="cls-3" x="24.72" y="290.39" width="45" height="88.56" transform="translate(381.89 287.45) rotate(90)"/><line class="cls-4" x1="551.5" y1="590.67" x2="551.5" y2="572.97"/><polygon points="554.49 573.85 551.5 568.67 548.51 573.85 554.49 573.85"/><circle class="cls-5" cx="55.55" cy="463.7" r="6"/><path class="cls-5" d="M66.05,479.7v3h-21v-3a9,9,0,0,1,9-9h3A9,9,0,0,1,66.05,479.7Z"/><rect class="cls-6" x="105.69" y="429.67" width="102" height="82" rx="4" ry="4"/><path class="cls-7" d="M227.21,228.67h94a4,4,0,0,1,4,4v42a0,0,0,0,1,0,0h-102a0,0,0,0,1,0,0v-42A4,4,0,0,1,227.21,228.67Z"/><rect class="cls-2" x="251.71" y="378.77" width="45" height="99.8" transform="translate(702.88 154.45) rotate(90)"/><rect class="cls-2" x="251.71" y="461.77" width="45" height="99.8" transform="translate(785.88 237.45) rotate(90)"/><rect class="cls-2" x="251.71" y="284.77" width="45" height="99.8" transform="translate(608.88 60.45) rotate(90)"/><rect class="cls-8" x="383.5" y="209.17" width="201.08" height="334"/><rect class="cls-9" x="406.3" y="247.17" width="154.78" height="55.03"/><rect class="cls-10" x="406.3" y="327.17" width="155.28" height="194"/><line class="cls-11" x1="484.5" y1="321.86" x2="484.5" y2="307.47"/><polygon points="487.49 320.99 484.5 326.17 481.51 320.99 487.49 320.99"/><polygon points="487.49 308.35 484.5 303.17 481.51 308.35 487.49 308.35"/><path class="cls-12" d="M487.34,481.84a6.25,6.25,0,1,1-3.35-2.63"/><circle cx="480.67" cy="486.65" r="1.4" transform="translate(-202.66 517.19) rotate(-47.91)"/><polyline class="cls-12" points="483.99 479.21 492.36 469.94 495.66 469.78 495.8 472.62 490.54 478.45 488.56 478.56 488.66 480.38 487.34 481.84"/><path class="cls-12" d="M307.14,41.87a4.67,4.67,0,1,1-2.5-2"/><circle cx="302.15" cy="45.44" r="1.05" transform="translate(65.26 238.43) rotate(-47.72)"/><polyline class="cls-12" points="304.64 39.89 310.92 32.99 313.38 32.87 313.49 35 309.54 39.34 308.06 39.42 308.13 40.78 307.14 41.87"/><line class="cls-13" x1="616.75" y1="314.67" x2="616.75" y2="233.06"/><line class="cls-13" x1="728" y1="314.67" x2="728" y2="232.2"/><path class="cls-14" d="M728,314.2c0,6.83-25.26,13.36-55.86,13.36s-55.39-6.53-55.39-13.36"/><rect class="cls-15" x="617.56" y="232.61" width="109.58" height="82.06"/><ellipse class="cls-14" cx="672.35" cy="232.02" rx="55.63" ry="8.32"/><path class="cls-16" d="M412.14,41.87a4.67,4.67,0,1,1-2.5-2"/><circle cx="407.15" cy="45.44" r="1.05" transform="translate(99.63 316.12) rotate(-47.72)"/><polyline class="cls-16" points="409.64 39.89 415.92 32.99 418.38 32.87 418.49 35 414.54 39.34 413.06 39.42 413.13 40.78 412.14 41.87"/><path class="cls-16" d="M639.32,302.23a4.67,4.67,0,1,1-2.5-2"/><circle cx="634.33" cy="305.81" r="1.05" transform="translate(-18.66 569.43) rotate(-47.72)"/><polyline class="cls-16" points="636.83 300.26 643.1 293.36 645.57 293.24 645.67 295.36 641.72 299.7 640.25 299.78 640.31 301.14 639.32 302.23"/><rect class="cls-17" x="105.69" y="334.67" width="102" height="56" rx="4" ry="4"/><rect class="cls-18" x="625.16" y="287.93" width="26" height="26" rx="3" ry="3"/><line class="cls-19" x1="323.5" y1="510.7" x2="401.19" y2="510.7"/><polygon class="cls-20" points="400.32 513.69 405.5 510.7 400.32 507.71 400.32 513.69"/><line class="cls-19" x1="323.5" y1="429.7" x2="401.19" y2="429.7"/><polygon class="cls-20" points="400.32 432.69 405.5 429.7 400.32 426.71 400.32 432.69"/><line class="cls-21" x1="56.5" y1="391.17" x2="400.19" y2="391.17"/><polygon class="cls-22" points="399.32 394.16 404.5 391.17 399.32 388.18 399.32 394.16"/><line class="cls-23" x1="56.5" y1="275.17" x2="400.19" y2="275.17"/><polygon class="cls-24" points="399.32 278.16 404.5 275.17 399.32 272.18 399.32 278.16"/><path class="cls-16" d="M313.14,86.29a4.67,4.67,0,1,1-2.5-2"/><circle cx="308.15" cy="89.87" r="1.05" transform="translate(34.36 257.41) rotate(-47.72)"/><polyline class="cls-16" points="310.64 84.31 316.92 77.41 319.38 77.3 319.49 79.42 315.54 83.76 314.06 83.84 314.13 85.2 313.14 86.29"/><rect class="cls-18" x="299" y="72.35" width="26" height="26" rx="3" ry="3" transform="translate(0.28 -1.03) rotate(0.19)"/><line class="cls-4" x1="567.81" y1="275.17" x2="568.81" y2="275.17"/><line class="cls-25" x1="570.8" y1="275.17" x2="609.7" y2="275.17"/><line class="cls-4" x1="610.69" y1="275.17" x2="611.69" y2="275.17"/><polygon points="568.68 278.16 563.5 275.17 568.68 272.18 568.68 278.16"/><polygon points="610.82 278.16 616 275.17 610.82 272.18 610.82 278.16"/><line class="cls-13" x1="616.75" y1="463.67" x2="616.75" y2="382.06"/><line class="cls-13" x1="728" y1="463.67" x2="728" y2="381.2"/><path class="cls-14" d="M728,463.2c0,6.83-25.26,13.36-55.86,13.36s-55.39-6.53-55.39-13.36"/><rect class="cls-15" x="617.56" y="381.61" width="109.58" height="82.06"/><ellipse class="cls-14" cx="672.35" cy="381.02" rx="55.63" ry="8.32"/><line class="cls-4" x1="567.81" y1="425.17" x2="568.81" y2="425.17"/><line class="cls-25" x1="570.8" y1="425.17" x2="609.7" y2="425.17"/><line class="cls-4" x1="610.69" y1="425.17" x2="611.69" y2="425.17"/><polygon points="568.68 428.16 563.5 425.17 568.68 422.18 568.68 428.16"/><polygon points="610.82 428.16 616 425.17 610.82 422.18 610.82 428.16"/><polyline class="cls-26" points="742.5 115.17 742.5 116.17 741.5 116.17"/><line class="cls-27" x1="739.51" y1="116.17" x2="282.5" y2="116.17"/><polyline class="cls-26" points="281.5 116.17 280.5 116.17 280.5 115.17"/><line class="cls-28" x1="280.5" y1="113.2" x2="280.5" y2="19.65"/><polyline class="cls-26" points="280.5 18.67 280.5 17.67 281.5 17.67"/><line class="cls-27" x1="283.49" y1="17.67" x2="740.5" y2="17.67"/><polyline class="cls-26" points="741.5 17.67 742.5 17.67 742.5 18.67"/><line class="cls-28" x1="742.5" y1="20.64" x2="742.5" y2="114.18"/><line class="cls-23" x1="56.5" y1="275.67" x2="56.5" y2="310.17"/><line class="cls-21" x1="56" y1="391.2" x2="56" y2="359.17"/><line class="cls-29" x1="220.19" y1="511.67" x2="56.5" y2="511.67"/><polygon class="cls-20" points="219.32 508.68 224.5 511.67 219.32 514.66 219.32 508.68"/><line class="cls-29" x1="220.19" y1="429.67" x2="55.5" y2="429.67"/><polygon class="cls-20" points="219.32 426.68 224.5 429.67 219.32 432.66 219.32 426.68"/><line class="cls-30" x1="56" y1="430.17" x2="56" y2="450.67"/><line class="cls-30" x1="56.5" y1="491.67" x2="56.5" y2="511.67"/><path class="cls-16" d="M602,260.7a6.25,6.25,0,1,1-3.35-2.63"/><circle cx="595.35" cy="265.51" r="1.4" transform="translate(-0.73 529.38) rotate(-47.91)"/><polyline class="cls-16" points="598.66 258.07 607.03 248.8 610.33 248.63 610.48 251.48 605.21 257.31 603.24 257.42 603.33 259.24 602.01 260.7"/><path class="cls-31" d="M602.49,410.11a6.25,6.25,0,1,1-3.35-2.63"/><circle cx="595.82" cy="414.93" r="1.4" transform="translate(-111.46 579) rotate(-47.91)"/><polyline class="cls-31" points="599.13 407.49 607.5 398.22 610.8 398.05 610.95 400.9 605.69 406.72 603.71 406.83 603.8 408.66 602.49 410.11"/><rect class="cls-18" x="625" y="436.67" width="26" height="26" rx="3" ry="3"/><path class="cls-31" d="M639.24,450.6a4.67,4.67,0,1,1-2.5-2"/><circle cx="634.26" cy="454.19" r="1.05" transform="translate(-127.93 620.47) rotate(-47.91)"/><polyline class="cls-31" points="636.73 448.64 642.99 441.71 645.45 441.59 645.56 443.71 641.63 448.06 640.15 448.15 640.22 449.51 639.24 450.6"/><path class="cls-31" d="M557.14,41.87a4.67,4.67,0,1,1-2.5-2"/><circle cx="552.15" cy="45.44" r="1.05" transform="translate(147.09 423.41) rotate(-47.72)"/><polyline class="cls-31" points="554.64 39.89 560.92 32.99 563.38 32.87 563.49 35 559.54 39.34 558.06 39.42 558.13 40.78 557.14 41.87"/><rect class="cls-18" x="506" y="72.35" width="26" height="26" rx="3" ry="3"/><path class="cls-31" d="M520.15,86.29a4.67,4.67,0,1,1-2.5-2"/><circle cx="515.17" cy="89.89" r="1.05" transform="translate(103.17 411.96) rotate(-47.91)"/><polyline class="cls-31" points="517.64 84.33 523.9 77.4 526.36 77.28 526.47 79.4 522.54 83.76 521.06 83.84 521.13 85.2 520.15 86.29"/><line class="cls-21" x1="93.5" y1="334.8" x2="220.19" y2="334.8"/><polygon class="cls-22" points="219.32 337.79 224.5 334.8 219.32 331.81 219.32 337.79"/><line class="cls-21" x1="325.34" y1="334.88" x2="400.19" y2="334.88"/><polygon class="cls-22" points="399.32 337.87 404.5 334.88 399.32 331.89 399.32 337.87"/></g><g id="Text"><text class="cls-32" transform="translate(478.82 610.83)">IBM Z/LinuxONE pl<tspan class="cls-33" x="106.22" y="0">a</tspan><tspan class="cls-34" x="112.88" y="0">t</tspan><tspan class="cls-35" x="117.33" y="0">f</tspan><tspan x="121.49" y="0">orm</tspan></text><text class="cls-32" transform="translate(457.38 190.32)">Hyper <tspan class="cls-36" x="36.36" y="0">P</tspan><tspan class="cls-37" x="43.93" y="0">r</tspan><tspan class="cls-33" x="48.59" y="0">ot</tspan><tspan x="59.74" y="0">ect C</tspan><tspan class="cls-38" x="87.61" y="0">r</tspan><tspan x="92.42" y="0">y</tspan><tspan class="cls-39" x="98.71" y="0">p</tspan><tspan class="cls-33" x="105.84" y="0">t</tspan><tspan x="110.28" y="0">o Se</tspan><tspan class="cls-38" x="133.89" y="0">r</tspan><tspan x="138.71" y="0">vi</tspan><tspan class="cls-37" x="148.31" y="0">c</tspan><tspan class="cls-40" x="154.4" y="0">es</tspan></text><text class="cls-41" transform="translate(107.92 269.2)">K<tspan class="cls-42" x="6.09" y="0">e</tspan><tspan class="cls-43" x="11.53" y="0">y mana</tspan><tspan class="cls-44" x="43.97" y="0">g</tspan><tspan class="cls-43" x="49.19" y="0">ement API</tspan></text><text class="cls-45" transform="translate(128.35 404.2)">GREP11 API</text><text class="cls-45" transform="translate(136.89 525.2)">Cloud CLI</text><text class="cls-45" transform="translate(147.82 424.2)">GUI</text><text class="cls-46" transform="translate(320.14 44.45) rotate(0.19)">Ma<tspan class="cls-47" x="16.15" y="0">s</tspan><tspan class="cls-33" x="21.91" y="0">t</tspan><tspan x="26.08" y="0">er </tspan><tspan class="cls-48" x="39.9" y="0">K</tspan><tspan class="cls-49" x="47.21" y="0">e</tspan><tspan x="53.74" y="0">y</tspan></text><text class="cls-46" transform="translate(425.05 44.38) rotate(0.19)"><tspan class="cls-50">R</tspan><tspan class="cls-40" x="7.5" y="0">oot</tspan><tspan class="cls-51" x="25.15" y="0">/</tspan><tspan x="29.57" y="0">Standa</tspan><tspan class="cls-39" x="67.34" y="0">r</tspan><tspan x="71.68" y="0">d </tspan><tspan class="cls-48" x="81.47" y="0">K</tspan><tspan class="cls-49" x="88.77" y="0">e</tspan><tspan x="95.3" y="0">y</tspan></text><text class="cls-46" transform="translate(340.87 81.55) rotate(0.19)">Ma<tspan class="cls-47" x="16.15" y="0">s</tspan><tspan class="cls-33" x="21.91" y="0">t</tspan><tspan x="26.08" y="0">er </tspan><tspan class="cls-52" x="39.9" y="0">k</tspan><tspan class="cls-49" x="46.02" y="0">e</tspan><tspan class="cls-53" x="52.55" y="0">y</tspan><tspan class="cls-40" x="58.42" y="0">-p</tspan><tspan class="cls-37" x="70.16" y="0">r</tspan><tspan x="74.51" y="0">o</tspan><tspan class="cls-33" x="81.23" y="0">t</tspan><tspan x="85.39" y="0">ec</tspan><tspan class="cls-33" x="98.02" y="0">t</tspan><tspan x="102.18" y="0">ed </tspan><tspan class="cls-52" x="118.56" y="0">k</tspan><tspan class="cls-49" x="124.68" y="0">e</tspan><tspan x="131.21" y="0">y</tspan><tspan x="0" y="14.4">(</tspan><tspan class="cls-37" x="4.02" y="14.4">r</tspan><tspan x="8.36" y="14.4">oot/</tspan><tspan class="cls-47" x="30.61" y="14.4">s</tspan><tspan x="36.37" y="14.4">tanda</tspan><tspan class="cls-39" x="67.18" y="14.4">r</tspan><tspan x="71.51" y="14.4">d </tspan><tspan class="cls-52" x="81.3" y="14.4">k</tspan><tspan class="cls-49" x="87.42" y="14.4">e</tspan><tspan x="93.95" y="14.4">y)</tspan></text><text class="cls-46" transform="translate(547.87 81.51) rotate(0.19)">Ma<tspan class="cls-47" x="16.15" y="0">s</tspan><tspan class="cls-33" x="21.91" y="0">t</tspan><tspan x="26.08" y="0">er </tspan><tspan class="cls-52" x="39.9" y="0">k</tspan><tspan class="cls-49" x="46.02" y="0">e</tspan><tspan class="cls-53" x="52.55" y="0">y</tspan><tspan class="cls-40" x="58.42" y="0">-p</tspan><tspan class="cls-37" x="70.16" y="0">r</tspan><tspan x="74.51" y="0">o</tspan><tspan class="cls-33" x="81.23" y="0">t</tspan><tspan x="85.39" y="0">ec</tspan><tspan class="cls-33" x="98.02" y="0">t</tspan><tspan x="102.18" y="0">ed </tspan><tspan class="cls-52" x="118.56" y="0">k</tspan><tspan class="cls-49" x="124.68" y="0">e</tspan><tspan x="131.21" y="0">y</tspan><tspan class="cls-54" x="0" y="14.4">(</tspan><tspan class="cls-39" x="4.14" y="14.4">g</tspan><tspan x="10.4" y="14.4">ene</tspan><tspan class="cls-33" x="30.4" y="14.4">r</tspan><tspan x="34.75" y="14.4">a</tspan><tspan class="cls-33" x="41.16" y="14.4">t</tspan><tspan x="45.32" y="14.4">ed </tspan><tspan class="cls-37" x="61.7" y="14.4">b</tspan><tspan class="cls-40" x="68.6" y="14.4">y P</tspan><tspan class="cls-55" x="84.69" y="14.4">K</tspan><tspan x="92" y="14.4">CS #11 API)</tspan></text><text class="cls-45" transform="translate(130.76 469.2)"><tspan class="cls-56">L</tspan><tspan x="4.91" y="0">oad the </tspan><tspan x="0" y="12">ma</tspan><tspan class="cls-57" x="14.07" y="12">s</tspan><tspan class="cls-58" x="18.87" y="12">t</tspan><tspan x="22.34" y="12">er </tspan><tspan class="cls-59" x="33.86" y="12">k</tspan><tspan class="cls-60" x="38.96" y="12">e</tspan><tspan x="44.4" y="12">y</tspan></text><text class="cls-45" transform="translate(233.32 248.17)">Mana<tspan class="cls-61" x="24.48" y="0">g</tspan><tspan class="cls-62" x="29.7" y="0">e </tspan><tspan class="cls-42" x="37.55" y="0">r</tspan><tspan x="41.17" y="0">oot </tspan><tspan class="cls-59" x="58.24" y="0">k</tspan><tspan class="cls-60" x="63.34" y="0">e</tspan><tspan class="cls-58" x="68.78" y="0">y</tspan><tspan x="73.73" y="0">s </tspan><tspan x="0" y="12">and </tspan><tspan class="cls-57" x="19.18" y="12">s</tspan><tspan class="cls-63" x="23.98" y="12">tanda</tspan><tspan class="cls-61" x="49.65" y="12">r</tspan><tspan x="53.26" y="12">d </tspan><tspan class="cls-59" x="61.42" y="12">k</tspan><tspan class="cls-60" x="66.52" y="12">e</tspan><tspan class="cls-58" x="71.96" y="12">y</tspan><tspan x="76.91" y="12">s</tspan></text><text class="cls-45" transform="translate(116.2 348.17)"><tspan class="cls-56">L</tspan><tspan class="cls-64" x="4.91" y="0">ev</tspan><tspan class="cls-62" x="15.16" y="0">e</tspan><tspan class="cls-58" x="20.65" y="0">r</tspan><tspan class="cls-63" x="24.28" y="0">a</tspan><tspan class="cls-65" x="29.62" y="0">g</tspan><tspan x="34.84" y="0">e EP11 </tspan><tspan class="cls-58" x="68.94" y="0">t</tspan><tspan x="72.41" y="0">o </tspan><tspan x="0" y="12">pe</tspan><tspan class="cls-66" x="11.29" y="12">r</tspan><tspan class="cls-67" x="15" y="12">f</tspan><tspan class="cls-63" x="18.2" y="12">orm </tspan><tspan x="0" y="24">c</tspan><tspan class="cls-68" x="5.03" y="24">r</tspan><tspan x="8.8" y="24">y</tspan><tspan class="cls-65" x="13.79" y="24">p</tspan><tspan class="cls-69" x="19.53" y="24">t</tspan><tspan x="23" y="24">og</tspan><tspan class="cls-58" x="33.88" y="24">r</tspan><tspan x="37.51" y="24">aphic </tspan><tspan x="0" y="36">ope</tspan><tspan class="cls-58" x="16.89" y="36">r</tspan><tspan x="20.52" y="36">ations</tspan></text><text class="cls-70" transform="translate(13.48 337.12)">Applic<tspan class="cls-71" x="34.87" y="0">a</tspan><tspan x="41.42" y="0">tions</tspan></text><text class="cls-70" transform="translate(238.44 425.44)">Mana<tspan class="cls-72" x="29.9" y="0">g</tspan><tspan x="36.28" y="0">ement</tspan><tspan x="14.5" y="14.4">Utilities</tspan></text><text class="cls-70" transform="translate(231.58 514.44)">TKE CLI plug-in</text><text class="cls-70" transform="translate(456.29 230.92)">C<tspan class="cls-73" x="7.61" y="0">r</tspan><tspan x="12.31" y="0">y</tspan><tspan class="cls-39" x="18.48" y="0">p</tspan><tspan class="cls-74" x="25.51" y="0">t</tspan><tspan x="29.84" y="0">o Unit</tspan></text><text class="cls-70" transform="translate(436.12 270.43)"><tspan class="cls-55">K</tspan><tspan class="cls-75" x="7.62" y="0">e</tspan><tspan x="14.22" y="0">y mana</tspan><tspan class="cls-39" x="53.94" y="0">g</tspan><tspan x="60.31" y="0">ement</tspan><tspan x="28.12" y="14.4">se</tspan><tspan class="cls-73" x="40.72" y="14.4">r</tspan><tspan x="45.42" y="14.4">vi</tspan><tspan class="cls-75" x="54.74" y="14.4">c</tspan><tspan class="cls-40" x="60.79" y="14.4">e</tspan></text><text class="cls-70" transform="translate(455.31 422.93)">Cloud HSM</text><text class="cls-70" transform="translate(625.01 259.7)"><tspan class="cls-55">K</tspan><tspan class="cls-39" x="7.62" y="0">e</tspan><tspan class="cls-76" x="14.22" y="0">y mana</tspan><tspan class="cls-72" x="53.94" y="0">g</tspan><tspan x="60.31" y="0">ement</tspan><tspan class="cls-77" x="24.21" y="14.4">k</tspan><tspan class="cls-75" x="30.52" y="14.4">ey</tspan><tspan class="cls-78" x="43.22" y="14.4">s</tspan><tspan class="cls-33" x="49.06" y="14.4">t</tspan><tspan class="cls-79" x="53.39" y="14.4">o</tspan><tspan class="cls-49" x="60.16" y="14.4">r</tspan><tspan x="64.7" y="14.4">e</tspan></text><text class="cls-32" transform="translate(363.93 148.72)">IBM Cloud</text><text class="cls-80" transform="translate(29.81 34.66)">In<tspan class="cls-81" x="14.15" y="0">t</tspan><tspan class="cls-82" x="19.33" y="0">e</tspan><tspan class="cls-83" x="27.15" y="0">r</tspan><tspan class="cls-84" x="32.49" y="0">action with Hyper </tspan><tspan class="cls-53" x="150.54" y="0">P</tspan><tspan class="cls-85" x="159.37" y="0">r</tspan><tspan class="cls-86" x="164.81" y="0">ot</tspan><tspan class="cls-82" x="177.81" y="0">ect </tspan><tspan x="0" y="16.8">C</tspan><tspan class="cls-87" x="8.99" y="16.8">r</tspan><tspan x="14.6" y="16.8">y</tspan><tspan class="cls-88" x="21.94" y="16.8">p</tspan><tspan class="cls-81" x="30.25" y="16.8">t</tspan><tspan x="35.43" y="16.8">o Se</tspan><tspan class="cls-87" x="62.98" y="16.8">r</tspan><tspan x="68.6" y="16.8">vi</tspan><tspan class="cls-85" x="79.8" y="16.8">c</tspan><tspan x="86.91" y="16.8">es </tspan><tspan class="cls-85" x="105.01" y="16.8">c</tspan><tspan x="112.12" y="16.8">omponents</tspan></text><text class="cls-70" transform="translate(644.8 408.23)">P<tspan class="cls-89" x="7.52" y="0">K</tspan><tspan x="15.07" y="0">CS #11</tspan><tspan class="cls-77" x="4.03" y="14.4">k</tspan><tspan class="cls-39" x="10.34" y="14.4">ey</tspan><tspan class="cls-47" x="23.04" y="14.4">s</tspan><tspan class="cls-33" x="28.88" y="14.4">t</tspan><tspan class="cls-76" x="33.22" y="14.4">o</tspan><tspan class="cls-37" x="39.98" y="14.4">r</tspan><tspan x="44.52" y="14.4">e</tspan></text><text class="cls-46" transform="translate(571.17 44.29) rotate(0.19)">P<tspan class="cls-48" x="7.27" y="0">K</tspan><tspan class="cls-40" x="14.58" y="0">CS #11 AP</tspan><tspan class="cls-90" x="72.59" y="0">I</tspan><tspan x="77.03" y="0">-</tspan><tspan class="cls-39" x="81.81" y="0">g</tspan><tspan x="88.08" y="0">ene</tspan><tspan class="cls-33" x="108.07" y="0">r</tspan><tspan x="112.43" y="0">a</tspan><tspan class="cls-33" x="118.83" y="0">t</tspan><tspan x="123" y="0">ed </tspan><tspan class="cls-91" x="139.38" y="0">k</tspan><tspan class="cls-37" x="145.5" y="0">e</tspan><tspan class="cls-40" x="152.03" y="0">y</tspan></text><text class="cls-45" transform="translate(124.14 327.5)">P<tspan class="cls-92" x="6.06" y="0">K</tspan><tspan x="12.15" y="0">CS #11 API</tspan></text><text class="cls-70" transform="translate(245.18 331.11)">P<tspan class="cls-89" x="7.52" y="0">K</tspan><tspan x="15.07" y="0">CS #11 </tspan><tspan x="11.2" y="14.4">lib</tspan><tspan class="cls-93" x="24.9" y="14.4">r</tspan><tspan x="29.4" y="14.4">a</tspan><tspan class="cls-73" x="35.99" y="14.4">r</tspan><tspan x="40.69" y="14.4">y</tspan></text></g></svg>