<svg id="Layer_1" data-name="Layer 1" xmlns="http://www.w3.org/2000/svg" viewBox="0 0 750 790"><defs><style>.cls-1{fill:#f2f4f8;}.cls-1,.cls-10,.cls-27,.cls-32,.cls-59,.cls-60,.cls-61,.cls-62,.cls-65,.cls-66,.cls-67,.cls-68,.cls-69,.cls-70,.cls-71,.cls-72,.cls-74,.cls-75,.cls-86{stroke:#000;}.cls-1,.cls-10,.cls-3,.cls-4,.cls-5,.cls-61,.cls-62,.cls-65,.cls-71,.cls-72,.cls-75{stroke-linejoin:round;}.cls-10,.cls-2,.cls-74{fill:#fff;}.cls-27,.cls-3,.cls-32,.cls-4,.cls-5,.cls-56,.cls-57,.cls-58,.cls-59,.cls-60,.cls-66,.cls-67,.cls-68,.cls-69,.cls-70,.cls-73,.cls-75,.cls-78,.cls-80,.cls-82,.cls-84,.cls-85,.cls-86{fill:none;}.cls-3,.cls-4,.cls-5,.cls-84,.cls-85{stroke:#9fa5ad;}.cls-4{stroke-dasharray:2 2;}.cls-5{stroke-dasharray:2 2;}.cls-19,.cls-6{font-size:12px;}.cls-6{font-family:IBMPlexSans-SemiBold, IBM Plex Sans;font-weight:700;}.cls-7{letter-spacing:0em;}.cls-8{letter-spacing:0em;}.cls-9{letter-spacing:0em;}.cls-11{letter-spacing:-0.01em;}.cls-12{letter-spacing:-0.01em;}.cls-13{letter-spacing:0.01em;}.cls-14{letter-spacing:-0.01em;}.cls-15{letter-spacing:0em;}.cls-16{letter-spacing:0.01em;}.cls-17{letter-spacing:0em;}.cls-18{letter-spacing:-0.01em;}.cls-19,.cls-36{font-family:IBMPlexSans, IBM Plex Sans;}.cls-20{letter-spacing:-0.01em;}.cls-21{letter-spacing:-0.01em;}.cls-22{letter-spacing:-0.03em;}.cls-23{letter-spacing:-0.02em;}.cls-24{letter-spacing:-0.01em;}.cls-25{letter-spacing:-0.02em;}.cls-26{letter-spacing:-0.01em;}.cls-27,.cls-32,.cls-56,.cls-57,.cls-58,.cls-59,.cls-60,.cls-66,.cls-67,.cls-68,.cls-69,.cls-70,.cls-73,.cls-74,.cls-78,.cls-80,.cls-82,.cls-84,.cls-85,.cls-86{stroke-miterlimit:10;}.cls-28{fill:#333;}.cls-29{letter-spacing:-0.02em;}.cls-30{letter-spacing:-0.01em;}.cls-31{letter-spacing:0em;}.cls-32{stroke-width:2px;}.cls-33{letter-spacing:0em;}.cls-34{letter-spacing:-0.01em;}.cls-35{fill:#f7f1ff;}.cls-36{font-size:10px;}.cls-37{letter-spacing:0em;}.cls-38{letter-spacing:0em;}.cls-39{letter-spacing:-0.01em;}.cls-40{letter-spacing:-0.01em;}.cls-41{letter-spacing:-0.03em;}.cls-42{letter-spacing:0em;}.cls-43{letter-spacing:0em;}.cls-44{letter-spacing:-0.02em;}.cls-45{letter-spacing:-0.01em;}.cls-46,.cls-62{fill:#dbfbfb;}.cls-47{letter-spacing:-0.02em;}.cls-48{letter-spacing:-0.02em;}.cls-49,.cls-61{fill:#e3f6ff;}.cls-50{letter-spacing:-0.01em;}.cls-51{letter-spacing:-0.01em;}.cls-52{letter-spacing:-0.01em;}.cls-53{letter-spacing:0.01em;}.cls-54{letter-spacing:-0.01em;}.cls-55{letter-spacing:-0.02em;}.cls-56,.cls-80{stroke:#007d79;}.cls-56,.cls-57,.cls-58,.cls-59,.cls-60,.cls-66,.cls-67,.cls-71,.cls-72,.cls-73,.cls-75{stroke-linecap:round;}.cls-57,.cls-82{stroke:#0072c3;}.cls-58,.cls-73,.cls-78{stroke:#6e32c9;}.cls-60{stroke-dasharray:2 2;}.cls-63{letter-spacing:-0.02em;}.cls-64{letter-spacing:0.01em;}.cls-65{fill:#b3e6ff;}.cls-66,.cls-68{stroke-dasharray:2 2;}.cls-67{stroke-dasharray:2 2;}.cls-69{stroke-dasharray:2.13 2.13;}.cls-70{stroke-dasharray:1.99 1.99;}.cls-71{fill:#d0b0ff;}.cls-71,.cls-72{stroke-width:0.5px;}.cls-72{fill:#87eded;}.cls-73{stroke-width:1.5px;}.cls-76{letter-spacing:-0.01em;}.cls-77{letter-spacing:-0.01em;}.cls-79{fill:#6e32c9;}.cls-81{fill:#007d79;}.cls-83{fill:#0072c3;}.cls-85{stroke-dasharray:2 2;}.cls-86{stroke-dasharray:1.98 1.98;}</style></defs><title>hs-crypto-components</title><rect class="cls-1" x="347.3" y="23.11" width="363.78" height="625.78"/><rect class="cls-2" x="364.8" y="66.14" width="219.78" height="272.25"/><polyline class="cls-3" points="584.58 337.39 584.58 338.39 583.58 338.39"/><line class="cls-4" x1="581.58" y1="338.4" x2="366.8" y2="338.4"/><polyline class="cls-3" points="365.8 338.39 364.8 338.39 364.8 337.39"/><line class="cls-5" x1="364.8" y1="335.39" x2="364.8" y2="68.14"/><polyline class="cls-3" points="364.8 67.14 364.8 66.14 365.8 66.14"/><line class="cls-4" x1="367.8" y1="66.14" x2="582.58" y2="66.14"/><polyline class="cls-3" points="583.58 66.14 584.58 66.14 584.58 67.14"/><line class="cls-5" x1="584.58" y1="69.15" x2="584.58" y2="336.39"/><rect class="cls-1" x="347.3" y="673.14" width="363.78" height="30"/><text class="cls-6" transform="translate(459.82 693.27)">IBM Z/LinuxONE pl<tspan class="cls-7" x="106.22" y="0">a</tspan><tspan class="cls-8" x="112.88" y="0">t</tspan><tspan class="cls-9" x="117.33" y="0">f</tspan><tspan x="121.49" y="0">orm</tspan></text><rect class="cls-10" x="38.94" y="434.49" width="30" height="106.25"/><text class="cls-6" transform="translate(397.28 48.77)">Hyper <tspan class="cls-11" x="36.36" y="0">P</tspan><tspan class="cls-12" x="43.93" y="0">r</tspan><tspan class="cls-7" x="48.59" y="0">ot</tspan><tspan x="59.74" y="0">ect C</tspan><tspan class="cls-13" x="87.61" y="0">r</tspan><tspan x="92.42" y="0">y</tspan><tspan class="cls-14" x="98.71" y="0">p</tspan><tspan class="cls-7" x="105.84" y="0">t</tspan><tspan x="110.28" y="0">o Se</tspan><tspan class="cls-13" x="133.89" y="0">r</tspan><tspan x="138.71" y="0">vi</tspan><tspan class="cls-12" x="148.31" y="0">c</tspan><tspan class="cls-15" x="154.4" y="0">es Se</tspan><tspan class="cls-16" x="183.95" y="0">r</tspan><tspan class="cls-15" x="188.76" y="0">vi</tspan><tspan class="cls-17" x="198.36" y="0">c</tspan><tspan x="204.45" y="0">e in</tspan><tspan class="cls-18" x="224.35" y="0">s</tspan><tspan x="230.24" y="0">tan</tspan><tspan class="cls-12" x="248.49" y="0">c</tspan><tspan class="cls-15" x="254.59" y="0">e</tspan></text><text class="cls-19" transform="translate(205.74 444.64)">RE<tspan class="cls-20" x="14.68" y="0">S</tspan><tspan x="21.49" y="0">T APIs</tspan></text><text class="cls-19" transform="translate(205.55 516.64)">gRPC APIs</text><text class="cls-19" transform="translate(195.83 275.64)">Cloud TKE CLI</text><text class="cls-19" transform="translate(290.46 765.64)">Ma<tspan class="cls-21" x="16.15" y="0">s</tspan><tspan class="cls-7" x="21.91" y="0">t</tspan><tspan x="26.08" y="0">er </tspan><tspan class="cls-22" x="39.9" y="0">K</tspan><tspan class="cls-17" x="47.21" y="0">e</tspan><tspan x="53.74" y="0">y</tspan></text><text class="cls-19" transform="translate(406 765.31)"><tspan class="cls-23">R</tspan><tspan class="cls-15" x="7.5" y="0">oot</tspan><tspan class="cls-24" x="25.15" y="0">/</tspan><tspan x="29.57" y="0">Standa</tspan><tspan class="cls-14" x="67.34" y="0">r</tspan><tspan x="71.68" y="0">d </tspan><tspan class="cls-22" x="81.47" y="0">K</tspan><tspan class="cls-17" x="88.77" y="0">e</tspan><tspan x="95.3" y="0">y</tspan></text><text class="cls-19" transform="translate(574.44 763.98)">Ma<tspan class="cls-21" x="16.15" y="0">s</tspan><tspan class="cls-7" x="21.91" y="0">t</tspan><tspan x="26.08" y="0">er </tspan><tspan class="cls-25" x="39.9" y="0">k</tspan><tspan class="cls-17" x="46.02" y="0">e</tspan><tspan class="cls-26" x="52.55" y="0">y</tspan><tspan class="cls-15" x="58.42" y="0">-p</tspan><tspan class="cls-12" x="70.16" y="0">r</tspan><tspan x="74.51" y="0">o</tspan><tspan class="cls-7" x="81.23" y="0">t</tspan><tspan x="85.39" y="0">ec</tspan><tspan class="cls-7" x="98.02" y="0">t</tspan><tspan x="102.18" y="0">ed </tspan><tspan class="cls-25" x="118.56" y="0">k</tspan><tspan class="cls-17" x="124.68" y="0">e</tspan><tspan x="131.21" y="0">y</tspan></text><line class="cls-27" x1="526.3" y1="672.64" x2="526.3" y2="655.67"/><polygon points="529.79 656.69 526.3 650.64 522.81 656.69 529.79 656.69"/><rect class="cls-1" x="122.55" y="372.62" width="30" height="233.78"/><circle class="cls-28" cx="52.55" cy="278.14" r="6"/><path class="cls-28" d="M63.05,294.14v3h-21v-3a9,9,0,0,1,9-9h3A9,9,0,0,1,63.05,294.14Z"/><text class="cls-19" transform="translate(377.48 89.64)"><tspan class="cls-29">A</tspan><tspan class="cls-30" x="7.45" y="0">v</tspan><tspan x="13.25" y="0">ailability </tspan><tspan class="cls-12" x="61.58" y="0">Z</tspan><tspan class="cls-31" x="68.48" y="0">one 1</tspan></text><line class="cls-32" x1="94.08" y1="23.9" x2="94.08" y2="711.9"/><line class="cls-27" x1="70.55" y1="487.87" x2="115.53" y2="487.42"/><polygon points="114.54 490.92 120.55 487.37 114.47 483.94 114.54 490.92"/><line class="cls-27" x1="70.08" y1="283.9" x2="115.06" y2="283.45"/><polygon points="114.07 286.95 120.08 283.39 114 279.96 114.07 286.95"/><text class="cls-19" transform="translate(141.17 524.01) rotate(-90)"><tspan class="cls-26">L</tspan><tspan class="cls-33" x="5.89" y="0">oadbalan</tspan><tspan class="cls-34" x="55.83" y="0">c</tspan><tspan x="61.8" y="0">er</tspan></text><path class="cls-35" d="M172.3,283.14H286.08a0,0,0,0,1,0,0V333.9a4,4,0,0,1-4,4H176.3a4,4,0,0,1-4-4V283.14A0,0,0,0,1,172.3,283.14Z"/><text class="cls-36" transform="translate(183.8 300.64)">Confi<tspan class="cls-37" x="23.16" y="0">g</tspan><tspan class="cls-38" x="28.4" y="0">u</tspan><tspan class="cls-39" x="34.08" y="0">r</tspan><tspan x="37.7" y="0">e the Ma</tspan><tspan class="cls-40" x="76.05" y="0">s</tspan><tspan class="cls-37" x="80.85" y="0">t</tspan><tspan x="84.32" y="0">er </tspan><tspan class="cls-41" x="0" y="12">K</tspan><tspan class="cls-42" x="6.09" y="12">e</tspan><tspan class="cls-43" x="11.53" y="12">y </tspan><tspan class="cls-37" x="18.88" y="12">t</tspan><tspan class="cls-38" x="22.35" y="12">o ta</tspan><tspan class="cls-44" x="39.16" y="12">k</tspan><tspan x="44.26" y="12">e the </tspan><tspan class="cls-42" x="0" y="24">o</tspan><tspan class="cls-38" x="5.55" y="24">wnership </tspan><tspan class="cls-45" x="49.28" y="24">o</tspan><tspan x="54.82" y="24">f HSMs</tspan></text><path class="cls-46" d="M172.8,451.64H285.08a0,0,0,0,1,0,0v40a4,4,0,0,1-4,4H176.8a4,4,0,0,1-4-4v-40A0,0,0,0,1,172.8,451.64Z"/><text class="cls-36" transform="translate(183.3 469.14)">Mana<tspan class="cls-45" x="24.48" y="0">g</tspan><tspan class="cls-43" x="29.7" y="0">e </tspan><tspan class="cls-47" x="37.55" y="0">R</tspan><tspan x="43.8" y="0">oot </tspan><tspan class="cls-48" x="60.87" y="0">k</tspan><tspan class="cls-39" x="65.97" y="0">e</tspan><tspan class="cls-37" x="71.41" y="0">y</tspan><tspan x="76.36" y="0">s </tspan><tspan x="0" y="12">and Standa</tspan><tspan class="cls-45" x="50.66" y="12">r</tspan><tspan x="54.27" y="12">d </tspan><tspan class="cls-48" x="62.43" y="12">k</tspan><tspan class="cls-39" x="67.53" y="12">e</tspan><tspan class="cls-37" x="72.97" y="12">y</tspan><tspan x="77.92" y="12">s</tspan></text><path class="cls-49" d="M171.8,523.64H286.08a0,0,0,0,1,0,0V571.9a4,4,0,0,1-4,4H175.8a4,4,0,0,1-4-4V523.64A0,0,0,0,1,171.8,523.64Z"/><text class="cls-36" transform="translate(182.3 542.14)"><tspan class="cls-50">L</tspan><tspan class="cls-51" x="4.91" y="0">ev</tspan><tspan class="cls-43" x="15.16" y="0">e</tspan><tspan class="cls-37" x="20.65" y="0">r</tspan><tspan class="cls-38" x="24.28" y="0">a</tspan><tspan class="cls-52" x="29.62" y="0">g</tspan><tspan x="34.84" y="0">e EP11 </tspan><tspan class="cls-37" x="68.94" y="0">t</tspan><tspan x="72.41" y="0">o </tspan><tspan x="0" y="12">enc</tspan><tspan class="cls-53" x="16.2" y="12">r</tspan><tspan x="19.97" y="12">y</tspan><tspan class="cls-52" x="24.96" y="12">p</tspan><tspan x="30.7" y="12">t cu</tspan><tspan class="cls-54" x="47.28" y="12">s</tspan><tspan class="cls-37" x="52.08" y="12">t</tspan><tspan class="cls-38" x="55.55" y="12">ome</tspan><tspan class="cls-55" x="75.37" y="12">r</tspan><tspan x="78.84" y="12">-</tspan><tspan class="cls-42"><tspan x="0" y="24">o</tspan><tspan class="cls-38" x="5.55" y="24">wned data</tspan></tspan></text><line class="cls-56" x1="317.8" y1="156.64" x2="317.8" y2="450.64"/><line class="cls-57" x1="330.8" y1="230.64" x2="330.8" y2="522.64"/><line class="cls-58" x1="303.8" y1="282.64" x2="303.8" y2="581.64"/><line class="cls-59" x1="647.58" y1="435.42" x2="647.58" y2="436.42"/><line class="cls-60" x1="647.58" y1="438.42" x2="647.58" y2="525.4"/><line class="cls-59" x1="647.58" y1="526.4" x2="647.58" y2="527.4"/><polygon points="644.09 436.44 647.58 430.39 651.07 436.44 644.09 436.44"/><line class="cls-59" x1="647.5" y1="232.61" x2="647.5" y2="233.61"/><line class="cls-60" x1="647.5" y1="235.61" x2="647.5" y2="322.59"/><line class="cls-59" x1="647.5" y1="323.59" x2="647.5" y2="324.59"/><polygon points="644.01 323.57 647.5 329.61 650.99 323.57 644.01 323.57"/><rect class="cls-2" x="364.8" y="359.14" width="219.78" height="272.25"/><polyline class="cls-3" points="584.58 630.39 584.58 631.39 583.58 631.39"/><line class="cls-4" x1="581.58" y1="631.4" x2="366.8" y2="631.4"/><polyline class="cls-3" points="365.8 631.39 364.8 631.39 364.8 630.39"/><line class="cls-5" x1="364.8" y1="628.39" x2="364.8" y2="361.14"/><polyline class="cls-3" points="364.8 360.14 364.8 359.14 365.8 359.14"/><line class="cls-4" x1="367.8" y1="359.14" x2="582.58" y2="359.14"/><polyline class="cls-3" points="583.58 359.14 584.58 359.14 584.58 360.14"/><line class="cls-5" x1="584.58" y1="362.15" x2="584.58" y2="629.39"/><text class="cls-19" transform="translate(377.48 382.64)"><tspan class="cls-29">A</tspan><tspan class="cls-30" x="7.45" y="0">v</tspan><tspan x="13.25" y="0">ailability </tspan><tspan class="cls-12" x="61.58" y="0">Z</tspan><tspan class="cls-31" x="68.48" y="0">one 2</tspan></text><text class="cls-19" transform="translate(57.89 521.07) rotate(-90)">Applications</text><rect class="cls-1" x="122.55" y="231.64" width="30" height="106.25"/><text class="cls-19" transform="translate(141.17 312.62) rotate(-90)">Cloud TKE</text><rect class="cls-61" x="380.58" y="104.4" width="187" height="216"/><rect class="cls-61" x="380.58" y="398.4" width="187" height="216"/><text class="cls-6" transform="translate(399.39 125.37)">C<tspan class="cls-16" x="7.7" y="0">r</tspan><tspan x="12.52" y="0">y</tspan><tspan class="cls-14" x="18.8" y="0">p</tspan><tspan class="cls-7" x="25.93" y="0">t</tspan><tspan x="30.37" y="0">o Unit A</tspan></text><rect class="cls-62" x="397.8" y="139.64" width="154.78" height="34"/><text class="cls-19" transform="translate(407.43 159.88)"><tspan class="cls-63">K</tspan><tspan class="cls-12" x="7.31" y="0">e</tspan><tspan x="13.84" y="0">y mana</tspan><tspan class="cls-34" x="52.76" y="0">g</tspan><tspan x="59.03" y="0">ement se</tspan><tspan class="cls-64" x="108.97" y="0">r</tspan><tspan x="113.49" y="0">vi</tspan><tspan class="cls-14" x="122.4" y="0">c</tspan><tspan x="128.36" y="0">e</tspan></text><rect class="cls-65" x="397.3" y="210.89" width="155.28" height="91.5"/><text class="cls-19" transform="translate(439.79 255.38)">Cloud HSM</text><line class="cls-59" x1="482.58" y1="279.4" x2="483.58" y2="279.4"/><line class="cls-66" x1="485.58" y1="279.4" x2="528.58" y2="279.4"/><line class="cls-59" x1="529.58" y1="279.4" x2="530.58" y2="279.4"/><line class="cls-59" x1="531.16" y1="251.42" x2="531.16" y2="252.42"/><line class="cls-67" x1="531.16" y1="254.42" x2="531.16" y2="277.4"/><line class="cls-59" x1="531.16" y1="278.4" x2="531.16" y2="279.4"/><polygon points="527.67 252.44 531.16 246.4 534.65 252.44 527.67 252.44"/><line class="cls-68" x1="422.58" y1="201.87" x2="422.58" y2="181.92"/><polygon points="426.07 200.85 422.58 206.9 419.09 200.85 426.07 200.85"/><polygon points="426.07 182.94 422.58 176.9 419.09 182.94 426.07 182.94"/><line class="cls-27" x1="531.16" y1="202.37" x2="531.16" y2="201.37"/><line class="cls-69" x1="531.16" y1="199.24" x2="531.16" y2="178.96"/><line class="cls-27" x1="531.16" y1="177.9" x2="531.16" y2="176.9"/><polygon points="534.65 201.35 531.16 207.4 527.67 201.35 534.65 201.35"/><line class="cls-27" x1="422.58" y1="494.87" x2="422.58" y2="493.87"/><line class="cls-70" x1="422.58" y1="491.88" x2="422.58" y2="476.92"/><line class="cls-27" x1="422.58" y1="475.92" x2="422.58" y2="474.92"/><polygon points="426.07 493.85 422.58 499.89 419.09 493.85 426.07 493.85"/><polygon points="426.07 475.94 422.58 469.89 419.09 475.94 426.07 475.94"/><line class="cls-27" x1="531.16" y1="495.37" x2="531.16" y2="494.37"/><line class="cls-69" x1="531.16" y1="492.24" x2="531.16" y2="471.96"/><line class="cls-27" x1="531.16" y1="470.9" x2="531.16" y2="469.9"/><polygon points="534.65 494.35 531.16 500.39 527.67 494.35 534.65 494.35"/><path class="cls-71" d="M470.24,279a4.68,4.68,0,1,1-2.51-2"/><circle cx="465.26" cy="282.64" r="1.05"/><polyline class="cls-71" points="467.73 277.08 473.99 270.16 476.45 270.03 476.56 272.16 472.63 276.51 471.15 276.59 471.22 277.95 470.24 279.04"/><path class="cls-72" d="M519.24,193a4.68,4.68,0,1,1-2.51-2"/><circle cx="514.26" cy="196.64" r="1.05"/><polyline class="cls-72" points="516.73 191.08 522.99 184.16 525.45 184.03 525.56 186.16 521.63 190.51 520.15 190.59 520.22 191.95 519.24 193.04"/><path class="cls-72" d="M519.24,487a4.68,4.68,0,1,1-2.51-2"/><circle cx="514.26" cy="490.64" r="1.05"/><polyline class="cls-72" points="516.73 485.08 522.99 478.16 525.45 478.03 525.56 480.16 521.63 484.51 520.15 484.59 520.22 485.95 519.24 487.04"/><path class="cls-72" d="M391.24,760a4.68,4.68,0,1,1-2.51-2"/><circle cx="386.26" cy="763.64" r="1.05"/><polyline class="cls-72" points="388.73 758.08 394.99 751.16 397.45 751.03 397.56 753.16 393.63 757.51 392.15 757.59 392.22 758.95 391.24 760.04"/><path class="cls-72" d="M532.24,230a4.68,4.68,0,1,1-2.51-2"/><circle cx="527.26" cy="233.64" r="1.05"/><polyline class="cls-72" points="529.73 228.08 535.99 221.16 538.45 221.03 538.56 223.16 534.63 227.51 533.15 227.59 533.22 228.95 532.24 230.04"/><rect class="cls-73" x="518.16" y="216.37" width="26" height="26" rx="3" ry="3"/><text class="cls-6" transform="translate(399.44 418.37)">C<tspan class="cls-16" x="7.7" y="0">r</tspan><tspan x="12.52" y="0">y</tspan><tspan class="cls-14" x="18.8" y="0">p</tspan><tspan class="cls-7" x="25.93" y="0">t</tspan><tspan x="30.37" y="0">o Unit B</tspan></text><rect class="cls-62" x="397.8" y="432.64" width="154.78" height="34"/><text class="cls-19" transform="translate(407.43 452.88)"><tspan class="cls-63">K</tspan><tspan class="cls-12" x="7.31" y="0">e</tspan><tspan x="13.84" y="0">y mana</tspan><tspan class="cls-34" x="52.76" y="0">g</tspan><tspan x="59.03" y="0">ement se</tspan><tspan class="cls-64" x="108.97" y="0">r</tspan><tspan x="113.49" y="0">vi</tspan><tspan class="cls-14" x="122.4" y="0">c</tspan><tspan x="128.36" y="0">e</tspan></text><rect class="cls-65" x="397.3" y="503.89" width="155.28" height="91.5"/><text class="cls-19" transform="translate(439.79 549.38)">Cloud HSM</text><line class="cls-59" x1="482.58" y1="575.4" x2="483.58" y2="575.4"/><line class="cls-66" x1="485.58" y1="575.4" x2="528.58" y2="575.4"/><line class="cls-59" x1="529.58" y1="575.4" x2="530.58" y2="575.4"/><g id="keystore"><path class="cls-74" d="M697.73,408.64c0,6.83-22.71,13.37-50.21,13.37s-49.79-6.53-49.79-13.36"/><line class="cls-75" x1="597.75" y1="408.64" x2="597.75" y2="347.5"/><line class="cls-75" x1="697.75" y1="408.64" x2="697.75" y2="346.64"/><rect class="cls-2" x="598.48" y="347.05" width="98.5" height="61.69"/><ellipse class="cls-74" cx="647.73" cy="346.47" rx="50" ry="8.32"/></g><text class="cls-6" transform="translate(621.79 373.14)"><tspan class="cls-63">K</tspan><tspan class="cls-34" x="7.84" y="0">e</tspan><tspan x="14.46" y="0">y </tspan><tspan class="cls-76" x="23.58" y="0">s</tspan><tspan class="cls-7" x="29.47" y="0">t</tspan><tspan x="33.91" y="0">o</tspan><tspan class="cls-77" x="40.67" y="0">r</tspan><tspan x="45.32" y="0">e</tspan></text><path class="cls-71" d="M470.24,576a4.68,4.68,0,1,1-2.51-2"/><circle cx="465.26" cy="579.64" r="1.05"/><polyline class="cls-71" points="467.73 574.08 473.99 567.16 476.45 567.03 476.56 569.16 472.63 573.51 471.15 573.59 471.22 574.95 470.24 576.04"/><path class="cls-71" d="M275.24,761a4.68,4.68,0,1,1-2.51-2"/><circle cx="270.26" cy="764.64" r="1.05"/><polyline class="cls-71" points="272.73 759.08 278.99 752.16 281.45 752.03 281.56 754.16 277.63 758.51 276.15 758.59 276.22 759.95 275.24 761.04"/><path class="cls-72" d="M532.24,524a4.68,4.68,0,1,1-2.51-2"/><circle cx="527.26" cy="527.64" r="1.05"/><polyline class="cls-72" points="529.73 522.08 535.99 515.16 538.45 515.03 538.56 517.16 534.63 521.51 533.15 521.59 533.22 522.95 532.24 524.04"/><rect class="cls-73" x="518.16" y="510.37" width="26" height="26" rx="3" ry="3"/><path class="cls-72" d="M620.24,395a4.68,4.68,0,1,1-2.51-2"/><circle cx="615.26" cy="398.64" r="1.05"/><polyline class="cls-72" points="617.73 393.08 623.99 386.16 626.45 386.03 626.56 388.16 622.63 392.51 621.15 392.59 621.22 393.95 620.24 395.04"/><rect class="cls-73" x="606.16" y="381.37" width="26" height="26" rx="3" ry="3"/><line class="cls-78" x1="152.58" y1="282.4" x2="390.56" y2="282.15"/><polygon class="cls-79" points="389.54 285.64 395.58 282.14 389.53 278.66 389.54 285.64"/><line class="cls-80" x1="317.8" y1="156.64" x2="390.56" y2="156.64"/><polygon class="cls-81" points="389.54 160.13 395.58 156.64 389.54 153.15 389.54 160.13"/><line class="cls-82" x1="330.8" y1="230.64" x2="390.56" y2="230.64"/><polygon class="cls-83" points="389.54 234.13 395.58 230.64 389.54 227.15 389.54 234.13"/><line class="cls-78" x1="303.8" y1="581.64" x2="389.56" y2="581.64"/><polygon class="cls-79" points="388.54 585.13 394.58 581.64 388.54 578.15 388.54 585.13"/><line class="cls-82" x1="153.8" y1="523.14" x2="389.56" y2="523.14"/><polygon class="cls-83" points="388.54 526.63 394.58 523.14 388.54 519.65 388.54 526.63"/><line class="cls-80" x1="153.8" y1="450.64" x2="389.56" y2="450.64"/><polygon class="cls-81" points="388.54 454.13 394.58 450.64 388.54 447.15 388.54 454.13"/><line class="cls-84" x1="38.58" y1="730.9" x2="39.58" y2="730.9"/><line class="cls-85" x1="41.59" y1="730.9" x2="709.58" y2="730.9"/><line class="cls-84" x1="710.58" y1="730.9" x2="711.58" y2="730.9"/><path class="cls-72" d="M553.24,761a4.68,4.68,0,1,1-2.51-2"/><circle cx="548.26" cy="764.64" r="1.05"/><polyline class="cls-72" points="550.73 759.08 556.99 752.16 559.45 752.03 559.56 754.16 555.63 758.51 554.15 758.59 554.22 759.95 553.24 761.04"/><rect class="cls-73" x="539.16" y="747.37" width="26" height="26" rx="3" ry="3"/><line class="cls-27" x1="552.58" y1="232.4" x2="553.58" y2="232.4"/><line class="cls-86" x1="555.56" y1="232.4" x2="645.59" y2="232.4"/><line class="cls-27" x1="646.58" y1="232.4" x2="647.58" y2="232.4"/><line class="cls-27" x1="552.58" y1="527.4" x2="553.58" y2="527.4"/><line class="cls-86" x1="555.56" y1="527.4" x2="645.59" y2="527.4"/><line class="cls-27" x1="646.58" y1="527.4" x2="647.58" y2="527.4"/><text class="cls-6" transform="translate(122.93 39.16)">IBM Cloud</text><line class="cls-59" x1="531.58" y1="547.42" x2="531.58" y2="548.42"/><line class="cls-67" x1="531.58" y1="550.42" x2="531.58" y2="573.4"/><line class="cls-59" x1="531.58" y1="574.4" x2="531.58" y2="575.4"/><polygon points="528.09 548.44 531.58 542.39 535.07 548.44 528.09 548.44"/></svg>