<?xml version="1.0" encoding="utf-8"?>
<!-- Generator: Adobe Illustrator 21.1.0, SVG Export Plug-In . SVG Version: 6.00 Build 0)  -->
<svg version="1.1" id="Layer_1" xmlns="http://www.w3.org/2000/svg" xmlns:xlink="http://www.w3.org/1999/xlink" x="0px" y="0px"
	 viewBox="0 0 750 855" style="enable-background:new 0 0 750 855;" xml:space="preserve">
<style type="text/css">
	.st0{fill:none;stroke:#000000;stroke-width:2;stroke-miterlimit:10;}
	.st1{fill:#F2F4F8;stroke:#000000;stroke-linejoin:round;stroke-miterlimit:10;}
	.st2{fill:#FFFFFF;}
	.st3{fill:none;stroke:#9FA5AD;stroke-linejoin:round;}
	.st4{fill:none;stroke:#9FA5AD;stroke-linejoin:round;stroke-dasharray:1.998,1.998;}
	.st5{fill:none;stroke:#9FA5AD;stroke-linejoin:round;stroke-dasharray:2.0019,2.0019;}
	.st6{font-family:'IBMPlexSans-SemiBold';}
	.st7{font-size:12px;}
	.st8{fill:#FFFFFF;stroke:#000000;stroke-linejoin:round;stroke-miterlimit:10;}
	.st9{font-family:'IBMPlexSans';}
	.st10{fill:none;stroke:#000000;stroke-miterlimit:10;}
	.st11{fill:#333333;}
	.st12{fill:#F7F1FF;}
	.st13{font-size:10px;}
	.st14{fill:#DBFBFB;}
	.st15{fill:#E3F6FF;}
	.st16{fill:none;stroke:#007D79;stroke-linecap:round;stroke-miterlimit:10;}
	.st17{fill:none;stroke:#0072C3;stroke-linecap:round;stroke-miterlimit:10;}
	.st18{fill:none;stroke:#6E32C9;stroke-linecap:round;stroke-miterlimit:10;}
	.st19{fill:none;stroke:#000000;stroke-linecap:round;stroke-miterlimit:10;}
	.st20{fill:none;stroke:#000000;stroke-linecap:round;stroke-miterlimit:10;stroke-dasharray:2.0154,2.0154;}
	.st21{fill:none;}
	.st22{fill:#E3F6FF;stroke:#000000;stroke-linejoin:round;stroke-miterlimit:10;}
	.st23{fill:#DBFBFB;stroke:#000000;stroke-linejoin:round;stroke-miterlimit:10;}
	.st24{fill:#B3E6FF;stroke:#000000;stroke-linejoin:round;stroke-miterlimit:10;}
	.st25{fill:none;stroke:#000000;stroke-linecap:round;stroke-miterlimit:10;stroke-dasharray:2,2;}
	.st26{fill:none;stroke:#000000;stroke-linecap:round;stroke-miterlimit:10;stroke-dasharray:2.0534,2.0534;}
	.st27{fill:none;stroke:#000000;stroke-miterlimit:10;stroke-dasharray:2,2;}
	.st28{fill:none;stroke:#000000;stroke-miterlimit:10;stroke-dasharray:1.8611,1.8611;}
	.st29{fill:none;stroke:#000000;stroke-miterlimit:10;stroke-dasharray:2.1543,2.1543;}
	.st30{fill:#D0B0FF;stroke:#000000;stroke-width:0.5;stroke-linecap:round;stroke-linejoin:round;stroke-miterlimit:10;}
	.st31{fill:#87EDED;stroke:#000000;stroke-width:0.5;stroke-linecap:round;stroke-linejoin:round;stroke-miterlimit:10;}
	.st32{fill:none;stroke:#6E32C9;stroke-width:1.5;stroke-linecap:round;stroke-miterlimit:10;}
	.st33{fill:#FFFFFF;stroke:#000000;stroke-miterlimit:10;}
	.st34{fill:none;stroke:#000000;stroke-linecap:round;stroke-linejoin:round;stroke-miterlimit:10;}
	.st35{fill:none;stroke:#6E32C9;stroke-miterlimit:10;}
	.st36{fill:#6E32C9;}
	.st37{fill:none;stroke:#007D79;stroke-miterlimit:10;}
	.st38{fill:#007D79;}
	.st39{fill:none;stroke:#0072C3;stroke-miterlimit:10;}
	.st40{fill:#0072C3;}
	.st41{fill:none;stroke:#000000;stroke-miterlimit:10;stroke-dasharray:1.9787,1.9787;}
	.st42{font-size:14px;}
	.st43{fill:none;stroke:#9FA5AD;stroke-linecap:round;stroke-linejoin:round;}
	.st44{fill:none;stroke:#9FA5AD;stroke-linecap:round;stroke-linejoin:round;stroke-dasharray:2.0149,2.0149;}
	.st45{fill:none;stroke:#9FA5AD;stroke-linecap:round;stroke-linejoin:round;stroke-dasharray:2.0204,2.0204;}
</style>
<line class="st0" x1="264" y1="106.7" x2="264" y2="832.7"/>
<rect x="377.3" y="143.7" class="st1" width="363.8" height="625.8"/>
<g>
	<rect x="394.8" y="186.7" class="st2" width="219.8" height="272.3"/>
	<g>
		<polyline class="st3" points="614.6,458 614.6,459 613.6,459 		"/>
		<line class="st4" x1="611.6" y1="459" x2="396.8" y2="459"/>
		<polyline class="st3" points="395.8,459 394.8,459 394.8,458 		"/>
		<line class="st5" x1="394.8" y1="455.9" x2="394.8" y2="188.7"/>
		<polyline class="st3" points="394.8,187.7 394.8,186.7 395.8,186.7 		"/>
		<line class="st4" x1="397.8" y1="186.7" x2="612.6" y2="186.7"/>
		<polyline class="st3" points="613.6,186.7 614.6,186.7 614.6,187.7 		"/>
		<line class="st5" x1="614.6" y1="189.7" x2="614.6" y2="457"/>
	</g>
</g>
<rect x="377.3" y="793.7" class="st1" width="363.8" height="30"/>
<text transform="matrix(1 0 0 1 489.8205 813.8271)" class="st6 st7">IBM Z/LinuxONE platform</text>
<rect x="48.9" y="555" transform="matrix(3.267949e-07 1 -1 3.267949e-07 672.1143 544.2289)" class="st8" width="30" height="106.3"/>
<text transform="matrix(1 0 0 1 427.0905 169.3232)" class="st6 st7">Hyper Protect Crypto Services Service instance</text>
<text transform="matrix(1 0 0 1 165.6599 565.2002)" class="st9 st7">REST APIs</text>
<text transform="matrix(1 0 0 1 165.5461 637.2002)" class="st9 st7">gRPC APIs</text>
<text transform="matrix(1 0 0 1 59.5301 407.2002)" class="st9 st7">Cloud CLI</text>
<text transform="matrix(1 0 0 1 75.0455 337.2002)" class="st9 st7">GUI</text>
<text transform="matrix(1 0 0 1 588.7546 45.2002)" class="st9 st7">Master Key</text>
<text transform="matrix(1 0 0 1 588.6042 72.8667)" class="st9 st7">Root/Standard Key</text>
<text transform="matrix(1 0 0 1 589.0002 100.5332)" class="st9 st7">Master key-protected key</text>
<g>
	<g>
		<line class="st10" x1="556.3" y1="793.2" x2="556.3" y2="775.5"/>
		<g>
			<polygon points="559.3,776.4 556.3,771.2 553.3,776.4 			"/>
		</g>
	</g>
</g>
<g>
	<circle class="st11" cx="12.6" cy="371.7" r="6"/>
	<path class="st11" d="M23.1,387.7v3h-21v-3c0-5,4-9,9-9h3C19,378.7,23.1,382.8,23.1,387.7z"/>
</g>
<text transform="matrix(1 0 0 1 407.279 210.2002)" class="st9 st7">Availability Zone 1</text>
<path class="st12" d="M143.6,387.7H37.8c-2.2,0-4-1.8-4-4v-22c0-2.2,1.8-4,4-4h105.8c2.2,0,4,1.8,4,4v22
	C147.6,385.9,145.8,387.7,143.6,387.7z"/>
<text transform="matrix(1 0 0 1 44.764 375.2002)" class="st9 st13">Load the master key</text>
<path class="st14" d="M241.1,614.2H136.8c-2.2,0-4-1.8-4-4v-40h112.3v40C245.1,612.4,243.3,614.2,241.1,614.2z"/>
<text transform="matrix(1 0 0 1 143.3025 587.7002)"><tspan x="0" y="0" class="st9 st13">Manage root keys </tspan><tspan x="0" y="12" class="st9 st13">and standard keys</tspan></text>
<path class="st15" d="M242.1,696.5H135.8c-2.2,0-4-1.8-4-4v-48.3h114.3v48.3C246.1,694.7,244.3,696.5,242.1,696.5z"/>
<text transform="matrix(1 0 0 1 142.3025 662.7002)"><tspan x="0" y="0" class="st9 st13">Leverage EP11 to </tspan><tspan x="0" y="12" class="st9 st13">encrypt customer-</tspan><tspan x="0" y="24" class="st9 st13">owned data</tspan></text>
<line class="st16" x1="352.8" y1="277.2" x2="352.8" y2="570.2"/>
<line class="st17" x1="364.8" y1="378.2" x2="364.8" y2="643.2"/>
<line class="st18" x1="327.8" y1="413.2" x2="327.8" y2="702.2"/>
<g>
	<g>
		<line class="st19" x1="677.6" y1="555.3" x2="677.6" y2="556.3"/>
		<line class="st20" x1="677.6" y1="558.3" x2="677.6" y2="645.9"/>
		<line class="st19" x1="677.6" y1="647" x2="677.6" y2="648"/>
		<g>
			<polygon points="674.6,556.1 677.6,551 680.6,556.1 			"/>
		</g>
	</g>
</g>
<g>
	<g>
		<line class="st19" x1="677.5" y1="353.2" x2="677.5" y2="354.2"/>
		<line class="st20" x1="677.5" y1="356.2" x2="677.5" y2="443.9"/>
		<line class="st19" x1="677.5" y1="444.9" x2="677.5" y2="445.9"/>
		<g>
			<polygon points="674.5,445 677.5,450.2 680.5,445 			"/>
		</g>
	</g>
</g>
<g>
	<rect x="394.8" y="479.7" class="st2" width="219.8" height="272.3"/>
	<g>
		<polyline class="st3" points="614.6,751 614.6,752 613.6,752 		"/>
		<line class="st4" x1="611.6" y1="752" x2="396.8" y2="752"/>
		<polyline class="st3" points="395.8,752 394.8,752 394.8,751 		"/>
		<line class="st5" x1="394.8" y1="748.9" x2="394.8" y2="481.7"/>
		<polyline class="st3" points="394.8,480.7 394.8,479.7 395.8,479.7 		"/>
		<line class="st4" x1="397.8" y1="479.7" x2="612.6" y2="479.7"/>
		<polyline class="st3" points="613.6,479.7 614.6,479.7 614.6,480.7 		"/>
		<line class="st5" x1="614.6" y1="482.7" x2="614.6" y2="750"/>
	</g>
</g>
<text transform="matrix(1 0 0 1 407.279 503.2002)" class="st9 st7">Availability Zone 2</text>
<text transform="matrix(1 0 0 1 30.4829 612.1232)" class="st9 st7">Applications</text>
<rect x="179.5" y="368" transform="matrix(1.493526e-07 1 -1 1.493526e-07 615.0232 210.9521)" class="st1" width="45" height="90"/>
<text transform="matrix(1 0 0 1 179.3389 408.7603)"><tspan x="0" y="0" class="st9 st7">TKE CLI </tspan><tspan x="3.7" y="14.4" class="st9 st7">plug-in</tspan></text>
<rect x="179.5" y="298.7" transform="matrix(1.493526e-07 1 -1 1.493526e-07 545.7021 141.631)" class="st1" width="45" height="90"/>
<text transform="matrix(1 0 0 1 166.8403 339.4392)"><tspan x="0" y="0" class="st9 st7">Management</tspan><tspan x="14.6" y="14.4" class="st9 st7">Utilities</tspan></text>
<rect x="410.6" y="225" class="st22" width="187" height="216"/>
<rect x="410.6" y="519" class="st22" width="187" height="216"/>
<text transform="matrix(1 0 0 1 429.3781 245.9243)" class="st6 st7">Crypto Unit A</text>
<rect x="427.3" y="260.2" class="st23" width="154.8" height="34"/>
<text transform="matrix(1 0 0 1 437.2424 280.4331)" class="st9 st7">Key management service</text>
<rect x="427.3" y="331.5" class="st24" width="155.3" height="91.5"/>
<text transform="matrix(1 0 0 1 469.7878 375.9331)" class="st9 st7">Cloud HSM</text>
<g>
	<g>
		<line class="st19" x1="512.6" y1="400" x2="513.6" y2="400"/>
		<line class="st25" x1="515.6" y1="400" x2="558.6" y2="400"/>
		<line class="st19" x1="559.6" y1="400" x2="560.6" y2="400"/>
	</g>
</g>
<g>
	<g>
		<line class="st19" x1="561.2" y1="371.3" x2="561.2" y2="372.3"/>
		<line class="st26" x1="561.2" y1="374.3" x2="561.2" y2="397.9"/>
		<line class="st19" x1="561.2" y1="399" x2="561.2" y2="400"/>
		<g>
			<polygon points="558.2,372.1 561.2,367 564.2,372.1 			"/>
		</g>
	</g>
</g>
<g>
	<g>
		<line class="st27" x1="452.6" y1="323.1" x2="452.6" y2="301.8"/>
		<g>
			<polygon points="455.6,322.3 452.6,327.5 449.6,322.3 			"/>
		</g>
		<g>
			<polygon points="455.6,302.6 452.6,297.5 449.6,302.6 			"/>
		</g>
	</g>
</g>
<g>
	<g>
		<line class="st10" x1="561.2" y1="323.6" x2="561.2" y2="322.6"/>
		<line class="st28" x1="561.2" y1="320.8" x2="561.2" y2="299.4"/>
		<line class="st10" x1="561.2" y1="298.5" x2="561.2" y2="297.5"/>
		<g>
			<polygon points="564.2,322.8 561.2,328 558.2,322.8 			"/>
		</g>
	</g>
</g>
<g>
	<g>
		<line class="st10" x1="452.6" y1="616.1" x2="452.6" y2="615.1"/>
		<line class="st29" x1="452.6" y1="613" x2="452.6" y2="596.8"/>
		<line class="st10" x1="452.6" y1="595.8" x2="452.6" y2="594.8"/>
		<g>
			<polygon points="455.6,615.3 452.6,620.5 449.6,615.3 			"/>
		</g>
		<g>
			<polygon points="455.6,595.6 452.6,590.5 449.6,595.6 			"/>
		</g>
	</g>
</g>
<g>
	<g>
		<line class="st10" x1="561.2" y1="616.6" x2="561.2" y2="615.6"/>
		<line class="st28" x1="561.2" y1="613.8" x2="561.2" y2="592.4"/>
		<line class="st10" x1="561.2" y1="591.5" x2="561.2" y2="590.5"/>
		<g>
			<polygon points="564.2,615.8 561.2,621 558.2,615.8 			"/>
		</g>
	</g>
</g>
<g>
	<path class="st30" d="M500.2,399.6c1.1,1.7,0.9,4-0.5,5.6c-1.7,1.9-4.7,2.1-6.6,0.3c-1.9-1.7-2.1-4.7-0.3-6.6
		c1.3-1.4,3.2-1.9,4.9-1.3"/>
	<ellipse transform="matrix(0.6703 -0.7421 0.7421 0.6703 -135.9143 500.4981)" cx="495.3" cy="403.2" rx="1" ry="1"/>
	<polyline class="st30" points="497.7,397.6 504,390.7 506.5,390.6 506.6,392.7 502.6,397.1 501.2,397.1 501.2,398.5 500.2,399.6 	
		"/>
</g>
<g>
	<path class="st31" d="M549.2,313.6c1.1,1.7,0.9,4-0.5,5.6c-1.7,1.9-4.7,2.1-6.6,0.3c-1.9-1.7-2.1-4.7-0.3-6.6
		c1.3-1.4,3.2-1.9,4.9-1.3"/>
	<ellipse transform="matrix(0.6703 -0.7421 0.7421 0.6703 -55.9334 508.5044)" cx="544.3" cy="317.2" rx="1" ry="1"/>
	<polyline class="st31" points="546.7,311.6 553,304.7 555.5,304.6 555.6,306.7 551.6,311.1 550.2,311.1 550.2,312.5 549.2,313.6 	
		"/>
</g>
<g>
	<path class="st31" d="M549.2,607.6c1.1,1.7,0.9,4-0.5,5.6c-1.7,1.9-4.7,2.1-6.6,0.3c-1.9-1.7-2.1-4.7-0.3-6.6
		c1.3-1.4,3.2-1.9,4.9-1.3"/>
	<ellipse transform="matrix(0.6703 -0.7421 0.7421 0.6703 -274.1202 605.4498)" cx="544.3" cy="611.2" rx="1" ry="1"/>
	<polyline class="st31" points="546.7,605.6 553,598.7 555.5,598.6 555.6,600.7 551.6,605.1 550.2,605.1 550.2,606.5 549.2,607.6 	
		"/>
</g>
<g>
	<path class="st31" d="M567.3,65.6c1.1,1.7,0.9,4-0.5,5.6c-1.7,1.9-4.7,2.1-6.6,0.3c-1.9-1.7-2.1-4.7-0.3-6.6
		c1.3-1.4,3.2-1.9,4.9-1.3"/>
	<ellipse transform="matrix(0.6703 -0.7421 0.7421 0.6703 134.0567 440.0992)" cx="562.3" cy="69.2" rx="1" ry="1"/>
	<polyline class="st31" points="564.8,63.6 571,56.7 573.5,56.6 573.6,58.7 569.6,63.1 568.2,63.1 568.2,64.5 567.3,65.6 	"/>
</g>
<g>
	<path class="st31" d="M562.2,350.6c1.1,1.7,0.9,4-0.5,5.6c-1.7,1.9-4.7,2.1-6.6,0.3c-1.9-1.7-2.1-4.7-0.3-6.6
		c1.3-1.4,3.2-1.9,4.9-1.3"/>
	<ellipse transform="matrix(0.6703 -0.7421 0.7421 0.6703 -79.1056 530.3527)" cx="557.3" cy="354.2" rx="1" ry="1"/>
	<polyline class="st31" points="559.7,348.6 566,341.7 568.5,341.6 568.6,343.7 564.6,348.1 563.2,348.1 563.2,349.5 562.2,350.6 	
		"/>
</g>
<path class="st32" d="M571.2,362.9h-20c-1.7,0-3-1.3-3-3v-20c0-1.6,1.3-3,3-3h20c1.7,0,3,1.4,3,3v20
	C574.2,361.6,572.8,362.9,571.2,362.9z"/>
<text transform="matrix(1 0 0 1 429.4323 538.9243)" class="st6 st7">Crypto Unit B</text>
<rect x="427.3" y="553.2" class="st23" width="154.8" height="34"/>
<text transform="matrix(1 0 0 1 437.2424 573.4331)" class="st9 st7">Key management service</text>
<rect x="427.3" y="624.5" class="st24" width="155.3" height="91.5"/>
<text transform="matrix(1 0 0 1 469.7878 669.9331)" class="st9 st7">Cloud HSM</text>
<g>
	<g>
		<line class="st19" x1="512.6" y1="696" x2="513.6" y2="696"/>
		<line class="st25" x1="515.6" y1="696" x2="558.6" y2="696"/>
		<line class="st19" x1="559.6" y1="696" x2="560.6" y2="696"/>
	</g>
</g>
<g id="keystore">
	<path class="st33" d="M727.7,529.2c0,6.8-22.7,13.4-50.2,13.4c-27.5,0-49.8-6.5-49.8-13.4"/>
	<line class="st34" x1="627.7" y1="529.2" x2="627.7" y2="468.1"/>
	<line class="st34" x1="727.7" y1="529.2" x2="727.7" y2="467.2"/>
	<rect x="628.5" y="467.6" class="st2" width="98.5" height="61.7"/>
	<ellipse class="st33" cx="677.7" cy="467" rx="50" ry="8.3"/>
</g>
<text transform="matrix(1 0 0 1 651.5046 493.7002)" class="st6 st7">Key store</text>
<g>
	<path class="st30" d="M500.2,696.6c1.1,1.7,0.9,4-0.5,5.6c-1.7,1.9-4.7,2.1-6.6,0.3s-2.1-4.7-0.3-6.6c1.3-1.4,3.2-1.9,4.9-1.3"/>
	<ellipse transform="matrix(0.6703 -0.7421 0.7421 0.6703 -356.3275 598.4327)" cx="495.3" cy="700.2" rx="1" ry="1"/>
	<polyline class="st30" points="497.7,694.6 504,687.7 506.5,687.6 506.6,689.7 502.6,694.1 501.2,694.1 501.2,695.5 500.2,696.6 	
		"/>
</g>
<g>
	<path class="st30" d="M567.3,40.6c1.1,1.7,0.9,4-0.5,5.6c-1.7,1.9-4.7,2.1-6.6,0.3c-1.9-1.7-2.1-4.7-0.3-6.6
		c1.3-1.4,3.2-1.9,4.9-1.3"/>
	<ellipse transform="matrix(0.6703 -0.7421 0.7421 0.6703 152.61 431.8555)" cx="562.3" cy="44.2" rx="1" ry="1"/>
	<polyline class="st30" points="564.8,38.6 571,31.7 573.5,31.6 573.6,33.7 569.6,38.1 568.2,38.1 568.2,39.5 567.3,40.6 	"/>
</g>
<g>
	<path class="st31" d="M562.2,644.6c1.1,1.7,0.9,4-0.5,5.6c-1.7,1.9-4.7,2.1-6.6,0.3c-1.9-1.7-2.1-4.7-0.3-6.6
		c1.3-1.4,3.2-1.9,4.9-1.3"/>
	<ellipse transform="matrix(0.6703 -0.7421 0.7421 0.6703 -297.2924 627.2981)" cx="557.3" cy="648.2" rx="1" ry="1"/>
	<polyline class="st31" points="559.7,642.6 566,635.7 568.5,635.6 568.6,637.7 564.6,642.1 563.2,642.1 563.2,643.5 562.2,644.6 	
		"/>
</g>
<path class="st32" d="M571.2,656.9h-20c-1.7,0-3-1.4-3-3v-20c0-1.7,1.3-3,3-3h20c1.7,0,3,1.3,3,3v20
	C574.2,655.6,572.8,656.9,571.2,656.9z"/>
<g>
	<path class="st31" d="M650.2,515.6c1.1,1.7,0.9,4-0.5,5.6c-1.7,1.9-4.7,2.1-6.6,0.3c-1.9-1.7-2.1-4.7-0.3-6.6
		c1.3-1.4,3.2-1.9,4.9-1.3"/>
	<ellipse transform="matrix(0.6703 -0.7421 0.7421 0.6703 -172.5397 650.0685)" cx="645.3" cy="519.2" rx="1" ry="1"/>
	<polyline class="st31" points="647.7,513.6 654,506.7 656.5,506.6 656.6,508.7 652.6,513.1 651.2,513.1 651.2,514.5 650.2,515.6 	
		"/>
</g>
<path class="st32" d="M659.2,527.9h-20c-1.7,0-3-1.4-3-3v-20c0-1.6,1.3-3,3-3h20c1.7,0,3,1.4,3,3v20
	C662.2,526.6,660.8,527.9,659.2,527.9z"/>
<g>
	<g>
		<line class="st35" x1="247.4" y1="412.7" x2="422.2" y2="412.7"/>
		<g>
			<polygon class="st36" points="421.3,415.7 426.5,412.7 421.3,409.7 			"/>
		</g>
	</g>
</g>
<g>
	<g>
		<line class="st10" x1="247.4" y1="343.7" x2="422.2" y2="343.7"/>
		<g>
			<polygon points="421.3,346.7 426.5,343.7 421.3,340.7 			"/>
		</g>
	</g>
</g>
<g>
	<g>
		<line class="st37" x1="352.5" y1="277.2" x2="422.2" y2="277.2"/>
		<g>
			<polygon class="st38" points="421.3,280.2 426.5,277.2 421.3,274.2 			"/>
		</g>
	</g>
</g>
<g>
	<g>
		<line class="st39" x1="365" y1="378.2" x2="422.7" y2="378.2"/>
		<g>
			<polygon class="st40" points="421.8,381.2 427,378.2 421.8,375.2 			"/>
		</g>
	</g>
</g>
<g>
	<g>
		<line class="st35" x1="327.5" y1="702.2" x2="422.2" y2="702.2"/>
		<g>
			<polygon class="st36" points="421.3,705.2 426.5,702.2 421.3,699.2 			"/>
		</g>
	</g>
</g>
<g>
	<g>
		<line class="st39" x1="62.5" y1="643.9" x2="277.2" y2="643.9"/>
		<g>
			<polygon class="st40" points="276.3,646.9 281.5,643.9 276.3,640.9 			"/>
		</g>
	</g>
</g>
<g>
	<g>
		<line class="st37" x1="62.5" y1="570.2" x2="277.2" y2="570.2"/>
		<g>
			<polygon class="st38" points="276.3,573.2 281.5,570.2 276.3,567.2 			"/>
		</g>
	</g>
</g>
<g>
	<path class="st31" d="M567.3,97.6c1.1,1.7,0.9,4-0.5,5.6c-1.7,1.9-4.7,2.1-6.6,0.3c-1.9-1.7-2.1-4.7-0.3-6.6
		c1.3-1.4,3.2-1.9,4.9-1.3"/>
	<ellipse transform="matrix(0.6703 -0.7421 0.7421 0.6703 110.3085 450.6511)" cx="562.3" cy="101.2" rx="1" ry="1"/>
	<polyline class="st31" points="564.8,95.6 571,88.7 573.5,88.6 573.6,90.7 569.6,95.1 568.2,95.1 568.2,96.5 567.3,97.6 	"/>
</g>
<path class="st32" d="M576.1,109.9h-20c-1.7,0-3-1.4-3-3v-20c0-1.7,1.3-3,3-3h20c1.6,0,3,1.3,3,3v20
	C579.1,108.6,577.8,109.9,576.1,109.9z"/>
<g>
	<g>
		<line class="st10" x1="582.6" y1="353" x2="583.6" y2="353"/>
		<line class="st41" x1="585.6" y1="353" x2="675.6" y2="353"/>
		<line class="st10" x1="676.6" y1="353" x2="677.6" y2="353"/>
	</g>
</g>
<g>
	<g>
		<line class="st10" x1="582.6" y1="648" x2="583.6" y2="648"/>
		<line class="st41" x1="585.6" y1="648" x2="675.6" y2="648"/>
		<line class="st10" x1="676.6" y1="648" x2="677.6" y2="648"/>
	</g>
</g>
<text transform="matrix(1 0 0 1 281.9331 118.716)" class="st6 st7">IBM Cloud</text>
<g>
	<g>
		<line class="st19" x1="561.6" y1="667.3" x2="561.6" y2="668.3"/>
		<line class="st26" x1="561.6" y1="670.3" x2="561.6" y2="693.9"/>
		<line class="st19" x1="561.6" y1="695" x2="561.6" y2="696"/>
		<g>
			<polygon points="558.6,668.1 561.6,663 564.6,668.1 			"/>
		</g>
	</g>
</g>
<text transform="matrix(1 0 0 1 29.8115 34.6631)"><tspan x="0" y="0" class="st6 st42">Interaction with Hyper Protect </tspan><tspan x="0" y="16.8" class="st6 st42">Crypto Services components</tspan></text>
<g>
	<g>
		<polyline class="st43" points="741,119.7 741,120.7 740,120.7 		"/>
		<line class="st44" x1="738" y1="120.7" x2="537.5" y2="120.7"/>
		<polyline class="st43" points="536.5,120.7 535.5,120.7 535.5,119.7 		"/>
		<line class="st45" x1="535.5" y1="117.6" x2="535.5" y2="21.7"/>
		<polyline class="st43" points="535.5,20.7 535.5,19.7 536.5,19.7 		"/>
		<line class="st44" x1="538.5" y1="19.7" x2="739" y2="19.7"/>
		<polyline class="st43" points="740,19.7 741,19.7 741,20.7 		"/>
		<line class="st45" x1="741" y1="22.7" x2="741" y2="118.7"/>
	</g>
</g>
<rect x="282.6" y="493.2" class="st1" width="30" height="233.8"/>
<text transform="matrix(0 -1 1 0 301.1745 644.567)" class="st9 st7">Loadbalancer</text>
<line class="st37" x1="63" y1="570.7" x2="63" y2="592.7"/>
<line class="st39" x1="63" y1="644.2" x2="63" y2="623.8"/>
<g>
	<g>
		<line class="st37" x1="313.5" y1="570.2" x2="422.2" y2="570.2"/>
		<g>
			<polygon class="st38" points="421.3,573.2 426.5,570.2 421.3,567.2 			"/>
		</g>
	</g>
</g>
<g>
	<g>
		<line class="st39" x1="313.5" y1="643.9" x2="422.2" y2="643.9"/>
		<g>
			<polygon class="st40" points="421.3,646.9 426.5,643.9 421.3,640.9 			"/>
		</g>
	</g>
</g>
<g>
	<g>
		<line class="st35" x1="152.7" y1="413.7" x2="13" y2="413.7"/>
		<g>
			<polygon class="st36" points="151.8,410.7 157,413.7 151.8,416.7 			"/>
		</g>
	</g>
</g>
<g>
	<g>
		<line class="st10" x1="152.7" y1="343.7" x2="13" y2="343.7"/>
		<g>
			<polygon points="151.8,340.7 157,343.7 151.8,346.7 			"/>
		</g>
	</g>
</g>
<line class="st10" x1="13" y1="343.2" x2="13" y2="363.7"/>
<line class="st35" x1="13.5" y1="393.2" x2="13.5" y2="413.2"/>
<line class="st19" x1="340.5" y1="344.2" x2="340.5" y2="673.2"/>
<g>
	<g>
		<line class="st19" x1="340.5" y1="673.2" x2="422.2" y2="673.2"/>
		<g>
			<polygon points="421.3,676.2 426.5,673.2 421.3,670.2 			"/>
		</g>
	</g>
</g>
</svg>
