<svg id="Layer_1" data-name="Layer 1" xmlns="http://www.w3.org/2000/svg" viewBox="0 0 750 380"><defs><style>.cls-1,.cls-6,.cls-7,.cls-8{fill:#f2f4f8;}.cls-10,.cls-11,.cls-2,.cls-25,.cls-3,.cls-4,.cls-5,.cls-52{fill:none;}.cls-10,.cls-11,.cls-2,.cls-3,.cls-4,.cls-5{stroke:#9fa5ad;}.cls-2,.cls-3,.cls-4,.cls-5,.cls-6,.cls-7,.cls-8,.cls-9{stroke-linejoin:round;}.cls-3{stroke-dasharray:1.98 1.98;}.cls-4{stroke-dasharray:2.03 2.03;}.cls-5{stroke-dasharray:1.99 1.99;}.cls-6{stroke:#009e9a;}.cls-7{stroke:#a970ff;}.cls-52,.cls-8,.cls-9{stroke:#1193e8;}.cls-9{fill:#fff;}.cls-10,.cls-11,.cls-25,.cls-52{stroke-miterlimit:10;}.cls-11{stroke-dasharray:1.99 1.99;}.cls-12{font-size:12px;font-family:IBMPlexSans-SemiBold, IBM Plex Sans;font-weight:700;}.cls-13{letter-spacing:-0.01em;}.cls-14{letter-spacing:0em;}.cls-15{letter-spacing:-0.01em;}.cls-16{letter-spacing:-0.01em;}.cls-17{letter-spacing:0em;}.cls-18{letter-spacing:0.01em;}.cls-19{letter-spacing:-0.01em;}.cls-20{letter-spacing:0em;}.cls-21{letter-spacing:0.01em;}.cls-22{letter-spacing:0em;}.cls-23{letter-spacing:-0.01em;}.cls-24{letter-spacing:-0.02em;}.cls-25{stroke:#50565b;stroke-width:2px;}.cls-26{fill:#50565b;}.cls-27{font-size:10px;font-family:IBMPlexSans, IBM Plex Sans;}.cls-28{letter-spacing:-0.03em;}.cls-29{letter-spacing:0.01em;}.cls-30{letter-spacing:0em;}.cls-31{letter-spacing:-0.01em;}.cls-32{letter-spacing:0em;}.cls-33{letter-spacing:0em;}.cls-34{letter-spacing:0em;}.cls-35{letter-spacing:-0.02em;}.cls-36{letter-spacing:-0.01em;}.cls-37{letter-spacing:0.01em;}.cls-38{letter-spacing:-0.01em;}.cls-39{letter-spacing:-0.02em;}.cls-40{letter-spacing:-0.01em;}.cls-41{letter-spacing:-0.01em;}.cls-42{letter-spacing:0em;}.cls-43{letter-spacing:0em;}.cls-44{letter-spacing:0em;}.cls-45{letter-spacing:-0.01em;}.cls-46{letter-spacing:0em;}.cls-47{letter-spacing:0em;}.cls-48{letter-spacing:-0.01em;}.cls-49{letter-spacing:-0.01em;}.cls-50{letter-spacing:-0.02em;}.cls-51{letter-spacing:-0.01em;}</style></defs><title>hsm_initialization_flow</title><rect class="cls-1" x="208" y="278" width="202" height="73"/><polyline class="cls-2" points="410 350 410 351 409 351"/><line class="cls-3" x1="407.02" y1="351" x2="209.99" y2="351"/><polyline class="cls-2" points="209 351 208 351 208 350"/><line class="cls-4" x1="208" y1="347.97" x2="208" y2="280.01"/><polyline class="cls-2" points="208 279 208 278 209 278"/><line class="cls-3" x1="210.98" y1="278" x2="408.01" y2="278"/><polyline class="cls-2" points="409 278 410 278 410 279"/><line class="cls-4" x1="410" y1="281.03" x2="410" y2="348.99"/><rect class="cls-1" x="427.5" y="278" width="302" height="73"/><polyline class="cls-2" points="729.5 350 729.5 351 728.5 351"/><line class="cls-5" x1="726.51" y1="351" x2="429.49" y2="351"/><polyline class="cls-2" points="428.5 351 427.5 351 427.5 350"/><line class="cls-4" x1="427.5" y1="347.97" x2="427.5" y2="280.01"/><polyline class="cls-2" points="427.5 279 427.5 278 428.5 278"/><line class="cls-5" x1="430.49" y1="278" x2="727.51" y2="278"/><polyline class="cls-2" points="728.5 278 729.5 278 729.5 279"/><line class="cls-4" x1="729.5" y1="281.03" x2="729.5" y2="348.99"/><rect class="cls-6" x="126" y="32" width="100" height="50" rx="4" ry="4"/><rect class="cls-6" x="260.17" y="32" width="100" height="50" rx="4" ry="4"/><rect class="cls-6" x="394.33" y="32" width="100" height="50" rx="4" ry="4"/><rect class="cls-6" x="528.5" y="32" width="100" height="50" rx="4" ry="4"/><rect class="cls-7" x="126" y="123" width="100" height="50" rx="4" ry="4"/><rect class="cls-7" x="260.17" y="123" width="100" height="50" rx="4" ry="4"/><rect class="cls-7" x="394.33" y="123" width="100" height="50" rx="4" ry="4"/><rect class="cls-8" x="126" y="214" width="100" height="50" rx="4" ry="4"/><rect class="cls-8" x="260.17" y="214" width="100" height="50" rx="4" ry="4"/><rect class="cls-8" x="394.33" y="214" width="100" height="50" rx="4" ry="4"/><rect class="cls-8" x="528.5" y="214" width="100" height="50" rx="4" ry="4"/><rect class="cls-9" x="219" y="290" width="80" height="50" rx="4" ry="4"/><rect class="cls-9" x="318" y="290" width="80" height="50" rx="4" ry="4"/><rect class="cls-9" x="440" y="290" width="80" height="50" rx="4" ry="4"/><rect class="cls-9" x="539" y="290" width="80" height="50" rx="4" ry="4"/><rect class="cls-9" x="638" y="290" width="80" height="50" rx="4" ry="4"/><line class="cls-10" x1="19.5" y1="103.5" x2="20.5" y2="103.5"/><line class="cls-11" x1="22.49" y1="103.5" x2="727.5" y2="103.5"/><line class="cls-10" x1="728.5" y1="103.5" x2="729.5" y2="103.5"/><line class="cls-10" x1="19.75" y1="193.5" x2="20.75" y2="193.5"/><line class="cls-11" x1="22.74" y1="193.5" x2="727.75" y2="193.5"/><line class="cls-10" x1="728.75" y1="193.5" x2="729.75" y2="193.5"/><text class="cls-12" transform="translate(18 51.53)">Set up the <tspan x="0" y="14.4">e</tspan><tspan class="cls-13" x="6.7" y="14.4">n</tspan><tspan class="cls-14" x="13.66" y="14.4">vi</tspan><tspan class="cls-15" x="23.26" y="14.4">r</tspan><tspan x="27.91" y="14.4">onment</tspan></text><text class="cls-12" transform="translate(18 136.53)">Mana<tspan class="cls-16" x="30.26" y="0">g</tspan><tspan class="cls-17" x="36.73" y="0">e </tspan><tspan x="0" y="14.4">c</tspan><tspan class="cls-18" x="6.16" y="14.4">r</tspan><tspan x="10.97" y="14.4">y</tspan><tspan class="cls-19" x="17.26" y="14.4">p</tspan><tspan class="cls-20" x="24.38" y="14.4">t</tspan><tspan x="28.82" y="14.4">o units in a </tspan><tspan x="0" y="28.8">se</tspan><tspan class="cls-21" x="12.68" y="28.8">r</tspan><tspan x="17.5" y="28.8">vi</tspan><tspan class="cls-22" x="27.1" y="28.8">c</tspan><tspan x="33.19" y="28.8">e in</tspan><tspan class="cls-13" x="53.09" y="28.8">s</tspan><tspan x="58.98" y="28.8">tan</tspan><tspan class="cls-15" x="77.23" y="28.8">c</tspan><tspan x="83.33" y="28.8">e</tspan></text><text class="cls-12" transform="translate(17.97 234.96)"><tspan class="cls-23">L</tspan><tspan x="6.13" y="0">oad </tspan><tspan x="0" y="14.4">ma</tspan><tspan class="cls-13" x="17.36" y="14.4">s</tspan><tspan class="cls-20" x="23.26" y="14.4">t</tspan><tspan x="27.7" y="14.4">er </tspan><tspan class="cls-24" x="41.94" y="14.4">k</tspan><tspan class="cls-19" x="48.4" y="14.4">e</tspan><tspan class="cls-14" x="55.02" y="14.4">y</tspan></text><line class="cls-25" x1="229" y1="57" x2="252.26" y2="57"/><polygon class="cls-26" points="251.09 60.99 258 57 251.09 53.01 251.09 60.99"/><line class="cls-25" x1="363" y1="57" x2="386.26" y2="57"/><polygon class="cls-26" points="385.09 60.99 392 57 385.09 53.01 385.09 60.99"/><line class="cls-25" x1="363" y1="148" x2="386.26" y2="148"/><polygon class="cls-26" points="385.09 151.99 392 148 385.09 144.01 385.09 151.99"/><line class="cls-25" x1="229" y1="148" x2="252.26" y2="148"/><polygon class="cls-26" points="251.09 151.99 258 148 251.09 144.01 251.09 151.99"/><line class="cls-25" x1="497" y1="57" x2="520.26" y2="57"/><polygon class="cls-26" points="519.09 60.99 526 57 519.09 53.01 519.09 60.99"/><line class="cls-25" x1="229" y1="239" x2="252.26" y2="239"/><polygon class="cls-26" points="251.09 242.99 258 239 251.09 235.01 251.09 242.99"/><line class="cls-25" x1="301" y1="315" x2="311.26" y2="315"/><polygon class="cls-26" points="310.09 318.99 317 315 310.09 311.01 310.09 318.99"/><line class="cls-25" x1="522" y1="315" x2="532.26" y2="315"/><polygon class="cls-26" points="531.09 318.99 538 315 531.09 311.01 531.09 318.99"/><line class="cls-25" x1="621" y1="315" x2="631.26" y2="315"/><polygon class="cls-26" points="630.09 318.99 637 315 630.09 311.01 630.09 318.99"/><line class="cls-25" x1="363" y1="239" x2="386.26" y2="239"/><polygon class="cls-26" points="385.09 242.99 392 239 385.09 235.01 385.09 242.99"/><line class="cls-25" x1="497" y1="239" x2="520.26" y2="239"/><polygon class="cls-26" points="519.09 242.99 526 239 519.09 235.01 519.09 242.99"/><text class="cls-27" transform="translate(151.42 53.97)"><tspan class="cls-28">V</tspan><tspan x="5.79" y="0">eri</tspan><tspan class="cls-29" x="17.45" y="0">f</tspan><tspan class="cls-30" x="20.79" y="0">y API</tspan><tspan x="2.28" y="12">endpoint</tspan></text><text class="cls-27" transform="translate(286.61 59.97)">Set up CLI</text><text class="cls-27" transform="translate(430.05 53.16)">In<tspan class="cls-31" x="9.68" y="0">s</tspan><tspan x="14.48" y="0">ta</tspan><tspan class="cls-32" x="23.33" y="0">l</tspan><tspan x="26" y="0">l</tspan><tspan x="-11.59" y="12">TKE plug-in</tspan></text><text class="cls-27" transform="translate(564.09 48.16)">Set up<tspan x="-17.69" y="12">local di</tspan><tspan class="cls-32" x="14.38" y="12">r</tspan><tspan x="18" y="12">ec</tspan><tspan class="cls-33" x="28.51" y="12">t</tspan><tspan x="31.99" y="12">o</tspan><tspan class="cls-29" x="37.58" y="12">r</tspan><tspan x="41.35" y="12">y</tspan><tspan class="cls-34" x="-11.41" y="24">f</tspan><tspan x="-8.21" y="24">or </tspan><tspan class="cls-35" x="3.42" y="24">k</tspan><tspan class="cls-32" x="8.52" y="24">e</tspan><tspan class="cls-30" x="13.96" y="24">y files</tspan></text><text class="cls-27" transform="translate(137.38 144.32)">Displ<tspan class="cls-32" x="22.6" y="0">a</tspan><tspan x="27.89" y="0">y a</tspan><tspan class="cls-36" x="40.58" y="0">s</tspan><tspan x="45.39" y="0">signed </tspan><tspan x="12.08" y="12">c</tspan><tspan class="cls-37" x="17.11" y="12">r</tspan><tspan x="20.88" y="12">y</tspan><tspan class="cls-38" x="25.87" y="12">p</tspan><tspan class="cls-34" x="31.61" y="12">t</tspan><tspan x="35.08" y="12">o units</tspan></text><text class="cls-27" transform="translate(300.9 144.59)">Add<tspan x="-17.59" y="12">c</tspan><tspan class="cls-37" x="-12.56" y="12">r</tspan><tspan x="-8.79" y="12">y</tspan><tspan class="cls-38" x="-3.81" y="12">p</tspan><tspan class="cls-34" x="1.94" y="12">t</tspan><tspan x="5.4" y="12">o units</tspan></text><text class="cls-27" transform="translate(424.69 144.76)"><tspan class="cls-39">R</tspan><tspan x="6.25" y="0">em</tspan><tspan class="cls-40" x="20.47" y="0">ov</tspan><tspan class="cls-30" x="30.83" y="0">e </tspan><tspan x="-7.26" y="12">c</tspan><tspan class="cls-29" x="-2.23" y="12">r</tspan><tspan x="1.54" y="12">y</tspan><tspan class="cls-41" x="6.53" y="12">p</tspan><tspan class="cls-33" x="12.27" y="12">t</tspan><tspan x="15.74" y="12">o units</tspan></text><text class="cls-27" transform="translate(158.86 234.98)">C<tspan class="cls-32" x="6.21" y="0">r</tspan><tspan x="9.83" y="0">ea</tspan><tspan class="cls-42" x="20.66" y="0">t</tspan><tspan x="24.13" y="0">e</tspan><tspan x="-17.53" y="12">signatu</tspan><tspan class="cls-32" x="15.33" y="12">r</tspan><tspan x="18.95" y="12">e </tspan><tspan class="cls-35" x="26.79" y="12">k</tspan><tspan class="cls-32" x="31.9" y="12">e</tspan><tspan class="cls-42" x="37.33" y="12">y</tspan><tspan class="cls-43" x="42.29" y="12">s</tspan></text><text class="cls-27" transform="translate(292.21 235.14)">Mana<tspan class="cls-36" x="24.48" y="0">g</tspan><tspan class="cls-44" x="29.7" y="0">e</tspan><tspan x="-15.13" y="12">admini</tspan><tspan class="cls-45" x="15.42" y="12">s</tspan><tspan class="cls-44" x="20.22" y="12">t</tspan><tspan class="cls-34" x="23.73" y="12">r</tspan><tspan x="27.36" y="12">a</tspan><tspan class="cls-42" x="32.7" y="12">t</tspan><tspan class="cls-43" x="36.17" y="12">ors</tspan></text><text class="cls-27" transform="translate(412.35 235.25)">C<tspan class="cls-32" x="6.21" y="0">r</tspan><tspan class="cls-30" x="9.83" y="0">ea</tspan><tspan class="cls-34" x="20.66" y="0">t</tspan><tspan x="24.13" y="0">e ma</tspan><tspan class="cls-45" x="46.05" y="0">s</tspan><tspan class="cls-34" x="50.85" y="0">t</tspan><tspan x="54.32" y="0">er</tspan><tspan class="cls-35" x="11.18" y="12">k</tspan><tspan class="cls-32" x="16.28" y="12">e</tspan><tspan x="21.72" y="12">y pa</tspan><tspan class="cls-46" x="40.21" y="12">r</tspan><tspan class="cls-47" x="43.92" y="12">ts</tspan></text><text class="cls-27" transform="translate(550.51 234.98)"><tspan class="cls-48">L</tspan><tspan x="4.91" y="0">oad ma</tspan><tspan class="cls-31" x="38.08" y="0">s</tspan><tspan class="cls-34" x="42.88" y="0">t</tspan><tspan x="46.35" y="0">er</tspan><tspan class="cls-35" x="1.65" y="12">k</tspan><tspan class="cls-32" x="6.75" y="12">e</tspan><tspan x="12.19" y="12">y </tspan><tspan class="cls-32" x="19.54" y="12">r</tspan><tspan x="23.16" y="12">egi</tspan><tspan class="cls-45" x="36.43" y="12">s</tspan><tspan class="cls-34" x="41.23" y="12">t</tspan><tspan x="44.7" y="12">er</tspan></text><text class="cls-27" transform="translate(350.04 311.35)">Exit<tspan x="-21.73" y="12">imprint mode</tspan></text><text class="cls-27" transform="translate(461.15 305.73)"><tspan class="cls-48">L</tspan><tspan x="4.91" y="0">oad the</tspan><tspan x="-6.99" y="12">n</tspan><tspan class="cls-32" x="-1.31" y="12">e</tspan><tspan x="4.13" y="12">w ma</tspan><tspan class="cls-45" x="28.24" y="12">s</tspan><tspan class="cls-33" x="33.04" y="12">t</tspan><tspan class="cls-30" x="36.51" y="12">er</tspan><tspan class="cls-35" x="-6.76" y="24">k</tspan><tspan class="cls-32" x="-1.66" y="24">e</tspan><tspan x="3.78" y="24">y </tspan><tspan class="cls-32" x="11.13" y="24">r</tspan><tspan x="14.75" y="24">egi</tspan><tspan class="cls-45" x="28.02" y="24">s</tspan><tspan class="cls-34" x="32.82" y="24">t</tspan><tspan x="36.29" y="24">er</tspan></text><text class="cls-27" transform="translate(544.81 311.07)">Commit ma<tspan class="cls-31" x="51.71" y="0">s</tspan><tspan class="cls-34" x="56.51" y="0">t</tspan><tspan x="59.98" y="0">er</tspan><tspan class="cls-35" x="8.46" y="12">k</tspan><tspan class="cls-32" x="13.56" y="12">e</tspan><tspan x="19" y="12">y </tspan><tspan class="cls-32" x="26.35" y="12">r</tspan><tspan x="29.97" y="12">egi</tspan><tspan class="cls-45" x="43.25" y="12">s</tspan><tspan class="cls-34" x="48.04" y="12">t</tspan><tspan x="51.51" y="12">er</tspan></text><text class="cls-27" transform="translate(659.81 311.96)">Acti<tspan class="cls-49" x="17.45" y="0">v</tspan><tspan x="22.28" y="0">a</tspan><tspan class="cls-34" x="27.62" y="0">t</tspan><tspan x="31.09" y="0">e</tspan><tspan x="-6.41" y="12">ma</tspan><tspan class="cls-45" x="7.67" y="12">s</tspan><tspan class="cls-34" x="12.46" y="12">t</tspan><tspan x="15.93" y="12">er </tspan><tspan class="cls-50" x="27.45" y="12">k</tspan><tspan class="cls-51" x="32.55" y="12">e</tspan><tspan x="37.99" y="12">y</tspan></text><text class="cls-27" transform="translate(250.15 311.62)">Add<tspan x="-21.28" y="12">admini</tspan><tspan class="cls-45" x="9.27" y="12">s</tspan><tspan class="cls-44" x="14.07" y="12">t</tspan><tspan class="cls-34" x="17.58" y="12">r</tspan><tspan x="21.21" y="12">a</tspan><tspan class="cls-42" x="26.55" y="12">t</tspan><tspan class="cls-43" x="30.02" y="12">or</tspan></text><line class="cls-52" x1="309" y1="264" x2="309" y2="278"/><line class="cls-52" x1="579.5" y1="264" x2="579.5" y2="278"/></svg>