<svg xmlns="http://www.w3.org/2000/svg" width="750" height="319" viewBox="0 0 750 319"><defs><style>.cls-1,.cls-10,.cls-5,.cls-8,.cls-9{fill:none;}.cls-1,.cls-5{stroke:#50565b;}.cls-1,.cls-4{stroke-miterlimit:10;}.cls-2{fill:#50565b;}.cls-3{fill:#f2f4f8;}.cls-4{fill:#e3f6ff;}.cls-10,.cls-4,.cls-6,.cls-7,.cls-8,.cls-9{stroke:#000;}.cls-10,.cls-5,.cls-6,.cls-8,.cls-9{stroke-linecap:round;}.cls-10,.cls-5,.cls-6,.cls-7,.cls-8,.cls-9{stroke-linejoin:round;}.cls-5,.cls-8{stroke-dasharray:2 2;}.cls-6,.cls-7{fill:#87eded;}.cls-10{stroke-dasharray:2;}.cls-11{fill:#fff;}.cls-12{fill:#878d96;}.cls-13{fill:#198038;}.cls-14{fill:#f1c21b;}.cls-15{fill:#da1e28;}</style></defs><title>key-states</title><g id="Layer_1" data-name="Layer 1"><line class="cls-1" x1="92.75" y1="149.4001" x2="128.4443" y2="149.4001"/><polygon class="cls-2" points="127.569 152.392 132.75 149.4 127.569 146.408 127.569 152.392"/><circle class="cls-3" cx="52" cy="148.9725" r="37"/><rect class="cls-4" x="134.4813" y="119.2852" width="117.1397" height="61.1873"/><line class="cls-1" x1="253.75" y1="149.4001" x2="289.4443" y2="149.4001"/><polygon class="cls-2" points="288.569 152.392 293.75 149.4 288.569 146.408 288.569 152.392"/><rect class="cls-4" x="295.4813" y="119.2852" width="117.1397" height="61.1873"/><rect class="cls-4" x="295.4813" y="228.2852" width="117.1397" height="61.1873"/><line class="cls-5" x1="414.75" y1="149.4001" x2="450.4443" y2="149.4001"/><polygon class="cls-2" points="449.569 152.392 454.75 149.4 449.569 146.408 449.569 152.392"/><rect class="cls-4" x="456.4813" y="119.2852" width="117.1397" height="61.1873"/><line class="cls-5" x1="575.75" y1="149.4001" x2="611.4443" y2="149.4001"/><polygon class="cls-2" points="610.569 152.392 615.75 149.4 610.569 146.408 610.569 152.392"/><rect class="cls-4" x="617.4813" y="119.2852" width="117.1397" height="61.1873"/><g id="key"><path class="cls-6" d="M50.04,153.1029a11.68,11.68,0,1,1-.5547-7.9353"/><circle cx="35.022" cy="149.887" r="2.5"/><polyline class="cls-7" points="49.486 145.168 72.809 145.168 77.175 149.533 73.412 153.296 58.748 153.296 56.119 150.691 53.707 153.103 50.04 153.103"/></g><line class="cls-8" x1="338.5" y1="184.4725" x2="338.5" y2="220.1668"/><polygon points="335.508 219.291 338.5 224.473 341.492 219.291 335.508 219.291"/><line class="cls-8" x1="361.5" y1="76.4725" x2="361.5" y2="112.1668"/><polygon points="358.508 111.291 361.5 116.473 364.492 111.291 358.508 111.291"/><line class="cls-9" x1="685.5" y1="53.4725" x2="685.5" y2="111.1668"/><polygon points="682.508 110.291 685.5 115.473 688.492 110.291 682.508 110.291"/><line class="cls-8" x1="361.5" y1="188.7783" x2="361.5" y2="224.4725"/><polygon points="358.508 189.654 361.5 184.473 364.492 189.654 358.508 189.654"/><line class="cls-10" x1="662.5" y1="75.4725" x2="662.5" y2="115.4725"/><line class="cls-9" x1="338.5" y1="53.4725" x2="338.5" y2="116.4725"/><line class="cls-8" x1="676.5" y1="188.7783" x2="676.5" y2="259.4725"/><polygon points="673.508 189.654 676.5 184.473 679.492 189.654 673.508 189.654"/><line class="cls-10" x1="662.5" y1="75.4725" x2="361.5" y2="75.4725"/><line class="cls-10" x1="675.5" y1="258.4725" x2="414.5" y2="258.4725"/><line class="cls-9" x1="685.5" y1="53.4725" x2="338.5" y2="53.4725"/></g><g id="Text"><path d="M168.8174,153.2782v-8.376h3.6a2.3376,2.3376,0,0,1,1.8.6841,2.969,2.969,0,0,1,0,3.6719,2.3379,2.3379,0,0,1-1.8.684h-2.2437v3.336Zm1.3559-4.5362h2.16a1.1347,1.1347,0,0,0,.8042-.2675.9958.9958,0,0,0,.2881-.7671v-.5708a.9945.9945,0,0,0-.2881-.7666,1.1348,1.1348,0,0,0-.8042-.2676h-2.16Z"/><path d="M176.1255,153.2782v-6.24h1.3081v1.2h.06a1.68,1.68,0,0,1,.5517-.84,1.731,1.731,0,0,1,1.1641-.36h.3481v1.26h-.5161a2.3151,2.3151,0,0,0-1.1938.252.8166.8166,0,0,0-.4141.7441v3.9839Z"/><path d="M183.1089,153.4222a3.0011,3.0011,0,0,1-1.2-.228,2.4848,2.4848,0,0,1-.9-.6538,2.9346,2.9346,0,0,1-.57-1.0322,4.7065,4.7065,0,0,1,0-2.7,2.9371,2.9371,0,0,1,.57-1.0318,2.4848,2.4848,0,0,1,.9-.6538,2.9942,2.9942,0,0,1,1.2-.228,2.864,2.864,0,0,1,1.206.24,2.4043,2.4043,0,0,1,.87.6661,2.9024,2.9024,0,0,1,.5219.99,4.0963,4.0963,0,0,1,.1739,1.2119v.4917h-4.2837v.2026a1.659,1.659,0,0,0,.4257,1.1744,1.58,1.58,0,0,0,1.2183.4589,1.7816,1.7816,0,0,0,.9717-.25,2.1905,2.1905,0,0,0,.6724-.68l.768.7583a2.4847,2.4847,0,0,1-1.0083.9209A3.2875,3.2875,0,0,1,183.1089,153.4222Zm0-5.5078a1.5708,1.5708,0,0,0-.6177.12,1.3748,1.3748,0,0,0-.48.336,1.5063,1.5063,0,0,0-.3061.5161,1.9415,1.9415,0,0,0-.1079.66v.084h2.9038v-.12a1.7268,1.7268,0,0,0-.3721-1.1577A1.2672,1.2672,0,0,0,183.1089,147.9144Z"/><path d="M187.2612,150.29v-1.332h3.3238v1.332Z"/><path d="M196.8369,153.2782a1.0332,1.0332,0,0,1-.792-.294,1.3117,1.3117,0,0,1-.3359-.75h-.06a1.5337,1.5337,0,0,1-.66.8882,2.1573,2.1573,0,0,1-1.1641.3,2.0653,2.0653,0,0,1-1.4941-.5039,1.7965,1.7965,0,0,1-.522-1.3559,1.593,1.593,0,0,1,.6782-1.4043,3.4919,3.4919,0,0,1,1.9858-.4678h1.128v-.5283a1.2008,1.2008,0,0,0-.312-.8877,1.3268,1.3268,0,0,0-.9722-.312,1.5552,1.5552,0,0,0-.9.24,2.1552,2.1552,0,0,0-.5879.6123l-.78-.708a2.4919,2.4919,0,0,1,.876-.87,2.8179,2.8179,0,0,1,1.4756-.3418,2.7506,2.7506,0,0,1,1.86.564,2.0324,2.0324,0,0,1,.648,1.62V152.21h.66v1.0679Zm-2.64-.8521a1.7505,1.7505,0,0,0,1.0078-.27.8368.8368,0,0,0,.396-.7261v-.9h-1.104q-1.3564,0-1.356.84v.2163a.7339.7339,0,0,0,.2822.63A1.2682,1.2682,0,0,0,194.1973,152.4261Z"/><path d="M201.2651,153.4222a3.0026,3.0026,0,0,1-1.2-.228,2.3834,2.3834,0,0,1-.8881-.6538,2.9661,2.9661,0,0,1-.5518-1.0322,4.8452,4.8452,0,0,1,0-2.7,2.9686,2.9686,0,0,1,.5518-1.0318,2.3834,2.3834,0,0,1,.8881-.6538,2.9957,2.9957,0,0,1,1.2-.228,2.6149,2.6149,0,0,1,1.5357.42,2.4168,2.4168,0,0,1,.876,1.1157l-1.08.5039a1.3563,1.3563,0,0,0-.4624-.69,1.3724,1.3724,0,0,0-.87-.2578,1.3183,1.3183,0,0,0-1.0859.4487,1.788,1.788,0,0,0-.3662,1.167v1.1128a1.788,1.788,0,0,0,.3662,1.167,1.32,1.32,0,0,0,1.0859.4482,1.3988,1.3988,0,0,0,.918-.2817,1.9737,1.9737,0,0,0,.5459-.75l.9961.5278a2.4924,2.4924,0,0,1-.936,1.1836A2.7035,2.7035,0,0,1,201.2651,153.4222Z"/><path d="M206.7012,153.2782a1.3871,1.3871,0,0,1-1.0323-.354,1.3687,1.3687,0,0,1-.3476-1.002v-3.8159h-.9722v-1.0684h.5279a.5785.5785,0,0,0,.45-.1435.7058.7058,0,0,0,.126-.4683v-1.0918h1.1758v1.7036h1.3081v1.0684h-1.3081v4.104h1.2124v1.0679Z"/><path d="M210.0132,145.9222a.7973.7973,0,0,1-.5943-.1919.6778.6778,0,0,1-.186-.4922v-.2041a.6776.6776,0,0,1,.186-.4917.7977.7977,0,0,1,.5943-.1923.7768.7768,0,0,1,.5879.1923.69.69,0,0,1,.18.4917v.2041a.69.69,0,0,1-.18.4922A.7764.7764,0,0,1,210.0132,145.9222Zm-.66,1.1157h1.3081v6.24H209.353Z"/><path d="M213.8887,153.2782l-2.1241-6.24h1.2959l.9483,2.8443.6357,2.1841h.0723l.6357-2.1841.9722-2.8443h1.2481l-2.148,6.24Z"/><path d="M221.0283,153.4222a3.0018,3.0018,0,0,1-1.2-.228,2.4865,2.4865,0,0,1-.9-.6538,2.9361,2.9361,0,0,1-.57-1.0322,4.7065,4.7065,0,0,1,0-2.7,2.9387,2.9387,0,0,1,.57-1.0318,2.4865,2.4865,0,0,1,.9-.6538,2.9949,2.9949,0,0,1,1.2-.228,2.8645,2.8645,0,0,1,1.2061.24,2.4039,2.4039,0,0,1,.87.6661,2.9026,2.9026,0,0,1,.522.99,4.1,4.1,0,0,1,.1738,1.2119v.4917h-4.2837v.2026a1.6586,1.6586,0,0,0,.4258,1.1744,1.58,1.58,0,0,0,1.2182.4589,1.7813,1.7813,0,0,0,.9717-.25,2.1905,2.1905,0,0,0,.6724-.68l.7681.7583a2.486,2.486,0,0,1-1.0083.9209A3.2882,3.2882,0,0,1,221.0283,153.4222Zm0-5.5078a1.5708,1.5708,0,0,0-.6177.12,1.3744,1.3744,0,0,0-.48.336,1.5049,1.5049,0,0,0-.3062.5161,1.9415,1.9415,0,0,0-.1079.66v.084H222.42v-.12a1.7268,1.7268,0,0,0-.3721-1.1577A1.2672,1.2672,0,0,0,221.0283,147.9144Z"/><path d="M336.4751,152.2782l-.7563-2.2681h-3.1319l-.7319,2.2681h-1.38l2.856-8.376h1.7041l2.8559,8.376Zm-2.292-7.1279h-.06l-1.2119,3.6958h2.4717Z"/><path d="M341.5029,152.4222a3.0026,3.0026,0,0,1-1.2-.228,2.3834,2.3834,0,0,1-.8881-.6538,2.9661,2.9661,0,0,1-.5518-1.0322,4.8452,4.8452,0,0,1,0-2.7,2.9686,2.9686,0,0,1,.5518-1.0318,2.3834,2.3834,0,0,1,.8881-.6538,2.9957,2.9957,0,0,1,1.2-.228,2.6149,2.6149,0,0,1,1.5357.42,2.4168,2.4168,0,0,1,.876,1.1157l-1.08.5039a1.3563,1.3563,0,0,0-.4624-.69,1.3724,1.3724,0,0,0-.87-.2578,1.3181,1.3181,0,0,0-1.0859.4487,1.788,1.788,0,0,0-.3662,1.167v1.1128a1.788,1.788,0,0,0,.3662,1.167,1.3192,1.3192,0,0,0,1.0859.4482,1.3988,1.3988,0,0,0,.918-.2817,1.9737,1.9737,0,0,0,.5459-.75l.9961.5278a2.4924,2.4924,0,0,1-.936,1.1836A2.7035,2.7035,0,0,1,341.5029,152.4222Z"/><path d="M346.939,152.2782a1.3871,1.3871,0,0,1-1.0323-.354,1.3687,1.3687,0,0,1-.3476-1.002v-3.8159h-.9722v-1.0684h.5278a.5786.5786,0,0,0,.45-.1435.7058.7058,0,0,0,.126-.4683v-1.0918h1.1758v1.7036h1.3081v1.0684h-1.3081v4.104h1.2124v1.0679Z"/><path d="M350.251,144.9222a.7973.7973,0,0,1-.5943-.1919.6778.6778,0,0,1-.186-.4922v-.2041a.6776.6776,0,0,1,.186-.4917.7977.7977,0,0,1,.5943-.1923.7768.7768,0,0,1,.5879.1923.69.69,0,0,1,.18.4917v.2041a.69.69,0,0,1-.18.4922A.7764.7764,0,0,1,350.251,144.9222Zm-.66,1.1157h1.3081v6.24h-1.3081Z"/><path d="M354.1265,152.2782l-2.1241-6.24h1.2959l.9483,2.8443.6357,2.1841h.0723l.6357-2.1841.9722-2.8443h1.248l-2.1479,6.24Z"/><path d="M361.2666,152.4222a3.0011,3.0011,0,0,1-1.2-.228,2.4856,2.4856,0,0,1-.9-.6538,2.9346,2.9346,0,0,1-.57-1.0322,4.7065,4.7065,0,0,1,0-2.7,2.9371,2.9371,0,0,1,.57-1.0318,2.4856,2.4856,0,0,1,.9-.6538,2.9942,2.9942,0,0,1,1.2-.228,2.8645,2.8645,0,0,1,1.2061.24,2.4048,2.4048,0,0,1,.87.6661,2.9024,2.9024,0,0,1,.5219.99,4.0963,4.0963,0,0,1,.1739,1.2119v.4917h-4.2837v.2026a1.6586,1.6586,0,0,0,.4258,1.1744,1.58,1.58,0,0,0,1.2182.4589,1.7816,1.7816,0,0,0,.9717-.25,2.1905,2.1905,0,0,0,.6724-.68l.768.7583a2.4847,2.4847,0,0,1-1.0083.9209A3.2875,3.2875,0,0,1,361.2666,152.4222Zm0-5.5078a1.5708,1.5708,0,0,0-.6177.12,1.3748,1.3748,0,0,0-.48.336,1.5063,1.5063,0,0,0-.3061.5161,1.9415,1.9415,0,0,0-.1079.66v.084h2.9038v-.12a1.7268,1.7268,0,0,0-.3721-1.1577A1.2672,1.2672,0,0,0,361.2666,146.9144Z"/><path d="M330.875,159.3822a5.4211,5.4211,0,0,1,.1118-1.1118,5.29,5.29,0,0,1,.3081-.9961,4.5789,4.5789,0,0,1,.46-.836,3.55,3.55,0,0,1,.5679-.64h.6084a4.0242,4.0242,0,0,0-.6041.688,4.6469,4.6469,0,0,0-.456.8159,5.0256,5.0256,0,0,0-.292.88,3.8154,3.8154,0,0,0-.104.8637v.688a3.8533,3.8533,0,0,0,.104.8721,4.9308,4.9308,0,0,0,.7559,1.6958,3.7069,3.7069,0,0,0,.5962.6719h-.6084a3.22,3.22,0,0,1-.56-.624,4.5048,4.5048,0,0,1-.46-.84,5.6372,5.6372,0,0,1-.312-1.0039A5.3513,5.3513,0,0,1,330.875,159.3822Z"/><path d="M333.6348,161.8783v-5.584h3.4077v.5918h-2.7359v1.8721h2.5762v.5922h-2.5762v1.9361h2.7359v.5918Z"/><path d="M338.2349,161.8783V157.75h.64v.664h.0322a1.3487,1.3487,0,0,1,.4278-.5542,1.21,1.21,0,0,1,.74-.206,1.2963,1.2963,0,0,1,1.0122.4121,1.6788,1.6788,0,0,1,.3716,1.164v2.648h-.64v-2.5415q0-1.1148-.936-1.1143a1.4486,1.4486,0,0,0-.3721.0479,1.0774,1.0774,0,0,0-.3242.1445.7174.7174,0,0,0-.228.2441.7012.7012,0,0,0-.084.3492v2.87Z"/><path d="M344.3145,161.974a1.9143,1.9143,0,0,1-.7759-.1514,1.597,1.597,0,0,1-.58-.4316,1.9373,1.9373,0,0,1-.36-.6807,3.2992,3.2992,0,0,1,0-1.792,1.9314,1.9314,0,0,1,.36-.68,1.5813,1.5813,0,0,1,.58-.4316,1.8979,1.8979,0,0,1,.7759-.1523,1.6554,1.6554,0,0,1,.9882.268,1.6327,1.6327,0,0,1,.5557.7l-.5356.272a.9706.9706,0,0,0-.3682-.4961,1.1049,1.1049,0,0,0-.64-.1758,1.2761,1.2761,0,0,0-.504.0918.9858.9858,0,0,0-.36.2559,1.0721,1.0721,0,0,0-.2158.3921,1.6407,1.6407,0,0,0-.0723.5v.7041a1.34,1.34,0,0,0,.292.8921,1.06,1.06,0,0,0,.86.3481,1.1613,1.1613,0,0,0,1.12-.72l.4638.312a1.6437,1.6437,0,0,1-.5957.7119A1.745,1.745,0,0,1,344.3145,161.974Z"/><path d="M346.8027,161.8783V157.75h.64v.76h.04a1.2483,1.2483,0,0,1,.4-.5278,1.229,1.229,0,0,1,.792-.2319h.2481v.64h-.376a1.4434,1.4434,0,0,0-.812.1958.5791.5791,0,0,0-.292.4922v2.8Z"/><path d="M352.3628,157.75h.6318l-1.8481,5.0878a2.1459,2.1459,0,0,1-.1441.3077.5921.5921,0,0,1-.1757.1962.7017.7017,0,0,1-.26.1045,2,2,0,0,1-.38.0313h-.3276v-.5674h.6479l.312-.8789-1.5439-4.2812h.64l.9921,2.8027.1919.67h.04l.2241-.67Z"/><path d="M353.8105,157.75h.64v.664h.0322a1.1643,1.1643,0,0,1,.4678-.5742,1.4064,1.4064,0,0,1,.74-.186,1.564,1.564,0,0,1,.6958.1523,1.514,1.514,0,0,1,.5323.4316,1.9949,1.9949,0,0,1,.3359.68,3.5126,3.5126,0,0,1,0,1.792,2.0012,2.0012,0,0,1-.3359.6807,1.5294,1.5294,0,0,1-.5323.4316,1.5773,1.5773,0,0,1-.6958.1514,1.2489,1.2489,0,0,1-1.208-.7608H354.45v2.2647h-.64Zm1.7037,3.6562a1.103,1.103,0,0,0,.8564-.3418,1.2787,1.2787,0,0,0,.3115-.897V159.46a1.2785,1.2785,0,0,0-.3115-.8965,1.1027,1.1027,0,0,0-.8564-.3413,1.3951,1.3951,0,0,0-.4117.06,1.1562,1.1562,0,0,0-.34.165.7931.7931,0,0,0-.228.2529.6394.6394,0,0,0-.084.3179v1.5435a.7487.7487,0,0,0,.084.3579.7984.7984,0,0,0,.228.2651,1.0083,1.0083,0,0,0,.34.1651A1.5,1.5,0,0,0,355.5142,161.4066Z"/><path d="M359.3145,161.8783a.6557.6557,0,0,1-.5079-.1875.6968.6968,0,0,1-.1718-.4912v-2.8814h-.68V157.75h.3843a.3758.3758,0,0,0,.2837-.084.4364.4364,0,0,0,.0761-.292v-.7681h.5757V157.75h.9043v.5678h-.9043v2.9927h.84v.5674Z"/><path d="M366.3306,161.223c-.0591.0684-.1333.1475-.2242.2354a1.6724,1.6724,0,0,1-.332.2441,2.1478,2.1478,0,0,1-.4639.1914,2.3172,2.3172,0,0,1-1.34-.04,1.51,1.51,0,0,1-.5356-.3321,1.4181,1.4181,0,0,1-.3282-.4922,1.6,1.6,0,0,1-.1118-.6,1.4253,1.4253,0,0,1,.356-.9805,2.0453,2.0453,0,0,1,.3677-.332,4.7284,4.7284,0,0,1,.42-.2647,2.9606,2.9606,0,0,1-.46-.6191,1.4212,1.4212,0,0,1-.1719-.6914,1.3509,1.3509,0,0,1,.1041-.5279,1.2608,1.2608,0,0,1,.2919-.4277,1.3705,1.3705,0,0,1,.4561-.2837,1.6472,1.6472,0,0,1,.5962-.104,1.6184,1.6184,0,0,1,.5439.0884,1.2709,1.2709,0,0,1,.4239.2436,1.0964,1.0964,0,0,1,.2758.38,1.1757,1.1757,0,0,1,.1.4873,1.19,1.19,0,0,1-.1.5,1.4467,1.4467,0,0,1-.2758.4038,2.4753,2.4753,0,0,1-.4078.34q-.232.156-.496.3l1.2558,1.3471a3.49,3.49,0,0,0,.1841-.645,5.064,5.064,0,0,0,.08-.7007h1.0879v.544h-.5679a4.71,4.71,0,0,1-.1524.6582,3.5007,3.5007,0,0,1-.2319.57l1.0884,1.1636h-.832Zm-1.5679.1836a1.5071,1.5071,0,0,0,.7036-.1543,1.5673,1.5673,0,0,0,.5039-.4165l-1.4956-1.6133c-.1069.0581-.2095.12-.3081.1831a1.2015,1.2015,0,0,0-.26.2271,1.0659,1.0659,0,0,0-.18.3032,1.0831,1.0831,0,0,0-.0679.4023v.12a.86.86,0,0,0,.3.6928A1.2006,1.2006,0,0,0,364.7627,161.4066Zm.16-4.6724a.77.77,0,0,0-.564.2159.7181.7181,0,0,0-.22.5346v.0957a.9214.9214,0,0,0,.1479.4834,3.6815,3.6815,0,0,0,.3877.5147q.1919-.1033.3721-.2193a2.08,2.08,0,0,0,.32-.2514,1.4012,1.4012,0,0,0,.2275-.2837.603.603,0,0,0,.0884-.3154v-.0958a.5977.5977,0,0,0-.228-.5029A.848.848,0,0,0,364.9224,156.7342Z"/><path d="M370.6025,156.2943h1.8721a2.4442,2.4442,0,0,1,.9439.1758,1.9123,1.9123,0,0,1,.7241.5244,2.3878,2.3878,0,0,1,.46.8716,4.7414,4.7414,0,0,1,0,2.44,2.3878,2.3878,0,0,1-.46.8716,1.9176,1.9176,0,0,1-.7241.5244,2.4442,2.4442,0,0,1-.9439.1758h-1.8721Zm1.8721,4.9922a1.6806,1.6806,0,0,0,.6318-.1162,1.3609,1.3609,0,0,0,.4961-.34,1.5689,1.5689,0,0,0,.3238-.5483,2.1916,2.1916,0,0,0,.1162-.74V158.63a2.1914,2.1914,0,0,0-.1162-.74,1.57,1.57,0,0,0-.3238-.5484,1.3668,1.3668,0,0,0-.4961-.34,1.6806,1.6806,0,0,0-.6318-.1162h-1.2v4.4Z"/><path d="M377.458,161.974a1.8639,1.8639,0,0,1-.7637-.1514,1.6463,1.6463,0,0,1-.5839-.4365,1.9947,1.9947,0,0,1-.3765-.68,3.0718,3.0718,0,0,1,0-1.78,1.9981,1.9981,0,0,1,.3765-.6841,1.6448,1.6448,0,0,1,.5839-.4355,1.8479,1.8479,0,0,1,.7637-.1523,1.7536,1.7536,0,0,1,.7441.1518,1.6461,1.6461,0,0,1,.5606.4185,1.87,1.87,0,0,1,.3555.6338,2.4909,2.4909,0,0,1,.124.8051v.3028h-2.9678v.1919a1.4191,1.4191,0,0,0,.084.4922,1.1557,1.1557,0,0,0,.24.3959,1.0913,1.0913,0,0,0,.3838.2647,1.3291,1.3291,0,0,0,.5156.0957,1.2629,1.2629,0,0,0,.6846-.1836,1.2176,1.2176,0,0,0,.4522-.5288l.455.33a1.5933,1.5933,0,0,1-.623.6889A1.889,1.889,0,0,1,377.458,161.974Zm0-3.7837a1.2155,1.2155,0,0,0-.48.0913,1.0713,1.0713,0,0,0-.3721.2588,1.1992,1.1992,0,0,0-.2441.3931,1.3646,1.3646,0,0,0-.0879.497v.0557h2.28v-.0874a1.2544,1.2544,0,0,0-.3008-.8784A1.0212,1.0212,0,0,0,377.458,158.19Z"/><path d="M381.834,161.974a1.9136,1.9136,0,0,1-.7754-.1514,1.597,1.597,0,0,1-.58-.4316,1.9444,1.9444,0,0,1-.36-.6807,3.2966,3.2966,0,0,1,0-1.792,1.9385,1.9385,0,0,1,.36-.68,1.5813,1.5813,0,0,1,.58-.4316,1.8972,1.8972,0,0,1,.7754-.1523,1.6549,1.6549,0,0,1,.9883.268,1.6288,1.6288,0,0,1,.5556.7l-.5351.272a.9728.9728,0,0,0-.3682-.4961,1.1054,1.1054,0,0,0-.6406-.1758,1.2786,1.2786,0,0,0-.5039.0918.9835.9835,0,0,0-.3594.2559,1.0648,1.0648,0,0,0-.2158.3921,1.6285,1.6285,0,0,0-.0723.5v.7041a1.3371,1.3371,0,0,0,.292.8921,1.0587,1.0587,0,0,0,.8594.3481,1.1612,1.1612,0,0,0,1.12-.72l.4639.312a1.641,1.641,0,0,1-.5957.7119A1.7433,1.7433,0,0,1,381.834,161.974Z"/><path d="M384.3223,161.8783V157.75h.64v.76h.04a1.2494,1.2494,0,0,1,.4-.5278,1.229,1.229,0,0,1,.792-.2319h.2481v.64h-.376a1.4463,1.4463,0,0,0-.8125.1958.5793.5793,0,0,0-.292.4922v2.8Z"/><path d="M389.8818,157.75h.6319l-1.8477,5.0878a2.0908,2.0908,0,0,1-.1445.3077.5935.5935,0,0,1-.1758.1962.6975.6975,0,0,1-.26.1045,1.99,1.99,0,0,1-.38.0313h-.3282v-.5674h.6485l.3115-.8789-1.544-4.2812h.64l.9922,2.8027.1924.67h.04l.2236-.67Z"/><path d="M391.33,157.75h.64v.664h.0323a1.1636,1.1636,0,0,1,.4677-.5742,1.408,1.408,0,0,1,.74-.186,1.5594,1.5594,0,0,1,.6953.1523,1.5038,1.5038,0,0,1,.5332.4316,2.0022,2.0022,0,0,1,.3359.68,3.542,3.542,0,0,1,0,1.792,2.0084,2.0084,0,0,1-.3359.6807,1.519,1.519,0,0,1-.5332.4316,1.5726,1.5726,0,0,1-.6953.1514,1.2493,1.2493,0,0,1-1.208-.7608H391.97v2.2647h-.64Zm1.7041,3.6562a1.1,1.1,0,0,0,.8554-.3418,1.2747,1.2747,0,0,0,.3125-.897V159.46a1.2745,1.2745,0,0,0-.3125-.8965,1.1,1.1,0,0,0-.8554-.3413,1.4,1.4,0,0,0-.4121.06,1.1466,1.1466,0,0,0-.34.165.8018.8018,0,0,0-.2285.2529.6394.6394,0,0,0-.084.3179v1.5435a.7487.7487,0,0,0,.084.3579.8068.8068,0,0,0,.2285.2651,1.0008,1.0008,0,0,0,.34.1651A1.5052,1.5052,0,0,0,393.0342,161.4066Z"/><path d="M396.833,161.8783a.6549.6549,0,0,1-.5078-.1875.6987.6987,0,0,1-.1719-.4912v-2.8814h-.68V157.75h.3838a.3764.3764,0,0,0,.2842-.084.4419.4419,0,0,0,.0752-.292v-.7681h.5762V157.75h.9043v.5678h-.9043v2.9927h.84v.5674Z"/><path d="M400.0654,159.3822a5.3515,5.3515,0,0,1-.1152,1.124,5.6212,5.6212,0,0,1-.3125,1.0039,4.5048,4.5048,0,0,1-.46.84,3.2024,3.2024,0,0,1-.56.624H398.01a3.7084,3.7084,0,0,0,.5957-.6719,4.9331,4.9331,0,0,0,.7558-1.6958,3.8489,3.8489,0,0,0,.1045-.8721v-.688a3.8112,3.8112,0,0,0-.1045-.8637,5.0256,5.0256,0,0,0-.292-.88,4.7405,4.7405,0,0,0-.455-.8159,4.1144,4.1144,0,0,0-.6045-.688h.6084a3.548,3.548,0,0,1,.5673.64,4.5789,4.5789,0,0,1,.46.836,5.32,5.32,0,0,1,.3086.9961A5.4563,5.4563,0,0,1,400.0654,159.3822Z"/><path d="M333.751,262.4222a3.8417,3.8417,0,0,1-1.794-.3843,3.9909,3.9909,0,0,1-1.2661-1.0317l.9361-.876a3.1449,3.1449,0,0,0,.978.816,2.6129,2.6129,0,0,0,1.2178.2758,1.7841,1.7841,0,0,0,1.2124-.36,1.2323,1.2323,0,0,0,.4077-.9722,1.0524,1.0524,0,0,0-.2881-.78,1.9972,1.9972,0,0,0-1.02-.4321l-.7437-.1319a3.5854,3.5854,0,0,1-1.8359-.8042,2.0691,2.0691,0,0,1-.6123-1.5839,2.3411,2.3411,0,0,1,.21-1.002,2.1076,2.1076,0,0,1,.5879-.7558,2.7379,2.7379,0,0,1,.9185-.4742,4.076,4.076,0,0,1,1.2119-.1679,3.802,3.802,0,0,1,1.644.33,3.3012,3.3012,0,0,1,1.188.9541l-.9482.84a2.4656,2.4656,0,0,0-.792-.6719,2.4336,2.4336,0,0,0-1.1641-.2519,1.8707,1.8707,0,0,0-1.1157.2876.9739.9739,0,0,0-.396.84.9449.9449,0,0,0,.3237.7861,2.3535,2.3535,0,0,0,1.0083.39l.7437.1562a3.5133,3.5133,0,0,1,1.8423.8159,2.1289,2.1289,0,0,1,.582,1.584,2.7062,2.7062,0,0,1-.2041,1.0679,2.25,2.25,0,0,1-.5942.8223,2.7186,2.7186,0,0,1-.9536.5278A4.0964,4.0964,0,0,1,333.751,262.4222Z"/><path d="M342.1025,261.246h-.0478a2.2941,2.2941,0,0,1-.2222.4443,1.485,1.485,0,0,1-.3476.3779,1.6654,1.6654,0,0,1-.5039.2578,2.1879,2.1879,0,0,1-.6783.0962,1.874,1.874,0,0,1-1.5058-.624,2.67,2.67,0,0,1-.5342-1.7881v-3.9722h1.3081v3.8042q0,1.4524,1.2,1.4522a1.8536,1.8536,0,0,0,.4922-.0659,1.3341,1.3341,0,0,0,.4258-.1983,1.01,1.01,0,0,0,.3-.3359.97.97,0,0,0,.1137-.48v-4.1763h1.3081v6.24h-1.3081Z"/><path d="M347.2627,262.4222a3.1988,3.1988,0,0,1-1.4878-.312,3.26,3.26,0,0,1-1.0444-.8642l.84-.7676a2.6848,2.6848,0,0,0,.7739.6538,2.0253,2.0253,0,0,0,.99.2339,1.3779,1.3779,0,0,0,.8584-.2217.7435.7435,0,0,0,.2817-.6182.718.718,0,0,0-.1977-.51,1.1266,1.1266,0,0,0-.69-.27l-.5762-.0718a2.951,2.951,0,0,1-1.5058-.5581,1.5688,1.5688,0,0,1-.5464-1.3018,1.8679,1.8679,0,0,1,.168-.81,1.6939,1.6939,0,0,1,.4741-.6,2.1874,2.1874,0,0,1,.7319-.378,3.1786,3.1786,0,0,1,.9424-.1318,3.1048,3.1048,0,0,1,1.3735.2637,3.1543,3.1543,0,0,1,.9541.7319l-.8037.7681a2.1116,2.1116,0,0,0-.63-.4981,1.8587,1.8587,0,0,0-.8936-.21,1.2262,1.2262,0,0,0-.7983.2163.7.7,0,0,0-.2578.5639.6455.6455,0,0,0,.228.54,1.6343,1.6343,0,0,0,.7319.2636l.5762.0723a2.7579,2.7579,0,0,1,1.5058.606,1.5845,1.5845,0,0,1,.4742,1.206,1.8842,1.8842,0,0,1-.1744.8218,1.7948,1.7948,0,0,1-.498.63,2.3313,2.3313,0,0,1-.78.4082A3.3732,3.3732,0,0,1,347.2627,262.4222Z"/><path d="M351.21,256.0379h1.3082V257.07h.06a1.703,1.703,0,0,1,.666-.87,1.9191,1.9191,0,0,1,1.086-.3057,2.1658,2.1658,0,0,1,1.8359.8579,4.7907,4.7907,0,0,1,0,4.812,2.1658,2.1658,0,0,1-1.8359.8579,1.893,1.893,0,0,1-1.086-.312,1.7378,1.7378,0,0,1-.666-.8642h-.06v3.4321H351.21Zm2.7242,5.2564a1.42,1.42,0,0,0,1.0918-.438,1.6318,1.6318,0,0,0,.4082-1.1582v-1.08a1.6306,1.6306,0,0,0-.4082-1.1577,1.42,1.42,0,0,0-1.0918-.438,1.68,1.68,0,0,0-1.0083.294.91.91,0,0,0-.4077.7739v2.1362a.9112.9112,0,0,0,.4077.774A1.68,1.68,0,0,0,353.9346,261.2943Z"/><path d="M360.7622,262.4222a3.0018,3.0018,0,0,1-1.2-.228,2.4856,2.4856,0,0,1-.9-.6538,2.9361,2.9361,0,0,1-.57-1.0322,4.7065,4.7065,0,0,1,0-2.7,2.9387,2.9387,0,0,1,.57-1.0318,2.4856,2.4856,0,0,1,.9-.6538,2.9949,2.9949,0,0,1,1.2-.228,2.8645,2.8645,0,0,1,1.2061.24,2.4048,2.4048,0,0,1,.87.6661,2.9044,2.9044,0,0,1,.522.99,4.1,4.1,0,0,1,.1738,1.2119v.4917h-4.2837v.2026a1.6586,1.6586,0,0,0,.4258,1.1744,1.58,1.58,0,0,0,1.2182.4589,1.7816,1.7816,0,0,0,.9717-.25,2.1905,2.1905,0,0,0,.6724-.68l.768.7583a2.4847,2.4847,0,0,1-1.0083.9209A3.2875,3.2875,0,0,1,360.7622,262.4222Zm0-5.5078a1.5708,1.5708,0,0,0-.6177.12,1.3734,1.3734,0,0,0-.48.336,1.5049,1.5049,0,0,0-.3062.5161,1.9415,1.9415,0,0,0-.1079.66v.084h2.9038v-.12a1.7268,1.7268,0,0,0-.3721-1.1577A1.2672,1.2672,0,0,0,360.7622,256.9144Z"/><path d="M364.9863,262.2782v-6.24h1.3081V257.07h.06a2.0557,2.0557,0,0,1,.6177-.84,1.75,1.75,0,0,1,1.1342-.3359,1.852,1.852,0,0,1,1.4937.63,2.6976,2.6976,0,0,1,.5342,1.7939v3.96h-1.3081v-3.792q0-1.4641-1.1758-1.4639a1.9193,1.9193,0,0,0-.4981.0659,1.4122,1.4122,0,0,0-.4379.1978.9918.9918,0,0,0-.3062.3364.9653.9653,0,0,0-.1138.48v4.1758Z"/><path d="M375.87,261.246h-.06a1.738,1.738,0,0,1-.6661.8642,1.8927,1.8927,0,0,1-1.0859.312,2.1658,2.1658,0,0,1-1.8359-.8579,4.7907,4.7907,0,0,1,0-4.812,2.1658,2.1658,0,0,1,1.8359-.8579,1.9188,1.9188,0,0,1,1.0859.3057,1.7032,1.7032,0,0,1,.6661.87h.06v-3.6719h1.3086v8.88H375.87Zm-1.416.0483A1.6814,1.6814,0,0,0,375.4624,261a.9124.9124,0,0,0,.4077-.774V258.09a.9116.9116,0,0,0-.4077-.7739,1.6815,1.6815,0,0,0-1.0083-.294,1.42,1.42,0,0,0-1.0918.438,1.63,1.63,0,0,0-.4082,1.1577v1.08a1.6314,1.6314,0,0,0,.4082,1.1582A1.42,1.42,0,0,0,374.4541,261.2943Z"/><path d="M381.498,262.4222a2.9993,2.9993,0,0,1-1.1992-.228,2.4883,2.4883,0,0,1-.9-.6538,2.944,2.944,0,0,1-.57-1.0322,4.72,4.72,0,0,1,0-2.7,2.9466,2.9466,0,0,1,.57-1.0318,2.4883,2.4883,0,0,1,.9-.6538,2.9924,2.9924,0,0,1,1.1992-.228,2.8645,2.8645,0,0,1,1.2061.24,2.3955,2.3955,0,0,1,.87.6661,2.895,2.895,0,0,1,.5225.99,4.116,4.116,0,0,1,.1738,1.2119v.4917h-4.2842v.2026a1.6608,1.6608,0,0,0,.4258,1.1744,1.5808,1.5808,0,0,0,1.2188.4589,1.7812,1.7812,0,0,0,.9716-.25,2.1891,2.1891,0,0,0,.6719-.68l.7686.7583a2.4842,2.4842,0,0,1-1.0088.9209A3.2867,3.2867,0,0,1,381.498,262.4222Zm0-5.5078a1.566,1.566,0,0,0-.6171.12,1.3712,1.3712,0,0,0-.4805.336,1.5054,1.5054,0,0,0-.3057.5161,1.9318,1.9318,0,0,0-.1084.66v.084h2.9043v-.12a1.7273,1.7273,0,0,0-.372-1.1577A1.2678,1.2678,0,0,0,381.498,256.9144Z"/><path d="M389.6465,261.246h-.0606a1.7345,1.7345,0,0,1-.666.8642,1.8927,1.8927,0,0,1-1.0859.312,2.1667,2.1667,0,0,1-1.836-.8579,4.7945,4.7945,0,0,1,0-4.812,2.1667,2.1667,0,0,1,1.836-.8579,1.9188,1.9188,0,0,1,1.0859.3057,1.7,1.7,0,0,1,.666.87h.0606v-3.6719h1.3076v8.88h-1.3076Zm-1.416.0483A1.68,1.68,0,0,0,389.2383,261a.9128.9128,0,0,0,.4082-.774V258.09a.9121.9121,0,0,0-.4082-.7739,1.68,1.68,0,0,0-1.0078-.294,1.42,1.42,0,0,0-1.0918.438,1.6279,1.6279,0,0,0-.4082,1.1577v1.08a1.6292,1.6292,0,0,0,.4082,1.1582A1.42,1.42,0,0,0,388.2305,261.2943Z"/><path d="M491.167,144.9022h2.9639a3.8553,3.8553,0,0,1,1.458.2642,2.94,2.94,0,0,1,1.1162.7856,3.6115,3.6115,0,0,1,.7138,1.3081,6.7714,6.7714,0,0,1,0,3.66,3.6115,3.6115,0,0,1-.7138,1.3081,2.9407,2.9407,0,0,1-1.1162.7856,3.8553,3.8553,0,0,1-1.458.2642H491.167Zm2.9639,7.1758a2.02,2.02,0,0,0,1.5117-.5879,2.3684,2.3684,0,0,0,.5762-1.728v-1.3438a2.3692,2.3692,0,0,0-.5762-1.728,2.02,2.02,0,0,0-1.5117-.5879h-1.6075v5.9756Z"/><path d="M501.7148,153.4222a3.0043,3.0043,0,0,1-1.2-.228,2.4846,2.4846,0,0,1-.8994-.6538,2.93,2.93,0,0,1-.57-1.0322,4.6974,4.6974,0,0,1,0-2.7,2.9324,2.9324,0,0,1,.57-1.0318,2.4846,2.4846,0,0,1,.8994-.6538,2.9974,2.9974,0,0,1,1.2-.228,2.8645,2.8645,0,0,1,1.2061.24,2.4116,2.4116,0,0,1,.87.6661,2.9086,2.9086,0,0,1,.5215.99,4.0833,4.0833,0,0,1,.1738,1.2119v.4917h-4.2832v.2026a1.6564,1.6564,0,0,0,.4258,1.1744,1.5787,1.5787,0,0,0,1.2178.4589,1.7816,1.7816,0,0,0,.9717-.25,2.1928,2.1928,0,0,0,.6728-.68l.7676.7583a2.4871,2.4871,0,0,1-1.0078.9209A3.29,3.29,0,0,1,501.7148,153.4222Zm0-5.5078a1.5745,1.5745,0,0,0-.6181.12,1.3765,1.3765,0,0,0-.4795.336,1.5075,1.5075,0,0,0-.3067.5161,1.9563,1.9563,0,0,0-.1074.66v.084h2.9033v-.12a1.7273,1.7273,0,0,0-.372-1.1577A1.2671,1.2671,0,0,0,501.7148,147.9144Z"/><path d="M510.5107,153.2782a1.0336,1.0336,0,0,1-.7919-.294,1.3156,1.3156,0,0,1-.336-.75h-.06a1.5344,1.5344,0,0,1-.66.8882,2.1568,2.1568,0,0,1-1.1641.3,2.0671,2.0671,0,0,1-1.4941-.5039,1.7981,1.7981,0,0,1-.5215-1.3559,1.5927,1.5927,0,0,1,.6777-1.4043,3.495,3.495,0,0,1,1.9864-.4678h1.1279v-.5283a1.2011,1.2011,0,0,0-.3125-.8877,1.3261,1.3261,0,0,0-.9717-.312,1.5569,1.5569,0,0,0-.9.24,2.162,2.162,0,0,0-.5879.6123l-.7793-.708a2.4853,2.4853,0,0,1,.876-.87,2.8166,2.8166,0,0,1,1.4756-.3418,2.7524,2.7524,0,0,1,1.86.564,2.0321,2.0321,0,0,1,.6475,1.62V152.21h.66v1.0679Zm-2.64-.8521a1.7483,1.7483,0,0,0,1.0078-.27.8359.8359,0,0,0,.3965-.7261v-.9h-1.1045q-1.3565,0-1.3555.84v.2163a.7337.7337,0,0,0,.2823.63A1.2664,1.2664,0,0,0,507.8711,152.4261Z"/><path d="M514.9395,153.4222a3,3,0,0,1-1.2-.228,2.3807,2.3807,0,0,1-.8887-.6538,2.976,2.976,0,0,1-.5518-1.0322,4.8574,4.8574,0,0,1,0-2.7,2.9785,2.9785,0,0,1,.5518-1.0318,2.3807,2.3807,0,0,1,.8887-.6538,2.9933,2.9933,0,0,1,1.2-.228,2.6121,2.6121,0,0,1,1.5351.42,2.4137,2.4137,0,0,1,.876,1.1157l-1.0791.5039a1.3571,1.3571,0,0,0-.4629-.69,1.3716,1.3716,0,0,0-.8691-.2578,1.3171,1.3171,0,0,0-1.086.4487,1.788,1.788,0,0,0-.3662,1.167v1.1128a1.788,1.788,0,0,0,.3662,1.167,1.3183,1.3183,0,0,0,1.086.4482,1.4,1.4,0,0,0,.9179-.2817,1.9831,1.9831,0,0,0,.5459-.75l.9961.5278a2.4933,2.4933,0,0,1-.9365,1.1836A2.7023,2.7023,0,0,1,514.9395,153.4222Z"/><path d="M520.375,153.2782a1.3859,1.3859,0,0,1-1.0322-.354,1.3667,1.3667,0,0,1-.3477-1.002v-3.8159h-.9726v-1.0684h.5283a.58.58,0,0,0,.45-.1435.7058.7058,0,0,0,.126-.4683v-1.0918h1.1757v1.7036H521.61v1.0684h-1.3077v4.104h1.2119v1.0679Z"/><path d="M523.6865,145.9222a.7957.7957,0,0,1-.5937-.1919.6782.6782,0,0,1-.1866-.4922v-.2041a.678.678,0,0,1,.1866-.4917.7962.7962,0,0,1,.5937-.1923.7768.7768,0,0,1,.5879.1923.69.69,0,0,1,.18.4917v.2041a.69.69,0,0,1-.18.4922A.7764.7764,0,0,1,523.6865,145.9222Zm-.66,1.1157h1.3086v6.24h-1.3086Z"/><path d="M527.5625,153.2782l-2.124-6.24h1.2959l.9482,2.8443.6358,2.1841h.0722l.6358-2.1841.9726-2.8443h1.2481l-2.1485,6.24Z"/><path d="M536.8145,153.2782a1.0337,1.0337,0,0,1-.792-.294,1.3156,1.3156,0,0,1-.336-.75h-.06a1.535,1.535,0,0,1-.66.8882,2.1568,2.1568,0,0,1-1.1641.3,2.0671,2.0671,0,0,1-1.4941-.5039,1.7981,1.7981,0,0,1-.5215-1.3559,1.5927,1.5927,0,0,1,.6777-1.4043,3.495,3.495,0,0,1,1.9864-.4678h1.1279v-.5283a1.2011,1.2011,0,0,0-.3125-.8877,1.3261,1.3261,0,0,0-.9717-.312,1.5573,1.5573,0,0,0-.9.24,2.162,2.162,0,0,0-.5879.6123l-.7793-.708a2.4853,2.4853,0,0,1,.876-.87,2.8166,2.8166,0,0,1,1.4756-.3418,2.7528,2.7528,0,0,1,1.86.564,2.0324,2.0324,0,0,1,.6474,1.62V152.21h.66v1.0679Zm-2.64-.8521a1.7483,1.7483,0,0,0,1.0078-.27.8359.8359,0,0,0,.3965-.7261v-.9h-1.1045q-1.3564,0-1.3555.84v.2163a.7337.7337,0,0,0,.2823.63A1.2664,1.2664,0,0,0,534.1748,152.4261Z"/><path d="M540.5225,153.2782a1.3879,1.3879,0,0,1-1.0323-.354,1.3708,1.3708,0,0,1-.3476-1.002v-3.8159h-.9717v-1.0684h.5273a.578.578,0,0,0,.45-.1435.7058.7058,0,0,0,.126-.4683v-1.0918H540.45v1.7036h1.3086v1.0684H540.45v4.104h1.2129v1.0679Z"/><path d="M545.5742,153.4222a2.9993,2.9993,0,0,1-1.1992-.228,2.4883,2.4883,0,0,1-.9-.6538,2.944,2.944,0,0,1-.57-1.0322,4.7179,4.7179,0,0,1,0-2.7,2.9466,2.9466,0,0,1,.57-1.0318,2.4883,2.4883,0,0,1,.9-.6538,2.9924,2.9924,0,0,1,1.1992-.228,2.8645,2.8645,0,0,1,1.2061.24,2.3963,2.3963,0,0,1,.87.6661,2.8967,2.8967,0,0,1,.5225.99,4.116,4.116,0,0,1,.1738,1.2119v.4917h-4.2842v.2026a1.6608,1.6608,0,0,0,.4258,1.1744,1.5807,1.5807,0,0,0,1.2187.4589,1.7816,1.7816,0,0,0,.9717-.25,2.1891,2.1891,0,0,0,.6719-.68l.7685.7583a2.4833,2.4833,0,0,1-1.0087.9209A3.2867,3.2867,0,0,1,545.5742,153.4222Zm0-5.5078a1.5665,1.5665,0,0,0-.6172.12,1.3718,1.3718,0,0,0-.48.336,1.5039,1.5039,0,0,0-.3057.5161,1.9294,1.9294,0,0,0-.1084.66v.084h2.9043v-.12a1.7268,1.7268,0,0,0-.3721-1.1577A1.2676,1.2676,0,0,0,545.5742,147.9144Z"/><path d="M553.7227,152.246h-.0606a1.7345,1.7345,0,0,1-.666.8642,1.8927,1.8927,0,0,1-1.0859.312,2.1666,2.1666,0,0,1-1.836-.8579,4.7945,4.7945,0,0,1,0-4.812,2.1666,2.1666,0,0,1,1.836-.8579,1.9188,1.9188,0,0,1,1.0859.3057,1.7,1.7,0,0,1,.666.87h.0606v-3.6719H555.03v8.88h-1.3076Zm-1.4161.0483A1.68,1.68,0,0,0,553.3145,152a.9131.9131,0,0,0,.4082-.774V149.09a.9123.9123,0,0,0-.4082-.7739,1.68,1.68,0,0,0-1.0079-.294,1.42,1.42,0,0,0-1.0918.438,1.6284,1.6284,0,0,0-.4082,1.1577v1.08a1.63,1.63,0,0,0,.4082,1.1582A1.42,1.42,0,0,0,552.3066,152.2943Z"/><path d="M654.9912,144.9022h2.9639a3.8553,3.8553,0,0,1,1.458.2642,2.94,2.94,0,0,1,1.1162.7856,3.6132,3.6132,0,0,1,.7139,1.3081,6.774,6.774,0,0,1,0,3.66,3.6132,3.6132,0,0,1-.7139,1.3081,2.9407,2.9407,0,0,1-1.1162.7856,3.8553,3.8553,0,0,1-1.458.2642h-2.9639Zm2.9639,7.1758a2.02,2.02,0,0,0,1.5117-.5879,2.3679,2.3679,0,0,0,.5762-1.728v-1.3438a2.3687,2.3687,0,0,0-.5762-1.728,2.02,2.02,0,0,0-1.5117-.5879h-1.6074v5.9756Z"/><path d="M665.5391,153.4222a3.0036,3.0036,0,0,1-1.2-.228,2.4829,2.4829,0,0,1-.8994-.6538,2.9285,2.9285,0,0,1-.57-1.0322,4.6974,4.6974,0,0,1,0-2.7,2.931,2.931,0,0,1,.57-1.0318,2.4829,2.4829,0,0,1,.8994-.6538,2.9967,2.9967,0,0,1,1.2-.228,2.864,2.864,0,0,1,1.206.24,2.4116,2.4116,0,0,1,.87.6661,2.9086,2.9086,0,0,1,.5215.99,4.0833,4.0833,0,0,1,.1738,1.2119v.4917h-4.2832v.2026a1.6564,1.6564,0,0,0,.4258,1.1744,1.5787,1.5787,0,0,0,1.2178.4589,1.7816,1.7816,0,0,0,.9717-.25,2.1917,2.1917,0,0,0,.6728-.68l.7676.7583a2.4871,2.4871,0,0,1-1.0078.9209A3.2892,3.2892,0,0,1,665.5391,153.4222Zm0-5.5078a1.5747,1.5747,0,0,0-.6182.12,1.3765,1.3765,0,0,0-.4795.336,1.5057,1.5057,0,0,0-.3066.5161,1.9538,1.9538,0,0,0-.1075.66v.084h2.9034v-.12a1.7274,1.7274,0,0,0-.3721-1.1577A1.267,1.267,0,0,0,665.5391,147.9144Z"/><path d="M671.7432,153.4222a3.1967,3.1967,0,0,1-1.4873-.312,3.2617,3.2617,0,0,1-1.045-.8642l.8409-.7676a2.6765,2.6765,0,0,0,.7734.6538,2.0285,2.0285,0,0,0,.99.2339,1.3787,1.3787,0,0,0,.8584-.2217.7432.7432,0,0,0,.2813-.6182.7176.7176,0,0,0-.1973-.51,1.1279,1.1279,0,0,0-.69-.27l-.5762-.0718a2.9543,2.9543,0,0,1-1.5058-.5581,1.5685,1.5685,0,0,1-.5459-1.3018,1.8621,1.8621,0,0,1,.1679-.81,1.6928,1.6928,0,0,1,.4737-.6,2.1851,2.1851,0,0,1,.7324-.378,3.1757,3.1757,0,0,1,.9424-.1318,3.1016,3.1016,0,0,1,1.373.2637,3.1434,3.1434,0,0,1,.9541.7319l-.8037.7681a2.116,2.116,0,0,0-.63-.4981,1.8583,1.8583,0,0,0-.8935-.21,1.2281,1.2281,0,0,0-.7989.2163.7008.7008,0,0,0-.2578.5639.6461.6461,0,0,0,.2285.54,1.63,1.63,0,0,0,.7315.2636l.5762.0723a2.7579,2.7579,0,0,1,1.5058.606,1.5833,1.5833,0,0,1,.4746,1.206,1.8858,1.8858,0,0,1-.1748.8218,1.7836,1.7836,0,0,1-.498.63,2.33,2.33,0,0,1-.7793.4082A3.3794,3.3794,0,0,1,671.7432,153.4222Z"/><path d="M677.335,153.2782a1.3879,1.3879,0,0,1-1.0323-.354,1.3708,1.3708,0,0,1-.3476-1.002v-3.8159h-.9717v-1.0684h.5273a.578.578,0,0,0,.45-.1435.7058.7058,0,0,0,.126-.4683v-1.0918h1.1758v1.7036h1.3086v1.0684h-1.3086v4.104h1.2129v1.0679Z"/><path d="M679.9873,153.2782v-6.24h1.3076v1.2h.0606a1.6812,1.6812,0,0,1,.5517-.84,1.73,1.73,0,0,1,1.1641-.36h.3476v1.26h-.5156a2.3174,2.3174,0,0,0-1.1943.252.8166.8166,0,0,0-.4141.7441v3.9839Z"/><path d="M686.9707,153.4222a2.9826,2.9826,0,0,1-1.1816-.228,2.4761,2.4761,0,0,1-.9063-.6538,3.0009,3.0009,0,0,1-.5752-1.0322,4.5674,4.5674,0,0,1,0-2.7,3.0036,3.0036,0,0,1,.5752-1.0318,2.4761,2.4761,0,0,1,.9063-.6538,3.1784,3.1784,0,0,1,2.3642,0,2.4844,2.4844,0,0,1,.9063.6538,3.02,3.02,0,0,1,.5752,1.0318,4.5674,4.5674,0,0,1,0,2.7,3.0174,3.0174,0,0,1-.5752,1.0322,2.4844,2.4844,0,0,1-.9063.6538A2.9841,2.9841,0,0,1,686.9707,153.4222Zm0-1.0923a1.452,1.452,0,0,0,1.08-.4116,1.6846,1.6846,0,0,0,.4082-1.2348v-1.05a1.6859,1.6859,0,0,0-.4082-1.2354,1.6217,1.6217,0,0,0-2.1592,0,1.6855,1.6855,0,0,0-.4082,1.2354v1.05a1.6841,1.6841,0,0,0,.4082,1.2348A1.4511,1.4511,0,0,0,686.9707,152.33Z"/><path d="M695.0352,147.0379h1.26l-2.6279,7.4761a2.6339,2.6339,0,0,1-.2461.5342,1.2936,1.2936,0,0,1-.3232.36,1.2734,1.2734,0,0,1-.45.2041,2.6054,2.6054,0,0,1-.6241.0659h-.7558V154.61h1.0556l.36-1.0561-2.2686-6.5162h1.3086l1.2481,3.6724.3594,1.356h.0605l.3955-1.356Z"/><path d="M699.751,153.4222a2.9986,2.9986,0,0,1-1.1992-.228,2.4866,2.4866,0,0,1-.9-.6538,2.9424,2.9424,0,0,1-.57-1.0322,4.7179,4.7179,0,0,1,0-2.7,2.945,2.945,0,0,1,.57-1.0318,2.4866,2.4866,0,0,1,.9-.6538,2.9917,2.9917,0,0,1,1.1992-.228,2.864,2.864,0,0,1,1.206.24,2.3946,2.3946,0,0,1,.87.6661,2.8933,2.8933,0,0,1,.5225.99,4.116,4.116,0,0,1,.1738,1.2119v.4917h-4.2841v.2026a1.6608,1.6608,0,0,0,.4257,1.1744,1.581,1.581,0,0,0,1.2188.4589,1.7816,1.7816,0,0,0,.9717-.25,2.1888,2.1888,0,0,0,.6718-.68l.7686.7583a2.4836,2.4836,0,0,1-1.0088.9209A3.286,3.286,0,0,1,699.751,153.4222Zm0-5.5078a1.5662,1.5662,0,0,0-.6172.12,1.3722,1.3722,0,0,0-.4805.336,1.5036,1.5036,0,0,0-.3056.5161,1.9294,1.9294,0,0,0-.1084.66v.084h2.9043v-.12a1.7274,1.7274,0,0,0-.3721-1.1577A1.2677,1.2677,0,0,0,699.751,147.9144Z"/><path d="M707.8994,152.246h-.0605a1.7356,1.7356,0,0,1-.666.8642,1.8932,1.8932,0,0,1-1.086.312,2.1664,2.1664,0,0,1-1.8359-.8579,4.7939,4.7939,0,0,1,0-4.812,2.1664,2.1664,0,0,1,1.8359-.8579,1.9194,1.9194,0,0,1,1.086.3057,1.7009,1.7009,0,0,1,.666.87h.0605v-3.6719h1.3076v8.88h-1.3076Zm-1.416.0483A1.68,1.68,0,0,0,707.4912,152a.9128.9128,0,0,0,.4082-.774V149.09a.9121.9121,0,0,0-.4082-.7739,1.68,1.68,0,0,0-1.0078-.294,1.42,1.42,0,0,0-1.0918.438,1.6279,1.6279,0,0,0-.4082,1.1577v1.08a1.6292,1.6292,0,0,0,.4082,1.1582A1.42,1.42,0,0,0,706.4834,152.2943Z"/><path d="M500.9824,88.6556h-.84v-6.98h2.7793a1.9537,1.9537,0,0,1,1.4355.5107,1.98,1.98,0,0,1,.5147,1.47,2.1191,2.1191,0,0,1-.3545,1.2647,1.7048,1.7048,0,0,1-1.0459.6552l1.6006,3.08h-.95l-1.5108-3h-1.6289Zm1.94-3.72a1.0826,1.0826,0,0,0,.7754-.2607.9669.9669,0,0,0,.2744-.7393v-.52a.97.97,0,0,0-.2744-.74,1.0862,1.0862,0,0,0-.7754-.26h-1.94v2.52Z"/><path d="M508.252,88.7757a2.3091,2.3091,0,0,1-.9551-.19,2.0449,2.0449,0,0,1-.7305-.5449,2.5032,2.5032,0,0,1-.47-.85,3.8328,3.8328,0,0,1,0-2.2256,2.5,2.5,0,0,1,.47-.8545,2.0673,2.0673,0,0,1,.7305-.5449,2.3091,2.3091,0,0,1,.9551-.19,2.1958,2.1958,0,0,1,.93.1894,2.0551,2.0551,0,0,1,.7.5234,2.3337,2.3337,0,0,1,.4453.792,3.1491,3.1491,0,0,1,.1553,1.0069v.3789h-3.7109v.2392a1.7531,1.7531,0,0,0,.1055.6153,1.46,1.46,0,0,0,.3.4951,1.3788,1.3788,0,0,0,.4794.33,1.6554,1.6554,0,0,0,.6456.12,1.5642,1.5642,0,0,0,.8544-.23,1.5048,1.5048,0,0,0,.5655-.66l.57.413a1.9926,1.9926,0,0,1-.78.86A2.354,2.354,0,0,1,508.252,88.7757Zm0-4.73a1.5207,1.5207,0,0,0-.6.1142,1.35,1.35,0,0,0-.4648.3233,1.5111,1.5111,0,0,0-.3057.4922,1.7015,1.7015,0,0,0-.11.6211v.0693h2.8506V85.556a1.5675,1.5675,0,0,0-.375-1.0976A1.28,1.28,0,0,0,508.252,84.0453Z"/><path d="M513.3516,88.7757a2.41,2.41,0,0,1-1.2051-.2753,2.7328,2.7328,0,0,1-.835-.7344l.57-.46a2.2473,2.2473,0,0,0,.67.585,1.7463,1.7463,0,0,0,.86.2051,1.27,1.27,0,0,0,.7949-.2207.7983.7983,0,0,0,.09-1.1348,1.1941,1.1941,0,0,0-.7051-.2949l-.41-.06a3.5339,3.5339,0,0,1-.66-.1553,1.8477,1.8477,0,0,1-.5254-.28,1.2156,1.2156,0,0,1-.35-.4345,1.4109,1.4109,0,0,1-.125-.62,1.4835,1.4835,0,0,1,.1406-.6651,1.3268,1.3268,0,0,1,.3848-.4756,1.6845,1.6845,0,0,1,.5849-.2841,2.6935,2.6935,0,0,1,.73-.0957,2.2663,2.2663,0,0,1,1.0547.2207,2.3747,2.3747,0,0,1,.7461.6093l-.53.4805a1.5738,1.5738,0,0,0-1.33-.63,1.1445,1.1445,0,0,0-.7549.2149.7254.7254,0,0,0-.2559.5849.6133.6133,0,0,0,.2559.55,1.9052,1.9052,0,0,0,.7343.25l.4.06a2.1513,2.1513,0,0,1,1.2207.4951,1.3066,1.3066,0,0,1,.3594.9551,1.4638,1.4638,0,0,1-.51,1.1807A2.108,2.108,0,0,1,513.3516,88.7757Z"/><path d="M517.7422,88.6556a.817.817,0,0,1-.6348-.2344.8672.8672,0,0,1-.2148-.6132V84.2054h-.8506v-.71h.4795a.4741.4741,0,0,0,.3555-.1045.5467.5467,0,0,0,.0957-.3653v-.96h.7187v1.43h1.1309v.71h-1.1309v3.74h1.0508v.71Z"/><path d="M522.0215,88.7757a2.32,2.32,0,0,1-.9492-.19,2.0253,2.0253,0,0,1-.7344-.5449,2.5484,2.5484,0,0,1-.4756-.85,3.7292,3.7292,0,0,1,0-2.2256,2.544,2.544,0,0,1,.4756-.8545,2.0471,2.0471,0,0,1,.7344-.5449,2.32,2.32,0,0,1,.9492-.19,2.2826,2.2826,0,0,1,.9453.19,2.1108,2.1108,0,0,1,.7353.5449,2.5156,2.5156,0,0,1,.48.8545,3.7271,3.7271,0,0,1,0,2.2256,2.52,2.52,0,0,1-.48.85,2.0876,2.0876,0,0,1-.7353.5449A2.2826,2.2826,0,0,1,522.0215,88.7757Zm0-.71a1.4554,1.4554,0,0,0,1.0605-.4,1.6332,1.6332,0,0,0,.41-1.22v-.74a1.6346,1.6346,0,0,0-.41-1.22,1.6021,1.6021,0,0,0-2.1191,0,1.635,1.635,0,0,0-.41,1.22v.74a1.6336,1.6336,0,0,0,.41,1.22A1.451,1.451,0,0,0,522.0215,88.0658Z"/><path d="M525.6719,88.6556v-5.16h.8v.95h.05a1.5569,1.5569,0,0,1,.5-.66,1.5368,1.5368,0,0,1,.99-.29h.3106v.8h-.4707a1.8062,1.8062,0,0,0-1.0147.2451.7252.7252,0,0,0-.3652.6152v3.5Z"/><path d="M531.2324,88.7757a2.31,2.31,0,0,1-.9551-.19,2.0446,2.0446,0,0,1-.73-.5449,2.522,2.522,0,0,1-.4707-.85,3.8551,3.8551,0,0,1,0-2.2256,2.5182,2.5182,0,0,1,.4707-.8545,2.067,2.067,0,0,1,.73-.5449,2.31,2.31,0,0,1,.9551-.19,2.1991,2.1991,0,0,1,.93.1894,2.0522,2.0522,0,0,1,.6992.5234,2.3337,2.3337,0,0,1,.4453.792,3.1216,3.1216,0,0,1,.1553,1.0069v.3789h-3.71v.2392a1.7554,1.7554,0,0,0,.1054.6153,1.4591,1.4591,0,0,0,.2988.4951,1.3936,1.3936,0,0,0,.4805.33,1.6467,1.6467,0,0,0,.6445.12,1.57,1.57,0,0,0,.8555-.23,1.4965,1.4965,0,0,0,.5645-.66l.57.413a1.9841,1.9841,0,0,1-.7793.86A2.3541,2.3541,0,0,1,531.2324,88.7757Zm0-4.73a1.5291,1.5291,0,0,0-.6006.1142,1.36,1.36,0,0,0-.4648.3233,1.5438,1.5438,0,0,0-.3057.4922,1.7225,1.7225,0,0,0-.1093.6211v.0693h2.85V85.556a1.5675,1.5675,0,0,0-.375-1.0976A1.279,1.279,0,0,0,531.2324,84.0453Z"/><path d="M19.5459,18.8651l-1.3018,1.54v2.8838H16.396V13.517h1.8481v4.8159h.07L19.7,16.4989l2.4219-2.9819H24.25l-3.4019,4.0737L24.53,23.2889H22.332Z"/><path d="M28.38,23.4569a3.6443,3.6443,0,0,1-1.4492-.273,2.9959,2.9959,0,0,1-1.0782-.77,3.4321,3.4321,0,0,1-.6787-1.2041,5.426,5.426,0,0,1-.0073-3.1567,3.4408,3.4408,0,0,1,.665-1.1973,2.9509,2.9509,0,0,1,1.064-.77,3.5655,3.5655,0,0,1,1.4282-.2729,3.4814,3.4814,0,0,1,1.4839.2939,2.862,2.862,0,0,1,1.0361.7983,3.4449,3.4449,0,0,1,.6089,1.169,4.8433,4.8433,0,0,1,.2031,1.4209v.5879H26.7983v.1806a1.7875,1.7875,0,0,0,.4478,1.272,1.7338,1.7338,0,0,0,1.33.48,1.9853,1.9853,0,0,0,1.0991-.2778,3.1287,3.1287,0,0,0,.7627-.709l.9663,1.081a3.0051,3.0051,0,0,1-1.2251.99A4.2637,4.2637,0,0,1,28.38,23.4569Zm-.0283-6.3a1.4347,1.4347,0,0,0-1.1338.4761,1.7908,1.7908,0,0,0-.42,1.2319v.1118h2.9956v-.126a1.9187,1.9187,0,0,0-.3706-1.2251A1.2856,1.2856,0,0,0,28.3521,17.1571Z"/><path d="M37.6343,15.9808h1.68l-2.94,8.61a3.6854,3.6854,0,0,1-.3149.6792,1.6908,1.6908,0,0,1-.4131.4692,1.547,1.547,0,0,1-.5737.2656,3.247,3.247,0,0,1-.7842.084H33.21V24.6468h1.3164l.3359-1.02-2.6182-7.646H34.022l1.2744,3.856.4756,1.8437h.084l.5044-1.8437Z"/><path d="M46.188,23.4569A3.9239,3.9239,0,0,1,44.4238,23.1a4.0605,4.0605,0,0,1-1.26-.9869l1.0923-1.0644a3.2971,3.2971,0,0,0,.8891.728,2.2634,2.2634,0,0,0,1.1128.2661,1.5256,1.5256,0,0,0,.9312-.2241.7384.7384,0,0,0,.2866-.6157.6642.6642,0,0,0-.2027-.5112,1.2923,1.2923,0,0,0-.6933-.2588l-.7275-.0982a3.4672,3.4672,0,0,1-1.8135-.6787,1.8932,1.8932,0,0,1-.6226-1.5332,2.2713,2.2713,0,0,1,.1958-.959,2.0327,2.0327,0,0,1,.56-.728,2.5647,2.5647,0,0,1,.875-.4619,3.7817,3.7817,0,0,1,1.1411-.1611,5.1962,5.1962,0,0,1,.9448.0771,3.429,3.429,0,0,1,.749.2241,2.8934,2.8934,0,0,1,.6162.3638,5.9036,5.9036,0,0,1,.5459.4829l-1.05,1.05a2.7719,2.7719,0,0,0-.77-.56,2.1588,2.1588,0,0,0-.98-.2241,1.3483,1.3483,0,0,0-.8467.21.67.67,0,0,0-.2593.5459.6927.6927,0,0,0,.2173.5532,1.502,1.502,0,0,0,.7348.2729l.7422.0982q2.3658.3354,2.3658,2.1558a2.1754,2.1754,0,0,1-.2168.9731,2.2236,2.2236,0,0,1-.6094.7559,2.8778,2.8778,0,0,1-.9448.49A4.1118,4.1118,0,0,1,46.188,23.4569Z"/><path d="M52.95,23.2889a1.91,1.91,0,0,1-1.4067-.4814,1.8586,1.8586,0,0,1-.4829-1.376V17.4227H49.9819V15.9808h.56a.6679.6679,0,0,0,.5527-.1889.9131.9131,0,0,0,.147-.5669V13.9789h1.61v2.0019H54.35v1.4419H52.8521V21.847h1.3857v1.4419Z"/><path d="M61.28,23.2889a1.2586,1.2586,0,0,1-.9312-.3427,1.5737,1.5737,0,0,1-.4267-.917h-.084A1.7167,1.7167,0,0,1,59.0957,23.1a2.5313,2.5313,0,0,1-1.3862.3569,2.367,2.367,0,0,1-1.7217-.5859,2.0818,2.0818,0,0,1-.6021-1.5635,1.8925,1.8925,0,0,1,.8121-1.6812,4.09,4.09,0,0,1,2.31-.5512h1.2461v-.5323a1.3206,1.3206,0,0,0-.3223-.9521,1.3839,1.3839,0,0,0-1.0361-.336,1.72,1.72,0,0,0-1.0146.273,2.6939,2.6939,0,0,0-.6514.6514l-1.064-.958a3.0893,3.0893,0,0,1,1.0782-1.0206,3.5442,3.5442,0,0,1,1.7778-.3876,3.3426,3.3426,0,0,1,2.2544.67,2.4194,2.4194,0,0,1,.77,1.9277v3.436h.7275v1.4419Zm-2.9683-1.1338a1.8839,1.8839,0,0,0,1.022-.2641.8626.8626,0,0,0,.42-.7788v-.96H58.6055q-1.4,0-1.4.89v.2364a.7719.7719,0,0,0,.2871.66A1.3406,1.3406,0,0,0,58.3115,22.1551Z"/><path d="M65.9556,23.2889a1.91,1.91,0,0,1-1.4068-.4814,1.859,1.859,0,0,1-.4829-1.376V17.4227H62.9878V15.9808h.56a.668.668,0,0,0,.5527-.1889.9138.9138,0,0,0,.147-.5669V13.9789h1.61v2.0019h1.4976v1.4419H65.8579V21.847h1.3858v1.4419Z"/><path d="M71.8076,23.4569a3.6443,3.6443,0,0,1-1.4492-.273,2.9955,2.9955,0,0,1-1.0781-.77,3.4305,3.4305,0,0,1-.6787-1.2041,5.4271,5.4271,0,0,1-.0074-3.1567,3.4394,3.4394,0,0,1,.6651-1.1973,2.95,2.95,0,0,1,1.0639-.77,3.566,3.566,0,0,1,1.4283-.2729,3.482,3.482,0,0,1,1.4839.2939,2.862,2.862,0,0,1,1.0361.7983,3.4467,3.4467,0,0,1,.6089,1.169,4.8466,4.8466,0,0,1,.2031,1.4209v.5879H70.2256v.1806a1.7875,1.7875,0,0,0,.4477,1.272,1.734,1.734,0,0,0,1.33.48,1.9849,1.9849,0,0,0,1.0991-.2778,3.1287,3.1287,0,0,0,.7627-.709l.9663,1.081a3.0051,3.0051,0,0,1-1.2251.99A4.263,4.263,0,0,1,71.8076,23.4569Zm-.0283-6.3a1.4349,1.4349,0,0,0-1.1338.4761,1.7908,1.7908,0,0,0-.42,1.2319v.1118h2.9956v-.126a1.9187,1.9187,0,0,0-.3706-1.2251A1.2858,1.2858,0,0,0,71.7793,17.1571Z"/><path d="M79.06,23.4569A3.9239,3.9239,0,0,1,77.2954,23.1a4.0594,4.0594,0,0,1-1.26-.9869l1.0922-1.0644a3.296,3.296,0,0,0,.8892.728,2.2634,2.2634,0,0,0,1.1128.2661,1.5253,1.5253,0,0,0,.9311-.2241.7382.7382,0,0,0,.2867-.6157.6642.6642,0,0,0-.2027-.5112,1.2923,1.2923,0,0,0-.6933-.2588l-.7276-.0982a3.4671,3.4671,0,0,1-1.8134-.6787,1.8932,1.8932,0,0,1-.6226-1.5332,2.27,2.27,0,0,1,.1958-.959,2.0327,2.0327,0,0,1,.56-.728,2.5629,2.5629,0,0,1,.875-.4619,3.7817,3.7817,0,0,1,1.1411-.1611,5.1962,5.1962,0,0,1,.9448.0771,3.429,3.429,0,0,1,.749.2241,2.8959,2.8959,0,0,1,.6162.3638,5.9036,5.9036,0,0,1,.5459.4829l-1.05,1.05a2.7714,2.7714,0,0,0-.77-.56,2.159,2.159,0,0,0-.98-.2241,1.348,1.348,0,0,0-.8466.21.67.67,0,0,0-.2593.5459.6924.6924,0,0,0,.2173.5532,1.502,1.502,0,0,0,.7348.2729l.7422.0982q2.3658.3354,2.3657,2.1558a2.174,2.174,0,0,1-.2168.9731,2.2222,2.2222,0,0,1-.6093.7559,2.8783,2.8783,0,0,1-.9449.49A4.1106,4.1106,0,0,1,79.06,23.4569Z"/><circle class="cls-2" cx="80.45" cy="171.0194" r="8.5"/><path class="cls-11" d="M79.918,174.38V171.454h-2.73v-.9522h2.73V167.576h1.0644v2.9258h2.73v.9522h-2.73V174.38Z"/><circle class="cls-12" cx="475" cy="148.9725" r="4"/><circle class="cls-13" cx="315" cy="148.9725" r="4"/><circle class="cls-14" cx="155" cy="148.9725" r="4"/><circle class="cls-15" cx="638" cy="148.9725" r="4"/><circle class="cls-12" cx="315" cy="257.9725" r="4"/><path d="M502.1426,35.6752h2.34a3.0551,3.0551,0,0,1,1.18.2207,2.3889,2.3889,0,0,1,.9043.6543,3.0047,3.0047,0,0,1,.5762,1.0908,5.9362,5.9362,0,0,1,0,3.05,3,3,0,0,1-.5762,1.09,2.3818,2.3818,0,0,1-.9043.6553,3.0549,3.0549,0,0,1-1.18.22h-2.34Zm2.34,6.24a2.0949,2.0949,0,0,0,.7891-.1445,1.712,1.712,0,0,0,.6211-.4248,1.9706,1.9706,0,0,0,.4043-.6856,2.7314,2.7314,0,0,0,.1445-.9248v-1.14a2.7415,2.7415,0,0,0-.1445-.9258,1.9733,1.9733,0,0,0-.4043-.6846,1.712,1.712,0,0,0-.6211-.4248,2.0932,2.0932,0,0,0-.7891-.1455h-1.5v5.5Z"/><path d="M510.7119,42.7757a2.31,2.31,0,0,1-.9551-.19,2.0423,2.0423,0,0,1-.7295-.5449,2.49,2.49,0,0,1-.4707-.85,3.8574,3.8574,0,0,1,0-2.2256,2.4863,2.4863,0,0,1,.4707-.8545,2.0646,2.0646,0,0,1,.7295-.5449,2.31,2.31,0,0,1,.9551-.19,2.2009,2.2009,0,0,1,.9307.1894,2.0628,2.0628,0,0,1,.6992.5234,2.3337,2.3337,0,0,1,.4453.792,3.1245,3.1245,0,0,1,.1543,1.0069v.3789h-3.709v.2392a1.7783,1.7783,0,0,0,.1045.6153,1.4441,1.4441,0,0,0,.3.4951,1.3842,1.3842,0,0,0,.4805.33,1.6428,1.6428,0,0,0,.6445.12,1.5752,1.5752,0,0,0,.8555-.2305,1.5026,1.5026,0,0,0,.5644-.66l.57.413a1.9926,1.9926,0,0,1-.78.86A2.3522,2.3522,0,0,1,510.7119,42.7757Zm0-4.73a1.5326,1.5326,0,0,0-.6006.1142,1.3774,1.3774,0,0,0-.4648.3233,1.5414,1.5414,0,0,0-.3047.4922,1.7013,1.7013,0,0,0-.1094.6211v.0693h2.85V39.556a1.5675,1.5675,0,0,0-.375-1.0976A1.2794,1.2794,0,0,0,510.7119,38.0453Z"/><path d="M515.1113,42.6556a.8167.8167,0,0,1-.6347-.2353.8446.8446,0,0,1-.2149-.5948v-6.57h.8v6.6905h.7608v.71Z"/><path d="M518.9219,42.7757a2.31,2.31,0,0,1-.9551-.19,2.0458,2.0458,0,0,1-.7305-.5449,2.5049,2.5049,0,0,1-.47-.85,3.835,3.835,0,0,1,0-2.2256,2.5012,2.5012,0,0,1,.47-.8545,2.0682,2.0682,0,0,1,.7305-.5449,2.31,2.31,0,0,1,.9551-.19,2.1962,2.1962,0,0,1,.93.1894,2.057,2.057,0,0,1,.7.5234,2.3354,2.3354,0,0,1,.4453.792,3.1519,3.1519,0,0,1,.1552,1.0069v.3789h-3.7109v.2392a1.7554,1.7554,0,0,0,.1055.6153,1.46,1.46,0,0,0,.3.4951,1.3792,1.3792,0,0,0,.4795.33,1.6546,1.6546,0,0,0,.6455.12,1.5648,1.5648,0,0,0,.8545-.2305,1.5052,1.5052,0,0,0,.5654-.66l.57.413a1.992,1.992,0,0,1-.78.86A2.354,2.354,0,0,1,518.9219,42.7757Zm0-4.73a1.5206,1.5206,0,0,0-.6.1142,1.35,1.35,0,0,0-.4649.3233,1.5109,1.5109,0,0,0-.3056.4922,1.6994,1.6994,0,0,0-.11.6211v.0693h2.8506V39.556a1.5675,1.5675,0,0,0-.375-1.0976A1.2794,1.2794,0,0,0,518.9219,38.0453Z"/><path d="M523.6113,42.6556a.8181.8181,0,0,1-.6347-.2344.8713.8713,0,0,1-.2149-.6132V38.2054h-.85v-.71h.48a.4712.4712,0,0,0,.3545-.1045.5412.5412,0,0,0,.0957-.3653v-.96h.72v1.43h1.13v.71h-1.13v3.74h1.05v.71Z"/><path d="M527.8818,42.7757a2.309,2.309,0,0,1-.955-.19,2.0414,2.0414,0,0,1-.7295-.5449,2.4882,2.4882,0,0,1-.4707-.85,3.8551,3.8551,0,0,1,0-2.2256,2.4847,2.4847,0,0,1,.4707-.8545,2.0637,2.0637,0,0,1,.7295-.5449,2.309,2.309,0,0,1,.955-.19,2.2006,2.2006,0,0,1,.9307.1894,2.0609,2.0609,0,0,1,.6992.5234,2.3337,2.3337,0,0,1,.4453.792,3.1245,3.1245,0,0,1,.1543,1.0069v.3789h-3.709v.2392a1.7783,1.7783,0,0,0,.1045.6153,1.4472,1.4472,0,0,0,.3.4951,1.3842,1.3842,0,0,0,.4805.33,1.6432,1.6432,0,0,0,.6445.12,1.575,1.575,0,0,0,.8555-.2305,1.5028,1.5028,0,0,0,.5645-.66l.57.413a1.9926,1.9926,0,0,1-.78.86A2.3517,2.3517,0,0,1,527.8818,42.7757Zm0-4.73a1.5326,1.5326,0,0,0-.6006.1142,1.3794,1.3794,0,0,0-.4648.3233,1.5432,1.5432,0,0,0-.3047.4922,1.7013,1.7013,0,0,0-.1094.6211v.0693h2.85V39.556a1.5675,1.5675,0,0,0-.375-1.0976A1.28,1.28,0,0,0,527.8818,38.0453Z"/><path d="M579.1426,135.8475h2.34a3.0551,3.0551,0,0,1,1.18.2207,2.391,2.391,0,0,1,.9043.6543,3.0055,3.0055,0,0,1,.5762,1.0908,5.9362,5.9362,0,0,1,0,3.05,3,3,0,0,1-.5762,1.09,2.3828,2.3828,0,0,1-.9043.6553,3.0568,3.0568,0,0,1-1.18.22h-2.34Zm2.34,6.24a2.093,2.093,0,0,0,.7891-.1446,1.712,1.712,0,0,0,.6211-.4248,1.9692,1.9692,0,0,0,.4043-.6855,2.7322,2.7322,0,0,0,.1445-.9248v-1.14a2.7415,2.7415,0,0,0-.1445-.9258,1.9738,1.9738,0,0,0-.4043-.6845,1.71,1.71,0,0,0-.6211-.4248,2.0932,2.0932,0,0,0-.7891-.1455h-1.5v5.5Z"/><path d="M587.7119,142.9481a2.3111,2.3111,0,0,1-.9551-.19,2.0423,2.0423,0,0,1-.73-.5449,2.4913,2.4913,0,0,1-.4707-.85,3.857,3.857,0,0,1,0-2.2255,2.4854,2.4854,0,0,1,.4707-.8545,2.0649,2.0649,0,0,1,.73-.545,2.3111,2.3111,0,0,1,.9551-.19,2.2009,2.2009,0,0,1,.9307.19,2.06,2.06,0,0,1,.6992.5234,2.3328,2.3328,0,0,1,.4453.792,3.1243,3.1243,0,0,1,.1543,1.0068v.3789h-3.709v.2393a1.7773,1.7773,0,0,0,.1045.6152,1.4423,1.4423,0,0,0,.3.4951,1.3829,1.3829,0,0,0,.4805.33,1.641,1.641,0,0,0,.6445.12,1.5752,1.5752,0,0,0,.8555-.23,1.5029,1.5029,0,0,0,.5644-.66l.57.4131a1.9926,1.9926,0,0,1-.78.86A2.3531,2.3531,0,0,1,587.7119,142.9481Zm0-4.7305a1.5308,1.5308,0,0,0-.6006.1143,1.3771,1.3771,0,0,0-.4648.3232,1.5425,1.5425,0,0,0-.3047.4922,1.7017,1.7017,0,0,0-.1094.6211v.0694h2.85v-.1094a1.5676,1.5676,0,0,0-.375-1.0977A1.2794,1.2794,0,0,0,587.7119,138.2176Z"/><path d="M592.1113,142.828a.8164.8164,0,0,1-.6347-.2354.8444.8444,0,0,1-.2149-.5947v-6.57h.8v6.69h.7608v.71Z"/><path d="M595.9219,142.9481a2.3111,2.3111,0,0,1-.9551-.19,2.0458,2.0458,0,0,1-.7305-.5449,2.5063,2.5063,0,0,1-.47-.85,3.8346,3.8346,0,0,1,0-2.2255,2.5,2.5,0,0,1,.47-.8545,2.0685,2.0685,0,0,1,.7305-.545,2.3111,2.3111,0,0,1,.9551-.19,2.1963,2.1963,0,0,1,.93.19,2.0544,2.0544,0,0,1,.7.5234,2.3344,2.3344,0,0,1,.4453.792,3.1517,3.1517,0,0,1,.1552,1.0068v.3789h-3.7109v.2393a1.7544,1.7544,0,0,0,.1055.6152,1.4579,1.4579,0,0,0,.3.4951,1.3779,1.3779,0,0,0,.4795.33,1.6527,1.6527,0,0,0,.6455.12,1.5648,1.5648,0,0,0,.8545-.23,1.5055,1.5055,0,0,0,.5654-.66l.57.4131a1.992,1.992,0,0,1-.78.86A2.3549,2.3549,0,0,1,595.9219,142.9481Zm0-4.7305a1.5188,1.5188,0,0,0-.6.1143,1.35,1.35,0,0,0-.4649.3232,1.512,1.512,0,0,0-.3056.4922,1.7,1.7,0,0,0-.11.6211v.0694h2.8506v-.1094a1.5676,1.5676,0,0,0-.375-1.0977A1.2794,1.2794,0,0,0,595.9219,138.2176Z"/><path d="M600.6113,142.828a.8181.8181,0,0,1-.6347-.2344.8714.8714,0,0,1-.2149-.6133v-3.6025h-.85v-.71h.48a.4708.4708,0,0,0,.3545-.1045.5409.5409,0,0,0,.0957-.3652v-.96h.72v1.43h1.13v.71h-1.13v3.74h1.05v.71Z"/><path d="M604.8818,142.9481a2.3106,2.3106,0,0,1-.955-.19,2.0414,2.0414,0,0,1-.7295-.5449,2.49,2.49,0,0,1-.4707-.85,3.8548,3.8548,0,0,1,0-2.2255,2.4838,2.4838,0,0,1,.4707-.8545,2.064,2.064,0,0,1,.7295-.545,2.3106,2.3106,0,0,1,.955-.19,2.2006,2.2006,0,0,1,.9307.19,2.0583,2.0583,0,0,1,.6992.5234,2.3328,2.3328,0,0,1,.4453.792,3.1243,3.1243,0,0,1,.1543,1.0068v.3789h-3.709v.2393a1.7773,1.7773,0,0,0,.1045.6152,1.4454,1.4454,0,0,0,.3.4951,1.3829,1.3829,0,0,0,.4805.33,1.6414,1.6414,0,0,0,.6445.12,1.5749,1.5749,0,0,0,.8555-.23,1.5031,1.5031,0,0,0,.5645-.66l.57.4131a1.9926,1.9926,0,0,1-.78.86A2.3526,2.3526,0,0,1,604.8818,142.9481Zm0-4.7305a1.5308,1.5308,0,0,0-.6006.1143,1.3791,1.3791,0,0,0-.4648.3232,1.5443,1.5443,0,0,0-.3047.4922,1.7017,1.7017,0,0,0-.1094.6211v.0694h2.85v-.1094a1.5676,1.5676,0,0,0-.375-1.0977A1.28,1.28,0,0,0,604.8818,138.2176Z"/><path d="M419.1426,142.828v-6.9805h4.26v.74h-3.42v2.34h3.22v.74h-3.22v2.42h3.42v.74Z"/><path d="M424.252,142.828l1.91-2.6-1.83-2.5606h.94l1.31,1.92h.0293l1.3614-1.92h.8886l-1.8193,2.5,1.86,2.66h-.94l-1.34-2.0195h-.03l-1.4492,2.0195Z"/><path d="M429.9619,137.6678h.8v.8311h.04a1.445,1.445,0,0,1,.5849-.7178,1.7543,1.7543,0,0,1,.9258-.2334,1.9544,1.9544,0,0,1,.8691.19,1.8887,1.8887,0,0,1,.6651.54,2.4722,2.4722,0,0,1,.42.85,4.3842,4.3842,0,0,1,0,2.24,2.4722,2.4722,0,0,1-.42.85,1.8778,1.8778,0,0,1-.6651.54,1.9544,1.9544,0,0,1-.8691.19,1.562,1.562,0,0,1-1.5107-.95h-.04v2.83h-.8Zm2.13,4.57a1.3789,1.3789,0,0,0,1.07-.4267,1.6007,1.6007,0,0,0,.39-1.1211v-.8848a1.5965,1.5965,0,0,0-.39-1.12,1.3764,1.3764,0,0,0-1.07-.4277,1.7359,1.7359,0,0,0-.5156.0761,1.43,1.43,0,0,0-.4239.2051.9914.9914,0,0,0-.2851.3174.7907.7907,0,0,0-.1055.3965v1.93a.9254.9254,0,0,0,.1055.4472,1,1,0,0,0,.2851.3321,1.2989,1.2989,0,0,0,.4239.206A1.8664,1.8664,0,0,0,432.0918,142.2381Z"/><path d="M436.1621,136.4579a.4851.4851,0,0,1-.375-.125.4585.4585,0,0,1-.1152-.3252v-.13a.4618.4618,0,0,1,.1152-.3252.625.625,0,0,1,.75,0,.4659.4659,0,0,1,.1152.3252v.13a.4625.4625,0,0,1-.1152.3252A.4877.4877,0,0,1,436.1621,136.4579Zm-.4,1.21h.8v5.16h-.8Z"/><path d="M438.2617,142.828v-5.16h.8v.95h.05a1.5582,1.5582,0,0,1,.5-.66,1.5371,1.5371,0,0,1,.99-.29h.31v.8h-.4707a1.8056,1.8056,0,0,0-1.0146.2452.725.725,0,0,0-.3653.6152v3.5Z"/><path d="M443.8223,142.9481a2.3111,2.3111,0,0,1-.9551-.19,2.0449,2.0449,0,0,1-.7305-.5449,2.5235,2.5235,0,0,1-.4707-.85,3.857,3.857,0,0,1,0-2.2255,2.5172,2.5172,0,0,1,.4707-.8545,2.0676,2.0676,0,0,1,.7305-.545,2.3111,2.3111,0,0,1,.9551-.19,2.2,2.2,0,0,1,.93.19,2.0506,2.0506,0,0,1,.6992.5234,2.3344,2.3344,0,0,1,.4453.792,3.1241,3.1241,0,0,1,.1553,1.0068v.3789h-3.71v.2393a1.7544,1.7544,0,0,0,.1055.6152,1.4556,1.4556,0,0,0,.2988.4951,1.3913,1.3913,0,0,0,.4805.33,1.6442,1.6442,0,0,0,.6445.12,1.5706,1.5706,0,0,0,.8555-.23,1.4972,1.4972,0,0,0,.5644-.66l.57.4131a1.9841,1.9841,0,0,1-.7793.86A2.3549,2.3549,0,0,1,443.8223,142.9481Zm0-4.7305a1.527,1.527,0,0,0-.6006.1143,1.3591,1.3591,0,0,0-.4649.3232,1.5465,1.5465,0,0,0-.3056.4922,1.7208,1.7208,0,0,0-.1094.6211v.0694h2.85v-.1094a1.5676,1.5676,0,0,0-.375-1.0977A1.2788,1.2788,0,0,0,443.8223,138.2176Z"/><path d="M502.1426,244.8475h2.34a3.0551,3.0551,0,0,1,1.18.2207,2.391,2.391,0,0,1,.9043.6543,3.0055,3.0055,0,0,1,.5762,1.0908,5.9362,5.9362,0,0,1,0,3.05,3,3,0,0,1-.5762,1.09,2.3828,2.3828,0,0,1-.9043.6553,3.0568,3.0568,0,0,1-1.18.22h-2.34Zm2.34,6.24a2.093,2.093,0,0,0,.7891-.1446,1.712,1.712,0,0,0,.6211-.4248,1.9692,1.9692,0,0,0,.4043-.6855,2.7322,2.7322,0,0,0,.1445-.9248v-1.14a2.7415,2.7415,0,0,0-.1445-.9258,1.9738,1.9738,0,0,0-.4043-.6845,1.71,1.71,0,0,0-.6211-.4248,2.0932,2.0932,0,0,0-.7891-.1455h-1.5v5.5Z"/><path d="M510.7119,251.9481a2.3111,2.3111,0,0,1-.9551-.19,2.0423,2.0423,0,0,1-.7295-.5449,2.4913,2.4913,0,0,1-.4707-.85,3.857,3.857,0,0,1,0-2.2255,2.4854,2.4854,0,0,1,.4707-.8545,2.0649,2.0649,0,0,1,.7295-.545,2.3111,2.3111,0,0,1,.9551-.19,2.2009,2.2009,0,0,1,.9307.19,2.06,2.06,0,0,1,.6992.5234,2.3328,2.3328,0,0,1,.4453.792,3.1243,3.1243,0,0,1,.1543,1.0068v.3789h-3.709v.2393a1.7773,1.7773,0,0,0,.1045.6152,1.4423,1.4423,0,0,0,.3.4951,1.3829,1.3829,0,0,0,.4805.33,1.641,1.641,0,0,0,.6445.12,1.5752,1.5752,0,0,0,.8555-.23,1.5029,1.5029,0,0,0,.5644-.66l.57.4131a1.9926,1.9926,0,0,1-.78.86A2.3531,2.3531,0,0,1,510.7119,251.9481Zm0-4.7305a1.5308,1.5308,0,0,0-.6006.1143,1.3771,1.3771,0,0,0-.4648.3232,1.5425,1.5425,0,0,0-.3047.4922,1.7017,1.7017,0,0,0-.1094.6211v.0694h2.85v-.1094a1.5676,1.5676,0,0,0-.375-1.0977A1.2794,1.2794,0,0,0,510.7119,247.2176Z"/><path d="M515.1113,251.828a.8164.8164,0,0,1-.6347-.2354.8444.8444,0,0,1-.2149-.5947v-6.57h.8v6.69h.7608v.71Z"/><path d="M518.9219,251.9481a2.3111,2.3111,0,0,1-.9551-.19,2.0458,2.0458,0,0,1-.7305-.5449,2.5063,2.5063,0,0,1-.47-.85,3.8346,3.8346,0,0,1,0-2.2255,2.5,2.5,0,0,1,.47-.8545,2.0685,2.0685,0,0,1,.7305-.545,2.3111,2.3111,0,0,1,.9551-.19,2.1963,2.1963,0,0,1,.93.19,2.0544,2.0544,0,0,1,.7.5234,2.3344,2.3344,0,0,1,.4453.792,3.1517,3.1517,0,0,1,.1552,1.0068v.3789h-3.7109v.2393a1.7544,1.7544,0,0,0,.1055.6152,1.4579,1.4579,0,0,0,.3.4951,1.3779,1.3779,0,0,0,.4795.33,1.6527,1.6527,0,0,0,.6455.12,1.5648,1.5648,0,0,0,.8545-.23,1.5055,1.5055,0,0,0,.5654-.66l.57.4131a1.992,1.992,0,0,1-.78.86A2.3549,2.3549,0,0,1,518.9219,251.9481Zm0-4.7305a1.5188,1.5188,0,0,0-.6.1143,1.35,1.35,0,0,0-.4649.3232,1.512,1.512,0,0,0-.3056.4922,1.7,1.7,0,0,0-.11.6211v.0694h2.8506v-.1094a1.5676,1.5676,0,0,0-.375-1.0977A1.2794,1.2794,0,0,0,518.9219,247.2176Z"/><path d="M523.6113,251.828a.8181.8181,0,0,1-.6347-.2344.8714.8714,0,0,1-.2149-.6133v-3.6025h-.85v-.71h.48a.4708.4708,0,0,0,.3545-.1045.5409.5409,0,0,0,.0957-.3652v-.96h.72v1.43h1.13v.71h-1.13v3.74h1.05v.71Z"/><path d="M527.8818,251.9481a2.3106,2.3106,0,0,1-.955-.19,2.0414,2.0414,0,0,1-.7295-.5449,2.49,2.49,0,0,1-.4707-.85,3.8548,3.8548,0,0,1,0-2.2255,2.4838,2.4838,0,0,1,.4707-.8545,2.064,2.064,0,0,1,.7295-.545,2.3106,2.3106,0,0,1,.955-.19,2.2006,2.2006,0,0,1,.9307.19,2.0583,2.0583,0,0,1,.6992.5234,2.3328,2.3328,0,0,1,.4453.792,3.1243,3.1243,0,0,1,.1543,1.0068v.3789h-3.709v.2393a1.7773,1.7773,0,0,0,.1045.6152,1.4454,1.4454,0,0,0,.3.4951,1.3829,1.3829,0,0,0,.4805.33,1.6414,1.6414,0,0,0,.6445.12,1.5749,1.5749,0,0,0,.8555-.23,1.5031,1.5031,0,0,0,.5645-.66l.57.4131a1.9926,1.9926,0,0,1-.78.86A2.3526,2.3526,0,0,1,527.8818,251.9481Zm0-4.7305a1.5308,1.5308,0,0,0-.6006.1143,1.3791,1.3791,0,0,0-.4648.3232,1.5443,1.5443,0,0,0-.3047.4922,1.7017,1.7017,0,0,0-.1094.6211v.0694h2.85v-.1094a1.5676,1.5676,0,0,0-.375-1.0977A1.28,1.28,0,0,0,527.8818,247.2176Z"/><path d="M366.1421,207.828v-6.9805h4.26v.74h-3.42v2.34h3.22v.74h-3.22v2.42h3.42v.74Z"/><path d="M371.8921,207.828v-5.16h.8v.8311h.04a1.681,1.681,0,0,1,.5352-.6934,1.51,1.51,0,0,1,.9248-.2578,1.6185,1.6185,0,0,1,1.2651.5156,2.0943,2.0943,0,0,1,.4649,1.4551v3.31h-.8v-3.1768q0-1.393-1.17-1.3935a1.8012,1.8012,0,0,0-.4653.06,1.3545,1.3545,0,0,0-.4048.1807.89.89,0,0,0-.2851.3056.87.87,0,0,0-.105.4356v3.5879Z"/><path d="M381.3223,207.828a.7846.7846,0,0,1-.6455-.24,1.1881,1.1881,0,0,1-.2452-.6h-.05a1.3384,1.3384,0,0,1-.56.72,1.7423,1.7423,0,0,1-.9307.24,1.8052,1.8052,0,0,1-1.2744-.42,1.4754,1.4754,0,0,1-.4551-1.1406,1.2985,1.2985,0,0,1,.5352-1.1192,2.8346,2.8346,0,0,1,1.664-.3906h1.02v-.51a1.1182,1.1182,0,0,0-.3-.84,1.28,1.28,0,0,0-.92-.29,1.3859,1.3859,0,0,0-.7851.21,1.722,1.722,0,0,0-.5254.56l-.4805-.4492a1.8315,1.8315,0,0,1,.67-.7159,2.1138,2.1138,0,0,1,1.16-.2949,2.1385,2.1385,0,0,1,1.4609.459,1.6193,1.6193,0,0,1,.5195,1.2773v2.834h.59v.71Zm-2.3008-.56a2.0381,2.0381,0,0,0,.5508-.07,1.3557,1.3557,0,0,0,.43-.2.9989.9989,0,0,0,.2792-.3.718.718,0,0,0,.1006-.37v-.85h-1.06a1.9445,1.9445,0,0,0-1.0059.1992.6464.6464,0,0,0-.3144.58v.21a.7012.7012,0,0,0,.2753.5909A1.197,1.197,0,0,0,379.0215,207.2684Z"/><path d="M382.9121,200.4276h.7988v3.0713h.0411a1.4439,1.4439,0,0,1,.5839-.7178,1.7593,1.7593,0,0,1,.9258-.2334,1.9521,1.9521,0,0,1,.8692.19,1.8925,1.8925,0,0,1,.666.54,2.49,2.49,0,0,1,.42.85,4.4135,4.4135,0,0,1,0,2.24,2.49,2.49,0,0,1-.42.85,1.8817,1.8817,0,0,1-.666.54,1.9521,1.9521,0,0,1-.8692.19,1.5616,1.5616,0,0,1-1.51-.95h-.0411v.83h-.7988Zm2.1289,6.81a1.3787,1.3787,0,0,0,1.07-.4267,1.6013,1.6013,0,0,0,.3907-1.1211v-.8848a1.597,1.597,0,0,0-.3907-1.12,1.3763,1.3763,0,0,0-1.07-.4277,1.725,1.725,0,0,0-.5146.0761,1.4339,1.4339,0,0,0-.4248.2051,1.0024,1.0024,0,0,0-.2852.3174.7907.7907,0,0,0-.1055.3965v1.93a.9254.9254,0,0,0,.1055.4472,1.01,1.01,0,0,0,.2852.3321,1.3027,1.3027,0,0,0,.4248.206A1.8545,1.8545,0,0,0,385.041,207.2381Z"/><path d="M389.5625,207.828a.8158.8158,0,0,1-.6357-.2354.8444.8444,0,0,1-.2149-.5947v-6.57h.8v6.69h.76v.71Z"/><path d="M393.3711,207.9481a2.3111,2.3111,0,0,1-.9551-.19,2.0414,2.0414,0,0,1-.7295-.5449,2.4728,2.4728,0,0,1-.47-.85,3.8346,3.8346,0,0,1,0-2.2255,2.4672,2.4672,0,0,1,.47-.8545,2.064,2.064,0,0,1,.7295-.545,2.3111,2.3111,0,0,1,.9551-.19,2.1977,2.1977,0,0,1,.9307.19,2.0641,2.0641,0,0,1,.7.5234,2.3344,2.3344,0,0,1,.4453.792,3.1519,3.1519,0,0,1,.1543,1.0068v.3789h-3.71v.2393a1.7773,1.7773,0,0,0,.1045.6152,1.4445,1.4445,0,0,0,.3008.4951,1.3687,1.3687,0,0,0,.48.33,1.6492,1.6492,0,0,0,.6455.12,1.57,1.57,0,0,0,.8545-.23,1.5119,1.5119,0,0,0,.5654-.66l.57.4131a2.0009,2.0009,0,0,1-.7812.86A2.3531,2.3531,0,0,1,393.3711,207.9481Zm0-4.7305a1.5223,1.5223,0,0,0-.6.1143,1.3687,1.3687,0,0,0-.4649.3232,1.51,1.51,0,0,0-.3046.4922,1.6792,1.6792,0,0,0-.11.6211v.0694h2.8506v-.1094a1.5676,1.5676,0,0,0-.375-1.0977A1.28,1.28,0,0,0,393.3711,203.2176Z"/><path d="M302.1421,200.8475h2.34a3.0558,3.0558,0,0,1,1.18.2207,2.3966,2.3966,0,0,1,.9048.6543,2.9891,2.9891,0,0,1,.5752,1.0908,5.9219,5.9219,0,0,1,0,3.05,2.984,2.984,0,0,1-.5752,1.09,2.3884,2.3884,0,0,1-.9048.6553,3.0575,3.0575,0,0,1-1.18.22h-2.34Zm2.34,6.24a2.0964,2.0964,0,0,0,.79-.1446,1.7125,1.7125,0,0,0,.62-.4248,1.9625,1.9625,0,0,0,.4048-.6855,2.7319,2.7319,0,0,0,.145-.9248v-1.14a2.7412,2.7412,0,0,0-.145-.9258,1.9671,1.9671,0,0,0-.4048-.6845,1.71,1.71,0,0,0-.62-.4248,2.0966,2.0966,0,0,0-.79-.1455h-1.5v5.5Z"/><path d="M309.1719,201.4579a.4863.4863,0,0,1-.375-.125.46.46,0,0,1-.1153-.3252v-.13a.4637.4637,0,0,1,.1153-.3252.625.625,0,0,1,.75,0,.4641.4641,0,0,1,.1152.3252v.13a.4607.4607,0,0,1-.1152.3252A.4865.4865,0,0,1,309.1719,201.4579Zm-.4,1.21h.8v5.16h-.8Z"/><path d="M312.8218,207.9481a2.4106,2.4106,0,0,1-1.2051-.2754,2.7314,2.7314,0,0,1-.835-.7344l.57-.46a2.2466,2.2466,0,0,0,.67.5849,1.7435,1.7435,0,0,0,.86.2051,1.2687,1.2687,0,0,0,.795-.2207.7991.7991,0,0,0,.09-1.1348,1.1929,1.1929,0,0,0-.7051-.2949l-.41-.0595a3.55,3.55,0,0,1-.66-.1553,1.8314,1.8314,0,0,1-.5249-.28,1.2058,1.2058,0,0,1-.35-.4346,1.4174,1.4174,0,0,1-.125-.62,1.49,1.49,0,0,1,.14-.665,1.3379,1.3379,0,0,1,.3853-.4756,1.6887,1.6887,0,0,1,.585-.2842,2.6933,2.6933,0,0,1,.73-.0957,2.2673,2.2673,0,0,1,1.0547.2207,2.3648,2.3648,0,0,1,.7451.6094l-.53.4805a1.5964,1.5964,0,0,0-.5-.4356,1.6131,1.6131,0,0,0-.83-.1943,1.1442,1.1442,0,0,0-.7549.2148.7239.7239,0,0,0-.2554.585.6119.6119,0,0,0,.2554.55,1.9079,1.9079,0,0,0,.7349.25l.4.06a2.15,2.15,0,0,1,1.22.4951,1.3051,1.3051,0,0,1,.36.9551,1.4623,1.4623,0,0,1-.51,1.1806A2.1075,2.1075,0,0,1,312.8218,207.9481Z"/><path d="M319.8921,207.828a.7843.7843,0,0,1-.645-.24,1.188,1.188,0,0,1-.2451-.6h-.05a1.3364,1.3364,0,0,1-.56.72,1.7405,1.7405,0,0,1-.93.24,1.8073,1.8073,0,0,1-1.2749-.42,1.4771,1.4771,0,0,1-.4551-1.1406,1.3,1.3,0,0,1,.5352-1.1192,2.8392,2.8392,0,0,1,1.665-.3906h1.02v-.51a1.1145,1.1145,0,0,0-.3-.84,1.2788,1.2788,0,0,0-.92-.29,1.3893,1.3893,0,0,0-.7851.21,1.7259,1.7259,0,0,0-.5249.56l-.48-.4492a1.8278,1.8278,0,0,1,.67-.7159,2.4969,2.4969,0,0,1,2.62.1641,1.6164,1.6164,0,0,1,.52,1.2773v2.834h.59v.71Zm-2.3-.56a2.0292,2.0292,0,0,0,.55-.07,1.3455,1.3455,0,0,0,.43-.2.9967.9967,0,0,0,.28-.3.7184.7184,0,0,0,.1-.37v-.85h-1.06a1.9406,1.9406,0,0,0-1.0049.1992.6464.6464,0,0,0-.3154.58v.21a.701.701,0,0,0,.2754.5909A1.1991,1.1991,0,0,0,317.5918,207.2684Z"/><path d="M321.4819,200.4276h.8v3.0713h.04a1.4429,1.4429,0,0,1,.5849-.7178,1.755,1.755,0,0,1,.9253-.2334,1.9554,1.9554,0,0,1,.87.19,1.8892,1.8892,0,0,1,.665.54,2.4722,2.4722,0,0,1,.42.85,4.3988,4.3988,0,0,1,0,2.24,2.4722,2.4722,0,0,1-.42.85,1.8784,1.8784,0,0,1-.665.54,1.9554,1.9554,0,0,1-.87.19,1.5623,1.5623,0,0,1-1.51-.95h-.04v.83h-.8Zm2.13,6.81a1.3776,1.3776,0,0,0,1.07-.4267,1.5987,1.5987,0,0,0,.39-1.1211v-.8848a1.5945,1.5945,0,0,0-.39-1.12,1.3752,1.3752,0,0,0-1.07-.4277,1.7283,1.7283,0,0,0-.5151.0761,1.4339,1.4339,0,0,0-.4248.2051,1.0035,1.0035,0,0,0-.2852.3174.7953.7953,0,0,0-.105.3965v1.93a.9308.9308,0,0,0,.105.4472,1.0115,1.0115,0,0,0,.2852.3321,1.3027,1.3027,0,0,0,.4248.206A1.8581,1.8581,0,0,0,323.6118,207.2381Z"/><path d="M328.1318,207.828a.8163.8163,0,0,1-.6352-.2354.8444.8444,0,0,1-.2149-.5947v-6.57h.8v6.69h.76v.71Z"/><path d="M331.9414,207.9481a2.3111,2.3111,0,0,1-.9551-.19,2.044,2.044,0,0,1-.73-.5449,2.4988,2.4988,0,0,1-.47-.85,3.8458,3.8458,0,0,1,0-2.2255,2.4928,2.4928,0,0,1,.47-.8545,2.0667,2.0667,0,0,1,.73-.545,2.3111,2.3111,0,0,1,.9551-.19,2.1986,2.1986,0,0,1,.93.19,2.0573,2.0573,0,0,1,.7.5234,2.3344,2.3344,0,0,1,.4453.792,3.138,3.138,0,0,1,.1548,1.0068v.3789h-3.71v.2393a1.7658,1.7658,0,0,0,.105.6152,1.45,1.45,0,0,0,.3.4951,1.38,1.38,0,0,0,.48.33,1.6471,1.6471,0,0,0,.645.12,1.57,1.57,0,0,0,.855-.23,1.5045,1.5045,0,0,0,.5649-.66l.57.4131a1.9917,1.9917,0,0,1-.78.86A2.3543,2.3543,0,0,1,331.9414,207.9481Zm0-4.7305a1.5248,1.5248,0,0,0-.6.1143,1.3625,1.3625,0,0,0-.4648.3232,1.5263,1.5263,0,0,0-.3052.4922,1.7,1.7,0,0,0-.11.6211v.0694h2.85v-.1094a1.5676,1.5676,0,0,0-.375-1.0977A1.2794,1.2794,0,0,0,331.9414,203.2176Z"/></g></svg>