<svg xmlns="http://www.w3.org/2000/svg" width="750" height="520" viewBox="0 0 750 520"><defs><style>.cls-1{fill:#f2f4f8;}.cls-1,.cls-3,.cls-4,.cls-6,.cls-7,.cls-8,.cls-9{stroke:#000;}.cls-1,.cls-3,.cls-5,.cls-6,.cls-7,.cls-8{stroke-linejoin:round;}.cls-11,.cls-2,.cls-3,.cls-4{fill:#fff;}.cls-2{stroke:#fff;}.cls-2,.cls-4,.cls-9{stroke-miterlimit:10;}.cls-3,.cls-5,.cls-8{stroke-linecap:round;}.cls-5,.cls-8,.cls-9{fill:none;}.cls-5{stroke:#a8a8a8;stroke-dasharray:2;}.cls-6{fill:#dbfbfb;}.cls-7{fill:#e3f6ff;}.cls-9{stroke-width:2px;}.cls-10{fill:#0072c3;}</style></defs><g id="Layer_1" data-name="Layer 1"><rect class="cls-1" x="401.5" y="137.1665" width="295" height="142.5"/><rect class="cls-2" x="432.5" y="195.1665" width="100" height="43"/><line class="cls-3" x1="432.7694" y1="238.7097" x2="432.7694" y2="194.709"/><line class="cls-3" x1="532.75" y1="238.7097" x2="532.75" y2="194.2469"/><path class="cls-4" d="M532.7306,238.4583c0,3.6823-22.7014,7.2057-50.1991,7.2057s-49.7815-3.5189-49.7815-7.2011"/><ellipse class="cls-4" cx="482.7403" cy="194.1511" rx="49.9903" ry="4.4871"/><rect class="cls-5" x="35" y="88.1665" width="681" height="210.5"/><rect class="cls-6" x="578.5" y="191.1665" width="100" height="50"/><rect class="cls-1" x="54.5" y="349.1665" width="294.5" height="142.5"/><rect class="cls-7" x="80.5" y="381.1665" width="242" height="50"/><rect class="cls-1" x="54.5" y="137.1665" width="294.5" height="142.5"/><rect class="cls-7" x="80.5" y="197.6665" width="242" height="50"/><line class="cls-8" x1="537.8057" y1="227.1665" x2="566.5" y2="227.1665"/><polygon points="538.681 230.158 533.5 227.167 538.681 224.175 538.681 230.158"/><rect class="cls-6" x="573.5" y="196.1665" width="100" height="50"/><line class="cls-8" x1="472.5" y1="406.1665" x2="329.8057" y2="406.1665"/><polygon points="330.681 403.175 325.5 406.167 330.681 409.158 330.681 403.175"/><rect class="cls-2" x="427.5" y="200.1665" width="100" height="43"/><line class="cls-8" x1="427.7694" y1="243.7097" x2="427.7694" y2="199.709"/><line class="cls-8" x1="527.75" y1="243.7097" x2="527.75" y2="199.2469"/><path class="cls-4" d="M527.7306,243.4583c0,3.6823-22.7014,7.2057-50.1991,7.2057s-49.7815-3.5189-49.7815-7.2011"/><ellipse class="cls-4" cx="477.7403" cy="199.1511" rx="49.9903" ry="4.4871"/><rect class="cls-6" x="568" y="202.1665" width="100" height="50"/><rect class="cls-2" x="422.5" y="205.1665" width="100" height="43"/><line class="cls-3" x1="422.7694" y1="248.7097" x2="422.7694" y2="204.709"/><line class="cls-3" x1="522.75" y1="248.7097" x2="522.75" y2="204.2469"/><path class="cls-4" d="M522.7306,248.4583c0,3.6823-22.7014,7.2057-50.1991,7.2057s-49.7815-3.5189-49.7815-7.2011"/><ellipse class="cls-4" cx="472.7403" cy="204.1511" rx="49.9903" ry="4.4871"/><line class="cls-8" x1="201.5" y1="372.8608" x2="201.5" y2="249.1665"/><polygon points="204.492 371.985 201.5 377.167 198.508 371.985 204.492 371.985"/><line class="cls-8" x1="472.5" y1="406.1665" x2="472.5" y2="259.1665"/><line class="cls-9" x1="376" y1="500.6665" x2="376" y2="58.6665"/></g><g id="Text"><path d="M35.5688,67.7158V66.4434h1.1045V60.6123H35.5688V59.34h3.8047v1.2725H38.2573v5.8311h1.1162v1.2724Z"/><path d="M40.9937,59.34H44.87a2.6111,2.6111,0,0,1,.93.1563,2.0374,2.0374,0,0,1,.7022.4316,1.7985,1.7985,0,0,1,.4375.6778,2.4964,2.4964,0,0,1,.15.8828,2.28,2.28,0,0,1-.126.8095,1.58,1.58,0,0,1-.336.5459,1.3759,1.3759,0,0,1-.48.3243,1.6652,1.6652,0,0,1-.5576.12v.0713a1.8466,1.8466,0,0,1,.5937.1084,1.7673,1.7673,0,0,1,.5879.3418,1.8713,1.8713,0,0,1,.45.6006,2.04,2.04,0,0,1,.18.9052,2.7077,2.7077,0,0,1-.1612.9424,2.387,2.387,0,0,1-.45.7617,2.1063,2.1063,0,0,1-.6846.5108,2.0038,2.0038,0,0,1-.8633.1855h-4.248Zm1.5839,3.4922h1.9561a.9229.9229,0,0,0,.6719-.2343.8753.8753,0,0,0,.2392-.6543v-.3711a.875.875,0,0,0-.2392-.6543.9226.9226,0,0,0-.6719-.2344H42.5776Zm0,3.54h2.208a1.0011,1.0011,0,0,0,.7081-.2344.88.88,0,0,0,.2519-.6777v-.4082a.9.9,0,0,0-.2519-.6836.9855.9855,0,0,0-.7081-.24h-2.208Z"/><path d="M55.2729,61.7041h-.0478l-.6475,1.332-1.7158,3.168-1.7168-3.168-.6474-1.332H50.45v6.0117h-1.5V59.34h1.7881l2.1475,4.0918h.0478l2.124-4.0918h1.7158v8.376h-1.5Z"/><path d="M64.8247,67.8594a3.9461,3.9461,0,0,1-1.4941-.27A2.9973,2.9973,0,0,1,62.19,66.78a3.6883,3.6883,0,0,1-.7255-1.3389,6.16,6.16,0,0,1-.252-1.8535,6.4069,6.4069,0,0,1,.252-1.8779,3.8474,3.8474,0,0,1,.7255-1.38,3.091,3.091,0,0,1,1.1407-.8467,3.7334,3.7334,0,0,1,1.4941-.2871,3.387,3.387,0,0,1,1.8721.48,3.3007,3.3007,0,0,1,1.1875,1.4521l-1.3555.72a1.9083,1.9083,0,0,0-.5889-.9063A1.6837,1.6837,0,0,0,64.8247,60.6a1.7713,1.7713,0,0,0-1.41.6006,2.4729,2.4729,0,0,0-.5225,1.68V64.2a2.4227,2.4227,0,0,0,.5225,1.6738,1.7989,1.7989,0,0,0,1.41.5821,1.72,1.72,0,0,0,1.1572-.3838,2.2121,2.2121,0,0,0,.6543-.9483L67.92,65.88a3.6825,3.6825,0,0,1-1.2119,1.458A3.24,3.24,0,0,1,64.8247,67.8594Z"/><path d="M70.7163,67.7158a1.5279,1.5279,0,0,1-1.1641-.3965,1.5653,1.5653,0,0,1-.372-1.1152V58.8359h1.5361V66.48h.8281v1.2363Z"/><path d="M75.1929,67.8594a3.0345,3.0345,0,0,1-1.2061-.2276,2.5,2.5,0,0,1-.9121-.66,3.012,3.012,0,0,1-.582-1.0381,4.253,4.253,0,0,1-.2041-1.3613,4.2058,4.2058,0,0,1,.2041-1.3565,2.9573,2.9573,0,0,1,.582-1.0264,2.53,2.53,0,0,1,.9121-.6533,3.0363,3.0363,0,0,1,1.2061-.2285,3.0827,3.0827,0,0,1,1.2119.2285,2.5184,2.5184,0,0,1,.918.6533,2.9589,2.9589,0,0,1,.582,1.0264,4.2085,4.2085,0,0,1,.2041,1.3565,4.2558,4.2558,0,0,1-.2041,1.3613,3.0137,3.0137,0,0,1-.582,1.0381,2.4889,2.4889,0,0,1-.918.66A3.0808,3.0808,0,0,1,75.1929,67.8594Zm0-1.2354a1.25,1.25,0,0,0,.96-.3721,1.5457,1.5457,0,0,0,.3477-1.0917V63.9961a1.526,1.526,0,0,0-.3477-1.08,1.2506,1.2506,0,0,0-.96-.3721,1.2361,1.2361,0,0,0-.9483.3721,1.5218,1.5218,0,0,0-.3476,1.08V65.16a1.5415,1.5415,0,0,0,.3476,1.0917A1.2357,1.2357,0,0,0,75.1929,66.624Z"/><path d="M83.2085,66.6719h-.06a2.0787,2.0787,0,0,1-.2226.45,1.6454,1.6454,0,0,1-.3477.3779,1.5617,1.5617,0,0,1-.5039.2637,2.1732,2.1732,0,0,1-.6777.0957,1.8047,1.8047,0,0,1-1.4883-.6358,2.8085,2.8085,0,0,1-.5156-1.8115v-3.96h1.5351v3.8038a1.6542,1.6542,0,0,0,.252.99.9355.9355,0,0,0,.8047.3418,1.681,1.681,0,0,0,.45-.0606,1.1239,1.1239,0,0,0,.39-.1855,1.0343,1.0343,0,0,0,.2764-.3115.8659.8659,0,0,0,.1074-.4385v-4.14h1.5361v6.2637H83.2085Z"/><path d="M90.4087,66.6719h-.0606a1.6088,1.6088,0,0,1-.6357.8642,1.8721,1.8721,0,0,1-1.0918.3233,2.1222,2.1222,0,0,1-1.8184-.8516,4.0451,4.0451,0,0,1-.63-2.4355,3.9909,3.9909,0,0,1,.63-2.418,2.1284,2.1284,0,0,1,1.8184-.8467,1.8975,1.8975,0,0,1,1.0918.3184,1.5786,1.5786,0,0,1,.6357.8574h.0606V58.8359h1.5351v8.88H90.4087Zm-1.2959-.084a1.5587,1.5587,0,0,0,.9238-.2637.8729.8729,0,0,0,.3721-.7568V63.5762a.8681.8681,0,0,0-.3721-.7325,1.5122,1.5122,0,0,0-.9238-.2763,1.2468,1.2468,0,0,0-.9668.4023,1.5343,1.5343,0,0,0-.3652,1.0742v1.08a1.5083,1.5083,0,0,0,.3652,1.0674A1.2524,1.2524,0,0,0,89.1128,66.5879Z"/><path d="M57.8608,112.7158l-2.7353-8.376h1.6191l1.2842,4.08.7441,2.7842h.0362l.7324-2.7842,1.2832-4.08H62.397l-2.7364,8.376Z"/><path d="M69.897,106.7041h-.0479l-.6474,1.332-1.7159,3.168-1.7168-3.168-.6474-1.332h-.0479v6.0117h-1.5V104.34h1.7881l2.1475,4.0918h.0478l2.1241-4.0918H71.397v8.376h-1.5Z"/><path d="M72.6577,106.4521h1.4756l.6357,2.58.4922,2.1475h.0479l.5762-2.1475.7324-2.58h1.3916l.7558,2.58.5879,2.1475h.0479l.4922-2.1475.624-2.58h1.4287l-1.7168,6.2637H78.5737l-.8047-2.76-.4677-1.7042h-.0362l-.456,1.7042-.792,2.76H74.3853Z"/><path d="M87.5493,112.7158a1.0756,1.0756,0,0,1-.7978-.2939,1.35,1.35,0,0,1-.3662-.7862H86.313a1.4654,1.4654,0,0,1-.6358.918,2.1674,2.1674,0,0,1-1.1884.3057,2.0281,2.0281,0,0,1-1.4756-.502,1.7844,1.7844,0,0,1-.5156-1.34,1.6236,1.6236,0,0,1,.6953-1.4414,3.5115,3.5115,0,0,1,1.98-.4727h1.0684v-.456a1.1325,1.1325,0,0,0-.2764-.8155,1.1844,1.1844,0,0,0-.8877-.2881,1.478,1.478,0,0,0-.87.2334,2.3188,2.3188,0,0,0-.5586.5586l-.9121-.8213a2.66,2.66,0,0,1,.9248-.875,3.0433,3.0433,0,0,1,1.5235-.332,2.8624,2.8624,0,0,1,1.9326.5752,2.0727,2.0727,0,0,1,.6592,1.6514V111.48h.624v1.2363Zm-2.5439-.9717a1.6187,1.6187,0,0,0,.8759-.2265.74.74,0,0,0,.36-.668v-.8223h-.9844q-1.2,0-1.2.7637v.2022a.6632.6632,0,0,0,.2461.5664A1.1522,1.1522,0,0,0,85.0054,111.7441Z"/><path d="M89.6479,112.7158v-6.2637h1.5362v1.2959h.0605a2.0086,2.0086,0,0,1,.1856-.4863,1.495,1.495,0,0,1,.33-.414,1.5729,1.5729,0,0,1,.4863-.2881,1.8322,1.8322,0,0,1,.6533-.1075h.3359v1.4522h-.48a2.4017,2.4017,0,0,0-1.1757.2275.7921.7921,0,0,0-.3965.7442v3.84Z"/><path d="M96.8364,112.8594a3.1252,3.1252,0,0,1-1.2422-.2334,2.57,2.57,0,0,1-.9238-.66,2.949,2.949,0,0,1-.582-1.0322,4.6515,4.6515,0,0,1-.0059-2.7061,2.9417,2.9417,0,0,1,.57-1.0254,2.5175,2.5175,0,0,1,.9121-.66,3.0413,3.0413,0,0,1,1.2237-.2344,2.9771,2.9771,0,0,1,1.2715.252,2.4531,2.4531,0,0,1,.8886.6845,2.9663,2.9663,0,0,1,.5215,1.002,4.1437,4.1437,0,0,1,.1738,1.2178v.5039H95.481v.1552a1.53,1.53,0,0,0,.3837,1.09,1.4839,1.4839,0,0,0,1.14.4111,1.6969,1.6969,0,0,0,.9424-.2383,2.681,2.681,0,0,0,.6533-.6074l.8281.9268a2.5716,2.5716,0,0,1-1.05.8476A3.6426,3.6426,0,0,1,96.8364,112.8594ZM96.813,107.46a1.2309,1.2309,0,0,0-.9727.4082,1.5343,1.5343,0,0,0-.3593,1.0556v.0957h2.5673v-.1074a1.6463,1.6463,0,0,0-.3173-1.05A1.1017,1.1017,0,0,0,96.813,107.46Z"/><path d="M105.1772,112.7158l-2.0888-6.2637h1.5127l.876,2.6993.6113,2.2324h.084l.6123-2.2324.8525-2.6993h1.4639l-2.1006,6.2637Z"/><path d="M110.8892,105.54a.9341.9341,0,0,1-.6905-.2158.7621.7621,0,0,1-.21-.5527v-.2393a.7621.7621,0,0,1,.21-.5527,1.2016,1.2016,0,0,1,1.3741,0,.7469.7469,0,0,1,.2158.5527v.2393a.7469.7469,0,0,1-.2158.5527A.9362.9362,0,0,1,110.8892,105.54Zm-.7686.9121h1.5361v6.2637h-1.5361Z"/><path d="M113.4321,112.7158v-6.2637h1.5362v1.2959h.0605a2.0045,2.0045,0,0,1,.1856-.4863,1.4946,1.4946,0,0,1,.33-.414,1.5746,1.5746,0,0,1,.4864-.2881,1.8318,1.8318,0,0,1,.6533-.1075h.3359v1.4522h-.48a2.4024,2.4024,0,0,0-1.1758.2275.7922.7922,0,0,0-.3964.7442v3.84Z"/><path d="M120.1519,112.7158a1.6377,1.6377,0,0,1-1.2061-.4131,1.5945,1.5945,0,0,1-.4141-1.1787v-3.4365h-.9238v-1.2354h.48a.5745.5745,0,0,0,.4736-.1621.7861.7861,0,0,0,.126-.4863v-1.0684h1.38v1.7168h1.2842v1.2354h-1.2842v3.792h1.1884v1.2363Z"/><path d="M126.4282,111.6719h-.0595a2.0836,2.0836,0,0,1-.2227.45,1.6454,1.6454,0,0,1-.3477.3779,1.5617,1.5617,0,0,1-.5039.2637,2.1727,2.1727,0,0,1-.6777.0957,1.805,1.805,0,0,1-1.4883-.6358,2.809,2.809,0,0,1-.5156-1.8115v-3.96h1.5351v3.8038a1.6542,1.6542,0,0,0,.252.99.9355.9355,0,0,0,.8047.3418,1.68,1.68,0,0,0,.45-.0606,1.1239,1.1239,0,0,0,.39-.1855,1.0343,1.0343,0,0,0,.2764-.3115.8659.8659,0,0,0,.1074-.4385v-4.14h1.5362v6.2637h-1.5362Z"/><path d="M134.3481,112.7158a1.0756,1.0756,0,0,1-.7978-.2939,1.35,1.35,0,0,1-.3662-.7862h-.0723a1.4656,1.4656,0,0,1-.6357.918,2.1675,2.1675,0,0,1-1.1885.3057,2.0283,2.0283,0,0,1-1.4756-.502,1.7848,1.7848,0,0,1-.5156-1.34,1.6236,1.6236,0,0,1,.6953-1.4414,3.5118,3.5118,0,0,1,1.98-.4727h1.0683v-.456a1.1325,1.1325,0,0,0-.2763-.8155,1.1847,1.1847,0,0,0-.8877-.2881,1.4783,1.4783,0,0,0-.87.2334,2.3166,2.3166,0,0,0-.5585.5586l-.9122-.8213a2.6611,2.6611,0,0,1,.9248-.875,3.0435,3.0435,0,0,1,1.5235-.332,2.8622,2.8622,0,0,1,1.9326.5752,2.0724,2.0724,0,0,1,.6592,1.6514V111.48h.624v1.2363Zm-2.5439-.9717a1.6193,1.6193,0,0,0,.876-.2265.74.74,0,0,0,.36-.668v-.8223h-.9843q-1.2,0-1.2.7637v.2022a.6629.6629,0,0,0,.2461.5664A1.1517,1.1517,0,0,0,131.8042,111.7441Z"/><path d="M137.9839,112.7158a1.5277,1.5277,0,0,1-1.1641-.3965,1.5653,1.5653,0,0,1-.372-1.1152v-7.3682h1.5361V111.48h.8281v1.2363Z"/><path d="M140.7437,105.54a.9341.9341,0,0,1-.69-.2158.7621.7621,0,0,1-.21-.5527v-.2393a.7621.7621,0,0,1,.21-.5527,1.2014,1.2014,0,0,1,1.374,0,.7466.7466,0,0,1,.2159.5527v.2393a.7466.7466,0,0,1-.2159.5527A.9357.9357,0,0,1,140.7437,105.54Zm-.7686.9121h1.5361v6.2637h-1.5361Z"/><path d="M142.8442,112.7158V111.48l3.252-3.8154h-3.1445v-1.212h4.9443V107.64l-3.2764,3.84h3.36v1.2363Z"/><path d="M151.7114,112.8594a3.1252,3.1252,0,0,1-1.2422-.2334,2.57,2.57,0,0,1-.9238-.66,2.949,2.949,0,0,1-.582-1.0322,4.6515,4.6515,0,0,1-.0059-2.7061,2.9417,2.9417,0,0,1,.57-1.0254,2.5175,2.5175,0,0,1,.9121-.66,3.0413,3.0413,0,0,1,1.2237-.2344,2.9771,2.9771,0,0,1,1.2715.252,2.4531,2.4531,0,0,1,.8886.6845,2.9663,2.9663,0,0,1,.5215,1.002,4.1437,4.1437,0,0,1,.1738,1.2178v.5039h-4.163v.1552a1.53,1.53,0,0,0,.3837,1.09,1.4839,1.4839,0,0,0,1.14.4111,1.6969,1.6969,0,0,0,.9424-.2383,2.681,2.681,0,0,0,.6533-.6074l.8281.9268a2.5716,2.5716,0,0,1-1.05.8476A3.6426,3.6426,0,0,1,151.7114,112.8594Zm-.0234-5.3994a1.2309,1.2309,0,0,0-.9727.4082,1.5343,1.5343,0,0,0-.3593,1.0556v.0957h2.5673v-.1074a1.6463,1.6463,0,0,0-.3173-1.05A1.1017,1.1017,0,0,0,151.688,107.46Z"/><path d="M159.7642,111.6719h-.0606a1.6088,1.6088,0,0,1-.6357.8642,1.8721,1.8721,0,0,1-1.0918.3233,2.1221,2.1221,0,0,1-1.8184-.8516,4.0451,4.0451,0,0,1-.63-2.4355,3.9909,3.9909,0,0,1,.63-2.418,2.1283,2.1283,0,0,1,1.8184-.8467,1.8975,1.8975,0,0,1,1.0918.3184,1.5786,1.5786,0,0,1,.6357.8574h.0606v-3.6475h1.5351v8.88h-1.5351Zm-1.2959-.084a1.5591,1.5591,0,0,0,.9238-.2637.8732.8732,0,0,0,.3721-.7568v-1.9912a.8684.8684,0,0,0-.3721-.7325,1.5126,1.5126,0,0,0-.9238-.2763,1.2468,1.2468,0,0,0-.9668.4023,1.5339,1.5339,0,0,0-.3653,1.0742v1.08a1.5079,1.5079,0,0,0,.3653,1.0674A1.2524,1.2524,0,0,0,158.4683,111.5879Z"/><path d="M168.44,112.8594a3.1243,3.1243,0,0,1-1.2421-.2334,2.5694,2.5694,0,0,1-.9239-.66,2.949,2.949,0,0,1-.582-1.0322,4.6515,4.6515,0,0,1-.0059-2.7061,2.9417,2.9417,0,0,1,.57-1.0254,2.517,2.517,0,0,1,.9122-.66,3.04,3.04,0,0,1,1.2236-.2344,2.9771,2.9771,0,0,1,1.2715.252,2.4531,2.4531,0,0,1,.8886.6845,2.9663,2.9663,0,0,1,.5215,1.002,4.1437,4.1437,0,0,1,.1739,1.2178v.5039h-4.1631v.1552a1.5294,1.5294,0,0,0,.3838,1.09,1.4836,1.4836,0,0,0,1.14.4111,1.6966,1.6966,0,0,0,.9424-.2383,2.681,2.681,0,0,0,.6533-.6074l.8281.9268a2.5716,2.5716,0,0,1-1.05.8476A3.6426,3.6426,0,0,1,168.44,112.8594Zm-.0234-5.3994a1.2309,1.2309,0,0,0-.9727.4082,1.5343,1.5343,0,0,0-.3593,1.0556v.0957h2.5674v-.1074a1.6463,1.6463,0,0,0-.3174-1.05A1.1017,1.1017,0,0,0,168.4165,107.46Z"/><path d="M172.603,112.7158v-6.2637h1.5362v1.044H174.2a2.0138,2.0138,0,0,1,.6055-.8467,1.7527,1.7527,0,0,1,1.1465-.3418,1.8043,1.8043,0,0,1,1.4873.6358,2.8081,2.8081,0,0,1,.5166,1.8125v3.96h-1.5362v-3.8037a1.7315,1.7315,0,0,0-.24-1.0078.905.905,0,0,0-.792-.3369,1.6137,1.6137,0,0,0-.4619.0664,1.2837,1.2837,0,0,0-.3955.1924.9894.9894,0,0,0-.2822.3115.856.856,0,0,0-.1084.4385v4.14Z"/><path d="M180.9077,112.7158l-2.0889-6.2637h1.5127l.876,2.6993.6113,2.2324h.084l.6123-2.2324.8526-2.6993h1.4638l-2.1005,6.2637Z"/><path d="M186.62,105.54a.9338.9338,0,0,1-.69-.2158.7622.7622,0,0,1-.21-.5527v-.2393a.7622.7622,0,0,1,.21-.5527,1.2014,1.2014,0,0,1,1.374,0,.7465.7465,0,0,1,.2158.5527v.2393a.7465.7465,0,0,1-.2158.5527A.9358.9358,0,0,1,186.62,105.54Zm-.7685.9121h1.5361v6.2637h-1.5361Z"/><path d="M189.1626,112.7158v-6.2637h1.5361v1.2959h.0606a2.0042,2.0042,0,0,1,.1855-.4863,1.4968,1.4968,0,0,1,.33-.414,1.5741,1.5741,0,0,1,.4863-.2881,1.8323,1.8323,0,0,1,.6534-.1075h.3359v1.4522h-.48a2.4024,2.4024,0,0,0-1.1758.2275.7923.7923,0,0,0-.3965.7442v3.84Z"/><path d="M196.3032,112.8594a3.034,3.034,0,0,1-1.206-.2276,2.4983,2.4983,0,0,1-.9121-.66,3.0122,3.0122,0,0,1-.5821-1.0381,4.2558,4.2558,0,0,1-.2041-1.3613,4.2085,4.2085,0,0,1,.2041-1.3565,2.9575,2.9575,0,0,1,.5821-1.0264,2.528,2.528,0,0,1,.9121-.6533,3.0358,3.0358,0,0,1,1.206-.2285,3.082,3.082,0,0,1,1.2119.2285,2.5167,2.5167,0,0,1,.918.6533,2.9557,2.9557,0,0,1,.582,1.0264,4.2058,4.2058,0,0,1,.2041,1.3565,4.253,4.253,0,0,1-.2041,1.3613,3.01,3.01,0,0,1-.582,1.0381,2.4873,2.4873,0,0,1-.918.66A3.08,3.08,0,0,1,196.3032,112.8594Zm0-1.2354a1.25,1.25,0,0,0,.96-.3721,1.5461,1.5461,0,0,0,.3476-1.0917v-1.1641a1.5264,1.5264,0,0,0-.3476-1.08,1.2508,1.2508,0,0,0-.96-.3721,1.2357,1.2357,0,0,0-.9482.3721,1.5219,1.5219,0,0,0-.3477,1.08V110.16a1.5415,1.5415,0,0,0,.3477,1.0917A1.2354,1.2354,0,0,0,196.3032,111.624Z"/><path d="M200.5747,112.7158v-6.2637h1.5361v1.044h.0606a2.0138,2.0138,0,0,1,.6055-.8467,1.7526,1.7526,0,0,1,1.1464-.3418,1.804,1.804,0,0,1,1.4873.6358,2.8076,2.8076,0,0,1,.5166,1.8125v3.96h-1.5361v-3.8037a1.7323,1.7323,0,0,0-.24-1.0078.905.905,0,0,0-.792-.3369,1.6132,1.6132,0,0,0-.4619.0664,1.2826,1.2826,0,0,0-.3955.1924.9909.9909,0,0,0-.2823.3115.857.857,0,0,0-.1084.4385v4.14Z"/><path d="M207.63,112.7158v-6.2637h1.5361v1.044h.0606a2.02,2.02,0,0,1,.5751-.84,1.6165,1.6165,0,0,1,1.1045-.3486,1.9677,1.9677,0,0,1,1.1162.3125,1.8361,1.8361,0,0,1,.6954.9473h.0244a1.7662,1.7662,0,0,1,.666-.8936,2.06,2.06,0,0,1,1.2539-.3662,1.7,1.7,0,0,1,1.4219.6358,2.8848,2.8848,0,0,1,.498,1.8125v3.96h-1.5361v-3.8037q0-1.3447-1.0078-1.3447a1.4454,1.4454,0,0,0-.4375.0664,1.1579,1.1579,0,0,0-.3721.1924.9326.9326,0,0,0-.2588.3115.9513.9513,0,0,0-.0957.4385v4.14h-1.5361v-3.8037q0-1.3447-1.0078-1.3447a1.4123,1.4123,0,0,0-.4258.0664,1.1694,1.1694,0,0,0-.3721.1924.9824.9824,0,0,0-.2637.3115.8959.8959,0,0,0-.1025.4385v4.14Z"/><path d="M220.8188,112.8594a3.1243,3.1243,0,0,1-1.2421-.2334,2.5694,2.5694,0,0,1-.9239-.66,2.949,2.949,0,0,1-.582-1.0322,4.6515,4.6515,0,0,1-.0059-2.7061,2.94,2.94,0,0,1,.57-1.0254,2.5158,2.5158,0,0,1,.9121-.66,3.04,3.04,0,0,1,1.2236-.2344,2.9771,2.9771,0,0,1,1.2715.252,2.4543,2.4543,0,0,1,.8887.6845,2.9679,2.9679,0,0,1,.5214,1.002,4.1437,4.1437,0,0,1,.1739,1.2178v.5039h-4.1631v.1552a1.5294,1.5294,0,0,0,.3838,1.09,1.4836,1.4836,0,0,0,1.14.4111,1.6966,1.6966,0,0,0,.9424-.2383,2.681,2.681,0,0,0,.6533-.6074l.8281.9268a2.5716,2.5716,0,0,1-1.05.8476A3.6426,3.6426,0,0,1,220.8188,112.8594Zm-.0234-5.3994a1.2305,1.2305,0,0,0-.9726.4082,1.5339,1.5339,0,0,0-.3594,1.0556v.0957h2.5674v-.1074a1.6463,1.6463,0,0,0-.3174-1.05A1.1017,1.1017,0,0,0,220.7954,107.46Z"/><path d="M224.9829,112.7158v-6.2637h1.5361v1.044h.0606a2.0138,2.0138,0,0,1,.6055-.8467,1.7526,1.7526,0,0,1,1.1464-.3418,1.804,1.804,0,0,1,1.4873.6358,2.8076,2.8076,0,0,1,.5166,1.8125v3.96h-1.5361v-3.8037a1.7323,1.7323,0,0,0-.24-1.0078.905.905,0,0,0-.792-.3369,1.6132,1.6132,0,0,0-.4619.0664,1.2826,1.2826,0,0,0-.3955.1924.9909.9909,0,0,0-.2823.3115.857.857,0,0,0-.1084.4385v4.14Z"/><path d="M233.9946,112.7158a1.6375,1.6375,0,0,1-1.206-.4131,1.5945,1.5945,0,0,1-.4141-1.1787v-3.4365h-.9238v-1.2354h.48a.5745.5745,0,0,0,.4736-.1621.7861.7861,0,0,0,.126-.4863v-1.0684h1.38v1.7168h1.2842v1.2354h-1.2842v3.792h1.1885v1.2363Z"/><path d="M25.1094,21.2393l-1.3018,1.54v2.8838H21.96v-9.772h1.8481V20.707h.07l1.3863-1.834,2.4218-2.9819h2.128l-3.4019,4.0737,3.6822,5.6983H27.8955Z"/><path d="M38.8291,18.6489h-.0557l-.7563,1.5542-2.002,3.6958-2.0019-3.6958-.7559-1.5542h-.0561v7.0142h-1.75v-9.772h2.0859l2.5064,4.7739h.0556l2.478-4.7739h2.002v9.772h-1.75Z"/><path d="M42.47,25.6631V24.1792h1.2876V17.375H42.47V15.8911h4.438V17.375H45.6055v6.8042h1.3022v1.4839Z"/><path d="M48.7974,25.6631v-9.772h4.396a3.22,3.22,0,0,1,1.2109.2168,2.5658,2.5658,0,0,1,.917.6162,2.6525,2.6525,0,0,1,.5742.959,3.9965,3.9965,0,0,1,0,2.4712,2.66,2.66,0,0,1-.5742.9517,2.5607,2.5607,0,0,1-.917.6162,3.22,3.22,0,0,1-1.2109.2168H50.6455v3.7241Zm1.8481-5.32h2.38a1.182,1.182,0,0,0,.84-.2872,1.0635,1.0635,0,0,0,.3081-.8188v-.644a1.04,1.04,0,0,0-.3081-.8121,1.2019,1.2019,0,0,0-.84-.28h-2.38Z"/><path d="M60.2485,18.355h1.7222l.7422,3.01.5737,2.5059h.0562l.6718-2.5059.8541-3.01h1.624l.8823,3.01.6855,2.5059h.0562l.5742-2.5059.728-3.01H71.085l-2.0025,7.3081H67.1509l-.938-3.22-.5459-1.9878h-.042l-.5322,1.9878-.9239,3.22H62.2646Z"/><path d="M75.2012,25.8311a3.553,3.553,0,0,1-1.4073-.2662,2.9172,2.9172,0,0,1-1.0639-.77,3.5065,3.5065,0,0,1-.6787-1.2109,4.9479,4.9479,0,0,1-.2383-1.5889,4.8856,4.8856,0,0,1,.2383-1.582,3.4416,3.4416,0,0,1,.6787-1.1968,2.954,2.954,0,0,1,1.0639-.7632,3.5547,3.5547,0,0,1,1.4073-.2661,3.6054,3.6054,0,0,1,1.414.2661,2.9369,2.9369,0,0,1,1.0708.7632,3.4568,3.4568,0,0,1,.6792,1.1968,4.9,4.9,0,0,1,.2378,1.582,4.962,4.962,0,0,1-.2378,1.5889,3.5221,3.5221,0,0,1-.6792,1.2109,2.9006,2.9006,0,0,1-1.0708.77A3.6037,3.6037,0,0,1,75.2012,25.8311Zm0-1.4419a1.459,1.459,0,0,0,1.12-.4341,1.8006,1.8006,0,0,0,.4058-1.274V21.3232a1.78,1.78,0,0,0-.4058-1.26,1.46,1.46,0,0,0-1.12-.4341,1.4415,1.4415,0,0,0-1.106.4341,1.7779,1.7779,0,0,0-.4062,1.26v1.3579a1.7984,1.7984,0,0,0,.4062,1.274A1.44,1.44,0,0,0,75.2012,24.3892Z"/><path d="M80.1851,25.6631V18.355h1.792v1.5122h.07a2.321,2.321,0,0,1,.2173-.5669,1.7339,1.7339,0,0,1,.3847-.4834,1.8491,1.8491,0,0,1,.5669-.3359,2.1264,2.1264,0,0,1,.7632-.126h.3921v1.6943h-.56a2.8112,2.8112,0,0,0-1.372.2656.9246.9246,0,0,0-.4619.8682v4.48Z"/><path d="M85.6865,15.3032h1.792v6.2437h.07l.9659-1.3159,1.6381-1.876h2.03l-2.52,2.8281,2.7856,4.48H90.32l-1.876-3.2759-.9658,1.05v2.2261h-1.792Z"/><path d="M93.9185,19.769H92.84V18.355h1.0782v-1.05a1.8029,1.8029,0,0,1,2.0161-2.002h1.2739v1.4419H95.71v1.61h1.4981v1.414H95.71v5.8941H93.9185Z"/><path d="M100.2466,25.6631a1.7823,1.7823,0,0,1-1.3579-.4619,1.8281,1.8281,0,0,1-.4341-1.3023V15.3032h1.792v8.918h.9658v1.4419Z"/><path d="M105.4683,25.8311a3.553,3.553,0,0,1-1.4073-.2662,2.9172,2.9172,0,0,1-1.0639-.77,3.5065,3.5065,0,0,1-.6787-1.2109,4.9479,4.9479,0,0,1-.2383-1.5889,4.8856,4.8856,0,0,1,.2383-1.582,3.4416,3.4416,0,0,1,.6787-1.1968,2.954,2.954,0,0,1,1.0639-.7632,3.5547,3.5547,0,0,1,1.4073-.2661,3.6054,3.6054,0,0,1,1.414.2661,2.9378,2.9378,0,0,1,1.0708.7632,3.4584,3.4584,0,0,1,.6792,1.1968,4.9,4.9,0,0,1,.2378,1.582,4.962,4.962,0,0,1-.2378,1.5889,3.5237,3.5237,0,0,1-.6792,1.2109,2.9014,2.9014,0,0,1-1.0708.77A3.6037,3.6037,0,0,1,105.4683,25.8311Zm0-1.4419a1.459,1.459,0,0,0,1.12-.4341,1.8006,1.8006,0,0,0,.4057-1.274V21.3232a1.78,1.78,0,0,0-.4057-1.26,1.46,1.46,0,0,0-1.12-.4341,1.4415,1.4415,0,0,0-1.106.4341,1.7779,1.7779,0,0,0-.4062,1.26v1.3579a1.7984,1.7984,0,0,0,.4062,1.274A1.44,1.44,0,0,0,105.4683,24.3892Z"/><path d="M109.6123,18.355h1.7222l.7422,3.01.5737,2.5059h.0561l.6719-2.5059.854-3.01h1.624l.8824,3.01.6855,2.5059h.0562l.5742-2.5059.728-3.01h1.666l-2.0024,7.3081h-1.9317l-.9379-3.22-.5459-1.9878h-.042l-.5323,1.9878-.9238,3.22h-1.9043Z"/><path d="M124.3818,18.355h1.7222l.7422,3.01.5737,2.5059h.0562l.6718-2.5059.8541-3.01h1.624l.8823,3.01.6855,2.5059h.0562l.5742-2.5059.728-3.01h1.6661l-2.0025,7.3081h-1.9316l-.938-3.22L129.8,20.4551h-.042l-.5322,1.9878-.9239,3.22h-1.9043Z"/><path d="M137.458,17.291a1.0879,1.0879,0,0,1-.8052-.2519.8854.8854,0,0,1-.2451-.6441v-.28a.8852.8852,0,0,1,.2451-.644,1.4007,1.4007,0,0,1,1.6031,0,.8726.8726,0,0,1,.2519.644v.28a.8729.8729,0,0,1-.2519.6441A1.0917,1.0917,0,0,1,137.458,17.291Zm-.896,1.064h1.792v7.3081h-1.792Z"/><path d="M142.7075,25.6631a1.91,1.91,0,0,1-1.4067-.4815,1.8583,1.8583,0,0,1-.4829-1.3759V19.7969H139.74V18.355h.56a.6676.6676,0,0,0,.5527-.189.9129.9129,0,0,0,.147-.5669V16.353h1.61v2.002h1.4975v1.4419H142.61v4.4243h1.3857v1.4419Z"/><path d="M145.6616,15.3032h1.792v4.27h.07a2.3431,2.3431,0,0,1,.7071-.9873,2.0412,2.0412,0,0,1,1.3369-.3989,2.107,2.107,0,0,1,1.7363.7422,3.28,3.28,0,0,1,.6016,2.1138v4.62h-1.792v-4.438a2.0251,2.0251,0,0,0-.28-1.1758,1.0576,1.0576,0,0,0-.9238-.3921,1.8976,1.8976,0,0,0-.5391.0767,1.5164,1.5164,0,0,0-.4619.2241,1.1672,1.1672,0,0,0-.3291.3643.9987.9987,0,0,0-.126.5107v4.83h-1.792Z"/><path d="M159.5771,25.6631l-3.1918-9.772h1.89l1.498,4.76.8682,3.248h.042l.854-3.248,1.4981-4.76h1.8339l-3.1919,9.772Z"/><path d="M173.6191,18.6489h-.0556l-.7564,1.5542-2.0019,3.6958-2.002-3.6958-.7558-1.5542h-.0562v7.0142h-1.75v-9.772h2.0859l2.5064,4.7739h.0557l2.478-4.7739h2.0019v9.772h-1.75Z"/><path d="M179.1489,25.6631l-2.268-9.772h1.8481l.9663,4.69.6016,2.996h.042l.7-2.996,1.12-4.69h2.0439l1.12,4.69.6861,2.996h.042l.6157-2.996.9941-4.69h1.7642l-2.3384,9.772H185.001l-1.2461-5.166-.6016-2.5762h-.0283l-.63,2.5762-1.2461,5.166Z"/><path d="M195.8794,25.6631a1.2588,1.2588,0,0,1-.9312-.3428,1.5734,1.5734,0,0,1-.4267-.917h-.084a1.7164,1.7164,0,0,1-.7422,1.0708,2.5313,2.5313,0,0,1-1.3862.357,2.3671,2.3671,0,0,1-1.7217-.586,2.0814,2.0814,0,0,1-.602-1.5635,1.8926,1.8926,0,0,1,.812-1.6811,4.0888,4.0888,0,0,1,2.31-.5513h1.2461V20.917a1.3208,1.3208,0,0,0-.3223-.9522,1.3843,1.3843,0,0,0-1.0361-.3359,1.7191,1.7191,0,0,0-1.0146.273,2.6953,2.6953,0,0,0-.6514.6513l-1.064-.958a3.0881,3.0881,0,0,1,1.0782-1.02,3.5441,3.5441,0,0,1,1.7778-.3877,3.3424,3.3424,0,0,1,2.2544.67,2.42,2.42,0,0,1,.77,1.9278v3.436h.7275v1.4419Zm-2.9683-1.1338a1.884,1.884,0,0,0,1.022-.2642.8624.8624,0,0,0,.42-.7788v-.9594h-1.1484q-1.4,0-1.4.89v.2363a.7721.7721,0,0,0,.2871.66A1.3413,1.3413,0,0,0,192.9111,24.5293Z"/><path d="M198.3291,25.6631V18.355h1.792v1.5122h.07a2.325,2.325,0,0,1,.2173-.5669,1.7361,1.7361,0,0,1,.3848-.4834,1.848,1.848,0,0,1,.5669-.3359,2.1255,2.1255,0,0,1,.7631-.126h.3921v1.6943h-.56a2.8114,2.8114,0,0,0-1.3721.2656.9246.9246,0,0,0-.4619.8682v4.48Z"/><path d="M206.7153,25.8311a3.6461,3.6461,0,0,1-1.4492-.273,2.9967,2.9967,0,0,1-1.0781-.77,3.4314,3.4314,0,0,1-.6787-1.2041,5.4263,5.4263,0,0,1-.0073-3.1568,3.4362,3.4362,0,0,1,.665-1.1972,2.9488,2.9488,0,0,1,1.064-.77,3.5638,3.5638,0,0,1,1.4282-.273,3.482,3.482,0,0,1,1.4839.294,2.8609,2.8609,0,0,1,1.0361.7983,3.4462,3.4462,0,0,1,.6089,1.1689,4.8471,4.8471,0,0,1,.2031,1.4209v.5879h-4.8579v.1807a1.7874,1.7874,0,0,0,.4478,1.272,1.7336,1.7336,0,0,0,1.33.4795,1.9846,1.9846,0,0,0,1.0992-.2779,3.1281,3.1281,0,0,0,.7626-.709l.9664,1.0811a3.0054,3.0054,0,0,1-1.2251.99A4.2638,4.2638,0,0,1,206.7153,25.8311Zm-.0283-6.3a1.4349,1.4349,0,0,0-1.1338.4761,1.7912,1.7912,0,0,0-.42,1.232v.1118h2.9956v-.126A1.9187,1.9187,0,0,0,207.7583,20,1.2858,1.2858,0,0,0,206.687,19.5312Z"/><path d="M217.7607,25.8311a3.6784,3.6784,0,0,1-1.4419-.2662,2.78,2.78,0,0,1-1.0571-.77,3.46,3.46,0,0,1-.6509-1.2109,5.2466,5.2466,0,0,1-.2241-1.5889,5.18,5.18,0,0,1,.2241-1.582,3.3947,3.3947,0,0,1,.6509-1.1968,2.8134,2.8134,0,0,1,1.0571-.7632,3.68,3.68,0,0,1,1.4419-.2661,3.1833,3.1833,0,0,1,1.8272.49,2.7515,2.7515,0,0,1,1.043,1.358l-1.47.6577a1.5243,1.5243,0,0,0-.4687-.7627,1.3629,1.3629,0,0,0-.9312-.3013,1.3411,1.3411,0,0,0-1.1269.4761,1.9687,1.9687,0,0,0-.3711,1.2461v1.33a1.9375,1.9375,0,0,0,.3711,1.2388,1.3481,1.3481,0,0,0,1.1269.4693,1.3976,1.3976,0,0,0,.9942-.3291,2.261,2.261,0,0,0,.5459-.8189l1.3721.6577a2.87,2.87,0,0,1-1.106,1.4492A3.2425,3.2425,0,0,1,217.7607,25.8311Z"/><path d="M226.4263,24.4453h-.07a2.4085,2.4085,0,0,1-.2587.5249,1.92,1.92,0,0,1-.4063.4409,1.8505,1.8505,0,0,1-.5879.3081,2.5627,2.5627,0,0,1-.791.1119,2.1037,2.1037,0,0,1-1.7358-.7422,3.2753,3.2753,0,0,1-.6021-2.1138v-4.62h1.792v4.438a1.9267,1.9267,0,0,0,.2939,1.1552,1.0875,1.0875,0,0,0,.938.399,1.9986,1.9986,0,0,0,.5249-.07,1.319,1.319,0,0,0,.4551-.2168,1.214,1.214,0,0,0,.3218-.3638,1.0019,1.0019,0,0,0,.126-.5112v-4.83h1.792v7.3081h-1.792Z"/><path d="M232.6851,25.8311a3.9239,3.9239,0,0,1-1.7642-.357,4.0621,4.0621,0,0,1-1.26-.9868l1.0923-1.0645a3.2964,3.2964,0,0,0,.8892.7281,2.2645,2.2645,0,0,0,1.1128.2661,1.5253,1.5253,0,0,0,.9311-.2241.7384.7384,0,0,0,.2867-.6158.6645.6645,0,0,0-.2027-.5112,1.2931,1.2931,0,0,0-.6933-.2588l-.7276-.0981a3.4687,3.4687,0,0,1-1.8135-.6787,1.8935,1.8935,0,0,1-.6225-1.5332,2.27,2.27,0,0,1,.1958-.959,2.0318,2.0318,0,0,1,.56-.728,2.5666,2.5666,0,0,1,.875-.462,3.7824,3.7824,0,0,1,1.1412-.1611,5.1956,5.1956,0,0,1,.9448.0772,3.4181,3.4181,0,0,1,.749.2241,2.8914,2.8914,0,0,1,.6162.3637,5.918,5.918,0,0,1,.5459.483l-1.05,1.05a2.7694,2.7694,0,0,0-.77-.56,2.159,2.159,0,0,0-.98-.2241,1.3492,1.3492,0,0,0-.8467.21.67.67,0,0,0-.2592.5459.6925.6925,0,0,0,.2173.5533,1.504,1.504,0,0,0,.7348.2729l.7422.0981q2.3656.3356,2.3657,2.1558a2.1742,2.1742,0,0,1-.2168.9732,2.2209,2.2209,0,0,1-.6093.7558,2.8764,2.8764,0,0,1-.9449.49A4.1074,4.1074,0,0,1,232.6851,25.8311Z"/><path d="M239.4463,25.6631a1.91,1.91,0,0,1-1.4067-.4815,1.8584,1.8584,0,0,1-.483-1.3759V19.7969h-1.0781V18.355h.56a.6676.6676,0,0,0,.5527-.189.9129.9129,0,0,0,.147-.5669V16.353h1.61v2.002h1.4976v1.4419h-1.4976v4.4243h1.3858v1.4419Z"/><path d="M245.2427,25.8311a3.553,3.553,0,0,1-1.4073-.2662,2.9172,2.9172,0,0,1-1.0639-.77,3.5065,3.5065,0,0,1-.6787-1.2109,4.9479,4.9479,0,0,1-.2383-1.5889,4.8856,4.8856,0,0,1,.2383-1.582,3.4416,3.4416,0,0,1,.6787-1.1968,2.954,2.954,0,0,1,1.0639-.7632,3.5547,3.5547,0,0,1,1.4073-.2661,3.6054,3.6054,0,0,1,1.414.2661,2.9369,2.9369,0,0,1,1.0708.7632,3.4568,3.4568,0,0,1,.6792,1.1968,4.9,4.9,0,0,1,.2378,1.582,4.962,4.962,0,0,1-.2378,1.5889,3.5221,3.5221,0,0,1-.6792,1.2109,2.9006,2.9006,0,0,1-1.0708.77A3.6037,3.6037,0,0,1,245.2427,25.8311Zm0-1.4419a1.4589,1.4589,0,0,0,1.12-.4341,1.8006,1.8006,0,0,0,.4058-1.274V21.3232a1.78,1.78,0,0,0-.4058-1.26,1.46,1.46,0,0,0-1.12-.4341,1.4415,1.4415,0,0,0-1.106.4341,1.7779,1.7779,0,0,0-.4062,1.26v1.3579a1.7984,1.7984,0,0,0,.4062,1.274A1.44,1.44,0,0,0,245.2427,24.3892Z"/><path d="M250.2266,25.6631V18.355h1.792v1.2182h.07a2.37,2.37,0,0,1,.6719-.98,1.8848,1.8848,0,0,1,1.288-.4063,2.2943,2.2943,0,0,1,1.3023.3643,2.1484,2.1484,0,0,1,.812,1.1059h.0278a2.0557,2.0557,0,0,1,.7769-1.0429,2.4048,2.4048,0,0,1,1.4634-.4273,1.9835,1.9835,0,0,1,1.6587.7422,3.3626,3.3626,0,0,1,.581,2.1138v4.62h-1.792v-4.438q0-1.5681-1.1758-1.5679a1.7093,1.7093,0,0,0-.5112.0767,1.3709,1.3709,0,0,0-.4341.2241,1.06,1.06,0,0,0-.4131.875v4.83h-1.792v-4.438q0-1.5681-1.1757-1.5679a1.6646,1.6646,0,0,0-.4971.0767,1.3709,1.3709,0,0,0-.4341.2241,1.1714,1.1714,0,0,0-.3081.3643,1.048,1.048,0,0,0-.1186.5107v4.83Z"/><path d="M265.6123,25.8311a3.6461,3.6461,0,0,1-1.4492-.273,2.9967,2.9967,0,0,1-1.0781-.77,3.4331,3.4331,0,0,1-.6788-1.2041,5.4285,5.4285,0,0,1-.0073-3.1568,3.438,3.438,0,0,1,.6651-1.1972,2.9485,2.9485,0,0,1,1.0639-.77,3.5643,3.5643,0,0,1,1.4283-.273,3.4812,3.4812,0,0,1,1.4838.294,2.86,2.86,0,0,1,1.0362.7983,3.4462,3.4462,0,0,1,.6089,1.1689,4.8471,4.8471,0,0,1,.2031,1.4209v.5879H264.03v.1807a1.7878,1.7878,0,0,0,.4477,1.272,1.734,1.734,0,0,0,1.33.4795,1.984,1.984,0,0,0,1.0991-.2779,3.1267,3.1267,0,0,0,.7627-.709l.9663,1.0811a3.004,3.004,0,0,1-1.2251.99A4.263,4.263,0,0,1,265.6123,25.8311Zm-.0283-6.3a1.4349,1.4349,0,0,0-1.1338.4761,1.7912,1.7912,0,0,0-.42,1.232v.1118h2.9956v-.126A1.9193,1.9193,0,0,0,266.6553,20,1.2858,1.2858,0,0,0,265.584,19.5312Z"/><path d="M270.47,25.6631V18.355h1.792v1.5122h.07a2.325,2.325,0,0,1,.2173-.5669,1.7361,1.7361,0,0,1,.3848-.4834,1.848,1.848,0,0,1,.5669-.3359,2.1256,2.1256,0,0,1,.7632-.126h.392v1.6943h-.56a2.8116,2.8116,0,0,0-1.3721.2656.9246.9246,0,0,0-.4619.8682v4.48Z"/><path d="M282.23,25.8311a3.6461,3.6461,0,0,1-1.4492-.273,2.998,2.998,0,0,1-1.0782-.77,3.433,3.433,0,0,1-.6787-1.2041,5.4263,5.4263,0,0,1-.0073-3.1568,3.4394,3.4394,0,0,1,.665-1.1972,2.95,2.95,0,0,1,1.064-.77,3.5638,3.5638,0,0,1,1.4282-.273,3.4814,3.4814,0,0,1,1.4839.294,2.86,2.86,0,0,1,1.0361.7983,3.4427,3.4427,0,0,1,.6089,1.1689,4.8438,4.8438,0,0,1,.2032,1.4209v.5879h-4.858v.1807a1.7879,1.7879,0,0,0,.4478,1.272,1.7338,1.7338,0,0,0,1.33.4795,1.9845,1.9845,0,0,0,1.0991-.2779,3.1267,3.1267,0,0,0,.7627-.709l.9663,1.0811a3.004,3.004,0,0,1-1.2251.99A4.2637,4.2637,0,0,1,282.23,25.8311Zm-.0283-6.3a1.4349,1.4349,0,0,0-1.1338.4761,1.7913,1.7913,0,0,0-.42,1.232v.1118h2.9957v-.126A1.9187,1.9187,0,0,0,283.2729,20,1.2855,1.2855,0,0,0,282.2017,19.5312Z"/><path d="M287.0879,25.6631V18.355h1.792v1.2182h.07a2.3429,2.3429,0,0,1,.707-.9873,2.0416,2.0416,0,0,1,1.337-.3989,2.1071,2.1071,0,0,1,1.7363.7422,3.28,3.28,0,0,1,.6015,2.1138v4.62H291.54v-4.438a2.0251,2.0251,0,0,0-.28-1.1758,1.0577,1.0577,0,0,0-.9239-.3921,1.8964,1.8964,0,0,0-.539.0767,1.5142,1.5142,0,0,0-.4619.2241,1.166,1.166,0,0,0-.3291.3643.9987.9987,0,0,0-.126.5107v4.83Z"/><path d="M296.7759,25.6631,294.34,18.355h1.7642l1.022,3.15.7138,2.604h.0982l.7139-2.604.9941-3.15h1.708l-2.45,7.3081Z"/><path d="M303.44,17.291a1.0876,1.0876,0,0,1-.8051-.2519.8851.8851,0,0,1-.2452-.6441v-.28a.8849.8849,0,0,1,.2452-.644,1.4006,1.4006,0,0,1,1.603,0,.8722.8722,0,0,1,.2519.644v.28a.8725.8725,0,0,1-.2519.6441A1.0917,1.0917,0,0,1,303.44,17.291Zm-.896,1.064h1.792v7.3081h-1.792Z"/><path d="M306.4077,25.6631V18.355H308.2v1.5122h.07a2.325,2.325,0,0,1,.2173-.5669,1.7361,1.7361,0,0,1,.3848-.4834,1.848,1.848,0,0,1,.5669-.3359,2.1256,2.1256,0,0,1,.7632-.126h.3921v1.6943h-.56a2.8116,2.8116,0,0,0-1.3721.2656.9246.9246,0,0,0-.4619.8682v4.48Z"/><path d="M314.7378,25.8311a3.5521,3.5521,0,0,1-1.4072-.2662,2.9167,2.9167,0,0,1-1.064-.77,3.5082,3.5082,0,0,1-.6787-1.2109,4.9479,4.9479,0,0,1-.2383-1.5889,4.8856,4.8856,0,0,1,.2383-1.582,3.4432,3.4432,0,0,1,.6787-1.1968,2.9535,2.9535,0,0,1,1.064-.7632,3.5539,3.5539,0,0,1,1.4072-.2661,3.606,3.606,0,0,1,1.4141.2661,2.9386,2.9386,0,0,1,1.0708.7632,3.46,3.46,0,0,1,.6792,1.1968,4.9024,4.9024,0,0,1,.2377,1.582,4.9649,4.9649,0,0,1-.2377,1.5889,3.5253,3.5253,0,0,1-.6792,1.2109,2.9023,2.9023,0,0,1-1.0708.77A3.6042,3.6042,0,0,1,314.7378,25.8311Zm0-1.4419a1.4589,1.4589,0,0,0,1.12-.4341,1.8006,1.8006,0,0,0,.4058-1.274V21.3232a1.78,1.78,0,0,0-.4058-1.26,1.46,1.46,0,0,0-1.12-.4341,1.4415,1.4415,0,0,0-1.106.4341,1.7779,1.7779,0,0,0-.4062,1.26v1.3579a1.7984,1.7984,0,0,0,.4062,1.274A1.44,1.44,0,0,0,314.7378,24.3892Z"/><path d="M319.7217,25.6631V18.355h1.792v1.2182h.07a2.3429,2.3429,0,0,1,.707-.9873,2.0415,2.0415,0,0,1,1.3369-.3989,2.1072,2.1072,0,0,1,1.7364.7422,3.28,3.28,0,0,1,.6015,2.1138v4.62h-1.792v-4.438a2.0252,2.0252,0,0,0-.28-1.1758,1.0579,1.0579,0,0,0-.9239-.3921,1.8964,1.8964,0,0,0-.539.0767,1.5142,1.5142,0,0,0-.4619.2241,1.1675,1.1675,0,0,0-.3292.3643,1,1,0,0,0-.1259.5107v4.83Z"/><path d="M327.9536,25.6631V18.355h1.792v1.2182h.07a2.3722,2.3722,0,0,1,.6719-.98,1.8849,1.8849,0,0,1,1.2881-.4063,2.2976,2.2976,0,0,1,1.3027.3643,2.1388,2.1388,0,0,1,.8106,1.1059h.0293a2.05,2.05,0,0,1,.7773-1.0429,2.4032,2.4032,0,0,1,1.4629-.4273,1.981,1.981,0,0,1,1.6582.7422,3.3657,3.3657,0,0,1,.582,2.1138v4.62h-1.7929v-4.438q0-1.5681-1.1758-1.5679a1.717,1.717,0,0,0-.5117.0767,1.3943,1.3943,0,0,0-.4336.2241,1.0561,1.0561,0,0,0-.4121.875v4.83h-1.793v-4.438q0-1.5681-1.1758-1.5679a1.6646,1.6646,0,0,0-.4971.0767,1.37,1.37,0,0,0-.434.2241,1.17,1.17,0,0,0-.3081.3643,1.0481,1.0481,0,0,0-.1187.5107v4.83Z"/><path d="M343.34,25.8311a3.6447,3.6447,0,0,1-1.4492-.273,2.9967,2.9967,0,0,1-1.0781-.77,3.433,3.433,0,0,1-.6787-1.2041,5.4207,5.4207,0,0,1-.0068-3.1568,3.4077,3.4077,0,0,1,.665-1.1972,2.947,2.947,0,0,1,1.0635-.77,3.5647,3.5647,0,0,1,1.4277-.273,3.484,3.484,0,0,1,1.4844.294,2.8566,2.8566,0,0,1,1.0361.7983,3.4561,3.4561,0,0,1,.6094,1.1689,4.86,4.86,0,0,1,.2021,1.4209v.5879h-4.8574v.1807a1.7877,1.7877,0,0,0,.4483,1.272,1.73,1.73,0,0,0,1.3291.4795,1.9851,1.9851,0,0,0,1.1-.2779,3.1394,3.1394,0,0,0,.7627-.709l.9658,1.0811a3.0064,3.0064,0,0,1-1.2246.99A4.2638,4.2638,0,0,1,343.34,25.8311Zm-.0283-6.3a1.4363,1.4363,0,0,0-1.1338.4761,1.7917,1.7917,0,0,0-.42,1.232v.1118h2.9961v-.126A1.9189,1.9189,0,0,0,344.3828,20,1.2864,1.2864,0,0,0,343.3115,19.5312Z"/><path d="M348.1973,25.6631V18.355h1.792v1.2182h.07a2.3292,2.3292,0,0,1,.707-.9873,2.0406,2.0406,0,0,1,1.3369-.3989,2.1052,2.1052,0,0,1,1.7354.7422,3.2775,3.2775,0,0,1,.6025,2.1138v4.62h-1.792v-4.438a2.0241,2.0241,0,0,0-.28-1.1758,1.0576,1.0576,0,0,0-.9238-.3921,1.9027,1.9027,0,0,0-.5391.0767,1.5164,1.5164,0,0,0-.4619.2241,1.1684,1.1684,0,0,0-.3291.3643.9987.9987,0,0,0-.1259.5107v4.83Z"/><path d="M358.7109,25.6631a1.9111,1.9111,0,0,1-1.4072-.4815,1.8586,1.8586,0,0,1-.4834-1.3759V19.7969h-1.0781V18.355h.56a.6679.6679,0,0,0,.5528-.189.9168.9168,0,0,0,.1474-.5669V16.353h1.6094v2.002H360.11v1.4419h-1.4981v4.4243h1.3867v1.4419Z"/><path d="M124.21,460.7681h-3.4922v3.54h-1.584v-8.376h1.584v3.4317H124.21v-3.4317h1.584v8.376H124.21Z"/><path d="M131.5054,458.0435h1.44l-2.52,7.3808a3.1734,3.1734,0,0,1-.27.582,1.4471,1.4471,0,0,1-.354.4014,1.3373,1.3373,0,0,1-.4917.2285,2.8038,2.8038,0,0,1-.6724.0713h-.9238v-1.2353h1.1279l.2881-.875-2.2441-6.5537h1.5239l1.0923,3.3056.4077,1.58h.0722l.4322-1.58Z"/><path d="M133.9536,458.0435h1.5357v1.0322h.0483a1.5738,1.5738,0,0,1,.6357-.8574,1.8974,1.8974,0,0,1,1.0923-.3184,2.1414,2.1414,0,0,1,1.83.8457,3.9914,3.9914,0,0,1,.63,2.418,4.0428,4.0428,0,0,1-.63,2.4365,2.1333,2.1333,0,0,1-1.83.8516,1.8392,1.8392,0,0,1-1.0864-.3243,1.6748,1.6748,0,0,1-.6416-.8632h-.0483v3.4433h-1.5357Zm2.82,5.1367a1.271,1.271,0,0,0,.9722-.3965,1.4975,1.4975,0,0,0,.3716-1.0674v-1.08a1.52,1.52,0,0,0-.3716-1.0742,1.2618,1.2618,0,0,0-.9722-.4023,1.4782,1.4782,0,0,0-.9179.2763.8707.8707,0,0,0-.3662.7315V462.16a.8747.8747,0,0,0,.3662.7558A1.5235,1.5235,0,0,0,136.7734,463.18Z"/><path d="M143.6851,464.4517a3.1378,3.1378,0,0,1-1.2417-.2334,2.5713,2.5713,0,0,1-.9244-.66,2.9569,2.9569,0,0,1-.582-1.0322,4.65,4.65,0,0,1-.0058-2.7061,2.9409,2.9409,0,0,1,.57-1.0263,2.5252,2.5252,0,0,1,.9121-.6592,3.045,3.045,0,0,1,1.2241-.2344,2.9826,2.9826,0,0,1,1.272.252,2.4642,2.4642,0,0,1,.8882.6835,2.96,2.96,0,0,1,.5219,1.002,4.1636,4.1636,0,0,1,.1739,1.2187v.504h-4.1641v.1543a1.5326,1.5326,0,0,0,.3843,1.0908,1.4872,1.4872,0,0,0,1.14.4111,1.7021,1.7021,0,0,0,.9419-.2383,2.6791,2.6791,0,0,0,.6543-.6084l.8281.9268a2.5741,2.5741,0,0,1-1.05.8486A3.6569,3.6569,0,0,1,143.6851,464.4517Zm-.024-5.3995a1.2321,1.2321,0,0,0-.9721.4073,1.5392,1.5392,0,0,0-.36,1.0566v.0957h2.5679v-.1084a1.6444,1.6444,0,0,0-.3179-1.05A1.1019,1.1019,0,0,0,143.6611,459.0522Z"/><path d="M147.8491,464.3081v-6.2646h1.5357V459.34h.06a1.9945,1.9945,0,0,1,.1861-.4863,1.4874,1.4874,0,0,1,.33-.4141,1.58,1.58,0,0,1,.4859-.288,1.8169,1.8169,0,0,1,.6543-.1084h.3359v1.4521h-.48a2.4052,2.4052,0,0,0-1.1762.2285.7915.7915,0,0,0-.396.7442v3.84Z"/><path d="M155.4927,464.3081v-8.376h3.768a2.7559,2.7559,0,0,1,1.0381.1856,2.198,2.198,0,0,1,.7862.5283,2.2606,2.2606,0,0,1,.4917.8223,3.4208,3.4208,0,0,1,0,2.1171,2.27,2.27,0,0,1-.4917.8165,2.2123,2.2123,0,0,1-.7862.5283,2.7579,2.7579,0,0,1-1.0381.1855h-2.184v3.1924Zm1.584-4.5605h2.04a1.0151,1.0151,0,0,0,.72-.2461.91.91,0,0,0,.2637-.7012v-.5527a.8926.8926,0,0,0-.2637-.6954,1.03,1.03,0,0,0-.72-.24h-2.04Z"/><path d="M162.9692,464.3081v-6.2646h1.5357V459.34h.06a1.9945,1.9945,0,0,1,.1861-.4863,1.4878,1.4878,0,0,1,.33-.4141,1.5779,1.5779,0,0,1,.4858-.288,1.8169,1.8169,0,0,1,.6543-.1084h.3359v1.4521h-.48a2.4052,2.4052,0,0,0-1.1762.2285.7915.7915,0,0,0-.396.7442v3.84Z"/><path d="M170.1089,464.4517a3.0538,3.0538,0,0,1-1.2061-.2276,2.5053,2.5053,0,0,1-.9121-.66,3.02,3.02,0,0,1-.582-1.0381,4.2525,4.2525,0,0,1-.2041-1.3623,4.1886,4.1886,0,0,1,.2041-1.3555,2.9653,2.9653,0,0,1,.582-1.0264,2.5378,2.5378,0,0,1,.9121-.6543,3.0556,3.0556,0,0,1,1.2061-.2275,3.1006,3.1006,0,0,1,1.2119.2275,2.5254,2.5254,0,0,1,.918.6543,2.9653,2.9653,0,0,1,.582,1.0264,4.2022,4.2022,0,0,1,.2041,1.3555,4.2665,4.2665,0,0,1-.2041,1.3623,3.02,3.02,0,0,1-.582,1.0381,2.4933,2.4933,0,0,1-.918.66A3.0988,3.0988,0,0,1,170.1089,464.4517Zm0-1.2354a1.25,1.25,0,0,0,.96-.3721,1.5445,1.5445,0,0,0,.3482-1.0927v-1.1641a1.5227,1.5227,0,0,0-.3482-1.0791,1.2506,1.2506,0,0,0-.96-.3721,1.2354,1.2354,0,0,0-.9483.3721,1.523,1.523,0,0,0-.3476,1.0791v1.1641a1.5448,1.5448,0,0,0,.3476,1.0927A1.235,1.235,0,0,0,170.1089,463.2163Z"/><path d="M176.2891,464.3081a1.6354,1.6354,0,0,1-1.2061-.4131,1.5929,1.5929,0,0,1-.4141-1.18V459.28h-.9243v-1.2363h.48a.5753.5753,0,0,0,.4741-.1612.7861.7861,0,0,0,.126-.4863v-1.0684h1.38v1.7159h1.2842V459.28h-1.2842v3.792h1.1885v1.2363Z"/><path d="M181.3047,464.4517a3.1382,3.1382,0,0,1-1.2417-.2334,2.57,2.57,0,0,1-.9243-.66,2.957,2.957,0,0,1-.5821-1.0322,4.65,4.65,0,0,1-.0058-2.7061,2.9425,2.9425,0,0,1,.57-1.0263,2.5269,2.5269,0,0,1,.9121-.6592,3.0453,3.0453,0,0,1,1.2241-.2344,2.9826,2.9826,0,0,1,1.272.252,2.4625,2.4625,0,0,1,.8882.6835,2.96,2.96,0,0,1,.522,1.002,4.167,4.167,0,0,1,.1738,1.2187v.504h-4.1641v.1543a1.5331,1.5331,0,0,0,.3843,1.0908,1.4876,1.4876,0,0,0,1.14.4111,1.7025,1.7025,0,0,0,.9419-.2383,2.6787,2.6787,0,0,0,.6542-.6084l.8282.9268a2.5751,2.5751,0,0,1-1.05.8486A3.6566,3.6566,0,0,1,181.3047,464.4517Zm-.0239-5.3995a1.2323,1.2323,0,0,0-.9722.4073,1.5392,1.5392,0,0,0-.36,1.0566v.0957h2.5679v-.1084a1.6444,1.6444,0,0,0-.3179-1.05A1.1017,1.1017,0,0,0,181.2808,459.0522Z"/><path d="M187.94,464.4517a3.1636,3.1636,0,0,1-1.2358-.2276,2.39,2.39,0,0,1-.9063-.66,2.97,2.97,0,0,1-.5576-1.0381,4.4907,4.4907,0,0,1-.1924-1.3623,4.4229,4.4229,0,0,1,.1924-1.3555,2.9149,2.9149,0,0,1,.5576-1.0264,2.4192,2.4192,0,0,1,.9063-.6543A3.1654,3.1654,0,0,1,187.94,457.9a2.7246,2.7246,0,0,1,1.5659.42,2.3573,2.3573,0,0,1,.8941,1.1641l-1.26.5644a1.3061,1.3061,0,0,0-.4018-.6543,1.17,1.17,0,0,0-.7984-.2578,1.15,1.15,0,0,0-.9658.4073,1.6916,1.6916,0,0,0-.3179,1.0683v1.14a1.6631,1.6631,0,0,0,.3179,1.0625,1.1581,1.1581,0,0,0,.9658.4023,1.1993,1.1993,0,0,0,.8521-.2822,1.936,1.936,0,0,0,.4682-.7022l1.1758.5635a2.4545,2.4545,0,0,1-.9477,1.2422A2.7758,2.7758,0,0,1,187.94,464.4517Z"/><path d="M193.5806,464.3081a1.6354,1.6354,0,0,1-1.2061-.4131,1.5929,1.5929,0,0,1-.4141-1.18V459.28h-.9243v-1.2363h.48a.5753.5753,0,0,0,.4741-.1612.7861.7861,0,0,0,.126-.4863v-1.0684h1.38v1.7159H194.78V459.28h-1.2842v3.792h1.1885v1.2363Z"/><path d="M202.292,464.4517a3.95,3.95,0,0,1-1.4937-.27,2.9946,2.9946,0,0,1-1.14-.81,3.663,3.663,0,0,1-.7261-1.3379,6.1682,6.1682,0,0,1-.2519-1.8535,6.4116,6.4116,0,0,1,.2519-1.878,3.84,3.84,0,0,1,.7261-1.3808,3.094,3.094,0,0,1,1.14-.8457,3.7367,3.7367,0,0,1,1.4937-.2881,3.3874,3.3874,0,0,1,1.8721.4805,3.2949,3.2949,0,0,1,1.188,1.4521l-1.356.72a1.91,1.91,0,0,0-.5879-.9062,1.6862,1.6862,0,0,0-1.1162-.3418,1.7744,1.7744,0,0,0-1.41.6,2.4786,2.4786,0,0,0-.5219,1.6807v1.3193a2.4282,2.4282,0,0,0,.5219,1.6748,1.8,1.8,0,0,0,1.41.582,1.7176,1.7176,0,0,0,1.1582-.3847,2.2106,2.2106,0,0,0,.6538-.9473l1.2842.7559a3.6936,3.6936,0,0,1-1.2119,1.458A3.242,3.242,0,0,1,202.292,464.4517Z"/><path d="M206.6484,464.3081v-6.2646h1.5357V459.34h.06a1.9945,1.9945,0,0,1,.1861-.4863,1.4878,1.4878,0,0,1,.33-.4141,1.5779,1.5779,0,0,1,.4858-.288,1.8169,1.8169,0,0,1,.6543-.1084h.3359v1.4521h-.48a2.4052,2.4052,0,0,0-1.1762.2285.7915.7915,0,0,0-.396.7442v3.84Z"/><path d="M215.3,458.0435h1.44l-2.52,7.3808a3.1734,3.1734,0,0,1-.27.582,1.4471,1.4471,0,0,1-.354.4014,1.3366,1.3366,0,0,1-.4917.2285,2.8038,2.8038,0,0,1-.6724.0713h-.9238v-1.2353h1.1279l.2881-.875-2.2441-6.5537h1.5239l1.0923,3.3056.4077,1.58h.0723l.4321-1.58Z"/><path d="M217.748,458.0435h1.5357v1.0322h.0483a1.5739,1.5739,0,0,1,.6358-.8574A1.897,1.897,0,0,1,221.06,457.9a2.1412,2.1412,0,0,1,1.8295.8457,3.9907,3.9907,0,0,1,.63,2.418,4.0421,4.0421,0,0,1-.63,2.4365,2.1331,2.1331,0,0,1-1.8295.8516,1.8393,1.8393,0,0,1-1.0865-.3243,1.6753,1.6753,0,0,1-.6416-.8632h-.0483v3.4433H217.748Zm2.82,5.1367a1.2708,1.2708,0,0,0,.9721-.3965,1.4975,1.4975,0,0,0,.3716-1.0674v-1.08a1.52,1.52,0,0,0-.3716-1.0742,1.2616,1.2616,0,0,0-.9721-.4023,1.4783,1.4783,0,0,0-.918.2763.871.871,0,0,0-.3662.7315V462.16a.8749.8749,0,0,0,.3662.7558A1.5236,1.5236,0,0,0,220.5679,463.18Z"/><path d="M226.832,464.3081a1.6353,1.6353,0,0,1-1.206-.4131,1.5929,1.5929,0,0,1-.4141-1.18V459.28h-.9243v-1.2363h.48a.5753.5753,0,0,0,.4741-.1612.7861.7861,0,0,0,.126-.4863v-1.0684h1.38v1.7159h1.2841V459.28h-1.2841v3.792h1.1884v1.2363Z"/><path d="M231.8,464.4517a3.0533,3.0533,0,0,1-1.206-.2276,2.5048,2.5048,0,0,1-.9122-.66,3.02,3.02,0,0,1-.582-1.0381,4.2525,4.2525,0,0,1-.2041-1.3623,4.1886,4.1886,0,0,1,.2041-1.3555,2.9653,2.9653,0,0,1,.582-1.0264,2.5373,2.5373,0,0,1,.9122-.6543A3.0551,3.0551,0,0,1,231.8,457.9a3.1,3.1,0,0,1,1.2119.2275,2.5254,2.5254,0,0,1,.918.6543,2.9653,2.9653,0,0,1,.582,1.0264,4.2,4.2,0,0,1,.2041,1.3555,4.2637,4.2637,0,0,1-.2041,1.3623,3.02,3.02,0,0,1-.582,1.0381,2.4933,2.4933,0,0,1-.918.66A3.0981,3.0981,0,0,1,231.8,464.4517Zm0-1.2354a1.2506,1.2506,0,0,0,.96-.3721,1.5449,1.5449,0,0,0,.3481-1.0927v-1.1641a1.5231,1.5231,0,0,0-.3481-1.0791,1.2509,1.2509,0,0,0-.96-.3721,1.235,1.235,0,0,0-.9482.3721,1.5225,1.5225,0,0,0-.3477,1.0791v1.1641a1.5444,1.5444,0,0,0,.3477,1.0927A1.2346,1.2346,0,0,0,231.8,463.2163Z"/><path d="M241.6035,464.4517a3.9711,3.9711,0,0,1-1.83-.3848,4.2417,4.2417,0,0,1-1.29-1.01l1.0684-1.0332a3.0611,3.0611,0,0,0,.9658.7617,2.6453,2.6453,0,0,0,1.1821.2627,1.6659,1.6659,0,0,0,1.104-.3164,1.0589,1.0589,0,0,0,.3721-.8506.9665.9665,0,0,0-.24-.68,1.62,1.62,0,0,0-.9-.3809l-.7919-.1191q-2.5086-.3956-2.5079-2.4385a2.4146,2.4146,0,0,1,.21-1.0215,2.1679,2.1679,0,0,1,.606-.7813,2.81,2.81,0,0,1,.9541-.498,4.2356,4.2356,0,0,1,1.2656-.1748,4.0624,4.0624,0,0,1,1.6562.3135,3.2523,3.2523,0,0,1,1.2119.9248l-1.08,1.0224a2.4741,2.4741,0,0,0-.7559-.6181,2.34,2.34,0,0,0-1.1162-.2383,1.7013,1.7013,0,0,0-1.0259.2559.8463.8463,0,0,0-.3418.72.8553.8553,0,0,0,.2759.7021,1.9529,1.9529,0,0,0,.8877.333l.78.1436a3.5779,3.5779,0,0,1,1.8779.8115,2.15,2.15,0,0,1,.606,1.627,2.7181,2.7181,0,0,1-.21,1.0879,2.3579,2.3579,0,0,1-.6118.8408,2.7866,2.7866,0,0,1-.9844.5459A4.24,4.24,0,0,1,241.6035,464.4517Z"/><path d="M248.7676,464.4517a3.1378,3.1378,0,0,1-1.2417-.2334,2.57,2.57,0,0,1-.9243-.66,2.957,2.957,0,0,1-.5821-1.0322,4.65,4.65,0,0,1-.0058-2.7061,2.9409,2.9409,0,0,1,.57-1.0263,2.5252,2.5252,0,0,1,.9121-.6592A3.0453,3.0453,0,0,1,248.72,457.9a2.9826,2.9826,0,0,1,1.272.252,2.4625,2.4625,0,0,1,.8882.6835,2.9619,2.9619,0,0,1,.522,1.002,4.167,4.167,0,0,1,.1738,1.2187v.504h-4.1641v.1543a1.5331,1.5331,0,0,0,.3843,1.0908,1.4874,1.4874,0,0,0,1.14.4111,1.7021,1.7021,0,0,0,.9419-.2383,2.6791,2.6791,0,0,0,.6543-.6084l.8282.9268a2.5751,2.5751,0,0,1-1.05.8486A3.6566,3.6566,0,0,1,248.7676,464.4517Zm-.0239-5.3995a1.2321,1.2321,0,0,0-.9722.4073,1.5392,1.5392,0,0,0-.36,1.0566v.0957H249.98v-.1084a1.6444,1.6444,0,0,0-.3179-1.05A1.1017,1.1017,0,0,0,248.7437,459.0522Z"/><path d="M252.9316,464.3081v-6.2646h1.5357V459.34h.06a1.9945,1.9945,0,0,1,.1861-.4863,1.4878,1.4878,0,0,1,.33-.4141,1.5779,1.5779,0,0,1,.4858-.288,1.8169,1.8169,0,0,1,.6543-.1084h.3359v1.4521h-.48a2.4053,2.4053,0,0,0-1.1763.2285.7915.7915,0,0,0-.396.7442v3.84Z"/><path d="M259.0874,464.3081,257,458.0435h1.5117l.8765,2.7L260,462.9761h.084l.6118-2.2325.8521-2.7h1.4638l-2.1,6.2646Z"/><path d="M264.7988,457.1323a.93.93,0,0,1-.69-.2168.7578.7578,0,0,1-.21-.5517v-.24a.761.761,0,0,1,.21-.5517,1.2014,1.2014,0,0,1,1.374,0,.7481.7481,0,0,1,.2163.5517v.24a.7449.7449,0,0,1-.2163.5517A.9331.9331,0,0,1,264.7988,457.1323Zm-.7676.9112h1.5357v6.2646h-1.5357Z"/><path d="M269.8149,464.4517a3.1636,3.1636,0,0,1-1.2358-.2276,2.3887,2.3887,0,0,1-.9062-.66,2.9686,2.9686,0,0,1-.5577-1.0381,4.4908,4.4908,0,0,1-.1923-1.3623,4.423,4.423,0,0,1,.1923-1.3555,2.9135,2.9135,0,0,1,.5577-1.0264,2.418,2.418,0,0,1,.9062-.6543,3.1654,3.1654,0,0,1,1.2358-.2275,2.7249,2.7249,0,0,1,1.566.42,2.3576,2.3576,0,0,1,.894,1.1641l-1.26.5644a1.3061,1.3061,0,0,0-.4018-.6543,1.17,1.17,0,0,0-.7984-.2578,1.15,1.15,0,0,0-.9658.4073,1.6916,1.6916,0,0,0-.3179,1.0683v1.14a1.6631,1.6631,0,0,0,.3179,1.0625,1.1581,1.1581,0,0,0,.9658.4023,1.1993,1.1993,0,0,0,.8521-.2822,1.9375,1.9375,0,0,0,.4683-.7022l1.1757.5635a2.4545,2.4545,0,0,1-.9477,1.2422A2.7756,2.7756,0,0,1,269.8149,464.4517Z"/><path d="M275.9707,464.4517a3.1382,3.1382,0,0,1-1.2417-.2334,2.57,2.57,0,0,1-.9243-.66,2.9553,2.9553,0,0,1-.582-1.0322,4.6515,4.6515,0,0,1-.0059-2.7061,2.9425,2.9425,0,0,1,.57-1.0263,2.5269,2.5269,0,0,1,.9121-.6592,3.0455,3.0455,0,0,1,1.2242-.2344,2.9822,2.9822,0,0,1,1.2719.252,2.4625,2.4625,0,0,1,.8882.6835,2.96,2.96,0,0,1,.522,1.002,4.167,4.167,0,0,1,.1738,1.2187v.504h-4.1641v.1543a1.5331,1.5331,0,0,0,.3843,1.0908,1.4876,1.4876,0,0,0,1.14.4111,1.7025,1.7025,0,0,0,.9419-.2383,2.6809,2.6809,0,0,0,.6543-.6084l.8281.9268a2.5751,2.5751,0,0,1-1.05.8486A3.6566,3.6566,0,0,1,275.9707,464.4517Zm-.0239-5.3995a1.2323,1.2323,0,0,0-.9722.4073,1.54,1.54,0,0,0-.36,1.0566v.0957h2.5679v-.1084a1.6439,1.6439,0,0,0-.3179-1.05A1.1017,1.1017,0,0,0,275.9468,459.0522Z"/><path d="M282.187,464.4517a3.3567,3.3567,0,0,1-1.5117-.3057,3.4881,3.4881,0,0,1-1.08-.8457l.936-.9121a2.8547,2.8547,0,0,0,.7618.624,1.9517,1.9517,0,0,0,.9541.2275,1.3077,1.3077,0,0,0,.7978-.1914.6337.6337,0,0,0,.2461-.5283.5712.5712,0,0,0-.1738-.4385,1.11,1.11,0,0,0-.5943-.2216l-.624-.084a2.9694,2.9694,0,0,1-1.5537-.5821,1.6209,1.6209,0,0,1-.5342-1.3144,1.9492,1.9492,0,0,1,.168-.8213,1.74,1.74,0,0,1,.48-.624,2.2153,2.2153,0,0,1,.75-.3965,3.2528,3.2528,0,0,1,.978-.1377,4.4576,4.4576,0,0,1,.81.0664,2.9475,2.9475,0,0,1,.6421.1914,2.4892,2.4892,0,0,1,.5278.3125,4.9424,4.9424,0,0,1,.4683.4141l-.9.8994a2.3859,2.3859,0,0,0-.66-.48,1.8552,1.8552,0,0,0-.84-.1924,1.1556,1.1556,0,0,0-.7256.18.5742.5742,0,0,0-.2222.4688.5944.5944,0,0,0,.186.4736,1.2925,1.2925,0,0,0,.63.2344l.6363.0839q2.0272.2871,2.0278,1.8477a1.864,1.864,0,0,1-.186.834,1.9127,1.9127,0,0,1-.522.6484,2.4834,2.4834,0,0,1-.81.42A3.52,3.52,0,0,1,282.187,464.4517Z"/><path d="M463.7051,160.3081l-2.7363-8.376h1.62l1.2841,4.08.7432,2.7832h.0361l.7325-2.7832,1.2841-4.08H468.24l-2.7353,8.376Z"/><path d="M475.74,154.2954h-.0478l-.6485,1.332-1.7158,3.168-1.7158-3.168-.6475-1.332h-.0488v6.0127h-1.5v-8.376h1.7881l2.1484,4.0918H473.4l2.124-4.0918H477.24v8.376h-1.5Z"/><path d="M478.5,154.0435h1.4766l.6357,2.58.4922,2.1485h.0478l.5762-2.1485.7315-2.58h1.3925l.7559,2.58.5879,2.1485h.0478l.4922-2.1485.6241-2.58h1.4277l-1.7158,6.2646H484.416l-.8037-2.76-.4678-1.7041h-.0361l-.4561,1.7041-.7919,2.76h-1.6319Z"/><path d="M493.3926,160.3081a1.0761,1.0761,0,0,1-.7979-.2939,1.3511,1.3511,0,0,1-.3662-.7862h-.0723a1.4728,1.4728,0,0,1-.6357.918,2.17,2.17,0,0,1-1.1885.3057,2.0284,2.0284,0,0,1-1.4756-.502,1.7818,1.7818,0,0,1-.5166-1.34,1.6234,1.6234,0,0,1,.6963-1.4414,3.5039,3.5039,0,0,1,1.9805-.4727h1.0674V156.24a1.1321,1.1321,0,0,0-.2754-.8154,1.1857,1.1857,0,0,0-.8887-.2881,1.4748,1.4748,0,0,0-.87.2334,2.3128,2.3128,0,0,0-.5576.5586l-.9121-.8213a2.6559,2.6559,0,0,1,.9238-.875,3.04,3.04,0,0,1,1.5244-.332,2.863,2.863,0,0,1,1.9317.5742,2.0736,2.0736,0,0,1,.66,1.6524v2.9453h.624v1.2363Zm-2.544-.9727a1.6185,1.6185,0,0,0,.876-.2255.7414.7414,0,0,0,.3594-.668V157.62h-.9834q-1.2012,0-1.2.7627v.2031a.661.661,0,0,0,.2461.5655A1.1517,1.1517,0,0,0,490.8486,159.3354Z"/><path d="M495.4922,160.3081v-6.2646h1.5361V155.34h.06a1.9917,1.9917,0,0,1,.1865-.4863,1.4806,1.4806,0,0,1,.33-.4141,1.5812,1.5812,0,0,1,.4853-.288,1.8191,1.8191,0,0,1,.6543-.1084h.336v1.4521h-.48a2.408,2.408,0,0,0-1.1768.2285.7913.7913,0,0,0-.3955.7442v3.84Z"/><path d="M502.6807,160.4517a3.1421,3.1421,0,0,1-1.2422-.2334,2.5694,2.5694,0,0,1-.9239-.66,2.9506,2.9506,0,0,1-.582-1.0322,4.65,4.65,0,0,1-.0058-2.7061,2.94,2.94,0,0,1,.5693-1.0263,2.53,2.53,0,0,1,.9121-.6592,3.05,3.05,0,0,1,1.2246-.2344,2.98,2.98,0,0,1,1.2715.252,2.4618,2.4618,0,0,1,.8887.6835,2.97,2.97,0,0,1,.5215,1.002,4.15,4.15,0,0,1,.1738,1.2187v.504h-4.1641v.1543a1.5307,1.5307,0,0,0,.3848,1.0908,1.4872,1.4872,0,0,0,1.14.4111,1.7014,1.7014,0,0,0,.9414-.2383,2.67,2.67,0,0,0,.6543-.6084l.8282.9268a2.5735,2.5735,0,0,1-1.05.8486A3.6585,3.6585,0,0,1,502.6807,160.4517Zm-.0245-5.3995a1.231,1.231,0,0,0-.9716.4073,1.5371,1.5371,0,0,0-.36,1.0566v.0957h2.5684v-.1084a1.6446,1.6446,0,0,0-.3184-1.05A1.1013,1.1013,0,0,0,502.6562,155.0522Z"/><path d="M512.1484,160.4517a3.1679,3.1679,0,0,1-1.2363-.2276,2.3926,2.3926,0,0,1-.9062-.66,2.9686,2.9686,0,0,1-.5577-1.0381,4.5064,4.5064,0,0,1-.1923-1.3623,4.4383,4.4383,0,0,1,.1923-1.3555,2.9135,2.9135,0,0,1,.5577-1.0264,2.422,2.422,0,0,1,.9062-.6543,3.17,3.17,0,0,1,1.2363-.2275,2.7233,2.7233,0,0,1,1.5655.42,2.3614,2.3614,0,0,1,.8945,1.1641l-1.26.5644a1.3034,1.3034,0,0,0-.4023-.6543,1.1686,1.1686,0,0,0-.7979-.2578,1.15,1.15,0,0,0-.9658.4073,1.6917,1.6917,0,0,0-.3183,1.0683v1.14a1.6632,1.6632,0,0,0,.3183,1.0625,1.1581,1.1581,0,0,0,.9658.4023,1.198,1.198,0,0,0,.8516-.2822,1.9385,1.9385,0,0,0,.4688-.7022l1.1757.5635a2.4553,2.4553,0,0,1-.9482,1.2422A2.7739,2.7739,0,0,1,512.1484,160.4517Z"/><path d="M519.5762,159.2642h-.0606a2.0237,2.0237,0,0,1-.2217.4492,1.5713,1.5713,0,0,1-.8515.6426,2.2052,2.2052,0,0,1-.6787.0957,1.8043,1.8043,0,0,1-1.4873-.6358,2.8057,2.8057,0,0,1-.5166-1.8125v-3.96h1.5361v3.8046a1.6489,1.6489,0,0,0,.252.9893.9322.9322,0,0,0,.8046.3428,1.7093,1.7093,0,0,0,.4493-.0606,1.1382,1.1382,0,0,0,.3906-.1855,1.0349,1.0349,0,0,0,.2754-.3125.8535.8535,0,0,0,.1084-.4375v-4.1406h1.5361v6.2646h-1.5361Z"/><path d="M524.94,160.4517a3.36,3.36,0,0,1-1.5118-.3057,3.4935,3.4935,0,0,1-1.08-.8457l.9365-.9121a2.8373,2.8373,0,0,0,.7617.624A1.9493,1.9493,0,0,0,525,159.24a1.3091,1.3091,0,0,0,.7979-.1914.6339.6339,0,0,0,.246-.5283.5726.5726,0,0,0-.1738-.4385,1.1118,1.1118,0,0,0-.5947-.2216l-.624-.084a2.9707,2.9707,0,0,1-1.5537-.5821,1.6206,1.6206,0,0,1-.5342-1.3144,1.9569,1.9569,0,0,1,.1679-.8213,1.7483,1.7483,0,0,1,.4805-.624,2.2153,2.2153,0,0,1,.75-.3965,3.2525,3.2525,0,0,1,.9776-.1377,4.4622,4.4622,0,0,1,.8105.0664,2.9413,2.9413,0,0,1,.6416.1914,2.478,2.478,0,0,1,.5283.3125,4.9131,4.9131,0,0,1,.4678.4141l-.9.8994a2.376,2.376,0,0,0-.6592-.48,1.857,1.857,0,0,0-.8408-.1924,1.157,1.157,0,0,0-.7256.18.574.574,0,0,0-.2217.4688.5941.5941,0,0,0,.1856.4736,1.2921,1.2921,0,0,0,.63.2344l.6367.0839q2.0274.2871,2.0273,1.8477a1.8637,1.8637,0,0,1-.1855.834,1.9118,1.9118,0,0,1-.5225.6484,2.48,2.48,0,0,1-.81.42A3.5246,3.5246,0,0,1,524.94,160.4517Z"/><path d="M530.7363,160.3081a1.6345,1.6345,0,0,1-1.206-.4131,1.5929,1.5929,0,0,1-.4141-1.18V155.28h-.9248v-1.2363h.4805a.5748.5748,0,0,0,.4736-.1612.7861.7861,0,0,0,.126-.4863v-1.0684h1.38v1.7159h1.2841V155.28h-1.2841v3.792H531.84v1.2363Z"/><path d="M535.7041,160.4517a3.0524,3.0524,0,0,1-1.2061-.2276,2.5011,2.5011,0,0,1-.9121-.66,3.012,3.012,0,0,1-.582-1.0381,4.2387,4.2387,0,0,1-.2041-1.3623,4.1751,4.1751,0,0,1,.2041-1.3555,2.9573,2.9573,0,0,1,.582-1.0264,2.5335,2.5335,0,0,1,.9121-.6543,3.0542,3.0542,0,0,1,1.2061-.2275,3.1034,3.1034,0,0,1,1.2119.2275,2.53,2.53,0,0,1,.918.6543,2.9732,2.9732,0,0,1,.582,1.0264,4.2,4.2,0,0,1,.2041,1.3555,4.2637,4.2637,0,0,1-.2041,1.3623,3.0284,3.0284,0,0,1-.582,1.0381,2.4974,2.4974,0,0,1-.918.66A3.1016,3.1016,0,0,1,535.7041,160.4517Zm0-1.2354a1.2521,1.2521,0,0,0,.96-.3721,1.5471,1.5471,0,0,0,.3476-1.0927v-1.1641a1.5253,1.5253,0,0,0-.3476-1.0791,1.2524,1.2524,0,0,0-.96-.3721,1.2343,1.2343,0,0,0-.9482.3721,1.52,1.52,0,0,0-.3477,1.0791v1.1641a1.5421,1.5421,0,0,0,.3477,1.0927A1.2339,1.2339,0,0,0,535.7041,159.2163Z"/><path d="M539.9756,160.3081v-6.2646h1.5361v1.0439h.06a2.0426,2.0426,0,0,1,.5762-.84,1.62,1.62,0,0,1,1.1045-.3477,1.97,1.97,0,0,1,1.1152.3115,1.8443,1.8443,0,0,1,.6963.9483h.0244a1.7606,1.7606,0,0,1,.666-.8936,2.06,2.06,0,0,1,1.2539-.3662,1.7,1.7,0,0,1,1.4219.6357,2.885,2.885,0,0,1,.498,1.8125v3.96h-1.5361v-3.8047q0-1.3433-1.0078-1.3437a1.4566,1.4566,0,0,0-.4385.0664,1.1779,1.1779,0,0,0-.3721.1914.9075.9075,0,0,0-.3535.75v4.1406h-1.5361v-3.8047q0-1.3433-1.0078-1.3437a1.4074,1.4074,0,0,0-.4258.0664,1.158,1.158,0,0,0-.3721.1914,1.0006,1.0006,0,0,0-.2646.3125.9017.9017,0,0,0-.1016.4375v4.1406Z"/><path d="M553.1631,160.4517a3.1339,3.1339,0,0,1-1.2412-.2334,2.572,2.572,0,0,1-.9248-.66,2.9649,2.9649,0,0,1-.5821-1.0322,4.65,4.65,0,0,1-.0058-2.7061,2.9418,2.9418,0,0,1,.57-1.0263,2.5209,2.5209,0,0,1,.9121-.6592,3.0412,3.0412,0,0,1,1.2236-.2344,2.985,2.985,0,0,1,1.2725.252,2.465,2.465,0,0,1,.8877.6835,2.9541,2.9541,0,0,1,.5225,1.002,4.1838,4.1838,0,0,1,.1738,1.2187v.504h-4.1641v.1543a1.5346,1.5346,0,0,0,.3838,1.0908,1.4875,1.4875,0,0,0,1.14.4111,1.7025,1.7025,0,0,0,.9423-.2383,2.6863,2.6863,0,0,0,.6543-.6084l.8282.9268a2.5767,2.5767,0,0,1-1.0508.8486A3.655,3.655,0,0,1,553.1631,160.4517Zm-.0235-5.3995a1.2331,1.2331,0,0,0-.9726.4073,1.5414,1.5414,0,0,0-.3594,1.0566v.0957h2.5674v-.1084a1.6443,1.6443,0,0,0-.3174-1.05A1.1024,1.1024,0,0,0,553.14,155.0522Z"/><path d="M557.3281,160.3081v-6.2646h1.5352V155.34h.0605a1.993,1.993,0,0,1,.1856-.4863,1.4969,1.4969,0,0,1,.33-.4141,1.5747,1.5747,0,0,1,.4863-.288,1.8149,1.8149,0,0,1,.6543-.1084h.3359v1.4521h-.4805a2.403,2.403,0,0,0-1.1757.2285.7919.7919,0,0,0-.3965.7442v3.84Z"/><path d="M567.4072,160.4517a3.1428,3.1428,0,0,1-1.2422-.2334,2.57,2.57,0,0,1-.9238-.66,2.949,2.949,0,0,1-.582-1.0322,4.6515,4.6515,0,0,1-.0059-2.7061,2.9417,2.9417,0,0,1,.5694-1.0263,2.53,2.53,0,0,1,.9121-.6592,3.0488,3.0488,0,0,1,1.2246-.2344,2.98,2.98,0,0,1,1.2715.252,2.4606,2.4606,0,0,1,.8886.6835,2.9663,2.9663,0,0,1,.5215,1.002,4.15,4.15,0,0,1,.1738,1.2187v.504h-4.164v.1543a1.5311,1.5311,0,0,0,.3847,1.0908,1.4876,1.4876,0,0,0,1.14.4111,1.7014,1.7014,0,0,0,.9414-.2383,2.672,2.672,0,0,0,.6543-.6084l.8281.9268a2.5722,2.5722,0,0,1-1.05.8486A3.6579,3.6579,0,0,1,567.4072,160.4517Zm-.0244-5.3995a1.2314,1.2314,0,0,0-.9717.4073,1.5375,1.5375,0,0,0-.36,1.0566v.0957h2.5683v-.1084a1.6446,1.6446,0,0,0-.3183-1.05A1.1013,1.1013,0,0,0,567.3828,155.0522Z"/><path d="M571.5713,160.3081v-6.2646h1.5361v1.0439h.06a2.0049,2.0049,0,0,1,.6064-.8457,1.7518,1.7518,0,0,1,1.1455-.3418,1.8049,1.8049,0,0,1,1.4883.6357,2.8136,2.8136,0,0,1,.5166,1.8125v3.96h-1.5361v-3.8047a1.7364,1.7364,0,0,0-.24-1.0078.9071.9071,0,0,0-.792-.3359,1.6081,1.6081,0,0,0-.4619.0664,1.2972,1.2972,0,0,0-.3965.1914.9913.9913,0,0,0-.2813.3125.8532.8532,0,0,0-.1084.4375v4.1406Z"/><path d="M579.875,160.3081l-2.0879-6.2646h1.5117l.877,2.7.6113,2.2325h.084l.6123-2.2325.8516-2.7h1.4638l-2.1,6.2646Z"/><path d="M585.5869,153.1323a.9286.9286,0,0,1-.6894-.2168.7578.7578,0,0,1-.21-.5517v-.24a.761.761,0,0,1,.21-.5517,1.2014,1.2014,0,0,1,1.374,0,.75.75,0,0,1,.2158.5517v.24a.7469.7469,0,0,1-.2158.5517A.9344.9344,0,0,1,585.5869,153.1323Zm-.7676.9112h1.5362v6.2646h-1.5362Z"/><path d="M588.1309,160.3081v-6.2646h1.5361V155.34h.06a1.9917,1.9917,0,0,1,.1865-.4863,1.4788,1.4788,0,0,1,.33-.4141,1.5812,1.5812,0,0,1,.4853-.288,1.8191,1.8191,0,0,1,.6543-.1084h.336v1.4521h-.48a2.4078,2.4078,0,0,0-1.1768.2285.7912.7912,0,0,0-.3955.7442v3.84Z"/><path d="M595.2715,160.4517a3.0521,3.0521,0,0,1-1.2061-.2276,2.5011,2.5011,0,0,1-.9121-.66,3.012,3.012,0,0,1-.582-1.0381,4.2387,4.2387,0,0,1-.2041-1.3623,4.1751,4.1751,0,0,1,.2041-1.3555,2.9573,2.9573,0,0,1,.582-1.0264,2.5335,2.5335,0,0,1,.9121-.6543,3.0539,3.0539,0,0,1,1.2061-.2275,3.1038,3.1038,0,0,1,1.2119.2275,2.53,2.53,0,0,1,.918.6543,2.9732,2.9732,0,0,1,.582,1.0264,4.2022,4.2022,0,0,1,.2041,1.3555,4.2665,4.2665,0,0,1-.2041,1.3623,3.0284,3.0284,0,0,1-.582,1.0381,2.4974,2.4974,0,0,1-.918.66A3.102,3.102,0,0,1,595.2715,160.4517Zm0-1.2354a1.2517,1.2517,0,0,0,.96-.3721,1.5467,1.5467,0,0,0,.3477-1.0927v-1.1641a1.5248,1.5248,0,0,0-.3477-1.0791,1.2521,1.2521,0,0,0-.96-.3721,1.2346,1.2346,0,0,0-.9483.3721,1.5207,1.5207,0,0,0-.3476,1.0791v1.1641a1.5425,1.5425,0,0,0,.3476,1.0927A1.2343,1.2343,0,0,0,595.2715,159.2163Z"/><path d="M599.543,160.3081v-6.2646h1.5361v1.0439h.06a2.0049,2.0049,0,0,1,.6064-.8457,1.7518,1.7518,0,0,1,1.1455-.3418,1.8049,1.8049,0,0,1,1.4883.6357,2.8136,2.8136,0,0,1,.5166,1.8125v3.96h-1.5361v-3.8047a1.7356,1.7356,0,0,0-.24-1.0078.9068.9068,0,0,0-.792-.3359,1.6091,1.6091,0,0,0-.4619.0664,1.2978,1.2978,0,0,0-.3964.1914.99.99,0,0,0-.2813.3125.8522.8522,0,0,0-.1084.4375v4.1406Z"/><path d="M606.5986,160.3081v-6.2646h1.5362v1.0439h.0595a2.0436,2.0436,0,0,1,.5762-.84,1.6206,1.6206,0,0,1,1.1045-.3477,1.97,1.97,0,0,1,1.1152.3115,1.8438,1.8438,0,0,1,.6963.9483h.0244a1.7608,1.7608,0,0,1,.6661-.8936,2.06,2.06,0,0,1,1.2539-.3662,1.7,1.7,0,0,1,1.4218.6357,2.8843,2.8843,0,0,1,.4981,1.8125v3.96h-1.5362v-3.8047q0-1.3433-1.0078-1.3437a1.4565,1.4565,0,0,0-.4384.0664,1.1769,1.1769,0,0,0-.3721.1914.9075.9075,0,0,0-.3535.75v4.1406h-1.5362v-3.8047q0-1.3433-1.0078-1.3437a1.4084,1.4084,0,0,0-.4258.0664,1.1564,1.1564,0,0,0-.372.1914,1.0022,1.0022,0,0,0-.2647.3125.9017.9017,0,0,0-.1015.4375v4.1406Z"/><path d="M619.7861,160.4517a3.1343,3.1343,0,0,1-1.2412-.2334,2.5737,2.5737,0,0,1-.9248-.66,2.9648,2.9648,0,0,1-.582-1.0322,4.6515,4.6515,0,0,1-.0059-2.7061,2.945,2.945,0,0,1,.57-1.0263,2.5226,2.5226,0,0,1,.9121-.6592,3.0413,3.0413,0,0,1,1.2237-.2344,2.9842,2.9842,0,0,1,1.2724.252,2.465,2.465,0,0,1,.8877.6835,2.9505,2.9505,0,0,1,.5225,1.002,4.1838,4.1838,0,0,1,.1738,1.2187v.504h-4.164v.1543a1.5346,1.5346,0,0,0,.3838,1.0908,1.4872,1.4872,0,0,0,1.14.4111,1.7029,1.7029,0,0,0,.9424-.2383,2.69,2.69,0,0,0,.6543-.6084l.8281.9268a2.5754,2.5754,0,0,1-1.0508.8486A3.6546,3.6546,0,0,1,619.7861,160.4517Zm-.0234-5.3995a1.2335,1.2335,0,0,0-.9727.4073,1.5418,1.5418,0,0,0-.3593,1.0566v.0957h2.5673v-.1084a1.6442,1.6442,0,0,0-.3173-1.05A1.1026,1.1026,0,0,0,619.7627,155.0522Z"/><path d="M623.9512,160.3081v-6.2646h1.5351v1.0439h.0606a2.0113,2.0113,0,0,1,.6054-.8457,1.7529,1.7529,0,0,1,1.1465-.3418,1.8076,1.8076,0,0,1,1.4883.6357,2.8136,2.8136,0,0,1,.5156,1.8125v3.96h-1.5361v-3.8047a1.7364,1.7364,0,0,0-.24-1.0078.9071.9071,0,0,0-.792-.3359,1.6132,1.6132,0,0,0-.4619.0664,1.2917,1.2917,0,0,0-.3955.1914,1.0053,1.0053,0,0,0-.2823.3125.8532.8532,0,0,0-.1084.4375v4.1406Z"/><path d="M632.9629,160.3081a1.6347,1.6347,0,0,1-1.2061-.4131,1.5933,1.5933,0,0,1-.414-1.18V155.28h-.9248v-1.2363h.48a.5749.5749,0,0,0,.4737-.1612.7861.7861,0,0,0,.1259-.4863v-1.0684h1.38v1.7159h1.2842V155.28h-1.2842v3.792h1.1885v1.2363Z"/><path d="M135.4409,167.3081l-2.7363-8.376h1.62l1.2842,4.08.7436,2.7832h.0362l.7319-2.7832,1.2842-4.08h1.5718l-2.7359,8.376Z"/><path d="M147.4766,161.2954h-.0484l-.6479,1.332-1.7158,3.168-1.7159-3.168-.6479-1.332h-.0484v6.0127h-1.5v-8.376H142.94l2.148,4.0918h.0478l2.1241-4.0918h1.7163v8.376h-1.5Z"/><path d="M150.2363,161.0435h1.4761l.6362,2.58.4917,2.1485h.0484l.5757-2.1485.7319-2.58h1.3921l.7558,2.58.5884,2.1485h.0479l.4922-2.1485.624-2.58h1.4277l-1.7158,6.2646h-1.6563l-.8037-2.76-.4682-1.7041h-.0362l-.4555,1.7041-.792,2.76h-1.6323Z"/><path d="M165.1284,167.3081a1.0768,1.0768,0,0,1-.7978-.2939,1.3505,1.3505,0,0,1-.3662-.7862h-.0723a1.4691,1.4691,0,0,1-.6358.918,2.1679,2.1679,0,0,1-1.1879.3057,2.0286,2.0286,0,0,1-1.4761-.502,1.783,1.783,0,0,1-.5161-1.34,1.6221,1.6221,0,0,1,.6963-1.4414,3.5015,3.5015,0,0,1,1.98-.4727H163.82V163.24a1.1323,1.1323,0,0,0-.2759-.8154,1.1834,1.1834,0,0,0-.8882-.2881,1.4729,1.4729,0,0,0-.87.2334,2.3057,2.3057,0,0,0-.5576.5586l-.9121-.8213a2.6516,2.6516,0,0,1,.9238-.875,3.037,3.037,0,0,1,1.524-.332,2.8643,2.8643,0,0,1,1.9321.5742,2.0752,2.0752,0,0,1,.66,1.6524v2.9453h.6241v1.2363Zm-2.5439-.9727a1.6184,1.6184,0,0,0,.8759-.2255.7408.7408,0,0,0,.36-.668V164.62h-.9839q-1.2,0-1.2.7627v.2031a.6613.6613,0,0,0,.2461.5655A1.1533,1.1533,0,0,0,162.5845,166.3354Z"/><path d="M167.2285,167.3081v-6.2646h1.5357V162.34h.06a1.9945,1.9945,0,0,1,.1861-.4863,1.4874,1.4874,0,0,1,.33-.4141,1.58,1.58,0,0,1,.4859-.288,1.8169,1.8169,0,0,1,.6543-.1084h.3359v1.4521h-.48a2.4052,2.4052,0,0,0-1.1762.2285.7915.7915,0,0,0-.396.7442v3.84Z"/><path d="M174.416,167.4517a3.1382,3.1382,0,0,1-1.2417-.2334,2.5718,2.5718,0,0,1-.9243-.66,2.9553,2.9553,0,0,1-.582-1.0322,4.6515,4.6515,0,0,1-.0059-2.7061,2.9425,2.9425,0,0,1,.57-1.0263,2.5269,2.5269,0,0,1,.9121-.6592,3.0455,3.0455,0,0,1,1.2242-.2344,2.9818,2.9818,0,0,1,1.2719.252,2.4625,2.4625,0,0,1,.8882.6835,2.9584,2.9584,0,0,1,.522,1.002,4.167,4.167,0,0,1,.1738,1.2187v.504H173.06v.1543a1.533,1.533,0,0,0,.3842,1.0908,1.4876,1.4876,0,0,0,1.14.4111,1.7023,1.7023,0,0,0,.9419-.2383,2.6809,2.6809,0,0,0,.6543-.6084l.8281.9268a2.5738,2.5738,0,0,1-1.05.8486A3.6563,3.6563,0,0,1,174.416,167.4517Zm-.0239-5.3995a1.2324,1.2324,0,0,0-.9722.4073,1.54,1.54,0,0,0-.36,1.0566v.0957h2.5678v-.1084a1.6444,1.6444,0,0,0-.3178-1.05A1.102,1.102,0,0,0,174.3921,162.0522Z"/><path d="M184.1123,167.4517a3.9711,3.9711,0,0,1-1.83-.3848,4.24,4.24,0,0,1-1.29-1.01l1.0683-1.0332a3.0626,3.0626,0,0,0,.9659.7617,2.6453,2.6453,0,0,0,1.1821.2627,1.6659,1.6659,0,0,0,1.104-.3164,1.0589,1.0589,0,0,0,.3721-.8506.9665.9665,0,0,0-.24-.68,1.62,1.62,0,0,0-.9-.3809l-.792-.1191q-2.5085-.3955-2.5078-2.4385a2.4146,2.4146,0,0,1,.21-1.0215,2.1687,2.1687,0,0,1,.6059-.7813,2.8122,2.8122,0,0,1,.9541-.498,4.2368,4.2368,0,0,1,1.2657-.1748,4.0624,4.0624,0,0,1,1.6562.3135,3.2523,3.2523,0,0,1,1.2119.9248l-1.08,1.0224a2.4741,2.4741,0,0,0-.7559-.6181,2.34,2.34,0,0,0-1.1162-.2383,1.7013,1.7013,0,0,0-1.0259.2559.8463.8463,0,0,0-.3418.72.8553.8553,0,0,0,.2759.7021,1.9529,1.9529,0,0,0,.8877.333l.78.1436a3.5779,3.5779,0,0,1,1.8779.8115,2.15,2.15,0,0,1,.6059,1.627,2.7181,2.7181,0,0,1-.21,1.0879,2.36,2.36,0,0,1-.6118.8408,2.7866,2.7866,0,0,1-.9844.5459A4.24,4.24,0,0,1,184.1123,167.4517Z"/><path d="M191.228,167.4517a3.0533,3.0533,0,0,1-1.206-.2276,2.5036,2.5036,0,0,1-.9121-.66,3.02,3.02,0,0,1-.5821-1.0381,4.2525,4.2525,0,0,1-.2041-1.3623,4.1886,4.1886,0,0,1,.2041-1.3555,2.9654,2.9654,0,0,1,.5821-1.0264,2.536,2.536,0,0,1,.9121-.6543,3.0551,3.0551,0,0,1,1.206-.2275,3.1,3.1,0,0,1,1.2119.2275,2.5246,2.5246,0,0,1,.918.6543,2.9637,2.9637,0,0,1,.582,1.0264,4.2,4.2,0,0,1,.2041,1.3555,4.2637,4.2637,0,0,1-.2041,1.3623,3.0185,3.0185,0,0,1-.582,1.0381,2.4925,2.4925,0,0,1-.918.66A3.0981,3.0981,0,0,1,191.228,167.4517Zm0-1.2354a1.25,1.25,0,0,0,.96-.3721,1.5449,1.5449,0,0,0,.3481-1.0927v-1.1641a1.5231,1.5231,0,0,0-.3481-1.0791,1.2508,1.2508,0,0,0-.96-.3721,1.235,1.235,0,0,0-.9482.3721,1.523,1.523,0,0,0-.3477,1.0791v1.1641a1.5448,1.5448,0,0,0,.3477,1.0927A1.2346,1.2346,0,0,0,191.228,166.2163Z"/><path d="M197.0356,167.3081a1.5267,1.5267,0,0,1-1.164-.3965,1.5658,1.5658,0,0,1-.3716-1.1162v-7.3672h1.5356v7.6436h.8282v1.2363Z"/><path d="M202.7715,166.2642h-.06a2.0237,2.0237,0,0,1-.2217.4492,1.6313,1.6313,0,0,1-.3481.3789,1.6128,1.6128,0,0,1-.5039.2637,2.2041,2.2041,0,0,1-.6782.0957,1.8046,1.8046,0,0,1-1.4878-.6358,2.8086,2.8086,0,0,1-.5161-1.8125v-3.96h1.5361v3.8046a1.6489,1.6489,0,0,0,.252.9893.9313.9313,0,0,0,.8042.3428,1.7128,1.7128,0,0,0,.45-.0606,1.14,1.14,0,0,0,.39-.1855,1.0365,1.0365,0,0,0,.2759-.3125.8533.8533,0,0,0,.1079-.4375v-4.1406h1.5361v6.2646h-1.5361Z"/><path d="M208.04,167.3081a1.6353,1.6353,0,0,1-1.206-.4131,1.5929,1.5929,0,0,1-.4141-1.18V162.28h-.9243v-1.2363h.48a.5753.5753,0,0,0,.4741-.1612.7861.7861,0,0,0,.126-.4863v-1.0684h1.38v1.7159H209.24V162.28h-1.2841v3.792h1.1884v1.2363Z"/><path d="M211.3394,160.1323a.93.93,0,0,1-.69-.2168.7582.7582,0,0,1-.21-.5517v-.24a.7614.7614,0,0,1,.21-.5517,1.2014,1.2014,0,0,1,1.374,0,.7481.7481,0,0,1,.2163.5517v.24a.7449.7449,0,0,1-.2163.5517A.9329.9329,0,0,1,211.3394,160.1323Zm-.7676.9112h1.5356v6.2646h-1.5356Z"/><path d="M216.3677,167.4517a3.0538,3.0538,0,0,1-1.2061-.2276,2.5053,2.5053,0,0,1-.9121-.66,3.02,3.02,0,0,1-.582-1.0381,4.25,4.25,0,0,1-.2041-1.3623,4.1859,4.1859,0,0,1,.2041-1.3555,2.9653,2.9653,0,0,1,.582-1.0264,2.5378,2.5378,0,0,1,.9121-.6543,3.0556,3.0556,0,0,1,1.2061-.2275,3.1006,3.1006,0,0,1,1.2119.2275,2.5254,2.5254,0,0,1,.918.6543,2.9653,2.9653,0,0,1,.582,1.0264,4.2022,4.2022,0,0,1,.2041,1.3555,4.2665,4.2665,0,0,1-.2041,1.3623,3.02,3.02,0,0,1-.582,1.0381,2.4933,2.4933,0,0,1-.918.66A3.0988,3.0988,0,0,1,216.3677,167.4517Zm0-1.2354a1.25,1.25,0,0,0,.96-.3721,1.5445,1.5445,0,0,0,.3482-1.0927v-1.1641a1.5227,1.5227,0,0,0-.3482-1.0791,1.2506,1.2506,0,0,0-.96-.3721,1.2354,1.2354,0,0,0-.9483.3721,1.523,1.523,0,0,0-.3476,1.0791v1.1641a1.5448,1.5448,0,0,0,.3476,1.0927A1.235,1.235,0,0,0,216.3677,166.2163Z"/><path d="M220.64,167.3081v-6.2646h1.5357v1.0439h.06a2.0072,2.0072,0,0,1,.6059-.8457,1.7524,1.7524,0,0,1,1.146-.3418,1.8064,1.8064,0,0,1,1.4883.6357,2.8142,2.8142,0,0,1,.5161,1.8125v3.96h-1.5361v-3.8047a1.7356,1.7356,0,0,0-.24-1.0078.9068.9068,0,0,0-.792-.3359,1.6116,1.6116,0,0,0-.4619.0664,1.2967,1.2967,0,0,0-.396.1914.9985.9985,0,0,0-.2817.3125.8522.8522,0,0,0-.1084.4375v4.1406Z"/><path d="M233.2271,167.4517a3.9708,3.9708,0,0,1-1.83-.3848,4.2421,4.2421,0,0,1-1.29-1.01l1.0684-1.0332a3.0633,3.0633,0,0,0,.9658.7617,2.6456,2.6456,0,0,0,1.1821.2627,1.6659,1.6659,0,0,0,1.104-.3164,1.0589,1.0589,0,0,0,.3721-.8506.9668.9668,0,0,0-.24-.68,1.6208,1.6208,0,0,0-.9-.3809l-.792-.1191q-2.5086-.3955-2.5078-2.4385a2.4146,2.4146,0,0,1,.21-1.0215,2.169,2.169,0,0,1,.606-.7813,2.8113,2.8113,0,0,1,.9541-.498,4.2366,4.2366,0,0,1,1.2656-.1748,4.0629,4.0629,0,0,1,1.6563.3135,3.2539,3.2539,0,0,1,1.2119.9248l-1.08,1.0224a2.4741,2.4741,0,0,0-.7559-.6181,2.339,2.339,0,0,0-1.1162-.2383,1.7012,1.7012,0,0,0-1.0258.2559.846.846,0,0,0-.3418.72.8555.8555,0,0,0,.2758.7021,1.9529,1.9529,0,0,0,.8877.333l.78.1436a3.5775,3.5775,0,0,1,1.8779.8115,2.15,2.15,0,0,1,.606,1.627,2.7164,2.7164,0,0,1-.21,1.0879,2.3579,2.3579,0,0,1-.6118.8408,2.7866,2.7866,0,0,1-.9844.5459A4.24,4.24,0,0,1,233.2271,167.4517Z"/><path d="M240.3911,167.4517a3.1382,3.1382,0,0,1-1.2417-.2334,2.5718,2.5718,0,0,1-.9243-.66,2.9553,2.9553,0,0,1-.582-1.0322,4.6515,4.6515,0,0,1-.0059-2.7061,2.9425,2.9425,0,0,1,.57-1.0263,2.5269,2.5269,0,0,1,.9121-.6592,3.0455,3.0455,0,0,1,1.2242-.2344,2.9818,2.9818,0,0,1,1.2719.252,2.4625,2.4625,0,0,1,.8882.6835,2.9584,2.9584,0,0,1,.522,1.002,4.167,4.167,0,0,1,.1738,1.2187v.504h-4.164v.1543a1.533,1.533,0,0,0,.3842,1.0908,1.4876,1.4876,0,0,0,1.14.4111,1.7023,1.7023,0,0,0,.9419-.2383,2.6809,2.6809,0,0,0,.6543-.6084l.8281.9268a2.5738,2.5738,0,0,1-1.05.8486A3.6563,3.6563,0,0,1,240.3911,167.4517Zm-.0239-5.3995a1.2324,1.2324,0,0,0-.9722.4073,1.54,1.54,0,0,0-.36,1.0566v.0957h2.5678v-.1084a1.6444,1.6444,0,0,0-.3178-1.05A1.102,1.102,0,0,0,240.3672,162.0522Z"/><path d="M244.5552,167.3081v-6.2646h1.5356V162.34h.06a1.99,1.99,0,0,1,.186-.4863,1.49,1.49,0,0,1,.33-.4141,1.5779,1.5779,0,0,1,.4858-.288,1.8172,1.8172,0,0,1,.6543-.1084h.336v1.4521h-.48a2.4059,2.4059,0,0,0-1.1763.2285.7915.7915,0,0,0-.396.7442v3.84Z"/><path d="M250.7109,167.3081l-2.0879-6.2646h1.5118l.8764,2.7.6118,2.2325h.084l.6118-2.2325.8521-2.7h1.4639l-2.1,6.2646Z"/><path d="M256.4229,160.1323a.93.93,0,0,1-.69-.2168.7582.7582,0,0,1-.21-.5517v-.24a.7615.7615,0,0,1,.21-.5517,1.2014,1.2014,0,0,1,1.374,0,.7481.7481,0,0,1,.2163.5517v.24a.7449.7449,0,0,1-.2163.5517A.9329.9329,0,0,1,256.4229,160.1323Zm-.7676.9112h1.5356v6.2646h-1.5356Z"/><path d="M261.4385,167.4517a3.1638,3.1638,0,0,1-1.2359-.2276,2.39,2.39,0,0,1-.9062-.66,2.9668,2.9668,0,0,1-.5576-1.0381,4.4907,4.4907,0,0,1-.1924-1.3623,4.4229,4.4229,0,0,1,.1924-1.3555,2.9117,2.9117,0,0,1,.5576-1.0264,2.4188,2.4188,0,0,1,.9062-.6543,3.1656,3.1656,0,0,1,1.2359-.2275,2.7248,2.7248,0,0,1,1.5659.42,2.3571,2.3571,0,0,1,.894,1.1641l-1.26.5644a1.3069,1.3069,0,0,0-.4019-.6543,1.17,1.17,0,0,0-.7983-.2578,1.15,1.15,0,0,0-.9658.4073,1.691,1.691,0,0,0-.3179,1.0683v1.14a1.6625,1.6625,0,0,0,.3179,1.0625,1.1579,1.1579,0,0,0,.9658.4023,1.1992,1.1992,0,0,0,.852-.2822,1.9362,1.9362,0,0,0,.4683-.7022l1.1758.5635a2.4546,2.4546,0,0,1-.9478,1.2422A2.7755,2.7755,0,0,1,261.4385,167.4517Z"/><path d="M267.5947,167.4517a3.1385,3.1385,0,0,1-1.2417-.2334,2.5718,2.5718,0,0,1-.9243-.66,2.9569,2.9569,0,0,1-.582-1.0322,4.6515,4.6515,0,0,1-.0059-2.7061,2.9441,2.9441,0,0,1,.57-1.0263,2.5264,2.5264,0,0,1,.9122-.6592,3.0447,3.0447,0,0,1,1.2241-.2344,2.9818,2.9818,0,0,1,1.2719.252,2.4625,2.4625,0,0,1,.8882.6835,2.9584,2.9584,0,0,1,.522,1.002,4.167,4.167,0,0,1,.1738,1.2187v.504h-4.164v.1543a1.533,1.533,0,0,0,.3842,1.0908,1.4876,1.4876,0,0,0,1.14.4111,1.7023,1.7023,0,0,0,.9419-.2383,2.6809,2.6809,0,0,0,.6543-.6084l.8281.9268a2.5738,2.5738,0,0,1-1.05.8486A3.6563,3.6563,0,0,1,267.5947,167.4517Zm-.0239-5.3995a1.2324,1.2324,0,0,0-.9722.4073,1.54,1.54,0,0,0-.36,1.0566v.0957h2.5678v-.1084a1.6444,1.6444,0,0,0-.3178-1.05A1.1019,1.1019,0,0,0,267.5708,162.0522Z"/><path d="M168.2437,404.0981l-1.1915,1.3174-.0087,2.7959-1.0079-.0039.0254-8.376,1.0078.0039-.0136,4.4522h.0361l1.2051-1.4492,2.54-2.9922,1.2364.0039-3.1309,3.5791,3.3213,4.7978-1.2481-.0039Z"/><path d="M180.1919,401.1958h-.06l-.7119,1.4014-2.0156,3.6416-1.9922-3.6543-.7041-1.4053h-.0606l-.0214,7.0557-.9834-.0039.0254-8.376,1.3437.0049,2.3867,4.5185h.06l2.4258-4.5039,1.2959.0039-.0254,8.376-.9844-.0029Z"/><path d="M182.9907,408.26l.003-.84,1.1767.0039.02-6.6963-1.1767-.0039.0019-.84,3.36.0107-.002.84-1.1758-.0039-.02,6.6962,1.1758.0039-.0029.84Z"/><path d="M188.187,408.2759l.0254-8.376,3.3359.0107a2.264,2.264,0,0,1,1.7315.6475,2.8505,2.8505,0,0,1-.0108,3.5166,2.2712,2.2712,0,0,1-1.7353.6357l-2.3281-.0068-.0108,3.5762Zm1.0215-4.46,2.3281.0069a1.3043,1.3043,0,0,0,.9307-.31,1.1619,1.1619,0,0,0,.333-.8867l.0019-.6241a1.1662,1.1662,0,0,0-.3271-.8886,1.2993,1.2993,0,0,0-.9287-.3155l-2.3281-.0068Z"/><path d="M202.6948,408.3208a.9412.9412,0,0,1-.7724-.29,1.422,1.422,0,0,1-.292-.7207H201.57a1.6009,1.6009,0,0,1-.6748.8623,2.0848,2.0848,0,0,1-1.1172.2832,2.17,2.17,0,0,1-1.5273-.5088,1.77,1.77,0,0,1-.542-1.3682,1.5646,1.5646,0,0,1,.6465-1.3428,3.4124,3.4124,0,0,1,1.999-.4619l1.2236.0039.002-.6123a1.3352,1.3352,0,0,0-.3565-1.0088,1.54,1.54,0,0,0-1.1035-.3515,1.6594,1.6594,0,0,0-.9414.249,2.0748,2.0748,0,0,0-.6328.67l-.5742-.542a2.19,2.19,0,0,1,.8066-.8554,2.9931,2.9931,0,0,1,3.1426.207,1.9366,1.9366,0,0,1,.6192,1.5342l-.01,3.4013.708.002-.0029.8516Zm-2.7578-.68a2.4992,2.4992,0,0,0,.66-.082,1.5886,1.5886,0,0,0,.5166-.2393,1.1642,1.1642,0,0,0,.3379-.3594.8611.8611,0,0,0,.1211-.4423l.0029-1.0205-1.2715-.004a2.322,2.322,0,0,0-1.207.2364.777.777,0,0,0-.38.6953l-.001.2519a.8368.8368,0,0,0,.3281.709A1.4377,1.4377,0,0,0,199.937,407.6411Z"/><path d="M208.5659,407.3433h-.0488a1.8885,1.8885,0,0,1-1.8154,1.1337,2.3425,2.3425,0,0,1-1.043-.23,2.2635,2.2635,0,0,1-.7959-.6514,2.9342,2.9342,0,0,1-.501-1.02,5.2708,5.2708,0,0,1,.0088-2.6885,2.9486,2.9486,0,0,1,.5068-1.0185,2.2685,2.2685,0,0,1,.8-.6455,2.3653,2.3653,0,0,1,1.045-.2246,2.101,2.101,0,0,1,1.1093.2832,1.7271,1.7271,0,0,1,.6983.8632h.0488l.0117-3.6845.96.0029-.0274,8.88-.96-.0029Zm-1.5976.2832a2.257,2.257,0,0,0,.6181-.0821,1.5268,1.5268,0,0,0,.5108-.247,1.188,1.188,0,0,0,.3427-.3955,1.1,1.1,0,0,0,.1289-.5372l.0079-2.3154a.9464.9464,0,0,0-.126-.4765,1.1755,1.1755,0,0,0-.3408-.3819,1.7023,1.7023,0,0,0-.5088-.248,2.0849,2.0849,0,0,0-.6182-.0928,1.65,1.65,0,0,0-1.2851.5088,1.92,1.92,0,0,0-.4727,1.3428l-.0029,1.0615a1.9191,1.9191,0,0,0,.4638,1.3467A1.6536,1.6536,0,0,0,206.9683,407.6265Z"/><path d="M216.062,408.3628a.9384.9384,0,0,1-.7724-.291,1.418,1.418,0,0,1-.292-.7207h-.0606a1.5972,1.5972,0,0,1-.6748.8623,2.0848,2.0848,0,0,1-1.1172.2832,2.1692,2.1692,0,0,1-1.5273-.5078,1.7734,1.7734,0,0,1-.542-1.3692,1.5655,1.5655,0,0,1,.6465-1.3427,3.4116,3.4116,0,0,1,1.999-.462l1.2236.0039.002-.6123a1.3361,1.3361,0,0,0-.3565-1.0087,1.54,1.54,0,0,0-1.1035-.3516,1.6592,1.6592,0,0,0-.9414.249,2.0772,2.0772,0,0,0-.6328.6709l-.5742-.542a2.1855,2.1855,0,0,1,.8066-.8564,2.9989,2.9989,0,0,1,3.1426.207,1.9362,1.9362,0,0,1,.6191,1.5342l-.01,3.4014.708.0019-.0029.8516Zm-2.7578-.6807a2.4584,2.4584,0,0,0,.66-.082,1.5875,1.5875,0,0,0,.5166-.2383,1.185,1.185,0,0,0,.3378-.3594.8654.8654,0,0,0,.1211-.4433l.003-1.0205-1.2715-.0039a2.3211,2.3211,0,0,0-1.207.2363.7768.7768,0,0,0-.38.6953l-.001.252a.8367.8367,0,0,0,.3281.7089A1.432,1.432,0,0,0,213.3042,407.6821Z"/><path d="M217.99,402.1763l.961.0029-.0039.9971h.0478a1.7349,1.7349,0,0,1,.7051-.8594,2.0957,2.0957,0,0,1,1.11-.2754,2.3529,2.3529,0,0,1,1.0429.2305,2.2506,2.2506,0,0,1,.7949.65,2.9607,2.9607,0,0,1,.501,1.0214,5.2416,5.2416,0,0,1-.0088,2.6885,2.9168,2.9168,0,0,1-.5068,1.0176,2.2417,2.2417,0,0,1-.7988.6465,2.3487,2.3487,0,0,1-1.0449.2246,1.875,1.875,0,0,1-1.8077-1.1455h-.0478l-.0108,3.3965-.9609-.003Zm2.5391,5.4922a1.6526,1.6526,0,0,0,1.2861-.5088,1.9216,1.9216,0,0,0,.4717-1.3438l.003-1.0615a1.9165,1.9165,0,0,0-.4629-1.3457,1.655,1.655,0,0,0-1.2832-.5166,2.0508,2.0508,0,0,0-.6182.0889,1.7323,1.7323,0,0,0-.5107.2451,1.1931,1.1931,0,0,0-.3428.3789.9566.9566,0,0,0-.127.4765l-.0078,2.3155a1.132,1.132,0,0,0,.124.5371,1.2145,1.2145,0,0,0,.3409.3984,1.5365,1.5365,0,0,0,.5087.25A2.2938,2.2938,0,0,0,220.5288,407.6685Z"/><path d="M226.2251,408.394a.98.98,0,0,1-.7607-.2841,1.0424,1.0424,0,0,1-.2559-.7364l.0137-4.3222-1.02-.0039.0029-.8526.5762.002a.5639.5639,0,0,0,.4257-.124.6509.6509,0,0,0,.1153-.4375l.0039-1.1524.8642.0029-.0048,1.7159,1.3554.0039-.0029.8525-1.3555-.0039-.0136,4.4883,1.26.0039-.0029.8515Z"/><path d="M231.3481,408.5532a2.7516,2.7516,0,0,1-1.1445-.2314,2.4863,2.4863,0,0,1-.874-.6563,2.9869,2.9869,0,0,1-.5606-1.0215,4.6157,4.6157,0,0,1,.0079-2.67,2.9748,2.9748,0,0,1,.5673-1.0244,2.4748,2.4748,0,0,1,.878-.6523,2.8089,2.8089,0,0,1,1.1465-.2237,2.6281,2.6281,0,0,1,1.1152.2315,2.457,2.457,0,0,1,.8379.63,2.8009,2.8009,0,0,1,.5312.9521,3.7309,3.7309,0,0,1,.1826,1.209l-.0009.4541-4.4522-.0147-.001.2881a2.1076,2.1076,0,0,0,.1241.7393,1.7582,1.7582,0,0,0,.3574.5947,1.6656,1.6656,0,0,0,.5752.3984,1.978,1.978,0,0,0,.7734.1456,1.8743,1.8743,0,0,0,1.0264-.2735,1.81,1.81,0,0,0,.6816-.789l.6817.497a2.393,2.393,0,0,1-.9385,1.03A2.8413,2.8413,0,0,1,231.3481,408.5532Zm.0176-5.6758a1.8059,1.8059,0,0,0-.72.1358,1.5872,1.5872,0,0,0-.5586.3857,1.8127,1.8127,0,0,0-.3682.5889,2.0222,2.0222,0,0,0-.1338.7441l-.0009.084,3.42.0108.001-.1319a1.8875,1.8875,0,0,0-.4463-1.3183A1.5387,1.5387,0,0,0,231.3657,402.8774Z"/><path d="M235.6089,408.4233l.0195-6.1923.961.0029-.004,1.1406h.06a1.8693,1.8693,0,0,1,.6016-.79,1.8491,1.8491,0,0,1,1.19-.3457l.3721.0019-.0029.96-.5645-.002a2.17,2.17,0,0,0-1.2188.29.8681.8681,0,0,0-.44.7373l-.0127,4.2Z"/><path d="M158.5054,220.5688l-1.1914,1.3165-.0088,2.7958-1.0078-.0029.0254-8.376,1.0078.003-.0137,4.4521h.0361l1.2051-1.4482,2.54-2.9922,1.2364.0039-3.1309,3.5781,3.3213,4.7979-1.248-.0039Z"/><path d="M170.4536,217.6655h-.06l-.7119,1.4014-2.0156,3.6426-1.9922-3.6553-.7041-1.4053H164.91l-.0215,7.0557-.9834-.0029.0254-8.376,1.3437.0039,2.3867,4.5185.06.001,2.4258-4.5049,1.2959.0039-.0254,8.376-.9844-.0029Z"/><path d="M173.2524,224.73l.003-.84,1.1767.0039.02-6.6962-1.1767-.004.0019-.84,3.36.0107-.002.84-1.1758-.0039-.02,6.6963,1.1758.0039-.0029.84Z"/><path d="M178.4487,224.7466l.0254-8.376,3.336.01a2.2672,2.2672,0,0,1,1.7314.6474,2.85,2.85,0,0,1-.0107,3.5166,2.268,2.268,0,0,1-1.7354.6358l-2.3281-.0069-.0108,3.5762Zm1.0215-4.461,2.3281.0069a1.3037,1.3037,0,0,0,.9307-.31,1.1618,1.1618,0,0,0,.333-.8867l.002-.624a1.1665,1.1665,0,0,0-.3272-.8887,1.2988,1.2988,0,0,0-.9287-.3154l-2.3281-.0069Z"/><path d="M188.81,219.438l-1.0088-.0029.0029-.8526,1.0088.0029.0029-1.248a1.5619,1.5619,0,0,1,.34-1.043,1.2613,1.2613,0,0,1,1.02-.3916l.9365.003-.0029.8515-1.3321-.0049-.0049,1.836,1.3321.0049-.0029.8525-1.3321-.0049-.0166,5.34-.96-.003Z"/><path d="M194.6362,224.94a2.7817,2.7817,0,0,1-1.14-.2314,2.4647,2.4647,0,0,1-.88-.6572,3.0672,3.0672,0,0,1-.5664-1.02,4.4889,4.4889,0,0,1,.0078-2.67,3.0829,3.0829,0,0,1,.5732-1.0254,2.4715,2.4715,0,0,1,.8838-.6513,2.81,2.81,0,0,1,1.1416-.2237,2.7541,2.7541,0,0,1,1.1329.2305,2.5373,2.5373,0,0,1,.88.6572,3.04,3.04,0,0,1,.5733,1.0284,4.4679,4.4679,0,0,1-.0078,2.67,3.0373,3.0373,0,0,1-.58,1.0176,2.52,2.52,0,0,1-.8838.6513A2.7465,2.7465,0,0,1,194.6362,224.94Zm.003-.8515a1.7434,1.7434,0,0,0,1.2734-.4766,1.9608,1.9608,0,0,0,.4961-1.4629l.0029-.8877a1.96,1.96,0,0,0-.4873-1.4648,1.9238,1.9238,0,0,0-2.5439-.0078,1.96,1.96,0,0,0-.4971,1.4619l-.0029.8877a1.9608,1.9608,0,0,0,.4883,1.4658A1.7448,1.7448,0,0,0,194.6392,224.0884Z"/><path d="M199.0161,224.81l.0195-6.1924.961.0029-.0039,1.1406h.0595a1.87,1.87,0,0,1,.6016-.79,1.8433,1.8433,0,0,1,1.19-.3447l.3721.0009-.0029.96-.5645-.002a2.17,2.17,0,0,0-1.2187.29.868.868,0,0,0-.4405.7373l-.0126,4.2Z"/><path d="M208.2563,224.8384l-2.7587-8.3848,1.08.0039,1.3672,4.2276.9141,3.1474h.06l.958-3.1416,1.4052-4.22,1.044.0039-2.8457,8.3672Z"/><path d="M220.2056,217.82h-.06l-.7119,1.4-2.0156,3.6426-1.9922-3.6543-.7041-1.4063h-.0606l-.0215,7.0557-.9834-.0029.0254-8.376,1.3438.0039,2.3867,4.5195h.06l2.4257-4.5039,1.2959.0039-.0253,8.376-.9844-.0029Z"/><path d="M222.6743,218.6909l.9356.002.6513,2.68.6514,2.7138h.0244l.7647-2.71.789-2.6739.8516.002.7949,2.68.76,2.7138h.0234l.6455-2.71.6807-2.6738.8994.0019-1.6631,6.1875-1.1885-.0039-.8545-2.9775-.5341-1.8868h-.0245l-.5341,1.8829-.8721,2.9726-1.1641-.0029Z"/><path d="M236.9106,224.9272a.9381.9381,0,0,1-.7724-.291,1.4189,1.4189,0,0,1-.292-.7207h-.0606a1.5972,1.5972,0,0,1-.6748.8623,2.0827,2.0827,0,0,1-1.1171.2832,2.169,2.169,0,0,1-1.5274-.5078,1.7732,1.7732,0,0,1-.542-1.3691,1.5659,1.5659,0,0,1,.6465-1.3428,3.4124,3.4124,0,0,1,1.999-.4619l1.2237.0039.0019-.6123a1.3367,1.3367,0,0,0-.3564-1.0088,1.5412,1.5412,0,0,0-1.1036-.3516,1.66,1.66,0,0,0-.9414.2491,2.0839,2.0839,0,0,0-.6328.67l-.5742-.541a2.186,2.186,0,0,1,.8067-.8565,2.9991,2.9991,0,0,1,3.1425.2071,1.9359,1.9359,0,0,1,.6192,1.5341l-.01,3.4014.708.002-.0029.8515Zm-2.7578-.6806a2.4578,2.4578,0,0,0,.66-.0821,1.5843,1.5843,0,0,0,.5166-.2382,1.1878,1.1878,0,0,0,.3379-.3594.8667.8667,0,0,0,.1211-.4434l.0029-1.02-1.2715-.0039a2.3234,2.3234,0,0,0-1.207.2363.777.777,0,0,0-.38.6954l-.001.2519a.8372.8372,0,0,0,.3282.709A1.4323,1.4323,0,0,0,234.1528,224.2466Z"/><path d="M238.8188,224.9331l.02-6.1924.9609.0029-.0039,1.1407h.06a1.8707,1.8707,0,0,1,.6015-.79,1.8448,1.8448,0,0,1,1.19-.3447l.372.001-.0029.96-.5644-.0019a2.17,2.17,0,0,0-1.2188.29.8679.8679,0,0,0-.44.7373l-.0127,4.2Z"/><path d="M245.49,225.0972a2.7835,2.7835,0,0,1-1.1445-.2315,2.4781,2.4781,0,0,1-.874-.6572,2.9729,2.9729,0,0,1-.5606-1.02,4.6157,4.6157,0,0,1,.0079-2.67,2.9888,2.9888,0,0,1,.5673-1.0254,2.4855,2.4855,0,0,1,.878-.6514,2.7763,2.7763,0,0,1,1.1465-.2236,2.6279,2.6279,0,0,1,1.1152.23,2.4483,2.4483,0,0,1,.8379.6309,2.7934,2.7934,0,0,1,.5312.9521,3.7254,3.7254,0,0,1,.1826,1.2081l-.0009.4541-4.4522-.0137-.001.2881a2.1345,2.1345,0,0,0,.1241.7392,1.7587,1.7587,0,0,0,.3574.5948,1.6683,1.6683,0,0,0,.5752.3984,1.9963,1.9963,0,0,0,.7734.1455,1.8819,1.8819,0,0,0,1.0264-.2734,1.8077,1.8077,0,0,0,.6816-.79l.6817.4981a2.3928,2.3928,0,0,1-.9385,1.03A2.8422,2.8422,0,0,1,245.49,225.0972Zm.0176-5.6758a1.8042,1.8042,0,0,0-.72.1357,1.5887,1.5887,0,0,0-.5586.3858,1.8028,1.8028,0,0,0-.3682.5888,2.0186,2.0186,0,0,0-.1337.7442l-.001.084,3.42.0107.001-.1318a1.8878,1.8878,0,0,0-.4463-1.3184A1.5355,1.5355,0,0,0,245.5073,219.4214Z"/><path d="M431.4922,231.7974v-8.376h5.1113v.8877H432.5v2.8086h3.8652v.8877H432.5V230.91h4.1035v.8877Z"/><path d="M438.3926,231.7974V225.605h.9609v.997H439.4a2.013,2.013,0,0,1,.6426-.832,1.8184,1.8184,0,0,1,1.1093-.3086,1.9393,1.9393,0,0,1,1.5176.6182,2.51,2.51,0,0,1,.5586,1.7461v3.9717h-.959v-3.8125q0-1.6715-1.4043-1.6719a2.1563,2.1563,0,0,0-.5586.0723,1.6641,1.6641,0,0,0-.4863.2167,1.07,1.07,0,0,0-.3418.3672,1.04,1.04,0,0,0-.125.5225v4.3057Z"/><path d="M447.5117,231.9409a2.8466,2.8466,0,0,1-1.164-.2275,2.3657,2.3657,0,0,1-.8692-.6485,2.8887,2.8887,0,0,1-.541-1.0195,4.9634,4.9634,0,0,1,0-2.6885,2.9061,2.9061,0,0,1,.541-1.0195,2.3644,2.3644,0,0,1,.8692-.6484,2.8614,2.8614,0,0,1,1.164-.2276,2.483,2.483,0,0,1,1.4824.4024,2.4482,2.4482,0,0,1,.834,1.05l-.8047.4082a1.4507,1.4507,0,0,0-.5507-.7442,1.6594,1.6594,0,0,0-.961-.2646,1.9256,1.9256,0,0,0-.7558.1387,1.4515,1.4515,0,0,0-.5391.3837,1.6164,1.6164,0,0,0-.3242.5879,2.4713,2.4713,0,0,0-.1094.75v1.0557a2.0037,2.0037,0,0,0,.4395,1.3379,1.5832,1.5832,0,0,0,1.289.5225,1.7419,1.7419,0,0,0,1.68-1.08l.6973.4677a2.463,2.463,0,0,1-.8946,1.0684A2.62,2.62,0,0,1,447.5117,231.9409Z"/><path d="M451.2441,231.7974V225.605h.961v1.1406h.0586a1.8841,1.8841,0,0,1,.6-.792,1.8473,1.8473,0,0,1,1.1894-.3486h.3711v.96h-.5644a2.1677,2.1677,0,0,0-1.2168.294.8652.8652,0,0,0-.4375.7383v4.2Z"/><path d="M459.584,225.605h.9472l-2.7714,7.6328a3.4225,3.4225,0,0,1-.2168.4619.9088.9088,0,0,1-.2637.2939,1.045,1.045,0,0,1-.3906.1553,2.8453,2.8453,0,0,1-.5684.0489h-.4922v-.8526h.9707l.4688-1.3174-2.3164-6.4228h.9609l1.4883,4.2041.2871,1.0058h.06l.336-1.0058Z"/><path d="M461.7559,225.605h.9609v.997h.0469a1.7356,1.7356,0,0,1,.7031-.8613,2.0984,2.0984,0,0,1,1.1094-.2793,2.3544,2.3544,0,0,1,1.0429.2276,2.2737,2.2737,0,0,1,.7989.6484,2.9505,2.9505,0,0,1,.5039,1.0195,5.2854,5.2854,0,0,1,0,2.6885,2.933,2.933,0,0,1-.5039,1.0195,2.2751,2.2751,0,0,1-.7989.6485,2.3421,2.3421,0,0,1-1.0429.2275,1.8754,1.8754,0,0,1-1.8125-1.14h-.0469v3.3965h-.9609Zm2.5566,5.4844a1.652,1.652,0,0,0,1.2832-.5127,1.9153,1.9153,0,0,0,.4688-1.3448V228.17a1.9151,1.9151,0,0,0-.4688-1.3447,1.652,1.652,0,0,0-1.2832-.5127,2.0928,2.0928,0,0,0-.6191.0908,1.7433,1.7433,0,0,0-.51.2471,1.1838,1.1838,0,0,0-.3418.38.9546.9546,0,0,0-.125.4765v2.3155a1.121,1.121,0,0,0,.125.5371,1.2033,1.2033,0,0,0,.3418.3974,1.55,1.55,0,0,0,.51.2481A2.2642,2.2642,0,0,0,464.3125,231.0894Z"/><path d="M470.0117,231.7974a.9823.9823,0,0,1-.7617-.2813,1.048,1.048,0,0,1-.2578-.7363v-4.3223h-1.0215v-.8525h.5762a.5624.5624,0,0,0,.4258-.126.6515.6515,0,0,0,.1152-.4375v-1.1523h.8633v1.7158h1.3554v.8525h-1.3554v4.4883h1.26v.8516Z"/><path d="M475.1348,231.9409a2.7667,2.7667,0,0,1-1.1446-.2275,2.4805,2.4805,0,0,1-.8769-.6543,3.0066,3.0066,0,0,1-.5645-1.02,4.6171,4.6171,0,0,1,0-2.67,3.0022,3.0022,0,0,1,.5645-1.0263,2.4793,2.4793,0,0,1,.8769-.6543,2.7812,2.7812,0,0,1,1.1446-.2276,2.64,2.64,0,0,1,1.1172.2276,2.4642,2.4642,0,0,1,.84.6279,2.7709,2.7709,0,0,1,.5332.95,3.7264,3.7264,0,0,1,.1875,1.208v.4541h-4.4531v.2881a2.124,2.124,0,0,0,.1269.7383,1.7512,1.7512,0,0,0,.3594.5937,1.6542,1.6542,0,0,0,.5762.3965,1.9851,1.9851,0,0,0,.7734.1436,1.8729,1.8729,0,0,0,1.0254-.2764,1.8026,1.8026,0,0,0,.68-.792l.6836.4951a2.3986,2.3986,0,0,1-.9356,1.0332A2.839,2.839,0,0,1,475.1348,231.9409Zm0-5.6758a1.8142,1.8142,0,0,0-.7188.1377,1.6054,1.6054,0,0,0-.5586.3877,1.81,1.81,0,0,0-.3652.59,2.0457,2.0457,0,0,0-.1328.7451v.084h3.42v-.1319a1.8889,1.8889,0,0,0-.4492-1.3173A1.5394,1.5394,0,0,0,475.1348,226.2651Z"/><path d="M483.3555,230.8013h-.0489a1.8872,1.8872,0,0,1-1.81,1.14,2.3507,2.3507,0,0,1-1.0449-.2275,2.2509,2.2509,0,0,1-.7969-.6485,2.9312,2.9312,0,0,1-.5039-1.0195,5.2273,5.2273,0,0,1,0-2.6885,2.9488,2.9488,0,0,1,.5039-1.0195,2.25,2.25,0,0,1,.7969-.6484,2.3631,2.3631,0,0,1,1.0449-.2276,2.1036,2.1036,0,0,1,1.1094.2793,1.7323,1.7323,0,0,1,.7011.8613h.0489v-3.6845h.9609v8.88h-.9609Zm-1.5957.2881a2.2515,2.2515,0,0,0,.6172-.084,1.5143,1.5143,0,0,0,.51-.2481,1.2033,1.2033,0,0,0,.3418-.3974,1.0994,1.0994,0,0,0,.127-.5371v-2.3155a.9364.9364,0,0,0-.127-.4765,1.1838,1.1838,0,0,0-.3418-.38,1.6983,1.6983,0,0,0-.51-.2471,2.0811,2.0811,0,0,0-.6172-.0908,1.6535,1.6535,0,0,0-1.2852.5127,1.9231,1.9231,0,0,0-.4668,1.3447v1.0615a1.9234,1.9234,0,0,0,.4668,1.3448A1.6535,1.6535,0,0,0,481.76,231.0894Z"/><path d="M493.1484,230.8013H493.1a1.8917,1.8917,0,0,1-1.8125,1.14,2.3428,2.3428,0,0,1-1.043-.2275,2.2747,2.2747,0,0,1-.7988-.6485,2.9312,2.9312,0,0,1-.5039-1.0195,5.2854,5.2854,0,0,1,0-2.6885,2.9488,2.9488,0,0,1,.5039-1.0195,2.2734,2.2734,0,0,1,.7988-.6484,2.3551,2.3551,0,0,1,1.043-.2276,2.11,2.11,0,0,1,1.1113.2793,1.7424,1.7424,0,0,1,.7012.8613h.0488v-3.6845h.959v8.88h-.959Zm-1.5976.2881a2.2642,2.2642,0,0,0,.6191-.084,1.5509,1.5509,0,0,0,.51-.2481,1.2033,1.2033,0,0,0,.3418-.3974,1.1218,1.1218,0,0,0,.1269-.5371v-2.3155a.9565.9565,0,0,0-.1269-.4765,1.1838,1.1838,0,0,0-.3418-.38,1.7445,1.7445,0,0,0-.51-.2471,2.0928,2.0928,0,0,0-.6191-.0908,1.652,1.652,0,0,0-1.2832.5127,1.9151,1.9151,0,0,0-.4688,1.3447v1.0615a1.9153,1.9153,0,0,0,.4688,1.3448A1.652,1.652,0,0,0,491.5508,231.0894Z"/><path d="M496.627,224.1538a.5877.5877,0,0,1-.4493-.15.5528.5528,0,0,1-.1386-.39v-.1563a.557.557,0,0,1,.1386-.3906.753.753,0,0,1,.9,0,.5558.5558,0,0,1,.1367.3906v.1563a.5516.5516,0,0,1-.1367.39A.5894.5894,0,0,1,496.627,224.1538Zm-.4805,1.4512h.9609v6.1924h-.9609Z"/><path d="M501.0078,231.9409a2.9059,2.9059,0,0,1-1.4473-.3291,3.328,3.328,0,0,1-1.0019-.8828l.6855-.5518a2.6977,2.6977,0,0,0,.8028.7022,2.0993,2.0993,0,0,0,1.0332.2461,1.5275,1.5275,0,0,0,.9531-.2637.959.959,0,0,0,.1074-1.3623,1.4249,1.4249,0,0,0-.8457-.3545l-.4922-.0713a4.1157,4.1157,0,0,1-.791-.1865,2.1834,2.1834,0,0,1-.6308-.3359,1.44,1.44,0,0,1-.42-.5215,1.7088,1.7088,0,0,1-.15-.7442,1.7948,1.7948,0,0,1,.168-.7978,1.631,1.631,0,0,1,.4629-.57,2.0077,2.0077,0,0,1,.7012-.3418,3.2468,3.2468,0,0,1,.8769-.1143,2.7354,2.7354,0,0,1,1.2657.2637,2.8462,2.8462,0,0,1,.8945.7324l-.6367.5762a1.8974,1.8974,0,0,0-.6-.5225,1.9288,1.9288,0,0,0-.9961-.2334,1.3783,1.3783,0,0,0-.9063.2578.8721.8721,0,0,0-.3047.7022.7348.7348,0,0,0,.3047.6592,2.2886,2.2886,0,0,0,.8828.3008l.48.0712a2.5729,2.5729,0,0,1,1.4629.5948,1.5567,1.5567,0,0,1,.4316,1.1455,1.7526,1.7526,0,0,1-.6113,1.416A2.5286,2.5286,0,0,1,501.0078,231.9409Z"/><path d="M504.99,222.9175h.961v5.6279H506l.9473-1.0557,1.7519-1.8847h1.1641l-2.293,2.4482,2.5215,3.7442h-1.1641l-2.0527-3.1563-.9238.9483v2.208h-.961Z"/><path d="M513.0547,231.9409a2.8976,2.8976,0,0,1-1.4453-.3291,3.2825,3.2825,0,0,1-1.002-.8828l.6836-.5518a2.6785,2.6785,0,0,0,.8047.7022,2.0865,2.0865,0,0,0,1.0313.2461,1.5335,1.5335,0,0,0,.955-.2637.9591.9591,0,0,0,.1075-1.3623,1.4308,1.4308,0,0,0-.8457-.3545l-.4922-.0713a4.1,4.1,0,0,1-.793-.1865,2.1736,2.1736,0,0,1-.6289-.3359,1.44,1.44,0,0,1-.42-.5215,1.6806,1.6806,0,0,1-.15-.7442,1.7948,1.7948,0,0,1,.1679-.7978,1.59,1.59,0,0,1,.4629-.57,2.0077,2.0077,0,0,1,.7012-.3418,3.2332,3.2332,0,0,1,.875-.1143,2.7379,2.7379,0,0,1,1.2676.2637,2.8394,2.8394,0,0,1,.8926.7324l-.6348.5762a1.9176,1.9176,0,0,0-.6-.5225,1.9385,1.9385,0,0,0-.9961-.2334,1.3749,1.3749,0,0,0-.9063.2578.8678.8678,0,0,0-.3066.7022.7318.7318,0,0,0,.3066.6592,2.2781,2.2781,0,0,0,.8809.3008l.4805.0712a2.5856,2.5856,0,0,1,1.4648.5948,1.5644,1.5644,0,0,1,.4317,1.1455,1.7541,1.7541,0,0,1-.6133,1.416A2.5217,2.5217,0,0,1,513.0547,231.9409Z"/><path d="M609.957,232.1621l-2.7851-8.376h1.08l1.3808,4.2237.9238,3.1445h.0586l.9493-3.1445,1.3925-4.2237H614l-2.82,8.376Z"/><path d="M621.8828,225.1064h-.0586l-.709,1.4034-2.0039,3.6484-2.0039-3.6484-.707-1.4034H616.34v7.0557h-.9843v-8.376h1.3437l2.4,4.5117h.0606l2.4121-4.5117h1.2949v8.376h-.9844Z"/><path d="M626.8633,232.3057a2.8976,2.8976,0,0,1-1.4453-.3291,3.2829,3.2829,0,0,1-1.002-.8829l.6836-.5517a2.6767,2.6767,0,0,0,.8047.7021,2.0864,2.0864,0,0,0,1.0312.2461,1.5342,1.5342,0,0,0,.9551-.2636.959.959,0,0,0,.1074-1.3623,1.43,1.43,0,0,0-.8457-.3545l-.4921-.0713a4.107,4.107,0,0,1-.793-.1866,2.1712,2.1712,0,0,1-.6289-.3359,1.439,1.439,0,0,1-.42-.5215,1.68,1.68,0,0,1-.15-.7441,1.7952,1.7952,0,0,1,.1679-.7979,1.591,1.591,0,0,1,.4629-.57A2.01,2.01,0,0,1,626,225.94a3.2372,3.2372,0,0,1,.875-.1142,2.7392,2.7392,0,0,1,1.2676.2636,2.84,2.84,0,0,1,.8926.7325l-.6348.5761a1.9174,1.9174,0,0,0-.6-.5224,1.9376,1.9376,0,0,0-.9961-.2334,1.3743,1.3743,0,0,0-.9063.2578.8676.8676,0,0,0-.3066.7021.7316.7316,0,0,0,.3066.6592,2.2781,2.2781,0,0,0,.8809.3008l.4805.0713a2.586,2.586,0,0,1,1.4648.5947,1.5643,1.5643,0,0,1,.4316,1.1455,1.7539,1.7539,0,0,1-.6132,1.416A2.5212,2.5212,0,0,1,626.8633,232.3057Z"/><circle class="cls-10" cx="304.5" cy="458.1665" r="8.5"/><path class="cls-11" d="M301.9194,461.7544v-.876h2.4v-6.7558h-.084l-2.1123,1.9677-.5879-.6357,2.2207-2.0762h1.5713v7.5h2.208v.876Z"/><circle class="cls-10" cx="185.5" cy="322.1665" r="8.5"/><path class="cls-11" d="M188.3442,325.7544h-5.5927v-1.0322l2.7968-2.52a6.4143,6.4143,0,0,0,1.0079-1.1342,2.152,2.152,0,0,0,.3955-1.23v-.1441a1.6264,1.6264,0,0,0-.3955-1.17,1.5556,1.5556,0,0,0-1.1758-.4141,1.66,1.66,0,0,0-1.1826.39,2.38,2.38,0,0,0-.6182,1.0381l-.8994-.336a3.5316,3.5316,0,0,1,.33-.726,2.5035,2.5035,0,0,1,.5332-.63,2.562,2.562,0,0,1,.7861-.4439,3.1452,3.1452,0,0,1,1.0742-.1679,3.1839,3.1839,0,0,1,1.11.18,2.2631,2.2631,0,0,1,.8154.504,2.1529,2.1529,0,0,1,.5039.768,2.6371,2.6371,0,0,1,.1748.9717,2.8743,2.8743,0,0,1-.1387.9,3.5141,3.5141,0,0,1-.3838.8037,5.2427,5.2427,0,0,1-.5879.75,9.6739,9.6739,0,0,1-.7617.7261l-2.34,2.04h4.5478Z"/><circle class="cls-10" cx="457.5" cy="322.1665" r="8.5"/><path class="cls-11" d="M457.1406,320.9185a1.9243,1.9243,0,0,0,1.3125-.3882,1.2715,1.2715,0,0,0,.44-.9981v-.0835a1.1994,1.1994,0,0,0-.4258-1.0034,1.7489,1.7489,0,0,0-1.1113-.335,1.8419,1.8419,0,0,0-1.086.294,2.2853,2.2853,0,0,0-.6777.7739l-.7559-.5757a3.2356,3.2356,0,0,1,.3848-.498,2.5945,2.5945,0,0,1,.5332-.438,2.8636,2.8636,0,0,1,.707-.312,3.222,3.222,0,0,1,.92-.12,3.5608,3.5608,0,0,1,1.0078.1377,2.4354,2.4354,0,0,1,.8144.4077,1.92,1.92,0,0,1,.5469.6645,1.97,1.97,0,0,1,.1973.8985,2.0027,2.0027,0,0,1-.125.7309,1.7808,1.7808,0,0,1-.3477.563,2.1036,2.1036,0,0,1-.5234.4077,2.5813,2.5813,0,0,1-.6348.251v.0483a2.7711,2.7711,0,0,1,.6719.2344,2.1559,2.1559,0,0,1,.5762.42,1.9642,1.9642,0,0,1,.4023.625,2.2,2.2,0,0,1,.1484.8355,2.3363,2.3363,0,0,1-.209.9912,2.2242,2.2242,0,0,1-.5878.769,2.7818,2.7818,0,0,1-.9122.4991,3.677,3.677,0,0,1-1.1816.18,3.606,3.606,0,0,1-.9785-.12,2.9114,2.9114,0,0,1-.7559-.3237,3.0026,3.0026,0,0,1-.5761-.4561,4.03,4.03,0,0,1-.4375-.5283l.7558-.5757a4.0643,4.0643,0,0,0,.3477.4561,1.9424,1.9424,0,0,0,.414.354,1.9767,1.9767,0,0,0,.5332.2339,2.5958,2.5958,0,0,0,.6973.084,2.0286,2.0286,0,0,0,1.3613-.4082,1.451,1.451,0,0,0,.4746-1.1641v-.0957a1.4544,1.4544,0,0,0-.4628-1.1519,2.0429,2.0429,0,0,0-1.3868-.4082h-.9941v-.8759Z"/></g></svg>