<svg id="Layer_1" data-name="Layer 1" xmlns="http://www.w3.org/2000/svg" viewBox="0 0 750 375"><defs><style>.cls-1{fill:#f2f4f8;}.cls-2{fill:#fff;}.cls-3{fill:#e3f6ff;}.cls-14,.cls-21,.cls-4{font-size:12px;}.cls-21,.cls-4{font-family:IBMPlexSans-SemiBold, IBM Plex Sans;}.cls-22,.cls-4{font-weight:700;}.cls-5{letter-spacing:-0.01em;}.cls-6{letter-spacing:0em;}.cls-7{letter-spacing:0em;}.cls-8{letter-spacing:0.01em;}.cls-9{letter-spacing:-0.01em;}.cls-10{letter-spacing:-0.01em;}.cls-11{letter-spacing:-0.01em;}.cls-12{letter-spacing:0em;}.cls-13{fill:#b3e6ff;}.cls-14,.cls-25,.cls-39{font-family:IBMPlexSans, IBM Plex Sans;}.cls-15{letter-spacing:-0.01em;}.cls-16{letter-spacing:0em;}.cls-17{letter-spacing:-0.02em;}.cls-18,.cls-47{fill:#d0b0ff;}.cls-18,.cls-19,.cls-20,.cls-36,.cls-48{stroke:#000;stroke-linejoin:round;}.cls-18,.cls-36,.cls-48{stroke-linecap:round;stroke-width:0.5px;}.cls-19{fill:#dbfbfb;}.cls-20{fill:#f7f1ff;}.cls-23{letter-spacing:-0.01em;}.cls-24{letter-spacing:-0.02em;}.cls-26{letter-spacing:-0.05em;}.cls-27{letter-spacing:0em;}.cls-28{letter-spacing:-0.02em;}.cls-29{letter-spacing:-0.01em;}.cls-30{letter-spacing:-0.02em;}.cls-31{letter-spacing:-0.01em;}.cls-32{letter-spacing:-0.05em;}.cls-33{letter-spacing:0em;}.cls-34,.cls-35,.cls-37,.cls-48{fill:none;}.cls-34,.cls-35{stroke:#9fa5ad;}.cls-34,.cls-35,.cls-37{stroke-miterlimit:10;}.cls-35{stroke-dasharray:2.01 2.01;}.cls-36{fill:#87eded;}.cls-37{stroke:#50565b;stroke-width:2px;}.cls-38{fill:#50565b;}.cls-39{font-size:11.59px;}.cls-40{letter-spacing:0em;}.cls-41{letter-spacing:-0.01em;}.cls-42{letter-spacing:-0.04em;}.cls-43{letter-spacing:0em;}.cls-44{letter-spacing:-0.06em;}.cls-45{letter-spacing:0.01em;}.cls-46{letter-spacing:0em;}</style></defs><title>kms_service</title><rect class="cls-1" x="49" y="97.03" width="406" height="258.5" rx="0.5" ry="0.5"/><path d="M454.5,97.53V355H49.5V97.53h405m0-1H49.5a1,1,0,0,0-1,1V355a1,1,0,0,0,1,1h405a1,1,0,0,0,1-1V97.53a1,1,0,0,0-1-1Z"/><rect class="cls-2" x="76" y="19.03" width="151" height="46" rx="0.5" ry="0.5"/><path d="M226.5,19.53v45H76.5v-45h150m0-1H76.5a1,1,0,0,0-1,1v45a1,1,0,0,0,1,1h150a1,1,0,0,0,1-1v-45a1,1,0,0,0-1-1Z"/><rect class="cls-2" x="276" y="19.03" width="151" height="46" rx="0.5" ry="0.5"/><path d="M426.5,19.53v45h-150v-45h150m0-1h-150a1,1,0,0,0-1,1v45a1,1,0,0,0,1,1h150a1,1,0,0,0,1-1v-45a1,1,0,0,0-1-1Z"/><rect class="cls-3" x="70" y="156.03" width="164" height="182" rx="0.5" ry="0.5"/><path d="M233.5,156.53v181H70.5v-181h163m0-1H70.5a1,1,0,0,0-1,1v181a1,1,0,0,0,1,1h163a1,1,0,0,0,1-1v-181a1,1,0,0,0-1-1Z"/><rect class="cls-3" x="270" y="156.03" width="164" height="182" rx="0.5" ry="0.5"/><path d="M433.5,156.53v181h-163v-181h163m0-1h-163a1,1,0,0,0-1,1v181a1,1,0,0,0,1,1h163a1,1,0,0,0,1-1v-181a1,1,0,0,0-1-1Z"/><text class="cls-4" transform="translate(70.47 120.98)">Hyper <tspan class="cls-5" x="36.36" y="0">P</tspan><tspan class="cls-6" x="43.93" y="0">r</tspan><tspan class="cls-7" x="48.59" y="0">ot</tspan><tspan x="59.74" y="0">ect C</tspan><tspan class="cls-8" x="87.61" y="0">r</tspan><tspan x="92.42" y="0">y</tspan><tspan class="cls-9" x="98.71" y="0">p</tspan><tspan class="cls-7" x="105.84" y="0">t</tspan><tspan x="110.28" y="0">o Se</tspan><tspan class="cls-8" x="133.89" y="0">r</tspan><tspan x="138.71" y="0">vi</tspan><tspan class="cls-10" x="148.31" y="0">c</tspan><tspan x="154.4" y="0">es se</tspan><tspan class="cls-8" x="182.6" y="0">r</tspan><tspan x="187.41" y="0">vi</tspan><tspan class="cls-10" x="197.01" y="0">c</tspan><tspan x="203.11" y="0">e in</tspan><tspan class="cls-11" x="223" y="0">s</tspan><tspan class="cls-12" x="228.9" y="0">tan</tspan><tspan class="cls-10" x="247.15" y="0">c</tspan><tspan x="253.24" y="0">e</tspan></text><rect class="cls-13" x="89" y="290.53" width="127" height="31" rx="0.5" ry="0.5"/><path d="M215.5,291v30H89.5V291h126m0-1H89.5a1,1,0,0,0-1,1v30a1,1,0,0,0,1,1h126a1,1,0,0,0,1-1V291a1,1,0,0,0-1-1Z"/><rect class="cls-13" x="288" y="291.03" width="127" height="31" rx="0.5" ry="0.5"/><path d="M414.5,291.53v30h-126v-30h126m0-1h-126a1,1,0,0,0-1,1v30a1,1,0,0,0,1,1h126a1,1,0,0,0,1-1v-30a1,1,0,0,0-1-1Z"/><text class="cls-14" transform="translate(100.52 310)">Ma<tspan class="cls-15" x="16.15" y="0">s</tspan><tspan class="cls-16" x="21.91" y="0">t</tspan><tspan x="26.08" y="0">er </tspan><tspan class="cls-17" x="39.9" y="0">k</tspan><tspan class="cls-6" x="46.02" y="0">e</tspan><tspan x="52.55" y="0">y</tspan></text><text class="cls-14" transform="translate(302.52 310)">Ma<tspan class="cls-15" x="16.15" y="0">s</tspan><tspan class="cls-16" x="21.91" y="0">t</tspan><tspan x="26.08" y="0">er </tspan><tspan class="cls-17" x="39.9" y="0">k</tspan><tspan class="cls-6" x="46.02" y="0">e</tspan><tspan x="52.55" y="0">y</tspan></text><path class="cls-18" d="M195.24,307a4.68,4.68,0,1,1-2.51-2"/><circle cx="190.26" cy="310.56" r="1.05"/><polyline class="cls-18" points="192.73 305 198.99 298.08 201.45 297.95 201.56 300.08 197.63 304.43 196.15 304.51 196.22 305.87 195.24 306.96"/><path class="cls-18" d="M394.24,307a4.68,4.68,0,1,1-2.51-2"/><circle cx="389.26" cy="310.56" r="1.05"/><polyline class="cls-18" points="391.73 305 397.99 298.08 400.45 297.95 400.56 300.08 396.63 304.43 395.15 304.51 395.22 305.87 394.24 306.96"/><text class="cls-14" transform="translate(116.21 45.91)">Application 1</text><text class="cls-14" transform="translate(316.21 45.91)">Application 2</text><rect class="cls-1" x="494.38" y="141.03" width="207" height="101" rx="0.5" ry="0.5"/><path d="M700.88,141.53v100h-206v-100h206m0-1h-206a1,1,0,0,0-1,1v100a1,1,0,0,0,1,1h206a1,1,0,0,0,1-1v-100a1,1,0,0,0-1-1Z"/><rect class="cls-1" x="494.38" y="254.53" width="207" height="101" rx="0.5" ry="0.5"/><path d="M700.88,255V355h-206V255h206m0-1h-206a1,1,0,0,0-1,1V355a1,1,0,0,0,1,1h206a1,1,0,0,0,1-1V255a1,1,0,0,0-1-1Z"/><rect class="cls-19" x="507.88" y="192" width="180" height="35"/><rect class="cls-20" x="507.88" y="306" width="180" height="35"/><text class="cls-21" transform="translate(506.94 162.68)"><tspan class="cls-22">Ope<tspan class="cls-23" x="22.44" y="0">r</tspan><tspan class="cls-16" x="27.02" y="0">a</tspan><tspan x="33.68" y="0">tional </tspan><tspan class="cls-24" x="68.36" y="0">k</tspan><tspan class="cls-9" x="74.82" y="0">e</tspan><tspan class="cls-12" x="81.44" y="0">y mana</tspan><tspan class="cls-9" x="121.69" y="0">g</tspan><tspan x="128.16" y="0">ement</tspan></tspan><tspan class="cls-25"><tspan x="0" y="14.4">Bring </tspan><tspan class="cls-26" x="31.22" y="14.4">Y</tspan><tspan class="cls-27" x="37.74" y="14.4">our Own </tspan><tspan class="cls-28" x="85.87" y="14.4">K</tspan><tspan class="cls-6" x="93.18" y="14.4">e</tspan><tspan x="99.71" y="14.4">y</tspan></tspan></text><text class="cls-14" transform="translate(518.45 212.93)"><tspan class="cls-29">R</tspan><tspan x="7.5" y="0">oot</tspan><tspan class="cls-30" x="25.15" y="0">/</tspan><tspan class="cls-27" x="29.57" y="0">Standa</tspan><tspan class="cls-9" x="67.34" y="0">r</tspan><tspan class="cls-12" x="71.68" y="0">d </tspan><tspan class="cls-17" x="81.47" y="0">k</tspan><tspan class="cls-6" x="87.59" y="0">e</tspan><tspan class="cls-7" x="94.12" y="0">y</tspan><tspan class="cls-27" x="100.05" y="0">s</tspan></text><text class="cls-21" transform="translate(506.94 275.68)"><tspan class="cls-22">Ma<tspan class="cls-31" x="16.5" y="0">s</tspan><tspan class="cls-16" x="22.39" y="0">t</tspan><tspan class="cls-12" x="26.83" y="0">er </tspan><tspan class="cls-24" x="41.08" y="0">k</tspan><tspan class="cls-9" x="47.53" y="0">e</tspan><tspan x="54.16" y="0">y mana</tspan><tspan class="cls-9" x="94.4" y="0">g</tspan><tspan x="100.87" y="0">ement</tspan></tspan><tspan class="cls-25"><tspan class="cls-28" x="0" y="14.4">K</tspan><tspan x="7.31" y="14.4">eep </tspan><tspan class="cls-32" x="30.28" y="14.4">Y</tspan><tspan x="36.79" y="14.4">our Own </tspan><tspan class="cls-28" x="84.92" y="14.4">K</tspan><tspan class="cls-6" x="92.23" y="14.4">e</tspan><tspan x="98.76" y="14.4">y</tspan></tspan></text><text class="cls-14" transform="translate(518.11 326.93)">Ma<tspan class="cls-15" x="16.15" y="0">s</tspan><tspan class="cls-16" x="21.91" y="0">t</tspan><tspan x="26.08" y="0">er </tspan><tspan class="cls-17" x="39.9" y="0">k</tspan><tspan class="cls-6" x="46.02" y="0">e</tspan><tspan x="52.55" y="0">y pa</tspan><tspan class="cls-33" x="74.74" y="0">r</tspan><tspan x="79.19" y="0">ts</tspan></text><line class="cls-34" x1="252.5" y1="156.03" x2="252.5" y2="157.03"/><line class="cls-35" x1="252.5" y1="159.04" x2="252.5" y2="338.53"/><line class="cls-34" x1="252.5" y1="339.53" x2="252.5" y2="340.53"/><path class="cls-36" d="M670.74,210.07a4.68,4.68,0,1,1-2.51-2"/><circle cx="665.76" cy="213.67" r="1.05"/><polyline class="cls-36" points="668.23 208.11 674.49 201.19 676.95 201.06 677.06 203.19 673.13 207.54 671.65 207.62 671.72 208.98 670.74 210.07"/><line class="cls-37" x1="494" y1="191.03" x2="463.74" y2="191.03"/><polygon class="cls-38" points="464.91 187.04 458 191.03 464.91 195.02 464.91 187.04"/><line class="cls-37" x1="152" y1="90.29" x2="152" y2="65.03"/><polygon class="cls-38" points="155.99 89.12 152 96.03 148.01 89.12 155.99 89.12"/><line class="cls-37" x1="352" y1="90.29" x2="352" y2="65.03"/><polygon class="cls-38" points="355.99 89.12 352 96.03 348.01 89.12 355.99 89.12"/><line class="cls-37" x1="494" y1="304.03" x2="463.74" y2="304.03"/><polygon class="cls-38" points="464.91 300.04 458 304.03 464.91 308.02 464.91 300.04"/><text class="cls-4" transform="translate(114.81 227.35)">C<tspan class="cls-8" x="7.7" y="0">r</tspan><tspan x="12.52" y="0">y</tspan><tspan class="cls-9" x="18.8" y="0">p</tspan><tspan class="cls-7" x="25.93" y="0">t</tspan><tspan x="30.37" y="0">o Unit A</tspan></text><text class="cls-4" transform="translate(315.81 227.35)">C<tspan class="cls-8" x="7.7" y="0">r</tspan><tspan x="12.52" y="0">y</tspan><tspan class="cls-9" x="18.8" y="0">p</tspan><tspan class="cls-7" x="25.93" y="0">t</tspan><tspan x="30.37" y="0">o Unit B</tspan></text><text class="cls-39" transform="translate(70.47 136.92)">IP add<tspan class="cls-40" x="34.04" y="0">r</tspan><tspan x="38.23" y="0">e</tspan><tspan class="cls-41" x="44.6" y="0">s</tspan><tspan x="50.17" y="0">s: xxx</tspan><tspan class="cls-42" x="79.57" y="0">.</tspan><tspan class="cls-43" x="82.21" y="0">yyy</tspan><tspan class="cls-44" x="99.56" y="0">y</tspan><tspan class="cls-45" x="104.71" y="0">.</tspan><tspan x="108.03" y="0">zzz</tspan><tspan class="cls-45" x="124.17" y="0">z</tspan><tspan class="cls-46" x="129.72" y="0">.</tspan><tspan x="132.93" y="0">aaa</tspan></text><polygon class="cls-47" points="673.13 321.43 671.65 321.51 671.72 322.87 671.13 323.53 671 323.53 671 318.94 674.49 315.08 676.95 314.95 677.06 317.08 673.13 321.43"/><path class="cls-48" d="M670.74,324a4.68,4.68,0,1,1-2.51-2"/><circle cx="665.76" cy="327.56" r="1.05"/><polyline class="cls-48" points="670.74 323.96 671.13 323.53 671.72 322.87 671.65 321.51 673.13 321.43 677.06 317.08 676.95 314.95 674.49 315.08 671 318.94 668.23 322"/><path class="cls-47" d="M652.13,323.53l-.39.43a4.67,4.67,0,0,1-4.24,7.12v-9.31a4.86,4.86,0,0,1,1.73.23l2.77-3.06.5-.55v4.73Z"/><path class="cls-48" d="M651.74,324a4.66,4.66,0,1,1-7.42-.67,4.6,4.6,0,0,1,3.18-1.52,4.86,4.86,0,0,1,1.73.23"/><circle cx="646.76" cy="327.56" r="1.05"/><polyline class="cls-48" points="651.74 323.96 652.13 323.53 652.5 323.12 652.72 322.87 652.65 321.51 654.13 321.43 658.06 317.08 657.95 314.95 655.49 315.08 652.5 318.39 652 318.94 649.23 322"/><path class="cls-47" d="M630,321.93v9a4.49,4.49,0,0,1-1.5.16,4.62,4.62,0,0,1-2.84-1.19,4.67,4.67,0,0,1-.34-6.6,4.6,4.6,0,0,1,3.18-1.52A4.77,4.77,0,0,1,630,321.93Z"/><path class="cls-48" d="M630.23,322l-.23-.07a4.77,4.77,0,0,0-1.5-.16,4.6,4.6,0,0,0-3.18,1.52,4.67,4.67,0,0,0,.34,6.6,4.62,4.62,0,0,0,2.84,1.19,4.49,4.49,0,0,0,1.5-.16,4.55,4.55,0,0,0,2.24-1.37,4.65,4.65,0,0,0,.5-5.59"/><circle cx="627.76" cy="327.56" r="1.05"/><polyline class="cls-48" points="632.74 323.96 633.13 323.53 633.5 323.12 633.72 322.87 633.65 321.51 635.13 321.43 639.06 317.08 638.95 314.95 636.49 315.08 633.5 318.39 633 318.94 630.23 322"/></svg>