<svg id="Layer_1" data-name="Layer 1" xmlns="http://www.w3.org/2000/svg" viewBox="0 0 750 620"><defs><style>.cls-1{fill:#e3f6ff;}.cls-2{fill:#f2f4f8;}.cls-3,.cls-36,.cls-4,.cls-40,.cls-5{fill:none;}.cls-3,.cls-4,.cls-5{stroke:#9fa5ad;}.cls-3,.cls-36,.cls-4,.cls-5,.cls-6{stroke-linejoin:round;}.cls-4{stroke-dasharray:2 2;}.cls-5{stroke-dasharray:1.97 1.97;}.cls-6{fill:#fff;stroke:#333;}.cls-19,.cls-38,.cls-39,.cls-7{font-size:9px;}.cls-21,.cls-26,.cls-39,.cls-7,.cls-8{fill:#333;}.cls-19,.cls-28,.cls-30,.cls-7,.cls-8{font-family:IBMPlexSans, IBM Plex Sans;}.cls-21,.cls-26,.cls-28,.cls-30,.cls-41,.cls-8{font-size:12px;}.cls-43,.cls-9{letter-spacing:-0.01em;}.cls-10{letter-spacing:-0.01em;}.cls-11{letter-spacing:0em;}.cls-12{letter-spacing:-0.02em;}.cls-13{letter-spacing:-0.02em;}.cls-14{letter-spacing:0em;}.cls-15{letter-spacing:0em;}.cls-16{letter-spacing:-0.03em;}.cls-17{letter-spacing:0em;}.cls-18{letter-spacing:-0.01em;}.cls-19,.cls-28,.cls-30,.cls-38,.cls-41{fill:#0072c3;}.cls-20{letter-spacing:-0.01em;}.cls-21,.cls-26,.cls-31,.cls-32,.cls-42,.cls-43,.cls-44{font-family:IBMPlexSans-SemiBold, IBM Plex Sans;font-weight:700;}.cls-22,.cls-26{letter-spacing:-0.01em;}.cls-23{letter-spacing:0em;}.cls-24{letter-spacing:-0.01em;}.cls-25{letter-spacing:-0.01em;}.cls-27{letter-spacing:-0.02em;}.cls-29{letter-spacing:-0.01em;}.cls-30{letter-spacing:-0.03em;}.cls-32{letter-spacing:-0.04em;}.cls-33{letter-spacing:0em;}.cls-34{letter-spacing:0em;}.cls-35{letter-spacing:-0.02em;}.cls-36{stroke:#50565b;stroke-linecap:round;}.cls-37{fill:#50565b;}.cls-38,.cls-39,.cls-41{font-family:IBMPlexMono, IBM Plex Mono;}.cls-40{stroke:#0072c3;stroke-miterlimit:10;}.cls-42{letter-spacing:0.01em;}.cls-44{letter-spacing:0em;}.cls-45{letter-spacing:-0.01em;}.cls-46{letter-spacing:-0.02em;}</style></defs><title>master_key_register</title><path class="cls-1" d="M111.8,133.83h180a0,0,0,0,1,0,0v73a0,0,0,0,1,0,0h-180a4,4,0,0,1-4-4v-65A4,4,0,0,1,111.8,133.83Z"/><path class="cls-1" d="M111.8,278.83h180a0,0,0,0,1,0,0v73a0,0,0,0,1,0,0h-180a4,4,0,0,1-4-4v-65A4,4,0,0,1,111.8,278.83Z"/><path class="cls-1" d="M111.8,424.83h180a0,0,0,0,1,0,0v73a0,0,0,0,1,0,0h-180a4,4,0,0,1-4-4v-65A4,4,0,0,1,111.8,424.83Z"/><rect class="cls-2" x="312.3" y="42.33" width="208" height="130"/><polyline class="cls-3" points="520.3 171.32 520.3 172.32 519.3 172.32"/><line class="cls-4" x1="517.3" y1="172.33" x2="314.3" y2="172.33"/><polyline class="cls-3" points="313.3 172.32 312.3 172.32 312.3 171.32"/><line class="cls-5" x1="312.3" y1="169.36" x2="312.3" y2="44.31"/><polyline class="cls-3" points="312.3 43.33 312.3 42.33 313.3 42.33"/><line class="cls-4" x1="315.3" y1="42.33" x2="518.3" y2="42.33"/><polyline class="cls-3" points="519.3 42.33 520.3 42.33 520.3 43.33"/><line class="cls-5" x1="520.3" y1="45.29" x2="520.3" y2="170.34"/><rect class="cls-6" x="325.3" y="73.81" width="180.88" height="28"/><text class="cls-7" transform="translate(330.34 85.74)">00000000000000000000000000000000<tspan x="0" y="10.8">00000000000000000000000000000000</tspan></text><text class="cls-8" transform="translate(325.3 63.33)">N<tspan class="cls-9" x="8.48" y="0">e</tspan><tspan x="15.01" y="0">w Ma</tspan><tspan class="cls-10" x="43.21" y="0">s</tspan><tspan class="cls-11" x="48.97" y="0">t</tspan><tspan x="53.14" y="0">er </tspan><tspan class="cls-12" x="66.96" y="0">K</tspan><tspan class="cls-9" x="74.27" y="0">e</tspan><tspan x="80.8" y="0">y </tspan><tspan class="cls-13" x="89.62" y="0">R</tspan><tspan x="97.12" y="0">egi</tspan><tspan class="cls-10" x="113.04" y="0">s</tspan><tspan class="cls-14" x="118.8" y="0">t</tspan><tspan class="cls-15" x="122.96" y="0">er</tspan></text><rect class="cls-6" x="325.3" y="131.33" width="181" height="28"/><text class="cls-7" transform="translate(330.22 143.26)">00000000000000000000000000000000<tspan x="0" y="10.8">00000000000000000000000000000000</tspan></text><text class="cls-8" transform="translate(325.3 121.84)">Cur<tspan class="cls-9" x="18.67" y="0">r</tspan><tspan x="23.02" y="0">ent Ma</tspan><tspan class="cls-10" x="59.62" y="0">s</tspan><tspan class="cls-11" x="65.38" y="0">t</tspan><tspan x="69.54" y="0">er </tspan><tspan class="cls-16" x="83.36" y="0">K</tspan><tspan class="cls-17" x="90.67" y="0">e</tspan><tspan x="97.2" y="0">y </tspan><tspan class="cls-13" x="106.02" y="0">R</tspan><tspan x="113.52" y="0">egi</tspan><tspan class="cls-18" x="129.44" y="0">s</tspan><tspan class="cls-11" x="135.2" y="0">t</tspan><tspan x="139.37" y="0">er</tspan></text><rect class="cls-2" x="312.3" y="187.33" width="208" height="130"/><polyline class="cls-3" points="520.3 316.32 520.3 317.32 519.3 317.32"/><line class="cls-4" x1="517.3" y1="317.33" x2="314.3" y2="317.33"/><polyline class="cls-3" points="313.3 317.32 312.3 317.32 312.3 316.32"/><line class="cls-5" x1="312.3" y1="314.36" x2="312.3" y2="189.31"/><polyline class="cls-3" points="312.3 188.32 312.3 187.32 313.3 187.32"/><line class="cls-4" x1="315.3" y1="187.33" x2="518.3" y2="187.33"/><polyline class="cls-3" points="519.3 187.32 520.3 187.32 520.3 188.32"/><line class="cls-5" x1="520.3" y1="190.29" x2="520.3" y2="315.34"/><rect class="cls-6" x="325.3" y="218.81" width="180.88" height="28"/><text class="cls-8" transform="translate(325.3 208.33)">N<tspan class="cls-9" x="8.48" y="0">e</tspan><tspan x="15.01" y="0">w Ma</tspan><tspan class="cls-10" x="43.21" y="0">s</tspan><tspan class="cls-11" x="48.97" y="0">t</tspan><tspan x="53.14" y="0">er </tspan><tspan class="cls-12" x="66.96" y="0">K</tspan><tspan class="cls-9" x="74.27" y="0">e</tspan><tspan x="80.8" y="0">y </tspan><tspan class="cls-13" x="89.62" y="0">R</tspan><tspan x="97.12" y="0">egi</tspan><tspan class="cls-10" x="113.04" y="0">s</tspan><tspan class="cls-14" x="118.8" y="0">t</tspan><tspan class="cls-15" x="122.96" y="0">er</tspan></text><rect class="cls-6" x="325.3" y="276.33" width="181" height="28"/><text class="cls-7" transform="translate(330.22 288.26)">00000000000000000000000000000000<tspan x="0" y="10.8">00000000000000000000000000000000</tspan></text><text class="cls-8" transform="translate(325.3 266.84)">Cur<tspan class="cls-9" x="18.67" y="0">r</tspan><tspan x="23.02" y="0">ent Ma</tspan><tspan class="cls-10" x="59.62" y="0">s</tspan><tspan class="cls-11" x="65.38" y="0">t</tspan><tspan x="69.54" y="0">er </tspan><tspan class="cls-16" x="83.36" y="0">K</tspan><tspan class="cls-17" x="90.67" y="0">e</tspan><tspan x="97.2" y="0">y </tspan><tspan class="cls-13" x="106.02" y="0">R</tspan><tspan x="113.52" y="0">egi</tspan><tspan class="cls-18" x="129.44" y="0">s</tspan><tspan class="cls-11" x="135.2" y="0">t</tspan><tspan x="139.37" y="0">er</tspan></text><rect class="cls-2" x="312.3" y="332.33" width="208" height="130"/><polyline class="cls-3" points="520.3 461.32 520.3 462.32 519.3 462.32"/><line class="cls-4" x1="517.3" y1="462.33" x2="314.3" y2="462.33"/><polyline class="cls-3" points="313.3 462.32 312.3 462.32 312.3 461.32"/><line class="cls-5" x1="312.3" y1="459.36" x2="312.3" y2="334.31"/><polyline class="cls-3" points="312.3 333.32 312.3 332.32 313.3 332.32"/><line class="cls-4" x1="315.3" y1="332.33" x2="518.3" y2="332.33"/><polyline class="cls-3" points="519.3 332.32 520.3 332.32 520.3 333.32"/><line class="cls-5" x1="520.3" y1="335.29" x2="520.3" y2="460.34"/><rect class="cls-6" x="325.3" y="363.81" width="180.88" height="28"/><text class="cls-8" transform="translate(325.3 353.33)">N<tspan class="cls-9" x="8.48" y="0">e</tspan><tspan x="15.01" y="0">w Ma</tspan><tspan class="cls-10" x="43.21" y="0">s</tspan><tspan class="cls-11" x="48.97" y="0">t</tspan><tspan x="53.14" y="0">er </tspan><tspan class="cls-12" x="66.96" y="0">K</tspan><tspan class="cls-9" x="74.27" y="0">e</tspan><tspan x="80.8" y="0">y </tspan><tspan class="cls-13" x="89.62" y="0">R</tspan><tspan x="97.12" y="0">egi</tspan><tspan class="cls-10" x="113.04" y="0">s</tspan><tspan class="cls-14" x="118.8" y="0">t</tspan><tspan class="cls-15" x="122.96" y="0">er</tspan></text><rect class="cls-6" x="325.3" y="421.33" width="181" height="28"/><text class="cls-7" transform="translate(330.22 433.26)">00000000000000000000000000000000<tspan x="0" y="10.8">00000000000000000000000000000000</tspan></text><text class="cls-8" transform="translate(325.3 411.84)">Cur<tspan class="cls-9" x="18.67" y="0">r</tspan><tspan x="23.02" y="0">ent Ma</tspan><tspan class="cls-10" x="59.62" y="0">s</tspan><tspan class="cls-11" x="65.38" y="0">t</tspan><tspan x="69.54" y="0">er </tspan><tspan class="cls-16" x="83.36" y="0">K</tspan><tspan class="cls-17" x="90.67" y="0">e</tspan><tspan x="97.2" y="0">y </tspan><tspan class="cls-13" x="106.02" y="0">R</tspan><tspan x="113.52" y="0">egi</tspan><tspan class="cls-18" x="129.44" y="0">s</tspan><tspan class="cls-11" x="135.2" y="0">t</tspan><tspan x="139.37" y="0">er</tspan></text><rect class="cls-2" x="312.3" y="477.33" width="208" height="130"/><polyline class="cls-3" points="520.3 606.33 520.3 607.33 519.3 607.33"/><line class="cls-4" x1="517.3" y1="607.33" x2="314.3" y2="607.33"/><polyline class="cls-3" points="313.3 607.33 312.3 607.33 312.3 606.33"/><line class="cls-5" x1="312.3" y1="604.36" x2="312.3" y2="479.31"/><polyline class="cls-3" points="312.3 478.32 312.3 477.32 313.3 477.32"/><line class="cls-4" x1="315.3" y1="477.33" x2="518.3" y2="477.33"/><polyline class="cls-3" points="519.3 477.32 520.3 477.32 520.3 478.32"/><line class="cls-5" x1="520.3" y1="480.29" x2="520.3" y2="605.34"/><rect class="cls-6" x="325.3" y="508.81" width="180.88" height="28"/><text class="cls-19" transform="translate(330.34 520.74)">00000000000000000000000000000000<tspan x="0" y="10.8">00000000000000000000000000000000</tspan></text><text class="cls-8" transform="translate(325.3 498.33)">N<tspan class="cls-9" x="8.48" y="0">e</tspan><tspan x="15.01" y="0">w Ma</tspan><tspan class="cls-10" x="43.21" y="0">s</tspan><tspan class="cls-11" x="48.97" y="0">t</tspan><tspan x="53.14" y="0">er </tspan><tspan class="cls-12" x="66.96" y="0">K</tspan><tspan class="cls-9" x="74.27" y="0">e</tspan><tspan x="80.8" y="0">y </tspan><tspan class="cls-13" x="89.62" y="0">R</tspan><tspan x="97.12" y="0">egi</tspan><tspan class="cls-10" x="113.04" y="0">s</tspan><tspan class="cls-14" x="118.8" y="0">t</tspan><tspan class="cls-15" x="122.96" y="0">er</tspan></text><rect class="cls-6" x="325.3" y="566.33" width="181" height="28"/><text class="cls-8" transform="translate(325.3 556.84)">Cur<tspan class="cls-9" x="18.67" y="0">r</tspan><tspan x="23.02" y="0">ent Ma</tspan><tspan class="cls-10" x="59.62" y="0">s</tspan><tspan class="cls-11" x="65.38" y="0">t</tspan><tspan x="69.54" y="0">er </tspan><tspan class="cls-16" x="83.36" y="0">K</tspan><tspan class="cls-17" x="90.67" y="0">e</tspan><tspan x="97.2" y="0">y </tspan><tspan class="cls-13" x="106.02" y="0">R</tspan><tspan x="113.52" y="0">egi</tspan><tspan class="cls-18" x="129.44" y="0">s</tspan><tspan class="cls-11" x="135.2" y="0">t</tspan><tspan x="139.37" y="0">er</tspan></text><text class="cls-8" transform="translate(541.97 91.99)">Em<tspan class="cls-20" x="17.47" y="0">p</tspan><tspan x="24.36" y="0">ty</tspan></text><text class="cls-21" transform="translate(541.97 24.99)"><tspan class="cls-22">R</tspan><tspan class="cls-23" x="7.79" y="0">egi</tspan><tspan class="cls-24" x="24.34" y="0">s</tspan><tspan class="cls-11" x="30.23" y="0">t</tspan><tspan class="cls-23" x="34.67" y="0">er </tspan><tspan class="cls-25" x="48.91" y="0">s</tspan><tspan class="cls-23" x="54.8" y="0">t</tspan><tspan class="cls-11" x="59.29" y="0">at</tspan><tspan x="70.39" y="0">e</tspan></text><text class="cls-26" transform="translate(389.97 24.99)">R<tspan class="cls-23" x="7.79" y="0">egi</tspan><tspan class="cls-24" x="24.34" y="0">s</tspan><tspan class="cls-11" x="30.23" y="0">t</tspan><tspan class="cls-23" x="34.67" y="0">er</tspan></text><text class="cls-21" transform="translate(155.97 24.99)"><tspan class="cls-11">St</tspan><tspan x="11.72" y="0">ep</tspan><tspan class="cls-27" x="25.62" y="0">/</tspan><tspan x="30.62" y="0">Command</tspan></text><text class="cls-8" transform="translate(541.97 149.99)">Em<tspan class="cls-20" x="17.47" y="0">p</tspan><tspan x="24.36" y="0">ty</tspan></text><text class="cls-28" transform="translate(541.97 235.99)"><tspan class="cls-12">F</tspan><tspan class="cls-23" x="6.41" y="0">u</tspan><tspan class="cls-17" x="13.22" y="0">l</tspan><tspan x="16.43" y="0">l un</tspan><tspan class="cls-20" x="36.16" y="0">c</tspan><tspan x="42.12" y="0">ommi</tspan><tspan class="cls-29" x="72.79" y="0">t</tspan><tspan class="cls-11" x="76.9" y="0">t</tspan><tspan x="81.06" y="0">ed</tspan></text><text class="cls-8" transform="translate(541.97 292.99)">Em<tspan class="cls-20" x="17.47" y="0">p</tspan><tspan x="24.36" y="0">ty</tspan></text><text class="cls-28" transform="translate(541.97 380.99)"><tspan class="cls-12">F</tspan><tspan class="cls-23" x="6.41" y="0">u</tspan><tspan class="cls-17" x="13.22" y="0">l</tspan><tspan x="16.43" y="0">l </tspan><tspan class="cls-20" x="22.52" y="0">c</tspan><tspan class="cls-15" x="28.49" y="0">ommi</tspan><tspan class="cls-29" x="59.16" y="0">t</tspan><tspan class="cls-11" x="63.26" y="0">t</tspan><tspan x="67.43" y="0">ed</tspan></text><text class="cls-8" transform="translate(541.97 438.99)">Em<tspan class="cls-20" x="17.47" y="0">p</tspan><tspan x="24.36" y="0">ty</tspan></text><text class="cls-28" transform="translate(541.97 523.99)">Em<tspan class="cls-20" x="17.47" y="0">p</tspan><tspan x="24.36" y="0">ty</tspan></text><text class="cls-30" transform="translate(541.97 582.99)">V<tspan class="cls-23" x="6.95" y="0">alid</tspan></text><text class="cls-8" transform="translate(149.05 158.33)">Use <tspan class="cls-31" x="23.4" y="0">domain-m</tspan><tspan class="cls-32" x="80.57" y="0">k</tspan><tspan class="cls-31" x="86.85" y="0">-load</tspan><tspan class="cls-11"><tspan x="0" y="15.4">t</tspan><tspan class="cls-33" x="4.16" y="15.4">o load the n</tspan><tspan class="cls-9" x="67.16" y="15.4">e</tspan><tspan class="cls-34" x="73.69" y="15.4">w </tspan></tspan><tspan x="0" y="30.8">ma</tspan><tspan class="cls-10" x="16.88" y="30.8">s</tspan><tspan class="cls-11" x="22.64" y="30.8">t</tspan><tspan x="26.81" y="30.8">er </tspan><tspan class="cls-35" x="40.63" y="30.8">k</tspan><tspan class="cls-17" x="46.75" y="30.8">e</tspan><tspan x="53.28" y="30.8">y </tspan><tspan class="cls-9" x="62.1" y="30.8">r</tspan><tspan x="66.44" y="30.8">egi</tspan><tspan class="cls-18" x="82.37" y="30.8">s</tspan><tspan class="cls-11" x="88.13" y="30.8">t</tspan><tspan x="92.29" y="30.8">er</tspan></text><line class="cls-36" x1="291.8" y1="108.08" x2="312.3" y2="108.08"/><line class="cls-36" x1="291.8" y1="108.08" x2="291.8" y2="232.58"/><line class="cls-36" x1="291.8" y1="232.83" x2="308.5" y2="232.83"/><polygon class="cls-37" points="307.62 235.82 312.8 232.82 307.62 229.83 307.62 235.82"/><line class="cls-36" x1="291.8" y1="253.08" x2="312.3" y2="253.08"/><line class="cls-36" x1="291.8" y1="253.08" x2="291.8" y2="377.58"/><line class="cls-36" x1="291.8" y1="377.83" x2="308.5" y2="377.83"/><polygon class="cls-37" points="307.62 380.82 312.8 377.82 307.62 374.83 307.62 380.82"/><line class="cls-36" x1="291.8" y1="399.08" x2="312.3" y2="399.08"/><line class="cls-36" x1="291.8" y1="399.08" x2="291.8" y2="523.58"/><line class="cls-36" x1="291.8" y1="523.83" x2="308.5" y2="523.83"/><polygon class="cls-37" points="307.62 526.82 312.8 523.83 307.62 520.83 307.62 526.82"/><text class="cls-38" transform="translate(330.34 230.31)">1234567890abcdef1234567890abcdef<tspan x="0" y="10.8">1234567890abcdef1234567890abcdef</tspan></text><text class="cls-39" transform="translate(330.34 375.31)">1234567890abcdef1234567890abcdef<tspan x="0" y="10.8">1234567890abcdef1234567890abcdef</tspan></text><text class="cls-38" transform="translate(330.22 577.83)">1234567890abcdef1234567890abcdef<tspan x="0" y="10.8">1234567890abcdef1234567890abcdef</tspan></text><circle class="cls-40" cx="128.3" cy="170.33" r="8.5"/><text class="cls-41" transform="translate(124.7 173.91)">1</text><text class="cls-8" transform="translate(149.05 303.33)">Use <tspan class="cls-31" x="23.4" y="0">domain-m</tspan><tspan class="cls-32" x="80.57" y="0">k</tspan><tspan class="cls-42" x="86.85" y="0">-</tspan><tspan class="cls-43" x="91.8" y="0">c</tspan><tspan class="cls-31" x="97.89" y="0">ommit</tspan><tspan class="cls-11" x="0" y="15.4">t</tspan><tspan class="cls-33" x="4.16" y="15.4">o </tspan><tspan class="cls-20" x="13.72" y="15.4">c</tspan><tspan class="cls-34" x="19.68" y="15.4">ommit the n</tspan><tspan class="cls-9" x="84.66" y="15.4">e</tspan><tspan x="91.19" y="15.4">w </tspan><tspan x="0" y="30.8">ma</tspan><tspan class="cls-10" x="16.88" y="30.8">s</tspan><tspan class="cls-11" x="22.64" y="30.8">t</tspan><tspan x="26.81" y="30.8">er </tspan><tspan class="cls-35" x="40.63" y="30.8">k</tspan><tspan class="cls-17" x="46.75" y="30.8">e</tspan><tspan x="53.28" y="30.8">y </tspan><tspan class="cls-9" x="62.1" y="30.8">r</tspan><tspan x="66.44" y="30.8">egi</tspan><tspan class="cls-18" x="82.37" y="30.8">s</tspan><tspan class="cls-11" x="88.13" y="30.8">t</tspan><tspan x="92.29" y="30.8">er</tspan></text><circle class="cls-40" cx="128.3" cy="315.33" r="8.5"/><text class="cls-41" transform="translate(124.7 318.91)">2</text><text class="cls-8" transform="translate(149.05 449.33)">Use <tspan class="cls-31" x="23.4" y="0">domain-m</tspan><tspan class="cls-32" x="80.57" y="0">k</tspan><tspan class="cls-44" x="86.85" y="0">-</tspan><tspan class="cls-31" x="91.73" y="0">setimm</tspan><tspan class="cls-11" x="0" y="15.4">t</tspan><tspan class="cls-33" x="4.16" y="15.4">o acti</tspan><tspan class="cls-45" x="33.37" y="15.4">v</tspan><tspan class="cls-34" x="39.17" y="15.4">a</tspan><tspan class="cls-11" x="45.58" y="15.4">t</tspan><tspan x="49.74" y="15.4">e the ma</tspan><tspan class="cls-10" x="96.49" y="15.4">s</tspan><tspan class="cls-14" x="102.25" y="15.4">t</tspan><tspan class="cls-34" x="106.42" y="15.4">er</tspan><tspan class="cls-46" x="0" y="30.8">k</tspan><tspan class="cls-9" x="6.12" y="30.8">e</tspan><tspan x="12.65" y="30.8">y</tspan></text><circle class="cls-40" cx="128.3" cy="461.33" r="8.5"/><text class="cls-41" transform="translate(124.7 464.91)">3</text></svg>