<svg xmlns="http://www.w3.org/2000/svg" width="750" height="245" viewBox="0 0 750 245"><defs><style>.cls-1{fill:#e3f6ff;}.cls-1,.cls-10,.cls-11,.cls-12,.cls-2,.cls-3,.cls-4,.cls-5,.cls-6,.cls-7,.cls-9{stroke:#000;}.cls-1,.cls-2,.cls-6{stroke-miterlimit:10;}.cls-14,.cls-2,.cls-5{fill:none;}.cls-3{fill:#fff;}.cls-10,.cls-11,.cls-12,.cls-14,.cls-3,.cls-4,.cls-5,.cls-7,.cls-9{stroke-linejoin:round;}.cls-4{fill:#f2f4f8;}.cls-10,.cls-11,.cls-14,.cls-5,.cls-9{stroke-linecap:round;}.cls-10,.cls-6,.cls-7{fill:#b3e6ff;}.cls-8,.cls-9{fill:#e6d6ff;}.cls-11,.cls-12{fill:#87eded;}.cls-13{opacity:0.99;}.cls-14{stroke:#50565b;stroke-width:2px;}.cls-15{fill:#50565b;}</style></defs><title>pkcs_database</title><g id="Figure"><g id="Database"><path class="cls-1" d="M106.7916,97.2053H51.2084c-3.8372,0-6.9479,2.6663-6.9479,5.9553v65.5087c0,3.2891,3.1107,5.9554,6.9479,5.9554h55.5832c3.8372,0,6.9479-2.6663,6.9479-5.9554V103.1606C113.74,99.8716,110.6288,97.2053,106.7916,97.2053Z"/><line class="cls-2" x1="44" y1="122.6892" x2="114" y2="122.6892"/><line class="cls-2" x1="45.129" y1="149.1408" x2="114" y2="149.1408"/><circle cx="59.6452" cy="109.7859" r="3.5"/><circle cx="59.6452" cy="135.915" r="3.5"/><circle cx="59.6452" cy="161.0763" r="3.5"/></g><rect class="cls-3" x="363.5" y="105.915" width="365" height="110"/><rect class="cls-4" x="347" y="88.915" width="365" height="110"/><rect class="cls-4" x="165.5" y="105.2617" width="133" height="47"/><g id="HP_icon" data-name="HP icon"><line class="cls-5" x1="392.0714" y1="155.7007" x2="414.9286" y2="155.7007"/><polyline class="cls-5" points="414.929 155.701 414.929 140.701 392.071 140.701 392.071 150.165"/><path class="cls-5" d="M410.6418,140.7007v-5.7153a7.1418,7.1418,0,1,0-14.2836,0v5.7153"/><path class="cls-5" d="M403.4961,166.415s-20.3532-11.9321-20.3532-35.3572"/><path class="cls-5" d="M423.8571,131.0578c0,23.4251-20.361,35.3572-20.361,35.3572"/><polyline class="cls-5" points="383.143 131.058 403.5 119.272 423.857 131.058"/><circle class="cls-6" cx="423.8571" cy="131.0578" r="2.1429"/><circle class="cls-6" cx="383.1429" cy="131.0578" r="2.1429"/><circle class="cls-6" cx="403.5" cy="166.415" r="2.1429"/></g><path id="Cloud" class="cls-1" d="M532.0213,132.7059a25.0242,25.0242,0,0,0-24.5988,20.32,18.7682,18.7682,0,0,0,3.3032,37.2361h42.5412a18.7682,18.7682,0,0,0,3.3032-37.2361,25.0241,25.0241,0,0,0-19.8692-19.8692A25.7039,25.7039,0,0,0,532.0213,132.7059Z"/><g id="Hardware"><rect class="cls-7" x="511.9947" y="169.1307" width="40" height="10.5882"/><polygon class="cls-7" points="551.995 168.739 511.995 168.739 519.054 153.444 544.936 153.444 551.995 168.739"/><rect x="537.2888" y="172.0718" width="4.7059" height="4.7059"/><rect x="543.7594" y="172.0718" width="4.7059" height="4.7059"/></g><g id="lock"><g id="lock-2" data-name="lock"><rect class="cls-8" x="507.4" y="167.715" width="7.2" height="2.4"/><path class="cls-9" d="M511,179.315v-2.8m-4-6.528v-5.072a4,4,0,1,1,8,0v5.072m1.6,1.216a8.1983,8.1983,0,0,0-1.6-1.2161,7.9993,7.9993,0,0,0-8,0,8.1983,8.1983,0,0,0-1.6,1.2161,8,8,0,1,0,11.2,0Z"/><circle cx="511" cy="176.515" r="1.5"/></g></g><g id="key"><path class="cls-10" d="M111.5125,175.3124a11.68,11.68,0,1,1-.5547-7.9353"/><circle cx="96.494" cy="172.0965" r="2.5"/><polyline class="cls-7" points="110.958 167.377 134.281 167.377 138.647 171.743 134.884 175.505 120.22 175.505 117.591 172.9 115.179 175.312 111.513 175.312"/></g><g id="key-2" data-name="key"><path class="cls-11" d="M640.5125,147.3124a11.68,11.68,0,1,1-.5547-7.9353"/><circle cx="625.494" cy="144.0965" r="2.5"/><polyline class="cls-12" points="639.958 139.377 663.281 139.377 667.647 143.743 663.884 147.505 649.22 147.505 646.591 144.9 644.179 147.312 640.513 147.312"/></g></g><g id="Line"><g class="cls-13"><line class="cls-14" x1="121" y1="125.5395" x2="155.259" y2="125.5395"/><polygon class="cls-15" points="154.092 129.529 161 125.54 154.092 121.55 154.092 129.529"/></g><line class="cls-14" x1="126.741" y1="134.984" x2="161" y2="134.984"/><polygon class="cls-15" points="127.908 138.973 121 134.984 127.908 130.995 127.908 138.973"/><g class="cls-13"><line class="cls-14" x1="302.6471" y1="124.3702" x2="336.9061" y2="124.3702"/><polygon class="cls-15" points="335.739 128.359 342.647 124.37 335.739 120.381 335.739 128.359"/></g><line class="cls-14" x1="308.3881" y1="133.8147" x2="342.6471" y2="133.8147"/><polygon class="cls-15" points="309.555 137.804 302.647 133.815 309.555 129.826 309.555 137.804"/></g><g id="Text"><path d="M474.07,111.7852h-4.0742v4.13h-1.8477v-9.772h1.8477v4.0039H474.07v-4.0039h1.8477v9.772H474.07Z"/><path d="M482.582,108.607h1.68l-2.9394,8.61a3.7552,3.7552,0,0,1-.3155.6792,1.6909,1.6909,0,0,1-.413.4693,1.5447,1.5447,0,0,1-.5743.2656,3.2393,3.2393,0,0,1-.7832.084h-1.0781V117.273h1.3164l.3359-1.02-2.6191-7.646H478.97l1.2744,3.8559.4756,1.8438h.084l.5049-1.8438Z"/><path d="M485.4375,108.607h1.793v1.2041h.0547a1.8425,1.8425,0,0,1,.7421-1.001,2.2181,2.2181,0,0,1,1.2745-.3711,2.5,2.5,0,0,1,2.1357.9873,4.6621,4.6621,0,0,1,.7344,2.8208,4.7229,4.7229,0,0,1-.7344,2.8418,2.4926,2.4926,0,0,1-2.1357.9941,2.1489,2.1489,0,0,1-1.2666-.3779,1.9589,1.9589,0,0,1-.75-1.0078h-.0547v4.0176h-1.793Zm3.291,5.9922a1.4834,1.4834,0,0,0,1.1328-.462,1.7475,1.7475,0,0,0,.4346-1.2461v-1.26a1.7736,1.7736,0,0,0-.4346-1.2529,1.4718,1.4718,0,0,0-1.1328-.4688,1.7343,1.7343,0,0,0-1.0723.3218,1.0181,1.0181,0,0,0-.4257.854v2.3242a1.0211,1.0211,0,0,0,.4257.8818A1.7865,1.7865,0,0,0,488.7285,114.5992Z"/><path d="M496.792,116.083a3.6443,3.6443,0,0,1-1.4492-.2729,2.998,2.998,0,0,1-1.0782-.77,3.4339,3.4339,0,0,1-.6787-1.2041,4.9507,4.9507,0,0,1-.2382-1.5889,5.008,5.008,0,0,1,.23-1.5679,3.4412,3.4412,0,0,1,.666-1.1972,2.9492,2.9492,0,0,1,1.0635-.77,3.5645,3.5645,0,0,1,1.4287-.2729,3.4822,3.4822,0,0,1,1.4834.2939,2.8668,2.8668,0,0,1,1.0362.7984,3.4541,3.4541,0,0,1,.6093,1.1689,4.86,4.86,0,0,1,.2032,1.4209v.5879H495.21v.1807a1.7881,1.7881,0,0,0,.4482,1.272,1.7338,1.7338,0,0,0,1.33.4794,1.9836,1.9836,0,0,0,1.0986-.2778,3.1358,3.1358,0,0,0,.7627-.709l.9668,1.0811a3.0023,3.0023,0,0,1-1.2256.99A4.2663,4.2663,0,0,1,496.792,116.083Zm-.0283-6.3a1.4349,1.4349,0,0,0-1.1338.4761,1.7909,1.7909,0,0,0-.42,1.2319v.1119h2.9951v-.126a1.9191,1.9191,0,0,0-.37-1.2251A1.2852,1.2852,0,0,0,496.7637,109.7832Z"/><path d="M501.65,115.9151V108.607h1.791v1.5122h.07a2.344,2.344,0,0,1,.2168-.5669,1.7437,1.7437,0,0,1,.3848-.4834,1.8528,1.8528,0,0,1,.5674-.336,2.1289,2.1289,0,0,1,.7627-.1259h.3925v1.6943h-.56a2.807,2.807,0,0,0-1.3711.2656.9244.9244,0,0,0-.4629.8682v4.48Z"/><path d="M510.5674,115.9151v-9.772h4.3955a3.2159,3.2159,0,0,1,1.2109.2168,2.57,2.57,0,0,1,.918.6162,2.6488,2.6488,0,0,1,.5742.959,4.0062,4.0062,0,0,1,0,2.4712,2.6558,2.6558,0,0,1-.5742.9516,2.5636,2.5636,0,0,1-.918.6163,3.2159,3.2159,0,0,1-1.2109.2167H512.416v3.7242Zm1.8486-5.32h2.3789a1.1812,1.1812,0,0,0,.84-.2871,1.0623,1.0623,0,0,0,.3086-.8188v-.6441a1.0393,1.0393,0,0,0-.3086-.812,1.2006,1.2006,0,0,0-.84-.28H512.416Z"/><path d="M519.2891,115.9151V108.607h1.7929v1.5122h.0694a2.3022,2.3022,0,0,1,.2177-.5669,1.7257,1.7257,0,0,1,.3848-.4834,1.8487,1.8487,0,0,1,.5664-.336,2.1273,2.1273,0,0,1,.7637-.1259h.3916v1.6943h-.56a2.8155,2.8155,0,0,0-1.373.2656.9248.9248,0,0,0-.461.8682v4.48Z"/><path d="M527.6191,116.083a3.5475,3.5475,0,0,1-1.4062-.2661,2.913,2.913,0,0,1-1.0645-.77,3.5091,3.5091,0,0,1-.6787-1.2109,4.9479,4.9479,0,0,1-.2383-1.5889,4.8856,4.8856,0,0,1,.2383-1.582,3.4423,3.4423,0,0,1,.6787-1.1968,2.9473,2.9473,0,0,1,1.0645-.7632,3.5492,3.5492,0,0,1,1.4062-.2661,3.6021,3.6021,0,0,1,1.4141.2661,2.9393,2.9393,0,0,1,1.0713.7632,3.4423,3.4423,0,0,1,.6787,1.1968,4.8856,4.8856,0,0,1,.2383,1.582,4.9479,4.9479,0,0,1-.2383,1.5889,3.5091,3.5091,0,0,1-.6787,1.2109,2.9052,2.9052,0,0,1-1.0713.77A3.6,3.6,0,0,1,527.6191,116.083Zm0-1.4419a1.4609,1.4609,0,0,0,1.1211-.434,1.8047,1.8047,0,0,0,.4053-1.274v-1.3579a1.7839,1.7839,0,0,0-.4053-1.26,1.4624,1.4624,0,0,0-1.1211-.4341,1.44,1.44,0,0,0-1.1054.4341,1.7754,1.7754,0,0,0-.4063,1.26v1.3579a1.7961,1.7961,0,0,0,.4063,1.274A1.4387,1.4387,0,0,0,527.6191,114.6411Z"/><path d="M534.8291,115.9151a1.911,1.911,0,0,1-1.4072-.4815,1.8584,1.8584,0,0,1-.4824-1.376v-4.0087h-1.0782V108.607h.5606a.6689.6689,0,0,0,.5527-.189.9164.9164,0,0,0,.1465-.5669V106.605h1.61v2.002h1.4971v1.4419h-1.4971v4.4243h1.3858v1.4419Z"/><path d="M540.6816,116.083a3.6409,3.6409,0,0,1-1.4492-.2729,2.98,2.98,0,0,1-1.0781-.77,3.42,3.42,0,0,1-.68-1.2041,5.4207,5.4207,0,0,1-.0068-3.1568,3.4394,3.4394,0,0,1,.665-1.1972,2.9521,2.9521,0,0,1,1.0645-.77,3.563,3.563,0,0,1,1.4277-.2729,3.4841,3.4841,0,0,1,1.4844.2939,2.8543,2.8543,0,0,1,1.0351.7984,3.4209,3.4209,0,0,1,.6094,1.1689,4.86,4.86,0,0,1,.2031,1.4209v.5879H539.1v.1807a1.7872,1.7872,0,0,0,.4473,1.272,1.7338,1.7338,0,0,0,1.33.4794,1.9874,1.9874,0,0,0,1.1-.2778,3.1174,3.1174,0,0,0,.7617-.709l.9668,1.0811a3.0071,3.0071,0,0,1-1.2246.99A4.2671,4.2671,0,0,1,540.6816,116.083Zm-.0293-6.3a1.4329,1.4329,0,0,0-1.1328.4761,1.7866,1.7866,0,0,0-.42,1.2319v.1119h2.9951v-.126a1.9244,1.9244,0,0,0-.37-1.2251A1.2883,1.2883,0,0,0,540.6523,109.7832Z"/><path d="M548.4229,116.083a3.6789,3.6789,0,0,1-1.4424-.2661,2.783,2.783,0,0,1-1.0567-.77,3.444,3.444,0,0,1-.65-1.2109,5.2151,5.2151,0,0,1-.2246-1.5889,5.1493,5.1493,0,0,1,.2246-1.582,3.3772,3.3772,0,0,1,.65-1.1968,2.8141,2.8141,0,0,1,1.0567-.7632,3.6807,3.6807,0,0,1,1.4424-.2661,3.1819,3.1819,0,0,1,1.8271.49,2.7517,2.7517,0,0,1,1.043,1.3579l-1.4707.6578a1.5243,1.5243,0,0,0-.4688-.7627,1.3613,1.3613,0,0,0-.9306-.3013,1.3411,1.3411,0,0,0-1.127.4761,1.9715,1.9715,0,0,0-.3711,1.2461v1.33a1.94,1.94,0,0,0,.3711,1.2388,1.3481,1.3481,0,0,0,1.127.4692,1.3977,1.3977,0,0,0,.9941-.3291,2.2534,2.2534,0,0,0,.5459-.8188l1.3721.6577a2.8709,2.8709,0,0,1-1.1065,1.4492A3.2372,3.2372,0,0,1,548.4229,116.083Z"/><path d="M555.0029,115.9151a1.9111,1.9111,0,0,1-1.4072-.4815,1.8584,1.8584,0,0,1-.4824-1.376v-4.0087h-1.0781V108.607h.56a.6689.6689,0,0,0,.5527-.189.9164.9164,0,0,0,.1465-.5669V106.605h1.61v2.002h1.497v1.4419h-1.497v4.4243h1.3857v1.4419Z"/><path d="M565.167,116.083a4.6,4.6,0,0,1-1.7432-.3149,3.4842,3.4842,0,0,1-1.33-.9448,4.29,4.29,0,0,1-.8477-1.5611,7.22,7.22,0,0,1-.293-2.163,7.5017,7.5017,0,0,1,.293-2.191,4.4815,4.4815,0,0,1,.8477-1.61,3.5937,3.5937,0,0,1,1.33-.9868,4.3433,4.3433,0,0,1,1.7432-.336,3.9531,3.9531,0,0,1,2.1836.56,3.8369,3.8369,0,0,1,1.3857,1.6938l-1.582.84a2.22,2.22,0,0,0-.6855-1.0567,1.9651,1.9651,0,0,0-1.3018-.3989,2.07,2.07,0,0,0-1.6455.7,2.8894,2.8894,0,0,0-.6084,1.96v1.54a2.8287,2.8287,0,0,0,.6084,1.9531,2.0993,2.0993,0,0,0,1.6455.6788,2.0074,2.0074,0,0,0,1.3506-.4478,2.5813,2.5813,0,0,0,.7627-1.106l1.498.8819a4.3039,4.3039,0,0,1-1.414,1.7012A3.7785,3.7785,0,0,1,565.167,116.083Z"/><path d="M570.249,115.9151V108.607h1.792v1.5122h.07a2.2643,2.2643,0,0,1,.2168-.5669,1.7257,1.7257,0,0,1,.3848-.4834,1.8409,1.8409,0,0,1,.5674-.336,2.1251,2.1251,0,0,1,.7627-.1259h.3916v1.6943h-.56a2.8116,2.8116,0,0,0-1.3721.2656.9255.9255,0,0,0-.4619.8682v4.48Z"/><path d="M580.3418,108.607h1.6807l-2.9405,8.61a3.7492,3.7492,0,0,1-.3144.6792,1.7074,1.7074,0,0,1-.4131.4693,1.5584,1.5584,0,0,1-.5742.2656,3.2491,3.2491,0,0,1-.7842.084H575.918V117.273h1.3164l.3359-1.02-2.6182-7.646h1.7784l1.2734,3.8559.4766,1.8438h.084l.5039-1.8438Z"/><path d="M583.1982,108.607h1.792v1.2041h.0557a1.8379,1.8379,0,0,1,.7422-1.001,2.2154,2.2154,0,0,1,1.2744-.3711,2.4984,2.4984,0,0,1,2.1348.9873,4.6559,4.6559,0,0,1,.7343,2.8208,4.7166,4.7166,0,0,1-.7343,2.8418,2.491,2.491,0,0,1-2.1348.9941,2.1522,2.1522,0,0,1-1.2676-.3779,1.9571,1.9571,0,0,1-.749-1.0078H584.99v4.0176h-1.792Zm3.29,5.9922a1.4843,1.4843,0,0,0,1.1338-.462,1.7474,1.7474,0,0,0,.4336-1.2461v-1.26a1.7735,1.7735,0,0,0-.4336-1.2529,1.4726,1.4726,0,0,0-1.1338-.4688,1.7311,1.7311,0,0,0-1.0713.3218,1.0163,1.0163,0,0,0-.4268.854v2.3242a1.0193,1.0193,0,0,0,.4268.8818A1.7831,1.7831,0,0,0,586.4883,114.5992Z"/><path d="M593.7969,115.9151a1.9114,1.9114,0,0,1-1.4073-.4815,1.8592,1.8592,0,0,1-.4834-1.376v-4.0087h-1.0781V108.607h.5606a.6676.6676,0,0,0,.5527-.189.9161.9161,0,0,0,.1475-.5669V106.605h1.6093v2.002h1.4981v1.4419h-1.4981v4.4243h1.3868v1.4419Z"/><path d="M599.5918,116.083a3.548,3.548,0,0,1-1.4063-.2661,2.9118,2.9118,0,0,1-1.0644-.77,3.5075,3.5075,0,0,1-.6787-1.2109,4.9479,4.9479,0,0,1-.2383-1.5889,4.8856,4.8856,0,0,1,.2383-1.582,3.4407,3.4407,0,0,1,.6787-1.1968,2.9461,2.9461,0,0,1,1.0644-.7632,3.55,3.55,0,0,1,1.4063-.2661,3.6028,3.6028,0,0,1,1.4141.2661,2.9381,2.9381,0,0,1,1.0712.7632,3.4409,3.4409,0,0,1,.6788,1.1968,4.8884,4.8884,0,0,1,.2382,1.582,4.9507,4.9507,0,0,1-.2382,1.5889,3.5076,3.5076,0,0,1-.6788,1.2109,2.904,2.904,0,0,1-1.0712.77A3.601,3.601,0,0,1,599.5918,116.083Zm0-1.4419a1.4574,1.4574,0,0,0,1.12-.434,1.8007,1.8007,0,0,0,.4063-1.274v-1.3579a1.78,1.78,0,0,0-.4063-1.26,1.4588,1.4588,0,0,0-1.12-.4341,1.44,1.44,0,0,0-1.1055.4341,1.78,1.78,0,0,0-.4062,1.26v1.3579a1.8007,1.8007,0,0,0,.4062,1.274A1.4389,1.4389,0,0,0,599.5918,114.6411Z"/><path d="M611.0293,116.083a4.634,4.634,0,0,1-2.1348-.4487,4.9616,4.9616,0,0,1-1.5049-1.1782l1.2461-1.2061a3.5719,3.5719,0,0,0,1.127.89,3.089,3.089,0,0,0,1.3789.3052,1.9462,1.9462,0,0,0,1.2881-.3682,1.2348,1.2348,0,0,0,.4336-.9932,1.1276,1.1276,0,0,0-.2793-.792,1.8848,1.8848,0,0,0-1.05-.4443l-.9248-.1387q-2.9253-.4629-2.9258-2.8457a2.8206,2.8206,0,0,1,.2451-1.1914,2.5369,2.5369,0,0,1,.707-.9111,3.2687,3.2687,0,0,1,1.1133-.582,4.9528,4.9528,0,0,1,1.4766-.2032,4.7515,4.7515,0,0,1,1.9326.3648,3.7923,3.7923,0,0,1,1.4131,1.08l-1.26,1.1923a2.8872,2.8872,0,0,0-.8818-.7216,2.7362,2.7362,0,0,0-1.3018-.2774,1.9856,1.9856,0,0,0-1.1972.2984,1.1382,1.1382,0,0,0-.0772,1.6582,2.2712,2.2712,0,0,0,1.0361.3886l.91.168a4.18,4.18,0,0,1,2.1914.9463,2.5117,2.5117,0,0,1,.7061,1.8989,3.1739,3.1739,0,0,1-.2442,1.2686,2.744,2.744,0,0,1-.7148.9809,3.257,3.257,0,0,1-1.1475.6377A4.979,4.979,0,0,1,611.0293,116.083Z"/><path d="M619.3877,116.083a3.6443,3.6443,0,0,1-1.4492-.2729,2.9967,2.9967,0,0,1-1.0781-.77,3.4325,3.4325,0,0,1-.6788-1.2041,5.4229,5.4229,0,0,1-.0068-3.1568,3.4077,3.4077,0,0,1,.665-1.1972,2.9492,2.9492,0,0,1,1.0635-.77,3.5666,3.5666,0,0,1,1.4278-.2729,3.4836,3.4836,0,0,1,1.4843.2939,2.8575,2.8575,0,0,1,1.0362.7984,3.4541,3.4541,0,0,1,.6093,1.1689,4.86,4.86,0,0,1,.2022,1.4209v.5879h-4.8574v.1807a1.7881,1.7881,0,0,0,.4482,1.272,1.73,1.73,0,0,0,1.3291.4794,1.9849,1.9849,0,0,0,1.1-.2778,3.1358,3.1358,0,0,0,.7627-.709l.9658,1.0811a3.0058,3.0058,0,0,1-1.2246.99A4.2634,4.2634,0,0,1,619.3877,116.083Zm-.0283-6.3a1.4363,1.4363,0,0,0-1.1338.4761,1.7909,1.7909,0,0,0-.42,1.2319v.1119h2.9961v-.126a1.9194,1.9194,0,0,0-.3711-1.2251A1.2865,1.2865,0,0,0,619.3594,109.7832Z"/><path d="M624.2461,115.9151V108.607h1.792v1.5122h.07a2.2643,2.2643,0,0,1,.2168-.5669,1.7257,1.7257,0,0,1,.3848-.4834,1.8416,1.8416,0,0,1,.5673-.336,2.1258,2.1258,0,0,1,.7627-.1259h.3916v1.6943h-.5595a2.8114,2.8114,0,0,0-1.3721.2656.9255.9255,0,0,0-.4619.8682v4.48Z"/><path d="M631.4268,115.9151l-2.4356-7.3081h1.7637l1.0224,3.15.7139,2.604h.0977l.7148-2.604.9932-3.15h1.708l-2.4492,7.3081Z"/><path d="M638.0908,107.543a1.0869,1.0869,0,0,1-.8047-.252.8867.8867,0,0,1-.2451-.644v-.28a.8867.8867,0,0,1,.2451-.644,1.4014,1.4014,0,0,1,1.6035,0,.8722.8722,0,0,1,.252.644v.28a.8722.8722,0,0,1-.252.644A1.0943,1.0943,0,0,1,638.0908,107.543Zm-.8955,1.064h1.792v7.3081h-1.792Z"/><path d="M643.9434,116.083a3.6855,3.6855,0,0,1-1.4424-.2661,2.7838,2.7838,0,0,1-1.0567-.77,3.46,3.46,0,0,1-.6513-1.2109,5.247,5.247,0,0,1-.2237-1.5889,5.1806,5.1806,0,0,1,.2237-1.582,3.3929,3.3929,0,0,1,.6513-1.1968,2.8148,2.8148,0,0,1,1.0567-.7632,3.6873,3.6873,0,0,1,1.4424-.2661,3.1819,3.1819,0,0,1,1.8271.49,2.7517,2.7517,0,0,1,1.043,1.3579l-1.47.6578a1.5191,1.5191,0,0,0-.47-.7627,1.3613,1.3613,0,0,0-.9306-.3013,1.3413,1.3413,0,0,0-1.127.4761,1.9715,1.9715,0,0,0-.3711,1.2461v1.33a1.94,1.94,0,0,0,.3711,1.2388,1.3482,1.3482,0,0,0,1.127.4692,1.3962,1.3962,0,0,0,.9941-.3291,2.2534,2.2534,0,0,0,.5459-.8188l1.3721.6577A2.8709,2.8709,0,0,1,645.749,115.6,3.24,3.24,0,0,1,643.9434,116.083Z"/><path d="M651.125,116.083a3.6443,3.6443,0,0,1-1.4492-.2729,2.9967,2.9967,0,0,1-1.0781-.77,3.4325,3.4325,0,0,1-.6788-1.2041,5.4229,5.4229,0,0,1-.0068-3.1568,3.4077,3.4077,0,0,1,.665-1.1972,2.9492,2.9492,0,0,1,1.0635-.77,3.5666,3.5666,0,0,1,1.4278-.2729,3.4836,3.4836,0,0,1,1.4843.2939,2.8575,2.8575,0,0,1,1.0362.7984,3.4541,3.4541,0,0,1,.6093,1.1689,4.86,4.86,0,0,1,.2022,1.4209v.5879H649.543v.1807a1.7881,1.7881,0,0,0,.4482,1.272,1.73,1.73,0,0,0,1.3291.4794,1.9846,1.9846,0,0,0,1.1-.2778,3.1358,3.1358,0,0,0,.7627-.709l.9658,1.0811a3.0058,3.0058,0,0,1-1.2246.99A4.2634,4.2634,0,0,1,651.125,116.083Zm-.0283-6.3a1.4363,1.4363,0,0,0-1.1338.4761,1.7909,1.7909,0,0,0-.42,1.2319v.1119h2.9961v-.126a1.9194,1.9194,0,0,0-.3711-1.2251A1.2865,1.2865,0,0,0,651.0967,109.7832Z"/><path d="M658.377,116.083a3.9228,3.9228,0,0,1-1.7637-.3569,4.0544,4.0544,0,0,1-1.26-.9868l1.0918-1.0645a3.3117,3.3117,0,0,0,.8887.7281,2.2672,2.2672,0,0,0,1.1133.2661,1.5246,1.5246,0,0,0,.9306-.2241.7376.7376,0,0,0,.2871-.6158.663.663,0,0,0-.2031-.5112,1.2879,1.2879,0,0,0-.6924-.2588l-.7285-.0981a3.4646,3.4646,0,0,1-1.8125-.6787,1.8908,1.8908,0,0,1-.623-1.5332,2.2847,2.2847,0,0,1,.1953-.959,2.0333,2.0333,0,0,1,.5605-.7281,2.5618,2.5618,0,0,1,.875-.4619,3.7832,3.7832,0,0,1,1.1407-.1611,5.2117,5.2117,0,0,1,.9453.0771,3.4153,3.4153,0,0,1,.749.2242,2.9162,2.9162,0,0,1,.6162.3637,5.9314,5.9314,0,0,1,.5459.4829l-1.05,1.05a2.7736,2.7736,0,0,0-.77-.56,2.1584,2.1584,0,0,0-.98-.2241,1.3516,1.3516,0,0,0-.8477.21.67.67,0,0,0-.2588.5459.6938.6938,0,0,0,.2168.5532,1.5039,1.5039,0,0,0,.7354.273l.7422.0981q2.3657.3356,2.3662,2.1558a2.174,2.174,0,0,1-.2178.9731,2.2174,2.2174,0,0,1-.6084.7559,2.8875,2.8875,0,0,1-.9453.49A4.1163,4.1163,0,0,1,658.377,116.083Z"/><path d="M24.9839,19.7813v8.1338H23.1362V19.7813H20.3638V18.1431h7.3921v1.6382Z"/><path d="M28.5259,27.9151V20.607h1.792v1.5122h.07a2.321,2.321,0,0,1,.2173-.5669,1.7343,1.7343,0,0,1,.3847-.4834,1.8513,1.8513,0,0,1,.5669-.336,2.1287,2.1287,0,0,1,.7632-.1259h.3921v1.6943h-.56a2.8114,2.8114,0,0,0-1.3721.2656.9246.9246,0,0,0-.4619.8682v4.48Z"/><path d="M39.25,27.9151a1.2588,1.2588,0,0,1-.9312-.3428,1.574,1.574,0,0,1-.4267-.917h-.084a1.7164,1.7164,0,0,1-.7422,1.0708,2.5313,2.5313,0,0,1-1.3862.3569,2.367,2.367,0,0,1-1.7217-.5859,2.0814,2.0814,0,0,1-.602-1.5635,1.8926,1.8926,0,0,1,.812-1.6811,4.0888,4.0888,0,0,1,2.31-.5513h1.2461V23.169a1.3211,1.3211,0,0,0-.3222-.9522,1.3847,1.3847,0,0,0-1.0362-.3359,1.72,1.72,0,0,0-1.0146.2729,2.6992,2.6992,0,0,0-.6514.6514l-1.064-.958a3.0881,3.0881,0,0,1,1.0782-1.0205,3.5441,3.5441,0,0,1,1.7778-.3877,3.3424,3.3424,0,0,1,2.2544.67,2.42,2.42,0,0,1,.77,1.9277v3.4361h.7276v1.4419Zm-2.9683-1.1338a1.884,1.884,0,0,0,1.022-.2642.8625.8625,0,0,0,.42-.7788v-.9595H36.5757q-1.4,0-1.4.89v.2363a.7721.7721,0,0,0,.2871.66A1.3413,1.3413,0,0,0,36.2817,26.7813Z"/><path d="M41.7,27.9151V20.607h1.792v1.2182h.07a2.3422,2.3422,0,0,1,.7071-.9873,2.0412,2.0412,0,0,1,1.3369-.3989,2.1071,2.1071,0,0,1,1.7363.7422,3.28,3.28,0,0,1,.6016,2.1138v4.62h-1.792v-4.438a2.0251,2.0251,0,0,0-.28-1.1758,1.0576,1.0576,0,0,0-.9238-.3921,1.8971,1.8971,0,0,0-.5391.0767,1.5119,1.5119,0,0,0-.4619.2241,1.168,1.168,0,0,0-.3291.3642.9993.9993,0,0,0-.126.5108v4.83Z"/><path d="M52.3257,28.083a3.9239,3.9239,0,0,1-1.7642-.3569,4.0605,4.0605,0,0,1-1.26-.9868l1.0923-1.0645a3.2979,3.2979,0,0,0,.8891.7281,2.2645,2.2645,0,0,0,1.1128.2661,1.5256,1.5256,0,0,0,.9312-.2241.7386.7386,0,0,0,.2866-.6158.6645.6645,0,0,0-.2027-.5112,1.2931,1.2931,0,0,0-.6933-.2588L51.99,24.961a3.468,3.468,0,0,1-1.8134-.6787,1.8933,1.8933,0,0,1-.6226-1.5332,2.271,2.271,0,0,1,.1958-.959,2.0322,2.0322,0,0,1,.56-.7281,2.5655,2.5655,0,0,1,.875-.4619,3.7817,3.7817,0,0,1,1.1411-.1611,5.2052,5.2052,0,0,1,.9448.0771,3.4236,3.4236,0,0,1,.749.2242,2.8889,2.8889,0,0,1,.6162.3637,5.9183,5.9183,0,0,1,.5459.4829l-1.05,1.05a2.77,2.77,0,0,0-.77-.56,2.159,2.159,0,0,0-.98-.2241,1.3487,1.3487,0,0,0-.8466.21.67.67,0,0,0-.2593.5459.6924.6924,0,0,0,.2173.5532,1.503,1.503,0,0,0,.7348.273l.7422.0981q2.3658.3356,2.3657,2.1558a2.1747,2.1747,0,0,1-.2167.9731,2.2227,2.2227,0,0,1-.6094.7559,2.8769,2.8769,0,0,1-.9448.49A4.1118,4.1118,0,0,1,52.3257,28.083Z"/><path d="M56.918,20.607H58.71v1.2041h.0556a1.84,1.84,0,0,1,.7422-1.001,2.2142,2.2142,0,0,1,1.2739-.3711,2.4986,2.4986,0,0,1,2.1353.9873,4.6593,4.6593,0,0,1,.7349,2.8208,4.72,4.72,0,0,1-.7349,2.8418,2.4912,2.4912,0,0,1-2.1353.9941,2.1508,2.1508,0,0,1-1.2671-.3779,1.9555,1.9555,0,0,1-.749-1.0078H58.71v4.0176H56.918Zm3.29,5.9922a1.4858,1.4858,0,0,0,1.1338-.462,1.7472,1.7472,0,0,0,.4341-1.2461v-1.26a1.7734,1.7734,0,0,0-.4341-1.2529,1.4741,1.4741,0,0,0-1.1338-.4688,1.73,1.73,0,0,0-1.0713.3218,1.0177,1.0177,0,0,0-.4267.854v2.3242a1.0207,1.0207,0,0,0,.4267.8818A1.7823,1.7823,0,0,0,60.208,26.5992Z"/><path d="M70.6934,27.9151a1.2586,1.2586,0,0,1-.9312-.3428,1.5741,1.5741,0,0,1-.4268-.917h-.0839a1.7168,1.7168,0,0,1-.7422,1.0708,2.5319,2.5319,0,0,1-1.3863.3569,2.3668,2.3668,0,0,1-1.7216-.5859,2.0815,2.0815,0,0,1-.6021-1.5635,1.8926,1.8926,0,0,1,.812-1.6811,4.0891,4.0891,0,0,1,2.31-.5513h1.2461V23.169a1.3207,1.3207,0,0,0-.3223-.9522,1.3843,1.3843,0,0,0-1.0361-.3359,1.72,1.72,0,0,0-1.0147.2729,2.6988,2.6988,0,0,0-.6513.6514l-1.064-.958a3.0886,3.0886,0,0,1,1.0781-1.0205,3.5448,3.5448,0,0,1,1.7779-.3877,3.3426,3.3426,0,0,1,2.2544.67,2.42,2.42,0,0,1,.77,1.9277v3.4361h.7275v1.4419Zm-2.9683-1.1338a1.884,1.884,0,0,0,1.022-.2642.8627.8627,0,0,0,.42-.7788v-.9595H68.019q-1.4,0-1.4.89v.2363a.7721.7721,0,0,0,.2871.66A1.3418,1.3418,0,0,0,67.7251,26.7813Z"/><path d="M73.1436,27.9151V20.607h1.7919v1.5122h.07a2.317,2.317,0,0,1,.2173-.5669,1.7325,1.7325,0,0,1,.3847-.4834,1.8513,1.8513,0,0,1,.5669-.336,2.1283,2.1283,0,0,1,.7632-.1259H77.33v1.6943h-.56a2.8112,2.8112,0,0,0-1.372.2656.9246.9246,0,0,0-.462.8682v4.48Z"/><path d="M81.53,28.083a3.6461,3.6461,0,0,1-1.4492-.2729,2.998,2.998,0,0,1-1.0782-.77,3.4339,3.4339,0,0,1-.6787-1.2041,5.4263,5.4263,0,0,1-.0073-3.1568,3.4394,3.4394,0,0,1,.665-1.1972,2.9511,2.9511,0,0,1,1.064-.77,3.5655,3.5655,0,0,1,1.4282-.2729,3.4814,3.4814,0,0,1,1.4839.2939,2.8626,2.8626,0,0,1,1.0362.7984A3.4443,3.4443,0,0,1,84.6025,22.7a4.8438,4.8438,0,0,1,.2032,1.4209v.5879H79.9478V24.89a1.7878,1.7878,0,0,0,.4477,1.272,1.7338,1.7338,0,0,0,1.33.4794,1.9843,1.9843,0,0,0,1.0991-.2778,3.1267,3.1267,0,0,0,.7627-.709l.9663,1.0811a3.004,3.004,0,0,1-1.2251.99A4.2637,4.2637,0,0,1,81.53,28.083Zm-.0283-6.3a1.4349,1.4349,0,0,0-1.1338.4761,1.7909,1.7909,0,0,0-.42,1.2319v.1119h2.9956v-.126a1.9193,1.9193,0,0,0-.3706-1.2251A1.2858,1.2858,0,0,0,81.5015,21.7832Z"/><path d="M86.3877,27.9151V20.607H88.18v1.2182h.07a2.3429,2.3429,0,0,1,.707-.9873,2.0416,2.0416,0,0,1,1.337-.3989,2.1071,2.1071,0,0,1,1.7363.7422,3.28,3.28,0,0,1,.6015,2.1138v4.62H90.8394v-4.438a2.0251,2.0251,0,0,0-.28-1.1758,1.0577,1.0577,0,0,0-.9239-.3921,1.8964,1.8964,0,0,0-.539.0767,1.5119,1.5119,0,0,0-.4619.2241,1.1667,1.1667,0,0,0-.3291.3642.9993.9993,0,0,0-.126.5108v4.83Z"/><path d="M96.9014,27.9151a1.91,1.91,0,0,1-1.4068-.4815,1.859,1.859,0,0,1-.4829-1.376V22.0489H93.9336V20.607h.56a.6677.6677,0,0,0,.5527-.189.9136.9136,0,0,0,.147-.5669V18.605h1.61v2.002h1.4976v1.4419H96.8037v4.4243H98.19v1.4419Z"/><path d="M103.271,18.1431h3.5561a4.662,4.662,0,0,1,1.7291.3081,3.5243,3.5243,0,0,1,1.33.917,4.1712,4.1712,0,0,1,.854,1.5259,6.8657,6.8657,0,0,1,.3008,2.1347,6.87,6.87,0,0,1-.3008,2.1353,4.172,4.172,0,0,1-.854,1.5259,3.5254,3.5254,0,0,1-1.33.917,4.6539,4.6539,0,0,1-1.7291.3081H103.271Zm3.5561,8.1338a2.223,2.223,0,0,0,1.6451-.6089,2.5456,2.5456,0,0,0,.6089-1.8691v-1.54a2.5454,2.5454,0,0,0-.6089-1.8691,2.2226,2.2226,0,0,0-1.6451-.6089h-1.708v6.4956Z"/><path d="M118.1816,27.9151a1.2589,1.2589,0,0,1-.9316-.3428,1.5834,1.5834,0,0,1-.4277-.917h-.084a1.7074,1.7074,0,0,1-.7422,1.0708,2.526,2.526,0,0,1-1.3853.3569,2.3668,2.3668,0,0,1-1.7216-.5859,2.0815,2.0815,0,0,1-.6021-1.5635,1.8926,1.8926,0,0,1,.812-1.6811,4.0891,4.0891,0,0,1,2.31-.5513h1.2451V23.169a1.3287,1.3287,0,0,0-.32-.9522,1.3864,1.3864,0,0,0-1.0371-.3359,1.72,1.72,0,0,0-1.0147.2729,2.6988,2.6988,0,0,0-.6513.6514l-1.064-.958a3.0886,3.0886,0,0,1,1.0781-1.0205,3.5445,3.5445,0,0,1,1.7779-.3877,3.3436,3.3436,0,0,1,2.2548.67,2.4239,2.4239,0,0,1,.77,1.9277v3.4361h.7285v1.4419Zm-2.9687-1.1338a1.881,1.881,0,0,0,1.0215-.2642.86.86,0,0,0,.42-.7788v-.9595h-1.1475q-1.4,0-1.4.89v.2363a.7721.7721,0,0,0,.2871.66A1.3416,1.3416,0,0,0,115.2129,26.7813Z"/><path d="M122.8574,27.9151a1.9111,1.9111,0,0,1-1.4072-.4815,1.8588,1.8588,0,0,1-.4834-1.376V22.0489h-1.0781V20.607h.5605a.6679.6679,0,0,0,.5528-.189.9168.9168,0,0,0,.1474-.5669V18.605h1.6094v2.002h1.498v1.4419h-1.498v4.4243h1.3867v1.4419Z"/><path d="M131.1865,27.9151a1.2564,1.2564,0,0,1-.9306-.3428,1.5781,1.5781,0,0,1-.4278-.917h-.084a1.711,1.711,0,0,1-.7421,1.0708,2.5289,2.5289,0,0,1-1.3858.3569,2.367,2.367,0,0,1-1.7217-.5859,2.0821,2.0821,0,0,1-.6025-1.5635,1.894,1.894,0,0,1,.8125-1.6811,4.0893,4.0893,0,0,1,2.31-.5513H129.66V23.169a1.3251,1.3251,0,0,0-.3213-.9522,1.3855,1.3855,0,0,0-1.0362-.3359,1.7241,1.7241,0,0,0-1.0156.2729,2.6879,2.6879,0,0,0-.65.6514l-1.0644-.958a3.0835,3.0835,0,0,1,1.0781-1.0205,3.5461,3.5461,0,0,1,1.7783-.3877,3.341,3.341,0,0,1,2.2539.67,2.4209,2.4209,0,0,1,.7695,1.9277v3.4361h.7286v1.4419Zm-2.9677-1.1338a1.8854,1.8854,0,0,0,1.0214-.2642.8622.8622,0,0,0,.42-.7788v-.9595h-1.1475q-1.4,0-1.4.89v.2363a.7721.7721,0,0,0,.2871.66A1.3412,1.3412,0,0,0,128.2188,26.7813Z"/><path d="M133.6367,17.5552h1.792v4.2559h.0557a1.8374,1.8374,0,0,1,.7422-1.001,2.2154,2.2154,0,0,1,1.2744-.3711,2.4981,2.4981,0,0,1,2.1347.9873,4.6552,4.6552,0,0,1,.7344,2.8208,4.7159,4.7159,0,0,1-.7344,2.8418,2.4907,2.4907,0,0,1-2.1347.9941,2.1522,2.1522,0,0,1-1.2676-.3779,1.9571,1.9571,0,0,1-.749-1.0078h-.0557v1.2178h-1.792Zm3.29,9.044a1.4839,1.4839,0,0,0,1.1337-.462,1.747,1.747,0,0,0,.4336-1.2461v-1.26a1.7731,1.7731,0,0,0-.4336-1.2529,1.4723,1.4723,0,0,0-1.1337-.4688,1.7311,1.7311,0,0,0-1.0713.3218,1.0163,1.0163,0,0,0-.4268.854v2.3242a1.0193,1.0193,0,0,0,.4268.8818A1.7831,1.7831,0,0,0,136.9268,26.5992Z"/><path d="M147.4131,27.9151a1.2566,1.2566,0,0,1-.9307-.3428,1.5774,1.5774,0,0,1-.4277-.917h-.084a1.7111,1.7111,0,0,1-.7422,1.0708,2.5284,2.5284,0,0,1-1.3857.3569,2.367,2.367,0,0,1-1.7217-.5859,2.0817,2.0817,0,0,1-.6025-1.5635,1.8938,1.8938,0,0,1,.8125-1.6811,4.0892,4.0892,0,0,1,2.31-.5513h1.2461V23.169a1.3247,1.3247,0,0,0-.3213-.9522,1.3851,1.3851,0,0,0-1.0361-.3359,1.7241,1.7241,0,0,0-1.0156.2729,2.6844,2.6844,0,0,0-.65.6514l-1.0645-.958a3.0838,3.0838,0,0,1,1.0782-1.0205,3.5461,3.5461,0,0,1,1.7783-.3877,3.3412,3.3412,0,0,1,2.2539.67,2.4209,2.4209,0,0,1,.7695,1.9277v3.4361h.7285v1.4419Zm-2.9678-1.1338a1.8858,1.8858,0,0,0,1.0215-.2642.8621.8621,0,0,0,.42-.7788v-.9595h-1.1474q-1.4,0-1.4.89v.2363a.7721.7721,0,0,0,.2871.66A1.3409,1.3409,0,0,0,144.4453,26.7813Z"/><path d="M152.2559,28.083a3.9228,3.9228,0,0,1-1.7637-.3569,4.0544,4.0544,0,0,1-1.26-.9868l1.0918-1.0645a3.3117,3.3117,0,0,0,.8887.7281,2.2675,2.2675,0,0,0,1.1133.2661,1.5246,1.5246,0,0,0,.9306-.2241.7376.7376,0,0,0,.2871-.6158.663.663,0,0,0-.2031-.5112,1.2876,1.2876,0,0,0-.6924-.2588l-.7285-.0981a3.465,3.465,0,0,1-1.8125-.6787,1.8908,1.8908,0,0,1-.623-1.5332,2.2847,2.2847,0,0,1,.1953-.959,2.0333,2.0333,0,0,1,.56-.7281,2.5618,2.5618,0,0,1,.875-.4619,3.7837,3.7837,0,0,1,1.1407-.1611,5.2109,5.2109,0,0,1,.9453.0771,3.4153,3.4153,0,0,1,.749.2242,2.9162,2.9162,0,0,1,.6162.3637,5.9314,5.9314,0,0,1,.5459.4829l-1.05,1.05a2.7736,2.7736,0,0,0-.77-.56,2.1584,2.1584,0,0,0-.98-.2241,1.3516,1.3516,0,0,0-.8477.21.67.67,0,0,0-.2587.5459.6935.6935,0,0,0,.2168.5532,1.5031,1.5031,0,0,0,.7353.273l.7422.0981q2.3657.3356,2.3662,2.1558a2.174,2.174,0,0,1-.2178.9731,2.2174,2.2174,0,0,1-.6084.7559,2.8875,2.8875,0,0,1-.9453.49A4.1163,4.1163,0,0,1,152.2559,28.083Z"/><path d="M159.8027,28.083a3.6443,3.6443,0,0,1-1.4492-.2729,2.9967,2.9967,0,0,1-1.0781-.77,3.4323,3.4323,0,0,1-.6787-1.2041,5.4218,5.4218,0,0,1-.0069-3.1568,3.4079,3.4079,0,0,1,.6651-1.1972,2.9475,2.9475,0,0,1,1.0635-.77,3.5661,3.5661,0,0,1,1.4277-.2729,3.4844,3.4844,0,0,1,1.4844.2939,2.858,2.858,0,0,1,1.0361.7984A3.4561,3.4561,0,0,1,162.876,22.7a4.8638,4.8638,0,0,1,.2021,1.4209v.5879h-4.8574V24.89a1.7881,1.7881,0,0,0,.4482,1.272,1.73,1.73,0,0,0,1.3291.4794,1.9852,1.9852,0,0,0,1.1-.2778,3.1394,3.1394,0,0,0,.7627-.709l.9658,1.0811a3.0071,3.0071,0,0,1-1.2246.99A4.2638,4.2638,0,0,1,159.8027,28.083Zm-.0283-6.3a1.4363,1.4363,0,0,0-1.1338.4761,1.7914,1.7914,0,0,0-.42,1.2319v.1119h2.9961v-.126a1.9189,1.9189,0,0,0-.3711-1.2251A1.2864,1.2864,0,0,0,159.7744,21.7832Z"/><path d="M168.0762,27.9151v-9.772h6.4394v1.6382h-4.5918V22.147h4.06v1.6382h-4.06v2.4917h4.5918v1.6382Z"/><path d="M176.3643,27.9151V20.607h1.7919v1.2182h.07a2.3292,2.3292,0,0,1,.707-.9873,2.0406,2.0406,0,0,1,1.3369-.3989,2.1052,2.1052,0,0,1,1.7354.7422,3.2775,3.2775,0,0,1,.6025,2.1138v4.62h-1.792v-4.438a2.0241,2.0241,0,0,0-.28-1.1758,1.0576,1.0576,0,0,0-.9238-.3921,1.9027,1.9027,0,0,0-.5391.0767,1.5142,1.5142,0,0,0-.4619.2241,1.1692,1.1692,0,0,0-.3291.3642.9993.9993,0,0,0-.126.5108v4.83Z"/><path d="M187.4805,28.083a3.6858,3.6858,0,0,1-1.4424-.2661,2.7838,2.7838,0,0,1-1.0567-.77,3.46,3.46,0,0,1-.6513-1.2109,5.247,5.247,0,0,1-.2237-1.5889,5.1806,5.1806,0,0,1,.2237-1.582,3.3929,3.3929,0,0,1,.6513-1.1968,2.8148,2.8148,0,0,1,1.0567-.7632,3.6877,3.6877,0,0,1,1.4424-.2661,3.1819,3.1819,0,0,1,1.8271.49,2.7517,2.7517,0,0,1,1.043,1.3579l-1.47.6578a1.5191,1.5191,0,0,0-.47-.7627,1.3613,1.3613,0,0,0-.9306-.3013,1.3413,1.3413,0,0,0-1.127.4761,1.9715,1.9715,0,0,0-.3711,1.2461v1.33a1.94,1.94,0,0,0,.3711,1.2388,1.3482,1.3482,0,0,0,1.127.4692,1.3961,1.3961,0,0,0,.9941-.3291,2.2534,2.2534,0,0,0,.5459-.8188l1.3721.6577A2.8709,2.8709,0,0,1,189.2861,27.6,3.2393,3.2393,0,0,1,187.4805,28.083Z"/><path d="M191.7783,27.9151V20.607h1.792v1.5122h.07a2.2643,2.2643,0,0,1,.2168-.5669,1.7257,1.7257,0,0,1,.3848-.4834,1.8409,1.8409,0,0,1,.5674-.336,2.1251,2.1251,0,0,1,.7627-.1259h.3916v1.6943h-.56a2.8116,2.8116,0,0,0-1.3721.2656.9255.9255,0,0,0-.4619.8682v4.48Z"/><path d="M201.8711,20.607h1.6807l-2.94,8.61a3.7492,3.7492,0,0,1-.3144.6792,1.7074,1.7074,0,0,1-.4131.4693,1.5584,1.5584,0,0,1-.5742.2656,3.2491,3.2491,0,0,1-.7842.084h-1.0781V29.273h1.3164l.3359-1.02-2.6182-7.646H198.26l1.2734,3.8559.4766,1.8438h.084l.5039-1.8438Z"/><path d="M204.7275,20.607h1.792v1.2041h.0557a1.8379,1.8379,0,0,1,.7422-1.001,2.2154,2.2154,0,0,1,1.2744-.3711,2.4984,2.4984,0,0,1,2.1348.9873,4.6559,4.6559,0,0,1,.7343,2.8208,4.7166,4.7166,0,0,1-.7343,2.8418,2.491,2.491,0,0,1-2.1348.9941,2.1522,2.1522,0,0,1-1.2676-.3779,1.9571,1.9571,0,0,1-.749-1.0078H206.52v4.0176h-1.792Zm3.29,5.9922a1.4843,1.4843,0,0,0,1.1338-.462,1.7474,1.7474,0,0,0,.4336-1.2461v-1.26a1.7735,1.7735,0,0,0-.4336-1.2529,1.4726,1.4726,0,0,0-1.1338-.4688,1.7311,1.7311,0,0,0-1.0713.3218,1.0163,1.0163,0,0,0-.4268.854v2.3242a1.0193,1.0193,0,0,0,.4268.8818A1.7831,1.7831,0,0,0,208.0176,26.5992Z"/><path d="M215.3262,27.9151a1.9114,1.9114,0,0,1-1.4073-.4815,1.8592,1.8592,0,0,1-.4834-1.376V22.0489h-1.0781V20.607h.5606a.6677.6677,0,0,0,.5527-.189.9161.9161,0,0,0,.1475-.5669V18.605h1.6093v2.002h1.4981v1.4419h-1.4981v4.4243h1.3868v1.4419Z"/><path d="M219.1748,19.543a1.0869,1.0869,0,0,1-.8047-.252.8867.8867,0,0,1-.2451-.644v-.28a.8867.8867,0,0,1,.2451-.644,1.4014,1.4014,0,0,1,1.6035,0,.8722.8722,0,0,1,.252.644v.28a.8722.8722,0,0,1-.252.644A1.0943,1.0943,0,0,1,219.1748,19.543Zm-.8955,1.064h1.792v7.3081h-1.792Z"/><path d="M225.041,28.083a3.5475,3.5475,0,0,1-1.4062-.2661,2.913,2.913,0,0,1-1.0645-.77,3.5091,3.5091,0,0,1-.6787-1.2109,4.9479,4.9479,0,0,1-.2383-1.5889,4.8856,4.8856,0,0,1,.2383-1.582,3.4423,3.4423,0,0,1,.6787-1.1968,2.9473,2.9473,0,0,1,1.0645-.7632,3.5492,3.5492,0,0,1,1.4062-.2661,3.6021,3.6021,0,0,1,1.4141.2661,2.9393,2.9393,0,0,1,1.0713.7632,3.4423,3.4423,0,0,1,.6787,1.1968,4.8856,4.8856,0,0,1,.2383,1.582,4.9479,4.9479,0,0,1-.2383,1.5889,3.5091,3.5091,0,0,1-.6787,1.2109,2.9052,2.9052,0,0,1-1.0713.77A3.6,3.6,0,0,1,225.041,28.083Zm0-1.4419a1.4574,1.4574,0,0,0,1.12-.434,1.8007,1.8007,0,0,0,.4063-1.274V23.5752a1.78,1.78,0,0,0-.4063-1.26,1.4588,1.4588,0,0,0-1.12-.4341,1.4406,1.4406,0,0,0-1.1055.4341,1.78,1.78,0,0,0-.4062,1.26v1.3579a1.8007,1.8007,0,0,0,.4062,1.274A1.4391,1.4391,0,0,0,225.041,26.6411Z"/><path d="M230.0254,27.9151V20.607h1.792v1.2182h.07a2.33,2.33,0,0,1,.707-.9873,2.0406,2.0406,0,0,1,1.3369-.3989,2.1052,2.1052,0,0,1,1.7354.7422,3.2769,3.2769,0,0,1,.6025,2.1138v4.62h-1.792v-4.438a2.0249,2.0249,0,0,0-.28-1.1758,1.0579,1.0579,0,0,0-.9239-.3921,1.9015,1.9015,0,0,0-.539.0767,1.5119,1.5119,0,0,0-.4619.2241,1.1667,1.1667,0,0,0-.3291.3642.9993.9993,0,0,0-.126.5108v4.83Z"/><path d="M241.2246,23.5469a9.83,9.83,0,0,1,.1885-1.9458,9.6141,9.6141,0,0,1,.5185-1.7432,7.8715,7.8715,0,0,1,.7764-1.4629,5.8013,5.8013,0,0,1,.9805-1.12h1.6943a7.4821,7.4821,0,0,0-1.0293,1.1763,7.7966,7.7966,0,0,0-.7773,1.3789,8.117,8.117,0,0,0-.4971,1.5469,7.9175,7.9175,0,0,0-.1748,1.666v1.0361a8.0824,8.0824,0,0,0,.1748,1.687,7.8322,7.8322,0,0,0,.5039,1.5538,8.2373,8.2373,0,0,0,.7842,1.3793,6.8616,6.8616,0,0,0,1.0156,1.148h-1.6943a5.3005,5.3005,0,0,1-.9658-1.0923,7.9794,7.9794,0,0,1-.7842-1.477,9.6158,9.6158,0,0,1-.5254-1.7637A10.01,10.01,0,0,1,241.2246,23.5469Z"/><path d="M250.5068,19.7813v8.1338h-1.8486V19.7813h-2.7715V18.1431h7.3916v1.6382Z"/><path d="M254.791,18.1431h3.5557a4.6554,4.6554,0,0,1,1.7285.3081,3.513,3.513,0,0,1,1.33.917,4.1677,4.1677,0,0,1,.8545,1.5259,6.8659,6.8659,0,0,1,.3007,2.1347,6.87,6.87,0,0,1-.3007,2.1353,4.1685,4.1685,0,0,1-.8545,1.5259,3.5141,3.5141,0,0,1-1.33.917,4.6473,4.6473,0,0,1-1.7285.3081H254.791Zm3.5557,8.1338a2.22,2.22,0,0,0,1.6445-.6089,2.5432,2.5432,0,0,0,.6094-1.8691v-1.54a2.543,2.543,0,0,0-.6094-1.8691,2.22,2.22,0,0,0-1.6445-.6089h-1.708v6.4956Z"/><path d="M264.4365,27.9151v-9.772h6.4395v1.6382h-4.5918V22.147h4.06v1.6382h-4.06v2.4917h4.5918v1.6382Z"/><path d="M275.7061,23.5469a10.01,10.01,0,0,1-.1885,1.9673,9.5462,9.5462,0,0,1-.5254,1.7637,7.9854,7.9854,0,0,1-.7842,1.477,5.3005,5.3005,0,0,1-.9658,1.0923h-1.6934a6.8972,6.8972,0,0,0,1.0147-1.148,8.2443,8.2443,0,0,0,.7842-1.3793,7.8322,7.8322,0,0,0,.5039-1.5538,8.0824,8.0824,0,0,0,.1748-1.687V23.043a7.9175,7.9175,0,0,0-.1748-1.666,8.1241,8.1241,0,0,0-.4971-1.5469,7.797,7.797,0,0,0-.7774-1.3789,7.5223,7.5223,0,0,0-1.0283-1.1763h1.6934a5.8047,5.8047,0,0,1,.98,1.12,7.8653,7.8653,0,0,1,.7763,1.4629,9.6062,9.6062,0,0,1,.5186,1.7432A9.83,9.83,0,0,1,275.7061,23.5469Z"/><path d="M25.4038,43.4971h-.07a2.4089,2.4089,0,0,1-.2588.5249,1.9178,1.9178,0,0,1-.4063.4409,1.8489,1.8489,0,0,1-.5878.3081,2.566,2.566,0,0,1-.7911.1118,2.1039,2.1039,0,0,1-1.7358-.7421,3.2753,3.2753,0,0,1-.6021-2.1138v-4.62h1.792v4.438A1.926,1.926,0,0,0,23.0381,43a1.0875,1.0875,0,0,0,.938.399,1.9957,1.9957,0,0,0,.5249-.07,1.3172,1.3172,0,0,0,.4551-.2168,1.2135,1.2135,0,0,0,.3217-.3637,1.0023,1.0023,0,0,0,.126-.5113v-4.83h1.792v7.3081h-1.792Z"/><path d="M31.6621,44.8828a3.9239,3.9239,0,0,1-1.7642-.3569,4.0628,4.0628,0,0,1-1.26-.9868L29.73,42.4746a3.3,3.3,0,0,0,.8891.7281,2.2645,2.2645,0,0,0,1.1128.2661,1.5256,1.5256,0,0,0,.9312-.2241.7386.7386,0,0,0,.2866-.6158.6648.6648,0,0,0-.2026-.5112,1.2935,1.2935,0,0,0-.6934-.2588l-.7275-.0981a3.468,3.468,0,0,1-1.8135-.6787,1.8936,1.8936,0,0,1-.6226-1.5332,2.271,2.271,0,0,1,.1958-.959,2.0322,2.0322,0,0,1,.56-.7281,2.5682,2.5682,0,0,1,.875-.4619,3.7817,3.7817,0,0,1,1.1411-.1611,5.2052,5.2052,0,0,1,.9448.0771,3.4261,3.4261,0,0,1,.7491.2242,2.8914,2.8914,0,0,1,.6162.3637,5.9446,5.9446,0,0,1,.5459.4829l-1.05,1.05a2.7726,2.7726,0,0,0-.77-.56,2.1593,2.1593,0,0,0-.98-.2241,1.3492,1.3492,0,0,0-.8467.21.67.67,0,0,0-.2593.5459.6924.6924,0,0,0,.2173.5532,1.5034,1.5034,0,0,0,.7349.273l.7422.0981q2.3657.3355,2.3657,2.1558a2.1748,2.1748,0,0,1-.2168.9731,2.2215,2.2215,0,0,1-.6094.7559,2.8759,2.8759,0,0,1-.9448.49A4.1118,4.1118,0,0,1,31.6621,44.8828Z"/><path d="M37.15,36.3428a1.0875,1.0875,0,0,1-.8052-.252.885.885,0,0,1-.2451-.644v-.28a.885.885,0,0,1,.2451-.644,1.4007,1.4007,0,0,1,1.6031,0,.8725.8725,0,0,1,.2519.644v.28a.8725.8725,0,0,1-.2519.644A1.0913,1.0913,0,0,1,37.15,36.3428Zm-.896,1.064h1.792v7.3081h-1.792Z"/><path d="M40.1177,44.7149V37.4068H41.91V38.625h.07a2.342,2.342,0,0,1,.707-.9873,2.0415,2.0415,0,0,1,1.3369-.3989,2.1072,2.1072,0,0,1,1.7364.7422,3.28,3.28,0,0,1,.6015,2.1138v4.62h-1.792v-4.438a2.0252,2.0252,0,0,0-.28-1.1758,1.0579,1.0579,0,0,0-.9239-.3921,1.8964,1.8964,0,0,0-.539.0767,1.5159,1.5159,0,0,0-.462.2241,1.1684,1.1684,0,0,0-.3291.3643,1,1,0,0,0-.1259.5107v4.83Z"/><path d="M54.9434,45.3311a2.4027,2.4027,0,0,1-.2032,1.0146,1.7276,1.7276,0,0,1-.6645.7354,3.6077,3.6077,0,0,1-1.19.4477,10.3851,10.3851,0,0,1-3.3457.0352,3.77,3.77,0,0,1-1.0572-.3359,1.41,1.41,0,0,1-.5947-.5391,1.4515,1.4515,0,0,1-.1821-.728,1.2958,1.2958,0,0,1,.3427-.959,1.6876,1.6876,0,0,1,.959-.4409v-.1543a1.19,1.19,0,0,1-.6928-.4414,1.2667,1.2667,0,0,1-.2452-.7784,1.0653,1.0653,0,0,1,.1123-.4975,1.151,1.151,0,0,1,.3008-.3716,1.834,1.834,0,0,1,.4273-.2593,2.5535,2.5535,0,0,1,.5039-.1616v-.0557a2.1906,2.1906,0,0,1-1.001-.8535,2.4137,2.4137,0,0,1-.3291-1.2729,2.2767,2.2767,0,0,1,.77-1.7974,3.3111,3.3111,0,0,1,2.2539-.6787,5.2835,5.2835,0,0,1,.6651.042,2.9971,2.9971,0,0,1,.6088.14v-.2383a.9284.9284,0,0,1,1.0362-1.0639h1.1338v1.3721H52.9976v.1962a2.1221,2.1221,0,0,1,.854.84,2.4649,2.4649,0,0,1,.28,1.19,2.2539,2.2539,0,0,1-.7626,1.7779,3.33,3.33,0,0,1-2.2613.6723,4.4107,4.4107,0,0,1-1.12-.126,1.2143,1.2143,0,0,0-.3638.2588.5539.5539,0,0,0-.1543.399q0,.5463.9522.5459h1.96a2.8551,2.8551,0,0,1,1.9532.5532A1.9673,1.9673,0,0,1,54.9434,45.3311Zm-1.68.21a.6305.6305,0,0,0-.28-.5463,1.76,1.76,0,0,0-.9658-.1958H49.5254a.8915.8915,0,0,0-.3779.7558.7533.7533,0,0,0,.35.6582,2.2058,2.2058,0,0,0,1.19.2378h.896a2.7493,2.7493,0,0,0,1.2808-.2236A.7366.7366,0,0,0,53.2637,45.541Zm-2.1563-4.6059q1.3163,0,1.3159-1.1138v-.2368q0-1.1133-1.3159-1.1138t-1.3159,1.1138v.2368Q49.7915,40.9346,51.1074,40.9351Z"/><path d="M61.5654,44.7149a1.91,1.91,0,0,1-1.4067-.4815,1.8583,1.8583,0,0,1-.4829-1.3759V38.8487H58.5977V37.4068h.56a.6676.6676,0,0,0,.5527-.189.9129.9129,0,0,0,.147-.5669V35.4048h1.61v2.002h1.4975v1.4419H61.4678V43.273h1.3857v1.4419Z"/><path d="M64.5195,34.355h1.792v4.27h.07a2.3431,2.3431,0,0,1,.7071-.9873,2.0415,2.0415,0,0,1,1.3369-.3989,2.107,2.107,0,0,1,1.7363.7422,3.28,3.28,0,0,1,.6016,2.1138v4.62h-1.792v-4.438a2.0251,2.0251,0,0,0-.28-1.1758,1.0576,1.0576,0,0,0-.9238-.3921,1.8976,1.8976,0,0,0-.5391.0767,1.5164,1.5164,0,0,0-.4619.2241,1.1684,1.1684,0,0,0-.3291.3643.9987.9987,0,0,0-.126.5107v4.83h-1.792Z"/><path d="M75.7056,44.8828a3.6469,3.6469,0,0,1-1.4493-.2729,2.9976,2.9976,0,0,1-1.0781-.77A3.433,3.433,0,0,1,72.5,42.6358a5.4263,5.4263,0,0,1-.0073-3.1568,3.4394,3.4394,0,0,1,.665-1.1972,2.9511,2.9511,0,0,1,1.064-.77,3.5655,3.5655,0,0,1,1.4282-.2729,3.4814,3.4814,0,0,1,1.4839.2939,2.8622,2.8622,0,0,1,1.0361.7984A3.4445,3.4445,0,0,1,78.7783,39.5a4.8438,4.8438,0,0,1,.2031,1.4209v.5879H74.1235V41.69a1.7879,1.7879,0,0,0,.4478,1.272,1.7338,1.7338,0,0,0,1.33.4794,1.9845,1.9845,0,0,0,1.0991-.2778,3.1267,3.1267,0,0,0,.7627-.709l.9663,1.0811a3.004,3.004,0,0,1-1.2251.99A4.2637,4.2637,0,0,1,75.7056,44.8828Zm-.0284-6.3a1.4347,1.4347,0,0,0-1.1337.4761,1.7912,1.7912,0,0,0-.42,1.2319v.1119h2.9956v-.126a1.9187,1.9187,0,0,0-.3706-1.2251A1.2857,1.2857,0,0,0,75.6772,38.583Z"/><path d="M86.2612,44.8828a3.9232,3.9232,0,0,1-1.7641-.3569,4.0621,4.0621,0,0,1-1.26-.9868l1.0923-1.0645a3.2983,3.2983,0,0,0,.8892.7281,2.2639,2.2639,0,0,0,1.1128.2661,1.5253,1.5253,0,0,0,.9311-.2241.7386.7386,0,0,0,.2866-.6158.6648.6648,0,0,0-.2026-.5112,1.2935,1.2935,0,0,0-.6934-.2588l-.7275-.0981a3.468,3.468,0,0,1-1.8135-.6787,1.8935,1.8935,0,0,1-.6225-1.5332,2.27,2.27,0,0,1,.1958-.959,2.0308,2.0308,0,0,1,.56-.7281A2.5682,2.5682,0,0,1,85.12,37.4a3.7817,3.7817,0,0,1,1.1411-.1611,5.2063,5.2063,0,0,1,.9449.0771,3.4252,3.4252,0,0,1,.749.2242,2.8914,2.8914,0,0,1,.6162.3637,5.9314,5.9314,0,0,1,.5459.4829l-1.05,1.05a2.7711,2.7711,0,0,0-.77-.56,2.1593,2.1593,0,0,0-.98-.2241,1.3492,1.3492,0,0,0-.8467.21.6705.6705,0,0,0-.2593.5459.6924.6924,0,0,0,.2173.5532,1.5038,1.5038,0,0,0,.7349.273l.7422.0981q2.3657.3355,2.3657,2.1558a2.1748,2.1748,0,0,1-.2168.9731,2.22,2.22,0,0,1-.6094.7559,2.8749,2.8749,0,0,1-.9448.49A4.1113,4.1113,0,0,1,86.2612,44.8828Z"/><path d="M93.0229,44.7149a1.91,1.91,0,0,1-1.4067-.4815,1.8583,1.8583,0,0,1-.4829-1.3759V38.8487H90.0552V37.4068h.56a.6679.6679,0,0,0,.5528-.189.9136.9136,0,0,0,.1469-.5669V35.4048h1.61v2.002h1.4976v1.4419H92.9253V43.273H94.311v1.4419Z"/><path d="M101.353,44.7149a1.2584,1.2584,0,0,1-.9311-.3428,1.5741,1.5741,0,0,1-.4268-.917h-.084a1.716,1.716,0,0,1-.7422,1.0708,2.5313,2.5313,0,0,1-1.3862.3569,2.367,2.367,0,0,1-1.7217-.5859,2.0818,2.0818,0,0,1-.602-1.5635,1.8926,1.8926,0,0,1,.812-1.6811,4.0889,4.0889,0,0,1,2.31-.5513h1.246v-.5322a1.3212,1.3212,0,0,0-.3222-.9522,1.3846,1.3846,0,0,0-1.0361-.3359,1.72,1.72,0,0,0-1.0147.2729,2.701,2.701,0,0,0-.6514.6514l-1.0639-.958a3.0878,3.0878,0,0,1,1.0781-1.02,3.5441,3.5441,0,0,1,1.7778-.3877,3.3424,3.3424,0,0,1,2.2544.67,2.42,2.42,0,0,1,.77,1.9277V43.273h.7276v1.4419Zm-2.9682-1.1338a1.8836,1.8836,0,0,0,1.0219-.2642.8624.8624,0,0,0,.42-.7788v-.9595H98.6787q-1.4,0-1.4.89v.2363a.7721.7721,0,0,0,.2871.66A1.3416,1.3416,0,0,0,98.3848,43.5811Z"/><path d="M103.8032,44.7149V37.4068h1.792V38.625h.07a2.3431,2.3431,0,0,1,.7071-.9873,2.0412,2.0412,0,0,1,1.3369-.3989,2.107,2.107,0,0,1,1.7363.7422,3.28,3.28,0,0,1,.6016,2.1138v4.62h-1.792v-4.438a2.0251,2.0251,0,0,0-.28-1.1758,1.0576,1.0576,0,0,0-.9238-.3921,1.8976,1.8976,0,0,0-.5391.0767,1.5164,1.5164,0,0,0-.4619.2241,1.1684,1.1684,0,0,0-.3291.3643.9987.9987,0,0,0-.126.5107v4.83Z"/><path d="M116.5713,43.4971h-.07a1.87,1.87,0,0,1-.7422,1.0078,2.1828,2.1828,0,0,1-1.2739.3779,2.4746,2.4746,0,0,1-2.1206-.9941,4.7157,4.7157,0,0,1-.7354-2.8418,4.6551,4.6551,0,0,1,.7354-2.8208,2.4818,2.4818,0,0,1,2.1206-.9873,2.2142,2.2142,0,0,1,1.2739.3711,1.8388,1.8388,0,0,1,.7422,1.001h.07V34.355h1.792v10.36h-1.792Zm-1.5127-.0981a1.8128,1.8128,0,0,0,1.0781-.3082,1.0162,1.0162,0,0,0,.4346-.8818V39.8848a1.0136,1.0136,0,0,0-.4346-.854,1.76,1.76,0,0,0-1.0781-.3218,1.4512,1.4512,0,0,0-1.1265.4688,1.7883,1.7883,0,0,0-.4272,1.2529v1.26a1.7617,1.7617,0,0,0,.4272,1.2461A1.4625,1.4625,0,0,0,115.0586,43.399Z"/><path d="M125.8105,44.7149a1.2566,1.2566,0,0,1-.9306-.3428,1.5781,1.5781,0,0,1-.4278-.917h-.0839a1.7111,1.7111,0,0,1-.7422,1.0708,2.5289,2.5289,0,0,1-1.3858.3569,2.3668,2.3668,0,0,1-1.7216-.5859,2.0818,2.0818,0,0,1-.6026-1.5635,1.894,1.894,0,0,1,.8125-1.6811,4.0893,4.0893,0,0,1,2.31-.5513h1.2461v-.5322a1.3248,1.3248,0,0,0-.3213-.9522,1.3854,1.3854,0,0,0-1.0361-.3359,1.7245,1.7245,0,0,0-1.0157.2729,2.6879,2.6879,0,0,0-.65.6514l-1.0644-.958a3.0844,3.0844,0,0,1,1.0781-1.02,3.5464,3.5464,0,0,1,1.7783-.3877,3.3408,3.3408,0,0,1,2.2539.67,2.4211,2.4211,0,0,1,.77,1.9277V43.273h.7285v1.4419Zm-2.9677-1.1338a1.8858,1.8858,0,0,0,1.0215-.2642.8622.8622,0,0,0,.42-.7788v-.9595h-1.1475q-1.4,0-1.4.89v.2363a.7721.7721,0,0,0,.2871.66A1.3412,1.3412,0,0,0,122.8428,43.5811Z"/><path d="M128.2607,44.7149V37.4068h1.792V38.919h.07a2.2643,2.2643,0,0,1,.2168-.5669,1.7271,1.7271,0,0,1,.3848-.4834,1.8421,1.8421,0,0,1,.5674-.336,2.1251,2.1251,0,0,1,.7627-.1259h.3916v1.6943h-.56a2.8119,2.8119,0,0,0-1.3721.2656.9255.9255,0,0,0-.4619.8682v4.48Z"/><path d="M138.2285,43.4971h-.07a1.87,1.87,0,0,1-.7422,1.0078,2.181,2.181,0,0,1-1.2734.3779,2.475,2.475,0,0,1-2.1211-.9941,4.7157,4.7157,0,0,1-.7354-2.8418,4.6551,4.6551,0,0,1,.7354-2.8208,2.4823,2.4823,0,0,1,2.1211-.9873,2.2124,2.2124,0,0,1,1.2734.3711,1.8383,1.8383,0,0,1,.7422,1.001h.07V34.355h1.792v10.36h-1.792Zm-1.5127-.0981a1.8128,1.8128,0,0,0,1.0781-.3082,1.0162,1.0162,0,0,0,.4346-.8818V39.8848a1.0136,1.0136,0,0,0-.4346-.854,1.76,1.76,0,0,0-1.0781-.3218,1.4519,1.4519,0,0,0-1.1269.4688,1.7923,1.7923,0,0,0-.4268,1.2529v1.26a1.7656,1.7656,0,0,0,.4268,1.2461A1.4633,1.4633,0,0,0,136.7158,43.399Z"/><path d="M145.5088,44.7149v-9.772h4.3955a3.22,3.22,0,0,1,1.2109.2168,2.565,2.565,0,0,1,.917.6162,2.6488,2.6488,0,0,1,.5742.959,3.9868,3.9868,0,0,1,0,2.4712,2.6558,2.6558,0,0,1-.5742.9516,2.5588,2.5588,0,0,1-.917.6163,3.22,3.22,0,0,1-1.2109.2168h-2.5479v3.7241Zm1.8476-5.32h2.38a1.1829,1.1829,0,0,0,.84-.2871,1.0659,1.0659,0,0,0,.3086-.8188V37.645a1.0427,1.0427,0,0,0-.3086-.812,1.2023,1.2023,0,0,0-.84-.28h-2.38Z"/><path d="M157.6318,40.291l-1.3017,1.54v2.8838h-1.8477v-9.772H156.33v4.8159h.07l1.3857-1.834,2.4219-2.9819h2.1279l-3.4023,4.0737,3.6826,5.6983H160.418Z"/><path d="M167.2646,44.8828a4.6,4.6,0,0,1-1.7431-.3149,3.4845,3.4845,0,0,1-1.33-.9448,4.2755,4.2755,0,0,1-.8467-1.5611,7.1851,7.1851,0,0,1-.2949-2.163,7.4655,7.4655,0,0,1,.2949-2.191,4.4661,4.4661,0,0,1,.8467-1.61,3.5941,3.5941,0,0,1,1.33-.9868,4.3428,4.3428,0,0,1,1.7431-.336,3.9528,3.9528,0,0,1,2.1836.56,3.8371,3.8371,0,0,1,1.3858,1.6938l-1.582.84a2.2192,2.2192,0,0,0-.6856-1.0567,1.9649,1.9649,0,0,0-1.3018-.3989,2.0705,2.0705,0,0,0-1.6455.7,2.89,2.89,0,0,0-.6084,1.96v1.54a2.8291,2.8291,0,0,0,.6084,1.9531,2.1,2.1,0,0,0,1.6455.6788,2.0072,2.0072,0,0,0,1.3506-.4478,2.5813,2.5813,0,0,0,.7627-1.106l1.4981.8819a4.3033,4.3033,0,0,1-1.4141,1.7012A3.7782,3.7782,0,0,1,167.2646,44.8828Z"/><path d="M175.4961,44.8828a4.6337,4.6337,0,0,1-2.1348-.4487,4.9616,4.9616,0,0,1-1.5049-1.1782l1.2461-1.2061a3.5719,3.5719,0,0,0,1.127.89,3.089,3.089,0,0,0,1.3789.3052,1.9462,1.9462,0,0,0,1.2881-.3682,1.2351,1.2351,0,0,0,.4336-.9932,1.1276,1.1276,0,0,0-.2793-.792,1.8848,1.8848,0,0,0-1.05-.4443l-.9248-.1387q-2.9253-.4629-2.9258-2.8457a2.8206,2.8206,0,0,1,.2451-1.1914,2.5369,2.5369,0,0,1,.707-.9111,3.2678,3.2678,0,0,1,1.1133-.582,4.9528,4.9528,0,0,1,1.4766-.2032,4.7515,4.7515,0,0,1,1.9326.3648,3.7923,3.7923,0,0,1,1.4131,1.08l-1.26,1.1923a2.8872,2.8872,0,0,0-.8818-.7216,2.7362,2.7362,0,0,0-1.3018-.2774,1.9856,1.9856,0,0,0-1.1972.2984A1.1382,1.1382,0,0,0,174.32,38.37a2.2712,2.2712,0,0,0,1.0361.3886l.91.168a4.18,4.18,0,0,1,2.1914.9463,2.5117,2.5117,0,0,1,.7061,1.8989A3.1736,3.1736,0,0,1,178.92,43.04a2.744,2.744,0,0,1-.7148.9809,3.257,3.257,0,0,1-1.1475.6377A4.979,4.979,0,0,1,175.4961,44.8828Z"/><path d="M188.4736,42.167h-2.2119l-.4472,2.5479H184.624l.4336-2.5479h-1.5254V41.0191h1.7354l.3926-2.38h-1.5118V37.4908H185.87l.4336-2.5479h1.19l-.4482,2.5479h2.2256l.4346-2.5479h1.1894l-.4336,2.5479h1.5264v1.1479H190.252l-.4063,2.38h1.5264V42.167H189.65l-.4483,2.5479h-1.1757Zm.1826-1.1479.42-2.38h-2.2119l-.42,2.38Z"/><path d="M193.626,44.7149V43.2168h2.6875V36.273h-.126l-2.1279,2.52-1.1485-.9663,2.4229-2.8838h2.7851v8.2739h2.24v1.4981Z"/><path d="M202.0264,44.7149V43.2168h2.6875V36.273h-.126l-2.1279,2.52-1.1485-.9663,2.4229-2.8838H206.52v8.2739h2.24v1.4981Z"/><path d="M219.6514,44.7149l-.7842-2.4922h-3.4717l-.77,2.4922h-1.876l3.2764-9.772h2.2959l3.248,9.772Zm-2.4922-8.0918h-.07l-1.2461,4.0176h2.5761Z"/><path d="M223.0117,44.7149v-9.772h4.3955a3.22,3.22,0,0,1,1.211.2168,2.5667,2.5667,0,0,1,.917.6162,2.6516,2.6516,0,0,1,.5742.959,3.9868,3.9868,0,0,1,0,2.4712,2.6587,2.6587,0,0,1-.5742.9516,2.56,2.56,0,0,1-.917.6163,3.22,3.22,0,0,1-1.211.2168h-2.5478v3.7241Zm1.8477-5.32h2.38a1.1826,1.1826,0,0,0,.84-.2871,1.0655,1.0655,0,0,0,.3086-.8188V37.645a1.0424,1.0424,0,0,0-.3086-.812,1.202,1.202,0,0,0-.84-.28h-2.38Z"/><path d="M231.58,44.7149V43.231h1.2881V36.4268H231.58V34.9429h4.4375v1.4839h-1.3018V43.231h1.3018v1.4839Z"/><path d="M178.5938,133.4707v-9.7715H182.99a3.22,3.22,0,0,1,1.211.2168,2.5661,2.5661,0,0,1,.917.6163,2.6521,2.6521,0,0,1,.5742.9589,3.9965,3.9965,0,0,1,0,2.4712,2.6582,2.6582,0,0,1-.5742.9517,2.5594,2.5594,0,0,1-.917.6162,3.22,3.22,0,0,1-1.211.2168h-2.5478v3.7236Zm1.8481-5.3193h2.38a1.1826,1.1826,0,0,0,.84-.2871,1.0637,1.0637,0,0,0,.3081-.8189v-.644a1.04,1.04,0,0,0-.3081-.812,1.2021,1.2021,0,0,0-.84-.28h-2.38Z"/><path d="M190.7178,129.0474l-1.3018,1.54v2.8833h-1.8481v-9.7715h1.8481v4.816h.07l1.3863-1.834,2.4218-2.982h2.128L192.02,127.773l3.6821,5.6977h-2.1982Z"/><path d="M200.35,133.6387a4.5993,4.5993,0,0,1-1.7427-.3145,3.495,3.495,0,0,1-1.33-.9448,4.2817,4.2817,0,0,1-.8472-1.561,7.2027,7.2027,0,0,1-.294-2.1631,7.4823,7.4823,0,0,1,.294-2.1909,4.4726,4.4726,0,0,1,.8472-1.61,3.6018,3.6018,0,0,1,1.33-.9868,4.3443,4.3443,0,0,1,1.7427-.3359,3.9523,3.9523,0,0,1,2.1841.56,3.8481,3.8481,0,0,1,1.3862,1.6939l-1.582.84a2.2262,2.2262,0,0,0-.686-1.0566,1.9647,1.9647,0,0,0-1.3023-.3989,2.07,2.07,0,0,0-1.645.7,2.892,2.892,0,0,0-.6089,1.96v1.54a2.8312,2.8312,0,0,0,.6089,1.9531,2.0992,2.0992,0,0,0,1.645.6787,2.0078,2.0078,0,0,0,1.3511-.4477,2.5873,2.5873,0,0,0,.7632-1.106l1.498.8818a4.3066,4.3066,0,0,1-1.414,1.7012A3.7843,3.7843,0,0,1,200.35,133.6387Z"/><path d="M208.5815,133.6387a4.6437,4.6437,0,0,1-2.1352-.4482,4.9669,4.9669,0,0,1-1.5049-1.1783l1.2461-1.206a3.5653,3.5653,0,0,0,1.127.89,3.089,3.089,0,0,0,1.3789.3052,1.9467,1.9467,0,0,0,1.288-.3682,1.2349,1.2349,0,0,0,.4341-.9931,1.1275,1.1275,0,0,0-.28-.792,1.8832,1.8832,0,0,0-1.05-.4444l-.9238-.1386q-2.926-.4629-2.9262-2.8457a2.8124,2.8124,0,0,1,.2451-1.1914,2.5326,2.5326,0,0,1,.707-.9112,3.28,3.28,0,0,1,1.1128-.582,4.9617,4.9617,0,0,1,1.477-.2031,4.7512,4.7512,0,0,1,1.9322.3647,3.7933,3.7933,0,0,1,1.414,1.08l-1.26,1.1924a2.9,2.9,0,0,0-.8819-.7217,2.7347,2.7347,0,0,0-1.3017-.2773,1.9877,1.9877,0,0,0-1.1973.2983.9864.9864,0,0,0-.3989.8394.9976.9976,0,0,0,.3218.8188,2.2667,2.2667,0,0,0,1.0361.3887l.91.1679a4.1773,4.1773,0,0,1,2.1909.9463,2.5107,2.5107,0,0,1,.707,1.899,3.1736,3.1736,0,0,1-.2451,1.2685,2.7432,2.7432,0,0,1-.7139.981,3.26,3.26,0,0,1-1.1479.6377A4.9814,4.9814,0,0,1,208.5815,133.6387Z"/><path d="M221.56,130.9234h-2.2119l-.4483,2.5473h-1.19l.4341-2.5473h-1.5264v-1.148h1.7363l.3921-2.38h-1.5122v-1.1479h1.7222l.434-2.5479h1.19l-.4483,2.5479h2.2261l.4341-2.5479h1.19l-.434,2.5479h1.5258v1.1479h-1.7358l-.4058,2.38h1.5259v1.148h-1.7221l-.4478,2.5473h-1.1763Zm.1816-1.148.42-2.38h-2.2124l-.42,2.38Z"/><path d="M226.7114,133.4707v-1.4975h2.688v-6.9439h-.126l-2.1279,2.52-1.1479-.9663,2.4218-2.8838h2.7862v8.274h2.24v1.4975Z"/><path d="M235.1108,133.4707v-1.4975h2.688v-6.9439h-.1259l-2.128,2.52-1.1479-.9663,2.4218-2.8838h2.7862v8.274h2.24v1.4975Z"/><path d="M248.3691,133.4707a1.7806,1.7806,0,0,1-1.3579-.4619,1.8263,1.8263,0,0,1-.4341-1.3017v-8.5957h1.792v8.9179h.9659v1.4414Z"/><path d="M251.5889,125.0992a1.0873,1.0873,0,0,1-.8052-.252.8848.8848,0,0,1-.2451-.644v-.28a.8849.8849,0,0,1,.2451-.6441,1.401,1.401,0,0,1,1.603,0,.8724.8724,0,0,1,.252.6441v.28a.8723.8723,0,0,1-.252.644A1.091,1.091,0,0,1,251.5889,125.0992Zm-.896,1.0639h1.792v7.3076h-1.792Z"/><path d="M254.5566,123.1114h1.792v4.2558h.0557a1.841,1.841,0,0,1,.7422-1.001,2.2147,2.2147,0,0,1,1.2739-.3711,2.4986,2.4986,0,0,1,2.1353.9874,4.6593,4.6593,0,0,1,.7348,2.8208,4.72,4.72,0,0,1-.7348,2.8417,2.4923,2.4923,0,0,1-2.1353.9937,2.1516,2.1516,0,0,1-1.2671-.3779,1.9534,1.9534,0,0,1-.749-1.0074h-.0557v1.2173h-1.792Zm3.29,9.0439a1.4861,1.4861,0,0,0,1.1338-.4619,1.7478,1.7478,0,0,0,.4341-1.2461v-1.26a1.7741,1.7741,0,0,0-.4341-1.2529,1.474,1.474,0,0,0-1.1338-.4687,1.7309,1.7309,0,0,0-1.0713.3217,1.0178,1.0178,0,0,0-.4268.854v2.3243a1.0207,1.0207,0,0,0,.4268.8818A1.7822,1.7822,0,0,0,257.8467,132.1553Z"/><path d="M262.9565,133.4707v-7.3076h1.792v1.5122h.07a2.3222,2.3222,0,0,1,.2172-.5669,1.7375,1.7375,0,0,1,.3848-.4834,1.8531,1.8531,0,0,1,.5669-.3359,2.1256,2.1256,0,0,1,.7632-.126h.3921v1.6944h-.56a2.8107,2.8107,0,0,0-1.3721.2656.9244.9244,0,0,0-.4619.8681v4.48Z"/><path d="M273.6807,133.4707a1.2586,1.2586,0,0,1-.9312-.3427,1.5708,1.5708,0,0,1-.4267-.9165h-.084a1.7184,1.7184,0,0,1-.7422,1.0708,2.5359,2.5359,0,0,1-1.3862.3564,2.367,2.367,0,0,1-1.7217-.5859,2.08,2.08,0,0,1-.6021-1.563,1.8926,1.8926,0,0,1,.812-1.6812,4.0892,4.0892,0,0,1,2.31-.5512h1.2461v-.5323a1.3206,1.3206,0,0,0-.3223-.9521,1.3839,1.3839,0,0,0-1.0361-.336,1.72,1.72,0,0,0-1.0147.273,2.6953,2.6953,0,0,0-.6513.6514l-1.064-.9581a3.09,3.09,0,0,1,1.0781-1.02,3.5448,3.5448,0,0,1,1.7779-.3877,3.3426,3.3426,0,0,1,2.2544.6705,2.42,2.42,0,0,1,.77,1.9277v3.436h.7275v1.4414Zm-2.9683-1.1333a1.8839,1.8839,0,0,0,1.022-.2641.8628.8628,0,0,0,.42-.7788v-.9595h-1.1485q-1.4,0-1.4.89v.2364a.7717.7717,0,0,0,.2872.66A1.3406,1.3406,0,0,0,270.7124,132.3374Z"/><path d="M276.13,133.4707v-7.3076h1.792v1.5122h.07a2.3225,2.3225,0,0,1,.2173-.5669,1.7354,1.7354,0,0,1,.3847-.4834,1.8531,1.8531,0,0,1,.5669-.3359,2.1264,2.1264,0,0,1,.7632-.126h.3921v1.6944h-.56a2.81,2.81,0,0,0-1.372.2656.9244.9244,0,0,0-.4619.8681v4.48Z"/><path d="M286.2241,126.1631h1.68l-2.94,8.6094a3.682,3.682,0,0,1-.315.68,1.6814,1.6814,0,0,1-.4131.4687,1.5487,1.5487,0,0,1-.5737.2657,3.2262,3.2262,0,0,1-.7842.0839H281.8v-1.4414h1.3164l.3359-1.02-2.6181-7.6455h1.7778l1.2744,3.856.4756,1.8437h.084l.5044-1.8437Z"/><path d="M93.8,192.6856v7.4883H92.7925v-7.4883H90.1284v-.8877h6.336v.8877Z"/><path d="M97.8442,191.7979h2.8077a3.6635,3.6635,0,0,1,1.416.2637,2.8611,2.8611,0,0,1,1.0859.7861,3.5683,3.5683,0,0,1,.69,1.3076,7.1034,7.1034,0,0,1,0,3.66,3.5739,3.5739,0,0,1-.69,1.3086,2.8607,2.8607,0,0,1-1.0859.7851,3.6452,3.6452,0,0,1-1.416.2647H97.8442Zm2.8077,7.4873a2.5114,2.5114,0,0,0,.9482-.1738,2.044,2.044,0,0,0,.7441-.51,2.3636,2.3636,0,0,0,.4859-.8223,3.2824,3.2824,0,0,0,.1738-1.1093v-1.3682a3.2936,3.2936,0,0,0-.1738-1.11,2.3724,2.3724,0,0,0-.4859-.8222,2.0538,2.0538,0,0,0-.7441-.51,2.5311,2.5311,0,0,0-.9482-.1738h-1.8v6.6Z"/><path d="M105.8965,200.1739v-8.376h5.1118v.8877h-4.104v2.8076h3.8638v.8887h-3.8638v2.9033h4.104v.8887Z"/><path d="M119.5879,199.1768H119.54a1.89,1.89,0,0,1-1.812,1.1406,2.36,2.36,0,0,1-1.0439-.2275,2.2743,2.2743,0,0,1-.7984-.6485,2.9681,2.9681,0,0,1-.5039-1.0195,5.2854,5.2854,0,0,1,0-2.6885,2.9771,2.9771,0,0,1,.5039-1.0195,2.2729,2.2729,0,0,1,.7984-.6484,2.359,2.359,0,0,1,1.0439-.2276,2.1039,2.1039,0,0,1,1.11.2793,1.7365,1.7365,0,0,1,.7021.8613h.0479V191.294h.96v8.88h-.96Zm-1.5962.289a2.2181,2.2181,0,0,0,.6182-.0849,1.5418,1.5418,0,0,0,.51-.2471,1.2138,1.2138,0,0,0,.3418-.3974,1.1216,1.1216,0,0,0,.126-.5372v-2.3154a.9529.9529,0,0,0-.126-.4765,1.1943,1.1943,0,0,0-.3418-.38,1.7322,1.7322,0,0,0-.51-.2471,2.0849,2.0849,0,0,0-.6182-.0908,1.6511,1.6511,0,0,0-1.2837.5127,1.9171,1.9171,0,0,0-.4683,1.3447v1.0615a1.9173,1.9173,0,0,0,.4683,1.3448A1.651,1.651,0,0,0,117.9917,199.4658Z"/><path d="M127.0879,200.1739a.9435.9435,0,0,1-.7739-.2881,1.4252,1.4252,0,0,1-.294-.72h-.06a1.6,1.6,0,0,1-.6719.8633,2.0845,2.0845,0,0,1-1.1162.2881,2.1706,2.1706,0,0,1-1.53-.5039,1.77,1.77,0,0,1-.5464-1.3682,1.5618,1.5618,0,0,1,.6421-1.3437,3.4174,3.4174,0,0,1,1.998-.4678H125.96v-.6123a1.34,1.34,0,0,0-.36-1.0078,1.535,1.535,0,0,0-1.104-.3477,1.6622,1.6622,0,0,0-.9424.252,2.0737,2.0737,0,0,0-.63.6719l-.5761-.54a2.1934,2.1934,0,0,1,.8042-.8584,2.9974,2.9974,0,0,1,3.144.1973,1.9369,1.9369,0,0,1,.624,1.5322v3.4h.708v.8526Zm-2.76-.6719a2.4558,2.4558,0,0,0,.66-.084,1.6406,1.6406,0,0,0,.5161-.24,1.1882,1.1882,0,0,0,.3359-.36.8559.8559,0,0,0,.12-.4433v-1.0206h-1.272a2.3186,2.3186,0,0,0-1.2061.24.7749.7749,0,0,0-.3779.6963v.2519a.8392.8392,0,0,0,.33.708A1.4363,1.4363,0,0,0,124.3276,199.502Z"/><path d="M130.3638,200.1739a.9824.9824,0,0,1-.7622-.2813,1.048,1.048,0,0,1-.2578-.7363V194.834h-1.02v-.8525h.5757a.5653.5653,0,0,0,.4263-.126.6544.6544,0,0,0,.1138-.4375v-1.1523h.8642v1.7158h1.356v.8525h-1.356v4.4873h1.26v.8526Z"/><path d="M137.7075,200.1739a.9438.9438,0,0,1-.7739-.2881,1.4252,1.4252,0,0,1-.294-.72h-.06a1.6,1.6,0,0,1-.6719.8633,2.0845,2.0845,0,0,1-1.1162.2881,2.1708,2.1708,0,0,1-1.53-.5039,1.77,1.77,0,0,1-.5464-1.3682,1.5618,1.5618,0,0,1,.6421-1.3437,3.4179,3.4179,0,0,1,1.9981-.4678H136.58v-.6123a1.34,1.34,0,0,0-.36-1.0078,1.535,1.535,0,0,0-1.104-.3477,1.6625,1.6625,0,0,0-.9424.252,2.0724,2.0724,0,0,0-.63.6719l-.5762-.54a2.1934,2.1934,0,0,1,.8042-.8584,2.9974,2.9974,0,0,1,3.144.1973,1.937,1.937,0,0,1,.6241,1.5322v3.4h.708v.8526Zm-2.76-.6719a2.4556,2.4556,0,0,0,.66-.084,1.6406,1.6406,0,0,0,.5161-.24,1.1886,1.1886,0,0,0,.336-.36.8558.8558,0,0,0,.12-.4433v-1.0206h-1.272a2.3182,2.3182,0,0,0-1.206.24.7748.7748,0,0,0-.378.6963v.2519a.8392.8392,0,0,0,.33.708A1.4364,1.4364,0,0,0,134.9473,199.502Z"/><path d="M79.4668,214.7178a2.7719,2.7719,0,0,1-1.146-.2285,2.4667,2.4667,0,0,1-.876-.6533,2.9965,2.9965,0,0,1-.5639-1.0205,4.5929,4.5929,0,0,1,0-2.67,2.9862,2.9862,0,0,1,.5639-1.0263,2.4669,2.4669,0,0,1,.876-.6534,2.7719,2.7719,0,0,1,1.146-.2285,2.6342,2.6342,0,0,1,1.1157.2276,2.4675,2.4675,0,0,1,.84.6279,2.7965,2.7965,0,0,1,.5336.95,3.7512,3.7512,0,0,1,.1861,1.208v.4541H77.69v.2881a2.1047,2.1047,0,0,0,.1265.7383,1.74,1.74,0,0,0,.36.5937,1.6508,1.6508,0,0,0,.5756.3965,1.9858,1.9858,0,0,0,.7745.1436,1.8871,1.8871,0,0,0,1.0258-.2754,1.8163,1.8163,0,0,0,.6778-.792l.6841.4951a2.3887,2.3887,0,0,1-.9361,1.0322A2.8212,2.8212,0,0,1,79.4668,214.7178Zm0-5.6768a1.8243,1.8243,0,0,0-.72.1377,1.6253,1.6253,0,0,0-.5581.3877,1.8164,1.8164,0,0,0-.3657.59,2.0368,2.0368,0,0,0-.1324.7461v.083h3.42v-.1309a1.8856,1.8856,0,0,0-.45-1.3183A1.5354,1.5354,0,0,0,79.4668,209.041Z"/><path d="M83.7266,214.5733v-6.1914h.96v.9961h.0479a2.01,2.01,0,0,1,.6421-.8311,1.8123,1.8123,0,0,1,1.11-.31,1.9426,1.9426,0,0,1,1.5181.6182,2.5151,2.5151,0,0,1,.5581,1.7461v3.9717h-.96v-3.8116q0-1.6728-1.4038-1.6718a2.1194,2.1194,0,0,0-.5581.0722,1.6184,1.6184,0,0,0-.4858.2159,1.0741,1.0741,0,0,0-.3423.3671,1.0438,1.0438,0,0,0-.126.5235v4.3047Z"/><path d="M92.8467,214.7178a2.8458,2.8458,0,0,1-1.1641-.2285,2.3637,2.3637,0,0,1-.87-.6475,2.8836,2.8836,0,0,1-.54-1.02,4.9444,4.9444,0,0,1,0-2.6875,2.8845,2.8845,0,0,1,.54-1.02,2.3747,2.3747,0,0,1,.87-.6475,2.8458,2.8458,0,0,1,1.1641-.2285,2.4786,2.4786,0,0,1,1.4819.4024,2.45,2.45,0,0,1,.834,1.05l-.8042.4082a1.4574,1.4574,0,0,0-.5518-.7442,1.6585,1.6585,0,0,0-.96-.2636,1.9238,1.9238,0,0,0-.7564.1377,1.4737,1.4737,0,0,0-.54.3838,1.6127,1.6127,0,0,0-.3237.5878,2.4765,2.4765,0,0,0-.1079.75v1.0567a2.01,2.01,0,0,0,.4379,1.3379,1.5892,1.5892,0,0,0,1.29.5215,1.74,1.74,0,0,0,1.68-1.08l.6963.4687a2.4615,2.4615,0,0,1-.8941,1.0674A2.61,2.61,0,0,1,92.8467,214.7178Z"/><path d="M96.5786,214.5733v-6.1914h.96v1.14h.06a1.87,1.87,0,0,1,.6-.792,1.8412,1.8412,0,0,1,1.188-.3476h.3721v.96h-.564a2.1647,2.1647,0,0,0-1.2182.294.8664.8664,0,0,0-.438.7373v4.2Z"/><path d="M104.918,208.3819h.9482l-2.772,7.6318a3.4017,3.4017,0,0,1-.2163.4619.9031.9031,0,0,1-.2636.294,1.0548,1.0548,0,0,1-.39.1562,2.9464,2.9464,0,0,1-.57.0479h-.4917v-.8526h.9717l.4683-1.3174-2.316-6.4218h.96l1.4878,4.2031.2881,1.0068h.06l.336-1.0068Z"/><path d="M107.09,208.3819h.96v.9961h.0478a1.7458,1.7458,0,0,1,.7022-.8614,2.1132,2.1132,0,0,1,1.11-.2793,2.3472,2.3472,0,0,1,1.0439.2285,2.27,2.27,0,0,1,.7983.6475,2.9786,2.9786,0,0,1,.5039,1.02,5.2786,5.2786,0,0,1,0,2.6875,2.9777,2.9777,0,0,1-.5039,1.02,2.2594,2.2594,0,0,1-.7983.6475,2.3472,2.3472,0,0,1-1.0439.2285,1.8752,1.8752,0,0,1-1.8121-1.1406H108.05v3.3965h-.96Zm2.5562,5.4834a1.6536,1.6536,0,0,0,1.2837-.5118,1.9179,1.9179,0,0,0,.4682-1.3457v-1.06a1.9136,1.9136,0,0,0-.4682-1.3447,1.6511,1.6511,0,0,0-1.2837-.5127,2.1117,2.1117,0,0,0-.6182.09,1.72,1.72,0,0,0-.51.2471,1.2006,1.2006,0,0,0-.3423.38.9556.9556,0,0,0-.126.4765v2.3155a1.1187,1.1187,0,0,0,.126.5371,1.2029,1.2029,0,0,0,.3423.3984,1.549,1.549,0,0,0,.51.2471A2.2529,2.2529,0,0,0,109.6465,213.8653Z"/><path d="M115.3462,214.5733a.9827.9827,0,0,1-.7622-.2813,1.0463,1.0463,0,0,1-.2578-.7363v-4.3223h-1.02v-.8515h.5756a.5653.5653,0,0,0,.4263-.126.6575.6575,0,0,0,.1138-.4385v-1.1523h.8642v1.7168h1.356v.8515h-1.356v4.4883h1.26v.8516Z"/><path d="M118.67,206.93a.5855.5855,0,0,1-.45-.15.5522.5522,0,0,1-.1377-.39v-.1563a.5522.5522,0,0,1,.1377-.39.749.749,0,0,1,.9,0,.5522.5522,0,0,1,.1377.39v.1563a.5522.5522,0,0,1-.1377.39A.5855.5855,0,0,1,118.67,206.93Zm-.48,1.4522h.96v6.1914h-.96Z"/><path d="M123.53,214.7178a2.783,2.783,0,0,1-1.14-.2285,2.46,2.46,0,0,1-.8823-.6533,3.0746,3.0746,0,0,1-.57-1.0205,4.4681,4.4681,0,0,1,0-2.67,3.0628,3.0628,0,0,1,.57-1.0263,2.46,2.46,0,0,1,.8823-.6534,2.783,2.783,0,0,1,1.14-.2285,2.7461,2.7461,0,0,1,1.1343.2285,2.5309,2.5309,0,0,1,.8818.6534,3.0183,3.0183,0,0,1,.5762,1.0263,4.4786,4.4786,0,0,1,0,2.67,3.03,3.03,0,0,1-.5762,1.0205,2.5306,2.5306,0,0,1-.8818.6533A2.7461,2.7461,0,0,1,123.53,214.7178Zm0-.8525a1.7476,1.7476,0,0,0,1.272-.48,1.9628,1.9628,0,0,0,.4921-1.4639v-.8887a1.9627,1.9627,0,0,0-.4921-1.4638,1.9269,1.9269,0,0,0-2.544,0,1.9626,1.9626,0,0,0-.4917,1.4638v.8887a1.9627,1.9627,0,0,0,.4917,1.4639A1.7474,1.7474,0,0,0,123.53,213.8653Z"/><path d="M127.91,214.5733v-6.1914h.96v.9961h.0479a2.01,2.01,0,0,1,.6421-.8311,1.8123,1.8123,0,0,1,1.11-.31,1.9426,1.9426,0,0,1,1.5181.6182,2.5151,2.5151,0,0,1,.5581,1.7461v3.9717h-.96v-3.8116q0-1.6728-1.4038-1.6718a2.1194,2.1194,0,0,0-.5581.0722,1.6184,1.6184,0,0,0-.4858.2159,1.0741,1.0741,0,0,0-.3423.3671,1.0438,1.0438,0,0,0-.126.5235v4.3047Z"/><path d="M137.5576,205.6934h.96v5.6279h.0478l.9483-1.0556,1.7519-1.8838H142.43l-2.292,2.4472,2.52,3.7442h-1.164l-2.0523-3.1553-.9238.9473v2.208h-.96Z"/><path d="M146.0059,214.7178a2.7716,2.7716,0,0,1-1.146-.2285,2.4649,2.4649,0,0,1-.876-.6533,2.9967,2.9967,0,0,1-.564-1.0205,4.5951,4.5951,0,0,1,0-2.67,2.9863,2.9863,0,0,1,.564-1.0263,2.4652,2.4652,0,0,1,.876-.6534,2.7716,2.7716,0,0,1,1.146-.2285,2.6342,2.6342,0,0,1,1.1157.2276,2.4661,2.4661,0,0,1,.84.6279,2.7967,2.7967,0,0,1,.5337.95,3.7539,3.7539,0,0,1,.186,1.208v.4541H144.23v.2881a2.1047,2.1047,0,0,0,.1265.7383,1.74,1.74,0,0,0,.36.5937,1.6522,1.6522,0,0,0,.5757.3965,1.9849,1.9849,0,0,0,.7744.1436,1.8874,1.8874,0,0,0,1.0259-.2754,1.8155,1.8155,0,0,0,.6777-.792l.6841.4951a2.3885,2.3885,0,0,1-.936,1.0322A2.8212,2.8212,0,0,1,146.0059,214.7178Zm0-5.6768a1.8251,1.8251,0,0,0-.72.1377,1.6262,1.6262,0,0,0-.5581.3877,1.82,1.82,0,0,0-.3657.59,2.0367,2.0367,0,0,0-.1323.7461v.083h3.42v-.1309a1.8856,1.8856,0,0,0-.45-1.3183A1.5354,1.5354,0,0,0,146.0059,209.041Z"/><path d="M154.0215,208.3819h.9482l-2.7719,7.6318a3.4131,3.4131,0,0,1-.2164.4619.9031.9031,0,0,1-.2636.294,1.0548,1.0548,0,0,1-.39.1562,2.9464,2.9464,0,0,1-.57.0479h-.4917v-.8526h.9717l.4683-1.3174-2.316-6.4218h.96l1.4878,4.2031.2881,1.0068h.06l.336-1.0068Z"/><path d="M31.8989,74.1485h3.2764a4.2743,4.2743,0,0,1,1.6518.3081,3.3377,3.3377,0,0,1,1.2671.917,4.1588,4.1588,0,0,1,.8047,1.5258,8.2715,8.2715,0,0,1,0,4.27,4.1588,4.1588,0,0,1-.8047,1.5258,3.3367,3.3367,0,0,1-1.2671.917,4.265,4.265,0,0,1-1.6518.3081H31.8989Zm3.2764,8.7358a2.9371,2.9371,0,0,0,1.1059-.2026,2.386,2.386,0,0,0,.8677-.5952,2.7584,2.7584,0,0,0,.5674-.959,3.83,3.83,0,0,0,.2026-1.295V78.2364a3.8323,3.8323,0,0,0-.2026-1.295,2.757,2.757,0,0,0-.5674-.9589,2.3912,2.3912,0,0,0-.8677-.5953,2.9469,2.9469,0,0,0-1.1059-.2026h-2.1v7.7Z"/><path d="M46.4312,83.92a1.0987,1.0987,0,0,1-.9029-.3359,1.666,1.666,0,0,1-.3432-.84h-.07a1.87,1.87,0,0,1-.7841,1.0078,2.4336,2.4336,0,0,1-1.3018.3359,2.5333,2.5333,0,0,1-1.7852-.5879,2.0656,2.0656,0,0,1-.6367-1.5962,1.8216,1.8216,0,0,1,.749-1.5678,3.98,3.98,0,0,1,2.3306-.5459h1.4282v-.7144a1.562,1.562,0,0,0-.42-1.1758,1.7934,1.7934,0,0,0-1.2881-.4057,1.9364,1.9364,0,0,0-1.0991.2939,2.4176,2.4176,0,0,0-.7349.7837l-.6718-.63a2.5473,2.5473,0,0,1,.938-1.001,2.9523,2.9523,0,0,1,1.624-.4131,2.988,2.988,0,0,1,2.0439.6426,2.2623,2.2623,0,0,1,.7281,1.7881v3.9673h.8256V83.92Zm-3.22-.7841a2.8491,2.8491,0,0,0,.77-.0977,1.8848,1.8848,0,0,0,.6016-.28,1.3846,1.3846,0,0,0,.3921-.42,1.0033,1.0033,0,0,0,.14-.5181V80.63H43.6313a2.7053,2.7053,0,0,0-1.4072.28.9035.9035,0,0,0-.4409.8115v.2944a.9792.9792,0,0,0,.3848.8257A1.6771,1.6771,0,0,0,43.2114,83.1363Z"/><path d="M50.2529,83.92a1.1467,1.1467,0,0,1-.8891-.3281,1.2214,1.2214,0,0,1-.3008-.8594V77.6905h-1.19v-.9942h.6723a.658.658,0,0,0,.4971-.147.764.764,0,0,0,.1328-.5107V74.6944h1.0078v2.0019h1.582v.9942h-1.582v5.2358h1.47V83.92Z"/><path d="M58.8208,83.92a1.0986,1.0986,0,0,1-.9028-.3359,1.6661,1.6661,0,0,1-.3433-.84h-.07a1.8694,1.8694,0,0,1-.7842,1.0078,2.4334,2.4334,0,0,1-1.3018.3359,2.533,2.533,0,0,1-1.7851-.5879,2.0656,2.0656,0,0,1-.6367-1.5962,1.8216,1.8216,0,0,1,.749-1.5678,3.9794,3.9794,0,0,1,2.3306-.5459h1.4282v-.7144a1.5624,1.5624,0,0,0-.42-1.1758,1.7934,1.7934,0,0,0-1.2881-.4057,1.936,1.936,0,0,0-1.0991.2939,2.4165,2.4165,0,0,0-.7349.7837l-.6719-.63a2.5473,2.5473,0,0,1,.938-1.001,2.9523,2.9523,0,0,1,1.624-.4131,2.9883,2.9883,0,0,1,2.044.6426,2.2626,2.2626,0,0,1,.728,1.7881v3.9673h.8257V83.92Zm-3.22-.7841a2.8491,2.8491,0,0,0,.77-.0977,1.8858,1.8858,0,0,0,.6016-.28,1.3842,1.3842,0,0,0,.392-.42,1.0034,1.0034,0,0,0,.14-.5181V80.63H56.021a2.7051,2.7051,0,0,0-1.4072.28.9033.9033,0,0,0-.4409.8115v.2944a.9794.9794,0,0,0,.3847.8257A1.6775,1.6775,0,0,0,55.6011,83.1363Z"/><path d="M61.0469,73.5606h1.12v4.2983h.0561a2.0317,2.0317,0,0,1,.8189-1.0049,2.46,2.46,0,0,1,1.2949-.3257,2.7459,2.7459,0,0,1,1.2183.2662,2.647,2.647,0,0,1,.9306.7558,3.4664,3.4664,0,0,1,.5879,1.19,6.1521,6.1521,0,0,1,0,3.1362,3.456,3.456,0,0,1-.5879,1.19,2.6473,2.6473,0,0,1-.9306.7559,2.7472,2.7472,0,0,1-1.2183.2661,2.1872,2.1872,0,0,1-2.1138-1.3306H62.167V83.92h-1.12Zm2.9819,9.5337a1.9276,1.9276,0,0,0,1.4981-.5977,2.2348,2.2348,0,0,0,.5459-1.5693V79.69a2.2346,2.2346,0,0,0-.5459-1.5689,1.9261,1.9261,0,0,0-1.4981-.5981,2.4343,2.4343,0,0,0-.7207.1055,2.0174,2.0174,0,0,0-.5952.2885,1.39,1.39,0,0,0-.3989.4429,1.1132,1.1132,0,0,0-.147.5562v2.7016a1.3016,1.3016,0,0,0,.147.626,1.4051,1.4051,0,0,0,.3989.4643,1.8109,1.8109,0,0,0,.5952.2886A2.6033,2.6033,0,0,0,64.0288,83.0943Z"/><path d="M74.4165,83.92a1.0986,1.0986,0,0,1-.9028-.3359,1.6661,1.6661,0,0,1-.3433-.84h-.07a1.8694,1.8694,0,0,1-.7842,1.0078,2.4334,2.4334,0,0,1-1.3018.3359,2.533,2.533,0,0,1-1.7851-.5879,2.0656,2.0656,0,0,1-.6367-1.5962,1.8216,1.8216,0,0,1,.749-1.5678,3.9794,3.9794,0,0,1,2.3306-.5459h1.4282v-.7144a1.5624,1.5624,0,0,0-.42-1.1758,1.7934,1.7934,0,0,0-1.2881-.4057,1.936,1.936,0,0,0-1.0991.2939,2.4165,2.4165,0,0,0-.7349.7837l-.6719-.63a2.5473,2.5473,0,0,1,.938-1.001,2.9523,2.9523,0,0,1,1.624-.4131,2.9883,2.9883,0,0,1,2.044.6426,2.2626,2.2626,0,0,1,.728,1.7881v3.9673h.8257V83.92Zm-3.22-.7841a2.8491,2.8491,0,0,0,.77-.0977,1.8858,1.8858,0,0,0,.6016-.28,1.3842,1.3842,0,0,0,.392-.42,1.0034,1.0034,0,0,0,.14-.5181V80.63H71.6167a2.7051,2.7051,0,0,0-1.4072.28.9033.9033,0,0,0-.4409.8115v.2944a.9794.9794,0,0,0,.3847.8257A1.6775,1.6775,0,0,0,71.1968,83.1363Z"/><path d="M78.8125,84.0884a3.3817,3.3817,0,0,1-1.687-.3848,3.8368,3.8368,0,0,1-1.169-1.0293l.7979-.644a3.1392,3.1392,0,0,0,.9385.8193,2.4408,2.4408,0,0,0,1.2036.2867,1.7856,1.7856,0,0,0,1.1133-.3077,1.1193,1.1193,0,0,0,.1259-1.5893,1.67,1.67,0,0,0-.9873-.4131l-.5737-.084a4.7519,4.7519,0,0,1-.9238-.2168,2.5628,2.5628,0,0,1-.7354-.3921,1.679,1.679,0,0,1-.49-.6089,1.9792,1.9792,0,0,1-.1753-.8681,2.0825,2.0825,0,0,1,.1963-.9307,1.8661,1.8661,0,0,1,.539-.665,2.3458,2.3458,0,0,1,.8189-.3989,3.7707,3.7707,0,0,1,1.022-.1334,3.1938,3.1938,0,0,1,1.477.3082,3.3124,3.3124,0,0,1,1.043.854l-.7422.6718a2.2074,2.2074,0,0,0-1.8618-.8818,1.6077,1.6077,0,0,0-1.0572.3008,1.0173,1.0173,0,0,0-.3569.8193.8583.8583,0,0,0,.3569.77,2.6612,2.6612,0,0,0,1.0293.35l.56.084a3.0043,3.0043,0,0,1,1.708.6934,1.82,1.82,0,0,1,.5044,1.3369,2.0456,2.0456,0,0,1-.7143,1.6519A2.9463,2.9463,0,0,1,78.8125,84.0884Z"/><path d="M86.1763,84.0884a3.2437,3.2437,0,0,1-1.3369-.2661,2.8867,2.8867,0,0,1-1.022-.7627,3.499,3.499,0,0,1-.6577-1.19,5.3671,5.3671,0,0,1,0-3.1153,3.4827,3.4827,0,0,1,.6577-1.1968,2.8819,2.8819,0,0,1,1.022-.7631,3.2421,3.2421,0,0,1,1.3369-.2662,3.0715,3.0715,0,0,1,1.3022.2652,2.8867,2.8867,0,0,1,.98.7329,3.2658,3.2658,0,0,1,.623,1.1089,4.3757,4.3757,0,0,1,.2168,1.4087v.53H84.1045v.3365a2.4677,2.4677,0,0,0,.147.8608,2.0471,2.0471,0,0,0,.42.6929,1.9129,1.9129,0,0,0,.6724.4619,2.3,2.3,0,0,0,.9028.168,2.1971,2.1971,0,0,0,1.1968-.3218,2.1112,2.1112,0,0,0,.791-.9238l.7983.5776A2.7891,2.7891,0,0,1,87.94,83.63,3.2923,3.2923,0,0,1,86.1763,84.0884Zm0-6.6221a2.1382,2.1382,0,0,0-.84.16,1.8909,1.8909,0,0,0-.6509.4521,2.1293,2.1293,0,0,0-.4272.6885,2.39,2.39,0,0,0-.1538.87v.0972h3.99v-.1533a2.1965,2.1965,0,0,0-.5254-1.5371A1.79,1.79,0,0,0,86.1763,77.4663Z"/><path d="M96.62,84.0884a3.3817,3.3817,0,0,1-1.687-.3848,3.8353,3.8353,0,0,1-1.1689-1.0293l.7978-.644a3.1392,3.1392,0,0,0,.9385.8193,2.4408,2.4408,0,0,0,1.2036.2867,1.7856,1.7856,0,0,0,1.1133-.3077,1.1194,1.1194,0,0,0,.126-1.5893,1.67,1.67,0,0,0-.9873-.4131l-.5738-.084a4.7519,4.7519,0,0,1-.9238-.2168,2.5628,2.5628,0,0,1-.7354-.3921,1.679,1.679,0,0,1-.49-.6089,1.9792,1.9792,0,0,1-.1753-.8681,2.0825,2.0825,0,0,1,.1963-.9307,1.8674,1.8674,0,0,1,.5391-.665,2.3445,2.3445,0,0,1,.8188-.3989,3.7707,3.7707,0,0,1,1.022-.1334,3.1936,3.1936,0,0,1,1.477.3082,3.3124,3.3124,0,0,1,1.043.854l-.7422.6718a2.2074,2.2074,0,0,0-1.8618-.8818,1.6073,1.6073,0,0,0-1.0571.3008,1.0171,1.0171,0,0,0-.357.8193.8581.8581,0,0,0,.357.77,2.66,2.66,0,0,0,1.0293.35l.5595.084a3.004,3.004,0,0,1,1.708.6934,1.82,1.82,0,0,1,.5044,1.3369,2.0453,2.0453,0,0,1-.7143,1.6519A2.9463,2.9463,0,0,1,96.62,84.0884Z"/><path d="M105.4688,76.6963h1.1059l-3.2339,8.9043a3.9978,3.9978,0,0,1-.2519.5391,1.0525,1.0525,0,0,1-.3081.3428,1.2315,1.2315,0,0,1-.4551.1821,3.3915,3.3915,0,0,1-.6651.0556h-.5742v-.9936h1.1343l.5459-1.5376-2.7021-7.4927h1.12l1.7363,4.9048.3359,1.1738h.07l.3921-1.1738Z"/><path d="M110.1162,84.0884a3.3817,3.3817,0,0,1-1.687-.3848,3.8353,3.8353,0,0,1-1.1689-1.0293l.7978-.644a3.1392,3.1392,0,0,0,.9385.8193,2.4408,2.4408,0,0,0,1.2036.2867,1.7856,1.7856,0,0,0,1.1133-.3077,1.1194,1.1194,0,0,0,.126-1.5893,1.6705,1.6705,0,0,0-.9874-.4131l-.5737-.084a4.7519,4.7519,0,0,1-.9238-.2168,2.5628,2.5628,0,0,1-.7354-.3921,1.679,1.679,0,0,1-.49-.6089,1.9792,1.9792,0,0,1-.1753-.8681,2.0825,2.0825,0,0,1,.1963-.9307,1.8663,1.8663,0,0,1,.5391-.665,2.3445,2.3445,0,0,1,.8188-.3989,3.7707,3.7707,0,0,1,1.022-.1334,3.1938,3.1938,0,0,1,1.477.3082,3.3124,3.3124,0,0,1,1.043.854l-.7422.6718a2.2074,2.2074,0,0,0-1.8618-.8818,1.6073,1.6073,0,0,0-1.0571.3008,1.0171,1.0171,0,0,0-.357.8193.8581.8581,0,0,0,.357.77,2.66,2.66,0,0,0,1.0293.35l.5595.084a3.004,3.004,0,0,1,1.708.6934,1.82,1.82,0,0,1,.5044,1.3369,2.0456,2.0456,0,0,1-.7143,1.6519A2.9463,2.9463,0,0,1,110.1162,84.0884Z"/><path d="M116.2627,83.92a1.1469,1.1469,0,0,1-.8892-.3281,1.2218,1.2218,0,0,1-.3007-.8594V77.6905h-1.19v-.9942h.6724a.658.658,0,0,0,.4971-.147.7645.7645,0,0,0,.1328-.5107V74.6944h1.0078v2.0019h1.582v.9942h-1.582v5.2358h1.47V83.92Z"/><path d="M122.24,84.0884a3.2444,3.2444,0,0,1-1.3369-.2661,2.8867,2.8867,0,0,1-1.022-.7627,3.5007,3.5007,0,0,1-.6577-1.19,5.3694,5.3694,0,0,1,0-3.1153,3.4843,3.4843,0,0,1,.6577-1.1968,2.8819,2.8819,0,0,1,1.022-.7631,3.2428,3.2428,0,0,1,1.3369-.2662,3.0716,3.0716,0,0,1,1.3023.2652,2.8867,2.8867,0,0,1,.98.7329,3.2658,3.2658,0,0,1,.623,1.1089,4.3784,4.3784,0,0,1,.2168,1.4087v.53h-5.1938v.3365a2.47,2.47,0,0,0,.1469.8608,2.0489,2.0489,0,0,0,.42.6929,1.9134,1.9134,0,0,0,.6723.4619,2.3,2.3,0,0,0,.9028.168,2.1966,2.1966,0,0,0,1.1968-.3218,2.1112,2.1112,0,0,0,.791-.9238l.7984.5776a2.79,2.79,0,0,1-1.0923,1.2041A3.2925,3.2925,0,0,1,122.24,84.0884Zm0-6.6221a2.1373,2.1373,0,0,0-.84.16,1.889,1.889,0,0,0-.6509.4521,2.1293,2.1293,0,0,0-.4272.6885,2.3878,2.3878,0,0,0-.1538.87v.0972h3.99v-.1533a2.1965,2.1965,0,0,0-.5254-1.5371A1.7906,1.7906,0,0,0,122.24,77.4663Z"/><path d="M127.21,83.92V76.6963h1.12v1.1626h.0561a3.7189,3.7189,0,0,1,.2866-.52,1.7621,1.7621,0,0,1,.9312-.707,2.2793,2.2793,0,0,1,.728-.1041,2.63,2.63,0,0,1,1.3159.34,2.0552,2.0552,0,0,1,.896,1.1172h.0279a2.2179,2.2179,0,0,1,.7353-1.02,2.2545,2.2545,0,0,1,1.4629-.4375,2.1649,2.1649,0,0,1,1.729.7212,3.022,3.022,0,0,1,.6231,2.0372V83.92h-1.12V79.4727a2.3672,2.3672,0,0,0-.3779-1.459,1.423,1.423,0,0,0-1.2041-.4912,2.3663,2.3663,0,0,0-.6367.084,1.7383,1.7383,0,0,0-.5391.2529,1.2307,1.2307,0,0,0-.3779.4277,1.2615,1.2615,0,0,0-.14.61V83.92h-1.12V79.4727a2.3672,2.3672,0,0,0-.3779-1.459,1.3894,1.3894,0,0,0-1.1758-.4912,2.4475,2.4475,0,0,0-.644.084,1.7324,1.7324,0,0,0-.5464.2529,1.3073,1.3073,0,0,0-.3848.4277,1.2166,1.2166,0,0,0-.1469.61V83.92Z"/><path d="M614.668,166.4326v7.4883H613.66v-7.4883h-2.6641v-.8876h6.3359v.8876Z"/><path d="M618.7129,165.545H621.52a3.6614,3.6614,0,0,1,1.416.2636,2.85,2.85,0,0,1,1.086.7862,3.5629,3.5629,0,0,1,.6914,1.3076,7.12,7.12,0,0,1,0,3.66,3.5684,3.5684,0,0,1-.6914,1.3086,2.848,2.848,0,0,1-1.086.7852,3.6449,3.6449,0,0,1-1.416.2646h-2.8066Zm2.8066,7.4873a2.5187,2.5187,0,0,0,.9493-.1739,2.0552,2.0552,0,0,0,.7441-.51,2.3727,2.3727,0,0,0,.4853-.8223,3.2681,3.2681,0,0,0,.1739-1.1094v-1.3681a3.2778,3.2778,0,0,0-.1739-1.11,2.381,2.381,0,0,0-.4853-.8223,2.0676,2.0676,0,0,0-.7441-.51,2.5364,2.5364,0,0,0-.9493-.1739h-1.7988v6.6Z"/><path d="M626.7637,173.9209V165.545h5.1123v.8876h-4.1045V169.24h3.8642v.8886h-3.8642v2.9034h4.1045v.8886Z"/><path d="M636.4961,173.9209v-6.1924h.96v.9971h.0478a3.3335,3.3335,0,0,1,.2461-.4463,1.5571,1.5571,0,0,1,.3359-.3623,1.5754,1.5754,0,0,1,.462-.2431,1.9528,1.9528,0,0,1,.624-.0889,2.2588,2.2588,0,0,1,1.1289.291,1.7625,1.7625,0,0,1,.7676.958h.0234a1.9039,1.9039,0,0,1,.6309-.875,1.9347,1.9347,0,0,1,1.2539-.374,1.855,1.855,0,0,1,1.4814.6182,2.5861,2.5861,0,0,1,.5342,1.7451v3.9726h-.96v-3.8125a2.0333,2.0333,0,0,0-.3242-1.2509,1.22,1.22,0,0,0-1.0322-.4209,2.0373,2.0373,0,0,0-.5459.0722,1.4783,1.4783,0,0,0-.4619.2168,1.0439,1.0439,0,0,0-.3242.3662,1.0873,1.0873,0,0,0-.1192.5235v4.3056h-.9609v-3.8125a2.0274,2.0274,0,0,0-.3242-1.2509,1.19,1.19,0,0,0-1.0079-.4209,2.102,2.102,0,0,0-.5517.0722,1.4611,1.4611,0,0,0-.4678.2168,1.1025,1.1025,0,0,0-.33.3662,1.0464,1.0464,0,0,0-.1259.5235v4.3056Z"/><path d="M651.4717,173.9209a.9446.9446,0,0,1-.7744-.2881,1.42,1.42,0,0,1-.293-.72h-.0605a1.6,1.6,0,0,1-.6719.8633,2.0845,2.0845,0,0,1-1.1162.2881,2.1726,2.1726,0,0,1-1.53-.5039,1.773,1.773,0,0,1-.5459-1.3682,1.5626,1.5626,0,0,1,.6416-1.3437,3.4166,3.4166,0,0,1,1.998-.4678h1.2247v-.6123a1.3418,1.3418,0,0,0-.3594-1.0078,1.5368,1.5368,0,0,0-1.1045-.3477,1.6634,1.6634,0,0,0-.9424.252,2.0723,2.0723,0,0,0-.63.6718l-.5762-.54a2.2033,2.2033,0,0,1,.8038-.8584,2.9983,2.9983,0,0,1,3.1445.1973,1.9369,1.9369,0,0,1,.624,1.5322v3.4h.708v.8525Zm-2.7608-.6718a2.4545,2.4545,0,0,0,.66-.084,1.6312,1.6312,0,0,0,.5166-.24,1.1942,1.1942,0,0,0,.3359-.36.8562.8562,0,0,0,.12-.4434v-1.0205h-1.2715a2.3227,2.3227,0,0,0-1.2071.24.7743.7743,0,0,0-.3769.6963v.252a.838.838,0,0,0,.33.708A1.433,1.433,0,0,0,648.7109,173.2491Z"/><path d="M655.24,174.0645a2.8889,2.8889,0,0,1-1.4463-.33,3.29,3.29,0,0,1-1.0019-.8818l.6846-.5518a2.6981,2.6981,0,0,0,.8027.7022,2.1,2.1,0,0,0,1.0332.2461,1.5212,1.5212,0,0,0,.9531-.2647.9592.9592,0,0,0,.1084-1.3613,1.4333,1.4333,0,0,0-.8467-.3545l-.4921-.0723a4.1159,4.1159,0,0,1-.7911-.1855,2.2189,2.2189,0,0,1-.6308-.336,1.4514,1.4514,0,0,1-.42-.5224,1.709,1.709,0,0,1-.1495-.7442,1.7869,1.7869,0,0,1,.168-.7978,1.6036,1.6036,0,0,1,.4619-.5694,2.0054,2.0054,0,0,1,.7022-.3427,3.275,3.275,0,0,1,.876-.1133,2.7349,2.7349,0,0,1,1.2656.2637,2.8313,2.8313,0,0,1,.8945.7324l-.6367.5752A1.8946,1.8946,0,0,0,655.18,168.4a1.3783,1.3783,0,0,0-.9063.2578.8742.8742,0,0,0-.3056.7022.7357.7357,0,0,0,.3056.66,2.27,2.27,0,0,0,.8828.3l.48.0723a2.5734,2.5734,0,0,1,1.4639.5938,1.5624,1.5624,0,0,1,.4316,1.1464,1.7527,1.7527,0,0,1-.6113,1.4161A2.5286,2.5286,0,0,1,655.24,174.0645Z"/><path d="M660.5078,173.9209a.9822.9822,0,0,1-.7617-.2812,1.0481,1.0481,0,0,1-.2578-.7364v-4.3222h-1.0195v-.8526h.5751a.5665.5665,0,0,0,.4268-.1259.6574.6574,0,0,0,.1133-.4375v-1.1524h.8642v1.7158h1.3565v.8526h-1.3565v4.4873h1.26v.8525Z"/><path d="M665.6318,174.0645a2.7825,2.7825,0,0,1-1.1455-.2276,2.4705,2.4705,0,0,1-.8769-.6543,2.9969,2.9969,0,0,1-.5635-1.02,4.5981,4.5981,0,0,1,0-2.6709,2.99,2.99,0,0,1,.5635-1.0254,2.4717,2.4717,0,0,1,.8769-.6543,2.7841,2.7841,0,0,1,1.1455-.2275,2.6376,2.6376,0,0,1,1.1162.2266,2.49,2.49,0,0,1,.84.6279,2.7773,2.7773,0,0,1,.5332.9512,3.7223,3.7223,0,0,1,.1865,1.208v.4541h-4.4521v.288a2.1029,2.1029,0,0,0,.1269.7383,1.7491,1.7491,0,0,0,.3594.5938,1.6391,1.6391,0,0,0,.5762.3955,1.9636,1.9636,0,0,0,.7734.1445,1.88,1.88,0,0,0,1.0264-.2763,1.81,1.81,0,0,0,.6777-.792l.6846.4951a2.3878,2.3878,0,0,1-.9365,1.0322A2.823,2.823,0,0,1,665.6318,174.0645Zm0-5.6758a1.8186,1.8186,0,0,0-.72.1377,1.6162,1.6162,0,0,0-.5586.3867,1.8154,1.8154,0,0,0-.3652.5908,2.0217,2.0217,0,0,0-.1328.7452v.0839h3.42v-.1318a1.8876,1.8876,0,0,0-.4492-1.3174A1.5387,1.5387,0,0,0,665.6318,168.3887Z"/><path d="M669.8926,173.9209v-6.1924h.959v1.1407h.0605a1.8758,1.8758,0,0,1,.6-.793,1.85,1.85,0,0,1,1.1885-.3477h.3721v.96h-.5645a2.1729,2.1729,0,0,0-1.2178.294.8681.8681,0,0,0-.4384.7382v4.2Z"/><path d="M607.24,188.4649a2.7716,2.7716,0,0,1-1.1455-.2285,2.4657,2.4657,0,0,1-.8759-.6534,3.011,3.011,0,0,1-.5645-1.02,4.6148,4.6148,0,0,1,0-2.67,3.0036,3.0036,0,0,1,.5645-1.0264,2.4654,2.4654,0,0,1,.8759-.6533,2.7716,2.7716,0,0,1,1.1455-.2285,2.6364,2.6364,0,0,1,1.1162.2275,2.47,2.47,0,0,1,.8409.628,2.8058,2.8058,0,0,1,.5332.95,3.754,3.754,0,0,1,.1855,1.208v.4541h-4.4512v.2881a2.0945,2.0945,0,0,0,.126.7382,1.7418,1.7418,0,0,0,.36.5938,1.6483,1.6483,0,0,0,.5752.3965,1.9832,1.9832,0,0,0,.7744.1435,1.8833,1.8833,0,0,0,1.0254-.2754,1.8089,1.8089,0,0,0,.6777-.7919l.6846.4951a2.3872,2.3872,0,0,1-.9365,1.0322A2.8206,2.8206,0,0,1,607.24,188.4649Zm0-5.6768a1.8221,1.8221,0,0,0-.72.1377,1.6233,1.6233,0,0,0-.5576.3877,1.8115,1.8115,0,0,0-.3662.59,2.0267,2.0267,0,0,0-.1319.7461v.0831h3.42v-.1309a1.886,1.886,0,0,0-.45-1.3184A1.5363,1.5363,0,0,0,607.24,182.7881Z"/><path d="M611.5,188.32v-6.1914h.9609v.9961h.0469a2.0206,2.0206,0,0,1,.6426-.831,1.812,1.812,0,0,1,1.1094-.31,1.9429,1.9429,0,0,1,1.5185.6182,2.5149,2.5149,0,0,1,.5576,1.7461V188.32h-.9589v-3.8115q0-1.6728-1.4043-1.6719a2.1232,2.1232,0,0,0-.5586.0723,1.6226,1.6226,0,0,0-.4854.2158,1.0826,1.0826,0,0,0-.3428.3672,1.0446,1.0446,0,0,0-.125.5235V188.32Z"/><path d="M620.6211,188.4649a2.8442,2.8442,0,0,1-1.1641-.2285,2.368,2.368,0,0,1-.8711-.6475,2.867,2.867,0,0,1-.539-1.02,4.9342,4.9342,0,0,1,0-2.6875,2.867,2.867,0,0,1,.539-1.02,2.3791,2.3791,0,0,1,.8711-.6475,2.8442,2.8442,0,0,1,1.1641-.2285,2.4785,2.4785,0,0,1,1.4814.4023,2.4537,2.4537,0,0,1,.834,1.05l-.8037.4082a1.4645,1.4645,0,0,0-.5527-.7442,1.6561,1.6561,0,0,0-.959-.2637,1.9207,1.9207,0,0,0-.7568.1377,1.4794,1.4794,0,0,0-.54.3838,1.6178,1.6178,0,0,0-.3242.5879,2.4758,2.4758,0,0,0-.1074.75v1.0567a2.0111,2.0111,0,0,0,.4375,1.3378,1.592,1.592,0,0,0,1.291.5215,1.74,1.74,0,0,0,1.68-1.08l.6953.4687a2.4571,2.4571,0,0,1-.8936,1.0674A2.6077,2.6077,0,0,1,620.6211,188.4649Z"/><path d="M624.3525,188.32v-6.1914h.96v1.14h.0605a1.8661,1.8661,0,0,1,.6-.792,1.8394,1.8394,0,0,1,1.1875-.3477h.373v.96h-.5644a2.17,2.17,0,0,0-1.2188.2939.8681.8681,0,0,0-.4375.7373v4.2Z"/><path d="M632.6914,182.1289h.9492l-2.7724,7.6319a3.4167,3.4167,0,0,1-.2159.4619.9074.9074,0,0,1-.2636.2939,1.0593,1.0593,0,0,1-.3907.1563,2.9515,2.9515,0,0,1-.57.0478h-.4922v-.8525h.9727l.4678-1.3174-2.3155-6.4219h.959l1.4883,4.2032.2881,1.0068h.06l.3359-1.0068Z"/><path d="M634.8643,182.1289h.96v.9961h.0479a1.7418,1.7418,0,0,1,.7021-.8613,2.1129,2.1129,0,0,1,1.1094-.2793,2.3512,2.3512,0,0,1,1.0449.2285,2.27,2.27,0,0,1,.7979.6475,2.98,2.98,0,0,1,.5039,1.02,5.2816,5.2816,0,0,1,0,2.6875,2.98,2.98,0,0,1-.5039,1.02,2.2589,2.2589,0,0,1-.7979.6475,2.3512,2.3512,0,0,1-1.0449.2285,1.8744,1.8744,0,0,1-1.8115-1.1407h-.0479v3.3965h-.96Zm2.5556,5.4834a1.6528,1.6528,0,0,0,1.2842-.5117,1.92,1.92,0,0,0,.4678-1.3457v-1.06a1.9161,1.9161,0,0,0-.4678-1.3448,1.65,1.65,0,0,0-1.2842-.5127,2.105,2.105,0,0,0-.6172.09,1.6947,1.6947,0,0,0-.51.2471,1.196,1.196,0,0,0-.3428.38.9563.9563,0,0,0-.126.4766v2.3154a1.1181,1.1181,0,0,0,.126.5371,1.198,1.198,0,0,0,.3428.3985,1.5288,1.5288,0,0,0,.51.247A2.2419,2.2419,0,0,0,637.42,187.6123Z"/><path d="M643.12,188.32a.9831.9831,0,0,1-.7627-.2812,1.0463,1.0463,0,0,1-.2578-.7363v-4.3223H641.08v-.8516h.5761a.5656.5656,0,0,0,.4258-.1259.6549.6549,0,0,0,.1133-.4385v-1.1524h.8652v1.7168h1.3555v.8516h-1.3555v4.4883h1.26v.8515Z"/><path d="M646.4434,180.6768a.5839.5839,0,0,1-.4493-.15.5528.5528,0,0,1-.1386-.39v-.1562a.553.553,0,0,1,.1386-.39.7494.7494,0,0,1,.9,0,.5519.5519,0,0,1,.1367.39v.1562a.5517.5517,0,0,1-.1367.39A.587.587,0,0,1,646.4434,180.6768Zm-.48,1.4521h.96V188.32h-.96Z"/><path d="M651.3037,188.4649a2.7822,2.7822,0,0,1-1.14-.2285,2.4654,2.4654,0,0,1-.8829-.6534,3.0734,3.0734,0,0,1-.5693-1.02,4.4678,4.4678,0,0,1,0-2.67,3.0651,3.0651,0,0,1,.5693-1.0264,2.4651,2.4651,0,0,1,.8829-.6533,2.7822,2.7822,0,0,1,1.14-.2285,2.7417,2.7417,0,0,1,1.1338.2285,2.5342,2.5342,0,0,1,.8828.6533,3.0248,3.0248,0,0,1,.5762,1.0264,4.4888,4.4888,0,0,1,0,2.67,3.0329,3.0329,0,0,1-.5762,1.02,2.5345,2.5345,0,0,1-.8828.6534A2.7417,2.7417,0,0,1,651.3037,188.4649Zm0-.8526a1.7476,1.7476,0,0,0,1.2725-.48,1.9627,1.9627,0,0,0,.4922-1.4638V184.78a1.9628,1.9628,0,0,0-.4922-1.4639,1.9282,1.9282,0,0,0-2.545,0,1.9626,1.9626,0,0,0-.4912,1.4639v.8887a1.9625,1.9625,0,0,0,.4912,1.4638A1.7476,1.7476,0,0,0,651.3037,187.6123Z"/><path d="M655.6836,188.32v-6.1914h.9609v.9961h.0469a2.0206,2.0206,0,0,1,.6426-.831,1.812,1.812,0,0,1,1.1094-.31,1.9429,1.9429,0,0,1,1.5185.6182,2.5149,2.5149,0,0,1,.5576,1.7461V188.32h-.959v-3.8115q0-1.6728-1.4043-1.6719a2.1224,2.1224,0,0,0-.5585.0723,1.6226,1.6226,0,0,0-.4854.2158,1.0826,1.0826,0,0,0-.3428.3672,1.0435,1.0435,0,0,0-.125.5235V188.32Z"/><path d="M665.332,179.4405h.959v5.6279h.0488l.9473-1.0557,1.752-1.8838h1.164l-2.291,2.4473,2.5195,3.7441h-1.164l-2.0528-3.1552-.9238.9472v2.208h-.959Z"/><path d="M673.7793,188.4649a2.7712,2.7712,0,0,1-1.1455-.2285,2.4669,2.4669,0,0,1-.876-.6534,3.0125,3.0125,0,0,1-.5644-1.02,4.6148,4.6148,0,0,1,0-2.67,3.0051,3.0051,0,0,1,.5644-1.0264,2.4667,2.4667,0,0,1,.876-.6533,2.7712,2.7712,0,0,1,1.1455-.2285,2.6364,2.6364,0,0,1,1.1162.2275,2.47,2.47,0,0,1,.8408.628,2.8024,2.8024,0,0,1,.5332.95,3.7513,3.7513,0,0,1,.1856,1.208v.4541h-4.4512v.2881a2.0923,2.0923,0,0,0,.126.7382,1.7431,1.7431,0,0,0,.36.5938,1.65,1.65,0,0,0,.5752.3965,1.9839,1.9839,0,0,0,.7744.1435,1.8833,1.8833,0,0,0,1.0254-.2754,1.8091,1.8091,0,0,0,.6778-.7919l.6845.4951a2.3872,2.3872,0,0,1-.9365,1.0322A2.82,2.82,0,0,1,673.7793,188.4649Zm0-5.6768a1.8218,1.8218,0,0,0-.72.1377,1.6233,1.6233,0,0,0-.5576.3877,1.8117,1.8117,0,0,0-.3663.59,2.0287,2.0287,0,0,0-.1318.7461v.0831h3.42v-.1309a1.886,1.886,0,0,0-.45-1.3184A1.536,1.536,0,0,0,673.7793,182.7881Z"/><path d="M681.7949,182.1289h.9492l-2.7724,7.6319a3.43,3.43,0,0,1-.2158.4619.9088.9088,0,0,1-.2637.2939,1.0594,1.0594,0,0,1-.3906.1563,2.9526,2.9526,0,0,1-.57.0478h-.4921v-.8525h.9726l.4678-1.3174-2.3154-6.4219h.9589l1.4883,4.2032.2881,1.0068h.06l.3359-1.0068Z"/></g></svg>