<svg id="Layer_1" data-name="Layer 1" xmlns="http://www.w3.org/2000/svg" viewBox="0 0 750 350"><defs><style>.cls-1,.cls-20{fill:#f2f4f8;}.cls-1,.cls-12,.cls-13,.cls-15,.cls-16,.cls-2,.cls-20,.cls-28,.cls-29,.cls-3,.cls-30{stroke:#000;}.cls-1,.cls-13,.cls-15,.cls-16,.cls-17,.cls-2,.cls-30,.cls-31{stroke-linejoin:round;}.cls-17,.cls-2,.cls-29,.cls-31{fill:none;}.cls-15,.cls-2,.cls-30,.cls-31{stroke-linecap:round;}.cls-13,.cls-3{fill:#b3e6ff;}.cls-12,.cls-20,.cls-28,.cls-29,.cls-3{stroke-miterlimit:10;}.cls-4{font-size:16px;}.cls-21,.cls-4{font-family:IBMPlexSans-SemiBold, IBM Plex Sans;font-weight:700;}.cls-5{letter-spacing:-0.01em;}.cls-6{letter-spacing:0em;}.cls-7{letter-spacing:0em;}.cls-8{letter-spacing:0.01em;}.cls-9{letter-spacing:-0.01em;}.cls-10{letter-spacing:0em;}.cls-11{letter-spacing:0em;}.cls-12{fill:#e3f6ff;}.cls-14,.cls-15,.cls-16{fill:#e6d6ff;}.cls-17,.cls-31{stroke:#50565b;stroke-width:2px;}.cls-18{fill:#50565b;}.cls-19{letter-spacing:-0.04em;}.cls-21{font-size:12px;}.cls-22{letter-spacing:0.01em;}.cls-23{letter-spacing:0em;}.cls-24{letter-spacing:0em;}.cls-25{letter-spacing:0.01em;}.cls-26{letter-spacing:0.02em;}.cls-27{letter-spacing:-0.01em;}.cls-28{fill:#dbfbfb;}.cls-30{fill:#fff;}</style></defs><title>PKCS11</title><rect class="cls-1" x="231" y="224.04" width="365" height="110"/><g id="HP_icon" data-name="HP icon"><line class="cls-2" x1="276.07" y1="290.82" x2="298.93" y2="290.82"/><polyline class="cls-2" points="298.93 290.82 298.93 275.82 276.07 275.82 276.07 285.29"/><path class="cls-2" d="M294.64,275.82v-5.71a7.14,7.14,0,1,0-14.28,0v5.71"/><path class="cls-2" d="M287.5,301.54s-20.36-11.94-20.36-35.36"/><path class="cls-2" d="M307.86,266.18c0,23.42-20.36,35.36-20.36,35.36"/><polyline class="cls-2" points="267.14 266.18 287.5 254.39 307.86 266.18"/><circle class="cls-3" cx="307.86" cy="266.18" r="2.14"/><circle class="cls-3" cx="267.14" cy="266.18" r="2.14"/><circle class="cls-3" cx="287.5" cy="301.54" r="2.14"/></g><text class="cls-4" transform="translate(345 254.04)">Hyper <tspan class="cls-5" x="48.48" y="0">P</tspan><tspan class="cls-6" x="58.58" y="0">r</tspan><tspan class="cls-7" x="64.78" y="0">ot</tspan><tspan x="79.65" y="0">ect C</tspan><tspan class="cls-8" x="116.81" y="0">r</tspan><tspan x="123.23" y="0">y</tspan><tspan class="cls-9" x="131.61" y="0">p</tspan><tspan class="cls-10" x="141.12" y="0">t</tspan><tspan x="147.04" y="0">o Se</tspan><tspan class="cls-8" x="178.53" y="0">r</tspan><tspan x="184.94" y="0">vi</tspan><tspan class="cls-11" x="197.74" y="0">c</tspan><tspan x="205.87" y="0">es</tspan></text><path id="Cloud" class="cls-12" d="M416,267.83a25,25,0,0,0-24.6,20.32,18.77,18.77,0,0,0,3.31,37.23h42.54a18.77,18.77,0,0,0,3.3-37.23,25,25,0,0,0-19.87-19.87A24.5,24.5,0,0,0,416,267.83Z"/><g id="Hardware"><rect class="cls-13" x="395.99" y="304.25" width="40" height="10.59"/><polygon class="cls-13" points="436 303.86 396 303.86 403.05 288.56 428.94 288.56 436 303.86"/><rect x="421.29" y="307.19" width="4.71" height="4.71"/><rect x="427.76" y="307.19" width="4.71" height="4.71"/></g><g id="lock"><g id="lock-2" data-name="lock"><rect class="cls-14" x="391.4" y="302.84" width="7.2" height="2.4"/><path class="cls-15" d="M395,314.44v-2.8m-4-6.53V300a4,4,0,1,1,8,0v5.07m1.6,1.21a8.21,8.21,0,0,0-1.6-1.21,8,8,0,0,0-8,0,8.21,8.21,0,0,0-1.6,1.21,8,8,0,1,0,11.2,0Z"/><circle cx="395" cy="311.64" r="1.5"/></g></g><g id="key"><path class="cls-15" d="M523.54,302.16a11.68,11.68,0,1,1-.55-7.94"/><circle cx="508.52" cy="298.94" r="2.5"/><polyline class="cls-16" points="522.99 294.22 546.31 294.22 550.67 298.59 546.91 302.35 532.25 302.35 529.62 299.74 527.21 302.16 523.54 302.16"/></g><line class="cls-17" x1="330" y1="169.62" x2="330" y2="216.29"/><polygon class="cls-18" points="326.01 170.79 330 163.88 333.99 170.79 326.01 170.79"/><polygon class="cls-18" points="326.01 215.13 330 222.03 333.99 215.13 326.01 215.13"/><text class="cls-4" transform="translate(352.45 197.59)">En<tspan class="cls-7" x="19.01" y="0">t</tspan><tspan x="24.93" y="0">erprise P</tspan><tspan class="cls-19" x="91.39" y="0">K</tspan><tspan x="101.66" y="0">CS #11</tspan></text><rect class="cls-20" x="231" y="16.38" width="365" height="145"/><text class="cls-21" transform="translate(268.48 41.34)">Enc<tspan class="cls-22" x="20.41" y="0">r</tspan><tspan class="cls-23" x="25.22" y="0">y</tspan><tspan class="cls-9" x="31.51" y="0">p</tspan><tspan class="cls-24" x="38.64" y="0">tion/Dec</tspan><tspan class="cls-25" x="86.61" y="0">r</tspan><tspan class="cls-24" x="91.43" y="0">y</tspan><tspan class="cls-9" x="97.71" y="0">p</tspan><tspan x="104.84" y="0">tion</tspan><tspan x="-6.52" y="14.4">Digital signin</tspan><tspan class="cls-26" x="65.73" y="14.4">g</tspan><tspan class="cls-23" x="72.53" y="14.4">/</tspan><tspan class="cls-27" x="77.78" y="14.4">v</tspan><tspan x="83.96" y="14.4">alid</tspan><tspan class="cls-10" x="104.7" y="14.4">a</tspan><tspan x="111.36" y="14.4">tion</tspan></text><g id="Database"><path class="cls-28" d="M540.82,77.86H493.18c-3.29,0-6,2.28-6,5.1v56.15c0,2.82,2.67,5.1,6,5.1h47.64c3.29,0,6-2.28,6-5.1V83C546.78,80.14,544.11,77.86,540.82,77.86Z"/><line class="cls-29" x1="487" y1="99.7" x2="547" y2="99.7"/><line class="cls-29" x1="487.97" y1="122.37" x2="547" y2="122.37"/><circle cx="497.65" cy="87.91" r="3"/><circle cx="497.65" cy="111.04" r="3"/><circle cx="497.65" cy="133.2" r="3"/></g><g id="application"><g id="application-2" data-name="application"><path class="cls-30" d="M365.5,143.38h-60v-56h60Zm-60-50h60m-44,0v50"/><path d="M361.5,90.38a1,1,0,1,1-1-1A1,1,0,0,1,361.5,90.38Zm-5-1a1,1,0,1,0,1,1A1,1,0,0,0,356.5,89.38Zm-4,0a1,1,0,1,0,1,1A1,1,0,0,0,352.5,89.38Z"/></g></g><g id="application-3" data-name="application"><g id="application-4" data-name="application"><path class="cls-30" d="M354.5,133.38h-60v-56h60Zm-60-50h60m-44,0v50"/><path d="M350.5,80.38a1,1,0,1,1-1-1A1,1,0,0,1,350.5,80.38Zm-5-1a1,1,0,1,0,1,1A1,1,0,0,0,345.5,79.38Zm-4,0a1,1,0,1,0,1,1A1,1,0,0,0,341.5,79.38Z"/></g></g><line class="cls-31" x1="157" y1="90.88" x2="254" y2="90.88"/><line class="cls-31" x1="254" y1="90.88" x2="254" y2="104.88"/><line class="cls-31" x1="254" y1="104.88" x2="284.26" y2="104.88"/><polygon class="cls-18" points="283.09 108.87 290 104.88 283.09 100.89 283.09 108.87"/><line class="cls-31" x1="369" y1="104.88" x2="448" y2="104.88"/><line class="cls-31" x1="448" y1="104.88" x2="448" y2="118.88"/><line class="cls-31" x1="448" y1="118.88" x2="478.26" y2="118.88"/><polygon class="cls-18" points="477.09 122.87 484 118.88 477.09 114.89 477.09 122.87"/></svg>