<svg xmlns="http://www.w3.org/2000/svg" width="750" height="245" viewBox="0 0 750 245"><defs><style>.cls-1{fill:#e3f6ff;}.cls-1,.cls-10,.cls-11,.cls-12,.cls-2,.cls-3,.cls-4,.cls-5,.cls-6,.cls-7,.cls-9{stroke:#000;}.cls-1,.cls-2,.cls-6{stroke-miterlimit:10;}.cls-14,.cls-2,.cls-5{fill:none;}.cls-3{fill:#fff;}.cls-10,.cls-11,.cls-12,.cls-14,.cls-3,.cls-4,.cls-5,.cls-7,.cls-9{stroke-linejoin:round;}.cls-4{fill:#f2f4f8;}.cls-10,.cls-11,.cls-14,.cls-5,.cls-9{stroke-linecap:round;}.cls-10,.cls-6,.cls-7{fill:#b3e6ff;}.cls-8,.cls-9{fill:#e6d6ff;}.cls-11,.cls-12{fill:#87eded;}.cls-13{opacity:0.99;}.cls-14{stroke:#50565b;stroke-width:2px;}.cls-15{fill:#50565b;}</style></defs><title>pkcs_db2</title><g id="Figure"><g id="Database"><path class="cls-1" d="M106.7916,97.2053H51.2084c-3.8372,0-6.9479,2.6663-6.9479,5.9553v65.5087c0,3.289,3.1107,5.9553,6.9479,5.9553h55.5831c3.8372,0,6.9479-2.6663,6.9479-5.9553V103.1606C113.7395,99.8716,110.6288,97.2053,106.7916,97.2053Z"/><line class="cls-2" x1="44" y1="122.6892" x2="114" y2="122.6892"/><line class="cls-2" x1="45.129" y1="149.1408" x2="114" y2="149.1408"/><circle cx="59.6452" cy="109.7859" r="3.5"/><circle cx="59.6452" cy="135.915" r="3.5"/><circle cx="59.6452" cy="161.0763" r="3.5"/></g><rect class="cls-3" x="363.5" y="105.915" width="365" height="110"/><rect class="cls-4" x="347" y="88.915" width="365" height="110"/><rect class="cls-4" x="165.5" y="105.2617" width="133" height="47"/><g id="HP_icon" data-name="HP icon"><line class="cls-5" x1="392.0714" y1="155.7007" x2="414.9286" y2="155.7007"/><polyline class="cls-5" points="414.929 155.701 414.929 140.701 392.071 140.701 392.071 150.165"/><path class="cls-5" d="M410.6418,140.7007v-5.7153a7.1418,7.1418,0,0,0-14.2837,0v5.7153"/><path class="cls-5" d="M403.4961,166.415s-20.3533-11.9321-20.3533-35.3571"/><path class="cls-5" d="M423.8571,131.0578c0,23.425-20.361,35.3571-20.361,35.3571"/><polyline class="cls-5" points="383.143 131.058 403.5 119.272 423.857 131.058"/><circle class="cls-6" cx="423.8571" cy="131.0578" r="2.1429"/><circle class="cls-6" cx="383.1429" cy="131.0578" r="2.1429"/><circle class="cls-6" cx="403.5" cy="166.415" r="2.1429"/></g><path id="Cloud" class="cls-1" d="M532.0213,132.7059a25.0243,25.0243,0,0,0-24.5989,20.32,18.7682,18.7682,0,0,0,3.3032,37.2361h42.5413a18.7682,18.7682,0,0,0,3.3032-37.2361,25.0243,25.0243,0,0,0-19.8693-19.8693A25.7,25.7,0,0,0,532.0213,132.7059Z"/><g id="Hardware"><rect class="cls-7" x="511.9947" y="169.1307" width="40" height="10.5882"/><polygon class="cls-7" points="551.995 168.739 511.995 168.739 519.054 153.444 544.936 153.444 551.995 168.739"/><rect x="537.2888" y="172.0718" width="4.7059" height="4.7059"/><rect x="543.7594" y="172.0718" width="4.7059" height="4.7059"/></g><g id="lock"><g id="lock-2" data-name="lock"><rect class="cls-8" x="507.4" y="167.715" width="7.2" height="2.4"/><path class="cls-9" d="M511,179.315v-2.8m-4-6.528v-5.072a4,4,0,0,1,8,0v5.072m1.6,1.216a8.1986,8.1986,0,0,0-1.6-1.216,7.9989,7.9989,0,0,0-8,0,8.1986,8.1986,0,0,0-1.6,1.216,8,8,0,1,0,11.2,0Z"/><circle cx="511" cy="176.515" r="1.5"/></g></g><g id="key"><path class="cls-10" d="M111.5125,175.3124a11.68,11.68,0,1,1-.5548-7.9354"/><circle cx="96.494" cy="172.0965" r="2.5"/><polyline class="cls-7" points="110.958 167.377 134.281 167.377 138.647 171.743 134.884 175.505 120.22 175.505 117.591 172.9 115.179 175.312 111.513 175.312"/></g><g id="key-2" data-name="key"><path class="cls-11" d="M640.5125,147.3124a11.68,11.68,0,1,1-.5548-7.9354"/><circle cx="625.494" cy="144.0965" r="2.5"/><polyline class="cls-12" points="639.958 139.377 663.281 139.377 667.647 143.743 663.884 147.505 649.22 147.505 646.591 144.9 644.179 147.312 640.513 147.312"/></g></g><g id="Line"><g class="cls-13"><line class="cls-14" x1="121" y1="125.5395" x2="155.259" y2="125.5395"/><polygon class="cls-15" points="154.092 129.529 161 125.54 154.092 121.55 154.092 129.529"/></g><line class="cls-14" x1="126.741" y1="134.984" x2="161" y2="134.984"/><polygon class="cls-15" points="127.908 138.973 121 134.984 127.908 130.995 127.908 138.973"/><g class="cls-13"><line class="cls-14" x1="302.6471" y1="124.3702" x2="336.9061" y2="124.3702"/><polygon class="cls-15" points="335.739 128.359 342.647 124.37 335.739 120.381 335.739 128.359"/></g><line class="cls-14" x1="308.3881" y1="133.8147" x2="342.6471" y2="133.8147"/><polygon class="cls-15" points="309.555 137.804 302.647 133.815 309.555 129.826 309.555 137.804"/></g><g id="Text"><path d="M474.07,111.7852h-4.0742v4.13h-1.8477v-9.772h1.8477v4.0039H474.07v-4.0039h1.8477v9.772H474.07Z"/><path d="M482.582,108.607h1.68l-2.9395,8.61a3.7536,3.7536,0,0,1-.3154.6792,1.6907,1.6907,0,0,1-.4131.4692,1.5431,1.5431,0,0,1-.5742.2656,3.2374,3.2374,0,0,1-.7832.084h-1.0781V117.273h1.3164l.3359-1.02-2.6191-7.646H478.97l1.2744,3.856.4756,1.8438h.084l.5049-1.8437Z"/><path d="M485.4375,108.607h1.793v1.2041h.0547a1.843,1.843,0,0,1,.7422-1.001,2.218,2.218,0,0,1,1.2744-.3711,2.5,2.5,0,0,1,2.1357.9873,4.6625,4.6625,0,0,1,.7344,2.8208,4.7231,4.7231,0,0,1-.7344,2.8418,2.4927,2.4927,0,0,1-2.1357.9941,2.15,2.15,0,0,1-1.2666-.3779,1.9593,1.9593,0,0,1-.75-1.0078H487.23v4.0176h-1.793Zm3.291,5.9922a1.4838,1.4838,0,0,0,1.1328-.4619,1.7477,1.7477,0,0,0,.4346-1.2461v-1.26a1.7741,1.7741,0,0,0-.4346-1.2529,1.4719,1.4719,0,0,0-1.1328-.4687,1.7344,1.7344,0,0,0-1.0723.3218,1.018,1.018,0,0,0-.4258.854v2.3242a1.0212,1.0212,0,0,0,.4258.8818A1.7865,1.7865,0,0,0,488.7285,114.5992Z"/><path d="M496.792,116.083a3.644,3.644,0,0,1-1.4492-.2729,2.9971,2.9971,0,0,1-1.0781-.77,3.4321,3.4321,0,0,1-.6787-1.2041,4.9482,4.9482,0,0,1-.2383-1.5889,5.0071,5.0071,0,0,1,.23-1.5679,3.4409,3.4409,0,0,1,.666-1.1973,2.9481,2.9481,0,0,1,1.0635-.77,3.564,3.564,0,0,1,1.4287-.2729,3.4824,3.4824,0,0,1,1.4834.2939,2.8657,2.8657,0,0,1,1.0361.7983,3.4549,3.4549,0,0,1,.6094,1.1689,4.8614,4.8614,0,0,1,.2031,1.4209v.5879H495.21v.1807a1.7878,1.7878,0,0,0,.4482,1.272,1.7338,1.7338,0,0,0,1.33.4795,1.9841,1.9841,0,0,0,1.0986-.2778,3.1376,3.1376,0,0,0,.7627-.709l.9668,1.0811a3.0035,3.0035,0,0,1-1.2256.99A4.267,4.267,0,0,1,496.792,116.083Zm-.0283-6.3a1.4349,1.4349,0,0,0-1.1338.4761,1.7911,1.7911,0,0,0-.42,1.2319v.1118h2.9951v-.126a1.9186,1.9186,0,0,0-.37-1.2251A1.2851,1.2851,0,0,0,496.7637,109.7832Z"/><path d="M501.65,115.9151V108.607h1.791v1.5122h.07a2.3414,2.3414,0,0,1,.2168-.5669,1.7443,1.7443,0,0,1,.3848-.4834,1.8539,1.8539,0,0,1,.5674-.3359,2.1272,2.1272,0,0,1,.7627-.126h.3926v1.6943h-.5605a2.8066,2.8066,0,0,0-1.3711.2656.9243.9243,0,0,0-.4629.8682v4.48Z"/><path d="M510.5674,115.9151v-9.772h4.3955a3.2157,3.2157,0,0,1,1.2109.2168,2.57,2.57,0,0,1,.918.6162,2.6509,2.6509,0,0,1,.5742.959,4.006,4.006,0,0,1,0,2.4712,2.6573,2.6573,0,0,1-.5742.9517,2.5633,2.5633,0,0,1-.918.6162,3.2157,3.2157,0,0,1-1.2109.2168H512.416v3.7241Zm1.8486-5.32h2.3789a1.1811,1.1811,0,0,0,.84-.2871,1.0622,1.0622,0,0,0,.3086-.8188v-.644a1.0389,1.0389,0,0,0-.3086-.812,1.2,1.2,0,0,0-.84-.28H512.416Z"/><path d="M519.2891,115.9151V108.607h1.793v1.5122h.0693a2.3048,2.3048,0,0,1,.2178-.5669,1.7266,1.7266,0,0,1,.3848-.4834,1.8488,1.8488,0,0,1,.5664-.3359,2.1253,2.1253,0,0,1,.7637-.126h.3916v1.6943h-.56a2.8151,2.8151,0,0,0-1.373.2656.9247.9247,0,0,0-.4609.8682v4.48Z"/><path d="M527.6191,116.083a3.5486,3.5486,0,0,1-1.4062-.2661,2.9124,2.9124,0,0,1-1.0645-.77,3.5082,3.5082,0,0,1-.6787-1.2109,4.9482,4.9482,0,0,1-.2383-1.5889,4.8864,4.8864,0,0,1,.2383-1.582,3.4421,3.4421,0,0,1,.6787-1.1968,2.9465,2.9465,0,0,1,1.0645-.7632,3.5486,3.5486,0,0,1,1.4063-.2661,3.6014,3.6014,0,0,1,1.4141.2661,2.9386,2.9386,0,0,1,1.0713.7632,3.4421,3.4421,0,0,1,.6787,1.1968,4.8864,4.8864,0,0,1,.2383,1.582,4.9482,4.9482,0,0,1-.2383,1.5889,3.5082,3.5082,0,0,1-.6787,1.2109,2.9047,2.9047,0,0,1-1.0713.77A3.6014,3.6014,0,0,1,527.6191,116.083Zm0-1.4419a1.461,1.461,0,0,0,1.1211-.4341,1.8048,1.8048,0,0,0,.4053-1.2739v-1.3579a1.7845,1.7845,0,0,0-.4053-1.26,1.4627,1.4627,0,0,0-1.1211-.4341,1.44,1.44,0,0,0-1.1055.4341,1.7757,1.7757,0,0,0-.4062,1.26v1.3579a1.796,1.796,0,0,0,.4063,1.2739A1.4388,1.4388,0,0,0,527.6191,114.6411Z"/><path d="M534.8291,115.9151a1.9111,1.9111,0,0,1-1.4072-.4814,1.8585,1.8585,0,0,1-.4824-1.376v-4.0088h-1.0781V108.607h.5605a.6691.6691,0,0,0,.5527-.189.9167.9167,0,0,0,.1465-.5669V106.605h1.61v2.002h1.4971v1.4419h-1.4971v4.4243h1.3857v1.4419Z"/><path d="M540.6816,116.083a3.6406,3.6406,0,0,1-1.4492-.2729,2.98,2.98,0,0,1-1.0781-.77,3.4187,3.4187,0,0,1-.68-1.2041,5.4213,5.4213,0,0,1-.0068-3.1567,3.4391,3.4391,0,0,1,.665-1.1973,2.9518,2.9518,0,0,1,1.0645-.77,3.5625,3.5625,0,0,1,1.4277-.2729,3.4839,3.4839,0,0,1,1.4844.2939,2.8539,2.8539,0,0,1,1.0352.7983,3.4206,3.4206,0,0,1,.6094,1.1689,4.8614,4.8614,0,0,1,.2031,1.4209v.5879H539.1v.1807a1.7872,1.7872,0,0,0,.4473,1.272,1.7338,1.7338,0,0,0,1.33.4795,1.9875,1.9875,0,0,0,1.1-.2778,3.1162,3.1162,0,0,0,.7617-.709l.9668,1.0811a3.0069,3.0069,0,0,1-1.2246.99A4.267,4.267,0,0,1,540.6816,116.083Zm-.0293-6.3a1.4329,1.4329,0,0,0-1.1328.4761,1.7865,1.7865,0,0,0-.42,1.2319v.1118h2.9951v-.126a1.9244,1.9244,0,0,0-.37-1.2251A1.2883,1.2883,0,0,0,540.6523,109.7832Z"/><path d="M548.4229,116.083a3.68,3.68,0,0,1-1.4424-.2661,2.7832,2.7832,0,0,1-1.0566-.77,3.4419,3.4419,0,0,1-.65-1.2109,5.2152,5.2152,0,0,1-.2246-1.5889,5.15,5.15,0,0,1,.2246-1.582,3.3757,3.3757,0,0,1,.65-1.1968,2.8141,2.8141,0,0,1,1.0566-.7632,3.68,3.68,0,0,1,1.4424-.2661,3.1815,3.1815,0,0,1,1.8271.49,2.7513,2.7513,0,0,1,1.043,1.3579l-1.4707.6577a1.5247,1.5247,0,0,0-.4687-.7627,1.3615,1.3615,0,0,0-.9307-.3013,1.3411,1.3411,0,0,0-1.127.4761,1.9719,1.9719,0,0,0-.3711,1.2461v1.33a1.9406,1.9406,0,0,0,.3711,1.2388,1.3482,1.3482,0,0,0,1.127.4692,1.3981,1.3981,0,0,0,.9941-.3291,2.2538,2.2538,0,0,0,.5459-.8188l1.3721.6577a2.8711,2.8711,0,0,1-1.1064,1.4492A3.2375,3.2375,0,0,1,548.4229,116.083Z"/><path d="M555.0029,115.9151a1.9111,1.9111,0,0,1-1.4072-.4814,1.8585,1.8585,0,0,1-.4824-1.376v-4.0088h-1.0781V108.607h.5605a.6691.6691,0,0,0,.5527-.189.9167.9167,0,0,0,.1465-.5669V106.605h1.61v2.002h1.4971v1.4419h-1.4971v4.4243h1.3857v1.4419Z"/><path d="M565.167,116.083a4.6,4.6,0,0,1-1.7432-.3149,3.4839,3.4839,0,0,1-1.33-.9448,4.2907,4.2907,0,0,1-.8477-1.561,7.22,7.22,0,0,1-.293-2.1631,7.5006,7.5006,0,0,1,.293-2.1909,4.4818,4.4818,0,0,1,.8477-1.61,3.5944,3.5944,0,0,1,1.33-.9868,4.3443,4.3443,0,0,1,1.7432-.3359,3.9526,3.9526,0,0,1,2.1836.56,3.8372,3.8372,0,0,1,1.3857,1.6938l-1.582.84a2.2185,2.2185,0,0,0-.6855-1.0566,1.9649,1.9649,0,0,0-1.3018-.3989,2.07,2.07,0,0,0-1.6455.7,2.89,2.89,0,0,0-.6084,1.96v1.54a2.829,2.829,0,0,0,.6084,1.9531,2.1,2.1,0,0,0,1.6455.6787,2.0072,2.0072,0,0,0,1.3506-.4478,2.5815,2.5815,0,0,0,.7627-1.106l1.498.8818a4.3026,4.3026,0,0,1-1.4141,1.7012A3.7778,3.7778,0,0,1,565.167,116.083Z"/><path d="M570.249,115.9151V108.607h1.792v1.5122h.07a2.2637,2.2637,0,0,1,.2168-.5669,1.7266,1.7266,0,0,1,.3848-.4834,1.8423,1.8423,0,0,1,.5674-.3359,2.1235,2.1235,0,0,1,.7627-.126h.3916v1.6943h-.56a2.8109,2.8109,0,0,0-1.3721.2656.9254.9254,0,0,0-.4619.8682v4.48Z"/><path d="M580.3418,108.607h1.6807l-2.94,8.61a3.7542,3.7542,0,0,1-.3145.6792,1.7065,1.7065,0,0,1-.4131.4692,1.5577,1.5577,0,0,1-.5742.2656,3.2458,3.2458,0,0,1-.7842.084H575.918V117.273h1.3164l.3359-1.02-2.6182-7.646H576.73l1.2734,3.856.4766,1.8438h.084l.5039-1.8437Z"/><path d="M583.1982,108.607h1.792v1.2041h.0557a1.8383,1.8383,0,0,1,.7422-1.001,2.2159,2.2159,0,0,1,1.2744-.3711,2.4982,2.4982,0,0,1,2.1348.9873,4.6558,4.6558,0,0,1,.7344,2.8208,4.7163,4.7163,0,0,1-.7344,2.8418,2.4909,2.4909,0,0,1-2.1348.9941,2.1525,2.1525,0,0,1-1.2676-.3779,1.9576,1.9576,0,0,1-.749-1.0078H584.99v4.0176h-1.792Zm3.29,5.9922a1.4844,1.4844,0,0,0,1.1338-.4619,1.7472,1.7472,0,0,0,.4336-1.2461v-1.26a1.7736,1.7736,0,0,0-.4336-1.2529,1.4725,1.4725,0,0,0-1.1338-.4687,1.7315,1.7315,0,0,0-1.0713.3218,1.0164,1.0164,0,0,0-.4268.854v2.3242a1.02,1.02,0,0,0,.4268.8818A1.7834,1.7834,0,0,0,586.4883,114.5992Z"/><path d="M593.7969,115.9151a1.9111,1.9111,0,0,1-1.4072-.4814,1.8589,1.8589,0,0,1-.4834-1.376v-4.0088h-1.0781V108.607h.5605a.6678.6678,0,0,0,.5527-.189.9164.9164,0,0,0,.1475-.5669V106.605h1.6094v2.002h1.498v1.4419h-1.498v4.4243h1.3867v1.4419Z"/><path d="M599.5918,116.083a3.5486,3.5486,0,0,1-1.4062-.2661,2.9124,2.9124,0,0,1-1.0645-.77,3.5082,3.5082,0,0,1-.6787-1.2109,4.9482,4.9482,0,0,1-.2383-1.5889,4.8864,4.8864,0,0,1,.2383-1.582,3.4421,3.4421,0,0,1,.6787-1.1968,2.9465,2.9465,0,0,1,1.0645-.7632,3.5486,3.5486,0,0,1,1.4063-.2661,3.6014,3.6014,0,0,1,1.4141.2661,2.9386,2.9386,0,0,1,1.0713.7632,3.4421,3.4421,0,0,1,.6787,1.1968,4.8864,4.8864,0,0,1,.2383,1.582,4.9482,4.9482,0,0,1-.2383,1.5889,3.5082,3.5082,0,0,1-.6787,1.2109,2.9047,2.9047,0,0,1-1.0713.77A3.6014,3.6014,0,0,1,599.5918,116.083Zm0-1.4419a1.4573,1.4573,0,0,0,1.12-.4341,1.8,1.8,0,0,0,.4063-1.2739v-1.3579a1.78,1.78,0,0,0-.4062-1.26,1.4591,1.4591,0,0,0-1.12-.4341,1.44,1.44,0,0,0-1.1055.4341,1.78,1.78,0,0,0-.4062,1.26v1.3579a1.8,1.8,0,0,0,.4063,1.2739A1.4388,1.4388,0,0,0,599.5918,114.6411Z"/><path d="M611.0293,116.083a4.6336,4.6336,0,0,1-2.1348-.4487,4.96,4.96,0,0,1-1.5049-1.1782l1.2461-1.2061a3.5711,3.5711,0,0,0,1.127.89,3.089,3.089,0,0,0,1.3789.3052,1.946,1.946,0,0,0,1.2881-.3682,1.2348,1.2348,0,0,0,.4336-.9932,1.1275,1.1275,0,0,0-.2793-.792,1.8846,1.8846,0,0,0-1.05-.4443l-.9248-.1387q-2.9253-.4629-2.9258-2.8457a2.8206,2.8206,0,0,1,.2451-1.1914,2.5373,2.5373,0,0,1,.707-.9111,3.269,3.269,0,0,1,1.1133-.582,4.9542,4.9542,0,0,1,1.4766-.2031,4.7521,4.7521,0,0,1,1.9326.3647,3.7933,3.7933,0,0,1,1.4131,1.08l-1.26,1.1924a2.8882,2.8882,0,0,0-.8818-.7217,2.7366,2.7366,0,0,0-1.3018-.2773,1.9864,1.9864,0,0,0-1.1973.2983,1.1383,1.1383,0,0,0-.0771,1.6582,2.27,2.27,0,0,0,1.0361.3887l.91.168a4.18,4.18,0,0,1,2.1914.9463,2.5118,2.5118,0,0,1,.7061,1.8989,3.1737,3.1737,0,0,1-.2441,1.2686,2.745,2.745,0,0,1-.7148.981,3.2576,3.2576,0,0,1-1.1475.6377A4.979,4.979,0,0,1,611.0293,116.083Z"/><path d="M619.3877,116.083a3.644,3.644,0,0,1-1.4492-.2729,2.9971,2.9971,0,0,1-1.0781-.77,3.4321,3.4321,0,0,1-.6787-1.2041,5.4213,5.4213,0,0,1-.0068-3.1567,3.4082,3.4082,0,0,1,.665-1.1973,2.9481,2.9481,0,0,1,1.0635-.77,3.5658,3.5658,0,0,1,1.4277-.2729,3.4839,3.4839,0,0,1,1.4844.2939,2.8574,2.8574,0,0,1,1.0361.7983,3.4549,3.4549,0,0,1,.6094,1.1689,4.8614,4.8614,0,0,1,.2021,1.4209v.5879h-4.8574v.1807a1.7878,1.7878,0,0,0,.4482,1.272,1.73,1.73,0,0,0,1.3291.4795,1.9853,1.9853,0,0,0,1.1-.2778,3.1376,3.1376,0,0,0,.7627-.709l.9658,1.0811a3.0069,3.0069,0,0,1-1.2246.99A4.2638,4.2638,0,0,1,619.3877,116.083Zm-.0283-6.3a1.4363,1.4363,0,0,0-1.1338.4761,1.7911,1.7911,0,0,0-.42,1.2319v.1118h2.9961v-.126a1.919,1.919,0,0,0-.3711-1.2251A1.2864,1.2864,0,0,0,619.3594,109.7832Z"/><path d="M624.2461,115.9151V108.607h1.792v1.5122h.07a2.2637,2.2637,0,0,1,.2168-.5669,1.7267,1.7267,0,0,1,.3848-.4834,1.8423,1.8423,0,0,1,.5674-.3359,2.1235,2.1235,0,0,1,.7627-.126h.3916v1.6943h-.56a2.8109,2.8109,0,0,0-1.3721.2656.9254.9254,0,0,0-.4619.8682v4.48Z"/><path d="M631.4268,115.9151l-2.4355-7.3081h1.7637l1.0225,3.15.7139,2.604h.0977l.7148-2.604.9932-3.15h1.708l-2.4492,7.3081Z"/><path d="M638.0908,107.543a1.0869,1.0869,0,0,1-.8047-.252.8869.8869,0,0,1-.2451-.644v-.28a.8869.8869,0,0,1,.2451-.644,1.4016,1.4016,0,0,1,1.6035,0,.8724.8724,0,0,1,.252.644v.28a.8724.8724,0,0,1-.252.644A1.0946,1.0946,0,0,1,638.0908,107.543Zm-.8955,1.064h1.792v7.3081h-1.792Z"/><path d="M643.9434,116.083a3.6867,3.6867,0,0,1-1.4424-.2661,2.7832,2.7832,0,0,1-1.0566-.77,3.4593,3.4593,0,0,1-.6514-1.2109,5.2464,5.2464,0,0,1-.2236-1.5889,5.1805,5.1805,0,0,1,.2236-1.582,3.3927,3.3927,0,0,1,.6514-1.1968,2.8141,2.8141,0,0,1,1.0566-.7632,3.6867,3.6867,0,0,1,1.4424-.2661,3.1815,3.1815,0,0,1,1.8271.49,2.7513,2.7513,0,0,1,1.043,1.3579l-1.47.6577a1.52,1.52,0,0,0-.47-.7627,1.3615,1.3615,0,0,0-.9307-.3013,1.3411,1.3411,0,0,0-1.127.4761,1.9719,1.9719,0,0,0-.3711,1.2461v1.33a1.9406,1.9406,0,0,0,.3711,1.2388,1.3481,1.3481,0,0,0,1.127.4692,1.3965,1.3965,0,0,0,.9941-.3291,2.2538,2.2538,0,0,0,.5459-.8188l1.3721.6577A2.8711,2.8711,0,0,1,645.749,115.6,3.24,3.24,0,0,1,643.9434,116.083Z"/><path d="M651.125,116.083a3.644,3.644,0,0,1-1.4492-.2729,2.9971,2.9971,0,0,1-1.0781-.77,3.4321,3.4321,0,0,1-.6787-1.2041,5.4213,5.4213,0,0,1-.0068-3.1567,3.4082,3.4082,0,0,1,.665-1.1973,2.9481,2.9481,0,0,1,1.0635-.77,3.5658,3.5658,0,0,1,1.4277-.2729,3.4839,3.4839,0,0,1,1.4844.2939,2.8574,2.8574,0,0,1,1.0361.7983,3.4549,3.4549,0,0,1,.6094,1.1689,4.8614,4.8614,0,0,1,.2021,1.4209v.5879H649.543v.1807a1.7878,1.7878,0,0,0,.4482,1.272,1.73,1.73,0,0,0,1.3291.4795,1.9853,1.9853,0,0,0,1.1-.2778,3.1376,3.1376,0,0,0,.7627-.709l.9658,1.0811a3.0069,3.0069,0,0,1-1.2246.99A4.2638,4.2638,0,0,1,651.125,116.083Zm-.0283-6.3a1.4363,1.4363,0,0,0-1.1338.4761,1.7911,1.7911,0,0,0-.42,1.2319v.1118h2.9961v-.126a1.919,1.919,0,0,0-.3711-1.2251A1.2864,1.2864,0,0,0,651.0967,109.7832Z"/><path d="M658.377,116.083a3.923,3.923,0,0,1-1.7637-.3569,4.0539,4.0539,0,0,1-1.26-.9868l1.0918-1.0645a3.3106,3.3106,0,0,0,.8887.728,2.2672,2.2672,0,0,0,1.1133.2661,1.5247,1.5247,0,0,0,.9307-.2241.7375.7375,0,0,0,.2871-.6157.6632.6632,0,0,0-.2031-.5112,1.2878,1.2878,0,0,0-.6924-.2588l-.7285-.0981a3.4639,3.4639,0,0,1-1.8125-.6787,1.8906,1.8906,0,0,1-.623-1.5332,2.2851,2.2851,0,0,1,.1953-.959,2.0332,2.0332,0,0,1,.5605-.728,2.56,2.56,0,0,1,.875-.4619,3.7824,3.7824,0,0,1,1.1406-.1611,5.2045,5.2045,0,0,1,.9453.0771,3.4176,3.4176,0,0,1,.749.2241,2.9168,2.9168,0,0,1,.6162.3638,5.9142,5.9142,0,0,1,.5459.4829l-1.05,1.05a2.7739,2.7739,0,0,0-.7705-.56,2.1583,2.1583,0,0,0-.9795-.2241,1.3511,1.3511,0,0,0-.8477.21.67.67,0,0,0-.2588.5459.6939.6939,0,0,0,.2168.5532,1.5032,1.5032,0,0,0,.7354.2729l.7422.0981q2.3657.3354,2.3662,2.1558a2.1753,2.1753,0,0,1-.2178.9731,2.2185,2.2185,0,0,1-.6084.7559,2.8889,2.8889,0,0,1-.9453.49A4.1164,4.1164,0,0,1,658.377,116.083Z"/><path d="M20.7422,27.9151V26.4312H22.03V19.627H20.7422V18.1431H25.18V19.627H23.8779v6.8042H25.18v1.4839Z"/><path d="M27.07,18.1431h4.522a3.0518,3.0518,0,0,1,1.085.1821,2.3724,2.3724,0,0,1,.8193.5039,2.0954,2.0954,0,0,1,.5107.791,2.9206,2.9206,0,0,1,.1748,1.0288,2.66,2.66,0,0,1-.147.9453,1.837,1.837,0,0,1-.3916.6367,1.61,1.61,0,0,1-.56.3779,1.9609,1.9609,0,0,1-.6514.14v.084a2.165,2.165,0,0,1,.6934.126,2.0555,2.0555,0,0,1,.686.3989,2.1943,2.1943,0,0,1,.5249.7,2.3807,2.3807,0,0,1,.21,1.0571,3.1419,3.1419,0,0,1-.189,1.0986,2.7722,2.7722,0,0,1-.5249.8892,2.4572,2.4572,0,0,1-.7983.5952,2.3416,2.3416,0,0,1-1.0078.2168H27.07Zm1.8481,4.0737H31.2a1.0764,1.0764,0,0,0,.7842-.2729,1.0158,1.0158,0,0,0,.28-.7627v-.4341a1.0177,1.0177,0,0,0-.28-.7632A1.0784,1.0784,0,0,0,31.2,19.711H28.918Zm0,4.13h2.5757a1.1694,1.1694,0,0,0,.8262-.2729,1.0258,1.0258,0,0,0,.2939-.791v-.4761a1.0482,1.0482,0,0,0-.2939-.7979,1.1481,1.1481,0,0,0-.8262-.28H28.918Z"/><path d="M43.7295,20.9009h-.0557l-.7563,1.5542-2.002,3.6958-2.002-3.6958-.7559-1.5542h-.0562v7.0142h-1.75v-9.772h2.0859l2.5063,4.7739H41l2.478-4.7739h2.002v9.772h-1.75Z"/><path d="M51.08,18.1431h3.5562a4.6619,4.6619,0,0,1,1.729.3081,3.5247,3.5247,0,0,1,1.33.917,4.1731,4.1731,0,0,1,.854,1.5259,6.8664,6.8664,0,0,1,.3008,2.1348,6.87,6.87,0,0,1-.3008,2.1353,4.1731,4.1731,0,0,1-.854,1.5259,3.5247,3.5247,0,0,1-1.33.917,4.652,4.652,0,0,1-1.729.3081H51.08Zm3.5562,8.1338a2.2226,2.2226,0,0,0,1.645-.6089,2.5453,2.5453,0,0,0,.6089-1.8691v-1.54a2.5453,2.5453,0,0,0-.6089-1.8691,2.2226,2.2226,0,0,0-1.645-.6089h-1.708v6.4956Z"/><path d="M60.6138,17.5552h1.792v4.2559h.0557a1.8407,1.8407,0,0,1,.7422-1.001,2.2143,2.2143,0,0,1,1.2739-.3711,2.4986,2.4986,0,0,1,2.1353.9873,4.6591,4.6591,0,0,1,.7349,2.8208,4.72,4.72,0,0,1-.7349,2.8418,2.4912,2.4912,0,0,1-2.1353.9941,2.151,2.151,0,0,1-1.2671-.3779,1.9549,1.9549,0,0,1-.749-1.0078h-.0557v1.2178h-1.792Zm3.29,9.0439a1.4859,1.4859,0,0,0,1.1338-.4619,1.7475,1.7475,0,0,0,.4341-1.2461v-1.26a1.7738,1.7738,0,0,0-.4341-1.2529,1.474,1.474,0,0,0-1.1338-.4687,1.73,1.73,0,0,0-1.0713.3218,1.0176,1.0176,0,0,0-.4268.854v2.3242a1.0207,1.0207,0,0,0,.4268.8818A1.7824,1.7824,0,0,0,63.9038,26.5992Z"/><path d="M75.6216,27.9151H68.8457v-1.708l3.0659-2.688A6.4944,6.4944,0,0,0,73.06,22.28a2.1361,2.1361,0,0,0,.3638-1.1973v-.1821a1.2,1.2,0,0,0-.42-.9868,1.5639,1.5639,0,0,0-1.022-.3433,1.481,1.481,0,0,0-1.1479.4272,2.4882,2.4882,0,0,0-.56,1.0288l-1.5957-.6157a3.9268,3.9268,0,0,1,.4336-.9312,3.1071,3.1071,0,0,1,.707-.7769,3.3574,3.3574,0,0,1,1.001-.5322,4.0751,4.0751,0,0,1,1.3164-.1958,4.0329,4.0329,0,0,1,1.3716.2168,2.8693,2.8693,0,0,1,1.0151.6094,2.6241,2.6241,0,0,1,.63.9238,3.2526,3.2526,0,0,1,.021,2.2817,4.0941,4.0941,0,0,1-.5317.959,6.1152,6.1152,0,0,1-.7842.8682q-.4482.4131-.9517.833l-2.0581,1.6938h4.7739Z"/><path d="M80.7173,27.9151V20.607h1.792v1.2183h.07a2.3426,2.3426,0,0,1,.707-.9873,2.0413,2.0413,0,0,1,1.3369-.3989,2.1069,2.1069,0,0,1,1.7363.7422,3.28,3.28,0,0,1,.6016,2.1138v4.62h-1.792v-4.438a2.025,2.025,0,0,0-.28-1.1758,1.0575,1.0575,0,0,0-.9238-.3921,1.8978,1.8978,0,0,0-.5391.0767,1.5159,1.5159,0,0,0-.4619.2241,1.1688,1.1688,0,0,0-.3291.3643.9991.9991,0,0,0-.126.5107v4.83Z"/><path d="M94.3252,27.9151a1.2585,1.2585,0,0,1-.9312-.3428,1.5738,1.5738,0,0,1-.4268-.917h-.084a1.7166,1.7166,0,0,1-.7422,1.0708,2.5316,2.5316,0,0,1-1.3862.3569,2.3669,2.3669,0,0,1-1.7217-.5859,2.0816,2.0816,0,0,1-.6021-1.5635,1.8926,1.8926,0,0,1,.812-1.6812,4.0892,4.0892,0,0,1,2.31-.5513h1.2461V23.169a1.3209,1.3209,0,0,0-.3223-.9521,1.3844,1.3844,0,0,0-1.0361-.3359,1.72,1.72,0,0,0-1.0146.2729,2.6969,2.6969,0,0,0-.6514.6514l-1.064-.958a3.0888,3.0888,0,0,1,1.0781-1.0205,3.5443,3.5443,0,0,1,1.7778-.3877,3.3426,3.3426,0,0,1,2.2544.67,2.42,2.42,0,0,1,.77,1.9277v3.436h.7275v1.4419Zm-2.9683-1.1338a1.8841,1.8841,0,0,0,1.022-.2642.8626.8626,0,0,0,.42-.7788v-.9595H91.6509q-1.4,0-1.4.89v.2363a.772.772,0,0,0,.2871.66A1.3412,1.3412,0,0,0,91.3569,26.7813Z"/><path d="M99.001,27.9151a1.91,1.91,0,0,1-1.4067-.4814,1.8587,1.8587,0,0,1-.4829-1.376V22.0489H96.0332V20.607h.56a.6678.6678,0,0,0,.5527-.189.9133.9133,0,0,0,.147-.5669V18.605h1.61v2.002h1.4976v1.4419H98.9033v4.4243h1.3857v1.4419Z"/><path d="M102.8511,19.543a1.0875,1.0875,0,0,1-.8052-.252.8849.8849,0,0,1-.2451-.644v-.28a.8849.8849,0,0,1,.2451-.644,1.4008,1.4008,0,0,1,1.603,0,.8724.8724,0,0,1,.252.644v.28a.8724.8724,0,0,1-.252.644A1.0913,1.0913,0,0,1,102.8511,19.543Zm-.896,1.064h1.792v7.3081h-1.792Z"/><path d="M107.3867,27.9151l-2.436-7.3081h1.7642l1.022,3.15.7139,2.604h.0981l.7139-2.604.9941-3.15h1.708l-2.45,7.3081Z"/><path d="M115.9971,28.083a3.644,3.644,0,0,1-1.4492-.2729,2.9971,2.9971,0,0,1-1.0781-.77,3.4321,3.4321,0,0,1-.6787-1.2041,5.4268,5.4268,0,0,1-.0073-3.1567,3.4391,3.4391,0,0,1,.665-1.1973,2.95,2.95,0,0,1,1.064-.77,3.5658,3.5658,0,0,1,1.4277-.2729,3.4839,3.4839,0,0,1,1.4844.2939,2.8574,2.8574,0,0,1,1.0361.7983A3.4549,3.4549,0,0,1,119.07,22.7a4.8614,4.8614,0,0,1,.2021,1.4209v.5879H114.415V24.89a1.7875,1.7875,0,0,0,.4478,1.272,1.7319,1.7319,0,0,0,1.33.4795,1.9853,1.9853,0,0,0,1.1-.2778,3.1376,3.1376,0,0,0,.7627-.709l.9658,1.0811a3.0069,3.0069,0,0,1-1.2246.99A4.2638,4.2638,0,0,1,115.9971,28.083Zm-.0283-6.3a1.4363,1.4363,0,0,0-1.1338.4761,1.7911,1.7911,0,0,0-.42,1.2319v.1118h2.9961v-.126a1.919,1.919,0,0,0-.3711-1.2251A1.2864,1.2864,0,0,0,115.9688,21.7832Z"/><path d="M127.1123,28.083a3.644,3.644,0,0,1-1.4492-.2729,2.9971,2.9971,0,0,1-1.0781-.77,3.4321,3.4321,0,0,1-.6787-1.2041,5.4213,5.4213,0,0,1-.0068-3.1567,3.4082,3.4082,0,0,1,.665-1.1973,2.9481,2.9481,0,0,1,1.0635-.77,3.5658,3.5658,0,0,1,1.4277-.2729,3.4839,3.4839,0,0,1,1.4844.2939,2.8574,2.8574,0,0,1,1.0361.7983,3.4549,3.4549,0,0,1,.6094,1.1689,4.8614,4.8614,0,0,1,.2021,1.4209v.5879H125.53V24.89a1.7878,1.7878,0,0,0,.4482,1.272,1.73,1.73,0,0,0,1.3291.4795,1.9853,1.9853,0,0,0,1.1-.2778,3.1376,3.1376,0,0,0,.7627-.709l.9658,1.0811a3.0069,3.0069,0,0,1-1.2246.99A4.2638,4.2638,0,0,1,127.1123,28.083Zm-.0283-6.3a1.4363,1.4363,0,0,0-1.1338.4761,1.7911,1.7911,0,0,0-.42,1.2319v.1118h2.9961v-.126a1.919,1.919,0,0,0-.3711-1.2251A1.2864,1.2864,0,0,0,127.084,21.7832Z"/><path d="M131.9707,27.9151V20.607h1.792v1.2183h.07a2.33,2.33,0,0,1,.707-.9873,2.04,2.04,0,0,1,1.3369-.3989,2.105,2.105,0,0,1,1.7354.7422,3.2771,3.2771,0,0,1,.6025,2.1138v4.62h-1.792v-4.438a2.0248,2.0248,0,0,0-.28-1.1758,1.0575,1.0575,0,0,0-.9238-.3921,1.9028,1.9028,0,0,0-.5391.0767,1.5159,1.5159,0,0,0-.4619.2241,1.1688,1.1688,0,0,0-.3291.3643.9991.9991,0,0,0-.126.5107v4.83Z"/><path d="M143.0859,28.083a3.6867,3.6867,0,0,1-1.4424-.2661,2.7832,2.7832,0,0,1-1.0566-.77,3.4593,3.4593,0,0,1-.6514-1.2109,5.2464,5.2464,0,0,1-.2236-1.5889,5.1805,5.1805,0,0,1,.2236-1.582,3.3927,3.3927,0,0,1,.6514-1.1968,2.8141,2.8141,0,0,1,1.0566-.7632,3.6867,3.6867,0,0,1,1.4424-.2661,3.1815,3.1815,0,0,1,1.8271.49,2.7513,2.7513,0,0,1,1.043,1.3579l-1.47.6577a1.52,1.52,0,0,0-.47-.7627,1.3615,1.3615,0,0,0-.9307-.3013,1.3411,1.3411,0,0,0-1.127.4761,1.9719,1.9719,0,0,0-.3711,1.2461v1.33a1.9406,1.9406,0,0,0,.3711,1.2388,1.3481,1.3481,0,0,0,1.127.4692,1.3965,1.3965,0,0,0,.9941-.3291,2.2538,2.2538,0,0,0,.5459-.8188l1.3721.6577A2.8711,2.8711,0,0,1,144.8916,27.6,3.24,3.24,0,0,1,143.0859,28.083Z"/><path d="M147.3848,27.9151V20.607h1.792v1.5122h.07a2.2637,2.2637,0,0,1,.2168-.5669,1.7266,1.7266,0,0,1,.3848-.4834,1.8423,1.8423,0,0,1,.5674-.3359,2.1235,2.1235,0,0,1,.7627-.126h.3916v1.6943h-.56a2.8108,2.8108,0,0,0-1.3721.2656.9254.9254,0,0,0-.4619.8682v4.48Z"/><path d="M157.4775,20.607h1.6807l-2.94,8.61a3.7542,3.7542,0,0,1-.3145.6792,1.7065,1.7065,0,0,1-.4131.4692,1.5577,1.5577,0,0,1-.5742.2656,3.2458,3.2458,0,0,1-.7842.084h-1.0781V29.273H154.37l.3359-1.02-2.6182-7.646h1.7783l1.2734,3.856.4766,1.8438h.084l.5039-1.8437Z"/><path d="M160.334,20.607h1.792v1.2041h.0557a1.8383,1.8383,0,0,1,.7422-1.001,2.2159,2.2159,0,0,1,1.2744-.3711,2.4982,2.4982,0,0,1,2.1348.9873,4.6558,4.6558,0,0,1,.7344,2.8208,4.7163,4.7163,0,0,1-.7344,2.8418,2.4909,2.4909,0,0,1-2.1348.9941,2.1525,2.1525,0,0,1-1.2676-.3779,1.9576,1.9576,0,0,1-.749-1.0078h-.0557v4.0176h-1.792Zm3.29,5.9922a1.4844,1.4844,0,0,0,1.1338-.4619,1.7472,1.7472,0,0,0,.4336-1.2461v-1.26a1.7736,1.7736,0,0,0-.4336-1.2529,1.4725,1.4725,0,0,0-1.1338-.4687,1.7315,1.7315,0,0,0-1.0713.3218,1.0164,1.0164,0,0,0-.4268.854v2.3242a1.02,1.02,0,0,0,.4268.8818A1.7834,1.7834,0,0,0,163.624,26.5992Z"/><path d="M170.9316,27.9151a1.9111,1.9111,0,0,1-1.4072-.4814,1.8589,1.8589,0,0,1-.4834-1.376V22.0489h-1.0781V20.607h.5605a.6678.6678,0,0,0,.5527-.189.9164.9164,0,0,0,.1475-.5669V18.605h1.6094v2.002h1.498v1.4419h-1.498v4.4243H172.22v1.4419Z"/><path d="M174.7813,19.543a1.0869,1.0869,0,0,1-.8047-.252.8869.8869,0,0,1-.2451-.644v-.28a.8869.8869,0,0,1,.2451-.644,1.4016,1.4016,0,0,1,1.6035,0,.8724.8724,0,0,1,.252.644v.28a.8724.8724,0,0,1-.252.644A1.0946,1.0946,0,0,1,174.7813,19.543Zm-.8955,1.064h1.792v7.3081h-1.792Z"/><path d="M180.6475,28.083a3.5486,3.5486,0,0,1-1.4062-.2661,2.9124,2.9124,0,0,1-1.0645-.77,3.5082,3.5082,0,0,1-.6787-1.2109,4.9482,4.9482,0,0,1-.2383-1.5889,4.8864,4.8864,0,0,1,.2383-1.582,3.4421,3.4421,0,0,1,.6787-1.1968,2.9465,2.9465,0,0,1,1.0645-.7632,3.5486,3.5486,0,0,1,1.4063-.2661,3.6014,3.6014,0,0,1,1.4141.2661,2.9386,2.9386,0,0,1,1.0713.7632,3.4421,3.4421,0,0,1,.6787,1.1968,4.8864,4.8864,0,0,1,.2383,1.582,4.9482,4.9482,0,0,1-.2383,1.5889,3.5082,3.5082,0,0,1-.6787,1.2109,2.9047,2.9047,0,0,1-1.0713.77A3.6014,3.6014,0,0,1,180.6475,28.083Zm0-1.4419a1.4573,1.4573,0,0,0,1.12-.4341,1.8,1.8,0,0,0,.4063-1.2739V23.5752a1.78,1.78,0,0,0-.4062-1.26,1.4591,1.4591,0,0,0-1.12-.4341,1.44,1.44,0,0,0-1.1055.4341,1.78,1.78,0,0,0-.4062,1.26v1.3579a1.8,1.8,0,0,0,.4063,1.2739A1.4388,1.4388,0,0,0,180.6475,26.6411Z"/><path d="M185.6318,27.9151V20.607h1.792v1.2183h.07a2.33,2.33,0,0,1,.707-.9873,2.04,2.04,0,0,1,1.3369-.3989,2.105,2.105,0,0,1,1.7354.7422,3.2771,3.2771,0,0,1,.6025,2.1138v4.62h-1.792v-4.438a2.0248,2.0248,0,0,0-.28-1.1758,1.0575,1.0575,0,0,0-.9238-.3921,1.9028,1.9028,0,0,0-.5391.0767,1.5159,1.5159,0,0,0-.4619.2241,1.1688,1.1688,0,0,0-.3291.3643.9991.9991,0,0,0-.126.5107v4.83Z"/><path d="M25.4038,43.4971h-.07a2.4078,2.4078,0,0,1-.2588.5249,1.92,1.92,0,0,1-.4062.4409,1.851,1.851,0,0,1-.5879.3081,2.5652,2.5652,0,0,1-.791.1118,2.1039,2.1039,0,0,1-1.7358-.7422,3.2752,3.2752,0,0,1-.6021-2.1138v-4.62h1.792v4.438A1.9263,1.9263,0,0,0,23.0381,43a1.0877,1.0877,0,0,0,.938.3989,1.9961,1.9961,0,0,0,.5249-.07,1.3188,1.3188,0,0,0,.4551-.2168,1.213,1.213,0,0,0,.3218-.3638,1.0022,1.0022,0,0,0,.126-.5112v-4.83h1.792v7.3081h-1.792Z"/><path d="M31.6621,44.8828a3.9237,3.9237,0,0,1-1.7642-.3569,4.0613,4.0613,0,0,1-1.26-.9868L29.73,42.4746a3.2976,3.2976,0,0,0,.8892.728,2.2639,2.2639,0,0,0,1.1128.2661,1.5254,1.5254,0,0,0,.9312-.2241.7384.7384,0,0,0,.2866-.6157.6646.6646,0,0,0-.2026-.5112,1.2933,1.2933,0,0,0-.6934-.2588l-.7275-.0981a3.4676,3.4676,0,0,1-1.8135-.6787,1.8934,1.8934,0,0,1-.6226-1.5332,2.27,2.27,0,0,1,.1958-.959,2.0319,2.0319,0,0,1,.56-.728,2.565,2.565,0,0,1,.875-.4619,3.7812,3.7812,0,0,1,1.1411-.1611,5.1989,5.1989,0,0,1,.9448.0771,3.4256,3.4256,0,0,1,.749.2241,2.8925,2.8925,0,0,1,.6162.3638,5.9142,5.9142,0,0,1,.5459.4829l-1.05,1.05a2.7715,2.7715,0,0,0-.77-.56,2.1589,2.1589,0,0,0-.98-.2241,1.3488,1.3488,0,0,0-.8467.21.67.67,0,0,0-.2593.5459.6926.6926,0,0,0,.2173.5532,1.5031,1.5031,0,0,0,.7349.2729l.7422.0981q2.3657.3354,2.3657,2.1558a2.1747,2.1747,0,0,1-.2168.9731,2.2213,2.2213,0,0,1-.6094.7559,2.8766,2.8766,0,0,1-.9448.49A4.1109,4.1109,0,0,1,31.6621,44.8828Z"/><path d="M37.15,36.3428a1.0875,1.0875,0,0,1-.8052-.252.8849.8849,0,0,1-.2451-.644v-.28a.8849.8849,0,0,1,.2451-.644,1.4008,1.4008,0,0,1,1.603,0,.8724.8724,0,0,1,.252.644v.28a.8724.8724,0,0,1-.252.644A1.0913,1.0913,0,0,1,37.15,36.3428Zm-.896,1.064h1.792v7.3081h-1.792Z"/><path d="M40.1177,44.7149V37.4068H41.91V38.625h.07a2.3426,2.3426,0,0,1,.707-.9873,2.0413,2.0413,0,0,1,1.3369-.3989,2.1069,2.1069,0,0,1,1.7363.7422,3.28,3.28,0,0,1,.6016,2.1138v4.62h-1.792v-4.438a2.025,2.025,0,0,0-.28-1.1758,1.0575,1.0575,0,0,0-.9238-.3921,1.8978,1.8978,0,0,0-.5391.0767,1.5159,1.5159,0,0,0-.4619.2241,1.1688,1.1688,0,0,0-.3291.3643.9991.9991,0,0,0-.126.5107v4.83Z"/><path d="M54.9434,45.3311a2.4037,2.4037,0,0,1-.2031,1.0146,1.7281,1.7281,0,0,1-.6646.7354,3.6083,3.6083,0,0,1-1.19.4478,10.3827,10.3827,0,0,1-3.3457.0352,3.7684,3.7684,0,0,1-1.0571-.3359,1.4093,1.4093,0,0,1-.5947-.5391,1.4519,1.4519,0,0,1-.1821-.728,1.2959,1.2959,0,0,1,.3428-.959,1.6873,1.6873,0,0,1,.959-.4409v-.1543a1.19,1.19,0,0,1-.6929-.4414,1.2666,1.2666,0,0,1-.2451-.7783,1.0656,1.0656,0,0,1,.1123-.4976,1.15,1.15,0,0,1,.3008-.3716,1.8334,1.8334,0,0,1,.4272-.2593,2.5534,2.5534,0,0,1,.5039-.1616v-.0557a2.1916,2.1916,0,0,1-1.001-.8535,2.4136,2.4136,0,0,1-.3291-1.2729,2.2767,2.2767,0,0,1,.77-1.7974,3.3108,3.3108,0,0,1,2.2539-.6787,5.2755,5.2755,0,0,1,.665.042,2.9971,2.9971,0,0,1,.6089.14v-.2383a.9284.9284,0,0,1,1.0361-1.064h1.1338v1.3721H52.9976v.1963a2.1214,2.1214,0,0,1,.854.84,2.4647,2.4647,0,0,1,.28,1.19,2.2538,2.2538,0,0,1-.7627,1.7778,3.33,3.33,0,0,1-2.2612.6724,4.4116,4.4116,0,0,1-1.12-.126,1.2109,1.2109,0,0,0-.3638.2588.5535.5535,0,0,0-.1543.3989q0,.5464.9521.5459h1.96a2.855,2.855,0,0,1,1.9531.5532A1.9671,1.9671,0,0,1,54.9434,45.3311Zm-1.68.21a.6307.6307,0,0,0-.28-.5464,1.7606,1.7606,0,0,0-.9658-.1958H49.5254a.8918.8918,0,0,0-.3779.7559.7534.7534,0,0,0,.35.6582,2.2061,2.2061,0,0,0,1.19.2378h.896a2.7485,2.7485,0,0,0,1.2808-.2236A.7366.7366,0,0,0,53.2637,45.541Zm-2.1562-4.606q1.3162,0,1.3159-1.1138v-.2368q0-1.1133-1.3159-1.1138t-1.3159,1.1138v.2368Q49.7915,40.9346,51.1074,40.9351Z"/><path d="M61.5654,44.7149a1.91,1.91,0,0,1-1.4067-.4814,1.8587,1.8587,0,0,1-.4829-1.376V38.8487H58.5977V37.4068h.56a.6678.6678,0,0,0,.5527-.189.9133.9133,0,0,0,.147-.5669V35.4048h1.61v2.002h1.4976v1.4419H61.4678V43.273h1.3857v1.4419Z"/><path d="M64.52,34.355h1.792v4.27h.07a2.3426,2.3426,0,0,1,.707-.9873,2.0413,2.0413,0,0,1,1.3369-.3989,2.1069,2.1069,0,0,1,1.7363.7422,3.28,3.28,0,0,1,.6016,2.1138v4.62h-1.792v-4.438a2.025,2.025,0,0,0-.28-1.1758,1.0575,1.0575,0,0,0-.9238-.3921,1.8978,1.8978,0,0,0-.5391.0767,1.5159,1.5159,0,0,0-.4619.2241,1.1688,1.1688,0,0,0-.3291.3643.9991.9991,0,0,0-.126.5107v4.83H64.52Z"/><path d="M75.7056,44.8828a3.6457,3.6457,0,0,1-1.4492-.2729,2.9971,2.9971,0,0,1-1.0781-.77A3.4321,3.4321,0,0,1,72.5,42.6358a5.4268,5.4268,0,0,1-.0073-3.1567,3.4391,3.4391,0,0,1,.665-1.1973,2.95,2.95,0,0,1,1.064-.77,3.5649,3.5649,0,0,1,1.4282-.2729,3.4816,3.4816,0,0,1,1.4839.2939,2.8616,2.8616,0,0,1,1.0361.7983A3.4453,3.4453,0,0,1,78.7783,39.5a4.8451,4.8451,0,0,1,.2031,1.4209v.5879H74.1235v.1807a1.7875,1.7875,0,0,0,.4478,1.272,1.7338,1.7338,0,0,0,1.33.4795A1.9847,1.9847,0,0,0,77,43.1631a3.1288,3.1288,0,0,0,.7627-.709l.9663,1.0811a3.0052,3.0052,0,0,1-1.2251.99A4.2638,4.2638,0,0,1,75.7056,44.8828Zm-.0283-6.3a1.4349,1.4349,0,0,0-1.1338.4761,1.7911,1.7911,0,0,0-.42,1.2319v.1118h2.9956v-.126a1.9188,1.9188,0,0,0-.3706-1.2251A1.2857,1.2857,0,0,0,75.6772,38.583Z"/><path d="M86.2612,44.8828a3.9237,3.9237,0,0,1-1.7642-.3569,4.0613,4.0613,0,0,1-1.26-.9868l1.0923-1.0645a3.2976,3.2976,0,0,0,.8892.728,2.2639,2.2639,0,0,0,1.1128.2661,1.5254,1.5254,0,0,0,.9312-.2241.7384.7384,0,0,0,.2866-.6157.6646.6646,0,0,0-.2026-.5112,1.2933,1.2933,0,0,0-.6934-.2588l-.7275-.0981a3.4676,3.4676,0,0,1-1.8135-.6787,1.8934,1.8934,0,0,1-.6226-1.5332,2.27,2.27,0,0,1,.1958-.959,2.0319,2.0319,0,0,1,.56-.728A2.565,2.565,0,0,1,85.12,37.4a3.7812,3.7812,0,0,1,1.1411-.1611,5.1989,5.1989,0,0,1,.9448.0771,3.4256,3.4256,0,0,1,.749.2241,2.8925,2.8925,0,0,1,.6162.3638,5.9142,5.9142,0,0,1,.5459.4829l-1.05,1.05a2.7715,2.7715,0,0,0-.77-.56,2.1589,2.1589,0,0,0-.98-.2241,1.3488,1.3488,0,0,0-.8467.21.67.67,0,0,0-.2593.5459.6926.6926,0,0,0,.2173.5532,1.5031,1.5031,0,0,0,.7349.2729l.7422.0981q2.3657.3354,2.3657,2.1558a2.1747,2.1747,0,0,1-.2168.9731,2.2213,2.2213,0,0,1-.6094.7559,2.8766,2.8766,0,0,1-.9448.49A4.1109,4.1109,0,0,1,86.2612,44.8828Z"/><path d="M93.0229,44.7149a1.91,1.91,0,0,1-1.4067-.4814,1.8587,1.8587,0,0,1-.4829-1.376V38.8487H90.0552V37.4068h.56a.6678.6678,0,0,0,.5527-.189.9133.9133,0,0,0,.147-.5669V35.4048h1.61v2.002h1.4976v1.4419H92.9253V43.273H94.311v1.4419Z"/><path d="M101.353,44.7149a1.2585,1.2585,0,0,1-.9312-.3428,1.5738,1.5738,0,0,1-.4268-.917h-.084a1.7166,1.7166,0,0,1-.7422,1.0708,2.5316,2.5316,0,0,1-1.3862.3569,2.3669,2.3669,0,0,1-1.7217-.5859,2.0816,2.0816,0,0,1-.6021-1.5635,1.8926,1.8926,0,0,1,.812-1.6812,4.0892,4.0892,0,0,1,2.31-.5513h1.2461v-.5322a1.3209,1.3209,0,0,0-.3223-.9521,1.3844,1.3844,0,0,0-1.0361-.3359,1.72,1.72,0,0,0-1.0146.2729,2.6969,2.6969,0,0,0-.6514.6514l-1.064-.958a3.0888,3.0888,0,0,1,1.0781-1.0205,3.5443,3.5443,0,0,1,1.7778-.3877,3.3426,3.3426,0,0,1,2.2544.67,2.42,2.42,0,0,1,.77,1.9277v3.436h.7275v1.4419Zm-2.9683-1.1338a1.8841,1.8841,0,0,0,1.022-.2642.8626.8626,0,0,0,.42-.7788v-.9595H98.6787q-1.4,0-1.4.89v.2363a.772.772,0,0,0,.2871.66A1.3412,1.3412,0,0,0,98.3848,43.5811Z"/><path d="M103.8032,44.7149V37.4068h1.792V38.625h.07a2.3426,2.3426,0,0,1,.707-.9873,2.0413,2.0413,0,0,1,1.3369-.3989,2.1069,2.1069,0,0,1,1.7363.7422,3.28,3.28,0,0,1,.6016,2.1138v4.62h-1.792v-4.438a2.025,2.025,0,0,0-.28-1.1758,1.0575,1.0575,0,0,0-.9238-.3921,1.8978,1.8978,0,0,0-.5391.0767,1.5159,1.5159,0,0,0-.4619.2241,1.1688,1.1688,0,0,0-.3291.3643.9991.9991,0,0,0-.126.5107v4.83Z"/><path d="M116.5713,43.4971h-.07a1.87,1.87,0,0,1-.7422,1.0078,2.1831,2.1831,0,0,1-1.2739.3779,2.4748,2.4748,0,0,1-2.1206-.9941,4.7161,4.7161,0,0,1-.7354-2.8418,4.6556,4.6556,0,0,1,.7354-2.8208,2.482,2.482,0,0,1,2.1206-.9873,2.2143,2.2143,0,0,1,1.2739.3711,1.8383,1.8383,0,0,1,.7422,1.001h.07V34.355h1.792v10.36h-1.792Zm-1.5127-.0981a1.8132,1.8132,0,0,0,1.0781-.3081,1.0164,1.0164,0,0,0,.4346-.8818V39.8848a1.0137,1.0137,0,0,0-.4346-.854,1.76,1.76,0,0,0-1.0781-.3218,1.451,1.451,0,0,0-1.1265.4688,1.7882,1.7882,0,0,0-.4272,1.2529v1.26a1.7615,1.7615,0,0,0,.4272,1.2461A1.4626,1.4626,0,0,0,115.0586,43.399Z"/><path d="M125.8105,44.7149a1.2565,1.2565,0,0,1-.9307-.3428,1.5776,1.5776,0,0,1-.4277-.917h-.084a1.711,1.711,0,0,1-.7422,1.0708,2.5287,2.5287,0,0,1-1.3857.3569,2.3669,2.3669,0,0,1-1.7217-.5859,2.0819,2.0819,0,0,1-.6025-1.5635,1.8941,1.8941,0,0,1,.8125-1.6812,4.09,4.09,0,0,1,2.31-.5513h1.2461v-.5322a1.3248,1.3248,0,0,0-.3213-.9521,1.3851,1.3851,0,0,0-1.0361-.3359,1.724,1.724,0,0,0-1.0156.2729,2.6842,2.6842,0,0,0-.65.6514l-1.0645-.958a3.0846,3.0846,0,0,1,1.0781-1.0205,3.5463,3.5463,0,0,1,1.7783-.3877,3.3412,3.3412,0,0,1,2.2539.67,2.421,2.421,0,0,1,.77,1.9277v3.436h.7285v1.4419Zm-2.9678-1.1338a1.8858,1.8858,0,0,0,1.0215-.2642.8622.8622,0,0,0,.42-.7788v-.9595h-1.1475q-1.4,0-1.4.89v.2363a.772.772,0,0,0,.2871.66A1.3408,1.3408,0,0,0,122.8428,43.5811Z"/><path d="M128.2607,44.7149V37.4068h1.792V38.919h.07a2.2637,2.2637,0,0,1,.2168-.5669,1.7266,1.7266,0,0,1,.3848-.4834,1.8423,1.8423,0,0,1,.5674-.3359,2.1235,2.1235,0,0,1,.7627-.126h.3916v1.6943h-.56a2.8108,2.8108,0,0,0-1.3721.2656.9254.9254,0,0,0-.4619.8682v4.48Z"/><path d="M138.2285,43.4971h-.07a1.87,1.87,0,0,1-.7422,1.0078,2.1815,2.1815,0,0,1-1.2734.3779,2.4751,2.4751,0,0,1-2.1211-.9941,4.7161,4.7161,0,0,1-.7354-2.8418,4.6556,4.6556,0,0,1,.7354-2.8208,2.4823,2.4823,0,0,1,2.1211-.9873,2.2127,2.2127,0,0,1,1.2734.3711,1.8383,1.8383,0,0,1,.7422,1.001h.07V34.355h1.792v10.36h-1.792Zm-1.5127-.0981a1.8132,1.8132,0,0,0,1.0781-.3081,1.0164,1.0164,0,0,0,.4346-.8818V39.8848a1.0137,1.0137,0,0,0-.4346-.854,1.76,1.76,0,0,0-1.0781-.3218,1.4521,1.4521,0,0,0-1.127.4688,1.7925,1.7925,0,0,0-.4268,1.2529v1.26a1.7657,1.7657,0,0,0,.4268,1.2461A1.4637,1.4637,0,0,0,136.7158,43.399Z"/><path d="M145.5088,44.7149v-9.772h4.3955a3.2193,3.2193,0,0,1,1.2109.2168,2.5657,2.5657,0,0,1,.917.6162,2.6509,2.6509,0,0,1,.5742.959,3.987,3.987,0,0,1,0,2.4712,2.6573,2.6573,0,0,1-.5742.9517,2.5594,2.5594,0,0,1-.917.6162,3.2193,3.2193,0,0,1-1.2109.2168h-2.5479v3.7241Zm1.8477-5.32h2.38a1.1827,1.1827,0,0,0,.84-.2871,1.0657,1.0657,0,0,0,.3086-.8188v-.644a1.0423,1.0423,0,0,0-.3086-.812,1.202,1.202,0,0,0-.84-.28h-2.38Z"/><path d="M157.6318,40.291l-1.3018,1.54v2.8838h-1.8477v-9.772H156.33v4.8159h.07l1.3857-1.834,2.4219-2.9819h2.1279l-3.4023,4.0737,3.6826,5.6982H160.418Z"/><path d="M167.2646,44.8828a4.6,4.6,0,0,1-1.7432-.3149,3.4839,3.4839,0,0,1-1.33-.9448,4.2748,4.2748,0,0,1-.8467-1.561,7.1856,7.1856,0,0,1-.2949-2.1631,7.4651,7.4651,0,0,1,.2949-2.1909,4.4652,4.4652,0,0,1,.8467-1.61,3.5944,3.5944,0,0,1,1.33-.9868,4.3443,4.3443,0,0,1,1.7432-.3359,3.9526,3.9526,0,0,1,2.1836.56,3.8372,3.8372,0,0,1,1.3857,1.6938l-1.582.84a2.2185,2.2185,0,0,0-.6855-1.0566,1.9649,1.9649,0,0,0-1.3018-.3989,2.07,2.07,0,0,0-1.6455.7,2.89,2.89,0,0,0-.6084,1.96v1.54a2.829,2.829,0,0,0,.6084,1.9531,2.1,2.1,0,0,0,1.6455.6787,2.0072,2.0072,0,0,0,1.3506-.4478,2.5815,2.5815,0,0,0,.7627-1.106l1.498.8818a4.3026,4.3026,0,0,1-1.4141,1.7012A3.7778,3.7778,0,0,1,167.2646,44.8828Z"/><path d="M175.4961,44.8828a4.6336,4.6336,0,0,1-2.1348-.4487,4.96,4.96,0,0,1-1.5049-1.1782l1.2461-1.2061a3.5711,3.5711,0,0,0,1.127.89,3.089,3.089,0,0,0,1.3789.3052,1.946,1.946,0,0,0,1.2881-.3682,1.2348,1.2348,0,0,0,.4336-.9932,1.1275,1.1275,0,0,0-.2793-.792,1.8846,1.8846,0,0,0-1.05-.4443l-.9248-.1387q-2.9253-.4629-2.9258-2.8457a2.8206,2.8206,0,0,1,.2451-1.1914,2.5373,2.5373,0,0,1,.707-.9111,3.269,3.269,0,0,1,1.1133-.582,4.9542,4.9542,0,0,1,1.4766-.2031,4.7521,4.7521,0,0,1,1.9326.3647,3.7933,3.7933,0,0,1,1.4131,1.08l-1.26,1.1924a2.8882,2.8882,0,0,0-.8818-.7217,2.7366,2.7366,0,0,0-1.3018-.2773,1.9864,1.9864,0,0,0-1.1973.2983A1.1383,1.1383,0,0,0,174.32,38.37a2.27,2.27,0,0,0,1.0361.3887l.91.168a4.18,4.18,0,0,1,2.1914.9463,2.5118,2.5118,0,0,1,.7061,1.8989A3.1737,3.1737,0,0,1,178.92,43.04a2.745,2.745,0,0,1-.7148.981,3.2576,3.2576,0,0,1-1.1475.6377A4.979,4.979,0,0,1,175.4961,44.8828Z"/><path d="M188.4736,42.167h-2.2119l-.4473,2.5479h-1.19l.4336-2.5479h-1.5254V41.0191h1.7354l.3926-2.38h-1.5117V37.4908H185.87l.4336-2.5479h1.19l-.4482,2.5479h2.2256l.4346-2.5479h1.1895l-.4336,2.5479h1.5264v1.1479H190.252l-.4062,2.38h1.5264V42.167H189.65l-.4482,2.5479h-1.1758Zm.1826-1.1479.42-2.38h-2.2119l-.42,2.38Z"/><path d="M193.626,44.7149v-1.498h2.6875V36.273h-.126l-2.1279,2.52-1.1484-.9663,2.4229-2.8838h2.7852v8.2739h2.24v1.498Z"/><path d="M202.0264,44.7149v-1.498h2.6875V36.273h-.126l-2.1279,2.52-1.1484-.9663,2.4229-2.8838H206.52v8.2739h2.24v1.498Z"/><path d="M219.6514,44.7149l-.7842-2.4922h-3.4717l-.7705,2.4922h-1.876l3.2764-9.772h2.2959l3.248,9.772Zm-2.4922-8.0918h-.07l-1.2461,4.0176h2.5762Z"/><path d="M223.0117,44.7149v-9.772h4.3955a3.2193,3.2193,0,0,1,1.2109.2168,2.5657,2.5657,0,0,1,.917.6162,2.6509,2.6509,0,0,1,.5742.959,3.987,3.987,0,0,1,0,2.4712,2.6573,2.6573,0,0,1-.5742.9517,2.5594,2.5594,0,0,1-.917.6162,3.2193,3.2193,0,0,1-1.2109.2168h-2.5479v3.7241Zm1.8477-5.32h2.38a1.1827,1.1827,0,0,0,.84-.2871,1.0657,1.0657,0,0,0,.3086-.8188v-.644a1.0423,1.0423,0,0,0-.3086-.812,1.202,1.202,0,0,0-.84-.28h-2.38Z"/><path d="M231.58,44.7149V43.231h1.2881V36.4268H231.58V34.9429h4.4375v1.4839h-1.3018V43.231h1.3018v1.4839Z"/><path d="M178.5938,133.4707v-9.7715h4.396a3.2193,3.2193,0,0,1,1.2109.2168,2.5657,2.5657,0,0,1,.917.6162,2.6509,2.6509,0,0,1,.5742.959,3.9965,3.9965,0,0,1,0,2.4712,2.6573,2.6573,0,0,1-.5742.9517,2.5594,2.5594,0,0,1-.917.6162,3.2193,3.2193,0,0,1-1.2109.2168h-2.5479v3.7236Zm1.8481-5.3193h2.38a1.1827,1.1827,0,0,0,.84-.2871,1.0637,1.0637,0,0,0,.3081-.8188v-.644a1.04,1.04,0,0,0-.3081-.812,1.202,1.202,0,0,0-.84-.28h-2.38Z"/><path d="M190.7178,129.0474l-1.3018,1.54v2.8833h-1.8481v-9.7715h1.8481v4.8159h.07l1.3862-1.834,2.4219-2.9819h2.1279L192.02,127.773l3.6821,5.6978h-2.1982Z"/><path d="M200.35,133.6387a4.6,4.6,0,0,1-1.7427-.3145,3.4966,3.4966,0,0,1-1.33-.9448,4.2827,4.2827,0,0,1-.8472-1.561,7.2027,7.2027,0,0,1-.2939-2.1631,7.4828,7.4828,0,0,1,.2939-2.1909,4.4735,4.4735,0,0,1,.8472-1.61,3.6023,3.6023,0,0,1,1.33-.9868,4.3436,4.3436,0,0,1,1.7427-.3359,3.9521,3.9521,0,0,1,2.1841.56,3.8478,3.8478,0,0,1,1.3862,1.6938l-1.582.84a2.2264,2.2264,0,0,0-.686-1.0566,1.9645,1.9645,0,0,0-1.3022-.3989,2.07,2.07,0,0,0-1.645.7,2.8923,2.8923,0,0,0-.6089,1.96v1.54a2.8315,2.8315,0,0,0,.6089,1.9531,2.0992,2.0992,0,0,0,1.645.6787,2.0076,2.0076,0,0,0,1.3511-.4478,2.5868,2.5868,0,0,0,.7632-1.106l1.498.8818a4.3066,4.3066,0,0,1-1.4141,1.7012A3.7844,3.7844,0,0,1,200.35,133.6387Z"/><path d="M208.5815,133.6387a4.6434,4.6434,0,0,1-2.1353-.4482,4.9679,4.9679,0,0,1-1.5049-1.1782l1.2461-1.2061a3.5657,3.5657,0,0,0,1.127.89,3.089,3.089,0,0,0,1.3789.3052,1.9469,1.9469,0,0,0,1.2881-.3682,1.2352,1.2352,0,0,0,.4341-.9932,1.1277,1.1277,0,0,0-.28-.792,1.883,1.883,0,0,0-1.05-.4443l-.9238-.1387q-2.926-.4629-2.9263-2.8457a2.8132,2.8132,0,0,1,.2451-1.1914,2.5319,2.5319,0,0,1,.707-.9111,3.28,3.28,0,0,1,1.1128-.582,4.96,4.96,0,0,1,1.4771-.2031,4.75,4.75,0,0,1,1.9321.3647,3.7926,3.7926,0,0,1,1.4141,1.08l-1.26,1.1924a2.9,2.9,0,0,0-.8818-.7217,2.7353,2.7353,0,0,0-1.3018-.2773,1.9874,1.9874,0,0,0-1.1973.2983.9864.9864,0,0,0-.3989.8394.9978.9978,0,0,0,.3218.8188,2.2676,2.2676,0,0,0,1.0361.3887l.91.168a4.1764,4.1764,0,0,1,2.1909.9463,2.51,2.51,0,0,1,.707,1.8989,3.1739,3.1739,0,0,1-.2451,1.2686,2.7424,2.7424,0,0,1-.7139.981,3.26,3.26,0,0,1-1.1479.6377A4.9807,4.9807,0,0,1,208.5815,133.6387Z"/><path d="M221.56,130.9234h-2.2119l-.4482,2.5474h-1.19l.4341-2.5474h-1.5264v-1.1479h1.7363l.3921-2.38h-1.5122v-1.1479h1.7222l.4341-2.5479h1.19l-.4482,2.5479h2.2261l.4341-2.5479h1.19l-.4341,2.5479h1.5259v1.1479h-1.7358l-.4058,2.38h1.5259v1.1479h-1.7222l-.4478,2.5474h-1.1763Zm.1816-1.1479.42-2.38h-2.2124l-.42,2.38Z"/><path d="M226.7114,133.4707v-1.4976h2.688v-6.9438h-.126l-2.1279,2.52-1.1479-.9663,2.4219-2.8838h2.7861v8.2739h2.24v1.4976Z"/><path d="M235.1108,133.4707v-1.4976h2.688v-6.9438h-.126l-2.1279,2.52-1.1479-.9663,2.4219-2.8838h2.7861v8.2739h2.24v1.4976Z"/><path d="M248.3691,133.4707a1.7806,1.7806,0,0,1-1.3579-.4619,1.8261,1.8261,0,0,1-.4341-1.3018v-8.5957h1.792v8.918h.9658v1.4414Z"/><path d="M251.5889,125.0992a1.0875,1.0875,0,0,1-.8052-.252.8849.8849,0,0,1-.2451-.644v-.28a.8849.8849,0,0,1,.2451-.644,1.4008,1.4008,0,0,1,1.603,0,.8724.8724,0,0,1,.252.644v.28a.8724.8724,0,0,1-.252.644A1.0913,1.0913,0,0,1,251.5889,125.0992Zm-.896,1.064h1.792v7.3076h-1.792Z"/><path d="M254.5566,123.1114h1.792v4.2559h.0557a1.8407,1.8407,0,0,1,.7422-1.001,2.2143,2.2143,0,0,1,1.2739-.3711,2.4986,2.4986,0,0,1,2.1353.9873,4.6591,4.6591,0,0,1,.7349,2.8208,4.72,4.72,0,0,1-.7349,2.8418,2.4921,2.4921,0,0,1-2.1353.9937,2.151,2.151,0,0,1-1.2671-.3779,1.9537,1.9537,0,0,1-.749-1.0073h-.0557v1.2173h-1.792Zm3.29,9.0439a1.4859,1.4859,0,0,0,1.1338-.4619,1.7475,1.7475,0,0,0,.4341-1.2461v-1.26a1.7738,1.7738,0,0,0-.4341-1.2529,1.474,1.474,0,0,0-1.1338-.4687,1.73,1.73,0,0,0-1.0713.3218,1.0176,1.0176,0,0,0-.4268.854v2.3242a1.0207,1.0207,0,0,0,.4268.8818A1.7824,1.7824,0,0,0,257.8467,132.1553Z"/><path d="M262.9565,133.4707v-7.3076h1.792v1.5122h.07a2.3229,2.3229,0,0,1,.2173-.5669,1.7354,1.7354,0,0,1,.3848-.4834,1.8513,1.8513,0,0,1,.5669-.3359,2.1262,2.1262,0,0,1,.7632-.126h.3921v1.6943h-.56a2.8108,2.8108,0,0,0-1.3721.2656.9245.9245,0,0,0-.4619.8682v4.4795Z"/><path d="M273.6807,133.4707a1.2585,1.2585,0,0,1-.9312-.3428,1.5709,1.5709,0,0,1-.4268-.9165h-.084a1.7179,1.7179,0,0,1-.7422,1.0708,2.5357,2.5357,0,0,1-1.3862.3564,2.3669,2.3669,0,0,1-1.7217-.5859,2.08,2.08,0,0,1-.6021-1.563,1.8926,1.8926,0,0,1,.812-1.6812,4.0892,4.0892,0,0,1,2.31-.5513h1.2461v-.5322a1.3209,1.3209,0,0,0-.3223-.9521,1.3844,1.3844,0,0,0-1.0361-.3359,1.72,1.72,0,0,0-1.0146.2729,2.6969,2.6969,0,0,0-.6514.6514l-1.064-.958a3.0888,3.0888,0,0,1,1.0781-1.0205,3.5443,3.5443,0,0,1,1.7778-.3877,3.3426,3.3426,0,0,1,2.2544.67,2.42,2.42,0,0,1,.77,1.9277v3.436h.7275v1.4414Zm-2.9683-1.1333a1.8841,1.8841,0,0,0,1.022-.2642.8626.8626,0,0,0,.42-.7788v-.9595h-1.1484q-1.4,0-1.4.89v.2363a.772.772,0,0,0,.2871.66A1.3412,1.3412,0,0,0,270.7124,132.3374Z"/><path d="M276.13,133.4707v-7.3076h1.792v1.5122h.07a2.3229,2.3229,0,0,1,.2173-.5669,1.7354,1.7354,0,0,1,.3848-.4834,1.8513,1.8513,0,0,1,.5669-.3359,2.1262,2.1262,0,0,1,.7632-.126h.3921v1.6943h-.56a2.8108,2.8108,0,0,0-1.3721.2656.9245.9245,0,0,0-.4619.8682v4.4795Z"/><path d="M286.2241,126.1631h1.68l-2.94,8.6094a3.6791,3.6791,0,0,1-.3149.68,1.6816,1.6816,0,0,1-.4131.4688,1.548,1.548,0,0,1-.5737.2656,3.2243,3.2243,0,0,1-.7842.084H281.8v-1.4414h1.3164l.3359-1.0205-2.6182-7.6455h1.7778l1.2744,3.856.4756,1.8438h.084l.5044-1.8437Z"/><path d="M63.2788,191.7979h2.8076a3.6636,3.6636,0,0,1,1.416.2637,2.8625,2.8625,0,0,1,1.0859.7861,3.57,3.57,0,0,1,.69,1.3076,7.1047,7.1047,0,0,1,0,3.66,3.5742,3.5742,0,0,1-.69,1.3086,2.86,2.86,0,0,1-1.0859.7852,3.6458,3.6458,0,0,1-1.416.2646H63.2788Zm2.8076,7.4873a2.5113,2.5113,0,0,0,.9482-.1738,2.0429,2.0429,0,0,0,.7441-.51,2.3649,2.3649,0,0,0,.4858-.8223,3.2824,3.2824,0,0,0,.1738-1.1094v-1.3682a3.2923,3.2923,0,0,0-.1738-1.11,2.3739,2.3739,0,0,0-.4858-.8223,2.0549,2.0549,0,0,0-.7441-.51,2.53,2.53,0,0,0-.9482-.1738h-1.8v6.6Z"/><path d="M75.7344,200.1739a.9437.9437,0,0,1-.7739-.2881,1.4251,1.4251,0,0,1-.2939-.72h-.06a1.6,1.6,0,0,1-.6719.8633,2.0847,2.0847,0,0,1-1.1162.2881,2.17,2.17,0,0,1-1.53-.5039,1.77,1.77,0,0,1-.5464-1.3682,1.5618,1.5618,0,0,1,.6421-1.3437,3.4175,3.4175,0,0,1,1.998-.4678h1.2241v-.6123a1.34,1.34,0,0,0-.36-1.0078,1.5349,1.5349,0,0,0-1.104-.3477,1.6624,1.6624,0,0,0-.9424.252,2.0726,2.0726,0,0,0-.63.6719l-.5762-.54a2.1934,2.1934,0,0,1,.8042-.8584,2.9974,2.9974,0,0,1,3.144.1973,1.9369,1.9369,0,0,1,.624,1.5322v3.4h.708v.8525Zm-2.76-.6719a2.4572,2.4572,0,0,0,.66-.084,1.6417,1.6417,0,0,0,.5161-.24,1.1884,1.1884,0,0,0,.3359-.36.8562.8562,0,0,0,.12-.4434v-1.0205h-1.272a2.319,2.319,0,0,0-1.2061.24.7749.7749,0,0,0-.3779.6963v.252a.8392.8392,0,0,0,.33.708A1.4366,1.4366,0,0,0,72.9741,199.502Z"/><path d="M79.0107,200.1739a.9826.9826,0,0,1-.7622-.2812,1.0481,1.0481,0,0,1-.2578-.7363V194.834h-1.02v-.8525h.5757a.5652.5652,0,0,0,.4263-.126.6545.6545,0,0,0,.1138-.4375v-1.1523h.8643v1.7158h1.356v.8525h-1.356v4.4873h1.26v.8525Z"/><path d="M86.3545,200.1739a.9437.9437,0,0,1-.7739-.2881,1.4251,1.4251,0,0,1-.2939-.72h-.06a1.6,1.6,0,0,1-.6719.8633,2.0847,2.0847,0,0,1-1.1162.2881,2.17,2.17,0,0,1-1.53-.5039,1.77,1.77,0,0,1-.5464-1.3682,1.5618,1.5618,0,0,1,.6421-1.3437,3.4175,3.4175,0,0,1,1.998-.4678h1.2241v-.6123a1.34,1.34,0,0,0-.36-1.0078,1.5349,1.5349,0,0,0-1.104-.3477,1.6624,1.6624,0,0,0-.9424.252,2.0726,2.0726,0,0,0-.63.6719l-.5762-.54a2.1934,2.1934,0,0,1,.8042-.8584,2.9974,2.9974,0,0,1,3.144.1973,1.9369,1.9369,0,0,1,.624,1.5322v3.4h.708v.8525Zm-2.76-.6719a2.4572,2.4572,0,0,0,.66-.084,1.6417,1.6417,0,0,0,.5161-.24,1.1884,1.1884,0,0,0,.3359-.36.8562.8562,0,0,0,.12-.4434v-1.0205h-1.272a2.319,2.319,0,0,0-1.2061.24.7749.7749,0,0,0-.3779.6963v.252a.8392.8392,0,0,0,.33.708A1.4366,1.4366,0,0,0,83.5942,199.502Z"/><path d="M93.4224,200.3174a2.7868,2.7868,0,0,1-1.146-.2275,2.4681,2.4681,0,0,1-.876-.6543,3,3,0,0,1-.564-1.02,4.5972,4.5972,0,0,1,0-2.6709A2.9917,2.9917,0,0,1,91.4,194.72a2.4681,2.4681,0,0,1,.876-.6543,2.7868,2.7868,0,0,1,1.146-.2275,2.6346,2.6346,0,0,1,1.1157.2266,2.4928,2.4928,0,0,1,.84.6279,2.8011,2.8011,0,0,1,.5337.9512,3.7491,3.7491,0,0,1,.186,1.208v.4541H91.646v.2881a2.1126,2.1126,0,0,0,.1265.7383,1.7508,1.7508,0,0,0,.36.5938,1.6365,1.6365,0,0,0,.5757.3955,1.9675,1.9675,0,0,0,.7744.1445,1.88,1.88,0,0,0,1.0259-.2764,1.81,1.81,0,0,0,.6777-.792l.6841.4951a2.3835,2.3835,0,0,1-.936,1.0322A2.8211,2.8211,0,0,1,93.4224,200.3174Zm0-5.6758a1.8246,1.8246,0,0,0-.72.1377,1.6231,1.6231,0,0,0-.5581.3867,1.8233,1.8233,0,0,0-.3657.5908,2.0321,2.0321,0,0,0-.1323.7451v.084h3.42v-.1318a1.8833,1.8833,0,0,0-.45-1.3174A1.5355,1.5355,0,0,0,93.4224,194.6416Z"/><path d="M97.6821,200.1739v-6.1924h.96v.9971H98.69a2.02,2.02,0,0,1,.6421-.832,1.8126,1.8126,0,0,1,1.11-.3086,1.9425,1.9425,0,0,1,1.5181.6182,2.5143,2.5143,0,0,1,.5581,1.7451v3.9727h-.96v-3.8125q0-1.6714-1.4038-1.6719a2.16,2.16,0,0,0-.5581.0723,1.5959,1.5959,0,0,0-.4858.2168,1.0634,1.0634,0,0,0-.3423.3662,1.0462,1.0462,0,0,0-.126.5234v4.3057Z"/><path d="M106.8022,200.3174a2.8606,2.8606,0,0,1-1.1641-.2275,2.3768,2.3768,0,0,1-.87-.6484,2.88,2.88,0,0,1-.54-1.02,4.95,4.95,0,0,1,0-2.6885,2.8881,2.8881,0,0,1,.54-1.02,2.3768,2.3768,0,0,1,.87-.6484,2.8606,2.8606,0,0,1,1.1641-.2275,2.4857,2.4857,0,0,1,1.4819.4014,2.4535,2.4535,0,0,1,.834,1.0508l-.8042.4072a1.4654,1.4654,0,0,0-.5518-.7441,1.6583,1.6583,0,0,0-.96-.2637,1.9237,1.9237,0,0,0-.7563.1377,1.488,1.488,0,0,0-.54.3848,1.6074,1.6074,0,0,0-.3237.5879,2.4678,2.4678,0,0,0-.1079.75v1.0557a2.0073,2.0073,0,0,0,.438,1.3379,1.5865,1.5865,0,0,0,1.29.5225,1.7414,1.7414,0,0,0,1.68-1.08l.6963.4678a2.464,2.464,0,0,1-.894,1.0684A2.6176,2.6176,0,0,1,106.8022,200.3174Z"/><path d="M110.5342,200.1739v-6.1924h.96v1.1406h.06a1.8734,1.8734,0,0,1,.6-.793,1.8467,1.8467,0,0,1,1.188-.3477h.3721v.96h-.564a2.173,2.173,0,0,0-1.2183.2939.8679.8679,0,0,0-.438.7383v4.2Z"/><path d="M118.874,193.9815h.9482l-2.772,7.6318a3.36,3.36,0,0,1-.2163.4619.8934.8934,0,0,1-.2637.2939,1.054,1.054,0,0,1-.39.1563,2.8756,2.8756,0,0,1-.57.0479h-.4917v-.8516h.9717l.4683-1.3184-2.3159-6.4219h.96l1.4878,4.2041.2881,1.0059h.06l.3359-1.0059Z"/><path d="M121.0459,193.9815h.96v.9971h.0479a1.7364,1.7364,0,0,1,.7021-.8613,2.1037,2.1037,0,0,1,1.11-.2793,2.36,2.36,0,0,1,1.0439.2275,2.2728,2.2728,0,0,1,.7983.6484,2.9838,2.9838,0,0,1,.5039,1.02,5.2845,5.2845,0,0,1,0,2.6885,2.975,2.975,0,0,1-.5039,1.02,2.2728,2.2728,0,0,1-.7983.6484,2.36,2.36,0,0,1-1.0439.2275,1.8751,1.8751,0,0,1-1.812-1.1406h-.0479v3.3965h-.96Zm2.5562,5.4844a1.651,1.651,0,0,0,1.2837-.5127,1.9171,1.9171,0,0,0,.4683-1.3447v-1.0615a1.9171,1.9171,0,0,0-.4683-1.3447,1.651,1.651,0,0,0-1.2837-.5127,2.0807,2.0807,0,0,0-.6182.0908,1.72,1.72,0,0,0-.51.2471,1.191,1.191,0,0,0-.3423.38.9532.9532,0,0,0-.126.4766v2.3154a1.1212,1.1212,0,0,0,.126.5371,1.21,1.21,0,0,0,.3423.3975,1.53,1.53,0,0,0,.51.2471A2.2138,2.2138,0,0,0,123.6021,199.4658Z"/><path d="M129.3018,200.1739a.9826.9826,0,0,1-.7622-.2812,1.0481,1.0481,0,0,1-.2578-.7363V194.834h-1.02v-.8525h.5757a.5652.5652,0,0,0,.4263-.126.6545.6545,0,0,0,.1138-.4375v-1.1523h.8643v1.7158h1.356v.8525h-1.356v4.4873h1.26v.8525Z"/><path d="M132.6255,192.5293a.589.589,0,0,1-.45-.1494.5564.5564,0,0,1-.1377-.3906v-.1553a.5564.5564,0,0,1,.1377-.3906.7529.7529,0,0,1,.9,0,.5564.5564,0,0,1,.1377.3906v.1553a.5564.5564,0,0,1-.1377.3906A.589.589,0,0,1,132.6255,192.5293Zm-.48,1.4521h.96v6.1924h-.96Z"/><path d="M137.4854,200.3174a2.7975,2.7975,0,0,1-1.14-.2275,2.461,2.461,0,0,1-.8823-.6543,3.0786,3.0786,0,0,1-.57-1.02,4.471,4.471,0,0,1,0-2.6709,3.0688,3.0688,0,0,1,.57-1.0254,2.461,2.461,0,0,1,.8823-.6543,2.7975,2.7975,0,0,1,1.14-.2275,2.76,2.76,0,0,1,1.1343.2275,2.5331,2.5331,0,0,1,.8818.6543,3.0221,3.0221,0,0,1,.5762,1.0254,4.4812,4.4812,0,0,1,0,2.6709,3.0315,3.0315,0,0,1-.5762,1.02,2.5331,2.5331,0,0,1-.8818.6543A2.76,2.76,0,0,1,137.4854,200.3174Zm0-.8516a1.7439,1.7439,0,0,0,1.272-.48,1.96,1.96,0,0,0,.4922-1.4639v-.8877a1.96,1.96,0,0,0-.4922-1.4639,1.9239,1.9239,0,0,0-2.5439,0,1.96,1.96,0,0,0-.4917,1.4639v.8877a1.96,1.96,0,0,0,.4917,1.4639A1.7439,1.7439,0,0,0,137.4854,199.4658Z"/><path d="M141.8657,200.1739v-6.1924h.96v.9971h.0479a2.02,2.02,0,0,1,.6421-.832,1.8126,1.8126,0,0,1,1.11-.3086,1.9425,1.9425,0,0,1,1.5181.6182,2.5143,2.5143,0,0,1,.5581,1.7451v3.9727h-.96v-3.8125q0-1.6714-1.4038-1.6719a2.16,2.16,0,0,0-.5581.0723,1.5959,1.5959,0,0,0-.4858.2168,1.0634,1.0634,0,0,0-.3423.3662,1.0462,1.0462,0,0,0-.126.5234v4.3057Z"/><path d="M151.5132,191.294h.96v5.6279h.0479l.9482-1.0566,1.752-1.8838h1.1641l-2.292,2.4482,2.52,3.7441h-1.1641l-2.0522-3.1562-.9238.9482v2.208h-.96Z"/><path d="M159.9614,200.3174a2.7868,2.7868,0,0,1-1.146-.2275,2.4681,2.4681,0,0,1-.876-.6543,3,3,0,0,1-.564-1.02,4.5972,4.5972,0,0,1,0-2.6709,2.9917,2.9917,0,0,1,.564-1.0254,2.4681,2.4681,0,0,1,.876-.6543,2.7868,2.7868,0,0,1,1.146-.2275,2.6346,2.6346,0,0,1,1.1157.2266,2.4928,2.4928,0,0,1,.84.6279,2.8011,2.8011,0,0,1,.5337.9512,3.7491,3.7491,0,0,1,.186,1.208v.4541h-4.4521v.2881a2.1126,2.1126,0,0,0,.1265.7383,1.7508,1.7508,0,0,0,.36.5938,1.6365,1.6365,0,0,0,.5757.3955,1.9675,1.9675,0,0,0,.7744.1445,1.88,1.88,0,0,0,1.0259-.2764,1.81,1.81,0,0,0,.6777-.792l.6841.4951a2.3835,2.3835,0,0,1-.936,1.0322A2.8211,2.8211,0,0,1,159.9614,200.3174Zm0-5.6758a1.8246,1.8246,0,0,0-.72.1377,1.6231,1.6231,0,0,0-.5581.3867,1.8233,1.8233,0,0,0-.3657.5908,2.0321,2.0321,0,0,0-.1323.7451v.084h3.42v-.1318a1.8833,1.8833,0,0,0-.45-1.3174A1.5355,1.5355,0,0,0,159.9614,194.6416Z"/><path d="M167.9775,193.9815h.9482l-2.772,7.6318a3.36,3.36,0,0,1-.2163.4619.8934.8934,0,0,1-.2637.2939,1.054,1.054,0,0,1-.39.1563,2.8756,2.8756,0,0,1-.57.0479h-.4917v-.8516h.9717l.4683-1.3184-2.3159-6.4219h.96l1.4878,4.2041.2881,1.0059h.06l.3359-1.0059Z"/><path d="M18.7583,83.92v-.98H20.13v-7.812H18.7583v-.98h3.92v.98H21.3066V82.94h1.3716v.98Z"/><path d="M24.82,74.1485h4.0181a2.5991,2.5991,0,0,1,1.9111.686,2.7974,2.7974,0,0,1,.5391,2.7578,1.9263,1.9263,0,0,1-.3921.623,1.5927,1.5927,0,0,1-.5181.3643,2.4076,2.4076,0,0,1-.5181.1606v.084a1.9922,1.9922,0,0,1,.5952.14,1.9438,1.9438,0,0,1,.623.3989,2.2851,2.2851,0,0,1,.4971.7,2.3821,2.3821,0,0,1,.2026,1.0288,3.2438,3.2438,0,0,1-.189,1.12,2.75,2.75,0,0,1-.5249.896,2.4553,2.4553,0,0,1-.7979.5952,2.3431,2.3431,0,0,1-1.0078.2168H24.82Zm1.1763,4.228h2.7021a1.5822,1.5822,0,0,0,1.0918-.35,1.28,1.28,0,0,0,.3921-1.0078v-.4761a1.2822,1.2822,0,0,0-.3921-1.0083,1.5844,1.5844,0,0,0-1.0918-.35H25.9966Zm0,4.5078h2.8979a1.7293,1.7293,0,0,0,1.19-.3848,1.4285,1.4285,0,0,0,.4341-1.127v-.4761a1.4285,1.4285,0,0,0-.4341-1.127,1.73,1.73,0,0,0-1.19-.3853H25.9966Z"/><path d="M41.5781,75.6885h-.07l-.8262,1.6377-2.3379,4.2563-2.3379-4.2563L35.18,75.6885h-.07V83.92H33.9619v-9.772H35.53l2.8,5.2642h.07l2.814-5.2642h1.5117V83.92H41.5781Z"/><path d="M48.6338,74.1485H51.91a4.2749,4.2749,0,0,1,1.6519.3081,3.3385,3.3385,0,0,1,1.2671.917,4.16,4.16,0,0,1,.8047,1.5259,8.272,8.272,0,0,1,0,4.27,4.16,4.16,0,0,1-.8047,1.5259,3.3385,3.3385,0,0,1-1.2671.917A4.2659,4.2659,0,0,1,51.91,83.92H48.6338ZM51.91,82.8843a2.9365,2.9365,0,0,0,1.106-.2026,2.3854,2.3854,0,0,0,.8677-.5952,2.7584,2.7584,0,0,0,.5674-.959,3.8308,3.8308,0,0,0,.2026-1.2949V78.2364a3.8328,3.8328,0,0,0-.2026-1.2949,2.7584,2.7584,0,0,0-.5674-.959,2.3914,2.3914,0,0,0-.8677-.5952,2.9461,2.9461,0,0,0-1.106-.2026h-2.1v7.7Z"/><path d="M57.916,73.5606h1.12v4.2983h.0562a2.0311,2.0311,0,0,1,.8188-1.0049,2.46,2.46,0,0,1,1.2949-.3257,2.7465,2.7465,0,0,1,1.2183.2661,2.6469,2.6469,0,0,1,.9307.7559,3.4676,3.4676,0,0,1,.5879,1.19,6.1544,6.1544,0,0,1,0,3.1362,3.4589,3.4589,0,0,1-.5879,1.19,2.6469,2.6469,0,0,1-.9307.7559,2.7465,2.7465,0,0,1-1.2183.2661,2.1872,2.1872,0,0,1-2.1138-1.3306h-.0562V83.92h-1.12Zm2.9819,9.5337a1.9273,1.9273,0,0,0,1.498-.5977,2.2346,2.2346,0,0,0,.5459-1.5693V79.6895a2.2342,2.2342,0,0,0-.5459-1.5688,1.9259,1.9259,0,0,0-1.498-.5981,2.4369,2.4369,0,0,0-.7207.1055,2.0155,2.0155,0,0,0-.5952.2886,1.39,1.39,0,0,0-.3989.4429,1.1137,1.1137,0,0,0-.147.5562v2.7017a1.3023,1.3023,0,0,0,.147.626,1.4068,1.4068,0,0,0,.3989.4644,1.8116,1.8116,0,0,0,.5952.2886A2.6058,2.6058,0,0,0,60.8979,83.0943Z"/><path d="M72.3076,83.92H65.8955V82.7163l3.1924-2.94a7.0983,7.0983,0,0,0,1.1479-1.3408,2.59,2.59,0,0,0,.4619-1.4253v-.1685a1.9151,1.9151,0,0,0-.4482-1.32,1.721,1.721,0,0,0-1.3579-.5054,2.2246,2.2246,0,0,0-.7837.126,1.7752,1.7752,0,0,0-.5811.35,1.9542,1.9542,0,0,0-.4062.5254,3.1806,3.1806,0,0,0-.2588.6509l-1.05-.4062a4.1528,4.1528,0,0,1,.3853-.8467,2.8376,2.8376,0,0,1,1.5117-1.2417,4.0175,4.0175,0,0,1,2.5132.0166,2.5148,2.5148,0,0,1,1.519,1.4829,3.1176,3.1176,0,0,1,.2031,1.147,3.3945,3.3945,0,0,1-.1611,1.063,4.1375,4.1375,0,0,1-.4409.93,5.6615,5.6615,0,0,1-.6792.86q-.3992.42-.8608.8394L67.17,82.8843h5.1377Z"/><path d="M82.36,82.7578h-.0562A2.2047,2.2047,0,0,1,80.19,84.0884a2.7465,2.7465,0,0,1-1.2183-.2661,2.6426,2.6426,0,0,1-.9307-.7559,3.46,3.46,0,0,1-.5884-1.19,6.1688,6.1688,0,0,1,0-3.1362,3.4683,3.4683,0,0,1,.5884-1.19,2.6426,2.6426,0,0,1,.9307-.7559,2.7465,2.7465,0,0,1,1.2183-.2661,2.4612,2.4612,0,0,1,1.2949.3257,2.0337,2.0337,0,0,1,.8188,1.0049H82.36V73.5606h1.12V83.92H82.36Zm-1.8618.3364a2.6058,2.6058,0,0,0,.7207-.0981,1.8163,1.8163,0,0,0,.5952-.2886,1.4068,1.4068,0,0,0,.3989-.4644,1.3023,1.3023,0,0,0,.147-.626V78.9156a1.1137,1.1137,0,0,0-.147-.5562,1.39,1.39,0,0,0-.3989-.4429,2.0214,2.0214,0,0,0-.5952-.2886,2.4369,2.4369,0,0,0-.7207-.1055A1.9252,1.9252,0,0,0,79,78.1206a2.2344,2.2344,0,0,0-.5464,1.5688v1.2378A2.2349,2.2349,0,0,0,79,82.4966,1.9266,1.9266,0,0,0,80.498,83.0943Z"/><path d="M91.1094,83.92a1.0987,1.0987,0,0,1-.9028-.3359,1.6666,1.6666,0,0,1-.3433-.84h-.07a1.8691,1.8691,0,0,1-.7842,1.0078,2.4332,2.4332,0,0,1-1.3018.3359,2.5332,2.5332,0,0,1-1.7852-.5879,2.0656,2.0656,0,0,1-.6367-1.5962,1.8217,1.8217,0,0,1,.749-1.5679,3.98,3.98,0,0,1,2.3306-.5459h1.4282v-.7144a1.5621,1.5621,0,0,0-.42-1.1758,1.7932,1.7932,0,0,0-1.2881-.4058,1.9363,1.9363,0,0,0-1.0991.2939,2.4174,2.4174,0,0,0-.7349.7837l-.6719-.63a2.5473,2.5473,0,0,1,.938-1.001,2.9525,2.9525,0,0,1,1.624-.4131,2.988,2.988,0,0,1,2.0439.6426,2.2624,2.2624,0,0,1,.728,1.7881v3.9673h.8257V83.92Zm-3.22-.7842a2.8482,2.8482,0,0,0,.77-.0977,1.8861,1.8861,0,0,0,.6016-.28,1.3846,1.3846,0,0,0,.3921-.42,1.0038,1.0038,0,0,0,.14-.5181V80.63H88.31a2.7051,2.7051,0,0,0-1.4072.28.9035.9035,0,0,0-.4409.8115v.2944a.9793.9793,0,0,0,.3848.8257A1.6773,1.6773,0,0,0,87.89,83.1363Z"/><path d="M94.9316,83.92a1.147,1.147,0,0,1-.8892-.3281,1.2215,1.2215,0,0,1-.3008-.8594V77.69h-1.19v-.9941h.6724a.6581.6581,0,0,0,.4971-.147.7643.7643,0,0,0,.1328-.5107V74.6944h1.0078v2.002h1.582V77.69h-1.582v5.2358h1.47V83.92Z"/><path d="M103.5,83.92a1.0987,1.0987,0,0,1-.9028-.3359,1.6666,1.6666,0,0,1-.3433-.84h-.07a1.8691,1.8691,0,0,1-.7842,1.0078,2.4332,2.4332,0,0,1-1.3018.3359,2.5332,2.5332,0,0,1-1.7852-.5879,2.0656,2.0656,0,0,1-.6367-1.5962,1.8217,1.8217,0,0,1,.749-1.5679,3.98,3.98,0,0,1,2.3306-.5459h1.4282v-.7144a1.5621,1.5621,0,0,0-.42-1.1758,1.7932,1.7932,0,0,0-1.2881-.4058,1.9363,1.9363,0,0,0-1.0991.2939,2.4174,2.4174,0,0,0-.7349.7837l-.6719-.63a2.5473,2.5473,0,0,1,.938-1.001,2.9525,2.9525,0,0,1,1.624-.4131,2.988,2.988,0,0,1,2.0439.6426,2.2624,2.2624,0,0,1,.728,1.7881v3.9673h.8257V83.92Zm-3.22-.7842a2.8482,2.8482,0,0,0,.77-.0977,1.8861,1.8861,0,0,0,.6016-.28,1.3846,1.3846,0,0,0,.3921-.42,1.0038,1.0038,0,0,0,.14-.5181V80.63H100.7a2.7051,2.7051,0,0,0-1.4072.28.9035.9035,0,0,0-.4409.8115v.2944a.9793.9793,0,0,0,.3848.8257A1.6773,1.6773,0,0,0,100.28,83.1363Z"/><path d="M105.7251,73.5606h1.12v4.2983h.0562a2.0311,2.0311,0,0,1,.8188-1.0049,2.46,2.46,0,0,1,1.2949-.3257,2.7465,2.7465,0,0,1,1.2183.2661,2.6469,2.6469,0,0,1,.9307.7559,3.4676,3.4676,0,0,1,.5879,1.19,6.1544,6.1544,0,0,1,0,3.1362,3.4589,3.4589,0,0,1-.5879,1.19,2.6469,2.6469,0,0,1-.9307.7559,2.7465,2.7465,0,0,1-1.2183.2661,2.1872,2.1872,0,0,1-2.1138-1.3306h-.0562V83.92h-1.12Zm2.9819,9.5337a1.9273,1.9273,0,0,0,1.498-.5977,2.2346,2.2346,0,0,0,.5459-1.5693V79.6895a2.2342,2.2342,0,0,0-.5459-1.5688,1.9259,1.9259,0,0,0-1.498-.5981,2.4369,2.4369,0,0,0-.7207.1055,2.0155,2.0155,0,0,0-.5952.2886,1.39,1.39,0,0,0-.3989.4429,1.1137,1.1137,0,0,0-.147.5562v2.7017a1.3023,1.3023,0,0,0,.147.626,1.4068,1.4068,0,0,0,.3989.4644,1.8116,1.8116,0,0,0,.5952.2886A2.6058,2.6058,0,0,0,108.707,83.0943Z"/><path d="M119.0952,83.92a1.0987,1.0987,0,0,1-.9028-.3359,1.6666,1.6666,0,0,1-.3433-.84h-.07a1.8691,1.8691,0,0,1-.7842,1.0078,2.4332,2.4332,0,0,1-1.3018.3359,2.5332,2.5332,0,0,1-1.7852-.5879,2.0656,2.0656,0,0,1-.6367-1.5962,1.8217,1.8217,0,0,1,.749-1.5679,3.98,3.98,0,0,1,2.3306-.5459h1.4282v-.7144a1.5621,1.5621,0,0,0-.42-1.1758,1.7932,1.7932,0,0,0-1.2881-.4058,1.9363,1.9363,0,0,0-1.0991.2939,2.4174,2.4174,0,0,0-.7349.7837l-.6719-.63a2.5473,2.5473,0,0,1,.938-1.001,2.9525,2.9525,0,0,1,1.624-.4131,2.988,2.988,0,0,1,2.0439.6426,2.2624,2.2624,0,0,1,.728,1.7881v3.9673h.8257V83.92Zm-3.22-.7842a2.8482,2.8482,0,0,0,.77-.0977,1.8861,1.8861,0,0,0,.6016-.28,1.3846,1.3846,0,0,0,.3921-.42,1.0038,1.0038,0,0,0,.14-.5181V80.63h-1.4839a2.7051,2.7051,0,0,0-1.4072.28.9035.9035,0,0,0-.4409.8115v.2944a.9793.9793,0,0,0,.3848.8257A1.6773,1.6773,0,0,0,115.8755,83.1363Z"/><path d="M123.4912,84.0884a3.3825,3.3825,0,0,1-1.687-.3848,3.8363,3.8363,0,0,1-1.1689-1.0293l.7979-.644a3.1392,3.1392,0,0,0,.9385.8193,2.4407,2.4407,0,0,0,1.2036.2866,1.7858,1.7858,0,0,0,1.1133-.3076,1.1194,1.1194,0,0,0,.126-1.5894,1.67,1.67,0,0,0-.9873-.4131l-.5737-.084a4.7544,4.7544,0,0,1-.9238-.2168,2.564,2.564,0,0,1-.7354-.3921,1.6786,1.6786,0,0,1-.49-.6089,1.98,1.98,0,0,1-.1753-.8682,2.083,2.083,0,0,1,.1963-.9307,1.8673,1.8673,0,0,1,.5391-.665,2.3473,2.3473,0,0,1,.8188-.3989,3.772,3.772,0,0,1,1.022-.1333,3.1943,3.1943,0,0,1,1.4771.3081,3.3143,3.3143,0,0,1,1.043.854l-.7422.6719a2.23,2.23,0,0,0-.7-.6089,2.2532,2.2532,0,0,0-1.1621-.2729,1.6075,1.6075,0,0,0-1.0571.3008,1.0171,1.0171,0,0,0-.3569.8193.8581.8581,0,0,0,.3569.77,2.6613,2.6613,0,0,0,1.0293.35l.56.084a3.004,3.004,0,0,1,1.708.6934,1.82,1.82,0,0,1,.5044,1.3369,2.0452,2.0452,0,0,1-.7144,1.6519A2.9459,2.9459,0,0,1,123.4912,84.0884Z"/><path d="M130.855,84.0884a3.2435,3.2435,0,0,1-1.3369-.2661,2.8864,2.8864,0,0,1-1.022-.7627,3.5,3.5,0,0,1-.6577-1.19,5.3679,5.3679,0,0,1,0-3.1152,3.4829,3.4829,0,0,1,.6577-1.1968,2.8819,2.8819,0,0,1,1.022-.7632,3.2435,3.2435,0,0,1,1.3369-.2661,3.0722,3.0722,0,0,1,1.3022.2651,2.8869,2.8869,0,0,1,.98.7329,3.267,3.267,0,0,1,.623,1.1089,4.378,4.378,0,0,1,.2168,1.4087v.53h-5.1938v.3364a2.4691,2.4691,0,0,0,.147.8608,2.0485,2.0485,0,0,0,.42.6929,1.9142,1.9142,0,0,0,.6724.4619,2.3,2.3,0,0,0,.9028.168,2.1963,2.1963,0,0,0,1.1968-.3218,2.1106,2.1106,0,0,0,.791-.9238l.7983.5776a2.79,2.79,0,0,1-1.0923,1.2041A3.2927,3.2927,0,0,1,130.855,84.0884Zm0-6.6221a2.1387,2.1387,0,0,0-.84.16,1.89,1.89,0,0,0-.6509.4521,2.1279,2.1279,0,0,0-.4272.6885,2.3888,2.3888,0,0,0-.1538.87v.0972h3.99v-.1533a2.1967,2.1967,0,0,0-.5254-1.5371A1.7906,1.7906,0,0,0,130.855,77.4663Z"/><path d="M141.2988,84.0884a3.3825,3.3825,0,0,1-1.687-.3848,3.8363,3.8363,0,0,1-1.1689-1.0293l.7979-.644a3.1392,3.1392,0,0,0,.9385.8193,2.4407,2.4407,0,0,0,1.2036.2866,1.7858,1.7858,0,0,0,1.1133-.3076,1.1194,1.1194,0,0,0,.126-1.5894,1.67,1.67,0,0,0-.9873-.4131l-.5737-.084a4.7544,4.7544,0,0,1-.9238-.2168,2.564,2.564,0,0,1-.7354-.3921,1.6786,1.6786,0,0,1-.49-.6089,1.98,1.98,0,0,1-.1753-.8682,2.083,2.083,0,0,1,.1963-.9307,1.8673,1.8673,0,0,1,.5391-.665,2.3473,2.3473,0,0,1,.8188-.3989,3.772,3.772,0,0,1,1.022-.1333,3.1943,3.1943,0,0,1,1.4771.3081,3.3143,3.3143,0,0,1,1.043.854l-.7422.6719a2.23,2.23,0,0,0-.7-.6089,2.2532,2.2532,0,0,0-1.1621-.2729,1.6075,1.6075,0,0,0-1.0571.3008,1.0171,1.0171,0,0,0-.3569.8193.8581.8581,0,0,0,.3569.77,2.6613,2.6613,0,0,0,1.0293.35l.56.084a3.004,3.004,0,0,1,1.708.6934,1.82,1.82,0,0,1,.5044,1.3369,2.0452,2.0452,0,0,1-.7144,1.6519A2.9459,2.9459,0,0,1,141.2988,84.0884Z"/><path d="M150.147,76.6963h1.106l-3.2339,8.9043a4,4,0,0,1-.252.5391,1.0518,1.0518,0,0,1-.3081.3428,1.23,1.23,0,0,1-.4551.1821,3.39,3.39,0,0,1-.665.0557h-.5742v-.9937h1.1343l.5459-1.5376-2.7021-7.4927h1.12l1.7363,4.9048.3359,1.1738h.07l.3921-1.1738Z"/><path d="M154.7949,84.0884a3.3825,3.3825,0,0,1-1.687-.3848,3.8363,3.8363,0,0,1-1.1689-1.0293l.7979-.644a3.1392,3.1392,0,0,0,.9385.8193,2.4407,2.4407,0,0,0,1.2036.2866,1.7858,1.7858,0,0,0,1.1133-.3076,1.1194,1.1194,0,0,0,.126-1.5894,1.67,1.67,0,0,0-.9873-.4131l-.5737-.084a4.7544,4.7544,0,0,1-.9238-.2168,2.564,2.564,0,0,1-.7354-.3921,1.6786,1.6786,0,0,1-.49-.6089,1.98,1.98,0,0,1-.1753-.8682,2.083,2.083,0,0,1,.1963-.9307,1.8673,1.8673,0,0,1,.5391-.665,2.3473,2.3473,0,0,1,.8188-.3989,3.772,3.772,0,0,1,1.022-.1333,3.1943,3.1943,0,0,1,1.4771.3081,3.3143,3.3143,0,0,1,1.043.854l-.7422.6719a2.23,2.23,0,0,0-.7-.6089,2.2532,2.2532,0,0,0-1.1621-.2729,1.6075,1.6075,0,0,0-1.0571.3008,1.0171,1.0171,0,0,0-.3569.8193.8581.8581,0,0,0,.3569.77,2.6613,2.6613,0,0,0,1.0293.35l.56.084a3.004,3.004,0,0,1,1.708.6934,1.82,1.82,0,0,1,.5044,1.3369,2.0452,2.0452,0,0,1-.7144,1.6519A2.9459,2.9459,0,0,1,154.7949,84.0884Z"/><path d="M160.9414,83.92a1.147,1.147,0,0,1-.8892-.3281,1.2215,1.2215,0,0,1-.3008-.8594V77.69h-1.19v-.9941h.6724a.6581.6581,0,0,0,.4971-.147.7643.7643,0,0,0,.1328-.5107V74.6944h1.0078v2.002h1.582V77.69h-1.582v5.2358h1.47V83.92Z"/><path d="M166.9189,84.0884a3.2435,3.2435,0,0,1-1.3369-.2661,2.8864,2.8864,0,0,1-1.022-.7627,3.5,3.5,0,0,1-.6577-1.19,5.3679,5.3679,0,0,1,0-3.1152,3.4829,3.4829,0,0,1,.6577-1.1968,2.8819,2.8819,0,0,1,1.022-.7632,3.2435,3.2435,0,0,1,1.3369-.2661,3.0722,3.0722,0,0,1,1.3022.2651,2.8869,2.8869,0,0,1,.98.7329,3.267,3.267,0,0,1,.623,1.1089,4.378,4.378,0,0,1,.2168,1.4087v.53h-5.1938v.3364a2.4691,2.4691,0,0,0,.147.8608,2.0485,2.0485,0,0,0,.42.6929,1.9142,1.9142,0,0,0,.6724.4619,2.3,2.3,0,0,0,.9028.168,2.1963,2.1963,0,0,0,1.1968-.3218,2.1106,2.1106,0,0,0,.791-.9238l.7983.5776a2.79,2.79,0,0,1-1.0923,1.2041A3.2927,3.2927,0,0,1,166.9189,84.0884Zm0-6.6221a2.1387,2.1387,0,0,0-.84.16,1.89,1.89,0,0,0-.6509.4521,2.1279,2.1279,0,0,0-.4272.6885,2.3888,2.3888,0,0,0-.1538.87v.0972h3.99v-.1533a2.1967,2.1967,0,0,0-.5254-1.5371A1.7906,1.7906,0,0,0,166.9189,77.4663Z"/><path d="M171.8892,83.92V76.6963h1.12v1.1626h.0562a3.7184,3.7184,0,0,1,.2866-.52,1.763,1.763,0,0,1,.9312-.707,2.2814,2.2814,0,0,1,.728-.104,2.631,2.631,0,0,1,1.3159.34,2.0556,2.0556,0,0,1,.896,1.1172h.0278a2.2181,2.2181,0,0,1,.7354-1.02,2.2544,2.2544,0,0,1,1.4629-.4375,2.1647,2.1647,0,0,1,1.729.7212,3.0221,3.0221,0,0,1,.623,2.0371V83.92h-1.12V79.4727a2.3675,2.3675,0,0,0-.3779-1.459,1.423,1.423,0,0,0-1.2041-.4912,2.3678,2.3678,0,0,0-.6367.084,1.7392,1.7392,0,0,0-.5391.2529,1.23,1.23,0,0,0-.3779.4277,1.2617,1.2617,0,0,0-.14.61V83.92h-1.12V79.4727a2.3675,2.3675,0,0,0-.3779-1.459,1.3894,1.3894,0,0,0-1.1758-.4912,2.4491,2.4491,0,0,0-.644.084,1.7334,1.7334,0,0,0-.5464.2529,1.3063,1.3063,0,0,0-.3848.4277,1.2159,1.2159,0,0,0-.147.61V83.92Z"/><path d="M621.7959,166.8643h-.06l-.709,1.4043-2.0039,3.6484-2.0039-3.6484-.707-1.4043h-.0605v7.0566h-.9844v-8.376h1.3438l2.4,4.5117h.0605l2.4121-4.5117h1.2949v8.376h-.9834Z"/><path d="M629.416,173.9209a.9426.9426,0,0,1-.7734-.2881,1.43,1.43,0,0,1-.2949-.72h-.06a1.6,1.6,0,0,1-.6719.8633,2.0847,2.0847,0,0,1-1.1162.2881,2.1683,2.1683,0,0,1-1.5293-.5039,1.7668,1.7668,0,0,1-.5469-1.3682,1.5609,1.5609,0,0,1,.6426-1.3437,3.4175,3.4175,0,0,1,1.998-.4678h1.2236v-.6123a1.3383,1.3383,0,0,0-.36-1.0078,1.5328,1.5328,0,0,0-1.1035-.3477,1.6613,1.6613,0,0,0-.9424.252,2.0726,2.0726,0,0,0-.63.6719l-.5762-.54a2.1841,2.1841,0,0,1,.8047-.8584,2.9966,2.9966,0,0,1,3.1436.1973,1.9369,1.9369,0,0,1,.624,1.5322v3.4h.708v.8525Zm-2.76-.6719a2.4624,2.4624,0,0,0,.66-.084,1.6544,1.6544,0,0,0,.5156-.24,1.1823,1.1823,0,0,0,.3359-.36.8562.8562,0,0,0,.12-.4434v-1.0205h-1.2725a2.3161,2.3161,0,0,0-1.2051.24.7757.7757,0,0,0-.3789.6963v.252a.8405.8405,0,0,0,.33.708A1.44,1.44,0,0,0,626.6563,173.2491Z"/><path d="M633.1836,174.0645a2.8822,2.8822,0,0,1-1.4453-.33,3.2671,3.2671,0,0,1-1.002-.8818l.6836-.5518a2.7009,2.7009,0,0,0,.8037.7021,2.0933,2.0933,0,0,0,1.0322.2461,1.5178,1.5178,0,0,0,.9531-.2646.9583.9583,0,0,0,.1094-1.3613,1.4338,1.4338,0,0,0-.8467-.3545l-.4922-.0723a4.1125,4.1125,0,0,1-.792-.1855,2.2146,2.2146,0,0,1-.63-.3359,1.453,1.453,0,0,1-.42-.5225,1.6947,1.6947,0,0,1-.1494-.7441,1.774,1.774,0,0,1,.168-.7979,1.6012,1.6012,0,0,1,.4609-.5693,2.0195,2.0195,0,0,1,.7031-.3428,3.2681,3.2681,0,0,1,.875-.1133,2.7422,2.7422,0,0,1,1.2666.2637,2.8282,2.8282,0,0,1,.8936.7324l-.6357.5752a1.8985,1.8985,0,0,0-1.5967-.7559,1.3748,1.3748,0,0,0-.9053.2578.871.871,0,0,0-.3057.7021.7337.7337,0,0,0,.3057.66,2.2665,2.2665,0,0,0,.8818.3l.48.0723a2.58,2.58,0,0,1,1.4639.5938,1.5627,1.5627,0,0,1,.4316,1.1465,1.7533,1.7533,0,0,1-.6123,1.416A2.5266,2.5266,0,0,1,633.1836,174.0645Z"/><path d="M638.4521,173.9209a.983.983,0,0,1-.7627-.2812,1.0481,1.0481,0,0,1-.2578-.7363v-4.3223h-1.02v-.8525h.5762a.5654.5654,0,0,0,.4258-.126.652.652,0,0,0,.1133-.4375v-1.1523h.8652v1.7158h1.3555v.8525h-1.3555v4.4873h1.26v.8525Z"/><path d="M643.5762,174.0645a2.7908,2.7908,0,0,1-1.1465-.2275,2.4647,2.4647,0,0,1-.875-.6543,3.0011,3.0011,0,0,1-.5645-1.02,4.5972,4.5972,0,0,1,0-2.6709,2.9926,2.9926,0,0,1,.5645-1.0254,2.4647,2.4647,0,0,1,.875-.6543,2.7908,2.7908,0,0,1,1.1465-.2275,2.6308,2.6308,0,0,1,1.1152.2266,2.4946,2.4946,0,0,1,.8408.6279,2.8268,2.8268,0,0,1,.5342.9512,3.7761,3.7761,0,0,1,.1855,1.208v.4541H641.8v.2881a2.1237,2.1237,0,0,0,.126.7383,1.7519,1.7519,0,0,0,.36.5938,1.6345,1.6345,0,0,0,.5752.3955,1.9707,1.9707,0,0,0,.7754.1445,1.88,1.88,0,0,0,1.0254-.2764,1.81,1.81,0,0,0,.6777-.792l.6836.4951a2.3794,2.3794,0,0,1-.9355,1.0322A2.82,2.82,0,0,1,643.5762,174.0645Zm0-5.6758a1.83,1.83,0,0,0-.7207.1377,1.63,1.63,0,0,0-.5576.3867,1.8328,1.8328,0,0,0-.3662.5908,2.0422,2.0422,0,0,0-.1318.7451v.084h3.4209v-.1318a1.8793,1.8793,0,0,0-.4512-1.3174A1.5324,1.5324,0,0,0,643.5762,168.3887Z"/><path d="M647.8359,173.9209v-6.1924h.96v1.1406h.06a1.8787,1.8787,0,0,1,.6006-.793,1.8482,1.8482,0,0,1,1.1885-.3477h.3711v.96h-.5635a2.1691,2.1691,0,0,0-1.2178.2939.8664.8664,0,0,0-.4385.7383v4.2Z"/><path d="M655.0723,165.041h.959v5.6279h.0488l.9473-1.0566,1.752-1.8838h1.1641l-2.291,2.4482,2.52,3.7441h-1.1641l-2.0527-3.1562-.9238.9482v2.208h-.959Z"/><path d="M663.52,174.0645a2.7908,2.7908,0,0,1-1.1465-.2275,2.4647,2.4647,0,0,1-.875-.6543,3.0011,3.0011,0,0,1-.5645-1.02,4.5972,4.5972,0,0,1,0-2.6709,2.9926,2.9926,0,0,1,.5645-1.0254,2.4647,2.4647,0,0,1,.875-.6543,2.7908,2.7908,0,0,1,1.1465-.2275,2.6308,2.6308,0,0,1,1.1152.2266,2.4946,2.4946,0,0,1,.8408.6279,2.8268,2.8268,0,0,1,.5342.9512,3.7761,3.7761,0,0,1,.1855,1.208v.4541h-4.4521v.2881a2.1237,2.1237,0,0,0,.126.7383,1.7519,1.7519,0,0,0,.36.5938,1.6345,1.6345,0,0,0,.5752.3955,1.9707,1.9707,0,0,0,.7754.1445,1.88,1.88,0,0,0,1.0254-.2764,1.81,1.81,0,0,0,.6777-.792l.6836.4951a2.3794,2.3794,0,0,1-.9355,1.0322A2.82,2.82,0,0,1,663.52,174.0645Zm0-5.6758a1.83,1.83,0,0,0-.7207.1377,1.63,1.63,0,0,0-.5576.3867,1.8328,1.8328,0,0,0-.3662.5908,2.0422,2.0422,0,0,0-.1318.7451v.084h3.4209v-.1318a1.8793,1.8793,0,0,0-.4512-1.3174A1.5324,1.5324,0,0,0,663.52,168.3887Z"/><path d="M671.5352,167.7285h.9492l-2.7725,7.6318a3.3636,3.3636,0,0,1-.2158.4619.8988.8988,0,0,1-.2637.2939,1.06,1.06,0,0,1-.3906.1563,2.8722,2.8722,0,0,1-.57.0479h-.4922v-.8516h.9727l.4678-1.3184-2.3154-6.4219h.959l1.4883,4.2041.2881,1.0059h.06l.3359-1.0059Z"/></g></svg>