<svg id="Layer_1" data-name="Layer 1" xmlns="http://www.w3.org/2000/svg" viewBox="0 0 750 350"><defs><style>.cls-1,.cls-11{fill:#f2f4f8;}.cls-1,.cls-11,.cls-12,.cls-13,.cls-14,.cls-2,.cls-3,.cls-4,.cls-5,.cls-7,.cls-8{stroke:#000;}.cls-1,.cls-14,.cls-15,.cls-2,.cls-5,.cls-7,.cls-8,.cls-9{stroke-linejoin:round;}.cls-13,.cls-15,.cls-2,.cls-9{fill:none;}.cls-14,.cls-15,.cls-2,.cls-7{stroke-linecap:round;}.cls-3,.cls-5{fill:#b3e6ff;}.cls-11,.cls-12,.cls-13,.cls-3,.cls-4{stroke-miterlimit:10;}.cls-4{fill:#e3f6ff;}.cls-6,.cls-7,.cls-8{fill:#e6d6ff;}.cls-15,.cls-9{stroke:#50565b;stroke-width:2px;}.cls-10{fill:#50565b;}.cls-12{fill:#dbfbfb;}.cls-14{fill:#fff;}</style></defs><title>PKCS11</title><rect class="cls-1" x="231" y="224.035" width="365" height="110"/><g id="HP_icon" data-name="HP icon"><line class="cls-2" x1="276.0714" y1="290.8207" x2="298.9286" y2="290.8207"/><polyline class="cls-2" points="298.929 290.821 298.929 275.821 276.071 275.821 276.071 285.285"/><path class="cls-2" d="M294.6418,275.8207v-5.7153a7.1418,7.1418,0,1,0-14.2836,0v5.7153"/><path class="cls-2" d="M287.4961,301.535s-20.3532-11.9321-20.3532-35.3571"/><path class="cls-2" d="M307.8571,266.1779c0,23.425-20.361,35.3571-20.361,35.3571"/><polyline class="cls-2" points="267.143 266.178 287.5 254.392 307.857 266.178"/><circle class="cls-3" cx="307.8571" cy="266.1779" r="2.1429"/><circle class="cls-3" cx="267.1429" cy="266.1779" r="2.1429"/><circle class="cls-3" cx="287.5" cy="301.535" r="2.1429"/></g><path d="M353.08,249.3144h-4.6563v4.7207H346.312V242.8672h2.1118v4.5761H353.08v-4.5761h2.1118v11.1679H353.08Z"/><path d="M362.8081,245.6826h1.92l-3.36,9.84a4.2074,4.2074,0,0,1-.36.7764,1.9275,1.9275,0,0,1-.4717.5361,1.7678,1.7678,0,0,1-.6562.3037,3.6921,3.6921,0,0,1-.896.0967H357.752v-1.6484h1.5039l.3842-1.166-2.9922-8.7383H358.68l1.456,4.4072.544,2.1074h.0962l.5762-2.1074Z"/><path d="M366.0718,245.6826H368.12v1.376h.064a2.1,2.1,0,0,1,.8481-1.1436,2.5318,2.5318,0,0,1,1.4561-.4238,2.855,2.855,0,0,1,2.44,1.1279,5.3219,5.3219,0,0,1,.84,3.2236,5.3909,5.3909,0,0,1-.84,3.2481,2.8458,2.8458,0,0,1-2.44,1.1357,2.457,2.457,0,0,1-1.4482-.4316,2.2342,2.2342,0,0,1-.856-1.1524h-.064v4.5928h-2.0478Zm3.76,6.8486a1.7,1.7,0,0,0,1.2964-.5283,1.9964,1.9964,0,0,0,.4956-1.4238v-1.4405a2.0276,2.0276,0,0,0-.4956-1.4316,1.685,1.685,0,0,0-1.2964-.5361,1.9754,1.9754,0,0,0-1.2236.3681,1.1611,1.1611,0,0,0-.4883.9756v2.6563a1.1661,1.1661,0,0,0,.4883,1.0078A2.0329,2.0329,0,0,0,369.8315,252.5312Z"/><path d="M379.0469,254.2265a4.1747,4.1747,0,0,1-1.6563-.3115,3.43,3.43,0,0,1-1.2314-.88,3.9411,3.9411,0,0,1-.7759-1.376,6.2051,6.2051,0,0,1-.0078-3.6084,3.9261,3.9261,0,0,1,.7593-1.3681,3.3782,3.3782,0,0,1,1.2168-.88,4.0661,4.0661,0,0,1,1.6318-.3115,3.9713,3.9713,0,0,1,1.6963.3359,3.26,3.26,0,0,1,1.1836.9121,3.9384,3.9384,0,0,1,.6953,1.336,5.513,5.513,0,0,1,.2324,1.624v.6719h-5.5517v.206a2.0415,2.0415,0,0,0,.5127,1.4541,1.98,1.98,0,0,0,1.5195.5479,2.2641,2.2641,0,0,0,1.2558-.3174,3.61,3.61,0,0,0,.8721-.8106l1.1045,1.2354a3.4462,3.4462,0,0,1-1.4,1.1318A4.87,4.87,0,0,1,379.0469,254.2265Zm-.0313-7.1992a1.64,1.64,0,0,0-1.2968.544,2.0507,2.0507,0,0,0-.4795,1.4072v.1279h3.4238v-.1435a2.1956,2.1956,0,0,0-.4238-1.4A1.4692,1.4692,0,0,0,379.0156,247.0273Z"/><path d="M384.6,254.0351v-8.3525h2.0479v1.7285h.08a2.66,2.66,0,0,1,.2481-.6484,1.994,1.994,0,0,1,.44-.5518,2.0834,2.0834,0,0,1,.6475-.3838,2.4181,2.4181,0,0,1,.872-.1445h.4473v1.9365h-.6387a3.2152,3.2152,0,0,0-1.5683.3037,1.0575,1.0575,0,0,0-.5283.9922v5.12Z"/><path d="M394.791,254.0351V242.8672h5.0244a3.6587,3.6587,0,0,1,1.3838.248,2.9319,2.9319,0,0,1,1.0488.7041,3.0272,3.0272,0,0,1,.6553,1.0957,4.5687,4.5687,0,0,1,0,2.8242,3.0531,3.0531,0,0,1-.6553,1.0879,2.958,2.958,0,0,1-1.0488.7041,3.6762,3.6762,0,0,1-1.3838.2481h-2.9121v4.2558Zm2.1123-6.08h2.72a1.3542,1.3542,0,0,0,.961-.3281,1.2172,1.2172,0,0,0,.3515-.9365v-.7354a1.19,1.19,0,0,0-.3515-.9277,1.3732,1.3732,0,0,0-.961-.32h-2.72Z"/><path d="M404.76,254.0351v-8.3525h2.0468v1.7285h.08a2.6967,2.6967,0,0,1,.2481-.6484,1.994,1.994,0,0,1,.44-.5518,2.095,2.095,0,0,1,.6475-.3838,2.4191,2.4191,0,0,1,.873-.1445h.4473v1.9365h-.64a3.2178,3.2178,0,0,0-1.5683.3037,1.0576,1.0576,0,0,0-.5284.9922v5.12Z"/><path d="M414.2793,254.2265a4.0586,4.0586,0,0,1-1.6074-.3037,3.3237,3.3237,0,0,1-1.2168-.88,4.0133,4.0133,0,0,1-.7754-1.3838,5.6666,5.6666,0,0,1-.2725-1.8164,5.5867,5.5867,0,0,1,.2725-1.8076,3.94,3.94,0,0,1,.7754-1.3681,3.373,3.373,0,0,1,1.2168-.8721,4.0586,4.0586,0,0,1,1.6074-.3037,4.1184,4.1184,0,0,1,1.6152.3037,3.36,3.36,0,0,1,1.2246.8721,3.9383,3.9383,0,0,1,.7754,1.3681,5.5867,5.5867,0,0,1,.2725,1.8076,5.6666,5.6666,0,0,1-.2725,1.8164,4.0116,4.0116,0,0,1-.7754,1.3838,3.3114,3.3114,0,0,1-1.2246.88A4.1184,4.1184,0,0,1,414.2793,254.2265Zm0-1.6474a1.6636,1.6636,0,0,0,1.2793-.4961,2.0539,2.0539,0,0,0,.4648-1.4561v-1.5517a2.0286,2.0286,0,0,0-.4648-1.44,1.6672,1.6672,0,0,0-1.2793-.4961,1.6478,1.6478,0,0,0-1.2637.4961,2.0286,2.0286,0,0,0-.4648,1.44v1.5517a2.0539,2.0539,0,0,0,.4648,1.4561A1.6443,1.6443,0,0,0,414.2793,252.5791Z"/><path d="M422.52,254.0351a2.181,2.181,0,0,1-1.6084-.5508,2.1243,2.1243,0,0,1-.5517-1.5722V247.331H419.127v-1.6484h.6406a.76.76,0,0,0,.6308-.2158,1.0361,1.0361,0,0,0,.168-.6475v-1.4248h1.8408v2.2881h1.7119v1.6484h-1.7119v5.0557h1.584v1.6484Z"/><path d="M429.207,254.2265a4.1673,4.1673,0,0,1-1.6562-.3115,3.4247,3.4247,0,0,1-1.2324-.88,3.9465,3.9465,0,0,1-.7754-1.376,6.2162,6.2162,0,0,1-.0078-3.6084,3.9252,3.9252,0,0,1,.76-1.3681,3.3754,3.3754,0,0,1,1.2158-.88,4.07,4.07,0,0,1,1.6319-.3115,3.9681,3.9681,0,0,1,1.6963.3359,3.2708,3.2708,0,0,1,1.1845.9121,3.9386,3.9386,0,0,1,.6954,1.336,5.55,5.55,0,0,1,.2324,1.624v.6719h-5.5528v.206a2.0415,2.0415,0,0,0,.5127,1.4541,1.9812,1.9812,0,0,0,1.5205.5479,2.2645,2.2645,0,0,0,1.2559-.3174,3.608,3.608,0,0,0,.8711-.8106l1.1045,1.2354a3.443,3.443,0,0,1-1.3994,1.1318A4.877,4.877,0,0,1,429.207,254.2265Zm-.0322-7.1992a1.6393,1.6393,0,0,0-1.2959.544,2.047,2.047,0,0,0-.4805,1.4072v.1279h3.4239v-.1435a2.19,2.19,0,0,0-.4239-1.4A1.4688,1.4688,0,0,0,429.1748,247.0273Z"/><path d="M438.0547,254.2265a4.21,4.21,0,0,1-1.6475-.3037,3.1762,3.1762,0,0,1-1.208-.88,3.9409,3.9409,0,0,1-.7441-1.3838,6.0284,6.0284,0,0,1-.2559-1.8164,5.9429,5.9429,0,0,1,.2559-1.8076,3.8674,3.8674,0,0,1,.7441-1.3681,3.221,3.221,0,0,1,1.208-.8721,4.21,4.21,0,0,1,1.6475-.3037,3.6364,3.6364,0,0,1,2.0879.56,3.1432,3.1432,0,0,1,1.1924,1.5518l-1.68.752a1.7427,1.7427,0,0,0-.5362-.8711,1.5557,1.5557,0,0,0-1.0644-.3448,1.53,1.53,0,0,0-1.2871.544,2.25,2.25,0,0,0-.4238,1.4238v1.52a2.2133,2.2133,0,0,0,.4238,1.416,1.5389,1.5389,0,0,0,1.2871.5362,1.5965,1.5965,0,0,0,1.1367-.376,2.5892,2.5892,0,0,0,.624-.9365l1.5674.7519a3.2773,3.2773,0,0,1-1.2637,1.6563A3.7033,3.7033,0,0,1,438.0547,254.2265Z"/><path d="M445.5752,254.0351a2.1824,2.1824,0,0,1-1.6084-.5508,2.1279,2.1279,0,0,1-.5518-1.5722V247.331h-1.2314v-1.6484h.64a.7623.7623,0,0,0,.6319-.2158,1.0427,1.0427,0,0,0,.1679-.6475v-1.4248h1.84v2.2881h1.7119v1.6484h-1.7119v5.0557h1.584v1.6484Z"/><path d="M457.1914,254.2265a5.2746,5.2746,0,0,1-1.9922-.3593,4.007,4.007,0,0,1-1.5205-1.08,4.9023,4.9023,0,0,1-.9678-1.7842,8.2338,8.2338,0,0,1-.3359-2.4717,8.5583,8.5583,0,0,1,.3359-2.5039,5.1277,5.1277,0,0,1,.9678-1.8408,4.1157,4.1157,0,0,1,1.5205-1.1279,4.971,4.971,0,0,1,1.9922-.3838,4.5237,4.5237,0,0,1,2.4951.64,4.39,4.39,0,0,1,1.584,1.9365l-1.8076.96a2.5465,2.5465,0,0,0-.7842-1.208,2.245,2.245,0,0,0-1.4873-.4561,2.3672,2.3672,0,0,0-1.8809.8,3.3069,3.3069,0,0,0-.6953,2.24v1.76a3.2375,3.2375,0,0,0,.6953,2.2325,2.4,2.4,0,0,0,1.8809.7754,2.2943,2.2943,0,0,0,1.544-.5118,2.9585,2.9585,0,0,0,.872-1.2636l1.7119,1.0078a4.924,4.924,0,0,1-1.6162,1.9443A4.3183,4.3183,0,0,1,457.1914,254.2265Z"/><path d="M462.998,254.0351v-8.3525h2.0489v1.7285h.0791a2.7006,2.7006,0,0,1,.248-.6484,1.9926,1.9926,0,0,1,.44-.5518,2.0985,2.0985,0,0,1,.6484-.3838,2.4088,2.4088,0,0,1,.8711-.1445h.4482v1.9365h-.64a3.2209,3.2209,0,0,0-1.5684.3037,1.0569,1.0569,0,0,0-.5273.9922v5.12Z"/><path d="M474.5342,245.6826h1.92l-3.3594,9.84a4.2334,4.2334,0,0,1-.36.7764,1.9435,1.9435,0,0,1-.4717.5361,1.7675,1.7675,0,0,1-.6563.3037,3.69,3.69,0,0,1-.8955.0967h-1.2324v-1.6484h1.5039l.3838-1.166-2.9922-8.7383h2.0322l1.4561,4.4072.5439,2.1074h.0967l.5752-2.1074Z"/><path d="M477.7979,245.6826h2.0488v1.376h.0635a2.0986,2.0986,0,0,1,.8476-1.1436,2.5316,2.5316,0,0,1,1.4561-.4238,2.8554,2.8554,0,0,1,2.44,1.1279,5.3254,5.3254,0,0,1,.84,3.2236,5.3944,5.3944,0,0,1-.84,3.2481,2.8462,2.8462,0,0,1-2.44,1.1357,2.4533,2.4533,0,0,1-1.4473-.4316,2.2323,2.2323,0,0,1-.8564-1.1524h-.0635v4.5928h-2.0488Zm3.7607,6.8486a1.6985,1.6985,0,0,0,1.2959-.5283,1.9967,1.9967,0,0,0,.4961-1.4238v-1.4405a2.0279,2.0279,0,0,0-.4961-1.4316,1.6841,1.6841,0,0,0-1.2959-.5361,1.9774,1.9774,0,0,0-1.2246.3681,1.1615,1.1615,0,0,0-.4873.9756v2.6563a1.1666,1.1666,0,0,0,.4873,1.0078A2.035,2.035,0,0,0,481.5586,252.5312Z"/><path d="M489.91,254.0351a2.1822,2.1822,0,0,1-1.6084-.5508,2.1279,2.1279,0,0,1-.5518-1.5722V247.331h-1.2314v-1.6484h.64a.7621.7621,0,0,0,.6318-.2158,1.0426,1.0426,0,0,0,.168-.6475v-1.4248h1.84v2.2881H491.51v1.6484h-1.7119v5.0557h1.5839v1.6484Z"/><path d="M496.5342,254.2265a4.0671,4.0671,0,0,1-1.6084-.3037,3.3284,3.3284,0,0,1-1.2158-.88,4.0116,4.0116,0,0,1-.7754-1.3838,5.6666,5.6666,0,0,1-.2725-1.8164,5.5867,5.5867,0,0,1,.2725-1.8076,3.9383,3.9383,0,0,1,.7754-1.3681,3.3779,3.3779,0,0,1,1.2158-.8721,4.0671,4.0671,0,0,1,1.6084-.3037,4.13,4.13,0,0,1,1.6162.3037,3.3649,3.3649,0,0,1,1.2236.8721,3.9561,3.9561,0,0,1,.7764,1.3681,5.6147,5.6147,0,0,1,.2715,1.8076,5.6951,5.6951,0,0,1-.2715,1.8164,4.03,4.03,0,0,1-.7764,1.3838,3.3159,3.3159,0,0,1-1.2236.88A4.13,4.13,0,0,1,496.5342,254.2265Zm0-1.6474a1.6673,1.6673,0,0,0,1.28-.4961,2.0629,2.0629,0,0,0,.4638-1.4561v-1.5517a2.0376,2.0376,0,0,0-.4638-1.44,1.6709,1.6709,0,0,0-1.28-.4961,1.6478,1.6478,0,0,0-1.2637.4961,2.0328,2.0328,0,0,0-.4648,1.44v1.5517a2.0581,2.0581,0,0,0,.4648,1.4561A1.6443,1.6443,0,0,0,496.5342,252.5791Z"/><path d="M509.6055,254.2265a5.3039,5.3039,0,0,1-2.44-.5127,5.6505,5.6505,0,0,1-1.72-1.3466l1.4238-1.378a4.0839,4.0839,0,0,0,1.2881,1.0166,3.5355,3.5355,0,0,0,1.5762.3487,2.225,2.225,0,0,0,1.4717-.42,1.4124,1.4124,0,0,0,.4961-1.1357,1.2877,1.2877,0,0,0-.32-.9053,2.1525,2.1525,0,0,0-1.1993-.5078l-1.0566-.1582q-3.3442-.5287-3.3438-3.2519a3.2282,3.2282,0,0,1,.28-1.3624,2.9,2.9,0,0,1,.8076-1.041,3.7457,3.7457,0,0,1,1.2725-.665,5.6436,5.6436,0,0,1,1.6875-.2324,5.4167,5.4167,0,0,1,2.208.417,4.3393,4.3393,0,0,1,1.6162,1.2343l-1.44,1.3623a3.3115,3.3115,0,0,0-1.0078-.8242,3.1206,3.1206,0,0,0-1.4873-.3174,2.2774,2.2774,0,0,0-1.3682.3409,1.3,1.3,0,0,0-.0879,1.8955,2.59,2.59,0,0,0,1.1836.4443l1.04.1924a4.7769,4.7769,0,0,1,2.5039,1.081,2.8705,2.8705,0,0,1,.8076,2.17,3.6278,3.6278,0,0,1-.2793,1.45,3.1555,3.1555,0,0,1-.8164,1.1211,3.7344,3.7344,0,0,1-1.3116.7285A5.687,5.687,0,0,1,509.6055,254.2265Z"/><path d="M519.1572,254.2265a4.1658,4.1658,0,0,1-1.6552-.3115,3.4259,3.4259,0,0,1-1.2325-.88,3.9339,3.9339,0,0,1-.7754-1.376,6.2063,6.2063,0,0,1-.0087-3.6084,3.9271,3.9271,0,0,1,.7607-1.3681,3.3668,3.3668,0,0,1,1.2158-.88,4.0635,4.0635,0,0,1,1.6319-.3115,3.9708,3.9708,0,0,1,1.6962.3359,3.2591,3.2591,0,0,1,1.1836.9121,3.94,3.94,0,0,1,.6963,1.336,5.5462,5.5462,0,0,1,.2315,1.624v.6719H517.35v.206a2.0454,2.0454,0,0,0,.5117,1.4541,1.9841,1.9841,0,0,0,1.52.5479,2.2622,2.2622,0,0,0,1.2559-.3174,3.5937,3.5937,0,0,0,.8721-.8106l1.1035,1.2354a3.4364,3.4364,0,0,1-1.3994,1.1318A4.8709,4.8709,0,0,1,519.1572,254.2265Zm-.0312-7.1992a1.6378,1.6378,0,0,0-1.2959.544,2.047,2.047,0,0,0-.4805,1.4072v.1279h3.4238v-.1435a2.1956,2.1956,0,0,0-.4238-1.4A1.4688,1.4688,0,0,0,519.126,247.0273Z"/><path d="M524.709,254.0351v-8.3525h2.0488v1.7285h.0791a2.6967,2.6967,0,0,1,.2481-.6484,1.994,1.994,0,0,1,.44-.5518,2.1,2.1,0,0,1,.6484-.3838,2.4088,2.4088,0,0,1,.8711-.1445h.4483v1.9365h-.64a3.22,3.22,0,0,0-1.5683.3037,1.0568,1.0568,0,0,0-.5274.9922v5.12Z"/><path d="M532.917,254.0351l-2.7832-8.3525h2.0156l1.168,3.6006.8164,2.9756h.1113l.8164-2.9756,1.1358-3.6006h1.9521l-2.8,8.3525Z"/><path d="M540.5332,244.4668a1.2405,1.2405,0,0,1-.92-.2881,1.0118,1.0118,0,0,1-.28-.7354v-.32a1.0141,1.0141,0,0,1,.28-.7363,1.6,1.6,0,0,1,1.832,0,1,1,0,0,1,.2881.7363v.32a.998.998,0,0,1-.2881.7354A1.2463,1.2463,0,0,1,540.5332,244.4668Zm-1.0244,1.2158h2.0488v8.3525h-2.0488Z"/><path d="M547.2207,254.2265a4.2117,4.2117,0,0,1-1.6484-.3037,3.1686,3.1686,0,0,1-1.208-.88,3.9735,3.9735,0,0,1-.7442-1.3838,5.9971,5.9971,0,0,1-.2558-1.8164,5.9122,5.9122,0,0,1,.2558-1.8076,3.8993,3.8993,0,0,1,.7442-1.3681,3.2131,3.2131,0,0,1,1.208-.8721,4.2117,4.2117,0,0,1,1.6484-.3037,3.6408,3.6408,0,0,1,2.0879.56,3.1465,3.1465,0,0,1,1.1914,1.5518l-1.68.752a1.7364,1.7364,0,0,0-.5361-.8711,1.5566,1.5566,0,0,0-1.0635-.3448,1.532,1.532,0,0,0-1.2881.544,2.25,2.25,0,0,0-.4248,1.4238v1.52a2.2136,2.2136,0,0,0,.4248,1.416,1.541,1.541,0,0,0,1.2881.5362,1.5939,1.5939,0,0,0,1.1357-.376,2.5768,2.5768,0,0,0,.6241-.9365l1.5674.7519a3.2784,3.2784,0,0,1-1.2637,1.6563A3.7023,3.7023,0,0,1,547.2207,254.2265Z"/><path d="M555.4287,254.2265a4.1663,4.1663,0,0,1-1.6553-.3115,3.4264,3.4264,0,0,1-1.2324-.88,3.9339,3.9339,0,0,1-.7754-1.376,6.2074,6.2074,0,0,1-.0088-3.6084,3.9288,3.9288,0,0,1,.7608-1.3681,3.3668,3.3668,0,0,1,1.2158-.88,4.063,4.063,0,0,1,1.6318-.3115,3.9709,3.9709,0,0,1,1.6963.3359,3.26,3.26,0,0,1,1.1836.9121,3.94,3.94,0,0,1,.6963,1.336,5.5462,5.5462,0,0,1,.2315,1.624v.6719h-5.5518v.206a2.0454,2.0454,0,0,0,.5117,1.4541,1.9839,1.9839,0,0,0,1.52.5479,2.2624,2.2624,0,0,0,1.2559-.3174,3.5915,3.5915,0,0,0,.872-.8106l1.1036,1.2354a3.4377,3.4377,0,0,1-1.3994,1.1318A4.8709,4.8709,0,0,1,555.4287,254.2265Zm-.0312-7.1992a1.6378,1.6378,0,0,0-1.2959.544,2.0465,2.0465,0,0,0-.4805,1.4072v.1279h3.4238v-.1435a2.1956,2.1956,0,0,0-.4238-1.4A1.4688,1.4688,0,0,0,555.3975,247.0273Z"/><path d="M563.7168,254.2265a4.4862,4.4862,0,0,1-2.0156-.4072,4.6469,4.6469,0,0,1-1.44-1.1289l1.2481-1.2158a3.7846,3.7846,0,0,0,1.0156.832,2.59,2.59,0,0,0,1.2725.3047,1.7432,1.7432,0,0,0,1.0644-.2568.8443.8443,0,0,0,.3272-.7032.7585.7585,0,0,0-.2315-.584,1.4738,1.4738,0,0,0-.792-.2968l-.832-.1114a3.9522,3.9522,0,0,1-2.0723-.7763,2.1621,2.1621,0,0,1-.7119-1.752,2.5934,2.5934,0,0,1,.2237-1.0957,2.33,2.33,0,0,1,.6406-.832,2.9314,2.9314,0,0,1,1-.5283,4.3434,4.3434,0,0,1,1.3037-.1836,5.943,5.943,0,0,1,1.08.0879,3.9279,3.9279,0,0,1,.8564.2558,3.3178,3.3178,0,0,1,.7031.416,6.5273,6.5273,0,0,1,.6241.5518l-1.1993,1.2a3.1625,3.1625,0,0,0-.8808-.64,2.4617,2.4617,0,0,0-1.1192-.2568,1.5446,1.5446,0,0,0-.9687.24.7663.7663,0,0,0-.2959.6241.793.793,0,0,0,.248.6318,1.7145,1.7145,0,0,0,.84.3125l.8486.1123q2.7042.3838,2.7041,2.4639a2.4856,2.4856,0,0,1-.248,1.1113,2.5436,2.5436,0,0,1-.6963.8643,3.3,3.3,0,0,1-1.08.56A4.7027,4.7027,0,0,1,563.7168,254.2265Z"/><path id="Cloud" class="cls-4" d="M416.0213,267.826a25.0241,25.0241,0,0,0-24.5988,20.32,18.7682,18.7682,0,0,0,3.3032,37.2361h42.5412a18.7682,18.7682,0,0,0,3.3032-37.2361,25.0242,25.0242,0,0,0-19.8692-19.8693A25.695,25.695,0,0,0,416.0213,267.826Z"/><g id="Hardware"><rect class="cls-5" x="395.9947" y="304.2507" width="40" height="10.5882"/><polygon class="cls-5" points="435.995 303.859 395.995 303.859 403.054 288.564 428.936 288.564 435.995 303.859"/><rect x="421.2888" y="307.1919" width="4.7059" height="4.7059"/><rect x="427.7594" y="307.1919" width="4.7059" height="4.7059"/></g><g id="lock"><g id="lock-2" data-name="lock"><rect class="cls-6" x="391.4" y="302.835" width="7.2" height="2.4"/><path class="cls-7" d="M395,314.435v-2.8m-4-6.528v-5.072a4,4,0,0,1,8,0v5.072m1.6,1.216a8.1978,8.1978,0,0,0-1.6-1.216,7.9987,7.9987,0,0,0-8,0,8.1978,8.1978,0,0,0-1.6,1.216,8,8,0,1,0,11.2,0Z"/><circle cx="395" cy="311.635" r="1.5"/></g></g><g id="key"><path class="cls-7" d="M523.54,302.1563a11.68,11.68,0,1,1-.5547-7.9354"/><circle cx="508.522" cy="298.9403" r="2.5"/><polyline class="cls-8" points="522.986 294.221 546.309 294.221 550.675 298.587 546.912 302.349 532.248 302.349 529.619 299.744 527.207 302.156 523.54 302.156"/></g><line class="cls-9" x1="330" y1="169.6228" x2="330" y2="216.294"/><polygon class="cls-10" points="326.011 170.79 330 163.882 333.989 170.79 326.011 170.79"/><polygon class="cls-10" points="326.011 215.127 330 222.035 333.989 215.127 326.011 215.127"/><path d="M353.7578,197.5908v-11.168h7.36v1.8721H355.87v2.7041h4.64v1.8721h-4.64v2.8476h5.2481v1.8721Z"/><path d="M363.23,197.5908v-8.3516h2.0478v1.3916h.08a2.6666,2.6666,0,0,1,.8081-1.1279,2.3316,2.3316,0,0,1,1.5278-.4561,2.4058,2.4058,0,0,1,1.9839.8487,3.7461,3.7461,0,0,1,.688,2.416v5.2793h-2.0478V192.52a2.3189,2.3189,0,0,0-.32-1.3447,1.21,1.21,0,0,0-1.0561-.4473,2.1528,2.1528,0,0,0-.6162.0879,1.7238,1.7238,0,0,0-.5278.2559,1.3325,1.3325,0,0,0-.376.416,1.138,1.138,0,0,0-.1441.584v5.5195Z"/><path d="M375.2456,197.5908a2.1841,2.1841,0,0,1-1.6079-.55,2.1252,2.1252,0,0,1-.5523-1.5733v-4.581h-1.2319v-1.6475h.64a.765.765,0,0,0,.6318-.2158,1.0454,1.0454,0,0,0,.168-.6484v-1.4239h1.84v2.2881h1.7119v1.6475h-1.7119v5.0566h1.584v1.6475Z"/><path d="M381.9336,197.7832a4.1681,4.1681,0,0,1-1.6563-.3125,3.4264,3.4264,0,0,1-1.2324-.88,3.9316,3.9316,0,0,1-.7754-1.376,6.2129,6.2129,0,0,1-.0078-3.6074,3.9275,3.9275,0,0,1,.76-1.3682,3.3636,3.3636,0,0,1,1.2158-.88,4.07,4.07,0,0,1,1.6318-.3125,3.9816,3.9816,0,0,1,1.6963.336,3.292,3.292,0,0,1,1.1846.9121,3.9482,3.9482,0,0,1,.6953,1.3359,5.5472,5.5472,0,0,1,.2324,1.624v.6719H380.125v.2071a2.0408,2.0408,0,0,0,.5127,1.4531,1.9811,1.9811,0,0,0,1.5205.5478,2.2639,2.2639,0,0,0,1.2559-.3174,3.59,3.59,0,0,0,.8711-.81l1.1044,1.2363a3.4324,3.4324,0,0,1-1.3994,1.1309A4.878,4.878,0,0,1,381.9336,197.7832Zm-.0322-7.2a1.6423,1.6423,0,0,0-1.2959.5439,2.05,2.05,0,0,0-.4805,1.4082v.128h3.4238V192.52a2.1878,2.1878,0,0,0-.4238-1.4A1.4669,1.4669,0,0,0,381.9014,190.583Z"/><path d="M387.4863,197.5908v-8.3516h2.0469v1.7276h.08a2.7087,2.7087,0,0,1,.248-.6475,1.9949,1.9949,0,0,1,.44-.5527,2.1329,2.1329,0,0,1,.6474-.3838,2.4425,2.4425,0,0,1,.8731-.1436h.4472v1.9356h-.64a3.2043,3.2043,0,0,0-1.5684.3047,1.0561,1.0561,0,0,0-.5283.9912v5.12Z"/><path d="M393.7734,189.2392h2.0479v1.376h.0635a2.1072,2.1072,0,0,1,.8486-1.1445,2.5309,2.5309,0,0,1,1.4561-.4239,2.8534,2.8534,0,0,1,2.4394,1.128,5.3214,5.3214,0,0,1,.84,3.2246,5.391,5.391,0,0,1-.84,3.248,2.8467,2.8467,0,0,1-2.4394,1.1358,2.46,2.46,0,0,1-1.4483-.4326,2.23,2.23,0,0,1-.8564-1.1514h-.0635v4.5918h-2.0479Zm3.76,6.8477a1.699,1.699,0,0,0,1.2969-.5283,1.9963,1.9963,0,0,0,.4951-1.4239v-1.4394a2.0281,2.0281,0,0,0-.4951-1.4326,1.69,1.69,0,0,0-1.2969-.5352,1.9759,1.9759,0,0,0-1.2236.3672,1.1655,1.1655,0,0,0-.4883.9766v2.6562a1.1673,1.1673,0,0,0,.4883,1.0078A2.04,2.04,0,0,0,397.5332,196.0869Z"/><path d="M403.373,197.5908v-8.3516h2.0489v1.7276h.08a2.6268,2.6268,0,0,1,.248-.6475,1.9732,1.9732,0,0,1,.44-.5527,2.1382,2.1382,0,0,1,.6484-.3838,2.4311,2.4311,0,0,1,.8711-.1436h.4482v1.9356h-.64a3.2043,3.2043,0,0,0-1.5684.3047,1.0554,1.0554,0,0,0-.5273.9912v5.12Z"/><path d="M410.6855,188.0234a1.2419,1.2419,0,0,1-.92-.2881,1.0107,1.0107,0,0,1-.2812-.7363v-.32a1.0084,1.0084,0,0,1,.2812-.7354,1.6,1.6,0,0,1,1.8321,0,.9972.9972,0,0,1,.2871.7354v.32a1,1,0,0,1-.2871.7363A1.2507,1.2507,0,0,1,410.6855,188.0234Zm-1.0244,1.2158h2.0479v8.3516h-2.0479Z"/><path d="M416.8125,197.7832a4.4737,4.4737,0,0,1-2.0156-.4082,4.6189,4.6189,0,0,1-1.44-1.128l1.2481-1.2158a3.7953,3.7953,0,0,0,1.0166.832,2.5932,2.5932,0,0,0,1.2715.3038,1.7438,1.7438,0,0,0,1.0644-.2559.8441.8441,0,0,0,.3282-.7041.7607.7607,0,0,0-.2325-.584,1.4792,1.4792,0,0,0-.792-.2959l-.832-.1123a3.9614,3.9614,0,0,1-2.0723-.7754,2.1634,2.1634,0,0,1-.7119-1.7519,2.5891,2.5891,0,0,1,.2246-1.0967,2.3065,2.3065,0,0,1,.64-.832,2.9216,2.9216,0,0,1,1-.5274,4.3137,4.3137,0,0,1,1.3037-.1846,5.943,5.943,0,0,1,1.08.0879,3.9573,3.9573,0,0,1,.8554.2559,3.3576,3.3576,0,0,1,.7051.416,6.64,6.64,0,0,1,.6231.5527l-1.1992,1.1993a3.1826,3.1826,0,0,0-.8809-.64,2.4768,2.4768,0,0,0-1.1191-.2558,1.5441,1.5441,0,0,0-.9688.24.7651.7651,0,0,0-.2949.624.7933.7933,0,0,0,.2471.6318,1.7145,1.7145,0,0,0,.8408.3116l.8476.1123q2.7042.3837,2.7032,2.4638a2.4763,2.4763,0,0,1-.2481,1.1123,2.527,2.527,0,0,1-.6953.8643,3.2864,3.2864,0,0,1-1.08.56A4.67,4.67,0,0,1,416.8125,197.7832Z"/><path d="M425.4375,197.7832a4.1647,4.1647,0,0,1-1.6563-.3125,3.4178,3.4178,0,0,1-1.2324-.88,3.916,3.916,0,0,1-.7754-1.376,6.1929,6.1929,0,0,1-.0078-3.6074,3.9116,3.9116,0,0,1,.76-1.3682,3.36,3.36,0,0,1,1.2148-.88,4.0748,4.0748,0,0,1,1.6328-.3125,3.9774,3.9774,0,0,1,1.6954.336,3.2754,3.2754,0,0,1,1.1845.9121,3.9325,3.9325,0,0,1,.6963,1.3359,5.5472,5.5472,0,0,1,.2324,1.624v.6719h-5.5527v.2071a2.04,2.04,0,0,0,.5117,1.4531,1.9825,1.9825,0,0,0,1.52.5478,2.2614,2.2614,0,0,0,1.2559-.3174,3.5756,3.5756,0,0,0,.8721-.81l1.1035,1.2363a3.4331,3.4331,0,0,1-1.3994,1.1309A4.8773,4.8773,0,0,1,425.4375,197.7832Zm-.0332-7.2a1.64,1.64,0,0,0-1.2949.5439,2.05,2.05,0,0,0-.4805,1.4082v.128h3.4238V192.52a2.1878,2.1878,0,0,0-.4238-1.4A1.47,1.47,0,0,0,425.4043,190.583Z"/><path d="M434.8926,197.5908v-11.168h5.0234a3.6856,3.6856,0,0,1,1.3848.2481,2.9469,2.9469,0,0,1,1.0478.7041,3.0092,3.0092,0,0,1,.6553,1.0957,4.5513,4.5513,0,0,1,0,2.8242,3.0091,3.0091,0,0,1-.6553,1.0879,2.9223,2.9223,0,0,1-1.0478.7041,3.6679,3.6679,0,0,1-1.3848.248h-2.9121v4.2559Zm2.1113-6.08h2.7207a1.3537,1.3537,0,0,0,.96-.3281,1.216,1.216,0,0,0,.3525-.9356v-.7363a1.1921,1.1921,0,0,0-.3525-.9277,1.377,1.377,0,0,0-.96-.32h-2.7207Z"/><path d="M448.748,192.5351l-1.4882,1.76v3.2959h-2.1114v-11.168H447.26v5.5039h.08l1.584-2.0957,2.7686-3.4082h2.4326l-3.8887,4.6563,4.208,6.5117h-2.5117Z"/><path d="M459.7559,197.7832a5.26,5.26,0,0,1-1.9922-.36,3.992,3.992,0,0,1-1.52-1.08,4.88,4.88,0,0,1-.9677-1.7841,8.23,8.23,0,0,1-.336-2.4717,8.5543,8.5543,0,0,1,.336-2.5039,5.1077,5.1077,0,0,1,.9677-1.84,4.1137,4.1137,0,0,1,1.52-1.1279,4.9772,4.9772,0,0,1,1.9922-.3838,4.517,4.517,0,0,1,2.4961.64,4.3915,4.3915,0,0,1,1.5839,1.9355l-1.8076.96a2.5428,2.5428,0,0,0-.7842-1.208,2.2451,2.2451,0,0,0-1.4882-.4551,2.3614,2.3614,0,0,0-1.8789.8,3.2971,3.2971,0,0,0-.6973,2.2392v1.7608a3.2278,3.2278,0,0,0,.6973,2.2314,2.3948,2.3948,0,0,0,1.8789.7764,2.3,2.3,0,0,0,1.5449-.5117,2.96,2.96,0,0,0,.8711-1.2647l1.7129,1.0078a4.9252,4.9252,0,0,1-1.6162,1.9444A4.3229,4.3229,0,0,1,459.7559,197.7832Z"/><path d="M469.1641,197.7832a5.3,5.3,0,0,1-2.44-.5127,5.6688,5.6688,0,0,1-1.7207-1.3467l1.4238-1.3779a4.0821,4.0821,0,0,0,1.2891,1.0156,3.5225,3.5225,0,0,0,1.5762.35,2.2221,2.2221,0,0,0,1.4707-.4209,1.4094,1.4094,0,0,0,.4961-1.1348,1.2831,1.2831,0,0,0-.3194-.9052,2.1512,2.1512,0,0,0-1.2-.5079l-1.0556-.1591q-3.3442-.5289-3.3448-3.252a3.2054,3.2054,0,0,1,.2813-1.3613,2.8891,2.8891,0,0,1,.8066-1.042,3.7692,3.7692,0,0,1,1.2725-.665,5.6791,5.6791,0,0,1,1.6885-.2315,5.4168,5.4168,0,0,1,2.207.417,4.3377,4.3377,0,0,1,1.6172,1.2334l-1.44,1.3633a3.3424,3.3424,0,0,0-1.0088-.8252,3.1319,3.1319,0,0,0-1.4873-.3164,2.2732,2.2732,0,0,0-1.3682.3408,1.2994,1.2994,0,0,0-.0879,1.8955,2.5947,2.5947,0,0,0,1.1836.4434l1.041.1924a4.7791,4.7791,0,0,1,2.5039,1.081,2.8723,2.8723,0,0,1,.8076,2.1709,3.6224,3.6224,0,0,1-.28,1.4492,3.1264,3.1264,0,0,1-.8164,1.1211,3.6955,3.6955,0,0,1-1.3116.7285A5.6857,5.6857,0,0,1,469.1641,197.7832Z"/><path d="M483.9961,194.6787h-2.5273l-.5127,2.9121h-1.36l.4961-2.9121h-1.7441v-1.3115h1.9843l.4483-2.72h-1.7276v-1.3125H481.02l.4961-2.9121h1.36l-.5117,2.9121h2.5439l.4961-2.9121h1.3594l-.4961,2.9121h1.7441v1.3125h-1.9834l-.4638,2.72h1.7441v1.3115H485.34l-.5117,2.9121h-1.3437Zm.208-1.3115.48-2.72h-2.5274l-.48,2.72Z"/><path d="M489.8838,197.5908v-1.7119h3.0713v-7.9356h-.1436l-2.4316,2.88-1.3115-1.1045,2.7675-3.2959H495.02v9.4561H497.58v1.7119Z"/><path d="M499.4844,197.5908v-1.7119h3.0713v-7.9356h-.1436l-2.4316,2.88-1.3125-1.1045,2.7675-3.2959h3.1836v9.4561H507.18v1.7119Z"/><rect class="cls-11" x="231" y="16.3818" width="365" height="145"/><path d="M269.4678,41.3413v-8.376h5.52v1.4038h-3.936v2.0283h3.48v1.4038h-3.48v2.1363h3.936v1.4038Z"/><path d="M276.5718,41.3413V35.0771h1.5356v1.044h.06a2.0044,2.0044,0,0,1,.6059-.8457,1.7491,1.7491,0,0,1,1.146-.3423,1.8066,1.8066,0,0,1,1.4883.6362,2.8109,2.8109,0,0,1,.5161,1.812v3.96h-1.5361V37.5371a1.7342,1.7342,0,0,0-.24-1.0078.9069.9069,0,0,0-.792-.336,1.6138,1.6138,0,0,0-.4619.0659,1.3,1.3,0,0,0-.396.1919.9959.9959,0,0,0-.2818.312.8556.8556,0,0,0-.1084.438v4.14Z"/><path d="M286.1,41.4853a3.1556,3.1556,0,0,1-1.2358-.228,2.3848,2.3848,0,0,1-.9063-.66A2.9684,2.9684,0,0,1,283.4,39.559a4.485,4.485,0,0,1-.1924-1.3618,4.4278,4.4278,0,0,1,.1924-1.3559,2.9153,2.9153,0,0,1,.5576-1.0259,2.417,2.417,0,0,1,.9063-.6543,3.1538,3.1538,0,0,1,1.2358-.228,2.7249,2.7249,0,0,1,1.5659.42,2.3561,2.3561,0,0,1,.8941,1.1636l-1.26.5644a1.31,1.31,0,0,0-.4019-.6543,1.1692,1.1692,0,0,0-.7983-.2578,1.15,1.15,0,0,0-.9658.4077,1.6909,1.6909,0,0,0-.3179,1.0684v1.14a1.6613,1.6613,0,0,0,.3179,1.062,1.1564,1.1564,0,0,0,.9658.4024,1.1975,1.1975,0,0,0,.8521-.2822,1.9317,1.9317,0,0,0,.4682-.7022l1.1758.564a2.4583,2.4583,0,0,1-.9478,1.2422A2.78,2.78,0,0,1,286.1,41.4853Z"/><path d="M289.7837,41.3413V35.0771h1.5356v1.2964h.06a1.9948,1.9948,0,0,1,.186-.4863,1.4939,1.4939,0,0,1,.33-.4141,1.58,1.58,0,0,1,.4858-.2876,1.8172,1.8172,0,0,1,.6543-.1084h.336v1.4522h-.48a2.4111,2.4111,0,0,0-1.1763.228.7926.7926,0,0,0-.396.7441v3.84Z"/><path d="M298.4355,35.0771h1.44l-2.52,7.38a3.1734,3.1734,0,0,1-.27.582,1.4462,1.4462,0,0,1-.354.4019,1.3359,1.3359,0,0,1-.4917.228,2.8012,2.8012,0,0,1-.6723.0718h-.9238V42.5053h1.1279l.2881-.8745-2.2442-6.5537h1.524l1.0922,3.3052.4078,1.5806h.0722l.4322-1.5806Z"/><path d="M300.8833,35.0771h1.5356v1.0322h.0484a1.5735,1.5735,0,0,1,.6357-.8579,1.8979,1.8979,0,0,1,1.0923-.3183,2.1405,2.1405,0,0,1,1.83.8462,3.99,3.99,0,0,1,.63,2.4179,4.0413,4.0413,0,0,1-.63,2.4361,2.1339,2.1339,0,0,1-1.83.852,1.8427,1.8427,0,0,1-1.0864-.3242,1.6739,1.6739,0,0,1-.6416-.8638h-.0484v3.4439h-1.5356Zm2.82,5.1362a1.2722,1.2722,0,0,0,.9722-.396,1.4985,1.4985,0,0,0,.3716-1.0678v-1.08a1.52,1.52,0,0,0-.3716-1.0742,1.263,1.263,0,0,0-.9722-.4019,1.4806,1.4806,0,0,0-.9179.2759.8722.8722,0,0,0-.3663.7319v1.9922a.875.875,0,0,0,.3663.7559A1.5266,1.5266,0,0,0,303.7031,40.2133Z"/><path d="M309.9673,41.3413a1.6355,1.6355,0,0,1-1.2061-.4131,1.5914,1.5914,0,0,1-.414-1.1792V36.3134h-.9243V35.0771h.48a.5738.5738,0,0,0,.4742-.1616.7858.7858,0,0,0,.1259-.4863V33.3613h1.38v1.7158h1.2842v1.2363h-1.2842v3.792h1.1885v1.2359Z"/><path d="M313.2671,34.1655a.9329.9329,0,0,1-.69-.2163.76.76,0,0,1-.21-.5518v-.24a.761.761,0,0,1,.21-.5518,1.1993,1.1993,0,0,1,1.3741,0,.7481.7481,0,0,1,.2163.5518v.24a.7473.7473,0,0,1-.2163.5518A.9358.9358,0,0,1,313.2671,34.1655Zm-.7676.9116h1.5357v6.2642H312.5Z"/><path d="M318.2949,41.4853a3.0463,3.0463,0,0,1-1.206-.228,2.4981,2.4981,0,0,1-.9121-.66,3.02,3.02,0,0,1-.5821-1.0381,4.2472,4.2472,0,0,1-.2041-1.3618,4.1933,4.1933,0,0,1,.2041-1.3559,2.9677,2.9677,0,0,1,.5821-1.0259,2.5336,2.5336,0,0,1,.9121-.6543,3.0445,3.0445,0,0,1,1.206-.228,3.0891,3.0891,0,0,1,1.2119.228,2.5222,2.5222,0,0,1,.918.6543,2.9659,2.9659,0,0,1,.582,1.0259,4.2042,4.2042,0,0,1,.2041,1.3559,4.2583,4.2583,0,0,1-.2041,1.3618,3.0185,3.0185,0,0,1-.582,1.0381,2.4871,2.4871,0,0,1-.918.66A3.0909,3.0909,0,0,1,318.2949,41.4853Zm0-1.2358a1.2506,1.2506,0,0,0,.96-.3721,1.5445,1.5445,0,0,0,.3481-1.0923v-1.164a1.5244,1.5244,0,0,0-.3481-1.08,1.2506,1.2506,0,0,0-.96-.3721,1.2346,1.2346,0,0,0-.9482.3721,1.5239,1.5239,0,0,0-.3477,1.08v1.164a1.544,1.544,0,0,0,.3477,1.0923A1.2346,1.2346,0,0,0,318.2949,40.25Z"/><path d="M322.5669,41.3413V35.0771h1.5356v1.044h.06a2.0038,2.0038,0,0,1,.606-.8457,1.7489,1.7489,0,0,1,1.146-.3423,1.8065,1.8065,0,0,1,1.4882.6362,2.8109,2.8109,0,0,1,.5161,1.812v3.96h-1.5361V37.5371a1.7342,1.7342,0,0,0-.24-1.0078.9068.9068,0,0,0-.792-.336,1.6138,1.6138,0,0,0-.4619.0659,1.3,1.3,0,0,0-.396.1919.9971.9971,0,0,0-.2818.312.8556.8556,0,0,0-.1084.438v4.14Z"/><path d="M328.7949,43.1533l3.4439-10.6919h1.2841l-3.4438,10.6919Z"/><path d="M334.9624,32.9653h3.0483a3.9854,3.9854,0,0,1,1.482.2642,3.0215,3.0215,0,0,1,1.14.7856,3.5811,3.5811,0,0,1,.7324,1.3081,6.6223,6.6223,0,0,1,0,3.66,3.582,3.582,0,0,1-.7324,1.3081,3.0237,3.0237,0,0,1-1.14.7856,3.9854,3.9854,0,0,1-1.482.2642h-3.0483Zm3.0483,6.9722a1.9058,1.9058,0,0,0,1.41-.522,2.1814,2.1814,0,0,0,.522-1.6021v-1.32a2.1811,2.1811,0,0,0-.522-1.602,1.9055,1.9055,0,0,0-1.41-.522h-1.4643v5.5684Z"/><path d="M345.6665,41.4853a3.1276,3.1276,0,0,1-1.2417-.2339,2.5686,2.5686,0,0,1-.9243-.66,2.9513,2.9513,0,0,1-.582-1.0323,4.65,4.65,0,0,1-.0059-2.7055,2.9393,2.9393,0,0,1,.57-1.0264,2.5293,2.5293,0,0,1,.9121-.66,3.0472,3.0472,0,0,1,1.2242-.2343,2.9761,2.9761,0,0,1,1.2719.2524,2.4584,2.4584,0,0,1,.8882.6836,2.96,2.96,0,0,1,.522,1.002,4.1631,4.1631,0,0,1,.1738,1.2182v.5039h-4.1641v.1548a1.531,1.531,0,0,0,.3843,1.09,1.4854,1.4854,0,0,0,1.14.4112,1.6981,1.6981,0,0,0,.9419-.2383,2.6787,2.6787,0,0,0,.6543-.6079l.8281.9267a2.5785,2.5785,0,0,1-1.05.8487A3.6566,3.6566,0,0,1,345.6665,41.4853Zm-.0239-5.4a1.2313,1.2313,0,0,0-.9722.4077,1.5388,1.5388,0,0,0-.36,1.0562v.0962h2.5679v-.1084a1.6425,1.6425,0,0,0-.3179-1.05A1.1007,1.1007,0,0,0,345.6426,36.0854Z"/><path d="M352.3022,41.4853a3.1563,3.1563,0,0,1-1.2358-.228,2.3837,2.3837,0,0,1-.9062-.66,2.9686,2.9686,0,0,1-.5577-1.0381,4.4851,4.4851,0,0,1-.1923-1.3618,4.4279,4.4279,0,0,1,.1923-1.3559,2.9155,2.9155,0,0,1,.5577-1.0259,2.4158,2.4158,0,0,1,.9062-.6543,3.1545,3.1545,0,0,1,1.2358-.228,2.7251,2.7251,0,0,1,1.566.42,2.3559,2.3559,0,0,1,.894,1.1636l-1.26.5644a1.31,1.31,0,0,0-.4018-.6543,1.17,1.17,0,0,0-.7984-.2578,1.15,1.15,0,0,0-.9658.4077,1.6909,1.6909,0,0,0-.3178,1.0684v1.14a1.6612,1.6612,0,0,0,.3178,1.062,1.1564,1.1564,0,0,0,.9658.4024,1.1975,1.1975,0,0,0,.8521-.2822,1.9319,1.9319,0,0,0,.4683-.7022l1.1757.564a2.4587,2.4587,0,0,1-.9477,1.2422A2.78,2.78,0,0,1,352.3022,41.4853Z"/><path d="M355.9868,41.3413V35.0771h1.5357v1.2964h.06a1.9992,1.9992,0,0,1,.1861-.4863,1.4917,1.4917,0,0,1,.33-.4141,1.5807,1.5807,0,0,1,.4859-.2876,1.8169,1.8169,0,0,1,.6543-.1084h.3359v1.4522h-.48a2.41,2.41,0,0,0-1.1762.228.7924.7924,0,0,0-.396.7441v3.84Z"/><path d="M364.6382,35.0771h1.44l-2.52,7.38a3.1734,3.1734,0,0,1-.27.582,1.4494,1.4494,0,0,1-.354.4019,1.3359,1.3359,0,0,1-.4917.228,2.8021,2.8021,0,0,1-.6724.0718h-.9238V42.5053h1.1279l.2881-.8745-2.2441-6.5537h1.5239l1.0923,3.3052.4077,1.5806h.0723l.4321-1.5806Z"/><path d="M367.0864,35.0771h1.5357v1.0322h.0483a1.5732,1.5732,0,0,1,.6358-.8579,1.8976,1.8976,0,0,1,1.0922-.3183,2.1405,2.1405,0,0,1,1.83.8462,3.99,3.99,0,0,1,.63,2.4179,4.0413,4.0413,0,0,1-.63,2.4361,2.1339,2.1339,0,0,1-1.83.852,1.8427,1.8427,0,0,1-1.0864-.3242,1.6739,1.6739,0,0,1-.6416-.8638h-.0483v3.4439h-1.5357Zm2.82,5.1362a1.2719,1.2719,0,0,0,.9722-.396A1.4985,1.4985,0,0,0,371.25,38.75v-1.08a1.52,1.52,0,0,0-.3716-1.0742,1.2627,1.2627,0,0,0-.9722-.4019,1.4806,1.4806,0,0,0-.9179.2759.8721.8721,0,0,0-.3662.7319v1.9922a.8749.8749,0,0,0,.3662.7559A1.5266,1.5266,0,0,0,369.9062,40.2133Z"/><path d="M376.17,41.3413a1.6347,1.6347,0,0,1-1.2055-.4131,1.5911,1.5911,0,0,1-.4141-1.1792V36.3134h-.9243V35.0771h.48a.5737.5737,0,0,0,.4741-.1616.7851.7851,0,0,0,.126-.4863V33.3613h1.38v1.7158H377.37v1.2363h-1.2842v3.792h1.1885v1.2359Z"/><path d="M379.47,34.1655a.9353.9353,0,0,1-.69-.2163.7632.7632,0,0,1-.209-.5518v-.24a.764.764,0,0,1,.209-.5518,1.2007,1.2007,0,0,1,1.375,0,.7493.7493,0,0,1,.2158.5518v.24a.7485.7485,0,0,1-.2158.5518A.9386.9386,0,0,1,379.47,34.1655Zm-.7676.9116h1.5362v6.2642h-1.5362Z"/><path d="M384.498,41.4853a3.048,3.048,0,0,1-1.206-.228,2.494,2.494,0,0,1-.9121-.66,3.01,3.01,0,0,1-.582-1.0381,4.2583,4.2583,0,0,1-.2041-1.3618,4.2042,4.2042,0,0,1,.2041-1.3559,2.9579,2.9579,0,0,1,.582-1.0259,2.5294,2.5294,0,0,1,.9121-.6543,3.0463,3.0463,0,0,1,1.206-.228,3.0935,3.0935,0,0,1,1.212.228,2.5185,2.5185,0,0,1,.9179.6543,2.96,2.96,0,0,1,.5821,1.0259,4.2069,4.2069,0,0,1,.2041,1.3559,4.2611,4.2611,0,0,1-.2041,1.3618,3.0122,3.0122,0,0,1-.5821,1.0381,2.4835,2.4835,0,0,1-.9179.66A3.0953,3.0953,0,0,1,384.498,41.4853Zm0-1.2358a1.249,1.249,0,0,0,.96-.3721,1.5465,1.5465,0,0,0,.3486-1.0923v-1.164a1.5264,1.5264,0,0,0-.3486-1.08,1.249,1.249,0,0,0-.96-.3721,1.234,1.234,0,0,0-.9482.3721,1.5266,1.5266,0,0,0-.3477,1.08v1.164a1.5467,1.5467,0,0,0,.3477,1.0923A1.234,1.234,0,0,0,384.498,40.25Z"/><path d="M388.77,41.3413V35.0771h1.5362v1.044h.06a2.0092,2.0092,0,0,1,.6065-.8457,1.7484,1.7484,0,0,1,1.1455-.3423,1.8055,1.8055,0,0,1,1.4883.6362,2.8116,2.8116,0,0,1,.5166,1.812v3.96h-1.5362V37.5371a1.7335,1.7335,0,0,0-.24-1.0078.9068.9068,0,0,0-.792-.336,1.6169,1.6169,0,0,0-.4619.0659,1.3039,1.3039,0,0,0-.3965.1919,1.0125,1.0125,0,0,0-.2812.312.8546.8546,0,0,0-.1084.438v4.14Z"/><path d="M262.9463,47.3652h3.0483a3.9854,3.9854,0,0,1,1.482.2642,3.0215,3.0215,0,0,1,1.14.7856,3.5811,3.5811,0,0,1,.7324,1.3081,6.6248,6.6248,0,0,1,0,3.66,3.582,3.582,0,0,1-.7324,1.3081,3.0237,3.0237,0,0,1-1.14.7856,3.9854,3.9854,0,0,1-1.482.2642h-3.0483Zm3.0483,6.9722a1.9056,1.9056,0,0,0,1.41-.522,2.1816,2.1816,0,0,0,.522-1.6021v-1.32a2.1815,2.1815,0,0,0-.522-1.602,1.9056,1.9056,0,0,0-1.41-.522H264.53v5.5684Z"/><path d="M271.8862,48.5654a.9324.9324,0,0,1-.69-.2163.76.76,0,0,1-.21-.5518v-.24a.7606.7606,0,0,1,.21-.5518,1.1991,1.1991,0,0,1,1.374,0,.7477.7477,0,0,1,.2163.5518v.24a.7469.7469,0,0,1-.2163.5518A.9356.9356,0,0,1,271.8862,48.5654Zm-.7675.9116h1.5356v6.2642h-1.5356Z"/><path d="M280.082,56.269a2.0643,2.0643,0,0,1-.1738.87,1.4787,1.4787,0,0,1-.57.63,3.0947,3.0947,0,0,1-1.02.3843,8.8885,8.8885,0,0,1-2.8677.03,3.2166,3.2166,0,0,1-.9063-.2881,1.203,1.203,0,0,1-.51-.4619,1.2414,1.2414,0,0,1-.1563-.6241,1.111,1.111,0,0,1,.294-.8217,1.4457,1.4457,0,0,1,.8222-.378V55.477a1.0179,1.0179,0,0,1-.5942-.3784,1.0865,1.0865,0,0,1-.21-.667.9117.9117,0,0,1,.0962-.4263.9965.9965,0,0,1,.2578-.3188,1.5981,1.5981,0,0,1,.3663-.2222,2.1913,2.1913,0,0,1,.4316-.1382v-.0483a1.8769,1.8769,0,0,1-.8579-.7314,2.0706,2.0706,0,0,1-.2818-1.0909,1.9523,1.9523,0,0,1,.66-1.5405,2.8371,2.8371,0,0,1,1.9321-.582,4.5149,4.5149,0,0,1,.57.0361,2.55,2.55,0,0,1,.5224.12v-.2041a.7955.7955,0,0,1,.8877-.9121h.9722v1.1763h-1.332v.168a1.8168,1.8168,0,0,1,.7319.72,2.1107,2.1107,0,0,1,.24,1.02,1.9323,1.9323,0,0,1-.6543,1.5244,2.8551,2.8551,0,0,1-1.938.5757,3.787,3.787,0,0,1-.96-.1079,1.0243,1.0243,0,0,0-.312.2222.4752.4752,0,0,0-.1319.3417q0,.4682.816.4683h1.68a2.4485,2.4485,0,0,1,1.6739.4736A1.6858,1.6858,0,0,1,280.082,56.269Zm-1.44.18a.5385.5385,0,0,0-.24-.4678,1.5038,1.5038,0,0,0-.8277-.1684H275.438a.7657.7657,0,0,0-.3242.6484.6463.6463,0,0,0,.3.564,1.8948,1.8948,0,0,0,1.02.2036h.768a2.3524,2.3524,0,0,0,1.0977-.1919A.6308.6308,0,0,0,278.6421,56.4492Zm-1.8482-3.9483q1.128,0,1.128-.9541v-.2031q0-.9543-1.128-.9546t-1.1279.9546v.2031Q275.666,52.5013,276.7939,52.5009Z"/><path d="M281.7378,48.5654a.9324.9324,0,0,1-.69-.2163.76.76,0,0,1-.21-.5518v-.24a.7606.7606,0,0,1,.21-.5518,1.1991,1.1991,0,0,1,1.374,0,.7481.7481,0,0,1,.2163.5518v.24a.7473.7473,0,0,1-.2163.5518A.9358.9358,0,0,1,281.7378,48.5654Zm-.7676.9116h1.5357v6.2642H280.97Z"/><path d="M286.2383,55.7412a1.6355,1.6355,0,0,1-1.2061-.4131,1.5914,1.5914,0,0,1-.414-1.1792V50.7133h-.9244V49.477h.48a.5734.5734,0,0,0,.4741-.1616.7851.7851,0,0,0,.126-.4863V47.7612h1.38V49.477h1.2842v1.2363h-1.2842v3.792h1.1885v1.2359Z"/><path d="M293.3779,55.7412a1.0765,1.0765,0,0,1-.7978-.294,1.3488,1.3488,0,0,1-.3662-.7861h-.0723a1.4694,1.4694,0,0,1-.6357.918,2.1684,2.1684,0,0,1-1.188.3061,2.0291,2.0291,0,0,1-1.4761-.5024,1.7836,1.7836,0,0,1-.5161-1.34,1.6228,1.6228,0,0,1,.6963-1.4414,3.5068,3.5068,0,0,1,1.98-.4721H292.07v-.4561a1.1335,1.1335,0,0,0-.2759-.8159,1.1833,1.1833,0,0,0-.8881-.2881,1.4726,1.4726,0,0,0-.87.2339,2.302,2.302,0,0,0-.5576.5581l-.9121-.8208a2.6546,2.6546,0,0,1,.9238-.8755,3.0413,3.0413,0,0,1,1.524-.332,2.8642,2.8642,0,0,1,1.9321.5747,2.0738,2.0738,0,0,1,.66,1.6523v2.9453h.624v1.2359Zm-2.5439-.9722a1.6148,1.6148,0,0,0,.876-.2261.7393.7393,0,0,0,.36-.6674v-.8223h-.9839q-1.2,0-1.2.7627v.2026a.6615.6615,0,0,0,.2461.5659A1.1526,1.1526,0,0,0,290.834,54.769Z"/><path d="M297.0137,55.7412a1.5291,1.5291,0,0,1-1.1641-.396,1.5681,1.5681,0,0,1-.3716-1.1162V46.8613h1.5357v7.644h.8281v1.2359Z"/><path d="M303.89,55.8852a3.3569,3.3569,0,0,1-1.5117-.3061,3.4818,3.4818,0,0,1-1.08-.8457l.936-.9121a2.8375,2.8375,0,0,0,.7617.624,1.9478,1.9478,0,0,0,.9541.228,1.3084,1.3084,0,0,0,.7979-.1919.6334.6334,0,0,0,.2461-.5283.57.57,0,0,0-.1739-.438,1.11,1.11,0,0,0-.5942-.2222l-.624-.084a2.9681,2.9681,0,0,1-1.5537-.5815,1.6214,1.6214,0,0,1-.5342-1.3144,1.9512,1.9512,0,0,1,.1679-.8218,1.744,1.744,0,0,1,.48-.624,2.204,2.204,0,0,1,.75-.396,3.2529,3.2529,0,0,1,.978-.1382,4.4478,4.4478,0,0,1,.81.0664,2.942,2.942,0,0,1,.6421.1919,2.4849,2.4849,0,0,1,.5278.312,5.0138,5.0138,0,0,1,.4683.414l-.9.9a2.3772,2.3772,0,0,0-.66-.48,1.8532,1.8532,0,0,0-.84-.1919,1.1554,1.1554,0,0,0-.7256.18.5733.5733,0,0,0-.2222.4682.5941.5941,0,0,0,.1861.4737,1.2862,1.2862,0,0,0,.63.2343l.6362.084q2.0274.2878,2.0278,1.8477a1.8624,1.8624,0,0,1-.186.834,1.9018,1.9018,0,0,1-.522.6484,2.4752,2.4752,0,0,1-.81.42A3.5242,3.5242,0,0,1,303.89,55.8852Z"/><path d="M308.5933,48.5654a.9327.9327,0,0,1-.69-.2163.76.76,0,0,1-.21-.5518v-.24a.761.761,0,0,1,.21-.5518,1.1991,1.1991,0,0,1,1.374,0,.7478.7478,0,0,1,.2164.5518v.24a.747.747,0,0,1-.2164.5518A.9354.9354,0,0,1,308.5933,48.5654Zm-.7676.9116h1.5356v6.2642h-1.5356Z"/><path d="M316.79,56.269a2.0643,2.0643,0,0,1-.1739.87,1.4787,1.4787,0,0,1-.57.63,3.0947,3.0947,0,0,1-1.02.3843,8.8885,8.8885,0,0,1-2.8677.03,3.2159,3.2159,0,0,1-.9062-.2881,1.2027,1.2027,0,0,1-.51-.4619,1.2414,1.2414,0,0,1-.1563-.6241,1.111,1.111,0,0,1,.294-.8217,1.4457,1.4457,0,0,1,.8223-.378V55.477a1.0181,1.0181,0,0,1-.5943-.3784,1.0865,1.0865,0,0,1-.21-.667.9105.9105,0,0,1,.0962-.4263.9952.9952,0,0,1,.2578-.3188,1.5953,1.5953,0,0,1,.3662-.2222,2.1935,2.1935,0,0,1,.4316-.1382v-.0483a1.8769,1.8769,0,0,1-.8579-.7314,2.0705,2.0705,0,0,1-.2817-1.0909,1.9522,1.9522,0,0,1,.66-1.5405,2.8373,2.8373,0,0,1,1.9322-.582,4.5134,4.5134,0,0,1,.57.0361,2.5526,2.5526,0,0,1,.5225.12v-.2041a.7954.7954,0,0,1,.8876-.9121h.9722v1.1763h-1.332v.168a1.8162,1.8162,0,0,1,.7319.72,2.1107,2.1107,0,0,1,.24,1.02,1.9326,1.9326,0,0,1-.6543,1.5244,2.8555,2.8555,0,0,1-1.938.5757,3.7873,3.7873,0,0,1-.96-.1079,1.0243,1.0243,0,0,0-.312.2222.4751.4751,0,0,0-.1318.3417q0,.4682.8159.4683h1.68a2.4484,2.4484,0,0,1,1.6738.4736A1.6859,1.6859,0,0,1,316.79,56.269Zm-1.44.18a.5385.5385,0,0,0-.24-.4678,1.5038,1.5038,0,0,0-.8277-.1684h-2.1362a.7657.7657,0,0,0-.3242.6484.6463.6463,0,0,0,.3.564,1.8948,1.8948,0,0,0,1.02.2036h.7681a2.3522,2.3522,0,0,0,1.0976-.1919A.6306.6306,0,0,0,315.35,56.4492Zm-1.8481-3.9483q1.1278,0,1.1279-.9541v-.2031q0-.9543-1.1279-.9546t-1.128.9546v.2031Q312.3735,52.5013,313.5015,52.5009Z"/><path d="M317.6772,55.7412V49.477h1.5357v1.044h.06a2.0046,2.0046,0,0,1,.606-.8457,1.7491,1.7491,0,0,1,1.146-.3423,1.8067,1.8067,0,0,1,1.4883.6362,2.8115,2.8115,0,0,1,.5161,1.812v3.96h-1.5361V51.937a1.7334,1.7334,0,0,0-.24-1.0078.9066.9066,0,0,0-.792-.336,1.6149,1.6149,0,0,0-.4619.0659,1.3023,1.3023,0,0,0-.396.1919.9961.9961,0,0,0-.2817.3121.854.854,0,0,0-.1084.4379v4.14Z"/><path d="M325.501,48.5654a.9329.9329,0,0,1-.69-.2163.76.76,0,0,1-.21-.5518v-.24a.761.761,0,0,1,.21-.5518,1.1993,1.1993,0,0,1,1.3741,0,.7481.7481,0,0,1,.2163.5518v.24a.7473.7473,0,0,1-.2163.5518A.9358.9358,0,0,1,325.501,48.5654Zm-.7676.9116h1.5356v6.2642h-1.5356Z"/><path d="M328.0454,55.7412V49.477h1.5357v1.044h.06a2.0038,2.0038,0,0,1,.606-.8457,1.7489,1.7489,0,0,1,1.146-.3423,1.8065,1.8065,0,0,1,1.4882.6362,2.8109,2.8109,0,0,1,.5162,1.812v3.96h-1.5362V51.937a1.7342,1.7342,0,0,0-.24-1.0078.9068.9068,0,0,0-.792-.336,1.6138,1.6138,0,0,0-.4619.0659,1.3,1.3,0,0,0-.396.1919.9948.9948,0,0,0-.2817.3121.854.854,0,0,0-.1084.4379v4.14Z"/><path d="M340.7529,56.269a2.0643,2.0643,0,0,1-.1738.87,1.4793,1.4793,0,0,1-.57.63,3.0947,3.0947,0,0,1-1.02.3843,8.8885,8.8885,0,0,1-2.8677.03,3.2166,3.2166,0,0,1-.9063-.2881,1.203,1.203,0,0,1-.51-.4619,1.2414,1.2414,0,0,1-.1563-.6241,1.111,1.111,0,0,1,.294-.8217,1.4457,1.4457,0,0,1,.8222-.378V55.477a1.0179,1.0179,0,0,1-.5942-.3784,1.0865,1.0865,0,0,1-.21-.667.9117.9117,0,0,1,.0962-.4263.9965.9965,0,0,1,.2578-.3188,1.5981,1.5981,0,0,1,.3663-.2222,2.1913,2.1913,0,0,1,.4316-.1382v-.0483a1.8769,1.8769,0,0,1-.8579-.7314,2.0706,2.0706,0,0,1-.2818-1.0909,1.9523,1.9523,0,0,1,.66-1.5405,2.8371,2.8371,0,0,1,1.9321-.582,4.5149,4.5149,0,0,1,.57.0361,2.55,2.55,0,0,1,.5224.12v-.2041a.7955.7955,0,0,1,.8877-.9121h.9722v1.1763h-1.332v.168a1.8168,1.8168,0,0,1,.7319.72,2.1107,2.1107,0,0,1,.24,1.02,1.9323,1.9323,0,0,1-.6543,1.5244,2.8551,2.8551,0,0,1-1.938.5757,3.787,3.787,0,0,1-.96-.1079,1.0243,1.0243,0,0,0-.312.2222.4752.4752,0,0,0-.1319.3417q0,.4682.816.4683h1.68a2.4485,2.4485,0,0,1,1.6739.4736A1.6858,1.6858,0,0,1,340.7529,56.269Zm-1.44.18a.5385.5385,0,0,0-.24-.4678,1.5038,1.5038,0,0,0-.8277-.1684h-2.1362a.7657.7657,0,0,0-.3242.6484.6463.6463,0,0,0,.3.564,1.8948,1.8948,0,0,0,1.02.2036h.768a2.3524,2.3524,0,0,0,1.0977-.1919A.6308.6308,0,0,0,339.313,56.4492Zm-1.8482-3.9483q1.128,0,1.128-.9541v-.2031q0-.9543-1.128-.9546t-1.1279.9546v.2031Q336.3369,52.5013,337.4648,52.5009Z"/><path d="M341.0771,57.5532l3.4439-10.6919h1.2842l-3.4439,10.6919Z"/><path d="M348.4927,55.7412l-2.0879-6.2642h1.5117l.8765,2.7.6118,2.2319h.084l.6118-2.2319.852-2.7h1.4639l-2.1,6.2642Z"/><path d="M357.937,55.7412a1.0765,1.0765,0,0,1-.7978-.294,1.3494,1.3494,0,0,1-.3663-.7861h-.0722a1.4691,1.4691,0,0,1-.6358.918,2.168,2.168,0,0,1-1.1879.3061,2.0291,2.0291,0,0,1-1.4761-.5024,1.7832,1.7832,0,0,1-.5161-1.34,1.6228,1.6228,0,0,1,.6963-1.4414,3.5066,3.5066,0,0,1,1.98-.4721h1.0679v-.4561a1.1335,1.1335,0,0,0-.2759-.8159,1.1837,1.1837,0,0,0-.8882-.2881,1.4722,1.4722,0,0,0-.87.2339,2.302,2.302,0,0,0-.5576.5581l-.9121-.8208a2.6529,2.6529,0,0,1,.9238-.8755,3.0413,3.0413,0,0,1,1.524-.332,2.8644,2.8644,0,0,1,1.9321.5747,2.0737,2.0737,0,0,1,.66,1.6523v2.9453h.6241v1.2359Zm-2.5439-.9722a1.6142,1.6142,0,0,0,.8759-.2261.7392.7392,0,0,0,.36-.6674v-.8223h-.9839q-1.2,0-1.2.7627v.2026a.6615.6615,0,0,0,.2461.5659A1.1526,1.1526,0,0,0,355.3931,54.769Z"/><path d="M361.5728,55.7412a1.529,1.529,0,0,1-1.1641-.396,1.5677,1.5677,0,0,1-.3716-1.1162V46.8613h1.5357v7.644h.8281v1.2359Z"/><path d="M364.3325,48.5654a.9324.9324,0,0,1-.69-.2163.76.76,0,0,1-.21-.5518v-.24a.7606.7606,0,0,1,.21-.5518,1.1991,1.1991,0,0,1,1.374,0,.7481.7481,0,0,1,.2163.5518v.24a.7473.7473,0,0,1-.2163.5518A.9356.9356,0,0,1,364.3325,48.5654Zm-.7676.9116h1.5357v6.2642h-1.5357Z"/><path d="M370.7642,54.6972h-.06a1.6007,1.6007,0,0,1-.6357.8638,1.87,1.87,0,0,1-1.0923.3242,2.1217,2.1217,0,0,1-1.8179-.852,4.0448,4.0448,0,0,1-.63-2.4361,3.9936,3.9936,0,0,1,.63-2.4179,2.1282,2.1282,0,0,1,1.8179-.8462,1.8981,1.8981,0,0,1,1.0923.3183,1.5735,1.5735,0,0,1,.6357.8579h.06V46.8613H372.3v8.88h-1.5361Zm-1.2959-.084a1.5547,1.5547,0,0,0,.9238-.2641.87.87,0,0,0,.3721-.7559V51.601a.8679.8679,0,0,0-.3721-.7319,1.5075,1.5075,0,0,0-.9238-.2759,1.243,1.243,0,0,0-.9659.4019,1.5338,1.5338,0,0,0-.3662,1.0742v1.08a1.5119,1.5119,0,0,0,.3662,1.0679A1.2522,1.2522,0,0,0,369.4683,54.6132Z"/><path d="M378.6846,55.7412a1.0758,1.0758,0,0,1-.7979-.294,1.3494,1.3494,0,0,1-.3662-.7861h-.0723a1.469,1.469,0,0,1-.6357.918,2.1693,2.1693,0,0,1-1.188.3061,2.03,2.03,0,0,1-1.4761-.5024,1.7836,1.7836,0,0,1-.5161-1.34,1.623,1.623,0,0,1,.6963-1.4414,3.507,3.507,0,0,1,1.98-.4721h1.0684v-.4561a1.1337,1.1337,0,0,0-.2764-.8159,1.1832,1.1832,0,0,0-.8877-.2881,1.4726,1.4726,0,0,0-.8706.2339,2.3,2.3,0,0,0-.5576.5581l-.9121-.8208a2.6529,2.6529,0,0,1,.9238-.8755,3.0411,3.0411,0,0,1,1.5239-.332,2.8631,2.8631,0,0,1,1.9317.5747,2.0721,2.0721,0,0,1,.66,1.6523v2.9453h.625v1.2359Zm-2.544-.9722a1.6144,1.6144,0,0,0,.876-.2261.7406.7406,0,0,0,.36-.6674v-.8223h-.9844q-1.2,0-1.2.7627v.2026a.6612.6612,0,0,0,.2461.5659A1.152,1.152,0,0,0,376.1406,54.769Z"/><path d="M382.6924,55.7412a1.6347,1.6347,0,0,1-1.2061-.4131,1.5914,1.5914,0,0,1-.414-1.1792V50.7133h-.9239V49.477h.48a.5733.5733,0,0,0,.4737-.1616.7855.7855,0,0,0,.1269-.4863V47.7612h1.3789V49.477h1.2852v1.2363h-1.2852v3.792h1.19v1.2359Z"/><path d="M385.9922,48.5654a.9322.9322,0,0,1-.69-.2163.76.76,0,0,1-.21-.5518v-.24a.7606.7606,0,0,1,.21-.5518,1.1991,1.1991,0,0,1,1.374,0,.7465.7465,0,0,1,.2168.5518v.24a.7457.7457,0,0,1-.2168.5518A.9361.9361,0,0,1,385.9922,48.5654Zm-.7676.9116H386.76v6.2642h-1.5352Z"/><path d="M391.02,55.8852a3.043,3.043,0,0,1-1.205-.228,2.4951,2.4951,0,0,1-.9122-.66,3.0137,3.0137,0,0,1-.582-1.0381,4.2328,4.2328,0,0,1-.2051-1.3618,4.179,4.179,0,0,1,.2051-1.3559,2.9611,2.9611,0,0,1,.582-1.0259,2.5306,2.5306,0,0,1,.9122-.6543,3.0413,3.0413,0,0,1,1.205-.228,3.0942,3.0942,0,0,1,1.2129.228,2.5273,2.5273,0,0,1,.918.6543,2.9755,2.9755,0,0,1,.582,1.0259,4.2325,4.2325,0,0,1,.2031,1.3559,4.287,4.287,0,0,1-.2031,1.3618,3.0284,3.0284,0,0,1-.582,1.0381,2.492,2.492,0,0,1-.918.66A3.096,3.096,0,0,1,391.02,55.8852Zm0-1.2358a1.2529,1.2529,0,0,0,.961-.3721,1.5467,1.5467,0,0,0,.3476-1.0923V52.021a1.5266,1.5266,0,0,0-.3476-1.08,1.2529,1.2529,0,0,0-.961-.3721,1.2317,1.2317,0,0,0-.9472.3721,1.5216,1.5216,0,0,0-.3477,1.08v1.164a1.5417,1.5417,0,0,0,.3477,1.0923A1.2317,1.2317,0,0,0,391.02,54.6494Z"/><path d="M395.292,55.7412V49.477h1.5361v1.044h.06a2.0012,2.0012,0,0,1,.6064-.8457,1.7467,1.7467,0,0,1,1.1455-.3423,1.8079,1.8079,0,0,1,1.4883.6362,2.811,2.811,0,0,1,.5166,1.812v3.96h-1.5371V51.937a1.7342,1.7342,0,0,0-.24-1.0078.906.906,0,0,0-.791-.336,1.6233,1.6233,0,0,0-.4629.0659,1.3086,1.3086,0,0,0-.3955.1919,1.004,1.004,0,0,0-.2823.3121.8546.8546,0,0,0-.1074.4379v4.14Z"/><g id="Database"><path class="cls-12" d="M540.8213,77.8553H493.1787c-3.2891,0-5.9554,2.2854-5.9554,5.1046v56.15c0,2.8192,2.6663,5.1046,5.9554,5.1046h47.6426c3.2891,0,5.9554-2.2854,5.9554-5.1046V82.96C546.7767,80.1407,544.11,77.8553,540.8213,77.8553Z"/><line class="cls-13" x1="487" y1="99.6986" x2="547" y2="99.6986"/><line class="cls-13" x1="487.9677" y1="122.3714" x2="547" y2="122.3714"/><circle cx="497.6452" cy="87.906" r="3"/><circle cx="497.6452" cy="111.035" r="3"/><circle cx="497.6452" cy="133.1963" r="3"/></g><g id="application"><g id="application-2" data-name="application"><path class="cls-14" d="M365.5,143.3818h-60v-56h60Zm-60-50h60m-44,0v50"/><path d="M361.5,90.3818a1,1,0,1,1-1-1A1,1,0,0,1,361.5,90.3818Zm-5-1a1,1,0,1,0,1,1A1,1,0,0,0,356.5,89.3818Zm-4,0a1,1,0,1,0,1,1A1,1,0,0,0,352.5,89.3818Z"/></g></g><g id="application-3" data-name="application"><g id="application-4" data-name="application"><path class="cls-14" d="M354.5,133.3818h-60v-56h60Zm-60-50h60m-44,0v50"/><path d="M350.5,80.3818a1,1,0,1,1-1-1A1,1,0,0,1,350.5,80.3818Zm-5-1a1,1,0,1,0,1,1A1,1,0,0,0,345.5,79.3818Zm-4,0a1,1,0,1,0,1,1A1,1,0,0,0,341.5,79.3818Z"/></g></g><line class="cls-15" x1="157" y1="90.8818" x2="254" y2="90.8818"/><line class="cls-15" x1="254" y1="90.8818" x2="254" y2="104.8818"/><line class="cls-15" x1="254" y1="104.8818" x2="284.259" y2="104.8818"/><polygon class="cls-10" points="283.092 108.871 290 104.882 283.092 100.893 283.092 108.871"/><line class="cls-15" x1="369" y1="104.8818" x2="448" y2="104.8818"/><line class="cls-15" x1="448" y1="104.8818" x2="448" y2="118.8818"/><line class="cls-15" x1="448" y1="118.8818" x2="478.259" y2="118.8818"/><polygon class="cls-10" points="477.092 122.871 484 118.882 477.092 114.893 477.092 122.871"/></svg>