<svg xmlns="http://www.w3.org/2000/svg" viewBox="0 0 750 650"><defs><style>.cls-1{fill:#e3f6ff;}.cls-2{fill:#f2f4f8;}.cls-3,.cls-4,.cls-49,.cls-5{fill:none;}.cls-3,.cls-4,.cls-5{stroke:#9fa5ad;}.cls-3,.cls-4,.cls-49,.cls-5,.cls-6{stroke-linejoin:round;}.cls-4{stroke-dasharray:2 2;}.cls-5{stroke-dasharray:1.97 1.97;}.cls-48,.cls-6{fill:#fff;}.cls-6{stroke:#333;}.cls-16,.cls-20,.cls-37,.cls-38,.cls-7{font-size:9px;}.cls-22,.cls-27,.cls-29,.cls-38,.cls-7,.cls-8{fill:#333;}.cls-20,.cls-29,.cls-30,.cls-32,.cls-7,.cls-8{font-family:IBMPlexSans, IBM Plex Sans;}.cls-22,.cls-27,.cls-29,.cls-30,.cls-32,.cls-48,.cls-8{font-size:12px;}.cls-9{letter-spacing:-0.01em;}.cls-10{letter-spacing:-0.01em;}.cls-11{letter-spacing:0em;}.cls-12{letter-spacing:-0.02em;}.cls-13{letter-spacing:-0.02em;}.cls-14{letter-spacing:0em;}.cls-15{letter-spacing:0em;}.cls-16,.cls-37,.cls-38,.cls-48{font-family:IBMPlexMono, IBM Plex Mono;}.cls-17{letter-spacing:-0.03em;}.cls-18{letter-spacing:0em;}.cls-19{letter-spacing:-0.01em;}.cls-20,.cls-30,.cls-37,.cls-47{fill:#0072c3;}.cls-21{letter-spacing:-0.01em;}.cls-22,.cls-27,.cls-40{font-family:IBMPlexSans-SemiBold, IBM Plex Sans;}.cls-22,.cls-27,.cls-33,.cls-40{font-weight:700;}.cls-23,.cls-27{letter-spacing:-0.01em;}.cls-24{letter-spacing:0em;}.cls-25{letter-spacing:-0.01em;}.cls-26{letter-spacing:-0.01em;}.cls-28{letter-spacing:-0.02em;}.cls-29,.cls-32{letter-spacing:-0.03em;}.cls-31{letter-spacing:-0.01em;}.cls-33{font-family:IBMPlexMono-Bold, IBM Plex Mono;}.cls-34{letter-spacing:0em;}.cls-35{letter-spacing:0em;}.cls-36{letter-spacing:-0.02em;}.cls-39{letter-spacing:-0.01em;}.cls-40{font-size:14px;}.cls-41{letter-spacing:-0.01em;}.cls-42{letter-spacing:0em;}.cls-43{letter-spacing:0em;}.cls-44{letter-spacing:-0.01em;}.cls-45{letter-spacing:-0.02em;}.cls-46{letter-spacing:-0.01em;}.cls-49{stroke:#50565b;stroke-linecap:round;}.cls-50{fill:#50565b;}</style></defs><title>rotate_master_key</title><g id="Layer_1" data-name="Layer 1"><path class="cls-1" d="M104,166.83H291.8a0,0,0,0,1,0,0v73a0,0,0,0,1,0,0H104a4,4,0,0,1-4-4v-65A4,4,0,0,1,104,166.83Z"/><path class="cls-1" d="M104,311.83H291.8a0,0,0,0,1,0,0v73a0,0,0,0,1,0,0H104a4,4,0,0,1-4-4v-65A4,4,0,0,1,104,311.83Z"/><path class="cls-1" d="M104,457.83H291.8a0,0,0,0,1,0,0v73a0,0,0,0,1,0,0H104a4,4,0,0,1-4-4v-65A4,4,0,0,1,104,457.83Z"/><rect class="cls-2" x="312.3" y="75.33" width="208" height="130"/><polyline class="cls-3" points="520.3 204.32 520.3 205.32 519.3 205.32"/><line class="cls-4" x1="517.3" y1="205.33" x2="314.3" y2="205.33"/><polyline class="cls-3" points="313.3 205.32 312.3 205.32 312.3 204.32"/><line class="cls-5" x1="312.3" y1="202.36" x2="312.3" y2="77.31"/><polyline class="cls-3" points="312.3 76.33 312.3 75.33 313.3 75.33"/><line class="cls-4" x1="315.3" y1="75.33" x2="518.3" y2="75.33"/><polyline class="cls-3" points="519.3 75.33 520.3 75.33 520.3 76.33"/><line class="cls-5" x1="520.3" y1="78.29" x2="520.3" y2="203.34"/><rect class="cls-6" x="325.3" y="106.81" width="180.88" height="28"/><rect class="cls-6" x="325.3" y="164.33" width="181" height="28"/><rect class="cls-2" x="312.3" y="220.33" width="208" height="130"/><polyline class="cls-3" points="520.3 349.32 520.3 350.32 519.3 350.32"/><line class="cls-4" x1="517.3" y1="350.33" x2="314.3" y2="350.33"/><polyline class="cls-3" points="313.3 350.32 312.3 350.32 312.3 349.32"/><line class="cls-5" x1="312.3" y1="347.36" x2="312.3" y2="222.31"/><polyline class="cls-3" points="312.3 221.32 312.3 220.32 313.3 220.32"/><line class="cls-4" x1="315.3" y1="220.33" x2="518.3" y2="220.33"/><polyline class="cls-3" points="519.3 220.32 520.3 220.32 520.3 221.32"/><line class="cls-5" x1="520.3" y1="223.29" x2="520.3" y2="348.34"/><rect class="cls-6" x="325.3" y="251.81" width="180.88" height="28"/><rect class="cls-6" x="325.3" y="309.33" width="181" height="28"/><rect class="cls-2" x="312.3" y="365.33" width="208" height="130"/><polyline class="cls-3" points="520.3 494.32 520.3 495.32 519.3 495.32"/><line class="cls-4" x1="517.3" y1="495.33" x2="314.3" y2="495.33"/><polyline class="cls-3" points="313.3 495.32 312.3 495.32 312.3 494.32"/><line class="cls-5" x1="312.3" y1="492.36" x2="312.3" y2="367.31"/><polyline class="cls-3" points="312.3 366.32 312.3 365.32 313.3 365.32"/><line class="cls-4" x1="315.3" y1="365.33" x2="518.3" y2="365.33"/><polyline class="cls-3" points="519.3 365.32 520.3 365.32 520.3 366.32"/><line class="cls-5" x1="520.3" y1="368.29" x2="520.3" y2="493.34"/><rect class="cls-6" x="325.3" y="396.81" width="180.88" height="28"/><rect class="cls-6" x="325.3" y="454.33" width="181" height="28"/><rect class="cls-2" x="312.3" y="510.33" width="208" height="130"/><polyline class="cls-3" points="520.3 639.33 520.3 640.33 519.3 640.33"/><line class="cls-4" x1="517.3" y1="640.33" x2="314.3" y2="640.33"/><polyline class="cls-3" points="313.3 640.33 312.3 640.33 312.3 639.33"/><line class="cls-5" x1="312.3" y1="637.36" x2="312.3" y2="512.31"/><polyline class="cls-3" points="312.3 511.32 312.3 510.32 313.3 510.32"/><line class="cls-4" x1="315.3" y1="510.33" x2="518.3" y2="510.33"/><polyline class="cls-3" points="519.3 510.32 520.3 510.32 520.3 511.32"/><line class="cls-5" x1="520.3" y1="513.29" x2="520.3" y2="638.34"/><rect class="cls-6" x="325.3" y="541.81" width="180.88" height="28"/><rect class="cls-6" x="325.3" y="599.33" width="181" height="28"/></g><g id="Text"><text class="cls-7" transform="translate(330.34 118.74)">00000000000000000000000000000000<tspan x="0" y="10.8">00000000000000000000000000000000</tspan></text><text class="cls-8" transform="translate(325.3 96.33)">N<tspan class="cls-9" x="8.48" y="0">e</tspan><tspan x="15.01" y="0">w Ma</tspan><tspan class="cls-10" x="43.21" y="0">s</tspan><tspan class="cls-11" x="48.97" y="0">t</tspan><tspan x="53.14" y="0">er </tspan><tspan class="cls-12" x="66.96" y="0">K</tspan><tspan class="cls-9" x="74.27" y="0">e</tspan><tspan x="80.8" y="0">y </tspan><tspan class="cls-13" x="89.62" y="0">R</tspan><tspan x="97.12" y="0">egi</tspan><tspan class="cls-10" x="113.04" y="0">s</tspan><tspan class="cls-14" x="118.8" y="0">t</tspan><tspan class="cls-15" x="122.96" y="0">er</tspan></text><text class="cls-16" transform="translate(330.22 176.26)">uvwxyz1234567890uvwxyz1234567890<tspan x="0" y="10.8">uvwxyz1234567890uvwxyz1234567890</tspan></text><text class="cls-8" transform="translate(325.3 154.84)">Cur<tspan class="cls-9" x="18.67" y="0">r</tspan><tspan x="23.02" y="0">ent Ma</tspan><tspan class="cls-10" x="59.62" y="0">s</tspan><tspan class="cls-11" x="65.38" y="0">t</tspan><tspan x="69.54" y="0">er </tspan><tspan class="cls-17" x="83.36" y="0">K</tspan><tspan class="cls-18" x="90.67" y="0">e</tspan><tspan x="97.2" y="0">y </tspan><tspan class="cls-13" x="106.02" y="0">R</tspan><tspan x="113.52" y="0">egi</tspan><tspan class="cls-19" x="129.44" y="0">s</tspan><tspan class="cls-11" x="135.2" y="0">t</tspan><tspan x="139.37" y="0">er</tspan></text><text class="cls-8" transform="translate(325.3 241.33)">N<tspan class="cls-9" x="8.48" y="0">e</tspan><tspan x="15.01" y="0">w Ma</tspan><tspan class="cls-10" x="43.21" y="0">s</tspan><tspan class="cls-11" x="48.97" y="0">t</tspan><tspan x="53.14" y="0">er </tspan><tspan class="cls-12" x="66.96" y="0">K</tspan><tspan class="cls-9" x="74.27" y="0">e</tspan><tspan x="80.8" y="0">y </tspan><tspan class="cls-13" x="89.62" y="0">R</tspan><tspan x="97.12" y="0">egi</tspan><tspan class="cls-10" x="113.04" y="0">s</tspan><tspan class="cls-14" x="118.8" y="0">t</tspan><tspan class="cls-15" x="122.96" y="0">er</tspan></text><text class="cls-16" transform="translate(330.22 321.26)">uvwxyz1234567890uvwxyz1234567890<tspan x="0" y="10.8">uvwxyz1234567890uvwxyz1234567890</tspan></text><text class="cls-8" transform="translate(325.3 299.84)">Cur<tspan class="cls-9" x="18.67" y="0">r</tspan><tspan x="23.02" y="0">ent Ma</tspan><tspan class="cls-10" x="59.62" y="0">s</tspan><tspan class="cls-11" x="65.38" y="0">t</tspan><tspan x="69.54" y="0">er </tspan><tspan class="cls-17" x="83.36" y="0">K</tspan><tspan class="cls-18" x="90.67" y="0">e</tspan><tspan x="97.2" y="0">y </tspan><tspan class="cls-13" x="106.02" y="0">R</tspan><tspan x="113.52" y="0">egi</tspan><tspan class="cls-19" x="129.44" y="0">s</tspan><tspan class="cls-11" x="135.2" y="0">t</tspan><tspan x="139.37" y="0">er</tspan></text><text class="cls-8" transform="translate(325.3 386.33)">N<tspan class="cls-9" x="8.48" y="0">e</tspan><tspan x="15.01" y="0">w Ma</tspan><tspan class="cls-10" x="43.21" y="0">s</tspan><tspan class="cls-11" x="48.97" y="0">t</tspan><tspan x="53.14" y="0">er </tspan><tspan class="cls-12" x="66.96" y="0">K</tspan><tspan class="cls-9" x="74.27" y="0">e</tspan><tspan x="80.8" y="0">y </tspan><tspan class="cls-13" x="89.62" y="0">R</tspan><tspan x="97.12" y="0">egi</tspan><tspan class="cls-10" x="113.04" y="0">s</tspan><tspan class="cls-14" x="118.8" y="0">t</tspan><tspan class="cls-15" x="122.96" y="0">er</tspan></text><text class="cls-16" transform="translate(330.22 466.26)">uvwxyz1234567890uvwxyz1234567890<tspan x="0" y="10.8">uvwxyz1234567890uvwxyz1234567890</tspan></text><text class="cls-8" transform="translate(325.3 444.84)">Cur<tspan class="cls-9" x="18.67" y="0">r</tspan><tspan x="23.02" y="0">ent Ma</tspan><tspan class="cls-10" x="59.62" y="0">s</tspan><tspan class="cls-11" x="65.38" y="0">t</tspan><tspan x="69.54" y="0">er </tspan><tspan class="cls-17" x="83.36" y="0">K</tspan><tspan class="cls-18" x="90.67" y="0">e</tspan><tspan x="97.2" y="0">y </tspan><tspan class="cls-13" x="106.02" y="0">R</tspan><tspan x="113.52" y="0">egi</tspan><tspan class="cls-19" x="129.44" y="0">s</tspan><tspan class="cls-11" x="135.2" y="0">t</tspan><tspan x="139.37" y="0">er</tspan></text><text class="cls-20" transform="translate(330.34 553.74)">00000000000000000000000000000000<tspan x="0" y="10.8">00000000000000000000000000000000</tspan></text><text class="cls-8" transform="translate(325.3 531.33)">N<tspan class="cls-9" x="8.48" y="0">e</tspan><tspan x="15.01" y="0">w Ma</tspan><tspan class="cls-10" x="43.21" y="0">s</tspan><tspan class="cls-11" x="48.97" y="0">t</tspan><tspan x="53.14" y="0">er </tspan><tspan class="cls-12" x="66.96" y="0">K</tspan><tspan class="cls-9" x="74.27" y="0">e</tspan><tspan x="80.8" y="0">y </tspan><tspan class="cls-13" x="89.62" y="0">R</tspan><tspan x="97.12" y="0">egi</tspan><tspan class="cls-10" x="113.04" y="0">s</tspan><tspan class="cls-14" x="118.8" y="0">t</tspan><tspan class="cls-15" x="122.96" y="0">er</tspan></text><text class="cls-8" transform="translate(325.3 589.84)">Cur<tspan class="cls-9" x="18.67" y="0">r</tspan><tspan x="23.02" y="0">ent Ma</tspan><tspan class="cls-10" x="59.62" y="0">s</tspan><tspan class="cls-11" x="65.38" y="0">t</tspan><tspan x="69.54" y="0">er </tspan><tspan class="cls-17" x="83.36" y="0">K</tspan><tspan class="cls-18" x="90.67" y="0">e</tspan><tspan x="97.2" y="0">y </tspan><tspan class="cls-13" x="106.02" y="0">R</tspan><tspan x="113.52" y="0">egi</tspan><tspan class="cls-19" x="129.44" y="0">s</tspan><tspan class="cls-11" x="135.2" y="0">t</tspan><tspan x="139.37" y="0">er</tspan></text><text class="cls-8" transform="translate(541.97 124.99)">Em<tspan class="cls-21" x="17.47" y="0">p</tspan><tspan x="24.36" y="0">ty</tspan></text><text class="cls-22" transform="translate(541.97 57.99)"><tspan class="cls-23">R</tspan><tspan class="cls-24" x="7.79" y="0">egi</tspan><tspan class="cls-25" x="24.34" y="0">s</tspan><tspan class="cls-11" x="30.23" y="0">t</tspan><tspan class="cls-24" x="34.67" y="0">er </tspan><tspan class="cls-26" x="48.91" y="0">s</tspan><tspan class="cls-24" x="54.8" y="0">t</tspan><tspan class="cls-11" x="59.29" y="0">at</tspan><tspan x="70.39" y="0">e</tspan></text><text class="cls-27" transform="translate(389.97 57.99)">R<tspan class="cls-24" x="7.79" y="0">egi</tspan><tspan class="cls-25" x="24.34" y="0">s</tspan><tspan class="cls-11" x="30.23" y="0">t</tspan><tspan class="cls-24" x="34.67" y="0">er</tspan></text><text class="cls-22" transform="translate(155.97 57.99)"><tspan class="cls-11">St</tspan><tspan x="11.72" y="0">ep</tspan><tspan class="cls-28" x="25.62" y="0">/</tspan><tspan x="30.62" y="0">Command</tspan></text><text class="cls-29" transform="translate(541.97 182.99)">V<tspan class="cls-24" x="6.95" y="0">alid</tspan></text><text class="cls-30" transform="translate(541.97 268.99)"><tspan class="cls-12">F</tspan><tspan class="cls-24" x="6.41" y="0">u</tspan><tspan class="cls-18" x="13.22" y="0">l</tspan><tspan x="16.43" y="0">l un</tspan><tspan class="cls-21" x="36.16" y="0">c</tspan><tspan x="42.12" y="0">ommi</tspan><tspan class="cls-31" x="72.79" y="0">t</tspan><tspan class="cls-11" x="76.9" y="0">t</tspan><tspan x="81.06" y="0">ed</tspan></text><text class="cls-29" transform="translate(541.97 325.99)">V<tspan class="cls-24" x="6.95" y="0">alid</tspan></text><text class="cls-30" transform="translate(541.97 413.99)"><tspan class="cls-12">F</tspan><tspan class="cls-24" x="6.41" y="0">u</tspan><tspan class="cls-18" x="13.22" y="0">l</tspan><tspan x="16.43" y="0">l </tspan><tspan class="cls-21" x="22.52" y="0">c</tspan><tspan class="cls-15" x="28.49" y="0">ommi</tspan><tspan class="cls-31" x="59.16" y="0">t</tspan><tspan class="cls-11" x="63.26" y="0">t</tspan><tspan x="67.43" y="0">ed</tspan></text><text class="cls-29" transform="translate(541.97 471.99)">V<tspan class="cls-24" x="6.95" y="0">alid</tspan></text><text class="cls-30" transform="translate(541.97 556.99)">Em<tspan class="cls-21" x="17.47" y="0">p</tspan><tspan x="24.36" y="0">ty</tspan></text><text class="cls-32" transform="translate(541.97 615.99)">V<tspan class="cls-24" x="6.95" y="0">alid</tspan></text><text class="cls-8" transform="translate(139.05 191.33)">Use <tspan class="cls-33" x="23.4" y="0">domain-mk-load</tspan><tspan class="cls-11"><tspan x="0" y="15.4">t</tspan><tspan class="cls-34" x="4.16" y="15.4">o load the n</tspan><tspan class="cls-9" x="67.16" y="15.4">e</tspan><tspan class="cls-35" x="73.69" y="15.4">w </tspan></tspan><tspan x="0" y="30.8">ma</tspan><tspan class="cls-10" x="16.88" y="30.8">s</tspan><tspan class="cls-11" x="22.64" y="30.8">t</tspan><tspan x="26.81" y="30.8">er </tspan><tspan class="cls-36" x="40.63" y="30.8">k</tspan><tspan class="cls-18" x="46.75" y="30.8">e</tspan><tspan x="53.28" y="30.8">y </tspan><tspan class="cls-9" x="62.1" y="30.8">r</tspan><tspan x="66.44" y="30.8">egi</tspan><tspan class="cls-19" x="82.37" y="30.8">s</tspan><tspan class="cls-11" x="88.13" y="30.8">t</tspan><tspan x="92.29" y="30.8">er</tspan></text><text class="cls-37" transform="translate(330.34 263.31)">1234567890abcdef1234567890abcdef<tspan x="0" y="10.8">1234567890abcdef1234567890abcdef</tspan></text><text class="cls-38" transform="translate(330.34 408.31)">1234567890abcdef1234567890abcdef<tspan x="0" y="10.8">1234567890abcdef1234567890abcdef</tspan></text><text class="cls-37" transform="translate(330.22 610.83)">1234567890abcdef1234567890abcdef<tspan x="0" y="10.8">1234567890abcdef1234567890abcdef</tspan></text><text class="cls-8" transform="translate(139.05 336.33)">Use <tspan class="cls-33" x="23.4" y="0">domain-mk-commit</tspan><tspan class="cls-11" x="0" y="15.4">t</tspan><tspan class="cls-34" x="4.16" y="15.4">o </tspan><tspan class="cls-21" x="13.72" y="15.4">c</tspan><tspan class="cls-35" x="19.68" y="15.4">ommit the n</tspan><tspan class="cls-9" x="84.66" y="15.4">e</tspan><tspan x="91.19" y="15.4">w </tspan><tspan x="0" y="30.8">ma</tspan><tspan class="cls-10" x="16.88" y="30.8">s</tspan><tspan class="cls-11" x="22.64" y="30.8">t</tspan><tspan x="26.81" y="30.8">er </tspan><tspan class="cls-36" x="40.63" y="30.8">k</tspan><tspan class="cls-18" x="46.75" y="30.8">e</tspan><tspan x="53.28" y="30.8">y </tspan><tspan class="cls-9" x="62.1" y="30.8">r</tspan><tspan x="66.44" y="30.8">egi</tspan><tspan class="cls-19" x="82.37" y="30.8">s</tspan><tspan class="cls-11" x="88.13" y="30.8">t</tspan><tspan x="92.29" y="30.8">er</tspan></text><text class="cls-8" transform="translate(139.05 475.33)">Use <tspan class="cls-33"><tspan x="0" y="15.4">cryptounit-mk-rotate</tspan></tspan><tspan class="cls-11" x="0" y="30.8">t</tspan><tspan class="cls-34" x="4.16" y="30.8">o </tspan><tspan class="cls-18" x="13.72" y="30.8">r</tspan><tspan class="cls-34" x="18.06" y="30.8">ota</tspan><tspan class="cls-11" x="35.4" y="30.8">t</tspan><tspan x="39.56" y="30.8">e and acti</tspan><tspan class="cls-39" x="91.66" y="30.8">v</tspan><tspan x="97.45" y="30.8">a</tspan><tspan class="cls-11" x="103.86" y="30.8">t</tspan><tspan x="108.02" y="30.8">e the </tspan><tspan x="0" y="46.2">ma</tspan><tspan class="cls-10" x="16.88" y="46.2">s</tspan><tspan class="cls-11" x="22.64" y="46.2">t</tspan><tspan x="26.81" y="46.2">er </tspan><tspan class="cls-36" x="40.63" y="46.2">k</tspan><tspan class="cls-18" x="46.75" y="46.2">e</tspan><tspan x="53.28" y="46.2">y</tspan></text><text class="cls-40" transform="translate(20 25)"><tspan class="cls-41">R</tspan><tspan class="cls-42" x="9.09" y="0">o</tspan><tspan x="16.91" y="0">t</tspan><tspan class="cls-43" x="22.15" y="0">a</tspan><tspan x="29.92" y="0">ting the ma</tspan><tspan class="cls-44" x="103.02" y="0">s</tspan><tspan class="cls-42" x="109.9" y="0">t</tspan><tspan x="115.08" y="0">er </tspan><tspan class="cls-45" x="131.7" y="0">k</tspan><tspan class="cls-46" x="139.23" y="0">e</tspan><tspan x="146.96" y="0">y</tspan></text><circle class="cls-47" cx="118.3" cy="203.33" r="8.5"/><text class="cls-48" transform="translate(114.7 206.91)">1</text><circle class="cls-47" cx="118.3" cy="348.33" r="8.5"/><text class="cls-48" transform="translate(114.7 351.91)">2</text><circle class="cls-47" cx="118.3" cy="494.33" r="8.5"/><text class="cls-48" transform="translate(114.7 497.91)">3</text></g><g id="Line"><line class="cls-49" x1="291.8" y1="141.08" x2="312.3" y2="141.08"/><line class="cls-49" x1="291.8" y1="141.08" x2="291.8" y2="265.58"/><line class="cls-49" x1="291.8" y1="265.83" x2="308.5" y2="265.83"/><polygon class="cls-50" points="307.62 268.82 312.8 265.82 307.62 262.83 307.62 268.82"/><line class="cls-49" x1="291.8" y1="286.08" x2="312.3" y2="286.08"/><line class="cls-49" x1="291.8" y1="286.08" x2="291.8" y2="410.58"/><line class="cls-49" x1="291.8" y1="410.83" x2="308.5" y2="410.83"/><polygon class="cls-50" points="307.62 413.82 312.8 410.82 307.62 407.83 307.62 413.82"/><line class="cls-49" x1="291.8" y1="432.08" x2="312.3" y2="432.08"/><line class="cls-49" x1="291.8" y1="432.08" x2="291.8" y2="556.58"/><line class="cls-49" x1="291.8" y1="556.83" x2="308.5" y2="556.83"/><polygon class="cls-50" points="307.62 559.82 312.8 556.83 307.62 553.83 307.62 559.82"/></g></svg>