<svg xmlns="http://www.w3.org/2000/svg" viewBox="0 0 750 250"><defs><style>.cls-1,.cls-11,.cls-18,.cls-2,.cls-21,.cls-22,.cls-3,.cls-4,.cls-9{fill:none;}.cls-1,.cls-2,.cls-3,.cls-4{stroke:#9fa5ad;}.cls-1,.cls-17,.cls-18,.cls-2,.cls-3,.cls-4,.cls-5,.cls-9{stroke-miterlimit:10;}.cls-2{stroke-dasharray:2 2;}.cls-3{stroke-dasharray:1.98 1.98;}.cls-4{stroke-dasharray:2.01 2.01;}.cls-5{fill:#f4f4f4;}.cls-11,.cls-12,.cls-13,.cls-17,.cls-18,.cls-20,.cls-5,.cls-6,.cls-7,.cls-8{stroke:#000;}.cls-21,.cls-5{stroke-dasharray:2;}.cls-6{fill:#00bab6;}.cls-11,.cls-12,.cls-17,.cls-18,.cls-21,.cls-22,.cls-6,.cls-7,.cls-8{stroke-linecap:round;}.cls-11,.cls-12,.cls-13,.cls-20,.cls-21,.cls-22,.cls-6,.cls-7,.cls-8{stroke-linejoin:round;}.cls-20,.cls-49,.cls-7{fill:#87eded;}.cls-8{fill:#20d5d2;}.cls-9{stroke:#50565b;stroke-width:2px;}.cls-10{fill:#50565b;}.cls-12,.cls-13,.cls-19{fill:#b3e6ff;}.cls-14,.cls-36{font-size:12px;}.cls-14,.cls-25{font-family:IBMPlexSans, IBM Plex Sans;}.cls-15{letter-spacing:-0.01em;}.cls-16{letter-spacing:0em;}.cls-17{fill:#fff;}.cls-21,.cls-22{stroke:#1193e8;}.cls-22{stroke-dasharray:2 2;}.cls-23{fill:#1193e8;}.cls-24{fill:#e3f6ff;}.cls-25{font-size:10px;}.cls-26{letter-spacing:-0.01em;}.cls-27{letter-spacing:0em;}.cls-28{letter-spacing:0em;}.cls-29{letter-spacing:0.01em;}.cls-30{letter-spacing:-0.01em;}.cls-31{letter-spacing:0em;}.cls-32{letter-spacing:0em;}.cls-33{letter-spacing:0em;}.cls-34{letter-spacing:0em;}.cls-35{letter-spacing:-0.01em;}.cls-36{font-family:IBMPlexSans-SemiBold, IBM Plex Sans;font-weight:700;}.cls-37{letter-spacing:0em;}.cls-38{letter-spacing:0.01em;}.cls-39{letter-spacing:0em;}.cls-40{letter-spacing:0em;}.cls-41{letter-spacing:0.01em;}.cls-42{letter-spacing:-0.01em;}.cls-43{letter-spacing:-0.01em;}.cls-44{letter-spacing:-0.02em;}.cls-45{letter-spacing:0em;}.cls-46{letter-spacing:-0.02em;}.cls-47{letter-spacing:-0.01em;}.cls-48{letter-spacing:-0.01em;}</style></defs><title>unwrapping-keys</title><g id="Layer_1" data-name="Layer 1"><polyline class="cls-1" points="661.5 188.59 661.5 189.59 660.5 189.59"/><line class="cls-2" x1="658.5" y1="189.59" x2="218.5" y2="189.59"/><polyline class="cls-1" points="217.5 189.59 216.5 189.59 216.5 188.59"/><line class="cls-3" x1="216.5" y1="186.62" x2="216.5" y2="17.58"/><polyline class="cls-1" points="216.5 16.59 216.5 15.59 217.5 15.59"/><line class="cls-2" x1="219.5" y1="15.59" x2="659.5" y2="15.59"/><polyline class="cls-1" points="660.5 15.59 661.5 15.59 661.5 16.59"/><line class="cls-3" x1="661.5" y1="18.57" x2="661.5" y2="187.61"/><polyline class="cls-1" points="195.23 188.59 195.23 189.59 194.23 189.59"/><line class="cls-4" x1="192.22" y1="189.59" x2="32.24" y2="189.59"/><polyline class="cls-1" points="31.23 189.59 30.23 189.59 30.23 188.59"/><line class="cls-3" x1="30.23" y1="186.62" x2="30.23" y2="17.58"/><polyline class="cls-1" points="30.23 16.59 30.23 15.59 31.23 15.59"/><line class="cls-4" x1="33.24" y1="15.59" x2="193.22" y2="15.59"/><polyline class="cls-1" points="194.23 15.59 195.23 15.59 195.23 16.59"/><line class="cls-3" x1="195.23" y1="18.57" x2="195.23" y2="187.61"/><rect class="cls-5" x="52.48" y="50.09" width="120.5" height="120"/><rect class="cls-5" x="237.5" y="49.59" width="254" height="120"/><rect class="cls-5" x="603.5" y="49.59" width="112" height="120"/><g id="gear"><path id="gear-2" data-name="gear" class="cls-6" d="M555.42,102.16l-.79,1.88,1.84,1.83-2.79,2.79-1.83-1.83-1.88.77v2.59H546v-2.58l-1.88-.78-1.83,1.83-2.79-2.79,1.83-1.83-.77-1.88H538V98.22h2.58l.79-1.87-1.84-1.83,2.79-2.79,1.83,1.82,1.88-.77V90.19H550v2.58l1.88.79,1.83-1.83,2.79,2.79-1.83,1.82.77,1.88H558v3.94ZM548,95.53a4.67,4.67,0,1,0,4.67,4.66A4.67,4.67,0,0,0,548,95.53Z"/></g><g id="gear-3" data-name="gear"><path id="gear-4" data-name="gear" class="cls-7" d="M544.42,84.16,543.63,86l1.84,1.83-2.79,2.79-1.83-1.83L539,89.6v2.59H535V89.61l-1.88-.78-1.83,1.83-2.79-2.79L530.36,86l-.77-1.88H527V80.22h2.58l.79-1.87-1.84-1.83,2.79-2.79,1.83,1.82,1.88-.77V72.19H539v2.58l1.88.79,1.83-1.83,2.79,2.79-1.83,1.82.77,1.88H547v3.94ZM537,77.53a4.67,4.67,0,1,0,4.67,4.66A4.67,4.67,0,0,0,537,77.53Z"/></g><g id="gear-5" data-name="gear"><path id="gear-6" data-name="gear" class="cls-8" d="M566.42,84.16,565.63,86l1.84,1.83-2.79,2.79-1.83-1.83L561,89.6v2.59H557V89.61l-1.88-.78-1.83,1.83-2.79-2.79L552.36,86l-.77-1.88H549V80.22h2.58l.79-1.87-1.84-1.83,2.79-2.79,1.83,1.82,1.88-.77V72.19H561v2.58l1.88.79,1.83-1.83,2.79,2.79-1.83,1.82.77,1.88H569v3.94ZM559,77.53a4.67,4.67,0,1,0,4.67,4.66A4.67,4.67,0,0,0,559,77.53Z"/></g><line class="cls-9" x1="481" y1="110.09" x2="516.26" y2="110.09"/><polygon class="cls-10" points="515.09 114.08 522 110.09 515.09 106.11 515.09 114.08"/><line class="cls-9" x1="574" y1="110.09" x2="609.26" y2="110.09"/><polygon class="cls-10" points="608.09 114.08 615 110.09 608.09 106.11 608.09 114.08"/><g id="add"><line class="cls-11" x1="354.5" y1="90.59" x2="364.5" y2="90.59"/><line class="cls-11" x1="359.5" y1="85.59" x2="359.5" y2="95.59"/></g><g id="key"><path class="cls-12" d="M110.75,95.41a11.69,11.69,0,1,1-6-5.22"/><circle cx="97.85" cy="103.76" r="2.5"/><polyline class="cls-13" points="104.75 90.19 121.24 73.7 127.41 73.7 127.41 79.02 117.04 89.39 113.34 89.41 113.34 92.82 110.75 95.41"/></g><text class="cls-14" transform="translate(71.97 143.59)"><tspan class="cls-15">W</tspan><tspan class="cls-16" x="10.57" y="0">r</tspan><tspan x="14.93" y="0">apped data</tspan></text><g id="Doc"><polygon class="cls-17" points="95.44 75.75 95.44 113.25 125.44 113.25 125.44 83.25 117.94 75.75 95.44 75.75"/><polyline class="cls-18" points="117.94 75.75 117.94 83.25 125.44 83.25"/><line class="cls-18" x1="101.44" y1="99" x2="114.57" y2="99"/><line class="cls-18" x1="101.44" y1="87.62" x2="119.44" y2="87.62"/><line class="cls-18" x1="101.44" y1="93.25" x2="119.44" y2="93.25"/></g><g id="lock"><g id="lock-2" data-name="lock"><rect class="cls-19" x="122.5" y="104.4" width="7" height="4"/><path class="cls-12" d="M134,114a8,8,0,1,1-8-8A8,8,0,0,1,134,114Zm-4-6.93V102a4,4,0,0,0-8,0v5.07m4,6.53v2.8"/><circle cx="126" cy="113.6" r="1.2"/></g></g><path class="cls-11" d="M118.09,115.25c-1.14-.59-2.3-1.25-3.49-2s-2.68-1.77-4-2.79c-.74-.56-1.48-1.14-2.22-1.75a73.65,73.65,0,0,1-5.59-5.06,74.88,74.88,0,0,1-5.31-5.89c-.71-.87-1.37-1.74-2-2.6-.34-.46-.66-.92-1-1.37-.54-.79-1.06-1.57-1.53-2.35-4.7-7.58-6.18-14.3-3.19-17.29,2.62-2.62,8.12-1.81,14.54,1.6"/></g><g id="key-2" data-name="key"><g id="key-3" data-name="key"><path class="cls-7" d="M296,94.13a11.67,11.67,0,1,1-.55-7.93"/><circle cx="281.02" cy="90.91" r="2.5"/><polyline class="cls-20" points="295.49 86.19 318.81 86.19 323.18 90.56 319.41 94.32 304.75 94.32 302.12 91.72 299.71 94.13 296.04 94.13"/></g><g id="key-4" data-name="key"><path class="cls-7" d="M427.64,90.79a11.69,11.69,0,1,1-6-5.22"/><circle cx="414.74" cy="99.13" r="2.5"/><polyline class="cls-20" points="421.63 85.57 438.13 69.08 444.3 69.08 444.3 74.4 433.93 84.77 430.23 84.78 430.23 88.19 427.64 90.79"/></g><g id="key-5" data-name="key"><path class="cls-12" d="M659.54,92.13A11.67,11.67,0,1,1,659,84.2"/><circle cx="644.52" cy="88.91" r="2.5"/><polyline class="cls-13" points="658.99 84.19 682.31 84.19 686.67 88.56 682.91 92.32 668.25 92.32 665.62 89.72 663.21 92.13 659.54 92.13"/></g><g id="key-6" data-name="key"><path class="cls-12" d="M423.75,87.61a11.69,11.69,0,1,1-6-5.22"/><circle cx="410.85" cy="95.95" r="2.5"/><polyline class="cls-13" points="417.75 82.39 434.24 65.89 440.41 65.89 440.41 71.22 430.04 81.58 426.34 81.6 426.34 85.01 423.75 87.61"/></g><line class="cls-21" x1="685" y1="170.09" x2="685" y2="233.59"/><line class="cls-21" x1="684.5" y1="233.59" x2="110.5" y2="233.59"/><line class="cls-22" x1="110.5" y1="233.59" x2="110.5" y2="182.9"/><polygon class="cls-23" points="113.49 183.78 110.5 178.59 107.51 183.78 113.49 183.78"/><path class="cls-24" d="M220,207.09H528a4,4,0,0,1,4,4v22a0,0,0,0,1,0,0H216a0,0,0,0,1,0,0v-22A4,4,0,0,1,220,207.09Z"/><text class="cls-25" transform="translate(251.21 224.18)">DEK <tspan class="cls-26" x="21.24" y="0">r</tspan><tspan class="cls-27" x="24.86" y="0">eturns </tspan><tspan class="cls-28" x="56.12" y="0">t</tspan><tspan x="59.59" y="0">o data se</tspan><tspan class="cls-29" x="100.26" y="0">r</tspan><tspan x="104.03" y="0">vi</tspan><tspan class="cls-30" x="111.45" y="0">c</tspan><tspan x="116.42" y="0">e and u</tspan><tspan class="cls-31" x="149.13" y="0">n</tspan><tspan x="154.76" y="0">w</tspan><tspan class="cls-32" x="162.44" y="0">r</tspan><tspan class="cls-33" x="166.07" y="0">aps the data at </tspan><tspan class="cls-31" x="235.04" y="0">r</tspan><tspan class="cls-34" x="238.66" y="0">e</tspan><tspan class="cls-35" x="244.15" y="0">s</tspan><tspan x="248.95" y="0">t</tspan></text></g><g id="text"><text class="cls-36" transform="translate(48.48 37.39)">IBM Cloud d<tspan class="cls-37" x="67.93" y="0">a</tspan><tspan x="74.59" y="0">ta se</tspan><tspan class="cls-38" x="101.3" y="0">r</tspan><tspan class="cls-39" x="106.11" y="0">vi</tspan><tspan class="cls-40" x="115.71" y="0">c</tspan><tspan x="121.81" y="0">e</tspan></text><text class="cls-36" transform="translate(236.63 36.39)">Hyper <tspan class="cls-15" x="36.36" y="0">P</tspan><tspan class="cls-40" x="43.93" y="0">r</tspan><tspan class="cls-16" x="48.59" y="0">ot</tspan><tspan x="59.74" y="0">ect C</tspan><tspan class="cls-41" x="87.61" y="0">r</tspan><tspan x="92.42" y="0">y</tspan><tspan class="cls-42" x="98.71" y="0">p</tspan><tspan class="cls-16" x="105.84" y="0">t</tspan><tspan x="110.28" y="0">o Se</tspan><tspan class="cls-41" x="133.89" y="0">r</tspan><tspan x="138.71" y="0">vi</tspan><tspan class="cls-43" x="148.31" y="0">c</tspan><tspan class="cls-39" x="154.4" y="0">es</tspan></text><text class="cls-14" transform="translate(256.09 132.79)"><tspan class="cls-44">R</tspan><tspan class="cls-45" x="7.5" y="0">oot </tspan><tspan class="cls-46" x="27.98" y="0">k</tspan><tspan class="cls-40" x="34.1" y="0">e</tspan><tspan x="40.63" y="0">y mana</tspan><tspan class="cls-47" x="79.56" y="0">g</tspan><tspan x="85.82" y="0">ed</tspan><tspan x="-0.04" y="14.4">in se</tspan><tspan class="cls-29" x="25.04" y="14.4">r</tspan><tspan x="29.56" y="14.4">vi</tspan><tspan class="cls-47" x="38.47" y="14.4">c</tspan><tspan class="cls-39" x="44.43" y="14.4">e in</tspan><tspan class="cls-48" x="63.67" y="14.4">s</tspan><tspan x="69.43" y="14.4">tan</tspan><tspan class="cls-42" x="86.86" y="14.4">c</tspan><tspan x="92.83" y="14.4">e</tspan></text><text class="cls-14" transform="translate(634.32 132.79)">DEK f<tspan class="cls-43" x="29.38" y="0">r</tspan><tspan x="33.72" y="0">om</tspan><tspan x="-7.16" y="14.4">data se</tspan><tspan class="cls-29" x="32.09" y="14.4">r</tspan><tspan x="36.62" y="14.4">vi</tspan><tspan class="cls-47" x="45.52" y="14.4">c</tspan><tspan x="51.48" y="14.4">e</tspan></text><text class="cls-14" transform="translate(535.53 132.79)">AES <tspan x="-13.54" y="14.4">al</tspan><tspan class="cls-42" x="-3.86" y="14.4">g</tspan><tspan x="2.4" y="14.4">orithm</tspan></text><text class="cls-14" transform="translate(389.63 132.79)"><tspan class="cls-15">W</tspan><tspan class="cls-16" x="10.57" y="0">r</tspan><tspan x="14.93" y="0">apped DEK</tspan><tspan x="-9.6" y="14.4">f</tspan><tspan class="cls-40" x="-5.71" y="14.4">r</tspan><tspan class="cls-45" x="-1.37" y="14.4">om data se</tspan><tspan class="cls-29" x="57.91" y="14.4">r</tspan><tspan x="62.44" y="14.4">vi</tspan><tspan class="cls-47" x="71.34" y="14.4">c</tspan><tspan x="77.3" y="14.4">e</tspan></text></g><g id="Layer_4" data-name="Layer 4"><g id="lock-3" data-name="lock"><g id="lock-4" data-name="lock"><rect class="cls-49" x="435.5" y="99.59" width="7" height="4"/><path class="cls-7" d="M439,111.59v-2.8m-4-6.53V97.19a3.08,3.08,0,0,1,0-.53,4,4,0,0,1,8,.53v5.07m0,0-.5-.26a7.9,7.9,0,0,0-3.5-.81,8.28,8.28,0,0,0-1.74.19,8,8,0,0,0-1.76.62l-.5.26a8,8,0,1,0,8,0Z"/><circle cx="439" cy="108.79" r="1.2"/></g></g><path class="cls-11" d="M406.73,83.78c-3.17-5-4.36-9.06-2.73-10.69,2.21-2.21,8.92.75,16.23,6.8q1.86,1.53,3.75,3.32c.49.46,1,.94,1.47,1.43l.63.63c1.2,1.23,2.33,2.47,3.37,3.7A53.73,53.73,0,0,1,435,96.66"/><path class="cls-11" d="M431.62,106.11a28.15,28.15,0,0,1-5-2.53"/></g></svg>