<svg xmlns="http://www.w3.org/2000/svg" viewBox="0 0 750 250"><defs><style>.cls-1,.cls-15{fill:#fff;}.cls-10,.cls-12,.cls-16,.cls-19,.cls-2,.cls-20,.cls-3,.cls-4,.cls-5{fill:none;}.cls-2,.cls-3,.cls-4,.cls-5{stroke:#9fa5ad;}.cls-10,.cls-15,.cls-16,.cls-2,.cls-3,.cls-4,.cls-5,.cls-6{stroke-miterlimit:10;}.cls-3{stroke-dasharray:2.0045 2.0045;}.cls-4{stroke-dasharray:1.977 1.977;}.cls-5{stroke-dasharray:2.0123 2.0123;}.cls-6{fill:#f4f4f4;}.cls-12,.cls-13,.cls-14,.cls-15,.cls-16,.cls-18,.cls-6,.cls-7,.cls-8,.cls-9{stroke:#000;}.cls-19,.cls-6{stroke-dasharray:2;}.cls-7{fill:#00bab6;}.cls-12,.cls-13,.cls-15,.cls-16,.cls-19,.cls-20,.cls-7,.cls-8,.cls-9{stroke-linecap:round;}.cls-12,.cls-13,.cls-14,.cls-18,.cls-19,.cls-20,.cls-7,.cls-8,.cls-9{stroke-linejoin:round;}.cls-18,.cls-23,.cls-8{fill:#87eded;}.cls-9{fill:#20d5d2;}.cls-10{stroke:#50565b;stroke-width:2px;}.cls-11{fill:#50565b;}.cls-13,.cls-14,.cls-17{fill:#b3e6ff;}.cls-19,.cls-20{stroke:#1193e8;}.cls-20{stroke-dasharray:2 2;}.cls-21{fill:#1193e8;}.cls-22{fill:#e3f6ff;}</style></defs><title>wrapping-keys</title><g id="Layer_1" data-name="Layer 1"><rect class="cls-1" x="216.5" y="15.5942" width="445" height="174"/><polyline class="cls-2" points="661.5 188.594 661.5 189.594 660.5 189.594"/><line class="cls-3" x1="658.4955" y1="189.5942" x2="218.5023" y2="189.5942"/><polyline class="cls-2" points="217.5 189.594 216.5 189.594 216.5 188.594"/><line class="cls-4" x1="216.5" y1="186.6172" x2="216.5" y2="17.5827"/><polyline class="cls-2" points="216.5 16.594 216.5 15.594 217.5 15.594"/><line class="cls-3" x1="219.5045" y1="15.5942" x2="659.4977" y2="15.5942"/><polyline class="cls-2" points="660.5 15.594 661.5 15.594 661.5 16.594"/><line class="cls-4" x1="661.5" y1="18.5712" x2="661.5" y2="187.6057"/><rect class="cls-1" x="30.229" y="15.5942" width="165" height="174"/><polyline class="cls-2" points="195.229 188.594 195.229 189.594 194.229 189.594"/><line class="cls-5" x1="192.2166" y1="189.5942" x2="32.2351" y2="189.5942"/><polyline class="cls-2" points="31.229 189.594 30.229 189.594 30.229 188.594"/><line class="cls-4" x1="30.229" y1="186.6172" x2="30.229" y2="17.5827"/><polyline class="cls-2" points="30.229 16.594 30.229 15.594 31.229 15.594"/><line class="cls-5" x1="33.2413" y1="15.5942" x2="193.2228" y2="15.5942"/><polyline class="cls-2" points="194.229 15.594 195.229 15.594 195.229 16.594"/><line class="cls-4" x1="195.229" y1="18.5712" x2="195.229" y2="187.6057"/><rect class="cls-6" x="52.4791" y="50.0942" width="120.4997" height="120"/><rect class="cls-6" x="237.5003" y="49.5942" width="219.9997" height="120"/><rect class="cls-6" x="603.5" y="49.5942" width="112" height="120"/><g id="gear"><path id="gear-2" data-name="gear" class="cls-7" d="M540.4187,104.1638l-.784,1.8747,1.8306,1.8307-2.7886,2.788-1.8254-1.8254-1.88.7714v2.5893H531.028v-2.5813l-1.8747-.784-1.8306,1.8306-2.788-2.788,1.8253-1.8253-.7713-1.88H523v-3.9433h2.5813l.784-1.8747-1.8306-1.8307,2.788-2.788,1.8253,1.8254,1.88-.7714V92.1925h3.9433v2.5813l1.8747.784,1.8307-1.8306,2.7886,2.788L539.64,98.3405l.7713,1.88H543v3.9433ZM533,97.5258a4.6667,4.6667,0,1,0,4.6667,4.6667A4.6668,4.6668,0,0,0,533,97.5258Z"/></g><g id="gear-3" data-name="gear"><path id="gear-4" data-name="gear" class="cls-8" d="M529.4187,86.1638l-.784,1.8747,1.8306,1.8307-2.7886,2.788-1.8254-1.8254-1.88.7714v2.5893H520.028V91.6112l-1.8747-.784-1.8306,1.8306-2.788-2.788,1.8253-1.8253-.7713-1.88H512V82.2212h2.5813l.784-1.8747-1.8306-1.8307,2.788-2.788,1.8253,1.8254,1.88-.7714V74.1925h3.9433v2.5813l1.8747.784,1.8307-1.8306,2.7886,2.788L528.64,80.3405l.7713,1.88H532v3.9433ZM522,79.5258a4.6667,4.6667,0,1,0,4.6667,4.6667A4.6668,4.6668,0,0,0,522,79.5258Z"/></g><g id="gear-5" data-name="gear"><path id="gear-6" data-name="gear" class="cls-9" d="M551.4187,86.1638l-.784,1.8747,1.8306,1.8307-2.7886,2.788-1.8254-1.8254-1.88.7714v2.5893H542.028V91.6112l-1.8747-.784-1.8306,1.8306-2.788-2.788,1.8253-1.8253-.7713-1.88H534V82.2212h2.5813l.784-1.8747-1.8306-1.8307,2.788-2.788,1.8253,1.8254,1.88-.7714V74.1925h3.9433v2.5813l1.8747.784,1.8307-1.8306,2.7886,2.788L550.64,80.3405l.7713,1.88H554v3.9433ZM544,79.5258a4.6667,4.6667,0,1,0,4.6667,4.6667A4.6668,4.6668,0,0,0,544,79.5258Z"/></g><line class="cls-10" x1="448" y1="110.0942" x2="496.259" y2="110.0942"/><polygon class="cls-11" points="495.092 114.083 502 110.094 495.092 106.105 495.092 114.083"/><line class="cls-10" x1="564" y1="110.0942" x2="612.259" y2="110.0942"/><polygon class="cls-11" points="611.092 114.083 618 110.094 611.092 106.105 611.092 114.083"/><g id="add"><line class="cls-12" x1="351.5" y1="90.5942" x2="361.5" y2="90.5942"/><line class="cls-12" x1="356.5" y1="85.5942" x2="356.5" y2="95.5942"/></g><g id="key"><path class="cls-13" d="M111.748,99.6057a11.68,11.68,0,1,1-6.0034-5.2189"/><circle cx="98.8543" cy="107.9514" r="2.5"/><polyline class="cls-14" points="105.745 94.387 122.237 77.894 128.411 77.894 128.411 83.216 118.041 93.585 114.34 93.602 114.34 97.013 111.748 99.606"/></g><path d="M72.9561,139.7861V131.41h5.1118v.8882h-4.104v2.8076h3.8637v.8882H73.9639v2.9038h4.104v.8882Z"/><path d="M79.856,139.7861v-6.1919h.96v.9966h.0479a2.0151,2.0151,0,0,1,.6421-.8316,1.8128,1.8128,0,0,1,1.11-.309,1.9425,1.9425,0,0,1,1.5181.6181,2.5147,2.5147,0,0,1,.5581,1.7456v3.9722h-.96v-3.812q0-1.6722-1.4038-1.6719a2.1362,2.1362,0,0,0-.5581.0723,1.6043,1.6043,0,0,0-.4858.2163,1.0684,1.0684,0,0,0-.3423.3667,1.0445,1.0445,0,0,0-.126.5234v4.3052Z"/><path d="M88.9761,139.93a2.852,2.852,0,0,1-1.1641-.228,2.37,2.37,0,0,1-.87-.6479,2.8826,2.8826,0,0,1-.54-1.02,4.9462,4.9462,0,0,1,0-2.688,2.8864,2.8864,0,0,1,.54-1.02,2.3746,2.3746,0,0,1,.87-.6479,2.852,2.852,0,0,1,1.1641-.228,2.482,2.482,0,0,1,1.4819.4018,2.4525,2.4525,0,0,1,.834,1.05l-.8042.4077a1.4609,1.4609,0,0,0-.5518-.7441,1.6578,1.6578,0,0,0-.96-.2637,1.9238,1.9238,0,0,0-.7564.1377,1.4806,1.4806,0,0,0-.54.3843,1.6083,1.6083,0,0,0-.3237.5879,2.4709,2.4709,0,0,0-.108.75v1.0561a2.0085,2.0085,0,0,0,.438,1.3379,1.5876,1.5876,0,0,0,1.29.522,1.7408,1.7408,0,0,0,1.68-1.08l.6963.4683a2.4626,2.4626,0,0,1-.8941,1.0678A2.6135,2.6135,0,0,1,88.9761,139.93Z"/><path d="M92.7075,139.7861v-6.1919h.96v1.14h.06a1.8731,1.8731,0,0,1,.6-.7924,1.8435,1.8435,0,0,1,1.188-.3477h.3721v.96h-.564a2.1688,2.1688,0,0,0-1.2182.2939.8672.8672,0,0,0-.438.7378v4.2Z"/><path d="M101.0474,133.5942h.9482l-2.772,7.6318a3.3733,3.3733,0,0,1-.2163.4619.8982.8982,0,0,1-.2636.294,1.0531,1.0531,0,0,1-.39.1562,2.9074,2.9074,0,0,1-.57.0479h-.4917v-.8521h.9717l.4682-1.3178-2.3159-6.4219h.96l1.4878,4.2036.2881,1.0064h.06l.336-1.0064Z"/><path d="M103.2192,133.5942h.96v.9966h.0479a1.74,1.74,0,0,1,.7021-.8613,2.1076,2.1076,0,0,1,1.11-.2793,2.3524,2.3524,0,0,1,1.0439.228,2.27,2.27,0,0,1,.7983.6479,2.9825,2.9825,0,0,1,.504,1.02,5.2835,5.2835,0,0,1,0,2.688,2.9785,2.9785,0,0,1-.504,1.02,2.2659,2.2659,0,0,1-.7983.6479,2.3524,2.3524,0,0,1-1.0439.228,1.8748,1.8748,0,0,1-1.812-1.1406h-.0479v3.3965h-.96Zm2.5562,5.4839a1.6525,1.6525,0,0,0,1.2837-.5122,1.9176,1.9176,0,0,0,.4682-1.3452V136.16a1.9155,1.9155,0,0,0-.4682-1.3447,1.6511,1.6511,0,0,0-1.2837-.5127,2.0986,2.0986,0,0,0-.6182.09,1.72,1.72,0,0,0-.51.2471,1.1963,1.1963,0,0,0-.3423.38.9543.9543,0,0,0-.126.4766v2.3154a1.12,1.12,0,0,0,.126.5371,1.2061,1.2061,0,0,0,.3423.3979,1.5373,1.5373,0,0,0,.51.2471A2.23,2.23,0,0,0,105.7754,139.0781Z"/><path d="M111.4756,139.7861a.9827.9827,0,0,1-.7622-.2813,1.0471,1.0471,0,0,1-.2578-.7363v-4.3223h-1.02v-.852h.5757a.5653.5653,0,0,0,.4263-.126.6559.6559,0,0,0,.1138-.438v-1.1523h.8642v1.7163h1.356v.852h-1.356v4.4878h1.26v.8521Z"/><path d="M116.5991,139.93a2.7786,2.7786,0,0,1-1.146-.228,2.4668,2.4668,0,0,1-.876-.6538,2.9979,2.9979,0,0,1-.5639-1.02,4.5942,4.5942,0,0,1,0-2.67,2.99,2.99,0,0,1,.5639-1.0259,2.4668,2.4668,0,0,1,.876-.6538,2.7786,2.7786,0,0,1,1.146-.228,2.6341,2.6341,0,0,1,1.1157.227,2.48,2.48,0,0,1,.84.6279,2.8008,2.8008,0,0,1,.5337.9507,3.7517,3.7517,0,0,1,.186,1.208v.4541h-4.4521v.2881a2.1078,2.1078,0,0,0,.1264.7383,1.745,1.745,0,0,0,.36.5937,1.6426,1.6426,0,0,0,.5757.396,1.9759,1.9759,0,0,0,.7744.1441,1.8834,1.8834,0,0,0,1.0259-.2759,1.8128,1.8128,0,0,0,.6777-.792l.6841.4951a2.3862,2.3862,0,0,1-.9361,1.0323A2.8211,2.8211,0,0,1,116.5991,139.93Zm0-5.6762a1.8246,1.8246,0,0,0-.72.1377,1.6249,1.6249,0,0,0-.5581.3872,1.82,1.82,0,0,0-.3657.59,2.0344,2.0344,0,0,0-.1323.7456v.0835h3.42v-.1313a1.8846,1.8846,0,0,0-.45-1.3179A1.5356,1.5356,0,0,0,116.5991,134.2539Z"/><path d="M124.8193,138.79h-.0478a1.89,1.89,0,0,1-1.812,1.1406,2.3525,2.3525,0,0,1-1.044-.228,2.2659,2.2659,0,0,1-.7983-.6479,2.9694,2.9694,0,0,1-.5039-1.02,5.2835,5.2835,0,0,1,0-2.688,2.9734,2.9734,0,0,1,.5039-1.02,2.27,2.27,0,0,1,.7983-.6479,2.3525,2.3525,0,0,1,1.044-.228,2.1075,2.1075,0,0,1,1.11.2793,1.7407,1.7407,0,0,1,.7022.8613h.0478v-3.6846h.96v8.88h-.96Zm-1.5962.2886a2.2324,2.2324,0,0,0,.6182-.0845,1.5511,1.5511,0,0,0,.51-.2471,1.2116,1.2116,0,0,0,.3418-.3979,1.1206,1.1206,0,0,0,.1259-.5371v-2.3154a.9553.9553,0,0,0-.1259-.4766,1.2018,1.2018,0,0,0-.3418-.38,1.7365,1.7365,0,0,0-.51-.2471,2.1006,2.1006,0,0,0-.6182-.09,1.6509,1.6509,0,0,0-1.2836.5127,1.9151,1.9151,0,0,0-.4683,1.3447v1.0611a1.9172,1.9172,0,0,0,.4683,1.3452A1.6522,1.6522,0,0,0,123.2231,139.0781Z"/><path d="M134.6108,138.79h-.0478a1.89,1.89,0,0,1-1.812,1.1406,2.3525,2.3525,0,0,1-1.044-.228,2.2659,2.2659,0,0,1-.7983-.6479,2.9694,2.9694,0,0,1-.5039-1.02,5.2835,5.2835,0,0,1,0-2.688,2.9734,2.9734,0,0,1,.5039-1.02,2.27,2.27,0,0,1,.7983-.6479,2.3525,2.3525,0,0,1,1.044-.228,2.1075,2.1075,0,0,1,1.11.2793,1.7407,1.7407,0,0,1,.7022.8613h.0478v-3.6846h.96v8.88h-.96Zm-1.5962.2886a2.2324,2.2324,0,0,0,.6182-.0845,1.5511,1.5511,0,0,0,.51-.2471,1.2116,1.2116,0,0,0,.3418-.3979,1.1206,1.1206,0,0,0,.1259-.5371v-2.3154a.9553.9553,0,0,0-.1259-.4766,1.2018,1.2018,0,0,0-.3418-.38,1.7365,1.7365,0,0,0-.51-.2471,2.1006,2.1006,0,0,0-.6182-.09,1.6509,1.6509,0,0,0-1.2836.5127,1.9151,1.9151,0,0,0-.4683,1.3447v1.0611a1.9172,1.9172,0,0,0,.4683,1.3452A1.6522,1.6522,0,0,0,133.0146,139.0781Z"/><path d="M142.1108,139.7861a.9422.9422,0,0,1-.7739-.2881,1.4214,1.4214,0,0,1-.2939-.72h-.06a1.602,1.602,0,0,1-.6719.8637,2.0888,2.0888,0,0,1-1.1162.2881,2.17,2.17,0,0,1-1.53-.5039,1.77,1.77,0,0,1-.5463-1.3681,1.5612,1.5612,0,0,1,.642-1.3438,3.4139,3.4139,0,0,1,1.9981-.4682h1.2241v-.6119a1.34,1.34,0,0,0-.36-1.0083,1.5372,1.5372,0,0,0-1.104-.3476,1.6627,1.6627,0,0,0-.9423.2519,2.0766,2.0766,0,0,0-.63.6719l-.5762-.54a2.1883,2.1883,0,0,1,.8042-.8579,2.5325,2.5325,0,0,1,1.3921-.354,2.56,2.56,0,0,1,1.7519.5507,1.9372,1.9372,0,0,1,.6241,1.5327v3.4h.708v.8521Zm-2.76-.6719a2.4357,2.4357,0,0,0,.66-.084,1.62,1.62,0,0,0,.5162-.24,1.1868,1.1868,0,0,0,.3359-.36.8576.8576,0,0,0,.12-.4438v-1.02h-1.272a2.3241,2.3241,0,0,0-1.206.24.7754.7754,0,0,0-.3779.6963v.252a.8386.8386,0,0,0,.33.708A1.4373,1.4373,0,0,0,139.3506,139.1142Z"/><path d="M145.3867,139.7861a.9827.9827,0,0,1-.7622-.2813,1.0471,1.0471,0,0,1-.2578-.7363v-4.3223h-1.02v-.852h.5757a.5649.5649,0,0,0,.4262-.126.6559.6559,0,0,0,.1138-.438v-1.1523h.8643v1.7163h1.3559v.852h-1.3559v4.4878h1.26v.8521Z"/><path d="M152.7305,139.7861a.9423.9423,0,0,1-.774-.2881,1.4214,1.4214,0,0,1-.2939-.72h-.06a1.6019,1.6019,0,0,1-.6718.8637,2.089,2.089,0,0,1-1.1162.2881,2.17,2.17,0,0,1-1.53-.5039,1.77,1.77,0,0,1-.5464-1.3681,1.5611,1.5611,0,0,1,.6421-1.3438,3.4133,3.4133,0,0,1,1.998-.4682h1.2241v-.6119a1.3408,1.3408,0,0,0-.36-1.0083,1.5374,1.5374,0,0,0-1.104-.3476,1.6628,1.6628,0,0,0-.9424.2519,2.0777,2.0777,0,0,0-.63.6719l-.5762-.54a2.189,2.189,0,0,1,.8042-.8579,2.5328,2.5328,0,0,1,1.3921-.354,2.56,2.56,0,0,1,1.752.5507,1.9374,1.9374,0,0,1,.624,1.5327v3.4h.708v.8521Zm-2.76-.6719a2.4365,2.4365,0,0,0,.66-.084,1.62,1.62,0,0,0,.5161-.24,1.1868,1.1868,0,0,0,.3359-.36.8576.8576,0,0,0,.12-.4438v-1.02h-1.2719a2.3245,2.3245,0,0,0-1.2061.24.7756.7756,0,0,0-.3779.6963v.252a.8384.8384,0,0,0,.33.708A1.4368,1.4368,0,0,0,149.97,139.1142Z"/><g id="Doc"><polygon class="cls-15" points="96.44 79.942 96.44 116.892 126 116.892 126 87.332 118.61 79.942 96.44 79.942"/><polyline class="cls-16" points="118.61 79.942 118.61 87.332 126 87.332"/><line class="cls-16" x1="102.3521" y1="102.8514" x2="115.2845" y2="102.8514"/><line class="cls-16" x1="102.3521" y1="91.6433" x2="120.088" y2="91.6433"/><line class="cls-16" x1="102.3521" y1="97.1858" x2="120.088" y2="97.1858"/></g><g id="lock"><g id="lock-2" data-name="lock"><rect class="cls-17" x="122.5" y="108.5942" width="7" height="4"/><path class="cls-13" d="M134,118.1925a8,8,0,1,1-8-8A8,8,0,0,1,134,118.1925Zm-4-6.93v-5.07a4,4,0,0,0-8,0v5.07m4,6.53v2.8"/><circle cx="126" cy="117.7925" r="1.2"/></g></g></g><g id="key-2" data-name="key"><g id="key-3" data-name="key"><path class="cls-8" d="M295.04,94.13a11.68,11.68,0,1,1-.5547-7.9353"/><circle cx="280.022" cy="90.9145" r="2.5"/><polyline class="cls-18" points="294.486 86.195 317.809 86.195 322.175 90.561 318.412 94.323 303.748 94.323 301.119 91.718 298.707 94.13 295.04 94.13"/></g><g id="key-4" data-name="key"><path class="cls-8" d="M661.6371,98.7877a11.68,11.68,0,1,1-6.0035-5.2189"/><circle cx="648.7434" cy="107.1333" r="2.5"/><polyline class="cls-18" points="655.634 93.569 672.126 77.076 678.3 77.076 678.3 82.398 667.93 92.767 664.229 92.784 664.229 96.195 661.637 98.788"/></g><g id="key-5" data-name="key"><path class="cls-13" d="M404.54,94.13a11.68,11.68,0,1,1-.5547-7.9353"/><circle cx="389.522" cy="90.9145" r="2.5"/><polyline class="cls-14" points="403.986 86.195 427.309 86.195 431.675 90.561 427.912 94.323 413.248 94.323 410.619 91.718 408.207 94.13 404.54 94.13"/></g><g id="key-6" data-name="key"><path class="cls-13" d="M657.748,95.6057a11.68,11.68,0,1,1-6.0034-5.2189"/><circle cx="644.8543" cy="103.9514" r="2.5"/><polyline class="cls-14" points="651.745 90.387 668.237 73.894 674.411 73.894 674.411 79.216 664.041 89.585 660.34 89.602 660.34 93.013 657.748 95.606"/></g><line class="cls-19" x1="685" y1="170.0942" x2="685" y2="233.5942"/><line class="cls-19" x1="684.5" y1="233.5942" x2="110.5" y2="233.5942"/><line class="cls-20" x1="110.5" y1="233.5942" x2="110.5" y2="182.8999"/><polygon class="cls-21" points="113.492 183.775 110.5 178.594 107.508 183.775 113.492 183.775"/><path class="cls-22" d="M221,207.0942H529a4,4,0,0,1,4,4v22a0,0,0,0,1,0,0H217a0,0,0,0,1,0,0v-22A4,4,0,0,1,221,207.0942Z"/><path d="M253.1421,217.2026h2.34a3.0558,3.0558,0,0,1,1.18.2207,2.3955,2.3955,0,0,1,.9048.6543,2.9883,2.9883,0,0,1,.5752,1.0908,5.9219,5.9219,0,0,1,0,3.05,2.9848,2.9848,0,0,1-.5752,1.09,2.3871,2.3871,0,0,1-.9048.6552,3.0557,3.0557,0,0,1-1.18.22h-2.34Zm2.34,6.24a2.0963,2.0963,0,0,0,.79-.1445,1.7125,1.7125,0,0,0,.62-.4248,1.9621,1.9621,0,0,0,.4048-.6856,2.7311,2.7311,0,0,0,.145-.9248v-1.14a2.7412,2.7412,0,0,0-.145-.9258,1.9684,1.9684,0,0,0-.4048-.6846,1.7125,1.7125,0,0,0-.62-.4248,2.0985,2.0985,0,0,0-.79-.1455h-1.5v5.5Z"/><path d="M259.8521,224.1831v-6.9805h4.26v.74h-3.42v2.34h3.22v.74h-3.22v2.42h3.42v.74Z"/><path d="M267.5117,220.7534l-.99,1.1v2.33h-.84v-6.9805h.84v3.7109h.03l1-1.2109,2.11-2.5h1.03l-2.6,2.99,2.78,3.99h-1.04Z"/><path d="M274.3018,224.1831v-5.16h.8v.95h.05a1.5528,1.5528,0,0,1,.5-.66,1.5349,1.5349,0,0,1,.99-.29h.31v.8h-.47a1.807,1.807,0,0,0-1.0146.2451.724.724,0,0,0-.3652.6153v3.5Z"/><path d="M279.8613,224.3032a2.3114,2.3114,0,0,1-.9551-.19,2.0431,2.0431,0,0,1-.73-.545,2.4957,2.4957,0,0,1-.47-.85,3.8439,3.8439,0,0,1,0-2.2256,2.493,2.493,0,0,1,.47-.8545,2.0664,2.0664,0,0,1,.73-.5449,2.3114,2.3114,0,0,1,.9551-.19,2.2,2.2,0,0,1,.93.1894,2.057,2.057,0,0,1,.7.5235,2.3318,2.3318,0,0,1,.4453.792,3.1348,3.1348,0,0,1,.1548,1.0068v.3789h-3.71v.2393a1.7658,1.7658,0,0,0,.105.6152,1.4525,1.4525,0,0,0,.3.4951,1.3808,1.3808,0,0,0,.48.33,1.6474,1.6474,0,0,0,.645.12,1.57,1.57,0,0,0,.855-.23,1.5046,1.5046,0,0,0,.565-.66l.57.4131a1.9923,1.9923,0,0,1-.78.86A2.3529,2.3529,0,0,1,279.8613,224.3032Zm0-4.7305a1.5248,1.5248,0,0,0-.6.1143,1.3631,1.3631,0,0,0-.4648.3232,1.528,1.528,0,0,0-.3052.4922,1.7018,1.7018,0,0,0-.11.6211v.0693h2.85v-.1093a1.5676,1.5676,0,0,0-.375-1.0977A1.2794,1.2794,0,0,0,279.8613,219.5727Z"/><path d="M284.5518,224.1831a.8192.8192,0,0,1-.6353-.2344.8715.8715,0,0,1-.2148-.6133v-3.6025h-.85v-.71h.48a.4729.4729,0,0,0,.355-.1045.5462.5462,0,0,0,.0952-.3652v-.96h.72v1.43h1.13v.71h-1.13v3.74h1.05v.71Z"/><path d="M290.1011,223.353h-.04a2.5663,2.5663,0,0,1-.1953.3515,1.3135,1.3135,0,0,1-.2851.3067,1.3379,1.3379,0,0,1-.41.2129,1.7937,1.7937,0,0,1-.56.0791,1.6359,1.6359,0,0,1-1.27-.5147,2.0827,2.0827,0,0,1-.47-1.455v-3.3106h.8V222.2q0,1.393,1.18,1.3935a1.7983,1.7983,0,0,0,.4653-.06,1.2877,1.2877,0,0,0,.4-.18.9116.9116,0,0,0,.28-.3057.89.89,0,0,0,.105-.4463v-3.5781h.8v5.16h-.8Z"/><path d="M292.6016,224.1831v-5.16h.8v.95h.05a1.5528,1.5528,0,0,1,.5-.66,1.5349,1.5349,0,0,1,.99-.29h.31v.8h-.47a1.807,1.807,0,0,0-1.0146.2451.724.724,0,0,0-.3652.6153v3.5Z"/><path d="M296.2715,224.1831v-5.16h.8v.8311h.04a1.68,1.68,0,0,1,.5352-.6934,1.509,1.509,0,0,1,.9248-.2578,1.6185,1.6185,0,0,1,1.2651.5156,2.0942,2.0942,0,0,1,.4649,1.4551v3.31h-.8v-3.1768q0-1.3931-1.17-1.3935a1.8012,1.8012,0,0,0-.4653.0605,1.352,1.352,0,0,0-.4048.1807.8889.8889,0,0,0-.2851.3056.8684.8684,0,0,0-.105.4356v3.5879Z"/><path d="M303.501,224.3032a2.4106,2.4106,0,0,1-1.2051-.2754,2.7314,2.7314,0,0,1-.835-.7344l.57-.46a2.2481,2.2481,0,0,0,.67.5849,1.7446,1.7446,0,0,0,.86.2051,1.2687,1.2687,0,0,0,.795-.2207.7991.7991,0,0,0,.09-1.1348,1.1929,1.1929,0,0,0-.7051-.2949l-.41-.06a3.5426,3.5426,0,0,1-.66-.1552,1.8339,1.8339,0,0,1-.5249-.28,1.2058,1.2058,0,0,1-.35-.4346,1.4177,1.4177,0,0,1-.125-.62,1.49,1.49,0,0,1,.14-.665,1.337,1.337,0,0,1,.3853-.4756,1.689,1.689,0,0,1,.5849-.2842,2.6945,2.6945,0,0,1,.73-.0957,2.266,2.266,0,0,1,1.0547.2207,2.3648,2.3648,0,0,1,.7451.6094l-.53.48a1.5952,1.5952,0,0,0-.5-.4355,1.6124,1.6124,0,0,0-.83-.1943,1.1436,1.1436,0,0,0-.7549.2148.7239.7239,0,0,0-.2554.585.6119.6119,0,0,0,.2554.55,1.91,1.91,0,0,0,.7349.25l.4.06a2.15,2.15,0,0,1,1.22.4952,1.305,1.305,0,0,1,.36.955,1.4625,1.4625,0,0,1-.51,1.1807A2.1075,2.1075,0,0,1,303.501,224.3032Z"/><path d="M310.3213,224.1831a.8192.8192,0,0,1-.6353-.2344.8719.8719,0,0,1-.2148-.6133v-3.6025h-.85v-.71h.48a.4731.4731,0,0,0,.355-.1045.5468.5468,0,0,0,.0952-.3652v-.96h.72v1.43h1.13v.71h-1.13v3.74h1.05v.71Z"/><path d="M314.6011,224.3032a2.3194,2.3194,0,0,1-.95-.19,2.0307,2.0307,0,0,1-.7349-.545,2.5562,2.5562,0,0,1-.4751-.85,3.7292,3.7292,0,0,1,0-2.2256,2.5528,2.5528,0,0,1,.4751-.8545,2.0535,2.0535,0,0,1,.7349-.5449,2.3194,2.3194,0,0,1,.95-.19,2.2889,2.2889,0,0,1,.9453.19,2.1148,2.1148,0,0,1,.7348.5449,2.5108,2.5108,0,0,1,.48.8545,3.7271,3.7271,0,0,1,0,2.2256,2.514,2.514,0,0,1-.48.85,2.0905,2.0905,0,0,1-.7348.545A2.2889,2.2889,0,0,1,314.6011,224.3032Zm0-.71a1.4542,1.4542,0,0,0,1.06-.4,1.6331,1.6331,0,0,0,.41-1.22v-.74a1.6349,1.6349,0,0,0-.41-1.22,1.6031,1.6031,0,0,0-2.12,0,1.6353,1.6353,0,0,0-.41,1.22v.74a1.6335,1.6335,0,0,0,.41,1.22A1.4534,1.4534,0,0,0,314.6011,223.5932Z"/><path d="M323.9111,223.353h-.04a1.5744,1.5744,0,0,1-1.51.95,1.9575,1.9575,0,0,1-.87-.19,1.8819,1.8819,0,0,1-.665-.54,2.4724,2.4724,0,0,1-.42-.85,4.3988,4.3988,0,0,1,0-2.24,2.4724,2.4724,0,0,1,.42-.85,1.8928,1.8928,0,0,1,.665-.54,1.9575,1.9575,0,0,1,.87-.19,1.7539,1.7539,0,0,1,.9248.2334,1.4421,1.4421,0,0,1,.585.7178h.04v-3.0713h.8v7.4h-.8Zm-1.33.24a1.8586,1.8586,0,0,0,.5151-.07,1.3,1.3,0,0,0,.4248-.206,1.0078,1.0078,0,0,0,.2852-.3321.9254.9254,0,0,0,.1049-.4472v-1.93a.79.79,0,0,0-.1049-.3965.9988.9988,0,0,0-.2852-.3174,1.4255,1.4255,0,0,0-.4248-.2051,1.7256,1.7256,0,0,0-.5151-.0761,1.375,1.375,0,0,0-1.07.4277,1.5971,1.5971,0,0,0-.39,1.12v.8848a1.6014,1.6014,0,0,0,.39,1.1211A1.3782,1.3782,0,0,0,322.5811,223.5932Z"/><path d="M330.1611,224.1831a.7841.7841,0,0,1-.645-.24,1.1873,1.1873,0,0,1-.2451-.6h-.05a1.3368,1.3368,0,0,1-.56.72,1.7393,1.7393,0,0,1-.93.24,1.8078,1.8078,0,0,1-1.2749-.42,1.4768,1.4768,0,0,1-.4551-1.1407,1.3,1.3,0,0,1,.5351-1.1191,2.84,2.84,0,0,1,1.6651-.3906h1.02v-.51a1.1146,1.1146,0,0,0-.3-.84,1.2784,1.2784,0,0,0-.92-.29,1.3888,1.3888,0,0,0-.7852.21,1.7271,1.7271,0,0,0-.5249.56l-.48-.4493a1.8286,1.8286,0,0,1,.67-.7158,2.1132,2.1132,0,0,1,1.16-.2949,2.1351,2.1351,0,0,1,1.46.459,1.6163,1.6163,0,0,1,.52,1.2773v2.834h.59v.71Zm-2.3-.56a2.0292,2.0292,0,0,0,.55-.07,1.3444,1.3444,0,0,0,.43-.2.9967.9967,0,0,0,.28-.3.7185.7185,0,0,0,.1-.37v-.85h-1.06a1.9408,1.9408,0,0,0-1.0049.1992.6464.6464,0,0,0-.3154.58v.21a.7007.7007,0,0,0,.2754.5908A1.1986,1.1986,0,0,0,327.8608,223.6235Z"/><path d="M332.8911,224.1831a.8188.8188,0,0,1-.6352-.2344.8715.8715,0,0,1-.2149-.6133v-3.6025h-.85v-.71h.48a.4731.4731,0,0,0,.355-.1045.5462.5462,0,0,0,.0952-.3652v-.96h.72v1.43h1.13v.71h-1.13v3.74h1.05v.71Z"/><path d="M339.0107,224.1831a.7841.7841,0,0,1-.645-.24,1.1873,1.1873,0,0,1-.2451-.6h-.05a1.3368,1.3368,0,0,1-.56.72,1.7393,1.7393,0,0,1-.93.24,1.8078,1.8078,0,0,1-1.2749-.42,1.4768,1.4768,0,0,1-.4551-1.1407,1.3,1.3,0,0,1,.5351-1.1191,2.84,2.84,0,0,1,1.6651-.3906h1.02v-.51a1.1146,1.1146,0,0,0-.3-.84,1.2784,1.2784,0,0,0-.92-.29,1.3888,1.3888,0,0,0-.7852.21,1.7271,1.7271,0,0,0-.5249.56l-.48-.4493a1.8286,1.8286,0,0,1,.67-.7158,2.1132,2.1132,0,0,1,1.16-.2949,2.1351,2.1351,0,0,1,1.46.459,1.6163,1.6163,0,0,1,.52,1.2773v2.834h.59v.71Zm-2.3-.56a2.0287,2.0287,0,0,0,.55-.07,1.3444,1.3444,0,0,0,.43-.2.9967.9967,0,0,0,.28-.3.7185.7185,0,0,0,.1-.37v-.85h-1.06a1.94,1.94,0,0,0-1.0048.1992.6463.6463,0,0,0-.3155.58v.21a.7007.7007,0,0,0,.2754.5908A1.1986,1.1986,0,0,0,336.71,223.6235Z"/><path d="M344.5107,224.3032a2.41,2.41,0,0,1-1.205-.2754,2.73,2.73,0,0,1-.835-.7344l.57-.46a2.2478,2.2478,0,0,0,.67.5849,1.7447,1.7447,0,0,0,.86.2051,1.2684,1.2684,0,0,0,.7949-.2207.799.799,0,0,0,.09-1.1348,1.1932,1.1932,0,0,0-.7051-.2949l-.41-.06a3.5434,3.5434,0,0,1-.66-.1552,1.8339,1.8339,0,0,1-.5249-.28,1.2058,1.2058,0,0,1-.35-.4346,1.4177,1.4177,0,0,1-.125-.62,1.4882,1.4882,0,0,1,.14-.665,1.337,1.337,0,0,1,.3853-.4756,1.6882,1.6882,0,0,1,.5849-.2842,2.694,2.694,0,0,1,.73-.0957,2.2663,2.2663,0,0,1,1.0547.2207,2.366,2.366,0,0,1,.7451.6094l-.53.48a1.5735,1.5735,0,0,0-1.33-.63,1.1433,1.1433,0,0,0-.7548.2148.7236.7236,0,0,0-.2554.585.6117.6117,0,0,0,.2554.55,1.91,1.91,0,0,0,.7348.25l.4.06a2.15,2.15,0,0,1,1.22.4952,1.3047,1.3047,0,0,1,.36.955,1.4623,1.4623,0,0,1-.51,1.1807A2.1072,2.1072,0,0,1,344.5107,224.3032Z"/><path d="M349.771,224.3032a2.3111,2.3111,0,0,1-.9551-.19,2.0443,2.0443,0,0,1-.73-.545,2.4973,2.4973,0,0,1-.47-.85,3.8461,3.8461,0,0,1,0-2.2256,2.4947,2.4947,0,0,1,.47-.8545,2.0676,2.0676,0,0,1,.73-.5449,2.3111,2.3111,0,0,1,.9551-.19,2.2,2.2,0,0,1,.93.1894,2.0589,2.0589,0,0,1,.7.5235,2.3335,2.3335,0,0,1,.4453.792,3.1375,3.1375,0,0,1,.1548,1.0068v.3789h-3.71v.2393a1.7658,1.7658,0,0,0,.105.6152,1.451,1.451,0,0,0,.3.4951,1.38,1.38,0,0,0,.48.33,1.6471,1.6471,0,0,0,.645.12,1.57,1.57,0,0,0,.855-.23,1.5051,1.5051,0,0,0,.5649-.66l.57.4131a1.9921,1.9921,0,0,1-.78.86A2.3534,2.3534,0,0,1,349.771,224.3032Zm0-4.7305a1.5248,1.5248,0,0,0-.6.1143,1.3612,1.3612,0,0,0-.4648.3232,1.5263,1.5263,0,0,0-.3052.4922,1.7,1.7,0,0,0-.11.6211v.0693h2.85v-.1093a1.5676,1.5676,0,0,0-.375-1.0977A1.2794,1.2794,0,0,0,349.771,219.5727Z"/><path d="M353.3208,224.1831v-5.16h.8v.95h.05a1.5545,1.5545,0,0,1,.5-.66,1.5349,1.5349,0,0,1,.99-.29h.31v.8h-.47a1.8073,1.8073,0,0,0-1.0147.2451.7242.7242,0,0,0-.3652.6153v3.5Z"/><path d="M358.231,224.1831l-1.81-5.16h.8l.9,2.5606.56,1.76h.05l.56-1.76.92-2.5606h.77l-1.82,5.16Z"/><path d="M362.4106,217.8129a.4865.4865,0,0,1-.375-.125.4606.4606,0,0,1-.1152-.3251v-.13a.4641.4641,0,0,1,.1152-.3252.625.625,0,0,1,.75,0,.4637.4637,0,0,1,.1153.3252v.13a.46.46,0,0,1-.1153.3251A.4863.4863,0,0,1,362.4106,217.8129Zm-.4,1.21h.8v5.16h-.8Z"/><path d="M366.4307,224.3032a2.3741,2.3741,0,0,1-.97-.19,1.97,1.97,0,0,1-.7246-.54,2.4121,2.4121,0,0,1-.45-.85,4.1324,4.1324,0,0,1,0-2.24,2.4121,2.4121,0,0,1,.45-.85,1.9808,1.9808,0,0,1,.7246-.54,2.3741,2.3741,0,0,1,.97-.19,2.0728,2.0728,0,0,1,1.2348.335,2.0515,2.0515,0,0,1,.6953.875l-.67.34a1.2145,1.2145,0,0,0-.46-.6191,1.3811,1.3811,0,0,0-.8-.2207,1.6035,1.6035,0,0,0-.63.1152,1.2352,1.2352,0,0,0-.45.32,1.343,1.343,0,0,0-.27.49,2.0623,2.0623,0,0,0-.09.625v.88a1.6748,1.6748,0,0,0,.3648,1.1143,1.3244,1.3244,0,0,0,1.0752.4355,1.4509,1.4509,0,0,0,1.4-.9l.58.3907a2.047,2.047,0,0,1-.7451.89A2.1816,2.1816,0,0,1,366.4307,224.3032Z"/><path d="M371.42,224.3032a2.3111,2.3111,0,0,1-.9551-.19,2.0431,2.0431,0,0,1-.73-.545,2.4958,2.4958,0,0,1-.47-.85,3.8461,3.8461,0,0,1,0-2.2256,2.4932,2.4932,0,0,1,.47-.8545,2.0664,2.0664,0,0,1,.73-.5449,2.3111,2.3111,0,0,1,.9551-.19,2.2,2.2,0,0,1,.93.1894,2.0589,2.0589,0,0,1,.7.5235,2.3318,2.3318,0,0,1,.4453.792,3.1375,3.1375,0,0,1,.1548,1.0068v.3789h-3.71v.2393a1.7658,1.7658,0,0,0,.105.6152,1.451,1.451,0,0,0,.3.4951,1.3808,1.3808,0,0,0,.48.33,1.6471,1.6471,0,0,0,.645.12,1.57,1.57,0,0,0,.855-.23,1.5051,1.5051,0,0,0,.5649-.66l.57.4131a1.9915,1.9915,0,0,1-.78.86A2.3534,2.3534,0,0,1,371.42,224.3032Zm0-4.7305a1.5248,1.5248,0,0,0-.6.1143,1.3621,1.3621,0,0,0-.4648.3232,1.5263,1.5263,0,0,0-.3052.4922,1.7018,1.7018,0,0,0-.11.6211v.0693h2.85v-.1093a1.5676,1.5676,0,0,0-.375-1.0977A1.2794,1.2794,0,0,0,371.42,219.5727Z"/><path d="M381.08,224.1831a.7838.7838,0,0,1-.6446-.24,1.1882,1.1882,0,0,1-.2451-.6h-.05a1.331,1.331,0,0,1-.56.72,1.7379,1.7379,0,0,1-.93.24,1.81,1.81,0,0,1-1.2754-.42,1.4789,1.4789,0,0,1-.4551-1.1407,1.3008,1.3008,0,0,1,.5352-1.1191,2.8438,2.8438,0,0,1,1.666-.3906h1.0195v-.51a1.1182,1.1182,0,0,0-.3-.84,1.281,1.281,0,0,0-.9209-.29,1.3916,1.3916,0,0,0-.7851.21,1.7289,1.7289,0,0,0-.5244.56l-.48-.4493a1.8239,1.8239,0,0,1,.67-.7158,2.1132,2.1132,0,0,1,1.16-.2949,2.136,2.136,0,0,1,1.46.459,1.6193,1.6193,0,0,1,.5195,1.2773v2.834h.59v.71Zm-2.3-.56a2.02,2.02,0,0,0,.55-.07,1.35,1.35,0,0,0,.4306-.2.9854.9854,0,0,0,.2793-.3.71.71,0,0,0,.1006-.37v-.85h-1.06a1.9364,1.9364,0,0,0-1.0039.1992.6461.6461,0,0,0-.3164.58v.21a.7007.7007,0,0,0,.2754.5908A1.201,1.201,0,0,0,378.78,223.6235Z"/><path d="M382.67,224.1831v-5.16h.8008v.8311h.04a1.6784,1.6784,0,0,1,.5342-.6934,1.5132,1.5132,0,0,1,.9258-.2578,1.6171,1.6171,0,0,1,1.2647.5156,2.097,2.097,0,0,1,.4648,1.4551v3.31h-.8v-3.1768q0-1.3931-1.17-1.3935a1.7919,1.7919,0,0,0-.4649.0605,1.3487,1.3487,0,0,0-.4052.1807.8883.8883,0,0,0-.2852.3056.8641.8641,0,0,0-.1045.4356v3.5879Z"/><path d="M391.65,223.353h-.04a1.5757,1.5757,0,0,1-1.5108.95,1.9544,1.9544,0,0,1-.8691-.19,1.8692,1.8692,0,0,1-.6651-.54,2.4736,2.4736,0,0,1-.4209-.85,4.4135,4.4135,0,0,1,0-2.24,2.4736,2.4736,0,0,1,.4209-.85,1.88,1.88,0,0,1,.6651-.54,1.9544,1.9544,0,0,1,.8691-.19,1.7563,1.7563,0,0,1,.9258.2334,1.45,1.45,0,0,1,.585.7178h.04v-3.0713h.8v7.4h-.8Zm-1.33.24a1.8553,1.8553,0,0,0,.5147-.07,1.3067,1.3067,0,0,0,.4248-.206,1.0122,1.0122,0,0,0,.2851-.3321.9256.9256,0,0,0,.1055-.4472v-1.93a.79.79,0,0,0-.1055-.3965,1.0032,1.0032,0,0,0-.2851-.3174,1.4339,1.4339,0,0,0-.4248-.2051,1.7224,1.7224,0,0,0-.5147-.0761,1.3746,1.3746,0,0,0-1.07.4277,1.5964,1.5964,0,0,0-.39,1.12v.8848a1.6007,1.6007,0,0,0,.39,1.1211A1.3777,1.3777,0,0,0,390.32,223.5932Z"/><path d="M395.97,219.0229h.78l.55,2.2305.5508,2.26h.0195l.63-2.26.65-2.2305h.71l.67,2.2305.64,2.26h.0205l.5293-2.26.5606-2.2305h.75l-1.37,5.16h-.99l-.72-2.4805-.45-1.5693h-.0195l-.44,1.5693-.72,2.4805h-.97Z"/><path d="M404.19,224.1831v-5.16h.8007v.95h.05a1.4843,1.4843,0,0,1,1.49-.95h.31v.8h-.47a1.81,1.81,0,0,0-1.0156.2451.7241.7241,0,0,0-.3643.6153v3.5Z"/><path d="M411.5693,224.1831a.7836.7836,0,0,1-.6445-.24,1.1873,1.1873,0,0,1-.2451-.6h-.05a1.3307,1.3307,0,0,1-.5606.72,1.7352,1.7352,0,0,1-.93.24,1.81,1.81,0,0,1-1.2753-.42,1.4779,1.4779,0,0,1-.4541-1.1407,1.3,1.3,0,0,1,.5341-1.1191,2.8427,2.8427,0,0,1,1.6651-.3906H410.63v-.51a1.1182,1.1182,0,0,0-.3-.84,1.28,1.28,0,0,0-.92-.29,1.3877,1.3877,0,0,0-.7852.21,1.7221,1.7221,0,0,0-.5254.56l-.48-.4493a1.8254,1.8254,0,0,1,.67-.7158,2.1138,2.1138,0,0,1,1.16-.2949,2.136,2.136,0,0,1,1.46.459,1.6193,1.6193,0,0,1,.52,1.2773v2.834h.59v.71Zm-2.3-.56a2.02,2.02,0,0,0,.55-.07,1.35,1.35,0,0,0,.4307-.2.9867.9867,0,0,0,.2793-.3.71.71,0,0,0,.1006-.37v-.85h-1.0606a1.94,1.94,0,0,0-1.0048.1992.6464.6464,0,0,0-.3145.58v.21a.7.7,0,0,0,.2744.5908A1.2012,1.2012,0,0,0,409.27,223.6235Z"/><path d="M413.1592,219.0229h.8008v.8311H414a1.44,1.44,0,0,1,.585-.7178,1.75,1.75,0,0,1,.9248-.2334,1.9621,1.9621,0,0,1,.87.19,1.8981,1.8981,0,0,1,.665.54,2.4883,2.4883,0,0,1,.42.85,4.4106,4.4106,0,0,1,0,2.24,2.4883,2.4883,0,0,1-.42.85,1.8871,1.8871,0,0,1-.665.54,1.9621,1.9621,0,0,1-.87.19,1.5609,1.5609,0,0,1-1.51-.95h-.04v2.83h-.8008Zm2.1308,4.57a1.3771,1.3771,0,0,0,1.0694-.4267,1.6017,1.6017,0,0,0,.3906-1.1211v-.8848a1.5974,1.5974,0,0,0-.3906-1.12,1.3739,1.3739,0,0,0-1.0694-.4277,1.7241,1.7241,0,0,0-.5156.0761,1.4315,1.4315,0,0,0-.4248.2051,1.0032,1.0032,0,0,0-.2851.3174.7884.7884,0,0,0-.1045.3965v1.93a.9241.9241,0,0,0,.1045.4472,1.0122,1.0122,0,0,0,.2851.3321,1.3047,1.3047,0,0,0,.4248.206A1.857,1.857,0,0,0,415.29,223.5932Z"/><path d="M420.51,224.3032a2.4093,2.4093,0,0,1-1.2051-.2754,2.72,2.72,0,0,1-.835-.7344l.5694-.46a2.2588,2.2588,0,0,0,.67.5849,1.7465,1.7465,0,0,0,.86.2051,1.2677,1.2677,0,0,0,.795-.2207.7984.7984,0,0,0,.09-1.1348,1.1888,1.1888,0,0,0-.7051-.2949l-.4092-.06a3.5153,3.5153,0,0,1-.66-.1552,1.8368,1.8368,0,0,1-.5254-.28,1.1941,1.1941,0,0,1-.35-.4346,1.4106,1.4106,0,0,1-.125-.62,1.4827,1.4827,0,0,1,.14-.665,1.3464,1.3464,0,0,1,.3848-.4756,1.693,1.693,0,0,1,.585-.2842,2.7,2.7,0,0,1,.73-.0957,2.266,2.266,0,0,1,1.0547.2207,2.37,2.37,0,0,1,.7451.6094l-.53.48a1.5807,1.5807,0,0,0-.5-.4355,1.6093,1.6093,0,0,0-.83-.1943,1.1445,1.1445,0,0,0-.7549.2148.725.725,0,0,0-.2549.585.6127.6127,0,0,0,.2549.55,1.9124,1.9124,0,0,0,.7354.25l.4.06a2.1484,2.1484,0,0,1,1.22.4952,1.3026,1.3026,0,0,1,.3593.955,1.4636,1.4636,0,0,1-.51,1.1807A2.107,2.107,0,0,1,420.51,224.3032Z"/><path d="M427.33,224.1831a.8173.8173,0,0,1-.6348-.2344.8725.8725,0,0,1-.2158-.6133v-3.6025h-.85v-.71h.4795a.4732.4732,0,0,0,.3554-.1045.5464.5464,0,0,0,.0948-.3652v-.96h.7207v1.43h1.13v.71h-1.13v3.74h1.05v.71Z"/><path d="M429.6992,216.7827H430.5v3.0713h.04a1.6784,1.6784,0,0,1,.5342-.6934,1.5132,1.5132,0,0,1,.9258-.2578,1.6167,1.6167,0,0,1,1.2646.5156,2.0966,2.0966,0,0,1,.4649,1.4551v3.31h-.8v-3.1768q0-1.3931-1.17-1.3935a1.7919,1.7919,0,0,0-.4649.0605,1.35,1.35,0,0,0-.4053.1807.8889.8889,0,0,0-.2851.3056.8641.8641,0,0,0-.1045.4356v3.5879h-.8008Z"/><path d="M437.3193,224.3032a2.3106,2.3106,0,0,1-.955-.19,2.0417,2.0417,0,0,1-.73-.545,2.4882,2.4882,0,0,1-.4707-.85,3.8328,3.8328,0,0,1,0-2.2256,2.4856,2.4856,0,0,1,.4707-.8545,2.0649,2.0649,0,0,1,.73-.5449,2.3106,2.3106,0,0,1,.955-.19,2.1974,2.1974,0,0,1,.93.1894,2.054,2.054,0,0,1,.7.5235,2.3318,2.3318,0,0,1,.4453.792,3.1239,3.1239,0,0,1,.1543,1.0068v.3789h-3.71v.2393a1.7544,1.7544,0,0,0,.1054.6152,1.46,1.46,0,0,0,.3.4951,1.3736,1.3736,0,0,0,.4805.33,1.6414,1.6414,0,0,0,.6445.12,1.5725,1.5725,0,0,0,.8555-.23,1.5043,1.5043,0,0,0,.5645-.66l.57.4131a1.9923,1.9923,0,0,1-.78.86A2.3541,2.3541,0,0,1,437.3193,224.3032Zm0-4.7305a1.5223,1.5223,0,0,0-.6.1143,1.3719,1.3719,0,0,0-.4658.3232,1.5268,1.5268,0,0,0-.3047.4922,1.7019,1.7019,0,0,0-.11.6211v.0693H438.69v-.1093a1.5676,1.5676,0,0,0-.375-1.0977A1.28,1.28,0,0,0,437.3193,219.5727Z"/><path d="M446.5293,223.353h-.04a1.5757,1.5757,0,0,1-1.5108.95,1.9544,1.9544,0,0,1-.8691-.19,1.87,1.87,0,0,1-.6651-.54,2.4736,2.4736,0,0,1-.4209-.85,4.4135,4.4135,0,0,1,0-2.24,2.4736,2.4736,0,0,1,.4209-.85,1.8808,1.8808,0,0,1,.6651-.54,1.9544,1.9544,0,0,1,.8691-.19,1.7563,1.7563,0,0,1,.9258.2334,1.45,1.45,0,0,1,.585.7178h.04v-3.0713h.8v7.4h-.8Zm-1.33.24a1.8553,1.8553,0,0,0,.5147-.07,1.3047,1.3047,0,0,0,.4248-.206,1.0122,1.0122,0,0,0,.2851-.3321.9256.9256,0,0,0,.1055-.4472v-1.93a.79.79,0,0,0-.1055-.3965,1.0032,1.0032,0,0,0-.2851-.3174,1.4315,1.4315,0,0,0-.4248-.2051,1.7224,1.7224,0,0,0-.5147-.0761,1.3746,1.3746,0,0,0-1.07.4277,1.5964,1.5964,0,0,0-.39,1.12v.8848a1.6007,1.6007,0,0,0,.39,1.1211A1.3777,1.3777,0,0,0,445.1992,223.5932Z"/><path d="M452.7783,224.1831a.7836.7836,0,0,1-.6445-.24,1.1873,1.1873,0,0,1-.2451-.6h-.05a1.3307,1.3307,0,0,1-.5606.72,1.7352,1.7352,0,0,1-.93.24,1.81,1.81,0,0,1-1.2754-.42,1.4783,1.4783,0,0,1-.4541-1.1407,1.3,1.3,0,0,1,.5342-1.1191,2.8425,2.8425,0,0,1,1.6651-.3906h1.0205v-.51a1.1182,1.1182,0,0,0-.3-.84,1.28,1.28,0,0,0-.92-.29,1.3873,1.3873,0,0,0-.7851.21,1.721,1.721,0,0,0-.5254.56l-.48-.4493a1.8254,1.8254,0,0,1,.67-.7158,2.1138,2.1138,0,0,1,1.16-.2949,2.1355,2.1355,0,0,1,1.46.459,1.6194,1.6194,0,0,1,.52,1.2773v2.834h.59v.71Zm-2.3-.56a2.02,2.02,0,0,0,.55-.07,1.35,1.35,0,0,0,.4307-.2.9867.9867,0,0,0,.2793-.3.71.71,0,0,0,.1006-.37v-.85h-1.0606a1.9408,1.9408,0,0,0-1.0049.1992.6466.6466,0,0,0-.3144.58v.21a.7.7,0,0,0,.2744.5908A1.201,1.201,0,0,0,450.4785,223.6235Z"/><path d="M455.51,224.1831a.8173.8173,0,0,1-.6348-.2344.8721.8721,0,0,1-.2158-.6133v-3.6025h-.85v-.71h.48a.4732.4732,0,0,0,.3554-.1045.5464.5464,0,0,0,.0948-.3652v-.96h.7207v1.43h1.13v.71h-1.13v3.74h1.05v.71Z"/><path d="M461.6289,224.1831a.7836.7836,0,0,1-.6445-.24,1.1873,1.1873,0,0,1-.2451-.6h-.05a1.3311,1.3311,0,0,1-.5606.72,1.7355,1.7355,0,0,1-.93.24,1.81,1.81,0,0,1-1.2754-.42,1.4783,1.4783,0,0,1-.4541-1.1407,1.3,1.3,0,0,1,.5342-1.1191,2.8424,2.8424,0,0,1,1.665-.3906H460.69v-.51a1.1179,1.1179,0,0,0-.3-.84,1.28,1.28,0,0,0-.92-.29,1.3871,1.3871,0,0,0-.7851.21,1.721,1.721,0,0,0-.5254.56l-.4795-.4493a1.8246,1.8246,0,0,1,.67-.7158,2.1136,2.1136,0,0,1,1.16-.2949,2.1359,2.1359,0,0,1,1.46.459,1.6194,1.6194,0,0,1,.52,1.2773v2.834h.59v.71Zm-2.3-.56a2.02,2.02,0,0,0,.55-.07,1.35,1.35,0,0,0,.4307-.2.9867.9867,0,0,0,.2793-.3.71.71,0,0,0,.1006-.37v-.85h-1.0606a1.9406,1.9406,0,0,0-1.0049.1992.6466.6466,0,0,0-.3144.58v.21a.7.7,0,0,0,.2744.5908A1.201,1.201,0,0,0,459.3291,223.6235Z"/><path d="M469.3281,224.1831a.7836.7836,0,0,1-.6445-.24,1.1873,1.1873,0,0,1-.2451-.6h-.05a1.3307,1.3307,0,0,1-.5606.72,1.7352,1.7352,0,0,1-.93.24,1.81,1.81,0,0,1-1.2754-.42,1.4783,1.4783,0,0,1-.4541-1.1407,1.3,1.3,0,0,1,.5342-1.1191,2.8425,2.8425,0,0,1,1.6651-.3906h1.02v-.51a1.1182,1.1182,0,0,0-.3-.84,1.28,1.28,0,0,0-.92-.29,1.3876,1.3876,0,0,0-.7851.21,1.721,1.721,0,0,0-.5254.56l-.48-.4493a1.8254,1.8254,0,0,1,.67-.7158,2.1138,2.1138,0,0,1,1.16-.2949,2.1355,2.1355,0,0,1,1.46.459,1.6194,1.6194,0,0,1,.52,1.2773v2.834h.59v.71Zm-2.3-.56a2.02,2.02,0,0,0,.55-.07,1.35,1.35,0,0,0,.4307-.2.9867.9867,0,0,0,.2793-.3.71.71,0,0,0,.1006-.37v-.85h-1.0606a1.9408,1.9408,0,0,0-1.0049.1992.6466.6466,0,0,0-.3144.58v.21a.7.7,0,0,0,.2744.5908A1.201,1.201,0,0,0,467.0283,223.6235Z"/><path d="M472.06,224.1831a.8173.8173,0,0,1-.6348-.2344.8721.8721,0,0,1-.2158-.6133v-3.6025h-.85v-.71h.48a.4732.4732,0,0,0,.3554-.1045.5464.5464,0,0,0,.0948-.3652v-.96h.7207v1.43h1.13v.71h-1.13v3.74h1.05v.71Z"/><path d="M476.7881,224.1831v-5.16h.8008v.95h.05a1.4843,1.4843,0,0,1,1.49-.95h.31v.8h-.47a1.81,1.81,0,0,0-1.0157.2451.7242.7242,0,0,0-.3642.6153v3.5Z"/><path d="M482.3486,224.3032a2.3106,2.3106,0,0,1-.955-.19,2.0417,2.0417,0,0,1-.7295-.545,2.4882,2.4882,0,0,1-.4707-.85,3.8328,3.8328,0,0,1,0-2.2256,2.4856,2.4856,0,0,1,.4707-.8545,2.0649,2.0649,0,0,1,.7295-.5449,2.3106,2.3106,0,0,1,.955-.19,2.1974,2.1974,0,0,1,.93.1894,2.054,2.054,0,0,1,.7.5235,2.3318,2.3318,0,0,1,.4453.792,3.1239,3.1239,0,0,1,.1543,1.0068v.3789h-3.71v.2393a1.7544,1.7544,0,0,0,.1054.6152,1.46,1.46,0,0,0,.3.4951,1.3736,1.3736,0,0,0,.4805.33,1.6414,1.6414,0,0,0,.6445.12,1.5725,1.5725,0,0,0,.8555-.23,1.5043,1.5043,0,0,0,.5645-.66l.57.4131a1.9923,1.9923,0,0,1-.78.86A2.3541,2.3541,0,0,1,482.3486,224.3032Zm0-4.7305a1.5223,1.5223,0,0,0-.6.1143,1.3719,1.3719,0,0,0-.4658.3232,1.5268,1.5268,0,0,0-.3047.4922,1.7019,1.7019,0,0,0-.11.6211v.0693h2.8506v-.1093a1.5676,1.5676,0,0,0-.375-1.0977A1.28,1.28,0,0,0,482.3486,219.5727Z"/><path d="M487.4492,224.3032a2.41,2.41,0,0,1-1.2051-.2754,2.72,2.72,0,0,1-.8349-.7344l.5693-.46a2.2588,2.2588,0,0,0,.67.5849,1.7467,1.7467,0,0,0,.86.2051,1.2674,1.2674,0,0,0,.7949-.2207.7983.7983,0,0,0,.09-1.1348,1.1888,1.1888,0,0,0-.7051-.2949l-.4092-.06a3.5183,3.5183,0,0,1-.66-.1552,1.8349,1.8349,0,0,1-.5253-.28,1.1944,1.1944,0,0,1-.35-.4346,1.412,1.412,0,0,1-.125-.62,1.4814,1.4814,0,0,1,.14-.665,1.3454,1.3454,0,0,1,.3848-.4756,1.6925,1.6925,0,0,1,.5849-.2842,2.7,2.7,0,0,1,.7305-.0957,2.2663,2.2663,0,0,1,1.0547.2207,2.3715,2.3715,0,0,1,.7451.6094l-.53.48a1.5807,1.5807,0,0,0-.5-.4355,1.609,1.609,0,0,0-.83-.1943,1.1442,1.1442,0,0,0-.7548.2148.7247.7247,0,0,0-.2549.585.6125.6125,0,0,0,.2549.55,1.9125,1.9125,0,0,0,.7353.25l.4.06a2.1481,2.1481,0,0,1,1.22.4952,1.3023,1.3023,0,0,1,.3594.955,1.4634,1.4634,0,0,1-.51,1.1807A2.1067,2.1067,0,0,1,487.4492,224.3032Z"/><path d="M491.8389,224.1831a.8173.8173,0,0,1-.6348-.2344.8721.8721,0,0,1-.2158-.6133v-3.6025h-.85v-.71h.48a.4732.4732,0,0,0,.3554-.1045.5464.5464,0,0,0,.0948-.3652v-.96h.7207v1.43h1.13v.71h-1.13v3.74h1.05v.71Z"/></g><g id="text"><path d="M49.1123,37.3935v-1.272h1.104V30.29h-1.104v-1.272H52.916V30.29H51.8v5.832H52.916v1.272Z"/><path d="M54.5356,29.0175h3.876a2.6324,2.6324,0,0,1,.93.1558,2.0494,2.0494,0,0,1,.7021.4321,1.794,1.794,0,0,1,.438.6782,2.5143,2.5143,0,0,1,.15.8819,2.2817,2.2817,0,0,1-.1259.81,1.58,1.58,0,0,1-.336.5459,1.3849,1.3849,0,0,1-.48.3243,1.684,1.684,0,0,1-.5581.12v.0723a1.8565,1.8565,0,0,1,.5938.1079,1.7588,1.7588,0,0,1,.5884.3423,1.88,1.88,0,0,1,.45.6,2.0429,2.0429,0,0,1,.18.9062,2.6963,2.6963,0,0,1-.1621.9419,2.3679,2.3679,0,0,1-.45.7622,2.1023,2.1023,0,0,1-.6836.51,2.0078,2.0078,0,0,1-.8642.186H54.5356ZM56.12,32.51h1.9561a.921.921,0,0,0,.6719-.2344.87.87,0,0,0,.24-.6538V31.25a.87.87,0,0,0-.24-.6538.921.921,0,0,0-.6719-.2344H56.12Zm0,3.54h2.208a1,1,0,0,0,.708-.2339.879.879,0,0,0,.252-.6777V34.73a.9.9,0,0,0-.252-.6841.9864.9864,0,0,0-.708-.24H56.12Z"/><path d="M68.8159,31.3813h-.0483l-.648,1.332-1.7158,3.168-1.7158-3.168-.648-1.332h-.0483v6.0122h-1.5v-8.376H64.28l2.1479,4.0918h.0479L68.6,29.0175h1.7163v8.376h-1.5Z"/><path d="M78.3677,37.5376a3.94,3.94,0,0,1-1.4937-.27,2.9934,2.9934,0,0,1-1.14-.81,3.6671,3.6671,0,0,1-.7261-1.3379,6.1684,6.1684,0,0,1-.2519-1.854,6.4071,6.4071,0,0,1,.2519-1.8779,3.8374,3.8374,0,0,1,.7261-1.38,3.0831,3.0831,0,0,1,1.14-.8457,3.7282,3.7282,0,0,1,1.4937-.2881,3.39,3.39,0,0,1,1.872.48,3.2977,3.2977,0,0,1,1.188,1.4521l-1.3559.72a1.9065,1.9065,0,0,0-.5879-.9057,1.6844,1.6844,0,0,0-1.1162-.3423,1.7732,1.7732,0,0,0-1.41.6,2.4781,2.4781,0,0,0-.522,1.68v1.32a2.4269,2.4269,0,0,0,.522,1.6743,1.8,1.8,0,0,0,1.41.582,1.72,1.72,0,0,0,1.1582-.3842,2.213,2.213,0,0,0,.6538-.9478l1.2842.7559a3.69,3.69,0,0,1-1.2119,1.458A3.2386,3.2386,0,0,1,78.3677,37.5376Z"/><path d="M84.26,37.3935a1.5287,1.5287,0,0,1-1.1641-.396,1.5678,1.5678,0,0,1-.3716-1.1162V28.5136H84.26v7.6441h.8281v1.2358Z"/><path d="M88.7358,37.5376A3.0445,3.0445,0,0,1,87.53,37.31a2.4967,2.4967,0,0,1-.9121-.66,3.02,3.02,0,0,1-.5821-1.0381,4.2472,4.2472,0,0,1-.2041-1.3618,4.1939,4.1939,0,0,1,.2041-1.356,2.9677,2.9677,0,0,1,.5821-1.0259,2.536,2.536,0,0,1,.9121-.6543,3.0463,3.0463,0,0,1,1.206-.228,3.0918,3.0918,0,0,1,1.212.228,2.525,2.525,0,0,1,.9179.6543,2.9677,2.9677,0,0,1,.5821,1.0259,4.2075,4.2075,0,0,1,.2041,1.356,4.2611,4.2611,0,0,1-.2041,1.3618,3.02,3.02,0,0,1-.5821,1.0381,2.4862,2.4862,0,0,1-.9179.66A3.09,3.09,0,0,1,88.7358,37.5376Zm0-1.2359a1.25,1.25,0,0,0,.96-.3721,1.5444,1.5444,0,0,0,.3481-1.0922V33.6733a1.5246,1.5246,0,0,0-.3481-1.08,1.2507,1.2507,0,0,0-.96-.3721,1.235,1.235,0,0,0-.9482.3721,1.5245,1.5245,0,0,0-.3477,1.08v1.1641a1.5443,1.5443,0,0,0,.3477,1.0922A1.2346,1.2346,0,0,0,88.7358,36.3017Z"/><path d="M96.7515,36.35h-.06a2.0318,2.0318,0,0,1-.2217.45,1.6415,1.6415,0,0,1-.3481.3784,1.5933,1.5933,0,0,1-.5039.2637,2.1884,2.1884,0,0,1-.6782.0962,1.8035,1.8035,0,0,1-1.4878-.6363,2.8071,2.8071,0,0,1-.5162-1.812v-3.96h1.5362v3.8042a1.6512,1.6512,0,0,0,.2519.99.9325.9325,0,0,0,.8042.3423,1.7111,1.7111,0,0,0,.45-.06,1.1405,1.1405,0,0,0,.39-.186,1.0346,1.0346,0,0,0,.2759-.312.8549.8549,0,0,0,.1079-.438v-4.14h1.5361v6.2641H96.7515Z"/><path d="M103.9512,36.35h-.06a1.6009,1.6009,0,0,1-.6357.8637,1.87,1.87,0,0,1-1.0923.3243,2.1215,2.1215,0,0,1-1.8179-.8521,4.0447,4.0447,0,0,1-.63-2.436,3.9939,3.9939,0,0,1,.63-2.418,2.1282,2.1282,0,0,1,1.8179-.8462,1.8979,1.8979,0,0,1,1.0923.3184,1.5731,1.5731,0,0,1,.6357.8579h.06v-3.648h1.5361v8.88h-1.5361Zm-1.2959-.084a1.5546,1.5546,0,0,0,.9238-.2642.87.87,0,0,0,.3721-.7558V33.2534a.8681.8681,0,0,0-.3721-.732,1.5079,1.5079,0,0,0-.9238-.2758,1.2429,1.2429,0,0,0-.9658.4018,1.5335,1.5335,0,0,0-.3663,1.0742v1.08A1.5114,1.5114,0,0,0,101.69,35.87,1.2519,1.2519,0,0,0,102.6553,36.2656Z"/><path d="M113.9829,36.35h-.06a1.6015,1.6015,0,0,1-.6358.8637,1.87,1.87,0,0,1-1.0923.3243,2.1213,2.1213,0,0,1-1.8178-.8521,4.044,4.044,0,0,1-.63-2.436,3.9932,3.9932,0,0,1,.63-2.418,2.128,2.128,0,0,1,1.8178-.8462,1.8979,1.8979,0,0,1,1.0923.3184,1.5738,1.5738,0,0,1,.6358.8579h.06v-3.648h1.5361v8.88h-1.5361Zm-1.2959-.084a1.5543,1.5543,0,0,0,.9238-.2642.87.87,0,0,0,.3721-.7558V33.2534a.8678.8678,0,0,0-.3721-.732,1.5077,1.5077,0,0,0-.9238-.2758,1.2429,1.2429,0,0,0-.9658.4018,1.5339,1.5339,0,0,0-.3662,1.0742v1.08a1.5118,1.5118,0,0,0,.3662,1.0679A1.2519,1.2519,0,0,0,112.687,36.2656Z"/><path d="M121.9033,37.3935a1.0764,1.0764,0,0,1-.7978-.2939,1.3488,1.3488,0,0,1-.3662-.7862h-.0723a1.4691,1.4691,0,0,1-.6358.918,2.168,2.168,0,0,1-1.1879.3062,2.0288,2.0288,0,0,1-1.4761-.5025,1.7828,1.7828,0,0,1-.5161-1.34,1.6226,1.6226,0,0,1,.6963-1.4414,3.5058,3.5058,0,0,1,1.98-.4722h1.0679v-.4561a1.1335,1.1335,0,0,0-.2759-.8159,1.1833,1.1833,0,0,0-.8881-.2881,1.4731,1.4731,0,0,0-.87.2339,2.3037,2.3037,0,0,0-.5576.5581l-.9121-.8208a2.6529,2.6529,0,0,1,.9238-.8755,3.0413,3.0413,0,0,1,1.524-.332,2.8644,2.8644,0,0,1,1.9321.5747,2.0738,2.0738,0,0,1,.66,1.6524v2.9453h.6241v1.2358Zm-2.5439-.9722a1.6157,1.6157,0,0,0,.876-.226.74.74,0,0,0,.36-.6675v-.8223h-.9839q-1.2,0-1.2.7627v.2027a.6616.6616,0,0,0,.2461.5659A1.1533,1.1533,0,0,0,119.3594,36.4213Z"/><path d="M125.9111,37.3935a1.6353,1.6353,0,0,1-1.206-.4131,1.5909,1.5909,0,0,1-.4141-1.1792V32.3657h-.9243V31.1294h.48a.5737.5737,0,0,0,.4741-.1617.7851.7851,0,0,0,.126-.4863V29.4135h1.38v1.7159h1.2841v1.2363h-1.2841v3.792h1.1884v1.2358Z"/><path d="M133.0508,37.3935a1.0765,1.0765,0,0,1-.7979-.2939,1.3494,1.3494,0,0,1-.3662-.7862h-.0722a1.47,1.47,0,0,1-.6358.918,2.1682,2.1682,0,0,1-1.188.3062,2.0291,2.0291,0,0,1-1.4761-.5025,1.7832,1.7832,0,0,1-.5161-1.34,1.6229,1.6229,0,0,1,.6963-1.4414,3.5064,3.5064,0,0,1,1.98-.4722h1.0679v-.4561a1.1335,1.1335,0,0,0-.2759-.8159,1.1837,1.1837,0,0,0-.8882-.2881,1.473,1.473,0,0,0-.87.2339,2.3019,2.3019,0,0,0-.5576.5581l-.9121-.8208a2.6529,2.6529,0,0,1,.9238-.8755,3.0411,3.0411,0,0,1,1.5239-.332,2.8645,2.8645,0,0,1,1.9322.5747,2.0738,2.0738,0,0,1,.66,1.6524v2.9453h.624v1.2358Zm-2.544-.9722a1.6152,1.6152,0,0,0,.876-.226.7394.7394,0,0,0,.36-.6675v-.8223h-.9839q-1.2,0-1.2.7627v.2027a.6613.6613,0,0,0,.2461.5659A1.1529,1.1529,0,0,0,130.5068,36.4213Z"/><path d="M140.0347,37.5376a3.3573,3.3573,0,0,1-1.5118-.3062,3.48,3.48,0,0,1-1.08-.8457l.936-.9121a2.8337,2.8337,0,0,0,.7617.624,1.947,1.947,0,0,0,.9541.228,1.3077,1.3077,0,0,0,.7979-.1919.6334.6334,0,0,0,.2461-.5283.57.57,0,0,0-.1739-.438,1.11,1.11,0,0,0-.5942-.2221l-.624-.084a2.969,2.969,0,0,1-1.5537-.5816,1.6211,1.6211,0,0,1-.5342-1.3144,1.95,1.95,0,0,1,.168-.8218,1.7443,1.7443,0,0,1,.48-.624,2.2057,2.2057,0,0,1,.75-.396,3.2531,3.2531,0,0,1,.9781-.1382,4.4556,4.4556,0,0,1,.81.0664,2.9459,2.9459,0,0,1,.6421.1919,2.4849,2.4849,0,0,1,.5278.312,4.9882,4.9882,0,0,1,.4683.4141l-.9.9a2.3782,2.3782,0,0,0-.66-.48,1.8552,1.8552,0,0,0-.84-.1919,1.156,1.156,0,0,0-.7256.18.5734.5734,0,0,0-.2221.4683.5937.5937,0,0,0,.186.4736,1.2871,1.2871,0,0,0,.63.2344l.6362.084q2.0274.2877,2.0278,1.8476a1.8624,1.8624,0,0,1-.186.834,1.9008,1.9008,0,0,1-.522.6484,2.4753,2.4753,0,0,1-.81.42A3.5231,3.5231,0,0,1,140.0347,37.5376Z"/><path d="M146.5024,37.5376a3.13,3.13,0,0,1-1.2417-.2339,2.5718,2.5718,0,0,1-.9243-.66,2.9524,2.9524,0,0,1-.582-1.0322,4.65,4.65,0,0,1-.0059-2.7056,2.9382,2.9382,0,0,1,.57-1.0263,2.5264,2.5264,0,0,1,.9121-.66,3.0447,3.0447,0,0,1,1.2241-.2344,2.9751,2.9751,0,0,1,1.272.2525,2.4575,2.4575,0,0,1,.8881.6835,2.9584,2.9584,0,0,1,.522,1.002,4.1638,4.1638,0,0,1,.1738,1.2183v.5039h-4.164V34.8a1.5306,1.5306,0,0,0,.3843,1.09,1.4854,1.4854,0,0,0,1.14.4111,1.6979,1.6979,0,0,0,.9419-.2383,2.6787,2.6787,0,0,0,.6543-.6079l.8281.9268a2.5778,2.5778,0,0,1-1.05.8486A3.6563,3.6563,0,0,1,146.5024,37.5376Zm-.0239-5.4a1.2311,1.2311,0,0,0-.9722.4077,1.5384,1.5384,0,0,0-.36,1.0561v.0962h2.5679v-.1084a1.6435,1.6435,0,0,0-.3179-1.05A1.1008,1.1008,0,0,0,146.4785,32.1377Z"/><path d="M150.667,37.3935V31.1294h1.5356v1.2963h.06a1.9979,1.9979,0,0,1,.186-.4863,1.4954,1.4954,0,0,1,.33-.4141,1.5792,1.5792,0,0,1,.4858-.2875,1.8172,1.8172,0,0,1,.6543-.1084h.336v1.4521h-.48a2.4123,2.4123,0,0,0-1.1763.228.7927.7927,0,0,0-.396.7442v3.84Z"/><path d="M156.8223,37.3935l-2.0879-6.2641h1.5117l.8765,2.7.6118,2.232h.084l.6118-2.232.852-2.7h1.4639l-2.1,6.2641Z"/><path d="M162.5342,30.2177a.9324.9324,0,0,1-.69-.2163.76.76,0,0,1-.21-.5517v-.24a.7606.7606,0,0,1,.21-.5517,1.1993,1.1993,0,0,1,1.3741,0,.7477.7477,0,0,1,.2163.5517v.24a.7469.7469,0,0,1-.2163.5517A.9354.9354,0,0,1,162.5342,30.2177Zm-.7676.9117h1.5356v6.2641h-1.5356Z"/><path d="M167.55,37.5376a3.1538,3.1538,0,0,1-1.2358-.2281,2.3835,2.3835,0,0,1-.9063-.66,2.9684,2.9684,0,0,1-.5576-1.0381,4.485,4.485,0,0,1-.1924-1.3618,4.4285,4.4285,0,0,1,.1924-1.356,2.9153,2.9153,0,0,1,.5576-1.0259,2.4192,2.4192,0,0,1,.9063-.6543,3.1556,3.1556,0,0,1,1.2358-.228,2.7249,2.7249,0,0,1,1.5659.42,2.3565,2.3565,0,0,1,.8941,1.1636l-1.26.5644a1.31,1.31,0,0,0-.4019-.6542,1.1692,1.1692,0,0,0-.7983-.2579,1.15,1.15,0,0,0-.9658.4078,1.6906,1.6906,0,0,0-.3179,1.0683v1.14a1.6616,1.6616,0,0,0,.3179,1.062,1.1566,1.1566,0,0,0,.9658.4023,1.197,1.197,0,0,0,.8521-.2822,1.9317,1.9317,0,0,0,.4682-.7022l1.1758.564a2.4579,2.4579,0,0,1-.9478,1.2422A2.78,2.78,0,0,1,167.55,37.5376Z"/><path d="M173.7061,37.5376a3.129,3.129,0,0,1-1.2417-.2339,2.5713,2.5713,0,0,1-.9244-.66,2.9524,2.9524,0,0,1-.582-1.0322,4.65,4.65,0,0,1-.0059-2.7056,2.9382,2.9382,0,0,1,.57-1.0263,2.5264,2.5264,0,0,1,.9121-.66,3.0447,3.0447,0,0,1,1.2241-.2344,2.9751,2.9751,0,0,1,1.272.2525,2.4587,2.4587,0,0,1,.8882.6835,2.96,2.96,0,0,1,.5219,1.002,4.16,4.16,0,0,1,.1739,1.2183v.5039H172.35V34.8a1.5306,1.5306,0,0,0,.3843,1.09,1.4854,1.4854,0,0,0,1.14.4111,1.6979,1.6979,0,0,0,.9419-.2383,2.6769,2.6769,0,0,0,.6543-.6079l.8281.9268a2.5778,2.5778,0,0,1-1.05.8486A3.6561,3.6561,0,0,1,173.7061,37.5376Zm-.024-5.4a1.2307,1.2307,0,0,0-.9721.4077,1.5379,1.5379,0,0,0-.36,1.0561v.0962h2.5679v-.1084a1.6435,1.6435,0,0,0-.3179-1.05A1.1008,1.1008,0,0,0,173.6821,32.1377Z"/><path d="M242.6924,32.8535H239.2v3.54h-1.584v-8.376H239.2V31.45h3.4922V28.0175h1.584v8.376h-1.584Z"/><path d="M249.9883,30.1294h1.44l-2.52,7.38a3.1745,3.1745,0,0,1-.27.5821,1.45,1.45,0,0,1-.354.4018,1.3367,1.3367,0,0,1-.4917.228,2.8021,2.8021,0,0,1-.6724.0718h-.9238V37.5576h1.1279l.2881-.8745-2.2441-6.5537h1.5239l1.0923,3.3051.4077,1.5806h.0723l.4321-1.5806Z"/><path d="M252.436,30.1294h1.5357v1.0322h.0483a1.5733,1.5733,0,0,1,.6358-.8579,1.8976,1.8976,0,0,1,1.0922-.3184,2.14,2.14,0,0,1,1.83.8462,3.99,3.99,0,0,1,.63,2.418,4.0411,4.0411,0,0,1-.63,2.436,2.1336,2.1336,0,0,1-1.83.8521,1.8427,1.8427,0,0,1-1.0864-.3243,1.674,1.674,0,0,1-.6416-.8637h-.0483v3.4438H252.436Zm2.82,5.1362a1.2722,1.2722,0,0,0,.9721-.396,1.4988,1.4988,0,0,0,.3716-1.0679v-1.08a1.5207,1.5207,0,0,0-.3716-1.0742,1.2629,1.2629,0,0,0-.9721-.4018,1.4812,1.4812,0,0,0-.918.2758.8725.8725,0,0,0-.3662.732v1.9922a.8749.8749,0,0,0,.3662.7558A1.5268,1.5268,0,0,0,255.2559,35.2656Z"/><path d="M262.168,36.5376a3.129,3.129,0,0,1-1.2417-.2339,2.57,2.57,0,0,1-.9243-.66,2.9526,2.9526,0,0,1-.5821-1.0322,4.6487,4.6487,0,0,1-.0058-2.7056,2.9364,2.9364,0,0,1,.57-1.0263,2.5264,2.5264,0,0,1,.9121-.66,3.0453,3.0453,0,0,1,1.2241-.2344,2.9751,2.9751,0,0,1,1.272.2525,2.457,2.457,0,0,1,.8882.6835,2.96,2.96,0,0,1,.5219,1.002,4.16,4.16,0,0,1,.1739,1.2183v.5039H260.812V33.8a1.5306,1.5306,0,0,0,.3843,1.09,1.4854,1.4854,0,0,0,1.14.4111,1.6979,1.6979,0,0,0,.9419-.2383,2.6769,2.6769,0,0,0,.6543-.6079l.8282.9268a2.5791,2.5791,0,0,1-1.05.8486A3.6566,3.6566,0,0,1,262.168,36.5376Zm-.024-5.4a1.2307,1.2307,0,0,0-.9721.4077,1.5379,1.5379,0,0,0-.36,1.0561v.0962H263.38v-.1084a1.6435,1.6435,0,0,0-.3179-1.05A1.1008,1.1008,0,0,0,262.144,31.1377Z"/><path d="M266.332,36.3935V30.1294h1.5357v1.2963h.06a2.0023,2.0023,0,0,1,.1861-.4863,1.495,1.495,0,0,1,.33-.4141,1.5786,1.5786,0,0,1,.4859-.2875,1.8169,1.8169,0,0,1,.6543-.1084h.3359v1.4521h-.48a2.4116,2.4116,0,0,0-1.1762.228.7925.7925,0,0,0-.396.7442v3.84Z"/><path d="M273.9756,36.3935v-8.376h3.7681a2.7557,2.7557,0,0,1,1.038.1861,2.2024,2.2024,0,0,1,.7862.5278,2.2676,2.2676,0,0,1,.4917.8223,3.4224,3.4224,0,0,1,0,2.1176,2.2727,2.2727,0,0,1-.4917.8165,2.2089,2.2089,0,0,1-.7862.5278,2.7577,2.7577,0,0,1-1.038.186H275.56v3.1919Zm1.584-4.56h2.04a1.015,1.015,0,0,0,.72-.2461.9121.9121,0,0,0,.2637-.7017v-.5522a.8934.8934,0,0,0-.2637-.6958,1.03,1.03,0,0,0-.72-.24h-2.04Z"/><path d="M281.4517,36.3935V30.1294h1.5356v1.2963h.06a1.9979,1.9979,0,0,1,.186-.4863,1.4936,1.4936,0,0,1,.33-.4141,1.5769,1.5769,0,0,1,.4858-.2875,1.8172,1.8172,0,0,1,.6543-.1084h.336v1.4521h-.48a2.4123,2.4123,0,0,0-1.1763.228.7925.7925,0,0,0-.396.7442v3.84Z"/><path d="M288.5918,36.5376a3.0454,3.0454,0,0,1-1.2061-.2281,2.4984,2.4984,0,0,1-.9121-.66,3.02,3.02,0,0,1-.582-1.0381,4.2472,4.2472,0,0,1-.2041-1.3618,4.1939,4.1939,0,0,1,.2041-1.356,2.9675,2.9675,0,0,1,.582-1.0259,2.5378,2.5378,0,0,1,.9121-.6543,3.0471,3.0471,0,0,1,1.2061-.228,3.0913,3.0913,0,0,1,1.2119.228,2.5254,2.5254,0,0,1,.918.6543,2.9675,2.9675,0,0,1,.582,1.0259,4.2048,4.2048,0,0,1,.2041,1.356,4.2583,4.2583,0,0,1-.2041,1.3618,3.02,3.02,0,0,1-.582,1.0381,2.4865,2.4865,0,0,1-.918.66A3.09,3.09,0,0,1,288.5918,36.5376Zm0-1.2359a1.2506,1.2506,0,0,0,.96-.3721,1.5444,1.5444,0,0,0,.3481-1.0922V32.6733a1.5246,1.5246,0,0,0-.3481-1.08,1.2509,1.2509,0,0,0-.96-.3721,1.235,1.235,0,0,0-.9482.3721,1.524,1.524,0,0,0-.3477,1.08v1.1641a1.5439,1.5439,0,0,0,.3477,1.0922A1.2346,1.2346,0,0,0,288.5918,35.3017Z"/><path d="M294.772,36.3935a1.6355,1.6355,0,0,1-1.2061-.4131,1.5913,1.5913,0,0,1-.414-1.1792V31.3657h-.9244V30.1294h.48a.5734.5734,0,0,0,.4741-.1617.7851.7851,0,0,0,.126-.4863V28.4135h1.38v1.7159h1.2842v1.2363h-1.2842v3.792h1.1885v1.2358Z"/><path d="M299.7876,36.5376a3.1293,3.1293,0,0,1-1.2417-.2339,2.57,2.57,0,0,1-.9243-.66,2.9508,2.9508,0,0,1-.582-1.0322,4.6476,4.6476,0,0,1-.0059-2.7056,2.938,2.938,0,0,1,.57-1.0263,2.5281,2.5281,0,0,1,.9121-.66,3.0453,3.0453,0,0,1,1.2241-.2344,2.9747,2.9747,0,0,1,1.272.2525,2.457,2.457,0,0,1,.8882.6835,2.96,2.96,0,0,1,.522,1.002,4.1638,4.1638,0,0,1,.1738,1.2183v.5039h-4.1641V33.8a1.531,1.531,0,0,0,.3843,1.09,1.4858,1.4858,0,0,0,1.14.4111,1.6983,1.6983,0,0,0,.9419-.2383,2.6787,2.6787,0,0,0,.6543-.6079l.8281.9268a2.5791,2.5791,0,0,1-1.05.8486A3.6566,3.6566,0,0,1,299.7876,36.5376Zm-.0239-5.4a1.231,1.231,0,0,0-.9722.4077,1.5384,1.5384,0,0,0-.36,1.0561v.0962H301v-.1084a1.6429,1.6429,0,0,0-.3179-1.05A1.1006,1.1006,0,0,0,299.7637,31.1377Z"/><path d="M306.4233,36.5376a3.1545,3.1545,0,0,1-1.2358-.2281,2.3835,2.3835,0,0,1-.9063-.66,2.97,2.97,0,0,1-.5576-1.0381,4.485,4.485,0,0,1-.1924-1.3618,4.4285,4.4285,0,0,1,.1924-1.356,2.9169,2.9169,0,0,1,.5576-1.0259,2.4192,2.4192,0,0,1,.9063-.6543,3.1563,3.1563,0,0,1,1.2358-.228,2.7253,2.7253,0,0,1,1.566.42,2.3564,2.3564,0,0,1,.894,1.1636l-1.26.5644a1.31,1.31,0,0,0-.4018-.6542,1.17,1.17,0,0,0-.7984-.2579,1.15,1.15,0,0,0-.9658.4078,1.6906,1.6906,0,0,0-.3179,1.0683v1.14a1.6616,1.6616,0,0,0,.3179,1.062,1.1566,1.1566,0,0,0,.9658.4023,1.197,1.197,0,0,0,.8521-.2822,1.9332,1.9332,0,0,0,.4683-.7022l1.1757.564a2.4583,2.4583,0,0,1-.9477,1.2422A2.78,2.78,0,0,1,306.4233,36.5376Z"/><path d="M312.0635,36.3935a1.6355,1.6355,0,0,1-1.2061-.4131,1.5913,1.5913,0,0,1-.414-1.1792V31.3657h-.9244V30.1294h.48a.5734.5734,0,0,0,.4741-.1617.7851.7851,0,0,0,.126-.4863V28.4135h1.38v1.7159h1.2842v1.2363H311.979v3.792h1.1885v1.2358Z"/><path d="M320.7749,36.5376a3.94,3.94,0,0,1-1.4937-.27,2.9934,2.9934,0,0,1-1.14-.81,3.6671,3.6671,0,0,1-.7261-1.3379,6.1716,6.1716,0,0,1-.2519-1.854,6.41,6.41,0,0,1,.2519-1.8779,3.8374,3.8374,0,0,1,.7261-1.38,3.0831,3.0831,0,0,1,1.14-.8457,3.7282,3.7282,0,0,1,1.4937-.2881,3.39,3.39,0,0,1,1.8721.48,3.2977,3.2977,0,0,1,1.188,1.4521l-1.356.72a1.9065,1.9065,0,0,0-.5879-.9057,1.6842,1.6842,0,0,0-1.1162-.3423,1.7732,1.7732,0,0,0-1.41.6,2.4781,2.4781,0,0,0-.5219,1.68v1.32a2.4268,2.4268,0,0,0,.5219,1.6743,1.8,1.8,0,0,0,1.41.582,1.72,1.72,0,0,0,1.1582-.3842,2.2121,2.2121,0,0,0,.6538-.9478l1.2842.7559a3.69,3.69,0,0,1-1.2119,1.458A3.2382,3.2382,0,0,1,320.7749,36.5376Z"/><path d="M325.1313,36.3935V30.1294h1.5357v1.2963h.06a1.9979,1.9979,0,0,1,.186-.4863,1.4936,1.4936,0,0,1,.33-.4141,1.5769,1.5769,0,0,1,.4858-.2875,1.8172,1.8172,0,0,1,.6543-.1084h.3359v1.4521h-.48a2.4117,2.4117,0,0,0-1.1763.228.7925.7925,0,0,0-.396.7442v3.84Z"/><path d="M333.7832,30.1294h1.44l-2.52,7.38a3.1745,3.1745,0,0,1-.27.5821,1.45,1.45,0,0,1-.354.4018,1.3359,1.3359,0,0,1-.4917.228,2.8021,2.8021,0,0,1-.6724.0718h-.9238V37.5576h1.1279l.2881-.8745-2.2441-6.5537h1.5239l1.0923,3.3051.4077,1.5806h.0723l.4321-1.5806Z"/><path d="M336.231,30.1294h1.5356v1.0322h.0483a1.5738,1.5738,0,0,1,.6358-.8579,1.8979,1.8979,0,0,1,1.0923-.3184,2.1406,2.1406,0,0,1,1.83.8462,3.99,3.99,0,0,1,.63,2.418,4.0411,4.0411,0,0,1-.63,2.436,2.1338,2.1338,0,0,1-1.83.8521,1.843,1.843,0,0,1-1.0865-.3243,1.6746,1.6746,0,0,1-.6416-.8637h-.0483v3.4438H336.231Zm2.82,5.1362a1.2722,1.2722,0,0,0,.9721-.396,1.4988,1.4988,0,0,0,.3716-1.0679v-1.08a1.5207,1.5207,0,0,0-.3716-1.0742,1.2629,1.2629,0,0,0-.9721-.4018,1.4814,1.4814,0,0,0-.918.2758.8725.8725,0,0,0-.3662.732v1.9922a.8749.8749,0,0,0,.3662.7558A1.527,1.527,0,0,0,339.0508,35.2656Z"/><path d="M345.3149,36.3935a1.6353,1.6353,0,0,1-1.206-.4131,1.5909,1.5909,0,0,1-.4141-1.1792V31.3657h-.9243V30.1294h.48a.5737.5737,0,0,0,.4741-.1617.7851.7851,0,0,0,.126-.4863V28.4135h1.38v1.7159h1.2841v1.2363h-1.2841v3.792h1.1884v1.2358Z"/><path d="M350.2827,36.5376a3.0445,3.0445,0,0,1-1.206-.2281,2.4967,2.4967,0,0,1-.9121-.66,3.02,3.02,0,0,1-.5821-1.0381,4.2472,4.2472,0,0,1-.2041-1.3618,4.1939,4.1939,0,0,1,.2041-1.356,2.9677,2.9677,0,0,1,.5821-1.0259,2.536,2.536,0,0,1,.9121-.6543,3.0463,3.0463,0,0,1,1.206-.228,3.0909,3.0909,0,0,1,1.2119.228,2.5254,2.5254,0,0,1,.918.6543,2.9659,2.9659,0,0,1,.582,1.0259,4.2048,4.2048,0,0,1,.2041,1.356,4.2583,4.2583,0,0,1-.2041,1.3618,3.0185,3.0185,0,0,1-.582,1.0381,2.4865,2.4865,0,0,1-.918.66A3.0891,3.0891,0,0,1,350.2827,36.5376Zm0-1.2359a1.2506,1.2506,0,0,0,.96-.3721,1.5444,1.5444,0,0,0,.3481-1.0922V32.6733a1.5246,1.5246,0,0,0-.3481-1.08,1.2509,1.2509,0,0,0-.96-.3721,1.235,1.235,0,0,0-.9482.3721,1.524,1.524,0,0,0-.3477,1.08v1.1641a1.5439,1.5439,0,0,0,.3477,1.0922A1.2346,1.2346,0,0,0,350.2827,35.3017Z"/><path d="M360.0864,36.5376a3.9774,3.9774,0,0,1-1.83-.3848,4.2494,4.2494,0,0,1-1.29-1.01l1.0684-1.0337a3.0569,3.0569,0,0,0,.9658.7622,2.645,2.645,0,0,0,1.1821.2622,1.6687,1.6687,0,0,0,1.104-.3159,1.06,1.06,0,0,0,.3721-.851.9657.9657,0,0,0-.24-.6792,1.6137,1.6137,0,0,0-.9-.3809l-.792-.1191q-2.5086-.3963-2.5078-2.439a2.4123,2.4123,0,0,1,.21-1.021,2.1656,2.1656,0,0,1,.606-.7813,2.8024,2.8024,0,0,1,.9541-.4985,4.2367,4.2367,0,0,1,1.2656-.1743,4.0709,4.0709,0,0,1,1.6562.313,3.2548,3.2548,0,0,1,1.212.9253l-1.08,1.0224a2.4829,2.4829,0,0,0-.7559-.6186,2.3452,2.3452,0,0,0-1.1162-.2383,1.7053,1.7053,0,0,0-1.0259.2559.9753.9753,0,0,0-.0659,1.4218,1.9517,1.9517,0,0,0,.8877.333l.78.1441a3.5786,3.5786,0,0,1,1.8779.811,2.1515,2.1515,0,0,1,.606,1.6275,2.7157,2.7157,0,0,1-.21,1.0874,2.3571,2.3571,0,0,1-.6118.8408,2.7874,2.7874,0,0,1-.9844.5464A4.2548,4.2548,0,0,1,360.0864,36.5376Z"/><path d="M367.2505,36.5376a3.1293,3.1293,0,0,1-1.2417-.2339,2.57,2.57,0,0,1-.9243-.66,2.9526,2.9526,0,0,1-.5821-1.0322,4.6487,4.6487,0,0,1-.0058-2.7056,2.938,2.938,0,0,1,.57-1.0263,2.5281,2.5281,0,0,1,.9121-.66,3.0453,3.0453,0,0,1,1.2241-.2344,2.9751,2.9751,0,0,1,1.272.2525,2.457,2.457,0,0,1,.8882.6835,2.96,2.96,0,0,1,.522,1.002,4.1638,4.1638,0,0,1,.1738,1.2183v.5039h-4.1641V33.8a1.531,1.531,0,0,0,.3843,1.09,1.4858,1.4858,0,0,0,1.14.4111,1.6983,1.6983,0,0,0,.9419-.2383,2.6765,2.6765,0,0,0,.6542-.6079l.8282.9268a2.5791,2.5791,0,0,1-1.05.8486A3.6566,3.6566,0,0,1,367.2505,36.5376Zm-.0239-5.4a1.231,1.231,0,0,0-.9722.4077,1.5379,1.5379,0,0,0-.36,1.0561v.0962h2.5679v-.1084a1.6435,1.6435,0,0,0-.3179-1.05A1.1006,1.1006,0,0,0,367.2266,31.1377Z"/><path d="M371.4146,36.3935V30.1294H372.95v1.2963h.06a1.9979,1.9979,0,0,1,.186-.4863,1.4936,1.4936,0,0,1,.33-.4141,1.5769,1.5769,0,0,1,.4858-.2875,1.8172,1.8172,0,0,1,.6543-.1084h.3359v1.4521h-.48a2.412,2.412,0,0,0-1.1763.228.7925.7925,0,0,0-.396.7442v3.84Z"/><path d="M377.57,36.3935l-2.0879-6.2641h1.5117l.877,2.7.6113,2.232h.084l.6113-2.232.8526-2.7h1.4638l-2.1,6.2641Z"/><path d="M383.2812,29.2177a.9323.9323,0,0,1-.6894-.2163.7594.7594,0,0,1-.21-.5517v-.24a.76.76,0,0,1,.21-.5517,1.1991,1.1991,0,0,1,1.374,0,.7489.7489,0,0,1,.2158.5517v.24a.7481.7481,0,0,1-.2158.5517A.9348.9348,0,0,1,383.2812,29.2177Zm-.7675.9117H384.05v6.2641h-1.5361Z"/><path d="M388.2979,36.5376a3.15,3.15,0,0,1-1.2354-.2281,2.38,2.38,0,0,1-.9063-.66,2.9863,2.9863,0,0,1-.5585-1.0381,4.4983,4.4983,0,0,1-.1915-1.3618,4.4416,4.4416,0,0,1,.1915-1.356,2.9329,2.9329,0,0,1,.5585-1.0259,2.4152,2.4152,0,0,1,.9063-.6543,3.1522,3.1522,0,0,1,1.2354-.228,2.7233,2.7233,0,0,1,1.5654.42,2.3544,2.3544,0,0,1,.8945,1.1636l-1.26.5644a1.307,1.307,0,0,0-.4023-.6542,1.1663,1.1663,0,0,0-.7978-.2579,1.15,1.15,0,0,0-.9659.4078,1.6908,1.6908,0,0,0-.3183,1.0683v1.14a1.6618,1.6618,0,0,0,.3183,1.062,1.1567,1.1567,0,0,0,.9659.4023,1.2,1.2,0,0,0,.8525-.2822,1.9435,1.9435,0,0,0,.4678-.7022l1.1757.564a2.4591,2.4591,0,0,1-.9482,1.2422A2.7758,2.7758,0,0,1,388.2979,36.5376Z"/><path d="M394.4531,36.5376a3.132,3.132,0,0,1-1.2412-.2339,2.5737,2.5737,0,0,1-.9248-.66,2.96,2.96,0,0,1-.582-1.0322,4.259,4.259,0,0,1-.2031-1.3618,4.3079,4.3079,0,0,1,.1972-1.3438,2.9549,2.9549,0,0,1,.57-1.0263,2.5324,2.5324,0,0,1,.9121-.66,3.0427,3.0427,0,0,1,1.2246-.2344,2.9721,2.9721,0,0,1,1.2715.2525,2.4631,2.4631,0,0,1,.8887.6835,2.9663,2.9663,0,0,1,.5215,1.002,4.1805,4.1805,0,0,1,.1738,1.2183v.5039h-4.164V33.8a1.529,1.529,0,0,0,.3847,1.09,1.4834,1.4834,0,0,0,1.1387.4111,1.6987,1.6987,0,0,0,.9424-.2383,2.6877,2.6877,0,0,0,.6543-.6079l.8281.9268a2.5828,2.5828,0,0,1-1.05.8486A3.6626,3.6626,0,0,1,394.4531,36.5376Zm-.0234-5.4a1.2322,1.2322,0,0,0-.9727.4077,1.54,1.54,0,0,0-.3593,1.0561v.0962h2.5683v-.1084a1.6436,1.6436,0,0,0-.3183-1.05A1.1,1.1,0,0,0,394.43,31.1377Z"/><path d="M400.67,36.5376a3.36,3.36,0,0,1-1.5117-.3062,3.4865,3.4865,0,0,1-1.08-.8457l.9356-.9121a2.8491,2.8491,0,0,0,.7617.624,1.9507,1.9507,0,0,0,.9551.228,1.3048,1.3048,0,0,0,.7968-.1919.6331.6331,0,0,0,.2461-.5283.5683.5683,0,0,0-.1738-.438,1.1047,1.1047,0,0,0-.5937-.2221l-.6241-.084a2.9676,2.9676,0,0,1-1.5537-.5816,1.6214,1.6214,0,0,1-.5342-1.3144,1.9442,1.9442,0,0,1,.168-.8218,1.76,1.76,0,0,1,.4795-.624,2.2245,2.2245,0,0,1,.75-.396,3.2628,3.2628,0,0,1,.9785-.1382,4.4633,4.4633,0,0,1,.8106.0664,2.96,2.96,0,0,1,.6416.1919,2.4786,2.4786,0,0,1,.5283.312,5.0088,5.0088,0,0,1,.4678.4141l-.9.9a2.3821,2.3821,0,0,0-.6592-.48,1.86,1.86,0,0,0-.8408-.1919,1.1566,1.1566,0,0,0-.7256.18.574.574,0,0,0-.2227.4683.5937.5937,0,0,0,.1866.4736,1.2867,1.2867,0,0,0,.63.2344l.6368.084q2.0273.2877,2.0273,1.8476a1.8756,1.8756,0,0,1-.1855.834,1.9153,1.9153,0,0,1-.5225.6484,2.4722,2.4722,0,0,1-.81.42A3.5264,3.5264,0,0,1,400.67,36.5376Z"/><path d="M257.2188,129.7861h-1.0079V121.41h3.336a2.3419,2.3419,0,0,1,1.7217.6118,2.3745,2.3745,0,0,1,.6181,1.7642,2.5438,2.5438,0,0,1-.4258,1.5181,2.0423,2.0423,0,0,1-1.2544.7861l1.9205,3.6958h-1.14l-1.812-3.6h-1.956Zm2.3281-4.4639a1.3,1.3,0,0,0,.93-.312,1.1626,1.1626,0,0,0,.33-.8882v-.624a1.1622,1.1622,0,0,0-.33-.8877,1.3,1.3,0,0,0-.93-.312h-2.3281v3.0239Z"/><path d="M265.9546,129.93a2.7894,2.7894,0,0,1-1.14-.228,2.46,2.46,0,0,1-.8823-.6538,3.0761,3.0761,0,0,1-.57-1.02,4.4694,4.4694,0,0,1,0-2.67,3.0666,3.0666,0,0,1,.57-1.0259,2.46,2.46,0,0,1,.8823-.6538,2.7894,2.7894,0,0,1,1.14-.228,2.7523,2.7523,0,0,1,1.1343.228,2.5307,2.5307,0,0,1,.8818.6538,3.02,3.02,0,0,1,.5762,1.0259,4.48,4.48,0,0,1,0,2.67,3.03,3.03,0,0,1-.5762,1.02,2.5307,2.5307,0,0,1-.8818.6538A2.7523,2.7523,0,0,1,265.9546,129.93Zm0-.852a1.7459,1.7459,0,0,0,1.272-.48,1.9613,1.9613,0,0,0,.4922-1.4639v-.8881a1.9613,1.9613,0,0,0-.4922-1.4639,1.9254,1.9254,0,0,0-2.544,0,1.9612,1.9612,0,0,0-.4917,1.4639v.8881a1.9612,1.9612,0,0,0,.4917,1.4639A1.7457,1.7457,0,0,0,265.9546,129.0781Z"/><path d="M272.6743,129.93a2.7886,2.7886,0,0,1-1.14-.228,2.4592,2.4592,0,0,1-.8824-.6538,3.0779,3.0779,0,0,1-.57-1.02,4.4694,4.4694,0,0,1,0-2.67,3.0684,3.0684,0,0,1,.57-1.0259,2.4592,2.4592,0,0,1,.8824-.6538,2.7886,2.7886,0,0,1,1.14-.228,2.752,2.752,0,0,1,1.1343.228,2.5307,2.5307,0,0,1,.8818.6538,3.0188,3.0188,0,0,1,.5762,1.0259,4.48,4.48,0,0,1,0,2.67,3.0278,3.0278,0,0,1-.5762,1.02,2.5307,2.5307,0,0,1-.8818.6538A2.752,2.752,0,0,1,272.6743,129.93Zm0-.852a1.7457,1.7457,0,0,0,1.272-.48,1.9613,1.9613,0,0,0,.4922-1.4639v-.8881a1.9613,1.9613,0,0,0-.4922-1.4639,1.9254,1.9254,0,0,0-2.544,0,1.9612,1.9612,0,0,0-.4917,1.4639v.8881a1.9612,1.9612,0,0,0,.4917,1.4639A1.7459,1.7459,0,0,0,272.6743,129.0781Z"/><path d="M278.4229,129.7861a.9828.9828,0,0,1-.7623-.2813,1.0476,1.0476,0,0,1-.2578-.7363v-4.3223h-1.02v-.852h.5757a.5653.5653,0,0,0,.4263-.126.6566.6566,0,0,0,.1137-.438v-1.1523h.8643v1.7163h1.356v.852h-1.356v4.4878h1.26v.8521Z"/><path d="M284.0986,120.9062h.96v5.6279h.0478l.9483-1.0561,1.7519-1.8838h1.1641l-2.292,2.4478,2.52,3.7441h-1.164l-2.0523-3.1558-.9238.9478v2.208h-.96Z"/><path d="M292.5464,129.93a2.7783,2.7783,0,0,1-1.146-.228,2.4668,2.4668,0,0,1-.876-.6538,3,3,0,0,1-.564-1.02,4.5964,4.5964,0,0,1,0-2.67,2.9916,2.9916,0,0,1,.564-1.0259,2.4668,2.4668,0,0,1,.876-.6538,2.7783,2.7783,0,0,1,1.146-.228,2.6341,2.6341,0,0,1,1.1157.227,2.48,2.48,0,0,1,.84.6279,2.7974,2.7974,0,0,1,.5337.9507,3.749,3.749,0,0,1,.1861,1.208v.4541H290.77v.2881a2.1079,2.1079,0,0,0,.1265.7383,1.7464,1.7464,0,0,0,.36.5937,1.6444,1.6444,0,0,0,.5757.396,1.9766,1.9766,0,0,0,.7744.1441,1.8834,1.8834,0,0,0,1.0259-.2759,1.813,1.813,0,0,0,.6778-.792l.684.4951a2.3865,2.3865,0,0,1-.936,1.0323A2.8211,2.8211,0,0,1,292.5464,129.93Zm0-5.6762a1.8243,1.8243,0,0,0-.72.1377,1.624,1.624,0,0,0-.5581.3872,1.82,1.82,0,0,0-.3658.59,2.0365,2.0365,0,0,0-.1323.7456v.0835h3.42v-.1313a1.8846,1.8846,0,0,0-.45-1.3179A1.5354,1.5354,0,0,0,292.5464,124.2539Z"/><path d="M300.5625,123.5942h.9482l-2.7719,7.6318a3.3972,3.3972,0,0,1-.2163.4619.8984.8984,0,0,1-.2637.294,1.0533,1.0533,0,0,1-.39.1562,2.9085,2.9085,0,0,1-.57.0479h-.4917v-.8521h.9717l.4683-1.3178-2.3159-6.4219h.96l1.4878,4.2036.2881,1.0064h.06l.3359-1.0064Z"/><path d="M305.5664,129.7861v-6.1919h.96v.9966h.0478a3.2907,3.2907,0,0,1,.2461-.4458,1.5375,1.5375,0,0,1,.3359-.3623,1.5587,1.5587,0,0,1,.462-.2437,1.9671,1.9671,0,0,1,.624-.0888,2.255,2.255,0,0,1,1.1284.2915,1.7587,1.7587,0,0,1,.7676.9575h.0244a1.9,1.9,0,0,1,.63-.8745,1.9349,1.9349,0,0,1,1.2539-.3745,1.8543,1.8543,0,0,1,1.4819.6181,2.5894,2.5894,0,0,1,.5342,1.7456v3.9722h-.96v-3.812a2.0285,2.0285,0,0,0-.3242-1.251,1.2192,1.2192,0,0,0-1.0317-.4209,2.01,2.01,0,0,0-.5464.0723,1.481,1.481,0,0,0-.4619.2163,1.0486,1.0486,0,0,0-.3237.3667,1.0854,1.0854,0,0,0-.12.5234v4.3052h-.96v-3.812a2.0285,2.0285,0,0,0-.3242-1.251,1.1906,1.1906,0,0,0-1.0079-.4209,2.0761,2.0761,0,0,0-.5522.0723,1.4688,1.4688,0,0,0-.4678.2163,1.1135,1.1135,0,0,0-.33.3667,1.0455,1.0455,0,0,0-.1259.5234v4.3052Z"/><path d="M320.5425,129.7861a.942.942,0,0,1-.7739-.2881,1.4215,1.4215,0,0,1-.294-.72h-.06a1.6025,1.6025,0,0,1-.6719.8637,2.089,2.089,0,0,1-1.1162.2881,2.17,2.17,0,0,1-1.53-.5039,1.77,1.77,0,0,1-.5464-1.3681,1.5613,1.5613,0,0,1,.6421-1.3438,3.4133,3.4133,0,0,1,1.998-.4682h1.2242v-.6119a1.3408,1.3408,0,0,0-.36-1.0083,1.5372,1.5372,0,0,0-1.104-.3476,1.663,1.663,0,0,0-.9424.2519,2.0777,2.0777,0,0,0-.63.6719l-.5762-.54a2.189,2.189,0,0,1,.8042-.8579,2.5328,2.5328,0,0,1,1.3921-.354,2.56,2.56,0,0,1,1.752.5507,1.9374,1.9374,0,0,1,.624,1.5327v3.4h.708v.8521Zm-2.76-.6719a2.436,2.436,0,0,0,.66-.084,1.6188,1.6188,0,0,0,.5161-.24,1.1856,1.1856,0,0,0,.3359-.36.8577.8577,0,0,0,.12-.4438v-1.02h-1.272a2.3245,2.3245,0,0,0-1.2061.24.7756.7756,0,0,0-.3779.6963v.252a.8387.8387,0,0,0,.33.708A1.4368,1.4368,0,0,0,317.7822,129.1142Z"/><path d="M322.45,129.7861v-6.1919h.96v.9966h.0478a2.0159,2.0159,0,0,1,.6421-.8316,1.8132,1.8132,0,0,1,1.11-.309,1.9423,1.9423,0,0,1,1.518.6181,2.5147,2.5147,0,0,1,.5581,1.7456v3.9722h-.96v-3.812q0-1.6722-1.4038-1.6719a2.1357,2.1357,0,0,0-.5581.0723,1.606,1.606,0,0,0-.4859.2163,1.0693,1.0693,0,0,0-.3423.3667,1.0445,1.0445,0,0,0-.1259.5234v4.3052Z"/><path d="M333.7661,129.7861a.942.942,0,0,1-.7739-.2881,1.4215,1.4215,0,0,1-.294-.72h-.06a1.602,1.602,0,0,1-.6719.8637,2.089,2.089,0,0,1-1.1162.2881,2.17,2.17,0,0,1-1.53-.5039,1.77,1.77,0,0,1-.5464-1.3681,1.5613,1.5613,0,0,1,.6421-1.3438,3.4139,3.4139,0,0,1,1.9981-.4682h1.2241v-.6119a1.34,1.34,0,0,0-.36-1.0083,1.5372,1.5372,0,0,0-1.104-.3476,1.6632,1.6632,0,0,0-.9424.2519,2.0774,2.0774,0,0,0-.63.6719l-.5762-.54a2.1876,2.1876,0,0,1,.8042-.8579,2.5325,2.5325,0,0,1,1.3921-.354,2.56,2.56,0,0,1,1.7519.5507,1.9374,1.9374,0,0,1,.624,1.5327v3.4h.7081v.8521Zm-2.76-.6719a2.4357,2.4357,0,0,0,.66-.084,1.6188,1.6188,0,0,0,.5161-.24,1.186,1.186,0,0,0,.336-.36.8585.8585,0,0,0,.12-.4438v-1.02h-1.272a2.3241,2.3241,0,0,0-1.206.24.7755.7755,0,0,0-.378.6963v.252a.8387.8387,0,0,0,.33.708A1.4371,1.4371,0,0,0,331.0059,129.1142Z"/><path d="M340.8945,130.4765a1.5211,1.5211,0,0,1-.75,1.4053,4.48,4.48,0,0,1-2.25.4482,4.1283,4.1283,0,0,1-2.0883-.3955,1.2537,1.2537,0,0,1-.6358-1.1264,1.1033,1.1033,0,0,1,.2637-.7852,1.5514,1.5514,0,0,1,.72-.4136v-.1318a.89.89,0,0,1-.5518-.86.8644.8644,0,0,1,.3-.7109,1.9655,1.9655,0,0,1,.7681-.3642v-.0479a1.9968,1.9968,0,0,1-.8579-.7583,2.1229,2.1229,0,0,1-.3062-1.1436,2.1958,2.1958,0,0,1,.168-.8662,1.9427,1.9427,0,0,1,.4741-.68,2.1568,2.1568,0,0,1,.732-.439,2.9944,2.9944,0,0,1,2.13.083v-.1079a1.0181,1.0181,0,0,1,.1679-.6016.6282.6282,0,0,1,.5523-.2383h.9238v.8521h-1.1758v.397a2.03,2.03,0,0,1,.522.6919,2.153,2.153,0,0,1,.186.9087,2.197,2.197,0,0,1-.1684.8667,1.9476,1.9476,0,0,1-.4737.68,2.149,2.149,0,0,1-.7382.439,2.7982,2.7982,0,0,1-.96.1567,3.0535,3.0535,0,0,1-.6-.06,1.9846,1.9846,0,0,0-.564.2456.5087.5087,0,0,0-.2519.45.3653.3653,0,0,0,.2641.372,2.0361,2.0361,0,0,0,.6841.0957h1.32a2.595,2.595,0,0,1,1.6739.4366A1.4829,1.4829,0,0,1,340.8945,130.4765Zm-.9.0655a.7164.7164,0,0,0-.2817-.5938,1.6714,1.6714,0,0,0-1.002-.2222h-2.0639a.8765.8765,0,0,0-.5762.84.9215.9215,0,0,0,.3062.6963,1.497,1.497,0,0,0,1.0376.2881h.8881a2.5511,2.5511,0,0,0,1.2481-.252A.8172.8172,0,0,0,339.9941,130.542Zm-2.1479-3.5757a1.4885,1.4885,0,0,0,.9722-.2954,1.1092,1.1092,0,0,0,.36-.91v-.3374a1.1088,1.1088,0,0,0-.36-.91,1.7467,1.7467,0,0,0-1.9439,0,1.1076,1.1076,0,0,0-.36.91v.3374a1.108,1.108,0,0,0,.36.91A1.487,1.487,0,0,0,337.8462,126.9663Z"/><path d="M344.2661,129.93a2.7786,2.7786,0,0,1-1.146-.228,2.4668,2.4668,0,0,1-.876-.6538,2.9979,2.9979,0,0,1-.5639-1.02,4.5942,4.5942,0,0,1,0-2.67,2.99,2.99,0,0,1,.5639-1.0259,2.4668,2.4668,0,0,1,.876-.6538,2.7786,2.7786,0,0,1,1.146-.228,2.6341,2.6341,0,0,1,1.1157.227,2.4807,2.4807,0,0,1,.84.6279,2.8008,2.8008,0,0,1,.5337.9507,3.7517,3.7517,0,0,1,.186,1.208v.4541H342.49v.2881a2.1079,2.1079,0,0,0,.1265.7383,1.745,1.745,0,0,0,.36.5937,1.6426,1.6426,0,0,0,.5757.396,1.9759,1.9759,0,0,0,.7744.1441,1.8834,1.8834,0,0,0,1.0259-.2759,1.8134,1.8134,0,0,0,.6777-.792l.6841.4951a2.3868,2.3868,0,0,1-.9361,1.0323A2.8211,2.8211,0,0,1,344.2661,129.93Zm0-5.6762a1.8246,1.8246,0,0,0-.72.1377,1.624,1.624,0,0,0-.5581.3872,1.82,1.82,0,0,0-.3657.59,2.0344,2.0344,0,0,0-.1324.7456v.0835h3.42v-.1313a1.8846,1.8846,0,0,0-.45-1.3179A1.5356,1.5356,0,0,0,344.2661,124.2539Z"/><path d="M352.4858,128.79h-.0478a1.89,1.89,0,0,1-1.812,1.1406,2.3525,2.3525,0,0,1-1.044-.228,2.2659,2.2659,0,0,1-.7983-.6479,2.9694,2.9694,0,0,1-.5039-1.02,5.2835,5.2835,0,0,1,0-2.688,2.9734,2.9734,0,0,1,.5039-1.02,2.27,2.27,0,0,1,.7983-.6479,2.3525,2.3525,0,0,1,1.044-.228,2.1075,2.1075,0,0,1,1.11.2793,1.7407,1.7407,0,0,1,.7022.8613h.0478v-3.6846h.96v8.88h-.96Zm-1.5962.2886a2.2324,2.2324,0,0,0,.6182-.0845,1.5511,1.5511,0,0,0,.51-.2471,1.2116,1.2116,0,0,0,.3418-.3979,1.1206,1.1206,0,0,0,.1259-.5371v-2.3154a.9553.9553,0,0,0-.1259-.4766,1.2018,1.2018,0,0,0-.3418-.38,1.7365,1.7365,0,0,0-.51-.2471,2.1006,2.1006,0,0,0-.6182-.09,1.6509,1.6509,0,0,0-1.2836.5127,1.9151,1.9151,0,0,0-.4683,1.3447v1.0611a1.9172,1.9172,0,0,0,.4683,1.3452A1.6522,1.6522,0,0,0,350.89,129.0781Z"/><path d="M256.5527,136.542a.5873.5873,0,0,1-.45-.15.554.554,0,0,1-.1377-.39v-.1558a.5543.5543,0,0,1,.1377-.39.751.751,0,0,1,.9,0,.5543.5543,0,0,1,.1377.39v.1558a.554.554,0,0,1-.1377.39A.5873.5873,0,0,1,256.5527,136.542Zm-.48,1.4521h.96v6.1919h-.96Z"/><path d="M259.0728,144.186v-6.1919h.96v.9966h.0479a2.0151,2.0151,0,0,1,.6421-.8316,1.8128,1.8128,0,0,1,1.11-.309,1.9425,1.9425,0,0,1,1.5181.6181,2.5147,2.5147,0,0,1,.5581,1.7456v3.9722h-.96v-3.812q0-1.6722-1.4038-1.6719a2.1362,2.1362,0,0,0-.5581.0723,1.6043,1.6043,0,0,0-.4858.2163,1.0684,1.0684,0,0,0-.3423.3667,1.0445,1.0445,0,0,0-.126.5234v4.3052Z"/><path d="M270.5806,144.33a2.8932,2.8932,0,0,1-1.4458-.33,3.2792,3.2792,0,0,1-1.002-.8819l.6841-.5522a2.6865,2.6865,0,0,0,.8037.7021,2.094,2.094,0,0,0,1.0322.2461,1.5256,1.5256,0,0,0,.9536-.2641.9587.9587,0,0,0,.1084-1.3619,1.4294,1.4294,0,0,0-.8461-.354l-.4922-.0722a4.1234,4.1234,0,0,1-.792-.1861,2.201,2.201,0,0,1-.63-.3359,1.4458,1.4458,0,0,1-.42-.522,1.7013,1.7013,0,0,1-.15-.7441,1.7861,1.7861,0,0,1,.1679-.7979,1.6026,1.6026,0,0,1,.4619-.57,2.0239,2.0239,0,0,1,.7022-.3423,3.2554,3.2554,0,0,1,.876-.1137,2.7318,2.7318,0,0,1,1.2661.2641,2.8331,2.8331,0,0,1,.8935.7319l-.6357.5757a1.9125,1.9125,0,0,0-.6-.5219,1.9352,1.9352,0,0,0-.9961-.2339,1.3754,1.3754,0,0,0-.9058.2578.8705.8705,0,0,0-.3061.7021.7351.7351,0,0,0,.3061.66,2.284,2.284,0,0,0,.8819.3l.48.0723a2.5761,2.5761,0,0,1,1.4643.5937,1.5635,1.5635,0,0,1,.4317,1.146,1.7535,1.7535,0,0,1-.6119,1.416A2.525,2.525,0,0,1,270.5806,144.33Z"/><path d="M276.8926,144.33a2.7783,2.7783,0,0,1-1.146-.228,2.466,2.466,0,0,1-.876-.6538,3,3,0,0,1-.564-1.02,4.5964,4.5964,0,0,1,0-2.67,2.9916,2.9916,0,0,1,.564-1.0259,2.466,2.466,0,0,1,.876-.6538,2.7783,2.7783,0,0,1,1.146-.228,2.6341,2.6341,0,0,1,1.1157.227,2.48,2.48,0,0,1,.84.6279,2.7974,2.7974,0,0,1,.5337.9507,3.7522,3.7522,0,0,1,.1861,1.208v.4541h-4.4522v.2881a2.1079,2.1079,0,0,0,.1265.7383,1.7464,1.7464,0,0,0,.36.5937,1.6431,1.6431,0,0,0,.5757.396,1.9762,1.9762,0,0,0,.7744.1441,1.8834,1.8834,0,0,0,1.0259-.2759,1.8121,1.8121,0,0,0,.6777-.792l.6841.4951a2.3865,2.3865,0,0,1-.936,1.0323A2.8211,2.8211,0,0,1,276.8926,144.33Zm0-5.6762a1.8243,1.8243,0,0,0-.72.1377,1.623,1.623,0,0,0-.5581.3872,1.82,1.82,0,0,0-.3658.59,2.0365,2.0365,0,0,0-.1323.7456v.0835h3.42v-.1313a1.8846,1.8846,0,0,0-.45-1.3179A1.5354,1.5354,0,0,0,276.8926,138.6538Z"/><path d="M281.1523,144.186v-6.1919h.96v1.14h.06a1.8715,1.8715,0,0,1,.6-.7924,1.8431,1.8431,0,0,1,1.1879-.3477h.3721v.96h-.5639a2.169,2.169,0,0,0-1.2183.2939.8672.8672,0,0,0-.438.7378v4.2Z"/><path d="M287.0444,144.186l-2.1723-6.1919h.96l1.08,3.0718.6724,2.1123h.06l.6724-2.1123,1.104-3.0718h.9238l-2.184,6.1919Z"/><path d="M292.06,136.542a.5872.5872,0,0,1-.45-.15.554.554,0,0,1-.1377-.39v-.1558a.5543.5543,0,0,1,.1377-.39.751.751,0,0,1,.9,0,.5543.5543,0,0,1,.1376.39v.1558a.5539.5539,0,0,1-.1376.39A.5873.5873,0,0,1,292.06,136.542Zm-.48,1.4521h.96v6.1919h-.96Z"/><path d="M296.8843,144.33a2.852,2.852,0,0,1-1.1641-.228,2.37,2.37,0,0,1-.87-.6479,2.8826,2.8826,0,0,1-.54-1.02,4.9458,4.9458,0,0,1,0-2.6879,2.886,2.886,0,0,1,.54-1.02,2.3746,2.3746,0,0,1,.87-.6479,2.852,2.852,0,0,1,1.1641-.228,2.482,2.482,0,0,1,1.4819.4018,2.4525,2.4525,0,0,1,.834,1.05l-.8042.4077a1.4609,1.4609,0,0,0-.5518-.7441,1.6578,1.6578,0,0,0-.96-.2637,1.9238,1.9238,0,0,0-.7564.1377,1.4806,1.4806,0,0,0-.54.3843,1.6083,1.6083,0,0,0-.3237.5879,2.4709,2.4709,0,0,0-.108.75v1.0561a2.0085,2.0085,0,0,0,.438,1.3379,1.5876,1.5876,0,0,0,1.29.522,1.7408,1.7408,0,0,0,1.68-1.08l.6963.4683a2.4626,2.4626,0,0,1-.8941,1.0678A2.6135,2.6135,0,0,1,296.8843,144.33Z"/><path d="M302.8721,144.33a2.7783,2.7783,0,0,1-1.146-.228,2.466,2.466,0,0,1-.876-.6538,3,3,0,0,1-.564-1.02,4.5964,4.5964,0,0,1,0-2.67,2.9916,2.9916,0,0,1,.564-1.0259,2.466,2.466,0,0,1,.876-.6538,2.7783,2.7783,0,0,1,1.146-.228,2.6341,2.6341,0,0,1,1.1157.227,2.48,2.48,0,0,1,.84.6279,2.7974,2.7974,0,0,1,.5337.9507,3.7522,3.7522,0,0,1,.1861,1.208v.4541h-4.4522v.2881a2.1079,2.1079,0,0,0,.1265.7383,1.7464,1.7464,0,0,0,.36.5937,1.6431,1.6431,0,0,0,.5757.396,1.9759,1.9759,0,0,0,.7744.1441,1.8834,1.8834,0,0,0,1.0259-.2759,1.8121,1.8121,0,0,0,.6777-.792l.6841.4951a2.3865,2.3865,0,0,1-.936,1.0323A2.8211,2.8211,0,0,1,302.8721,144.33Zm0-5.6762a1.8243,1.8243,0,0,0-.72.1377,1.623,1.623,0,0,0-.5581.3872,1.82,1.82,0,0,0-.3658.59,2.0344,2.0344,0,0,0-.1323.7456v.0835h3.42v-.1313a1.8846,1.8846,0,0,0-.45-1.3179A1.5354,1.5354,0,0,0,302.8721,138.6538Z"/><path d="M310.4438,136.542a.5869.5869,0,0,1-.45-.15.554.554,0,0,1-.1377-.39v-.1558a.5543.5543,0,0,1,.1377-.39.7509.7509,0,0,1,.9,0,.5543.5543,0,0,1,.1377.39v.1558a.554.554,0,0,1-.1377.39A.587.587,0,0,1,310.4438,136.542Zm-.48,1.4521h.96v6.1919h-.96Z"/><path d="M312.9639,144.186v-6.1919h.96v.9966h.0479a2.0151,2.0151,0,0,1,.6421-.8316,1.8128,1.8128,0,0,1,1.11-.309,1.9425,1.9425,0,0,1,1.5181.6181,2.5147,2.5147,0,0,1,.5581,1.7456v3.9722h-.96v-3.812q0-1.6722-1.4038-1.6719a2.1368,2.1368,0,0,0-.5581.0723,1.6054,1.6054,0,0,0-.4858.2163,1.0684,1.0684,0,0,0-.3423.3667,1.0445,1.0445,0,0,0-.126.5234v4.3052Z"/><path d="M321.64,144.33a2.8935,2.8935,0,0,1-1.4458-.33,3.28,3.28,0,0,1-1.0019-.8819l.6841-.5522a2.6865,2.6865,0,0,0,.8037.7021,2.094,2.094,0,0,0,1.0322.2461,1.5256,1.5256,0,0,0,.9536-.2641.9587.9587,0,0,0,.1084-1.3619,1.43,1.43,0,0,0-.8462-.354l-.4922-.0722a4.1224,4.1224,0,0,1-.7919-.1861,2.2,2.2,0,0,1-.63-.3359,1.4448,1.4448,0,0,1-.42-.522,1.7013,1.7013,0,0,1-.15-.7441,1.7861,1.7861,0,0,1,.168-.7979,1.6,1.6,0,0,1,.4619-.57,2.0239,2.0239,0,0,1,.7022-.3423,3.2548,3.2548,0,0,1,.876-.1137,2.7321,2.7321,0,0,1,1.2661.2641,2.8331,2.8331,0,0,1,.8935.7319l-.6357.5757a1.9136,1.9136,0,0,0-.6-.5219,1.9352,1.9352,0,0,0-.9961-.2339,1.3754,1.3754,0,0,0-.9058.2578.8705.8705,0,0,0-.3061.7021.7351.7351,0,0,0,.3061.66,2.284,2.284,0,0,0,.8819.3l.48.0723a2.5764,2.5764,0,0,1,1.4644.5937,1.5635,1.5635,0,0,1,.4316,1.146,1.7537,1.7537,0,0,1-.6118,1.416A2.5251,2.5251,0,0,1,321.64,144.33Z"/><path d="M326.9082,144.186a.9827.9827,0,0,1-.7622-.2813,1.0471,1.0471,0,0,1-.2578-.7363v-4.3223h-1.02v-.852h.5756a.5652.5652,0,0,0,.4263-.126.6559.6559,0,0,0,.1138-.438v-1.1523h.8642v1.7163h1.356v.852h-1.356v4.4878h1.26v.8521Z"/><path d="M334.252,144.186a.9423.9423,0,0,1-.774-.2881,1.4214,1.4214,0,0,1-.2939-.72h-.06a1.6022,1.6022,0,0,1-.6719.8638,2.09,2.09,0,0,1-1.1162.288,2.17,2.17,0,0,1-1.53-.5039,1.77,1.77,0,0,1-.5464-1.3681,1.5611,1.5611,0,0,1,.6421-1.3438,3.4133,3.4133,0,0,1,1.998-.4682h1.2241v-.6119a1.3408,1.3408,0,0,0-.36-1.0083,1.5374,1.5374,0,0,0-1.104-.3476,1.6628,1.6628,0,0,0-.9424.2519,2.0777,2.0777,0,0,0-.63.6719l-.5762-.54a2.189,2.189,0,0,1,.8042-.8579,2.5325,2.5325,0,0,1,1.3921-.354,2.56,2.56,0,0,1,1.752.5507,1.9375,1.9375,0,0,1,.624,1.5328v3.4h.708v.8521Zm-2.76-.6719a2.4365,2.4365,0,0,0,.66-.084,1.62,1.62,0,0,0,.5161-.24,1.1868,1.1868,0,0,0,.3359-.36.8576.8576,0,0,0,.12-.4438v-1.02h-1.2719a2.3242,2.3242,0,0,0-1.2061.24.7754.7754,0,0,0-.3779.6963v.252a.8386.8386,0,0,0,.33.708A1.4373,1.4373,0,0,0,331.4917,143.5141Z"/><path d="M336.16,144.186v-6.1919h.96v.9966h.0479a2.0151,2.0151,0,0,1,.6421-.8316,1.8128,1.8128,0,0,1,1.11-.309,1.9425,1.9425,0,0,1,1.5181.6181,2.5147,2.5147,0,0,1,.5581,1.7456v3.9722h-.96v-3.812q0-1.6722-1.4038-1.6719a2.1362,2.1362,0,0,0-.5581.0723,1.6043,1.6043,0,0,0-.4858.2163,1.0684,1.0684,0,0,0-.3423.3667,1.0445,1.0445,0,0,0-.126.5234v4.3052Z"/><path d="M345.28,144.33a2.852,2.852,0,0,1-1.1641-.228,2.37,2.37,0,0,1-.87-.6479,2.8826,2.8826,0,0,1-.54-1.02,4.9458,4.9458,0,0,1,0-2.6879,2.886,2.886,0,0,1,.54-1.02,2.3746,2.3746,0,0,1,.87-.6479,2.852,2.852,0,0,1,1.1641-.228,2.482,2.482,0,0,1,1.4819.4018,2.4525,2.4525,0,0,1,.834,1.05l-.8042.4077a1.4609,1.4609,0,0,0-.5518-.7441,1.6578,1.6578,0,0,0-.96-.2637,1.9238,1.9238,0,0,0-.7564.1377,1.4806,1.4806,0,0,0-.54.3843,1.6083,1.6083,0,0,0-.3237.5879,2.4709,2.4709,0,0,0-.108.75v1.0561a2.0085,2.0085,0,0,0,.438,1.3379,1.5876,1.5876,0,0,0,1.29.522,1.7408,1.7408,0,0,0,1.68-1.08l.6962.4683a2.4617,2.4617,0,0,1-.894,1.0678A2.6135,2.6135,0,0,1,345.28,144.33Z"/><path d="M351.2681,144.33a2.7783,2.7783,0,0,1-1.146-.228,2.4651,2.4651,0,0,1-.876-.6538,3,3,0,0,1-.564-1.02,4.5964,4.5964,0,0,1,0-2.67,2.9916,2.9916,0,0,1,.564-1.0259,2.4651,2.4651,0,0,1,.876-.6538,2.7783,2.7783,0,0,1,1.146-.228,2.6341,2.6341,0,0,1,1.1157.227,2.48,2.48,0,0,1,.84.6279,2.7974,2.7974,0,0,1,.5337.9507,3.7522,3.7522,0,0,1,.186,1.208v.4541h-4.4521v.2881a2.1079,2.1079,0,0,0,.1265.7383,1.7448,1.7448,0,0,0,.36.5937,1.6431,1.6431,0,0,0,.5757.396,1.9759,1.9759,0,0,0,.7744.1441,1.8834,1.8834,0,0,0,1.0259-.2759,1.8121,1.8121,0,0,0,.6777-.792l.6841.4951a2.3865,2.3865,0,0,1-.936,1.0323A2.8211,2.8211,0,0,1,351.2681,144.33Zm0-5.6762a1.8243,1.8243,0,0,0-.72.1377,1.6244,1.6244,0,0,0-.5582.3872,1.8217,1.8217,0,0,0-.3657.59,2.0344,2.0344,0,0,0-.1323.7456v.0835h3.42v-.1313a1.8846,1.8846,0,0,0-.45-1.3179A1.5354,1.5354,0,0,0,351.2681,138.6538Z"/><path d="M380.44,121.41h2.8066a3.6522,3.6522,0,0,1,1.416.2642,2.85,2.85,0,0,1,1.0859.7856,3.567,3.567,0,0,1,.6915,1.3081,7.1206,7.1206,0,0,1,0,3.66,3.567,3.567,0,0,1-.6915,1.3081,2.85,2.85,0,0,1-1.0859.7856,3.6522,3.6522,0,0,1-1.416.2642H380.44Zm2.8066,7.4878a2.5185,2.5185,0,0,0,.9492-.1738,2.062,2.062,0,0,0,.7442-.51,2.3754,2.3754,0,0,0,.4853-.8223,3.2751,3.2751,0,0,0,.1738-1.11V124.914a3.2751,3.2751,0,0,0-.1738-1.11,2.3754,2.3754,0,0,0-.4853-.8223,2.0683,2.0683,0,0,0-.7442-.51,2.5283,2.5283,0,0,0-.9492-.1738h-1.7988v6.6Z"/><path d="M388.49,129.7861V121.41h5.1123v.8882H389.498v2.8076h3.8643v.8882H389.498v2.9038h4.1045v.8882Z"/><path d="M397.6826,125.67l-1.1885,1.32v2.7959h-1.0078V121.41h1.0078v4.4522h.0371l1.1993-1.4522,2.5322-3h1.2353l-3.1191,3.5879,3.3359,4.7881h-1.248Z"/><path d="M406.166,124.4462h-1.0078v-.852h1.0078v-1.2481a1.5594,1.5594,0,0,1,.336-1.0439,1.2646,1.2646,0,0,1,1.02-.396h.9365v.8521h-1.332v1.8359h1.332v.852h-1.332v5.34h-.961Z"/><path d="M409.7188,129.7861v-6.1919h.9589v1.14h.0606a1.8742,1.8742,0,0,1,.6-.7924,1.8469,1.8469,0,0,1,1.1885-.3477h.372v.96h-.5644a2.17,2.17,0,0,0-1.2178.2939.8678.8678,0,0,0-.4385.7378v4.2Z"/><path d="M416.4023,129.93a2.7937,2.7937,0,0,1-1.1406-.228,2.4613,2.4613,0,0,1-.8818-.6538,3.0578,3.0578,0,0,1-.5694-1.02,4.4507,4.4507,0,0,1,0-2.67,3.0486,3.0486,0,0,1,.5694-1.0259,2.4613,2.4613,0,0,1,.8818-.6538,2.7937,2.7937,0,0,1,1.1406-.228,2.7509,2.7509,0,0,1,1.1338.228,2.5311,2.5311,0,0,1,.8819.6538,3.0286,3.0286,0,0,1,.5761,1.0259,4.4883,4.4883,0,0,1,0,2.67,3.0378,3.0378,0,0,1-.5761,1.02,2.5311,2.5311,0,0,1-.8819.6538A2.7509,2.7509,0,0,1,416.4023,129.93Zm0-.852a1.7452,1.7452,0,0,0,1.2715-.48,1.9609,1.9609,0,0,0,.4922-1.4639v-.8881a1.9609,1.9609,0,0,0-.4922-1.4639,1.9253,1.9253,0,0,0-2.5439,0,1.961,1.961,0,0,0-.4912,1.4639v.8881a1.961,1.961,0,0,0,.4912,1.4639A1.7459,1.7459,0,0,0,416.4023,129.0781Z"/><path d="M420.7822,129.7861v-6.1919h.96v.9966h.0478a3.2907,3.2907,0,0,1,.2461-.4458,1.5127,1.5127,0,0,1,.7979-.606,1.968,1.968,0,0,1,.624-.0888,2.2518,2.2518,0,0,1,1.1279.2915,1.7587,1.7587,0,0,1,.7676.9575h.0254a1.898,1.898,0,0,1,.6289-.8745,1.9378,1.9378,0,0,1,1.2539-.3745,1.8532,1.8532,0,0,1,1.4824.6181,2.592,2.592,0,0,1,.5342,1.7456v3.9722h-.96v-3.812a2.0252,2.0252,0,0,0-.3243-1.251,1.22,1.22,0,0,0-1.0312-.4209,2.0056,2.0056,0,0,0-.5469.0723,1.4758,1.4758,0,0,0-.4619.2163,1.0482,1.0482,0,0,0-.3232.3667,1.0856,1.0856,0,0,0-.1211.5234v4.3052h-.959v-3.812a2.0319,2.0319,0,0,0-.3242-1.251,1.193,1.193,0,0,0-1.0078-.4209,2.0752,2.0752,0,0,0-.5528.0723,1.4688,1.4688,0,0,0-.4678.2163,1.1176,1.1176,0,0,0-.33.3667,1.0445,1.0445,0,0,0-.126.5234v4.3052Z"/><path d="M377.1445,143.1894h-.0478a1.8889,1.8889,0,0,1-1.812,1.1406,2.3525,2.3525,0,0,1-1.044-.228,2.2659,2.2659,0,0,1-.7983-.6479,2.9694,2.9694,0,0,1-.5039-1.02,5.28,5.28,0,0,1,0-2.6879,2.973,2.973,0,0,1,.5039-1.02,2.27,2.27,0,0,1,.7983-.6479,2.3525,2.3525,0,0,1,1.044-.228,2.1088,2.1088,0,0,1,1.11.2793,1.7381,1.7381,0,0,1,.7022.8613h.0478v-3.6846h.96v8.88h-.96Zm-1.5962.2886a2.2267,2.2267,0,0,0,.6177-.0845,1.5441,1.5441,0,0,0,.5108-.2471,1.2116,1.2116,0,0,0,.3418-.3979,1.1206,1.1206,0,0,0,.1259-.5371V139.896a.9553.9553,0,0,0-.1259-.4766,1.2018,1.2018,0,0,0-.3418-.38,1.7274,1.7274,0,0,0-.5108-.2471,2.0953,2.0953,0,0,0-.6177-.09,1.6512,1.6512,0,0,0-1.2837.5127,1.9155,1.9155,0,0,0-.4682,1.3447v1.0611a1.9176,1.9176,0,0,0,.4682,1.3452A1.6526,1.6526,0,0,0,375.5483,143.478Z"/><path d="M384.6445,144.186a.9411.9411,0,0,1-.7734-.2881,1.4258,1.4258,0,0,1-.2949-.72h-.06a1.6026,1.6026,0,0,1-.6719.8638,2.09,2.09,0,0,1-1.1162.288,2.1682,2.1682,0,0,1-1.5293-.5039,1.7668,1.7668,0,0,1-.5469-1.3681,1.56,1.56,0,0,1,.6426-1.3438,3.4139,3.4139,0,0,1,1.9981-.4682h1.2236v-.6119a1.3387,1.3387,0,0,0-.36-1.0083,1.535,1.535,0,0,0-1.1035-.3476,1.6615,1.6615,0,0,0-.9423.2519,2.0766,2.0766,0,0,0-.63.6719l-.5762-.54a2.1789,2.1789,0,0,1,.8047-.8579,2.5307,2.5307,0,0,1,1.3916-.354,2.56,2.56,0,0,1,1.7519.5507,1.9373,1.9373,0,0,1,.6241,1.5328v3.4h.708v.8521Zm-2.76-.6719a2.44,2.44,0,0,0,.66-.084,1.6314,1.6314,0,0,0,.5156-.24,1.18,1.18,0,0,0,.336-.36.8576.8576,0,0,0,.12-.4438v-1.02h-1.2725a2.3212,2.3212,0,0,0-1.205.24.7762.7762,0,0,0-.3789.6963v.252a.84.84,0,0,0,.33.708A1.44,1.44,0,0,0,381.8848,143.5141Z"/><path d="M387.92,144.186a.9823.9823,0,0,1-.7617-.2813,1.0471,1.0471,0,0,1-.2578-.7363v-4.3223h-1.0195v-.852h.5752a.5664.5664,0,0,0,.4267-.126.659.659,0,0,0,.1133-.438v-1.1523h.8643v1.7163h1.3564v.852H387.86v4.4878h1.26v.8521Z"/><path d="M395.2637,144.186a.9426.9426,0,0,1-.7735-.2881,1.4258,1.4258,0,0,1-.2939-.72h-.06a1.6068,1.6068,0,0,1-.6719.8638,2.0931,2.0931,0,0,1-1.1171.288,2.1678,2.1678,0,0,1-1.5293-.5039,1.77,1.77,0,0,1-.5469-1.3681,1.5627,1.5627,0,0,1,.6426-1.3438,3.4133,3.4133,0,0,1,1.998-.4682h1.2246v-.6119a1.3429,1.3429,0,0,0-.36-1.0083,1.5379,1.5379,0,0,0-1.1045-.3476,1.6605,1.6605,0,0,0-.9414.2519,2.08,2.08,0,0,0-.6309.6719l-.5762-.54a2.1941,2.1941,0,0,1,.8047-.8579,2.5322,2.5322,0,0,1,1.3926-.354,2.56,2.56,0,0,1,1.752.5507,1.9369,1.9369,0,0,1,.623,1.5328v3.4h.709v.8521Zm-2.76-.6719a2.4365,2.4365,0,0,0,.66-.084,1.6119,1.6119,0,0,0,.5156-.24,1.1807,1.1807,0,0,0,.3359-.36.8585.8585,0,0,0,.1211-.4438v-1.02h-1.2724a2.3257,2.3257,0,0,0-1.2061.24.7754.7754,0,0,0-.3779.6963v.252a.84.84,0,0,0,.33.708A1.4368,1.4368,0,0,0,392.5039,143.5141Z"/><path d="M401.8643,144.33a2.8989,2.8989,0,0,1-1.4463-.33,3.2908,3.2908,0,0,1-1.002-.8819l.6846-.5522a2.68,2.68,0,0,0,.8037.7021,2.0954,2.0954,0,0,0,1.0322.2461,1.53,1.53,0,0,0,.9541-.2641.9585.9585,0,0,0,.1074-1.3619,1.428,1.428,0,0,0-.8457-.354l-.4921-.0722a4.1305,4.1305,0,0,1-.792-.1861,2.201,2.201,0,0,1-.63-.3359,1.4406,1.4406,0,0,1-.42-.522,1.7083,1.7083,0,0,1-.15-.7441,1.8,1.8,0,0,1,.1679-.7979,1.5988,1.5988,0,0,1,.4629-.57,2.0189,2.0189,0,0,1,.7012-.3423,3.2628,3.2628,0,0,1,.877-.1137,2.7285,2.7285,0,0,1,1.2656.2641,2.8331,2.8331,0,0,1,.8935.7319l-.6357.5757a1.8915,1.8915,0,0,0-1.5957-.7558,1.3759,1.3759,0,0,0-.9063.2578.8709.8709,0,0,0-.3066.7021.7354.7354,0,0,0,.3066.66,2.284,2.284,0,0,0,.8819.3l.4795.0723a2.5766,2.5766,0,0,1,1.4648.5937,1.5655,1.5655,0,0,1,.4316,1.146,1.7548,1.7548,0,0,1-.6113,1.416A2.5264,2.5264,0,0,1,401.8643,144.33Z"/><path d="M408.1758,144.33a2.7775,2.7775,0,0,1-1.1455-.228,2.466,2.466,0,0,1-.876-.6538,3.0177,3.0177,0,0,1-.5645-1.02,4.6188,4.6188,0,0,1,0-2.67,3.0093,3.0093,0,0,1,.5645-1.0259,2.466,2.466,0,0,1,.876-.6538,2.7775,2.7775,0,0,1,1.1455-.228,2.6348,2.6348,0,0,1,1.1162.227,2.4822,2.4822,0,0,1,.8408.6279,2.8048,2.8048,0,0,1,.5332.9507,3.7523,3.7523,0,0,1,.1856,1.208v.4541H406.4v.2881a2.0964,2.0964,0,0,0,.126.7383,1.7475,1.7475,0,0,0,.36.5937,1.641,1.641,0,0,0,.5752.396,1.9745,1.9745,0,0,0,.7744.1441,1.8793,1.8793,0,0,0,1.0254-.2759,1.8066,1.8066,0,0,0,.6778-.792l.6845.4951a2.3847,2.3847,0,0,1-.9365,1.0323A2.82,2.82,0,0,1,408.1758,144.33Zm0-5.6762a1.8218,1.8218,0,0,0-.72.1377,1.6224,1.6224,0,0,0-.5577.3872,1.8144,1.8144,0,0,0-.3662.59,2.0261,2.0261,0,0,0-.1318.7456v.0835h3.42v-.1313a1.8846,1.8846,0,0,0-.45-1.3179A1.5357,1.5357,0,0,0,408.1758,138.6538Z"/><path d="M412.4355,144.186v-6.1919h.961v1.14h.06a1.8693,1.8693,0,0,1,.6005-.7924,1.84,1.84,0,0,1,1.1875-.3477h.3721v.96h-.5635a2.1684,2.1684,0,0,0-1.2187.2939.8666.8666,0,0,0-.4375.7378v4.2Z"/><path d="M418.3281,144.186l-2.1719-6.1919h.959l1.08,3.0718.6729,2.1123h.06l.6719-2.1123,1.1045-3.0718h.9238l-2.1845,6.1919Z"/><path d="M423.3438,136.542a.5878.5878,0,0,1-.45-.15.554.554,0,0,1-.1377-.39v-.1558a.5543.5543,0,0,1,.1377-.39.7509.7509,0,0,1,.9,0,.5543.5543,0,0,1,.1377.39v.1558a.554.554,0,0,1-.1377.39A.5877.5877,0,0,1,423.3438,136.542Zm-.4805,1.4521h.9609v6.1919h-.9609Z"/><path d="M428.168,144.33a2.8537,2.8537,0,0,1-1.1641-.228,2.37,2.37,0,0,1-.87-.6479,2.8826,2.8826,0,0,1-.54-1.02,4.9586,4.9586,0,0,1,0-2.6879,2.886,2.886,0,0,1,.54-1.02,2.3746,2.3746,0,0,1,.87-.6479,2.8537,2.8537,0,0,1,1.1641-.228,2.3045,2.3045,0,0,1,2.3164,1.4521l-.8047.4077a1.4609,1.4609,0,0,0-.5518-.7441,1.6589,1.6589,0,0,0-.96-.2637,1.92,1.92,0,0,0-.7559.1377,1.48,1.48,0,0,0-.541.3843,1.6074,1.6074,0,0,0-.3232.5879,2.4707,2.4707,0,0,0-.1084.75v1.0561a2.0108,2.0108,0,0,0,.4384,1.3379,1.5876,1.5876,0,0,0,1.29.522,1.7413,1.7413,0,0,0,1.68-1.08l.6962.4683a2.464,2.464,0,0,1-.8935,1.0678A2.6163,2.6163,0,0,1,428.168,144.33Z"/><path d="M434.1562,144.33a2.7785,2.7785,0,0,1-1.1464-.228,2.466,2.466,0,0,1-.876-.6538,2.98,2.98,0,0,1-.5635-1.02,4.5744,4.5744,0,0,1,0-2.67,2.9726,2.9726,0,0,1,.5635-1.0259,2.466,2.466,0,0,1,.876-.6538,2.7785,2.7785,0,0,1,1.1464-.228,2.6335,2.6335,0,0,1,1.1153.227,2.4784,2.4784,0,0,1,.84.6279,2.79,2.79,0,0,1,.5342.9507,3.7521,3.7521,0,0,1,.1865,1.208v.4541h-4.4531v.2881a2.12,2.12,0,0,0,.127.7383,1.7436,1.7436,0,0,0,.3593.5937,1.6451,1.6451,0,0,0,.5762.396,1.9776,1.9776,0,0,0,.7744.1441,1.8875,1.8875,0,0,0,1.0264-.2759,1.8186,1.8186,0,0,0,.6777-.792l.6836.4951a2.3884,2.3884,0,0,1-.9355,1.0323A2.8227,2.8227,0,0,1,434.1562,144.33Zm0-5.6762a1.8271,1.8271,0,0,0-.7207.1377,1.6256,1.6256,0,0,0-.5585.3872,1.8276,1.8276,0,0,0-.3653.59,2.0449,2.0449,0,0,0-.1328.7456v.0835H435.8v-.1313a1.8846,1.8846,0,0,0-.45-1.3179A1.5351,1.5351,0,0,0,434.1562,138.6538Z"/><path d="M526.8945,129.7861l-.84-2.4722h-3.3838l-.8408,2.4722h-1.02l2.9278-8.376h1.2842l2.9287,8.376Zm-2.5078-7.44h-.0605l-1.416,4.08h2.8925Z"/><path d="M529.3428,129.7861V121.41h5.1123v.8882h-4.1045v2.8076h3.8642v.8882h-3.8642v2.9038h4.1045v.8882Z"/><path d="M538.69,129.93a3.6059,3.6059,0,0,1-1.7392-.39,3.6859,3.6859,0,0,1-1.2246-1.0737l.7441-.6241a3.2575,3.2575,0,0,0,.9844.8941,2.5372,2.5372,0,0,0,1.2715.3057,1.9737,1.9737,0,0,0,1.374-.4317,1.4857,1.4857,0,0,0,.4736-1.1523,1.1774,1.1774,0,0,0-.3594-.9239,2.7177,2.7177,0,0,0-1.1875-.5161l-.6845-.1557a3.9729,3.9729,0,0,1-1.7588-.7984,1.9022,1.9022,0,0,1-.6055-1.5058,2.2831,2.2831,0,0,1,.2041-.9839,1.9688,1.9688,0,0,1,.5694-.72,2.5849,2.5849,0,0,1,.8769-.438,3.977,3.977,0,0,1,1.1211-.15,3.5263,3.5263,0,0,1,1.627.3481,3.13,3.13,0,0,1,1.1455,1.02l-.7559.5518a2.6114,2.6114,0,0,0-.84-.7559,2.4746,2.4746,0,0,0-1.2237-.2758,2.0846,2.0846,0,0,0-1.2666.3418,1.1949,1.1949,0,0,0-.4619,1.0258,1.08,1.08,0,0,0,.3906.9063,3.0126,3.0126,0,0,0,1.1817.4858l.6836.1563a3.5544,3.5544,0,0,1,1.7881.84,2.0515,2.0515,0,0,1,.5517,1.5,2.6569,2.6569,0,0,1-.1973,1.044,2.1485,2.1485,0,0,1-.57.792,2.6531,2.6531,0,0,1-.9062.5039A3.7587,3.7587,0,0,1,538.69,129.93Z"/><path d="M512.5186,144.186a.9434.9434,0,0,1-.7745-.2881,1.4162,1.4162,0,0,1-.2929-.72h-.0606a1.6029,1.6029,0,0,1-.6718.8638,2.09,2.09,0,0,1-1.1163.288,2.172,2.172,0,0,1-1.53-.5039,1.7728,1.7728,0,0,1-.5459-1.3681,1.5619,1.5619,0,0,1,.6416-1.3438,3.4133,3.4133,0,0,1,1.998-.4682h1.2246v-.6119a1.3421,1.3421,0,0,0-.3594-1.0083,1.5391,1.5391,0,0,0-1.1044-.3476,1.6639,1.6639,0,0,0-.9424.2519,2.0777,2.0777,0,0,0-.63.6719l-.5762-.54a2.1978,2.1978,0,0,1,.8037-.8579,2.5345,2.5345,0,0,1,1.3926-.354,2.56,2.56,0,0,1,1.752.5507,1.9375,1.9375,0,0,1,.624,1.5328v3.4h.708v.8521Zm-2.7608-.6719a2.4313,2.4313,0,0,0,.66-.084,1.6085,1.6085,0,0,0,.5166-.24,1.1931,1.1931,0,0,0,.3359-.36.8576.8576,0,0,0,.12-.4438v-1.02h-1.2715a2.3272,2.3272,0,0,0-1.207.24.7747.7747,0,0,0-.3769.6963v.252a.8373.8373,0,0,0,.33.708A1.4342,1.4342,0,0,0,509.7578,143.5141Z"/><path d="M515.4463,144.186a.9818.9818,0,0,1-.7627-.2822,1.0161,1.0161,0,0,1-.2578-.7139v-7.8838h.9609v8.0278h.9121v.8521Z"/><path d="M522.91,144.8764a1.52,1.52,0,0,1-.75,1.4053,4.4769,4.4769,0,0,1-2.25.4482,4.1263,4.1263,0,0,1-2.0879-.3955,1.2537,1.2537,0,0,1-.6358-1.1264,1.1033,1.1033,0,0,1,.2637-.7852,1.5548,1.5548,0,0,1,.72-.4136v-.1318a.89.89,0,0,1-.5508-.86.8668.8668,0,0,1,.2989-.7109,1.9735,1.9735,0,0,1,.7685-.3642v-.0479a2.0016,2.0016,0,0,1-.8584-.7583,2.1314,2.1314,0,0,1-.3056-1.1436,2.1957,2.1957,0,0,1,.1679-.8662,1.96,1.96,0,0,1,.4737-.68,2.1674,2.1674,0,0,1,.7324-.439,2.9944,2.9944,0,0,1,2.13.083v-.1079a1.0145,1.0145,0,0,1,.1679-.6016.6284.6284,0,0,1,.5518-.2383h.9238v.8521h-1.1758v.397a2.0117,2.0117,0,0,1,.5225.6919,2.1455,2.1455,0,0,1,.1865.9087,2.1972,2.1972,0,0,1-.1689.8667,1.9528,1.9528,0,0,1-.4737.68,2.1481,2.1481,0,0,1-.7382.439,2.7962,2.7962,0,0,1-.96.1567,3.0661,3.0661,0,0,1-.6006-.06,1.9939,1.9939,0,0,0-.5635.2456.5087.5087,0,0,0-.2519.45.3652.3652,0,0,0,.2646.372,2.0331,2.0331,0,0,0,.6836.0958h1.32a2.596,2.596,0,0,1,1.6739.4365A1.4838,1.4838,0,0,1,522.91,144.8764Zm-.9.0655a.7176.7176,0,0,0-.2813-.5938,1.6691,1.6691,0,0,0-1.0019-.2222h-2.0645a.8772.8772,0,0,0-.5762.84.9218.9218,0,0,0,.3067.6963,1.4956,1.4956,0,0,0,1.0371.2881h.8887a2.5509,2.5509,0,0,0,1.248-.252A.8169.8169,0,0,0,522.01,144.9419Zm-2.1475-3.5757a1.4868,1.4868,0,0,0,.9717-.2954,1.108,1.108,0,0,0,.36-.91v-.3374a1.1076,1.1076,0,0,0-.36-.91,1.7459,1.7459,0,0,0-1.9434,0,1.1076,1.1076,0,0,0-.36.91v.3374a1.108,1.108,0,0,0,.36.91A1.4889,1.4889,0,0,0,519.8623,141.3662Z"/><path d="M526.2949,144.33a2.7933,2.7933,0,0,1-1.1406-.228,2.46,2.46,0,0,1-.8818-.6538,3.0578,3.0578,0,0,1-.5694-1.02,4.4486,4.4486,0,0,1,0-2.67,3.0486,3.0486,0,0,1,.5694-1.0259,2.46,2.46,0,0,1,.8818-.6538,2.7933,2.7933,0,0,1,1.1406-.228,2.7513,2.7513,0,0,1,1.1338.228,2.53,2.53,0,0,1,.8818.6538,3.0271,3.0271,0,0,1,.5762,1.0259,4.49,4.49,0,0,1,0,2.67,3.0363,3.0363,0,0,1-.5762,1.02,2.53,2.53,0,0,1-.8818.6538A2.7513,2.7513,0,0,1,526.2949,144.33Zm0-.852a1.7452,1.7452,0,0,0,1.2715-.48,1.9613,1.9613,0,0,0,.4922-1.4639v-.8881a1.9613,1.9613,0,0,0-.4922-1.4639,1.9253,1.9253,0,0,0-2.5439,0,1.9607,1.9607,0,0,0-.4913,1.4639v.8881a1.9607,1.9607,0,0,0,.4913,1.4639A1.7459,1.7459,0,0,0,526.2949,143.478Z"/><path d="M530.6738,144.186v-6.1919h.961v1.14h.0595a1.87,1.87,0,0,1,.6006-.7924,1.84,1.84,0,0,1,1.1875-.3477h.3721v.96h-.5635a2.1684,2.1684,0,0,0-1.2187.2939.8666.8666,0,0,0-.4375.7378v4.2Z"/><path d="M535.5586,136.542a.5891.5891,0,0,1-.4512-.15.5534.5534,0,0,1-.1367-.39v-.1558a.5537.5537,0,0,1,.1367-.39.751.751,0,0,1,.9,0,.5549.5549,0,0,1,.1387.39v.1558a.5546.5546,0,0,1-.1387.39A.5856.5856,0,0,1,535.5586,136.542Zm-.4805,1.4521h.96v6.1919h-.96Z"/><path d="M539.4463,144.186a.9831.9831,0,0,1-.7627-.2813,1.0471,1.0471,0,0,1-.2578-.7363v-4.3223h-1.02v-.852h.5762a.5654.5654,0,0,0,.4258-.126.6534.6534,0,0,0,.1133-.438v-1.1523h.8652v1.7163h1.3555v.852h-1.3555v4.4878h1.26v.8521Z"/><path d="M542.29,135.3061h.96v3.6846h.0479a2.0141,2.0141,0,0,1,.6416-.8316,1.8152,1.8152,0,0,1,1.11-.309,1.9457,1.9457,0,0,1,1.5186.6181,2.5194,2.5194,0,0,1,.5576,1.7456v3.9722h-.96v-3.812q0-1.6722-1.4043-1.6719a2.138,2.138,0,0,0-.5576.0723,1.5852,1.5852,0,0,0-.4853.2163,1.0651,1.0651,0,0,0-.3428.3667,1.0445,1.0445,0,0,0-.126.5234v4.3052h-.96Z"/><path d="M549.1055,144.186v-6.1919h.9609v.9966h.0469a3.28,3.28,0,0,1,.2461-.4458,1.5093,1.5093,0,0,1,.7988-.606,1.9615,1.9615,0,0,1,.623-.0888,2.2559,2.2559,0,0,1,1.129.2915,1.7586,1.7586,0,0,1,.7675.9575h.0244a1.901,1.901,0,0,1,.63-.8745,1.9359,1.9359,0,0,1,1.2539-.3745,1.8562,1.8562,0,0,1,1.4825.6181,2.5923,2.5923,0,0,1,.5332,1.7456v3.9722h-.959v-3.812a2.0319,2.0319,0,0,0-.3242-1.251,1.2217,1.2217,0,0,0-1.0323-.4209,2.004,2.004,0,0,0-.5459.0723,1.4939,1.4939,0,0,0-.4629.2163,1.0482,1.0482,0,0,0-.3232.3667,1.0854,1.0854,0,0,0-.12.5234v4.3052h-.96v-3.812a2.0319,2.0319,0,0,0-.3242-1.251,1.19,1.19,0,0,0-1.0078-.4209,2.0677,2.0677,0,0,0-.5518.0723,1.4839,1.4839,0,0,0-.4687.2163,1.1179,1.1179,0,0,0-.33.3667,1.0442,1.0442,0,0,0-.125.5234v4.3052Z"/><path d="M625.9141,140.7861l-2.0391-8.376h1.0684l.8994,4.0318.6963,3.1323h.0234l.78-3.1323,1.0556-4.0318h1.1524l1.0195,4.0318.78,3.12h.0361l.7207-3.12.9473-4.0318h1.0322l-2.1474,8.376h-1.1172l-1.0918-4.1758-.7676-3.0723H628.94l-.793,3.0723-1.1153,4.1758Z"/><path d="M635.2266,140.7861v-6.1919h.96v1.14h.06a1.8769,1.8769,0,0,1,.6006-.7924,1.8448,1.8448,0,0,1,1.1885-.3477h.371v.96h-.5634a2.1652,2.1652,0,0,0-1.2178.2939.8656.8656,0,0,0-.4385.7378v4.2Z"/><path d="M644.082,140.7861a.9423.9423,0,0,1-.7734-.2881,1.4259,1.4259,0,0,1-.294-.72h-.0595a1.6066,1.6066,0,0,1-.6719.8637,2.0926,2.0926,0,0,1-1.1172.2881,2.1682,2.1682,0,0,1-1.5293-.5039,1.77,1.77,0,0,1-.5469-1.3681,1.5629,1.5629,0,0,1,.6426-1.3438,3.4139,3.4139,0,0,1,1.9981-.4682h1.2246v-.6119a1.3426,1.3426,0,0,0-.36-1.0083,1.5377,1.5377,0,0,0-1.1045-.3476,1.661,1.661,0,0,0-.9414.2519,2.08,2.08,0,0,0-.6308.6719l-.5762-.54a2.1927,2.1927,0,0,1,.8047-.8579,2.532,2.532,0,0,1,1.3926-.354,2.56,2.56,0,0,1,1.7519.5507,1.9369,1.9369,0,0,1,.6231,1.5327v3.4h.7089v.8521Zm-2.76-.6719a2.4357,2.4357,0,0,0,.66-.084,1.6109,1.6109,0,0,0,.5156-.24,1.18,1.18,0,0,0,.336-.36.8585.8585,0,0,0,.1211-.4438v-1.02h-1.2725a2.3253,2.3253,0,0,0-1.206.24.7755.7755,0,0,0-.378.6963v.252a.84.84,0,0,0,.33.708A1.4371,1.4371,0,0,0,641.3223,140.1142Z"/><path d="M645.99,134.5942h.961v.9966h.0468a1.74,1.74,0,0,1,.7032-.8613,2.1045,2.1045,0,0,1,1.1093-.2793,2.3494,2.3494,0,0,1,1.044.228,2.2686,2.2686,0,0,1,.7978.6479,2.9469,2.9469,0,0,1,.5039,1.02,5.2806,5.2806,0,0,1,0,2.688,2.943,2.943,0,0,1-.5039,1.02,2.2643,2.2643,0,0,1-.7978.6479,2.3494,2.3494,0,0,1-1.044.228,1.8766,1.8766,0,0,1-1.8125-1.1406h-.0468v3.3965h-.961Zm2.5567,5.4839a1.6506,1.6506,0,0,0,1.2832-.5122,1.9156,1.9156,0,0,0,.4687-1.3452V137.16a1.9135,1.9135,0,0,0-.4687-1.3447,1.6492,1.6492,0,0,0-1.2832-.5127,2.0986,2.0986,0,0,0-.6182.09,1.7214,1.7214,0,0,0-.51.2471,1.2048,1.2048,0,0,0-.3427.38.9533.9533,0,0,0-.125.4766v2.3154a1.1191,1.1191,0,0,0,.125.5371,1.2143,1.2143,0,0,0,.3427.3979,1.5388,1.5388,0,0,0,.51.2471A2.23,2.23,0,0,0,648.5469,140.0781Z"/><path d="M652.9512,134.5942h.959v.9966h.0488a1.7406,1.7406,0,0,1,.7012-.8613,2.1106,2.1106,0,0,1,1.11-.2793,2.3556,2.3556,0,0,1,1.044.228,2.2719,2.2719,0,0,1,.7988.6479,3.0187,3.0187,0,0,1,.5039,1.02,5.2835,5.2835,0,0,1,0,2.688,3.0146,3.0146,0,0,1-.5039,1.02,2.2676,2.2676,0,0,1-.7988.6479,2.3556,2.3556,0,0,1-1.044.228,1.8734,1.8734,0,0,1-1.8115-1.1406H653.91v3.3965h-.959Zm2.5556,5.4839a1.6541,1.6541,0,0,0,1.2842-.5122,1.92,1.92,0,0,0,.4678-1.3452V137.16a1.9176,1.9176,0,0,0-.4678-1.3447,1.6528,1.6528,0,0,0-1.2842-.5127,2.0979,2.0979,0,0,0-.6181.09,1.7214,1.7214,0,0,0-.51.2471,1.19,1.19,0,0,0-.3418.38.9553.9553,0,0,0-.1269.4766v2.3154a1.12,1.12,0,0,0,.1269.5371,1.2,1.2,0,0,0,.3418.3979,1.5388,1.5388,0,0,0,.51.2471A2.23,2.23,0,0,0,655.5068,140.0781Z"/><path d="M662.2383,140.93a2.7823,2.7823,0,0,1-1.1465-.228,2.4633,2.4633,0,0,1-.875-.6538,3.0007,3.0007,0,0,1-.5645-1.02,4.5964,4.5964,0,0,1,0-2.67,2.9925,2.9925,0,0,1,.5645-1.0259,2.4633,2.4633,0,0,1,.875-.6538,2.7823,2.7823,0,0,1,1.1465-.228,2.63,2.63,0,0,1,1.1152.227,2.4822,2.4822,0,0,1,.8408.6279,2.8237,2.8237,0,0,1,.5342.9507,3.7767,3.7767,0,0,1,.1856,1.208v.4541h-4.4522v.2881a2.1192,2.1192,0,0,0,.126.7383,1.7475,1.7475,0,0,0,.36.5937,1.6424,1.6424,0,0,0,.5752.396,1.98,1.98,0,0,0,.7754.1441,1.8838,1.8838,0,0,0,1.0254-.2759,1.813,1.813,0,0,0,.6778-.792l.6835.4951a2.3823,2.3823,0,0,1-.9355,1.0323A2.82,2.82,0,0,1,662.2383,140.93Zm0-5.6762a1.83,1.83,0,0,0-.7207.1377,1.6306,1.6306,0,0,0-.5576.3872,1.828,1.828,0,0,0-.3662.59,2.0448,2.0448,0,0,0-.1319.7456v.0835h3.4209v-.1313a1.88,1.88,0,0,0-.4512-1.3179A1.5321,1.5321,0,0,0,662.2383,135.2539Z"/><path d="M670.458,139.79H670.41a1.891,1.891,0,0,1-1.8125,1.1406,2.3481,2.3481,0,0,1-1.043-.228,2.2676,2.2676,0,0,1-.7988-.6479,2.9588,2.9588,0,0,1-.5039-1.02,5.2806,5.2806,0,0,1,0-2.688,2.9628,2.9628,0,0,1,.5039-1.02,2.2719,2.2719,0,0,1,.7988-.6479,2.3481,2.3481,0,0,1,1.043-.228,2.1081,2.1081,0,0,1,1.11.2793,1.7433,1.7433,0,0,1,.7022.8613h.0478v-3.6846h.96v8.88h-.96Zm-1.5967.2886a2.2427,2.2427,0,0,0,.6192-.0845,1.5566,1.5566,0,0,0,.51-.2471,1.21,1.21,0,0,0,.3418-.3979,1.12,1.12,0,0,0,.126-.5371v-2.3154a.9543.9543,0,0,0-.126-.4766,1.2006,1.2006,0,0,0-.3418-.38,1.7439,1.7439,0,0,0-.51-.2471,2.11,2.11,0,0,0-.6192-.09,1.6521,1.6521,0,0,0-1.2832.5127,1.9135,1.9135,0,0,0-.4687,1.3447v1.0611a1.9156,1.9156,0,0,0,.4687,1.3452A1.6535,1.6535,0,0,0,668.8613,140.0781Z"/><path d="M676.3867,132.41h2.8067a3.6526,3.6526,0,0,1,1.416.2642,2.85,2.85,0,0,1,1.0859.7856,3.5654,3.5654,0,0,1,.6914,1.3081,7.1177,7.1177,0,0,1,0,3.66,3.5654,3.5654,0,0,1-.6914,1.3081,2.85,2.85,0,0,1-1.0859.7856,3.6526,3.6526,0,0,1-1.416.2642h-2.8067Zm2.8067,7.4878a2.5185,2.5185,0,0,0,.9492-.1738,2.0616,2.0616,0,0,0,.7441-.51,2.3741,2.3741,0,0,0,.4854-.8223,3.2751,3.2751,0,0,0,.1738-1.11V135.914a3.2751,3.2751,0,0,0-.1738-1.11,2.3741,2.3741,0,0,0-.4854-.8223,2.0679,2.0679,0,0,0-.7441-.51,2.5283,2.5283,0,0,0-.9492-.1738h-1.7989v6.6Z"/><path d="M684.4375,140.7861V132.41H689.55v.8882h-4.1045v2.8076H689.31v.8882h-3.8643v2.9038H689.55v.8882Z"/><path d="M693.63,136.67l-1.1885,1.32v2.7959h-1.0078V132.41h1.0078v4.4522h.0371l1.1992-1.4522,2.5323-3h1.2353l-3.1191,3.5879,3.3359,4.7881h-1.248Z"/></g><g id="Layer_4" data-name="Layer 4"><g id="lock-3" data-name="lock"><g id="lock-4" data-name="lock"><rect class="cls-23" x="669.5" y="107.5942" width="7" height="4"/><path class="cls-8" d="M673,119.5942v-2.8m-4-6.53v-5.07a3.076,3.076,0,0,1,.04-.53,3.9975,3.9975,0,0,1,7.96.53v5.07m0,0c-.16-.09-.33-.18-.5-.26a7.8992,7.8992,0,0,0-3.5-.81,8.2823,8.2823,0,0,0-1.74.19,7.9834,7.9834,0,0,0-1.76.62c-.17.08-.34.17-.5.26a8,8,0,1,0,8,0Z"/><circle cx="673" cy="116.7925" r="1.2"/></g></g><path class="cls-12" d="M640.73,91.7842c-3.17-4.97-4.36-9.06-2.73-10.69,2.21-2.21,8.92.75,16.23,6.8q1.86,1.53,3.75,3.32c.49.46.98.94,1.47,1.43l.63.63c1.2,1.23,2.33,2.47,3.37,3.7a53.7341,53.7341,0,0,1,5.59,7.69"/><path class="cls-12" d="M665.62,114.1142a28.1463,28.1463,0,0,1-4.97-2.53"/></g></svg>