<svg xmlns="http://www.w3.org/2000/svg" viewBox="0 0 750 250"><defs><style>.cls-1,.cls-11,.cls-2,.cls-20,.cls-23,.cls-24,.cls-3,.cls-4,.cls-9{fill:none;}.cls-1,.cls-2,.cls-3,.cls-4{stroke:#9fa5ad;}.cls-1,.cls-19,.cls-2,.cls-20,.cls-3,.cls-4,.cls-5,.cls-9{stroke-miterlimit:10;}.cls-2{stroke-dasharray:2 2;}.cls-3{stroke-dasharray:1.98 1.98;}.cls-4{stroke-dasharray:2.01 2.01;}.cls-5{fill:#f4f4f4;}.cls-11,.cls-12,.cls-13,.cls-19,.cls-20,.cls-22,.cls-5,.cls-6,.cls-7,.cls-8{stroke:#000;}.cls-23,.cls-5{stroke-dasharray:2;}.cls-6{fill:#00bab6;}.cls-11,.cls-12,.cls-19,.cls-20,.cls-23,.cls-24,.cls-6,.cls-7,.cls-8{stroke-linecap:round;}.cls-11,.cls-12,.cls-13,.cls-22,.cls-23,.cls-24,.cls-6,.cls-7,.cls-8{stroke-linejoin:round;}.cls-22,.cls-48,.cls-7{fill:#87eded;}.cls-8{fill:#20d5d2;}.cls-9{stroke:#50565b;stroke-width:2px;}.cls-10{fill:#50565b;}.cls-12,.cls-13,.cls-21{fill:#b3e6ff;}.cls-14,.cls-36{font-size:12px;}.cls-14,.cls-27{font-family:IBMPlexSans, IBM Plex Sans;}.cls-15{letter-spacing:0.01em;}.cls-16{letter-spacing:-0.01em;}.cls-17{letter-spacing:0em;}.cls-18{letter-spacing:0em;}.cls-19{fill:#fff;}.cls-23,.cls-24{stroke:#1193e8;}.cls-24{stroke-dasharray:2 2;}.cls-25{fill:#1193e8;}.cls-26{fill:#e3f6ff;}.cls-27{font-size:10px;}.cls-28{letter-spacing:-0.01em;}.cls-29{letter-spacing:0em;}.cls-30{letter-spacing:0em;}.cls-31{letter-spacing:-0.01em;}.cls-32{letter-spacing:0em;}.cls-33{letter-spacing:0em;}.cls-34{letter-spacing:-0.01em;}.cls-35{letter-spacing:0em;}.cls-36{font-family:IBMPlexSans-SemiBold, IBM Plex Sans;font-weight:700;}.cls-37{letter-spacing:0.01em;}.cls-38{letter-spacing:0em;}.cls-39{letter-spacing:-0.01em;}.cls-40{letter-spacing:0em;}.cls-41{letter-spacing:0.01em;}.cls-42{letter-spacing:-0.01em;}.cls-43{letter-spacing:-0.02em;}.cls-44{letter-spacing:0em;}.cls-45{letter-spacing:-0.02em;}.cls-46{letter-spacing:-0.01em;}.cls-47{letter-spacing:-0.01em;}</style></defs><title>wrapping-keys</title><g id="Layer_1" data-name="Layer 1"><polyline class="cls-1" points="661.5 188.59 661.5 189.59 660.5 189.59"/><line class="cls-2" x1="658.5" y1="189.59" x2="218.5" y2="189.59"/><polyline class="cls-1" points="217.5 189.59 216.5 189.59 216.5 188.59"/><line class="cls-3" x1="216.5" y1="186.62" x2="216.5" y2="17.58"/><polyline class="cls-1" points="216.5 16.59 216.5 15.59 217.5 15.59"/><line class="cls-2" x1="219.5" y1="15.59" x2="659.5" y2="15.59"/><polyline class="cls-1" points="660.5 15.59 661.5 15.59 661.5 16.59"/><line class="cls-3" x1="661.5" y1="18.57" x2="661.5" y2="187.61"/><polyline class="cls-1" points="195.23 188.59 195.23 189.59 194.23 189.59"/><line class="cls-4" x1="192.22" y1="189.59" x2="32.24" y2="189.59"/><polyline class="cls-1" points="31.23 189.59 30.23 189.59 30.23 188.59"/><line class="cls-3" x1="30.23" y1="186.62" x2="30.23" y2="17.58"/><polyline class="cls-1" points="30.23 16.59 30.23 15.59 31.23 15.59"/><line class="cls-4" x1="33.24" y1="15.59" x2="193.22" y2="15.59"/><polyline class="cls-1" points="194.23 15.59 195.23 15.59 195.23 16.59"/><line class="cls-3" x1="195.23" y1="18.57" x2="195.23" y2="187.61"/><rect class="cls-5" x="52.48" y="50.09" width="120.5" height="120"/><rect class="cls-5" x="237.5" y="49.59" width="220" height="120"/><rect class="cls-5" x="603.5" y="49.59" width="112" height="120"/><g id="gear"><path id="gear-2" data-name="gear" class="cls-6" d="M540.42,104.16l-.79,1.88,1.84,1.83-2.79,2.79-1.83-1.83-1.88.77v2.59H531v-2.58l-1.88-.78-1.83,1.83-2.79-2.79,1.83-1.83-.77-1.88H523v-3.94h2.58l.79-1.87-1.84-1.83,2.79-2.79,1.83,1.82,1.88-.77V92.19H535v2.58l1.88.79,1.83-1.83,2.79,2.79-1.83,1.82.77,1.88H543v3.94ZM533,97.53a4.67,4.67,0,1,0,4.67,4.66A4.67,4.67,0,0,0,533,97.53Z"/></g><g id="gear-3" data-name="gear"><path id="gear-4" data-name="gear" class="cls-7" d="M529.42,86.16,528.63,88l1.84,1.83-2.79,2.79-1.83-1.83L524,91.6v2.59H520V91.61l-1.88-.78-1.83,1.83-2.79-2.79L515.36,88l-.77-1.88H512V82.22h2.58l.79-1.87-1.84-1.83,2.79-2.79,1.83,1.82,1.88-.77V74.19H524v2.58l1.88.79,1.83-1.83,2.79,2.79-1.83,1.82.77,1.88H532v3.94ZM522,79.53a4.67,4.67,0,1,0,4.67,4.66A4.67,4.67,0,0,0,522,79.53Z"/></g><g id="gear-5" data-name="gear"><path id="gear-6" data-name="gear" class="cls-8" d="M551.42,86.16,550.63,88l1.84,1.83-2.79,2.79-1.83-1.83L546,91.6v2.59H542V91.61l-1.88-.78-1.83,1.83-2.79-2.79L537.36,88l-.77-1.88H534V82.22h2.58l.79-1.87-1.84-1.83,2.79-2.79,1.83,1.82,1.88-.77V74.19H546v2.58l1.88.79,1.83-1.83,2.79,2.79-1.83,1.82.77,1.88H554v3.94ZM544,79.53a4.67,4.67,0,1,0,4.67,4.66A4.67,4.67,0,0,0,544,79.53Z"/></g><line class="cls-9" x1="448" y1="110.09" x2="496.26" y2="110.09"/><polygon class="cls-10" points="495.09 114.08 502 110.09 495.09 106.11 495.09 114.08"/><line class="cls-9" x1="564" y1="110.09" x2="612.26" y2="110.09"/><polygon class="cls-10" points="611.09 114.08 618 110.09 611.09 106.11 611.09 114.08"/><g id="add"><line class="cls-11" x1="351.5" y1="90.59" x2="361.5" y2="90.59"/><line class="cls-11" x1="356.5" y1="85.59" x2="356.5" y2="95.59"/></g><g id="key"><path class="cls-12" d="M111.75,99.61a11.69,11.69,0,1,1-6-5.22"/><circle cx="98.85" cy="107.95" r="2.5"/><polyline class="cls-13" points="105.75 94.39 122.24 77.89 128.41 77.89 128.41 83.22 118.04 93.58 114.34 93.6 114.34 97.01 111.75 99.61"/></g><text class="cls-14" transform="translate(71.84 139.79)">Enc<tspan class="cls-15" x="19.85" y="0">r</tspan><tspan x="24.37" y="0">y</tspan><tspan class="cls-16" x="30.36" y="0">p</tspan><tspan class="cls-17" x="37.25" y="0">t</tspan><tspan class="cls-18" x="41.41" y="0">ed data</tspan></text><g id="Doc"><polygon class="cls-19" points="96.44 79.94 96.44 116.89 126 116.89 126 87.33 118.61 79.94 96.44 79.94"/><polyline class="cls-20" points="118.61 79.94 118.61 87.33 126 87.33"/><line class="cls-20" x1="102.35" y1="102.85" x2="115.28" y2="102.85"/><line class="cls-20" x1="102.35" y1="91.64" x2="120.09" y2="91.64"/><line class="cls-20" x1="102.35" y1="97.19" x2="120.09" y2="97.19"/></g><g id="lock"><g id="lock-2" data-name="lock"><rect class="cls-21" x="122.5" y="108.59" width="7" height="4"/><path class="cls-12" d="M134,118.19a8,8,0,1,1-8-8A8,8,0,0,1,134,118.19Zm-4-6.93v-5.07a4,4,0,0,0-8,0v5.07m4,6.53v2.8"/><circle cx="126" cy="117.79" r="1.2"/></g></g></g><g id="key-2" data-name="key"><g id="key-3" data-name="key"><path class="cls-7" d="M295,94.13a11.67,11.67,0,1,1-.55-7.93"/><circle cx="280.02" cy="90.91" r="2.5"/><polyline class="cls-22" points="294.49 86.19 317.81 86.19 322.18 90.56 318.41 94.32 303.75 94.32 301.12 91.72 298.71 94.13 295.04 94.13"/></g><g id="key-4" data-name="key"><path class="cls-7" d="M661.64,98.79a11.69,11.69,0,1,1-6-5.22"/><circle cx="648.74" cy="107.13" r="2.5"/><polyline class="cls-22" points="655.63 93.57 672.13 77.08 678.3 77.08 678.3 82.4 667.93 92.77 664.23 92.78 664.23 96.19 661.64 98.79"/></g><g id="key-5" data-name="key"><path class="cls-12" d="M404.54,94.13A11.67,11.67,0,1,1,404,86.2"/><circle cx="389.52" cy="90.91" r="2.5"/><polyline class="cls-13" points="403.99 86.19 427.31 86.19 431.68 90.56 427.91 94.32 413.25 94.32 410.62 91.72 408.21 94.13 404.54 94.13"/></g><g id="key-6" data-name="key"><path class="cls-12" d="M657.75,95.61a11.69,11.69,0,1,1-6-5.22"/><circle cx="644.85" cy="103.95" r="2.5"/><polyline class="cls-13" points="651.75 90.39 668.24 73.89 674.41 73.89 674.41 79.22 664.04 89.58 660.34 89.6 660.34 93.01 657.75 95.61"/></g><line class="cls-23" x1="685" y1="170.09" x2="685" y2="233.59"/><line class="cls-23" x1="684.5" y1="233.59" x2="110.5" y2="233.59"/><line class="cls-24" x1="110.5" y1="233.59" x2="110.5" y2="182.9"/><polygon class="cls-25" points="113.49 183.78 110.5 178.59 107.51 183.78 113.49 183.78"/><path class="cls-26" d="M221,207.09H529a4,4,0,0,1,4,4v22a0,0,0,0,1,0,0H217a0,0,0,0,1,0,0v-22A4,4,0,0,1,221,207.09Z"/><text class="cls-27" transform="translate(252.21 224.18)">DEK <tspan class="cls-28" x="21.24" y="0">r</tspan><tspan class="cls-29" x="24.86" y="0">eturns </tspan><tspan class="cls-30" x="56.12" y="0">t</tspan><tspan x="59.59" y="0">o data se</tspan><tspan class="cls-15" x="100.26" y="0">r</tspan><tspan x="104.03" y="0">vi</tspan><tspan class="cls-31" x="111.45" y="0">c</tspan><tspan x="116.42" y="0">e and w</tspan><tspan class="cls-32" x="151.13" y="0">r</tspan><tspan x="154.76" y="0">aps the data at </tspan><tspan class="cls-33" x="223.73" y="0">r</tspan><tspan x="227.35" y="0">e</tspan><tspan class="cls-34" x="232.84" y="0">s</tspan><tspan class="cls-35" x="237.64" y="0">t</tspan></text></g><g id="text"><text class="cls-36" transform="translate(48.48 37.39)">IBM Cloud d<tspan class="cls-17" x="67.93" y="0">a</tspan><tspan x="74.59" y="0">ta se</tspan><tspan class="cls-37" x="101.3" y="0">r</tspan><tspan class="cls-18" x="106.11" y="0">vi</tspan><tspan class="cls-38" x="115.71" y="0">c</tspan><tspan x="121.81" y="0">e</tspan></text><text class="cls-36" transform="translate(236.63 36.39)">Hyper <tspan class="cls-39" x="36.36" y="0">P</tspan><tspan class="cls-38" x="43.93" y="0">r</tspan><tspan class="cls-40" x="48.59" y="0">ot</tspan><tspan x="59.74" y="0">ect C</tspan><tspan class="cls-41" x="87.61" y="0">r</tspan><tspan x="92.42" y="0">y</tspan><tspan class="cls-16" x="98.71" y="0">p</tspan><tspan class="cls-40" x="105.84" y="0">t</tspan><tspan x="110.28" y="0">o Se</tspan><tspan class="cls-41" x="133.89" y="0">r</tspan><tspan x="138.71" y="0">vi</tspan><tspan class="cls-42" x="148.31" y="0">c</tspan><tspan class="cls-18" x="154.4" y="0">es</tspan></text><text class="cls-14" transform="translate(255.09 129.79)"><tspan class="cls-43">R</tspan><tspan class="cls-44" x="7.5" y="0">oot </tspan><tspan class="cls-45" x="27.98" y="0">k</tspan><tspan class="cls-38" x="34.1" y="0">e</tspan><tspan x="40.63" y="0">y mana</tspan><tspan class="cls-46" x="79.56" y="0">g</tspan><tspan x="85.82" y="0">ed</tspan><tspan x="-0.04" y="14.4">in se</tspan><tspan class="cls-15" x="25.04" y="14.4">r</tspan><tspan x="29.56" y="14.4">vi</tspan><tspan class="cls-46" x="38.47" y="14.4">c</tspan><tspan class="cls-18" x="44.43" y="14.4">e in</tspan><tspan class="cls-47" x="63.67" y="14.4">s</tspan><tspan x="69.43" y="14.4">tan</tspan><tspan class="cls-16" x="86.86" y="14.4">c</tspan><tspan x="92.83" y="14.4">e</tspan></text><text class="cls-14" transform="translate(379.32 129.79)">DEK f<tspan class="cls-42" x="29.38" y="0">r</tspan><tspan x="33.72" y="0">om</tspan><tspan x="-7.16" y="14.4">data se</tspan><tspan class="cls-15" x="32.09" y="14.4">r</tspan><tspan x="36.62" y="14.4">vi</tspan><tspan class="cls-46" x="45.52" y="14.4">c</tspan><tspan x="51.48" y="14.4">e</tspan></text><text class="cls-14" transform="translate(520.53 129.79)">AES <tspan x="-13.54" y="14.4">al</tspan><tspan class="cls-16" x="-3.86" y="14.4">g</tspan><tspan x="2.4" y="14.4">orithm</tspan></text><text class="cls-14" transform="translate(623.63 140.79)"><tspan class="cls-39">W</tspan><tspan class="cls-40" x="10.57" y="0">r</tspan><tspan x="14.93" y="0">apped DEK</tspan></text></g><g id="Layer_4" data-name="Layer 4"><g id="lock-3" data-name="lock"><g id="lock-4" data-name="lock"><rect class="cls-48" x="669.5" y="107.59" width="7" height="4"/><path class="cls-7" d="M673,119.59v-2.8m-4-6.53v-5.07a3.08,3.08,0,0,1,0-.53,4,4,0,0,1,8,.53v5.07m0,0-.5-.26a7.9,7.9,0,0,0-3.5-.81,8.28,8.28,0,0,0-1.74.19,8,8,0,0,0-1.76.62l-.5.26a8,8,0,1,0,8,0Z"/><circle cx="673" cy="116.79" r="1.2"/></g></g><path class="cls-11" d="M640.73,91.78c-3.17-5-4.36-9.06-2.73-10.69,2.21-2.21,8.92.75,16.23,6.8q1.86,1.53,3.75,3.32c.49.46,1,.94,1.47,1.43l.63.63c1.2,1.23,2.33,2.47,3.37,3.7a53.73,53.73,0,0,1,5.59,7.69"/><path class="cls-11" d="M665.62,114.11a28.15,28.15,0,0,1-5-2.53"/></g></svg>